<svg xmlns="http://www.w3.org/2000/svg" width="1019.4" height="2370.4" viewBox="0 0 1019.4 2370.4"><path fill="#00673e" d="M182.9 719.8H194v37.6c0 10 5.5 16.4 16 16.4s16-6.4 16-16.4v-37.6h11.1v37.9c0 15.6-8.9 25.9-27.1 25.9s-27.1-10.4-27.1-25.8zm94.1 34.3c0-7-3.6-9.4-9.1-9.4a15.1 15.1 0 0 0-11.7 6.1v31.7h-9.8v-45.4h9.8v6.2a21.7 21.7 0 0 1 16-7.3c9.8 0 14.7 5.2 14.7 14.5v32H277zm39.6-18.1c8.8 0 14.1 3.7 17.3 8.1l-6.4 6a12.3 12.3 0 0 0-10.5-5.4c-8.2 0-13.7 6.2-13.7 15s5.5 15.2 13.7 15.2a12.5 12.5 0 0 0 10.5-5.4l6.4 6c-3.2 4.4-8.5 8.1-17.3 8.1-13.8 0-23.5-10-23.5-23.9s9.7-23.7 23.5-23.7zm19.4 23.7c0-12.9 8.9-23.7 23.3-23.7s23.4 10.8 23.4 23.7-8.8 23.9-23.4 23.9-23.3-10.8-23.3-23.9zm36.5 0c0-7.9-4.7-15-13.2-15s-13 7.1-13 15 4.7 15.2 13 15.2 13.2-7.1 13.2-15.2zm72-6.8c0-4.9-2.1-8.2-7.4-8.2s-8.5 3.1-10.5 6v31.8h-9.9v-29.6c0-4.9-2.1-8.2-7.5-8.2s-8.4 3.1-10.4 6.1v31.7h-9.9v-45.4h9.9v6.2c1.9-2.8 7.9-7.3 14.7-7.3s10.9 3.4 12.4 8.3a19.5 19.5 0 0 1 15.4-8.3c8.4 0 13.1 4.5 13.1 13.7v32.8h-9.9zm18.9 46.9v-62.7h9.9v6.2a18 18 0 0 1 14.5-7.3c11.8 0 20.1 8.8 20.1 23.7s-8.3 23.9-20.1 23.9a17.6 17.6 0 0 1-14.5-7.4v23.6zm21.5-55.1c-4.6 0-9.5 2.7-11.6 6.1v18a14.8 14.8 0 0 0 11.6 6.1c7.8 0 12.8-6.3 12.8-15.2s-5-15-12.8-15zm29.3-7.6h9.8v6.7c3.4-4.3 8.8-7.7 14.8-7.7v9.7l-3.1-.2c-4.2 0-9.7 2.8-11.7 6v30.9h-9.8zm49-1.1c13.6 0 22.4 10.4 22.4 24.7v2.3h-35.1c.8 6.9 5.9 12.5 14.5 12.5 4.4 0 9.7-1.8 12.8-4.9l4.6 6.4c-4.6 4.4-11.2 6.6-18.5 6.6-13.6 0-23.7-9.5-23.7-23.9s9.6-23.7 23-23.7zm-12.8 20.1H576c-.2-5.4-3.9-12-12.8-12s-12.3 6.4-12.8 12zm41.7 13.3a23.4 23.4 0 0 0 15.4 6.4c6 0 9-2.1 9-5.5s-4.8-5.4-10.4-6.6c-7.8-1.7-17.1-3.8-17.1-13.9 0-7.4 6.4-13.8 17.9-13.8a25.6 25.6 0 0 1 17.6 6.4l-4.1 6.9c-2.7-3.1-7.8-5.4-13.4-5.4s-8.5 1.9-8.5 5 4.5 4.7 9.9 6c7.9 1.7 17.6 3.9 17.6 14.6 0 8-6.7 14.1-18.9 14.1-7.7 0-14.8-2.4-19.5-7zm40.6 0a23.4 23.4 0 0 0 15.4 6.4c5.9 0 9-2.1 9-5.5s-4.8-5.4-10.4-6.6c-7.8-1.7-17.1-3.8-17.1-13.9 0-7.4 6.4-13.8 17.9-13.8a25.6 25.6 0 0 1 17.6 6.4l-4.1 6.9c-2.7-3.1-7.8-5.4-13.4-5.4s-8.5 1.9-8.5 5 4.5 4.7 9.9 6c7.9 1.7 17.5 3.9 17.5 14.6 0 8-6.6 14.1-18.8 14.1-7.7 0-14.8-2.4-19.5-7zm60.2-33.4c13.7 0 22.4 10.4 22.4 24.7v2.3h-35c.7 6.9 5.9 12.5 14.4 12.5 4.4 0 9.7-1.8 12.9-4.9l4.5 6.4c-4.5 4.4-11.2 6.6-18.4 6.6-13.6 0-23.8-9.5-23.8-23.9s9.6-23.7 23-23.7zm-12.7 20.1h25.5c-.2-5.4-3.8-12-12.8-12s-12.3 6.4-12.7 12zm73.1 20.2a18.5 18.5 0 0 1-14.6 7.3c-11.7 0-20.2-8.8-20.2-23.8S727 736 738.7 736a18.3 18.3 0 0 1 14.6 7.4v-23.6h9.8v62.7h-9.8zm0-25.5a15 15 0 0 0-11.8-6.1c-7.8 0-12.8 6.3-12.8 15.1s5 15.1 12.8 15.1a15.2 15.2 0 0 0 11.8-6zm-426.2 81.8h27.6c13.1 0 20.4 9 20.4 19.6s-7.4 19.6-20.4 19.6h-16.6v23.4h-11zm26.1 9.6h-15.1v20h15.1c6.2 0 10.7-4 10.7-10s-4.5-10-10.7-10zm27.3-9.6h23.3c19.5 0 32.8 12.9 32.8 31.3s-13.3 31.3-32.8 31.3h-23.3zm23.3 53c13.6 0 21.5-9.8 21.5-21.7s-7.5-21.7-21.5-21.7h-12.3v43.4zm39.6-53h43v9.6h-32v16.3h31.3v9.7h-31.3v27h-11zm71.5 25.9h-7.5v-8.6h7.5v-2.6c0-10.1 6.1-15.7 14.4-15.7a16.8 16.8 0 0 1 7.9 1.8l-2.1 7.3a7.6 7.6 0 0 0-4-1c-3.8 0-6.3 2.5-6.3 7.6v2.6h9.2v8.6h-9.2v36.7h-9.9zm25.4-22.3a6.1 6.1 0 0 1 6.1-6.1 6.1 6.1 0 1 1 0 12.2 6.1 6.1 0 0 1-6.1-6.1zm1.2 13.7h9.9v45.3h-9.9zm18.9-17.3h9.9v62.6h-9.9zm39.1 16.1c13.6 0 22.4 10.5 22.4 24.7v2.4h-35.1c.8 6.8 5.9 12.5 14.5 12.5 4.4 0 9.7-1.8 12.9-5l4.5 6.5c-4.5 4.3-11.2 6.6-18.4 6.6-13.7 0-23.8-9.5-23.8-23.9s9.6-23.8 23-23.8zm-12.8 20.1h25.6c-.2-5.3-3.9-12-12.8-12s-12.3 6.5-12.8 12z"/><path fill="#94c947" d="M661.9 0H386.4a8.6 8.6 0 0 0-2.8.3c-.9.3-1.8.3-2.4.6a1 1 0 0 0-.6.3l-1.9.9c-.3 0-.3.3-.6.3L376 4.3 238.2 142.6a14.2 14.2 0 0 0-1.8 2.2c0 .3-.3.3-.3.6l-.9 1.8a1 1 0 0 1-.3.6 7.1 7.1 0 0 0-.6 2.5 8.3 8.3 0 0 0-.3 2.7v477.6c0 27.4 22.2 49.7 49.3 49.7h378.9a49.5 49.5 0 0 0 49.4-49.7V49.7A49.7 49.7 0 0 0 661.9 0zM371.4 52.1v56.4c0 25.9-3.9 29.6-29.8 29.6h-55.8zm309.7 578.5a19.1 19.1 0 0 1-18.9 19.2H283.3a19.1 19.1 0 0 1-18.9-19.2V168.5h77.8c42.6 0 60.3-17.3 60.3-60v-78h260a19 19 0 0 1 18.9 19.2v580.9z"/><rect width="493.8" height="228.84" x="349.4" y="354" fill="#fff" stroke="#94c947" stroke-miterlimit="10" stroke-width="32" rx="39.7"/><path fill="#94c947" d="M454.9 403a196.7 196.7 0 0 1 35.3-2.8c17.5 0 30.7 3.6 39.4 11.2s13 17.9 13 30.7-4.1 24.2-11.5 31.7c-9.7 10.1-24.8 14.9-41.1 14.9a55.8 55.8 0 0 1-10.6-.8v53.4h-24.5zm24.5 65.4a42.2 42.2 0 0 0 10.3.9c17.8 0 28.4-9.7 28.4-26 0-14.8-9.2-23.9-26.1-23.9a57.5 57.5 0 0 0-12.6 1.1zm75.4-65.3a208.9 208.9 0 0 1 36-2.9c23.3 0 39.3 5 50.9 14.8s20.9 28 20.9 53.1-8.2 45.3-20.7 56.9-32.3 17.6-56.8 17.6a252.7 252.7 0 0 1-30.3-1.7zm24.5 119.2a69 69 0 0 0 11.6.6c27.9.2 45.9-16.6 45.9-54.2.1-31.2-15.1-49.2-43.3-49.2a67.6 67.6 0 0 0-14.2 1.3zm95.9-121.1h74v20.5h-49.4v39.6h46v20.2h-46v59.8h-24.6z"/><path fill="#00673e" d="M115.7 2216.9l40.1-55.1h-40.1v-12.1h57.9v11.2l-40 55.1h40.9v12.1h-58.8zm65.8-62.6a7.7 7.7 0 1 1 7.6 7.6 7.7 7.7 0 0 1-7.6-7.6zm1.5 17h12.4v56.8H183zm23.6 78.4v-78.4H219v7.8a22.7 22.7 0 0 1 18.2-9.2c14.7 0 25.1 11.1 25.1 29.8s-10.4 29.8-25.1 29.8a22.3 22.3 0 0 1-18.2-9.3v29.5zm26.9-68.8c-5.7 0-11.8 3.4-14.5 7.6v22.4a18.8 18.8 0 0 0 14.5 7.7c9.8 0 16-7.9 16-18.9s-6.2-18.8-16-18.8zm32.1 13.5h28.2v10.5h-28.2zm60.8-24.5c11.1 0 17.8 4.7 21.8 10.1l-8.1 7.6a15.2 15.2 0 0 0-13.1-6.7c-10.3 0-17.1 7.7-17.1 18.8s6.8 18.9 17.1 18.9a15.7 15.7 0 0 0 13.1-6.7l8.1 7.5c-4 5.4-10.7 10.1-21.8 10.1-17.2 0-29.3-12.6-29.3-29.8s12.1-29.8 29.3-29.8zm24.3 29.8c0-16.3 11.2-29.8 29.2-29.8s29.2 13.5 29.2 29.8-11 29.8-29.2 29.8-29.2-13.5-29.2-29.8zm45.6 0c0-10-5.9-18.8-16.4-18.8s-16.4 8.8-16.4 18.8 5.9 18.9 16.4 18.9 16.4-8.8 16.4-18.9zm90.1-8.6c0-6.1-2.7-10.2-9.3-10.2s-10.7 3.8-13.1 7.5v39.7h-12.4v-37c0-6.1-2.7-10.2-9.4-10.2s-10.4 3.8-13 7.6v39.6h-12.3v-56.8h12.3v7.8c2.3-3.5 9.9-9.2 18.4-9.2s13.7 4.3 15.5 10.5a24 24 0 0 1 19.3-10.5c10.5 0 16.3 5.7 16.3 17.2v41h-12.3zm23.6 58.6v-78.4h12.3v7.8a22.9 22.9 0 0 1 18.2-9.2c14.7 0 25.2 11.1 25.2 29.8s-10.5 29.8-25.2 29.8a22.4 22.4 0 0 1-18.2-9.3v29.5zm26.9-68.8c-5.8 0-11.9 3.4-14.6 7.6v22.4a18.8 18.8 0 0 0 14.6 7.7c9.7 0 16-7.9 16-18.9s-6.3-18.8-16-18.8zm36.5-9.6h12.4v8.4c4.2-5.4 11-9.6 18.4-9.6v12.2a15.1 15.1 0 0 0-3.9-.4c-5.2 0-12.1 3.5-14.5 7.5v38.7h-12.4zm61.3-1.4c17.1 0 28 13.1 28 30.9v3h-43.8c.9 8.5 7.4 15.6 18.1 15.6 5.5 0 12.1-2.3 16-6.2l5.7 8.1c-5.7 5.4-14 8.2-23 8.2-17.1 0-29.7-11.9-29.7-29.8s11.9-29.8 28.7-29.8zm-15.9 25.2h31.9c-.2-6.7-4.8-15.1-16-15.1s-15.4 8.1-15.9 15.1zm52.1 16.6c4 4.2 11.9 8 19.3 8s11.1-2.7 11.1-6.9-6-6.7-12.9-8.2c-9.8-2.1-21.4-4.7-21.4-17.4 0-9.3 8-17.3 22.3-17.3 9.7 0 16.9 3.4 22.1 8l-5.2 8.7c-3.4-3.9-9.7-6.8-16.7-6.8s-10.6 2.4-10.6 6.3 5.6 5.9 12.3 7.4c9.9 2.2 22 5 22 18.4 0 9.9-8.4 17.6-23.6 17.6-9.7 0-18.5-3.1-24.3-8.8zm50.7 0c4 4.2 11.9 8 19.3 8s11.1-2.7 11.1-6.9-5.9-6.7-12.9-8.2c-9.7-2.1-21.3-4.7-21.3-17.4 0-9.3 7.9-17.3 22.3-17.3a32.5 32.5 0 0 1 22.1 8l-5.2 8.7c-3.4-3.9-9.8-6.8-16.8-6.8s-10.6 2.4-10.6 6.3 5.7 5.9 12.3 7.4c9.9 2.2 22 5 22 18.4 0 9.9-8.3 17.6-23.6 17.6-9.6 0-18.4-3.1-24.3-8.8zm75.3-41.8c17 0 28 13.1 28 30.9v3h-43.8c.9 8.5 7.4 15.6 18 15.6 5.6 0 12.1-2.3 16.1-6.2l5.7 8.1c-5.7 5.4-14 8.2-23 8.2-17.1 0-29.8-11.9-29.8-29.8s12-29.8 28.8-29.8zm-16 25.2h32c-.3-6.7-4.8-15.1-16-15.1s-15.4 8.1-16 15.1zm91.4 25.2a22.7 22.7 0 0 1-18.2 9.2c-14.6 0-25.2-11.1-25.2-29.7s10.5-29.9 25.2-29.9a22.7 22.7 0 0 1 18.2 9.3v-29.5h12.3v78.4h-12.3zm0-31.8a18.7 18.7 0 0 0-14.7-7.6c-9.7 0-15.9 7.8-15.9 18.9s6.2 18.8 15.9 18.8c5.9 0 11.9-3.3 14.7-7.6zm-518.6 102.2h53.7v12.1h-40v20.3h39.1v12.1h-39.1v33.8h-13.7zm57.4 49.9c0-16.2 11.2-29.7 29.1-29.7s29.3 13.5 29.3 29.7-11.1 29.8-29.3 29.8-29.1-13.5-29.1-29.8zm45.6 0c0-10-5.9-18.8-16.5-18.8s-16.3 8.8-16.3 18.8 5.9 18.9 16.3 18.9 16.5-8.8 16.5-18.9zm20.5-49.9h12.4v78.3h-12.4zm63.6 70.6a23.2 23.2 0 0 1-18.2 9.1c-14.6 0-25.3-11-25.3-29.7s10.6-29.8 25.3-29.8a23 23 0 0 1 18.2 9.2v-29.4h12.3v78.3h-12.3zm0-31.9a18.7 18.7 0 0 0-14.7-7.6c-9.8 0-16 7.9-16 18.9s6.2 18.8 16 18.8c5.9 0 11.9-3.3 14.7-7.5zm48.8-18.5c17.1 0 28 13 28 30.9v2.9h-43.8c.9 8.6 7.4 15.6 18.1 15.6 5.5 0 12.1-2.2 16.1-6.2l5.6 8.1c-5.6 5.4-14 8.2-23 8.2-17.1 0-29.7-11.8-29.7-29.8 0-16.5 11.9-29.7 28.7-29.7zm-15.9 25.1h31.9c-.2-6.7-4.8-15-16-15s-15.4 8.1-15.9 15zm51.4-23.7h12.3v8.3c4.3-5.4 11.1-9.6 18.5-9.6v12.2a21.3 21.3 0 0 0-3.9-.4c-5.2 0-12.1 3.6-14.6 7.6v38.6h-12.3z"/><path fill="#fff" stroke="#94c947" stroke-miterlimit="10" stroke-width="40" d="M428.9 1378.4v-40.2a53.2 53.2 0 0 0-53.3-53.3H93.8c-40.8 0-73.8 10-73.8 50.7v656a73.7 73.7 0 0 0 73.8 73.8h831.8a73.7 73.7 0 0 0 73.8-73.8v-486.2a73.7 73.7 0 0 0-73.8-73.7H482.3a53.4 53.4 0 0 1-53.4-53.3z"/><path fill="#94c947" d="M829.9 1532.6h-61.3v40.9h61.3zm0 81.6h-61.3v40.9h61.3zm-61.3-40.9h-61.2v40.9h61.2zm61.3-122.3h-61.3v40.9h61.3zm-61.3 40.7h-61.2v40.9h61.2zm98 342.9l-36.7-138.8H707.4l-36.7 138.8c-16.3 65.2 32.6 101.9 97.9 101.9s114.3-36.6 98-101.9zM707.4 1859c0-53 122.5-53 122.5 0s-122.5 53-122.5 0z"/><path fill="#e3280a" d="M526.6 1170.8h-33.4v-78h-69.1v-30.3h69.1v-74.9h33.4v74.9h68.7v30.3h-68.7z"/></svg>