<svg xmlns="http://www.w3.org/2000/svg" width="1019.4" height="2753.1" viewBox="0 0 1019.4 2753.1"><path fill="#00673e" d="M83.9 894.8h13.7v78.3H83.9zm63.6 42.8c0-8.8-4.5-11.7-11.4-11.7a18.5 18.5 0 0 0-14.5 7.6v39.6h-12.4v-56.7h12.4v7.7a26.5 26.5 0 0 1 19.9-9.1c12.2 0 18.3 6.5 18.3 18.2v39.9h-12.3zm24-42.8h29.1c24.4 0 41 16.2 41 39.2s-16.6 39.1-41 39.1h-29.1zm29.1 66.2c17 0 26.9-12.2 26.9-27s-9.4-27.2-26.9-27.2h-15.4V961zm74.5-46c17 0 27.9 13 27.9 30.8v3h-43.8c.9 8.5 7.4 15.6 18.1 15.6 5.5 0 12.1-2.2 16.1-6.2l5.6 8.1c-5.6 5.4-14 8.2-23 8.2-17 0-29.7-11.9-29.7-29.8s12-29.7 28.8-29.7zm-16 25.1H291c-.2-6.7-4.8-15-15.9-15s-15.4 8.1-16 15zm52.1 16.7c4 4.1 11.9 7.9 19.3 7.9s11.1-2.7 11.1-6.9-5.9-6.7-12.9-8.2c-9.7-2.1-21.4-4.7-21.4-17.4 0-9.3 8-17.2 22.4-17.2 9.6 0 16.9 3.4 22 7.9l-5.1 8.7c-3.4-3.8-9.8-6.8-16.8-6.8s-10.6 2.4-10.6 6.4 5.6 5.8 12.3 7.4c9.9 2.1 22 4.9 22 18.3 0 10-8.3 17.6-23.6 17.6-9.6 0-18.4-3.1-24.3-8.8zm48.5-57.5a7.7 7.7 0 0 1 7.7-7.6 7.7 7.7 0 0 1 0 15.3 7.7 7.7 0 0 1-7.7-7.7zm1.6 17.1h12.3v56.7h-12.3zm28.6 62.3c4.6 5.3 10.5 7.3 18 7.3s16.8-3.8 16.8-15.4v-6.8c-4.4 5.6-10.8 9.4-18.2 9.4-14.5 0-25.2-10.4-25.2-29.1s10.6-29.1 25.2-29.1a22.6 22.6 0 0 1 18.2 9.2v-7.8H437v53.8c0 20.4-15.1 25.9-29.1 25.9-9.7 0-16.8-2.1-23.7-8.4zm34.8-45.2c-2.7-4.2-8.8-7.6-14.6-7.6-9.7 0-16 7.3-16 18.2s6.3 18.2 16 18.2c5.8 0 11.9-3.4 14.6-7.7zm61.9 4.1c0-8.8-4.5-11.7-11.4-11.7a18.5 18.5 0 0 0-14.6 7.6v39.6h-12.3v-56.7h12.3v7.7a26.7 26.7 0 0 1 20-9.1c12.2 0 18.3 6.5 18.3 18.2v39.9h-12.3zm49.4-42.8h34.4c16.5 0 25.6 11.2 25.6 24.5s-9.3 24.5-25.6 24.5h-20.7v29.3H536zm32.5 12h-18.8v24.9h18.8c7.8 0 13.4-4.9 13.4-12.4s-5.6-12.5-13.4-12.5zm66.2 60.2c-4.3 4.8-10.8 7.5-18.4 7.5-9.2 0-19.7-6.2-19.7-18.8s10.5-18.4 19.7-18.4 14.2 2.4 18.4 7.2v-8.4c0-6.6-5.4-10.6-13.3-10.6-6.4 0-11.9 2.4-16.8 7.2l-5.1-8.6c6.6-6.2 14.8-9.1 23.9-9.1 12.6 0 23.6 5.2 23.6 20.5v37.6h-12.3zm0-15.4c-2.9-3.9-8.1-5.9-13.5-5.9-7 0-12.1 4-12.1 10.2s5.1 10.1 12.1 10.1c5.4 0 10.6-2 13.5-5.8zm49.4-36.6c11 0 17.7 4.6 21.7 10.1l-8.1 7.5a14.9 14.9 0 0 0-13-6.7c-10.3 0-17.2 7.7-17.2 18.8s6.9 18.9 17.2 18.9a15.4 15.4 0 0 0 13-6.7l8.1 7.5c-4 5.4-10.7 10.1-21.7 10.1-17.3 0-29.4-12.6-29.4-29.8s12.1-29.7 29.4-29.7zm48 34.7l-7.8 8.1v15.3h-12.4v-78.3h12.4v48.9l25-27.3h15.3l-23.7 25.7 24.1 31h-15.5zm71.6 17.3c-4.3 4.8-10.8 7.5-18.4 7.5-9.2 0-19.7-6.2-19.7-18.8s10.5-18.4 19.7-18.4 14.2 2.4 18.4 7.2v-8.4c0-6.6-5.4-10.6-13.3-10.6-6.4 0-11.9 2.4-16.8 7.2l-5.1-8.6c6.6-6.2 14.8-9.1 23.9-9.1 12.6 0 23.6 5.2 23.6 20.5v37.6h-12.3zm0-15.4c-2.9-3.9-8.1-5.9-13.5-5.9-7 0-12.1 4-12.1 10.2s5.1 10.1 12.1 10.1c5.4 0 10.6-2 13.5-5.8zm28.6 27.1c4.6 5.3 10.5 7.3 18 7.3s16.8-3.8 16.8-15.4v-6.8c-4.4 5.6-10.8 9.4-18.2 9.4-14.5 0-25.2-10.4-25.2-29.1s10.6-29.1 25.2-29.1a22.6 22.6 0 0 1 18.2 9.2v-7.8h12.3v53.8c0 20.4-15.1 25.9-29.1 25.9-9.6 0-16.8-2.1-23.7-8.4zm34.8-45.2c-2.7-4.2-8.8-7.6-14.6-7.6-9.7 0-16 7.3-16 18.2s6.3 18.2 16 18.2c5.8 0 11.9-3.4 14.6-7.7zm48.8-18.5c17.1 0 28 13 28 30.8v3h-43.8c.9 8.5 7.4 15.6 18.1 15.6 5.5 0 12.1-2.2 16.1-6.2l5.6 8.1c-5.6 5.4-14 8.2-23 8.2-17.1 0-29.7-11.9-29.7-29.8s11.9-29.7 28.7-29.7zM900 940.1h31.9c-.2-6.7-4.8-15-16-15s-15.4 8.1-15.9 15zm-721.6 162.8l40-55.1h-40v-12.1h57.9v11.1l-40.1 55.1h40.9v12.1h-58.7zm65.8-62.6a7.6 7.6 0 1 1 15.2 0 7.6 7.6 0 1 1-15.2 0zm1.5 17H258v56.7h-12.3zm23.6 78.3v-78.3h12.3v7.7a22.8 22.8 0 0 1 18.2-9.1c14.7 0 25.2 11 25.2 29.7s-10.5 29.8-25.2 29.8a22.3 22.3 0 0 1-18.2-9.2v29.4zm26.9-68.8c-5.8 0-11.9 3.4-14.6 7.6v22.5c2.7 4.1 8.8 7.6 14.6 7.6 9.7 0 16-7.9 16-18.9s-6.3-18.8-16-18.8zm36.5 68.8v-78.3H345v7.7a23 23 0 0 1 18.3-9.1c14.6 0 25.1 11 25.1 29.7s-10.5 29.8-25.1 29.8a22.4 22.4 0 0 1-18.3-9.2v29.4zm26.9-68.8c-5.7 0-11.9 3.4-14.6 7.6v22.5c2.7 4.1 8.9 7.6 14.6 7.6 9.8 0 16-7.9 16-18.9s-6.2-18.8-16-18.8zm61.8-10.9c17 0 27.9 13 27.9 30.9v2.9h-43.8c1 8.6 7.4 15.6 18.1 15.6 5.5 0 12.1-2.2 16.1-6.2l5.6 8.1c-5.6 5.4-13.9 8.2-23 8.2-17 0-29.7-11.8-29.7-29.8 0-16.4 12-29.7 28.8-29.7zm-16 25.1h32c-.3-6.7-4.9-15-16-15s-15.4 8.1-16 15zm91.4 25.3a23.1 23.1 0 0 1-18.2 9.1c-14.6 0-25.3-11-25.3-29.7s10.6-29.8 25.3-29.8a22.8 22.8 0 0 1 18.2 9.3v-29.5h12.3v78.3h-12.3zm0-31.9a18.7 18.7 0 0 0-14.7-7.6c-9.7 0-16 7.9-16 18.9s6.3 18.8 16 18.8c5.9 0 11.9-3.3 14.7-7.5zm49.4-38.7h53.7v12.1H560v20.3h39.1v12.1H560v33.8h-13.8zm57.5 49.9c0-16.2 11.1-29.7 29.1-29.7s29.2 13.5 29.2 29.7-11 29.8-29.2 29.8-29.1-13.5-29.1-29.8zm45.5 0c0-10-5.8-18.8-16.4-18.8s-16.3 8.8-16.3 18.8 5.8 18.9 16.3 18.9 16.4-8.8 16.4-18.9zm20.6-49.9h12.3v78.3h-12.3zm63.5 70.6a22.9 22.9 0 0 1-18.2 9.1c-14.6 0-25.2-11-25.2-29.7s10.5-29.8 25.2-29.8a22.7 22.7 0 0 1 18.2 9.3v-29.5h12.3v78.3h-12.3zm0-31.9a18.7 18.7 0 0 0-14.7-7.6c-9.7 0-15.9 7.9-15.9 18.9s6.2 18.8 15.9 18.8c5.9 0 11.9-3.3 14.7-7.5zm48.9-18.5c17 0 27.9 13 27.9 30.9v2.9h-43.8c1 8.6 7.4 15.6 18.1 15.6 5.5 0 12.1-2.2 16.1-6.2l5.6 8.1c-5.6 5.4-13.9 8.2-23 8.2-17 0-29.7-11.8-29.7-29.8 0-16.4 12-29.7 28.8-29.7zm-16 25.1h31.9c-.2-6.7-4.8-15-15.9-15s-15.4 8.1-16 15zm51.4-23.7H830v8.3c4.2-5.4 11-9.6 18.4-9.6v12.2a20.6 20.6 0 0 0-3.9-.3c-5.1 0-12.1 3.5-14.5 7.5v38.6h-12.4z"/><path fill="#e3280a" d="M181.6 2512.2h20.2v60.8h31.4v17.6h-51.6zm55.6 4.1a10.4 10.4 0 1 1 10.4 10.4 10.3 10.3 0 0 1-10.4-10.4zm1.3 17.5h18.1v56.8h-18.1zm18.8 0h19l12.8 36 13-36h19.1l-22.3 56.8h-19.3zm91-1.4c16.8 0 29 12.4 29 31.6v3.9h-40.4c1.1 5.3 6 10.1 14.5 10.1 5 0 10.7-2 13.8-4.8l7.7 11.3c-5.7 5-15.1 7.5-23.7 7.5-17.5 0-31-11.4-31-29.9 0-16.4 12.4-29.7 30.1-29.7zm-11.6 23.8h23.4c-.5-4-3.4-9.8-11.8-9.8s-10.9 5.6-11.6 9.8z"/><path fill="#00673e" d="M408.7 2512.2h13.7v78.4h-13.7zm25.4 0h12.3v78.4h-12.3zm23.6 0H470v78.4h-12.3zm61.9 70.9a27.5 27.5 0 0 1-20.1 8.9c-12.2 0-18.2-6.4-18.2-18v-40.2h12.3v35.7c0 8.9 4.5 11.6 11.4 11.6s11.6-3.6 14.6-7.4v-39.9h12.3v56.8h-12.3zm24.3-8.9c4 4.2 11.8 8 19.2 8s11.2-2.7 11.2-6.9-6-6.7-12.9-8.2c-9.8-2.1-21.4-4.7-21.4-17.4 0-9.3 8-17.3 22.3-17.3a32.5 32.5 0 0 1 22.1 8l-5.2 8.7c-3.4-3.9-9.7-6.8-16.8-6.8s-10.5 2.3-10.5 6.3 5.6 5.9 12.3 7.4c9.9 2.2 22 5 22 18.4 0 9.9-8.4 17.6-23.6 17.6-9.7 0-18.5-3.1-24.4-8.8zm52.5 3.2v-32.8H587v-10.8h9.4v-15.5h12.3v15.5h11.5v10.8h-11.5v29.8c0 3.8 1.9 6.7 5.4 6.7a8 8 0 0 0 5.5-2l3 9.2c-2.3 2.2-5.9 3.7-11.7 3.7-9.5 0-14.5-5.2-14.5-14.6zm30.3-43.6H639v8.4c4.2-5.4 11-9.7 18.4-9.7v12.3a13.8 13.8 0 0 0-3.8-.4c-5.2 0-12.1 3.5-14.6 7.5v38.7h-12.3zm70.7 50.7c-4.3 4.8-10.8 7.5-18.3 7.5-9.3 0-19.8-6.2-19.8-18.8s10.5-18.5 19.8-18.5c7.6 0 14.2 2.5 18.3 7.3v-8.4c0-6.6-5.4-10.6-13.3-10.6q-9.5 0-16.8 7.2l-5-8.6a33.7 33.7 0 0 1 23.8-9.2c12.6 0 23.6 5.3 23.6 20.6v37.6h-12.3zm0-15.4c-2.8-3.9-8.1-5.9-13.5-5.9-7 0-12.1 4-12.1 10.2s5.1 10.1 12.1 10.1c5.4 0 10.7-2 13.5-5.9zm26 8.3v-32.8H714v-10.8h9.4v-15.5h12.4v15.5h11.5v10.8h-11.5v29.8c0 3.8 1.9 6.7 5.4 6.7a8.2 8.2 0 0 0 5.5-2l2.9 9.2c-2.2 2.2-5.8 3.7-11.6 3.7-9.5 0-14.6-5.2-14.6-14.6zm26.8-15.3c0-16.2 11.2-29.7 29.1-29.7s29.3 13.5 29.3 29.7-11 29.9-29.3 29.9-29.1-13.5-29.1-29.9zm45.6 0c0-9.9-5.9-18.7-16.5-18.7s-16.3 8.8-16.3 18.7 5.9 19 16.3 19 16.5-8.9 16.5-19zm20.5-28.3h12.4v8.4c4.2-5.4 11-9.7 18.4-9.7v12.3a14.1 14.1 0 0 0-3.9-.4c-5.1 0-12.1 3.5-14.5 7.5v38.7h-12.4zm-410.5 118.1c15.2 0 25.2 7.3 31.6 16.3l-11.3 6.3a25.1 25.1 0 0 0-20.3-10.4c-15.5 0-27 11.8-27 28.3s11.5 28.4 27 28.4a28.4 28.4 0 0 0 18.5-7v-12.2h-23.4v-12.1h37.2v29.3a42.5 42.5 0 0 1-32.3 14.2c-22.7 0-41.1-16.1-41.1-40.6s18.4-40.5 41.1-40.5zm41.5 22.9h12.4v8.3c4.2-5.4 11-9.6 18.4-9.6v12.2a19.5 19.5 0 0 0-3.9-.4c-5.1 0-12.1 3.6-14.5 7.6v38.6h-12.4zm70.7 50.6c-4.2 4.8-10.8 7.5-18.3 7.5-9.3 0-19.7-6.2-19.7-18.8s10.4-18.4 19.7-18.4c7.7 0 14.2 2.4 18.3 7.3v-8.5c0-6.6-5.4-10.6-13.2-10.6s-11.9 2.4-16.8 7.2l-5.1-8.6c6.6-6.2 14.8-9.1 23.9-9.1 12.5 0 23.6 5.2 23.6 20.5v37.6H518zm0-15.4c-2.8-3.9-8.1-5.9-13.5-5.9s-12.1 4-12.1 10.3 5.2 10.1 12.1 10.1 10.7-2 13.5-5.9zm23.6 43.1v-78.3H554v7.7a22.6 22.6 0 0 1 18.2-9.1c14.7 0 25.1 11 25.1 29.7s-10.4 29.8-25.1 29.8a22.3 22.3 0 0 1-18.2-9.3v29.5zm26.9-68.8c-5.7 0-11.8 3.4-14.5 7.6v22.5c2.7 4.1 8.8 7.6 14.5 7.6 9.8 0 16-7.9 16-18.9s-6.2-18.8-16-18.8zm75 11.5c0-8.8-4.6-11.5-11.5-11.5a18.8 18.8 0 0 0-14.6 7.6v39.6h-12.3v-78.3h12.3v29.3a27.5 27.5 0 0 1 20.1-9.1c12.2 0 18.3 6.3 18.3 17.9v40.2h-12.3z"/><path fill="#fff" stroke="#94c947" stroke-miterlimit="10" stroke-width="40" d="M428.9 113.5V73.3A53.3 53.3 0 0 0 375.6 20H93.8C53 20 20 30 20 70.8v656a73.7 73.7 0 0 0 73.7 73.7h831.9a73.7 73.7 0 0 0 73.8-73.6V240.6a73.7 73.7 0 0 0-73.6-73.8H482.3a53.4 53.4 0 0 1-53.4-53.3z"/><path fill="#94c947" d="M829.9 267.7h-61.3v40.9h61.3zm0 81.6h-61.3v40.9h61.3zm-61.3-40.9h-61.2v40.9h61.2zm61.3-122.3h-61.3V227h61.3v-40.9zm-61.3 40.7h-61.2v40.9h61.2zm98 342.9l-36.7-138.8H707.4l-36.7 138.8c-16.3 65.2 32.6 101.9 97.9 101.9s114.3-36.6 98-101.9zm-159.2 24.4c0-53 122.5-53 122.5 0s-122.5 53-122.5 0zm37.4 978H400.4a10.2 10.2 0 0 0-3.5.4c-1.1.4-2.2.4-3 .7a1.2 1.2 0 0 0-.8.4l-2.3 1.2c-.3 0-.3.3-.7.3s-1.9 1.6-2.7 2.3l-172.2 173a20.4 20.4 0 0 0-2.3 2.7c0 .3-.3.3-.3.7l-1.2 2.3a1.2 1.2 0 0 1-.4.8 7.8 7.8 0 0 0-.7 3 10.2 10.2 0 0 0-.4 3.5v596.9c0 34.3 27.8 62.1 61.7 62.1h473.6a61.8 61.8 0 0 0 61.7-61.9v-726.3a62.1 62.1 0 0 0-62.1-62.1zm-363.1 65.1v70.5c0 32.4-4.9 37-37.3 37h-69.8zm387.1 723.1a23.9 23.9 0 0 1-23.6 24H271.6a23.7 23.7 0 0 1-23.6-23.8v-577.7h97.1c53.4 0 75.5-21.7 75.5-75.1v-97.5h324.9a23.8 23.8 0 0 1 23.7 24v726.1z"/><path fill="#fff" stroke="#94c947" stroke-miterlimit="10" stroke-width="40" d="M393.9 2014.5h537.8a39.7 39.7 0 0 1 39.7 39.7v206.6a39.7 39.7 0 0 1-39.7 39.7H393.9a39.7 39.7 0 0 1-39.7-39.7v-206.6a39.7 39.7 0 0 1 39.7-39.7z"/><path fill="#94c947" d="M615.5 2200.4l-13.3 48.4h-31.3l51.1-175.3h38.2l50.8 175.3h-32.2l-13.9-48.4zm44.8-23.5l-11.9-42.3c-2.9-11-5.7-24.2-8.1-35h-.6c-2.4 10.9-5 24.4-7.8 35l-11.8 42.3zm93.3-89.4c.1 9.5-6.7 16.8-17.4 16.8s-16.6-7.3-16.6-16.8a16.6 16.6 0 0 1 17-17c10 0 16.9 7.1 17 17zm-32.3 161.3v-126.6H752v126.6z"/><path fill="#e3280a" d="M412.9 1353.6l97-133.1 96.6 133.1-61-5.7v127.4h-71.1v-127.4z"/></svg>