<svg xmlns="http://www.w3.org/2000/svg" width="970.4" height="1120.4" viewBox="0 0 970.4 1120.4"><path fill="#00673e" d="M95.6 966.9l40.1-55H95.6v-12.1h57.9v11.1l-40 55.1h40.9v12.1H95.6zm65.8-62.6a7.7 7.7 0 1 1 7.6 7.7 7.7 7.7 0 0 1-7.6-7.7zm1.5 17.1h12.4v56.7h-12.4zm23.6 78.3v-78.3h12.4v7.7a22.6 22.6 0 0 1 18.2-9.1c14.7 0 25.1 11 25.1 29.7s-10.4 29.8-25.1 29.8a22.2 22.2 0 0 1-18.2-9.3v29.5zm26.9-68.8c-5.7 0-11.8 3.4-14.5 7.6V961c2.7 4.1 8.8 7.6 14.5 7.6 9.8 0 16-7.9 16-18.9s-6.2-18.8-16-18.8zm32.1 13.5h28.2V955h-28.2zm60.8-24.4c11.1 0 17.8 4.7 21.8 10.1l-8.1 7.5a15.2 15.2 0 0 0-13.1-6.7c-10.3 0-17.1 7.7-17.1 18.8s6.8 18.9 17.1 18.9a15.7 15.7 0 0 0 13.1-6.7l8.1 7.5c-4 5.4-10.7 10.1-21.8 10.1-17.2 0-29.3-12.6-29.3-29.8s12.1-29.7 29.3-29.7zm24.3 29.7c0-16.2 11.2-29.7 29.2-29.7s29.2 13.5 29.2 29.7-11 29.8-29.2 29.8-29.2-13.5-29.2-29.8zm45.6 0c0-10-5.9-18.8-16.4-18.8s-16.4 8.8-16.4 18.8 5.9 18.9 16.4 18.9 16.4-8.8 16.4-18.9zm90.1-8.6c0-6.1-2.7-10.2-9.3-10.2s-10.7 3.9-13.1 7.5v39.7h-12.4v-37c0-6.1-2.7-10.2-9.4-10.2s-10.4 3.9-13 7.6v39.6h-12.3v-56.7h12.3v7.7c2.3-3.5 9.9-9.1 18.4-9.1s13.7 4.2 15.5 10.4a24.2 24.2 0 0 1 19.3-10.4c10.4 0 16.3 5.6 16.3 17.1v41h-12.3zm23.6 58.6v-78.3h12.3v7.7a22.8 22.8 0 0 1 18.2-9.1c14.7 0 25.2 11 25.2 29.7s-10.5 29.8-25.2 29.8a22.4 22.4 0 0 1-18.2-9.3v29.5zm26.9-68.8c-5.8 0-11.9 3.4-14.6 7.6V961c2.7 4.1 8.8 7.6 14.6 7.6 9.7 0 16-7.9 16-18.9s-6.3-18.8-16-18.8zm36.5-9.5h12.3v8.3c4.3-5.4 11.1-9.6 18.5-9.6v12.2a21.3 21.3 0 0 0-3.9-.4c-5.2 0-12.1 3.6-14.6 7.6v38.6h-12.3zm61.3-1.4c17 0 28 13 28 30.9v2.9h-43.8c.9 8.6 7.4 15.6 18 15.6 5.6 0 12.1-2.2 16.1-6.2l5.7 8.1c-5.7 5.4-14 8.2-23 8.2-17.1 0-29.8-11.8-29.8-29.8 0-16.5 12-29.7 28.8-29.7zm-16 25.1h32c-.2-6.7-4.8-15-16-15s-15.4 8.1-16 15zm52.2 16.7a29.2 29.2 0 0 0 19.2 8c7.4 0 11.2-2.7 11.2-7s-6-6.7-12.9-8.2c-9.8-2.1-21.4-4.7-21.4-17.4 0-9.2 8-17.2 22.3-17.2 9.7 0 16.9 3.4 22.1 8l-5.2 8.6c-3.4-3.8-9.7-6.8-16.8-6.8s-10.5 2.4-10.5 6.4 5.6 5.8 12.3 7.4c9.9 2.1 22 4.9 22 18.3 0 10-8.4 17.6-23.6 17.6-9.7 0-18.5-3-24.4-8.8zm50.7 0a29.5 29.5 0 0 0 19.3 8c7.4 0 11.1-2.7 11.1-7s-6-6.7-12.9-8.2c-9.7-2.1-21.4-4.7-21.4-17.4 0-9.2 8-17.2 22.4-17.2 9.6 0 16.9 3.4 22 8l-5.1 8.6c-3.4-3.8-9.8-6.8-16.8-6.8s-10.6 2.4-10.6 6.4 5.6 5.8 12.3 7.4c9.9 2.1 22 4.9 22 18.3 0 10-8.3 17.6-23.6 17.6-9.6 0-18.4-3-24.3-8.8zm75.3-41.8c17 0 28 13 28 30.9v2.9h-43.9c1 8.6 7.4 15.6 18.1 15.6 5.6 0 12.1-2.2 16.1-6.2l5.7 8.1c-5.7 5.4-14 8.2-23.1 8.2-17 0-29.7-11.8-29.7-29.8 0-16.5 12-29.7 28.8-29.7zm-16 25.1h32c-.3-6.7-4.8-15-16-15s-15.4 8.1-16 15zm91.4 25.3a22.9 22.9 0 0 1-18.2 9.1c-14.6 0-25.3-11-25.3-29.7S819.3 920 834 920a23 23 0 0 1 18.2 9.2v-29.4h12.3v78.3h-12.3zm0-31.9a18.7 18.7 0 0 0-14.7-7.6c-9.7 0-16 7.9-16 18.9s6.3 18.8 16 18.8c5.9 0 11.9-3.3 14.7-7.5zM0 1040.7h13.8v78.3H0zm25.4 0h12.3v78.3H25.4zm23.6 0h12.3v78.3H49zm61.9 70.8a27.2 27.2 0 0 1-20.1 8.9c-12.2 0-18.2-6.3-18.2-17.9v-40.2h12.3v35.7c0 8.8 4.5 11.5 11.4 11.5a18.7 18.7 0 0 0 14.6-7.4v-39.8h12.3v56.7h-12.3zm24.3-8.8a29.5 29.5 0 0 0 19.3 8c7.4 0 11.1-2.7 11.1-6.9s-6-6.7-12.9-8.3c-9.7-2.1-21.4-4.6-21.4-17.3 0-9.3 8-17.3 22.4-17.3 9.6 0 16.9 3.4 22 8l-5.1 8.7c-3.4-3.9-9.8-6.8-16.8-6.8s-10.6 2.3-10.6 6.3 5.6 5.9 12.3 7.4c9.9 2.1 22 4.9 22 18.3 0 10-8.3 17.6-23.6 17.6-9.6 0-18.4-3-24.3-8.8zm52.5 3.2v-32.8h-9.4v-10.8h9.4v-15.5H200v15.5h11.6v10.8H200v29.7c0 3.9 1.9 6.7 5.4 6.7a8 8 0 0 0 5.6-2l2.9 9.3c-2.2 2.1-5.9 3.6-11.6 3.6-9.5 0-14.6-5.1-14.6-14.5zm30.3-43.6h12.3v8.4c4.3-5.5 11.1-9.7 18.5-9.7v12.2a22.1 22.1 0 0 0-3.9-.3c-5.2 0-12.1 3.5-14.6 7.5v38.6H218zm70.7 50.6c-4.2 4.8-10.8 7.5-18.3 7.5-9.3 0-19.7-6.2-19.7-18.7s10.4-18.5 19.7-18.5c7.6 0 14.2 2.5 18.3 7.3v-8.5c0-6.5-5.4-10.5-13.3-10.5-6.3 0-11.8 2.3-16.8 7.1l-5-8.5a33.5 33.5 0 0 1 23.8-9.2c12.6 0 23.6 5.3 23.6 20.6v37.5h-12.3zm0-15.4c-2.8-3.8-8.1-5.8-13.5-5.8s-12.1 4-12.1 10.2 5.2 10.1 12.1 10.1 10.7-2 13.5-5.9zm26.1 8.4v-32.8h-9.4v-10.8h9.4v-15.5h12.3v15.5h11.5v10.8h-11.5v29.7c0 3.9 1.9 6.7 5.4 6.7s4.6-.9 5.5-2l3 9.3c-2.3 2.1-5.9 3.6-11.7 3.6-9.5 0-14.5-5.1-14.5-14.5zm26.8-15.3c0-16.2 11.1-29.7 29.1-29.7s29.2 13.5 29.2 29.7-11 29.8-29.2 29.8-29.1-13.5-29.1-29.8zm45.5 0c0-10-5.8-18.8-16.4-18.8s-16.3 8.8-16.3 18.8 5.8 18.9 16.3 18.9 16.4-8.8 16.4-18.9zm20.6-28.3H420v8.4c4.2-5.5 11.1-9.7 18.5-9.7v12.2a22.1 22.1 0 0 0-3.9-.3c-5.2 0-12.1 3.5-14.6 7.5v38.6h-12.3zm61.9-21.6h29.1c24.4 0 41 16.2 41 39.2s-16.6 39.1-41 39.1h-29.1zm29.1 66.2c17 0 26.9-12.2 26.9-27s-9.4-27.1-26.9-27.1h-15.4v54.1zm45.7-16.3c0-16.2 11.1-29.7 29.1-29.7s29.3 13.5 29.3 29.7-11.1 29.8-29.3 29.8-29.1-13.5-29.1-29.8zm45.5 0c0-10-5.8-18.8-16.4-18.8s-16.3 8.8-16.3 18.8 5.9 18.9 16.3 18.9 16.4-8.8 16.4-18.9zm46.4-29.7c11.1 0 17.8 4.7 21.8 10.1l-8.1 7.5a15.5 15.5 0 0 0-13.1-6.7c-10.3 0-17.1 7.8-17.1 18.8s6.8 18.9 17.1 18.9a15.5 15.5 0 0 0 13.1-6.7l8.1 7.5c-4 5.5-10.7 10.1-21.8 10.1-17.2 0-29.3-12.5-29.3-29.8s12.1-29.7 29.3-29.7zm66.2 50.6a27.2 27.2 0 0 1-20.1 8.9c-12.2 0-18.2-6.3-18.2-17.9v-40.2h12.3v35.7c0 8.8 4.5 11.5 11.4 11.5a19 19 0 0 0 14.6-7.4v-39.8h12.3v56.7h-12.3zm93.1-29.5c0-6.1-2.7-10.2-9.3-10.2s-10.7 3.9-13.1 7.5v39.7h-12.4v-37c0-6.1-2.7-10.2-9.4-10.2s-10.4 3.9-13 7.7v39.5h-12.3v-56.7h12.3v7.8c2.3-3.6 9.9-9.2 18.4-9.2s13.7 4.2 15.5 10.5a24 24 0 0 1 19.3-10.5c10.5 0 16.3 5.6 16.3 17.1v41h-12.3zm48.8-21.1c17.1 0 28 13 28 30.9v2.9h-43.8c.9 8.6 7.4 15.6 18.1 15.6 5.5 0 12.1-2.2 16.1-6.2l5.6 8.1c-5.6 5.4-14 8.2-23 8.2-17 0-29.7-11.8-29.7-29.8 0-16.4 12-29.7 28.7-29.7zm-15.9 25.1h31.9c-.2-6.7-4.8-15-16-15s-15.3 8.1-15.9 15zm89.7-2.4c0-8.8-4.5-11.8-11.4-11.8s-11.7 3.8-14.6 7.7v39.5h-12.3v-56.7h12.3v7.8a26.9 26.9 0 0 1 20-9.2c12.2 0 18.3 6.6 18.3 18.2v39.9h-12.3zm26.1 22.3v-32.8h-9.4v-10.8h9.4v-15.5h12.3v15.5h11.5v10.8h-11.5v29.7c0 3.9 1.9 6.7 5.4 6.7s4.6-.9 5.5-2l3 9.3c-2.3 2.1-5.9 3.6-11.7 3.6-9.5 0-14.5-5.1-14.5-14.5z"/><path fill="#94c947" d="M595.6 112.2h-37.1V137h37.1zm0 49.4h-37.1v24.8h37.1zm-37.1-24.8h-37.1v24.8h37.1zm37.1-74h-37.1v24.7h37.1zm-37.1 24.6h-37.1v24.8h37.1zm59.3 207.7l-22.2-84h-74.2l-22.2 84c-9.9 39.5 19.7 61.8 59.3 61.8s69.2-22.2 59.3-61.8zm-96.4 14.8c0-32.1 74.2-32.1 74.2 0s-74.2 32.1-74.2 0z"/><path fill="#94c947" d="M717.8 0H373.4a10.5 10.5 0 0 0-3.5.4c-1.1.4-2.2.4-3 .7a1.4 1.4 0 0 0-.8.4l-2.3 1.2c-.3 0-.3.3-.7.3s-1.9 1.6-2.7 2.3l-172.2 173a22.8 22.8 0 0 0-2.3 2.7c0 .3-.3.3-.3.7l-1.2 2.3a1.4 1.4 0 0 1-.4.8 8.2 8.2 0 0 0-.7 3 10.5 10.5 0 0 0-.4 3.5v596.9c0 34.3 27.8 62.1 61.7 62.1h473.6a61.8 61.8 0 0 0 61.7-62.1V62.1A62.1 62.1 0 0 0 717.8 0zM354.7 65.1v70.5c0 32.4-4.9 37-37.3 37h-69.8zm387.1 723.1a23.8 23.8 0 0 1-23.6 24H244.6a23.7 23.7 0 0 1-23.6-24V210.7h97.1c53.4 0 75.5-21.7 75.5-75.1V38.1h324.9a23.9 23.9 0 0 1 23.7 24v726.1z"/><rect width="617.2" height="286.05" x="327.2" y="442.4" fill="#fff" stroke="#94c947" stroke-miterlimit="10" stroke-width="40" rx="39.7"/><path fill="#94c947" d="M588.5 628.3l-13.3 48.4h-31.3L595 501.4h38.2L684 676.7h-32.2l-13.9-48.4zm44.8-23.5l-11.9-42.3c-2.9-11-5.7-24.2-8.1-35h-.6c-2.4 10.9-5 24.4-7.8 35l-11.8 42.3zm93.3-89.4c.1 9.5-6.7 16.8-17.4 16.8s-16.6-7.3-16.6-16.8 7-17 17-17 16.9 7.1 17 17zm-32.3 161.3V550.1H725v126.6z"/></svg>