<?xml version="1.0" encoding="utf-8"?>
<!-- Generator: Adobe Illustrator 24.0.1, SVG Export Plug-In . SVG Version: 6.00 Build 0)  -->
<svg version="1.1" id="Layer_1" xmlns="http://www.w3.org/2000/svg" xmlns:xlink="http://www.w3.org/1999/xlink" x="0px" y="0px"
	 viewBox="0 0 1019.4 2639.5" style="enable-background:new 0 0 1019.4 2639.5;" xml:space="preserve">
<style type="text/css">
	.st0{fill:#00673E;}
	.st1{fill:#FFFFFF;stroke:#94C947;stroke-width:40;stroke-miterlimit:10;}
	.st2{fill:#94C947;}
	.st3{fill:#E3280A;}
</style>
<path class="st0" d="M81.9,884.9h13.7v78.3H81.9V884.9z M145.5,927.7c0-8.8-4.5-11.7-11.4-11.7c-5.8,0.1-11.1,2.9-14.5,7.6v39.6
	h-12.4v-56.7h12.4v7.7c5-5.7,12.3-9,19.9-9.1c12.2,0,18.3,6.5,18.3,18.2v39.9h-12.3V927.7z M169.5,884.9h29.1
	c24.4,0,41,16.2,41,39.2s-16.6,39.1-41,39.1h-29.1V884.9z M198.6,951.1c17,0,26.9-12.2,26.9-27s-9.4-27.1-26.9-27.1h-15.4v54.1
	H198.6z M273,905.1c17.1,0,28,13,28,30.8v3h-43.8c0.9,8.6,7.4,15.6,18.1,15.6c5.5,0,12.1-2.2,16.1-6.2l5.6,8.1
	c-5.6,5.4-14,8.2-23,8.2c-17,0-29.7-11.9-29.7-29.8S256.3,905.1,273,905.1L273,905.1z M257.1,930.2H289c-0.2-6.7-4.8-15-16-15
	S257.7,923.3,257.1,930.2z M309.2,946.9c5.2,4.9,12.1,7.8,19.3,8c7.4,0,11.1-2.7,11.1-7s-5.9-6.7-12.9-8.2
	c-9.7-2.1-21.4-4.7-21.4-17.4c0-9.3,8-17.2,22.4-17.2c9.6,0,16.9,3.4,22,7.9l-5.1,8.7c-3.4-3.8-9.8-6.8-16.8-6.8s-10.6,2.4-10.6,6.4
	s5.6,5.8,12.3,7.4c9.9,2.1,22,4.9,22,18.3c0,10-8.3,17.6-23.6,17.6c-9.6,0-18.4-3.1-24.3-8.8L309.2,946.9z M357.7,889.4
	c0.1-4.2,3.5-7.6,7.7-7.6c4.2,0.5,7.3,4.3,6.8,8.5c-0.4,3.6-3.2,6.4-6.8,6.8C361.1,897.1,357.7,893.7,357.7,889.4L357.7,889.4z
	 M359.3,906.5h12.3v56.7h-12.3V906.5z M387.9,968.8c4.6,5.3,10.5,7.3,18,7.3s16.8-3.7,16.8-15.4v-6.8c-4.4,5.7-10.8,9.4-18.2,9.4
	c-14.5,0-25.2-10.4-25.2-29.1s10.6-29.1,25.2-29.1c7.2,0,13.9,3.4,18.2,9.2v-7.8H435v53.8c0,20.4-15.1,25.9-29.1,25.9
	c-9.7,0-16.8-2.1-23.7-8.4L387.9,968.8z M422.7,923.6c-2.7-4.2-8.8-7.6-14.6-7.6c-9.7,0-16,7.3-16,18.2s6.3,18.2,16,18.2
	c5.8,0,11.9-3.4,14.6-7.6V923.6z M484.6,927.7c0-8.8-4.5-11.7-11.4-11.7c-5.8,0.1-11.2,2.9-14.6,7.6v39.6h-12.3v-56.7h12.3v7.7
	c5.1-5.7,12.3-9,20-9.1c12.2,0,18.3,6.5,18.3,18.2v39.9h-12.3V927.7z M534,884.9h34.4c16.5,0,25.6,11.2,25.6,24.5
	s-9.3,24.6-25.6,24.6h-20.7v29.2H534V884.9z M566.5,897h-18.8v24.9h18.8c7.8,0,13.4-5,13.4-12.5S574.3,897,566.5,897z M632.7,957.1
	c-4.3,4.8-10.8,7.5-18.4,7.5c-9.2,0-19.7-6.2-19.7-18.8s10.5-18.4,19.7-18.4s14.2,2.4,18.4,7.3v-8.5c0-6.6-5.4-10.6-13.3-10.6
	c-6.4,0-11.9,2.4-16.8,7.2l-5.1-8.6c6.6-6.2,14.8-9.1,23.9-9.1c12.6,0,23.6,5.2,23.6,20.5v37.6h-12.3L632.7,957.1z M632.7,941.7
	c-2.9-3.9-8.1-5.9-13.5-5.9c-7,0-12.1,4-12.1,10.2s5.1,10.1,12.1,10.1c5.4,0,10.6-1.9,13.5-5.8V941.7z M682.1,905.1
	c11,0,17.7,4.7,21.7,10.1l-8.1,7.5c-2.9-4.4-7.8-6.9-13-6.7c-10.3,0-17.2,7.7-17.2,18.8s6.9,18.9,17.2,18.9c5.2,0.1,10.1-2.4,13-6.7
	l8.1,7.5c-4,5.4-10.7,10.1-21.7,10.1c-17.3,0-29.4-12.6-29.4-29.8S664.8,905.1,682.1,905.1L682.1,905.1z M730.1,939.8l-7.8,8.1v15.3
	h-12.4v-78.3h12.4v48.9l25-27.3h15.3l-23.7,25.7l24.1,31h-15.5L730.1,939.8z M801.7,957.1c-4.3,4.8-10.8,7.5-18.4,7.5
	c-9.2,0-19.7-6.2-19.7-18.8s10.5-18.4,19.7-18.4s14.2,2.4,18.4,7.3v-8.5c0-6.6-5.4-10.6-13.3-10.6c-6.4,0-11.9,2.4-16.8,7.2
	l-5.1-8.6c6.6-6.2,14.8-9.1,23.9-9.1c12.6,0,23.6,5.2,23.6,20.5v37.6h-12.3L801.7,957.1z M801.7,941.7c-2.9-3.9-8.1-5.9-13.5-5.9
	c-7,0-12.1,4-12.1,10.2s5.1,10.1,12.1,10.1c5.4,0,10.6-1.9,13.5-5.8V941.7z M830.3,968.8c4.6,5.3,10.5,7.3,18,7.3
	s16.8-3.7,16.8-15.4v-6.8c-4.4,5.7-10.8,9.4-18.2,9.4c-14.5,0-25.2-10.4-25.2-29.1s10.6-29.1,25.2-29.1c7.2,0,13.9,3.4,18.2,9.2
	v-7.8h12.3v53.8c0,20.4-15.1,25.9-29.1,25.9c-9.6,0-16.8-2.1-23.7-8.4L830.3,968.8z M865.1,923.6c-2.7-4.2-8.8-7.6-14.6-7.6
	c-9.7,0-16,7.3-16,18.2s6.3,18.2,16,18.2c5.8,0,11.9-3.4,14.6-7.6V923.6z M913.9,905.1c17.1,0,28,13,28,30.8v3h-43.8
	c0.9,8.6,7.4,15.6,18.1,15.6c5.5,0,12.1-2.2,16.1-6.2l5.6,8.1c-5.6,5.4-14,8.2-23,8.2c-17.1,0-29.7-11.9-29.7-29.8
	S897.1,905.1,913.9,905.1L913.9,905.1z M898,930.2h31.9c-0.2-6.7-4.8-15-16-15S898.5,923.3,898,930.2z M176.4,1088l40-55h-40v-12.1
	h57.9v11.1l-40.1,55.1h40.9v12.1h-58.7L176.4,1088z M242.2,1025.4c0.1-4.2,3.5-7.6,7.7-7.5s7.6,3.5,7.5,7.7
	c-0.1,4.2-3.4,7.5-7.6,7.5C245.6,1033,242.2,1029.6,242.2,1025.4z M243.7,1042.5H256v56.7h-12.3V1042.5z M267.3,1120.8v-78.3h12.3
	v7.7c4.3-5.7,11-9.1,18.2-9.1c14.7,0,25.2,11,25.2,29.7s-10.5,29.8-25.2,29.8c-7.2,0-14-3.5-18.2-9.3v29.5L267.3,1120.8z
	 M294.2,1052c-5.8,0-11.9,3.4-14.6,7.6v22.4c2.7,4.2,8.8,7.7,14.6,7.7c9.7,0,16-7.9,16-18.9S303.9,1052,294.2,1052L294.2,1052z
	 M330.7,1120.8v-78.3H343v7.7c4.3-5.7,11-9.1,18.2-9.1c14.7,0,25.2,11,25.2,29.7s-10.5,29.8-25.2,29.8c-7.2,0-14-3.5-18.2-9.3v29.5
	L330.7,1120.8z M357.6,1052c-5.7,0-11.9,3.4-14.6,7.6v22.4c2.7,4.2,8.9,7.7,14.6,7.7c9.8,0,16-7.9,16-18.9S367.4,1052,357.6,1052
	L357.6,1052z M419.4,1041.1c17,0,27.9,13,27.9,30.8v3h-43.8c1,8.6,7.4,15.6,18.1,15.6c5.5,0,12.1-2.2,16.1-6.2l5.6,8.1
	c-5.6,5.4-13.9,8.2-23,8.2c-17,0-29.7-11.9-29.7-29.8S402.6,1041.1,419.4,1041.1z M403.4,1066.2h32c-0.3-6.7-4.9-15-16-15
	S404,1059.3,403.4,1066.2z M494.8,1091.4c-4.3,5.7-11,9.2-18.2,9.2c-14.6,0-25.3-11-25.3-29.7s10.6-29.8,25.3-29.8
	c7.2,0,13.9,3.4,18.2,9.2v-29.4h12.3v78.3h-12.3V1091.4z M494.8,1059.6c-3.5-4.7-8.9-7.5-14.7-7.6c-9.7,0-16,7.8-16,18.9
	s6.3,18.8,16,18.8c5.9,0,11.9-3.3,14.7-7.5V1059.6z M544.2,1020.9h53.7v12.1H558v20.3h39.1v12.1H558v33.8h-13.8L544.2,1020.9z
	 M601.7,1070.8c0-16.2,11.1-29.7,29.1-29.7s29.2,13.5,29.2,29.7s-11,29.8-29.2,29.8S601.7,1087.1,601.7,1070.8z M647.2,1070.8
	c0-10-5.8-18.8-16.4-18.8s-16.3,8.8-16.3,18.8s5.8,18.9,16.3,18.9S647.2,1080.9,647.2,1070.8z M667.8,1020.9h12.3v78.3h-12.3V1020.9
	z M731.3,1091.4c-4.3,5.8-11,9.2-18.2,9.2c-14.6,0-25.2-11-25.2-29.7s10.5-29.8,25.2-29.8c7.2,0,13.9,3.4,18.2,9.2v-29.4h12.3v78.3
	h-12.3V1091.4z M731.3,1059.6c-3.5-4.7-8.9-7.5-14.7-7.6c-9.7,0-15.9,7.8-15.9,18.9s6.2,18.8,15.9,18.8c5.9,0,11.9-3.3,14.7-7.5
	V1059.6z M780.2,1041.1c17,0,27.9,13,27.9,30.8v3h-43.8c1,8.6,7.4,15.6,18.1,15.6c5.5,0,12.1-2.2,16.1-6.2l5.6,8.1
	c-5.6,5.4-13.9,8.2-23,8.2c-17,0-29.7-11.9-29.7-29.8S763.4,1041.1,780.2,1041.1L780.2,1041.1z M764.2,1066.2h31.9
	c-0.2-6.7-4.8-15-15.9-15S764.8,1059.3,764.2,1066.2z M815.6,1042.5H828v8.3c4.2-5.4,11-9.6,18.4-9.6v12.2c-1.3-0.3-2.6-0.4-3.9-0.4
	c-5.1,0-12.1,3.6-14.5,7.6v38.6h-12.4V1042.5z"/>
<path class="st1" d="M428.9,113.5V73.3c0-29.4-23.9-53.3-53.3-53.3H93.8C53,20,20,30,20,70.8v656c0,40.7,33,73.7,73.7,73.7
	c0,0,0.1,0,0.1,0h831.8c40.7,0.1,73.7-32.9,73.8-73.6c0,0,0-0.1,0-0.1V240.6c0.1-40.7-32.9-73.7-73.6-73.8c-0.1,0-0.1,0-0.2,0H482.3
	C452.8,166.8,429,143,428.9,113.5z"/>
<path class="st2" d="M829.9,267.7h-61.3v40.9h61.3V267.7z M829.9,349.3h-61.3v40.9h61.3V349.3z M768.6,308.4h-61.2v40.9h61.2V308.4z
	 M829.9,186.1h-61.3V227h61.3V186.1z M768.6,226.8h-61.2v40.9h61.2V226.8z M866.6,569.7l-36.7-138.8H707.4l-36.7,138.8
	c-16.3,65.2,32.6,101.9,97.9,101.9S882.9,635,866.6,569.7z M707.4,594.1c0-53,122.5-53,122.5,0S707.4,647.1,707.4,594.1z"/>
<path class="st0" d="M123.5,2406.8h13.9v46.9c0,12.5,6.9,20.6,20.1,20.6c13.2,0,19.9-8.1,19.9-20.6v-46.9h13.9v47.3
	c0,19.5-11.2,32.4-33.8,32.4s-34-13-34-32.3L123.5,2406.8z M241.2,2449.6c0-8.8-4.4-11.7-11.4-11.7s-11.7,3.8-14.5,7.6v39.6h-12.4
	v-56.7h12.4v7.7c5-5.7,12.3-9,19.9-9.1c12.2,0,18.4,6.5,18.4,18.2v39.9h-12.4V2449.6z M290.7,2427c11,0,17.7,4.7,21.7,10.1l-8.1,7.5
	c-2.9-4.4-7.9-6.9-13.1-6.7c-10.3,0-17.1,7.7-17.1,18.8c0,11.1,6.8,18.9,17.1,18.9c5.2,0.1,10.1-2.4,13.1-6.7l8.1,7.5
	c-4,5.4-10.7,10.1-21.7,10.1c-17.3,0-29.4-12.6-29.4-29.8C261.3,2439.5,273.4,2427,290.7,2427L290.7,2427z M315,2456.7
	c0-16.2,11.1-29.7,29.1-29.7s29.2,13.5,29.2,29.7c0,16.2-11,29.8-29.2,29.8C325.9,2486.5,315,2473,315,2456.7z M360.5,2456.7
	c0-10-5.8-18.8-16.4-18.8c-10.6,0-16.3,8.8-16.3,18.8s5.8,18.9,16.3,18.9S360.5,2466.8,360.5,2456.7z M450.6,2448.1
	c0-6.1-2.7-10.2-9.3-10.2s-10.6,3.9-13.1,7.5v39.7h-12.3v-37c0-6.1-2.7-10.2-9.4-10.2s-10.5,3.9-13.1,7.6v39.6h-12.3v-56.7h12.3v7.7
	c2.4-3.5,9.9-9.1,18.5-9.1s13.6,4.2,15.5,10.4c3.3-5.1,10.8-10.4,19.2-10.4c10.5,0,16.4,5.6,16.4,17.1v41h-12.4L450.6,2448.1z
	 M474.2,2506.7v-78.3h12.4v7.7c4.3-5.7,11-9.1,18.2-9.1c14.6,0,25.1,11,25.1,29.7s-10.5,29.8-25.1,29.8c-7.2,0-14-3.4-18.2-9.3v29.5
	H474.2z M501.1,2437.9c-5.7,0-11.8,3.4-14.5,7.6v22.5c2.7,4.1,8.8,7.6,14.5,7.6c9.8,0,16-7.9,16-18.9S510.9,2437.9,501.1,2437.9
	L501.1,2437.9z M537.6,2428.4H550v8.3c4.2-5.4,11-9.6,18.4-9.6v12.2c-1.3-0.3-2.6-0.4-3.9-0.4c-5.1,0-12.1,3.6-14.5,7.6v38.6h-12.4
	V2428.4z M598.9,2427c17.1,0,28,13,28,30.9v2.9h-43.8c0.9,8.6,7.4,15.6,18.1,15.6c5.5,0,12.1-2.2,16.1-6.2l5.6,8.1
	c-5.6,5.4-14,8.2-23,8.2c-17,0-29.7-11.8-29.7-29.8C570.2,2440.2,582.2,2427,598.9,2427L598.9,2427z M583,2452.1h31.9
	c-0.2-6.7-4.8-15-16-15S583.6,2445.2,583,2452.1z M635.1,2468.8c5.2,4.9,12.1,7.8,19.3,8c7.4,0,11.1-2.7,11.1-7s-6-6.7-12.9-8.2
	c-9.7-2.1-21.4-4.7-21.4-17.4c0-9.2,8-17.2,22.4-17.2c9.6,0,16.9,3.4,22,8l-5.1,8.6c-3.4-3.8-9.8-6.8-16.8-6.8s-10.6,2.4-10.6,6.4
	s5.6,5.8,12.3,7.4c9.9,2.1,22,4.9,22,18.3c0,10-8.3,17.6-23.6,17.6c-9.6,0-18.4-3-24.3-8.8L635.1,2468.8z M685.9,2468.8
	c3.9,4.1,11.8,8,19.2,8s11.2-2.7,11.2-7s-6-6.7-12.9-8.2c-9.8-2.1-21.4-4.7-21.4-17.4c0-9.2,8-17.2,22.3-17.2c8.1-0.2,16,2.7,22.1,8
	l-5.2,8.6c-3.4-3.8-9.7-6.8-16.8-6.8s-10.6,2.4-10.6,6.4s5.7,5.8,12.4,7.4c9.8,2.1,21.9,4.9,21.9,18.3c0,10-8.3,17.6-23.6,17.6
	c-9.6,0-18.4-3-24.3-8.8L685.9,2468.8z M761.1,2427c17.1,0,28,13,28,30.9v2.9h-43.8c0.9,8.6,7.4,15.6,18.1,15.6
	c5.5,0,12.1-2.2,16.1-6.2l5.6,8.1c-5.6,5.4-14,8.2-23,8.2c-17.1,0-29.7-11.8-29.7-29.8C732.4,2440.2,744.3,2427,761.1,2427
	L761.1,2427z M745.2,2452.1h31.9c-0.2-6.7-4.8-15-16-15S745.7,2445.2,745.2,2452.1z M836.5,2477.4c-4.3,5.7-11,9.1-18.2,9.1
	c-14.5,0-25.2-11-25.2-29.7s10.5-29.8,25.2-29.8c7.2,0,13.9,3.4,18.2,9.2v-29.4h12.4v78.3h-12.4V2477.4z M836.5,2445.5
	c-3.4-4.7-8.8-7.5-14.6-7.6c-9.8,0-16,7.9-16,18.9s6.2,18.8,16,18.8c5.8,0,11.8-3.3,14.6-7.5V2445.5z M303.9,2547.7h34.4
	c16.4,0,25.6,11.3,25.6,24.5s-9.3,24.6-25.6,24.6h-20.7v29.2h-13.7V2547.7z M336.4,2559.8h-18.8v24.9h18.8c7.8,0,13.4-4.9,13.4-12.5
	C349.8,2564.6,344.2,2559.8,336.4,2559.8z M370.6,2547.7h29.1c24.4,0,41,16.2,41,39.2s-16.6,39.1-41,39.1h-29.1L370.6,2547.7z
	 M399.7,2613.9c17,0,26.9-12.2,26.9-27s-9.4-27.1-26.9-27.1h-15.4v54.1H399.7z M449.3,2547.7h53.6v12.1H463v20.3h39.1v12.1H463v33.8
	h-13.7V2547.7z M538.6,2580.1h-9.4v-10.8h9.4v-3.2c0-12.6,7.6-19.6,18-19.6c3.4-0.1,6.9,0.7,9.9,2.3l-2.7,9.1
	c-1.5-0.9-3.2-1.4-5-1.3c-4.8,0-7.8,3.2-7.8,9.5v3.2h11.5v10.8H551v45.9h-12.4L538.6,2580.1z M570.4,2552.3c0-4.2,3.4-7.6,7.6-7.6
	c4.2,0,7.6,3.4,7.6,7.6c0,4.2-3.4,7.6-7.6,7.6C573.8,2559.9,570.4,2556.5,570.4,2552.3z M571.9,2569.3h12.3v56.7h-12.3V2569.3z
	 M595.5,2547.7h12.3v78.3h-12.3V2547.7z M644.3,2567.9c17.1,0,28,13,28,30.9v2.9h-43.8c0.9,8.6,7.4,15.6,18.1,15.6
	c5.5,0,12.1-2.2,16.1-6.2l5.6,8.1c-5.6,5.4-14,8.2-23,8.2c-17.1,0-29.7-11.8-29.7-29.8C615.6,2581.2,627.5,2567.9,644.3,2567.9
	L644.3,2567.9z M628.4,2593h31.9c-0.2-6.7-4.8-15-16-15S629,2586.1,628.4,2593z"/>
<path class="st2" d="M722.3,1507H377.9c-1.1-0.1-2.3,0.1-3.4,0.4c-1.2,0.4-2.3,0.4-3.1,0.7c-0.3,0-0.5,0.2-0.7,0.4l-2.3,1.2
	c-0.4,0-0.4,0.3-0.8,0.3c-0.4,0-1.9,1.6-2.6,2.3l-172.2,173c-0.9,0.8-1.7,1.7-2.3,2.7c0,0.3-0.4,0.3-0.4,0.7l-1.2,2.3
	c0,0.3-0.1,0.6-0.3,0.8c-0.5,0.9-0.7,2-0.8,3c-0.3,1.1-0.5,2.3-0.4,3.5v596.9c0,34.3,27.8,62.1,61.7,62.1h473.6
	c34.1-0.1,61.8-27.8,61.7-61.9c0-0.1,0-0.1,0-0.2v-726.1C784.4,1534.8,756.5,1507,722.3,1507C722.3,1507,722.3,1507,722.3,1507z
	 M359.2,1572.1v70.5c0,32.4-4.9,37-37.3,37h-69.7L359.2,1572.1z M746.3,2295.2c0.1,13.1-10.5,23.9-23.6,24c0,0,0,0,0,0H249.1
	c-13.1-0.1-23.7-10.9-23.6-24c0,0,0,0,0,0v-577.5h97.2c53.3,0,75.4-21.7,75.4-75.1v-97.5h325c13.1,0.2,23.7,10.9,23.6,24v726.1
	H746.3z"/>
<path class="st1" d="M371.4,1949.4h537.8c21.9,0,39.7,17.8,39.7,39.7v206.6c0,21.9-17.8,39.7-39.7,39.7H371.4
	c-21.9,0-39.7-17.8-39.7-39.7v-206.6C331.7,1967.2,349.4,1949.4,371.4,1949.4z"/>
<path class="st2" d="M463.6,2010.8c14.6-2.5,29.3-3.7,44.1-3.6c21.9,0,38.3,4.5,49.3,14s16.2,22.4,16.2,38.4s-5.1,30.2-14.4,39.6
	c-12.1,12.6-31,18.6-51.3,18.6c-4.5,0.1-8.9-0.2-13.3-0.9v66.8h-30.6L463.6,2010.8z M494.2,2092.5c4.2,0.8,8.6,1.2,12.9,1.1
	c22.3,0,35.5-12.1,35.5-32.5c0-18.5-11.5-29.9-32.6-29.9c-5.3-0.1-10.6,0.4-15.8,1.5V2092.5z M588.4,2010.9
	c14.9-2.6,30-3.8,45.1-3.7c29.1,0,49.1,6.3,63.6,18.6c16.2,13.5,26.1,35,26.1,66.4c0,33.2-10.3,56.5-25.9,71s-40.3,22-70.9,22
	c-12.7,0.1-25.4-0.6-38-2.1L588.4,2010.9z M619.1,2159.9c4.8,0.7,9.7,0.9,14.5,0.8c34.8,0.1,57.4-20.8,57.4-67.9
	c0.1-38.9-18.9-61.4-54.2-61.4c-5.9-0.1-11.9,0.4-17.7,1.6V2159.9z M739,2008.4h92.5v25.7h-61.8v49.6h57.6v25.2h-57.6v74.8H739
	L739,2008.4z"/>
<path class="st3" d="M526.1,1385.3h-33.4v-78h-69.1V1277h69.1v-74.9h33.4v74.9h68.7v30.3h-68.7V1385.3z"/>
</svg>
