<?xml version="1.0" encoding="utf-8"?>
<!-- Generator: Adobe Illustrator 24.0.1, SVG Export Plug-In . SVG Version: 6.00 Build 0)  -->
<svg version="1.1" id="Layer_1" xmlns="http://www.w3.org/2000/svg" xmlns:xlink="http://www.w3.org/1999/xlink" x="0px" y="0px"
	 viewBox="0 0 1129.9 1125.7" style="enable-background:new 0 0 1129.9 1125.7;" xml:space="preserve">
<style type="text/css">
	.st0{fill:#00673E;}
	.st1{fill:#FFFFFF;}
	.st2{fill:#94C947;}
</style>
<title>zip-compressed-folder</title>
<g id="Layer_2_1_">
	<g id="Layer_1-2">
		<path class="st0" d="M362,884.9h53.7V897h-40v20.3h39.1v12.1h-39.1v33.8H362V884.9z"/>
		<path class="st0" d="M421.4,889.4c0-4.3,3.4-7.7,7.7-7.7s7.7,3.4,7.7,7.7c0,4.3-3.4,7.7-7.7,7.7c0,0-0.1,0-0.1,0
			C424.8,897,421.4,893.6,421.4,889.4z M422.9,906.5h12.4v56.7h-12.4V906.5z"/>
		<path class="st0" d="M446.5,884.9h12.4v78.3h-12.4V884.9z"/>
		<path class="st0" d="M495.4,905.1c17,0,28,13,28,30.8v3h-43.9c1,8.6,7.4,15.6,18.1,15.6c5.6,0,12.1-2.2,16.1-6.2l5.7,8.1
			c-5.7,5.4-14,8.2-23.1,8.2c-17,0-29.7-11.9-29.7-29.8S478.6,905.1,495.4,905.1z M479.4,930.2h32c-0.3-6.7-4.8-15-16-15
			S480,923.3,479.4,930.2L479.4,930.2z"/>
		<path class="st0" d="M531.6,946.9c5.2,4.9,12,7.8,19.2,8c7.4,0,11.2-2.7,11.2-7s-6-6.7-12.9-8.2c-9.8-2.1-21.4-4.7-21.4-17.4
			c0-9.3,8-17.2,22.3-17.2c8.1-0.2,16,2.6,22.1,7.9l-5.2,8.7c-3.4-3.8-9.7-6.8-16.8-6.8s-10.5,2.4-10.5,6.4s5.6,5.8,12.3,7.4
			c9.9,2.1,22,4.9,22,18.3c0,10-8.4,17.6-23.7,17.6c-9.6,0-18.4-3.1-24.3-8.8L531.6,946.9z"/>
		<path class="st0" d="M605.6,889.4c0.1-4.2,3.5-7.6,7.7-7.5c4.2,0.1,7.6,3.5,7.5,7.7c-0.1,4.2-3.4,7.5-7.6,7.5
			C609,897,605.6,893.6,605.6,889.4z M607.1,906.5h12.3v56.7h-12.3V906.5z"/>
		<path class="st0" d="M669,927.7c0-8.8-4.5-11.7-11.4-11.7c-5.8,0.1-11.2,2.9-14.6,7.6v39.6h-12.3v-56.7H643v7.7
			c5.1-5.7,12.4-9,20-9.1c12.2,0,18.3,6.5,18.3,18.2v39.9H669V927.7z"/>
		<path class="st0" d="M752.7,957.1c-4.2,4.8-10.8,7.5-18.3,7.5c-9.3,0-19.7-6.2-19.7-18.8s10.4-18.4,19.7-18.4
			c7.6,0,14.2,2.4,18.3,7.3v-8.5c0-6.6-5.4-10.6-13.3-10.6c-6.3,0-11.8,2.4-16.8,7.2l-5-8.6c6.4-6,15-9.3,23.8-9.1
			c12.6,0,23.6,5.2,23.6,20.5v37.6h-12.3V957.1z M752.7,941.7c-2.8-3.9-8.1-5.9-13.5-5.9s-12.1,4-12.1,10.2s5.2,10.1,12.1,10.1
			s10.7-1.9,13.5-5.8V941.7z"/>
		<path class="st0" d="M0,1093l40-55.1H0v-12.1h57.9v11.1L17.8,1092h40.9v12.1H0V1093z"/>
		<path class="st0" d="M65.7,1030.4c0.1-4.2,3.5-7.6,7.7-7.7c4.2,0.5,7.3,4.3,6.8,8.5c-0.4,3.6-3.2,6.4-6.8,6.8
			C69.2,1038,65.8,1034.6,65.7,1030.4z M67.3,1047.4h12.3v56.7H67.3V1047.4z"/>
		<path class="st0" d="M90.9,1125.7v-78.3h12.3v7.8c4.2-5.8,11-9.2,18.2-9.2c14.7,0,25.1,11,25.1,29.7s-10.4,29.8-25.1,29.8
			c-7.2,0.1-14-3.4-18.2-9.2v29.4L90.9,1125.7z M117.8,1056.9c-5.8,0-11.9,3.4-14.6,7.6v22.5c2.7,4.1,8.8,7.6,14.6,7.6
			c9.7,0,15.9-7.9,15.9-18.9S127.5,1056.9,117.8,1056.9L117.8,1056.9z"/>
		<path class="st0" d="M149.8,1070.4H178v10.6h-28.2V1070.4z"/>
		<path class="st0" d="M181.7,1065c0-24.1,17.9-40.5,40.5-40.5c16.4,0,26.2,8.2,32,17.6l-11.7,6c-4.3-7.1-12-11.5-20.3-11.4
			c-14.9,0-26.5,11.9-26.5,28.3s11.6,28.3,26.5,28.3c8.3,0.1,16.1-4.2,20.3-11.4l11.7,6c-6,9.4-15.6,17.6-32,17.6
			C199.6,1105.5,181.7,1089.1,181.7,1065z"/>
		<path class="st0" d="M256.7,1075.7c0-16.2,11.2-29.7,29.1-29.7s29.3,13.5,29.3,29.7s-11.1,29.8-29.3,29.8S256.7,1092,256.7,1075.7
			z M302.3,1075.7c0-10-5.9-18.8-16.5-18.8s-16.3,8.8-16.3,18.8s5.9,18.9,16.3,18.9S302.3,1085.8,302.3,1075.7z"/>
		<path class="st0" d="M392.3,1067.1c0-6.1-2.7-10.2-9.2-10.2s-10.7,3.9-13.2,7.5v39.7h-12.3v-37c0-6.1-2.7-10.2-9.4-10.2
			s-10.5,3.9-13.1,7.6v39.6h-12.3v-56.7h12.3v7.8c2.4-3.6,9.9-9.2,18.5-9.2s13.6,4.2,15.5,10.4c4.4-6.3,11.6-10.2,19.3-10.4
			c10.4,0,16.3,5.6,16.3,17.1v41h-12.4V1067.1z"/>
		<path class="st0" d="M416,1125.7v-78.3h12.3v7.8c4.2-5.8,11-9.2,18.2-9.2c14.7,0,25.1,11,25.1,29.7s-10.4,29.8-25.1,29.8
			c-7.2,0.1-14-3.4-18.2-9.2v29.4L416,1125.7z M442.8,1056.9c-5.7,0-11.8,3.4-14.5,7.6v22.5c2.7,4.1,8.8,7.6,14.5,7.6
			c9.8,0,16-7.9,16-18.9S452.6,1056.9,442.8,1056.9L442.8,1056.9z"/>
		<path class="st0" d="M479.4,1047.4h12.3v8.3c4.2-5.4,11-9.6,18.4-9.6v12.2c-1.3-0.2-2.5-0.3-3.8-0.3c-5.2,0-12.1,3.5-14.6,7.5
			v38.6h-12.3V1047.4z"/>
		<path class="st0" d="M540.7,1046c17,0,27.9,13,27.9,30.9v2.9h-43.8c1,8.6,7.4,15.6,18.1,15.6c5.5,0,12.1-2.2,16.1-6.2l5.6,8.1
			c-5.6,5.4-13.9,8.2-23,8.2c-17,0-29.7-11.8-29.7-29.8C511.9,1059.3,523.9,1046,540.7,1046z M524.7,1071.1h31.9
			c-0.2-6.7-4.8-15-15.9-15S525.3,1064.2,524.7,1071.1z"/>
		<path class="st0" d="M576.8,1087.8c5.2,4.9,12.1,7.8,19.3,8c7.4,0,11.2-2.7,11.2-6.9s-6-6.7-13-8.3c-9.7-2.1-21.3-4.7-21.3-17.3
			c0-9.3,8-17.3,22.3-17.3c8.1-0.2,16,2.7,22.1,8l-5.2,8.7c-3.4-3.9-9.8-6.8-16.8-6.8s-10.6,2.3-10.6,6.3s5.7,5.9,12.4,7.4
			c9.8,2.1,21.9,4.9,21.9,18.3c0,10-8.3,17.6-23.6,17.6c-9.6,0-18.4-3-24.3-8.8L576.8,1087.8z"/>
		<path class="st0" d="M627.6,1087.8c5.2,4.9,12,7.8,19.2,8c7.4,0,11.2-2.7,11.2-6.9s-6-6.7-12.9-8.3c-9.8-2.1-21.4-4.7-21.4-17.3
			c0-9.3,8-17.3,22.3-17.3c8.1-0.2,16,2.7,22.1,8l-5.2,8.7c-3.4-3.9-9.7-6.8-16.8-6.8s-10.5,2.3-10.5,6.3s5.6,5.9,12.3,7.4
			c9.9,2.1,22,4.9,22,18.3c0,10-8.4,17.6-23.6,17.6c-9.7,0-18.5-3-24.4-8.8L627.6,1087.8z"/>
		<path class="st0" d="M702.9,1046c17,0,27.9,13,27.9,30.9v2.9H687c0.9,8.6,7.4,15.6,18.1,15.6c5.5,0,12.1-2.2,16.1-6.2l5.6,8.1
			c-5.6,5.4-14,8.2-23,8.2c-17,0-29.7-11.8-29.7-29.8C674.1,1059.3,686.1,1046,702.9,1046z M686.9,1071.1h31.9
			c-0.2-6.7-4.8-15-15.9-15S687.5,1064.2,686.9,1071.1z"/>
		<path class="st0" d="M778.3,1096.4c-4.3,5.7-11.1,9-18.2,9.1c-14.6,0-25.3-11-25.3-29.7s10.6-29.8,25.3-29.8
			c7.2,0.1,13.9,3.5,18.2,9.3v-29.5h12.3v78.3h-12.3V1096.4z M778.3,1064.5c-3.5-4.7-8.9-7.5-14.7-7.6c-9.8,0-16,7.9-16,18.9
			s6.2,18.8,16,18.8c5.8-0.1,11.2-2.9,14.7-7.5V1064.5z"/>
		<path class="st0" d="M827.7,1025.8h53.7v12.1h-40v20.3h39.2v12.1h-39.2v33.8h-13.7V1025.8z"/>
		<path class="st0" d="M885.1,1075.7c0-16.2,11.2-29.7,29.2-29.7s29.2,13.5,29.2,29.7s-11,29.8-29.2,29.8S885.1,1092,885.1,1075.7z
			 M930.7,1075.7c0-10-5.9-18.8-16.4-18.8s-16.4,8.8-16.4,18.8s5.9,18.9,16.4,18.9S930.7,1085.8,930.7,1075.7L930.7,1075.7z"/>
		<path class="st0" d="M951.3,1025.8h12.3v78.3h-12.3V1025.8z"/>
		<path class="st0" d="M1014.8,1096.4c-4.3,5.7-11.1,9-18.2,9.1c-14.6,0-25.3-11-25.3-29.7s10.6-29.8,25.3-29.8
			c7.2,0.1,13.9,3.5,18.2,9.3v-29.5h12.3v78.3h-12.3V1096.4z M1014.8,1064.5c-3.5-4.7-8.9-7.5-14.7-7.6c-9.7,0-16,7.9-16,18.9
			s6.3,18.8,16,18.8c5.9,0,11.9-3.3,14.7-7.5V1064.5z"/>
		<path class="st0" d="M1063.6,1046c17.1,0,28,13,28,30.9v2.9h-43.8c0.9,8.6,7.4,15.6,18.1,15.6c5.5,0,12.1-2.2,16.1-6.2l5.6,8.1
			c-5.6,5.4-14,8.2-23,8.2c-17,0-29.7-11.8-29.7-29.8C1034.9,1059.3,1046.9,1046,1063.6,1046z M1047.7,1071.1h31.9
			c-0.2-6.7-4.8-15-16-15S1048.3,1064.2,1047.7,1071.1z"/>
		<path class="st0" d="M1099.1,1047.4h12.3v8.3c4.3-5.4,11.1-9.6,18.5-9.6v12.2c-1.3-0.2-2.6-0.3-3.9-0.3c-5.2,0-12.1,3.5-14.6,7.5
			v38.6h-12.3V1047.4z"/>
		<g>
			<path class="st1" d="M490.7,113.5V73.3c0-29.4-23.9-53.3-53.3-53.3H155.5c-40.7,0-73.8,10-73.8,50.8v656
				c0.1,40.7,33.1,73.7,73.8,73.7h831.9c40.7,0,73.7-33,73.7-73.7V240.6c0.1-40.7-32.9-73.7-73.6-73.8c0,0-0.1,0-0.1,0H544
				C514.6,166.8,490.7,142.9,490.7,113.5C490.7,113.5,490.7,113.5,490.7,113.5z"/>
			<path class="st2" d="M987.4,820.5H155.5c-51.7,0-93.7-42-93.8-93.7v-656C61.7,37.7,79,21,93.4,12.7C108.5,4.2,128.8,0,155.5,0
				h281.9c40.4,0,73.3,32.9,73.3,73.3v40.2c0,18.4,14.9,33.3,33.3,33.3l443.6,0c25,0.1,48.5,9.8,66.1,27.5
				c17.7,17.7,27.4,41.3,27.4,66.3v486.2C1081.1,778.5,1039.1,820.5,987.4,820.5z M155.5,40c-53.8,0-53.8,19.3-53.8,30.8v656
				c0,29.6,24.2,53.7,53.8,53.7h831.9c29.6,0,53.7-24.1,53.7-53.7V240.6c0-14.4-5.5-27.9-15.7-38s-23.6-15.8-38-15.8l-443.5,0
				c-40.4,0-73.3-32.9-73.3-73.3V73.3c0-18.4-14.9-33.3-33.3-33.3H155.5z"/>
		</g>
		<path class="st2" d="M891.6,267.7h-61.2v40.9h61.2V267.7z M891.6,349.3h-61.2v40.9h61.2V349.3z M830.4,308.4h-61.3v40.9h61.3
			V308.4z M891.6,186.1h-61.2V227h61.2V186.1z M830.4,226.8h-61.3v40.9h61.3V226.8z M928.3,569.7l-36.7-138.8H769.1l-36.7,138.8
			c-16.3,65.2,32.6,101.9,97.9,101.9S944.6,635,928.3,569.7z M769.1,594.1c0-53,122.5-53,122.5,0S769.1,647.1,769.1,594.1z"/>
	</g>
</g>
</svg>
