<svg xmlns="http://www.w3.org/2000/svg" width="1019.4" height="1127.1" viewBox="0 0 1019.4 1127.1"><title>my-assignment-folder</title><g id="Layer_2" data-name="Layer 2"><g id="Layer_1-2" data-name="Layer 1"><path d="M87.4,952l40-55h-40V884.9h57.9V896l-40.1,55.1h40.9v12.1H87.4Z" fill="#00673e"/><path d="M153.2,889.4a7.6,7.6,0,1,1,7.6,7.7A7.7,7.7,0,0,1,153.2,889.4Zm1.5,17.1H167v56.7H154.7Z" fill="#00673e"/><path d="M178.3,984.8V906.5h12.3v7.7a22.6,22.6,0,0,1,18.2-9.1c14.7,0,25.2,11,25.2,29.7s-10.5,29.8-25.2,29.8a22.4,22.4,0,0,1-18.2-9.3v29.5ZM205.2,916c-5.8,0-11.9,3.4-14.6,7.6V946c2.7,4.2,8.8,7.7,14.6,7.7,9.7,0,16-7.9,16-18.9S214.9,916,205.2,916Z" fill="#00673e"/><path d="M237.2,929.5h28.2v10.6H237.2Z" fill="#00673e"/><path d="M298.1,905.1c11,0,17.7,4.7,21.7,10.1l-8.1,7.5a15.1,15.1,0,0,0-13-6.7c-10.4,0-17.2,7.7-17.2,18.8s6.8,18.9,17.2,18.9a15.5,15.5,0,0,0,13-6.7l8.1,7.5c-4,5.4-10.7,10.1-21.7,10.1-17.3,0-29.4-12.6-29.4-29.8S280.8,905.1,298.1,905.1Z" fill="#00673e"/><path d="M322.4,934.8c0-16.2,11.1-29.7,29.1-29.7s29.3,13.5,29.3,29.7-11.1,29.8-29.3,29.8S322.4,951.1,322.4,934.8Zm45.6,0c0-10-5.9-18.8-16.5-18.8s-16.3,8.8-16.3,18.8,5.9,18.9,16.3,18.9S368,944.9,368,934.8Z" fill="#00673e"/><path d="M458,926.2c0-6.1-2.7-10.2-9.2-10.2s-10.7,3.9-13.2,7.5v39.7H423.3v-37c0-6.1-2.7-10.2-9.4-10.2s-10.5,3.9-13.1,7.6v39.6H388.5V906.5h12.3v7.7c2.4-3.5,9.9-9.1,18.5-9.1s13.6,4.2,15.5,10.4A23.9,23.9,0,0,1,454,905.1c10.5,0,16.4,5.6,16.4,17.1v41H458Z" fill="#00673e"/><path d="M481.6,984.8V906.5H494v7.7a22.6,22.6,0,0,1,18.2-9.1c14.7,0,25.1,11,25.1,29.7s-10.4,29.8-25.1,29.8a22.3,22.3,0,0,1-18.2-9.3v29.5ZM508.5,916c-5.7,0-11.8,3.4-14.5,7.6V946c2.7,4.2,8.8,7.7,14.5,7.7,9.8,0,16-7.9,16-18.9S518.3,916,508.5,916Z" fill="#00673e"/><path d="M545.1,906.5h12.3v8.3c4.2-5.4,11-9.6,18.4-9.6v12.2a19.2,19.2,0,0,0-3.8-.4c-5.2,0-12.1,3.6-14.6,7.6v38.6H545.1Z" fill="#00673e"/><path d="M606.4,905.1c17,0,27.9,13,27.9,30.8v3H590.5c.9,8.6,7.4,15.6,18.1,15.6,5.5,0,12.1-2.2,16.1-6.2l5.6,8.1c-5.6,5.4-14,8.2-23,8.2-17,0-29.7-11.9-29.7-29.8S589.6,905.1,606.4,905.1Zm-16,25.1h31.9c-.2-6.7-4.8-15-15.9-15S591,923.3,590.4,930.2Z" fill="#00673e"/><path d="M642.5,946.9a29.5,29.5,0,0,0,19.3,8c7.4,0,11.2-2.7,11.2-7s-6-6.7-13-8.2c-9.7-2.1-21.3-4.7-21.3-17.4,0-9.3,7.9-17.2,22.3-17.2a33,33,0,0,1,22.1,7.9l-5.2,8.7c-3.4-3.8-9.8-6.8-16.8-6.8s-10.6,2.4-10.6,6.4,5.7,5.8,12.4,7.4c9.8,2.1,21.9,4.9,21.9,18.3,0,10-8.3,17.6-23.6,17.6-9.6,0-18.4-3.1-24.3-8.8Z" fill="#00673e"/><path d="M693.3,946.9a29.2,29.2,0,0,0,19.2,8c7.4,0,11.2-2.7,11.2-7s-6-6.7-12.9-8.2c-9.8-2.1-21.4-4.7-21.4-17.4,0-9.3,8-17.2,22.3-17.2a33,33,0,0,1,22.1,7.9l-5.2,8.7c-3.4-3.8-9.7-6.8-16.8-6.8s-10.5,2.4-10.5,6.4,5.6,5.8,12.3,7.4c9.9,2.1,22,4.9,22,18.3,0,10-8.4,17.6-23.7,17.6-9.6,0-18.4-3.1-24.3-8.8Z" fill="#00673e"/><path d="M771.2,950V917.3h-9.3V906.5h9.3V891h12.4v15.5h11.5v10.8H783.6V947c0,3.9,1.9,6.7,5.4,6.7a8.2,8.2,0,0,0,5.5-2l2.9,9.3c-2.2,2.1-5.8,3.6-11.6,3.6C776.3,964.6,771.2,959.4,771.2,950Z" fill="#00673e"/><path d="M840,927.5c0-8.8-4.6-11.5-11.6-11.5s-11.6,3.7-14.5,7.6v39.6H801.5V884.9h12.4v29.3a27.1,27.1,0,0,1,20.1-9.1c12.2,0,18.3,6.3,18.3,17.9v40.2H840Z" fill="#00673e"/><path d="M888.8,905.1c17,0,28,13,28,30.8v3H873c.9,8.6,7.4,15.6,18,15.6,5.6,0,12.1-2.2,16.1-6.2l5.7,8.1c-5.7,5.4-14,8.2-23.1,8.2-17,0-29.7-11.9-29.7-29.8S872,905.1,888.8,905.1Zm-16,25.1h32c-.3-6.7-4.8-15-16-15S873.4,923.3,872.8,930.2Z" fill="#00673e"/><path d="M104,1089.1H66.9l-5.8,15h-15l30.8-78.3H94l30.8,78.3h-15ZM70.8,1077h29.3l-14.7-39.6Z" fill="#00673e"/><path d="M129,1087.8a29.5,29.5,0,0,0,19.3,8c7.4,0,11.1-2.7,11.1-6.9s-6-6.7-12.9-8.3c-9.7-2.1-21.4-4.7-21.4-17.3,0-9.3,8-17.3,22.4-17.3,9.6,0,16.9,3.4,22,8l-5.1,8.7c-3.4-3.9-9.8-6.8-16.8-6.8s-10.6,2.3-10.6,6.3,5.6,5.9,12.3,7.4c9.9,2.1,22,4.9,22,18.3,0,10-8.3,17.6-23.6,17.6-9.6,0-18.4-3-24.3-8.8Z" fill="#00673e"/><path d="M179.8,1087.8c3.9,4.1,11.8,8,19.2,8s11.2-2.7,11.2-6.9-6-6.7-12.9-8.3c-9.8-2.1-21.4-4.7-21.4-17.3,0-9.3,8-17.3,22.3-17.3a32.5,32.5,0,0,1,22.1,8l-5.2,8.7c-3.4-3.9-9.7-6.8-16.8-6.8s-10.6,2.3-10.6,6.3,5.7,5.9,12.4,7.4c9.8,2.1,21.9,4.9,21.9,18.3,0,10-8.3,17.6-23.6,17.6-9.6,0-18.4-3-24.3-8.8Z" fill="#00673e"/><path d="M228.3,1030.4a7.6,7.6,0,1,1,15.2,0,7.6,7.6,0,0,1-15.2,0Zm1.5,17h12.3v56.7H229.8Z" fill="#00673e"/><path d="M258.4,1109.8c4.6,5.3,10.5,7.2,18,7.2s16.8-3.7,16.8-15.3v-6.9a22.8,22.8,0,0,1-18.2,9.4c-14.4,0-25.1-10.4-25.1-29.1S260.4,1046,275,1046a22.6,22.6,0,0,1,18.2,9.3v-7.9h12.3v53.8c0,20.4-15.1,25.9-29.1,25.9-9.6,0-16.8-2.1-23.7-8.4Zm34.8-45.3c-2.7-4.2-8.8-7.6-14.6-7.6-9.7,0-15.9,7.3-15.9,18.2s6.2,18.2,15.9,18.2c5.8,0,11.9-3.4,14.6-7.6Z" fill="#00673e"/><path d="M355.1,1068.7c0-8.8-4.5-11.8-11.4-11.8s-11.7,3.8-14.6,7.6v39.6H316.8v-56.7h12.3v7.8a26.9,26.9,0,0,1,20-9.2c12.2,0,18.3,6.6,18.3,18.2v39.9H355.1Z" fill="#00673e"/><path d="M448.2,1067.1c0-6.1-2.7-10.2-9.3-10.2s-10.6,3.9-13.1,7.5v39.7H413.5v-37c0-6.1-2.7-10.2-9.4-10.2s-10.5,3.9-13.1,7.6v39.6H378.7v-56.7H391v7.8c2.4-3.6,9.9-9.2,18.5-9.2s13.6,4.2,15.5,10.4c3.3-5.1,10.8-10.4,19.2-10.4,10.5,0,16.4,5.6,16.4,17.1v41H448.2Z" fill="#00673e"/><path d="M497.1,1046c17,0,27.9,13,27.9,30.9v2.9H481.2c1,8.6,7.4,15.6,18.1,15.6,5.5,0,12.1-2.2,16.1-6.2l5.6,8.1c-5.6,5.4-13.9,8.2-23,8.2-17,0-29.7-11.8-29.7-29.8C468.3,1059.3,480.3,1046,497.1,1046Zm-16,25.1h32c-.3-6.7-4.9-15-16-15S481.7,1064.2,481.1,1071.1Z" fill="#00673e"/><path d="M570.8,1068.7c0-8.8-4.4-11.8-11.4-11.8s-11.7,3.8-14.5,7.6v39.6H532.5v-56.7h12.4v7.8a26.5,26.5,0,0,1,19.9-9.2c12.3,0,18.4,6.6,18.4,18.2v39.9H570.8Z" fill="#00673e"/><path d="M596.9,1091v-32.8h-9.4v-10.8h9.4v-15.5h12.3v15.5h11.5v10.8H609.2v29.7c0,3.9,1.9,6.7,5.4,6.7a8,8,0,0,0,5.6-2l2.9,9.3c-2.2,2.1-5.9,3.6-11.6,3.6C602,1105.5,596.9,1100.4,596.9,1091Z" fill="#00673e"/><path d="M653,1025.8h53.7v12.1H666.8v20.3h39.1v12.1H666.8v33.8H653Z" fill="#00673e"/><path d="M710.5,1075.7c0-16.2,11.1-29.7,29.1-29.7s29.2,13.5,29.2,29.7-11,29.8-29.2,29.8S710.5,1092,710.5,1075.7Zm45.5,0c0-10-5.8-18.8-16.4-18.8s-16.3,8.8-16.3,18.8,5.8,18.9,16.3,18.9S756,1085.8,756,1075.7Z" fill="#00673e"/><path d="M776.6,1025.8h12.3v78.3H776.6Z" fill="#00673e"/><path d="M840.1,1096.4a22.9,22.9,0,0,1-18.2,9.1c-14.5,0-25.2-11-25.2-29.7s10.5-29.8,25.2-29.8a22.6,22.6,0,0,1,18.2,9.3v-29.5h12.4v78.3H840.1Zm0-31.9a18.6,18.6,0,0,0-14.6-7.6c-9.8,0-16,7.9-16,18.9s6.2,18.8,16,18.8c5.8,0,11.8-3.3,14.6-7.5Z" fill="#00673e"/><path d="M889,1046c17,0,27.9,13,27.9,30.9v2.9H873.1c1,8.6,7.4,15.6,18.1,15.6,5.5,0,12.1-2.2,16.1-6.2l5.6,8.1c-5.6,5.4-13.9,8.2-23,8.2-17,0-29.7-11.8-29.7-29.8C860.2,1059.3,872.2,1046,889,1046Zm-16,25.1h32c-.3-6.7-4.9-15-16-15S873.6,1064.2,873,1071.1Z" fill="#00673e"/><path d="M924.5,1047.4h12.3v8.3c4.2-5.4,11-9.6,18.4-9.6v12.2a20.2,20.2,0,0,0-3.8-.3c-5.2,0-12.1,3.5-14.6,7.5v38.6H924.5Z" fill="#00673e"/><path d="M428.9,113.5V73.3A53.3,53.3,0,0,0,375.6,20H93.8C53,20,20,30,20,70.8v656a73.7,73.7,0,0,0,73.8,73.7H925.6a73.7,73.7,0,0,0,73.8-73.7V240.6a73.7,73.7,0,0,0-73.8-73.8H482.3A53.4,53.4,0,0,1,428.9,113.5Z" fill="#fff" stroke="#94c947" stroke-miterlimit="10" stroke-width="40"/><path d="M829.9,267.7H768.6v40.9h61.3Zm0,81.6H768.6v40.9h61.3Zm-61.3-40.9H707.4v40.9h61.2Zm61.3-122.3H768.6V227h61.3Zm-61.3,40.7H707.4v40.9h61.2Zm98,342.9L829.9,430.9H707.4L670.7,569.7c-16.3,65.2,32.6,101.9,97.9,101.9S882.9,635,866.6,569.7ZM707.4,594.1c0-53,122.5-53,122.5,0S707.4,647.1,707.4,594.1Z" fill="#94c947"/></g></g></svg>