<svg xmlns="http://www.w3.org/2000/svg" id="Layer_1" viewBox="0 0 1019.4 2219" width="1019.4" height="2219"><style>.st0{fill:#00673e}.st1{fill:#94c947}.st2{fill:#fff;stroke:#94c947;stroke-width:32;stroke-miterlimit:10}.st3{fill:#e3280a}</style><path d="M182.9 719.8H194v37.6c0 10 5.5 16.4 16 16.4s16-6.4 16-16.4v-37.6h11.1v37.9c0 15.6-8.9 25.9-27.1 25.9s-27.1-10.4-27.1-25.8v-38zm94.1 34.3c0-7-3.6-9.4-9.1-9.4-4.6.1-8.9 2.4-11.7 6.1v31.7h-9.8v-45.4h9.8v6.2c4.1-4.6 9.9-7.2 16-7.3 9.8 0 14.7 5.2 14.7 14.5v32H277v-28.4zm39.6-18.1c8.8 0 14.1 3.7 17.3 8.1l-6.4 6c-2.4-3.5-6.3-5.5-10.5-5.4-8.2 0-13.7 6.2-13.7 15s5.5 15.2 13.7 15.2c4.2.1 8.1-2 10.5-5.4l6.4 6c-3.2 4.4-8.5 8.1-17.3 8.1-13.8 0-23.5-10-23.5-23.9s9.7-23.7 23.5-23.7zm19.4 23.7c0-12.9 8.9-23.7 23.3-23.7s23.4 10.8 23.4 23.7-8.8 23.9-23.4 23.9-23.3-10.8-23.3-23.9zm36.5 0c0-7.9-4.7-15-13.2-15s-13 7.1-13 15 4.7 15.2 13 15.2 13.2-7.1 13.2-15.2zm72-6.8c0-4.9-2.1-8.2-7.4-8.2s-8.5 3.1-10.5 6v31.8h-9.9v-29.6c0-4.9-2.1-8.2-7.5-8.2s-8.4 3.1-10.4 6.1v31.7h-9.9v-45.4h9.9v6.2c1.9-2.8 7.9-7.3 14.7-7.3s10.9 3.4 12.4 8.3c3.5-5 9.2-8.1 15.4-8.3 8.4 0 13.1 4.5 13.1 13.7v32.8h-9.9v-29.6zm18.9 46.9v-62.7h9.9v6.2c3.4-4.6 8.8-7.3 14.5-7.3 11.8 0 20.1 8.8 20.1 23.7s-8.3 23.9-20.1 23.9c-5.8.1-11.2-2.7-14.5-7.4v23.6h-9.9zm21.5-55.1c-4.6 0-9.5 2.7-11.6 6.1v18c2.7 3.7 7 6 11.6 6.1 7.8 0 12.8-6.3 12.8-15.2s-5-15-12.8-15zm29.3-7.6h9.8v6.7c3.4-4.3 8.8-7.7 14.8-7.7v9.7l-3.1-.2c-4.2 0-9.7 2.8-11.7 6v30.9h-9.8v-45.4zm49-1.1c13.6 0 22.4 10.4 22.4 24.7v2.3h-35.1c.8 6.9 5.9 12.5 14.5 12.5 4.4 0 9.7-1.8 12.8-4.9l4.6 6.4c-4.6 4.4-11.2 6.6-18.5 6.6-13.6 0-23.7-9.5-23.7-23.9s9.6-23.7 23-23.7zm-12.8 20.1H576c-.2-5.4-3.9-12-12.8-12s-12.3 6.4-12.8 12zm41.7 13.3c4.2 4 9.7 6.2 15.4 6.4 6 0 9-2.1 9-5.5s-4.8-5.4-10.4-6.6c-7.8-1.7-17.1-3.8-17.1-13.9 0-7.4 6.4-13.8 17.9-13.8 6.5-.2 12.8 2.1 17.6 6.4l-4.1 6.9c-2.7-3.1-7.8-5.4-13.4-5.4s-8.5 1.9-8.5 5 4.5 4.7 9.9 6c7.9 1.7 17.6 3.9 17.6 14.6 0 8-6.7 14.1-18.9 14.1-7.7 0-14.8-2.4-19.5-7l4.5-7.2zm40.6 0c4.2 4 9.7 6.2 15.4 6.4 5.9 0 9-2.1 9-5.5s-4.8-5.4-10.4-6.6c-7.8-1.7-17.1-3.8-17.1-13.9 0-7.4 6.4-13.8 17.9-13.8 6.5-.2 12.8 2.1 17.6 6.4l-4.1 6.9c-2.7-3.1-7.8-5.4-13.4-5.4s-8.5 1.9-8.5 5 4.5 4.7 9.9 6c7.9 1.7 17.5 3.9 17.5 14.6 0 8-6.6 14.1-18.8 14.1-7.7 0-14.8-2.4-19.5-7l4.5-7.2zm60.2-33.4c13.7 0 22.4 10.4 22.4 24.7v2.3h-35c.7 6.9 5.9 12.5 14.4 12.5 4.4 0 9.7-1.8 12.9-4.9l4.5 6.4c-4.5 4.4-11.2 6.6-18.4 6.6-13.6 0-23.8-9.5-23.8-23.9s9.6-23.7 23-23.7zm-12.7 20.1h25.5c-.2-5.4-3.8-12-12.8-12s-12.3 6.4-12.7 12zm73.1 20.2c-3.5 4.6-8.9 7.3-14.6 7.3-11.7 0-20.2-8.8-20.2-23.8S727 736 738.7 736c5.8 0 11.2 2.8 14.6 7.4v-23.6h9.8v62.7h-9.8v-6.2zm0-25.5c-2.8-3.8-7.1-6-11.8-6.1-7.8 0-12.8 6.3-12.8 15.1s5 15.1 12.8 15.1c4.6-.1 9-2.3 11.8-6v-18.1zm-426.2 81.8h27.6c13.1 0 20.4 9 20.4 19.6s-7.4 19.6-20.4 19.6h-16.6v23.4h-11v-62.6zm26.1 9.6h-15.1v20h15.1c6.2 0 10.7-4 10.7-10s-4.5-10-10.7-10zm27.3-9.6h23.3c19.5 0 32.8 12.9 32.8 31.3s-13.3 31.3-32.8 31.3h-23.3v-62.6zm23.3 53c13.6 0 21.5-9.8 21.5-21.7s-7.5-21.7-21.5-21.7h-12.3v43.4h12.3zm39.6-53h43v9.6h-32v16.3h31.3v9.7h-31.3v27h-11v-62.6zm71.5 25.9h-7.5v-8.6h7.5v-2.6c0-10.1 6.1-15.7 14.4-15.7 2.7-.1 5.5.6 7.9 1.8l-2.1 7.3c-1.2-.7-2.6-1-4-1-3.8 0-6.3 2.5-6.3 7.6v2.6h9.2v8.6h-9.2v36.7h-9.9v-36.7zm25.4-22.3c0-3.4 2.7-6.1 6.1-6.1 3.4 0 6.1 2.7 6.1 6.1 0 3.4-2.7 6.1-6.1 6.1-3.4 0-6.1-2.7-6.1-6.1zm1.2 13.7h9.9v45.3h-9.9v-45.3zm18.9-17.3h9.9v62.6h-9.9v-62.6zm39.1 16.1c13.6 0 22.4 10.5 22.4 24.7v2.4h-35.1c.8 6.8 5.9 12.5 14.5 12.5 4.4 0 9.7-1.8 12.9-5l4.5 6.5c-4.5 4.3-11.2 6.6-18.4 6.6-13.7 0-23.8-9.5-23.8-23.9s9.6-23.8 23-23.8zm-12.8 20.1h25.6c-.2-5.3-3.9-12-12.8-12s-12.3 6.5-12.8 12z" class="st0"/><path d="M661.9 0H386.4c-.9-.1-1.9 0-2.8.3-.9.3-1.8.3-2.4.6-.2 0-.4.1-.6.3l-1.9.9c-.3 0-.3.3-.6.3L376 4.3 238.2 142.6c-.7.7-1.3 1.4-1.8 2.2 0 .3-.3.3-.3.6l-.9 1.8c0 .2-.1.4-.3.6-.4.8-.6 1.6-.6 2.5-.2.9-.3 1.8-.3 2.7v477.6c0 27.4 22.2 49.7 49.3 49.7h378.9c27.3-.1 49.5-22.3 49.4-49.6v-581c0-27.4-22.3-49.7-49.7-49.7zM371.4 52.1v56.4c0 25.9-3.9 29.6-29.8 29.6h-55.8l85.6-86zm309.7 578.5c.1 10.5-8.4 19.1-18.9 19.2H283.3c-10.5-.1-19-8.7-18.9-19.2V168.5h77.8c42.6 0 60.3-17.3 60.3-60v-78h260c10.5.1 19 8.6 18.9 19.1v581h-.3z" class="st1"/><path d="M389.1 354h414.4c21.9 0 39.7 17.8 39.7 39.7v149.4c0 21.9-17.8 39.7-39.7 39.7H389.1c-21.9 0-39.7-17.8-39.7-39.7V393.7c0-21.9 17.8-39.7 39.7-39.7z" class="st2"/><path d="M454.9 403c11.7-2 23.5-2.9 35.3-2.8 17.5 0 30.7 3.6 39.4 11.2s13 17.9 13 30.7-4.1 24.2-11.5 31.7c-9.7 10.1-24.8 14.9-41.1 14.9-3.6.1-7.1-.2-10.6-.8v53.4h-24.5V403zm24.5 65.4c3.4.7 6.8 1 10.3.9 17.8 0 28.4-9.7 28.4-26 0-14.8-9.2-23.9-26.1-23.9-4.2-.1-8.5.3-12.6 1.1v47.9zm75.4-65.3c11.9-2 23.9-3 36-2.9 23.3 0 39.3 5 50.9 14.8s20.9 28 20.9 53.1-8.2 45.3-20.7 56.9-32.3 17.6-56.8 17.6c-10.1 0-20.2-.5-30.3-1.7V403.1zm24.5 119.2c3.8.5 7.7.7 11.6.6 27.9.2 45.9-16.6 45.9-54.2.1-31.2-15.1-49.2-43.3-49.2-4.8-.1-9.5.4-14.2 1.3v101.5zm95.9-121.1h74v20.5h-49.4v39.6h46v20.2h-46v59.8h-24.6V401.2z" class="st1"/><path d="M526.6 1170.8h-33.4v-78h-69.1v-30.3h69.1v-74.9h33.4v74.9h68.7v30.3h-68.7v78z" class="st3"/><g id="Layer_2_1_"><g id="Layer_1-2"><path d="M198.8 2058.1l32.1-44h-32.1v-9.7h46.3v8.9l-32 44.1h32.7v9.7h-47v-9zm52.6-50.1c0-3.4 2.8-6.2 6.2-6.2 3.4 0 6.2 2.8 6.2 6.2 0 3.4-2.8 6.2-6.2 6.2h-.1c-3.4 0-6.1-2.8-6.1-6.2zm1.2 13.7h9.9v45.4h-9.9v-45.4zm18.9 62.7v-62.6h9.9v6.2c3.4-4.6 8.8-7.3 14.6-7.3 11.8 0 20.1 8.8 20.1 23.8s-8.3 23.8-20.1 23.8c-5.8 0-11.2-2.7-14.6-7.4v23.6l-9.9-.1zm21.5-55.1c-4.6 0-9.4 2.7-11.6 6.1v18c2.2 3.3 7 6.1 11.6 6.1 7.8 0 12.8-6.3 12.8-15.1s-5-15.1-12.8-15.1zm25.7 10.8h22.6v8.5h-22.6v-8.5zm48.6-19.5c8.9 0 14.2 3.8 17.4 8.1l-6.6 6c-2.3-3.5-6.2-5.5-10.4-5.4-8.2 0-13.7 6.2-13.7 15 0 8.9 5.4 15.1 13.7 15.1 4.1.1 8.1-1.9 10.4-5.4l6.6 6c-3.2 4.3-8.6 8.1-17.4 8.1-13.8 0-23.4-10.1-23.4-23.8s9.7-23.7 23.4-23.7zm19.5 23.8c0-13 9-23.8 23.4-23.8s23.4 10.8 23.4 23.8-8.8 23.8-23.4 23.8c-14.6 0-23.4-10.8-23.4-23.8zm36.4 0c0-8-4.7-15-13.1-15s-13.1 7-13.1 15 4.7 15.1 13.1 15.1 13.1-7.1 13.1-15.1zm72.1-6.9c0-4.9-2.2-8.2-7.4-8.2-5.3 0-8.6 3.1-10.5 6v31.8h-9.9v-29.6c0-4.9-2.2-8.2-7.5-8.2s-8.3 3.1-10.4 6.1v31.7h-9.8v-45.4h9.8v6.2c1.8-2.8 7.9-7.3 14.7-7.3 6.8 0 11 3.4 12.4 8.3 3.5-5.1 9.3-8.2 15.4-8.3 8.3 0 13 4.5 13 13.7v32.8h-9.8v-29.6zm18.9 46.9v-62.6h9.8v6.2c3.4-4.6 8.8-7.3 14.6-7.3 11.8 0 20.2 8.8 20.2 23.8s-8.4 23.8-20.2 23.8c-5.8 0-11.2-2.8-14.6-7.4v23.6l-9.8-.1zm21.5-55.1c-4.6 0-9.5 2.7-11.7 6.1v18c2.2 3.3 7 6.1 11.7 6.1 7.8 0 12.8-6.3 12.8-15.1s-5-15.1-12.8-15.1zm29.2-7.6h9.8v6.6c3.4-4.3 8.9-7.7 14.8-7.7v9.8c-1-.2-2.1-.3-3.1-.3-4.2 0-9.7 2.9-11.7 6.1v30.9h-9.8v-45.4zm49.1-1.1c13.6 0 22.4 10.4 22.4 24.7v2.3h-35c.7 6.9 5.9 12.5 14.4 12.5 4.5 0 9.7-1.8 12.9-5l4.6 6.5c-4.6 4.3-11.2 6.6-18.4 6.6-13.7 0-23.8-9.4-23.8-23.8-.2-13.2 9.4-23.8 22.9-23.8zm-12.8 20.1h25.6c-.2-5.4-3.8-12-12.8-12s-12.4 6.5-12.8 12zm41.7 13.3c4.2 3.9 9.6 6.2 15.4 6.4 5.9 0 9-2.2 9-5.6 0-3.4-4.8-5.4-10.3-6.6-7.8-1.7-17.1-3.8-17.1-13.9 0-7.4 6.4-13.8 17.8-13.8 7.8 0 13.5 2.7 17.7 6.4l-4.2 6.9c-2.7-3-7.8-5.4-13.4-5.4s-8.4 1.9-8.4 5.1c0 3.2 4.5 4.6 9.8 5.9 7.9 1.7 17.6 3.9 17.6 14.6 0 8-6.7 14.1-18.9 14.1-7.8 0-14.8-2.4-19.5-7l4.5-7.1zm40.6 0c4.2 3.9 9.7 6.2 15.4 6.4 5.9 0 8.9-2.2 8.9-5.6 0-3.4-4.8-5.4-10.3-6.6-7.8-1.7-17.1-3.8-17.1-13.9 0-7.4 6.4-13.8 17.9-13.8 7.7 0 13.5 2.7 17.6 6.4l-4.1 6.9c-2.7-3-7.8-5.4-13.4-5.4-5.6 0-8.5 1.9-8.5 5.1 0 3.2 4.5 4.6 9.8 5.9 7.9 1.7 17.6 3.9 17.6 14.6 0 8-6.6 14.1-18.9 14.1-7.7 0-14.7-2.4-19.4-7l4.5-7.1zm60.2-33.4c13.6 0 22.4 10.4 22.4 24.7v2.3H731c.8 6.9 5.9 12.5 14.5 12.5 4.4 0 9.7-1.8 12.9-5l4.6 6.5c-4.6 4.3-11.2 6.6-18.5 6.6-13.6 0-23.8-9.4-23.8-23.8 0-13.2 9.6-23.8 23-23.8zm-12.8 20.1h25.6c-.2-5.4-3.8-12-12.8-12-8.9 0-12.3 6.5-12.8 12zm73.1 20.2c-3.4 4.6-8.8 7.3-14.6 7.3-11.7 0-20.2-8.8-20.2-23.8s8.5-23.8 20.2-23.8c5.7.1 11.1 2.8 14.6 7.4v-23.5h9.8v62.6H804v-6.2zm0-25.5c-2.8-3.7-7.1-6-11.8-6.1-7.8 0-12.8 6.3-12.8 15.1s5 15 12.8 15c4.7 0 9.5-2.6 11.8-6v-18zm-714.3 81.8h27.6c13.1 0 20.5 9 20.5 19.6 0 10.6-7.4 19.7-20.5 19.7h-16.6v23.4h-11v-62.7zm26.1 9.6h-15v19.9h15c6.2 0 10.7-3.9 10.7-10 0-6-4.5-9.9-10.7-9.9zm57.8 24.4c0-7-3.7-9.2-9.2-9.2s-9.3 3-11.7 6.2v31.6h-9.8v-62.6h9.8v23.5c4.1-4.6 9.9-7.3 16.1-7.4 9.8 0 14.6 5 14.6 14.4v32.1h-9.8v-28.6zm16 5.9c0-13 8.9-23.8 23.3-23.8s23.4 10.8 23.4 23.8-8.9 23.8-23.4 23.8-23.3-10.8-23.3-23.8zm36.4 0c0-8-4.6-15-13.1-15s-13 7-13 15 4.7 15.1 13 15.1 13.1-7 13.1-15.1zm18.5 12.2v-26.2H237v-8.6h7.5V2122h9.8v12.4h9.2v8.6h-9.2v23.8c0 3.1 1.5 5.4 4.3 5.4s3.7-.7 4.4-1.6l2.4 7.4c-1.8 1.7-4.7 2.9-9.4 2.9-7.5 0-11.5-4.1-11.5-11.6zm21.4-12.2c0-13 9-23.8 23.4-23.8s23.4 10.8 23.4 23.8-8.8 23.8-23.4 23.8c-14.6 0-23.4-10.8-23.4-23.8zm36.5 0c0-8-4.7-15-13.1-15s-13.1 7-13.1 15 4.7 15.1 13.1 15.1 13.1-7 13.1-15.1zm17 9.7c4.2 3.9 9.6 6.2 15.4 6.4 5.9 0 9-2.2 9-5.5s-4.8-5.4-10.3-6.6c-7.8-1.7-17.1-3.7-17.1-13.8 0-7.4 6.4-13.8 17.8-13.8 6.5-.1 12.8 2.1 17.7 6.4l-4.2 7c-2.7-3.1-7.8-5.4-13.4-5.4-5.7 0-8.4 1.8-8.4 5s4.5 4.7 9.8 5.9c7.9 1.7 17.6 3.9 17.6 14.6 0 8-6.7 14.1-19 14.1-7.7 0-14.7-2.4-19.4-7l4.5-7.3zm70.7-15.6c0-7-3.7-9.2-9.2-9.2s-9.3 3-11.7 6.2v31.6h-9.8v-62.6h9.8v23.5c4.1-4.6 9.9-7.3 16.1-7.4 9.8 0 14.6 5 14.6 14.4v32.1h-9.8v-28.6zm16.1 5.9c0-13 8.9-23.8 23.3-23.8s23.4 10.8 23.4 23.8-8.9 23.8-23.4 23.8c-14.6 0-23.3-10.8-23.3-23.8zm36.5 0c0-8-4.7-15-13.2-15s-13 7-13 15 4.7 15.1 13 15.1 13.2-7 13.2-15.1zm16.4 40v-62.6h9.8v6.2c3.4-4.6 8.8-7.4 14.6-7.4 11.8 0 20.2 8.8 20.2 23.8s-8.4 23.8-20.2 23.8c-5.8 0-11.2-2.7-14.6-7.4v23.5l-9.8.1zm21.5-55.1c-4.6 0-9.5 2.7-11.7 6.2v17.9c2.2 3.3 7 6.1 11.7 6.1 7.8 0 12.8-6.2 12.8-15.1s-5-15.1-12.8-15.1zm49.9-24.8h23.3c19.5 0 32.8 13 32.8 31.4s-13.3 31.3-32.8 31.3h-23.3v-62.7zm23.3 52.9c13.6 0 21.5-9.8 21.5-21.6s-7.5-21.7-21.5-21.7h-12.3v43.3h12.3zm36.6-13c0-13 8.9-23.8 23.3-23.8s23.4 10.8 23.4 23.8-8.8 23.8-23.4 23.8c-14.6 0-23.3-10.8-23.3-23.8zm36.4 0c0-8-4.6-15-13.1-15s-13 7-13 15 4.6 15.1 13 15.1c8.3 0 13.1-7 13.1-15.1zm37.1-23.8c8.9 0 14.2 3.8 17.4 8.1l-6.5 6c-2.4-3.4-6.3-5.5-10.5-5.4-8.2 0-13.7 6.2-13.7 15s5.4 15.1 13.7 15.1c4.2.1 8.1-1.9 10.5-5.4l6.5 6c-3.2 4.4-8.6 8.1-17.4 8.1-13.8 0-23.4-10-23.4-23.8s9.6-23.7 23.4-23.7zm52.9 40.5c-4.1 4.5-10 7.1-16.1 7.1-9.8 0-14.6-5-14.6-14.3v-32.2h9.8v28.6c0 7 3.6 9.2 9.1 9.2 4.6-.1 8.9-2.3 11.7-5.9v-31.8h9.8v45.4h-9.8v-6.1zm74.5-23.6c0-4.9-2.2-8.2-7.4-8.2s-8.6 3.1-10.5 6v31.8h-9.9v-29.6c0-4.9-2.2-8.2-7.5-8.2-5.4 0-8.3 3.1-10.4 6.2v31.6h-9.8v-45.4h9.8v6.2c1.8-2.9 7.9-7.4 14.7-7.4s11 3.4 12.4 8.4c3.5-5.1 9.2-8.3 15.4-8.4 8.3 0 13 4.5 13 13.7v32.8h-9.8v-29.5zm39.1-16.9c13.7 0 22.4 10.4 22.4 24.7v2.3h-35c.7 6.9 5.9 12.5 14.5 12.5 4.4 0 9.7-1.8 12.9-5l4.5 6.5c-4.5 4.3-11.2 6.6-18.4 6.6-13.6 0-23.8-9.4-23.8-23.8-.1-13.1 9.4-23.8 22.9-23.8zm-12.8 20.1h25.5c-.2-5.4-3.8-12-12.8-12s-12.2 6.5-12.7 12zm71.8-1.9c0-7-3.6-9.4-9.1-9.4s-9.4 3-11.7 6.2v31.6h-9.8v-45.4h9.8v6.2c4-4.6 9.9-7.3 16-7.4 9.8 0 14.6 5.3 14.6 14.6v31.9h-9.8v-28.3zm20.9 17.8v-26.2h-7.5v-8.6h7.5V2122h9.8v12.4h9.2v8.6h-9.2v23.8c0 3.1 1.5 5.4 4.3 5.4s3.7-.7 4.4-1.6l2.4 7.4c-1.8 1.7-4.7 2.9-9.4 2.9-7.5 0-11.5-4.1-11.5-11.6z" class="st0"/><path d="M598.8 1374.4h-29.7v19.8h29.7v-19.8zm0 39.5h-29.7v19.8h29.7v-19.8zm-29.7-19.9h-29.7v19.8h29.7V1394zm29.7-59.2h-29.7v19.8h29.7v-19.8zm-29.7 19.7h-29.7v19.8h29.7v-19.8zm47.4 166.2l-17.8-67.2h-59.4l-17.8 67.2c-7.9 31.6 15.8 49.4 47.4 49.4s55.5-17.7 47.6-49.4zm-77.1 11.8c0-25.7 59.4-25.7 59.4 0s-59.4 25.7-59.4 0z" class="st1"/><path d="M696.5 1284.6H421c-.9-.1-1.9.1-2.8.3-.9.3-1.8.3-2.4.6-.2 0-.5.1-.6.3l-1.8 1c-.2 0-.2.2-.6.2-.3 0-1.5 1.3-2.2 1.8l-137.8 138.4c-.7.7-1.3 1.4-1.8 2.2 0 .2-.3.2-.3.6l-.9 1.8c0 .2-.1.5-.3.6-.3.8-.5 1.6-.6 2.4-.3.9-.4 1.9-.3 2.8v477.5c0 27.4 22.2 49.7 49.4 49.7h378.9c27.3 0 49.4-22.2 49.4-49.5v-581.1c-.1-27.4-22.3-49.6-49.8-49.6zM406 1336.7v56.4c0 25.9-4 29.6-29.8 29.6h-55.8l85.6-86zm309.7 578.5c.1 10.5-8.4 19.1-18.9 19.2H318c-10.5 0-18.9-8.6-18.9-19v-462.2h77.7c42.7 0 60.4-17.4 60.4-60.1v-78h259.9c10.5.1 19 8.7 19 19.2v580.9h-.4z" class="st1"/><path d="M415.8 1638.5H846c17.5 0 31.8 14.2 31.8 31.8v165.3c0 17.5-14.2 31.8-31.8 31.8H415.8c-17.5 0-31.8-14.2-31.8-31.8v-165.3c0-17.6 14.3-31.8 31.8-31.8z" class="st2"/><path d="M560.3 1687.6c11.6-2 23.5-3 35.3-2.9 17.5 0 30.6 3.6 39.4 11.2 8.7 7.6 13 17.9 13 30.7s-4.1 24.2-11.4 31.7c-9.7 10.1-24.9 14.9-41.1 14.9-3.6.1-7.1-.2-10.6-.7v53.4h-24.4v-138.3zm24.4 65.4c3.4.7 6.9 1 10.4.9 17.8 0 28.4-9.7 28.4-26 0-14.8-9.2-23.9-26.1-23.9-4.3-.1-8.5.3-12.7 1.2v47.8zm68.9 50.2c5.1 3.2 14.9 6.8 23.4 6.8 10.2 0 15.2-4.6 15.2-11.4 0-6.8-3.8-10.4-15.4-15.3-18.4-7.4-25.8-17.9-25.8-29.4 0-17.7 14.2-31.2 36.2-31.2 10.2 0 19 2.6 24.6 5.7l-5 17.5c-5.8-3.4-12.4-5.2-19.1-5.4-8.7 0-13.4 4.6-13.4 10.6s4.2 9.3 16 14.4c17 7 25 16.6 25.1 30.8 0 19.1-14.4 31.6-38.8 31.6-11 0-21.5-2.8-28.1-6.7l5.1-18z" class="st1"/></g></g></svg>