<svg xmlns="http://www.w3.org/2000/svg" width="845.4" height="1120.4" viewBox="0 0 845.4 1120.4"><path fill="#00673e" d="M0 899.8h13.9v46.9c0 12.5 6.9 20.6 20.1 20.6s19.9-8.1 19.9-20.6v-46.9h13.9v47.3c0 19.5-11.2 32.4-33.8 32.4s-34-13-34-32.3zm117.7 42.8c0-8.8-4.4-11.7-11.4-11.7s-11.7 3.8-14.5 7.6v39.6H79.4v-56.7h12.4v7.7a26.8 26.8 0 0 1 19.9-9.1c12.2 0 18.4 6.5 18.4 18.2v39.9h-12.4zm49.5-22.6c11 0 17.7 4.7 21.7 10.1l-8.1 7.5a15.1 15.1 0 0 0-13.1-6.7c-10.3 0-17.1 7.7-17.1 18.8s6.8 18.9 17.1 18.9a15.6 15.6 0 0 0 13.1-6.7l8.1 7.5c-4 5.4-10.7 10.1-21.7 10.1-17.3 0-29.4-12.6-29.4-29.8s12.1-29.7 29.4-29.7zm24.3 29.7c0-16.2 11.1-29.7 29.1-29.7s29.2 13.5 29.2 29.7-11 29.8-29.2 29.8-29.1-13.5-29.1-29.8zm45.5 0c0-10-5.8-18.8-16.4-18.8s-16.3 8.8-16.3 18.8 5.8 18.9 16.3 18.9 16.4-8.8 16.4-18.9zm90.1-8.6c0-6.1-2.7-10.2-9.3-10.2s-10.6 3.9-13.1 7.5v39.7h-12.3v-37c0-6.1-2.7-10.2-9.4-10.2s-10.5 3.9-13.1 7.6v39.6h-12.3v-56.7h12.3v7.7c2.4-3.5 9.9-9.1 18.5-9.1s13.6 4.2 15.5 10.4c3.3-5.1 10.8-10.4 19.2-10.4 10.5 0 16.4 5.6 16.4 17.1v41h-12.4zm23.6 58.6v-78.3h12.4v7.7a22.6 22.6 0 0 1 18.2-9.1c14.6 0 25.1 11 25.1 29.7s-10.5 29.8-25.1 29.8a22.2 22.2 0 0 1-18.2-9.3v29.5zm26.9-68.8c-5.7 0-11.8 3.4-14.5 7.6V961c2.7 4.1 8.8 7.6 14.5 7.6 9.8 0 16-7.9 16-18.9s-6.2-18.8-16-18.8zm36.5-9.5h12.4v8.3c4.2-5.4 11-9.6 18.4-9.6v12.2a19.5 19.5 0 0 0-3.9-.4c-5.1 0-12.1 3.6-14.5 7.6v38.6h-12.4zm61.3-1.4c17.1 0 28 13 28 30.9v2.9h-43.8c.9 8.6 7.4 15.6 18.1 15.6 5.5 0 12.1-2.2 16.1-6.2l5.6 8.1c-5.6 5.4-14 8.2-23 8.2-17 0-29.7-11.8-29.7-29.8 0-16.5 12-29.7 28.7-29.7zm-15.9 25.1h31.9c-.2-6.7-4.8-15-16-15s-15.3 8.1-15.9 15zm52.1 16.7a29.5 29.5 0 0 0 19.3 8c7.4 0 11.1-2.7 11.1-7s-6-6.7-12.9-8.2c-9.7-2.1-21.4-4.7-21.4-17.4 0-9.2 8-17.2 22.4-17.2 9.6 0 16.9 3.4 22 8l-5.1 8.6c-3.4-3.8-9.8-6.8-16.8-6.8s-10.6 2.4-10.6 6.4 5.6 5.8 12.3 7.4c9.9 2.1 22 4.9 22 18.3 0 10-8.3 17.6-23.6 17.6-9.6 0-18.4-3-24.3-8.8zm50.8 0c3.9 4.1 11.8 8 19.2 8s11.2-2.7 11.2-7-6-6.7-12.9-8.2c-9.8-2.1-21.4-4.7-21.4-17.4 0-9.2 8-17.2 22.3-17.2a32.5 32.5 0 0 1 22.1 8l-5.2 8.6c-3.4-3.8-9.7-6.8-16.8-6.8s-10.6 2.4-10.6 6.4 5.7 5.8 12.4 7.4c9.8 2.1 21.9 4.9 21.9 18.3 0 10-8.3 17.6-23.6 17.6-9.6 0-18.4-3-24.3-8.8zm75.2-41.8c17.1 0 28 13 28 30.9v2.9h-43.8c.9 8.6 7.4 15.6 18.1 15.6 5.5 0 12.1-2.2 16.1-6.2l5.6 8.1c-5.6 5.4-14 8.2-23 8.2-17.1 0-29.7-11.8-29.7-29.8 0-16.5 11.9-29.7 28.7-29.7zm-15.9 25.1h31.9c-.2-6.7-4.8-15-16-15s-15.4 8.1-15.9 15zm91.3 25.3a22.9 22.9 0 0 1-18.2 9.1c-14.5 0-25.2-11-25.2-29.7s10.5-29.8 25.2-29.8a22.7 22.7 0 0 1 18.2 9.2v-29.4h12.4v78.3H713zm0-31.9a18.6 18.6 0 0 0-14.6-7.6c-9.8 0-16 7.9-16 18.9s6.2 18.8 16 18.8c5.8 0 11.8-3.3 14.6-7.5zm-532.6 102.2h34.4c16.4 0 25.6 11.3 25.6 24.5s-9.3 24.6-25.6 24.6h-20.7v29.2h-13.7zm32.5 12.1h-18.8v24.9h18.8c7.8 0 13.4-4.9 13.4-12.5s-5.6-12.4-13.4-12.4zm34.2-12.1h29.1c24.4 0 41 16.2 41 39.2s-16.6 39.1-41 39.1h-29.1zm29.1 66.2c17 0 26.9-12.2 26.9-27s-9.4-27.1-26.9-27.1h-15.4v54.1zm49.6-66.2h53.6v12.1h-39.9v20.3h39.1v12.1h-39.1v33.8h-13.7zm89.3 32.4h-9.4v-10.8h9.4v-3.2c0-12.6 7.6-19.6 18-19.6a19.6 19.6 0 0 1 9.9 2.3l-2.7 9.1a8.8 8.8 0 0 0-5-1.3c-4.8 0-7.8 3.2-7.8 9.5v3.2H439v10.8h-11.5v45.9h-12.4zm31.8-27.8a7.6 7.6 0 1 1 15.2 0 7.6 7.6 0 1 1-15.2 0zm1.5 17h12.3v56.7h-12.3zm23.6-21.6h12.3v78.3H472zm48.8 20.2c17.1 0 28 13 28 30.9v2.9H505c.9 8.6 7.4 15.6 18.1 15.6 5.5 0 12.1-2.2 16.1-6.2l5.6 8.1c-5.6 5.4-14 8.2-23 8.2-17.1 0-29.7-11.8-29.7-29.8 0-16.4 11.9-29.7 28.7-29.7zm-15.9 25.1h31.9c-.2-6.7-4.8-15-16-15s-15.3 8.1-15.9 15z"/><path fill="#94c947" d="M598.8 0H254.4a9.9 9.9 0 0 0-3.4.4c-1.2.4-2.3.4-3.1.7a1 1 0 0 0-.7.4l-2.3 1.2c-.4 0-.4.3-.8.3s-1.9 1.6-2.6 2.3l-172.2 173A12.5 12.5 0 0 0 67 181c0 .3-.4.3-.4.7l-1.2 2.3a1.6 1.6 0 0 1-.3.8 8.4 8.4 0 0 0-.8 3 10.5 10.5 0 0 0-.4 3.5v596.9c0 34.3 27.8 62.1 61.7 62.1h473.6a61.8 61.8 0 0 0 61.7-62.1V62.1A62.1 62.1 0 0 0 598.8 0zM235.7 65.1v70.5c0 32.4-4.9 37-37.3 37h-69.7zm387.1 723.1a23.8 23.8 0 0 1-23.6 24H125.6a23.8 23.8 0 0 1-23.6-24V210.7h97.2c53.3 0 75.4-21.7 75.4-75.1V38.1h325a23.9 23.9 0 0 1 23.6 24v726.1z"/><rect width="617.2" height="286.05" x="208.2" y="442.4" fill="#fff" stroke="#94c947" stroke-miterlimit="10" stroke-width="40" rx="39.7"/><path fill="#94c947" d="M340.1 503.8a243 243 0 0 1 44.1-3.6c21.9 0 38.3 4.5 49.3 14s16.2 22.4 16.2 38.4-5.1 30.2-14.4 39.6c-12.1 12.6-31 18.6-51.3 18.6a74.4 74.4 0 0 1-13.3-.9v66.8h-30.6zm30.6 81.7a57.8 57.8 0 0 0 12.9 1.1c22.3 0 35.5-12.1 35.5-32.5 0-18.5-11.5-29.9-32.6-29.9a67.3 67.3 0 0 0-15.8 1.5zm94.2-81.6a256.6 256.6 0 0 1 45.1-3.7c29.1 0 49.1 6.3 63.6 18.6 16.2 13.5 26.1 35 26.1 66.4 0 33.2-10.3 56.5-25.9 71s-40.3 22-70.9 22a304.2 304.2 0 0 1-38-2.1zm30.7 149a91 91 0 0 0 14.5.8c34.8.1 57.4-20.8 57.4-67.9.1-38.9-18.9-61.4-54.2-61.4a82.5 82.5 0 0 0-17.7 1.6zm119.9-151.5H708v25.7h-61.8v49.6h57.6v25.2h-57.6v74.8h-30.7z"/></svg>