<svg xmlns="http://www.w3.org/2000/svg" width="1051.8" height="1140.6" viewBox="0 0 1051.8 1140.6"><title>photoshop-document</title><g id="Layer_2" data-name="Layer 2"><g id="Layer_1-2" data-name="Layer 1"><path d="M144.6,966.9l40.1-55H144.6V899.8h57.9v11.1l-40,55.1h40.9v12.1H144.6Z" transform="translate(-8.3)" fill="#00673e"/><path d="M210.4,904.3A7.7,7.7,0,1,1,218,912,7.7,7.7,0,0,1,210.4,904.3Zm1.5,17.1h12.4v56.7H211.9Z" transform="translate(-8.3)" fill="#00673e"/><path d="M235.5,999.7V921.4h12.4v7.7a22.6,22.6,0,0,1,18.2-9.1c14.7,0,25.1,11,25.1,29.7s-10.4,29.8-25.1,29.8a22.2,22.2,0,0,1-18.2-9.3v29.5Zm26.9-68.8c-5.7,0-11.8,3.4-14.5,7.6V961c2.7,4.1,8.8,7.6,14.5,7.6,9.8,0,16-7.9,16-18.9S272.2,930.9,262.4,930.9Z" transform="translate(-8.3)" fill="#00673e"/><path d="M294.5,944.4h28.2V955H294.5Z" transform="translate(-8.3)" fill="#00673e"/><path d="M355.3,920c11.1,0,17.8,4.7,21.8,10.1l-8.2,7.5a14.9,14.9,0,0,0-13-6.7c-10.3,0-17.1,7.7-17.1,18.8s6.8,18.9,17.1,18.9a15.4,15.4,0,0,0,13-6.7l8.2,7.5c-4,5.4-10.7,10.1-21.8,10.1-17.2,0-29.3-12.6-29.3-29.8S338.1,920,355.3,920Z" transform="translate(-8.3)" fill="#00673e"/><path d="M379.6,949.7c0-16.2,11.2-29.7,29.2-29.7S438,933.5,438,949.7s-11,29.8-29.2,29.8S379.6,966,379.6,949.7Zm45.6,0c0-10-5.9-18.8-16.4-18.8s-16.4,8.8-16.4,18.8,5.9,18.9,16.4,18.9S425.2,959.8,425.2,949.7Z" transform="translate(-8.3)" fill="#00673e"/><path d="M515.3,941.1c0-6.1-2.7-10.2-9.3-10.2s-10.7,3.9-13.1,7.5v39.7H480.5v-37c0-6.1-2.7-10.2-9.4-10.2s-10.4,3.9-13,7.6v39.6H445.8V921.4h12.3v7.7c2.3-3.5,9.9-9.1,18.4-9.1s13.7,4.2,15.5,10.4A24.2,24.2,0,0,1,511.3,920c10.4,0,16.3,5.6,16.3,17.1v41H515.3Z" transform="translate(-8.3)" fill="#00673e"/><path d="M538.9,999.7V921.4h12.3v7.7a22.6,22.6,0,0,1,18.2-9.1c14.7,0,25.2,11,25.2,29.7s-10.5,29.8-25.2,29.8a22.4,22.4,0,0,1-18.2-9.3v29.5Zm26.9-68.8c-5.8,0-11.9,3.4-14.6,7.6V961c2.7,4.1,8.8,7.6,14.6,7.6,9.7,0,16-7.9,16-18.9S575.5,930.9,565.8,930.9Z" transform="translate(-8.3)" fill="#00673e"/><path d="M602.3,921.4h12.3v8.3c4.3-5.4,11.1-9.6,18.5-9.6v12.2a21.3,21.3,0,0,0-3.9-.4c-5.2,0-12.1,3.6-14.6,7.6v38.6H602.3Z" transform="translate(-8.3)" fill="#00673e"/><path d="M663.6,920c17,0,28,13,28,30.9v2.9H647.8c.9,8.6,7.4,15.6,18,15.6,5.6,0,12.1-2.2,16.1-6.2l5.7,8.1c-5.7,5.4-14,8.2-23,8.2-17.1,0-29.8-11.8-29.8-29.8C634.8,933.2,646.8,920,663.6,920Zm-16,25.1h32c-.2-6.7-4.8-15-16-15S648.2,938.2,647.6,945.1Z" transform="translate(-8.3)" fill="#00673e"/><path d="M699.8,961.8a29.2,29.2,0,0,0,19.2,8c7.4,0,11.2-2.7,11.2-7s-6-6.7-12.9-8.2c-9.8-2.1-21.4-4.7-21.4-17.4,0-9.2,8-17.2,22.3-17.2,9.7,0,16.9,3.4,22.1,8l-5.2,8.6c-3.4-3.8-9.7-6.8-16.8-6.8s-10.5,2.4-10.5,6.4,5.6,5.8,12.3,7.4c9.9,2.1,22,4.9,22,18.3,0,10-8.4,17.6-23.6,17.6-9.7,0-18.5-3-24.4-8.8Z" transform="translate(-8.3)" fill="#00673e"/><path d="M750.5,961.8a29.5,29.5,0,0,0,19.3,8c7.4,0,11.1-2.7,11.1-7s-6-6.7-12.9-8.2c-9.7-2.1-21.4-4.7-21.4-17.4,0-9.2,8-17.2,22.4-17.2,9.6,0,16.9,3.4,22,8l-5.1,8.6c-3.4-3.8-9.8-6.8-16.8-6.8s-10.6,2.4-10.6,6.4,5.6,5.8,12.3,7.4c9.9,2.1,22,4.9,22,18.3,0,10-8.3,17.6-23.6,17.6-9.6,0-18.4-3-24.3-8.8Z" transform="translate(-8.3)" fill="#00673e"/><path d="M825.8,920c17,0,28,13,28,30.9v2.9H809.9c1,8.6,7.4,15.6,18.1,15.6,5.5,0,12.1-2.2,16.1-6.2l5.7,8.1c-5.7,5.4-14,8.2-23.1,8.2-17,0-29.7-11.8-29.7-29.8C797,933.2,809,920,825.8,920Zm-16,25.1h32c-.3-6.7-4.8-15-16-15S810.4,938.2,809.8,945.1Z" transform="translate(-8.3)" fill="#00673e"/><path d="M901.2,970.4a22.9,22.9,0,0,1-18.2,9.1c-14.6,0-25.3-11-25.3-29.7S868.3,920,883,920a23,23,0,0,1,18.2,9.2V899.8h12.3v78.3H901.2Zm0-31.9a18.7,18.7,0,0,0-14.7-7.6c-9.7,0-16,7.9-16,18.9s6.3,18.8,16,18.8c5.9,0,11.9-3.3,14.7-7.5Z" transform="translate(-8.3)" fill="#00673e"/><path d="M8.3,1040.7H42.8c16.4,0,25.6,11.3,25.6,24.5s-9.3,24.6-25.6,24.6H22.1V1119H8.3Zm32.6,12.1H22.1v24.9H40.9c7.7,0,13.4-4.9,13.4-12.5S48.6,1052.8,40.9,1052.8Z" transform="translate(-8.3)" fill="#00673e"/><path d="M113.1,1083.3c0-8.8-4.6-11.5-11.5-11.5s-11.6,3.8-14.6,7.7V1119H74.7v-78.3H87v29.4a27.2,27.2,0,0,1,20.1-9.2c12.2,0,18.3,6.3,18.3,18V1119H113.1Z" transform="translate(-8.3)" fill="#00673e"/><path d="M133.2,1090.6c0-16.2,11.1-29.7,29.1-29.7s29.3,13.5,29.3,29.7-11.1,29.8-29.3,29.8S133.2,1106.9,133.2,1090.6Zm45.5,0c0-10-5.8-18.8-16.4-18.8s-16.3,8.8-16.3,18.8,5.9,18.9,16.3,18.9S178.7,1100.7,178.7,1090.6Z" transform="translate(-8.3)" fill="#00673e"/><path d="M201.8,1105.9v-32.8h-9.4v-10.8h9.4v-15.5h12.3v15.5h11.5v10.8H214.1v29.7c0,3.9,1.9,6.7,5.4,6.7s4.6-.9,5.5-2l3,9.3c-2.3,2.1-5.9,3.6-11.7,3.6C206.8,1120.4,201.8,1115.3,201.8,1105.9Z" transform="translate(-8.3)" fill="#00673e"/><path d="M228.5,1090.6c0-16.2,11.2-29.7,29.2-29.7s29.2,13.5,29.2,29.7-11,29.8-29.2,29.8S228.5,1106.9,228.5,1090.6Zm45.6,0c0-10-5.9-18.8-16.4-18.8s-16.4,8.8-16.4,18.8,5.9,18.9,16.4,18.9S274.1,1100.7,274.1,1090.6Z" transform="translate(-8.3)" fill="#00673e"/><path d="M295.4,1102.7a29.2,29.2,0,0,0,19.2,8c7.4,0,11.2-2.7,11.2-6.9s-6-6.7-12.9-8.3c-9.8-2.1-21.4-4.6-21.4-17.3,0-9.3,8-17.3,22.3-17.3a32.5,32.5,0,0,1,22.1,8l-5.2,8.7c-3.4-3.9-9.7-6.8-16.8-6.8s-10.5,2.3-10.5,6.3,5.6,5.9,12.3,7.4c9.9,2.1,22,4.9,22,18.3,0,10-8.4,17.6-23.7,17.6-9.6,0-18.4-3-24.3-8.8Z" transform="translate(-8.3)" fill="#00673e"/><path d="M383.8,1083.3c0-8.8-4.6-11.5-11.5-11.5s-11.6,3.8-14.6,7.7V1119H345.4v-78.3h12.3v29.4a27.2,27.2,0,0,1,20.1-9.2c12.2,0,18.3,6.3,18.3,18V1119H383.8Z" transform="translate(-8.3)" fill="#00673e"/><path d="M403.9,1090.6c0-16.2,11.1-29.7,29.1-29.7s29.3,13.5,29.3,29.7-11.1,29.8-29.3,29.8S403.9,1106.9,403.9,1090.6Zm45.6,0c0-10-5.9-18.8-16.5-18.8s-16.3,8.8-16.3,18.8,5.9,18.9,16.3,18.9S449.5,1100.7,449.5,1090.6Z" transform="translate(-8.3)" fill="#00673e"/><path d="M470,1140.6v-78.3h12.3v7.8a22.6,22.6,0,0,1,18.2-9.2c14.7,0,25.2,11,25.2,29.7s-10.5,29.8-25.2,29.8a22.3,22.3,0,0,1-18.2-9.2v29.4Zm26.9-68.8c-5.8,0-11.9,3.4-14.6,7.7v22.4c2.7,4.1,8.8,7.6,14.6,7.6,9.8,0,16-7.8,16-18.9S506.7,1071.8,496.9,1071.8Z" transform="translate(-8.3)" fill="#00673e"/><path d="M559.3,1040.7h29.1c24.4,0,41,16.2,41,39.2s-16.6,39.1-41,39.1H559.3Zm29.1,66.2c17,0,26.9-12.2,26.9-27s-9.4-27.1-26.9-27.1H573v54.1Z" transform="translate(-8.3)" fill="#00673e"/><path d="M634.1,1090.6c0-16.2,11.1-29.7,29.1-29.7s29.2,13.5,29.2,29.7-11,29.8-29.2,29.8S634.1,1106.9,634.1,1090.6Zm45.5,0c0-10-5.8-18.8-16.4-18.8s-16.3,8.8-16.3,18.8,5.8,18.9,16.3,18.9S679.6,1100.7,679.6,1090.6Z" transform="translate(-8.3)" fill="#00673e"/><path d="M726,1060.9c11.1,0,17.8,4.7,21.8,10.1l-8.1,7.5a15.5,15.5,0,0,0-13.1-6.7c-10.3,0-17.1,7.8-17.1,18.8s6.8,18.9,17.1,18.9a15.5,15.5,0,0,0,13.1-6.7l8.1,7.5c-4,5.5-10.7,10.1-21.8,10.1-17.2,0-29.3-12.5-29.3-29.8S708.8,1060.9,726,1060.9Z" transform="translate(-8.3)" fill="#00673e"/><path d="M792.2,1111.5a27.3,27.3,0,0,1-20.1,8.9c-12.2,0-18.2-6.3-18.2-17.9v-40.2h12.3V1098c0,8.8,4.5,11.5,11.4,11.5a19,19,0,0,0,14.6-7.4v-39.8h12.3V1119H792.2Z" transform="translate(-8.3)" fill="#00673e"/><path d="M885.3,1082c0-6.1-2.7-10.2-9.3-10.2s-10.7,3.9-13.1,7.5V1119H850.5v-37c0-6.1-2.7-10.2-9.4-10.2s-10.4,3.9-13,7.7V1119H815.8v-56.7h12.3v7.8c2.3-3.6,9.9-9.2,18.4-9.2s13.7,4.2,15.5,10.5a24,24,0,0,1,19.3-10.5c10.4,0,16.3,5.6,16.3,17.1v41H885.3Z" transform="translate(-8.3)" fill="#00673e"/><path d="M934.1,1060.9c17.1,0,28,13,28,30.9v2.9H918.3c.9,8.6,7.4,15.6,18.1,15.6,5.5,0,12.1-2.2,16.1-6.2l5.6,8.1c-5.6,5.4-14,8.2-23,8.2-17,0-29.7-11.8-29.7-29.8C905.4,1074.2,917.3,1060.9,934.1,1060.9ZM918.2,1086h31.9c-.2-6.7-4.8-15-16-15S918.8,1079.1,918.2,1086Z" transform="translate(-8.3)" fill="#00673e"/><path d="M1007.9,1083.6c0-8.8-4.5-11.8-11.4-11.8s-11.7,3.8-14.6,7.7V1119H969.6v-56.7h12.3v7.8a26.9,26.9,0,0,1,20-9.2c12.2,0,18.3,6.6,18.3,18.2V1119h-12.3Z" transform="translate(-8.3)" fill="#00673e"/><path d="M1034,1105.9v-32.8h-9.4v-10.8h9.4v-15.5h12.3v15.5h11.5v10.8h-11.5v29.7c0,3.9,1.9,6.7,5.4,6.7s4.6-.9,5.5-2l3,9.3c-2.3,2.1-5.9,3.6-11.7,3.6C1039,1120.4,1034,1115.3,1034,1105.9Z" transform="translate(-8.3)" fill="#00673e"/><path d="M644.6,112.2H607.5V137h37.1Zm0,49.4H607.5v24.8h37.1Zm-37.1-24.8H570.4v24.8h37.1Zm37.1-74H607.5V87.5h37.1ZM607.5,87.4H570.4v24.8h37.1Zm59.3,207.7-22.2-84H570.4l-22.2,84c-9.9,39.5,19.7,61.8,59.3,61.8S676.7,334.7,666.8,295.1Zm-96.4,14.8c0-32.1,74.2-32.1,74.2,0S570.4,342,570.4,309.9Z" transform="translate(-8.3)" fill="#94c947"/><path d="M766.8,0H422.4a10.5,10.5,0,0,0-3.5.4h0c-1.1.4-2.2.4-3,.7a1.4,1.4,0,0,0-.8.4l-2.3,1.2c-.3,0-.3.3-.7.3s-1.9,1.6-2.7,2.3l-172.2,173a22.8,22.8,0,0,0-2.3,2.7c0,.3-.4.3-.4.7l-1.1,2.3a1.4,1.4,0,0,1-.4.8,8.2,8.2,0,0,0-.7,3h0a10.5,10.5,0,0,0-.4,3.5V788.2c0,34.3,27.8,62.1,61.7,62.1H767.2a61.8,61.8,0,0,0,61.7-62.1V62.1A62.1,62.1,0,0,0,766.8,0ZM403.7,65.1v70.5c0,32.4-5,37-37.3,37H296.6ZM790.8,788.2a23.8,23.8,0,0,1-23.6,24H293.6a23.7,23.7,0,0,1-23.6-24V210.7h97.1c53.4,0,75.5-21.7,75.5-75.1V38.1H767.5a23.9,23.9,0,0,1,23.7,24V788.2Z" transform="translate(-8.3)" fill="#94c947"/><rect x="367.9" y="442.4" width="617.2" height="286.05" rx="39.7" fill="#fff" stroke="#94c947" stroke-miterlimit="10" stroke-width="40"/><path d="M596.5,503.8a243,243,0,0,1,44.1-3.6c21.9,0,38.3,4.5,49.2,14S706,536.6,706,552.6s-5.1,30.2-14.3,39.6c-12.1,12.6-31.1,18.6-51.4,18.6a75.8,75.8,0,0,1-13.3-.9v66.8H596.5ZM627,585.5a58.8,58.8,0,0,0,13,1.1c22.2,0,35.5-12.1,35.5-32.5,0-18.5-11.5-29.9-32.6-29.9a69,69,0,0,0-15.9,1.5Z" transform="translate(-8.3)" fill="#94c947"/><path d="M713.1,648.2c6.4,4,18.6,8.5,29.2,8.5,12.8,0,19-5.8,19-14.3s-4.7-13-19.2-19.1c-23-9.3-32.2-22.4-32.2-36.8,0-22.1,17.8-39,45.3-39,12.8,0,23.7,3.3,30.8,7.1l-6.2,21.9a49.6,49.6,0,0,0-23.9-6.7c-10.9,0-16.7,5.8-16.7,13.3s5.2,11.6,20,18c21.2,8.7,31.3,20.7,31.4,38.5,0,23.9-18,39.5-48.5,39.5-13.7,0-26.9-3.5-35.1-8.4Z" transform="translate(-8.3)" fill="#94c947"/></g></g></svg>