<svg xmlns="http://www.w3.org/2000/svg" viewBox="0 0 95 84.8" width="95" height="84.8"><style>.st0{fill:#fff}</style><g id="Layer_1"><path d="M71.9 79H12.5v-8.8h3.9c1.6 0 2.9-1.3 2.9-2.9s-1.3-2.9-2.9-2.9h-3.9V53.6h3.9c1.6 0 2.9-1.3 2.9-2.9 0-1.6-1.3-2.9-2.9-2.9h-3.9V37h3.9c1.6 0 2.9-1.3 2.9-2.9 0-1.6-1.3-2.9-2.9-2.9h-3.9V20.4h3.9c1.6 0 2.9-1.3 2.9-2.9s-1.3-2.9-2.9-2.9h-3.9V5.8h59.4v34.5l5.8-2.5V4.7C77.7 2.1 75.6 0 73 0H11.5C8.9 0 6.8 2.1 6.8 4.7v9.9H2.9c-1.6 0-2.9 1.3-2.9 2.9s1.3 2.9 2.9 2.9h3.9v10.8H2.9c-1.6 0-2.9 1.3-2.9 2.9C0 35.7 1.3 37 2.9 37h3.9v10.8H2.9c-1.6 0-2.9 1.3-2.9 2.9 0 1.6 1.3 2.9 2.9 2.9h3.9v10.8H2.9c-1.6 0-2.9 1.3-2.9 2.9s1.3 2.9 2.9 2.9h3.9v9.9c0 2.6 2.1 4.7 4.7 4.7h61.6c2.6 0 4.7-2.1 4.7-4.7V64.7L72 67.2 71.9 79z" class="st0"/><path d="M52.1 49.2h30.3v13.2H52.1z" class="st0" transform="rotate(-23.373 67.263 55.782)"/><path d="M42.1 59.8l-4.9 7.1c-.8 1.2-.1 2.8 1.3 3.1l8.5 1.3c.4.1.7 0 1.1-.1l3-1.3-5.2-12.1-3 1.3c-.3.1-.6.4-.8.7zm52.7-11l-3.6-8.4c-.4-1-1.6-1.5-2.6-1l-5.4 2.3 5.2 12.1 5.4-2.3c1-.5 1.5-1.7 1-2.7zm-30.3-25c0-7-17.9-8.8-32.9-9.1-1.3-.1-2.3 1-2.3 2.2s1 2.3 2.2 2.3c13.4.3 26 2.3 28.3 4.3-2.2.9-9.4 1.1-13.8 1.2-10.4.2-17.9.4-17.9 5.2 0 4.6 7.1 5.9 16.1 7.5 2.8.5 6.8 1.2 8.9 1.9-2.1.9-6.4 2-9.2 2.6-5.2 1.2-9.7 2.3-11.9 4.1-3.9 3.2-.9 10.1-.5 10.9s1.2 1.3 2 1.3c.3 0 .6-.1.9-.2 1.1-.5 1.6-1.9 1.1-3-.9-2-1.5-5-.8-5.5 1.4-1.1 6.2-2.3 10.1-3.2 7.9-1.9 13.6-3.2 13.6-7.2 0-3.7-5.4-4.7-13.5-6.1-3.6-.6-10-1.8-11.9-2.7 2.4-.8 8.9-.9 13-1 10.7-.4 18.5-.6 18.5-5.5z" class="st0"/></g></svg>