<svg xmlns="http://www.w3.org/2000/svg" width="1129.9" height="1125.7" viewBox="0 0 1129.9 1125.7"><title>zip-compressed-folder</title><g id="Layer_2" data-name="Layer 2"><g id="Layer_1-2" data-name="Layer 1"><path d="M367.2,884.9h53.7V897h-40v20.3H420v12.1H380.9v33.8H367.2Z" transform="translate(-5.2)" fill="#00673e"/><path d="M426.6,889.4a7.7,7.7,0,1,1,7.6,7.7A7.7,7.7,0,0,1,426.6,889.4Zm1.5,17.1h12.4v56.7H428.1Z" transform="translate(-5.2)" fill="#00673e"/><path d="M451.7,884.9h12.4v78.3H451.7Z" transform="translate(-5.2)" fill="#00673e"/><path d="M500.6,905.1c17,0,28,13,28,30.8v3H484.7c1,8.6,7.4,15.6,18.1,15.6,5.6,0,12.1-2.2,16.1-6.2l5.7,8.1c-5.7,5.4-14,8.2-23.1,8.2-17,0-29.7-11.9-29.7-29.8S483.8,905.1,500.6,905.1Zm-16,25.1h32c-.3-6.7-4.8-15-16-15S485.2,923.3,484.6,930.2Z" transform="translate(-5.2)" fill="#00673e"/><path d="M536.8,946.9a29.2,29.2,0,0,0,19.2,8c7.4,0,11.2-2.7,11.2-7s-6-6.7-12.9-8.2c-9.8-2.1-21.4-4.7-21.4-17.4,0-9.3,8-17.2,22.3-17.2a33,33,0,0,1,22.1,7.9l-5.2,8.7c-3.4-3.8-9.7-6.8-16.8-6.8s-10.5,2.4-10.5,6.4,5.6,5.8,12.3,7.4c9.9,2.1,22,4.9,22,18.3,0,10-8.4,17.6-23.7,17.6-9.6,0-18.4-3.1-24.3-8.8Z" transform="translate(-5.2)" fill="#00673e"/><path d="M610.8,889.4a7.6,7.6,0,1,1,7.6,7.7A7.7,7.7,0,0,1,610.8,889.4Zm1.5,17.1h12.3v56.7H612.3Z" transform="translate(-5.2)" fill="#00673e"/><path d="M674.2,927.7c0-8.8-4.5-11.7-11.4-11.7a18.5,18.5,0,0,0-14.6,7.6v39.6H635.9V906.5h12.3v7.7a27.2,27.2,0,0,1,20-9.1c12.2,0,18.3,6.5,18.3,18.2v39.9H674.2Z" transform="translate(-5.2)" fill="#00673e"/><path d="M757.9,957.1c-4.2,4.8-10.8,7.5-18.3,7.5-9.3,0-19.7-6.2-19.7-18.8s10.4-18.4,19.7-18.4c7.6,0,14.2,2.4,18.3,7.3v-8.5c0-6.6-5.4-10.6-13.3-10.6-6.3,0-11.8,2.4-16.8,7.2l-5-8.6a33.8,33.8,0,0,1,23.8-9.1c12.6,0,23.6,5.2,23.6,20.5v37.6H757.9Zm0-15.4c-2.8-3.9-8.1-5.9-13.5-5.9s-12.1,4-12.1,10.2,5.2,10.1,12.1,10.1,10.7-1.9,13.5-5.8Z" transform="translate(-5.2)" fill="#00673e"/><path d="M5.2,1093l40-55.1H5.2v-12.1H63.1v11.1L23,1092H63.9v12.1H5.2Z" transform="translate(-5.2)" fill="#00673e"/><path d="M70.9,1030.4a7.8,7.8,0,0,1,7.7-7.7,7.7,7.7,0,0,1,0,15.3A7.7,7.7,0,0,1,70.9,1030.4Zm1.6,17H84.8v56.7H72.5Z" transform="translate(-5.2)" fill="#00673e"/><path d="M96.1,1125.7v-78.3h12.3v7.8a22.4,22.4,0,0,1,18.2-9.2c14.7,0,25.1,11,25.1,29.7s-10.4,29.8-25.1,29.8a22.2,22.2,0,0,1-18.2-9.2v29.4Zm26.9-68.8c-5.8,0-11.9,3.4-14.6,7.6V1087c2.7,4.1,8.8,7.6,14.6,7.6,9.7,0,15.9-7.9,15.9-18.9S132.7,1056.9,123,1056.9Z" transform="translate(-5.2)" fill="#00673e"/><path d="M155,1070.4h28.2V1081H155Z" transform="translate(-5.2)" fill="#00673e"/><path d="M186.9,1065c0-24.1,17.9-40.5,40.5-40.5,16.4,0,26.2,8.2,32,17.6l-11.7,6a23.5,23.5,0,0,0-20.3-11.4c-14.9,0-26.5,11.9-26.5,28.3s11.6,28.3,26.5,28.3a23.3,23.3,0,0,0,20.3-11.4l11.7,6c-6,9.4-15.6,17.6-32,17.6C204.8,1105.5,186.9,1089.1,186.9,1065Z" transform="translate(-5.2)" fill="#00673e"/><path d="M261.9,1075.7c0-16.2,11.2-29.7,29.1-29.7s29.3,13.5,29.3,29.7-11.1,29.8-29.3,29.8S261.9,1092,261.9,1075.7Zm45.6,0c0-10-5.9-18.8-16.5-18.8s-16.3,8.8-16.3,18.8,5.9,18.9,16.3,18.9S307.5,1085.8,307.5,1075.7Z" transform="translate(-5.2)" fill="#00673e"/><path d="M397.5,1067.1c0-6.1-2.7-10.2-9.2-10.2s-10.7,3.9-13.2,7.5v39.7H362.8v-37c0-6.1-2.7-10.2-9.4-10.2s-10.5,3.9-13.1,7.6v39.6H328v-56.7h12.3v7.8c2.4-3.6,9.9-9.2,18.5-9.2s13.6,4.2,15.5,10.4a24.2,24.2,0,0,1,19.3-10.4c10.4,0,16.3,5.6,16.3,17.1v41H397.5Z" transform="translate(-5.2)" fill="#00673e"/><path d="M421.2,1125.7v-78.3h12.3v7.8a22.4,22.4,0,0,1,18.2-9.2c14.7,0,25.1,11,25.1,29.7s-10.4,29.8-25.1,29.8a22.2,22.2,0,0,1-18.2-9.2v29.4Zm26.8-68.8c-5.7,0-11.8,3.4-14.5,7.6V1087c2.7,4.1,8.8,7.6,14.5,7.6,9.8,0,16-7.9,16-18.9S457.8,1056.9,448,1056.9Z" transform="translate(-5.2)" fill="#00673e"/><path d="M484.6,1047.4h12.3v8.3c4.2-5.4,11-9.6,18.4-9.6v12.2a20.2,20.2,0,0,0-3.8-.3c-5.2,0-12.1,3.5-14.6,7.5v38.6H484.6Z" transform="translate(-5.2)" fill="#00673e"/><path d="M545.9,1046c17,0,27.9,13,27.9,30.9v2.9H530c1,8.6,7.4,15.6,18.1,15.6,5.5,0,12.1-2.2,16.1-6.2l5.6,8.1c-5.6,5.4-13.9,8.2-23,8.2-17,0-29.7-11.8-29.7-29.8C517.1,1059.3,529.1,1046,545.9,1046Zm-16,25.1h31.9c-.2-6.7-4.8-15-15.9-15S530.5,1064.2,529.9,1071.1Z" transform="translate(-5.2)" fill="#00673e"/><path d="M582,1087.8a29.5,29.5,0,0,0,19.3,8c7.4,0,11.2-2.7,11.2-6.9s-6-6.7-13-8.3c-9.7-2.1-21.3-4.7-21.3-17.3,0-9.3,8-17.3,22.3-17.3a32.5,32.5,0,0,1,22.1,8l-5.2,8.7c-3.4-3.9-9.8-6.8-16.8-6.8s-10.6,2.3-10.6,6.3,5.7,5.9,12.4,7.4c9.8,2.1,21.9,4.9,21.9,18.3,0,10-8.3,17.6-23.6,17.6-9.6,0-18.4-3-24.3-8.8Z" transform="translate(-5.2)" fill="#00673e"/><path d="M632.8,1087.8a29.2,29.2,0,0,0,19.2,8c7.4,0,11.2-2.7,11.2-6.9s-6-6.7-12.9-8.3c-9.8-2.1-21.4-4.7-21.4-17.3,0-9.3,8-17.3,22.3-17.3a32.5,32.5,0,0,1,22.1,8l-5.2,8.7c-3.4-3.9-9.7-6.8-16.8-6.8s-10.5,2.3-10.5,6.3,5.6,5.9,12.3,7.4c9.9,2.1,22,4.9,22,18.3,0,10-8.4,17.6-23.6,17.6-9.7,0-18.5-3-24.4-8.8Z" transform="translate(-5.2)" fill="#00673e"/><path d="M708.1,1046c17,0,27.9,13,27.9,30.9v2.9H692.2c.9,8.6,7.4,15.6,18.1,15.6,5.5,0,12.1-2.2,16.1-6.2l5.6,8.1c-5.6,5.4-14,8.2-23,8.2-17,0-29.7-11.8-29.7-29.8C679.3,1059.3,691.3,1046,708.1,1046Zm-16,25.1H724c-.2-6.7-4.8-15-15.9-15S692.7,1064.2,692.1,1071.1Z" transform="translate(-5.2)" fill="#00673e"/><path d="M783.5,1096.4a23.2,23.2,0,0,1-18.2,9.1c-14.6,0-25.3-11-25.3-29.7s10.6-29.8,25.3-29.8a22.8,22.8,0,0,1,18.2,9.3v-29.5h12.3v78.3H783.5Zm0-31.9a18.8,18.8,0,0,0-14.7-7.6c-9.8,0-16,7.9-16,18.9s6.2,18.8,16,18.8a18.7,18.7,0,0,0,14.7-7.5Z" transform="translate(-5.2)" fill="#00673e"/><path d="M832.9,1025.8h53.7v12.1h-40v20.3h39.2v12.1H846.6v33.8H832.9Z" transform="translate(-5.2)" fill="#00673e"/><path d="M890.3,1075.7c0-16.2,11.2-29.7,29.2-29.7s29.2,13.5,29.2,29.7-11,29.8-29.2,29.8S890.3,1092,890.3,1075.7Zm45.6,0c0-10-5.9-18.8-16.4-18.8s-16.4,8.8-16.4,18.8,5.9,18.9,16.4,18.9S935.9,1085.8,935.9,1075.7Z" transform="translate(-5.2)" fill="#00673e"/><path d="M956.5,1025.8h12.3v78.3H956.5Z" transform="translate(-5.2)" fill="#00673e"/><path d="M1020,1096.4a23.1,23.1,0,0,1-18.2,9.1c-14.6,0-25.3-11-25.3-29.7s10.6-29.8,25.3-29.8a22.8,22.8,0,0,1,18.2,9.3v-29.5h12.3v78.3H1020Zm0-31.9a18.7,18.7,0,0,0-14.7-7.6c-9.7,0-16,7.9-16,18.9s6.3,18.8,16,18.8c5.9,0,11.9-3.3,14.7-7.5Z" transform="translate(-5.2)" fill="#00673e"/><path d="M1068.8,1046c17.1,0,28,13,28,30.9v2.9H1053c.9,8.6,7.4,15.6,18.1,15.6,5.5,0,12.1-2.2,16.1-6.2l5.6,8.1c-5.6,5.4-14,8.2-23,8.2-17,0-29.7-11.8-29.7-29.8C1040.1,1059.3,1052.1,1046,1068.8,1046Zm-15.9,25.1h31.9c-.2-6.7-4.8-15-16-15S1053.5,1064.2,1052.9,1071.1Z" transform="translate(-5.2)" fill="#00673e"/><path d="M1104.3,1047.4h12.3v8.3c4.3-5.4,11.1-9.6,18.5-9.6v12.2a22.1,22.1,0,0,0-3.9-.3c-5.2,0-12.1,3.5-14.6,7.5v38.6h-12.3Z" transform="translate(-5.2)" fill="#00673e"/><path d="M495.9,113.5V73.3A53.3,53.3,0,0,0,442.6,20H160.7C120,20,86.9,30,86.9,70.8v656a73.8,73.8,0,0,0,73.8,73.7H992.6a73.7,73.7,0,0,0,73.7-73.7V240.6a73.7,73.7,0,0,0-73.7-73.8H549.2A53.3,53.3,0,0,1,495.9,113.5Z" transform="translate(-5.2)" fill="#fff" stroke="#94c947" stroke-miterlimit="10" stroke-width="40"/><path d="M896.8,267.7H835.6v40.9h61.2Zm0,81.6H835.6v40.9h61.2Zm-61.2-40.9H774.3v40.9h61.3Zm61.2-122.3H835.6V227h61.2Zm-61.2,40.7H774.3v40.9h61.3Zm97.9,342.9L896.8,430.9H774.3L737.6,569.7c-16.3,65.2,32.6,101.9,97.9,101.9S949.8,635,933.5,569.7ZM774.3,594.1c0-53,122.5-53,122.5,0S774.3,647.1,774.3,594.1Z" transform="translate(-5.2)" fill="#94c947"/></g></g></svg>