<svg xmlns="http://www.w3.org/2000/svg" fill-rule="evenodd" stroke-linejoin="round" stroke-miterlimit="1.41" clip-rule="evenodd" viewBox="0 0 2000 883" width="2000" height="883"><path fill="#231f20" fill-rule="nonzero" d="M340.385 256.286c-2.056-38.707-4.453-85.635-4.11-119.889h-1.2c-9.42 32.541-20.895 66.966-34.254 105.16l-48.983 134.446h-27.917l-45.215-131.706c-12.674-39.05-23.806-74.845-31.513-107.729 0 34.254-2.912 81.01-5.31 122.458l-8.392 119.204H99.237l19.525-277.286h45.557l47.27 133.933c11.476 34.254 20.896 64.569 27.918 93.342h1.199c7.022-27.917 17.127-58.403 29.116-93.342l49.325-133.933h45.558l17.127 277.114h-34.254l-7.193-121.772zm112.353-77.243l43.502 117.491c4.453 13.188 9.42 28.773 12.674 40.762 3.768-11.989 7.878-27.06 12.674-41.447l39.392-116.806h38.193l-54.292 141.811c-25.862 68.508-43.503 102.762-68.508 124.513a97.913 97.913 0 0 1-44.36 23.464l-9.076-30.486a95.544 95.544 0 0 0 31.685-17.127 109.755 109.755 0 0 0 30.486-40.248 25.759 25.759 0 0 0 2.911-8.563 31.52 31.52 0 0 0-2.398-9.42l-73.646-183.43 40.763-.514zm179.833 62.171c0-23.464 0-43.502-1.713-62h31.685l1.199 39.05h1.712c7.005-24.851 29.356-42.475 55.15-43.503a39.207 39.207 0 0 1 10.275 1.2v34.253a54.274 54.274 0 0 0-12.331-1.199c-25.314 1.32-46.054 21.186-48.47 46.414a100.789 100.789 0 0 0-1.712 17.127V378.23h-35.795V241.214zm176.236-118.176c0 12.314-10.122 22.436-22.436 22.436s-22.437-10.122-22.437-22.436v-.531c0-12.109 9.968-22.094 22.094-22.094.223 0 .463.017.685.017.24 0 .48-.017.72-.017 11.749 0 21.408 9.677 21.408 21.409 0 .411-.017.805-.034 1.216zM768.56 378.23V179.043h36.138V378.23H768.56zm206.38 0l-2.912-25.006h-1.199c-14.3 19.063-36.96 30.11-60.8 29.63-1.37.103-2.74.154-4.111.154-31.103 0-56.69-25.588-56.69-56.69v-.668c0-48.127 42.817-74.331 119.888-73.989v-4.11c.24-1.798.36-3.597.36-5.395 0-22.47-18.48-40.933-40.933-40.933-1.559 0-3.1.085-4.642.256a99.165 99.165 0 0 0-51.38 14.73l-8.735-24.15a123.484 123.484 0 0 1 65.425-17.126c60.8 0 75.7 41.447 75.7 81.353v73.988a279.114 279.114 0 0 0 2.912 47.956H974.94zm-5.31-101.563c-39.392 0-84.264 6.166-84.264 44.872a34.376 34.376 0 0 0-.086 2.313c0 17.572 14.455 32.027 32.027 32.027.771 0 1.542-.034 2.313-.086 21.511.6 41.053-12.896 48.126-33.226 1.285-3.7 1.97-7.57 2.056-11.475l-.172-34.425zm265.126-190.623v240.805c0 17.127 0 37.85 1.712 51.38h-32.54l-1.714-34.253c-13.341 25.125-40.094 40.385-68.507 39.05-48.127 0-85.635-40.763-85.635-101.05 0-66.11 40.762-106.872 89.231-106.872 23.995-1.439 46.98 10.242 59.945 30.486V86.044h37.508zm-36.138 173.838a63.443 63.443 0 0 0-1.713-15.243c-5.24-24.166-26.65-41.652-51.38-41.96-37.338 0-59.603 32.883-59.603 76.9 0 40.248 19.696 73.645 58.746 73.645 25.365-.462 47.202-18.634 52.237-43.502a62.857 62.857 0 0 0 1.713-15.586v-34.254zm184.457-155.684a413.294 413.294 0 0 1 68.508-5.31 113.92 113.92 0 0 1 77.928 22.437 74.508 74.508 0 0 1 24.32 57.89 81.596 81.596 0 0 1-22.094 59.772c-22.864 21.238-53.453 32.25-84.607 30.486-9.66.326-19.302-.48-28.773-2.397V378.23h-35.282V104.198zm35.796 133.59a120.527 120.527 0 0 0 29.63 2.912c43.16 0 69.535-20.895 69.535-59.26 0-38.364-25.862-54.292-65.425-54.292a150.286 150.286 0 0 0-34.254 2.912l.514 107.729zm175.037 3.426c0-23.464 0-43.502-1.713-62h31.685l1.2 39.05h1.712c7.005-24.851 29.356-42.475 55.149-43.503 3.46-.051 6.919.343 10.276 1.2v34.253a54.274 54.274 0 0 0-12.332-1.199c-25.313 1.32-46.054 21.186-48.469 46.414a100.789 100.789 0 0 0-1.713 17.127V378.23h-35.795V241.214zm310.34 35.624c0 73.646-51.38 105.673-98.993 105.673-53.779 0-95.397-39.392-95.397-102.761 0-66.624 43.502-105.674 98.651-105.674 55.149 0 95.74 41.961 95.74 102.762zm-157.91 2.055c0 43.503 25.005 76.387 60.458 76.387s60.458-32.542 60.458-77.243c0-34.254-17.126-76.386-59.601-76.386-42.475 0-61.144 39.563-61.144 77.242h-.17zM318.976 871.143v-11.988c32.884-3.254 34.254-5.823 34.254-48.127l-1.199-166.131h-2.055l-98.652 222.65h-8.563l-90.26-216.656h-1.198l-5.823 115.093c-1.713 34.254-1.713 51.381-1.2 68.508 0 19.353 10.277 22.608 37.852 25.005v12.332H85.878v-12.332c23.464-2.397 31.685-7.364 34.254-24.32 2.055-14.044 4.967-32.541 7.878-75.701l6.166-84.607c3.768-51.381 1.199-54.635-35.795-58.403v-11.99h70.905l90.773 201.071 92.486-201.07h72.276v11.989c-35.796 3.768-38.194 4.967-36.995 45.557l4.11 149.176c0 42.818 2.399 45.216 37.338 48.47v11.989l-110.298-.514zm132.734 0v-11.132c25.52-2.398 28.43-4.967 28.43-32.884v-84.264c0-25.862-1.712-27.575-25.005-31.171v-10.277a317.96 317.96 0 0 0 61.144-14.9v141.469c0 27.917 2.397 30.486 28.773 32.884V872l-93.342-.856zm21.751-241.318v-.343c0-12.4 10.208-22.607 22.608-22.607s22.607 10.207 22.607 22.607c0 12.4-10.207 22.608-22.607 22.608-12.28 0-22.42-9.985-22.608-22.265zm207.236 241.319V860.01c22.95-2.398 25.862-5.31 25.862-34.254V757.25c0-28.43-10.619-45.557-35.795-45.557a69.864 69.864 0 0 0-42.304 19.696v96.938c0 27.575 2.398 29.116 25.52 31.685v11.133h-90.774V860.01c27.061-2.911 29.116-4.967 29.116-32.027v-85.635c0-25.862-2.397-27.06-24.32-31.171v-9.934a307.361 307.361 0 0 0 60.458-17.127v32.541c8.221-5.823 17.127-12.33 27.06-18.84a59.752 59.752 0 0 1 34.255-12.33c32.883 0 53.093 22.95 53.093 62.855v79.298c0 27.575 2.398 28.774 25.862 31.685v11.133l-88.033.685zm109.27 0V860.01c25.52-2.398 28.431-4.967 28.431-32.884v-84.264c0-25.862-1.712-27.575-25.005-31.171v-10.277a317.96 317.96 0 0 0 61.143-14.9v141.469c0 27.917 2.398 30.486 28.773 32.884V872l-93.342-.856zm22.437-241.32v-.342c0-12.4 10.207-22.607 22.607-22.607 12.4 0 22.608 10.207 22.608 22.607 0 12.4-10.208 22.608-22.608 22.608-12.28 0-22.419-9.985-22.607-22.265zm273.175 148.149c.171 2.278.257 4.573.257 6.85 0 49.755-40.591 90.86-90.345 91.459-.685.017-1.387.017-2.072.017-48.95 0-89.232-40.266-89.232-89.232 0-.513 0-1.044.017-1.558-.068-1.559-.12-3.1-.12-4.659 0-50.781 40.985-92.93 91.75-94.335h.188c49.137 0 89.574 40.437 89.574 89.574 0 .634 0 1.25-.017 1.884zm-139.414-5.823c0 51.38 20.895 90.43 53.779 90.43 23.464 0 43.503-17.127 43.503-74.33 0-49.669-18.498-87.52-52.58-87.52-24.32-.513-44.702 24.15-44.702 71.42zm279.17 98.994V860.01c22.95-2.398 25.862-5.31 25.862-34.254V757.25c0-28.43-10.62-45.557-35.796-45.557a69.864 69.864 0 0 0-42.303 19.696v96.938c0 27.575 2.397 29.116 25.519 31.685v11.133h-90.773V860.01c27.06-2.911 29.116-4.967 29.116-32.027v-85.635c0-25.862-2.398-27.06-24.32-31.171v-9.934a307.361 307.361 0 0 0 60.458-17.127v32.541c8.22-5.823 17.127-12.33 27.06-18.84a59.752 59.752 0 0 1 34.254-12.33c32.884 0 53.094 22.95 53.094 62.855v79.298c0 27.575 2.398 28.774 25.861 31.685v11.133l-88.032.685zm311.54-267.18a117.493 117.493 0 0 1 69.535 17.126c18.154 13.736 28.31 35.676 27.06 58.403 0 53.779-39.905 79.298-80.496 84.607a89.323 89.323 0 0 1-18.155 0l-29.972-7.878v63.37c0 34.253 3.254 36.994 39.906 39.392v11.988h-114.408v-11.988c32.54-2.398 36.138-5.824 36.138-39.906V656.2c0-36.138-3.768-37.85-34.254-40.248v-11.989h104.645zm-32.028 138.556a83.564 83.564 0 0 0 28.43 4.453c24.664 0 57.205-13.53 57.205-66.11 0-44.873-27.575-63.37-59.945-63.37a34.312 34.312 0 0 0-21.408 4.967c-2.912 2.398-4.11 7.365-4.11 18.155l-.172 101.905zm217.855-12.674c12.674-21.922 29.972-43.331 48.812-43.331 12.57-.685 23.584 8.855 24.663 21.409-.103 9.557-5.72 18.24-14.387 22.265a9.432 9.432 0 0 1-11.133-1.2 24.497 24.497 0 0 0-17.983-8.22c-9.934 0-22.265 10.619-30.828 32.541v75.701c0 26.718 2.055 29.116 34.253 31.685v11.133h-98.48v-11.133c25.177-2.911 28.26-5.48 28.26-32.198v-85.635c0-26.376-2.055-27.575-24.663-31.171v-9.42a279.936 279.936 0 0 0 60.8-17.127v44.359l.686.342zm268.037 48.127c.171 2.278.257 4.573.257 6.85 0 49.755-40.591 90.86-90.345 91.459-.685.017-1.387.017-2.072.017-48.95 0-89.232-40.266-89.232-89.232 0-.513 0-1.044.017-1.558-.068-1.559-.12-3.1-.12-4.659 0-50.781 40.985-92.93 91.75-94.335h.188c49.137 0 89.574 40.437 89.574 89.574 0 .634 0 1.25-.017 1.884zm-139.414-5.823c0 51.38 20.895 90.43 53.78 90.43 23.463 0 43.502-17.127 43.502-74.33 0-49.669-18.498-87.52-52.58-87.52-23.807-.513-44.702 24.15-44.702 71.42z"/><path fill="#94c948" d="M112.254 1.436h.667l.668.018.685.017.668.017.668.017.668.017.668.034.668.035.668.034.651.051.668.035.668.05.668.052.65.069.669.068.65.052.651.085.668.069.651.085.65.069.652.103.65.085.651.086.651.103.651.103.634.12.65.102.651.12.634.12.634.12.65.12.634.137.634.137.634.137.633.137.634.154.634.137.633.154.617.171.634.155.616.17.634.155.617.188.616.172.617.17.616.19.617.188.616.188.617.206.6.188.616.205.6.206.616.206.6.222.599.206.6.222.599.223.6.223.599.24.582.222.6.24.582.24.6.257.582.24.582.256.582.257.582.257.583.257.565.274.582.257.566.274.582.274.565.291.565.274.565.291.566.291.565.292.548.29.565.292.548.308.565.308.548.309.548.308.548.308.549.326.53.308.549.325.53.343.549.325.53.326.531.342.531.343.531.342.514.343.531.343.514.36.53.359.515.36.513.36.514.359.497.36.514.376.496.377.514.377.497.377.497.376.496.394.497.377.497.394.48.394.479.394.496.411.48.394.48.411.462.394.48.41.479.412.462.428.463.411.462.428.463.429.462.428.463.428.445.428.445.428.463.446.445.445.428.428.445.445.446.463.428.445.428.445.428.463.428.462.429.463.428.462.41.463.429.462.411.48.411.479.394.462.411.48.411.48.394.496.394.48.394.48.394.496.377.497.393.496.377.497.377.497.377.514.377.496.376.514.36.497.36.514.36.513.36.514.359.531.36.514.342.53.343.515.342.53.343.532.342.53.326.531.325.548.342.531.326.548.308.531.326.548.308.549.308.548.308.548.309.565.308.548.291.565.291.548.291.565.292.566.29.565.275.565.291.565.274.582.274.566.257.582.274.565.257.582.257.583.257.582.257.582.24.583.256.6.24.581.24.6.223.582.24.6.222.6.223.599.222.599.206.6.222.599.206.616.205.6.206.616.188.6.206.617.188.616.189.617.188.616.171.617.172.616.188.617.154.634.171.616.155.634.17.616.155.634.137.634.154.634.137.633.137.634.137.634.137.633.12.651.12.634.12.634.12.65.103.651.12.634.102.65.103.652.086.65.085.651.103.651.068.65.086.652.069.668.085.65.052.651.068.668.069.651.051.668.051.668.035.668.051.65.034.669.035.668.034.668.017.668.017.668.017.667.017.686.017.667v2.364l-.017.325v.343l-.017.342v.326l-.017.342v.326l-.017.342v.326l-.017.342-.017.326-.017.342-.018.326-.017.342-.017.326-.017.342-.017.326-.034.325-.017.343-.018.325-.034.343-.017.325-.034.325-.017.343-.035.325-.034.326-.034.325-.034.343-.017.325-.035.325-.051.326-.034.325-.035.343-.034.325-.034.326-.052.325-.034.326-.034.325-.051.325-.052.326-.034.325-.051.326-.052.325-.034.325-.051.326-.052.325-.051.326-.052.325-.051.325-.068.309-.052.325-.051.326-.052.325-.068.325-.051.309-.069.325-.051.325-.069.309-.068.325-.052.326-.068.308-.069.325-.068.326-.069.308-.068.325-.069.309-.068.325-.069.308-.068.326-.086.308-.068.308-.069.326-.086.308-.068.325-.086.309-.085.308-.069.325-.086.309-.085.308-.086.308-.085.309-.069.325-.086.308-.102.309-.086.308-.086.308-.085.308-.086.309-.103.308-.085.308-.086.309-.103.308-.102.308-.086.308-.103.309-.103.308-.085.308-.103.291-.103.309-.103.308-.102.308-.103.291-.103.309-.103.308-.102.291-.12.308-.103.309-.103.29-.12.31-.102.29-.12.309-.103.29-.12.31-.103.29-.12.291-.12.309-.12.29-.102.292-.12.308-.12.291-.12.292-.12.29-.137.31-.12.29-.12.291-.12.292-.12.29-.136.292-.12.291-.137.291-.12.291-.137.291-.12.292-.137.29-.137.292-.137.274-.12.291-.137.291-.137.291-.137.275-.137.29-.137.292-.137.274-.154.291-.137.291-.137.274-.137.291-.154.274-.137.292-.155.274-.137.274-.154.29-.137.275-.154.274-.137.291-.154.274-.154.274-.154.274-.154.274-.155.291-.154.274-.154.274-.154.274-.154.274-.154.274-.154.274-.155.275-.17.274-.155.256-.154.274-.171.274-.155.275-.17.274-.172.256-.154.274-.171.275-.172.256-.154.274-.171.257-.171.274-.172.257-.171.274-.171.257-.171.274-.172.257-.171.257-.171.274-.172.257-.188.257-.171.257-.172.257-.188.274-.171.257-.189.257-.17.256-.19.257-.17.257-.189.257-.188.257-.172.24-.188.257-.188.257-.189.257-.188.24-.189.256-.188.257-.188.24-.189.257-.188.257-.189.24-.188.256-.205.24-.189.24-.188.257-.206.24-.188.257-.206.24-.188.24-.206.239-.188.24-.206.257-.205.24-.188.24-.206.239-.206.24-.205.24-.188.24-.206.222-.205.24-.206.24-.206.24-.205.239-.223.223-.205.24-.206.24-.205.222-.223.24-.205.222-.206.24-.223.223-.205.24-.223.222-.205.223-.223.24-.205.222-.223.223-.223.223-.205.222-.223.24-.223.223-.222.222-.223.223-.205.223-.223.205-.223.223-.222.222-.223.223-.24.223-.222.205-.223.223-.223.223-.222.205-.24.223-.223.205-.222.223-.24.205-.223.223-.24.206-.222.205-.24.223-.223.205-.24.206-.24.205-.222.223-.24.205-.24.206-.24.206-.24.205-.222.206-.24.188-.24.205-.24.206-.239.206-.24.188-.24.205-.256.206-.24.188-.24.206-.24.188-.24.206-.256.188-.24.206-.257.188-.24.189-.24.205-.256.188-.24.189-.257.188-.257.189-.24.188-.257.188-.257.189-.24.188-.256.189-.257.188-.257.188-.24.172-.257.188-.257.188-.257.172-.257.188-.256.171-.257.189-.257.171-.274.188-.257.172-.257.171-.257.188-.257.172-.274.171-.257.171-.257.172-.274.17-.257.172-.274.171-.257.172-.274.17-.257.172-.274.154-.256.172-.275.17-.274.155-.256.171-.274.171-.275.155-.274.17-.274.155-.256.154-.275.171-.274.155-.274.154-.274.154-.274.154-.274.154-.274.154-.274.154-.274.155-.29.154-.275.154-.274.154-.274.154-.291.137-.274.154-.274.137-.291.154-.274.155-.274.137-.292.137-.274.154-.29.137-.275.137-.291.137-.291.154-.274.137-.291.137-.291.137-.275.137-.29.137-.292.137-.291.12-.274.137-.291.137-.291.137-.292.12-.29.137-.292.12-.291.137-.291.12-.291.12-.291.137-.292.12-.29.12-.292.12-.308.136-.291.12-.292.12-.29.12-.309.12-.291.103-.291.12-.309.12-.29.12-.292.102-.308.12-.291.103-.309.12-.29.102-.31.12-.29.103-.309.103-.308.12-.291.102-.308.103-.309.103-.29.103-.309.102-.308.103-.309.103-.29.103-.309.085-.308.103-.309.103-.308.086-.308.102-.308.103-.309.086-.308.085-.308.103-.309.086-.308.085-.308.086-.308.086-.309.102-.308.086-.325.069-.309.085-.308.086-.308.085-.309.086-.325.069-.308.085-.309.086-.325.068-.308.086-.326.069-.308.068-.308.086-.326.068-.308.069-.325.068-.309.069-.325.068-.308.069-.326.068-.325.069-.308.068-.326.052-.325.068-.309.069-.325.051-.325.069-.309.05-.325.07-.325.05-.326.052-.325.052-.309.068-.325.051-.325.052-.326.051-.325.052-.326.05-.325.035-.325.052-.326.051-.325.034-.326.052-.325.051-.326.034-.325.034-.325.052-.326.034-.325.034-.343.035-.325.034-.326.051-.325.035-.325.017-.343.034-.325.034-.326.034-.325.035-.343.017-.325.034-.325.017-.343.034-.325.018-.343.017-.325.034-.326.017-.342.017-.326.017-.342.017-.326.018-.342.017-.326.017-.342.017h-.326l-.342.017h-.326l-.342.017h-.326l-.342.017h-.343l-.325.017h-2.706l-.325-.017h-.343l-.343-.017h-.325l-.342-.017h-.326l-.342-.017h-.326l-.342-.017-.326-.017-.342-.017-.326-.018-.342-.017-.326-.017-.342-.017-.326-.017-.325-.034-.343-.017-.325-.018-.343-.034-.325-.017-.325-.034-.343-.017-.325-.035-.326-.034-.325-.034-.343-.034-.325-.017-.326-.035-.325-.051-.325-.034-.343-.035-.325-.034-.326-.034-.325-.052-.326-.034-.325-.034-.325-.051-.326-.052-.325-.034-.326-.051-.325-.052-.325-.034-.326-.051-.325-.052-.326-.051-.325-.052-.325-.051-.309-.068-.325-.052-.326-.051-.325-.052-.325-.068-.309-.051-.325-.069-.326-.051-.308-.069-.325-.068-.326-.052-.308-.068-.325-.069-.326-.068-.308-.069-.325-.068-.309-.069-.325-.068-.308-.069-.326-.068-.308-.086-.308-.068-.326-.069-.308-.086-.326-.068-.308-.086-.308-.085-.326-.069-.308-.086-.308-.085-.308-.086-.309-.085-.325-.069-.308-.086-.309-.102-.308-.086-.308-.086-.308-.085-.309-.086-.308-.103-.308-.085-.309-.086-.308-.103-.308-.102-.308-.086-.309-.103-.308-.103-.308-.085-.292-.103-.308-.103-.308-.103-.308-.102-.292-.103-.308-.103-.308-.103-.291-.102-.309-.12-.308-.103-.291-.103-.308-.12-.291-.102-.309-.12-.29-.103-.31-.12-.29-.103-.291-.12-.309-.12-.29-.12-.292-.102-.308-.12-.292-.12-.29-.12-.292-.12-.308-.137-.291-.12-.291-.12-.292-.12-.29-.12-.292-.136-.291-.12-.291-.137-.291-.12-.292-.137-.29-.12-.292-.137-.291-.137-.274-.137-.291-.12-.291-.137-.292-.137-.274-.137-.29-.137-.292-.137-.274-.137-.291-.154-.291-.137-.274-.137-.291-.137-.274-.154-.292-.137-.274-.155-.274-.137-.29-.154-.275-.137-.274-.154-.291-.137-.274-.154-.274-.154-.274-.154-.291-.154-.274-.155-.274-.154-.274-.154-.274-.154-.274-.154-.274-.154-.275-.154-.274-.155-.274-.17-.256-.155-.275-.154-.274-.171-.274-.155-.274-.17-.257-.172-.274-.154-.274-.171-.256-.172-.275-.154-.256-.171-.274-.171-.257-.172-.274-.171-.257-.171-.274-.171-.257-.172-.257-.171-.274-.171-.257-.172-.257-.188-.257-.171-.257-.172-.274-.188-.257-.171-.257-.189-.257-.17-.256-.19-.257-.17-.257-.189-.257-.188-.24-.172-.257-.188-.257-.188-.257-.189-.24-.188-.256-.189-.257-.188-.24-.188-.257-.189-.257-.188-.24-.189-.256-.188-.24-.205-.24-.189-.257-.188-.24-.206-.257-.188-.24-.206-.24-.188-.239-.206-.24-.188-.257-.206-.24-.205-.24-.188-.239-.206-.24-.206-.24-.205-.24-.188-.222-.206-.24-.205-.24-.206-.24-.206-.24-.205-.222-.223-.24-.205-.24-.206-.222-.205-.24-.223-.222-.205-.24-.206-.223-.223-.24-.205-.222-.223-.223-.205-.24-.223-.222-.205-.223-.223-.223-.223-.222-.205-.24-.223-.223-.223-.222-.222-.223-.223-.223-.205-.205-.223-.223-.223-.222-.222-.223-.223-.223-.24-.205-.222-.223-.223-.223-.223-.205-.222-.223-.24-.205-.223-.223-.222-.205-.24-.223-.223-.206-.24-.205-.222-.223-.24-.205-.223-.206-.24-.205-.24-.223-.222-.206-.24-.205-.24-.206-.24-.205-.24-.206-.222-.188-.24-.206-.24-.205-.24-.206-.239-.188-.24-.206-.24-.205-.256-.188-.24-.206-.24-.188-.24-.206-.24-.188-.256-.206-.24-.188-.257-.189-.24-.205-.24-.189-.256-.188-.24-.188-.257-.189-.257-.188-.24-.188-.257-.189-.257-.188-.24-.189-.256-.188-.257-.188-.257-.172-.24-.188-.257-.189-.257-.17-.257-.19-.257-.17-.256-.189-.257-.171-.257-.189-.274-.17-.257-.172-.257-.188-.257-.172-.257-.171-.274-.171-.257-.172-.257-.17-.274-.172-.257-.171-.274-.172-.257-.17-.274-.172-.257-.154-.274-.172-.256-.17-.275-.155-.274-.171-.256-.172-.274-.154-.275-.17-.274-.155-.274-.154-.256-.172-.274-.154-.275-.154-.274-.154-.274-.154-.274-.154-.274-.154-.274-.155-.274-.154-.274-.154-.29-.154-.275-.154-.274-.154-.274-.137-.291-.154-.274-.137-.274-.155-.291-.137-.274-.154-.274-.137-.292-.154-.274-.137-.29-.137-.275-.137-.291-.154-.291-.137-.274-.137-.291-.137-.291-.137-.275-.137-.29-.137-.292-.12-.291-.137-.274-.137-.291-.137-.291-.12-.292-.137-.29-.12-.292-.137-.291-.12-.291-.137-.291-.12-.291-.12-.292-.12-.29-.12-.292-.136-.308-.12-.291-.12-.292-.12-.29-.12-.309-.103-.291-.12-.291-.12-.309-.12-.29-.102-.292-.12-.308-.103-.291-.12-.309-.102-.29-.12-.31-.103-.29-.103-.309-.12-.308-.102-.291-.103-.308-.103-.309-.103-.29-.103-.309-.102-.308-.103-.309-.103-.29-.085-.309-.103-.308-.103-.309-.086-.308-.102-.308-.103-.308-.086-.309-.085-.308-.103-.308-.086-.309-.085-.308-.086-.308-.086-.308-.102-.309-.086-.308-.069-.325-.085-.309-.086-.308-.085-.308-.086-.309-.069-.325-.085-.308-.086-.309-.068-.325-.086-.308-.069-.326-.068-.308-.086-.308-.068-.326-.069-.308-.068-.325-.069-.309-.068-.325-.069-.308-.068-.326-.069-.325-.068-.308-.052-.326-.068-.325-.069-.309-.051-.325-.069-.325-.05-.309-.07-.325-.05-.325-.052-.326-.052-.325-.068-.309-.051-.325-.052-.325-.051-.326-.052-.325-.051-.326-.034-.325-.052-.325-.051-.326-.034-.325-.052-.326-.051-.325-.034-.325-.035-.326-.05-.325-.035-.326-.034-.325-.035-.343-.034-.325-.051-.326-.035-.325-.017-.325-.034-.343-.034-.325-.034-.326-.035-.325-.017-.343-.034-.325-.017-.325-.034-.343-.018-.325-.017-.343-.034-.325-.017-.326-.017-.342-.017-.326-.017-.342-.018-.326-.017-.342-.017-.326-.017-.342v-.326l-.017-.342v-.326l-.017-.342v-.326l-.017-.342v-.343l-.018-.325v-2.706l.018-.325v-.343l.017-.343v-.325l.017-.342v-.326l.017-.342v-.326l.017-.342.017-.326.017-.342.018-.326.017-.342.017-.326.017-.342.017-.326.034-.325.017-.343.018-.325.034-.343.017-.325.034-.325.017-.343.035-.325.034-.326.034-.325.034-.343.017-.325.035-.326.051-.325.034-.325.035-.343.034-.325.034-.326.051-.325.035-.326.034-.325.051-.325.052-.326.034-.325.051-.326.052-.325.034-.325.051-.326.052-.325.051-.326.052-.325.05-.325.07-.309.05-.325.052-.326.052-.325.068-.325.051-.309.069-.325.051-.326.069-.308.068-.325.052-.326.068-.308.069-.325.068-.326.069-.308.068-.325.069-.309.068-.325.069-.308.068-.326.086-.308.068-.308.069-.326.086-.308.068-.326.086-.308.085-.308.069-.326.086-.308.085-.308.086-.308.085-.309.069-.325.086-.308.102-.309.086-.308.086-.308.085-.308.086-.309.103-.308.085-.308.086-.309.103-.308.102-.308.086-.308.103-.309.103-.308.085-.308.103-.292.103-.308.102-.308.103-.308.103-.292.103-.308.103-.308.102-.291.12-.309.103-.308.103-.291.12-.308.102-.291.12-.309.103-.29.12-.31.103-.29.12-.291.12-.309.12-.29.102-.292.12-.308.12-.292.12-.29.12-.292.137-.308.12-.291.12-.291.12-.292.12-.29.136-.292.12-.291.137-.291.12-.291.137-.292.12-.29.137-.292.137-.291.137-.274.12-.291.137-.291.137-.292.137-.274.137-.29.137-.292.137-.274.154-.291.137-.291.137-.274.137-.291.154-.274.137-.292.154-.274.137-.274.155-.29.137-.275.154-.274.137-.291.154-.274.154-.274.154-.274.154-.291.154-.274.155-.274.154-.274.154-.274.154-.274.154-.274.154-.275.154-.274.172-.274.154-.256.154-.275.171-.274.154-.274.172-.274.171-.257.154-.274.171-.274.172-.256.154-.275.171-.256.171-.274.172-.257.17-.274.172-.257.171-.274.172-.257.171-.257.171-.274.172-.257.188-.257.171-.257.171-.257.189-.274.171-.257.189-.257.17-.257.19-.256.17-.257.189-.257.188-.257.172-.24.188-.257.188-.257.189-.257.188-.24.189-.256.188-.257.188-.24.189-.257.188-.257.188-.24.189-.256.205-.24.189-.24.188-.257.206-.24.188-.257.206-.24.188-.24.206-.239.188-.24.205-.257.206-.24.188-.24.206-.239.205-.24.206-.24.188-.24.206-.222.205-.24.206-.24.205-.24.206-.24.223-.222.205-.24.206-.24.205-.222.223-.24.205-.222.206-.24.223-.223.205-.24.223-.222.205-.223.223-.24.205-.222.223-.223.223-.223.205-.222.223-.24.223-.223.222-.222.223-.223.205-.223.223-.205.223-.223.222-.222.223-.223.24-.223.222-.205.223-.223.223-.223.222-.205.24-.223.223-.205.222-.223.24-.205.223-.223.24-.206.222-.205.24-.223.223-.205.24-.206.24-.205.222-.223.24-.206.24-.205.24-.206.239-.205.223-.206.24-.188.24-.206.239-.205.24-.206.24-.188.24-.206.256-.205.24-.188.24-.206.24-.188.24-.206.256-.188.24-.206.257-.188.24-.189.24-.205.256-.189.24-.188.257-.188.257-.189.24-.188.257-.188.257-.189.24-.188.256-.189.257-.188.257-.188.24-.172.257-.188.257-.189.257-.17.256-.19.257-.17.257-.189.257-.171.274-.189.257-.17.257-.172.257-.188.257-.172.274-.171.257-.171.257-.172.274-.17.257-.172.274-.171.257-.172.274-.17.256-.172.275-.154.256-.172.274-.17.274-.155.257-.171.274-.172.274-.154.274-.17.275-.155.256-.154.274-.172.274-.154.275-.154.274-.154.274-.154.274-.154.274-.154.274-.155.274-.154.29-.154.275-.154.274-.154.274-.154.291-.137.274-.154.274-.137.291-.155.274-.137.274-.154.292-.137.274-.154.29-.137.275-.137.29-.137.292-.154.274-.137.291-.137.291-.137.274-.137.292-.137.29-.137.292-.12.274-.137.291-.137.291-.137.291-.12.292-.137.29-.12.292-.137.291-.12.291-.137.291-.12.292-.12.29-.12.292-.12.308-.136.291-.12.291-.12.292-.12.308-.12.291-.103.291-.12.309-.12.29-.12.292-.102.308-.12.291-.103.309-.12.29-.102.309-.12.291-.103.308-.103.309-.12.29-.102.31-.103.307-.103.292-.103.308-.103.308-.102.308-.103.292-.103.308-.085.308-.103.309-.103.308-.086.308-.102.308-.103.309-.086.308-.085.308-.103.309-.086.308-.085.308-.086.308-.086.309-.102.308-.086.325-.069.309-.085.308-.086.308-.085.308-.086.326-.069.308-.085.308-.086.326-.068.308-.086.326-.069.308-.068.308-.086.326-.068.308-.069.325-.068.309-.069.325-.068.308-.069.326-.068.325-.069.308-.068.326-.052.325-.068.308-.069.326-.051.325-.069.309-.05.325-.07.325-.05.326-.052.325-.052.309-.068.325-.051.325-.052.326-.051.325-.052.326-.051.325-.034.325-.052.326-.051.325-.034.326-.052.325-.051.325-.034.326-.035.325-.05.326-.035.325-.034.343-.035.325-.034.325-.051.326-.035.325-.017.343-.034.325-.034.326-.034.325-.035.343-.017.325-.034.325-.017.343-.034.325-.018.343-.017.325-.034.326-.017.342-.017.326-.017.342-.017.326-.018.342-.017.326-.017.342-.017h.326l.342-.017h.326l.342-.017h.325l.343-.017h.343l.325-.018h1.696zm-.634 17.127h-.839l-.274.018h-.567l-.29.017h-.275l-.291.017h-.274l-.274.017h-.291l-.274.017-.274.017-.291.017-.274.017h-.274l-.275.018-.29.017-.275.017-.274.034-.274.017-.29.017-.275.017-.274.018-.274.034-.274.017-.274.034-.274.017-.291.035-.274.017-.274.034-.274.034-.274.017-.274.035-.274.034-.274.034-.275.034-.274.035-.274.034-.274.034-.257.034-.274.052-.274.034-.274.034-.274.035-.274.051-.274.034-.257.052-.274.034-.274.051-.274.052-.257.034-.274.051-.274.052-.257.051-.274.034-.274.052-.257.051-.274.051-.274.052-.257.068-.274.052-.256.051-.274.051-.257.052-.274.068-.257.052-.274.068-.257.052-.257.068-.274.051-.257.069-.274.068-.257.052-.257.068-.274.069-.257.068-.257.069-.257.068-.274.069-.257.068-.257.069-.256.068-.257.069-.257.068-.274.086-.257.069-.257.068-.257.086-.257.068-.257.086-.257.068-.257.086-.257.069-.256.085-.257.086-.257.085-.257.069-.24.086-.257.085-.257.086-.257.085-.257.086-.24.086-.256.085-.257.086-.257.103-.24.085-.257.086-.257.103-.24.085-.256.086-.24.103-.257.085-.257.103-.24.086-.257.103-.24.102-.24.103-.256.086-.24.103-.257.102-.24.103-.24.103-.256.103-.24.102-.24.103-.257.103-.24.103-.24.102-.239.12-.24.103-.24.103-.256.12-.24.102-.24.103-.24.12-.24.103-.24.12-.24.12-.239.102-.24.12-.24.12-.24.103-.222.12-.24.12-.24.12-.24.12-.239.12-.223.12-.24.12-.24.12-.239.119-.223.12-.24.137-.222.12-.24.12-.24.137-.222.12-.24.12-.223.136-.24.12-.222.137-.223.137-.24.12-.222.137-.24.12-.223.137-.222.137-.223.137-.24.137-.222.137-.223.12-.223.137-.222.137-.223.154-.223.137-.24.137-.222.137-.223.137-.222.137-.206.155-.222.137-.223.137-.223.154-.222.137-.223.154-.223.137-.205.154-.223.137-.223.154-.222.137-.206.154-.222.154-.206.155-.223.137-.222.154-.206.154-.222.154-.206.154-.205.154-.223.155-.206.154-.222.154-.206.154-.205.171-.206.154-.222.154-.206.155-.205.17-.206.155-.206.154-.205.171-.223.155-.205.17-.206.155-.205.171-.189.154-.205.172-.206.171-.205.154-.206.171-.205.172-.206.17-.188.155-.206.171-.205.172-.189.17-.205.172-.206.171-.188.172-.206.17-.188.172-.206.189-.188.17-.188.172-.206.171-.188.172-.189.188-.205.171-.189.189-.188.171-.188.171-.206.189-.188.171-.189.188-.188.189-.188.171-.189.188-.188.172-.189.188-.188.188-.188.189-.172.188-.188.172-.189.188-.188.188-.188.189-.172.188-.188.189-.171.188-.189.188-.188.189-.171.188-.189.206-.171.188-.171.188-.189.189-.17.205-.19.189-.17.188-.172.206-.171.188-.171.188-.189.206-.171.188-.171.206-.172.188-.17.206-.172.205-.171.189-.172.205-.17.206-.155.188-.171.206-.172.205-.17.206-.155.205-.171.206-.172.205-.154.189-.171.205-.154.206-.171.205-.155.223-.17.205-.155.206-.154.206-.171.205-.155.206-.154.222-.154.206-.171.205-.154.206-.154.222-.154.206-.155.223-.154.205-.154.206-.154.222-.154.206-.154.222-.137.223-.155.206-.154.222-.154.206-.137.222-.154.223-.137.223-.154.205-.137.223-.154.223-.137.222-.154.223-.137.223-.137.222-.155.206-.137.222-.137.223-.137.223-.137.24-.137.222-.154.223-.137.222-.137.223-.12.223-.137.222-.137.24-.137.223-.137.222-.137.223-.12.24-.137.223-.12.24-.137.222-.137.223-.12.24-.137.222-.12.24-.12.222-.136.24-.12.24-.12.223-.137.24-.12.222-.12.24-.12.24-.12.24-.12.222-.12.24-.12.24-.12.24-.12.24-.119.222-.103.24-.12.24-.12.24-.102.239-.12.24-.12.24-.103.24-.12.24-.103.239-.102.24-.12.257-.103.24-.103.24-.12.239-.102.24-.103.24-.103.256-.103.24-.102.24-.103.257-.103.24-.103.24-.102.256-.103.24-.086.257-.103.24-.102.24-.103.256-.086.24-.103.257-.085.257-.103.24-.086.257-.085.24-.103.256-.086.257-.085.24-.103.257-.086.257-.085.257-.086.24-.086.256-.085.257-.086.257-.085.257-.086.24-.069.257-.085.257-.086.257-.085.257-.069.256-.086.257-.068.257-.086.257-.068.257-.086.257-.068.257-.069.257-.086.274-.068.257-.069.257-.068.256-.069.257-.068.257-.069.274-.068.257-.069.257-.068.257-.069.274-.068.257-.052.257-.068.274-.069.257-.05.274-.07.257-.05.257-.07.274-.05.257-.07.274-.05.257-.052.274-.051.256-.052.274-.068.257-.052.274-.051.274-.051.257-.052.274-.034.274-.051.257-.052.274-.051.274-.034.257-.052.274-.051.274-.034.274-.052.257-.034.274-.051.274-.035.274-.034.274-.034.274-.052.274-.034.257-.034.274-.034.274-.035.274-.034.275-.034.274-.034.274-.035.274-.017.274-.034.274-.034.274-.017.274-.035.29-.017.275-.034.274-.017.274-.034.274-.018.274-.017.274-.017.291-.017.274-.034.274-.017.274-.017.291-.018.275v.274l-.017.274-.017.29-.017.275-.017.274v.291l-.017.274v.274l-.017.291v.274l-.017.291v.566l-.018.274v2.26l.018.566.017.565.017.565.017.548.017.565.034.565.017.548.035.566.051.548.034.565.035.548.051.548.051.548.052.565.068.548.052.548.068.548.069.549.068.548.086.53.068.549.086.548.086.53.085.549.086.53.103.549.085.53.103.531.103.549.12.53.102.531.12.531.12.531.12.514.12.531.12.531.137.53.137.515.137.53.137.514.137.514.154.531.137.514.154.514.154.514.155.513.17.514.155.514.171.497.171.514.172.496.171.514.188.497.189.514.171.496.188.497.189.497.205.496.189.497.205.497.206.48.205.496.206.497.205.48.223.479.223.496.205.48.223.48.24.479.222.48.223.48.24.462.24.48.24.462.24.48.239.462.257.462.257.48.24.462.256.462.274.446.257.462.257.463.274.445.274.462.257.446.291.445.274.462.274.446.292.428.274.445.29.445.292.446.291.428.291.445.308.428.292.428.308.429.308.428.309.428.308.428.325.411.308.428.326.411.308.411.326.429.325.41.325.395.343.41.325.412.343.41.325.395.343.394.342.41.343.395.36.393.342.377.343.394.36.394.359.377.36.394.36.377.359.376.36.377.376.377.377.36.36.376.377.377.377.36.376.36.377.36.394.359.377.36.394.36.394.342.376.342.394.36.394.343.411.342.394.343.394.325.411.343.411.325.411.343.394.325.411.325.428.326.412.308.41.325.429.326.41.308.429.308.428.309.428.308.428.308.429.291.428.309.445.29.428.292.446.291.445.291.445.274.428.292.446.274.462.274.445.29.446.258.462.274.445.274.463.257.462.257.446.274.462.257.462.24.48.256.462.257.463.24.48.24.462.24.48.24.462.239.48.223.479.222.48.24.48.223.479.205.496.223.48.223.48.205.496.206.497.205.48.206.496.205.497.189.496.205.497.188.497.189.496.171.514.189.497.188.514.171.496.171.514.172.497.171.514.154.513.171.514.155.514.154.514.154.514.137.53.154.514.137.514.137.531.137.514.137.531.137.53.12.532.12.514.12.53.12.532.12.53.102.531.12.548.103.531.103.531.085.548.103.531.086.548.085.531.086.548.086.548.068.531.086.548.068.549.069.548.068.548.052.548.068.565.052.548.051.548.051.548.035.565.034.548.051.566.034.548.018.565.034.565.017.548.017.565.017.565.017.566.017h2.26l.274-.017h.567l.29-.017h.275l.29-.017h.275l.274-.017h.291l.274-.017.274-.017.291-.017.274-.018h.274l.274-.017.292-.017.274-.017.274-.034.274-.017.29-.017.275-.018.274-.017.274-.034.274-.017.274-.034.274-.017.291-.035.274-.017.274-.034.274-.034.274-.017.274-.035.274-.034.274-.034.274-.034.275-.035.274-.034.274-.034.256-.034.275-.052.274-.034.274-.034.274-.035.274-.051.274-.034.257-.052.274-.034.274-.051.274-.052.257-.034.274-.051.274-.052.257-.051.274-.034.274-.052.256-.051.275-.051.274-.052.256-.068.274-.052.257-.051.274-.051.257-.052.274-.068.257-.052.274-.068.257-.052.257-.068.274-.052.257-.068.274-.069.257-.05.257-.07.274-.068.257-.068.257-.069.257-.068.274-.069.257-.068.256-.069.257-.068.257-.069.257-.069.274-.085.257-.069.257-.068.257-.086.257-.068.257-.086.257-.068.257-.086.256-.069.257-.085.257-.086.257-.085.257-.069.24-.086.257-.085.257-.086.257-.086.256-.085.24-.086.257-.085.257-.086.257-.103.24-.085.257-.086.257-.103.24-.086.256-.085.24-.103.257-.086.257-.102.24-.086.256-.103.24-.102.24-.103.257-.086.24-.103.257-.102.24-.103.24-.103.256-.103.24-.102.24-.103.257-.103.24-.103.24-.102.239-.12.24-.103.24-.103.256-.12.24-.103.24-.102.24-.12.24-.103.24-.12.239-.12.24-.102.24-.12.24-.12.24-.103.222-.12.24-.12.24-.12.24-.12.239-.12.223-.12.24-.12.24-.12.239-.119.223-.12.24-.137.222-.12.24-.12.24-.137.222-.12.24-.12.223-.137.24-.12.222-.136.223-.137.24-.12.222-.137.24-.12.223-.137.222-.137.223-.137.24-.137.222-.137.223-.12.223-.137.222-.137.223-.154.222-.137.24-.137.223-.137.223-.137.222-.137.206-.155.222-.137.223-.137.223-.154.222-.137.223-.154.223-.137.205-.154.223-.137.222-.154.223-.137.206-.154.222-.155.206-.154.222-.137.223-.154.206-.154.222-.154.206-.154.205-.154.223-.155.206-.154.222-.154.206-.154.205-.154.206-.171.222-.155.206-.154.205-.17.206-.155.205-.154.206-.172.223-.154.205-.17.206-.155.205-.171.189-.154.205-.172.206-.171.205-.154.206-.171.205-.172.206-.171.188-.154.206-.171.205-.172.189-.17.205-.172.206-.171.188-.172.206-.171.188-.171.205-.189.189-.17.188-.172.206-.171.188-.172.189-.188.205-.171.189-.189.188-.171.188-.171.206-.189.188-.171.189-.188.188-.189.188-.171.189-.188.188-.172.189-.188.188-.189.188-.188.172-.188.188-.172.188-.188.189-.188.188-.189.172-.188.188-.189.171-.188.189-.188.188-.189.171-.188.189-.206.17-.188.172-.188.189-.189.17-.205.19-.189.17-.188.172-.206.171-.188.171-.189.189-.205.171-.188.171-.206.172-.188.17-.206.172-.205.171-.189.172-.205.17-.206.155-.188.171-.206.172-.205.17-.206.155-.205.171-.206.172-.205.154-.189.17-.205.155-.206.171-.205.154-.223.172-.206.154-.205.154-.206.171-.205.154-.206.155-.222.154-.206.171-.205.154-.206.154-.222.154-.206.155-.223.154-.205.154-.206.154-.222.154-.206.154-.223.137-.222.154-.206.155-.222.154-.206.137-.223.154-.222.137-.223.154-.205.137-.223.154-.223.137-.222.154-.223.137-.223.137-.222.155-.206.137-.222.137-.223.137-.223.137-.24.137-.222.154-.223.137-.222.137-.223.12-.223.137-.222.137-.24.137-.223.137-.222.137-.223.12-.24.137-.223.12-.24.137-.222.137-.223.12-.24.137-.222.12-.24.12-.223.136-.24.12-.24.12-.222.137-.24.12-.222.12-.24.12-.24.12-.24.12-.222.12-.24.12-.24.12-.24.12-.24.119-.222.103-.24.12-.24.12-.24.102-.239.12-.24.12-.24.103-.24.12-.24.102-.239.103-.24.12-.257.103-.24.103-.24.12-.239.102-.24.103-.24.103-.256.103-.24.102-.24.103-.257.103-.24.103-.24.102-.256.103-.24.086-.257.103-.24.102-.24.103-.256.086-.257.102-.24.086-.257.103-.24.085-.257.086-.24.103-.256.086-.257.085-.24.103-.257.086-.257.085-.257.086-.24.085-.256.086-.257.086-.257.085-.257.086-.24.069-.257.085-.257.086-.257.085-.257.069-.256.086-.257.068-.257.086-.257.068-.257.086-.257.068-.257.069-.257.085-.274.069-.257.069-.257.068-.257.069-.256.068-.257.069-.274.068-.257.069-.257.068-.257.069-.274.068-.257.051-.257.069-.274.068-.257.052-.274.068-.257.052-.257.068-.274.052-.257.068-.274.052-.257.05-.274.052-.257.052-.274.068-.256.052-.274.05-.275.052-.256.052-.274.034-.274.051-.257.052-.274.051-.274.034-.257.052-.274.051-.274.034-.274.052-.257.034-.274.051-.274.035-.274.034-.274.034-.274.052-.275.034-.256.034-.274.034-.274.035-.275.034-.274.034-.274.034-.274.035-.274.017-.274.034-.274.034-.274.017-.274.035-.29.017-.275.034-.274.017-.274.034-.274.017-.274.018-.274.017-.291.017-.274.034-.274.017-.274.017-.292.017-.274v-.274l.018-.274.017-.29.017-.275.017-.274v-.291l.017-.274v-.274l.017-.291v-.274l.017-.291v-.566l.017-.274v-2.26l-.017-.274v-.567l-.017-.29v-.275l-.017-.291v-.274l-.017-.274v-.291l-.017-.274-.017-.274-.017-.291-.018-.274v-.274l-.017-.275-.017-.29-.017-.275-.034-.274-.017-.274-.017-.29-.018-.275-.017-.274-.034-.274-.017-.274-.034-.274-.017-.274-.035-.291-.017-.274-.034-.274-.034-.274-.017-.274-.035-.274-.034-.274-.034-.274-.034-.275-.035-.274-.034-.274-.034-.274-.034-.257-.052-.274-.034-.274-.034-.274-.035-.274-.051-.274-.034-.274-.052-.257-.034-.274-.051-.274-.052-.274-.034-.257-.051-.274-.052-.274-.051-.257-.034-.274-.052-.274-.051-.257-.051-.274-.052-.274-.068-.257-.052-.274-.051-.256-.051-.274-.052-.257-.068-.274-.052-.257-.068-.274-.052-.257-.068-.257-.052-.274-.068-.257-.069-.274-.05-.257-.07-.257-.068-.274-.068-.257-.069-.257-.068-.257-.069-.274-.068-.257-.069-.257-.068-.256-.069-.257-.069-.257-.085-.274-.069-.257-.068-.257-.086-.257-.068-.257-.086-.257-.068-.257-.086-.257-.069-.256-.085-.257-.086-.257-.085-.257-.069-.257-.086-.24-.085-.257-.086-.257-.086-.257-.085-.257-.086-.24-.085-.256-.086-.257-.103-.257-.085-.24-.086-.257-.103-.257-.086-.24-.085-.256-.103-.24-.086-.257-.102-.24-.086-.257-.103-.257-.102-.24-.103-.24-.086-.256-.103-.24-.102-.257-.103-.24-.103-.24-.103-.256-.102-.24-.103-.24-.103-.257-.103-.24-.102-.24-.12-.239-.103-.24-.103-.24-.12-.256-.103-.24-.102-.24-.12-.24-.103-.24-.12-.24-.12-.24-.102-.239-.12-.24-.12-.24-.103-.24-.12-.222-.12-.24-.12-.24-.12-.24-.12-.239-.12-.223-.12-.24-.12-.24-.119-.239-.12-.223-.137-.24-.12-.222-.12-.24-.137-.24-.12-.222-.12-.24-.137-.223-.12-.24-.136-.222-.137-.223-.12-.24-.137-.222-.12-.24-.137-.223-.137-.222-.137-.223-.137-.24-.137-.222-.12-.223-.137-.223-.137-.222-.154-.223-.137-.223-.137-.24-.137-.222-.137-.223-.137-.222-.155-.206-.137-.222-.137-.223-.154-.223-.137-.222-.154-.223-.137-.223-.154-.205-.137-.223-.154-.223-.137-.222-.154-.206-.155-.222-.154-.206-.137-.223-.154-.222-.154-.206-.154-.222-.154-.206-.154-.205-.155-.223-.154-.206-.154-.222-.154-.206-.171-.205-.154-.206-.155-.222-.154-.206-.17-.205-.155-.206-.154-.206-.172-.205-.154-.223-.17-.205-.155-.206-.171-.205-.154-.189-.172-.205-.171-.206-.154-.205-.171-.206-.172-.205-.171-.206-.154-.188-.171-.206-.172-.205-.17-.189-.172-.205-.171-.206-.172-.188-.171-.206-.171-.188-.189-.206-.17-.188-.172-.188-.171-.206-.172-.188-.188-.189-.171-.205-.189-.189-.171-.188-.171-.188-.189-.206-.171-.188-.188-.189-.189-.188-.171-.188-.188-.189-.172-.188-.188-.189-.189-.188-.188-.188-.188-.172-.172-.188-.188-.189-.188-.188-.189-.188-.188-.172-.189-.188-.188-.171-.188-.189-.189-.188-.188-.171-.206-.189-.188-.171-.188-.171-.189-.189-.205-.17-.189-.19-.188-.17-.206-.172-.188-.171-.189-.171-.205-.189-.188-.171-.206-.171-.188-.172-.206-.17-.205-.172-.189-.171-.205-.172-.206-.17-.188-.155-.206-.171-.205-.172-.206-.17-.205-.155-.206-.171-.205-.172-.189-.154-.205-.171-.206-.154-.222-.171-.206-.155-.206-.17-.205-.155-.206-.154-.205-.171-.206-.155-.222-.154-.206-.154-.205-.171-.206-.154-.222-.154-.206-.154-.223-.155-.205-.154-.206-.154-.222-.154-.206-.154-.223-.154-.222-.137-.206-.155-.222-.154-.206-.154-.223-.137-.222-.154-.223-.137-.205-.154-.223-.137-.223-.154-.222-.137-.223-.154-.223-.137-.222-.137-.206-.155-.222-.137-.223-.137-.223-.137-.24-.137-.222-.137-.223-.154-.222-.137-.223-.137-.223-.12-.222-.137-.24-.137-.223-.137-.222-.137-.223-.137-.24-.12-.223-.137-.24-.12-.222-.137-.223-.137-.24-.12-.222-.137-.24-.12-.223-.12-.24-.136-.24-.12-.222-.12-.24-.137-.222-.12-.24-.12-.24-.12-.24-.12-.222-.12-.24-.12-.24-.12-.24-.12-.24-.12-.222-.119-.24-.103-.24-.12-.24-.12-.239-.102-.24-.12-.24-.12-.24-.103-.24-.12-.239-.103-.24-.102-.257-.12-.24-.103-.24-.103-.239-.12-.24-.102-.24-.103-.256-.103-.24-.103-.24-.102-.257-.103-.24-.103-.24-.103-.256-.102-.24-.103-.257-.086-.24-.103-.24-.102-.256-.103-.24-.086-.257-.103-.257-.085-.24-.103-.257-.086-.24-.085-.256-.103-.257-.086-.24-.085-.257-.103-.257-.086-.257-.085-.24-.086-.256-.086-.257-.085-.257-.086-.257-.085-.24-.086-.257-.069-.257-.085-.257-.086-.257-.085-.256-.069-.257-.086-.257-.068-.257-.086-.257-.068-.257-.086-.257-.068-.257-.069-.274-.086-.257-.068-.257-.069-.257-.068-.256-.069-.257-.068-.274-.069-.257-.068-.257-.069-.257-.068-.274-.069-.257-.068-.257-.052-.274-.068-.257-.069-.274-.05-.257-.07-.257-.05-.274-.07-.257-.05-.274-.07-.257-.05-.274-.052-.257-.051-.274-.052-.256-.068-.274-.052-.275-.051-.256-.051-.274-.052-.274-.034-.257-.051-.274-.052-.274-.051-.257-.034-.274-.052-.274-.051-.274-.034-.257-.052-.274-.034-.274-.051-.274-.035-.274-.034-.274-.034-.275-.052-.256-.034-.274-.034-.274-.034-.275-.035-.274-.034-.274-.034-.274-.034-.274-.035-.274-.017-.274-.034-.274-.034-.274-.017-.29-.035-.275-.017-.274-.034-.274-.017-.274-.034-.274-.018-.274-.017-.291-.017-.274-.017-.274-.034-.274-.017-.292-.017-.274-.018h-.274l-.274-.017-.29-.017-.275-.017-.274-.017h-.291l-.274-.017h-.274l-.291-.017h-.274l-.291-.017h-.566l-.274-.018h-1.421zm.634 490.003h.667l.668.017.685.017.668.017.668.017.668.018.668.034.668.034.668.034.651.052.668.034.668.051.668.052.65.068.669.069.65.051.651.086.668.068.651.086.65.068.652.103.65.086.651.085.651.103.651.103.634.12.65.103.651.12.634.12.634.12.65.12.634.136.634.137.634.137.633.137.634.154.634.137.633.154.617.172.634.154.616.171.634.154.617.189.616.171.617.171.616.189.617.188.616.188.617.206.6.188.616.206.6.205.616.206.6.223.599.205.6.223.599.222.6.223.599.24.582.222.6.24.582.24.6.257.582.24.582.257.582.257.582.256.583.257.565.274.582.257.566.274.582.274.565.291.565.275.565.29.566.292.565.291.548.291.565.291.548.309.565.308.548.308.548.308.548.309.549.325.53.308.549.326.53.342.549.326.53.325.531.343.531.342.531.343.514.342.531.343.514.36.53.36.515.359.513.36.514.36.497.359.514.377.496.376.514.377.497.377.497.377.496.394.497.377.497.394.48.393.479.394.496.411.48.394.48.411.462.394.48.411.479.411.462.429.463.41.462.429.463.428.462.428.463.428.445.428.445.429.463.445.445.445.428.428.445.446.446.462.428.445.428.446.428.462.428.463.429.462.428.462.41.463.412.462.428.48.411.48.394.462.411.48.394.479.411.497.394.48.394.479.394.496.377.497.393.497.377.496.377.497.377.514.377.497.376.513.36.497.36.514.36.514.36.514.359.53.36.514.342.531.343.514.342.531.343.53.342.532.326.53.325.549.342.53.326.549.308.53.326.549.308.548.308.548.308.548.309.565.308.548.291.566.291.548.291.565.292.565.29.565.275.565.291.566.274.582.274.565.257.582.274.566.257.582.257.582.257.582.257.583.24.582.256.6.24.582.24.6.223.582.24.6.222.599.223.599.222.6.206.599.222.6.206.616.205.6.206.616.188.6.206.616.188.616.189.617.188.617.171.616.172.617.188.616.154.634.171.617.155.633.17.617.155.634.137.633.154.634.137.634.137.633.137.634.137.634.12.65.12.634.12.634.12.65.103.652.12.633.102.651.103.651.086.65.085.652.103.65.068.651.086.651.069.668.085.65.052.652.068.668.069.65.051.668.051.668.035.668.051.651.034.668.035.668.034.668.017.668.017.668.017.668.017.685.017.668v2.363l-.017.326v.342l-.017.343v.325l-.017.343v.325l-.017.343v.325l-.017.343-.017.325-.017.343-.018.325-.017.343-.017.325-.017.343-.017.325-.034.325-.017.343-.018.325-.034.343-.017.325-.034.326-.017.342-.035.326-.034.325-.034.326-.034.342-.017.325-.035.326-.051.325-.034.326-.035.342-.034.326-.034.325-.052.325-.034.326-.034.325-.051.326-.052.325-.034.326-.051.325-.052.325-.034.326-.051.325-.052.326-.051.325-.052.325-.051.326-.068.308-.052.326-.051.325-.052.325-.068.326-.051.308-.069.325-.051.326-.069.308-.068.326-.052.325-.068.308-.069.326-.068.325-.069.308-.068.326-.069.308-.068.325-.069.309-.068.325-.086.308-.068.309-.069.325-.086.308-.068.326-.086.308-.085.308-.069.326-.086.308-.085.308-.086.309-.085.308-.069.325-.086.309-.102.308-.086.308-.086.309-.085.308-.086.308-.103.308-.085.309-.086.308-.103.308-.102.309-.086.308-.103.308-.103.308-.085.309-.103.29-.103.31-.103.307-.102.309-.103.29-.103.31-.103.307-.102.292-.12.308-.103.308-.103.291-.12.309-.102.29-.12.31-.103.29-.12.308-.103.292-.12.29-.12.31-.12.29-.102.291-.12.309-.12.29-.12.292-.12.291-.137.308-.12.292-.12.29-.12.292-.12.291-.136.291-.12.291-.137.292-.12.29-.137.292-.12.291-.137.291-.137.291-.137.274-.12.292-.137.29-.137.292-.137.274-.137.291-.137.291-.137.274-.154.291-.137.292-.137.274-.137.29-.154.275-.137.29-.155.275-.137.274-.154.291-.137.274-.154.274-.137.291-.154.274-.154.274-.154.274-.154.292-.155.274-.154.274-.154.274-.154.274-.154.274-.154.274-.154.274-.155.274-.17.274-.155.257-.171.274-.154.274-.155.274-.17.274-.172.257-.154.274-.171.274-.172.257-.154.274-.171.257-.171.274-.172.257-.171.274-.171.257-.171.274-.172.257-.171.256-.171.275-.172.256-.188.257-.171.257-.172.257-.188.274-.171.257-.189.257-.17.257-.19.257-.17.257-.189.257-.188.256-.172.24-.188.257-.188.257-.189.257-.188.257-.189.24-.188.257-.188.24-.189.256-.188.257-.189.24-.188.257-.205.24-.189.24-.188.256-.206.24-.188.257-.206.24-.188.24-.206.24-.188.24-.206.256-.188.24-.205.24-.206.24-.206.24-.205.239-.188.24-.206.222-.205.24-.206.24-.206.24-.222.24-.206.222-.205.24-.206.24-.205.222-.223.24-.205.223-.206.24-.223.222-.205.24-.223.223-.205.222-.223.24-.205.223-.223.222-.223.223-.205.223-.223.24-.223.222-.222.223-.223.222-.205.223-.223.205-.223.223-.222.223-.223.222-.24.223-.222.206-.223.222-.223.223-.222.205-.24.223-.223.206-.222.222-.24.206-.223.222-.24.206-.222.223-.24.205-.223.206-.24.205-.24.206-.222.222-.24.206-.24.205-.24.206-.24.205-.222.206-.24.188-.24.206-.24.205-.239.206-.24.188-.24.206-.256.205-.24.189-.24.205-.24.189-.24.205-.256.189-.24.205-.257.189-.24.188-.24.205-.256.189-.24.188-.257.189-.257.188-.24.188-.257.189-.24.188-.256.189-.257.188-.257.188-.257.189-.257.171-.24.188-.257.189-.257.171-.257.189-.256.17-.257.19-.257.17-.274.189-.257.171-.257.171-.257.189-.257.171-.274.171-.257.172-.257.17-.274.172-.257.171-.274.172-.257.171-.274.171-.257.172-.274.154-.256.17-.275.172-.274.154-.256.172-.274.17-.275.155-.274.154-.274.171-.256.155-.275.17-.274.155-.274.154-.274.154-.274.154-.274.155-.274.154-.274.154-.29.154-.275.154-.274.154-.274.154-.274.155-.291.137-.274.154-.274.137-.291.154-.274.137-.274.154-.292.137-.274.154-.29.137-.275.137-.291.137-.291.154-.274.137-.291.137-.291.137-.275.137-.29.137-.292.137-.291.12-.274.137-.291.137-.291.137-.292.12-.29.137-.292.12-.291.137-.291.12-.291.137-.291.12-.292.12-.29.12-.292.12-.308.137-.291.12-.292.12-.29.12-.309.12-.291.102-.291.12-.309.12-.29.12-.292.102-.308.12-.291.103-.309.12-.29.103-.31.12-.29.102-.309.103-.308.12-.291.103-.308.103-.309.102-.29.103-.309.103-.308.103-.309.102-.29.103-.309.086-.308.103-.309.102-.308.086-.308.103-.308.102-.309.086-.308.086-.308.102-.309.086-.308.086-.308.085-.308.086-.309.103-.308.085-.325.086-.309.069-.308.085-.308.086-.309.085-.325.069-.308.086-.309.085-.325.069-.308.085-.326.069-.308.068-.308.086-.326.069-.308.068-.325.069-.309.068-.325.069-.308.068-.326.069-.325.068-.308.069-.326.051-.325.068-.309.069-.325.051-.325.069-.309.051-.325.069-.325.051-.326.052-.325.05-.309.07-.325.05-.325.052-.326.052-.325.051-.326.051-.325.035-.325.051-.326.051-.325.035-.326.051-.325.051-.326.035-.325.034-.325.051-.326.035-.325.034-.343.034-.325.034-.326.052-.325.017-.325.034-.343.034-.325.035-.326.034-.325.034-.343.017-.325.034-.325.018-.343.034-.325.017-.326.017-.342.034-.326.017-.342.018-.326.017-.342.017-.326.017-.342.017-.326.017-.342.017h-.326l-.342.017h-.326l-.342.018h-.326l-.342.017h-.343l-.325.017h-2.706l-.325-.017h-.343l-.343-.017h-.325l-.342-.018h-.326l-.342-.017h-.326l-.342-.017-.326-.017-.342-.017-.326-.017-.342-.017-.326-.017-.342-.018-.326-.017-.342-.034-.326-.017-.325-.017-.343-.034-.325-.018-.325-.034-.343-.017-.325-.034-.326-.034-.325-.035-.343-.034-.325-.034-.326-.017-.325-.052-.325-.034-.343-.034-.325-.034-.326-.035-.325-.051-.326-.034-.325-.035-.325-.051-.326-.051-.325-.035-.326-.051-.325-.051-.325-.035-.326-.051-.325-.051-.326-.052-.325-.051-.325-.052-.309-.068-.325-.051-.326-.052-.325-.051-.325-.069-.309-.051-.325-.069-.326-.051-.308-.069-.325-.068-.326-.051-.308-.069-.325-.068-.326-.069-.308-.068-.325-.069-.309-.068-.325-.069-.308-.068-.326-.069-.308-.086-.308-.068-.326-.069-.308-.085-.326-.069-.308-.085-.308-.086-.326-.069-.308-.085-.308-.086-.308-.085-.309-.069-.325-.086-.308-.085-.309-.103-.308-.086-.308-.085-.308-.086-.309-.086-.308-.102-.308-.086-.309-.086-.308-.102-.308-.103-.308-.086-.309-.102-.308-.103-.308-.086-.292-.103-.308-.102-.308-.103-.308-.103-.292-.103-.308-.102-.308-.103-.291-.103-.309-.12-.308-.103-.291-.102-.308-.12-.291-.103-.309-.12-.29-.103-.31-.12-.29-.102-.291-.12-.309-.12-.29-.12-.292-.103-.308-.12-.292-.12-.29-.12-.292-.12-.308-.136-.291-.12-.291-.12-.292-.12-.29-.12-.292-.137-.291-.12-.291-.137-.291-.12-.292-.137-.29-.12-.292-.137-.291-.137-.274-.137-.291-.12-.291-.137-.292-.137-.274-.137-.29-.137-.292-.137-.274-.137-.291-.154-.291-.137-.274-.137-.291-.137-.274-.154-.292-.137-.274-.154-.274-.137-.29-.154-.275-.137-.274-.154-.291-.137-.274-.155-.274-.154-.274-.154-.274-.154-.291-.154-.274-.154-.274-.154-.274-.155-.274-.154-.274-.154-.275-.154-.274-.154-.274-.171-.256-.155-.275-.17-.274-.155-.274-.154-.274-.171-.257-.172-.274-.154-.274-.171-.256-.171-.275-.154-.256-.172-.274-.171-.257-.171-.274-.172-.257-.17-.274-.172-.257-.171-.257-.172-.274-.17-.257-.172-.257-.189-.257-.17-.257-.172-.274-.189-.257-.17-.257-.19-.257-.17-.256-.189-.257-.171-.257-.189-.24-.188-.257-.171-.257-.189-.257-.188-.257-.188-.257-.189-.24-.188-.256-.189-.24-.188-.257-.188-.257-.189-.24-.188-.256-.189-.24-.205-.24-.188-.257-.189-.24-.205-.257-.189-.24-.205-.24-.189-.239-.205-.24-.189-.257-.205-.24-.206-.24-.188-.239-.206-.24-.205-.24-.206-.24-.188-.222-.206-.24-.205-.24-.206-.24-.205-.24-.206-.222-.222-.24-.206-.24-.205-.222-.206-.24-.205-.222-.223-.24-.206-.223-.222-.24-.206-.222-.222-.223-.206-.24-.223-.222-.205-.223-.223-.223-.222-.222-.206-.24-.223-.223-.222-.222-.223-.223-.223-.223-.205-.205-.223-.223-.222-.222-.223-.223-.223-.223-.24-.205-.222-.223-.223-.223-.222-.205-.223-.223-.24-.205-.222-.223-.223-.205-.24-.223-.223-.206-.24-.205-.222-.223-.24-.205-.222-.206-.24-.205-.24-.223-.223-.206-.24-.205-.24-.206-.239-.205-.24-.206-.222-.188-.24-.206-.24-.205-.24-.206-.24-.205-.24-.189-.239-.205-.257-.188-.24-.206-.24-.188-.24-.206-.239-.188-.257-.206-.24-.188-.257-.189-.24-.205-.24-.189-.256-.188-.24-.188-.257-.189-.257-.188-.24-.188-.256-.189-.257-.188-.24-.189-.257-.188-.257-.188-.257-.172-.24-.188-.256-.189-.257-.17-.257-.19-.257-.17-.257-.189-.257-.171-.257-.189-.274-.17-.257-.172-.257-.188-.257-.172-.256-.171-.275-.171-.256-.172-.257-.17-.274-.172-.257-.171-.274-.172-.257-.17-.274-.172-.257-.154-.274-.172-.257-.17-.274-.155-.274-.171-.257-.172-.274-.154-.274-.154-.274-.171-.274-.154-.257-.172-.274-.154-.274-.154-.274-.154-.274-.154-.274-.154-.274-.154-.274-.155-.274-.154-.274-.154-.292-.154-.274-.154-.274-.154-.274-.137-.29-.154-.275-.137-.274-.155-.291-.137-.274-.154-.274-.137-.291-.154-.274-.137-.291-.137-.274-.137-.292-.154-.29-.137-.275-.137-.29-.137-.292-.137-.274-.137-.291-.137-.291-.12-.292-.137-.274-.137-.29-.137-.292-.12-.291-.137-.291-.12-.291-.137-.292-.12-.29-.137-.292-.12-.291-.12-.291-.12-.291-.12-.292-.136-.308-.12-.291-.12-.291-.12-.291-.12-.309-.103-.29-.12-.292-.12-.308-.12-.291-.102-.292-.12-.308-.103-.29-.12-.31-.102-.29-.12-.309-.103-.29-.103-.31-.12-.307-.102-.292-.103-.308-.103-.308-.103-.291-.103-.309-.102-.308-.103-.308-.103-.291-.085-.309-.103-.308-.103-.308-.086-.308-.102-.309-.103-.308-.086-.308-.085-.309-.103-.308-.086-.308-.085-.308-.086-.309-.086-.308-.102-.308-.086-.309-.086-.325-.068-.308-.086-.309-.085-.308-.086-.308-.069-.326-.085-.308-.086-.308-.068-.326-.086-.308-.069-.325-.068-.309-.086-.308-.068-.325-.069-.309-.068-.325-.069-.308-.068-.326-.069-.308-.068-.325-.069-.326-.068-.308-.052-.325-.068-.326-.069-.308-.051-.326-.069-.325-.05-.308-.07-.326-.05-.325-.052-.325-.052-.326-.068-.308-.051-.326-.052-.325-.051-.325-.052-.326-.051-.325-.034-.326-.052-.325-.051-.325-.034-.326-.052-.325-.051-.326-.034-.325-.035-.326-.05-.325-.035-.325-.034-.326-.035-.342-.034-.326-.051-.325-.035-.326-.017-.325-.034-.342-.034-.326-.034-.325-.035-.326-.017-.342-.034-.326-.017-.325-.034-.343-.018-.325-.017-.343-.034-.325-.017-.325-.017-.343-.017-.325-.017-.343-.018-.325-.017-.343-.017-.325-.017-.343v-.325l-.017-.343v-.325l-.017-.343v-.325l-.017-.343v-.342l-.018-.326v-2.706l.018-.325v-.343l.017-.342v-.326l.017-.342v-.326l.017-.342v-.325l.017-.343.017-.325.017-.343.018-.325.017-.343.017-.325.017-.343.017-.325.034-.326.017-.342.018-.326.034-.342.017-.326.034-.325.017-.343.035-.325.034-.325.034-.326.034-.342.017-.326.035-.325.051-.326.034-.325.035-.343.034-.325.034-.325.051-.326.035-.325.034-.326.051-.325.052-.325.034-.326.051-.325.052-.326.034-.325.051-.325.052-.326.051-.325.052-.326.05-.325.07-.308.05-.326.052-.325.052-.326.068-.325.051-.308.069-.326.051-.325.069-.308.068-.326.052-.325.068-.309.069-.325.068-.325.069-.309.068-.325.069-.308.068-.326.069-.308.068-.325.086-.309.068-.308.069-.325.086-.309.068-.325.086-.308.085-.309.069-.325.086-.308.085-.309.086-.308.085-.308.069-.326.086-.308.102-.308.086-.309.086-.308.085-.308.086-.308.103-.309.085-.308.086-.308.103-.309.102-.308.086-.308.103-.308.103-.309.085-.308.103-.291.103-.308.102-.309.103-.308.103-.291.103-.308.103-.309.102-.29.12-.31.103-.307.103-.292.12-.308.102-.291.12-.308.103-.291.12-.309.103-.29.12-.292.12-.308.12-.292.102-.29.12-.309.12-.291.12-.291.12-.291.137-.309.12-.29.12-.292.12-.291.12-.291.136-.292.12-.29.137-.292.12-.291.137-.291.12-.291.137-.291.137-.292.137-.274.12-.29.137-.292.137-.291.137-.274.137-.291.137-.291.137-.275.154-.29.137-.292.137-.274.137-.291.154-.274.137-.291.154-.274.137-.274.155-.291.137-.274.154-.274.137-.292.154-.274.154-.274.154-.274.154-.29.154-.275.155-.274.154-.274.154-.274.154-.274.154-.274.154-.274.154-.274.172-.274.154-.257.154-.274.171-.274.154-.274.172-.274.171-.257.154-.274.171-.274.172-.257.154-.274.171-.257.171-.274.172-.257.17-.274.172-.257.171-.274.172-.257.171-.257.171-.274.172-.257.188-.257.171-.256.171-.257.189-.274.171-.257.189-.257.17-.257.19-.257.17-.257.189-.257.188-.257.172-.24.188-.256.188-.257.189-.257.188-.24.189-.257.188-.257.188-.24.189-.257.188-.256.188-.24.189-.257.205-.24.189-.24.188-.257.206-.24.188-.256.206-.24.188-.24.206-.24.188-.24.205-.256.206-.24.188-.24.206-.24.205-.24.206-.24.188-.239.206-.223.205-.24.206-.24.205-.239.206-.24.223-.222.205-.24.206-.24.205-.223.223-.24.205-.222.206-.24.223-.222.205-.24.223-.223.205-.222.223-.24.205-.223.223-.223.223-.222.205-.223.223-.24.223-.222.222-.223.223-.223.205-.222.223-.206.223-.222.222-.223.223-.223.24-.222.222-.206.223-.223.223-.222.222-.206.24-.222.223-.206.222-.223.24-.205.223-.223.24-.205.222-.206.24-.222.223-.206.24-.205.24-.206.222-.223.24-.205.24-.206.24-.205.239-.206.223-.205.24-.189.24-.205.239-.206.24-.205.24-.206.24-.188.256-.206.24-.188.24-.206.24-.188.24-.205.256-.189.24-.205.257-.189.24-.188.24-.206.256-.188.24-.189.257-.188.257-.188.24-.189.257-.188.257-.189.24-.188.256-.188.257-.189.257-.188.24-.171.257-.189.257-.188.257-.171.256-.189.257-.171.257-.188.257-.172.274-.188.257-.171.257-.172.257-.188.257-.171.274-.172.257-.17.257-.172.274-.171.257-.172.274-.171.257-.171.274-.172.256-.17.275-.155.256-.171.274-.171.274-.155.257-.17.274-.172.274-.154.274-.172.275-.154.256-.154.274-.171.274-.154.275-.154.274-.155.274-.154.274-.154.274-.154.274-.154.274-.154.29-.154.275-.155.274-.154.274-.154.291-.137.274-.154.274-.137.291-.154.274-.137.274-.154.292-.137.274-.154.29-.137.275-.137.29-.138.292-.154.274-.137.291-.137.291-.137.274-.137.292-.137.29-.137.292-.12.274-.137.291-.137.291-.137.291-.12.292-.137.29-.12.292-.136.291-.12.291-.137.291-.12.292-.12.29-.12.292-.12.308-.137.291-.12.291-.12.292-.12.308-.12.291-.102.291-.12.309-.12.29-.12.292-.103.308-.12.291-.102.309-.12.29-.103.309-.12.291-.103.308-.102.309-.12.29-.103.31-.103.307-.103.292-.102.308-.103.308-.103.308-.103.292-.102.308-.086.308-.103.309-.103.308-.085.308-.103.308-.103.309-.085.308-.086.308-.103.309-.085.308-.086.308-.086.308-.085.309-.103.308-.086.325-.068.309-.086.308-.085.308-.086.308-.086.326-.068.308-.086.308-.086.326-.068.308-.086.326-.068.308-.069.308-.085.326-.069.308-.068.325-.069.309-.068.325-.069.308-.068.326-.069.325-.068.308-.069.326-.051.325-.069.308-.068.326-.052.325-.068.309-.052.325-.068.325-.051.326-.052.325-.051.309-.069.325-.051.325-.051.326-.052.325-.051.326-.052.325-.034.325-.051.326-.052.325-.034.326-.051.325-.052.325-.034.326-.034.325-.052.326-.034.325-.034.343-.034.325-.035.325-.05.326-.035.325-.017.343-.035.325-.034.326-.034.325-.034.343-.017.325-.035.325-.017.343-.034.325-.017.343-.017.325-.035.326-.017.342-.017.326-.017.342-.017.326-.017.342-.017.326-.017.342-.018h.326l.342-.017h.326l.342-.017h.325l.343-.017h.343l.325-.017h1.696zm-.634 17.127h-.839l-.274.017h-.567l-.29.017h-.275l-.291.017h-.274l-.274.017h-.291l-.274.017-.274.018-.291.017-.274.017h-.274l-.292.017-.274.017-.274.017-.274.035-.274.017-.29.017-.275.017-.274.017-.274.034-.274.017-.274.035-.274.017-.291.034-.274.017-.274.034-.274.035-.274.017-.274.034-.274.034-.274.035-.275.034-.274.034-.274.034-.274.035-.257.034-.274.051-.274.034-.274.035-.274.034-.274.051-.274.035-.257.051-.274.034-.274.052-.274.051-.257.034-.274.052-.274.051-.257.051-.274.035-.274.051-.257.051-.274.052-.274.051-.257.069-.274.051-.256.051-.274.052-.257.051-.274.069-.257.051-.274.069-.257.051-.257.068-.274.052-.257.068-.274.069-.257.051-.257.069-.274.068-.257.069-.257.068-.257.069-.274.068-.257.069-.257.068-.256.069-.257.068-.274.069-.257.085-.257.069-.257.068-.257.086-.257.069-.257.085-.257.069-.257.085-.257.069-.256.086-.257.085-.257.086-.257.068-.24.086-.257.086-.257.085-.257.086-.257.086-.24.085-.256.086-.257.085-.257.103-.24.086-.257.085-.257.103-.24.086-.256.085-.24.103-.257.086-.257.103-.24.085-.257.103-.24.103-.24.103-.256.085-.24.103-.257.103-.24.102-.24.103-.256.103-.24.103-.24.103-.257.102-.24.103-.24.103-.239.12-.24.102-.24.103-.256.12-.24.103-.24.103-.24.12-.24.102-.24.12-.24.12-.239.103-.24.12-.24.12-.24.102-.222.12-.24.12-.24.12-.24.12-.239.12-.223.12-.24.12-.24.12-.239.12-.223.12-.24.136-.222.12-.24.12-.24.137-.222.12-.24.12-.223.137-.24.12-.222.137-.223.137-.24.12-.222.137-.24.12-.223.137-.222.137-.223.137-.24.137-.222.137-.223.12-.223.137-.222.137-.223.154-.223.137-.24.137-.222.137-.223.137-.222.137-.206.154-.222.137-.223.137-.223.154-.222.137-.223.154-.223.137-.205.154-.223.137-.223.155-.222.137-.206.154-.222.154-.206.154-.223.137-.222.154-.206.154-.222.154-.206.155-.205.154-.223.154-.206.154-.222.154-.206.154-.205.154-.206.172-.222.154-.206.154-.205.171-.206.154-.206.155-.205.17-.223.155-.205.171-.206.154-.205.172-.189.154-.205.171-.206.171-.205.154-.206.172-.205.171-.206.171-.188.154-.206.172-.205.171-.189.171-.205.172-.206.17-.188.172-.206.171-.188.172-.206.188-.188.171-.188.172-.206.17-.188.172-.206.188-.188.172-.189.188-.188.171-.188.172-.206.188-.188.171-.189.189-.188.188-.188.171-.189.189-.188.171-.189.188-.188.189-.188.188-.172.189-.188.17-.189.19-.188.188-.188.188-.172.189-.188.188-.171.188-.189.189-.188.188-.171.189-.189.205-.171.188-.171.189-.189.188-.17.206-.19.188-.17.189-.172.205-.171.188-.171.189-.189.205-.171.189-.171.205-.172.189-.17.205-.172.206-.171.188-.172.206-.17.205-.155.189-.171.205-.172.206-.17.205-.155.206-.171.205-.172.206-.154.188-.171.206-.154.205-.171.206-.155.222-.17.206-.155.205-.154.206-.171.205-.155.206-.154.223-.154.205-.171.206-.154.205-.154.223-.154.205-.155.223-.154.206-.154.205-.154.223-.154.205-.154.223-.137.223-.155.205-.154.223-.154.205-.137.223-.154.223-.137.222-.154.206-.137.222-.154.223-.137.223-.154.222-.137.223-.137.223-.155.205-.137.223-.137.222-.137.223-.137.24-.137.223-.154.222-.137.223-.137.222-.12.223-.137.223-.137.24-.137.222-.137.223-.137.222-.12.24-.137.223-.12.24-.137.222-.137.223-.12.24-.137.222-.12.24-.12.223-.136.24-.12.24-.12.222-.137.24-.12.222-.12.24-.12.24-.12.24-.12.222-.12.24-.12.24-.12.24-.12.24-.119.222-.103.24-.12.24-.12.24-.102.24-.12.24-.12.239-.103.24-.12.24-.103.24-.102.239-.12.257-.103.24-.103.24-.12.24-.102.239-.103.24-.103.257-.103.24-.102.24-.103.256-.103.24-.103.24-.102.257-.103.24-.086.256-.103.24-.102.24-.103.257-.086.257-.103.24-.085.256-.103.24-.086.257-.085.24-.103.257-.086.257-.085.24-.103.256-.086.257-.085.257-.086.24-.086.257-.085.257-.086.257-.085.256-.086.24-.069.257-.085.257-.086.257-.085.257-.069.257-.086.257-.068.257-.086.257-.068.256-.086.257-.068.257-.069.257-.086.274-.068.257-.069.257-.068.257-.069.257-.068.257-.069.274-.068.257-.069.257-.068.256-.069.274-.068.257-.052.257-.068.274-.069.257-.05.274-.07.257-.05.257-.07.274-.05.257-.07.274-.05.257-.052.274-.051.257-.052.274-.068.257-.052.274-.051.274-.051.257-.052.274-.034.274-.051.257-.052.274-.051.274-.034.257-.052.274-.051.274-.034.274-.052.257-.034.274-.051.274-.035.274-.034.274-.034.274-.052.274-.034.257-.034.274-.034.274-.035.274-.034.274-.034.274-.034.274-.035.274-.017.274-.034.274-.034.274-.017.274-.035.291-.017.274-.034.274-.017.274-.034.274-.018.274-.017.274-.017.292-.017.274-.034.274-.017.274-.017.29-.018.275v.274l-.017.274-.017.291-.017.274-.017.274v.291l-.017.274v.274l-.017.292v.274l-.017.29v.567l-.018.274v2.26l.018.565.017.565.017.565.017.548.017.566.034.565.017.548.035.565.051.548.034.565.035.548.051.548.051.548.052.566.068.548.052.548.068.548.069.548.068.548.086.53.068.549.086.548.086.531.085.548.086.531.103.548.085.53.103.532.103.548.12.53.102.532.12.53.12.532.12.514.12.53.12.531.137.531.137.514.137.531.137.514.137.514.154.53.137.514.154.514.154.514.155.514.17.514.155.513.171.497.171.514.172.497.171.513.188.497.189.514.171.497.188.496.189.497.205.497.189.496.205.497.206.48.205.496.206.497.205.48.223.48.223.496.205.48.223.479.24.48.222.479.223.48.24.462.24.48.24.462.24.48.239.462.257.462.257.48.24.462.256.463.274.445.257.462.257.463.274.445.274.463.257.445.291.445.274.463.274.445.292.428.274.445.29.446.292.445.291.428.291.446.308.428.292.428.308.428.308.428.309.428.308.429.325.41.308.429.326.41.308.412.326.41.325.43.325.393.343.411.325.411.343.411.325.394.343.394.342.411.343.394.36.394.342.377.343.394.36.394.359.376.531.583.377.376.36.377.36.377.376.377.36.36.376.376.377.36.377.36.377.376.394.36.376.343.377.36.394.359.394.342.394.36.394.343.394.342.394.343.41.342.395.326.41.342.412.326.394.325.41.325.429.326.411.325.411.326.428.308.411.325.428.309.429.308.633.462.428.309.429.29.428.31.445.29.428.291.446.292.445.29.445.275.428.291.446.274.462.274.445.291.446.257.462.274.445.274.463.257.462.274.446.257.462.257.462.24.48.257.462.256.463.24.48.24.462.24.48.24.462.24.48.222.479.223.48.24.48.222.479.206.496.222.48.223.48.205.496.206.497.205.48.206.496.206.497.188.496.205.497.189.497.188.496.189.514.17.497.19.514.17.496.172.514.171.497.171.514.155.513.17.514.155.514.154.514.154.514.137.53.154.514.137.514.137.531.137.514.137.531.137.53.12.532.12.514.12.53.12.532.12.53.103.531.12.548.102.531.103.531.086.548.102.531.086.548.086.531.085.548.086.548.069.531.085.548.069.549.068.548.069.548.051.548.069.565.051.548.051.548.052.548.034.565.034.548.052.566.034.548.017.565.034.565.017.548.017.565.018.565.017.566.017h2.26l.274-.017h.567l.29-.017h.275l.29-.018h.275l.274-.017h.291l.274-.017.274-.017.291-.017.274-.017h.274l.292-.017.274-.017.274-.018.274-.034.274-.017.29-.017.275-.017.274-.017.274-.035.274-.017.274-.034.274-.017.291-.034.274-.017.274-.035.274-.034.274-.017.274-.034.274-.035.274-.034.274-.034.275-.034.274-.035.274-.034.256-.034.275-.051.274-.035.274-.034.274-.034.274-.052.274-.034.257-.051.274-.035.274-.05.274-.052.257-.035.274-.05.274-.052.257-.052.274-.034.274-.051.256-.052.275-.051.274-.051.256-.069.274-.051.257-.052.274-.051.257-.051.274-.069.257-.051.274-.069.257-.051.257-.069.274-.051.257-.069.274-.068.257-.052.257-.068.274-.069.257-.068.257-.069.257-.068.274-.069.257-.068.256-.069.257-.068.257-.069.257-.068.274-.086.257-.068.257-.069.257-.085.257-.069.257-.086.257-.068.257-.086.256-.068.257-.086.257-.085.257-.069.257-.086.24-.085.257-.086.257-.086.257-.085.256-.086.24-.085.257-.086.257-.086.257-.102.24-.086.257-.086.257-.085.24-.103.256-.086.24-.103.257-.085.24-.103.257-.086.256-.102.24-.103.24-.103.257-.085.24-.103.257-.103.24-.103.24-.103.256-.102.24-.103.24-.103.257-.103.24-.102.24-.103.239-.12.24-.103.24-.102.256-.12.24-.103.24-.103.24-.12.24-.103.24-.12.239-.12.24-.102.24-.12.24-.12.24-.103.222-.12.24-.12.24-.12.24-.12.239-.12.223-.119.24-.12.24-.12.239-.12.223-.12.24-.137.222-.12.24-.12.24-.136.222-.12.24-.12.223-.137.24-.12.222-.137.223-.12.24-.137.222-.137.223-.12.24-.137.222-.137.223-.137.24-.137.222-.137.223-.137.223-.12.222-.137.223-.137.222-.154.24-.137.223-.137.223-.137.222-.137.206-.154.222-.137.223-.137.223-.154.222-.137.223-.155.223-.137.205-.154.223-.137.222-.154.223-.137.206-.154.222-.154.206-.154.222-.137.223-.154.206-.155.222-.154.206-.154.205-.154.223-.154.206-.154.222-.154.206-.155.205-.154.206-.171.222-.154.206-.154.205-.172.206-.154.205-.154.206-.171.223-.154.205-.172.206-.154.205-.17.189-.155.205-.171.206-.172.205-.154.206-.171.205-.171.206-.172.188-.154.206-.171.205-.171.189-.172.205-.17.206-.172.188-.171.206-.172.188-.17.205-.19.189-.17.188-.172.206-.171.188-.188.206-.172.188-.171.189-.188.188-.172.188-.17.206-.19.188-.17.189-.189.188-.188.188-.172.189-.188.188-.171.189-.189.188-.188.188-.189.172-.188.188-.171.188-.189.189-.188.188-.188.172-.189.188-.188.171-.189.189-.188.188-.188.171-.189.189-.205.17-.189.172-.188.189-.188.17-.189.19-.205.17-.189.172-.205.171-.189.171-.188.189-.206.171-.188.171-.206.172-.188.17-.205.172-.206.171-.188.172-.206.17-.205.155-.189.171-.205.172-.206.17-.205.155-.206.171-.205.172-.206.154-.188.17-.206.155-.205.171-.223.154-.206.172-.205.154-.206.154-.205.171-.206.154-.205.155-.223.154-.205.171-.206.154-.205.154-.223.154-.206.155-.222.154-.206.154-.205.154-.223.154-.205.154-.223.137-.223.154-.205.155-.223.154-.205.137-.223.154-.223.137-.222.154-.206.137-.223.154-.222.137-.223.154-.223.137-.222.137-.223.155-.205.137-.223.137-.223.137-.222.137-.24.137-.223.154-.222.137-.223.12-.223.137-.222.137-.223.137-.24.137-.222.137-.223.137-.223.12-.24.137-.222.12-.24.137-.223.137-.222.12-.24.137-.223.12-.24.12-.222.136-.24.12-.24.12-.222.137-.24.12-.223.12-.24.12-.24.12-.24.12-.222.12-.24.12-.24.12-.24.12-.239.119-.222.103-.24.12-.24.12-.24.102-.24.12-.24.12-.24.103-.239.12-.24.102-.24.103-.24.12-.256.103-.24.103-.24.12-.24.102-.24.103-.24.103-.256.103-.24.102-.24.103-.256.103-.24.103-.24.102-.257.103-.24.086-.257.103-.24.102-.24.103-.256.086-.24.102-.257.086-.257.103-.24.085-.256.086-.24.103-.257.086-.257.085-.24.103-.257.086-.256.085-.257.086-.24.085-.257.086-.257.086-.257.085-.257.086-.24.069-.256.085-.257.086-.257.085-.257.069-.257.086-.257.068-.257.086-.257.068-.257.086-.257.068-.256.069-.257.085-.274.069-.257.069-.257.068-.257.069-.257.068-.257.069-.274.068-.257.069-.257.068-.257.069-.274.068-.257.051-.257.069-.274.068-.256.052-.274.068-.257.052-.257.068-.274.052-.257.068-.274.052-.257.05-.274.052-.257.052-.274.068-.257.052-.274.05-.274.052-.257.052-.274.034-.274.051-.257.052-.274.051-.274.034-.257.052-.274.051-.274.034-.274.052-.257.034-.274.051-.274.035-.274.034-.274.034-.274.052-.274.034-.257.034-.274.034-.274.035-.274.034-.274.034-.274.034-.274.035-.274.017-.274.034-.274.034-.274.017-.274.035-.292.017-.274.034-.274.017-.274.034-.274.017-.274.018-.274.017-.29.017-.275.034-.274.017-.274.017-.291.017-.274v-.274l.018-.274.017-.291.017-.274.017-.274v-.292l.017-.274v-.274l.017-.29v-.275l.017-.291v-.565l.017-.274v-2.261l-.017-.274v-.565l-.017-.291v-.274l-.017-.292v-.274l-.017-.274v-.29l-.017-.275-.017-.274-.017-.291-.018-.274v-.274l-.017-.274-.017-.291-.017-.274-.034-.274-.017-.274-.017-.292-.018-.274-.017-.274-.034-.274-.017-.274-.034-.274-.017-.274-.035-.29-.017-.275-.034-.274-.034-.274-.017-.274-.035-.274-.034-.274-.034-.274-.034-.274-.035-.274-.034-.274-.034-.274-.034-.257-.052-.274-.034-.274-.034-.274-.035-.274-.051-.274-.034-.274-.052-.257-.034-.274-.051-.274-.052-.274-.034-.257-.051-.274-.052-.274-.051-.257-.034-.274-.052-.274-.051-.257-.051-.274-.052-.274-.068-.257-.052-.274-.051-.257-.051-.274-.052-.257-.068-.274-.052-.257-.068-.274-.052-.257-.068-.257-.052-.274-.068-.257-.069-.274-.05-.257-.07-.257-.068-.274-.068-.256-.069-.257-.068-.257-.069-.274-.068-.257-.069-.257-.068-.257-.069-.257-.069-.257-.085-.274-.069-.257-.068-.257-.086-.257-.068-.256-.086-.257-.068-.257-.086-.257-.069-.257-.085-.257-.086-.257-.085-.257-.069-.257-.086-.24-.085-.256-.086-.257-.086-.257-.085-.257-.086-.24-.085-.257-.086-.257-.103-.257-.085-.24-.086-.256-.103-.257-.086-.24-.085-.257-.103-.24-.086-.257-.102-.24-.086-.256-.103-.257-.102-.24-.103-.24-.086-.257-.103-.24-.102-.256-.103-.24-.103-.24-.103-.257-.102-.24-.103-.24-.103-.256-.103-.24-.102-.24-.12-.24-.103-.24-.103-.24-.12-.256-.103-.24-.102-.24-.12-.24-.103-.24-.12-.239-.12-.24-.102-.24-.12-.24-.12-.239-.103-.24-.12-.222-.12-.24-.12-.24-.12-.24-.12-.24-.12-.222-.12-.24-.12-.24-.119-.24-.12-.222-.137-.24-.12-.223-.12-.24-.137-.24-.12-.222-.12-.24-.137-.222-.12-.24-.136-.223-.137-.222-.12-.24-.137-.223-.12-.24-.137-.222-.137-.223-.137-.222-.137-.24-.137-.223-.12-.223-.137-.222-.137-.223-.154-.222-.137-.223-.137-.24-.137-.223-.137-.222-.137-.223-.155-.205-.137-.223-.137-.223-.154-.222-.137-.223-.154-.223-.137-.222-.154-.206-.137-.222-.154-.223-.137-.223-.154-.205-.155-.223-.154-.205-.137-.223-.154-.223-.154-.205-.154-.223-.154-.205-.154-.206-.155-.223-.154-.205-.154-.223-.154-.205-.171-.206-.154-.205-.155-.223-.154-.206-.17-.205-.155-.206-.154-.205-.172-.206-.154-.222-.17-.206-.155-.205-.171-.206-.154-.188-.172-.206-.171-.205-.154-.206-.171-.205-.172-.206-.171-.205-.154-.189-.171-.205-.172-.206-.17-.188-.172-.206-.171-.205-.172-.189-.171-.205-.171-.189-.189-.205-.17-.189-.172-.188-.171-.205-.172-.189-.188-.188-.171-.206-.189-.188-.171-.189-.171-.188-.189-.205-.171-.189-.188-.188-.189-.189-.171-.188-.188-.188-.172-.189-.188-.188-.189-.189-.188-.188-.188-.171-.172-.189-.188-.188-.188-.189-.189-.188-.188-.171-.189-.189-.188-.17-.188-.19-.189-.188-.188-.17-.206-.19-.188-.17-.188-.172-.189-.188-.188-.172-.206-.188-.188-.171-.206-.171-.188-.172-.189-.171-.205-.188-.188-.172-.206-.17-.188-.172-.206-.171-.205-.172-.189-.171-.205-.171-.206-.172-.188-.154-.206-.171-.205-.171-.206-.172-.205-.154-.206-.17-.205-.172-.189-.154-.205-.172-.206-.154-.205-.171-.223-.154-.206-.171-.205-.155-.206-.154-.205-.171-.206-.154-.222-.154-.206-.172-.205-.154-.206-.154-.222-.154-.206-.154-.223-.154-.205-.154-.206-.155-.222-.154-.206-.154-.223-.154-.222-.137-.206-.154-.222-.154-.206-.154-.223-.137-.222-.155-.223-.137-.205-.154-.223-.137-.223-.154-.222-.137-.223-.154-.223-.137-.222-.137-.206-.154-.222-.137-.223-.137-.223-.137-.24-.137-.222-.137-.223-.154-.222-.137-.223-.137-.223-.12-.222-.137-.24-.137-.223-.137-.222-.137-.223-.137-.24-.12-.223-.137-.24-.12-.222-.137-.223-.137-.24-.12-.222-.137-.24-.12-.223-.12-.24-.137-.24-.12-.222-.12-.24-.137-.222-.12-.24-.12-.24-.12-.24-.12-.222-.12-.24-.12-.24-.119-.24-.12-.24-.12-.222-.12-.24-.102-.24-.12-.24-.12-.239-.103-.24-.12-.24-.12-.24-.102-.24-.12-.239-.103-.24-.103-.257-.12-.24-.103-.24-.102-.239-.12-.24-.103-.24-.103-.256-.102-.24-.103-.24-.103-.257-.103-.24-.103-.24-.102-.256-.103-.24-.103-.257-.085-.24-.103-.24-.103-.256-.103-.24-.085-.257-.103-.257-.086-.24-.103-.257-.085-.24-.086-.256-.103-.257-.085-.24-.086-.257-.103-.257-.085-.257-.086-.24-.085-.256-.086-.257-.086-.257-.085-.257-.086-.24-.086-.257-.068-.257-.086-.257-.085-.257-.086-.256-.069-.257-.085-.257-.069-.257-.085-.257-.069-.257-.086-.257-.068-.257-.069-.274-.085-.257-.069-.257-.068-.257-.069-.256-.068-.257-.069-.274-.068-.257-.069-.257-.068-.257-.069-.274-.068-.257-.069-.257-.051-.274-.069-.257-.068-.274-.052-.257-.068-.257-.051-.274-.069-.257-.051-.274-.069-.257-.051-.274-.052-.257-.05-.274-.052-.256-.069-.274-.051-.275-.052-.256-.051-.274-.051-.274-.035-.257-.051-.274-.051-.274-.052-.257-.034-.274-.051-.274-.052-.274-.034-.257-.051-.274-.035-.274-.051-.274-.034-.274-.035-.274-.034-.275-.051-.256-.034-.274-.035-.274-.034-.275-.034-.274-.034-.274-.035-.274-.034-.274-.034-.274-.017-.274-.035-.274-.034-.274-.017-.29-.034-.275-.017-.274-.035-.274-.017-.274-.034-.274-.017-.274-.017-.291-.017-.274-.017-.274-.035-.274-.017-.274-.017-.292-.017h-.274l-.274-.017-.29-.017-.275-.018-.274-.017h-.291l-.274-.017h-.274l-.291-.017h-.274l-.291-.017h-.566l-.274-.017h-1.421z"/></svg>