<svg xmlns="http://www.w3.org/2000/svg" id="Layer_1" viewBox="0 0 188.77 258.42" width="188.77" height="258.42"><defs><style>.cls-1{fill:#fff200}.cls-2{fill:#00aeef}.cls-3{fill:#fff}</style></defs><path d="M0 0h188.77v258.42H0z" class="cls-1"/><path d="M94.39 170.18a75.79 75.79 0 1 1 75.79-75.79 75.79 75.79 0 0 1-75.79 75.79zm-77.66 22l-5.84-9h3.68l3.77 6.09 3.73-6.09h3.68l-5.8 9v6.21h-3.22zm12.07-5.05c3.27 0 5.5 2.46 5.5 6v.64h-8.16a3 3 0 0 0 3.16 2.55 4.49 4.49 0 0 0 2.93-1.09l1.27 1.86a6.77 6.77 0 0 1-4.5 1.57 5.76 5.76 0 1 1-.18-11.53zm-2.71 4.73h5.41a2.54 2.54 0 0 0-2.71-2.43 2.64 2.64 0 0 0-2.69 2.43zm9.85-8.64h2.89v15.16h-2.89zm5.3 0h2.89v15.16h-2.89zm4.59 9.66a5.81 5.81 0 1 1 5.8 5.77 5.56 5.56 0 0 1-5.8-5.77zm8.62 0a2.9 2.9 0 0 0-2.82-3.18c-1.8 0-2.8 1.48-2.8 3.18s1 3.21 2.8 3.21 2.82-1.48 2.82-3.21zm12-1.97l-2.32 7.48H61l-3.34-11h3l2 7.39 2.41-7.39h2.57l2.41 7.39 2-7.39h3l-3.34 11h-2.94zm-52.81 18.26H11.3v-1.5h6.38v1.5h-2.33v6.5h-1.71z" class="cls-2"/><path d="M22 211.72l-1.22 3.95h-1.61l-1.76-5.79H19l1.08 3.9 1.27-3.9h1.35l1.27 3.9 1.08-3.9h1.58l-1.76 5.79h-1.62zm4.78 1.05a3.06 3.06 0 1 1 3.06 3 2.93 2.93 0 0 1-3.06-3zm4.54 0a1.49 1.49 0 1 0-1.49 1.69 1.53 1.53 0 0 0 1.49-1.69zm5.31 5.11v-8h1.52v.73a2.24 2.24 0 0 1 1.79-.88c1.49 0 2.57 1.1 2.57 3s-1.08 3-2.57 3a2.21 2.21 0 0 1-1.79-.89v3zm2.83-6.79a1.71 1.71 0 0 0-1.31.66v2.05a1.74 1.74 0 0 0 1.31.66 1.7 1.7 0 0 0 0-3.37zm3.95-1.21h1.52v.79a2.48 2.48 0 0 1 1.85-.92v1.49a2 2 0 0 0-.42 0 1.93 1.93 0 0 0-1.43.65v3.83h-1.52zm3.71 2.89a3.06 3.06 0 1 1 3.06 3 2.93 2.93 0 0 1-3.06-3zm4.55 0a1.49 1.49 0 1 0-1.49 1.69 1.53 1.53 0 0 0 1.48-1.69z" class="cls-2"/><path d="M56.84 209.73a2.67 2.67 0 0 1 2.29 1.06l-1 .92a1.43 1.43 0 0 0-1.22-.62 1.69 1.69 0 0 0 0 3.37 1.46 1.46 0 0 0 1.22-.62l1 .92a2.67 2.67 0 0 1-2.29 1.06 3 3 0 1 1 0-6.08zm5.67 0a2.9 2.9 0 0 1 2.9 3.19v.34h-4.3a1.56 1.56 0 0 0 1.67 1.34 2.37 2.37 0 0 0 1.55-.58l.67 1a3.57 3.57 0 0 1-2.39.8 3 3 0 1 1-.1-6.08zm-1.43 2.49h2.85a1.34 1.34 0 0 0-1.43-1.28 1.39 1.39 0 0 0-1.41 1.29zm5.36 1.63a3.31 3.31 0 0 0 2 .79c.66 0 1-.23 1-.59s-.5-.55-1.16-.68c-1-.19-2.28-.43-2.28-1.81 0-1 .85-1.82 2.38-1.82a3.64 3.64 0 0 1 2.33.79l-.6 1a2.44 2.44 0 0 0-1.71-.67c-.55 0-.91.2-.91.54s.46.49 1.1.62c1 .19 2.33.46 2.33 1.9 0 1.07-.9 1.86-2.51 1.86a3.9 3.9 0 0 1-2.59-.9zm5.48 0a3.31 3.31 0 0 0 2 .79c.66 0 1-.23 1-.59s-.5-.55-1.16-.68c-1-.19-2.28-.43-2.28-1.81 0-1 .85-1.82 2.37-1.82a3.64 3.64 0 0 1 2.33.79l-.6 1a2.44 2.44 0 0 0-1.71-.67c-.55 0-.91.2-.91.54s.46.49 1.1.62c1 .19 2.33.46 2.33 1.9 0 1.07-.9 1.86-2.51 1.86a3.9 3.9 0 0 1-2.59-.9zm10.86-4.12a2.67 2.67 0 0 1 2.29 1.06l-1 .92a1.43 1.43 0 0 0-1.22-.62 1.69 1.69 0 0 0 0 3.37 1.46 1.46 0 0 0 1.22-.62l1 .92a2.67 2.67 0 0 1-2.29 1.06 3 3 0 1 1 0-6.08zm2.68 3.04a3.06 3.06 0 1 1 3.06 3 2.93 2.93 0 0 1-3.06-3zm4.54 0a1.49 1.49 0 1 0-1.49 1.69 1.53 1.53 0 0 0 1.49-1.69zm2.48-5.1H94v8h-1.52zm2.42 5.1a3.06 3.06 0 1 1 3.06 3 2.93 2.93 0 0 1-3.06-3zm4.55 0a1.49 1.49 0 1 0-1.45 1.69 1.53 1.53 0 0 0 1.45-1.69zm6.38 2.17a2.71 2.71 0 0 1-2 .88 1.66 1.66 0 0 1-1.87-1.82v-4.11h1.52v3.51a.93.93 0 0 0 1.07 1.07 1.7 1.7 0 0 0 1.32-.66v-3.92h1.52v5.79h-1.52zm2.8-5.06h1.52v.79a2.48 2.48 0 0 1 1.85-.92v1.49a2 2 0 0 0-.42 0 1.93 1.93 0 0 0-1.43.65v3.83h-1.52zm4.24 3.97a3.31 3.31 0 0 0 2 .79c.66 0 1-.23 1-.59s-.5-.55-1.16-.68c-1-.19-2.28-.43-2.28-1.81 0-1 .85-1.82 2.37-1.82a3.64 3.64 0 0 1 2.33.79l-.6 1a2.44 2.44 0 0 0-1.71-.67c-.55 0-.91.2-.91.54s.46.49 1.1.62c1 .19 2.33.46 2.33 1.9 0 1.07-.9 1.86-2.51 1.86a3.9 3.9 0 0 1-2.59-.9zM11.79 223h3.15a4 4 0 1 1 0 8h-3.15zm3.15 6.5a2.39 2.39 0 0 0 2.51-2.5 2.34 2.34 0 0 0-2.51-2.51h-1.45v5zm8.67.85a2.4 2.4 0 0 1-1.83.74 1.93 1.93 0 0 1-2-1.92 1.83 1.83 0 0 1 2-1.85 2.34 2.34 0 0 1 1.83.71v-.8c0-.59-.5-1-1.27-1a2.44 2.44 0 0 0-1.69.68l-.58-1a3.8 3.8 0 0 1 2.53-.91c1.32 0 2.53.53 2.53 2.19V231h-1.52zm0-1.51a1.52 1.52 0 0 0-1.22-.5c-.6 0-1.09.32-1.09.88s.49.85 1.09.85a1.53 1.53 0 0 0 1.22-.5zm2.8-3.68h1.52v.84a2.48 2.48 0 0 1 1.85-.92v1.49a2 2 0 0 0-.42 0 1.93 1.93 0 0 0-1.43.65V231h-1.52zm6.3 3.56l-.7.74V231h-1.52v-8H32v4.79l2.19-2.58h1.87l-2.29 2.63 2.38 3.16h-1.91zm6.42-.67a3.06 3.06 0 1 1 3.06 3 2.93 2.93 0 0 1-3.06-3zm4.54 0a1.49 1.49 0 1 0-1.49 1.69 1.53 1.53 0 0 0 1.49-1.69zm6.39-.6a.94.94 0 0 0-1.06-1.08 1.65 1.65 0 0 0-1.32.68V231h-1.53v-5.79h1.52v.76a2.65 2.65 0 0 1 2-.9 1.68 1.68 0 0 1 1.88 1.85V231h-1.49zm5.63-4.45h1.52v8h-1.52zm2.64.4a.91.91 0 1 1 .91.91.92.92 0 0 1-.91-.91zm.16 1.76H60V231h-1.52zm3.35 6.18a2.3 2.3 0 0 0 1.81.72 1.42 1.42 0 0 0 1.6-1.46v-.6a2.26 2.26 0 0 1-1.79.91c-1.45 0-2.55-1-2.55-3s1.09-3 2.55-3a2.23 2.23 0 0 1 1.79.89v-.74h1.54v5.4c0 2.21-1.7 2.75-3.13 2.75a3.49 3.49 0 0 1-2.49-.86zm3.41-4.34a1.65 1.65 0 0 0-1.31-.66 1.6 1.6 0 0 0 0 3.19 1.69 1.69 0 0 0 1.31-.66zm6.75.43c0-.8-.42-1.06-1.08-1.06a1.69 1.69 0 0 0-1.32.68V231h-1.54v-8h1.52v3a2.68 2.68 0 0 1 2-.9 1.67 1.67 0 0 1 1.88 1.82V231H72zm3.08 2.08v-3h-1v-1.33h1v-1.58h1.54v1.58h1.17v1.33h-1.18v2.61c0 .36.19.64.53.64a.83.83 0 0 0 .53-.17l.32 1.15a1.88 1.88 0 0 1-1.27.37 1.45 1.45 0 0 1-1.64-1.6z" class="cls-2"/><path d="M30.54 92.1a7.68 7.68 0 0 1 8-7.84A7 7 0 0 1 45 88l-2.77 1.36a4.15 4.15 0 0 0-3.68-2.21 5 5 0 0 0 0 10 4.11 4.11 0 0 0 3.68-2.21L45 96.22a7 7 0 0 1-6.46 3.73 7.68 7.68 0 0 1-8-7.85z" class="cls-3"/><path d="M47.32 101.56a1.46 1.46 0 0 0 1.52-.8l.41-.93-4.46-11.14h3.09l2.86 7.64 2.86-7.64h3.12l-5.16 12.78c-.82 2.07-2.27 2.61-4.16 2.66A7.85 7.85 0 0 1 46 104l.43-2.59a2.49 2.49 0 0 0 .89.15zm16.84-3.02a4.54 4.54 0 0 1-3.48 1.41 3.66 3.66 0 0 1-3.82-3.64c0-2.57 2.07-3.5 3.82-3.5a4.44 4.44 0 0 1 3.48 1.34v-1.53c0-1.11-1-1.84-2.41-1.84a4.62 4.62 0 0 0-3.21 1.3l-1.09-1.93a7.2 7.2 0 0 1 4.8-1.73c2.5 0 4.8 1 4.8 4.16v7.09h-2.89zm0-2.86a2.89 2.89 0 0 0-2.32-1c-1.14 0-2.07.61-2.07 1.66S60.71 98 61.85 98a2.89 2.89 0 0 0 2.32-1zM76.87 93a1.78 1.78 0 0 0-2-2 3.13 3.13 0 0 0-2.5 1.3v7.39h-2.91v-11h2.89v1.43a5 5 0 0 1 3.84-1.71c2.41 0 3.57 1.36 3.57 3.5v7.75h-2.89z" class="cls-3"/></svg>