<svg xmlns="http://www.w3.org/2000/svg" id="Layer_1" viewBox="0 0 188.77 258.42" width="188.77" height="258.42"><defs><style>.cls-1{fill:#77bc1f}.cls-2{fill:#026937}.cls-3{fill:#fff}</style></defs><path d="M0 0h188.77v258.42H0z" class="cls-1"/><path d="M94.39 170.18a75.79 75.79 0 1 1 75.79-75.79 75.79 75.79 0 0 1-75.79 75.79z" class="cls-2"/><path d="M12.5 183.22h7.09a4.87 4.87 0 1 1 0 9.73h-3.86v5.43H12.5zm6.66 2.78h-3.43v4.18h3.43a2.1 2.1 0 1 0 0-4.18zm13.14 11.25a4.55 4.55 0 0 1-3.48 1.41A3.66 3.66 0 0 1 25 195c0-2.57 2.07-3.5 3.82-3.5a4.44 4.44 0 0 1 3.48 1.34v-1.52c0-1.11-1-1.84-2.41-1.84a4.62 4.62 0 0 0-3.21 1.3l-1.09-1.93a7.2 7.2 0 0 1 4.8-1.73c2.5 0 4.8 1 4.8 4.16v7.09H32.3zm0-2.87a2.89 2.89 0 0 0-2.32-1c-1.14 0-2.07.61-2.07 1.66s.93 1.61 2.07 1.61a2.89 2.89 0 0 0 2.32-1zm12.7-2.63a1.78 1.78 0 0 0-2-2 3.13 3.13 0 0 0-2.5 1.3v7.39h-2.9v-11h2.89v1.43a5 5 0 0 1 3.84-1.71c2.41 0 3.57 1.36 3.57 3.5v7.75H45zm5.88 3.91v-5.73h-1.82v-2.53h1.82v-3h2.91v3H56v2.52h-2.21v5c0 .68.36 1.21 1 1.21a1.58 1.58 0 0 0 1-.32l.61 2.19a3.56 3.56 0 0 1-2.41.71c-1.99-.05-3.11-1.1-3.11-3.05zm5.96-2.78a5.81 5.81 0 1 1 5.8 5.77 5.56 5.56 0 0 1-5.8-5.77zm8.62 0a2.9 2.9 0 0 0-2.82-3.18c-1.8 0-2.8 1.48-2.8 3.18s1 3.21 2.8 3.21 2.81-1.48 2.81-3.21zm12.09-1.13a1.78 1.78 0 0 0-2-2A3.13 3.13 0 0 0 73 191v7.39h-2.86v-11H73v1.43a5 5 0 0 1 3.84-1.71c2.41 0 3.57 1.36 3.57 3.5v7.75h-2.86zm10.27-4.62c3.27 0 5.5 2.46 5.5 6v.64h-8.16a3 3 0 0 0 3.16 2.55 4.49 4.49 0 0 0 2.93-1.09l1.27 1.86a6.77 6.77 0 0 1-4.52 1.57 5.76 5.76 0 1 1-.18-11.53zm-2.71 4.73h5.41a2.54 2.54 0 0 0-2.71-2.43 2.64 2.64 0 0 0-2.69 2.43zm15.89 2.25a6 6 0 0 0 4.18 1.73c1.84 0 2.86-.8 2.86-2s-.93-1.8-3-1.8h-1.89v-2.82h1.89c1.68 0 2.8-.55 2.8-1.68s-1.23-1.82-2.82-1.82a5.49 5.49 0 0 0-3.86 1.59l-1.59-2a7.46 7.46 0 0 1 5.8-2.41c3.55 0 5.73 1.59 5.73 4.12a3.72 3.72 0 0 1-3.32 3.46 3.8 3.8 0 0 1 3.55 3.64c0 2.61-2.34 4.46-6 4.46a7.58 7.58 0 0 1-6-2.43zm19-8.05h-7.64v-2.84h11.39v2.25l-5.64 12.91h-3.55zm11.57-3.06a6.84 6.84 0 0 1 4.48 1.57l-1.46 2.43a4 4 0 0 0-3-1.21c-2.3 0-3.8 2-3.8 4.39a1.35 1.35 0 0 0 0 .32 4.91 4.91 0 0 1 3.89-1.93c2.73 0 5.16 1.66 5.16 4.89 0 3-2.34 5.21-5.8 5.21-4.62 0-6.55-3.55-6.55-7.82.01-4.6 2.6-7.85 7.08-7.85zm-.82 8.25a3.89 3.89 0 0 0-3 1.46c.14 1.46 1 3.14 3.09 3.14a2.44 2.44 0 0 0 2.68-2.25c.05-1.6-1.29-2.35-2.77-2.35zm7.12-.44a7.68 7.68 0 0 1 8-7.84 7 7 0 0 1 6.46 3.71l-2.82 1.32a4.15 4.15 0 0 0-3.68-2.21 5 5 0 0 0 0 10 4.11 4.11 0 0 0 3.68-2.21l2.77 1.34a7 7 0 0 1-6.46 3.73 7.68 7.68 0 0 1-7.95-7.84zM12.18 213.25a3.51 3.51 0 0 0 2.54 1.08c.94 0 1.39-.44 1.39-.9s-.7-.8-1.62-1c-1.31-.3-3-.66-3-2.45 0-1.33 1.15-2.41 3-2.41a4.45 4.45 0 0 1 3.12 1.12l-.95 1.25a3.41 3.41 0 0 0-2.29-.87c-.77 0-1.17.34-1.17.82s.67.71 1.59.92c1.32.3 3 .7 3 2.47 0 1.46-1 2.57-3.2 2.57a4.61 4.61 0 0 1-3.39-1.27zm6.54 4.63v-8h1.52v.73a2.24 2.24 0 0 1 1.79-.88c1.49 0 2.57 1.1 2.57 3s-1.08 3-2.57 3a2.21 2.21 0 0 1-1.79-.89v3zm2.83-6.79a1.71 1.71 0 0 0-1.31.66v2.05a1.74 1.74 0 0 0 1.31.66 1.7 1.7 0 0 0 0-3.37zm3.57 1.68a3.06 3.06 0 1 1 3.06 3 2.93 2.93 0 0 1-3.06-3zm4.54 0a1.49 1.49 0 1 0-1.49 1.69 1.53 1.53 0 0 0 1.5-1.69zm2.78 1.46v-3h-1v-1.33h1v-1.58H34v1.58h1.18v1.33H34v2.61c0 .36.19.64.53.64a.83.83 0 0 0 .53-.17l.32 1.15a1.88 1.88 0 0 1-1.27.37 1.45 1.45 0 0 1-1.67-1.6zm9.05-4.5a2.67 2.67 0 0 1 2.29 1.06l-1 .92a1.43 1.43 0 0 0-1.22-.62 1.69 1.69 0 0 0 0 3.37 1.46 1.46 0 0 0 1.22-.62l1 .92a2.67 2.67 0 0 1-2.29 1.06 3 3 0 1 1 0-6.08zm2.68 3.04a3.06 3.06 0 1 1 3.06 3 2.93 2.93 0 0 1-3.06-3zm4.54 0a1.49 1.49 0 1 0-1.49 1.69 1.53 1.53 0 0 0 1.49-1.69zm2.48-5.1h1.52v8h-1.52zm2.42 5.1a3.06 3.06 0 1 1 3.06 3 2.93 2.93 0 0 1-3.06-3zm4.54 0a1.49 1.49 0 1 0-1.49 1.69 1.53 1.53 0 0 0 1.5-1.69zm6.39 2.17a2.71 2.71 0 0 1-2 .88 1.66 1.66 0 0 1-1.91-1.82v-4.11h1.52v3.51a.93.93 0 0 0 1.07 1.07 1.71 1.71 0 0 0 1.32-.66v-3.92h1.52v5.79h-1.52zm2.8-5.06h1.52v.79a2.48 2.48 0 0 1 1.85-.92v1.49a2.06 2.06 0 0 0-.42 0 1.93 1.93 0 0 0-1.43.65v3.83h-1.52zm6.54 2.89a3.06 3.06 0 1 1 3.06 3 2.93 2.93 0 0 1-3.06-3zm4.55 0a1.49 1.49 0 1 0-1.49 1.69 1.53 1.53 0 0 0 1.48-1.69zm6.38-.6a.94.94 0 0 0-1.07-1.08 1.65 1.65 0 0 0-1.32.68v3.9H80.9v-5.79h1.52v.76a2.65 2.65 0 0 1 2-.9 1.68 1.68 0 0 1 1.88 1.85v4.09h-1.49zm5.78 1.68a3.31 3.31 0 0 0 2 .79c.66 0 1-.23 1-.59s-.5-.55-1.16-.68c-1-.19-2.28-.43-2.28-1.81 0-1 .85-1.82 2.37-1.82a3.64 3.64 0 0 1 2.33.79l-.6 1a2.44 2.44 0 0 0-1.71-.67c-.55 0-.91.2-.91.54s.46.49 1.1.62c1 .19 2.33.46 2.33 1.89 0 1.07-.9 1.86-2.51 1.86a3.9 3.9 0 0 1-2.59-.9zm5.33 4.03v-8h1.52v.73a2.24 2.24 0 0 1 1.79-.88c1.49 0 2.57 1.1 2.57 3s-1.08 3-2.57 3a2.21 2.21 0 0 1-1.79-.89v3zm2.83-6.79a1.71 1.71 0 0 0-1.31.66v2.05a1.74 1.74 0 0 0 1.31.66 1.7 1.7 0 0 0 0-3.37zm3.58 1.68a3.06 3.06 0 1 1 3.06 3 2.93 2.93 0 0 1-3.06-3zm4.55 0a1.49 1.49 0 1 0-1.49 1.69 1.53 1.53 0 0 0 1.49-1.69zm2.77 1.46v-3h-1v-1.33h1v-1.58h1.54v1.58h1.17v1.33h-1.17v2.61c0 .36.19.64.53.64a.83.83 0 0 0 .53-.17l.32 1.15a1.88 1.88 0 0 1-1.27.37 1.45 1.45 0 0 1-1.65-1.6zm9.05-4.5a2.67 2.67 0 0 1 2.29 1.06l-1 .92a1.43 1.43 0 0 0-1.22-.62 1.69 1.69 0 0 0 0 3.37 1.46 1.46 0 0 0 1.22-.62l1 .92a2.67 2.67 0 0 1-2.29 1.06 3 3 0 1 1 0-6.08zm2.67 3.04a3.06 3.06 0 1 1 3.06 3 2.93 2.93 0 0 1-3.06-3zm4.55 0a1.49 1.49 0 1 0-1.49 1.69 1.53 1.53 0 0 0 1.49-1.69zm2.47-5.1h1.52v8h-1.52zm2.43 5.1a3.06 3.06 0 1 1 3.06 3 2.93 2.93 0 0 1-3.06-3zm4.54 0a1.49 1.49 0 1 0-1.49 1.69 1.53 1.53 0 0 0 1.49-1.69zm6.39 2.17a2.71 2.71 0 0 1-2 .88 1.66 1.66 0 0 1-1.87-1.82v-4.11h1.52v3.51a.93.93 0 0 0 1.07 1.07 1.71 1.71 0 0 0 1.32-.66v-3.92h1.52v5.79h-1.52zm2.79-5.06h1.52v.79a2.48 2.48 0 0 1 1.85-.92v1.49a2.06 2.06 0 0 0-.42 0 1.93 1.93 0 0 0-1.43.65v3.83h-1.52zM11.79 221h3.15a4 4 0 1 1 0 8h-3.15zm3.15 6.5a2.39 2.39 0 0 0 2.51-2.5 2.34 2.34 0 0 0-2.51-2.51h-1.45v5zm8.67.85a2.4 2.4 0 0 1-1.83.74 1.93 1.93 0 0 1-2-1.92 1.84 1.84 0 0 1 2-1.85 2.34 2.34 0 0 1 1.83.71v-.8c0-.59-.5-1-1.27-1a2.44 2.44 0 0 0-1.69.68l-.58-1a3.8 3.8 0 0 1 2.53-.91c1.32 0 2.53.53 2.53 2.19V229h-1.52zm0-1.51a1.52 1.52 0 0 0-1.22-.5c-.6 0-1.09.32-1.09.88s.49.85 1.09.85a1.53 1.53 0 0 0 1.22-.5zm2.8-3.68h1.52v.84a2.48 2.48 0 0 1 1.85-.92v1.49a2.06 2.06 0 0 0-.42 0 1.93 1.93 0 0 0-1.43.65V229h-1.52zm6.3 3.56l-.7.74V229h-1.52v-8H32v4.79l2.19-2.58h1.87l-2.29 2.63 2.38 3.16h-1.91zm6.42-.67a3.06 3.06 0 1 1 3.06 3 2.93 2.93 0 0 1-3.06-3zm4.54 0a1.49 1.49 0 1 0-1.49 1.69 1.53 1.53 0 0 0 1.49-1.69zm6.39-.6a.94.94 0 0 0-1.06-1.08 1.65 1.65 0 0 0-1.32.68V229h-1.53v-5.79h1.52v.76a2.65 2.65 0 0 1 2-.9 1.68 1.68 0 0 1 1.88 1.85V229h-1.49zm5.63-4.45h1.52v8h-1.52zm2.64.4a.91.91 0 1 1 .91.91.92.92 0 0 1-.91-.91zm.16 1.76H60V229h-1.52zm3.35 6.18a2.3 2.3 0 0 0 1.81.72 1.42 1.42 0 0 0 1.6-1.46v-.6a2.26 2.26 0 0 1-1.79.91c-1.45 0-2.55-1-2.55-3s1.09-3 2.55-3a2.23 2.23 0 0 1 1.79.89v-.74h1.54v5.4c0 2.21-1.7 2.75-3.13 2.75a3.49 3.49 0 0 1-2.49-.86zm3.41-4.34a1.65 1.65 0 0 0-1.31-.66 1.6 1.6 0 0 0 0 3.19 1.69 1.69 0 0 0 1.31-.66zm6.75.43c0-.8-.42-1.06-1.08-1.06a1.69 1.69 0 0 0-1.32.68V229h-1.54v-8h1.52v3a2.68 2.68 0 0 1 2-.9 1.67 1.67 0 0 1 1.88 1.82V229H72zm3.08 2.08v-3h-1v-1.33h1v-1.58h1.54v1.58h1.17v1.33h-1.18v2.61c0 .36.19.64.53.64a.83.83 0 0 0 .53-.17l.32 1.15a1.88 1.88 0 0 1-1.27.37 1.45 1.45 0 0 1-1.64-1.6zM30.45 88.3h4.37a3 3 0 1 1 0 6h-2.38v3.35h-2zm4.1 1.7h-2.11v2.58h2.12a1.29 1.29 0 1 0 0-2.58zm8.09 6.94a2.8 2.8 0 0 1-2.14.87 2.25 2.25 0 0 1-2.35-2.24 2.14 2.14 0 0 1 2.35-2.16 2.73 2.73 0 0 1 2.14.83v-.94c0-.69-.59-1.13-1.48-1.13a2.84 2.84 0 0 0-2 .8l-.67-1.19a4.44 4.44 0 0 1 3-1.06c1.54 0 3 .62 3 2.56v4.37h-1.85zm0-1.76a1.78 1.78 0 0 0-1.43-.59c-.7 0-1.28.38-1.28 1s.57 1 1.28 1a1.78 1.78 0 0 0 1.43-.59zm7.83-1.63a1.1 1.1 0 0 0-1.25-1.26 1.93 1.93 0 0 0-1.54.8v4.55H45.9v-6.76h1.78v.88a3.1 3.1 0 0 1 2.37-1.05 2 2 0 0 1 2.2 2.16v4.78h-1.78zM54.08 96v-3.57H53v-1.55h1.12V89h1.79v1.85h1.37v1.55h-1.41v3.05c0 .42.22.74.62.74a1 1 0 0 0 .62-.2l.38 1.34a2.2 2.2 0 0 1-1.48.43A1.69 1.69 0 0 1 54.08 96zm3.67-1.75a3.58 3.58 0 1 1 3.57 3.56 3.43 3.43 0 0 1-3.57-3.56zm5.31 0a1.74 1.74 0 1 0-1.74 2 1.79 1.79 0 0 0 1.74-2zm7.44-.7a1.1 1.1 0 0 0-1.25-1.26 1.93 1.93 0 0 0-1.54.8v4.55h-1.77v-6.76h1.78v.88a3.1 3.1 0 0 1 2.37-1.05 2 2 0 0 1 2.2 2.16v4.78H70.5zm6.33-2.84c2 0 3.39 1.51 3.39 3.73v.39h-5a1.82 1.82 0 0 0 1.95 1.57 2.77 2.77 0 0 0 1.81-.67l.78 1.15a4.17 4.17 0 0 1-2.79.94 3.55 3.55 0 1 1-.11-7.1zm-1.67 2.91h3.34a1.57 1.57 0 0 0-1.67-1.5 1.63 1.63 0 0 0-1.66 1.5zM85 95a3.72 3.72 0 0 0 2.58 1.06c1.13 0 1.77-.49 1.77-1.21s-.57-1.11-1.88-1.11h-1.16V92h1.16c1 0 1.72-.34 1.72-1s-.76-1.12-1.74-1.12a3.39 3.39 0 0 0-2.38 1l-1-1.23a4.6 4.6 0 0 1 3.57-1.48c2.19 0 3.53 1 3.53 2.54a2.29 2.29 0 0 1-2 2.13 2.34 2.34 0 0 1 2.18 2.24c0 1.61-1.44 2.75-3.68 2.75a4.67 4.67 0 0 1-3.68-1.5zm11.4.71h-4.46v-1.57l3.71-5.84h2.75V94h1.2v1.75h-1.21v1.93h-2zM93.88 94h2.52v-3.94zm7.6 1.34a2.52 2.52 0 0 0 1.86.71 2.44 2.44 0 0 0 2.34-2.69v-.2a3.09 3.09 0 0 1-2.41 1.2 3 3 0 0 1-3.19-3 3.29 3.29 0 0 1 3.59-3.21c2.83 0 4 2.19 4 4.83 0 2.82-1.58 4.82-4.34 4.82a4.08 4.08 0 0 1-2.75-1zm2.27-5.48a1.51 1.51 0 0 0-1.64 1.4c0 1 .83 1.43 1.72 1.43a2.35 2.35 0 0 0 1.82-.87 1.91 1.91 0 0 0-1.9-1.95zm4.62 3.14a4.73 4.73 0 0 1 4.9-4.83 4.31 4.31 0 0 1 4 2.28l-1.71.84a2.56 2.56 0 0 0-2.27-1.36 3.08 3.08 0 0 0 0 6.13 2.53 2.53 0 0 0 2.27-1.36l1.71.83a4.33 4.33 0 0 1-4 2.3 4.73 4.73 0 0 1-4.9-4.83z" class="cls-3"/></svg>