<svg xmlns="http://www.w3.org/2000/svg" id="Layer_1" viewBox="0 0 431.54 910.53" width="431.54" height="910.53"><defs><style>.cls-1{fill:#fff200}.cls-2{fill:#00aeef}.cls-3{fill:#fff}.cls-4{fill:#8dc63f}.cls-5{fill:#026937}.cls-6{fill:#77bc1f}</style></defs><path d="M0 0h188.77v258.42H0z" class="cls-1"/><path d="M94.386 170.179a75.793 75.793 0 1 1 75.793-75.793 75.793 75.793 0 0 1-75.793 75.793zM16.73 192.18l-5.844-8.958h3.684l3.774 6.093 3.729-6.093h3.683l-5.797 8.957v6.207H16.73zm12.072-5.048c3.274 0 5.502 2.455 5.502 6.048v.636h-8.162a2.959 2.959 0 0 0 3.16 2.547 4.492 4.492 0 0 0 2.934-1.092l1.272 1.865a6.77 6.77 0 0 1-4.524 1.523 5.764 5.764 0 1 1-.182-11.527zm-2.705 4.73h5.411a2.544 2.544 0 0 0-2.706-2.434 2.639 2.639 0 0 0-2.705 2.433zm9.845-8.64h2.888v15.164h-2.888zm5.297 0h2.887v15.164H41.24zm4.592 9.662a5.809 5.809 0 1 1 5.797 5.775 5.561 5.561 0 0 1-5.797-5.775zm8.617 0a2.898 2.898 0 0 0-2.82-3.183c-1.796 0-2.796 1.478-2.796 3.183 0 1.728 1 3.206 2.796 3.206s2.82-1.478 2.82-3.206zm12.005-1.978l-2.32 7.48h-3.092L57.7 187.405h3.001l2.046 7.389 2.41-7.39h2.569l2.41 7.39 2.046-7.39h3l-3.34 10.982h-3.07zM13.639 209.17H11.3v-1.5h6.38v1.499h-2.326v6.5h-1.715z" class="cls-2"/><path d="M22.026 211.724l-1.224 3.946h-1.63l-1.764-5.793h1.583l1.08 3.898 1.27-3.898h1.356l1.271 3.898 1.08-3.898h1.583l-1.764 5.793h-1.619zm4.754 1.044a3.064 3.064 0 1 1 3.059 3.046 2.934 2.934 0 0 1-3.059-3.046zm4.546 0a1.494 1.494 0 1 0-1.487 1.69 1.53 1.53 0 0 0 1.487-1.69zm5.305 5.109v-8h1.524v.732a2.236 2.236 0 0 1 1.787-.876c1.486 0 2.566 1.103 2.566 3.035s-1.08 3.046-2.566 3.046a2.214 2.214 0 0 1-1.787-.888v2.951zm2.83-6.789a1.706 1.706 0 0 0-1.306.66v2.051a1.744 1.744 0 0 0 1.306.66 1.702 1.702 0 0 0 0-3.37zm3.95-1.211h1.524v.791a2.477 2.477 0 0 1 1.847-.923v1.488a2.03 2.03 0 0 0-.42-.037 1.929 1.929 0 0 0-1.427.648v3.826H43.41zm3.709 2.891a3.064 3.064 0 1 1 3.058 3.046 2.934 2.934 0 0 1-3.058-3.046zm4.545 0a1.494 1.494 0 1 0-1.487 1.69 1.529 1.529 0 0 0 1.486-1.69z" class="cls-2"/><path d="M56.837 209.733a2.67 2.67 0 0 1 2.291 1.056l-.995.923a1.435 1.435 0 0 0-1.223-.624 1.69 1.69 0 0 0 0 3.37 1.464 1.464 0 0 0 1.223-.623l.995.923a2.67 2.67 0 0 1-2.29 1.056 3.04 3.04 0 1 1 0-6.08zm5.677 0a2.905 2.905 0 0 1 2.902 3.19v.336h-4.305a1.56 1.56 0 0 0 1.667 1.344 2.37 2.37 0 0 0 1.547-.576l.672.983a3.572 3.572 0 0 1-2.387.804 3.04 3.04 0 1 1-.096-6.08zm-1.428 2.495h2.855a1.342 1.342 0 0 0-1.427-1.284 1.393 1.393 0 0 0-1.428 1.284zm5.353 1.619a3.312 3.312 0 0 0 2.003.792c.659 0 .97-.228.97-.588 0-.408-.502-.552-1.163-.684-.995-.192-2.278-.431-2.278-1.81 0-.972.852-1.824 2.374-1.824a3.639 3.639 0 0 1 2.327.792l-.6 1.043a2.443 2.443 0 0 0-1.715-.672c-.551 0-.912.205-.912.54 0 .36.456.492 1.104.624.995.192 2.327.456 2.327 1.895 0 1.068-.9 1.86-2.507 1.86a3.9 3.9 0 0 1-2.59-.9zm5.483 0a3.315 3.315 0 0 0 2.003.792c.66 0 .972-.228.972-.588 0-.408-.504-.552-1.163-.684-.996-.192-2.28-.431-2.28-1.81 0-.972.852-1.824 2.376-1.824a3.636 3.636 0 0 1 2.326.792l-.6 1.043a2.441 2.441 0 0 0-1.715-.672c-.552 0-.911.205-.911.54 0 .36.455.492 1.103.624.995.192 2.326.456 2.326 1.895 0 1.068-.899 1.86-2.506 1.86a3.899 3.899 0 0 1-2.59-.9zm10.858-4.114a2.67 2.67 0 0 1 2.292 1.056l-.995.923a1.435 1.435 0 0 0-1.224-.624 1.69 1.69 0 0 0 0 3.37 1.464 1.464 0 0 0 1.224-.623l.995.923a2.67 2.67 0 0 1-2.291 1.056 3.04 3.04 0 1 1 0-6.08zm2.678 3.035a3.064 3.064 0 1 1 3.059 3.046 2.934 2.934 0 0 1-3.059-3.046zm4.546 0a1.494 1.494 0 1 0-1.487 1.69 1.53 1.53 0 0 0 1.487-1.69zm2.474-5.098H94v8h-1.523zm2.425 5.098a3.064 3.064 0 1 1 3.057 3.046 2.934 2.934 0 0 1-3.057-3.046zm4.545 0a1.494 1.494 0 1 0-1.488 1.69 1.529 1.529 0 0 0 1.488-1.69zm6.384 2.171a2.715 2.715 0 0 1-2.039.875 1.66 1.66 0 0 1-1.87-1.823v-4.114h1.523v3.514a.931.931 0 0 0 1.067 1.068 1.707 1.707 0 0 0 1.32-.66v-3.922h1.522v5.793h-1.523zm2.798-5.062h1.523v.791a2.477 2.477 0 0 1 1.847-.923v1.487a2.03 2.03 0 0 0-.42-.036 1.929 1.929 0 0 0-1.427.648v3.826h-1.523zm4.236 3.97a3.315 3.315 0 0 0 2.003.792c.66 0 .971-.228.971-.588 0-.408-.504-.552-1.163-.684-.996-.192-2.28-.431-2.28-1.81 0-.972.852-1.824 2.376-1.824a3.636 3.636 0 0 1 2.326.792l-.6 1.043a2.441 2.441 0 0 0-1.715-.672c-.552 0-.91.205-.91.54 0 .36.454.492 1.103.624.995.192 2.326.456 2.326 1.895 0 1.068-.9 1.86-2.507 1.86a3.899 3.899 0 0 1-2.59-.9zm-101.075 9.107h3.155a4.007 4.007 0 1 1 0 8H11.79zm3.155 6.5a2.395 2.395 0 0 0 2.506-2.495 2.34 2.34 0 0 0-2.506-2.507h-1.451v5.002zm8.664.899a2.396 2.396 0 0 1-1.835.744 1.93 1.93 0 0 1-2.015-1.919 1.834 1.834 0 0 1 2.015-1.847 2.341 2.341 0 0 1 1.835.708v-.804c0-.588-.504-.971-1.272-.971a2.437 2.437 0 0 0-1.69.683l-.576-1.02a3.8 3.8 0 0 1 2.53-.91c1.32 0 2.532.527 2.532 2.194v3.742H23.61zm0-1.51a1.523 1.523 0 0 0-1.224-.505c-.6 0-1.09.325-1.09.876 0 .54.49.851 1.09.851a1.525 1.525 0 0 0 1.224-.503zm2.798-3.683h1.523v.791a2.477 2.477 0 0 1 1.847-.923v1.488a2.03 2.03 0 0 0-.42-.037 1.929 1.929 0 0 0-1.427.648v3.826h-1.523zm6.298 3.562l-.696.744v1.487h-1.523v-8h1.523v4.785l2.195-2.578h1.871l-2.29 2.627 2.362 3.166H34.24zm6.421-.672a3.064 3.064 0 1 1 3.059 3.047 2.934 2.934 0 0 1-3.059-3.046zm4.546 0a1.494 1.494 0 1 0-1.487 1.692 1.53 1.53 0 0 0 1.487-1.691zm6.384-.599a.94.94 0 0 0-1.067-1.08 1.65 1.65 0 0 0-1.32.684v3.898h-1.523v-5.793h1.523v.756a2.652 2.652 0 0 1 2.027-.9 1.685 1.685 0 0 1 1.883 1.847v4.09h-1.523zm5.63-4.497h1.523v8h-1.523zm2.64.444a.912.912 0 1 1 .912.91.92.92 0 0 1-.912-.91zm.156 1.762h1.523v5.793h-1.523zm3.359 6.177a2.303 2.303 0 0 0 1.812.72 1.416 1.416 0 0 0 1.594-1.463v-.588a2.255 2.255 0 0 1-1.787.911c-1.45 0-2.554-1.02-2.554-2.95 0-1.895 1.091-2.95 2.554-2.95a2.232 2.232 0 0 1 1.787.887v-.744h1.536v5.397c0 2.207-1.703 2.747-3.13 2.747a3.49 3.49 0 0 1-2.495-.864zm3.406-4.306a1.652 1.652 0 0 0-1.307-.66 1.601 1.601 0 0 0 0 3.19 1.688 1.688 0 0 0 1.307-.66zm6.732.396c0-.803-.419-1.055-1.08-1.055a1.687 1.687 0 0 0-1.318.683v3.898h-1.524v-8h1.523v2.962a2.681 2.681 0 0 1 2.04-.899 1.667 1.667 0 0 1 1.882 1.823v4.114H71.98zm3.099 2.087v-3.022h-.96v-1.332h.96v-1.583h1.535v1.583h1.176v1.331h-1.176v2.615c0 .36.191.635.527.635a.833.833 0 0 0 .528-.168l.323 1.152a1.878 1.878 0 0 1-1.27.372 1.448 1.448 0 0 1-1.643-1.583zM242.77 0h188.77v258.42H242.77z" class="cls-2"/><path d="M337.158 170.179a75.793 75.793 0 1 1 75.793-75.793 75.793 75.793 0 0 1-75.793 75.793z" class="cls-1"/><path d="M254.544 190.815a7.676 7.676 0 0 1 7.958-7.843 7 7 0 0 1 6.457 3.705l-2.774 1.365a4.153 4.153 0 0 0-3.683-2.206 4.992 4.992 0 0 0 0 9.959 4.11 4.11 0 0 0 3.683-2.206l2.774 1.342a7.04 7.04 0 0 1-6.457 3.728 7.677 7.677 0 0 1-7.958-7.844z" class="cls-3"/><path d="M271.324 200.273a1.456 1.456 0 0 0 1.523-.795l.41-.933-4.457-11.14h3.092l2.865 7.639 2.864-7.64h3.116l-5.162 12.778c-.818 2.07-2.273 2.615-4.16 2.66a7.85 7.85 0 0 1-1.432-.16l.431-2.59a2.493 2.493 0 0 0 .91.181zm16.847-3.023a4.547 4.547 0 0 1-3.48 1.41 3.659 3.659 0 0 1-3.818-3.638c0-2.569 2.069-3.501 3.819-3.501a4.44 4.44 0 0 1 3.48 1.341v-1.523c0-1.114-.956-1.842-2.41-1.842a4.622 4.622 0 0 0-3.207 1.296l-1.09-1.932a7.202 7.202 0 0 1 4.796-1.728c2.501 0 4.797 1 4.797 4.16v7.094h-2.887zm0-2.865a2.89 2.89 0 0 0-2.319-.955c-1.137 0-2.07.615-2.07 1.66 0 1.024.933 1.615 2.07 1.615a2.889 2.889 0 0 0 2.32-.955zm12.709-2.637a1.782 1.782 0 0 0-2.023-2.047 3.128 3.128 0 0 0-2.501 1.296v7.39h-2.888v-10.982h2.888v1.432a5.028 5.028 0 0 1 3.842-1.705c2.41 0 3.57 1.364 3.57 3.501v7.753h-2.888zm-44.47 17.422h-2.338v-1.5h6.38v1.499h-2.327v6.5h-1.714z" class="cls-3"/><path d="M264.797 211.724l-1.223 3.946h-1.631l-1.764-5.793h1.583l1.08 3.898 1.27-3.898h1.356l1.272 3.898 1.079-3.898h1.584l-1.764 5.793h-1.619zm4.754 1.044a3.064 3.064 0 1 1 3.059 3.046 2.934 2.934 0 0 1-3.059-3.046zm4.546 0a1.494 1.494 0 1 0-1.487 1.69 1.53 1.53 0 0 0 1.487-1.69zm5.306 5.109v-8h1.523v.732a2.236 2.236 0 0 1 1.787-.876c1.486 0 2.567 1.103 2.567 3.035s-1.08 3.046-2.567 3.046a2.214 2.214 0 0 1-1.787-.888v2.951zm2.83-6.789a1.706 1.706 0 0 0-1.307.66v2.051a1.744 1.744 0 0 0 1.307.66 1.702 1.702 0 0 0 0-3.37zm3.95-1.211h1.523v.791a2.477 2.477 0 0 1 1.847-.923v1.488a2.03 2.03 0 0 0-.42-.037 1.929 1.929 0 0 0-1.427.648v3.826h-1.523zm3.708 2.891a3.064 3.064 0 1 1 3.058 3.046 2.934 2.934 0 0 1-3.058-3.046zm4.545 0a1.494 1.494 0 1 0-1.487 1.69 1.529 1.529 0 0 0 1.487-1.69z" class="cls-3"/><path d="M299.609 209.733a2.67 2.67 0 0 1 2.29 1.056l-.994.923a1.435 1.435 0 0 0-1.224-.624 1.69 1.69 0 0 0 0 3.37 1.464 1.464 0 0 0 1.224-.623l.995.923a2.67 2.67 0 0 1-2.291 1.056 3.04 3.04 0 1 1 0-6.08zm5.677 0a2.905 2.905 0 0 1 2.902 3.19v.336h-4.306a1.56 1.56 0 0 0 1.667 1.344 2.37 2.37 0 0 0 1.547-.576l.672.983a3.572 3.572 0 0 1-2.387.804 3.04 3.04 0 1 1-.095-6.08zm-1.428 2.495h2.854a1.342 1.342 0 0 0-1.427-1.284 1.393 1.393 0 0 0-1.427 1.284zm5.352 1.619a3.312 3.312 0 0 0 2.003.792c.66 0 .97-.228.97-.588 0-.408-.502-.552-1.162-.684-.996-.192-2.279-.431-2.279-1.81 0-.972.852-1.824 2.374-1.824a3.639 3.639 0 0 1 2.327.792l-.6 1.043a2.443 2.443 0 0 0-1.715-.672c-.551 0-.912.205-.912.54 0 .36.456.492 1.104.624.995.192 2.327.456 2.327 1.895 0 1.068-.9 1.86-2.507 1.86a3.9 3.9 0 0 1-2.59-.9zm5.484 0a3.315 3.315 0 0 0 2.003.792c.66 0 .971-.228.971-.588 0-.408-.504-.552-1.163-.684-.996-.192-2.28-.431-2.28-1.81 0-.972.853-1.824 2.376-1.824a3.636 3.636 0 0 1 2.326.792l-.6 1.043a2.441 2.441 0 0 0-1.715-.672c-.552 0-.91.205-.91.54 0 .36.454.492 1.103.624.995.192 2.326.456 2.326 1.895 0 1.068-.9 1.86-2.507 1.86a3.899 3.899 0 0 1-2.59-.9zm10.858-4.114a2.67 2.67 0 0 1 2.291 1.056l-.995.923a1.435 1.435 0 0 0-1.224-.624 1.69 1.69 0 0 0 0 3.37 1.464 1.464 0 0 0 1.224-.623l.995.923a2.67 2.67 0 0 1-2.29 1.056 3.04 3.04 0 1 1 0-6.08zm2.678 3.035a3.064 3.064 0 1 1 3.059 3.046 2.934 2.934 0 0 1-3.059-3.046zm4.546 0a1.494 1.494 0 1 0-1.487 1.69 1.53 1.53 0 0 0 1.487-1.69zm2.474-5.098h1.523v8h-1.524zm2.424 5.098a3.064 3.064 0 1 1 3.058 3.046 2.934 2.934 0 0 1-3.058-3.046zm4.545 0a1.494 1.494 0 1 0-1.487 1.69 1.529 1.529 0 0 0 1.487-1.69zm6.385 2.171a2.715 2.715 0 0 1-2.04.875 1.66 1.66 0 0 1-1.87-1.823v-4.114h1.523v3.514a.931.931 0 0 0 1.067 1.068 1.707 1.707 0 0 0 1.32-.66v-3.922h1.522v5.793h-1.522zm2.798-5.062h1.523v.791a2.477 2.477 0 0 1 1.847-.923v1.488a2.03 2.03 0 0 0-.42-.037 1.929 1.929 0 0 0-1.427.648v3.826h-1.523zm4.235 3.97a3.315 3.315 0 0 0 2.003.792c.66 0 .972-.228.972-.588 0-.408-.504-.552-1.163-.684-.997-.192-2.28-.431-2.28-1.81 0-.972.852-1.824 2.375-1.824a3.636 3.636 0 0 1 2.327.792l-.6 1.043a2.441 2.441 0 0 0-1.715-.672c-.552 0-.911.205-.911.54 0 .36.455.492 1.103.624.995.192 2.326.456 2.326 1.895 0 1.068-.9 1.86-2.507 1.86a3.899 3.899 0 0 1-2.59-.9zm-101.074 9.107h1.703v6.5h3.383v1.499h-5.086zm5.845.444a.912.912 0 1 1 .91.91.919.919 0 0 1-.91-.91zm.155 1.762h1.523v5.793h-1.523zm3.36 6.177a2.302 2.302 0 0 0 1.81.72 1.416 1.416 0 0 0 1.596-1.463v-.588a2.257 2.257 0 0 1-1.787.911c-1.45 0-2.554-1.02-2.554-2.95 0-1.895 1.09-2.95 2.554-2.95a2.232 2.232 0 0 1 1.787.887v-.744h1.536v5.397c0 2.207-1.704 2.747-3.131 2.747a3.49 3.49 0 0 1-2.494-.864zm3.407-4.306a1.652 1.652 0 0 0-1.308-.66 1.601 1.601 0 0 0 0 3.19 1.688 1.688 0 0 0 1.308-.66zm6.73.396c0-.803-.42-1.055-1.078-1.055a1.687 1.687 0 0 0-1.32.683v3.898h-1.523v-8h1.523v2.962a2.678 2.678 0 0 1 2.039-.899 1.668 1.668 0 0 1 1.883 1.823v4.114h-1.523zm3.099 2.087v-3.022h-.96v-1.332h.96v-1.583h1.535v1.583h1.176v1.331h-1.176v2.615c0 .36.192.635.528.635a.833.833 0 0 0 .528-.168l.323 1.152a1.878 1.878 0 0 1-1.27.372 1.448 1.448 0 0 1-1.644-1.583zm5.976-1.464a3.064 3.064 0 1 1 3.058 3.047 2.934 2.934 0 0 1-3.058-3.046zm4.545 0a1.494 1.494 0 1 0-1.487 1.692 1.529 1.529 0 0 0 1.487-1.691zm6.385-.599a.94.94 0 0 0-1.068-1.08 1.65 1.65 0 0 0-1.319.684v3.898h-1.523v-5.793h1.523v.756a2.65 2.65 0 0 1 2.026-.9 1.685 1.685 0 0 1 1.883 1.847v4.09h-1.522zm9.611 2.771a2.271 2.271 0 0 1-1.787.875c-1.463 0-2.566-1.103-2.566-3.035 0-1.894 1.092-3.045 2.566-3.045a2.23 2.23 0 0 1 1.787.887v-2.95h1.535v8h-1.535zm0-3.19a1.675 1.675 0 0 0-1.32-.66 1.702 1.702 0 0 0 0 3.37 1.675 1.675 0 0 0 1.32-.66zm6.289 3.321a2.4 2.4 0 0 1-1.836.744 1.93 1.93 0 0 1-2.014-1.919 1.835 1.835 0 0 1 2.014-1.847 2.343 2.343 0 0 1 1.836.708v-.804c0-.588-.504-.971-1.271-.971a2.44 2.44 0 0 0-1.692.683l-.575-1.02a3.799 3.799 0 0 1 2.53-.91c1.32 0 2.53.527 2.53 2.194v3.742h-1.522zm0-1.51a1.525 1.525 0 0 0-1.223-.505c-.6 0-1.092.325-1.092.876 0 .54.492.851 1.092.851a1.526 1.526 0 0 0 1.223-.503zm2.797-3.683h1.523v.791a2.48 2.48 0 0 1 1.847-.923v1.488a2.013 2.013 0 0 0-.419-.037 1.93 1.93 0 0 0-1.427.648v3.826h-1.524zm6.298 3.562l-.694.744v1.487h-1.524v-8h1.524v4.785l2.194-2.578h1.871l-2.29 2.627 2.362 3.166h-1.907z" class="cls-3"/><path d="M242.77 314.59h188.77v258.42H242.77z" class="cls-4"/><path d="M337.158 484.77a75.793 75.793 0 1 1 75.793-75.793 75.793 75.793 0 0 1-75.793 75.793z" class="cls-5"/><path d="M256.659 508.793a5.54 5.54 0 0 0 4.047 1.637c1.796 0 2.819-1.023 2.819-2.273 0-1.387-1-2.32-2.728-2.32a4.374 4.374 0 0 0-3.183 1.25l-2.251-.613v-8.662h10.413v2.773h-7.252v3.797a5.225 5.225 0 0 1 3.41-1.25 4.721 4.721 0 0 1 4.865 4.888c0 3.207-2.41 5.23-6.07 5.23a7.565 7.565 0 0 1-5.843-2.273zm17.529-11.209c4.32 0 6.275 3.911 6.275 7.822s-1.955 7.843-6.275 7.843c-4.342 0-6.274-3.933-6.274-7.843s1.932-7.822 6.274-7.822zm0 2.865c-2.183 0-3.001 2.16-3.001 4.957s.818 4.979 3 4.979c2.16 0 2.98-2.183 2.98-4.98s-.819-4.956-2.98-4.956zm11.027-2.865a3.7 3.7 0 0 1 3.865 3.82 3.856 3.856 0 0 1-7.707 0 3.696 3.696 0 0 1 3.842-3.82zm0 1.797a2 2 0 0 0 0 3.978 2 2 0 0 0 0-3.978zm8.207-1.569h1.728l-9.708 15.165h-1.705zm.137 7.866a3.715 3.715 0 0 1 3.865 3.82 3.854 3.854 0 1 1-3.865-3.82zm0 1.797a1.811 1.811 0 0 0-1.796 2.023 1.815 1.815 0 1 0 3.614 0 1.827 1.827 0 0 0-1.818-2.023zm17.531-2.069a7.676 7.676 0 0 1 7.957-7.844 7 7 0 0 1 6.457 3.706l-2.774 1.364a4.153 4.153 0 0 0-3.683-2.206 4.992 4.992 0 0 0 0 9.959 4.11 4.11 0 0 0 3.683-2.206l2.774 1.342a7.04 7.04 0 0 1-6.457 3.729 7.677 7.677 0 0 1-7.958-7.844z" class="cls-3"/><path d="M327.868 514.864a1.456 1.456 0 0 0 1.524-.796l.41-.932-4.457-11.14h3.092l2.865 7.638 2.864-7.639h3.115l-5.161 12.778c-.818 2.069-2.273 2.614-4.161 2.66a7.85 7.85 0 0 1-1.432-.16l.432-2.592a2.493 2.493 0 0 0 .91.183zm16.848-3.024a4.547 4.547 0 0 1-3.48 1.41 3.659 3.659 0 0 1-3.819-3.638c0-2.569 2.07-3.501 3.82-3.501a4.44 4.44 0 0 1 3.48 1.341v-1.523c0-1.114-.956-1.842-2.41-1.842a4.622 4.622 0 0 0-3.207 1.296l-1.09-1.932a7.202 7.202 0 0 1 4.796-1.728c2.501 0 4.797 1 4.797 4.16v7.094h-2.887zm0-2.865a2.89 2.89 0 0 0-2.32-.955c-1.136 0-2.068.614-2.068 1.66 0 1.024.932 1.614 2.069 1.614a2.889 2.889 0 0 0 2.32-.954zm12.709-2.637a1.782 1.782 0 0 0-2.023-2.047 3.128 3.128 0 0 0-2.501 1.296v7.39h-2.888v-10.982h2.888v1.433a5.028 5.028 0 0 1 3.843-1.705c2.41 0 3.569 1.363 3.569 3.5v7.753h-2.888zm-99.06 16.918l-2.501 2.57-1.842-1.933 4.774-4.797h2.82v15.164h-3.251zm11.345-4.388c4.32 0 6.275 3.91 6.275 7.821s-1.955 7.844-6.276 7.844c-4.341 0-6.274-3.933-6.274-7.843s1.933-7.822 6.274-7.822zm0 2.865c-2.183 0-3.002 2.16-3.002 4.956s.819 4.98 3.001 4.98c2.16 0 2.979-2.183 2.979-4.98s-.818-4.956-2.979-4.956zm13.641-2.865c4.32 0 6.275 3.91 6.275 7.821s-1.956 7.844-6.275 7.844c-4.343 0-6.275-3.933-6.275-7.843s1.932-7.822 6.275-7.822zm0 2.865c-2.183 0-3.001 2.16-3.001 4.956s.818 4.98 3.001 4.98c2.16 0 2.978-2.183 2.978-4.98s-.818-4.956-2.978-4.956zm11.027-2.865a3.7 3.7 0 0 1 3.865 3.82 3.856 3.856 0 0 1-7.707 0 3.696 3.696 0 0 1 3.842-3.82zm0 1.797a2 2 0 0 0 0 3.978 2 2 0 0 0 0-3.978zm8.207-1.57h1.728l-9.708 15.165H292.9zm.137 7.867a3.715 3.715 0 0 1 3.865 3.82 3.854 3.854 0 1 1-3.865-3.82zm0 1.796a1.811 1.811 0 0 0-1.796 2.024 1.815 1.815 0 1 0 3.614 0 1.827 1.827 0 0 0-1.818-2.024zm13.324-.705l-5.843-8.957h3.683l3.775 6.093 3.728-6.093h3.683l-5.797 8.957v6.207h-3.229zm12.072-5.047c3.275 0 5.502 2.455 5.502 6.048v.636h-8.162a2.959 2.959 0 0 0 3.16 2.547 4.492 4.492 0 0 0 2.934-1.091l1.272 1.864a6.77 6.77 0 0 1-4.524 1.523 5.764 5.764 0 1 1-.182-11.527zm-2.705 4.73h5.411a2.544 2.544 0 0 0-2.706-2.434 2.639 2.639 0 0 0-2.704 2.433zm9.845-8.64h2.888v15.164h-2.888zm5.297 0h2.888v15.164h-2.888zm4.593 9.662a5.809 5.809 0 1 1 5.797 5.775 5.561 5.561 0 0 1-5.797-5.775zm8.616 0a2.898 2.898 0 0 0-2.82-3.183c-1.795 0-2.795 1.478-2.795 3.183 0 1.728 1 3.206 2.796 3.206s2.819-1.478 2.819-3.206zm12.005-1.978l-2.32 7.48h-3.091l-3.342-10.981h3.001l2.046 7.389 2.41-7.39h2.57l2.41 7.39 2.045-7.39h3.001l-3.341 10.982h-3.07zm-110.822 22.341a3.508 3.508 0 0 0 2.543 1.079c.935 0 1.392-.443 1.392-.9 0-.6-.697-.803-1.62-1.02-1.307-.3-2.986-.659-2.986-2.446 0-1.331 1.152-2.41 3.034-2.41a4.449 4.449 0 0 1 3.119 1.115l-.948 1.248a3.416 3.416 0 0 0-2.29-.876c-.768 0-1.176.335-1.176.815 0 .54.671.708 1.595.924 1.32.3 2.998.695 2.998 2.47 0 1.463-1.043 2.567-3.202 2.567a4.61 4.61 0 0 1-3.394-1.272zm6.54 4.63v-8h1.523v.731a2.238 2.238 0 0 1 1.787-.875c1.487 0 2.566 1.103 2.566 3.035s-1.079 3.045-2.566 3.045a2.214 2.214 0 0 1-1.787-.887v2.951zm2.83-6.79a1.706 1.706 0 0 0-1.307.66v2.052a1.745 1.745 0 0 0 1.308.659 1.702 1.702 0 0 0 0-3.37zm3.578 1.681a3.064 3.064 0 1 1 3.059 3.045 2.934 2.934 0 0 1-3.06-3.045zm4.546 0a1.494 1.494 0 1 0-1.487 1.69 1.53 1.53 0 0 0 1.487-1.69zm2.773 1.463v-3.023h-.959v-1.331h.96v-1.583h1.534v1.583h1.176v1.331h-1.176v2.614c0 .36.193.636.529.636a.832.832 0 0 0 .527-.168l.324 1.151a1.88 1.88 0 0 1-1.271.373 1.448 1.448 0 0 1-1.644-1.583zm9.047-4.498a2.671 2.671 0 0 1 2.291 1.055l-.995.924a1.435 1.435 0 0 0-1.224-.624 1.69 1.69 0 0 0 0 3.37 1.463 1.463 0 0 0 1.224-.623l.995.923a2.67 2.67 0 0 1-2.29 1.056 3.04 3.04 0 1 1 0-6.08zm2.678 3.035a3.064 3.064 0 1 1 3.058 3.045 2.934 2.934 0 0 1-3.058-3.045zm4.546 0a1.494 1.494 0 1 0-1.488 1.69 1.53 1.53 0 0 0 1.488-1.69zm2.473-5.098h1.524v8h-1.524zm2.424 5.098a3.064 3.064 0 1 1 3.059 3.045 2.934 2.934 0 0 1-3.059-3.045zm4.546 0a1.494 1.494 0 1 0-1.487 1.69 1.53 1.53 0 0 0 1.487-1.69zm6.384 2.171a2.711 2.711 0 0 1-2.04.875 1.66 1.66 0 0 1-1.87-1.824v-4.113h1.523v3.514a.931.931 0 0 0 1.067 1.067 1.704 1.704 0 0 0 1.32-.66v-3.921h1.523v5.793h-1.523zm2.798-5.062h1.523v.791a2.48 2.48 0 0 1 1.847-.923v1.487a1.98 1.98 0 0 0-.419-.036 1.93 1.93 0 0 0-1.427.648v3.826h-1.524zm6.54 2.891a3.064 3.064 0 1 1 3.058 3.045 2.933 2.933 0 0 1-3.057-3.045zm4.546 0a1.494 1.494 0 1 0-1.488 1.69 1.53 1.53 0 0 0 1.488-1.69zm6.384-.6a.94.94 0 0 0-1.068-1.08 1.65 1.65 0 0 0-1.32.684v3.898h-1.523v-5.793h1.524v.756a2.65 2.65 0 0 1 2.027-.9 1.684 1.684 0 0 1 1.883 1.847v4.09h-1.524zm5.63 5.709v-8h1.523v.731a2.238 2.238 0 0 1 1.787-.875c1.487 0 2.566 1.103 2.566 3.035s-1.079 3.045-2.566 3.045a2.214 2.214 0 0 1-1.787-.887v2.951zm2.83-6.79a1.706 1.706 0 0 0-1.307.66v2.052a1.745 1.745 0 0 0 1.308.659 1.702 1.702 0 0 0 0-3.37zm3.95-1.21h1.523v.791a2.476 2.476 0 0 1 1.847-.923v1.487a1.997 1.997 0 0 0-.42-.036 1.928 1.928 0 0 0-1.427.648v3.826h-1.523zm3.708 2.891a3.064 3.064 0 1 1 3.058 3.045 2.934 2.934 0 0 1-3.058-3.045zm4.546 0a1.494 1.494 0 1 0-1.488 1.69 1.53 1.53 0 0 0 1.488-1.69z" class="cls-3"/><path d="M353.416 545.607a2.67 2.67 0 0 1 2.29 1.055l-.995.924a1.433 1.433 0 0 0-1.223-.624 1.69 1.69 0 0 0 0 3.37 1.46 1.46 0 0 0 1.223-.623l.995.923a2.667 2.667 0 0 1-2.29 1.056 3.04 3.04 0 1 1 0-6.08zm5.676 0a2.905 2.905 0 0 1 2.903 3.19v.336h-4.306a1.561 1.561 0 0 0 1.667 1.344 2.368 2.368 0 0 0 1.547-.577l.672.984a3.57 3.57 0 0 1-2.387.803 3.04 3.04 0 1 1-.096-6.08zm-1.427 2.495h2.854a1.342 1.342 0 0 0-1.427-1.284 1.393 1.393 0 0 0-1.428 1.284zm5.352 1.618a3.318 3.318 0 0 0 2.003.793c.66 0 .972-.229.972-.588 0-.408-.504-.552-1.164-.684-.996-.192-2.279-.431-2.279-1.811 0-.971.852-1.823 2.375-1.823a3.636 3.636 0 0 1 2.326.791l-.6 1.044a2.441 2.441 0 0 0-1.714-.672c-.552 0-.912.205-.912.54 0 .36.456.492 1.104.624.995.192 2.326.456 2.326 1.895 0 1.067-.9 1.858-2.507 1.858a3.899 3.899 0 0 1-2.59-.899zm5.484 0a3.315 3.315 0 0 0 2.003.793c.66 0 .971-.229.971-.588 0-.408-.503-.552-1.163-.684-.995-.192-2.278-.431-2.278-1.811 0-.971.851-1.823 2.374-1.823a3.639 3.639 0 0 1 2.327.791l-.6 1.044a2.443 2.443 0 0 0-1.715-.672c-.552 0-.912.205-.912.54 0 .36.456.492 1.103.624.995.192 2.327.456 2.327 1.895 0 1.067-.899 1.858-2.506 1.858a3.9 3.9 0 0 1-2.591-.899zm10.859-4.113a2.67 2.67 0 0 1 2.29 1.055l-.995.924a1.433 1.433 0 0 0-1.224-.624 1.69 1.69 0 0 0 0 3.37 1.46 1.46 0 0 0 1.224-.623l.995.923a2.667 2.667 0 0 1-2.29 1.056 3.04 3.04 0 1 1 0-6.08zm2.678 3.035a3.064 3.064 0 1 1 3.057 3.045 2.933 2.933 0 0 1-3.058-3.045zm4.544 0a1.494 1.494 0 1 0-1.487 1.69 1.53 1.53 0 0 0 1.487-1.69zm2.475-5.098h1.523v8h-1.523zm2.423 5.098a3.064 3.064 0 1 1 3.06 3.045 2.934 2.934 0 0 1-3.06-3.045zm4.547 0a1.494 1.494 0 1 0-1.488 1.69 1.53 1.53 0 0 0 1.488-1.69zm6.383 2.171a2.714 2.714 0 0 1-2.039.875 1.659 1.659 0 0 1-1.87-1.824v-4.113h1.523v3.514a.931.931 0 0 0 1.067 1.067 1.707 1.707 0 0 0 1.32-.66v-3.921h1.522v5.793h-1.523zm2.798-5.062h1.524v.791a2.476 2.476 0 0 1 1.846-.923v1.487a1.997 1.997 0 0 0-.42-.036 1.928 1.928 0 0 0-1.426.648v3.826h-1.524zm4.237 3.969a3.315 3.315 0 0 0 2.003.793c.659 0 .97-.229.97-.588 0-.408-.503-.552-1.163-.684-.995-.192-2.278-.431-2.278-1.811 0-.971.852-1.823 2.374-1.823a3.639 3.639 0 0 1 2.327.791l-.6 1.044a2.443 2.443 0 0 0-1.715-.672c-.552 0-.912.205-.912.54 0 .36.456.492 1.104.624.995.192 2.327.456 2.327 1.895 0 1.067-.9 1.858-2.507 1.858a3.9 3.9 0 0 1-2.59-.899zm-154.882 7.108h3.154a4.007 4.007 0 1 1 0 8h-3.154zm3.154 6.5a2.395 2.395 0 0 0 2.507-2.494 2.34 2.34 0 0 0-2.507-2.507h-1.451v5.001zm8.664.899a2.396 2.396 0 0 1-1.835.745 1.93 1.93 0 0 1-2.014-1.92 1.835 1.835 0 0 1 2.014-1.847 2.341 2.341 0 0 1 1.835.708v-.804c0-.588-.504-.971-1.271-.971a2.439 2.439 0 0 0-1.69.683l-.577-1.02a3.803 3.803 0 0 1 2.53-.91c1.32 0 2.532.526 2.532 2.194v3.742h-1.524zm0-1.51a1.523 1.523 0 0 0-1.223-.504c-.6 0-1.091.324-1.091.875 0 .54.491.851 1.09.851a1.523 1.523 0 0 0 1.224-.502zm2.799-3.683h1.522v.792a2.477 2.477 0 0 1 1.847-.924v1.488a2.064 2.064 0 0 0-.42-.036 1.929 1.929 0 0 0-1.427.648v3.826h-1.523zm6.297 3.563l-.695.743v1.487h-1.524v-7.999h1.524v4.785l2.195-2.579h1.871l-2.291 2.627 2.362 3.166h-1.907zm6.422-.672a3.064 3.064 0 1 1 3.058 3.047 2.934 2.934 0 0 1-3.058-3.047zm4.546 0a1.494 1.494 0 1 0-1.488 1.691 1.529 1.529 0 0 0 1.488-1.691zm6.384-.6a.94.94 0 0 0-1.068-1.079 1.65 1.65 0 0 0-1.32.684v3.897h-1.523v-5.793h1.524v.756a2.654 2.654 0 0 1 2.027-.9 1.685 1.685 0 0 1 1.883 1.847v4.09h-1.523zm5.629-4.497h1.524v8h-1.524zm2.64.443a.912.912 0 1 1 .912.912.919.919 0 0 1-.912-.912zm.156 1.763h1.524v5.793h-1.524zm3.36 6.176a2.303 2.303 0 0 0 1.811.72 1.415 1.415 0 0 0 1.595-1.462v-.588a2.254 2.254 0 0 1-1.787.911c-1.451 0-2.555-1.019-2.555-2.95 0-1.894 1.092-2.95 2.555-2.95a2.231 2.231 0 0 1 1.787.888v-.744h1.535v5.397c0 2.207-1.703 2.746-3.13 2.746a3.49 3.49 0 0 1-2.495-.863zm3.406-4.305a1.652 1.652 0 0 0-1.308-.659 1.601 1.601 0 0 0 0 3.19 1.687 1.687 0 0 0 1.308-.66zm6.731.397c0-.804-.418-1.056-1.079-1.056a1.687 1.687 0 0 0-1.319.684v3.897h-1.523v-7.999h1.523v2.962a2.683 2.683 0 0 1 2.04-.9 1.668 1.668 0 0 1 1.882 1.824v4.113h-1.523zm3.099 2.087v-3.023h-.96v-1.332h.96v-1.583h1.535v1.583h1.176v1.332h-1.176v2.614c0 .36.192.636.528.636a.833.833 0 0 0 .528-.168l.323 1.151a1.878 1.878 0 0 1-1.27.372 1.448 1.448 0 0 1-1.644-1.582zm-44.629-160.5h4.37a3 3 0 1 1 0 5.995h-2.381v3.348h-1.99zm4.105 1.709h-2.116v2.577h2.115a1.291 1.291 0 1 0 0-2.577zm8.091 6.934a2.8 2.8 0 0 1-2.142.868 2.254 2.254 0 0 1-2.354-2.241 2.143 2.143 0 0 1 2.354-2.157 2.733 2.733 0 0 1 2.142.826v-.938c0-.686-.587-1.135-1.484-1.135a2.848 2.848 0 0 0-1.976.799l-.671-1.19a4.436 4.436 0 0 1 2.955-1.065c1.54 0 2.956.616 2.956 2.563v4.37h-1.78zm0-1.765a1.78 1.78 0 0 0-1.428-.589c-.7 0-1.275.379-1.275 1.023 0 .63.574.994 1.275.994a1.78 1.78 0 0 0 1.428-.588zm7.826-1.625a1.098 1.098 0 0 0-1.247-1.261 1.925 1.925 0 0 0-1.54.799v4.552h-1.779v-6.766h1.78v.883a3.098 3.098 0 0 1 2.367-1.05 1.968 1.968 0 0 1 2.199 2.157v4.776h-1.78zm3.61 2.408v-3.53h-1.12v-1.554h1.12v-1.849h1.793v1.85h1.373v1.554h-1.373v3.053c0 .42.224.743.616.743a.969.969 0 0 0 .616-.196l.38 1.345a2.199 2.199 0 0 1-1.486.434 1.691 1.691 0 0 1-1.92-1.85zm3.667-1.708a3.579 3.579 0 1 1 3.572 3.558 3.426 3.426 0 0 1-3.571-3.558zm5.31 0a1.745 1.745 0 1 0-1.738 1.975 1.786 1.786 0 0 0 1.738-1.975zm7.447-.7a1.098 1.098 0 0 0-1.246-1.261 1.927 1.927 0 0 0-1.541.799v4.552h-1.78v-6.766h1.78v.883a3.1 3.1 0 0 1 2.367-1.05 1.968 1.968 0 0 1 2.2 2.157v4.776h-1.78zm6.328-2.844c2.016 0 3.39 1.513 3.39 3.726v.392h-5.03a1.824 1.824 0 0 0 1.948 1.57 2.77 2.77 0 0 0 1.807-.673l.785 1.148a4.171 4.171 0 0 1-2.788.939 3.551 3.551 0 1 1-.112-7.102zm-1.667 2.914h3.334a1.567 1.567 0 0 0-1.667-1.5 1.626 1.626 0 0 0-1.667 1.5zm9.799 1.387a3.72 3.72 0 0 0 2.577 1.064c1.135 0 1.765-.49 1.765-1.205 0-.756-.574-1.106-1.877-1.106-.392 0-1.023 0-1.163.014v-1.737c.168.014.8.014 1.163.014 1.036 0 1.723-.336 1.723-1.036 0-.743-.757-1.121-1.737-1.121a3.383 3.383 0 0 0-2.381.98l-.98-1.233a4.596 4.596 0 0 1 3.571-1.484c2.186 0 3.53.98 3.53 2.535a2.291 2.291 0 0 1-2.045 2.129 2.345 2.345 0 0 1 2.185 2.241c0 1.611-1.443 2.746-3.684 2.746a4.668 4.668 0 0 1-3.683-1.499zm11.44.7h-4.469v-1.569l3.712-5.841h2.745v5.659h1.205v1.75h-1.205v1.934h-1.988zm-2.521-1.751h2.521v-3.894zm7.6 1.387a2.525 2.525 0 0 0 1.864.714 2.442 2.442 0 0 0 2.34-2.69v-.195a3.09 3.09 0 0 1-2.41 1.204 2.968 2.968 0 0 1-3.194-3.026 3.293 3.293 0 0 1 3.586-3.207c2.83 0 4.02 2.185 4.02 4.832 0 2.816-1.583 4.82-4.342 4.82a4.076 4.076 0 0 1-2.745-.968zm2.27-5.478a1.507 1.507 0 0 0-1.639 1.401c0 .995.827 1.43 1.723 1.43a2.349 2.349 0 0 0 1.821-.87 1.912 1.912 0 0 0-1.905-1.96zm4.618 3.11a4.729 4.729 0 0 1 4.902-4.832 4.31 4.31 0 0 1 3.979 2.283l-1.71.84a2.559 2.559 0 0 0-2.27-1.358 3.075 3.075 0 0 0 0 6.135 2.533 2.533 0 0 0 2.27-1.359l1.71.826a4.336 4.336 0 0 1-3.979 2.298 4.729 4.729 0 0 1-4.902-4.833z" class="cls-3"/><path d="M0 314.59h188.77v258.42H0z" class="cls-5"/><path d="M12.5 497.812h7.094a4.87 4.87 0 1 1 0 9.731h-3.865v5.434H12.5zm6.661 2.773H15.73v4.184h3.433a2.096 2.096 0 1 0 0-4.184zm13.143 11.255a4.545 4.545 0 0 1-3.478 1.41 3.659 3.659 0 0 1-3.82-3.638c0-2.569 2.069-3.501 3.82-3.501a4.438 4.438 0 0 1 3.478 1.341v-1.523c0-1.114-.955-1.842-2.41-1.842a4.62 4.62 0 0 0-3.205 1.296l-1.092-1.933a7.204 7.204 0 0 1 4.797-1.728c2.501 0 4.797 1 4.797 4.161v7.093h-2.887zm0-2.865a2.888 2.888 0 0 0-2.32-.955c-1.136 0-2.069.614-2.069 1.66 0 1.024.933 1.614 2.07 1.614a2.888 2.888 0 0 0 2.32-.954zm12.709-2.637a1.782 1.782 0 0 0-2.023-2.047 3.128 3.128 0 0 0-2.501 1.296v7.39H37.6v-10.982h2.888v1.433a5.027 5.027 0 0 1 3.843-1.705c2.41 0 3.568 1.363 3.568 3.5v7.753h-2.887zm5.867 3.91v-5.729h-1.82v-2.524h1.82v-3h2.91v3h2.227v2.524h-2.228v4.956c0 .682.364 1.205 1 1.205a1.58 1.58 0 0 0 1.001-.318l.614 2.182a3.563 3.563 0 0 1-2.41.706c-2.024 0-3.115-1.046-3.115-3.002zm5.956-2.773a5.81 5.81 0 1 1 5.798 5.774 5.562 5.562 0 0 1-5.798-5.774zm8.617 0a2.898 2.898 0 0 0-2.819-3.184c-1.797 0-2.797 1.478-2.797 3.184 0 1.728 1 3.205 2.797 3.205s2.819-1.477 2.819-3.205zm12.095-1.137a1.782 1.782 0 0 0-2.023-2.047 3.128 3.128 0 0 0-2.501 1.296v7.39h-2.888v-10.982h2.888v1.433a5.027 5.027 0 0 1 3.843-1.705c2.41 0 3.568 1.363 3.568 3.5v7.753h-2.887zm10.278-4.615c3.273 0 5.502 2.455 5.502 6.047v.637h-8.163a2.958 2.958 0 0 0 3.16 2.546 4.492 4.492 0 0 0 2.933-1.091l1.272 1.864a6.765 6.765 0 0 1-4.523 1.524 5.764 5.764 0 1 1-.182-11.527zm-2.706 4.729h5.41a2.544 2.544 0 0 0-2.705-2.433 2.639 2.639 0 0 0-2.705 2.433zm15.915 2.25a6.042 6.042 0 0 0 4.183 1.728c1.842 0 2.865-.796 2.865-1.955 0-1.228-.932-1.796-3.047-1.796-.636 0-1.66 0-1.886.022v-2.819c.272.023 1.295.023 1.886.023 1.683 0 2.797-.546 2.797-1.683 0-1.205-1.228-1.818-2.82-1.818a5.492 5.492 0 0 0-3.864 1.591l-1.592-2a7.465 7.465 0 0 1 5.798-2.41c3.547 0 5.73 1.592 5.73 4.115a3.721 3.721 0 0 1-3.32 3.456 3.805 3.805 0 0 1 3.547 3.638c0 2.614-2.342 4.456-5.98 4.456a7.577 7.577 0 0 1-5.978-2.433zm18.575 1.137h-7.253v-2.546l6.026-9.48h4.456v9.185h1.956v2.841h-1.956v3.138h-3.229zm-4.093-2.842h4.093v-6.32zm12.346 2.251a4.098 4.098 0 0 0 3.024 1.16c2.433 0 3.797-2.07 3.797-4.366v-.318a5.016 5.016 0 0 1-3.911 1.955c-2.728 0-5.184-1.682-5.184-4.91 0-2.957 2.365-5.207 5.82-5.207 4.593 0 6.526 3.546 6.526 7.844 0 4.57-2.569 7.82-7.048 7.82a6.617 6.617 0 0 1-4.456-1.568zm3.683-8.89a2.446 2.446 0 0 0-2.66 2.273c0 1.615 1.342 2.32 2.797 2.32a3.808 3.808 0 0 0 2.955-1.41 3.102 3.102 0 0 0-3.092-3.183zm7.502 5.048a7.676 7.676 0 0 1 7.958-7.844 6.999 6.999 0 0 1 6.457 3.706l-2.774 1.364a4.153 4.153 0 0 0-3.683-2.206 4.992 4.992 0 0 0 0 9.959 4.11 4.11 0 0 0 3.683-2.206l2.774 1.342a7.038 7.038 0 0 1-6.457 3.729 7.677 7.677 0 0 1-7.958-7.844zM11.791 522.26h3.743a2.57 2.57 0 1 1 0 5.134h-2.04v2.866h-1.703zm3.515 1.464h-1.811v2.207h1.811a1.106 1.106 0 1 0 0-2.207zm3.697.743h1.524v.792a2.478 2.478 0 0 1 1.846-.923v1.487a2.02 2.02 0 0 0-.419-.036 1.93 1.93 0 0 0-1.427.648v3.825h-1.524zm3.708 2.891a2.934 2.934 0 0 1 3.058-3.034 3.04 3.04 0 1 1 0 6.08 2.937 2.937 0 0 1-3.058-3.046zm4.546 0a1.494 1.494 0 1 0-1.488 1.69 1.53 1.53 0 0 0 1.488-1.69zm5.173-3.034a2.67 2.67 0 0 1 2.29 1.055l-.995.923a1.435 1.435 0 0 0-1.224-.623 1.69 1.69 0 0 0 0 3.37 1.464 1.464 0 0 0 1.224-.624l.995.924a2.67 2.67 0 0 1-2.29 1.055 3.04 3.04 0 1 1 0-6.08zm5.676 0a2.904 2.904 0 0 1 2.902 3.19v.336h-4.306a1.56 1.56 0 0 0 1.668 1.343 2.372 2.372 0 0 0 1.547-.576l.671.984a3.572 3.572 0 0 1-2.386.803 3.04 3.04 0 1 1-.096-6.08zm-1.427 2.494h2.853a1.341 1.341 0 0 0-1.426-1.283 1.39 1.39 0 0 0-1.427 1.283zm5.351 1.619a3.315 3.315 0 0 0 2.004.792c.66 0 .971-.228.971-.588 0-.408-.504-.552-1.163-.683-.995-.192-2.278-.432-2.278-1.811 0-.972.851-1.823 2.374-1.823a3.641 3.641 0 0 1 2.327.791l-.6 1.044a2.443 2.443 0 0 0-1.715-.672c-.553 0-.912.204-.912.54 0 .36.455.491 1.104.624.995.192 2.326.455 2.326 1.895 0 1.067-.899 1.859-2.506 1.859a3.9 3.9 0 0 1-2.591-.9zm5.485 0a3.315 3.315 0 0 0 2.003.792c.66 0 .972-.228.972-.588 0-.408-.504-.552-1.165-.683-.995-.192-2.278-.432-2.278-1.811 0-.972.852-1.823 2.374-1.823a3.637 3.637 0 0 1 2.327.791l-.6 1.044a2.441 2.441 0 0 0-1.715-.672c-.551 0-.91.204-.91.54 0 .36.455.491 1.103.624.994.192 2.326.455 2.326 1.895 0 1.067-.9 1.859-2.507 1.859a3.904 3.904 0 0 1-2.59-.9zm10.857-4.113a2.67 2.67 0 0 1 2.291 1.055l-.995.923a1.435 1.435 0 0 0-1.223-.623 1.69 1.69 0 0 0 0 3.37 1.464 1.464 0 0 0 1.223-.624l.995.924a2.67 2.67 0 0 1-2.29 1.055 3.04 3.04 0 1 1 0-6.08zm2.678 3.034a3.064 3.064 0 1 1 3.059 3.046 2.934 2.934 0 0 1-3.059-3.046zm4.546 0a1.494 1.494 0 1 0-1.487 1.69 1.53 1.53 0 0 0 1.487-1.69zm2.474-5.098h1.523v8H68.07zm2.425 5.098a3.064 3.064 0 1 1 3.057 3.046 2.934 2.934 0 0 1-3.058-3.046zm4.545 0a1.494 1.494 0 1 0-1.488 1.69 1.53 1.53 0 0 0 1.488-1.69zm6.384 2.171a2.711 2.711 0 0 1-2.039.875 1.66 1.66 0 0 1-1.871-1.823v-4.114h1.523v3.515a.931.931 0 0 0 1.068 1.067 1.706 1.706 0 0 0 1.32-.66v-3.922h1.522v5.793h-1.523zm2.798-5.062h1.524v.792a2.478 2.478 0 0 1 1.846-.923v1.487a2.02 2.02 0 0 0-.419-.036 1.93 1.93 0 0 0-1.427.648v3.825h-1.524zm4.236 3.97a3.312 3.312 0 0 0 2.002.792c.66 0 .972-.228.972-.588 0-.408-.503-.552-1.163-.683-.996-.192-2.28-.432-2.28-1.811 0-.972.852-1.823 2.376-1.823a3.634 3.634 0 0 1 2.326.791l-.6 1.044a2.441 2.441 0 0 0-1.715-.672c-.55 0-.911.204-.911.54 0 .36.456.491 1.103.624.996.192 2.328.455 2.328 1.895 0 1.067-.9 1.859-2.508 1.859a3.899 3.899 0 0 1-2.59-.9zm7.788-1.079a3.064 3.064 0 1 1 3.058 3.046 2.934 2.934 0 0 1-3.058-3.046zm4.545 0a1.494 1.494 0 1 0-1.487 1.69 1.53 1.53 0 0 0 1.487-1.69zm6.384-.6a.94.94 0 0 0-1.066-1.08 1.652 1.652 0 0 0-1.32.684v3.898h-1.524v-5.793h1.523v.756a2.654 2.654 0 0 1 2.028-.9 1.685 1.685 0 0 1 1.882 1.847v4.09h-1.523zm9.11 2.902a2.4 2.4 0 0 1-1.836.744 1.93 1.93 0 0 1-2.015-1.919 1.834 1.834 0 0 1 2.015-1.847 2.345 2.345 0 0 1 1.836.708v-.804c0-.587-.504-.971-1.272-.971a2.44 2.44 0 0 0-1.691.683l-.577-1.02a3.801 3.801 0 0 1 2.532-.91c1.318 0 2.53.527 2.53 2.194v3.742h-1.523zm0-1.51a1.525 1.525 0 0 0-1.225-.504c-.6 0-1.09.324-1.09.875 0 .54.49.852 1.09.852a1.527 1.527 0 0 0 1.225-.504zm5.785.287a3.315 3.315 0 0 0 2.003.792c.66 0 .972-.228.972-.588 0-.408-.504-.552-1.165-.683-.995-.192-2.278-.432-2.278-1.811 0-.972.852-1.823 2.374-1.823a3.637 3.637 0 0 1 2.327.791l-.6 1.044a2.441 2.441 0 0 0-1.715-.672c-.551 0-.91.204-.91.54 0 .36.454.491 1.103.624.994.192 2.326.455 2.326 1.895 0 1.067-.9 1.859-2.507 1.859a3.904 3.904 0 0 1-2.59-.9zm5.328 4.03v-8h1.523v.732a2.236 2.236 0 0 1 1.787-.875c1.487 0 2.567 1.103 2.567 3.034s-1.08 3.046-2.567 3.046a2.213 2.213 0 0 1-1.787-.887v2.95zm2.83-6.788a1.705 1.705 0 0 0-1.307.66v2.05a1.742 1.742 0 0 0 1.307.66 1.702 1.702 0 0 0 0-3.37zm3.578 1.679a3.064 3.064 0 1 1 3.058 3.046 2.933 2.933 0 0 1-3.058-3.046zm4.545 0a1.494 1.494 0 1 0-1.487 1.69 1.529 1.529 0 0 0 1.487-1.69zm2.774 1.462v-3.02h-.96v-1.332h.96v-1.583h1.536v1.583h1.174v1.332h-1.174v2.614c0 .36.191.636.527.636a.835.835 0 0 0 .528-.168l.323 1.151a1.878 1.878 0 0 1-1.27.372 1.448 1.448 0 0 1-1.644-1.583zm9.046-4.496a2.67 2.67 0 0 1 2.291 1.055l-.995.923a1.435 1.435 0 0 0-1.223-.623 1.69 1.69 0 0 0 0 3.37 1.464 1.464 0 0 0 1.223-.624l.995.924a2.67 2.67 0 0 1-2.29 1.055 3.04 3.04 0 1 1 0-6.08zm2.678 3.034a3.064 3.064 0 1 1 3.059 3.046 2.934 2.934 0 0 1-3.059-3.046zm4.545 0a1.494 1.494 0 1 0-1.486 1.69 1.529 1.529 0 0 0 1.486-1.69zm2.475-5.098h1.523v8h-1.523zm2.423 5.098a3.064 3.064 0 1 1 3.059 3.046 2.934 2.934 0 0 1-3.059-3.046zm4.546 0a1.494 1.494 0 1 0-1.487 1.69 1.53 1.53 0 0 0 1.487-1.69zm6.384 2.171a2.711 2.711 0 0 1-2.039.875 1.66 1.66 0 0 1-1.871-1.823v-4.114h1.523v3.515a.932.932 0 0 0 1.069 1.067 1.704 1.704 0 0 0 1.318-.66v-3.922h1.524v5.793h-1.524zm2.798-5.062h1.524v.792a2.477 2.477 0 0 1 1.847-.923v1.487a2.03 2.03 0 0 0-.42-.036 1.929 1.929 0 0 0-1.427.648v3.825h-1.523zM11.791 535.544h1.703v6.5h3.382v1.499h-5.085zm5.845.444a.911.911 0 1 1 .911.91.919.919 0 0 1-.91-.91zm.155 1.762h1.524v5.793H17.79zm3.361 6.177a2.3 2.3 0 0 0 1.81.72 1.416 1.416 0 0 0 1.596-1.463v-.588a2.258 2.258 0 0 1-1.787.912c-1.451 0-2.555-1.02-2.555-2.95 0-1.895 1.09-2.95 2.555-2.95a2.233 2.233 0 0 1 1.787.887v-.745h1.535v5.397c0 2.207-1.703 2.746-3.13 2.746a3.487 3.487 0 0 1-2.495-.863zm3.406-4.306a1.654 1.654 0 0 0-1.309-.66 1.601 1.601 0 0 0 0 3.19 1.69 1.69 0 0 0 1.309-.66zm6.73.397c0-.804-.418-1.056-1.078-1.056a1.69 1.69 0 0 0-1.32.684v3.897h-1.523v-8h1.523v2.963a2.681 2.681 0 0 1 2.04-.9 1.667 1.667 0 0 1 1.882 1.823v4.114h-1.523zm3.099 2.086v-3.022h-.96v-1.332h.96v-1.583h1.535v1.583h1.175v1.331h-1.175v2.615c0 .36.192.635.528.635a.835.835 0 0 0 .528-.168l.323 1.152a1.878 1.878 0 0 1-1.27.372 1.448 1.448 0 0 1-1.644-1.583zm5.976-1.463a3.064 3.064 0 1 1 3.058 3.047 2.934 2.934 0 0 1-3.058-3.047zm4.546 0a1.494 1.494 0 1 0-1.488 1.691 1.53 1.53 0 0 0 1.488-1.69zm6.383-.599a.94.94 0 0 0-1.066-1.08 1.652 1.652 0 0 0-1.32.683v3.898h-1.524v-5.793h1.524v.756a2.654 2.654 0 0 1 2.027-.9 1.685 1.685 0 0 1 1.883 1.847v4.09h-1.524zm9.613 2.77a2.272 2.272 0 0 1-1.787.875c-1.463 0-2.567-1.103-2.567-3.034 0-1.895 1.091-3.046 2.567-3.046a2.232 2.232 0 0 1 1.787.887v-2.95h1.535v8h-1.535zm0-3.19a1.675 1.675 0 0 0-1.32-.66 1.702 1.702 0 0 0 0 3.37 1.675 1.675 0 0 0 1.32-.66zm6.288 3.322a2.396 2.396 0 0 1-1.835.744 1.93 1.93 0 0 1-2.015-1.92 1.835 1.835 0 0 1 2.015-1.847 2.34 2.34 0 0 1 1.835.708v-.803c0-.588-.504-.972-1.272-.972a2.437 2.437 0 0 0-1.69.684l-.575-1.02a3.798 3.798 0 0 1 2.53-.912c1.32 0 2.53.528 2.53 2.195v3.742h-1.523zm0-1.511a1.523 1.523 0 0 0-1.223-.504c-.6 0-1.092.324-1.092.875 0 .54.492.852 1.092.852a1.524 1.524 0 0 0 1.223-.504zm2.797-3.683h1.524v.791a2.478 2.478 0 0 1 1.847-.923v1.487a2.023 2.023 0 0 0-.42-.036 1.929 1.929 0 0 0-1.427.648v3.826H69.99zm6.3 3.563l-.697.743v1.487H74.07v-8h1.523v4.786l2.196-2.579h1.871l-2.291 2.627 2.363 3.166h-1.907z" class="cls-3"/><path d="M94.386 484.77a75.793 75.793 0 1 1 75.793-75.793 75.793 75.793 0 0 1-75.793 75.793z" class="cls-4"/><path d="M31.543 400.043a3.41 3.41 0 0 0 2.493 1.009c1.108 0 1.738-.63 1.738-1.401 0-.855-.616-1.429-1.68-1.429a2.693 2.693 0 0 0-1.962.77l-1.387-.378v-5.337h6.415v1.71h-4.467v2.339a3.219 3.219 0 0 1 2.1-.77 2.908 2.908 0 0 1 2.997 3.011c0 1.975-1.484 3.222-3.74 3.222a4.661 4.661 0 0 1-3.6-1.401zm10.797-6.905c2.66 0 3.864 2.409 3.864 4.818S45 402.79 42.34 402.79c-2.676 0-3.867-2.424-3.867-4.833s1.191-4.818 3.867-4.818zm0 1.764c-1.347 0-1.85 1.331-1.85 3.054s.503 3.068 1.85 3.068c1.33 0 1.833-1.345 1.833-3.068s-.504-3.054-1.834-3.054zm6.788-1.764a2.28 2.28 0 0 1 2.381 2.353 2.375 2.375 0 0 1-4.748 0 2.276 2.276 0 0 1 2.367-2.353zm0 1.106a1.232 1.232 0 0 0 0 2.451 1.232 1.232 0 0 0 0-2.45zm5.057-.967h1.064l-5.981 9.344h-1.05zm.084 4.847a2.288 2.288 0 0 1 2.38 2.353 2.374 2.374 0 1 1-2.38-2.353zm0 1.107a1.116 1.116 0 0 0-1.107 1.247 1.118 1.118 0 1 0 2.227 0 1.125 1.125 0 0 0-1.12-1.247zm12.691-1.275a4.73 4.73 0 0 1 4.903-4.832 4.31 4.31 0 0 1 3.978 2.283l-1.71.84a2.557 2.557 0 0 0-2.268-1.359 3.075 3.075 0 0 0 0 6.136 2.531 2.531 0 0 0 2.269-1.36l1.709.827a4.335 4.335 0 0 1-3.978 2.297 4.73 4.73 0 0 1-4.903-4.832z" class="cls-3"/><path d="M77.293 403.783a.897.897 0 0 0 .939-.49l.252-.574-2.745-6.864h1.905l1.765 4.707 1.764-4.707h1.92l-3.18 7.872a2.46 2.46 0 0 1-2.564 1.64 4.851 4.851 0 0 1-.882-.099l.267-1.596a1.535 1.535 0 0 0 .56.111zm10.377-1.863a2.802 2.802 0 0 1-2.144.868 2.253 2.253 0 0 1-2.353-2.241 2.142 2.142 0 0 1 2.353-2.157 2.735 2.735 0 0 1 2.143.827v-.939c0-.686-.588-1.135-1.484-1.135a2.848 2.848 0 0 0-1.976.799l-.673-1.19a4.438 4.438 0 0 1 2.957-1.065c1.54 0 2.956.616 2.956 2.563v4.37h-1.78zm0-1.765a1.78 1.78 0 0 0-1.43-.588c-.7 0-1.274.378-1.274 1.022 0 .63.574.995 1.275.995a1.78 1.78 0 0 0 1.428-.589zm7.826-1.625a1.098 1.098 0 0 0-1.248-1.26 1.924 1.924 0 0 0-1.54.798v4.552H90.93v-6.765h1.78v.882a3.096 3.096 0 0 1 2.367-1.05 1.968 1.968 0 0 1 2.199 2.157v4.777h-1.78zm-62.902 12.595l-1.54 1.583-1.135-1.191 2.942-2.956h1.736v9.343h-2.003zm6.987-2.704c2.661 0 3.866 2.41 3.866 4.819s-1.204 4.832-3.866 4.832c-2.675 0-3.867-2.423-3.867-4.832s1.192-4.819 3.867-4.819zm0 1.765c-1.345 0-1.85 1.33-1.85 3.054s.504 3.068 1.85 3.068c1.33 0 1.834-1.345 1.834-3.068s-.504-3.054-1.834-3.054zm8.399-1.765c2.662 0 3.867 2.41 3.867 4.819s-1.205 4.832-3.866 4.832c-2.675 0-3.866-2.423-3.866-4.832s1.191-4.819 3.866-4.819zm0 1.765c-1.344 0-1.848 1.33-1.848 3.054s.504 3.068 1.849 3.068c1.33 0 1.835-1.345 1.835-3.068s-.504-3.054-1.835-3.054zm6.79-1.765a2.28 2.28 0 0 1 2.382 2.353 2.376 2.376 0 0 1-4.75 0 2.276 2.276 0 0 1 2.368-2.353zm0 1.107a1.232 1.232 0 0 0 0 2.451 1.232 1.232 0 0 0 0-2.451zm5.057-.967h1.064l-5.981 9.343h-1.051zm.084 4.847a2.289 2.289 0 0 1 2.381 2.353 2.375 2.375 0 1 1-2.381-2.353zm0 1.107a1.116 1.116 0 0 0-1.107 1.246 1.118 1.118 0 1 0 2.227 0 1.125 1.125 0 0 0-1.12-1.246zm10.103-.435l-3.6-5.519h2.269l2.326 3.754 2.297-3.754h2.27l-3.572 5.519v3.824h-1.99zm7.435-3.11c2.017 0 3.39 1.513 3.39 3.727v.392H75.81a1.823 1.823 0 0 0 1.947 1.569 2.77 2.77 0 0 0 1.807-.673l.784 1.149a4.171 4.171 0 0 1-2.788.938 3.551 3.551 0 1 1-.111-7.101zm-1.667 2.914h3.334a1.567 1.567 0 0 0-1.667-1.499 1.626 1.626 0 0 0-1.667 1.5zm6.06-5.323h1.78v9.343h-1.78zm3.263 0h1.78v9.343h-1.78zm2.827 5.954a3.579 3.579 0 1 1 3.571 3.557 3.426 3.426 0 0 1-3.571-3.557zm5.31 0a1.746 1.746 0 1 0-1.738 1.975 1.786 1.786 0 0 0 1.738-1.975zm7.39-1.219l-1.428 4.608h-1.906l-2.058-6.765h1.85l1.26 4.552 1.485-4.552h1.583l1.485 4.552 1.26-4.552h1.85l-2.06 6.765h-1.89z" class="cls-3"/><path d="M242.77 652.11h188.77v258.42H242.77z" class="cls-6"/><path d="M337.158 822.29a75.793 75.793 0 1 1 75.793-75.793 75.793 75.793 0 0 1-75.793 75.793z" class="cls-5"/><path d="M255.272 835.332h7.094a4.87 4.87 0 1 1 0 9.731H258.5v5.434h-3.228zm6.662 2.773H258.5v4.184h3.434a2.096 2.096 0 1 0 0-4.184zm13.142 11.255a4.543 4.543 0 0 1-3.479 1.41 3.658 3.658 0 0 1-3.82-3.638c0-2.57 2.07-3.501 3.82-3.501a4.438 4.438 0 0 1 3.479 1.34v-1.522c0-1.114-.956-1.842-2.41-1.842a4.618 4.618 0 0 0-3.206 1.296l-1.091-1.933a7.202 7.202 0 0 1 4.797-1.727c2.5 0 4.797 1 4.797 4.16v7.094h-2.887zm0-2.865a2.888 2.888 0 0 0-2.32-.955c-1.136 0-2.068.614-2.068 1.66 0 1.023.932 1.614 2.068 1.614a2.888 2.888 0 0 0 2.32-.955zm12.709-2.637a1.782 1.782 0 0 0-2.024-2.046 3.128 3.128 0 0 0-2.5 1.295v7.39h-2.888v-10.981h2.887v1.432a5.027 5.027 0 0 1 3.843-1.705c2.41 0 3.57 1.363 3.57 3.501v7.753h-2.889zm5.865 3.911v-5.73h-1.818v-2.523h1.819v-3.001h2.91v3h2.228v2.524h-2.228v4.956c0 .683.363 1.205 1 1.205a1.578 1.578 0 0 0 1-.318l.614 2.183a3.562 3.562 0 0 1-2.41.705c-2.023 0-3.114-1.046-3.114-3.001zm5.958-2.774a5.81 5.81 0 1 1 5.798 5.774 5.561 5.561 0 0 1-5.798-5.774zm8.617 0a2.9 2.9 0 0 0-2.82-3.184c-1.795 0-2.796 1.479-2.796 3.184 0 1.728 1 3.205 2.797 3.205s2.819-1.477 2.819-3.205zm12.095-1.137a1.782 1.782 0 0 0-2.023-2.046 3.128 3.128 0 0 0-2.501 1.295v7.39h-2.888v-10.981h2.888v1.432a5.027 5.027 0 0 1 3.842-1.705c2.41 0 3.57 1.363 3.57 3.501v7.753h-2.888zm10.277-4.615c3.274 0 5.502 2.455 5.502 6.047v.637h-8.162a2.96 2.96 0 0 0 3.16 2.547 4.49 4.49 0 0 0 2.933-1.092l1.273 1.864a6.767 6.767 0 0 1-4.524 1.524 5.764 5.764 0 1 1-.182-11.527zm-2.706 4.729h5.411a2.544 2.544 0 0 0-2.705-2.433 2.64 2.64 0 0 0-2.706 2.433zm15.916 2.251a6.04 6.04 0 0 0 4.183 1.727c1.842 0 2.865-.796 2.865-1.955 0-1.228-.932-1.796-3.047-1.796-.636 0-1.659 0-1.886.023v-2.82c.272.024 1.295.024 1.886.024 1.683 0 2.797-.546 2.797-1.683 0-1.205-1.227-1.82-2.82-1.82a5.491 5.491 0 0 0-3.864 1.593l-1.592-2.001a7.466 7.466 0 0 1 5.798-2.41c3.547 0 5.73 1.591 5.73 4.115a3.72 3.72 0 0 1-3.32 3.456 3.805 3.805 0 0 1 3.547 3.638c0 2.614-2.342 4.456-5.98 4.456a7.578 7.578 0 0 1-5.98-2.433zm18.938-8.049h-7.64v-2.842h11.391v2.251l-5.638 12.914h-3.546zm11.596-3.069a6.838 6.838 0 0 1 4.479 1.569l-1.455 2.432a4.036 4.036 0 0 0-3.024-1.205c-2.297 0-3.797 1.978-3.797 4.388a1.412 1.412 0 0 0 .023.318 4.916 4.916 0 0 1 3.887-1.932c2.729 0 5.162 1.66 5.162 4.889 0 2.955-2.342 5.206-5.798 5.206-4.616 0-6.548-3.547-6.548-7.822 0-4.592 2.592-7.843 7.071-7.843zm-.818 8.252a3.89 3.89 0 0 0-2.956 1.456c.136 1.455.955 3.137 3.092 3.137a2.439 2.439 0 0 0 2.683-2.25c0-1.638-1.342-2.343-2.82-2.343zm7.116-.431a7.676 7.676 0 0 1 7.957-7.844 6.998 6.998 0 0 1 6.457 3.706l-2.773 1.364a4.155 4.155 0 0 0-3.684-2.206 4.992 4.992 0 0 0 0 9.96 4.111 4.111 0 0 0 3.684-2.207l2.773 1.342a7.038 7.038 0 0 1-6.457 3.729 7.676 7.676 0 0 1-7.957-7.844zm-125.692 22.431a3.509 3.509 0 0 0 2.543 1.08c.935 0 1.391-.444 1.391-.899 0-.6-.696-.804-1.619-1.02-1.307-.3-2.986-.66-2.986-2.447 0-1.331 1.151-2.41 3.034-2.41a4.45 4.45 0 0 1 3.118 1.115l-.947 1.247a3.415 3.415 0 0 0-2.291-.875c-.768 0-1.176.336-1.176.815 0 .54.672.707 1.596.923 1.32.301 2.998.697 2.998 2.471 0 1.464-1.043 2.567-3.202 2.567a4.61 4.61 0 0 1-3.395-1.271zm6.54 4.63v-8h1.523v.733a2.236 2.236 0 0 1 1.787-.876c1.487 0 2.566 1.103 2.566 3.034s-1.079 3.047-2.566 3.047a2.214 2.214 0 0 1-1.787-.888v2.95zm2.83-6.788a1.708 1.708 0 0 0-1.307.66v2.05a1.743 1.743 0 0 0 1.308.66 1.702 1.702 0 0 0 0-3.37zm3.578 1.679a3.064 3.064 0 1 1 3.059 3.047 2.934 2.934 0 0 1-3.06-3.047zm4.546 0a1.494 1.494 0 1 0-1.487 1.691 1.529 1.529 0 0 0 1.487-1.691zm2.773 1.462v-3.02h-.959v-1.333h.96v-1.583h1.534v1.583h1.176v1.332h-1.176v2.615c0 .359.193.635.529.635a.832.832 0 0 0 .527-.168l.324 1.152a1.88 1.88 0 0 1-1.271.372 1.448 1.448 0 0 1-1.644-1.584zm9.047-4.496a2.67 2.67 0 0 1 2.291 1.055l-.995.923a1.435 1.435 0 0 0-1.224-.623 1.69 1.69 0 0 0 0 3.37 1.464 1.464 0 0 0 1.224-.624l.995.924a2.67 2.67 0 0 1-2.29 1.056 3.04 3.04 0 1 1 0-6.081zm2.678 3.034a3.064 3.064 0 1 1 3.058 3.047 2.934 2.934 0 0 1-3.058-3.047zm4.546 0a1.494 1.494 0 1 0-1.488 1.691 1.529 1.529 0 0 0 1.488-1.691zm2.473-5.097h1.524v8h-1.524zm2.424 5.097a3.064 3.064 0 1 1 3.059 3.047 2.934 2.934 0 0 1-3.059-3.047zm4.546 0a1.494 1.494 0 1 0-1.487 1.691 1.529 1.529 0 0 0 1.487-1.691zm6.384 2.171a2.711 2.711 0 0 1-2.04.876 1.66 1.66 0 0 1-1.87-1.823v-4.115h1.523v3.515a.931.931 0 0 0 1.067 1.067 1.705 1.705 0 0 0 1.32-.66v-3.922h1.523v5.793h-1.523zm2.798-5.062h1.523v.792a2.48 2.48 0 0 1 1.847-.923v1.487a2.047 2.047 0 0 0-.419-.036 1.931 1.931 0 0 0-1.427.648v3.825h-1.524zm6.54 2.891a3.064 3.064 0 1 1 3.058 3.047 2.934 2.934 0 0 1-3.057-3.047zm4.546 0a1.494 1.494 0 1 0-1.488 1.691 1.528 1.528 0 0 0 1.488-1.691zm6.384-.6a.94.94 0 0 0-1.068-1.079 1.65 1.65 0 0 0-1.32.684v3.897h-1.523v-5.793h1.524v.756a2.654 2.654 0 0 1 2.027-.9 1.685 1.685 0 0 1 1.883 1.847v4.09h-1.524zm5.786 1.679a3.312 3.312 0 0 0 2.002.792c.66 0 .972-.228.972-.588 0-.407-.504-.552-1.163-.683-.996-.192-2.28-.432-2.28-1.811 0-.972.852-1.823 2.376-1.823a3.636 3.636 0 0 1 2.326.792l-.6 1.043a2.441 2.441 0 0 0-1.715-.672c-.552 0-.91.204-.91.54 0 .36.454.491 1.103.624.995.191 2.326.455 2.326 1.894 0 1.068-.9 1.86-2.507 1.86a3.899 3.899 0 0 1-2.59-.9zm5.328 4.03v-8h1.523v.733a2.235 2.235 0 0 1 1.787-.876c1.486 0 2.567 1.103 2.567 3.034s-1.08 3.047-2.567 3.047a2.214 2.214 0 0 1-1.787-.888v2.95zm2.83-6.788a1.708 1.708 0 0 0-1.307.66v2.05a1.743 1.743 0 0 0 1.307.66 1.702 1.702 0 0 0 0-3.37zm3.578 1.679a3.064 3.064 0 1 1 3.058 3.047 2.934 2.934 0 0 1-3.058-3.047zm4.545 0a1.494 1.494 0 1 0-1.488 1.691 1.528 1.528 0 0 0 1.488-1.691zm2.774 1.462v-3.02h-.96v-1.333h.96v-1.583h1.535v1.583h1.176v1.332h-1.176v2.615c0 .359.192.635.528.635a.833.833 0 0 0 .528-.168l.323 1.152a1.878 1.878 0 0 1-1.27.372 1.448 1.448 0 0 1-1.644-1.584zm9.047-4.496a2.667 2.667 0 0 1 2.29 1.055l-.995.923a1.432 1.432 0 0 0-1.224-.623 1.69 1.69 0 0 0 0 3.37 1.461 1.461 0 0 0 1.224-.624l.995.924a2.667 2.667 0 0 1-2.29 1.056 3.04 3.04 0 1 1 0-6.081zm2.678 3.034a3.064 3.064 0 1 1 3.057 3.047 2.934 2.934 0 0 1-3.057-3.047zm4.545 0a1.494 1.494 0 1 0-1.488 1.691 1.528 1.528 0 0 0 1.488-1.691zm2.474-5.097h1.524v8h-1.524zm2.425 5.097a3.064 3.064 0 1 1 3.058 3.047 2.934 2.934 0 0 1-3.059-3.047zm4.545 0a1.494 1.494 0 1 0-1.487 1.691 1.529 1.529 0 0 0 1.487-1.691zm6.384 2.171a2.711 2.711 0 0 1-2.04.876 1.66 1.66 0 0 1-1.87-1.823v-4.115h1.523v3.515a.931.931 0 0 0 1.067 1.067 1.705 1.705 0 0 0 1.32-.66v-3.922h1.523v5.793h-1.523zm2.798-5.062h1.523v.792a2.477 2.477 0 0 1 1.847-.923v1.487a2.064 2.064 0 0 0-.42-.036 1.929 1.929 0 0 0-1.427.648v3.825h-1.524zm-132.754 11.077h3.154a4.007 4.007 0 1 1 0 8h-3.154zm3.154 6.5a2.395 2.395 0 0 0 2.507-2.494 2.34 2.34 0 0 0-2.507-2.506h-1.451v5zm8.664.9a2.396 2.396 0 0 1-1.835.744 1.93 1.93 0 0 1-2.014-1.919 1.835 1.835 0 0 1 2.014-1.848 2.341 2.341 0 0 1 1.835.708v-.803c0-.588-.504-.972-1.271-.972a2.439 2.439 0 0 0-1.69.684l-.577-1.02a3.803 3.803 0 0 1 2.53-.912c1.32 0 2.532.528 2.532 2.195v3.742h-1.524zm0-1.51a1.523 1.523 0 0 0-1.223-.505c-.6 0-1.091.324-1.091.875 0 .54.491.852 1.09.852a1.526 1.526 0 0 0 1.224-.503zm2.799-3.684h1.522v.792a2.477 2.477 0 0 1 1.847-.923v1.487a2.064 2.064 0 0 0-.42-.036 1.929 1.929 0 0 0-1.427.648v3.825h-1.523zm6.297 3.563l-.695.743v1.487h-1.524v-7.999h1.524v4.786l2.195-2.58h1.871l-2.291 2.628 2.362 3.166h-1.907zm6.422-.672a3.064 3.064 0 1 1 3.058 3.047 2.934 2.934 0 0 1-3.058-3.047zm4.546 0a1.494 1.494 0 1 0-1.488 1.692 1.529 1.529 0 0 0 1.488-1.692zm6.384-.599a.94.94 0 0 0-1.068-1.08 1.65 1.65 0 0 0-1.32.684v3.897h-1.523v-5.793h1.524v.756a2.654 2.654 0 0 1 2.027-.899 1.685 1.685 0 0 1 1.883 1.847v4.09h-1.523zm5.629-4.498h1.524v8h-1.524zm2.64.444a.912.912 0 1 1 .912.91.919.919 0 0 1-.912-.91zm.156 1.762h1.524v5.793h-1.524zm3.36 6.177a2.303 2.303 0 0 0 1.811.72 1.415 1.415 0 0 0 1.595-1.463v-.587a2.254 2.254 0 0 1-1.787.91c-1.451 0-2.555-1.02-2.555-2.95 0-1.894 1.092-2.95 2.555-2.95a2.231 2.231 0 0 1 1.787.888v-.744h1.535v5.398c0 2.207-1.703 2.746-3.13 2.746a3.49 3.49 0 0 1-2.495-.863zm3.406-4.305a1.652 1.652 0 0 0-1.308-.66 1.601 1.601 0 0 0 0 3.19 1.687 1.687 0 0 0 1.308-.66zm6.731.396c0-.804-.418-1.056-1.079-1.056a1.687 1.687 0 0 0-1.319.684v3.897h-1.523v-7.999h1.523v2.962a2.683 2.683 0 0 1 2.04-.899 1.668 1.668 0 0 1 1.882 1.823v4.113h-1.523zm3.099 2.086v-3.022h-.96v-1.331h.96v-1.583h1.535v1.583h1.176v1.332h-1.176v2.614c0 .36.192.636.528.636a.833.833 0 0 0 .528-.168l.323 1.15a1.878 1.878 0 0 1-1.27.373 1.448 1.448 0 0 1-1.644-1.584zM273.221 740.41h4.37a3 3 0 1 1 0 5.994h-2.381v3.348h-1.99zm4.105 1.708h-2.116v2.577h2.115a1.291 1.291 0 1 0 0-2.577zm8.091 6.934a2.8 2.8 0 0 1-2.142.868 2.253 2.253 0 0 1-2.354-2.241 2.143 2.143 0 0 1 2.354-2.157 2.732 2.732 0 0 1 2.142.827v-.939c0-.686-.587-1.135-1.484-1.135a2.847 2.847 0 0 0-1.976.798l-.671-1.19a4.436 4.436 0 0 1 2.955-1.064c1.54 0 2.956.616 2.956 2.563v4.37h-1.78zm0-1.765a1.778 1.778 0 0 0-1.428-.589c-.7 0-1.275.38-1.275 1.023 0 .63.574.995 1.275.995a1.778 1.778 0 0 0 1.428-.589zm7.826-1.625a1.098 1.098 0 0 0-1.247-1.26 1.925 1.925 0 0 0-1.54.798v4.552h-1.779v-6.766h1.78v.883a3.096 3.096 0 0 1 2.367-1.05 1.968 1.968 0 0 1 2.199 2.157v4.776h-1.78zm3.61 2.409v-3.53h-1.12v-1.554h1.12v-1.849h1.793v1.849h1.373v1.554h-1.373v3.054c0 .42.224.743.616.743a.972.972 0 0 0 .616-.196l.38 1.345a2.199 2.199 0 0 1-1.486.433 1.69 1.69 0 0 1-1.92-1.849zm3.667-1.709a3.579 3.579 0 1 1 3.572 3.558 3.427 3.427 0 0 1-3.571-3.558zm5.31 0a1.745 1.745 0 1 0-1.738 1.976 1.785 1.785 0 0 0 1.738-1.976zm7.447-.7a1.098 1.098 0 0 0-1.246-1.26 1.927 1.927 0 0 0-1.541.798v4.552h-1.78v-6.766h1.78v.883a3.098 3.098 0 0 1 2.367-1.05 1.968 1.968 0 0 1 2.2 2.157v4.776h-1.78zm6.328-2.844c2.016 0 3.39 1.513 3.39 3.727v.392h-5.03a1.824 1.824 0 0 0 1.948 1.569 2.77 2.77 0 0 0 1.807-.673l.785 1.148a4.168 4.168 0 0 1-2.788.939 3.551 3.551 0 1 1-.112-7.102zm-1.667 2.915h3.334a1.567 1.567 0 0 0-1.667-1.5 1.626 1.626 0 0 0-1.667 1.5zm9.799 1.387a3.723 3.723 0 0 0 2.577 1.064c1.135 0 1.765-.49 1.765-1.206 0-.755-.574-1.106-1.877-1.106-.392 0-1.023 0-1.163.014v-1.737c.168.014.8.014 1.163.014 1.036 0 1.723-.336 1.723-1.036 0-.743-.757-1.121-1.737-1.121a3.385 3.385 0 0 0-2.381.98l-.98-1.232a4.596 4.596 0 0 1 3.571-1.485c2.186 0 3.53.98 3.53 2.535a2.291 2.291 0 0 1-2.045 2.13 2.344 2.344 0 0 1 2.185 2.24c0 1.612-1.443 2.746-3.684 2.746a4.669 4.669 0 0 1-3.683-1.498zm11.44.7h-4.469v-1.57l3.712-5.84h2.745v5.658h1.205v1.751h-1.205v1.933h-1.988zm-2.521-1.752h2.521v-3.894zm7.6 1.387a2.526 2.526 0 0 0 1.864.714 2.442 2.442 0 0 0 2.34-2.69v-.195a3.091 3.091 0 0 1-2.41 1.204 2.967 2.967 0 0 1-3.194-3.025 3.293 3.293 0 0 1 3.586-3.208c2.83 0 4.02 2.185 4.02 4.833 0 2.815-1.583 4.818-4.342 4.818a4.074 4.074 0 0 1-2.745-.966zm2.27-5.477a1.508 1.508 0 0 0-1.639 1.401c0 .994.827 1.429 1.723 1.429a2.349 2.349 0 0 0 1.821-.868 1.913 1.913 0 0 0-1.905-1.963zm4.618 3.11a4.73 4.73 0 0 1 4.902-4.833 4.312 4.312 0 0 1 3.979 2.283l-1.71.84a2.558 2.558 0 0 0-2.27-1.358 3.075 3.075 0 0 0 0 6.135 2.533 2.533 0 0 0 2.27-1.358l1.71.826a4.336 4.336 0 0 1-3.979 2.297 4.729 4.729 0 0 1-4.902-4.832z" class="cls-3"/><path d="M0 652.11h188.77v258.42H0z" class="cls-5"/><path d="M12.5 835.332h7.094a4.87 4.87 0 1 1 0 9.731h-3.865v5.434H12.5zm6.661 2.773H15.73v4.184h3.433a2.096 2.096 0 1 0 0-4.184zm13.143 11.255a4.546 4.546 0 0 1-3.478 1.41 3.659 3.659 0 0 1-3.82-3.638c0-2.57 2.069-3.501 3.82-3.501a4.438 4.438 0 0 1 3.478 1.34v-1.522c0-1.114-.955-1.842-2.41-1.842a4.62 4.62 0 0 0-3.206 1.296l-1.09-1.933a7.2 7.2 0 0 1 4.796-1.727c2.501 0 4.797 1 4.797 4.16v7.094h-2.887zm0-2.865a2.89 2.89 0 0 0-2.32-.955c-1.136 0-2.069.614-2.069 1.66 0 1.023.933 1.614 2.07 1.614a2.89 2.89 0 0 0 2.32-.955zm12.709-2.637a1.782 1.782 0 0 0-2.023-2.046 3.128 3.128 0 0 0-2.501 1.295v7.39H37.6v-10.981h2.888v1.432a5.024 5.024 0 0 1 3.842-1.705c2.41 0 3.569 1.363 3.569 3.501v7.753h-2.887zm5.867 3.911v-5.73h-1.82v-2.523h1.82v-3.001h2.91v3h2.227v2.524h-2.228v4.956c0 .683.364 1.205 1 1.205a1.577 1.577 0 0 0 1-.318l.615 2.183a3.563 3.563 0 0 1-2.41.705c-2.024 0-3.115-1.046-3.115-3.001zm5.956-2.774a5.809 5.809 0 1 1 5.797 5.774 5.561 5.561 0 0 1-5.797-5.774zm8.617 0a2.899 2.899 0 0 0-2.82-3.184c-1.796 0-2.796 1.479-2.796 3.184 0 1.728 1 3.205 2.796 3.205s2.82-1.477 2.82-3.205zm12.095-1.137a1.782 1.782 0 0 0-2.023-2.046 3.128 3.128 0 0 0-2.501 1.295v7.39h-2.888v-10.981h2.888v1.432a5.024 5.024 0 0 1 3.842-1.705c2.41 0 3.569 1.363 3.569 3.501v7.753h-2.887zm10.277-4.615c3.274 0 5.502 2.455 5.502 6.047v.637h-8.163a2.96 2.96 0 0 0 3.16 2.547 4.49 4.49 0 0 0 2.934-1.092l1.272 1.864a6.765 6.765 0 0 1-4.524 1.524 5.764 5.764 0 1 1-.182-11.527zm-2.705 4.729h5.411a2.544 2.544 0 0 0-2.706-2.433 2.639 2.639 0 0 0-2.705 2.433zm15.915 2.251a6.042 6.042 0 0 0 4.183 1.727c1.842 0 2.864-.796 2.864-1.955 0-1.227-.931-1.796-3.045-1.796-.637 0-1.66 0-1.888.023v-2.82c.273.024 1.296.024 1.888.024 1.682 0 2.795-.546 2.795-1.683 0-1.205-1.227-1.82-2.819-1.82a5.49 5.49 0 0 0-3.864 1.593l-1.592-2.001a7.465 7.465 0 0 1 5.798-2.41c3.547 0 5.73 1.592 5.73 4.115a3.72 3.72 0 0 1-3.32 3.456 3.805 3.805 0 0 1 3.546 3.638c0 2.614-2.341 4.456-5.98 4.456a7.58 7.58 0 0 1-5.979-2.433zm18.575 1.137h-7.253v-2.547l6.026-9.48h4.456v9.185h1.955v2.842h-1.955v3.138h-3.229zm-4.093-2.842h4.093v-6.32zm12.346 2.251a4.096 4.096 0 0 0 3.024 1.159c2.433 0 3.797-2.07 3.797-4.365v-.319a5.015 5.015 0 0 1-3.911 1.955c-2.728 0-5.184-1.682-5.184-4.91 0-2.956 2.365-5.207 5.82-5.207 4.593 0 6.526 3.547 6.526 7.844 0 4.57-2.57 7.821-7.048 7.821a6.617 6.617 0 0 1-4.456-1.57zm3.683-8.89a2.446 2.446 0 0 0-2.66 2.273c0 1.614 1.342 2.318 2.797 2.318a3.808 3.808 0 0 0 2.955-1.409 3.102 3.102 0 0 0-3.092-3.182zm7.502 5.047a7.676 7.676 0 0 1 7.958-7.844 7 7 0 0 1 6.457 3.706l-2.774 1.364a4.153 4.153 0 0 0-3.683-2.206 4.992 4.992 0 0 0 0 9.96 4.11 4.11 0 0 0 3.683-2.207l2.774 1.342a7.04 7.04 0 0 1-6.457 3.729 7.676 7.676 0 0 1-7.958-7.844zM12.175 865.357a3.507 3.507 0 0 0 2.542 1.08c.936 0 1.392-.444 1.392-.899 0-.6-.696-.804-1.62-1.02-1.307-.3-2.986-.66-2.986-2.447 0-1.331 1.152-2.41 3.035-2.41a4.449 4.449 0 0 1 3.118 1.115l-.947 1.247a3.412 3.412 0 0 0-2.291-.875c-.768 0-1.175.336-1.175.815 0 .54.672.707 1.594.923 1.32.301 3 .697 3 2.471 0 1.464-1.044 2.567-3.204 2.567a4.607 4.607 0 0 1-3.393-1.271zm6.54 4.63v-8h1.524v.733a2.235 2.235 0 0 1 1.787-.876c1.486 0 2.566 1.103 2.566 3.034s-1.08 3.047-2.566 3.047a2.214 2.214 0 0 1-1.787-.888v2.95zm2.83-6.788a1.708 1.708 0 0 0-1.306.66v2.05a1.743 1.743 0 0 0 1.306.66 1.702 1.702 0 0 0 0-3.37zm3.578 1.679a3.064 3.064 0 1 1 3.058 3.047 2.934 2.934 0 0 1-3.058-3.047zm4.545 0a1.494 1.494 0 1 0-1.487 1.691 1.528 1.528 0 0 0 1.487-1.691zm2.775 1.462v-3.02h-.96v-1.333h.96v-1.583h1.535v1.583h1.176v1.332h-1.176v2.615c0 .359.192.635.527.635a.833.833 0 0 0 .528-.168l.324 1.152a1.878 1.878 0 0 1-1.27.372 1.448 1.448 0 0 1-1.644-1.584zm9.047-4.496a2.667 2.667 0 0 1 2.29 1.055l-.995.923a1.432 1.432 0 0 0-1.224-.623 1.69 1.69 0 0 0 0 3.37 1.461 1.461 0 0 0 1.224-.624l.995.924a2.667 2.667 0 0 1-2.29 1.056 3.04 3.04 0 1 1 0-6.081zm2.677 3.034a3.064 3.064 0 1 1 3.058 3.047 2.934 2.934 0 0 1-3.058-3.047zm4.545 0a1.494 1.494 0 1 0-1.487 1.691 1.528 1.528 0 0 0 1.487-1.691zm2.474-5.097h1.523v8h-1.523zm2.424 5.097a3.064 3.064 0 1 1 3.058 3.047 2.934 2.934 0 0 1-3.057-3.047zm4.546 0a1.494 1.494 0 1 0-1.488 1.691 1.528 1.528 0 0 0 1.488-1.691zm6.384 2.171a2.715 2.715 0 0 1-2.04.876 1.66 1.66 0 0 1-1.87-1.823v-4.115h1.523v3.515a.931.931 0 0 0 1.068 1.067 1.706 1.706 0 0 0 1.319-.66v-3.922h1.522v5.793H64.54zm2.798-5.062h1.524v.792a2.477 2.477 0 0 1 1.846-.923v1.487a2.064 2.064 0 0 0-.42-.036 1.929 1.929 0 0 0-1.426.648v3.825h-1.524zm6.54 2.891a3.064 3.064 0 1 1 3.059 3.047 2.934 2.934 0 0 1-3.059-3.047zm4.546 0a1.494 1.494 0 1 0-1.487 1.691 1.529 1.529 0 0 0 1.487-1.691zm6.384-.6a.94.94 0 0 0-1.067-1.079 1.65 1.65 0 0 0-1.32.684v3.897h-1.523v-5.793h1.523v.756a2.652 2.652 0 0 1 2.027-.9 1.685 1.685 0 0 1 1.882 1.847v4.09h-1.522zm5.786 1.679a3.31 3.31 0 0 0 2.003.792c.66 0 .97-.228.97-.588 0-.407-.502-.552-1.162-.683-.996-.192-2.279-.432-2.279-1.811 0-.972.852-1.823 2.374-1.823a3.64 3.64 0 0 1 2.327.792l-.6 1.043a2.443 2.443 0 0 0-1.714-.672c-.552 0-.913.204-.913.54 0 .36.457.491 1.104.624.995.191 2.327.455 2.327 1.894 0 1.068-.9 1.86-2.507 1.86a3.902 3.902 0 0 1-2.59-.9zm5.327 4.03v-8h1.524v.733a2.238 2.238 0 0 1 1.787-.876c1.487 0 2.566 1.103 2.566 3.034s-1.079 3.047-2.566 3.047a2.214 2.214 0 0 1-1.787-.888v2.95zm2.831-6.788a1.708 1.708 0 0 0-1.307.66v2.05a1.743 1.743 0 0 0 1.307.66 1.702 1.702 0 0 0 0-3.37zm3.578 1.679a3.064 3.064 0 1 1 3.058 3.047 2.934 2.934 0 0 1-3.059-3.047zm4.545 0a1.494 1.494 0 1 0-1.487 1.691 1.529 1.529 0 0 0 1.487-1.691zm2.775 1.462v-3.02h-.96v-1.333h.96v-1.583h1.535v1.583h1.175v1.332h-1.175v2.615c0 .359.192.635.527.635a.832.832 0 0 0 .528-.168l.324 1.152a1.879 1.879 0 0 1-1.272.372 1.448 1.448 0 0 1-1.642-1.584zm9.046-4.496a2.67 2.67 0 0 1 2.29 1.055l-.994.923a1.435 1.435 0 0 0-1.224-.623 1.69 1.69 0 0 0 0 3.37 1.464 1.464 0 0 0 1.224-.624l.995.924a2.67 2.67 0 0 1-2.291 1.056 3.04 3.04 0 1 1 0-6.081zm2.677 3.034a3.064 3.064 0 1 1 3.059 3.047 2.934 2.934 0 0 1-3.059-3.047zm4.546 0a1.494 1.494 0 1 0-1.487 1.691 1.529 1.529 0 0 0 1.487-1.691zm2.474-5.097h1.523v8h-1.523zm2.425 5.097a3.064 3.064 0 1 1 3.057 3.047 2.934 2.934 0 0 1-3.057-3.047zm4.545 0a1.494 1.494 0 1 0-1.488 1.691 1.528 1.528 0 0 0 1.488-1.691zm6.384 2.171a2.715 2.715 0 0 1-2.039.876 1.66 1.66 0 0 1-1.87-1.823v-4.115h1.523v3.515a.931.931 0 0 0 1.067 1.067 1.706 1.706 0 0 0 1.32-.66v-3.922h1.522v5.793h-1.522zm2.797-5.062h1.524v.792a2.48 2.48 0 0 1 1.847-.923v1.487a2.064 2.064 0 0 0-.42-.036 1.931 1.931 0 0 0-1.427.648v3.825h-1.524zM11.791 875.064h1.703v6.5h3.382v1.5h-5.085zm5.844.444a.912.912 0 1 1 .912.91.919.919 0 0 1-.912-.91zm.156 1.762h1.524v5.793H17.79zm3.359 6.177a2.304 2.304 0 0 0 1.812.72 1.415 1.415 0 0 0 1.595-1.463v-.587a2.254 2.254 0 0 1-1.787.91c-1.451 0-2.555-1.02-2.555-2.95 0-1.894 1.092-2.95 2.555-2.95a2.231 2.231 0 0 1 1.787.888v-.744h1.535v5.398c0 2.207-1.703 2.746-3.13 2.746a3.49 3.49 0 0 1-2.495-.863zm3.407-4.305a1.652 1.652 0 0 0-1.308-.66 1.601 1.601 0 0 0 0 3.19 1.687 1.687 0 0 0 1.308-.66zm6.731.396c0-.804-.418-1.056-1.079-1.056a1.687 1.687 0 0 0-1.319.684v3.897h-1.523v-7.999h1.523v2.962a2.683 2.683 0 0 1 2.04-.899 1.668 1.668 0 0 1 1.882 1.823v4.113h-1.523zm3.099 2.086v-3.022h-.96v-1.331h.96v-1.583h1.535v1.583h1.175v1.332h-1.175v2.614c0 .36.192.636.528.636a.832.832 0 0 0 .527-.168l.324 1.15a1.879 1.879 0 0 1-1.271.373 1.448 1.448 0 0 1-1.643-1.584zm5.976-1.463a3.064 3.064 0 1 1 3.058 3.047 2.934 2.934 0 0 1-3.058-3.047zm4.546 0a1.494 1.494 0 1 0-1.488 1.692 1.529 1.529 0 0 0 1.488-1.692zm6.383-.599a.94.94 0 0 0-1.067-1.08 1.65 1.65 0 0 0-1.32.684v3.897h-1.523v-5.793h1.524v.756a2.656 2.656 0 0 1 2.027-.899 1.685 1.685 0 0 1 1.883 1.847v4.09h-1.524zm9.613 2.77a2.274 2.274 0 0 1-1.787.876c-1.463 0-2.567-1.103-2.567-3.035 0-1.895 1.091-3.046 2.567-3.046a2.231 2.231 0 0 1 1.787.888v-2.95h1.535v7.999h-1.535zm0-3.19a1.675 1.675 0 0 0-1.32-.66 1.702 1.702 0 0 0 0 3.37 1.675 1.675 0 0 0 1.32-.66zm6.288 3.322a2.396 2.396 0 0 1-1.835.744 1.93 1.93 0 0 1-2.015-1.919 1.835 1.835 0 0 1 2.015-1.848 2.341 2.341 0 0 1 1.835.708v-.803c0-.588-.504-.972-1.272-.972a2.439 2.439 0 0 0-1.69.684l-.576-1.02a3.803 3.803 0 0 1 2.53-.912c1.32 0 2.531.528 2.531 2.195v3.742h-1.523zm0-1.51a1.523 1.523 0 0 0-1.224-.505c-.6 0-1.09.324-1.09.875 0 .54.49.852 1.09.852a1.526 1.526 0 0 0 1.224-.503zm2.797-3.684h1.524v.792a2.477 2.477 0 0 1 1.847-.923v1.487a2.064 2.064 0 0 0-.42-.036 1.929 1.929 0 0 0-1.427.648v3.825H69.99zm6.3 3.563l-.697.743v1.487H74.07v-7.999h1.523v4.786l2.196-2.58h1.871l-2.291 2.628 2.362 3.166h-1.906z" class="cls-3"/><path d="M94.386 822.29a75.793 75.793 0 1 1 75.793-75.793 75.793 75.793 0 0 1-75.793 75.793z" class="cls-6"/><path d="M30.689 740.41h4.371a3 3 0 1 1 0 5.994h-2.382v3.348h-1.99zm4.104 1.708h-2.115v2.577h2.115a1.291 1.291 0 1 0 0-2.577zm8.093 6.934a2.804 2.804 0 0 1-2.144.868 2.253 2.253 0 0 1-2.353-2.241 2.143 2.143 0 0 1 2.353-2.157 2.735 2.735 0 0 1 2.144.827v-.939c0-.686-.589-1.135-1.485-1.135a2.847 2.847 0 0 0-1.976.798l-.672-1.19a4.436 4.436 0 0 1 2.955-1.064c1.541 0 2.956.616 2.956 2.563v4.37h-1.778zm0-1.765a1.782 1.782 0 0 0-1.43-.589c-.7 0-1.274.38-1.274 1.023 0 .63.574.995 1.274.995a1.782 1.782 0 0 0 1.43-.589zm7.825-1.625a1.098 1.098 0 0 0-1.247-1.26 1.927 1.927 0 0 0-1.54.798v4.552h-1.78v-6.766h1.78v.883a3.098 3.098 0 0 1 2.367-1.05 1.968 1.968 0 0 1 2.2 2.157v4.776h-1.78zm3.609 2.409v-3.53H53.2v-1.554h1.12v-1.849h1.794v1.849h1.373v1.554h-1.373v3.054c0 .42.224.743.616.743a.977.977 0 0 0 .617-.196l.378 1.345a2.199 2.199 0 0 1-1.485.433 1.69 1.69 0 0 1-1.92-1.849zm3.669-1.709a3.579 3.579 0 1 1 3.571 3.558 3.427 3.427 0 0 1-3.571-3.558zm5.31 0a1.746 1.746 0 1 0-1.739 1.976 1.786 1.786 0 0 0 1.738-1.976zm7.447-.7a1.098 1.098 0 0 0-1.248-1.26 1.924 1.924 0 0 0-1.54.798v4.552H66.18v-6.766h1.78v.883a3.094 3.094 0 0 1 2.367-1.05 1.968 1.968 0 0 1 2.199 2.157v4.776h-1.78zm6.327-2.844c2.016 0 3.39 1.513 3.39 3.727v.392h-5.03a1.825 1.825 0 0 0 1.947 1.569 2.77 2.77 0 0 0 1.808-.673l.784 1.148a4.166 4.166 0 0 1-2.787.939 3.551 3.551 0 1 1-.112-7.102zm-1.667 2.915h3.334a1.567 1.567 0 0 0-1.667-1.5 1.626 1.626 0 0 0-1.667 1.5zm9.798 1.387a3.724 3.724 0 0 0 2.579 1.064c1.134 0 1.764-.49 1.764-1.206 0-.755-.574-1.106-1.877-1.106-.392 0-1.022 0-1.163.014v-1.737c.168.014.799.014 1.163.014 1.036 0 1.723-.336 1.723-1.036 0-.743-.757-1.121-1.737-1.121a3.385 3.385 0 0 0-2.381.98l-.98-1.232a4.598 4.598 0 0 1 3.572-1.485c2.185 0 3.53.98 3.53 2.535a2.29 2.29 0 0 1-2.046 2.13 2.344 2.344 0 0 1 2.186 2.24c0 1.612-1.443 2.746-3.684 2.746a4.671 4.671 0 0 1-3.684-1.498zm11.455-6.85a4.218 4.218 0 0 1 2.76.966l-.897 1.499a2.454 2.454 0 0 0-4.202 1.96.88.88 0 0 0 .014.197 3.03 3.03 0 0 1 2.395-1.19 2.946 2.946 0 0 1 3.18 3.012 3.28 3.28 0 0 1-3.572 3.207c-2.843 0-4.034-2.185-4.034-4.819 0-2.83 1.597-4.832 4.356-4.832zm-.505 5.084a2.397 2.397 0 0 0-1.82.896 1.907 1.907 0 0 0 1.905 1.934 1.503 1.503 0 0 0 1.653-1.387c0-1.009-.827-1.443-1.738-1.443zm6.397-.42a2.337 2.337 0 0 1-1.848-2.2c0-1.75 1.863-2.464 3.6-2.464 1.722 0 3.6.713 3.6 2.464a2.35 2.35 0 0 1-1.863 2.2 2.696 2.696 0 0 1 2.017 2.395c0 1.736-1.793 2.59-3.754 2.59s-3.754-.84-3.754-2.59a2.682 2.682 0 0 1 2.002-2.395zm1.751.882c-.588.07-1.736.462-1.736 1.275 0 .686.756 1.12 1.736 1.12.953 0 1.737-.434 1.737-1.12 0-.813-1.163-1.205-1.737-1.275zm0-3.839c-.924 0-1.582.407-1.582 1.066 0 .727 1.008 1.05 1.582 1.134.574-.084 1.569-.407 1.569-1.134-.001-.66-.659-1.066-1.569-1.066zm4.436 3.111a4.73 4.73 0 0 1 4.902-4.833 4.312 4.312 0 0 1 3.978 2.283l-1.708.84a2.558 2.558 0 0 0-2.27-1.358 3.075 3.075 0 0 0 0 6.135 2.533 2.533 0 0 0 2.27-1.358l1.708.826a4.335 4.335 0 0 1-3.978 2.297 4.73 4.73 0 0 1-4.902-4.832zm-78.2-652.987a7.676 7.676 0 0 1 7.957-7.844 6.999 6.999 0 0 1 6.458 3.706l-2.774 1.364a4.155 4.155 0 0 0-3.684-2.205 4.992 4.992 0 0 0 0 9.958 4.113 4.113 0 0 0 3.684-2.205l2.773 1.34a7.04 7.04 0 0 1-6.456 3.73 7.676 7.676 0 0 1-7.958-7.844z" class="cls-3"/><path d="M47.318 101.56a1.453 1.453 0 0 0 1.521-.797l.41-.932-4.457-11.141h3.094l2.863 7.64 2.866-7.64h3.115l-5.162 12.777c-.819 2.07-2.274 2.615-4.16 2.66a7.84 7.84 0 0 1-1.432-.159l.432-2.592a2.494 2.494 0 0 0 .91.183zm16.845-3.025a4.542 4.542 0 0 1-3.478 1.41 3.658 3.658 0 0 1-3.818-3.637c0-2.57 2.068-3.502 3.818-3.502a4.437 4.437 0 0 1 3.478 1.341v-1.523c0-1.114-.955-1.842-2.41-1.842a4.62 4.62 0 0 0-3.205 1.296l-1.091-1.933a7.207 7.207 0 0 1 4.798-1.727c2.5 0 4.797 1 4.797 4.16v7.094h-2.889zm0-2.864a2.886 2.886 0 0 0-2.318-.956c-1.137 0-2.068.615-2.068 1.66 0 1.024.931 1.615 2.068 1.615a2.887 2.887 0 0 0 2.319-.955zm12.709-2.638a1.782 1.782 0 0 0-2.023-2.046 3.125 3.125 0 0 0-2.5 1.296v7.389h-2.887V88.69h2.887v1.433a5.03 5.03 0 0 1 3.842-1.705c2.41 0 3.57 1.364 3.57 3.5v7.754h-2.889z" class="cls-3"/><path d="M278.027 93.465l-5.843-8.958h3.682l3.775 6.094 3.728-6.094h3.684l-5.798 8.958v6.207h-3.228zm12.072-5.047c3.274 0 5.502 2.455 5.502 6.047v.637h-8.162a2.96 2.96 0 0 0 3.16 2.547 4.492 4.492 0 0 0 2.934-1.092l1.273 1.865a6.77 6.77 0 0 1-4.524 1.523 5.764 5.764 0 1 1-.183-11.527zm-2.705 4.729h5.411a2.544 2.544 0 0 0-2.706-2.433 2.64 2.64 0 0 0-2.705 2.433zm9.845-8.64h2.886v15.165h-2.886zm5.297 0h2.887v15.165h-2.886zm4.592 9.663a5.81 5.81 0 1 1 5.798 5.775 5.562 5.562 0 0 1-5.798-5.775zm8.618 0a2.899 2.899 0 0 0-2.82-3.183c-1.796 0-2.797 1.478-2.797 3.183 0 1.728 1.001 3.206 2.797 3.206s2.82-1.478 2.82-3.206zm12.004-1.978l-2.319 7.48h-3.093l-3.341-10.982h3l2.046 7.39 2.41-7.39h2.57l2.41 7.39 2.046-7.39h3l-3.341 10.981h-3.07z" class="cls-2"/></svg>