<svg xmlns="http://www.w3.org/2000/svg" id="Layer_1" viewBox="0 0 462.77 848.79" width="462.77" height="848.79"><defs><style>.cls-1{fill:#fff200}.cls-2{fill:#00aeef}.cls-3{fill:#fff}.cls-4{fill:#8dc63f}.cls-5{fill:#026937}.cls-6{fill:#77bc1f}</style></defs><path d="M0 0h188.77v258.42H0z" class="cls-1"/><path d="M94.39 170.18a75.79 75.79 0 1 1 75.79-75.79 75.79 75.79 0 0 1-75.79 75.79zm-77.66 22l-5.84-9h3.68l3.77 6.09 3.73-6.09h3.68l-5.8 9v6.21h-3.22zm12.07-5.05c3.27 0 5.5 2.46 5.5 6v.64h-8.16a3 3 0 0 0 3.16 2.55 4.49 4.49 0 0 0 2.93-1.09l1.27 1.86a6.77 6.77 0 0 1-4.5 1.57 5.766 5.766 0 0 1-.18-11.53h-.02zm-2.71 4.73h5.41a2.54 2.54 0 0 0-2.642-2.434l-.068.004a2.64 2.64 0 0 0-2.69 2.43zm9.85-8.64h2.89v15.16h-2.89zm5.3 0h2.89v15.16h-2.89zm4.59 9.66a5.81 5.81 0 1 1 5.85 5.77h-.05a5.56 5.56 0 0 1-5.799-5.31q-.01-.23-.001-.46zm8.62 0a2.9 2.9 0 0 0-2.606-3.167q-.107-.01-.214-.013a2.882 2.882 0 0 0-2.8 3.18c0 1.7 1 3.21 2.8 3.21s2.82-1.48 2.82-3.21zm12-1.97l-2.32 7.48H61l-3.34-11h3l2 7.39 2.41-7.39h2.57l2.41 7.39 2-7.39h3l-3.34 11h-2.94zm-52.81 18.26H11.3v-1.5h6.38v1.5h-2.33v6.5h-1.71z" class="cls-2"/><path d="M22 211.72l-1.22 3.95h-1.61l-1.76-5.79H19l1.08 3.9 1.27-3.9h1.35l1.27 3.9 1.08-3.9h1.58l-1.76 5.79h-1.62zm4.78 1.05a3.06 3.06 0 1 1 3.12 3h-.06a2.93 2.93 0 0 1-3.058-2.796q-.005-.102-.002-.204zm4.54 0a1.49 1.49 0 1 0-1.49 1.69 1.53 1.53 0 0 0 1.498-1.561q-.001-.065-.008-.129zm5.31 5.11v-8h1.52v.73a2.24 2.24 0 0 1 1.79-.88c1.49 0 2.57 1.1 2.57 3s-1.08 3-2.57 3a2.21 2.21 0 0 1-1.79-.89v3zm2.83-6.79a1.71 1.71 0 0 0-1.31.66v2.05a1.74 1.74 0 0 0 1.31.66 1.7 1.7 0 0 0 0-3.37zm3.95-1.21h1.52v.79a2.48 2.48 0 0 1 1.85-.92v1.49a2 2 0 0 0-.42 0 1.93 1.93 0 0 0-1.43.65v3.83h-1.52zm3.71 2.89a3.06 3.06 0 1 1 3.12 3h-.06a2.93 2.93 0 0 1-3.058-2.796q-.005-.102-.002-.204zm4.55 0a1.49 1.49 0 1 0-1.49 1.69 1.53 1.53 0 0 0 1.488-1.571q-.002-.06-.008-.119z" class="cls-2"/><path d="M56.84 209.73a2.67 2.67 0 0 1 2.29 1.06l-1 .92a1.43 1.43 0 0 0-1.22-.62 1.69 1.69 0 0 0 0 3.37 1.46 1.46 0 0 0 1.22-.62l1 .92a2.67 2.67 0 0 1-2.29 1.06 3.04 3.04 0 0 1 0-6.08zm5.67 0a2.9 2.9 0 0 1 2.9 3.19v.34h-4.3a1.56 1.56 0 0 0 1.67 1.34 2.37 2.37 0 0 0 1.55-.58l.67 1a3.57 3.57 0 0 1-2.39.8 3.04 3.04 0 0 1-.1-6.08zm-1.43 2.49h2.85a1.34 1.34 0 0 0-1.396-1.282l-.034.002a1.39 1.39 0 0 0-1.41 1.29zm5.36 1.63a3.31 3.31 0 0 0 2 .79c.66 0 1-.23 1-.59s-.5-.55-1.16-.68c-1-.19-2.28-.43-2.28-1.81 0-1 .85-1.82 2.38-1.82a3.64 3.64 0 0 1 2.33.79l-.6 1a2.44 2.44 0 0 0-1.71-.67c-.55 0-.91.2-.91.54s.46.49 1.1.62c1 .19 2.33.46 2.33 1.9 0 1.07-.9 1.86-2.51 1.86a3.9 3.9 0 0 1-2.59-.9zm5.48 0a3.31 3.31 0 0 0 2 .79c.66 0 1-.23 1-.59s-.5-.55-1.16-.68c-1-.19-2.28-.43-2.28-1.81 0-1 .85-1.82 2.37-1.82a3.64 3.64 0 0 1 2.33.79l-.6 1a2.44 2.44 0 0 0-1.71-.67c-.55 0-.91.2-.91.54s.46.49 1.1.62c1 .19 2.33.46 2.33 1.9 0 1.07-.9 1.86-2.51 1.86a3.9 3.9 0 0 1-2.59-.9zm10.86-4.12a2.67 2.67 0 0 1 2.29 1.06l-1 .92a1.43 1.43 0 0 0-1.22-.62 1.69 1.69 0 0 0 0 3.37 1.46 1.46 0 0 0 1.22-.62l1 .92a2.67 2.67 0 0 1-2.29 1.06 3.04 3.04 0 0 1 0-6.08zm2.68 3.04a3.06 3.06 0 1 1 3.12 3h-.06a2.93 2.93 0 0 1-3.058-2.796q-.005-.102-.002-.204zm4.54 0a1.49 1.49 0 1 0-1.49 1.69 1.53 1.53 0 0 0 1.498-1.561q-.001-.065-.008-.129zm2.48-5.1H94v8h-1.52zm2.42 5.1a3.06 3.06 0 1 1 3.12 3h-.06a2.93 2.93 0 0 1-3.058-2.796q-.005-.102-.002-.204zm4.55 0a1.49 1.49 0 1 0-1.45 1.69 1.53 1.53 0 0 0 1.457-1.6q-.002-.045-.007-.09zm6.38 2.17a2.71 2.71 0 0 1-2 .88 1.66 1.66 0 0 1-1.87-1.82v-4.11h1.52v3.51a.93.93 0 0 0 1.07 1.07 1.7 1.7 0 0 0 1.32-.66v-3.92h1.52v5.79h-1.52zm2.8-5.06h1.52v.79a2.48 2.48 0 0 1 1.85-.92v1.49a2 2 0 0 0-.42 0 1.93 1.93 0 0 0-1.43.65v3.83h-1.52zm4.24 3.97a3.31 3.31 0 0 0 2 .79c.66 0 1-.23 1-.59s-.5-.55-1.16-.68c-1-.19-2.28-.43-2.28-1.81 0-1 .85-1.82 2.37-1.82a3.64 3.64 0 0 1 2.33.79l-.6 1a2.44 2.44 0 0 0-1.71-.67c-.55 0-.91.2-.91.54s.46.49 1.1.62c1 .19 2.33.46 2.33 1.9 0 1.07-.9 1.86-2.51 1.86a3.9 3.9 0 0 1-2.59-.9zM11.79 223h3.15a4 4 0 0 1 0 8h-3.15zm3.15 6.5a2.39 2.39 0 0 0 2.51-2.264q.006-.118 0-.236a2.34 2.34 0 0 0-2.51-2.51h-1.45v5zm8.67.85a2.4 2.4 0 0 1-1.83.74 1.93 1.93 0 0 1-1.999-1.859l-.001-.061a1.83 1.83 0 0 1 2-1.85 2.34 2.34 0 0 1 1.83.71v-.8c0-.59-.5-1-1.27-1a2.44 2.44 0 0 0-1.69.68l-.58-1a3.8 3.8 0 0 1 2.53-.91c1.32 0 2.53.53 2.53 2.19V231h-1.52zm0-1.51a1.52 1.52 0 0 0-1.22-.5c-.6 0-1.09.32-1.09.88s.49.85 1.09.85a1.53 1.53 0 0 0 1.22-.5zm2.8-3.68h1.52v.84a2.48 2.48 0 0 1 1.85-.92v1.49a2 2 0 0 0-.42 0 1.93 1.93 0 0 0-1.43.65V231h-1.52zm6.3 3.56l-.7.74V231h-1.52v-8H32v4.79l2.19-2.58h1.87l-2.29 2.63 2.38 3.16h-1.91zm6.42-.67a3.06 3.06 0 1 1 3.12 3h-.06a2.93 2.93 0 0 1-3.058-2.796q-.005-.102-.002-.204zm4.54 0a1.49 1.49 0 1 0-1.49 1.69 1.53 1.53 0 0 0 1.498-1.561q-.001-.065-.008-.129zm6.39-.6a.94.94 0 0 0-1.06-1.08 1.65 1.65 0 0 0-1.32.68V231h-1.53v-5.79h1.52v.76a2.65 2.65 0 0 1 2-.9 1.68 1.68 0 0 1 1.88 1.85V231h-1.49zm5.63-4.45h1.52v8h-1.52zm2.64.4a.91.91 0 1 1 .91.91.92.92 0 0 1-.91-.91zm.16 1.76H60V231h-1.52zm3.35 6.18a2.3 2.3 0 0 0 1.81.72 1.42 1.42 0 0 0 1.6-1.46v-.6a2.26 2.26 0 0 1-1.79.91c-1.45 0-2.55-1-2.55-3s1.09-3 2.55-3a2.23 2.23 0 0 1 1.79.89v-.74h1.54v5.4c0 2.21-1.7 2.75-3.13 2.75a3.49 3.49 0 0 1-2.49-.86zm3.41-4.34a1.65 1.65 0 0 0-1.31-.66 1.6 1.6 0 0 0 0 3.19 1.69 1.69 0 0 0 1.31-.66zm6.75.43c0-.8-.42-1.06-1.08-1.06a1.69 1.69 0 0 0-1.32.68V231h-1.54v-8h1.52v3a2.68 2.68 0 0 1 2-.9 1.67 1.67 0 0 1 1.88 1.82V231H72zm3.08 2.08v-3h-1v-1.33h1v-1.58h1.54v1.58h1.17v1.33h-1.18v2.61c0 .36.19.64.53.64a.83.83 0 0 0 .53-.17l.32 1.15a1.88 1.88 0 0 1-1.27.37 1.45 1.45 0 0 1-1.64-1.6zM274 0h188.77v258.42H274z" class="cls-2"/><path d="M368.39 170.18a75.79 75.79 0 1 1 75.79-75.79 75.79 75.79 0 0 1-75.79 75.79z" class="cls-1"/><path d="M285.77 190.82a7.68 7.68 0 0 1 7.511-7.845q.245-.005.489.005a7 7 0 0 1 6.46 3.71l-2.82 1.31a4.15 4.15 0 0 0-3.68-2.21 5 5 0 0 0 0 10 4.11 4.11 0 0 0 3.68-2.21l2.77 1.34a7 7 0 0 1-6.46 3.73 7.68 7.68 0 0 1-7.947-7.404q-.007-.213-.003-.426z" class="cls-3"/><path d="M302.55 200.27a1.46 1.46 0 0 0 1.52-.8l.41-.93L300 187.4h3.09L306 195l2.87-7.64H312l-5.16 12.78c-.82 2.07-2.27 2.61-4.16 2.66a7.87 7.87 0 0 1-1.43-.16l.43-2.59a2.49 2.49 0 0 0 .87.22zm16.85-3.02a4.54 4.54 0 0 1-3.48 1.41 3.66 3.66 0 0 1-3.817-3.497q-.003-.081-.003-.163c0-2.57 2.07-3.5 3.82-3.5a4.44 4.44 0 0 1 3.48 1.34v-1.52c0-1.11-1-1.84-2.41-1.84a4.62 4.62 0 0 0-3.21 1.3l-1.09-1.93a7.2 7.2 0 0 1 4.8-1.73c2.5 0 4.8 1 4.8 4.16v7.09h-2.89zm0-2.86a2.89 2.89 0 0 0-2.32-1c-1.14 0-2.07.61-2.07 1.66s.93 1.61 2.07 1.61a2.89 2.89 0 0 0 2.32-1zm12.71-2.64a1.78 1.78 0 0 0-2-2 3.13 3.13 0 0 0-2.5 1.3v7.39h-2.91v-11h2.89v1.43a5 5 0 0 1 3.84-1.71c2.41 0 3.57 1.36 3.57 3.5v7.75h-2.89zm-44.47 17.42h-2.34v-1.5h6.38v1.5h-2.33v6.5h-1.71z" class="cls-3"/><path d="M296 211.72l-1.22 3.95h-1.63l-1.76-5.79H293l1.08 3.9 1.27-3.9h1.36l1.27 3.9 1.08-3.9h1.58l-1.76 5.79h-1.62zm4.78 1.05a3.06 3.06 0 1 1 3.12 3h-.06a2.93 2.93 0 0 1-3.058-2.796q-.005-.102-.002-.204zm4.54 0a1.49 1.49 0 1 0-1.49 1.69 1.53 1.53 0 0 0 1.498-1.561q-.001-.065-.008-.129zm5.31 5.11v-8h1.52v.73a2.24 2.24 0 0 1 1.79-.88c1.49 0 2.57 1.1 2.57 3s-1.08 3-2.57 3a2.21 2.21 0 0 1-1.79-.89v3zm2.83-6.79a1.71 1.71 0 0 0-1.31.66v2.05a1.74 1.74 0 0 0 1.31.66 1.7 1.7 0 0 0 0-3.37zm3.95-1.21h1.52v.79a2.48 2.48 0 0 1 1.85-.92v1.49a2 2 0 0 0-.42 0 1.93 1.93 0 0 0-1.43.65v3.83h-1.52zm3.71 2.89a3.06 3.06 0 1 1 3.12 3h-.06a2.93 2.93 0 0 1-3.058-2.796q-.005-.102-.002-.204zm4.55 0a1.49 1.49 0 1 0-1.49 1.69 1.53 1.53 0 0 0 1.488-1.571q-.002-.06-.008-.119z" class="cls-3"/><path d="M330.84 209.73a2.67 2.67 0 0 1 2.29 1.06l-1 .92a1.43 1.43 0 0 0-1.22-.62 1.69 1.69 0 0 0 0 3.37 1.46 1.46 0 0 0 1.22-.62l1 .92a2.67 2.67 0 0 1-2.29 1.06 3.04 3.04 0 1 1 0-6.08zm5.67 0a2.9 2.9 0 0 1 2.9 3.19v.34h-4.31a1.56 1.56 0 0 0 1.67 1.34 2.37 2.37 0 0 0 1.55-.58l.67 1a3.57 3.57 0 0 1-2.39.8 3.04 3.04 0 0 1-.1-6.08zm-1.43 2.49h2.85a1.34 1.34 0 0 0-1.396-1.282l-.034.002a1.39 1.39 0 0 0-1.41 1.29zm5.36 1.63a3.31 3.31 0 0 0 2 .79c.66 0 1-.23 1-.59s-.5-.55-1.16-.68c-1-.19-2.28-.43-2.28-1.81 0-1 .85-1.82 2.38-1.82a3.64 3.64 0 0 1 2.33.79l-.6 1a2.44 2.44 0 0 0-1.71-.67c-.55 0-.91.2-.91.54s.46.49 1.1.62c1 .19 2.33.46 2.33 1.9 0 1.07-.9 1.86-2.51 1.86a3.9 3.9 0 0 1-2.59-.9zm5.48 0a3.31 3.31 0 0 0 2 .79c.66 0 1-.23 1-.59s-.5-.55-1.16-.68c-1-.19-2.28-.43-2.28-1.81 0-1 .85-1.82 2.37-1.82a3.64 3.64 0 0 1 2.33.79l-.6 1a2.44 2.44 0 0 0-1.71-.67c-.55 0-.91.2-.91.54s.46.49 1.1.62c1 .19 2.33.46 2.33 1.9 0 1.07-.9 1.86-2.51 1.86a3.9 3.9 0 0 1-2.59-.9zm10.86-4.12a2.67 2.67 0 0 1 2.29 1.06l-1 .92a1.43 1.43 0 0 0-1.22-.62 1.69 1.69 0 0 0 0 3.37 1.46 1.46 0 0 0 1.22-.62l1 .92a2.67 2.67 0 0 1-2.29 1.06 3.04 3.04 0 1 1 0-6.08zm2.68 3.04a3.06 3.06 0 1 1 3.12 3h-.06a2.93 2.93 0 0 1-3.058-2.796q-.005-.102-.002-.204zm4.54 0a1.49 1.49 0 1 0-1.49 1.69 1.53 1.53 0 0 0 1.498-1.561q-.001-.065-.008-.129zm2.48-5.1H368v8h-1.52zm2.42 5.1a3.06 3.06 0 1 1 3.12 3h-.06a2.93 2.93 0 0 1-3.058-2.796q-.005-.102-.002-.204zm4.55 0a1.49 1.49 0 1 0-1.49 1.69 1.53 1.53 0 0 0 1.498-1.561q-.001-.065-.008-.129zm6.38 2.17a2.71 2.71 0 0 1-2 .88 1.66 1.66 0 0 1-1.87-1.82v-4.11h1.52v3.51a.93.93 0 0 0 1.07 1.07 1.7 1.7 0 0 0 1.32-.66v-3.92h1.52v5.79h-1.52zm2.8-5.06h1.52v.79a2.48 2.48 0 0 1 1.85-.92v1.49a2 2 0 0 0-.42 0 1.93 1.93 0 0 0-1.43.65v3.83h-1.52zm4.24 3.97a3.31 3.31 0 0 0 2 .79c.66 0 1-.23 1-.59s-.5-.55-1.16-.68c-1-.19-2.28-.43-2.28-1.81 0-1 .85-1.82 2.37-1.82a3.64 3.64 0 0 1 2.33.79l-.6 1a2.44 2.44 0 0 0-1.71-.67c-.55 0-.91.2-.91.54s.46.49 1.1.62c1 .19 2.33.46 2.33 1.9 0 1.07-.9 1.86-2.51 1.86a3.9 3.9 0 0 1-2.59-.9zM285.79 223h1.7v6.5h3.38v1.5h-5.08zm5.85.4a.91.91 0 1 1 .91.91.92.92 0 0 1-.91-.91zm.16 1.76h1.52V231h-1.52zm3.35 6.18a2.3 2.3 0 0 0 1.81.72 1.42 1.42 0 0 0 1.59-1.46v-.6a2.26 2.26 0 0 1-1.79.91c-1.45 0-2.55-1-2.55-3s1.09-3 2.55-3a2.23 2.23 0 0 1 1.79.89v-.74h1.54v5.4c0 2.21-1.7 2.75-3.13 2.75a3.49 3.49 0 0 1-2.5-.86zm3.41-4.31a1.65 1.65 0 0 0-1.31-.66 1.6 1.6 0 0 0 0 3.19 1.69 1.69 0 0 0 1.31-.66zm6.73.4c0-.8-.42-1.06-1.08-1.06a1.69 1.69 0 0 0-1.32.68V231h-1.52v-8h1.52v3a2.68 2.68 0 0 1 2-.9 1.67 1.67 0 0 1 1.88 1.82V231h-1.52zm3.1 2.08v-3h-1v-1.33h1v-1.58h1.54v1.58h1.17v1.33h-1.17v2.61c0 .36.19.64.53.64a.83.83 0 0 0 .53-.17l.32 1.15a1.88 1.88 0 0 1-1.27.37 1.45 1.45 0 0 1-1.65-1.6zm5.97-1.46a3.06 3.06 0 1 1 3.12 3h-.06a2.93 2.93 0 0 1-3.058-2.796q-.005-.102-.002-.204zm4.55 0a1.49 1.49 0 1 0-1.49 1.69 1.53 1.53 0 0 0 1.498-1.561q-.001-.065-.008-.129zm6.38-.6a.94.94 0 0 0-1.07-1.08 1.65 1.65 0 0 0-1.32.68V231h-1.52v-5.79h1.52v.76a2.65 2.65 0 0 1 2-.9 1.68 1.68 0 0 1 1.88 1.85V231h-1.52zm9.61 2.77a2.27 2.27 0 0 1-1.79.88c-1.46 0-2.57-1.1-2.57-3s1.09-3 2.57-3a2.23 2.23 0 0 1 1.79.89v-3h1.54v8h-1.54zm0-3.19a1.68 1.68 0 0 0-1.32-.66 1.7 1.7 0 0 0 0 3.37 1.68 1.68 0 0 0 1.32-.66zm6.29 3.32a2.4 2.4 0 0 1-1.83.74 1.93 1.93 0 0 1-1.999-1.859l-.001-.061a1.83 1.83 0 0 1 2-1.85 2.34 2.34 0 0 1 1.83.71v-.8c0-.59-.5-1-1.27-1a2.44 2.44 0 0 0-1.69.68l-.58-1a3.8 3.8 0 0 1 2.53-.91c1.32 0 2.53.53 2.53 2.19V231h-1.52zm0-1.51a1.52 1.52 0 0 0-1.22-.5c-.6 0-1.09.32-1.09.88s.49.85 1.09.85a1.52 1.52 0 0 0 1.22-.5zm2.81-3.68h1.52v.84a2.48 2.48 0 0 1 1.85-.92v1.49a2 2 0 0 0-.42 0 1.93 1.93 0 0 0-1.43.65V231H344zm6.29 3.56l-.7.74V231h-1.52v-8h1.52v4.79l2.2-2.58h1.87l-2.29 2.63 2.36 3.17h-1.91z" class="cls-3"/><path d="M274 295.18h188.77V553.6H274z" class="cls-4"/><path d="M368.39 465.36a75.79 75.79 0 1 1 75.79-75.79 75.79 75.79 0 0 1-75.79 75.79z" class="cls-5"/><path d="M287.89 489.39a5.54 5.54 0 0 0 4 1.64c1.8 0 2.82-1 2.82-2.27s-1-2.32-2.73-2.32a4.37 4.37 0 0 0-3.18 1.25l-2.25-.61v-8.66H297v2.77h-7.25V485a5.23 5.23 0 0 1 3.41-1.25 4.72 4.72 0 0 1 4.87 4.564q.006.163 0 .326c0 3.21-2.41 5.23-6.07 5.23a7.57 7.57 0 0 1-5.84-2.27zm17.53-11.21c4.32 0 6.28 3.91 6.28 7.82s-2 7.84-6.28 7.84-6.28-3.93-6.28-7.84 1.93-7.82 6.28-7.82zm0 2.87c-2.18 0-3 2.16-3 5s.82 5 3 5 3-2.18 3-5-.84-5.05-3-5.05zm11.02-2.87a3.7 3.7 0 0 1 3.868 3.524q.007.148.002.296a3.86 3.86 0 0 1-7.71 0 3.7 3.7 0 0 1 3.575-3.82q.133-.005.265 0zm0 1.8a2 2 0 1 0 2 2 2 2 0 0 0-2-2zm8.21-1.57h1.73l-9.71 15.17H315zm.14 7.87a3.71 3.71 0 0 1 3.868 3.545q.006.137.002.275a3.85 3.85 0 1 1-3.88-3.82zm0 1.8a1.909 1.909 0 1 0 1.82 2.006v-.006a1.83 1.83 0 0 0-1.641-2.001q-.09-.009-.179-.009zm17.53-2.08a7.68 7.68 0 0 1 7.511-7.845q.245-.005.489.005a7 7 0 0 1 6.46 3.71l-2.78 1.36a4.15 4.15 0 0 0-3.68-2.21 5 5 0 0 0 0 10 4.11 4.11 0 0 0 3.68-2.21l2.77 1.34a7 7 0 0 1-6.46 3.73 7.68 7.68 0 0 1-7.986-7.36q-.011-.26-.004-.52z" class="cls-3"/><path d="M359.1 495.46a1.46 1.46 0 0 0 1.52-.8l.41-.93-4.46-11.14h3.09l2.86 7.64 2.87-7.64h3.11l-5.16 12.78c-.82 2.07-2.27 2.61-4.16 2.66a7.908 7.908 0 0 1-1.43-.16l.43-2.59a2.5 2.5 0 0 0 .92.18zm16.84-3.03a4.54 4.54 0 0 1-3.48 1.41 3.66 3.66 0 0 1-3.817-3.496q-.003-.072-.003-.144c0-2.57 2.07-3.5 3.82-3.5a4.44 4.44 0 0 1 3.48 1.34v-1.52c0-1.11-1-1.84-2.41-1.84a4.62 4.62 0 0 0-3.21 1.3l-1.08-1.98a7.2 7.2 0 0 1 4.8-1.73c2.5 0 4.8 1 4.8 4.16v7.09h-2.89zm0-2.87a2.89 2.89 0 0 0-2.32-1c-1.14 0-2.07.61-2.07 1.66s.93 1.61 2.07 1.61a2.89 2.89 0 0 0 2.32-1zm12.71-2.63a1.78 1.78 0 0 0-2-2 3.13 3.13 0 0 0-2.5 1.3v7.39h-2.89v-11h2.89V484a5 5 0 0 1 3.84-1.71c2.41 0 3.57 1.36 3.57 3.5v7.75h-2.89zm-99.06 16.92l-2.5 2.57-1.84-1.93 4.77-4.8h2.82v15.16h-3.25zm11.35-4.39c4.32 0 6.28 3.91 6.28 7.82s-2 7.84-6.28 7.84-6.28-3.93-6.28-7.84 1.94-7.82 6.28-7.82zm0 2.86c-2.18 0-3 2.16-3 5s.82 5 3 5 3-2.18 3-5-.84-4.99-3-4.99zm13.64-2.86c4.32 0 6.28 3.91 6.28 7.82s-2 7.84-6.28 7.84-6.27-3.93-6.27-7.84 1.93-7.82 6.27-7.82zm0 2.86c-2.18 0-3 2.16-3 5s.82 5 3 5 3-2.18 3-5-.84-4.99-3-4.99zm11.03-2.86a3.7 3.7 0 0 1 3.868 3.524q.007.148.002.296a3.86 3.86 0 0 1-7.71 0 3.69 3.69 0 0 1 3.554-3.82q.143-.006.286 0zm0 1.8a2 2 0 1 0 2 2 2 2 0 0 0-2-2zm8.21-1.57h1.73l-9.71 15.16h-1.71zm.14 7.87a3.71 3.71 0 0 1 3.868 3.545q.006.137.002.275a3.85 3.85 0 1 1-3.88-3.82zm0 1.8a2.227 2.227 0 1 0 1.82 2 1.83 1.83 0 0 0-1.83-2.01zm13.31-.71l-5.84-9h3.68l3.77 6.09 3.73-6.09h3.68l-5.8 9v6.21h-3.23zm12.08-5.05c3.27 0 5.5 2.46 5.5 6v.64h-8.16a3 3 0 0 0 3.16 2.55 4.49 4.49 0 0 0 2.93-1.09l1.27 1.86a6.77 6.77 0 0 1-4.52 1.52 5.766 5.766 0 0 1-.18-11.53zm-2.71 4.73h5.41a2.54 2.54 0 0 0-2.642-2.434l-.068.004a2.64 2.64 0 0 0-2.7 2.43zm9.85-8.64h2.89v15.16h-2.89zm5.29 0h2.89v15.16h-2.89zm4.6 9.66a5.81 5.81 0 1 1 5.84 5.78h-.04a5.56 5.56 0 0 1-5.8-5.31q-.01-.235 0-.47zm8.62 0a2.9 2.9 0 0 0-2.606-3.167q-.106-.01-.214-.013a2.882 2.882 0 0 0-2.8 3.18c0 1.7 1 3.21 2.8 3.21s2.82-1.48 2.82-3.21zm12-1.98l-2.32 7.48h-3.09l-3.34-11h3l2 7.39 2.41-7.39h2.57l2.41 7.39 2-7.39h3l-3.34 11h-3.07zm-110.82 22.34a3.51 3.51 0 0 0 2.54 1.08c.94 0 1.39-.44 1.39-.9s-.7-.8-1.62-1c-1.31-.3-3-.66-3-2.45 0-1.33 1.15-2.41 3-2.41a4.45 4.45 0 0 1 3.12 1.12l-.95 1.25a3.41 3.41 0 0 0-2.29-.87c-.77 0-1.17.34-1.17.82s.67.71 1.59.92c1.32.3 3 .7 3 2.47 0 1.46-1 2.57-3.2 2.57a4.61 4.61 0 0 1-3.39-1.27zm6.54 4.63v-8h1.52v.73a2.24 2.24 0 0 1 1.79-.88c1.49 0 2.57 1.1 2.57 3s-1.08 3-2.57 3a2.21 2.21 0 0 1-1.79-.89v3zm2.83-6.79a1.71 1.71 0 0 0-1.31.66v2.05a1.74 1.74 0 0 0 1.31.66 1.7 1.7 0 0 0 0-3.37zm3.57 1.69a3.06 3.06 0 1 1 3.12 3h-.06a2.93 2.93 0 0 1-3.058-2.796q-.005-.102-.002-.204zm4.54 0a1.49 1.49 0 1 0-1.49 1.69 1.53 1.53 0 0 0 1.508-1.551q0-.07-.008-.139zm2.78 1.46v-3h-1v-1.33h1v-1.58H308v1.58h1.18v1.33H308v2.61c0 .36.19.64.53.64a.83.83 0 0 0 .53-.17l.32 1.15a1.88 1.88 0 0 1-1.27.37 1.45 1.45 0 0 1-1.67-1.6zm9.05-4.5a2.67 2.67 0 0 1 2.29 1.06l-1 .92a1.43 1.43 0 0 0-1.22-.62 1.69 1.69 0 0 0 0 3.37 1.46 1.46 0 0 0 1.22-.62l1 .92a2.67 2.67 0 0 1-2.29 1.06 3.04 3.04 0 0 1 0-6.08zm2.68 3.04a3.06 3.06 0 1 1 3.12 3h-.06a2.93 2.93 0 0 1-3.058-2.796q-.005-.102-.002-.204zm4.54 0a1.49 1.49 0 1 0-1.49 1.69 1.53 1.53 0 0 0 1.498-1.561q-.001-.065-.008-.129zm2.48-5.1h1.52v8h-1.52zm2.42 5.1a3.06 3.06 0 1 1 3.12 3h-.06a2.93 2.93 0 0 1-3.058-2.796q-.005-.102-.002-.204zm4.54 0a1.49 1.49 0 1 0-1.49 1.69 1.53 1.53 0 0 0 1.508-1.551q0-.07-.008-.139zm6.39 2.17a2.71 2.71 0 0 1-2 .88 1.66 1.66 0 0 1-1.87-1.82v-4.11h1.52v3.51a.93.93 0 0 0 1.07 1.07 1.71 1.71 0 0 0 1.32-.66v-3.92h1.52v5.79h-1.52zm2.8-5.07h1.52v.79a2.48 2.48 0 0 1 1.85-.92v1.49a2.064 2.064 0 0 0-.42 0 1.93 1.93 0 0 0-1.43.65v3.83h-1.52zm6.54 2.9a3.06 3.06 0 1 1 3.12 3h-.06a2.93 2.93 0 0 1-3.058-2.796q-.005-.102-.002-.204zm4.55 0a1.49 1.49 0 1 0-1.49 1.69 1.53 1.53 0 0 0 1.488-1.571q-.002-.06-.008-.119zm6.38-.6a.94.94 0 0 0-1.07-1.08 1.65 1.65 0 0 0-1.32.68v3.9h-1.52v-5.79h1.52v.76a2.65 2.65 0 0 1 2-.9 1.68 1.68 0 0 1 1.88 1.85v4.09h-1.52zm5.63 5.7v-8H366v.73a2.24 2.24 0 0 1 1.79-.88c1.49 0 2.57 1.1 2.57 3s-1.08 3-2.57 3a2.21 2.21 0 0 1-1.79-.89v3zm2.83-6.79a1.71 1.71 0 0 0-1.31.66v2.05a1.74 1.74 0 0 0 1.31.66 1.7 1.7 0 0 0 0-3.37zm3.95-1.21h1.52v.79a2.48 2.48 0 0 1 1.85-.92v1.49a2.064 2.064 0 0 0-.42 0 1.93 1.93 0 0 0-1.43.65v3.83h-1.52zm3.71 2.9a3.06 3.06 0 1 1 3.12 3h-.06a2.93 2.93 0 0 1-3.058-2.796q-.005-.102-.002-.204zm4.54 0a1.49 1.49 0 1 0-1.49 1.69 1.53 1.53 0 0 0 1.498-1.561q-.001-.065-.008-.129z" class="cls-3"/><path d="M384.64 526.2a2.67 2.67 0 0 1 2.29 1.06l-1 .92a1.43 1.43 0 0 0-1.22-.62 1.69 1.69 0 0 0 0 3.37 1.46 1.46 0 0 0 1.22-.62l1 .92a2.67 2.67 0 0 1-2.29 1.06 3.04 3.04 0 0 1 0-6.08zm5.68 0a2.9 2.9 0 0 1 2.9 3.19v.34h-4.31a1.56 1.56 0 0 0 1.67 1.34 2.37 2.37 0 0 0 1.55-.58l.67 1a3.57 3.57 0 0 1-2.39.8 3.04 3.04 0 1 1-.1-6.08zm-1.43 2.5h2.85a1.34 1.34 0 0 0-1.396-1.282l-.034.002a1.39 1.39 0 0 0-1.42 1.28zm5.36 1.61a3.31 3.31 0 0 0 2 .79c.66 0 1-.23 1-.59s-.5-.55-1.16-.68c-1-.19-2.28-.43-2.28-1.81 0-1 .85-1.82 2.37-1.82a3.64 3.64 0 0 1 2.33.79l-.6 1a2.44 2.44 0 0 0-1.71-.67c-.55 0-.91.2-.91.54s.46.49 1.1.62c1 .19 2.33.46 2.33 1.89 0 1.07-.9 1.86-2.51 1.86a3.9 3.9 0 0 1-2.59-.9zm5.48 0a3.31 3.31 0 0 0 2 .79c.66 0 1-.23 1-.59s-.5-.55-1.16-.68c-1-.19-2.28-.43-2.28-1.81 0-1 .85-1.82 2.38-1.82a3.64 3.64 0 0 1 2.33.8l-.6 1a2.44 2.44 0 0 0-1.71-.67c-.55 0-.91.2-.91.54s.46.49 1.1.62c1 .19 2.33.46 2.33 1.89 0 1.07-.9 1.86-2.51 1.86a3.9 3.9 0 0 1-2.59-.9zm10.86-4.11a2.67 2.67 0 0 1 2.29 1.06l-1 .92a1.43 1.43 0 0 0-1.22-.62 1.69 1.69 0 0 0 0 3.37 1.46 1.46 0 0 0 1.22-.62l1 .92a2.67 2.67 0 0 1-2.29 1.06 3.04 3.04 0 0 1 0-6.08zm2.68 3.04a3.06 3.06 0 1 1 3.12 3h-.06a2.93 2.93 0 0 1-3.058-2.796q-.005-.102-.002-.204zm4.55 0a1.49 1.49 0 1 0-1.49 1.69 1.53 1.53 0 0 0 1.488-1.571q-.002-.06-.008-.119zm2.46-5.1h1.52v8h-1.52zm2.43 5.1a3.06 3.06 0 1 1 3.12 3h-.06a2.93 2.93 0 0 1-3.058-2.796q-.005-.102-.002-.204zm4.54 0a1.49 1.49 0 1 0-1.49 1.69 1.53 1.53 0 0 0 1.498-1.561q-.001-.065-.008-.129zm6.39 2.17a2.71 2.71 0 0 1-2 .88 1.66 1.66 0 0 1-1.87-1.82v-4.11h1.52v3.51a.93.93 0 0 0 1.07 1.07 1.7 1.7 0 0 0 1.32-.66v-3.92h1.52v5.79h-1.52zm2.8-5.07H438v.79a2.48 2.48 0 0 1 1.85-.92v1.49a2.064 2.064 0 0 0-.42 0 1.93 1.93 0 0 0-1.43.65v3.83h-1.52zm4.23 3.97a3.31 3.31 0 0 0 2 .79c.66 0 1-.23 1-.59s-.5-.55-1.16-.68c-1-.19-2.28-.43-2.28-1.81 0-1 .85-1.82 2.38-1.82a3.64 3.64 0 0 1 2.33.79l-.6 1a2.44 2.44 0 0 0-1.71-.67c-.55 0-.91.2-.91.54s.46.49 1.1.62c1 .19 2.33.46 2.33 1.89 0 1.07-.9 1.86-2.51 1.86a3.9 3.9 0 0 1-2.59-.9zm-154.88 7.11h3.15a4 4 0 0 1 0 8h-3.15zm3.15 6.5a2.4 2.4 0 0 0 2.51-2.285q.005-.108 0-.215a2.34 2.34 0 0 0-2.51-2.51h-1.45v5zm8.67.9a2.4 2.4 0 0 1-1.83.74 1.93 1.93 0 0 1-1.999-1.859l-.001-.061a1.83 1.83 0 0 1 2-1.85 2.34 2.34 0 0 1 1.83.71v-.8c0-.59-.5-1-1.27-1a2.44 2.44 0 0 0-1.69.68l-.58-1a3.8 3.8 0 0 1 2.53-.91c1.32 0 2.53.53 2.53 2.19v3.74h-1.52zm0-1.51a1.52 1.52 0 0 0-1.22-.5c-.6 0-1.09.32-1.09.88s.49.85 1.09.85a1.52 1.52 0 0 0 1.22-.5zm2.8-3.68h1.52v.79a2.48 2.48 0 0 1 1.85-.92v1.5a1.996 1.996 0 0 0-.42 0 1.93 1.93 0 0 0-1.43.65v3.83h-1.52zm6.3 3.56l-.7.74v1.49h-1.52v-8H306v4.79l2.19-2.58h1.87l-2.29 2.63 2.36 3.17h-1.91zm6.42-.67a3.06 3.06 0 1 1 3.12 3h-.06a2.93 2.93 0 0 1-3.058-2.796q-.005-.102-.002-.204zm4.54 0a1.49 1.49 0 1 0-1.49 1.69 1.53 1.53 0 0 0 1.498-1.561q-.001-.065-.008-.129zm6.39-.6a.94.94 0 0 0-1.07-1.08 1.65 1.65 0 0 0-1.32.68v3.9h-1.52v-5.79h1.52v.76a2.65 2.65 0 0 1 2-.9 1.68 1.68 0 0 1 1.88 1.85v4.09h-1.52zm5.63-4.5h1.52v8h-1.52zm2.64.45a.91.91 0 1 1 .91.91.92.92 0 0 1-.91-.91zm.16 1.76H334v5.79h-1.52zm3.35 6.18a2.3 2.3 0 0 0 1.81.72 1.42 1.42 0 0 0 1.6-1.46v-.59a2.26 2.26 0 0 1-1.79.91c-1.45 0-2.55-1-2.55-3s1.09-3 2.55-3a2.23 2.23 0 0 1 1.79.89v-.74h1.54V545c0 2.21-1.7 2.75-3.13 2.75a3.49 3.49 0 0 1-2.49-.86zm3.41-4.31a1.65 1.65 0 0 0-1.31-.66 1.6 1.6 0 0 0 0 3.19 1.69 1.69 0 0 0 1.31-.66zm6.75.4c0-.8-.42-1.06-1.08-1.06a1.69 1.69 0 0 0-1.32.68v3.9h-1.52v-8h1.52v3a2.68 2.68 0 0 1 2-.9 1.67 1.67 0 0 1 1.88 1.82v4.11H346zm3.08 2.1v-3h-1v-1.33h1V538h1.54v1.58h1.17V541h-1.17v2.61c0 .36.19.64.53.64a.83.83 0 0 0 .53-.17l.32 1.15a1.88 1.88 0 0 1-1.27.37 1.45 1.45 0 0 1-1.65-1.6zm-44.63-160.52h4.37a3 3 0 0 1 0 6h-2.38v3.35h-2zm4.1 1.71h-2.12v2.58h2.12a1.29 1.29 0 1 0 .008-2.58zm8.1 6.94a2.8 2.8 0 0 1-2.14.87 2.25 2.25 0 0 1-2.348-2.148l-.002-.092a2.14 2.14 0 0 1 2.35-2.16 2.74 2.74 0 0 1 2.14.83v-.94c0-.69-.59-1.13-1.49-1.13a2.85 2.85 0 0 0-2 .8l-.67-1.19a4.44 4.44 0 0 1 3-1.06c1.54 0 3 .62 3 2.56v4.37h-1.78zm0-1.77a1.78 1.78 0 0 0-1.43-.59c-.7 0-1.28.38-1.28 1s.57 1 1.28 1a1.78 1.78 0 0 0 1.43-.59zm7.82-1.62a1.1 1.1 0 0 0-1.25-1.26 1.93 1.93 0 0 0-1.54.8v4.55h-1.78v-6.77h1.78v.88a3.1 3.1 0 0 1 2.37-1.05 2 2 0 0 1 2.2 2.16v4.78h-1.78zm3.61 2.41v-3.53H327v-1.55h1.12v-1.85h1.79v1.85h1.37v1.55h-1.37v3.05c0 .42.22.74.62.74a1 1 0 0 0 .62-.2l.38 1.34a2.2 2.2 0 0 1-1.53.45 1.69 1.69 0 0 1-1.92-1.85zm3.67-1.71a3.58 3.58 0 1 1 3.6 3.56h-.03a3.43 3.43 0 0 1-3.57-3.284q-.005-.138 0-.276zm5.31 0a1.75 1.75 0 1 0-1.74 2 1.79 1.79 0 0 0 1.752-1.827q-.002-.087-.012-.173zm7.45-.7a1.1 1.1 0 0 0-1.25-1.26 1.93 1.93 0 0 0-1.54.8v4.55h-1.78v-6.77h1.78v.88a3.1 3.1 0 0 1 2.37-1.05 2 2 0 0 1 2.2 2.16v4.78h-1.78zm6.32-2.85a3.402 3.402 0 0 1 3.39 3.73v.38h-5a1.82 1.82 0 0 0 1.95 1.57 2.77 2.77 0 0 0 1.81-.67l.78 1.15a4.17 4.17 0 0 1-2.79.94 3.55 3.55 0 0 1-.11-7.1h-.03zm-1.67 2.91h3.33a1.57 1.57 0 0 0-1.635-1.502l-.035.002a1.63 1.63 0 0 0-1.65 1.51zm9.84 1.39a3.72 3.72 0 0 0 2.58 1.06c1.13 0 1.76-.49 1.76-1.2s-.57-1.11-1.88-1.11h-1.16v-1.74h1.16c1 0 1.72-.34 1.72-1s-.76-1.12-1.74-1.12a3.38 3.38 0 0 0-2.38 1l-1-1.23a4.6 4.6 0 0 1 3.57-1.48c2.18 0 3.53 1 3.53 2.54a2.29 2.29 0 0 1-2 2.13 2.34 2.34 0 0 1 2.19 2.24c0 1.61-1.44 2.75-3.68 2.75a4.67 4.67 0 0 1-3.68-1.5zm11.4.7h-4.47v-1.57l3.71-5.84h2.75v5.66h1.2v1.75h-1.2v1.93h-2zm-2.52-1.75h2.52v-3.89zm7.6 1.39a2.52 2.52 0 0 0 1.86.71 2.44 2.44 0 0 0 2.351-2.526q-.002-.082-.011-.164v-.2a3.09 3.09 0 0 1-2.41 1.2 3 3 0 0 1-3.184-2.804q-.006-.098-.006-.196a3.29 3.29 0 0 1 3.356-3.223q.117.002.234.013c2.83 0 4 2.19 4 4.83 0 2.82-1.58 4.82-4.34 4.82a4.08 4.08 0 0 1-2.75-1zm2.27-5.48a1.51 1.51 0 0 0-1.638 1.37l-.002.03c0 1 .83 1.43 1.72 1.43a2.35 2.35 0 0 0 1.82-.87 1.91 1.91 0 0 0-1.86-1.96zm4.62 3.11a4.73 4.73 0 0 1 4.626-4.832q.137-.003.274.002a4.31 4.31 0 0 1 4 2.28l-1.71.84a2.56 2.56 0 0 0-2.27-1.36 3.08 3.08 0 0 0 0 6.14 2.53 2.53 0 0 0 2.27-1.36l1.71.83a4.33 4.33 0 0 1-4 2.3 4.73 4.73 0 0 1-4.898-4.556q-.005-.142-.002-.284z" class="cls-3"/><path d="M0 295.18h188.77V553.6H0z" class="cls-5"/><path d="M12.5 478.41h7.09a4.87 4.87 0 1 1 .441 9.73q-.22.01-.441 0h-3.86v5.43H12.5zm6.66 2.77h-3.43v4.18h3.43a2.1 2.1 0 1 0 0-4.18zm13.14 11.25a4.55 4.55 0 0 1-3.48 1.41 3.66 3.66 0 0 1-3.817-3.496q-.003-.067-.003-.134c0-2.57 2.07-3.5 3.82-3.5A4.44 4.44 0 0 1 32.3 488v-1.52c0-1.11-1-1.84-2.41-1.84a4.62 4.62 0 0 0-3.21 1.3L25.6 484a7.2 7.2 0 0 1 4.8-1.73c2.5 0 4.8 1 4.8 4.16v7.09h-2.9zm0-2.86a2.89 2.89 0 0 0-2.32-1c-1.14 0-2.07.61-2.07 1.66s.93 1.61 2.07 1.61a2.89 2.89 0 0 0 2.32-1zm12.7-2.64a1.78 1.78 0 0 0-2-2 3.13 3.13 0 0 0-2.5 1.3v7.39h-2.9v-11h2.89V484a5 5 0 0 1 3.84-1.71c2.41 0 3.57 1.36 3.57 3.5v7.75H45zm5.88 3.91v-5.73h-1.82v-2.52h1.82v-3h2.91v3H56v2.52h-2.21v5c0 .68.36 1.21 1 1.21a1.58 1.58 0 0 0 1-.32l.61 2.18a3.56 3.56 0 0 1-2.41.71c-1.99-.05-3.11-1.09-3.11-3.05zm5.96-2.77a5.81 5.81 0 1 1 5.84 5.78h-.04a5.56 5.56 0 0 1-5.8-5.31q-.01-.235 0-.47zm8.62 0a2.9 2.9 0 0 0-2.606-3.167q-.106-.01-.214-.013a2.882 2.882 0 0 0-2.8 3.18c0 1.7 1 3.21 2.8 3.21s2.81-1.48 2.81-3.21zm12.09-1.14a1.78 1.78 0 0 0-2-2 3.13 3.13 0 0 0-2.5 1.3v7.39h-2.91v-11H73V484a5 5 0 0 1 3.84-1.71c2.41 0 3.57 1.36 3.57 3.5v7.75h-2.86zm10.27-4.61c3.27 0 5.5 2.46 5.5 6v.68h-8.16a3 3 0 0 0 3.16 2.55 4.49 4.49 0 0 0 2.93-1.09l1.27 1.86a6.77 6.77 0 0 1-4.52 1.52 5.766 5.766 0 1 1-.18-11.53zm-2.7 4.68h5.41a2.54 2.54 0 0 0-2.642-2.434l-.068.004a2.64 2.64 0 0 0-2.7 2.43zm15.88 2.3a6 6 0 0 0 4.18 1.73c1.84 0 2.86-.8 2.86-2s-.93-1.8-3-1.8h-1.89v-2.82h1.89c1.68 0 2.8-.55 2.8-1.68S106.6 481 105 481a5.49 5.49 0 0 0-3.86 1.59l-1.59-2a7.46 7.46 0 0 1 5.8-2.41c3.55 0 5.73 1.59 5.73 4.12a3.72 3.72 0 0 1-3.32 3.46 3.8 3.8 0 0 1 3.55 3.64c0 2.61-2.34 4.46-6 4.46a7.58 7.58 0 0 1-6-2.43zm18.61 1.13h-7.25v-2.55l6-9.48h4.46v9.18h2v2.84h-2v3.14h-3.23zm-4.09-2.84h4.09v-6.32zm12.34 2.25a4.1 4.1 0 0 0 3 1.16c2.43 0 3.8-2.07 3.8-4.37v-.32a5 5 0 0 1-3.91 2c-2.73 0-5.18-1.68-5.18-4.91 0-3 2.36-5.21 5.82-5.21 4.59 0 6.53 3.55 6.53 7.84 0 4.57-2.57 7.82-7 7.82a6.62 6.62 0 0 1-4.46-1.57zm3.68-8.89a2.45 2.45 0 0 0-2.656 2.224l-.004.046c0 1.61 1.34 2.32 2.8 2.32a3.81 3.81 0 0 0 3-1.41 3.1 3.1 0 0 0-3.07-3.13h-.06zM139 486a7.68 7.68 0 0 1 7.511-7.845q.245-.005.489.005a7 7 0 0 1 6.46 3.71l-2.77 1.36A4.15 4.15 0 0 0 147 481a5 5 0 0 0 0 10 4.11 4.11 0 0 0 3.68-2.21l2.77 1.34a7 7 0 0 1-6.46 3.73 7.68 7.68 0 0 1-7.986-7.361q-.01-.25-.004-.499zM11.79 502.85h3.74a2.57 2.57 0 1 1 0 5.13h-2v2.87h-1.7zm3.51 1.46h-1.81v2.21h1.81a1.11 1.11 0 1 0 0-2.21zm3.7.75h1.52v.79a2.48 2.48 0 0 1 1.85-.92v1.49a2 2 0 0 0-.42 0 1.93 1.93 0 0 0-1.43.65v3.83H19zm3.71 2.94a2.93 2.93 0 0 1 2.856-3.002q.102-.003.204.002a3.04 3.04 0 0 1 0 6.08 2.94 2.94 0 0 1-3.06-2.814q-.007-.133 0-.266zm4.54 0a1.49 1.49 0 1 0-1.49 1.69 1.53 1.53 0 0 0 1.508-1.552q0-.069-.008-.138zm5.18-3.08a2.67 2.67 0 0 1 2.29 1.08l-1 .92a1.44 1.44 0 0 0-1.22-.62 1.69 1.69 0 0 0 0 3.37 1.46 1.46 0 0 0 1.22-.62l1 .92a2.67 2.67 0 0 1-2.29 1.03 3.04 3.04 0 0 1 0-6.08zm5.68 0a2.9 2.9 0 0 1 2.9 3.19v.34H36.7a1.56 1.56 0 0 0 1.67 1.34 2.37 2.37 0 0 0 1.55-.58l.67 1a3.57 3.57 0 0 1-2.39.8 3.04 3.04 0 1 1-.1-6.08zm-1.43 2.49h2.85a1.34 1.34 0 0 0-1.396-1.282l-.034.002a1.39 1.39 0 0 0-1.42 1.28zM42 509a3.32 3.32 0 0 0 2 .79c.66 0 1-.23 1-.59s-.5-.55-1.16-.68c-1-.19-2.28-.43-2.28-1.81 0-1 .85-1.82 2.38-1.82a3.64 3.64 0 0 1 2.33.79l-.6 1a2.44 2.44 0 0 0-1.71-.67c-.55 0-.91.2-.91.54s.46.49 1.1.62c1 .19 2.33.46 2.33 1.9 0 1.07-.9 1.86-2.51 1.86a3.9 3.9 0 0 1-2.59-.9zm5.52 0a3.32 3.32 0 0 0 2 .79c.66 0 1-.23 1-.59s-.5-.55-1.16-.68c-1-.19-2.28-.43-2.28-1.81 0-1 .85-1.82 2.37-1.82a3.64 3.64 0 0 1 2.33.79l-.6 1a2.44 2.44 0 0 0-1.71-.67c-.55 0-.91.2-.91.54s.46.49 1.1.62c1 .19 2.33.46 2.33 1.9 0 1.07-.9 1.86-2.51 1.86a3.9 3.9 0 0 1-2.59-.9zm10.85-4.08a2.67 2.67 0 0 1 2.29 1.08l-1 .92a1.44 1.44 0 0 0-1.22-.62 1.69 1.69 0 0 0 0 3.37 1.46 1.46 0 0 0 1.22-.62l1 .92a2.67 2.67 0 0 1-2.29 1.03 3.04 3.04 0 0 1 0-6.08zm2.68 3.08a3.06 3.06 0 1 1 3.12 3h-.06a2.93 2.93 0 0 1-3.058-2.796q-.005-.102-.002-.204zm4.55 0a1.49 1.49 0 1 0-1.49 1.69 1.53 1.53 0 0 0 1.498-1.561q-.001-.065-.008-.129zm2.47-5.15h1.52v8h-1.52zm2.42 5.15a3.06 3.06 0 1 1 3.12 3h-.06a2.93 2.93 0 0 1-3.058-2.796q-.005-.102-.002-.204zm4.51 0a1.49 1.49 0 1 0-1.49 1.69 1.53 1.53 0 0 0 1.498-1.561q-.001-.065-.008-.129zm6.42 2.12a2.71 2.71 0 0 1-2 .88 1.66 1.66 0 0 1-1.87-1.82v-4.11H79v3.51a.93.93 0 0 0 1.07 1.07 1.71 1.71 0 0 0 1.32-.66v-3.92h1.52v5.79h-1.49zm2.8-5.06h1.52v.79a2.48 2.48 0 0 1 1.85-.92v1.49a2 2 0 0 0-.42 0 1.93 1.93 0 0 0-1.43.65v3.83h-1.52zm4.24 3.94a3.32 3.32 0 0 0 2 .79c.66 0 1-.23 1-.59s-.5-.55-1.16-.68c-1-.19-2.28-.43-2.28-1.81 0-1 .85-1.82 2.38-1.82a3.64 3.64 0 0 1 2.33.79l-.6 1a2.44 2.44 0 0 0-1.71-.67c-.55 0-.91.2-.91.54s.46.49 1.1.62c1 .19 2.33.46 2.33 1.9 0 1.07-.9 1.86-2.51 1.86a3.9 3.9 0 0 1-2.59-.9zm7.79-1a3.06 3.06 0 1 1 3.12 3h-.06a2.93 2.93 0 0 1-3.058-2.796q-.004-.102-.002-.204zm4.55 0a1.49 1.49 0 1 0-1.49 1.69 1.53 1.53 0 0 0 1.488-1.571q-.002-.06-.008-.119zm6.38-.65a.94.94 0 0 0-1.07-1.08 1.65 1.65 0 0 0-1.32.68v3.9h-1.52v-5.79h1.52v.76a2.65 2.65 0 0 1 2-.9 1.68 1.68 0 0 1 1.88 1.85v4.09h-1.52zm9.1 2.9a2.4 2.4 0 0 1-1.83.74 1.93 1.93 0 0 1-1.999-1.859l-.001-.061a1.83 1.83 0 0 1 2-1.85 2.34 2.34 0 0 1 1.83.71v-.8c0-.59-.5-1-1.27-1a2.43 2.43 0 0 0-1.69.68l-.58-1a3.8 3.8 0 0 1 2.53-.91c1.32 0 2.53.53 2.53 2.19v3.74h-1.52zm0-1.51a1.52 1.52 0 0 0-1.22-.5c-.6 0-1.09.32-1.09.88s.49.85 1.09.85a1.52 1.52 0 0 0 1.22-.5zm5.79.26a3.32 3.32 0 0 0 2 .79c.66 0 1-.23 1-.59s-.5-.55-1.16-.68c-1-.19-2.28-.43-2.28-1.81 0-1 .85-1.82 2.37-1.82a3.64 3.64 0 0 1 2.33.79l-.6 1a2.44 2.44 0 0 0-1.71-.67c-.55 0-.91.2-.91.54s.46.49 1.1.62c1 .19 2.33.46 2.33 1.9 0 1.07-.9 1.86-2.51 1.86a3.9 3.9 0 0 1-2.59-.9zm5.33 4.06v-8h1.52v.73a2.24 2.24 0 0 1 1.79-.87c1.49 0 2.57 1.1 2.57 3s-1.08 3-2.57 3a2.21 2.21 0 0 1-1.79-.89v3zm2.83-6.79a1.71 1.71 0 0 0-1.31.66V509a1.75 1.75 0 0 0 1.31.66 1.7 1.7 0 0 0 0-3.37zm3.58 1.73a3.06 3.06 0 1 1 3.12 3h-.06a2.93 2.93 0 0 1-3.058-2.796q-.005-.102-.002-.204zm4.55 0a1.49 1.49 0 1 0-1.49 1.69 1.53 1.53 0 0 0 1.488-1.571q-.002-.06-.008-.119zm2.77 1.42v-3h-1v-1.33h1v-1.58h1.54v1.58h1.17v1.33h-1.17V509c0 .36.19.64.53.64a.83.83 0 0 0 .53-.17l.32 1.15a1.88 1.88 0 0 1-1.27.37 1.45 1.45 0 0 1-1.65-1.57zm9.04-4.5a2.67 2.67 0 0 1 2.29 1.05l-1 .92a1.44 1.44 0 0 0-1.22-.62 1.69 1.69 0 0 0 0 3.37 1.46 1.46 0 0 0 1.22-.62l1 .92a2.67 2.67 0 0 1-2.29 1.06 3.04 3.04 0 1 1 0-6.08zm2.68 3.08a3.06 3.06 0 1 1 3.12 3h-.06a2.93 2.93 0 0 1-3.058-2.796q-.005-.102-.002-.204zm4.54 0a1.49 1.49 0 1 0-1.49 1.69 1.53 1.53 0 0 0 1.498-1.561q-.001-.065-.008-.129zm2.48-5.15h1.52v8h-1.52zm2.42 5.15a3.06 3.06 0 1 1 3.12 3h-.06a2.93 2.93 0 0 1-3.058-2.796q-.005-.102-.002-.204zm4.55 0a1.49 1.49 0 1 0-1.49 1.69 1.53 1.53 0 0 0 1.498-1.561q-.001-.065-.008-.129zm6.38 2.12a2.71 2.71 0 0 1-2 .88 1.66 1.66 0 0 1-1.87-1.82v-4.11h1.52v3.51a.93.93 0 0 0 1.07 1.07 1.7 1.7 0 0 0 1.32-.66v-3.92h1.52v5.79h-1.52zm2.78-5.06h1.52v.79a2.48 2.48 0 0 1 1.85-.92v1.49a2 2 0 0 0-.42 0 1.93 1.93 0 0 0-1.43.65v3.83H176zM11.79 516.14h1.7v6.5h3.38v1.5h-5.08zm5.85.44a.91.91 0 1 1 .91.91.92.92 0 0 1-.91-.91zm.16 1.76h1.52v5.79h-1.53zm3.35 6.18a2.3 2.3 0 0 0 1.81.72 1.42 1.42 0 0 0 1.59-1.46v-.59a2.26 2.26 0 0 1-1.79.91c-1.45 0-2.55-1-2.55-3s1.09-3 2.55-3a2.23 2.23 0 0 1 1.79.89v-.74h1.54v5.4c0 2.21-1.7 2.75-3.13 2.75a3.49 3.49 0 0 1-2.5-.86zm3.41-4.31a1.65 1.65 0 0 0-1.31-.66 1.6 1.6 0 0 0 0 3.19 1.69 1.69 0 0 0 1.31-.66zm6.73.4c0-.8-.42-1.06-1.08-1.06a1.69 1.69 0 0 0-1.32.68v3.9h-1.52v-8h1.52v3a2.68 2.68 0 0 1 2-.9 1.67 1.67 0 0 1 1.92 1.77v4.11h-1.52zm3.1 2.09v-3h-1v-1.33h1v-1.58h1.54v1.58h1.17v1.33h-1.18v2.61c0 .36.19.64.53.64a.83.83 0 0 0 .53-.17l.32 1.15a1.88 1.88 0 0 1-1.27.37 1.45 1.45 0 0 1-1.64-1.6zm5.97-1.46a3.06 3.06 0 1 1 3.12 3h-.06a2.93 2.93 0 0 1-3.058-2.796q-.005-.102-.002-.204zm4.55 0a1.49 1.49 0 1 0-1.49 1.69 1.53 1.53 0 0 0 1.498-1.561q-.001-.065-.008-.129zm6.38-.6a.94.94 0 0 0-1.07-1.08 1.65 1.65 0 0 0-1.32.68v3.9h-1.52v-5.79h1.52v.76a2.65 2.65 0 0 1 2-.9 1.68 1.68 0 0 1 1.92 1.79v4.09h-1.53zm9.61 2.77a2.27 2.27 0 0 1-1.79.88c-1.46 0-2.57-1.1-2.57-3s1.09-3 2.57-3a2.23 2.23 0 0 1 1.79.89v-3h1.54v8H60.9zm0-3.19a1.68 1.68 0 0 0-1.32-.66 1.7 1.7 0 0 0 0 3.37 1.67 1.67 0 0 0 1.32-.66zm6.29 3.32a2.4 2.4 0 0 1-1.83.74 1.93 1.93 0 0 1-1.999-1.859l-.001-.061a1.83 1.83 0 0 1 2-1.85 2.34 2.34 0 0 1 1.83.71v-.8c0-.59-.5-1-1.27-1a2.43 2.43 0 0 0-1.69.68l-.58-1a3.8 3.8 0 0 1 2.53-.91c1.32 0 2.53.53 2.53 2.19v3.74h-1.52zm0-1.51a1.52 1.52 0 0 0-1.22-.5c-.6 0-1.09.32-1.09.88s.49.85 1.09.85a1.52 1.52 0 0 0 1.22-.5zm2.81-3.69h1.52v.79a2.48 2.48 0 0 1 1.85-.92v1.49a1.996 1.996 0 0 0-.42 0 1.93 1.93 0 0 0-1.43.65v3.83H70zm6.29 3.57l-.7.74v1.49h-1.52v-8h1.52v4.79l2.2-2.58h1.87L77.37 521l2.36 3.17h-1.91z" class="cls-3"/><path d="M94.39 465.36a75.79 75.79 0 1 1 75.79-75.79 75.79 75.79 0 0 1-75.79 75.79z" class="cls-4"/><path d="M31.54 380.64a3.41 3.41 0 0 0 2.49 1c1.11 0 1.74-.63 1.74-1.4a1.503 1.503 0 0 0-1.68-1.43 2.69 2.69 0 0 0-2 .77l-1.39-.38v-5.34h6.42v1.71h-4.43v2.34a3.22 3.22 0 0 1 2.1-.77 2.91 2.91 0 0 1 3 2.817q.003.091 0 .183c0 2-1.48 3.22-3.74 3.22a4.66 4.66 0 0 1-3.6-1.4zm10.8-6.91c2.66 0 3.87 2.41 3.87 4.82s-1.2 4.83-3.87 4.83-3.87-2.42-3.87-4.83 1.19-4.82 3.87-4.82zm0 1.76c-1.34 0-1.85 1.33-1.85 3.05s.5 3.07 1.85 3.07 1.83-1.34 1.83-3.07-.5-3.04-1.83-3.04zm6.79-1.76a2.28 2.28 0 0 1 2.379 2.177q.004.086.001.173a2.38 2.38 0 0 1-4.75 0 2.28 2.28 0 0 1 2.207-2.35q.081-.003.163 0zm0 1.11a1.23 1.23 0 1 0 1.114 1.114 1.23 1.23 0 0 0-1.114-1.114zm5.06-1h1.07l-6 9.34h-1.04zm.08 4.85a2.29 2.29 0 0 1 2.379 2.197q.003.077.001.153a2.37 2.37 0 1 1-2.39-2.35zm0 1.11a1.806 1.806 0 1 0 .084.034q-.042-.004-.084-.004zM67 378.55a4.73 4.73 0 0 1 4.626-4.832q.137-.003.274.002a4.31 4.31 0 0 1 4 2.28l-1.71.84a2.56 2.56 0 0 0-2.27-1.36 3.08 3.08 0 0 0 0 6.14 2.53 2.53 0 0 0 2.27-1.36l1.71.83a4.33 4.33 0 0 1-4 2.3 4.73 4.73 0 0 1-4.898-4.556q-.005-.142-.002-.284z" class="cls-3"/><path d="M77.29 384.38a.9.9 0 0 0 .94-.49l.25-.57-2.75-6.86h1.9l1.77 4.71 1.76-4.71h1.92l-3.18 7.87a2.46 2.46 0 0 1-2.55 1.67 4.841 4.841 0 0 1-.88-.1l.27-1.6a1.54 1.54 0 0 0 .55.08zm10.38-1.87a2.8 2.8 0 0 1-2.14.87 2.25 2.25 0 0 1-2.348-2.148l-.002-.092a2.14 2.14 0 0 1 2.35-2.14 2.74 2.74 0 0 1 2.14.83v-.94c0-.69-.59-1.13-1.49-1.13a2.85 2.85 0 0 0-2 .8l-.67-1.19a4.44 4.44 0 0 1 3-1.06c1.54 0 3 .62 3 2.56v4.37h-1.84zm0-1.77a1.78 1.78 0 0 0-1.43-.59c-.7 0-1.28.38-1.28 1s.57 1 1.28 1a1.78 1.78 0 0 0 1.43-.59zm7.82-1.62a1.1 1.1 0 0 0-1.25-1.26 1.93 1.93 0 0 0-1.54.8v4.55h-1.77v-6.77h1.78v.88a3.1 3.1 0 0 1 2.37-1.05 2 2 0 0 1 2.2 2.16v4.78h-1.79zm-62.9 12.6l-1.54 1.58-1.13-1.19 2.94-3h1.74v9.34h-2zm6.99-2.72c2.66 0 3.87 2.41 3.87 4.82s-1.2 4.83-3.87 4.83-3.87-2.42-3.87-4.83 1.2-4.82 3.87-4.82zm0 1.76c-1.34 0-1.85 1.33-1.85 3.05s.5 3.07 1.85 3.07 1.83-1.34 1.83-3.07-.5-3.03-1.83-3.03zM48 389c2.66 0 3.87 2.41 3.87 4.82s-1.21 4.83-3.87 4.83-3.87-2.42-3.87-4.83S45.31 389 48 389zm0 1.76c-1.34 0-1.85 1.33-1.85 3.05s.5 3.07 1.85 3.07 1.83-1.34 1.83-3.07-.52-3.03-1.83-3.03zm6.77-1.76a2.28 2.28 0 0 1 2.379 2.177q.004.086.001.173a2.38 2.38 0 0 1-4.75 0 2.28 2.28 0 0 1 2.207-2.35q.081-.003.163 0zm0 1.11a1.23 1.23 0 1 0 1.114 1.114 1.23 1.23 0 0 0-1.114-1.114zm5.06-1h1.06l-6 9.34h-1.03zm.08 4.85a2.29 2.29 0 0 1 2.379 2.197q.003.077.001.153a2.37 2.37 0 1 1-2.43-2.31h.05zm0 1.11a2.629 2.629 0 1 0 .073.043q-.037-.003-.073-.003zm10.09-.4l-3.6-5.52h2.27l2.33 3.76 2.3-3.75h2.27L72 394.67v3.82h-2zm7.45-3.11a3.402 3.402 0 0 1 3.39 3.73v.39h-5a1.82 1.82 0 0 0 1.95 1.57 2.77 2.77 0 0 0 1.81-.67l.78 1.15a4.17 4.17 0 0 1-2.79.94 3.55 3.55 0 1 1-.11-7.1zm-1.67 2.91h3.33a1.57 1.57 0 0 0-1.635-1.502l-.035.002a1.63 1.63 0 0 0-1.66 1.51zm6.06-5.31h1.78v9.34h-1.78zm3.26 0h1.78v9.34H85.1zm2.83 5.95a3.58 3.58 0 1 1 3.6 3.56h-.03a3.43 3.43 0 0 1-3.57-3.284q-.005-.138 0-.276zm5.31 0a1.75 1.75 0 1 0-1.74 2 1.79 1.79 0 0 0 1.752-1.827q-.002-.087-.012-.173zm7.39-1.22l-1.43 4.61h-1.9l-2.06-6.77h1.85l1.26 4.55 1.49-4.55h1.58l1.49 4.55 1.26-4.55H106l-2 6.77h-1.89z" class="cls-3"/><path d="M274 590.37h188.77v258.42H274z" class="cls-6"/><path d="M368.39 760.55a75.79 75.79 0 1 1 75.79-75.79 75.79 75.79 0 0 1-75.79 75.79z" class="cls-5"/><path d="M286.5 773.59h7.09a4.87 4.87 0 0 1 .442 9.73q-.221.01-.442 0h-3.87v5.43h-3.22zm6.66 2.77h-3.43v4.18h3.43a2.1 2.1 0 1 0 0-4.18zm13.14 11.26a4.55 4.55 0 0 1-3.48 1.41 3.66 3.66 0 0 1-3.817-3.497q-.003-.071-.003-.143c0-2.57 2.07-3.5 3.82-3.5a4.44 4.44 0 0 1 3.48 1.34v-1.52c0-1.11-1-1.84-2.41-1.84a4.62 4.62 0 0 0-3.21 1.3l-1.09-1.93a7.2 7.2 0 0 1 4.8-1.73c2.5 0 4.8 1 4.8 4.16v7.09h-2.89zm0-2.87a2.89 2.89 0 0 0-2.32-1c-1.14 0-2.07.61-2.07 1.66s.93 1.61 2.07 1.61a2.89 2.89 0 0 0 2.32-1zm12.7-2.63a1.78 1.78 0 0 0-2-2 3.13 3.13 0 0 0-2.5 1.3v7.39h-2.9v-11h2.89v1.43a5 5 0 0 1 3.84-1.71c2.41 0 3.57 1.36 3.57 3.5v7.75H319zm5.88 3.88v-5.7h-1.82v-2.52h1.82v-3h2.91v3H330v2.52h-2.23v5c0 .68.36 1.21 1 1.21a1.58 1.58 0 0 0 1-.32l.61 2.18a3.56 3.56 0 0 1-2.38.63c-2 0-3.12-1-3.12-3zm5.96-2.75a5.81 5.81 0 1 1 5.85 5.77h-.05a5.56 5.56 0 0 1-5.799-5.31q-.01-.23-.001-.46zm8.62 0a2.9 2.9 0 0 0-2.606-3.167q-.106-.01-.214-.013a2.882 2.882 0 0 0-2.8 3.18c0 1.7 1 3.21 2.8 3.21s2.81-1.46 2.81-3.21zm12.09-1.13a1.78 1.78 0 0 0-2-2 3.13 3.13 0 0 0-2.5 1.3v7.39h-2.89v-11H347v1.43a5 5 0 0 1 3.84-1.71c2.41 0 3.57 1.36 3.57 3.5v7.75h-2.89zm10.27-4.62c3.27 0 5.5 2.46 5.5 6v.64h-8.16a3 3 0 0 0 3.16 2.55 4.49 4.49 0 0 0 2.93-1.09l1.27 1.86A6.77 6.77 0 0 1 362 789a5.766 5.766 0 0 1-.18-11.53zm-2.71 4.73h5.41a2.54 2.54 0 0 0-2.642-2.434l-.068.004a2.64 2.64 0 0 0-2.69 2.43zm15.89 2.25a6 6 0 0 0 4.18 1.73c1.84 0 2.86-.8 2.86-2s-.93-1.8-3-1.8h-1.89v-2.82h1.89c1.68 0 2.8-.55 2.8-1.68s-1.23-1.82-2.82-1.82a5.49 5.49 0 0 0-3.86 1.59l-1.59-2a7.46 7.46 0 0 1 5.8-2.41c3.55 0 5.73 1.59 5.73 4.12a3.72 3.72 0 0 1-3.32 3.46 3.8 3.8 0 0 1 3.55 3.64c0 2.61-2.34 4.46-6 4.46a7.58 7.58 0 0 1-6-2.43zm19-8.05h-7.64v-2.84h11.39v2.25l-5.64 12.91h-3.55zm11.57-3.07a6.84 6.84 0 0 1 4.48 1.57l-1.46 2.43a4 4 0 0 0-3-1.21c-2.3 0-3.8 2-3.8 4.39a1.35 1.35 0 0 0 0 .32 4.91 4.91 0 0 1 3.89-1.93c2.73 0 5.16 1.66 5.16 4.89 0 3-2.34 5.21-5.8 5.21-4.62 0-6.55-3.55-6.55-7.82.01-4.59 2.6-7.85 7.08-7.85zm-.82 8.25a3.89 3.89 0 0 0-3 1.46 3.127 3.127 0 0 0 3.09 3.14 2.44 2.44 0 0 0 2.674-2.181l.006-.069c.05-1.64-1.29-2.34-2.77-2.34zm7.12-.43a7.68 7.68 0 0 1 7.511-7.845q.245-.005.489.005a7 7 0 0 1 6.46 3.71l-2.77 1.36a4.15 4.15 0 0 0-3.68-2.21 5 5 0 1 0 0 10 4.11 4.11 0 0 0 3.68-2.21l2.77 1.34a7 7 0 0 1-6.46 3.73 7.68 7.68 0 0 1-7.996-7.35q-.011-.265-.004-.53zm-125.69 22.44a3.51 3.51 0 0 0 2.54 1.08c.94 0 1.39-.44 1.39-.9s-.7-.8-1.62-1c-1.31-.3-3-.66-3-2.45 0-1.33 1.15-2.41 3-2.41a4.45 4.45 0 0 1 3.12 1.12l-.95 1.25a3.41 3.41 0 0 0-2.29-.87c-.77 0-1.17.34-1.17.82s.67.71 1.59.92c1.32.3 3 .7 3 2.47 0 1.46-1 2.57-3.2 2.57a4.61 4.61 0 0 1-3.39-1.27zm6.54 4.63v-8h1.52v.75a2.24 2.24 0 0 1 1.79-.88c1.49 0 2.57 1.1 2.57 3s-1.08 3-2.57 3a2.21 2.21 0 0 1-1.79-.89v3zm2.83-6.79a1.71 1.71 0 0 0-1.31.66v2.05a1.74 1.74 0 0 0 1.31.66 1.7 1.7 0 0 0 0-3.37zm3.57 1.68a3.06 3.06 0 1 1 3.12 3h-.06a2.93 2.93 0 0 1-3.058-2.796q-.005-.102-.002-.204zm4.54 0a1.49 1.49 0 1 0-1.49 1.69 1.53 1.53 0 0 0 1.508-1.552q0-.069-.008-.138zm2.78 1.46v-3h-1v-1.33h1v-1.58H308v1.58h1.18v1.33H308v2.61c0 .36.19.64.53.64a.83.83 0 0 0 .53-.17l.32 1.15a1.88 1.88 0 0 1-1.27.37 1.45 1.45 0 0 1-1.67-1.6zm9.05-4.5a2.67 2.67 0 0 1 2.29 1.06l-1 .92a1.43 1.43 0 0 0-1.22-.62 1.69 1.69 0 0 0 0 3.37 1.46 1.46 0 0 0 1.22-.62l1 .92a2.67 2.67 0 0 1-2.29 1.06 3.04 3.04 0 0 1 0-6.08zm2.68 3.04a3.06 3.06 0 1 1 3.12 3h-.06a2.93 2.93 0 0 1-3.058-2.796q-.005-.102-.002-.204zm4.54 0a1.49 1.49 0 1 0-1.49 1.69 1.53 1.53 0 0 0 1.498-1.561q-.001-.065-.008-.129zm2.48-5.14h1.52v8h-1.52zm2.42 5.14a3.06 3.06 0 1 1 3.12 3h-.06a2.93 2.93 0 0 1-3.058-2.796q-.005-.102-.002-.204zm4.54 0a1.49 1.49 0 1 0-1.49 1.69 1.53 1.53 0 0 0 1.508-1.552q0-.069-.008-.138zm6.39 2.17a2.71 2.71 0 0 1-2 .88 1.66 1.66 0 0 1-1.87-1.82v-4.11h1.52v3.51a.93.93 0 0 0 1.07 1.07 1.71 1.71 0 0 0 1.32-.66v-3.92h1.52V806h-1.52zm2.8-5.06h1.52v.75a2.48 2.48 0 0 1 1.85-.92v1.49a2.064 2.064 0 0 0-.42 0 1.93 1.93 0 0 0-1.43.65V806h-1.52zm6.54 2.89a3.06 3.06 0 1 1 3.12 3h-.06a2.93 2.93 0 0 1-3.058-2.796q-.005-.102-.002-.204zm4.55 0a1.49 1.49 0 1 0-1.49 1.69 1.53 1.53 0 0 0 1.488-1.571q-.002-.06-.008-.119zm6.38-.6a.94.94 0 0 0-1.07-1.08 1.65 1.65 0 0 0-1.32.68V806h-1.52v-5.79h1.52v.79a2.65 2.65 0 0 1 2-.9 1.68 1.68 0 0 1 1.88 1.85V806h-1.52zm5.78 1.68a3.31 3.31 0 0 0 2 .79c.66 0 1-.23 1-.59s-.5-.55-1.16-.68c-1-.19-2.28-.43-2.28-1.81 0-1 .85-1.82 2.37-1.82a3.64 3.64 0 0 1 2.33.79l-.6 1a2.44 2.44 0 0 0-1.71-.67c-.55 0-.91.2-.91.54s.46.49 1.1.62c1 .19 2.33.46 2.33 1.89 0 1.07-.9 1.86-2.51 1.86a3.9 3.9 0 0 1-2.59-.9zm5.33 4.03v-8h1.52v.75a2.24 2.24 0 0 1 1.79-.88c1.49 0 2.57 1.1 2.57 3s-1.08 3-2.57 3a2.21 2.21 0 0 1-1.79-.89v3zm2.83-6.79a1.71 1.71 0 0 0-1.31.66v2.05a1.74 1.74 0 0 0 1.31.66 1.7 1.7 0 0 0 0-3.37zm3.58 1.68a3.06 3.06 0 1 1 3.12 3h-.06a2.93 2.93 0 0 1-3.058-2.796q-.005-.102-.002-.204zm4.55 0a1.49 1.49 0 1 0-1.49 1.69 1.53 1.53 0 0 0 1.498-1.561q-.001-.065-.008-.129zm2.77 1.46v-3h-1v-1.33h1v-1.58h1.54v1.58h1.17v1.33h-1.17v2.61c0 .36.19.64.53.64a.83.83 0 0 0 .53-.17l.32 1.15a1.88 1.88 0 0 1-1.27.37 1.45 1.45 0 0 1-1.65-1.6zm9.05-4.5a2.67 2.67 0 0 1 2.29 1.06l-1 .92a1.43 1.43 0 0 0-1.22-.62 1.69 1.69 0 0 0 0 3.37 1.46 1.46 0 0 0 1.22-.62l1 .92a2.67 2.67 0 0 1-2.29 1.06 3.04 3.04 0 0 1 0-6.08zm2.67 3.04a3.06 3.06 0 1 1 3.12 3h-.06a2.93 2.93 0 0 1-3.058-2.796q-.005-.102-.002-.204zm4.55 0a1.49 1.49 0 1 0-1.49 1.69 1.53 1.53 0 0 0 1.498-1.561q-.001-.065-.008-.129zm2.47-5.14h1.52v8h-1.52zm2.43 5.14a3.06 3.06 0 1 1 3.12 3h-.06a2.93 2.93 0 0 1-3.058-2.796q-.005-.102-.002-.204zm4.54 0a1.49 1.49 0 1 0-1.49 1.69 1.53 1.53 0 0 0 1.498-1.561q-.001-.065-.008-.129zm6.39 2.17a2.71 2.71 0 0 1-2 .88 1.66 1.66 0 0 1-1.87-1.82v-4.11h1.52v3.51a.93.93 0 0 0 1.07 1.07 1.71 1.71 0 0 0 1.32-.66v-3.92h1.52V806h-1.52zm2.79-5.06h1.52v.75a2.48 2.48 0 0 1 1.85-.92v1.49a2.064 2.064 0 0 0-.42 0 1.93 1.93 0 0 0-1.43.65V806h-1.52zm-132.75 11.07h3.15a4 4 0 0 1 0 8h-3.15zm3.15 6.5a2.39 2.39 0 0 0 2.51-2.265q.005-.112 0-.225a2.34 2.34 0 0 0-2.51-2.51h-1.45v5zm8.67.9a2.4 2.4 0 0 1-1.83.74 1.93 1.93 0 0 1-1.999-1.859l-.001-.061a1.84 1.84 0 0 1 1.823-1.857q.089 0 .177.007a2.34 2.34 0 0 1 1.83.71v-.8c0-.59-.5-1-1.27-1a2.44 2.44 0 0 0-1.69.68l-.58-1a3.8 3.8 0 0 1 2.53-.91c1.32 0 2.53.53 2.53 2.19v3.74h-1.52zm0-1.51a1.52 1.52 0 0 0-1.22-.5c-.6 0-1.09.32-1.09.88s.49.85 1.09.85a1.53 1.53 0 0 0 1.22-.5zm2.8-3.68h1.52v.79a2.48 2.48 0 0 1 1.85-.92v1.49a2.064 2.064 0 0 0-.42 0 1.93 1.93 0 0 0-1.43.65v3.83h-1.52zm6.3 3.56l-.7.74v1.49h-1.52v-8H306v4.79l2.19-2.58h1.87l-2.29 2.63 2.36 3.17h-1.91zm6.42-.67a3.06 3.06 0 1 1 3.12 3h-.06a2.93 2.93 0 0 1-3.058-2.796q-.005-.102-.002-.204zm4.54 0a1.49 1.49 0 1 0-1.49 1.69 1.53 1.53 0 0 0 1.498-1.561q-.001-.065-.008-.129zm6.39-.6a.94.94 0 0 0-1.07-1.08 1.65 1.65 0 0 0-1.32.68v3.9h-1.52v-5.79h1.52v.76a2.65 2.65 0 0 1 2-.9 1.68 1.68 0 0 1 1.88 1.85v4.09h-1.52zm5.63-4.5h1.52v8h-1.52zm2.64.45a.91.91 0 1 1 .91.91.92.92 0 0 1-.91-.91zm.16 1.76H334v5.79h-1.52zm3.35 6.18a2.3 2.3 0 0 0 1.81.72 1.42 1.42 0 0 0 1.6-1.46v-.59a2.26 2.26 0 0 1-1.79.91c-1.45 0-2.55-1-2.55-3s1.09-3 2.55-3a2.23 2.23 0 0 1 1.79.89v-.74h1.54v5.4c0 2.21-1.7 2.75-3.13 2.75a3.49 3.49 0 0 1-2.49-.86zm3.41-4.31a1.65 1.65 0 0 0-1.31-.66 1.6 1.6 0 0 0 0 3.19 1.69 1.69 0 0 0 1.31-.66zm6.75.4c0-.8-.42-1.06-1.08-1.06a1.69 1.69 0 0 0-1.32.68v3.9h-1.52v-8h1.52v3a2.68 2.68 0 0 1 2-.9 1.67 1.67 0 0 1 1.88 1.82v4.11H346zm3.08 2.08v-3h-1v-1.33h1v-1.58h1.54v1.58h1.17v1.33h-1.17v2.61c0 .36.19.64.53.64a.83.83 0 0 0 .53-.17l.32 1.15a1.88 1.88 0 0 1-1.27.37 1.45 1.45 0 0 1-1.65-1.6zm-44.63-139.21h4.37a3 3 0 0 1 0 6h-2.38V688h-2zm4.1 1.71h-2.12V683h2.12a1.29 1.29 0 1 0 0-2.58zm8.09 6.93a2.8 2.8 0 0 1-2.14.87 2.25 2.25 0 0 1-2.348-2.148l-.002-.092a2.14 2.14 0 0 1 2.35-2.16 2.73 2.73 0 0 1 2.14.83v-.94c0-.69-.59-1.13-1.48-1.13a2.84 2.84 0 0 0-2 .8l-.67-1.19a4.44 4.44 0 0 1 3-1.06c1.54 0 3 .62 3 2.56V688h-1.78zm0-1.76a1.78 1.78 0 0 0-1.43-.59c-.7 0-1.28.38-1.28 1s.57 1 1.28 1a1.78 1.78 0 0 0 1.43-.59zm7.83-1.63a1.1 1.1 0 0 0-1.25-1.26 1.93 1.93 0 0 0-1.54.8V688h-1.78v-6.77h1.78v.88a3.1 3.1 0 0 1 2.37-1.05 2 2 0 0 1 2.2 2.16V688h-1.78zm3.61 2.41v-3.53H327v-1.55h1.12v-1.85h1.79v1.85h1.37v1.55h-1.37v3.05c0 .42.22.74.62.74a1 1 0 0 0 .62-.2l.38 1.34a2.2 2.2 0 0 1-1.48.43 1.69 1.69 0 0 1-1.97-1.83zm3.67-1.71a3.58 3.58 0 1 1 3.6 3.56h-.03a3.43 3.43 0 0 1-3.57-3.284q-.005-.138 0-.276zm5.31 0a1.74 1.74 0 1 0-1.74 2 1.79 1.79 0 0 0 1.752-1.827q-.002-.087-.012-.173zm7.44-.7a1.1 1.1 0 0 0-1.25-1.26 1.93 1.93 0 0 0-1.54.8V688h-1.78v-6.77h1.78v.88a3.1 3.1 0 0 1 2.37-1.05 2 2 0 0 1 2.2 2.16V688h-1.78zm6.33-2.84a3.402 3.402 0 0 1 3.39 3.73v.39h-5a1.82 1.82 0 0 0 1.95 1.57 2.77 2.77 0 0 0 1.81-.67l.78 1.15a4.17 4.17 0 0 1-2.79.94 3.55 3.55 0 0 1-.11-7.1zm-1.66 2.92h3.33a1.57 1.57 0 0 0-1.635-1.502l-.035.002a1.63 1.63 0 0 0-1.66 1.5zm9.83 1.38a3.72 3.72 0 0 0 2.58 1.06c1.13 0 1.77-.49 1.77-1.21s-.57-1.11-1.88-1.11h-1.16v-1.74h1.16c1 0 1.72-.34 1.72-1s-.76-1.12-1.74-1.12a3.39 3.39 0 0 0-2.38 1l-1-1.23a4.6 4.6 0 0 1 3.57-1.48c2.19 0 3.53 1 3.53 2.54a2.29 2.29 0 0 1-2 2.13 2.34 2.34 0 0 1 2.18 2.24c0 1.61-1.44 2.75-3.68 2.75a4.67 4.67 0 0 1-3.68-1.5zm11.4.7h-4.47v-1.57l3.71-5.84h2.75v5.66h1.21v1.75h-1.21V688h-2zm-2.52-1.75h2.52v-3.89zm7.6 1.38a2.52 2.52 0 0 0 1.86.71 2.44 2.44 0 0 0 2.351-2.525q-.002-.083-.011-.165v-.2a3.09 3.09 0 0 1-2.41 1.2 3 3 0 0 1-3.184-2.804q-.006-.098-.006-.196a3.29 3.29 0 0 1 3.356-3.223q.117.002.234.013c2.83 0 4 2.19 4 4.83 0 2.82-1.58 4.82-4.34 4.82a4.08 4.08 0 0 1-2.75-1zm2.27-5.48a1.51 1.51 0 0 0-1.638 1.37l-.002.03c0 1 .83 1.43 1.72 1.43a2.35 2.35 0 0 0 1.82-.87 1.91 1.91 0 0 0-1.87-1.95h-.03zm4.62 3.12a4.73 4.73 0 0 1 4.626-4.832q.137-.003.274.002a4.31 4.31 0 0 1 4 2.28l-1.71.84a2.56 2.56 0 0 0-2.27-1.36 3.08 3.08 0 0 0 0 6.13 2.53 2.53 0 0 0 2.27-1.36l1.71.83a4.33 4.33 0 0 1-4 2.3 4.73 4.73 0 0 1-4.898-4.556q-.005-.137-.002-.274z" class="cls-3"/><path d="M0 590.37h188.77v258.42H0z" class="cls-5"/><path d="M12.5 773.59h7.09a4.87 4.87 0 0 1 .442 9.73q-.221.01-.442 0h-3.86v5.43H12.5zm6.66 2.77h-3.43v4.18h3.43a2.1 2.1 0 1 0 0-4.18zm13.14 11.26a4.55 4.55 0 0 1-3.47 1.38 3.66 3.66 0 0 1-3.826-3.486L25 785.39c0-2.57 2.07-3.5 3.82-3.5a4.44 4.44 0 0 1 3.48 1.34v-1.52c0-1.11-1-1.84-2.41-1.84a4.62 4.62 0 0 0-3.21 1.3l-1.09-1.93a7.2 7.2 0 0 1 4.8-1.73c2.5 0 4.8 1 4.8 4.16v7.09H32.3zm0-2.87a2.89 2.89 0 0 0-2.32-1c-1.14 0-2.07.61-2.07 1.66s.93 1.61 2.07 1.61a2.89 2.89 0 0 0 2.32-1zm12.7-2.63a1.78 1.78 0 0 0-2-2 3.13 3.13 0 0 0-2.5 1.3v7.39h-2.9v-11h2.89v1.43a5 5 0 0 1 3.84-1.71c2.41 0 3.57 1.36 3.57 3.5v7.75H45zm5.88 3.88v-5.7h-1.82v-2.52h1.82v-3h2.91v3H56v2.52h-2.21v5c0 .68.36 1.21 1 1.21a1.58 1.58 0 0 0 1-.32l.61 2.18a3.56 3.56 0 0 1-2.4.63c-2 0-3.12-1-3.12-3zm5.96-2.75a5.81 5.81 0 1 1 5.85 5.77h-.05a5.56 5.56 0 0 1-5.799-5.31q-.01-.23-.001-.46zm8.62 0a2.9 2.9 0 0 0-2.606-3.167q-.106-.01-.214-.013a2.882 2.882 0 0 0-2.8 3.18c0 1.7 1 3.21 2.8 3.21s2.81-1.46 2.81-3.21zm12.09-1.13a1.78 1.78 0 0 0-2-2 3.13 3.13 0 0 0-2.5 1.3v7.39h-2.91v-11H73v1.43a5 5 0 0 1 3.84-1.71c2.41 0 3.57 1.36 3.57 3.5v7.75h-2.86zm10.27-4.62c3.27 0 5.5 2.46 5.5 6v.64h-8.16a3 3 0 0 0 3.16 2.55 4.49 4.49 0 0 0 2.93-1.09l1.27 1.86A6.77 6.77 0 0 1 88 789a5.766 5.766 0 0 1-.18-11.53zm-2.71 4.73h5.41a2.54 2.54 0 0 0-2.642-2.434l-.068.004a2.64 2.64 0 0 0-2.69 2.43zm15.89 2.25a6 6 0 0 0 4.18 1.73c1.84 0 2.86-.8 2.86-2s-.93-1.8-3-1.8h-1.89v-2.82h1.89c1.68 0 2.8-.55 2.8-1.68s-1.23-1.82-2.82-1.82a5.49 5.49 0 0 0-3.86 1.59l-1.59-2a7.46 7.46 0 0 1 5.8-2.41c3.55 0 5.73 1.59 5.73 4.12a3.72 3.72 0 0 1-3.32 3.46 3.8 3.8 0 0 1 3.55 3.64c0 2.61-2.34 4.46-6 4.46a7.58 7.58 0 0 1-6-2.43zm18.61 1.14h-7.25v-2.55l6-9.48h4.46v9.19h2v2.84h-2v3.14h-3.23zm-4.09-2.84h4.09v-6.32zm12.34 2.22a4.1 4.1 0 0 0 3 1.16c2.43 0 3.8-2.07 3.8-4.37v-.32a5 5 0 0 1-3.91 2c-2.73 0-5.18-1.68-5.18-4.91 0-3 2.36-5.21 5.82-5.21 4.59 0 6.53 3.55 6.53 7.84 0 4.57-2.57 7.82-7 7.82a6.62 6.62 0 0 1-4.46-1.57zm3.68-8.89a2.45 2.45 0 0 0-2.656 2.224l-.004.046c0 1.61 1.34 2.32 2.8 2.32a3.81 3.81 0 0 0 3-1.41 3.1 3.1 0 0 0-3.05-3.15h-.08zm7.46 5.07a7.68 7.68 0 0 1 7.511-7.845q.245-.005.489.005a7 7 0 0 1 6.46 3.71l-2.77 1.36a4.15 4.15 0 0 0-3.68-2.21 5 5 0 0 0 0 10 4.11 4.11 0 0 0 3.68-2.21l2.77 1.34A7 7 0 0 1 147 789a7.68 7.68 0 0 1-7.995-7.352q-.01-.234-.005-.468zM12.18 803.62a3.51 3.51 0 0 0 2.54 1.08c.94 0 1.39-.44 1.39-.9s-.7-.8-1.62-1c-1.31-.3-3-.66-3-2.45 0-1.33 1.15-2.41 3-2.41a4.45 4.45 0 0 1 3.17 1.06l-.95 1.25a3.41 3.41 0 0 0-2.29-.87c-.77 0-1.17.34-1.17.82s.67.71 1.59.92c1.32.3 3 .7 3 2.47 0 1.46-1 2.57-3.2 2.57a4.61 4.61 0 0 1-3.39-1.27zm6.54 4.63v-8h1.52v.75a2.24 2.24 0 0 1 1.76-.9c1.49 0 2.57 1.1 2.57 3s-1.08 3-2.57 3a2.21 2.21 0 0 1-1.79-.89v3zm2.83-6.79a1.71 1.71 0 0 0-1.31.66v2.05a1.74 1.74 0 0 0 1.31.66 1.7 1.7 0 0 0 0-3.37zm3.57 1.68a3.06 3.06 0 1 1 3.12 3h-.06a2.93 2.93 0 0 1-3.058-2.796q-.005-.102-.002-.204zm4.54 0a1.49 1.49 0 1 0-1.49 1.69 1.53 1.53 0 0 0 1.508-1.552q0-.069-.008-.138zm2.78 1.46v-3h-1v-1.33h1v-1.58H34v1.58h1.18v1.33H34v2.61c0 .36.19.64.53.64a.83.83 0 0 0 .53-.17l.32 1.15a1.88 1.88 0 0 1-1.27.37 1.45 1.45 0 0 1-1.67-1.6zm9.05-4.5a2.67 2.67 0 0 1 2.29 1.06l-1 .92a1.43 1.43 0 0 0-1.22-.62 1.69 1.69 0 0 0 0 3.37 1.46 1.46 0 0 0 1.22-.62l1 .92a2.67 2.67 0 0 1-2.29 1.06 3.04 3.04 0 1 1 0-6.08zm2.68 3.04a3.06 3.06 0 1 1 3.12 3h-.06a2.93 2.93 0 0 1-3.058-2.796q-.005-.102-.002-.204zm4.54 0a1.49 1.49 0 1 0-1.49 1.69 1.53 1.53 0 0 0 1.498-1.561q-.001-.065-.008-.129zm2.48-5.14h1.52v8h-1.52zm2.42 5.14a3.06 3.06 0 1 1 3.12 3h-.06a2.93 2.93 0 0 1-3.058-2.796q-.005-.102-.002-.204zm4.54 0a1.49 1.49 0 1 0-1.49 1.69 1.53 1.53 0 0 0 1.508-1.552q0-.069-.008-.138zm6.39 2.17a2.71 2.71 0 0 1-2 .88 1.66 1.66 0 0 1-1.87-1.82v-4.11h1.52v3.51a.93.93 0 0 0 1.07 1.07 1.71 1.71 0 0 0 1.32-.66v-3.92h1.52V806h-1.56zm2.8-5.06h1.52v.75a2.48 2.48 0 0 1 1.85-.92v1.49a2.064 2.064 0 0 0-.42 0 1.93 1.93 0 0 0-1.43.65V806h-1.52zm6.54 2.89a3.06 3.06 0 1 1 3.12 3h-.06a2.93 2.93 0 0 1-3.058-2.796q-.005-.102-.002-.204zm4.55 0a1.49 1.49 0 1 0-1.49 1.69 1.53 1.53 0 0 0 1.488-1.571q-.002-.06-.008-.119zm6.38-.6a.94.94 0 0 0-1.07-1.08 1.65 1.65 0 0 0-1.32.68V806H80.9v-5.79h1.52v.79a2.65 2.65 0 0 1 2-.9 1.68 1.68 0 0 1 1.88 1.85V806h-1.49zm5.78 1.68a3.31 3.31 0 0 0 2 .79c.66 0 1-.23 1-.59s-.5-.55-1.16-.68c-1-.19-2.28-.43-2.28-1.81 0-1 .85-1.82 2.37-1.82a3.64 3.64 0 0 1 2.33.79l-.6 1a2.44 2.44 0 0 0-1.71-.67c-.55 0-.91.2-.91.54s.46.49 1.1.62c1 .19 2.33.46 2.33 1.89 0 1.07-.9 1.86-2.51 1.86a3.9 3.9 0 0 1-2.59-.9zm5.33 4.03v-8h1.52v.75a2.24 2.24 0 0 1 1.79-.88c1.49 0 2.57 1.1 2.57 3s-1.08 3-2.57 3a2.21 2.21 0 0 1-1.79-.89v3zm2.83-6.79a1.71 1.71 0 0 0-1.31.66v2.05a1.74 1.74 0 0 0 1.31.66 1.7 1.7 0 0 0 0-3.37zm3.58 1.68a3.06 3.06 0 1 1 3.12 3h-.06a2.93 2.93 0 0 1-3.058-2.796q-.004-.102-.002-.204zm4.55 0a1.49 1.49 0 1 0-1.49 1.69 1.53 1.53 0 0 0 1.498-1.561q-.001-.065-.008-.129zm2.77 1.46v-3h-1v-1.33h1v-1.58h1.54v1.58h1.17v1.33h-1.17v2.61c0 .36.19.64.53.64a.83.83 0 0 0 .53-.17l.32 1.15a1.88 1.88 0 0 1-1.27.37 1.45 1.45 0 0 1-1.65-1.6zm9.05-4.5a2.67 2.67 0 0 1 2.29 1.06l-1 .92a1.43 1.43 0 0 0-1.22-.62 1.69 1.69 0 0 0 0 3.37 1.46 1.46 0 0 0 1.22-.62l1 .92a2.67 2.67 0 0 1-2.29 1.06 3.04 3.04 0 0 1 0-6.08zm2.67 3.04a3.06 3.06 0 1 1 3.12 3h-.06a2.93 2.93 0 0 1-3.058-2.796q-.004-.102-.002-.204zm4.55 0a1.49 1.49 0 1 0-1.49 1.69 1.53 1.53 0 0 0 1.498-1.561q-.001-.065-.008-.129zm2.47-5.14h1.52v8h-1.52zm2.43 5.14a3.06 3.06 0 1 1 3.12 3h-.06a2.93 2.93 0 0 1-3.058-2.796q-.005-.102-.002-.204zm4.54 0a1.49 1.49 0 1 0-1.49 1.69 1.53 1.53 0 0 0 1.498-1.561q-.001-.065-.008-.129zm6.39 2.17a2.71 2.71 0 0 1-2 .88 1.66 1.66 0 0 1-1.87-1.82v-4.11h1.52v3.51a.93.93 0 0 0 1.07 1.07 1.71 1.71 0 0 0 1.32-.66v-3.92h1.52V806h-1.52zm2.79-5.06h1.52v.75a2.48 2.48 0 0 1 1.85-.92v1.49a2.064 2.064 0 0 0-.42 0 1.93 1.93 0 0 0-1.43.65V806h-1.52zM11.79 813.32h1.7v6.5h3.38v1.5h-5.08zm5.85.45a.91.91 0 1 1 .91.91.92.92 0 0 1-.91-.91zm.16 1.76h1.52v5.79h-1.53zm3.35 6.18a2.3 2.3 0 0 0 1.81.72 1.42 1.42 0 0 0 1.6-1.43v-.59a2.25 2.25 0 0 1-1.79.91c-1.45 0-2.55-1-2.55-3s1.09-3 2.55-3a2.23 2.23 0 0 1 1.79.89v-.74h1.54v5.4c0 2.21-1.7 2.75-3.13 2.75a3.49 3.49 0 0 1-2.5-.86zm3.41-4.31a1.65 1.65 0 0 0-1.31-.66 1.6 1.6 0 0 0 0 3.19 1.69 1.69 0 0 0 1.31-.66zm6.73.4c0-.8-.42-1.06-1.08-1.06a1.69 1.69 0 0 0-1.32.68v3.9h-1.52v-8h1.52v3a2.68 2.68 0 0 1 2-.9 1.67 1.67 0 0 1 1.88 1.82v4.11h-1.48zm3.1 2.08v-3h-1v-1.33h1v-1.58h1.54v1.58h1.17v1.33h-1.18v2.61c0 .36.19.64.53.64a.83.83 0 0 0 .53-.17l.32 1.15a1.88 1.88 0 0 1-1.27.37 1.45 1.45 0 0 1-1.64-1.6zm5.97-1.46a3.06 3.06 0 1 1 3.12 3h-.06a2.93 2.93 0 0 1-3.058-2.796q-.005-.102-.002-.204zm4.55 0a1.49 1.49 0 1 0-1.49 1.69 1.53 1.53 0 0 0 1.498-1.561q-.001-.065-.008-.129zm6.38-.6a.94.94 0 0 0-1.07-1.08 1.65 1.65 0 0 0-1.32.68v3.9h-1.52v-5.79h1.52v.76a2.66 2.66 0 0 1 2-.9 1.68 1.68 0 0 1 1.88 1.85v4.09h-1.49zm9.61 2.77a2.27 2.27 0 0 1-1.79.88c-1.46 0-2.57-1.1-2.57-3s1.09-3 2.57-3a2.23 2.23 0 0 1 1.79.89v-3h1.54v8H60.9zm0-3.19a1.67 1.67 0 0 0-1.32-.66 1.7 1.7 0 0 0 0 3.37 1.68 1.68 0 0 0 1.32-.66zm6.29 3.32a2.4 2.4 0 0 1-1.83.74 1.93 1.93 0 0 1-1.999-1.859l-.001-.061a1.83 1.83 0 0 1 2-1.85 2.34 2.34 0 0 1 1.83.71v-.8c0-.59-.5-1-1.27-1a2.44 2.44 0 0 0-1.69.68l-.58-1a3.8 3.8 0 0 1 2.53-.91c1.32 0 2.53.53 2.53 2.19v3.74h-1.52zm0-1.51a1.52 1.52 0 0 0-1.22-.5c-.6 0-1.09.32-1.09.88s.49.85 1.09.85a1.53 1.53 0 0 0 1.22-.5zm2.81-3.68h1.52v.79a2.48 2.48 0 0 1 1.85-.92v1.49a2.064 2.064 0 0 0-.42 0 1.93 1.93 0 0 0-1.43.65v3.83H70zm6.29 3.56l-.7.74v1.49h-1.52v-8h1.52v4.79l2.2-2.58h1.87l-2.29 2.63 2.36 3.17h-1.91z" class="cls-3"/><path d="M94.39 760.55a75.79 75.79 0 1 1 75.79-75.79 75.79 75.79 0 0 1-75.79 75.79z" class="cls-6"/><path d="M30.69 678.67h4.37a3 3 0 1 1 0 6h-2.38V688h-2zm4.1 1.71h-2.11V683h2.12a1.29 1.29 0 0 0 0-2.58zm8.1 6.93a2.8 2.8 0 0 1-2.14.87 2.25 2.25 0 0 1-2.348-2.148l-.002-.092a2.14 2.14 0 0 1 2.35-2.16 2.73 2.73 0 0 1 2.14.83v-.94c0-.69-.59-1.13-1.48-1.13a2.85 2.85 0 0 0-2 .8l-.67-1.19a4.44 4.44 0 0 1 3-1.06c1.54 0 3 .62 3 2.56V688h-1.85zm0-1.76a1.78 1.78 0 0 0-1.43-.59c-.7 0-1.27.38-1.27 1s.57 1 1.27 1a1.78 1.78 0 0 0 1.43-.59zm7.82-1.63a1.1 1.1 0 0 0-1.25-1.26 1.93 1.93 0 0 0-1.54.8V688h-1.78v-6.77h1.78v.88a3.1 3.1 0 0 1 2.37-1.05 2 2 0 0 1 2.2 2.16V688h-1.78zm3.61 2.41v-3.53H53.2v-1.55h1.12v-1.85h1.79v1.85h1.37v1.55h-1.37v3.05c0 .42.22.74.62.74a1 1 0 0 0 .62-.2l.38 1.34a2.2 2.2 0 0 1-1.49.43 1.69 1.69 0 0 1-1.92-1.83zm3.68-1.71a3.58 3.58 0 1 1 3.6 3.56h-.03a3.43 3.43 0 0 1-3.57-3.284q-.005-.138 0-.276zm5.31 0a1.75 1.75 0 1 0-1.74 2 1.79 1.79 0 0 0 1.742-1.837q-.002-.082-.012-.163zm7.43-.7a1.1 1.1 0 0 0-1.25-1.26 1.93 1.93 0 0 0-1.54.8V688h-1.77v-6.77H68v.88a3.1 3.1 0 0 1 2.37-1.05 2 2 0 0 1 2.2 2.16V688h-1.83zm6.33-2.84a3.402 3.402 0 0 1 3.39 3.73v.39h-5a1.82 1.82 0 0 0 1.95 1.57 2.77 2.77 0 0 0 1.81-.67l.78 1.15a4.17 4.17 0 0 1-2.79.94 3.55 3.55 0 0 1-.11-7.1zM75.41 684h3.33a1.57 1.57 0 0 0-1.635-1.502l-.035.002a1.63 1.63 0 0 0-1.66 1.5zm9.79 1.38a3.72 3.72 0 0 0 2.58 1.06c1.13 0 1.77-.49 1.77-1.21s-.57-1.11-1.88-1.11h-1.16v-1.74h1.16c1 0 1.72-.34 1.72-1s-.76-1.12-1.74-1.12a3.38 3.38 0 0 0-2.38 1l-1-1.23a4.6 4.6 0 0 1 3.57-1.48c2.19 0 3.53 1 3.53 2.54a2.29 2.29 0 0 1-2 2.13 2.34 2.34 0 0 1 2.18 2.24c0 1.61-1.44 2.75-3.68 2.75a4.67 4.67 0 0 1-3.68-1.5zm11.46-6.85a4.22 4.22 0 0 1 2.76 1l-.9 1.5a2.46 2.46 0 0 0-4.2 2 .82.82 0 0 0 0 .2 3.133 3.133 0 0 1 5.575 1.625q.005.092.005.185a3.28 3.28 0 0 1-3.337 3.222q-.117-.002-.233-.012c-2.84 0-4-2.18-4-4.82-.03-2.9 1.57-4.9 4.33-4.9zm-.5 5.08a2.4 2.4 0 0 0-1.82.9 1.91 1.91 0 0 0 1.89 1.93h.02a1.5 1.5 0 0 0 1.646-1.339l.004-.051c-.01-1.05-.84-1.44-1.75-1.44zm6.39-.42a2.34 2.34 0 0 1-1.85-2.2c0-1.75 1.86-2.46 3.6-2.46s3.6.71 3.6 2.46a2.35 2.35 0 0 1-1.86 2.2 2.7 2.7 0 0 1 2 2.4c0 1.74-1.79 2.59-3.75 2.59s-3.75-.84-3.75-2.59a2.68 2.68 0 0 1 2.01-2.4zm1.75.88c-.59.07-1.74.46-1.74 1.27s.76 1.12 1.74 1.12 1.7-.46 1.7-1.11-1.12-1.21-1.7-1.27zm0-3.84c-.92 0-1.58.41-1.58 1.07s1 1 1.58 1.13c.57-.08 1.57-.41 1.57-1.13s-.66-1.06-1.57-1.06zm4.44 3.12a4.73 4.73 0 0 1 4.626-4.832q.137-.003.274.002a4.31 4.31 0 0 1 4 2.28l-1.71.84a2.56 2.56 0 0 0-2.27-1.36 3.08 3.08 0 0 0 0 6.13 2.53 2.53 0 0 0 2.27-1.36l1.71.83a4.34 4.34 0 0 1-4 2.3 4.73 4.73 0 0 1-4.898-4.556q-.005-.137-.002-.274zM30.54 92.1a7.68 7.68 0 0 1 7.511-7.845q.245-.005.489.005A7 7 0 0 1 45 88l-2.77 1.36a4.15 4.15 0 0 0-3.68-2.21 5 5 0 0 0 0 10 4.11 4.11 0 0 0 3.68-2.21L45 96.22a7 7 0 0 1-6.46 3.73 7.68 7.68 0 0 1-7.995-7.351q-.01-.249-.005-.499z" class="cls-3"/><path d="M47.32 101.56a1.46 1.46 0 0 0 1.52-.8l.41-.93-4.46-11.14h3.09l2.86 7.64 2.86-7.64h3.12l-5.16 12.78c-.82 2.07-2.27 2.61-4.16 2.66A7.85 7.85 0 0 1 46 104l.43-2.59a2.49 2.49 0 0 0 .89.15zm16.84-3.02a4.54 4.54 0 0 1-3.48 1.41 3.66 3.66 0 0 1-3.817-3.497q-.003-.071-.003-.143c0-2.57 2.07-3.5 3.82-3.5a4.44 4.44 0 0 1 3.48 1.34v-1.53c0-1.11-1-1.84-2.41-1.84a4.62 4.62 0 0 0-3.21 1.3l-1.09-1.93a7.2 7.2 0 0 1 4.8-1.73c2.5 0 4.8 1 4.8 4.16v7.09h-2.89zm0-2.86a2.89 2.89 0 0 0-2.32-1c-1.14 0-2.07.61-2.07 1.66S60.71 98 61.85 98a2.89 2.89 0 0 0 2.32-1zM76.87 93a1.78 1.78 0 0 0-2-2 3.13 3.13 0 0 0-2.5 1.3v7.39h-2.91v-11h2.89v1.43a5 5 0 0 1 3.84-1.71c2.41 0 3.57 1.36 3.57 3.5v7.75h-2.89z" class="cls-3"/><path d="M309.25 93.46l-5.84-9h3.68l3.77 6.09 3.73-6.09h3.68l-5.8 9v6.21h-3.23zm12.08-5.04c3.27 0 5.5 2.46 5.5 6v.64h-8.16a3 3 0 0 0 3.16 2.55 4.49 4.49 0 0 0 2.93-1.09l1.24 1.9a6.77 6.77 0 0 1-4.52 1.52 5.766 5.766 0 0 1-.18-11.53zm-2.71 4.73H324a2.54 2.54 0 0 0-2.642-2.434l-.068.004a2.64 2.64 0 0 0-2.67 2.43zm9.85-8.64h2.89v15.16h-2.89zm5.29 0h2.89v15.16h-2.89zm4.6 9.66a5.81 5.81 0 1 1 5.85 5.77h-.05a5.56 5.56 0 0 1-5.799-5.31q-.01-.23-.001-.46zm8.62 0a2.9 2.9 0 0 0-2.617-3.158q-.106-.01-.213-.012a2.882 2.882 0 0 0-2.8 3.18c0 1.7 1 3.21 2.8 3.21a2.938 2.938 0 0 0 2.85-3.22zM359 92.19l-2.32 7.48h-3.09l-3.34-11h3l2 7.39 2.41-7.39h2.57l2.41 7.39 2-7.39h3l-3.34 11h-3z" class="cls-2"/></svg>