<svg xmlns="http://www.w3.org/2000/svg" id="Layer_1" viewBox="0 0 481.16 101.22" width="481.16" height="101.22"><defs><style>.cls-1{fill:#00673e}.cls-2{fill:#94c948}.cls-3{fill:#58595b}.cls-4{fill:#6d6e71}.cls-5{fill:#fff}.cls-6{fill:none;stroke:#bcbec0}.cls-7{fill:#00aeef}</style></defs><path d="M10.33 46.68l-3.88 9.54h-.76L1.8 46.68v9.54H0v-12h2.57l3.49 8.63 3.49-8.62h2.57v12h-1.8zm3.89 5.18a4.4 4.4 0 1 1 4.39 4.57 4.32 4.32 0 0 1-4.39-4.57zm7.09 0c0-1.64-1-3.12-2.7-3.12a2.83 2.83 0 0 0-2.7 3.12c0 1.66 1 3.13 2.7 3.13s2.7-1.47 2.7-3.13zM30.93 55a4.29 4.29 0 0 1-3.1 1.4 2.45 2.45 0 0 1-2.77-2.77v-6.11h1.62v5.6c0 1.44.72 1.87 1.84 1.87a3.14 3.14 0 0 0 2.41-1.22v-6.25h1.62v8.7h-1.62zM41 50.66c0-1.44-.74-1.91-1.85-1.91A3.11 3.11 0 0 0 36.74 50v6.21h-1.62v-8.7h1.62v1.22a4.15 4.15 0 0 1 3.08-1.44 2.5 2.5 0 0 1 2.79 2.81v6.1H41zm4.5 3.63v-5.34h-1.44v-1.43h1.44v-2.37h1.62v2.38h1.76v1.42h-1.76v5c0 .61.29 1.06.85 1.06a1.25 1.25 0 0 0 .88-.34l.41 1.22a2.31 2.31 0 0 1-1.69.56 1.89 1.89 0 0 1-2.07-2.16zm10.55.98a3.73 3.73 0 0 1-2.85 1.17 2.89 2.89 0 0 1-3-2.88 2.81 2.81 0 0 1 3-2.84 3.63 3.63 0 0 1 2.85 1.15v-1.45c0-1.08-.88-1.73-2.12-1.73a3.56 3.56 0 0 0-2.61 1.15l-.7-1.12a4.89 4.89 0 0 1 3.57-1.42c1.89 0 3.49.83 3.49 3v5.87h-1.63zm0-2.43a2.75 2.75 0 0 0-2.23-1 1.75 1.75 0 1 0 0 3.46 2.76 2.76 0 0 0 2.23-1zM60 45a1.06 1.06 0 0 1 1-1 1 1 0 0 1 1 1 1 1 0 0 1-1 1 1 1 0 0 1-1-1zm.25 2.49h1.62v8.7h-1.61zm10.08 3.17c0-1.44-.74-1.91-1.85-1.91a3.11 3.11 0 0 0-2.4 1.25v6.21h-1.62v-8.7h1.62v1.22a4.15 4.15 0 0 1 3.08-1.44 2.5 2.5 0 0 1 2.79 2.81v6.1h-1.62zm8.83-6.45h1.62v4.57a3.49 3.49 0 0 1 2.84-1.48c2.27 0 3.87 1.78 3.87 4.57s-1.62 4.55-3.87 4.55A3.57 3.57 0 0 1 80.78 55v1.24h-1.62zM83.2 55c1.62 0 2.63-1.3 2.63-3.11s-1-3.13-2.63-3.13A3 3 0 0 0 80.78 50v3.69A3 3 0 0 0 83.2 55zm6.11-10a1.06 1.06 0 0 1 1-1 1 1 0 0 1 1 1 1 1 0 0 1-1 1 1 1 0 0 1-1-1zm.25 2.49h1.62v8.7h-1.61zm7.14 4.99l-1.31 1.33v2.41h-1.63v-12h1.62v7.72l4.2-4.41h2l-3.75 3.94 3.78 4.75h-2.02zm9.81-5.17c2.61 0 4.23 2 4.23 4.7v.4h-6.88a2.85 2.85 0 0 0 3 2.7 3.7 3.7 0 0 0 2.58-1l.76 1.06a4.89 4.89 0 0 1-3.49 1.3 4.57 4.57 0 0 1-.14-9.13zm-2.67 3.93h5.31a2.57 2.57 0 0 0-2.65-2.59 2.66 2.66 0 0 0-2.66 2.58zm18.97-1.7l-2.14 6.68H119l-2.74-8.7H118l2 6.63 2.18-6.63h1.4l2.18 6.63 2-6.63h1.69l-2.74 8.7H125zm7.74-4.54a1.06 1.06 0 0 1 1-1 1 1 0 0 1 1 1 1 1 0 0 1-1 1 1 1 0 0 1-1-1zm.25 2.49h1.62v8.7h-1.62zm4.52 6.8v-5.34h-1.44v-1.43h1.44v-2.37h1.62v2.38h1.76v1.42h-1.76v5c0 .61.29 1.06.85 1.06a1.25 1.25 0 0 0 .88-.34l.41 1.22a2.31 2.31 0 0 1-1.69.56 1.89 1.89 0 0 1-2.07-2.16zm11.06-3.67c0-1.44-.74-1.87-1.85-1.87a3.11 3.11 0 0 0-2.4 1.25v6.21h-1.62v-12h1.62v4.54a4.18 4.18 0 0 1 3.08-1.44 2.47 2.47 0 0 1 2.79 2.77v6.14h-1.62zm9.25-1.67h-1.44v-1.43h1.44v-.58a2.6 2.6 0 0 1 2.64-2.94 2.86 2.86 0 0 1 1.42.32l-.38 1.21a1.55 1.55 0 0 0-.77-.2c-.81 0-1.3.54-1.3 1.58v.58H159v1.42h-1.76v7.27h-1.62zm4.93-1.43h1.62v1.33a3.69 3.69 0 0 1 2.82-1.52V49a2.54 2.54 0 0 0-.56-.05 3.07 3.07 0 0 0-2.29 1.26v6h-1.62zm5.54 4.34a4.4 4.4 0 1 1 4.39 4.57 4.32 4.32 0 0 1-4.39-4.57zm7.09 0c0-1.64-1-3.12-2.7-3.12a2.83 2.83 0 0 0-2.7 3.12c0 1.66 1 3.13 2.7 3.13s2.7-1.47 2.7-3.13zm9.62-1.2c0-1.44-.74-1.91-1.85-1.91a3.11 3.11 0 0 0-2.4 1.25v6.21h-1.62v-8.7h1.62v1.22a4.15 4.15 0 0 1 3.08-1.44 2.5 2.5 0 0 1 2.79 2.81v6.1h-1.62zm4.51 3.63v-5.34h-1.44v-1.43h1.44v-2.37h1.62v2.38h1.76v1.42h-1.76v5c0 .61.29 1.06.85 1.06a1.25 1.25 0 0 0 .88-.34l.41 1.22a2.31 2.31 0 0 1-1.69.56 1.89 1.89 0 0 1-2.07-2.16zm9.85-.39a4.22 4.22 0 0 0 2.92 1.24c1.22 0 1.87-.5 1.87-1.24s-1-1.15-2.11-1.41c-1.48-.34-3.21-.74-3.21-2.61 0-1.39 1.19-2.58 3.31-2.58a4.65 4.65 0 0 1 3.31 1.24l-.72 1.13a3.39 3.39 0 0 0-2.54-1.05c-1.1 0-1.78.43-1.78 1.13s.94 1 2 1.26c1.51.34 3.31.76 3.31 2.75 0 1.5-1.22 2.67-3.51 2.67a5 5 0 0 1-3.62-1.35zm14.27 1.1a4.29 4.29 0 0 1-3.1 1.4 2.45 2.45 0 0 1-2.77-2.77v-6.11h1.62v5.6c0 1.44.72 1.87 1.84 1.87a3.14 3.14 0 0 0 2.41-1.22v-6.25h1.62v8.7h-1.62zm4.21-1.1a4.22 4.22 0 0 0 2.92 1.24c1.22 0 1.87-.5 1.87-1.24s-1-1.15-2.11-1.41c-1.48-.34-3.2-.74-3.2-2.61 0-1.39 1.19-2.58 3.31-2.58a4.66 4.66 0 0 1 3.31 1.24l-.75 1.14a3.39 3.39 0 0 0-2.57-1.06c-1.1 0-1.78.43-1.78 1.13s.94 1 2 1.26c1.51.34 3.31.76 3.31 2.75 0 1.5-1.22 2.67-3.51 2.67a5 5 0 0 1-3.62-1.35zm8.41 5.63v-12h1.62v1.24a3.54 3.54 0 0 1 2.84-1.46c2.27 0 3.87 1.71 3.87 4.56s-1.6 4.57-3.87 4.57a3.47 3.47 0 0 1-2.84-1.44v4.57zm4-10.79a3 3 0 0 0-2.38 1.26v3.69a3 3 0 0 0 2.41 1.31c1.62 0 2.61-1.31 2.61-3.13s-.99-3.12-2.61-3.12zm10.2-1.43c2.61 0 4.23 2 4.23 4.7v.4h-6.88a2.85 2.85 0 0 0 3 2.7 3.7 3.7 0 0 0 2.58-1l.76 1.06a4.89 4.89 0 0 1-3.49 1.3 4.57 4.57 0 0 1-.14-9.13zm-2.67 3.93h5.31a2.57 2.57 0 0 0-2.65-2.59 2.66 2.66 0 0 0-2.65 2.58zm14.81-.58c0-1.44-.74-1.91-1.86-1.91a3.11 3.11 0 0 0-2.39 1.25v6.21h-1.62v-8.7h1.62v1.22a4.15 4.15 0 0 1 3.08-1.44 2.5 2.5 0 0 1 2.77 2.83v6.1h-1.6zm4.21 3.24a4.22 4.22 0 0 0 2.92 1.24c1.22 0 1.87-.5 1.87-1.24s-1-1.15-2.11-1.41c-1.48-.34-3.21-.74-3.21-2.61 0-1.39 1.19-2.58 3.31-2.58a4.65 4.65 0 0 1 3.31 1.24l-.7 1.14a3.39 3.39 0 0 0-2.58-1.06c-1.1 0-1.78.43-1.78 1.13s.94 1 2 1.26c1.51.34 3.31.76 3.31 2.75 0 1.5-1.22 2.67-3.51 2.67a5 5 0 0 1-3.62-1.35zm8.15-8.9a1.06 1.06 0 0 1 1-1 1 1 0 0 1 1 1 1 1 0 0 1-1 1 1 1 0 0 1-1-1zm.25 2.49h1.62v8.7H263zm3.66 4.37a4.4 4.4 0 1 1 4.39 4.57 4.32 4.32 0 0 1-4.39-4.57zm7.09 0c0-1.64-1-3.12-2.7-3.12a2.83 2.83 0 0 0-2.7 3.12c0 1.66 1 3.13 2.7 3.13s2.7-1.47 2.7-3.13zm9.61-1.2c0-1.44-.74-1.91-1.85-1.91a3.1 3.1 0 0 0-2.4 1.25v6.21h-1.62v-8.7h1.62v1.22a4.15 4.15 0 0 1 3.08-1.44 2.5 2.5 0 0 1 2.8 2.83v6.1h-1.62z" class="cls-1"/><path d="M291.13 54.17a1.14 1.14 0 0 1 1.13 1.12 1.15 1.15 0 0 1-1.13 1.13 1.14 1.14 0 0 1-1.13-1.14 1.12 1.12 0 0 1 1.13-1.11zm8.93 0a1.14 1.14 0 0 1 1.13 1.12 1.15 1.15 0 0 1-1.13 1.13 1.14 1.14 0 0 1-1.12-1.13 1.12 1.12 0 0 1 1.12-1.12zm8.94 0a1.14 1.14 0 0 1 1.13 1.12 1.15 1.15 0 0 1-1.13 1.13 1.14 1.14 0 0 1-1.12-1.13 1.12 1.12 0 0 1 1.12-1.12zm8.92 0a1.14 1.14 0 0 1 1.13 1.12 1.15 1.15 0 0 1-1.13 1.13 1.14 1.14 0 0 1-1.12-1.13 1.12 1.12 0 0 1 1.12-1.12zm8.92 0a1.14 1.14 0 0 1 1.16 1.11 1.15 1.15 0 0 1-1.13 1.13 1.14 1.14 0 0 1-1.12-1.13 1.12 1.12 0 0 1 1.09-1.11zm8.93 0a1.14 1.14 0 0 1 1.13 1.12 1.15 1.15 0 0 1-1.13 1.13 1.14 1.14 0 0 1-1.12-1.13 1.12 1.12 0 0 1 1.12-1.12zm8.93 0a1.14 1.14 0 0 1 1.13 1.12 1.15 1.15 0 0 1-1.13 1.13 1.14 1.14 0 0 1-1.12-1.13 1.12 1.12 0 0 1 1.12-1.12zm8.93 0a1.14 1.14 0 0 1 1.13 1.12 1.15 1.15 0 0 1-1.13 1.13 1.14 1.14 0 0 1-1.12-1.13 1.12 1.12 0 0 1 1.12-1.12zm8.92 0a1.14 1.14 0 0 1 1.13 1.12 1.15 1.15 0 0 1-1.13 1.13 1.14 1.14 0 0 1-1.12-1.13 1.12 1.12 0 0 1 1.12-1.12zm8.93 0a1.14 1.14 0 0 1 1.13 1.12 1.15 1.15 0 0 1-1.13 1.13 1.14 1.14 0 0 1-1.12-1.13 1.12 1.12 0 0 1 1.12-1.12zm8.93 0a1.14 1.14 0 0 1 1.13 1.12 1.15 1.15 0 0 1-1.13 1.13 1.14 1.14 0 0 1-1.12-1.13 1.12 1.12 0 0 1 1.12-1.12zm8.93 0a1.14 1.14 0 0 1 1.13 1.12 1.15 1.15 0 0 1-1.13 1.13 1.14 1.14 0 0 1-1.12-1.13 1.12 1.12 0 0 1 1.12-1.12zm8.93 0a1.14 1.14 0 0 1 1.13 1.12 1.15 1.15 0 0 1-1.13 1.13 1.14 1.14 0 0 1-1.12-1.13 1.12 1.12 0 0 1 1.12-1.12z" class="cls-2"/><path d="M412.8 56.4V58h-1.28v-1.6a5.91 5.91 0 0 1-4.14-1.89l1-1.39a5 5 0 0 0 3.12 1.64v-3.9c-1.84-.47-3.76-1.13-3.76-3.4 0-1.85 1.53-3.24 3.76-3.4v-1.67h1.28v1.67a5.61 5.61 0 0 1 3.58 1.64l-1.04 1.3a4.46 4.46 0 0 0-2.52-1.31v3.51c1.87.5 3.85 1.19 3.85 3.58 0 1.77-1.12 3.4-3.85 3.62zm-1.28-7.51v-3.24c-1.15.09-1.91.74-1.91 1.67s.83 1.27 1.91 1.57zm3.29 4.11c0-1-.88-1.44-2-1.78v3.58c1.46-.18 2-1.06 2-1.8zm5.98-6.43l-1.94 2-1.06-1.1 3.21-3.26h1.58v12h-1.8zm4.6 6.73a4.37 4.37 0 0 0 3.35 1.53c1.66 0 2.65-.79 2.65-2.05s-1.08-1.89-2.83-1.89h-1.3v-1.62h1.3c1.46 0 2.65-.54 2.65-1.78s-1.15-1.87-2.57-1.87A4.2 4.2 0 0 0 425.5 47l-1-1.12a5.42 5.42 0 0 1 4.3-1.88c2.45 0 4.21 1.21 4.21 3.22A2.94 2.94 0 0 1 430.4 50a3 3 0 0 1 2.79 3c0 2-1.67 3.47-4.39 3.47a5.33 5.33 0 0 1-4.41-2zm10.98.38a3.11 3.11 0 0 0 2.52 1.13c2.3 0 3.28-2.2 3.28-4.32v-.41a4.33 4.33 0 0 1-3.31 1.78 3.71 3.71 0 0 1-4-3.87 4 4 0 0 1 4.32-4c3.46 0 4.81 2.9 4.81 6.21s-1.67 6.19-5.1 6.19a4.44 4.44 0 0 1-3.38-1.39zm2.9-8.07a2.41 2.41 0 0 0-2.58 2.32 2.33 2.33 0 0 0 2.61 2.36 3.41 3.41 0 0 0 2.81-1.6c-.11-1.38-.87-3.07-2.84-3.07zm7.83 8.07a3.11 3.11 0 0 0 2.52 1.13c2.3 0 3.28-2.2 3.28-4.32v-.41a4.33 4.33 0 0 1-3.31 1.78 3.71 3.71 0 0 1-4-3.87 4 4 0 0 1 4.32-4c3.46 0 4.81 2.9 4.81 6.21s-1.67 6.19-5.1 6.19a4.44 4.44 0 0 1-3.38-1.39zm2.9-8.07a2.41 2.41 0 0 0-2.58 2.32A2.33 2.33 0 0 0 450 50.3a3.41 3.41 0 0 0 2.81-1.6c-.07-1.39-.81-3.08-2.81-3.08zm7.16 8.56a1.14 1.14 0 0 1 1.13 1.12 1.15 1.15 0 0 1-1.13 1.13 1.14 1.14 0 0 1-1.16-1.14 1.12 1.12 0 0 1 1.16-1.11zM464.85 44c3.33 0 4.7 3.22 4.7 6.19s-1.37 6.21-4.7 6.21-4.7-3.24-4.7-6.21 1.37-6.19 4.7-6.19zm0 1.6c-2.12 0-2.86 2.25-2.86 4.59s.74 4.61 2.86 4.61 2.86-2.27 2.86-4.61-.71-4.56-2.86-4.56zM475.9 44c3.33 0 4.7 3.22 4.7 6.19s-1.37 6.21-4.7 6.21-4.7-3.24-4.7-6.21 1.37-6.19 4.7-6.19zm0 1.6c-2.12 0-2.86 2.25-2.86 4.59s.74 4.61 2.86 4.61 2.86-2.27 2.86-4.61-.76-4.56-2.86-4.56zM10.33 68.28l-3.88 9.54h-.76L1.8 68.28v9.54H0v-12h2.57l3.49 8.63 3.49-8.62h2.57v12h-1.8zm3.89 5.18A4.4 4.4 0 1 1 18.61 78a4.32 4.32 0 0 1-4.39-4.54zm7.09 0c0-1.64-1-3.12-2.7-3.12a2.83 2.83 0 0 0-2.7 3.12c0 1.66 1 3.13 2.7 3.13s2.7-1.47 2.7-3.13zm9.62 3.17a4.29 4.29 0 0 1-3.1 1.4 2.45 2.45 0 0 1-2.77-2.77v-6.14h1.62v5.6c0 1.44.72 1.87 1.84 1.87a3.14 3.14 0 0 0 2.41-1.22v-6.25h1.62v8.7h-1.62zM41 72.26c0-1.44-.74-1.91-1.85-1.91a3.11 3.11 0 0 0-2.39 1.26v6.21h-1.64v-8.7h1.62v1.22a4.15 4.15 0 0 1 3.08-1.44 2.5 2.5 0 0 1 2.79 2.81v6.1H41zm4.5 3.63v-5.34h-1.44v-1.43h1.44v-2.37h1.62v2.38h1.76v1.42h-1.76v5c0 .61.29 1.06.85 1.06a1.25 1.25 0 0 0 .88-.34l.41 1.22a2.31 2.31 0 0 1-1.69.56 1.89 1.89 0 0 1-2.07-2.16zm10.55.98A3.73 3.73 0 0 1 53.21 78a2.89 2.89 0 0 1-3-2.88 2.81 2.81 0 0 1 3-2.84 3.63 3.63 0 0 1 2.85 1.15V72c0-1.08-.88-1.73-2.12-1.73a3.56 3.56 0 0 0-2.61 1.15l-.7-1.12a4.89 4.89 0 0 1 3.57-1.42c1.89 0 3.49.83 3.49 3v5.87h-1.64zm0-2.43a2.75 2.75 0 0 0-2.23-1 1.75 1.75 0 1 0 0 3.46 2.76 2.76 0 0 0 2.23-1zm3.95-7.8a1.06 1.06 0 0 1 1-1 1 1 0 0 1 1 1 1 1 0 0 1-1 1 1 1 0 0 1-1-1zm.25 2.49h1.62v8.7h-1.61zm10.08 3.13c0-1.44-.74-1.91-1.85-1.91a3.11 3.11 0 0 0-2.39 1.26v6.21h-1.63v-8.7h1.62v1.22a4.15 4.15 0 0 1 3.08-1.44 2.5 2.5 0 0 1 2.79 2.81v6.1h-1.62zm8.83-6.45h1.62v4.57a3.49 3.49 0 0 1 2.84-1.48c2.27 0 3.87 1.78 3.87 4.57S85.88 78 83.63 78a3.57 3.57 0 0 1-2.84-1.46v1.24h-1.63zm4 10.79c1.62 0 2.63-1.3 2.63-3.11s-1-3.13-2.63-3.13a3 3 0 0 0-2.41 1.3v3.69a3 3 0 0 0 2.45 1.25zm6.15-9.96a1.06 1.06 0 0 1 1-1 1 1 0 0 1 1 1 1 1 0 0 1-1 1 1 1 0 0 1-1-1zm.25 2.49h1.62v8.7h-1.61zm7.14 4.95l-1.31 1.33v2.41h-1.63v-12h1.62v7.72l4.2-4.41h2l-3.75 3.94 3.78 4.75h-2.02zm9.81-5.17c2.61 0 4.23 2 4.23 4.7V74h-6.88a2.85 2.85 0 0 0 3 2.7 3.7 3.7 0 0 0 2.58-1l.76 1.06a4.89 4.89 0 0 1-3.49 1.3 4.57 4.57 0 0 1-.14-9.13zm-2.67 3.93h5.31a2.57 2.57 0 0 0-2.65-2.59 2.66 2.66 0 0 0-2.66 2.58zm18.97-1.7l-2.14 6.68H119l-2.74-8.7H118l2 6.63 2.18-6.63h1.4l2.18 6.63 2-6.63h1.69l-2.74 8.7H125zm7.74-4.5a1.06 1.06 0 0 1 1-1 1 1 0 0 1 1 1 1 1 0 0 1-1 1 1 1 0 0 1-1-1zm.25 2.49h1.62v8.7h-1.62zm4.52 6.76v-5.34h-1.44v-1.43h1.44v-2.37h1.62v2.38h1.76v1.42h-1.76v5c0 .61.29 1.06.85 1.06a1.25 1.25 0 0 0 .88-.34l.41 1.22a2.31 2.31 0 0 1-1.69.56 1.89 1.89 0 0 1-2.07-2.16zm11.06-3.67c0-1.44-.74-1.87-1.85-1.87a3.11 3.11 0 0 0-2.39 1.26v6.21h-1.62v-12h1.62v4.54a4.18 4.18 0 0 1 3.08-1.44 2.47 2.47 0 0 1 2.78 2.76v6.14h-1.62zm8.85-3.1h1.62v1.33a3.69 3.69 0 0 1 2.84-1.53v1.64a2.54 2.54 0 0 0-.56-.05 3.07 3.07 0 0 0-2.29 1.26v6h-1.62zm9.9-.21c2.61 0 4.23 2 4.23 4.7V74h-6.88a2.85 2.85 0 0 0 3 2.7 3.7 3.7 0 0 0 2.57-1l.76 1.06a4.89 4.89 0 0 1-3.49 1.3 4.57 4.57 0 0 1-.14-9.13zm-2.66 3.93h5.31a2.57 2.57 0 0 0-2.65-2.59 2.66 2.66 0 0 0-2.66 2.58zm14.29 4.03a3.73 3.73 0 0 1-2.85 1.13 2.89 2.89 0 0 1-3-2.88 2.81 2.81 0 0 1 3-2.84 3.63 3.63 0 0 1 2.85 1.15V72c0-1.08-.88-1.73-2.12-1.73a3.56 3.56 0 0 0-2.64 1.18l-.7-1.12a4.89 4.89 0 0 1 3.57-1.42c1.89 0 3.49.83 3.49 3v5.87h-1.62zm0-2.43a2.75 2.75 0 0 0-2.23-1 1.75 1.75 0 1 0 0 3.46 2.76 2.76 0 0 0 2.23-1zm4.24-5.32h1.62v1.33a3.69 3.69 0 0 1 2.84-1.53v1.64a2.54 2.54 0 0 0-.56-.05 3.07 3.07 0 0 0-2.29 1.26v6H181zm16.06 7.75a3.73 3.73 0 0 1-2.84 1.13 2.89 2.89 0 0 1-3-2.88 2.81 2.81 0 0 1 3-2.84 3.63 3.63 0 0 1 2.84 1.15V72c0-1.08-.88-1.73-2.12-1.73a3.56 3.56 0 0 0-2.61 1.15l-.7-1.12a4.89 4.89 0 0 1 3.56-1.42c1.89 0 3.49.83 3.49 3v5.87h-1.62zm0-2.43a2.75 2.75 0 0 0-2.23-1 1.75 1.75 0 1 0 0 3.46 2.76 2.76 0 0 0 2.23-1zm10.08-2.18c0-1.44-.74-1.91-1.85-1.91a3.11 3.11 0 0 0-2.39 1.26v6.21h-1.62v-8.7h1.62v1.22a4.15 4.15 0 0 1 3.1-1.43 2.5 2.5 0 0 1 2.79 2.81v6.1h-1.62zm10.39 4.32a3.6 3.6 0 0 1-2.85 1.42c-2.27 0-3.89-1.71-3.89-4.55s1.62-4.57 3.89-4.57a3.54 3.54 0 0 1 2.84 1.48v-4.55h1.62v12h-1.62zm0-5a3 3 0 0 0-2.41-1.28c-1.62 0-2.63 1.31-2.63 3.13s1 3.11 2.63 3.11a3 3 0 0 0 2.41-1.26zm9.25-1.03h-1.44v-1.43h1.44v-.58a2.6 2.6 0 0 1 2.65-2.92 2.86 2.86 0 0 1 1.42.32l-.38 1.21a1.55 1.55 0 0 0-.77-.2c-.81 0-1.3.54-1.3 1.58v.58h1.76v1.42h-1.76v7.27h-1.62zm4.93-1.43h1.62v1.33a3.69 3.69 0 0 1 2.84-1.53v1.64a2.54 2.54 0 0 0-.56-.05 3.07 3.07 0 0 0-2.29 1.26v6h-1.62zm5.54 4.34a4.4 4.4 0 1 1 4.4 4.54 4.32 4.32 0 0 1-4.4-4.54zm7.09 0c0-1.64-1-3.12-2.7-3.12a2.83 2.83 0 0 0-2.7 3.12c0 1.66 1 3.13 2.7 3.13s2.71-1.47 2.71-3.13zm9.66-1.2c0-1.44-.74-1.91-1.86-1.91a3.11 3.11 0 0 0-2.39 1.26v6.21h-1.62v-8.7h1.62v1.22a4.15 4.15 0 0 1 3.08-1.44 2.5 2.5 0 0 1 2.79 2.81v6.1H254zm4.48 3.63v-5.34H257v-1.43h1.44v-2.37h1.62v2.38h1.76v1.42h-1.72v5c0 .61.29 1.06.85 1.06a1.25 1.25 0 0 0 .88-.34l.42 1.22a2.31 2.31 0 0 1-1.69.56 1.89 1.89 0 0 1-2.08-2.16zm9.84-.39a4.21 4.21 0 0 0 2.92 1.24c1.22 0 1.87-.5 1.87-1.24s-1-1.15-2.11-1.41c-1.48-.34-3.21-.74-3.21-2.61 0-1.39 1.19-2.58 3.31-2.58a4.65 4.65 0 0 1 3.31 1.24l-.72 1.13a3.39 3.39 0 0 0-2.58-1.06c-1.1 0-1.78.43-1.78 1.13s.94 1 2 1.26c1.51.34 3.31.76 3.31 2.75 0 1.49-1.22 2.66-3.51 2.66a5 5 0 0 1-3.62-1.35zm14.28 1.13a4.29 4.29 0 0 1-3.1 1.4 2.45 2.45 0 0 1-2.77-2.77v-6.14h1.62v5.6c0 1.44.72 1.87 1.84 1.87a3.14 3.14 0 0 0 2.41-1.22v-6.25h1.62v8.7h-1.62zm4.21-1.13a4.21 4.21 0 0 0 2.92 1.24c1.22 0 1.87-.5 1.87-1.24s-1-1.15-2.11-1.41c-1.48-.34-3.2-.74-3.2-2.61 0-1.39 1.19-2.58 3.31-2.58a4.65 4.65 0 0 1 3.31 1.24l-.72 1.13a3.39 3.39 0 0 0-2.57-1.06c-1.1 0-1.78.43-1.78 1.13s.94 1 2 1.26c1.51.34 3.31.76 3.31 2.75 0 1.49-1.22 2.66-3.51 2.66a5 5 0 0 1-3.64-1.32zm8.4 5.63v-12h1.62v1.24a3.55 3.55 0 0 1 2.85-1.46c2.27 0 3.87 1.71 3.87 4.56s-1.6 4.53-3.87 4.53a3.47 3.47 0 0 1-2.85-1.48v4.57zm4-10.79a3 3 0 0 0-2.41 1.28v3.69a3 3 0 0 0 2.41 1.28c1.62 0 2.61-1.31 2.61-3.13s-.95-3.11-2.57-3.11zm10.21-1.43c2.61 0 4.23 2 4.23 4.7V74h-6.88a2.85 2.85 0 0 0 3 2.7 3.7 3.7 0 0 0 2.58-1l.76 1.06a4.89 4.89 0 0 1-3.49 1.3 4.57 4.57 0 0 1-.14-9.13zm-2.67 3.93h5.31a2.57 2.57 0 0 0-2.65-2.59 2.66 2.66 0 0 0-2.66 2.58zm14.8-.58c0-1.44-.74-1.91-1.85-1.91a3.1 3.1 0 0 0-2.39 1.26v6.21h-1.62v-8.7h1.62v1.22a4.15 4.15 0 0 1 3.08-1.44 2.5 2.5 0 0 1 2.79 2.81v6.1h-1.62zm4.21 3.24a4.21 4.21 0 0 0 2.92 1.24c1.22 0 1.87-.5 1.87-1.24s-1-1.15-2.11-1.41c-1.48-.34-3.2-.74-3.2-2.61 0-1.39 1.19-2.58 3.31-2.58a4.65 4.65 0 0 1 3.31 1.24l-.72 1.13a3.39 3.39 0 0 0-2.57-1.06c-1.1 0-1.78.43-1.78 1.13s.94 1 2 1.26c1.51.34 3.31.76 3.31 2.75 0 1.49-1.22 2.66-3.51 2.66a5 5 0 0 1-3.59-1.32zm8.15-8.86a1.06 1.06 0 0 1 1-1 1 1 0 0 1 1 1 1 1 0 0 1-2.09 0zm.25 2.49h1.62v8.7h-1.62zm3.66 4.33a4.4 4.4 0 1 1 4.39 4.54 4.32 4.32 0 0 1-4.39-4.54zm7.09 0c0-1.64-1-3.12-2.7-3.12a2.83 2.83 0 0 0-2.7 3.12c0 1.66 1 3.13 2.7 3.13s2.7-1.47 2.7-3.13zm9.61-1.2c0-1.44-.74-1.91-1.85-1.91a3.11 3.11 0 0 0-2.39 1.26v6.21h-1.62v-8.7h1.62v1.22a4.15 4.15 0 0 1 3.08-1.44 2.5 2.5 0 0 1 2.79 2.81v6.1h-1.62z" class="cls-1"/><path d="M362.54 75.77a1.14 1.14 0 0 1 1.13 1.12 1.15 1.15 0 0 1-1.13 1.11 1.14 1.14 0 0 1-1.12-1.13 1.12 1.12 0 0 1 1.12-1.1zm8.93 0a1.14 1.14 0 0 1 1.13 1.12 1.15 1.15 0 0 1-1.13 1.11 1.14 1.14 0 0 1-1.12-1.13 1.12 1.12 0 0 1 1.12-1.1zm8.92 0a1.14 1.14 0 0 1 1.13 1.12 1.15 1.15 0 0 1-1.13 1.11 1.14 1.14 0 0 1-1.12-1.13 1.12 1.12 0 0 1 1.12-1.1zm8.93 0a1.14 1.14 0 0 1 1.13 1.12 1.15 1.15 0 0 1-1.13 1.11 1.14 1.14 0 0 1-1.12-1.13 1.12 1.12 0 0 1 1.12-1.1zm8.93 0a1.14 1.14 0 0 1 1.13 1.12 1.15 1.15 0 0 1-1.13 1.11 1.14 1.14 0 0 1-1.12-1.13 1.12 1.12 0 0 1 1.12-1.1z" class="cls-2"/><path d="M412.78 78v1.62h-1.28V78a5.91 5.91 0 0 1-4.14-1.89l1-1.39a5 5 0 0 0 3.12 1.64v-3.9c-1.84-.47-3.76-1.13-3.76-3.4 0-1.85 1.53-3.24 3.76-3.4V64h1.28v1.67a5.6 5.6 0 0 1 3.58 1.64l-1.06 1.33a4.46 4.46 0 0 0-2.52-1.31v3.51c1.87.5 3.85 1.19 3.85 3.58.02 1.73-1.1 3.37-3.83 3.58zm-1.28-7.51v-3.24c-1.15.09-1.91.74-1.91 1.67s.83 1.27 1.91 1.57zm3.29 4.09c0-1-.88-1.44-2-1.78v3.58c1.46-.16 2-1.04 2-1.8zm5.98-6.41l-1.94 2-1.06-1.1 3.23-3.26h1.58v12h-1.8zm9.05-2.54a4.44 4.44 0 0 1 3.39 1.37l-.88 1.37a3 3 0 0 0-2.5-1.15c-2.18 0-3.28 2.11-3.28 4.34a2.71 2.71 0 0 0 0 .4 4.18 4.18 0 0 1 3.29-1.76 3.69 3.69 0 0 1 4 3.85 4 4 0 0 1-4.32 4c-3.44 0-4.79-2.9-4.79-6.19s1.65-6.23 5.09-6.23zm-.41 6.12a3.49 3.49 0 0 0-2.83 1.6c.14 1.41.88 3.08 2.84 3.08a2.42 2.42 0 0 0 2.58-2.32 2.33 2.33 0 0 0-2.59-2.36zm7.5 3.53a3.11 3.11 0 0 0 2.52 1.13c2.3 0 3.28-2.2 3.28-4.32v-.41a4.32 4.32 0 0 1-3.31 1.78 3.71 3.71 0 0 1-4-3.87 4 4 0 0 1 4.32-4c3.46 0 4.81 2.9 4.81 6.21s-1.67 6.2-5.09 6.2a4.44 4.44 0 0 1-3.38-1.39zm2.9-8.07a2.41 2.41 0 0 0-2.58 2.32 2.33 2.33 0 0 0 2.61 2.36 3.41 3.41 0 0 0 2.81-1.6c-.1-1.38-.87-3.07-2.84-3.07zm7.83 8.07a3.11 3.11 0 0 0 2.52 1.13c2.3 0 3.28-2.2 3.28-4.32v-.41a4.32 4.32 0 0 1-3.31 1.78 3.71 3.71 0 0 1-4-3.87 4 4 0 0 1 4.32-4c3.46 0 4.81 2.9 4.81 6.21s-1.68 6.2-5.1 6.2a4.44 4.44 0 0 1-3.38-1.39zm2.9-8.07a2.41 2.41 0 0 0-2.54 2.33 2.33 2.33 0 0 0 2.61 2.36 3.41 3.41 0 0 0 2.81-1.6c-.14-1.39-.92-3.08-2.88-3.08zm7.16 8.56a1.14 1.14 0 0 1 1.13 1.12A1.15 1.15 0 0 1 457.7 78a1.14 1.14 0 0 1-1.12-1.13 1.12 1.12 0 0 1 1.12-1.1zm7.69-10.14c3.33 0 4.7 3.22 4.7 6.19s-1.37 6.18-4.7 6.18-4.7-3.24-4.7-6.21 1.37-6.16 4.7-6.16zm0 1.6c-2.12 0-2.86 2.25-2.86 4.59s.74 4.61 2.86 4.61 2.86-2.27 2.86-4.61-.73-4.59-2.86-4.59zm11.05-1.6c3.33 0 4.7 3.22 4.7 6.19s-1.37 6.18-4.7 6.18-4.7-3.24-4.7-6.21 1.37-6.16 4.7-6.16zm0 1.6c-2.12 0-2.86 2.25-2.86 4.59s.74 4.61 2.86 4.61 2.86-2.27 2.86-4.61-.73-4.59-2.86-4.59zM10.33 89.88l-3.88 9.54h-.76L1.8 89.88v9.54H0v-12h2.57L6.07 96l3.49-8.62h2.57v12h-1.8zm3.89 5.18a4.4 4.4 0 1 1 4.39 4.57 4.32 4.32 0 0 1-4.39-4.57zm7.09 0c0-1.64-1-3.12-2.7-3.12a2.83 2.83 0 0 0-2.7 3.12c0 1.66 1 3.13 2.7 3.13s2.7-1.47 2.7-3.13zm9.62 3.17a4.29 4.29 0 0 1-3.1 1.4 2.45 2.45 0 0 1-2.77-2.77v-6.14h1.62v5.6c0 1.44.72 1.87 1.84 1.87A3.14 3.14 0 0 0 30.93 97v-6.28h1.62v8.7h-1.62zM41 93.86c0-1.44-.74-1.91-1.85-1.91a3.11 3.11 0 0 0-2.39 1.26v6.21h-1.64v-8.7h1.62v1.22a4.15 4.15 0 0 1 3.08-1.44 2.5 2.5 0 0 1 2.79 2.81v6.1H41zm4.5 3.63v-5.34h-1.44v-1.43h1.44v-2.37h1.62v2.38h1.76v1.42h-1.76v5c0 .61.29 1.06.85 1.06a1.25 1.25 0 0 0 .88-.34l.41 1.22a2.31 2.31 0 0 1-1.69.56 1.89 1.89 0 0 1-2.07-2.16zm10.55.98a3.73 3.73 0 0 1-2.85 1.17 2.89 2.89 0 0 1-3-2.88 2.81 2.81 0 0 1 3-2.84 3.63 3.63 0 0 1 2.85 1.15v-1.45c0-1.08-.88-1.73-2.12-1.73A3.56 3.56 0 0 0 51.32 93l-.7-1.12a4.89 4.89 0 0 1 3.57-1.42c1.89 0 3.49.83 3.49 3v5.87h-1.63zm0-2.43a2.75 2.75 0 0 0-2.23-1 1.75 1.75 0 1 0 0 3.46 2.76 2.76 0 0 0 2.23-1zm3.95-7.8a1.06 1.06 0 0 1 1-1 1 1 0 0 1 1 1 1 1 0 0 1-1 1 1 1 0 0 1-1-1zm.25 2.49h1.62v8.7h-1.61zm10.08 3.13c0-1.44-.74-1.91-1.85-1.91a3.11 3.11 0 0 0-2.39 1.26v6.21h-1.63v-8.7h1.62v1.22a4.15 4.15 0 0 1 3.08-1.44 2.5 2.5 0 0 1 2.79 2.81v6.1h-1.62zm8.83-6.45h1.62V92a3.49 3.49 0 0 1 2.84-1.48c2.27 0 3.87 1.78 3.87 4.57s-1.62 4.55-3.87 4.55a3.57 3.57 0 0 1-2.84-1.46v1.24h-1.62zm4 10.79c1.62 0 2.63-1.3 2.63-3.11s-1-3.13-2.63-3.13a3 3 0 0 0-2.41 1.3v3.69a3 3 0 0 0 2.45 1.25zm6.15-9.96a1.06 1.06 0 0 1 1-1 1 1 0 0 1 1 1 1 1 0 0 1-1 1 1 1 0 0 1-1-1zm.25 2.49h1.62v8.7h-1.61zm7.14 4.95L95.38 97v2.41h-1.62v-12h1.62v7.72l4.2-4.41h2l-3.75 3.94 3.78 4.75h-2.02zm9.81-5.17c2.61 0 4.23 2 4.23 4.7v.4h-6.88a2.85 2.85 0 0 0 3 2.7 3.7 3.7 0 0 0 2.58-1l.76 1.06a4.89 4.89 0 0 1-3.49 1.3 4.57 4.57 0 0 1-.14-9.13zm-2.67 3.93h5.31a2.57 2.57 0 0 0-2.65-2.59 2.66 2.66 0 0 0-2.66 2.58zm18.97-1.7l-2.14 6.68H119l-2.74-8.7H118l2 6.63 2.18-6.63h1.4l2.18 6.63 2-6.63h1.69l-2.74 8.7H125zm7.74-4.5a1.06 1.06 0 0 1 1-1 1 1 0 0 1 1 1 1 1 0 0 1-1 1 1 1 0 0 1-1-1zm.25 2.49h1.62v8.7h-1.62zm4.52 6.76v-5.34h-1.44v-1.43h1.44v-2.37h1.62v2.38h1.76v1.42h-1.76v5c0 .61.29 1.06.85 1.06a1.25 1.25 0 0 0 .88-.34l.41 1.22a2.31 2.31 0 0 1-1.69.56 1.89 1.89 0 0 1-2.07-2.16zm11.06-3.67c0-1.44-.74-1.87-1.85-1.87a3.11 3.11 0 0 0-2.39 1.26v6.21h-1.62v-12h1.62v4.54a4.18 4.18 0 0 1 3.08-1.44 2.47 2.47 0 0 1 2.78 2.76v6.14h-1.62zm15.04 4.36a3.6 3.6 0 0 1-2.84 1.46c-2.27 0-3.89-1.71-3.89-4.55s1.62-4.57 3.89-4.57a3.54 3.54 0 0 1 2.84 1.48v-4.59H163v12h-1.62zm0-5a3 3 0 0 0-2.42-1.23c-1.62 0-2.63 1.31-2.63 3.13s1 3.11 2.63 3.11a3 3 0 0 0 2.41-1.26zm3.96-4.94a1.06 1.06 0 0 1 1-1 1 1 0 0 1 1 1 1 1 0 0 1-1 1 1 1 0 0 1-1-1zm.25 2.49h1.62v8.7h-1.62zm4.21 6.37a4.22 4.22 0 0 0 2.92 1.24c1.22 0 1.87-.5 1.87-1.24s-1-1.15-2.11-1.41c-1.48-.34-3.2-.74-3.2-2.61 0-1.39 1.19-2.58 3.31-2.58a4.66 4.66 0 0 1 3.31 1.24l-.72 1.13a3.39 3.39 0 0 0-2.57-1.06c-1.1 0-1.78.43-1.78 1.13s.94 1 2 1.26c1.51.34 3.31.76 3.31 2.75 0 1.49-1.22 2.66-3.51 2.66a5 5 0 0 1-3.62-1.35zm11.35-1.42L179.87 97v2.41h-1.62v-12h1.62v7.72l4.2-4.41h2l-3.75 3.94 3.78 4.75h-2.05zm11.06-8.27h1.62V92a3.49 3.49 0 0 1 2.84-1.48c2.27 0 3.87 1.78 3.87 4.57s-1.62 4.55-3.87 4.55a3.57 3.57 0 0 1-2.84-1.46v1.24h-1.62zm4 10.79c1.62 0 2.63-1.3 2.63-3.11s-1-3.13-2.63-3.13a3 3 0 0 0-2.41 1.3v3.69a3 3 0 0 0 2.45 1.25zm6.41-7.48h1.62v1.33a3.69 3.69 0 0 1 2.84-1.53v1.64a2.54 2.54 0 0 0-.56-.05 3.07 3.07 0 0 0-2.29 1.26v6h-1.62zm9.9-.21c2.61 0 4.23 2 4.23 4.7v.4h-6.88a2.85 2.85 0 0 0 3 2.7 3.7 3.7 0 0 0 2.57-1l.76 1.06a4.89 4.89 0 0 1-3.49 1.3 4.57 4.57 0 0 1-.14-9.13zm-2.66 3.93h5.31a2.57 2.57 0 0 0-2.65-2.59 2.66 2.66 0 0 0-2.67 2.58zm14.29 4.03a3.73 3.73 0 0 1-2.85 1.17 2.89 2.89 0 0 1-3-2.88 2.81 2.81 0 0 1 3-2.84 3.63 3.63 0 0 1 2.85 1.15v-1.45c0-1.08-.88-1.73-2.12-1.73a3.56 3.56 0 0 0-2.62 1.11l-.7-1.12a4.89 4.89 0 0 1 3.57-1.42c1.89 0 3.49.83 3.49 3v5.87h-1.62zm0-2.43A2.75 2.75 0 0 0 222 95a1.75 1.75 0 1 0 0 3.46 2.76 2.76 0 0 0 2.23-1zm7.14-.36L230 97v2.41h-1.6v-12h1.6v7.72l4.2-4.41h2l-3.75 3.94 3.78 4.75h-2.05zm6.3 1.42a4.22 4.22 0 0 0 2.92 1.24c1.22 0 1.87-.5 1.87-1.24s-1-1.15-2.11-1.41c-1.48-.34-3.2-.74-3.2-2.61 0-1.39 1.19-2.58 3.31-2.58a4.66 4.66 0 0 1 3.31 1.24l-.73 1.14a3.39 3.39 0 0 0-2.57-1.06c-1.1 0-1.78.43-1.78 1.13s.94 1 2 1.26c1.51.34 3.31.76 3.31 2.75 0 1.49-1.22 2.66-3.51 2.66a5 5 0 0 1-3.62-1.35z" class="cls-1"/><path d="M255.42 97.37a1.14 1.14 0 0 1 1.13 1.12 1.15 1.15 0 0 1-1.13 1.13 1.14 1.14 0 0 1-1.12-1.13 1.12 1.12 0 0 1 1.12-1.12zm8.93 0a1.14 1.14 0 0 1 1.13 1.12 1.15 1.15 0 0 1-1.13 1.13 1.14 1.14 0 0 1-1.12-1.13 1.12 1.12 0 0 1 1.12-1.12zm8.92 0a1.14 1.14 0 0 1 1.13 1.12 1.15 1.15 0 0 1-1.13 1.13 1.14 1.14 0 0 1-1.12-1.13 1.12 1.12 0 0 1 1.12-1.12zm8.93 0a1.14 1.14 0 0 1 1.13 1.12 1.15 1.15 0 0 1-1.13 1.13 1.14 1.14 0 0 1-1.12-1.13 1.12 1.12 0 0 1 1.12-1.12zm8.93 0a1.14 1.14 0 0 1 1.13 1.12 1.15 1.15 0 0 1-1.13 1.13 1.14 1.14 0 0 1-1.13-1.14 1.12 1.12 0 0 1 1.13-1.11zm8.93 0a1.14 1.14 0 0 1 1.13 1.12 1.15 1.15 0 0 1-1.13 1.13 1.14 1.14 0 0 1-1.12-1.13 1.12 1.12 0 0 1 1.12-1.12zm8.94 0a1.14 1.14 0 0 1 1.13 1.12 1.15 1.15 0 0 1-1.13 1.13 1.14 1.14 0 0 1-1.12-1.13 1.12 1.12 0 0 1 1.12-1.12zm8.91 0a1.14 1.14 0 0 1 1.09 1.11 1.15 1.15 0 0 1-1.13 1.13 1.14 1.14 0 0 1-1.12-1.13 1.12 1.12 0 0 1 1.16-1.11zm8.93 0a1.14 1.14 0 0 1 1.16 1.11 1.15 1.15 0 0 1-1.13 1.13 1.14 1.14 0 0 1-1.12-1.13 1.12 1.12 0 0 1 1.09-1.11zm8.93 0a1.14 1.14 0 0 1 1.13 1.12 1.15 1.15 0 0 1-1.13 1.13 1.14 1.14 0 0 1-1.12-1.13 1.12 1.12 0 0 1 1.12-1.12zm8.92 0a1.14 1.14 0 0 1 1.13 1.12 1.15 1.15 0 0 1-1.13 1.13 1.14 1.14 0 0 1-1.12-1.13 1.12 1.12 0 0 1 1.12-1.12zm8.93 0a1.14 1.14 0 0 1 1.13 1.12 1.15 1.15 0 0 1-1.13 1.13 1.14 1.14 0 0 1-1.12-1.13 1.12 1.12 0 0 1 1.12-1.12zm8.93 0a1.14 1.14 0 0 1 1.13 1.12 1.15 1.15 0 0 1-1.13 1.13 1.14 1.14 0 0 1-1.12-1.13 1.12 1.12 0 0 1 1.12-1.12zm8.93 0a1.14 1.14 0 0 1 1.13 1.12 1.15 1.15 0 0 1-1.13 1.13 1.14 1.14 0 0 1-1.12-1.13 1.12 1.12 0 0 1 1.12-1.12zm8.93 0a1.14 1.14 0 0 1 1.13 1.12 1.15 1.15 0 0 1-1.13 1.13 1.14 1.14 0 0 1-1.12-1.13 1.12 1.12 0 0 1 1.12-1.12zm8.93 0a1.14 1.14 0 0 1 1.13 1.12 1.15 1.15 0 0 1-1.13 1.13 1.14 1.14 0 0 1-1.12-1.13 1.12 1.12 0 0 1 1.12-1.12zm8.92 0a1.14 1.14 0 0 1 1.13 1.12 1.15 1.15 0 0 1-1.13 1.13 1.14 1.14 0 0 1-1.12-1.13 1.12 1.12 0 0 1 1.12-1.12z" class="cls-2"/><path d="M412.8 99.6v1.62h-1.28v-1.6a5.91 5.91 0 0 1-4.14-1.89l1-1.39a5 5 0 0 0 3.14 1.66v-3.94c-1.84-.47-3.76-1.13-3.76-3.4 0-1.85 1.53-3.24 3.76-3.4v-1.67h1.28v1.67a5.6 5.6 0 0 1 3.58 1.64l-1.06 1.33a4.46 4.46 0 0 0-2.52-1.31v3.51c1.87.5 3.85 1.19 3.85 3.58 0 1.74-1.12 3.37-3.85 3.59zm-1.28-7.51v-3.24c-1.15.09-1.91.74-1.91 1.67s.83 1.27 1.91 1.57zm3.29 4.09c0-1-.88-1.44-2-1.78V98c1.46-.18 2-1.06 2-1.82zm5.98-6.41l-1.94 2-1.06-1.1 3.21-3.26h1.58v12h-1.8zm9.05-2.54a4.44 4.44 0 0 1 3.38 1.39l-.88 1.38a3 3 0 0 0-2.5-1.15c-2.18 0-3.28 2.11-3.28 4.34a2.71 2.71 0 0 0 0 .4 4.18 4.18 0 0 1 3.29-1.76 3.69 3.69 0 0 1 4 3.85 4 4 0 0 1-4.32 4c-3.44 0-4.79-2.9-4.79-6.19s1.66-6.26 5.1-6.26zm-.41 6.12A3.49 3.49 0 0 0 426.6 95c.14 1.41.88 3.08 2.84 3.08a2.42 2.42 0 0 0 2.56-2.37 2.33 2.33 0 0 0-2.57-2.36zm7.5 3.53a3.11 3.11 0 0 0 2.52 1.12c2.3 0 3.28-2.2 3.28-4.32v-.41a4.32 4.32 0 0 1-3.31 1.78 3.71 3.71 0 0 1-4-3.87 4 4 0 0 1 4.32-4c3.46 0 4.81 2.9 4.81 6.21s-1.67 6.19-5.1 6.19a4.44 4.44 0 0 1-3.38-1.39zm2.9-8.07a2.41 2.41 0 0 0-2.58 2.32 2.33 2.33 0 0 0 2.61 2.36 3.41 3.41 0 0 0 2.81-1.6c-.1-1.38-.88-3.07-2.84-3.07zm7.83 8.07a3.11 3.11 0 0 0 2.52 1.12c2.3 0 3.28-2.2 3.28-4.32v-.41a4.32 4.32 0 0 1-3.31 1.78 3.71 3.71 0 0 1-4-3.87 4 4 0 0 1 4.32-4c3.46 0 4.81 2.9 4.81 6.21s-1.67 6.19-5.1 6.19a4.44 4.44 0 0 1-3.38-1.39zm2.9-8.07a2.41 2.41 0 0 0-2.56 2.33 2.33 2.33 0 0 0 2.61 2.36 3.41 3.41 0 0 0 2.81-1.6c-.13-1.39-.9-3.08-2.86-3.08zm7.16 8.56a1.14 1.14 0 0 1 1.13 1.12 1.15 1.15 0 0 1-1.13 1.13 1.14 1.14 0 0 1-1.12-1.13 1.12 1.12 0 0 1 1.12-1.12zm7.69-10.14c3.33 0 4.7 3.22 4.7 6.19s-1.37 6.21-4.7 6.21-4.7-3.24-4.7-6.21 1.37-6.19 4.7-6.19zm0 1.6c-2.12 0-2.86 2.25-2.86 4.59s.74 4.61 2.86 4.61 2.86-2.27 2.86-4.61-.74-4.59-2.86-4.59zm11.05-1.6c3.33 0 4.7 3.22 4.7 6.19s-1.37 6.21-4.7 6.21-4.7-3.24-4.7-6.21 1.37-6.19 4.7-6.19zm0 1.6c-2.12 0-2.86 2.25-2.86 4.59s.74 4.61 2.86 4.61 2.86-2.27 2.86-4.61-.73-4.59-2.86-4.59z" class="cls-1"/><path d="M390.46 22.88l15.1 15.1 15.11-15.1h-30.21z" class="cls-2"/><path d="M403.69 0h3.6v27.92h-3.6z" class="cls-2"/><path d="M403.71 0h14.16v3.6h-14.16z" class="cls-2"/><path d="M216 18.4h1.8v10.42h5.46v1.58H216zm12.71 3.09c2.61 0 4.23 2 4.23 4.7v.4h-6.88a2.85 2.85 0 0 0 3 2.7 3.7 3.7 0 0 0 2.57-1l.76 1.06a4.89 4.89 0 0 1-3.49 1.3 4.35 4.35 0 0 1-4.5-4.57 4.37 4.37 0 0 1 4.31-4.59zM226 25.42h5.31a2.57 2.57 0 0 0-2.65-2.59 2.66 2.66 0 0 0-2.66 2.59zm14.34 4.03a3.73 3.73 0 0 1-2.84 1.17 2.89 2.89 0 0 1-3-2.88 2.81 2.81 0 0 1 3-2.84 3.63 3.63 0 0 1 2.84 1.1v-1.39c0-1.08-.88-1.73-2.12-1.73A3.56 3.56 0 0 0 235.6 24l-.7-1.12a4.89 4.89 0 0 1 3.56-1.42c1.89 0 3.49.83 3.49 3v5.87h-1.62zm0-2.43a2.75 2.75 0 0 0-2.23-1 1.75 1.75 0 1 0 0 3.46 2.76 2.76 0 0 0 2.23-1zm10.4 2.14a3.6 3.6 0 0 1-2.85 1.46c-2.27 0-3.89-1.71-3.89-4.55s1.62-4.57 3.89-4.57a3.55 3.55 0 0 1 2.85 1.5v-4.6h1.62v12h-1.62zm0-5a3 3 0 0 0-2.41-1.28c-1.62 0-2.63 1.31-2.63 3.13s1 3.11 2.63 3.11a3 3 0 0 0 2.41-1.26zm8.03-2.67c2.61 0 4.23 2 4.23 4.7v.4h-6.88a2.85 2.85 0 0 0 3 2.7 3.7 3.7 0 0 0 2.58-1l.76 1.06a4.9 4.9 0 0 1-3.49 1.3 4.35 4.35 0 0 1-4.5-4.57 4.37 4.37 0 0 1 4.3-4.59zm-2.67 3.93h5.31a2.57 2.57 0 0 0-2.65-2.59 2.66 2.66 0 0 0-2.66 2.59zm8.9-3.71h1.62V23a3.69 3.69 0 0 1 2.84-1.53v1.64a2.54 2.54 0 0 0-.56-.05 3.07 3.07 0 0 0-2.29 1.26v6H265zm6.94-.13a1.13 1.13 0 1 1 0 2.25 1.13 1.13 0 0 1 0-2.25zm0 6.77a1.14 1.14 0 0 1 1.13 1.12 1.15 1.15 0 0 1-1.13 1.13 1.14 1.14 0 0 1-1.12-1.13 1.12 1.12 0 0 1 1.12-1.12z" class="cls-3"/><path d="M283.41 13.44s-4 0-4 4v16s0 4 4 4h38.8s4 0 4-4v-16s0-4-4-4z" class="cls-4"/><path d="M304.71 30.52a1.14 1.14 0 0 1 1.13 1.12 1.15 1.15 0 0 1-1.13 1.13 1.14 1.14 0 0 1-1.12-1.13 1.12 1.12 0 0 1 1.12-1.12z" class="cls-5"/><path d="M283.41 13.44s-4 0-4 4v16s0 4 4 4h38.8s4 0 4-4v-16s0-4-4-4z" class="cls-6"/><path d="M349 52.71l2.88-3.24-2.88-3.18h-1.57l2.88 3.19-2.88 3.24zm-2.83 0l2.83-3.24-2.88-3.19h-1.52l2.88 3.19-2.88 3.24zm-14.46 44.03l2.88-3.24-2.88-3.19h-1.57L333 93.5l-2.88 3.24zm-2.83 0l2.88-3.24-2.88-3.19h-1.57l2.88 3.19-2.88 3.24zm53.18-22.82l2.88-3.24-2.88-3.19h-1.57l2.88 3.19-2.88 3.24zm-2.83 0l2.88-3.24-2.88-3.19h-1.57l2.88 3.19-2.88 3.24z" class="cls-7"/></svg>