<svg xmlns="http://www.w3.org/2000/svg" id="Layer_1" viewBox="0 0 347.84 158.28" width="347.84" height="158.28"><defs><style>.cls-1{fill:#00673e}.cls-2{fill:#94c948}.cls-3{fill:#58595b}.cls-4{fill:#6d6e71}.cls-5{fill:#fff}.cls-6{fill:none;stroke:#bcbec0}.cls-7{fill:#00aeef}</style></defs><path d="M57.87 82.28v1.62h-1.28v-1.6a5.91 5.91 0 0 1-4.14-1.89l1-1.39a5 5 0 0 0 3.11 1.64v-3.92c-1.84-.47-3.76-1.13-3.76-3.4 0-1.85 1.53-3.24 3.76-3.4v-1.67h1.28v1.67a5.61 5.61 0 0 1 3.58 1.64l-1.06 1.33a4.46 4.46 0 0 0-2.52-1.31v3.51c1.87.5 3.85 1.19 3.85 3.58.04 1.74-1.08 3.37-3.82 3.59zm-1.28-7.51v-3.24c-1.15.09-1.91.74-1.91 1.67s.83 1.27 1.91 1.57zm3.3 4.09c0-1-.88-1.44-2-1.78v3.58c1.46-.16 2-1.04 2-1.8zm5.97-6.41l-1.94 2-1.06-1.1 3.22-3.29h1.58v12h-1.8zM71.12 80a1.14 1.14 0 0 1 1.13 1.12 1.15 1.15 0 0 1-1.13 1.13A1.14 1.14 0 0 1 70 81.16 1.12 1.12 0 0 1 71.12 80zm3.09.68c4.5-3.46 6.57-5.26 6.57-7.15a2.08 2.08 0 0 0-2.34-2A4.12 4.12 0 0 0 75.19 73l-1.06-1.17a5.49 5.49 0 0 1 4.3-1.91c2.16 0 4.2 1.22 4.2 3.62s-2.25 4.45-5.55 7h5.6v1.56h-8.47zm-26.98 23.2v1.62H46v-1.6a5.91 5.91 0 0 1-4.19-1.9l1-1.39a5 5 0 0 0 3.19 1.65v-3.93c-1.84-.47-3.76-1.13-3.76-3.4 0-1.85 1.53-3.24 3.76-3.4v-1.66h1.28v1.67a5.61 5.61 0 0 1 3.58 1.64l-1.06 1.33a4.46 4.46 0 0 0-2.52-1.31v3.51c1.87.5 3.85 1.19 3.85 3.58-.04 1.71-1.13 3.37-3.9 3.59zM46 96.37v-3.24c-1.15.09-1.91.74-1.91 1.67s.78 1.27 1.91 1.57zm3.29 4.09c0-1-.88-1.44-2-1.78v3.58c1.42-.16 1.96-1.04 1.96-1.8zM55.22 94l-1.94 2-1.06-1 3.22-3.29H57v12h-1.8zm4.07 8.28c4.5-3.46 6.57-5.26 6.57-7.15a2.08 2.08 0 0 0-2.34-2 4.12 4.12 0 0 0-3.26 1.48l-1.06-1.19a5.49 5.49 0 0 1 4.3-1.91c2.16 0 4.2 1.22 4.2 3.62s-2.25 4.45-5.55 7h5.6v1.58h-8.46zm11.83-.63a1.14 1.14 0 0 1 1.13 1.12 1.15 1.15 0 0 1-1.13 1.13 1.14 1.14 0 0 1-1.12-1.14 1.12 1.12 0 0 1 1.12-1.11zm3.63-.87a4.38 4.38 0 0 0 3.35 1.53c1.66 0 2.65-.79 2.65-2.05s-1.08-1.89-2.83-1.89h-1.3v-1.62h1.3c1.46 0 2.65-.54 2.65-1.78s-1.15-1.86-2.57-1.86a4.19 4.19 0 0 0-3.13 1.39l-1-1.12a5.42 5.42 0 0 1 4.25-1.87c2.45 0 4.21 1.21 4.21 3.22a2.94 2.94 0 0 1-2.61 2.77 3 3 0 0 1 2.79 2.93c0 2-1.67 3.47-4.39 3.47a5.33 5.33 0 0 1-4.41-2zm14.95.04H84v-1.48l5-7.65h2.5v7.54h1.66v1.58H91.5v2.88h-1.8zm-3.93-1.58h3.93v-5.91zm-48.71 26.24v1.62h-1.27v-1.6a5.91 5.91 0 0 1-4.14-1.89l1-1.39a5 5 0 0 0 3.11 1.64v-3.92c-1.84-.47-3.76-1.13-3.76-3.4 0-1.85 1.53-3.24 3.76-3.4v-1.66h1.28v1.67a5.61 5.61 0 0 1 3.58 1.64l-1.06 1.33a4.46 4.46 0 0 0-2.52-1.31v3.51c1.87.5 3.85 1.19 3.85 3.58.03 1.72-1.09 3.36-3.83 3.58zM35.79 118v-3.24c-1.15.09-1.91.74-1.91 1.67s.83 1.23 1.91 1.57zm3.29 4.09c0-1-.88-1.44-2-1.78v3.58c1.46-.19 2-1.07 2-1.83zm5.97-6.44l-1.94 2-1.11-1.07 3.22-3.29h1.58v12H45zm4.07 8.23c4.5-3.46 6.57-5.26 6.57-7.15a2.08 2.08 0 0 0-2.34-2 4.12 4.12 0 0 0-3.26 1.48L49 115a5.49 5.49 0 0 1 4.3-1.91c2.16 0 4.2 1.22 4.2 3.62s-2.25 4.45-5.55 7h5.6v1.58h-8.43zm11.18-1.5a4.38 4.38 0 0 0 3.35 1.53c1.66 0 2.65-.79 2.65-2.05S65.22 120 63.47 120h-1.3v-1.64h1.3c1.46 0 2.65-.54 2.65-1.78s-1.15-1.87-2.57-1.87a4.19 4.19 0 0 0-3.13 1.39l-1-1.12a5.41 5.41 0 0 1 4.25-1.87c2.45 0 4.21 1.21 4.21 3.22a2.94 2.94 0 0 1-2.61 2.77 3 3 0 0 1 2.83 2.9c0 2-1.67 3.47-4.39 3.47a5.33 5.33 0 0 1-4.41-2zm10.82.87a1.14 1.14 0 0 1 1.13 1.12 1.15 1.15 0 0 1-1.13 1.13 1.14 1.14 0 0 1-1.12-1.14 1.12 1.12 0 0 1 1.12-1.11zm8.41-.83h-5.71v-1.48l5-7.65h2.47v7.54H83v1.58h-1.67v2.88h-1.8zm-3.93-1.58h3.93v-5.91zm10.08 1.56a4 4 0 0 0 3.32 1.51 2.4 2.4 0 0 0 2.61-2.34 2.32 2.32 0 0 0-2.61-2.36 3.69 3.69 0 0 0-2.7 1.08l-1.3-.41v-6.59h7.6v1.58h-5.8v3.83a4 4 0 0 1 2.75-1.06 3.7 3.7 0 0 1 3.83 3.85c0 2.47-1.87 4-4.41 4a5.2 5.2 0 0 1-4.36-1.89zm14.47-9.29a4.43 4.43 0 0 1 3.38 1.39l-.88 1.37a3 3 0 0 0-2.5-1.15c-2.18 0-3.28 2.11-3.28 4.34a2.78 2.78 0 0 0 0 .4 4.18 4.18 0 0 1 3.29-1.76 3.69 3.69 0 0 1 4 3.85 4 4 0 0 1-4.32 4c-3.44 0-4.79-2.9-4.79-6.19s1.66-6.25 5.1-6.25zm-.41 6.12a3.49 3.49 0 0 0-2.83 1.6c.14 1.4.88 3.08 2.85 3.08a2.42 2.42 0 0 0 2.59-2.32 2.33 2.33 0 0 0-2.61-2.36zm-72.92 27.85v1.62h-1.28v-1.6a5.91 5.91 0 0 1-4.14-1.89l1-1.39a5 5 0 0 0 3.11 1.64v-3.92c-1.84-.47-3.76-1.13-3.76-3.4 0-1.85 1.53-3.24 3.76-3.4v-1.66h1.28v1.67a5.6 5.6 0 0 1 3.58 1.64l-1.06 1.33a4.46 4.46 0 0 0-2.52-1.31v3.51c1.87.5 3.85 1.19 3.85 3.58.03 1.73-1.08 3.36-3.82 3.58zm-1.28-7.51v-3.24c-1.15.09-1.91.74-1.91 1.67s.83 1.27 1.91 1.57zm3.29 4.09c0-1-.88-1.44-2-1.78v3.58c1.47-.16 2.01-1.04 2.01-1.8zm5.98-6.41l-1.94 2-1.06-1.1 3.19-3.26h1.58v12h-1.8zm4.07 8.23c4.5-3.46 6.57-5.26 6.57-7.15a2.08 2.08 0 0 0-2.34-2 4.12 4.12 0 0 0-3.26 1.48l-1.06-1.17a5.49 5.49 0 0 1 4.3-1.91c2.16 0 4.2 1.22 4.2 3.62s-2.25 4.45-5.55 7h5.6v1.58h-8.46zM50.06 144a4.38 4.38 0 0 0 3.35 1.53c1.66 0 2.65-.79 2.65-2.05s-1.08-1.89-2.83-1.89h-1.3V140h1.3c1.46 0 2.65-.54 2.65-1.78s-1.15-1.87-2.57-1.87a4.19 4.19 0 0 0-3.13 1.39l-1-1.12a5.41 5.41 0 0 1 4.25-1.87c2.45 0 4.21 1.21 4.21 3.22a2.94 2.94 0 0 1-2.61 2.77 3 3 0 0 1 2.79 2.94c0 2-1.67 3.47-4.39 3.47a5.33 5.33 0 0 1-4.41-2zM65 144h-5.71v-1.48l5-7.65h2.51v7.54h1.66V144H66.8v2.88H65zm-3.93-1.58H65v-5.91zm10.05 2.43a1.14 1.14 0 0 1 1.13 1.15 1.15 1.15 0 0 1-1.13 1.13A1.14 1.14 0 0 1 70 146a1.12 1.12 0 0 1 1.12-1.15zm4.32-.85a4 4 0 0 0 3.28 1.51 2.4 2.4 0 0 0 2.61-2.34 2.32 2.32 0 0 0-2.57-2.36 3.69 3.69 0 0 0-2.7 1.08l-1.3-.41v-6.59h7.6v1.58h-5.8v3.83a4 4 0 0 1 2.75-1.06 3.7 3.7 0 0 1 3.83 3.85c0 2.47-1.87 4-4.41 4a5.2 5.2 0 0 1-4.36-1.89zm14.47-9.29a4.44 4.44 0 0 1 3.38 1.39l-.88 1.37a3 3 0 0 0-2.5-1.15c-2.18 0-3.28 2.11-3.28 4.34a2.78 2.78 0 0 0 0 .4 4.18 4.18 0 0 1 3.29-1.76 3.69 3.69 0 0 1 4 3.85 4 4 0 0 1-4.32 4c-3.44 0-4.79-2.9-4.79-6.19s1.66-6.25 5.1-6.25zm-.41 6.12a3.49 3.49 0 0 0-2.83 1.6c.14 1.41.88 3.08 2.85 3.08a2.42 2.42 0 0 0 2.59-2.32 2.33 2.33 0 0 0-2.61-2.36zm12.07-4.35h-6.33v-1.58h8.43v1.24l-4.8 10.76h-2zm122.91-55.33a3.73 3.73 0 0 1-2.85 1.17 2.89 2.89 0 0 1-3-2.88 2.81 2.81 0 0 1 3-2.84 3.63 3.63 0 0 1 2.85 1.15V76.3c0-1.08-.88-1.73-2.12-1.73a3.56 3.56 0 0 0-2.61 1.15l-.7-1.12a4.89 4.89 0 0 1 3.57-1.42c1.89 0 3.49.83 3.49 3v5.92h-1.62zm0-2.43a2.75 2.75 0 0 0-2.23-1 1.75 1.75 0 1 0 0 3.46 2.76 2.76 0 0 0 2.23-1zm10.69-8.11a5.51 5.51 0 0 1 5.67 5.65c0 2.88-1.73 4.3-3.24 4.3a1.57 1.57 0 0 1-1.67-1.42v-.11a3.54 3.54 0 0 1-2.77 1.53 2.71 2.71 0 0 1-2.77-3 4.47 4.47 0 0 1 4.2-4.48 2.45 2.45 0 0 1 2.29 1.33l.22-1.06h1.48l-1 4.74a2.93 2.93 0 0 0 0 .4.8.8 0 0 0 .79.9c.7 0 1.87-.81 1.87-3.17a4.79 4.79 0 0 0-5.06-5 6.6 6.6 0 0 0-6.43 6.41 5 5 0 0 0 5.13 5.06 6.14 6.14 0 0 0 3.33-1l.34.49a6.92 6.92 0 0 1-3.75 1.13 5.56 5.56 0 0 1-5.8-5.6 7.29 7.29 0 0 1 7.17-7.1zm1.44 4.9a1.87 1.87 0 0 0-1.75-1.21 3.16 3.16 0 0 0-3 3.2 1.7 1.7 0 0 0 1.73 1.89 3.15 3.15 0 0 0 2.48-1.49zm11.54 5.64a3.73 3.73 0 0 1-2.85 1.17 2.89 2.89 0 0 1-3-2.88 2.81 2.81 0 0 1 3-2.84 3.63 3.63 0 0 1 2.85 1.15V76.3c0-1.08-.88-1.73-2.12-1.73a3.56 3.56 0 0 0-2.61 1.15l-.7-1.12a4.89 4.89 0 0 1 3.57-1.42c1.89 0 3.49.83 3.49 3v5.92h-1.62zm0-2.43a2.75 2.75 0 0 0-2.23-1 1.75 1.75 0 1 0 0 3.46 2.76 2.76 0 0 0 2.23-1zm4.21-8.63H254v4.57a3.49 3.49 0 0 1 2.84-1.48c2.27 0 3.87 1.78 3.87 4.57s-1.62 4.55-3.87 4.55a3.57 3.57 0 0 1-2.84-1.44v1.24h-1.62zm4 10.79c1.62 0 2.63-1.3 2.63-3.11s-1-3.13-2.63-3.13a3 3 0 0 0-2.41 1.3v3.69a3 3 0 0 0 2.44 1.25zm10.29-7.69a3.8 3.8 0 0 1 3.26 1.53l-1.08 1a2.43 2.43 0 0 0-2.11-1.08 3.14 3.14 0 0 0 0 6.25 2.47 2.47 0 0 0 2.11-1.08l1.08 1a3.8 3.8 0 0 1-3.26 1.53 4.57 4.57 0 0 1 0-9.13zm5.87 6.81a1.14 1.14 0 0 1 1.13 1.12 1.15 1.15 0 0 1-1.13 1.13 1.14 1.14 0 0 1-1.12-1.13 1.12 1.12 0 0 1 1.12-1.12zm7.25-6.81a3.8 3.8 0 0 1 3.23 1.53l-1.08 1a2.43 2.43 0 0 0-2.11-1.08 3.14 3.14 0 0 0 0 6.25A2.47 2.47 0 0 0 282 79.8l1.08 1a3.8 3.8 0 0 1-3.26 1.53 4.57 4.57 0 0 1 0-9.13zm4.5 4.55a4.4 4.4 0 1 1 4.39 4.57 4.32 4.32 0 0 1-4.39-4.57zm7.09 0c0-1.64-1-3.12-2.7-3.12a2.83 2.83 0 0 0-2.7 3.12c0 1.66 1 3.13 2.7 3.13s2.71-1.47 2.71-3.13zm14.32-1.44c0-1-.45-1.67-1.51-1.67a2.8 2.8 0 0 0-2.17 1.24v6.23h-1.62v-5.8c0-1-.43-1.67-1.53-1.67a2.84 2.84 0 0 0-2.12 1.26v6.21h-1.62v-8.7h1.62v1.22a3.76 3.76 0 0 1 2.81-1.44 2.25 2.25 0 0 1 2.36 1.62 3.65 3.65 0 0 1 2.94-1.62c1.6 0 2.47.88 2.47 2.63v6.29h-1.62zm-91.6 26.45a3.73 3.73 0 0 1-2.84 1.17 2.89 2.89 0 0 1-3-2.88 2.81 2.81 0 0 1 3-2.84 3.63 3.63 0 0 1 2.84 1.15V97.9c0-1.08-.88-1.73-2.12-1.73a3.56 3.56 0 0 0-2.61 1.15l-.7-1.12a4.89 4.89 0 0 1 3.56-1.42c1.89 0 3.49.83 3.49 3v5.87h-1.62zm0-2.43a2.75 2.75 0 0 0-2.23-1 1.75 1.75 0 1 0 0 3.46 2.76 2.76 0 0 0 2.23-1zm4.21-8.63h1.62v4.57a3.49 3.49 0 0 1 2.84-1.48c2.27 0 3.87 1.78 3.87 4.57s-1.62 4.55-3.87 4.55a3.57 3.57 0 0 1-2.84-1.46v1.24h-1.62zm4 10.79c1.62 0 2.63-1.3 2.63-3.11s-1-3.13-2.63-3.13a3 3 0 0 0-2.41 1.3v3.69a3 3 0 0 0 2.44 1.25zm12.88-10.27a5.51 5.51 0 0 1 5.67 5.65c0 2.88-1.73 4.3-3.24 4.3a1.57 1.57 0 0 1-1.67-1.42v-.11a3.54 3.54 0 0 1-2.77 1.53 2.71 2.71 0 0 1-2.77-3 4.47 4.47 0 0 1 4.2-4.48 2.45 2.45 0 0 1 2.29 1.33l.22-1.06h1.48l-1 4.74a2.93 2.93 0 0 0 0 .4.8.8 0 0 0 .79.9c.7 0 1.87-.81 1.87-3.17a4.79 4.79 0 0 0-5.06-5 6.6 6.6 0 0 0-6.43 6.41 5 5 0 0 0 5.13 5.06 6.14 6.14 0 0 0 3.33-1l.34.49a6.92 6.92 0 0 1-3.75 1.13 5.56 5.56 0 0 1-5.8-5.6 7.29 7.29 0 0 1 7.17-7.1zm1.44 4.9a1.87 1.87 0 0 0-1.75-1.21 3.16 3.16 0 0 0-3 3.2 1.7 1.7 0 0 0 1.73 1.89 3.15 3.15 0 0 0 2.48-1.49zm11.54 5.64a3.73 3.73 0 0 1-2.85 1.17 2.89 2.89 0 0 1-3-2.88 2.81 2.81 0 0 1 3-2.84 3.63 3.63 0 0 1 2.85 1.15V97.9c0-1.08-.88-1.73-2.12-1.73a3.56 3.56 0 0 0-2.61 1.15l-.7-1.12a4.89 4.89 0 0 1 3.57-1.42c1.89 0 3.49.83 3.49 3v5.87h-1.62zm0-2.43a2.75 2.75 0 0 0-2.23-1 1.75 1.75 0 1 0 0 3.46 2.76 2.76 0 0 0 2.23-1zm4.21-8.63H254v4.57a3.49 3.49 0 0 1 2.84-1.48c2.27 0 3.87 1.78 3.87 4.57s-1.62 4.55-3.87 4.55a3.57 3.57 0 0 1-2.84-1.46v1.24h-1.62zm4 10.79c1.62 0 2.63-1.3 2.63-3.11s-1-3.13-2.63-3.13a3 3 0 0 0-2.41 1.3v3.69a3 3 0 0 0 2.44 1.25zm10.29-7.69a3.8 3.8 0 0 1 3.26 1.53l-1.08 1a2.43 2.43 0 0 0-2.11-1.08 3.14 3.14 0 0 0 0 6.25 2.47 2.47 0 0 0 2.11-1.08l1.08 1a3.8 3.8 0 0 1-3.26 1.53 4.57 4.57 0 0 1 0-9.13zm5.87 6.86a1.14 1.14 0 0 1 1.13 1.12 1.15 1.15 0 0 1-1.13 1.13 1.14 1.14 0 0 1-1.12-1.13 1.12 1.12 0 0 1 1.12-1.12zm7.24-6.86a3.8 3.8 0 0 1 3.24 1.53l-1.08 1a2.43 2.43 0 0 0-2.11-1.08 3.14 3.14 0 0 0 0 6.25 2.47 2.47 0 0 0 2.11-1.08l1.08 1a3.8 3.8 0 0 1-3.26 1.53 4.57 4.57 0 0 1 0-9.13zm4.5 4.55a4.4 4.4 0 1 1 4.39 4.57 4.32 4.32 0 0 1-4.39-4.57zm7.09 0c0-1.64-1-3.12-2.7-3.12a2.83 2.83 0 0 0-2.7 3.12c0 1.66 1 3.13 2.7 3.13s2.7-1.47 2.7-3.13zm14.31-1.44c0-1-.45-1.67-1.51-1.67a2.8 2.8 0 0 0-2.15 1.24v6.23h-1.62v-5.8c0-1-.43-1.67-1.53-1.67a2.84 2.84 0 0 0-2.12 1.26v6.21h-1.62V95h1.62v1.22a3.77 3.77 0 0 1 2.81-1.44 2.25 2.25 0 0 1 2.36 1.62 3.65 3.65 0 0 1 2.93-1.62c1.6 0 2.47.88 2.47 2.63v6.28h-1.62zm-100.51 26.45a3.73 3.73 0 0 1-2.85 1.17 2.89 2.89 0 0 1-3-2.88 2.81 2.81 0 0 1 3-2.84 3.63 3.63 0 0 1 2.85 1.15v-1.45c0-1.08-.88-1.73-2.12-1.73a3.56 3.56 0 0 0-2.61 1.15l-.7-1.12a4.89 4.89 0 0 1 3.57-1.42c1.89 0 3.49.83 3.49 3v5.87h-1.62zm0-2.43a2.75 2.75 0 0 0-2.23-1 1.75 1.75 0 1 0 0 3.46 2.76 2.76 0 0 0 2.23-1zm4.21-8.63H211v4.57a3.49 3.49 0 0 1 2.84-1.48c2.27 0 3.87 1.78 3.87 4.57s-1.62 4.55-3.87 4.55a3.57 3.57 0 0 1-2.84-1.46v1.24h-1.62zm4 10.79c1.62 0 2.63-1.3 2.63-3.11s-1-3.13-2.63-3.13a3 3 0 0 0-2.41 1.3v3.69a3 3 0 0 0 2.44 1.25zm10.29-7.69a3.8 3.8 0 0 1 3.26 1.53l-1.08 1a2.43 2.43 0 0 0-2.11-1.08 3.14 3.14 0 0 0 0 6.25 2.47 2.47 0 0 0 2.11-1.08l1.08 1a3.8 3.8 0 0 1-3.26 1.53 4.57 4.57 0 0 1 0-9.13zm11.52-2.58a5.51 5.51 0 0 1 5.67 5.65c0 2.88-1.73 4.3-3.24 4.3a1.57 1.57 0 0 1-1.67-1.42v-.11a3.54 3.54 0 0 1-2.77 1.53 2.71 2.71 0 0 1-2.77-3 4.47 4.47 0 0 1 4.2-4.48 2.45 2.45 0 0 1 2.29 1.33l.22-1.06h1.48l-1 4.74a2.93 2.93 0 0 0 0 .4.8.8 0 0 0 .79.9c.7 0 1.87-.81 1.87-3.17a4.79 4.79 0 0 0-5.06-5 6.6 6.6 0 0 0-6.43 6.41 5 5 0 0 0 5.13 5.06 6.14 6.14 0 0 0 3.33-1l.34.49a6.92 6.92 0 0 1-3.75 1.13 5.56 5.56 0 0 1-5.71-5.65 7.29 7.29 0 0 1 7.08-7.05zm1.44 4.9a1.87 1.87 0 0 0-1.75-1.21 3.16 3.16 0 0 0-3 3.2 1.7 1.7 0 0 0 1.73 1.89 3.15 3.15 0 0 0 2.48-1.49zm11.54 5.64a3.73 3.73 0 0 1-2.85 1.17 2.89 2.89 0 0 1-3-2.88 2.81 2.81 0 0 1 3-2.84 3.63 3.63 0 0 1 2.85 1.15v-1.45c0-1.08-.88-1.73-2.13-1.73a3.56 3.56 0 0 0-2.61 1.15l-.7-1.12a4.89 4.89 0 0 1 3.56-1.42c1.89 0 3.49.83 3.49 3v5.87h-1.62zm0-2.43a2.76 2.76 0 0 0-2.23-1 1.75 1.75 0 1 0 0 3.46 2.76 2.76 0 0 0 2.23-1zm4.21-8.63H254v4.57a3.5 3.5 0 0 1 2.84-1.48c2.27 0 3.87 1.78 3.87 4.57s-1.62 4.55-3.87 4.55a3.57 3.57 0 0 1-2.84-1.46v1.24h-1.62zm4 10.79c1.62 0 2.63-1.3 2.63-3.11s-1-3.13-2.63-3.13a3 3 0 0 0-2.41 1.3v3.69a3 3 0 0 0 2.44 1.25zm10.29-7.69a3.8 3.8 0 0 1 3.26 1.53l-1.08 1a2.43 2.43 0 0 0-2.11-1.08 3.14 3.14 0 0 0 0 6.25 2.47 2.47 0 0 0 2.11-1.08l1.08 1a3.8 3.8 0 0 1-3.26 1.53 4.57 4.57 0 0 1 0-9.13zm5.87 6.86a1.14 1.14 0 0 1 1.13 1.12 1.15 1.15 0 0 1-1.13 1.13 1.14 1.14 0 0 1-1.12-1.13 1.12 1.12 0 0 1 1.12-1.12zm7.24-6.86a3.8 3.8 0 0 1 3.26 1.53l-1.08 1a2.43 2.43 0 0 0-2.11-1.08 3.14 3.14 0 0 0 0 6.25 2.47 2.47 0 0 0 2.11-1.08l1.08 1a3.8 3.8 0 0 1-3.26 1.53 4.57 4.57 0 0 1 0-9.13zm4.49 4.55a4.4 4.4 0 1 1 4.39 4.57 4.32 4.32 0 0 1-4.39-4.57zm7.09 0c0-1.64-1-3.12-2.7-3.12a2.83 2.83 0 0 0-2.7 3.12c0 1.66 1 3.13 2.7 3.13s2.71-1.47 2.71-3.13zm14.32-1.44c0-1-.45-1.67-1.51-1.67a2.8 2.8 0 0 0-2.16 1.24v6.23h-1.62v-5.8c0-1-.43-1.67-1.53-1.67a2.84 2.84 0 0 0-2.12 1.26v6.21h-1.62v-8.7h1.62v1.22a3.76 3.76 0 0 1 2.81-1.44 2.25 2.25 0 0 1 2.36 1.62 3.65 3.65 0 0 1 2.94-1.62c1.6 0 2.47.88 2.47 2.63v6.28h-1.62zm-110.92 26.45a3.73 3.73 0 0 1-2.84 1.17 2.89 2.89 0 0 1-3-2.88 2.81 2.81 0 0 1 3-2.84 3.63 3.63 0 0 1 2.84 1.15v-1.45c0-1.08-.88-1.73-2.12-1.73a3.56 3.56 0 0 0-2.61 1.15l-.7-1.12a4.89 4.89 0 0 1 3.56-1.42c1.89 0 3.49.83 3.49 3v5.87h-1.62zm0-2.43a2.75 2.75 0 0 0-2.23-1 1.75 1.75 0 1 0 0 3.46 2.76 2.76 0 0 0 2.23-1zm4.26-8.63h1.62v4.57a3.49 3.49 0 0 1 2.84-1.48c2.27 0 3.87 1.78 3.87 4.57s-1.62 4.55-3.87 4.55a3.57 3.57 0 0 1-2.84-1.46v1.24H199zm4 10.79c1.62 0 2.63-1.3 2.63-3.11s-1-3.13-2.63-3.13a3 3 0 0 0-2.41 1.3v3.69a3 3 0 0 0 2.41 1.25zm10.25-7.68a3.8 3.8 0 0 1 3.26 1.53l-1.08 1a2.43 2.43 0 0 0-2.11-1.08 3.14 3.14 0 0 0 0 6.25 2.47 2.47 0 0 0 2.11-1.08l1.08 1a3.8 3.8 0 0 1-3.26 1.53 4.57 4.57 0 0 1 0-9.13zm11.23 7.66a3.6 3.6 0 0 1-2.84 1.46c-2.27 0-3.89-1.71-3.89-4.55s1.62-4.57 3.89-4.57a3.54 3.54 0 0 1 2.84 1.48v-4.57h1.62v12h-1.62zm0-5a3 3 0 0 0-2.41-1.28c-1.62 0-2.63 1.31-2.63 3.13s1 3.11 2.63 3.11a3 3 0 0 0 2.41-1.26zm10.69-5.25a5.51 5.51 0 0 1 5.67 5.65c0 2.88-1.73 4.3-3.24 4.3a1.57 1.57 0 0 1-1.67-1.42v-.11a3.54 3.54 0 0 1-2.77 1.53 2.71 2.71 0 0 1-2.77-3 4.47 4.47 0 0 1 4.2-4.48 2.45 2.45 0 0 1 2.29 1.33l.22-1.06h1.48l-1 4.74a2.93 2.93 0 0 0 0 .4.8.8 0 0 0 .79.9c.7 0 1.87-.81 1.87-3.17a4.79 4.79 0 0 0-5.06-5 6.6 6.6 0 0 0-6.43 6.41 5 5 0 0 0 5.13 5.06 6.14 6.14 0 0 0 3.33-1l.34.49a6.92 6.92 0 0 1-3.75 1.13 5.56 5.56 0 0 1-5.71-5.65 7.29 7.29 0 0 1 7.08-7.05zm1.44 4.9a1.87 1.87 0 0 0-1.75-1.21 3.16 3.16 0 0 0-3 3.2 1.7 1.7 0 0 0 1.73 1.89 3.15 3.15 0 0 0 2.48-1.49zm11.54 5.64a3.73 3.73 0 0 1-2.85 1.17 2.89 2.89 0 0 1-3-2.88 2.81 2.81 0 0 1 3-2.84 3.63 3.63 0 0 1 2.85 1.15v-1.45c0-1.08-.88-1.73-2.13-1.73a3.56 3.56 0 0 0-2.61 1.15l-.7-1.12a4.89 4.89 0 0 1 3.56-1.42c1.89 0 3.49.83 3.49 3v5.87h-1.62zm0-2.43a2.76 2.76 0 0 0-2.23-1 1.75 1.75 0 1 0 0 3.46 2.76 2.76 0 0 0 2.23-1zm4.21-8.63H254v4.57a3.5 3.5 0 0 1 2.84-1.48c2.27 0 3.87 1.78 3.87 4.57s-1.62 4.55-3.87 4.55a3.57 3.57 0 0 1-2.84-1.46v1.24h-1.62zm4 10.79c1.62 0 2.63-1.3 2.63-3.11s-1-3.13-2.63-3.13a3 3 0 0 0-2.41 1.3v3.69a3 3 0 0 0 2.44 1.25zm10.29-7.68a3.8 3.8 0 0 1 3.26 1.53l-1.08 1a2.43 2.43 0 0 0-2.11-1.08 3.14 3.14 0 0 0 0 6.25 2.47 2.47 0 0 0 2.11-1.08l1.08 1a3.8 3.8 0 0 1-3.26 1.53 4.57 4.57 0 0 1 0-9.13zm5.87 6.85a1.14 1.14 0 0 1 1.13 1.12 1.15 1.15 0 0 1-1.13 1.13 1.14 1.14 0 0 1-1.12-1.1 1.12 1.12 0 0 1 1.12-1.15zm7.24-6.85a3.8 3.8 0 0 1 3.26 1.53l-1.08 1a2.43 2.43 0 0 0-2.11-1.08 3.14 3.14 0 0 0 0 6.25 2.47 2.47 0 0 0 2.11-1.08l1.08 1a3.8 3.8 0 0 1-3.26 1.53 4.57 4.57 0 0 1 0-9.13zm4.49 4.54a4.4 4.4 0 1 1 4.39 4.57 4.32 4.32 0 0 1-4.39-4.57zm7.09 0c0-1.64-1-3.12-2.7-3.12a2.83 2.83 0 0 0-2.7 3.12c0 1.66 1 3.13 2.7 3.13s2.71-1.47 2.71-3.13zm14.32-1.44c0-1-.45-1.67-1.51-1.67a2.8 2.8 0 0 0-2.16 1.24v6.23h-1.62v-5.8c0-1-.43-1.67-1.53-1.67a2.84 2.84 0 0 0-2.12 1.26v6.21h-1.62v-8.7h1.62v1.22a3.76 3.76 0 0 1 2.81-1.44 2.25 2.25 0 0 1 2.36 1.62 3.65 3.65 0 0 1 2.94-1.62c1.6 0 2.47.88 2.47 2.63v6.28h-1.62z" class="cls-1"/><path d="M64.2 61.1l7.51 7.52 7.52-7.52H64.2z" class="cls-2"/><path d="M70.78 49.72h1.79v13.89h-1.79zM74.55 52a1.11 1.11 0 1 0-1.11-1.11A1.11 1.11 0 0 0 74.55 52m152.05 9.1l7.51 7.52 7.52-7.52H226.6z" class="cls-2"/><path d="M233.18 49.72h1.79v13.89h-1.79zm3.77 2.28a1.11 1.11 0 1 0-1.11-1.11 1.11 1.11 0 0 0 1.11 1.11" class="cls-2"/><path d="M227.73 22h-5.89l-1 2.48h-2l4.77-12h2.25l4.77 12h-2zm-5.37-1.6h4.84l-2.42-6.4zm9.72-7.95h1.62v12h-1.62zm3.92.83a1.06 1.06 0 0 1 1-1 1 1 0 0 1 1 1 1 1 0 0 1-1 1 1 1 0 0 1-1-1zm.25 2.49h1.62v8.7h-1.62zm4.92 9.73a3.39 3.39 0 0 0 2.83 1.16 2.4 2.4 0 0 0 2.7-2.48V23a3.67 3.67 0 0 1-2.86 1.5c-2.25 0-3.87-1.66-3.87-4.5s1.62-4.48 3.87-4.48a3.55 3.55 0 0 1 2.82 1.48v-1.24h1.62v8.35c0 3-2.18 3.87-4.32 3.87a4.67 4.67 0 0 1-3.56-1.3zm5.49-7.24a3 3 0 0 0-2.41-1.26c-1.62 0-2.63 1.26-2.63 3s1 3.06 2.63 3.06a3 3 0 0 0 2.41-1.3zm10.07.64c0-1.44-.74-1.91-1.85-1.91a3.11 3.11 0 0 0-2.39 1.26v6.21h-1.62v-8.7h1.62V17a4.15 4.15 0 0 1 3.08-1.44 2.5 2.5 0 0 1 2.79 2.81v6.1h-1.62zm8.27 1.2a4.4 4.4 0 1 1 8.79 0 4.4 4.4 0 1 1-8.79 0zm7.09 0c0-1.64-1-3.12-2.7-3.12a2.83 2.83 0 0 0-2.7 3.12c0 1.66 1 3.13 2.7 3.13s2.73-1.47 2.73-3.13zm9.64-1.2c0-1.44-.74-1.91-1.85-1.91a3.1 3.1 0 0 0-2.39 1.26v6.21h-1.62v-8.7h1.62V17a4.15 4.15 0 0 1 3.08-1.44 2.5 2.5 0 0 1 2.79 2.81v6.1h-1.62zm5.02-3.26a1.13 1.13 0 1 1 0 2.25 1.13 1.13 0 0 1 0-2.25zm0 6.77a1.14 1.14 0 0 1 1.13 1.12 1.15 1.15 0 0 1-1.13 1.13 1.14 1.14 0 0 1-1.12-1.13 1.12 1.12 0 0 1 1.12-1.12zM27.28 22h-5.89l-1 2.48h-2l4.77-12h2.25l4.77 12h-2zm-5.37-1.6h4.84L24.33 14zm9.73-7.95h1.62v12h-1.62zm3.94.83a1.06 1.06 0 0 1 1-1 1 1 0 0 1 1 1 1 1 0 0 1-1 1 1 1 0 0 1-1-1zm.25 2.49h1.62v8.7h-1.62zm4.9 9.73a3.39 3.39 0 0 0 2.79 1.15 2.4 2.4 0 0 0 2.7-2.48V23a3.67 3.67 0 0 1-2.86 1.5c-2.25 0-3.87-1.66-3.87-4.5s1.62-4.48 3.87-4.48A3.55 3.55 0 0 1 46.22 17v-1.24h1.62v8.35c0 3-2.18 3.87-4.32 3.87A4.67 4.67 0 0 1 40 26.69zm5.49-7.24A3 3 0 0 0 43.81 17c-1.62 0-2.63 1.26-2.63 3s1 3.06 2.63 3.06a3 3 0 0 0 2.41-1.3zm10.06.64c0-1.44-.74-1.91-1.85-1.91A3.11 3.11 0 0 0 52 18.25v6.21h-1.59v-8.7H52V17a4.15 4.15 0 0 1 3.08-1.44 2.5 2.5 0 0 1 2.79 2.81v6.1h-1.59zm8.3 1.2a4.4 4.4 0 1 1 8.79 0 4.4 4.4 0 1 1-8.79 0zm7.09 0c0-1.64-1-3.12-2.7-3.12a2.83 2.83 0 0 0-2.7 3.12c0 1.66 1 3.13 2.7 3.13s2.7-1.47 2.7-3.13zm9.61-1.2c0-1.44-.74-1.91-1.85-1.91A3.11 3.11 0 0 0 77 18.25v6.21h-1.59v-8.7H77V17a4.15 4.15 0 0 1 3.08-1.44 2.5 2.5 0 0 1 2.79 2.81v6.1h-1.59zm5.02-3.26a1.13 1.13 0 1 1 0 2.25 1.13 1.13 0 0 1 0-2.25zm0 6.77a1.14 1.14 0 0 1 1.13 1.12 1.15 1.15 0 0 1-1.13 1.13 1.14 1.14 0 0 1-1.12-1.13 1.12 1.12 0 0 1 1.12-1.12z" class="cls-3"/><path d="M295.54 7.5s-4 0-4 4v16s0 4 4 4h38.8s4 0 4-4v-16s0-4-4-4z" class="cls-4"/><path d="M315.27 15.14a5.51 5.51 0 0 1 5.67 5.65c0 2.88-1.73 4.3-3.24 4.3a1.57 1.57 0 0 1-1.7-1.41v-.11a3.54 3.54 0 0 1-2.77 1.53 2.71 2.71 0 0 1-2.77-3 4.47 4.47 0 0 1 4.2-4.48 2.45 2.45 0 0 1 2.29 1.38l.22-1.06h1.48l-1 4.74a3 3 0 0 0 0 .4.8.8 0 0 0 .79.9c.7 0 1.87-.81 1.87-3.17a4.79 4.79 0 0 0-5.06-5 6.6 6.6 0 0 0-6.43 6.41 5 5 0 0 0 5.13 5.06 6.14 6.14 0 0 0 3.33-1l.34.49a6.93 6.93 0 0 1-3.75 1.13 5.56 5.56 0 0 1-5.71-5.65 7.29 7.29 0 0 1 7.11-7.11zm1.44 4.9a1.88 1.88 0 0 0-1.71-1.21 3.16 3.16 0 0 0-3 3.2 1.7 1.7 0 0 0 1.73 1.89 3.15 3.15 0 0 0 2.49-1.49z" class="cls-5"/><path d="M295.54 7.5s-4 0-4 4v16s0 4 4 4h38.8s4 0 4-4v-16s0-4-4-4z" class="cls-6"/><path d="M95.1 7.5s-4 0-4 4v16s0 4 4 4h38.8s4 0 4-4v-16s0-4-4-4z" class="cls-4"/><path d="M114.08 24.58a1.14 1.14 0 0 1 1.13 1.12 1.15 1.15 0 0 1-1.13 1.13 1.14 1.14 0 0 1-1.08-1.14 1.12 1.12 0 0 1 1.08-1.11z" class="cls-5"/><path d="M95.1 7.5s-4 0-4 4v16s0 4 4 4h38.8s4 0 4-4v-16s0-4-4-4z" class="cls-6"/><path d="M193.39 81.31l2.88-3.24-2.88-3.19h-1.57l2.88 3.19-2.88 3.24zm-2.83 0l2.88-3.24-2.88-3.19H189l2.88 3.19-2.88 3.24zM30 81.31l2.88-3.24L30 74.88h-1.61l2.88 3.19-2.88 3.24zm-2.83 0L30 78.07l-2.88-3.19h-1.56l2.88 3.19-2.88 3.24zm160.46 21.16l2.88-3.24-2.88-3.23h-1.57l2.88 3.19-2.88 3.24zm-2.83 0l2.88-3.24-2.87-3.23h-1.57l2.88 3.19-2.88 3.24zm-160.61 0l2.88-3.24L24.19 96h-1.56l2.88 3.19-2.88 3.24zm-2.83 0l2.88-3.24L21.37 96H19.8l2.88 3.19-2.88 3.24zm161.03 22.16l2.88-3.24-2.88-3.19h-1.57l2.88 3.19-2.88 3.24zm-2.83 0l2.88-3.24-2.88-3.19H178l2.88 3.19-2.88 3.24zm-160.56 0l2.88-3.24L19 118.2h-1.61l2.88 3.19-2.88 3.24zm-2.83 0l2.83-3.24-2.88-3.19h-1.56l2.88 3.19-2.88 3.24zm160.66 22.16l2.88-3.24-2.88-3.19h-1.57l2.88 3.19-2.88 3.24zm-2.83 0l2.88-3.24-2.88-3.19h-1.57l2.88 3.19-2.88 3.24zm-160.61 0l2.88-3.24-2.88-3.19h-1.56l2.88 3.19-2.88 3.24zm-2.83 0l2.88-3.24-2.88-3.19H9l2.88 3.19L9 146.79z" class="cls-7"/></svg>