<svg xmlns="http://www.w3.org/2000/svg" id="Layer_1" viewBox="0 0 243.51 168.8" width="243.51" height="168.8"><defs><style>.cls-1{fill:#231f20}.cls-2{fill:#f26522}.cls-3,.cls-5{fill:none;stroke-miterlimit:10}.cls-3{stroke:#00aeef;stroke-width:.75px}.cls-4{fill:#fff}.cls-5{stroke:#939598}</style></defs><path d="M158.51 66.39c-2.39-1.54-4.26-2-4.08 1.21s7 14.44 7.69 5.9c-.35-2.93-.98-5.41-3.61-7.11zm-7.81 1c.39-4.48 3.62-5.13 7.57-3.41s6.9 7.47 6.05 11.92c-.81 4.23-4.59 4.65-8 2.31-2.89-1.96-5.58-7.3-5.62-10.78zM144.25 79c-3-2.54-7.58-3.78-7.53 1a14.18 14.18 0 0 0 5 10.58c3.7 3 6.39 1.36 6.73-3.42a12.44 12.44 0 0 0-4.2-8.16zm-2.76 15.17a18.12 18.12 0 0 1-7.34-14.3c.38-5.57 6-5.46 9.86-3.34 4.08 2.22 7.13 8.31 6.81 12.92-.38 5.38-5 7.9-9.33 4.69z"/><path d="M136.43 202.48c-2.48-.84-4.59 6-3.86 7.33 1.12 2 4.83 2 6.22 4.86 1.66 3.39-.15 4.53 3.58 3.34a9.73 9.73 0 0 1 3.84-.87c1.88.17 3.36 2.39 5.12 2.34 2.52-.07 5.06-6.08 2.92-8-.81-.71-5.2.62-4.91-1.64.19-1.54 7.32-1.09 8.55-1.29 3.48-.56 7.2-1.17 9.73-3.72 2-2 3.65-5.93-.83-5.55-4 .34-3.9 3.25-6.08 5.35-2.61 2.52-.61-2.88.37-4.13 2.26-2.87 7.48-3.48 8.75-6.87 1-2.6-1.83-6.22-4.6-4.22-.87.62-1.44 3-2.1 4a20.89 20.89 0 0 1-4 4.2c-1.28 1-5.21 3-3.3 0 .42-.66 2.76-1.67 3.51-2.38a11.51 11.51 0 0 0 3.24-4.86c1.32-3.83.38-6.64-4.24-6.51-3.67.11-6.12 3.23-8.62 5.6-3.17 3-4.91 7-6 11.18s-3.36 2.6-7.29 1.84zM125 71.37c.08 12 7.67 23.07 14.88 32.08 1.08 1.35 3.68 5.89 5.52 6s4.74-4 5.92-5c1.87-1.67 3.22-3.32 4.89-5.08 1.06-1.13 2.13-1.1 3-1.64a2.27 2.27 0 0 1 .18-1.21 4 4 0 0 0 2.3-1.83c1.45-1.28 2.73-2.87 4.23-4.12 3.56-3 7.54-5.93 10.15-9.88 4-6.12-8.68-16.94-13.11-20.8-5.87-5.12-15.51-13.22-23.87-10.32S124.23 62.68 125 71.37zm-3.58 123.09c-1.18 1.2.07 6.14.14 7.6.16 3.26 0 6.57 0 9.84.1 1.32-.33 4.72.81 5.4s4.84-.8 5.46-1.63c1-1.41.38-6.26.83-8.26.55-2.4 4.07-7.52 3.78-9.8-.27-2.12-3.22-1.83-5.29-2.29-1.31-.32-4.67-1.92-5.7-.86zM69.83 301.07a19.5 19.5 0 0 1 11.4-3.85c2.76 0 5.91-.91 2.83-4.38-2.17-2.44-6.57-.32-9 .87-4.06 1.94-5.23 2.99-5.23 7.36zm6.81-210c-4.11 1.39-6.38 11.81-6.21 15.73 1.06 5.05 1.6 9.05 5.44 12.89 2.35 2.35 4.26 2.18 7.17 1.05 1.51-.59 6.16-2.34 6.22-4.48 0-1-3.39-2.42-4.44-3.58a13.76 13.76 0 0 1-3.6-7.55c-.28-2.47-.09-5.58 1.87-7.3 1.62-1.41 5-.9 6-2.3.4-.55-.13-2.81.25-3.67.64-1.46.56-1.48 1.94-2 3.3-1.18 5.67 1.88 3-3.48-3-6-8.81-6.62-11 .16-.37 1.14-.05 5.11-.83 5.68-1.4 1.08-3.8-1.83-5.81-1.16zm-6 214c-1.46 4.29-2.49 7.74 2.82 4.54 1.52-.91 2.61-2.8 4-3.59 2.46-1.37 6.47.4 8.72 1.54-.19-1.63 0-4.45-.75-5.84-1.13-2.19-.85-1.82-4.18-1.65-4.69.2-8.96.17-10.6 4.93zM57.6 78.71c-2.84 1.79-4.8 3-6.09 6.71-2.94 8.46 2.56 16.78 7.86 22.94 1.25 1.46 5.28 4.21 5.78 6.59a1.94 1.94 0 0 1-.18 1.38c-.76 1.4-.52 1.08-2.07 1-2.81-.17-2-2.82-3.8 0s-1.32 8.14-.81 11.28 1.2 11.18 3.88 13.15c2 1.5 8.1 1.87 10.71 2.71A87.36 87.36 0 0 0 83.13 147c2.39.46 4.75.92 7.1 1.3a51.33 51.33 0 0 0 16.43.52c1.72-.26 7.75-1.26 8.67-2.83 1.21-2.08-2.09-7.13-3.72-8.33-5.34-3.92-13.81 6.32-18.89 7.84a3.5 3.5 0 0 1-2 .14c-1.41-.47-1.48-2.46-2.6-4.35s-4.4-6.37-6.37-6.93c-1.26-.36-3.78.73-5.12.9a25.1 25.1 0 0 1-6.65 0c-1-.14-7.92-1.05-5.6-2.64 1-.68 4.82.81 6.09 1a26.67 26.67 0 0 0 5.36 0c3.79-.31 7.6-.88 10.57-3.47 1.26-1.1 4.78-6.82 6.18-7 4-.51-1.09 5.37-1.83 6.08-2.64 2.55-6.14 2.88-4.09 6.32.81 1.35 2 2.59 2.83 3.93 1.46 2.26.65 2.32 2.83 1.77 1.56-.39 3.7-2.5 5.17-3.34 1.89-1.09 3.83-2.08 5.73-3.15 4.3-2.41 8.55-4.92 12.87-7.29 7.56-4.14 14.42-9.4 21.95-13.7 2.4-1.37 2.64-1 1.55-3.31-1-2.08-3.49-4.19-4.9-6-2.56-3.26-4.71-6.8-7-10.29a50.59 50.59 0 0 1-6.17-13.19 29.15 29.15 0 0 1-1.19-7.3c-.07-1.79 1-5.94.18-7.39-4.59 4.58-4.55 10.51-3.5 16.6.26 1.53.84 4.21-1.13 2s-1.06-6.85-2.47-9.43c-8.31 6.68-5 15.85-1.81 24.37 1.1 2.93 1.55 5.15-1.19 1.85-2.29-2.75-3.57-6.61-4.83-9.86-1.89-4.89-2-4-4.69-.5-1.9 2.4-4.6 3.42-6.38 5.77-2.3 3-.24 5.78-.14 9.6.06 2.5 0 8.28-.82 9.83s-4.65 4.94-6.36 6c-3.53 2.12-7 2.14-10.82.48a12.41 12.41 0 0 1-7-8.1c-1.37-4.31-1.27-9.41-1.13-13.73.1-3.08.7-7.7 2.87-10.17 2.56-2.93 7.56-.32 9.27-2.18.76-.84 0-3.68.22-4.92a5.76 5.76 0 0 1 2.1-3.8c2.24-1.78 7.76-.14 3.7-3.61-2.86-2.44-7.86-1.66-8.77-5.59a6.37 6.37 0 0 1 0-2.78c.77-3.59 3.93-7.38 5.35-10.23 2.28-4.57 4.28-9.3 6.63-13.81s5.61-9 7.39-13.8a71.63 71.63 0 0 0-9.9 5.78c-3 2-7.74 3.65-10.29 6.16-2 2-1.39 4.62-1.52 7.55-.2 4.55.21 9.17.27 13.74 0 1.8.45 3.26.2 4.36a2.41 2.41 0 0 1-1.86 1.73c-1 .35-2.74 0-4 .31a19 19 0 0 0-5.07 2.48c-2.73 1.83-4.56 4.61-7.23 6.32zM43.33 46c-1.46.61-10.71 3.57-11.31 4.75-.89 1.72 6.78 7.75 8 9.18 3 3.45 5.8 7.16 8.5 10.86.9 1.21 4.48 8.09 5.75 6.21 1-1.45-3.64-11.26-4.28-12.83-1.33-3.3-4.75-8.12-3.59-11.92s6.91-8.08 9.46-11C53.34 40.59 45.8 45 43.33 46zM27.61 201.35c-1.73 5.26 2.07 5 5.69 8.36 1 .93 2.79 4.17 4.18 4.31 1.57.17 3.7-2.86 5-3.85a34.7 34.7 0 0 1 15.89-6.63c4.74-.09 3.16-3.39 2.25-7.31a123.65 123.65 0 0 0-5.08-15.95c-2.07-5.38-4.39-6.34-9.32-3.7a33.27 33.27 0 0 0-11.5 10.11 59.44 59.44 0 0 0-7.11 14.66zm5.77 93c-3.18-1.86-6.56-3.91-9.74-1.39 3 3.68 8.8 4.8 12.11 8.71 3.51-3.97 2.07-4.67-2.37-7.29zm-10.51-55.81c3.83 6.7 15.38 10.7 22.2 13 9.67 3.3 19.68 6.38 29.6 8.87a74.94 74.94 0 0 0 13.8 2.16c4.32.29 10.51.9 14.72.14 6.13-1.1 9.55-17 10.93-22.35a99.25 99.25 0 0 0 2.85-30c-.57-11.5-.35-23-3.79-34.1-1.21-3.93-2.12-7.12-1.45-11.23.27-1.66 4.91-13.52 4.28-14.14-.9-.88-11.13 2.94-12.79 3.2a39.78 39.78 0 0 1-18-1c-5.88-1.72-11.24-4.88-17.14-6.57-5.49-1.57-10.38.93-15.11 3.75-2.67 1.59-3.69 2-3 4.9.65 2.69 2.2 5.63 3.15 8.26 1.76 4.85 4.65 8.9 6.52 13.66s12.51 29.52 3 30.28c-5.2.22-9.92 2.25-14.39 4.8-2.78 1.58-7.93 4.91-8.62 8.29-.75 3.69 3 8.1 1.57 11.87-.71 1.82-1.88 1.45-3.13 2.47-1.7 1.4-2.24 2.94-3.64 4.55-3.07 3.53-4.57.57-6.92-1.79-2.21-2.13-7.02-3.17-4.64.98zm-2.44 4.31a22.63 22.63 0 0 0 .75 13.21c.66 1.74 2.89 8.36 5.26 8.79 1.18.21 5.58-4.52 6.79-1.79.51 1.16-4.91 6.22-5.62 7.4a25.58 25.58 0 0 0-3.77 11.08c-.49 5.29 1.48 4.26 6 5.89a35.4 35.4 0 0 1 9.51 5.43c2.81 2.16 4.45 6.77 6.65 2.56 1.09-2.09.9-5.56 2.61-7.19s5.26-.11 8-.69c2.39-.5 7.12-4.23 9.32-2.79 2.49 1.63-2 7.27.17 8.31 1.7.82 8.09-3.85 9.91-4.33 2.65-.69 9 .81 10.45-.72.68-.74 1.47-4.26 1.93-5.25a44 44 0 0 1 3.46-6.09c1.27-1.88 7.41-6.79 7.28-8.66-.06-.85-16.93-1.1-18.42-1.28a103.35 103.35 0 0 1-21.6-5.46c-13.39-4.76-27.98-8.51-38.68-18.42zm14.62 65.6c1-10.05-13.46-16.81-20.71-9.62 3 1.8 6 1.18 9.08 2 2.26.58 3.14 2.1 4.59 4.08 1.62 2.2 6.43 9.79 7.04 3.54zm-23.27-75c-.79-.76-2.24-.14-3.3-1.3-1.46-1.58-1.77-4.71-1.74-6.73A30.6 30.6 0 0 1 10.31 212a11.67 11.67 0 0 1 3.19-4.41c2-1.58 4.54-1.14 6.53-2.25 3.15-1.75 4.14-8.51 5.63-11.87 4.13-9.32 10.22-16.38 19.37-21 4.06-2.06 5.87-1.24 4.55-6.33-.57-2.19-1.49-4.36-2.17-6.51s-2.9-4.81-3.36-6.86c-.68-3.08 3-4.12 5.52-6 1.76-1.3 3.82-2 5.58-3.27 2.67-1.86 2.22-1.74 1.22-5.1-1.46-4.85-2.9-10.48-2.19-15.56a32.6 32.6 0 0 1 1.32-6c1.18-3.42 1.46-3.39-.9-6.39-5.71-7.25-10.76-16.89-6.9-26.08.49-1.17 2.14-3.2 2-4.36-.12-1.4-2.59-4.06-3.39-5.22a122.64 122.64 0 0 0-9.84-12.64c-2.7-3-7.57-6.15-9.42-9.74-2.65-5.15 3.74-5.47 7.32-6.84 9.48-3.61 18.83-8.88 28.71-11.35 1.59-.4 3.3-.9 4.56.4 1.59 1.64.22 1.46-1 2.79-.41.44-.82.87-1.25 1.29-3 2.95-6.38 5.47-9.24 8.56-3.35 3.66-6.15 5.38-4.39 10.35.82 2.28 1.94 4.44 2.84 6.7.67 1.69 1.22 6.19 2.4 7.23 1.43 1.24.62.82 2.55-.42a38.08 38.08 0 0 1 5.89-3.61c1.25-.52 5.08-.77 5.81-1.87.94-1.41.25-5.34.23-7.08-.08-4.87-1.13-9.74-1.1-14.57a5 5 0 0 1 1.84-4.14c1.62-1.35 4-2 6.15-3.18 3.89-2.19 7.51-4.88 11.38-7.15 2.62-1.54 9.62-7.57 12.73-6.43 3.78 1.4-.46 7.25-1.6 9.32-2.92 5.3-6.06 10.48-8.67 15.94S86.9 59.16 83.9 64.41c-1 1.81-3.11 3.86-2.14 5.52.83 1.41 6.23 2.3 7.77 3.21 4.89 2.88 6.12 6.81 8.8 11.3 1.11 1.86 0 1.78 1.85 1.09 1.57-.58 4.1-5.1 5.16-6.46C109 74.42 112.26 69.56 116 65c1.74-2.08 3.56-4.1 5.21-6.27a24.77 24.77 0 0 0 1.92-2.68c.21-.36 1.17-2.91 1.27-3 .46-.35 1 .43 1.6-.16a27 27 0 0 1 3.21-2.89c1.48-1 3.18-2 4.76-2.92a17.54 17.54 0 0 1 14.42-1.31c10.28 4 20.54 13.18 26.82 22.11A53.7 53.7 0 0 1 179 73.7a28.55 28.55 0 0 0 1.22 2.84c.27.39 1.7.7 1.88 1.21 1.21 3.47-8.89 11.73-11.17 14-4.7 4.66-9.58 9.12-14.31 13.76-2.46 2.41-4.88 4.9-7.48 7.18-2.31 2-4.29 2.33-7.1 3.46-6.23 2.51-11.63 7-17.09 10.77-2.59 1.78-5.35 3.21-8.09 4.74-.78.44-4 1.7-4.22 2.48-.46 1.63-.09.41 1.26 2.43.59.89 4.18 5.87 5.33 6.09 1.62.32 3.65-2.5 5-3 7.41-2.56 1.29 4.41-.51 6.75-3.39 4.37-5.61 10.21-6.94 15.57-1.62 6.49.45 9.87 2.14 16 .7 2.59.94 5.29 1.42 7.94.71 3.9 1.69 3.8 5.4 4.68 2.58.62 13.56 1.29 13.69 4.1.07 1.53-4.23 3.54-3.26 5.39.86 1.65 4.35.93 5.25.19 1.89-1.54 3.35-7.35 4.88-9.61s3.18-4.81 5.48-6.36 6-2.68 8.88-1.92a6.3 6.3 0 0 1 2.78 1.42c.83.72 1.31 2.5 2 3 2 1.41 5 .74 6.25 3.61 1.34 3.16-3.14 5-2.8 7 .12.69 2.71 1.08 3.05 2.83.39 2-1 3.18-2.08 4.49a13.36 13.36 0 0 1-5.87 3.93c-1.74.68-6.33.75-7.44 1.85-.47.47.17 4.08 0 4.78a12.46 12.46 0 0 1-2.11 4.68c-.91 1.23-2.1 3-4 2.57-1.72-.44-2-2.92-4.18-3.35a5.12 5.12 0 0 0-3.78.84c-.68.42-2.23 3.28-2.48 3.34-2.86.72-2.5-5.32-3-7-.3-1-2-4.9-3.83-4.14-1.49.64-.79 3.13-.83 4.39-.24 7.42-3.42 2.65-8.59 4.17-3.53 1-2.22 6-3 9.38-1.08 4.84-1.72 9.69-3.2 14.47a105.84 105.84 0 0 1-5.23 13.95c-2.19 4.6-5.38 7.43-8.94 10.93a54.15 54.15 0 0 0-8.16 9.74 38.55 38.55 0 0 0-3.08 6.08c-.71 1.81-.71 4.91-2 6.31-.64.7-2.51.93-2.88 1.41-1.1 1.45.52 2.18.65 3.69s-.44 2.13-.55 3.92c-.13 2.17 1.11 4.95 1.94 6.89.91 2.12 2.18 2.47-.2 3.52-1.86.82-3-.25-4.77-1.12-1.29-.62-4.21-2.54-5.61-2.16-1.08.29-3.36 2.83-4.59 3.52-3.21 1.78-8.57 5.6-6.95-.56A10.66 10.66 0 0 0 68 308a7.08 7.08 0 0 0-.62-2.12c-.27-1.72-.41-4.28-.65-6.47-4.78 3.06-3.69-6.42-4.5-7.77-1.08-1.8-.88-1-3.35-.44-1.42.3-5-.28-6.07.41-2.4 1.52-3.17 7-5.49 9.44-1 1-3.4 3.35-5.07 3.1-2.22-.34-.83-2.51-2-2.86-.93-.28-3.22 5-3.48 6-.45 1.62 1.12 5.46.39 6.54-2.7 4-9.73-7-10.89-8.38-2-2.31-3-2.64-5.92-3.18-2-.36-8-.58-9.08-2.81s2.36-2.37 4.1-3.09c1.26-.53 3.75-1.29 4.8-2.27.84-.8.64-2.19 1.61-2.95-4.38-.82-2.63-8.92-2.23-11.84.46-3.4 4-7.88 3.46-10.81-.31-1.67-2.95-4.09-3.79-5.72a48.4 48.4 0 0 1-2.84-6.32 22.86 22.86 0 0 1-1.12-7.8c0-2.43 1.15-5.24.72-7.61-1 .81-4.61 8.66-6.17 4.1-.99-2.97 4.64-9.15 1.97-11.74zm-.31-19.5c-.7 1.18-4.95 14.53-1.58 14.33.6 0 1.21-5.21 1.54-6 1.11-2.6 2.95-4.29 5.12-6.06.79-.66 5.14-3.58 4.24-.71a34.33 34.33 0 0 0-4.61 3.22c-1.78 2-6 9.76-3.54 12.32 1.54 1.56 3.88-1.94 4.8-2.89.11-.12 6.74-6.83 6.85-3.31 0 .23-3.87 2.32-4.36 2.76-1.1 1-1.63 2.52-2.16 3.22-1.83 2.43-4 5.31-4.66 9.2 1.38 0 3.07-2.43 4.13-3.21 1.53-1.14 3.25-2 4.79-3s3.89-2.74 6.11-2.36c1.91.33 1.59-.39.86 1.55-.37 1-1.46-.12-1.64 1.13-.09.62 1.14 2.17 1.55 2.58 1.45 1.5 2.24 1.82 4 .7.9-.6 1.46-2.36 2.32-3.15s2.29-1.18 3.11-1.91c1.74-1.57 1.28-1.86.77-4.59-.83-4.52-2.68-6.13-5.1-10a27.21 27.21 0 0 0-10.37-9.24c-4.89-2.34-9.64 1.2-12.17 5.38z"/><path d="M156.47 118.06h7.77v7.77h-7.77z"/><path d="M165.75 127.34H155v-10.8h10.8zm-10.1-.7h9.4v-9.4h-9.4zm9.37 1.24h.7v5.61h-.7zm0 7.64h.7v5.61h-.7zm1.36-1.36h5.61v.7h-5.61zm-7.64 0h5.61v.7h-5.61z" class="cls-1"/><path d="M165.02 134.16h.69v.69h-.69z"/><path d="M158.92 107.44a1.34 1.34 0 0 1 1.37-1.38 1.21 1.21 0 0 1 1.06.56l-.34.18a.84.84 0 0 0-.72-.39 1 1 0 0 0 0 2 .84.84 0 0 0 .72-.39l.34.18a1.21 1.21 0 0 1-1.06.56 1.34 1.34 0 0 1-1.37-1.32zm2.82-1.34h.36v2.67h-.36zm.87.19a.24.24 0 0 1 .23-.23.23.23 0 0 1 .23.23.23.23 0 0 1-.23.23.23.23 0 0 1-.23-.23zm.06.55h.33v1.93h-.36zm1.8-.05a.84.84 0 0 1 .72.34l-.24.22a.54.54 0 0 0-.47-.24.7.7 0 0 0 0 1.39.55.55 0 0 0 .47-.24l.24.22a.84.84 0 0 1-.72.34 1 1 0 0 1 0-2zm1.77 1.15l-.29.3v.54h-.36v-2.68h.36v1.71l.93-1h.45l-.83.88.84 1.06h-.46zm2.53.4v-1.19h-.32v-.32h.32v-.53h.36v.53h.39v.32h-.39v1.11c0 .14.06.24.19.24a.28.28 0 0 0 .2-.08l.09.27a.51.51 0 0 1-.38.12.42.42 0 0 1-.46-.47zm1.03-.54a1 1 0 1 1 1 1 1 1 0 0 1-1-1zm1.58 0a.61.61 0 1 0-.6.7.63.63 0 0 0 .6-.7zm4.21-.32c0-.22-.1-.37-.34-.37a.62.62 0 0 0-.48.28v1.38h-.36v-1.29c0-.22-.1-.37-.34-.37a.63.63 0 0 0-.47.28v1.38h-.36v-1.93h.36v.27a.84.84 0 0 1 .62-.32.5.5 0 0 1 .52.36.81.81 0 0 1 .65-.36c.36 0 .55.2.55.58v1.4h-.36zm2.12 1.08a.83.83 0 0 1-.63.26.64.64 0 0 1-.67-.64.62.62 0 0 1 .67-.63.81.81 0 0 1 .63.26v-.32c0-.24-.2-.38-.47-.38a.79.79 0 0 0-.58.26l-.16-.25a1.09 1.09 0 0 1 .79-.32c.42 0 .78.18.78.68v1.3h-.36zm0-.54a.61.61 0 0 0-.5-.22.39.39 0 1 0 0 .77.61.61 0 0 0 .5-.22zm1.59-.08l-.29.3v.54h-.36v-2.68h.35v1.71l.93-1h.45l-.83.88.84 1.06h-.46zm2.18-1.15a1 1 0 0 1 .94 1v.09h-1.53a.63.63 0 0 0 .66.6.82.82 0 0 0 .57-.23l.17.24a1.09 1.09 0 0 1-.78.29 1 1 0 0 1 0-2zm-.59.87h1.18a.57.57 0 0 0-.59-.58.59.59 0 0 0-.59.58zm4.21.9a.83.83 0 0 1-.63.26.64.64 0 0 1-.67-.64.62.62 0 0 1 .67-.63.81.81 0 0 1 .63.26v-.32c0-.24-.2-.38-.47-.38a.79.79 0 0 0-.58.26l-.16-.25a1.09 1.09 0 0 1 .79-.32c.42 0 .78.18.78.68v1.3h-.36zm0-.54a.61.61 0 0 0-.5-.22.39.39 0 1 0 0 .77.61.61 0 0 0 .5-.22zm1.98-1.92h.4v2.31h1.21v.35h-1.61zm1.98.19a.24.24 0 0 1 .23-.23.23.23 0 0 1 .23.23.23.23 0 0 1-.23.23.23.23 0 0 1-.23-.23zm.06.55h.36v1.93h-.36zm.65 0h.38l.6 1.52.6-1.52h.39l-.79 1.93h-.39zm3.12-.05a1 1 0 0 1 .94 1v.09h-1.53a.63.63 0 0 0 .66.6.82.82 0 0 0 .57-.23l.17.24a1.09 1.09 0 0 1-.78.29 1 1 0 0 1 0-2zm-.59.87h1.18a.57.57 0 0 0-.59-.58.59.59 0 0 0-.6.58zm3.02-1.56h1.12a.82.82 0 1 1 0 1.64h-.72v1h-.4zm1.07.35h-.67v.94h.67a.47.47 0 1 0 0-.94zm2.42 2.11a.83.83 0 0 1-.63.26.64.64 0 0 1-.67-.64.62.62 0 0 1 .67-.63.81.81 0 0 1 .63.26v-.32c0-.24-.2-.38-.47-.38a.79.79 0 0 0-.58.26l-.16-.25a1.09 1.09 0 0 1 .79-.32c.42 0 .78.18.78.68v1.3h-.36zm0-.54a.61.61 0 0 0-.5-.22.39.39 0 1 0 0 .77.61.61 0 0 0 .5-.22zm.88-1.73a.24.24 0 0 1 .23-.23.23.23 0 0 1 .23.23.23.23 0 0 1-.23.23.23.23 0 0 1-.23-.23zm.06.55h.36v1.93h-.36zm2.25.69c0-.32-.16-.42-.41-.42a.69.69 0 0 0-.53.28v1.38h-.36v-1.93h.3v.27a.92.92 0 0 1 .68-.32.55.55 0 0 1 .62.62v1.36h-.3zm1 .81v-1.19h-.32v-.32h.32v-.53h.36v.53h.39v.32h-.39v1.11c0 .14.06.24.19.24a.28.28 0 0 0 .2-.08l.09.27a.51.51 0 0 1-.38.12.42.42 0 0 1-.46-.47zm2.33.66a.76.76 0 0 0 .62.26.53.53 0 0 0 .6-.55v-.25a.81.81 0 0 1-.64.33c-.5 0-.86-.37-.86-1a.88.88 0 0 1 .86-1 .79.79 0 0 1 .64.33v-.28h.36v1.85c0 .66-.48.86-1 .86a1 1 0 0 1-.79-.29zm1.22-1.61a.67.67 0 0 0-.54-.28.69.69 0 0 0 0 1.36.68.68 0 0 0 .54-.29zm.93-.55h.36v.3a.82.82 0 0 1 .63-.34v.36h-.12a.68.68 0 0 0-.51.28v1.34h-.36zm1.23.96a1 1 0 1 1 1 1 1 1 0 0 1-1-1zm1.58 0a.61.61 0 1 0-.6.7.63.63 0 0 0 .6-.7zm2.13.7a1 1 0 0 1-.69.31.54.54 0 0 1-.62-.62v-1.36h.36v1.24c0 .32.16.42.41.42a.7.7 0 0 0 .54-.27v-1.39h.36v1.93h-.36zm.93 1v-2.67h.36v.28a.79.79 0 0 1 .63-.32c.5 0 .86.38.86 1s-.36 1-.86 1a.77.77 0 0 1-.63-.33v1zm.9-2.4a.66.66 0 0 0-.54.28v.82a.67.67 0 0 0 .54.28c.36 0 .58-.29.58-.7s-.22-.67-.58-.67z" class="cls-2"/><path d="M250.5 17.2H18.63m0 0v155.67" class="cls-3"/><path d="M13.13 11.7h11v11h-11z" class="cls-4"/><path d="M18.63 11.7v11m-5.5-11l11 11m-11-5.5h11m-11 5.5l11-11" class="cls-5"/><path d="M13.13 11.7h11v11h-11z" class="cls-3"/></svg>