<svg xmlns="http://www.w3.org/2000/svg" id="_4" viewBox="0 0 687.45 152.05" width="687.45" height="152.05"><defs><style>.cls-1{fill:#50b848}.cls-2{fill:#016940}.cls-3{fill:#eee809}.cls-4{fill:#99ca45}.cls-5{fill:#004025}.cls-6{fill:#94c948}</style></defs><path d="M684.2 73h-30.82l15.41-26.69a3 3 0 0 0 0-3l18 31.19a3 3 0 0 0-2.59-1.5z" class="cls-1"/><path d="M666.2 41.83a3 3 0 0 1 2.59 4.5L653.38 73h-12l18-31.19z" class="cls-2"/><path d="M662.79 32.94a3 3 0 0 1 0 3l-3.4 5.89h-36l6-10.39h30.82a3 3 0 0 1 2.58 1.5z"/><path d="M659.39 41.83l-18.01 31.19h-36.01l18-31.19h36.02z" class="cls-2"/><path d="M644.78 1.75l18 31.19a3 3 0 0 0-2.6-1.5h-30.81l15.41-26.69a3 3 0 0 0 0-3z" class="cls-3"/><path d="M644.78 1.75a3 3 0 0 1 0 3l-15.41 26.69H571L555.55 4.75a3 3 0 0 1 2.6-4.5h84a3 3 0 0 1 2.63 1.5z" class="cls-3"/><path d="M686.8 77.52l-42 72.78a3 3 0 0 1-5.19 0l-15.41-26.69L653.38 73h30.82a3 3 0 0 1 2.6 4.5z" class="cls-1"/><path d="M642.19 151.8h-36a3 3 0 0 0 2.6-1.5l15.41-26.69 15.41 26.69a3 3 0 0 0 2.58 1.5z" class="cls-4"/><path d="M641.38 73.02l-23.21 40.19-18-31.19 5.2-9h36.01z"/><path d="M623.37 41.83l-18 31.19h-10.4l-18.01-31.19h46.41z" class="cls-2"/><path d="M600.17 82.02l18 31.19-18 31.19-18.01-31.18 18.01-31.2zm8.6 68.28a3 3 0 0 1-5.2 0l-3.4-5.9 18-31.19 6 10.4z" class="cls-4"/><path d="M600.17 82.02l-18.01 31.2-23.21-40.2h36.02l5.2 9zm-23.21-40.19l18.01 31.19h-36.02l-18.01-31.19h36.02z" class="cls-4"/><path d="M600.17 144.4l-3.41 5.9a3 3 0 0 1-2.59 1.5h-36a2.93 2.93 0 0 0 1.75-.57h34.67a3 3 0 0 1-2.6-1.5L576.52 123l5.64-9.76z"/><path d="M592 149.73a3 3 0 0 0 2.6 1.5h-34.7a3 3 0 0 0 .85-.93l15.77-27.3z" class="cls-5"/><path d="M571 31.44l6 10.39h-36l-3.4-5.89a3 3 0 0 1 2.6-4.5z" class="cls-4"/><path d="M547.68 73l28.84 50-15.77 27.3a3 3 0 0 1-.85.93h-1.35a3 3 0 0 1-2.6-1.5L513.94 77a2.45 2.45 0 0 1 2.19-4z" class="cls-5"/><path d="M537.54 32.94l18-31.19a3 3 0 0 0 0 3L571 31.44h-30.86a3 3 0 0 0-2.6 1.5z" class="cls-4"/><path d="M531.94 45.76L547.68 73h-31.55a3 3 0 0 0-2.22 1v-.06l17.94-31.08a3 3 0 0 0 .09 2.9z" class="cls-5"/><path d="M534.14 41.83h6.8l18 31.19h-11.26l-15.74-27.26a3 3 0 0 1 0-2.92 3 3 0 0 1 2.2-1.01z" class="cls-2"/><path d="M531.88 42.87L513.94 74v.06a3.07 3.07 0 0 0-.38.51l18-31.19a2.61 2.61 0 0 1 .32-.51z" class="cls-6"/><path d="M445.45 74.52a3 3 0 0 1 0 3l-42 72.78a3 3 0 0 1-5.19 0l-15.41-26.69L412 73h30.82a3 3 0 0 1 2.63 1.52z"/><path d="M427.44 43.33l18 31.19a3 3 0 0 0-2.6-1.5H412l15.41-26.69a3 3 0 0 0 .03-3z"/><path d="M427.44 43.33a3 3 0 0 1 0 3L412 73h-12l18-31.19h6.81a3 3 0 0 1 2.63 1.52z"/><path d="M421.44 32.94a3 3 0 0 1 0 3L418 41.83h-36l6-10.39h30.82a3 3 0 0 1 2.62 1.5z"/><path d="M403.43 1.75l18 31.19a3 3 0 0 0-2.6-1.5H388l15.43-26.69a3 3 0 0 0 0-3zm14.61 40.08l-18.01 31.19h-36.01l18-31.19h36.02z"/><path d="M403.43 1.75a3 3 0 0 1 0 3L388 31.44h-58.39L314.2 4.75a3 3 0 0 1 2.6-4.5h84a3 3 0 0 1 2.63 1.5zm-2.59 150.05h-36a3 3 0 0 0 2.6-1.5l15.41-26.69 15.41 26.69a3 3 0 0 0 2.58 1.5zm-.81-78.78l-23.21 40.19-18-31.19 5.2-9h36.01z"/><path d="M376.82 113.21l6 10.4-15.4 26.69a3 3 0 0 1-5.2 0l-3.4-5.9zm5.2-71.38l-18 31.19h-10.4l-18.01-31.19h46.41zm-23.2 40.19l18 31.19-18 31.19-18.01-31.18 18.01-31.2z"/><path d="M358.82 82.02l-18.01 31.2-23.21-40.2h36.02l5.2 9zm0 62.38l-3.41 5.9a3 3 0 0 1-2.59 1.5h-36a2.93 2.93 0 0 0 1.75-.57h34.67a3 3 0 0 1-2.6-1.5L335.17 123l5.64-9.76zM335.61 41.83l18.01 31.19H317.6l-18.01-31.19h36.02z"/><path d="M353.22 151.23h-34.67a3 3 0 0 0 .85-.93l15.77-27.3 15.45 26.75a3 3 0 0 0 2.6 1.48zM329.61 31.44l6 10.39h-36l-3.4-5.89a3 3 0 0 1 2.6-4.5z"/><path d="M306.33 73l28.84 50-15.77 27.3a3 3 0 0 1-.85.93h-1.35a3 3 0 0 1-2.6-1.5L272.59 77a2.45 2.45 0 0 1 2.19-4zm7.87-68.25l15.41 26.69h-30.82a3 3 0 0 0-2.6 1.5l18-31.19a3 3 0 0 0 .01 3zm-14.61 37.08L317.6 73h-11.27l-15.74-27.24a3 3 0 0 1 0-2.92 3 3 0 0 1 2.24-1z"/><path d="M290.59 45.76L306.33 73h-31.55a3 3 0 0 0-2.22 1v-.06l17.94-31.08a3 3 0 0 0 .09 2.9z"/><path d="M290.53 42.87L272.59 74v.06a3.07 3.07 0 0 0-.38.51l18-31.19a2.61 2.61 0 0 1 .32-.51zm-135.26-9.93a3 3 0 0 0-2.6-1.5H32.62a3 3 0 0 0-2.6 1.5L48 1.75a3 3 0 0 1 2.6-1.5h84a3 3 0 0 1 2.6 1.5zM81 128.73a3 3 0 0 1-2.6-1.5l-60-104a3 3 0 0 1 0-3L.4 51.46a3 3 0 0 0 0 3l42 72.78a3 3 0 0 0 2.6 1.5zM179.76 1.75a3 3 0 0 1 0 3l-84 145.55a3 3 0 0 1-2.6 1.5h36a3 3 0 0 0 2.6-1.5l66-114.36a3 3 0 0 0 0-3z"/></svg>