<svg xmlns="http://www.w3.org/2000/svg" id="Layer_1" viewBox="0 0 216.98 262.92" width="216.98" height="262.92"><defs><style>.cls-1{fill:#6d6e71}.cls-2{fill:url(#linear-gradient)}.cls-3{fill:#abe0f9}</style><linearGradient id="linear-gradient" x1="108.49" x2="108.49" y1="1.77" y2="208.11" gradientUnits="userSpaceOnUse"><stop offset="0" stop-color="#00adee"/><stop offset="1" stop-color="#224099"/></linearGradient></defs><path d="M20.182 226.133h8.927c7.487 0 12.562 4.967 12.562 12.022s-5.075 11.987-12.562 11.987h-8.927zm8.927 20.3c5.22 0 8.243-3.742 8.243-8.278 0-4.643-2.88-8.315-8.243-8.315h-4.715v16.594zm15.805-13.677h3.78v2.556a7.424 7.424 0 0 1 5.651-2.952v3.744a5.554 5.554 0 0 0-1.188-.109 6.004 6.004 0 0 0-4.463 2.304v11.843h-3.78zm10.692 8.674c0-4.967 3.42-9.106 8.927-9.106 5.579 0 8.963 4.14 8.963 9.107 0 5.003-3.384 9.142-8.963 9.142-5.507 0-8.927-4.14-8.927-9.142zm13.966 0c0-3.06-1.8-5.758-5.04-5.758-3.203 0-5.002 2.7-5.002 5.759 0 3.095 1.8 5.795 5.003 5.795 3.239 0 5.039-2.7 5.039-5.795zm7.021 15.335v-24.009h3.78v2.376a6.936 6.936 0 0 1 5.58-2.808c4.498 0 7.703 3.383 7.703 9.107s-3.205 9.142-7.704 9.142a6.827 6.827 0 0 1-5.58-2.843v9.035zm8.243-21.093a5.642 5.642 0 0 0-4.464 2.339v6.876a5.745 5.745 0 0 0 4.464 2.339c2.988 0 4.896-2.411 4.896-5.795 0-3.348-1.908-5.759-4.896-5.759zm11.917-9.539h3.78v24.009h-3.78zm15.695 6.191c5.22 0 8.566 3.995 8.566 9.467v.9h-13.426a5.265 5.265 0 0 0 5.543 4.787 7.358 7.358 0 0 0 4.932-1.908l1.727 2.484a10.13 10.13 0 0 1-7.054 2.52 9.127 9.127 0 0 1-.288-18.25zm-4.896 7.703h9.791a4.65 4.65 0 0 0-4.895-4.607 4.796 4.796 0 0 0-4.896 4.608zm17.244 6.083v-10.043h-2.88v-3.311h2.88v-4.752h3.78v4.752h3.528v3.312h-3.529v9.106c0 1.188.577 2.052 1.657 2.052a2.436 2.436 0 0 0 1.691-.612l.9 2.844a4.988 4.988 0 0 1-3.563 1.115c-2.916 0-4.464-1.583-4.464-4.463zm11.951-.612a2.52 2.52 0 1 1-2.52 2.52 2.55 2.55 0 0 1 2.52-2.52zm16.776 2.772a7.337 7.337 0 0 1-5.615 2.304 5.775 5.775 0 0 1-6.048-5.76c0-3.995 3.204-5.65 6.048-5.65a7.187 7.187 0 0 1 5.615 2.23v-2.59c0-2.017-1.656-3.24-4.068-3.24a7.119 7.119 0 0 0-5.147 2.195l-1.548-2.627a10.336 10.336 0 0 1 7.307-2.807c3.851 0 7.235 1.619 7.235 6.298v11.519h-3.78zm0-4.715a5.089 5.089 0 0 0-4.14-1.8c-2.124 0-3.708 1.224-3.708 3.132 0 1.871 1.584 3.095 3.708 3.095a5.089 5.089 0 0 0 4.14-1.8zm7.957 13.21v-24.009h3.78v2.376a6.935 6.935 0 0 1 5.578-2.808c4.5 0 7.704 3.383 7.704 9.107s-3.204 9.142-7.704 9.142a6.825 6.825 0 0 1-5.579-2.843v9.035zm8.242-21.093a5.64 5.64 0 0 0-4.463 2.339v6.876a5.744 5.744 0 0 0 4.463 2.339c2.988 0 4.896-2.411 4.896-5.795 0-3.348-1.908-5.759-4.896-5.759zm11.917 21.093v-24.009h3.78v2.376a6.936 6.936 0 0 1 5.58-2.808c4.498 0 7.702 3.383 7.702 9.107s-3.204 9.142-7.703 9.142a6.827 6.827 0 0 1-5.58-2.843v9.035zm8.243-21.093a5.642 5.642 0 0 0-4.464 2.339v6.876a5.745 5.745 0 0 0 4.464 2.339c2.988 0 4.896-2.411 4.896-5.795 0-3.348-1.909-5.759-4.896-5.759z" class="cls-1"/><path d="M159.63 102.28V0H57.35v102.28H0l108.49 108.49 108.49-108.49h-57.35z" class="cls-2"/><path d="M71.51 32.027a97.58 97.58 0 0 1 17.187-1.279c8.228 0 14.262 1.737 18.193 5.029a17.404 17.404 0 0 1 6.034 13.621c0 5.851-1.83 10.696-5.303 13.987-4.48 4.48-11.519 6.583-19.472 6.583a31.695 31.695 0 0 1-5.486-.366v23.22H71.51zm11.153 28.707a22.648 22.648 0 0 0 5.485.457c8.411 0 13.53-4.113 13.53-11.337 0-6.855-4.754-10.512-12.524-10.512a31.072 31.072 0 0 0-6.491.548zm33.367 21.758a25.083 25.083 0 0 0 11.427 3.2c4.937 0 7.131-2.01 7.131-4.936 0-3.018-1.828-4.572-7.314-6.492-8.685-3.016-12.342-7.77-12.25-12.982 0-7.861 6.49-13.986 16.822-13.986a26.147 26.147 0 0 1 11.793 2.65l-2.195 7.954a19.993 19.993 0 0 0-9.416-2.56c-4.023 0-6.216 1.92-6.216 4.663 0 2.833 2.102 4.204 7.77 6.216 8.046 2.926 11.794 7.04 11.885 13.622 0 8.045-6.308 13.895-18.102 13.895a28.72 28.72 0 0 1-13.53-3.107z" class="cls-3"/></svg>