<svg xmlns="http://www.w3.org/2000/svg" id="Layer_1" viewBox="0 0 2000 1500" width="2000" height="1500"><defs><style>.cls-1{fill:#87cdec}.cls-2{fill:#939598}.cls-3{fill:#231f20}.cls-4{fill:#fff}.cls-5{fill:#009fda}.cls-6{fill:#0076a3}.cls-7{fill:#d4effc}.cls-8{fill:#35c5ee}.cls-9{fill:#181628}.cls-10,.cls-11{fill:none}.cls-10{stroke:#bcbec0;stroke-miterlimit:10;stroke-width:2.45px}.cls-11{stroke:#3fb6df;stroke-linecap:round;stroke-linejoin:round;stroke-width:4.9px}.cls-12{fill:#58595b}</style></defs><path d="M0 0h2000v1500H0z" class="cls-1"/><path d="M1126.31 194.7h233.28v1305.23h-233.28z" class="cls-2"/><path d="M1406.77 194.7h233.28v1305.23h-233.28z" class="cls-3"/><path d="M1678.06 194.7h233.28v1305.23h-233.28z" class="cls-4"/><path d="M1126.31.07h233.28v167.11h-233.28z" class="cls-2"/><path d="M1406.77.07h233.28v167.11h-233.28z" class="cls-3"/><path d="M1678.06.07h233.28v167.11h-233.28zM256.23 76.8h34c14.5 0 24.66 8.13 24.66 23 0 11.38-8 19.11-16 20.73 9.62 1.49 17.75 11.79 17.75 22.22 0 15.45-10 24.39-25.88 24.39h-34.53zm34 41.87c13.28 0 19.92-8.4 19.92-18.83s-6.64-19-19.92-19h-29.67v37.8zm.54 44.44c13.28 0 21.14-7.86 21.14-20.19 0-10.3-7-20.19-21.14-20.19h-30.21v40.38zm46.49-86.31h4.06v90.38h-4.06zm54.6 23.31c20.05 0 30.35 16.12 30.35 34.28v1.35h-56.5c.41 16 10.84 29.4 27.51 29.4a29.84 29.84 0 0 0 22.78-9.89l2.44 2.57c-6.64 6.91-14.23 11-25.2 11-19 0-32.11-14.5-32.11-34.42-.03-18.98 13.12-34.29 30.73-34.29zm-26.15 32h52.17c0-12.6-8.27-28.32-26.15-28.32-16.8-.03-25.61 15.42-26.02 28.29zm120.46-10.6c0-13.69-6.77-17.75-16.94-17.75-8.94 0-18.56 5.83-23.17 12.33v51.08H442v-65.44h4.06V112c4.88-6 14.63-11.92 23.71-11.92 13 0 20.46 6 20.46 21.41v45.66h-4.06zm76.7 34.69a28.88 28.88 0 0 1-23.58 12.6c-17.61 0-29.27-13.55-29.27-34.28s11.65-34.42 29.27-34.42a28.63 28.63 0 0 1 23.58 12.9V76.8h4.06v90.38h-4.06zm0-39.16a28.7 28.7 0 0 0-23.58-13.28c-16 0-24.8 13.55-24.8 30.76s8.81 30.62 24.8 30.62c10.16 0 19.51-6.1 23.58-13zM701.9 81.95l-35.23 85.23h-1.35l-35.24-85.23v85.23h-4.34V76.8h6.91L666 157.69l33.32-80.89h6.91v90.38h-4.33zm24.39 52.44c0-19.24 12.06-34.28 30.49-34.28s30.49 15 30.49 34.28-11.92 34.42-30.49 34.42-30.49-15.18-30.49-34.42zm56.5 0c0-15.85-9.21-30.62-26-30.62s-26 14.77-26 30.62 9.35 30.76 26 30.76 26-14.77 26-30.76zm73.58 21.81a28.88 28.88 0 0 1-23.58 12.6c-17.61 0-29.27-13.55-29.27-34.28s11.65-34.42 29.27-34.42a28.63 28.63 0 0 1 23.58 12.9V76.8h4.06v90.38h-4.06zm0-39.16a28.7 28.7 0 0 0-23.58-13.28c-16 0-24.8 13.55-24.8 30.76s8.81 30.62 24.8 30.62c10.16 0 19.51-6.1 23.58-13zM911 100.11c20.05 0 30.35 16.12 30.35 34.28v1.35h-56.5c.41 16 10.84 29.4 27.51 29.4a29.84 29.84 0 0 0 22.76-9.89l2.44 2.57c-6.64 6.91-14.23 11-25.2 11-19 0-32.11-14.5-32.11-34.42-.03-18.98 13.11-34.29 30.75-34.29zm-26.15 32H937c0-12.6-8.27-28.32-26.15-28.32-16.85-.03-25.62 15.42-26.02 28.29zm73.83 23.28c4.06 5.42 11.11 9.76 20.73 9.76 12.06 0 19.38-6.5 19.38-15.18 0-9.62-9.76-12.2-19.78-14.91-10.84-2.85-22.22-5.69-22.22-17.61 0-9.62 8.13-17.34 22.22-17.34 11.25 0 18.29 4.47 22.49 9.89l-3 2.71c-3.79-5.42-10.7-8.94-19.51-8.94-11.38 0-18.16 6-18.16 13.69 0 8.54 9.08 10.7 18.7 13.28 11.25 2.85 23.31 6 23.31 19.24 0 10.16-7.59 18.83-23.44 18.83-10.3 0-17.48-3-24-10.43z" class="cls-4"/><path d="M519.67 482.18h13.15c4.76 0 7.2 3 7.2 6.37a5.55 5.55 0 0 1-4.31 5.73 6.06 6.06 0 0 1 4.8 6.15c0 3.75-2.51 6.75-7.27 6.75h-13.57zm12 10a2.76 2.76 0 1 0 0-5.51H525v5.51zm.19 10.42c2 0 3.22-1.16 3.22-3a2.92 2.92 0 0 0-3.22-2.92H525v5.88zm12.54-20.42h4.76v25h-4.76zm17.69 6.45c5.4 0 9.07 4 9.07 10v1H557.7a4.88 4.88 0 0 0 5.21 4.2 7.4 7.4 0 0 0 4.83-1.8l2.1 3.07a11.16 11.16 0 0 1-7.46 2.51c-5.51 0-9.67-3.71-9.67-9.52a9.21 9.21 0 0 1 9.38-9.46zm-4.46 7.79h8.92a4.19 4.19 0 0 0-4.46-4 4.35 4.35 0 0 0-4.46 4zm29.19-.19c0-2.51-1.31-3.37-3.34-3.37a5.16 5.16 0 0 0-4.12 2.14v12.18h-4.76v-18.1h4.76v2.36a8.29 8.29 0 0 1 6.33-2.81c4 0 5.88 2.25 5.88 5.77v12.78h-4.76zm21.92 8.66a7.1 7.1 0 0 1-5.58 2.74c-4.57 0-8-3.45-8-9.48s3.41-9.52 8-9.52a7 7 0 0 1 5.58 2.77v-9.22h4.8v25h-4.8zm0-10a5.23 5.23 0 0 0-4.12-2.06c-2.7 0-4.57 2.14-4.57 5.28s1.87 5.25 4.57 5.25a5.23 5.23 0 0 0 4.12-2.06z" class="cls-5"/><path d="M642.69 490l-4.35 17.16h-5.66l-7.16-25h6l4.38 18.06 4.76-18.06h4.16l4.72 18.06 4.35-18.06h6l-7.12 25h-5.66zm31.82 6.16c0-2.51-1.31-3.3-3.37-3.3A5.27 5.27 0 0 0 667 495v12.18h-4.76v-25H667v9.26a8.37 8.37 0 0 1 6.37-2.81c4 0 5.88 2.17 5.88 5.7v12.85h-4.76zm8.99-12.59a2.85 2.85 0 1 1 2.85 2.85 2.87 2.87 0 0 1-2.85-2.85zm.49 5.51h4.76v18.1H684zm10.42 13.6v-9.44h-3v-4.16h3v-4.95h4.8v4.95h3.67v4.16h-3.67v8.17c0 1.12.6 2 1.65 2a2.6 2.6 0 0 0 1.65-.52l1 3.6a5.88 5.88 0 0 1-4 1.16c-3.3-.02-5.1-1.75-5.1-4.97zm19.94-14.05c5.4 0 9.07 4 9.07 10v1H710a4.88 4.88 0 0 0 5.21 4.2A7.4 7.4 0 0 0 720 502l2.1 3.07a11.16 11.16 0 0 1-7.46 2.51c-5.51 0-9.67-3.71-9.67-9.52a9.21 9.21 0 0 1 9.38-9.43zm-4.46 7.79h8.92a4.19 4.19 0 0 0-4.46-4 4.35 4.35 0 0 0-4.46 4z" class="cls-4"/><path d="M541.48 521.54l-8.48 20.8h-1.3l-8.47-20.8v20.8h-3.11v-25h4.46l7.76 19 7.79-19h4.46v25h-3.11zm20.16 18.74a7.83 7.83 0 0 1-6 2.51c-3.07 0-6.33-2.06-6.33-6s3.26-6 6.33-6a7.57 7.57 0 0 1 6 2.47V530c0-2.44-1.95-3.82-4.57-3.82a7.19 7.19 0 0 0-5.55 2.51l-1.31-1.95a9.47 9.47 0 0 1 7.23-3c3.82 0 7 1.72 7 6.11v12.44h-2.81zm0-5.17a6.06 6.06 0 0 0-5-2.25c-2.62 0-4.46 1.65-4.46 4s1.84 3.93 4.46 3.93a6.06 6.06 0 0 0 5-2.25zm14.24-.9l-3 3v5.17h-2.81v-25h2.81v16.53l9.52-9.63h3.6l-8 8.21 8.06 9.89h-3.6zm20.46-10.42c5.47 0 8.69 4.27 8.69 9.71v.71h-14.65a6.38 6.38 0 0 0 6.52 6.26 7.91 7.91 0 0 0 5.58-2.29l1.35 1.84a9.83 9.83 0 0 1-7.2 2.77c-5.36 0-9.22-3.86-9.22-9.52.01-5.27 3.76-9.48 8.93-9.48zm-6 8.36h11.88a5.87 5.87 0 0 0-6-6c-3.78-.03-5.69 3.23-5.84 6zm27.85 1.12c0-5.25 3.45-9.48 9-9.48s9 4.23 9 9.48-3.45 9.52-9 9.52-9-4.27-9-9.52zm15 0c0-3.67-2.14-7-6-7s-6 3.3-6 7 2.17 7 6 7 5.95-3.27 5.95-7zm8.04 5.29v-11.84h-3v-2.47h3v-4.95H644v4.95h3.67v2.47H644V538c0 1.35.6 2.32 1.84 2.32a2.71 2.71 0 0 0 1.91-.75l.82 2.1a4.59 4.59 0 0 1-3.37 1.16c-2.62-.04-3.97-1.57-3.97-4.27zm22.71-8.13c0-3.19-1.65-4.12-4.08-4.12a7.11 7.11 0 0 0-5.36 2.81v13.23h-2.81v-25h2.81v9.52a9 9 0 0 1 6.48-3.07c3.79 0 5.77 1.84 5.77 5.77v12.78h-2.81zm16.3-6.64c5.47 0 8.69 4.27 8.69 9.71v.71h-14.64a6.38 6.38 0 0 0 6.52 6.26 7.91 7.91 0 0 0 5.58-2.29l1.35 1.84a9.83 9.83 0 0 1-7.2 2.77c-5.36 0-9.22-3.86-9.22-9.52 0-5.27 3.75-9.48 8.92-9.48zm-6 8.36h11.88a5.87 5.87 0 0 0-6-6c-3.77-.03-5.69 3.23-5.83 6zm19.23-7.91h2.81v2.92a7.7 7.7 0 0 1 6-3.3v2.89a4.94 4.94 0 0 0-1.12-.11 6.62 6.62 0 0 0-4.91 2.89v12.82h-2.81zm30.02-.45a7.75 7.75 0 0 1 6.63 3.15l-1.87 1.72a5.37 5.37 0 0 0-4.61-2.36c-3.86 0-6.26 3-6.26 7s2.4 7 6.26 7a5.46 5.46 0 0 0 4.61-2.36l1.87 1.72a7.75 7.75 0 0 1-6.63 3.15c-5.4 0-9-4.12-9-9.52s3.6-9.5 9-9.5zm9.51 9.48c0-5.25 3.45-9.48 9-9.48s9 4.23 9 9.48-3.45 9.52-9 9.52-9-4.27-9-9.52zm15 0c0-3.67-2.14-7-6-7s-6 3.3-6 7 2.17 7 6 7 6-3.27 6-7zm7.49-15.92h2.81v25h-2.81zm7.38 15.92c0-5.25 3.45-9.48 9-9.48s9 4.23 9 9.48-3.45 9.52-9 9.52-9-4.27-9-9.52zm15 0c0-3.67-2.14-7-6-7s-6 3.3-6 7 2.17 7 6 7 5.96-3.27 5.96-7zm19.71 6.53a8.85 8.85 0 0 1-6.45 3c-3.79 0-5.77-1.84-5.77-5.77v-12.79h2.81v11.92c0 3.19 1.61 4.12 4 4.12a6.93 6.93 0 0 0 5.36-2.74v-13.3h2.81v18.1h-2.81zm8.42-15.56h2.81v2.92a7.7 7.7 0 0 1 6-3.3v2.89a4.94 4.94 0 0 0-1.12-.11 6.62 6.62 0 0 0-4.91 2.89v12.82H806zm12.26 13.68a8.2 8.2 0 0 0 6 2.59c2.77 0 4.27-1.24 4.27-3 0-2-2.21-2.62-4.65-3.22-3.07-.71-6.56-1.54-6.56-5.28 0-2.81 2.44-5.21 6.75-5.21a9.16 9.16 0 0 1 6.71 2.62l-1.31 1.95a7.05 7.05 0 0 0-5.4-2.29c-2.47 0-4 1.12-4 2.74s2.06 2.32 4.42 2.89c3.15.71 6.78 1.61 6.78 5.62 0 3-2.44 5.47-7.12 5.47a9.63 9.63 0 0 1-7.31-2.85z" class="cls-5"/><path d="M857.46 540.06a7.1 7.1 0 0 1-5.58 2.74c-4.57 0-8-3.45-8-9.48s3.41-9.52 8-9.52a7 7 0 0 1 5.58 2.77v-9.22h4.8v25h-4.8zm0-10a5.23 5.23 0 0 0-4.12-2.06c-2.7 0-4.57 2.14-4.57 5.28s1.87 5.25 4.57 5.25a5.23 5.23 0 0 0 4.12-2.06zm20.39 10.41a7.49 7.49 0 0 1-5.73 2.32c-2.89 0-6.3-1.95-6.3-6 0-4.23 3.41-5.77 6.3-5.77a7.31 7.31 0 0 1 5.73 2.21v-2.51c0-1.84-1.57-3-4-3a7.62 7.62 0 0 0-5.28 2.14l-1.8-3.19a11.88 11.88 0 0 1 7.91-2.85c4.12 0 7.91 1.65 7.91 6.86v11.69h-4.76zm0-4.72a4.76 4.76 0 0 0-3.82-1.57c-1.87 0-3.41 1-3.41 2.74s1.54 2.66 3.41 2.66a4.76 4.76 0 0 0 3.82-1.57zm9.48-11.51h4.76v2.47a7.74 7.74 0 0 1 5.77-2.89v4.65a6.34 6.34 0 0 0-1.31-.11 6 6 0 0 0-4.46 2v12h-4.76zm20.42 11.13l-2.17 2.32v4.65h-4.76v-25h4.76v15l6.86-8.06h5.85l-7.16 8.21 7.38 9.89h-6zm20.54-11.58c5.4 0 9.07 4 9.07 10v1H923.9a4.88 4.88 0 0 0 5.21 4.2 7.4 7.4 0 0 0 4.83-1.8l2.1 3.07a11.16 11.16 0 0 1-7.46 2.51c-5.51 0-9.67-3.71-9.67-9.52a9.21 9.21 0 0 1 9.38-9.46zm-4.46 7.79h8.92a4.19 4.19 0 0 0-4.46-4 4.35 4.35 0 0 0-4.46 4.01zm16.97-7.34h4.76v2.47a7.74 7.74 0 0 1 5.77-2.89v4.65a6.34 6.34 0 0 0-1.31-.11 6 6 0 0 0-4.46 2v12h-4.76zm12.67 12.44a3 3 0 1 1-3 3 3.07 3.07 0 0 1 3-3z" class="cls-6"/><path d="M541.48 381.59l-8.48 20.8h-1.3l-8.47-20.8v20.8h-3.11v-25h4.46l7.76 19 7.79-19h4.46v25h-3.11zm20.16 18.74a7.83 7.83 0 0 1-6 2.51c-3.07 0-6.33-2.06-6.33-6s3.26-6 6.33-6a7.57 7.57 0 0 1 6 2.47v-3.21c0-2.44-1.95-3.82-4.57-3.82a7.19 7.19 0 0 0-5.55 2.51l-1.31-1.95a9.47 9.47 0 0 1 7.23-3c3.82 0 7 1.72 7 6.11v12.44h-2.81zm0-5.17a6.06 6.06 0 0 0-5-2.25c-2.62 0-4.46 1.65-4.46 4s1.84 3.93 4.46 3.93a6.06 6.06 0 0 0 5-2.25zm14.24-.9l-3 3v5.17h-2.81v-25h2.81v16.53l9.52-9.63h3.6l-8 8.21 8.06 9.89h-3.6zm20.46-10.42c5.47 0 8.69 4.27 8.69 9.71v.71h-14.65a6.38 6.38 0 0 0 6.52 6.26 7.91 7.91 0 0 0 5.58-2.29l1.35 1.84a9.83 9.83 0 0 1-7.2 2.77c-5.36 0-9.22-3.86-9.22-9.52.01-5.24 3.76-9.48 8.93-9.48zm-6 8.36h11.88a5.87 5.87 0 0 0-6-6c-3.78-.03-5.69 3.23-5.84 6zm39.84-4.35l-4.72 14.54h-2.81l-5.77-18.1h2.92l4.42 14.43 4.78-14.43h2.4l4.76 14.43 4.42-14.43h2.92l-5.77 18.1h-2.83zm28.82 2.63c0-3.19-1.65-4.12-4.08-4.12a7.11 7.11 0 0 0-5.36 2.81v13.23h-2.81v-25h2.81v9.52a9 9 0 0 1 6.48-3.07c3.79 0 5.77 1.84 5.77 5.77v12.78H659zm7.94-11.13a1.89 1.89 0 0 1 3.78 0 1.89 1.89 0 1 1-3.78 0zm.49 4.95h2.81v18.1h-2.81zm8.99 14.31v-11.85h-3v-2.47h3v-4.95h2.81v4.95h3.67v2.47h-3.67V398c0 1.35.6 2.32 1.84 2.32a2.71 2.71 0 0 0 1.91-.75l.82 2.1a4.59 4.59 0 0 1-3.37 1.16c-2.66.01-4.01-1.52-4.01-4.22zm18.33-14.77c5.47 0 8.69 4.27 8.69 9.71v.71h-14.65a6.38 6.38 0 0 0 6.52 6.26 7.91 7.91 0 0 0 5.58-2.29l1.35 1.84a9.83 9.83 0 0 1-7.2 2.77c-5.36 0-9.22-3.86-9.22-9.52.01-5.24 3.75-9.48 8.93-9.48zm-6 8.36h11.88a5.87 5.87 0 0 0-6-6c-3.78-.03-5.69 3.23-5.84 6zm28.89 17.09v-25h2.81V387a7.57 7.57 0 0 1 6.11-3.15c4.76 0 8.06 3.6 8.06 9.48s-3.3 9.52-8.06 9.52a7.42 7.42 0 0 1-6.11-3.19v9.63zm8.21-22.94a6.69 6.69 0 0 0-5.4 2.89v8.17a6.72 6.72 0 0 0 5.4 2.92c3.64 0 5.81-3 5.81-7s-2.18-6.98-5.81-6.98zm12.82-7a1.89 1.89 0 0 1 3.78 0 1.89 1.89 0 1 1-3.78 0zm.49 4.95H742v18.1h-2.81zm14.72 10.7l-5.43 7.42h-3.22l6.93-9.29-6.56-8.81h3.26l5 6.9 5-6.9h3.26l-6.56 8.81 7 9.29h-3.26zm18.63-11.16c5.47 0 8.69 4.27 8.69 9.71v.71h-14.65a6.38 6.38 0 0 0 6.52 6.26 7.91 7.91 0 0 0 5.58-2.29l1.35 1.84a9.83 9.83 0 0 1-7.2 2.77c-5.36 0-9.22-3.86-9.22-9.52.01-5.24 3.75-9.48 8.93-9.48zm-6 8.36h11.88a5.87 5.87 0 0 0-6-6c-3.78-.03-5.69 3.23-5.84 6zm19.22-14.8h2.81v25h-2.81zm8.32 20.6a8.2 8.2 0 0 0 6 2.59c2.77 0 4.27-1.24 4.27-3 0-2-2.21-2.62-4.65-3.22-3.07-.71-6.56-1.54-6.56-5.28 0-2.81 2.44-5.21 6.75-5.21a9.16 9.16 0 0 1 6.71 2.62l-1.31 1.95a7.05 7.05 0 0 0-5.4-2.29c-2.47 0-4 1.12-4 2.74s2.06 2.32 4.42 2.89c3.15.71 6.78 1.61 6.78 5.62 0 3-2.44 5.47-7.12 5.47a9.63 9.63 0 0 1-7.31-2.85z" class="cls-5"/><path d="M821.75 397.9v-9.44h-3v-4.16h3v-4.95h4.8v4.95h3.67v4.16h-3.67v8.17c0 1.12.6 2 1.65 2a2.6 2.6 0 0 0 1.65-.52l1 3.6a5.88 5.88 0 0 1-4 1.16c-3.31-.03-5.1-1.75-5.1-4.97zm11.73-13.61h4.76v2.47a7.74 7.74 0 0 1 5.77-2.89v4.65a6.34 6.34 0 0 0-1.31-.11 6 6 0 0 0-4.46 2v12h-4.76zm24.35 16.23a7.49 7.49 0 0 1-5.73 2.32c-2.89 0-6.3-1.95-6.3-6 0-4.23 3.41-5.77 6.3-5.77a7.31 7.31 0 0 1 5.73 2.21v-2.51c0-1.84-1.57-3-4-3a7.61 7.61 0 0 0-5.28 2.14l-1.8-3.19a11.87 11.87 0 0 1 7.91-2.85c4.12 0 7.91 1.65 7.91 6.86v11.69h-4.76zm0-4.72a4.76 4.76 0 0 0-3.82-1.57c-1.87 0-3.41 1-3.41 2.74s1.54 2.66 3.41 2.66a4.76 4.76 0 0 0 3.82-1.57zm21.7-4.35c0-2.51-1.31-3.37-3.34-3.37a5.16 5.16 0 0 0-4.12 2.14v12.18h-4.76v-18.1h4.76v2.36a8.29 8.29 0 0 1 6.33-2.81c4 0 5.88 2.25 5.88 5.77v12.78h-4.76zm9.97 5.25a10.36 10.36 0 0 0 6.26 2.47c2.06 0 3-.71 3-1.84 0-1.27-1.57-1.72-3.64-2.14-3.11-.6-7.12-1.35-7.12-5.66 0-3 2.66-5.7 7.42-5.7a11.37 11.37 0 0 1 7.27 2.47l-1.87 3.26a7.63 7.63 0 0 0-5.36-2.1c-1.72 0-2.85.64-2.85 1.69s1.42 1.54 3.45 1.95c3.11.6 7.27 1.42 7.27 5.92 0 3.34-2.81 5.81-7.83 5.81a12.18 12.18 0 0 1-8.09-2.81zm17.39 12.59v-25h4.76v2.29a7 7 0 0 1 5.58-2.74c4.65 0 8 3.45 8 9.48s-3.37 9.52-8 9.52a6.92 6.92 0 0 1-5.58-2.77v9.22zm8.84-21.21a5.33 5.33 0 0 0-4.08 2.06v6.41a5.45 5.45 0 0 0 4.08 2.06c2.74 0 4.57-2.14 4.57-5.28s-1.83-5.25-4.57-5.25zm23.95 12.44a7.49 7.49 0 0 1-5.73 2.32c-2.89 0-6.3-1.95-6.3-6 0-4.23 3.41-5.77 6.3-5.77a7.31 7.31 0 0 1 5.73 2.21v-2.51c0-1.84-1.57-3-4-3a7.62 7.62 0 0 0-5.28 2.14l-1.8-3.19a11.88 11.88 0 0 1 7.91-2.85c4.12 0 7.91 1.65 7.91 6.86v11.69h-4.76zm0-4.72a4.76 4.76 0 0 0-3.82-1.57c-1.87 0-3.41 1-3.41 2.74s1.54 2.66 3.41 2.66a4.76 4.76 0 0 0 3.82-1.57zm9.48-11.51h4.76v2.47a7.74 7.74 0 0 1 5.77-2.89v4.65a6.34 6.34 0 0 0-1.31-.11 6 6 0 0 0-4.46 2v12h-4.76zm21.7-.45c5.4 0 9.07 4 9.07 10v1h-13.46a4.88 4.88 0 0 0 5.21 4.2 7.4 7.4 0 0 0 4.83-1.8l2.1 3.07a11.16 11.16 0 0 1-7.46 2.51c-5.51 0-9.67-3.71-9.67-9.52a9.21 9.21 0 0 1 9.38-9.46zm-4.46 7.79h8.92a4.19 4.19 0 0 0-4.46-4 4.35 4.35 0 0 0-4.46 4.01zm29.19-.18c0-2.51-1.31-3.37-3.34-3.37a5.16 5.16 0 0 0-4.12 2.14v12.18h-4.76v-18.1h4.76v2.36a8.29 8.29 0 0 1 6.33-2.81c4 0 5.88 2.25 5.88 5.77v12.78h-4.76zm10.41 6.45v-9.44h-3v-4.16h3v-4.95h4.8v4.95h3.67v4.16h-3.67v8.17c0 1.12.6 2 1.65 2a2.6 2.6 0 0 0 1.65-.52l1 3.6a5.88 5.88 0 0 1-4 1.16c-3.29-.03-5.1-1.75-5.1-4.97zm14.17-1.17a3 3 0 1 1-3 3 3.07 3.07 0 0 1 3-3z" class="cls-7"/><path d="M522.67 420.91h-2.09v4.48h-2.11v-12h5.28a3.65 3.65 0 0 1 3.93 3.76 3.37 3.37 0 0 1-2.84 3.53l2.94 4.72h-2.43zm.79-5.67h-2.88v3.82h2.88a1.91 1.91 0 1 0 0-3.82zm6.31-1.86H538v1.85h-6.12v3.12h6v1.85h-6v3.33H538v1.85h-8.23zm10.39 0h4.47c3.75 0 6.28 2.48 6.28 6s-2.54 6-6.28 6h-4.47zm4.47 10.16a3.94 3.94 0 0 0 4.12-4.14 3.89 3.89 0 0 0-4.12-4.16h-2.36v8.3zm8.31-10.16h2.12v7.2a3.07 3.07 0 1 0 6.14 0v-7.2h2.12v7.26c0 3-1.71 5-5.19 5s-5.2-2-5.2-5zm12.4 6.02a6 6 0 0 1 6.21-6.21 5.47 5.47 0 0 1 4.92 2.7l-1.8.92a3.6 3.6 0 0 0-3.11-1.75 4.35 4.35 0 0 0 0 8.68 3.57 3.57 0 0 0 3.11-1.75l1.8.92a5.5 5.5 0 0 1-4.92 2.7 6 6 0 0 1-6.21-6.21zm12.82-6.02h8.23v1.85h-6.12v3.12h6v1.85h-6v3.33h6.12v1.85h-8.23zm15.01 0h2.11v10.16h5.29v1.85h-7.4zm16.92 9.71h-5.69l-.88 2.3h-2.3l4.72-12h2.63l4.72 12H611zm-5.1-1.85h4.5l-2.25-6.07zm11.83-.83l-4.66-7h2.41l3.31 5.15 3.28-5.15h2.41l-4.65 7v5h-2.11zm8.07-7.03h8.23v1.85H627v3.12h6v1.85h-6v3.33h6.12v1.85h-8.23zm14.58 7.53h-2.09v4.48h-2.11v-12h5.28a3.65 3.65 0 0 1 3.93 3.76 3.37 3.37 0 0 1-2.84 3.53l2.94 4.72h-2.43zm.79-5.67h-2.88v3.82h2.88a1.91 1.91 0 1 0 0-3.82zm5.97 1.98a3 3 0 0 0 1.3-1.69 1.17 1.17 0 0 1-.31.05 1.07 1.07 0 0 1-1.08-1.13 1.24 1.24 0 0 1 1.22-1.24 1.47 1.47 0 0 1 1.4 1.64 3.86 3.86 0 0 1-1.69 3.08zm5.04 4.86a5.18 5.18 0 0 0 3.8 1.66c1.73 0 2.41-.85 2.41-1.64 0-1.08-1.28-1.4-2.74-1.78-2-.49-4.27-1.06-4.27-3.6 0-2 1.75-3.51 4.38-3.51a6.25 6.25 0 0 1 4.5 1.67l-1.21 1.57a4.88 4.88 0 0 0-3.48-1.37c-1.24 0-2 .59-2 1.49s1.22 1.24 2.65 1.6c2 .5 4.34 1.12 4.34 3.73 0 2-1.4 3.71-4.65 3.71a6.42 6.42 0 0 1-4.88-1.91zm20.52-8.9a6.21 6.21 0 1 1-6.14 6.21 6 6 0 0 1 6.14-6.21zm0 1.87c-2.43 0-4 1.85-4 4.34s1.55 4.34 4 4.34 4-1.87 4-4.34-1.58-4.33-4-4.33zm8.21-1.67h5.28a3.77 3.77 0 1 1 0 7.53h-3.17v4.48H680zm5 1.85h-2.88v3.82H685a1.91 1.91 0 1 0 0-3.82zm12.18 7.86h-5.69l-.88 2.3h-2.3l4.72-12h2.63l4.72 12h-2.3zm-5.1-1.85h4.5l-2.25-6.07zm8.42-1.84a6 6 0 0 1 6.21-6.21 5.47 5.47 0 0 1 4.92 2.7l-1.8.92a3.6 3.6 0 0 0-3.11-1.75 4.35 4.35 0 0 0 0 8.68 3.57 3.57 0 0 0 3.11-1.75l1.8.92a5.5 5.5 0 0 1-4.92 2.7 6 6 0 0 1-6.21-6.21zm12.82-6.02h2.11v12h-2.11zm7.52 1.86h-3.64v-1.85h9.38v1.85H723v10.16h-2.11zm10.93 5.17l-4.66-7h2.41l3.31 5.15 3.28-5.15h2.41l-4.65 7v5h-2.11z" class="cls-5"/><path d="M81.79 55.47h139.23V194.7H81.79z" class="cls-8"/><path d="M89.87 65.26h123.09v119.65H89.87z" class="cls-9"/><path d="M177.37 116.72c-5.05 0-6.77 2.56-6.77 4.67 0 2.3 1.16 3.89 7.9 7.4 10 4.86 13.15 9.5 13.15 16.34 0 10.2-7.78 15.69-18.32 15.69-5.56 0-10.35-1.16-13.08-2.76-.44-.19-.51-.51-.51-1v-9.38c0-.63.31-.82.77-.51a23.71 23.71 0 0 0 12.84 3.77c5.05 0 7.16-2.1 7.16-5 0-2.3-1.47-4.35-7.9-7.66-9.06-4.35-12.84-8.75-12.84-16.07 0-8.24 6.45-15.06 17.62-15.06 5.49 0 9.31.82 11.43 1.79a1.4 1.4 0 0 1 .63 1.28V119c0 .51-.31.82-1 .63a21.56 21.56 0 0 0-11.12-2.88zm-54.87 7.59c1.47.12 2.61.12 5.17.12 7.47 0 14.48-2.61 14.48-12.76 0-8.1-5.05-12.18-13.54-12.18-2.56 0-5 .12-6.12.19v24.63zm-11.36-33.89c0-.44.89-.77 1.4-.77 4.09-.19 10.15-.31 16.46-.31 17.67 0 24.56 9.69 24.56 22.07 0 16.22-11.75 23.16-26.15 23.16-2.42 0-3.26-.12-5-.12v24.51c0 .51-.19.77-.77.77h-9.77c-.51 0-.77-.19-.77-.77V90.43z" class="cls-8"/><rect width="325.12" height="1124.9" x="111.11" y="321.12" class="cls-4" rx="14.13" ry="14.13"/><path d="M164 345.27v12.55h-2.45v-16.35h2.52l8.9 12.25v-12.25h2.45v16.35h-2.38zm14.28 6.62a6 6 0 1 1 12 0c0 3.43-2.28 6.22-6 6.22a5.88 5.88 0 0 1-6-6.22zm9.66 0c0-2.23-1.3-4.24-3.68-4.24s-3.68 2-3.68 4.24 1.32 4.26 3.68 4.26 3.67-2.01 3.67-4.26zM193 346h2.21v1.81a5 5 0 0 1 3.87-2.08v2.23a3.49 3.49 0 0 0-.76-.07 4.18 4.18 0 0 0-3.11 1.72v8.23H193zm22.7 3.93c0-1.37-.61-2.28-2.06-2.28a3.81 3.81 0 0 0-2.94 1.69v8.48h-2.21v-7.89c0-1.37-.59-2.28-2.08-2.28a3.87 3.87 0 0 0-2.89 1.72v8.45h-2.21V346h2.21v1.67a5.12 5.12 0 0 1 3.82-2 3.06 3.06 0 0 1 3.21 2.21 5 5 0 0 1 4-2.21c2.18 0 3.36 1.2 3.36 3.58v8.55h-2.21zm13.01 6.59a5.07 5.07 0 0 1-3.87 1.59 3.93 3.93 0 0 1-4.12-3.92 3.82 3.82 0 0 1 4.12-3.87 4.94 4.94 0 0 1 3.87 1.57v-2c0-1.47-1.2-2.35-2.89-2.35a4.84 4.84 0 0 0-3.55 1.57l-1-1.52a6.65 6.65 0 0 1 4.85-1.94c2.57 0 4.75 1.13 4.75 4.14v8h-2.21zm0-3.31a3.75 3.75 0 0 0-3-1.35 2.38 2.38 0 1 0 0 4.71 3.75 3.75 0 0 0 3-1.35zm5.74-11.74h2.21v16.35h-2.21zm-72.89 34.31h5.83c5.1 0 8.48 3.48 8.48 8.19s-3.38 8.16-8.48 8.16h-5.83zm5.83 14.22a5.7 5.7 0 0 0 6-6c0-3.36-2.11-6-6-6H164v12zm11.06-13.09a1.44 1.44 0 0 1 1.42-1.42 1.42 1.42 0 0 1 1.42 1.42 1.4 1.4 0 0 1-1.42 1.4 1.42 1.42 0 0 1-1.42-1.4zm.34 3.38H181v11.84h-2.21zm5.73 8.71a5.73 5.73 0 0 0 4 1.69c1.67 0 2.55-.69 2.55-1.69 0-1.18-1.35-1.57-2.87-1.91-2-.47-4.36-1-4.36-3.55 0-1.89 1.62-3.5 4.51-3.5a6.33 6.33 0 0 1 4.51 1.69l-1 1.54a4.62 4.62 0 0 0-3.5-1.45c-1.49 0-2.43.59-2.43 1.54s1.27 1.37 2.74 1.72c2.06.47 4.51 1 4.51 3.75 0 2-1.67 3.63-4.78 3.63a6.73 6.73 0 0 1-4.93-1.84zm11.48 0a5.73 5.73 0 0 0 4 1.69c1.67 0 2.55-.69 2.55-1.69 0-1.18-1.35-1.57-2.87-1.91-2-.47-4.36-1-4.36-3.55 0-1.89 1.62-3.5 4.51-3.5a6.33 6.33 0 0 1 4.51 1.69l-1 1.54a4.61 4.61 0 0 0-3.5-1.45c-1.5 0-2.43.59-2.43 1.54s1.27 1.37 2.74 1.72c2.06.47 4.51 1 4.51 3.75 0 2-1.67 3.63-4.78 3.63a6.73 6.73 0 0 1-4.93-1.84zm10.7-2.8a6 6 0 1 1 12 0c0 3.43-2.28 6.22-6 6.22a5.88 5.88 0 0 1-6-6.22zm9.66 0c0-2.23-1.3-4.24-3.68-4.24S209 384 209 386.2s1.32 4.26 3.68 4.26 3.68-2.01 3.68-4.26zm5.1-10.42h2.21v16.35h-2.21zm3.97 4.51h2.35l3.7 9.29 3.7-9.29h2.38l-4.88 11.84h-2.38zm19.11-.29c3.55 0 5.76 2.77 5.76 6.4v.54h-9.36a3.88 3.88 0 0 0 4 3.68 5 5 0 0 0 3.5-1.4l1 1.45a6.66 6.66 0 0 1-4.75 1.76 6.22 6.22 0 0 1-.2-12.42zm-3.63 5.34h7.23a3.5 3.5 0 0 0-3.6-3.53 3.62 3.62 0 0 0-3.62 3.53z" class="cls-3"/><path d="M111.11 418.02h325.13M111.11 621.48h325.13" class="cls-10"/><path d="M161.56 441.35h5.83c5.1 0 8.48 3.48 8.48 8.19s-3.38 8.16-8.48 8.16h-5.83zm5.83 14.19a5.7 5.7 0 0 0 6-6c0-3.36-2.11-6-6-6H164v12zm18.7.85a5.07 5.07 0 0 1-3.87 1.59 3.93 3.93 0 0 1-4.12-3.92 3.82 3.82 0 0 1 4.12-3.87 4.94 4.94 0 0 1 3.87 1.57v-2c0-1.47-1.2-2.35-2.89-2.35a4.84 4.84 0 0 0-3.55 1.57l-1-1.52a6.65 6.65 0 0 1 4.85-1.94c2.57 0 4.75 1.13 4.75 4.14v8h-2.21zm0-3.31a3.75 3.75 0 0 0-3-1.35 2.38 2.38 0 1 0 0 4.71 3.75 3.75 0 0 0 3-1.35zm5.74-7.23H194v1.81a5 5 0 0 1 3.87-2.08v2.23a3.49 3.49 0 0 0-.76-.07 4.18 4.18 0 0 0-3.11 1.72v8.23h-2.21zm12.28 6.74l-1.79 1.81v3.28h-2.21v-16.33h2.21v10.51l5.71-6h2.77l-5.1 5.37 5.15 6.47h-2.79zm13.35-7.03c3.55 0 5.76 2.77 5.76 6.4v.54h-9.36a3.88 3.88 0 0 0 4 3.68 5 5 0 0 0 3.5-1.4l1 1.45a6.66 6.66 0 0 1-4.75 1.76 6.22 6.22 0 0 1-.2-12.42zm-3.63 5.34h7.23a3.5 3.5 0 0 0-3.6-3.53 3.62 3.62 0 0 0-3.62 3.53zm20.17-.78c0-2-1-2.6-2.52-2.6a4.23 4.23 0 0 0-3.26 1.72v8.45H226v-11.84h2.21v1.67a5.64 5.64 0 0 1 4.19-2c2.5 0 3.8 1.32 3.8 3.82v8.31H234zM175.63 479l-5.29 13h-1L164 479v13h-2.45v-16.34h3.5l4.75 11.74 4.75-11.74h3.5V492h-2.45zm14.02 11.38a5.85 5.85 0 0 1-4.22 1.91c-2.52 0-3.77-1.27-3.77-3.77v-8.36h2.21v7.62c0 2 1 2.55 2.5 2.55a4.28 4.28 0 0 0 3.28-1.67v-8.5h2.21V492h-2.21zm5.71-14.72h2.21V492h-2.21zm6.15 13.72v-7.28h-2v-1.94h2v-3.23h2.21v3.23h2.4v1.94h-2.4v6.79c0 .83.39 1.45 1.15 1.45a1.7 1.7 0 0 0 1.2-.47l.56 1.67a3.14 3.14 0 0 1-2.3.76c-1.87-.01-2.82-1.06-2.82-2.92zm6.71-12.6a1.44 1.44 0 0 1 1.42-1.42 1.42 1.42 0 0 1 1.42 1.42 1.4 1.4 0 0 1-1.42 1.4 1.42 1.42 0 0 1-1.42-1.4zm.34 3.38h2.21V492h-2.21zm5.72 16.35v-16.35h2.21v1.69a4.82 4.82 0 0 1 3.87-2c3.09 0 5.27 2.33 5.27 6.2s-2.18 6.22-5.27 6.22a4.72 4.72 0 0 1-3.87-2v6.22zm5.49-14.68a4.05 4.05 0 0 0-3.28 1.74v5a4.12 4.12 0 0 0 3.28 1.74c2.21 0 3.55-1.79 3.55-4.26s-1.32-4.22-3.55-4.22zm8.65-6.17h2.21V492h-2.21zm6.44 19.18a1.64 1.64 0 0 0 1.72-1.15l.69-1.57-4.88-12h2.35l3.7 9.29 3.7-9.29h2.38l-5.83 14.09a3.74 3.74 0 0 1-3.77 2.55 6.37 6.37 0 0 1-1.37-.17l.34-2a2.69 2.69 0 0 0 .97.25zm-73.98 23.31a8.18 8.18 0 0 1 8.38-8.45 7.39 7.39 0 0 1 6.49 3.46l-2.08 1.1a5.18 5.18 0 0 0-4.41-2.38c-3.31 0-5.86 2.6-5.86 6.27s2.55 6.27 5.86 6.27a5.18 5.18 0 0 0 4.41-2.38l2.08 1.1a7.42 7.42 0 0 1-6.49 3.46 8.18 8.18 0 0 1-8.38-8.45zm16.54 2.23a6 6 0 1 1 12 0c0 3.43-2.28 6.22-6 6.22a5.88 5.88 0 0 1-6-6.22zm9.66 0c0-2.23-1.3-4.24-3.68-4.24s-3.68 2-3.68 4.24 1.32 4.26 3.68 4.26 3.67-2 3.67-4.26zm5.09-10.38h2.21v16.35h-2.21zm4.98 10.38a6 6 0 1 1 12 0c0 3.43-2.28 6.22-6 6.22a5.88 5.88 0 0 1-6-6.22zm9.66 0c0-2.23-1.3-4.24-3.68-4.24s-3.68 2-3.68 4.24 1.32 4.26 3.68 4.26 3.67-2 3.67-4.26zm13.08 4.31a5.85 5.85 0 0 1-4.22 1.91c-2.52 0-3.77-1.27-3.77-3.77v-8.36h2.21v7.62c0 2 1 2.55 2.5 2.55a4.28 4.28 0 0 0 3.28-1.67v-8.5h2.21v11.84h-2.21zm5.71-10.22h2.21v1.81a5 5 0 0 1 3.87-2.08v2.23a3.49 3.49 0 0 0-.76-.07 4.18 4.18 0 0 0-3.11 1.72v8.23h-2.21zm14.65-4.47h7.67c2.92 0 4.61 1.79 4.61 4.17a3.7 3.7 0 0 1-2.84 3.75 4 4 0 0 1 3.16 4c0 2.57-1.72 4.41-4.73 4.41h-7.87zm7.2 6.94a2.39 2.39 0 1 0 0-4.78h-4.75v4.78zm.12 7.25a2.46 2.46 0 0 0 2.74-2.57 2.49 2.49 0 0 0-2.74-2.52h-4.87v5.1zm16.26.5a5.85 5.85 0 0 1-4.22 1.91c-2.52 0-3.77-1.27-3.77-3.77v-8.36H258v7.62c0 2 1 2.55 2.5 2.55a4.28 4.28 0 0 0 3.28-1.67v-8.5H266v11.84h-2.21zm5.71-10.22h2.21v1.81a5 5 0 0 1 3.87-2.08v2.23a3.49 3.49 0 0 0-.76-.07 4.18 4.18 0 0 0-3.11 1.72v8.23h-2.21zm16.27 4.27c0-2-1-2.6-2.52-2.6a4.23 4.23 0 0 0-3.26 1.72v8.45h-2.21v-11.84H280v1.67a5.64 5.64 0 0 1 4.19-2c2.5 0 3.8 1.32 3.8 3.82v8.31h-2.21zm-124.25 25.54H164v14.19h7.42v2.16h-9.88zm12.18 1.12a1.44 1.44 0 0 1 1.42-1.42 1.42 1.42 0 0 1 1.42 1.42 1.4 1.4 0 0 1-1.42 1.4 1.42 1.42 0 0 1-1.42-1.4zm.34 3.38h2.21v11.84h-2.21zm13.7 4.22c0-2-1-2.6-2.52-2.6a4.23 4.23 0 0 0-3.26 1.72v8.45h-2.21v-11.78H182v1.67a5.64 5.64 0 0 1 4.19-2c2.5 0 3.8 1.32 3.8 3.82v8.31h-2.21zm10.91-4.51c3.55 0 5.76 2.77 5.76 6.4v.54h-9.36a3.88 3.88 0 0 0 4 3.68 5 5 0 0 0 3.5-1.4l1 1.45a6.66 6.66 0 0 1-4.75 1.76 6.22 6.22 0 0 1-.2-12.42zm-3.63 5.34h7.23a3.5 3.5 0 0 0-3.6-3.53 3.62 3.62 0 0 0-3.63 3.53zm19.46 5.49a5.07 5.07 0 0 1-3.87 1.59 3.93 3.93 0 0 1-4.12-3.92 3.82 3.82 0 0 1 4.12-3.87 4.94 4.94 0 0 1 3.87 1.57v-2c0-1.47-1.2-2.35-2.89-2.35a4.84 4.84 0 0 0-3.55 1.57l-1-1.52a6.65 6.65 0 0 1 4.85-1.94c2.57 0 4.75 1.13 4.75 4.14v8h-2.21zm0-3.31a3.75 3.75 0 0 0-3-1.35 2.38 2.38 0 1 0 0 4.71 3.75 3.75 0 0 0 3-1.35zm5.74-7.22h2.21v1.81a5 5 0 0 1 3.87-2.08v2.23a3.49 3.49 0 0 0-.76-.07 4.18 4.18 0 0 0-3.11 1.72v8.23h-2.21zm14.65-4.51h7.67c2.92 0 4.61 1.79 4.61 4.17a3.7 3.7 0 0 1-2.84 3.75 4 4 0 0 1 3.16 4c0 2.57-1.72 4.41-4.73 4.41h-7.87zm7.2 6.94a2.39 2.39 0 1 0 0-4.78h-4.75v4.78zm.12 7.25a2.46 2.46 0 0 0 2.74-2.57 2.49 2.49 0 0 0-2.74-2.52h-4.88v5.1zm16.26.53a5.85 5.85 0 0 1-4.22 1.91c-2.52 0-3.77-1.27-3.77-3.77v-8.36h2.21v7.62c0 2 1 2.55 2.5 2.55a4.28 4.28 0 0 0 3.28-1.67v-8.5h2.21v11.84h-2.21zm5.71-10.21h2.21v1.81a5 5 0 0 1 3.87-2.08v2.23a3.49 3.49 0 0 0-.76-.07 4.18 4.18 0 0 0-3.11 1.72v8.23h-2.21zm16.27 4.21c0-2-1-2.6-2.52-2.6a4.23 4.23 0 0 0-3.26 1.72v8.45h-2.21v-11.78h2.21v1.67a5.64 5.64 0 0 1 4.19-2c2.5 0 3.8 1.32 3.8 3.82v8.31h-2.21zm-118.91 25.59h5.83c5.1 0 8.48 3.48 8.48 8.19s-3.38 8.16-8.48 8.16h-5.83zm5.83 14.19a5.7 5.7 0 0 0 6-6c0-3.36-2.11-6-6-6H164v12zm18.7.85a5.07 5.07 0 0 1-3.87 1.59 3.93 3.93 0 0 1-4.12-3.92 3.82 3.82 0 0 1 4.12-3.87 4.94 4.94 0 0 1 3.87 1.57v-2c0-1.47-1.2-2.35-2.89-2.35a4.84 4.84 0 0 0-3.55 1.57l-1-1.52a6.65 6.65 0 0 1 4.85-1.94c2.57 0 4.75 1.13 4.75 4.14v8h-2.21zm0-3.31a3.75 3.75 0 0 0-3-1.35 2.38 2.38 0 1 0 0 4.71 3.75 3.75 0 0 0 3-1.35zm5.74-7.22H194v1.81a5 5 0 0 1 3.87-2.08v2.23a3.49 3.49 0 0 0-.76-.07 4.18 4.18 0 0 0-3.11 1.71v8.23h-2.21zm12.28 6.74l-1.79 1.81v3.28h-2.21v-16.34h2.21v10.51l5.71-6h2.77l-5.1 5.37 5.15 6.47h-2.79zm13.35-7.04c3.55 0 5.76 2.77 5.76 6.4v.54h-9.36a3.88 3.88 0 0 0 4 3.68 5 5 0 0 0 3.5-1.4l1 1.45a6.66 6.66 0 0 1-4.75 1.76 6.22 6.22 0 0 1-.2-12.42zm-3.63 5.34h7.23a3.5 3.5 0 0 0-3.6-3.53 3.62 3.62 0 0 0-3.62 3.53zM226 583.1h2.21v1.81a5 5 0 0 1 3.87-2.08v2.23a3.49 3.49 0 0 0-.76-.07 4.18 4.18 0 0 0-3.11 1.72v8.23H226zm14 3.67a8.18 8.18 0 0 1 8.38-8.45 7.39 7.39 0 0 1 6.49 3.46l-2.08 1.1a5.18 5.18 0 0 0-4.41-2.38c-3.31 0-5.86 2.6-5.86 6.27S245 593 248.34 593a5.18 5.18 0 0 0 4.41-2.38l2.08 1.1a7.42 7.42 0 0 1-6.49 3.46 8.18 8.18 0 0 1-8.34-8.41zm16.5 2.23a6 6 0 1 1 12 0c0 3.43-2.28 6.22-6 6.22a5.88 5.88 0 0 1-6-6.22zm9.66 0c0-2.23-1.3-4.24-3.68-4.24s-3.68 2-3.68 4.24 1.32 4.26 3.68 4.26 3.68-2 3.68-4.26zm5.1-10.41h2.21v16.35h-2.21zm4.97 10.41a6 6 0 1 1 12 0c0 3.43-2.28 6.22-6 6.22a5.88 5.88 0 0 1-6-6.22zm9.66 0c0-2.23-1.3-4.24-3.68-4.24s-3.68 2-3.68 4.24 1.32 4.26 3.68 4.26 3.68-2 3.68-4.26zm13.11 4.32a5.85 5.85 0 0 1-4.22 1.91c-2.52 0-3.77-1.27-3.77-3.77v-8.36h2.21v7.62c0 2 1 2.55 2.5 2.55a4.28 4.28 0 0 0 3.28-1.67v-8.5h2.21v11.84H299zm5.68-10.22h2.21v1.81a5 5 0 0 1 3.87-2.08v2.23a3.49 3.49 0 0 0-.76-.06 4.18 4.18 0 0 0-3.11 1.72v8.23h-2.21z" class="cls-3"/><path d="M111.11 824.95h325.13" class="cls-10"/><path d="M161.56 644.81H164V659h7.42v2.16h-9.88zm12.18 1.13a1.44 1.44 0 0 1 1.42-1.42 1.42 1.42 0 0 1 1.42 1.42 1.4 1.4 0 0 1-1.42 1.4 1.42 1.42 0 0 1-1.42-1.4zm.34 3.38h2.21v11.84h-2.21zm6.67 13.25a4.62 4.62 0 0 0 3.8 1.57c1.84 0 3.68-.88 3.68-3.38v-1.54a5 5 0 0 1-3.9 2c-3.06 0-5.27-2.25-5.27-6.13s2.21-6.1 5.27-6.1a4.83 4.83 0 0 1 3.9 2v-1.72h2.21v11.37c0 4.07-3 5.27-5.88 5.27a6.36 6.36 0 0 1-4.85-1.76zm7.47-9.85a4.13 4.13 0 0 0-3.28-1.74c-2.21 0-3.58 1.72-3.58 4.14s1.37 4.17 3.58 4.17a4.15 4.15 0 0 0 3.28-1.76zm13.7.81c0-2-1-2.55-2.52-2.55a4.23 4.23 0 0 0-3.26 1.72v8.45h-2.21v-16.34h2.21V651a5.69 5.69 0 0 1 4.19-2c2.52 0 3.8 1.27 3.8 3.77v8.36h-2.21zm6.18 5v-7.28h-2v-1.94h2v-3.23h2.21v3.23h2.4v1.94h-2.4V658c0 .83.39 1.45 1.15 1.45a1.7 1.7 0 0 0 1.2-.47l.56 1.67a3.14 3.14 0 0 1-2.3.76c-1.86.04-2.82-1.02-2.82-2.88zm12.25-9.53c3.55 0 5.76 2.77 5.76 6.4v.6h-9.36a3.88 3.88 0 0 0 4 3.68 5 5 0 0 0 3.5-1.4l1 1.45a6.66 6.66 0 0 1-4.75 1.76 6.22 6.22 0 0 1-.2-12.42zm-3.63 5.34H224a3.5 3.5 0 0 0-3.6-3.53 3.63 3.63 0 0 0-3.67 3.56zm20.15-.76c0-2-1-2.6-2.52-2.6a4.23 4.23 0 0 0-3.26 1.72v8.45h-2.21v-11.83h2.21V651a5.64 5.64 0 0 1 4.19-2c2.5 0 3.8 1.32 3.8 3.82v8.31h-2.21zM162 691.27a6.89 6.89 0 0 0 5.15 2.3c2.65 0 3.58-1.35 3.58-2.52 0-1.72-1.86-2.21-3.95-2.74-2.62-.69-5.66-1.45-5.66-4.78 0-2.7 2.38-4.66 5.78-4.66a8 8 0 0 1 6 2.28l-1.51 1.85a6.38 6.38 0 0 0-4.73-1.91c-1.81 0-3.06.93-3.06 2.3s1.76 1.94 3.8 2.45c2.67.71 5.78 1.54 5.78 5 0 2.55-1.76 4.93-6.18 4.93a8.36 8.36 0 0 1-6.45-2.6zm19.27-7.94a5.17 5.17 0 0 1 4.44 2.08l-1.47 1.35a3.31 3.31 0 0 0-2.87-1.47c-2.33 0-3.82 1.79-3.82 4.24s1.5 4.26 3.82 4.26a3.36 3.36 0 0 0 2.87-1.47l1.47 1.35a5.17 5.17 0 0 1-4.44 2.08 6.21 6.21 0 0 1 0-12.42zm6.86.3h2.21v1.81a5 5 0 0 1 3.87-2.08v2.23a3.49 3.49 0 0 0-.76-.07 4.18 4.18 0 0 0-3.11 1.72v8.23h-2.21zm13.48-.3c3.55 0 5.76 2.77 5.76 6.4v.54H198a3.88 3.88 0 0 0 4 3.68 5 5 0 0 0 3.5-1.4l1 1.45a6.66 6.66 0 0 1-4.75 1.76 6.22 6.22 0 0 1-.2-12.42zm-3.61 5.35h7.23a3.5 3.5 0 0 0-3.6-3.53 3.62 3.62 0 0 0-3.63 3.53zm17.33-5.35c3.55 0 5.76 2.77 5.76 6.4v.54h-9.36a3.88 3.88 0 0 0 4 3.68 5 5 0 0 0 3.5-1.4l1 1.45a6.66 6.66 0 0 1-4.75 1.76 6.22 6.22 0 0 1-.2-12.42zm-3.63 5.34h7.23a3.5 3.5 0 0 0-3.6-3.53 3.63 3.63 0 0 0-3.63 3.54zm20.15-.78c0-2-1-2.6-2.52-2.6a4.23 4.23 0 0 0-3.26 1.72v8.45h-2.21v-11.83h2.21v1.67a5.64 5.64 0 0 1 4.19-2c2.5 0 3.8 1.32 3.8 3.82v8.31h-2.21zm-70.97 33.72a8.18 8.18 0 0 1 8.38-8.45 7.39 7.39 0 0 1 6.49 3.46l-2.08 1.1a5.18 5.18 0 0 0-4.41-2.38c-3.31 0-5.86 2.6-5.86 6.27s2.55 6.27 5.86 6.27a5.18 5.18 0 0 0 4.41-2.38l2.08 1.1a7.42 7.42 0 0 1-6.49 3.46 8.18 8.18 0 0 1-8.38-8.45zm16.54 2.23a6 6 0 1 1 12 0c0 3.43-2.28 6.22-6 6.22a5.88 5.88 0 0 1-6-6.22zm9.66 0c0-2.23-1.3-4.24-3.68-4.24s-3.68 2-3.68 4.24 1.32 4.26 3.68 4.26 3.67-2 3.67-4.26zm5.09-10.41h2.21v16.35h-2.21zm4.98 10.41a6 6 0 1 1 12 0c0 3.43-2.28 6.22-6 6.22a5.88 5.88 0 0 1-6-6.22zm9.66 0c0-2.23-1.3-4.24-3.68-4.24s-3.68 2-3.68 4.24 1.32 4.26 3.68 4.26 3.67-2 3.67-4.26zm13.08 4.32a5.85 5.85 0 0 1-4.22 1.91c-2.52 0-3.77-1.27-3.77-3.77v-8.36h2.21v7.62c0 2 1 2.55 2.5 2.55a4.28 4.28 0 0 0 3.28-1.67v-8.5h2.21v11.84h-2.21zm5.71-10.22h2.21v1.81a5 5 0 0 1 3.87-2.08v2.23a3.49 3.49 0 0 0-.76-.07 4.18 4.18 0 0 0-3.11 1.72v8.23h-2.21zm14.65-4.51h5.83c5.1 0 8.48 3.48 8.48 8.19s-3.38 8.16-8.48 8.16h-5.83zm5.83 14.19a5.7 5.7 0 0 0 6-6c0-3.36-2.11-6-6-6h-3.38v12zm10.67-3.78a6 6 0 1 1 12 0c0 3.43-2.28 6.22-6 6.22a5.88 5.88 0 0 1-6-6.22zm9.66 0c0-2.23-1.3-4.24-3.68-4.24s-3.68 2-3.68 4.24 1.32 4.26 3.68 4.26 3.67-2 3.67-4.26zm13.52 4.24a4.9 4.9 0 0 1-3.87 2c-3.09 0-5.29-2.33-5.29-6.2s2.21-6.22 5.29-6.22a4.82 4.82 0 0 1 3.87 2v-6.22h2.21v16.35h-2.21zm0-6.74a4.09 4.09 0 0 0-3.28-1.74c-2.21 0-3.58 1.79-3.58 4.26s1.37 4.24 3.58 4.24a4.07 4.07 0 0 0 3.28-1.72zm6.69 9.86a4.62 4.62 0 0 0 3.8 1.57c1.84 0 3.68-.88 3.68-3.38v-1.54a5 5 0 0 1-3.9 2c-3.06 0-5.27-2.25-5.27-6.13s2.21-6.1 5.27-6.1a4.83 4.83 0 0 1 3.9 2v-1.72h2.21v11.37c0 4.07-3 5.27-5.88 5.27a6.36 6.36 0 0 1-4.85-1.76zm7.47-9.85a4.13 4.13 0 0 0-3.28-1.74c-2.21 0-3.58 1.72-3.58 4.14s1.37 4.17 3.58 4.17a4.15 4.15 0 0 0 3.28-1.76zm10.91-3.71c3.55 0 5.76 2.77 5.76 6.4v.54h-9.36a3.88 3.88 0 0 0 4 3.68 5 5 0 0 0 3.5-1.4l1 1.45a6.66 6.66 0 0 1-4.75 1.76 6.22 6.22 0 0 1-.2-12.42zm-3.62 5.36h7.23a3.5 3.5 0 0 0-3.6-3.53 3.62 3.62 0 0 0-3.63 3.53zm-139.82 24.74H164v14.19h7.42v2.16h-9.88zm12.18 1.13a1.44 1.44 0 0 1 1.42-1.42 1.42 1.42 0 0 1 1.42 1.42 1.4 1.4 0 0 1-1.42 1.4 1.42 1.42 0 0 1-1.42-1.4zm.34 3.38h2.21v11.84h-2.21zm13.7 4.26c0-2-1-2.6-2.52-2.6a4.23 4.23 0 0 0-3.26 1.72v8.45h-2.21v-11.83H182v1.67a5.64 5.64 0 0 1 4.19-2c2.5 0 3.8 1.32 3.8 3.82v8.31h-2.21zm10.91-4.51c3.55 0 5.76 2.77 5.76 6.4v.54h-9.36a3.88 3.88 0 0 0 4 3.68 5 5 0 0 0 3.5-1.4l1 1.45a6.66 6.66 0 0 1-4.75 1.76 6.22 6.22 0 0 1-.2-12.42zm-3.63 5.34h7.23a3.5 3.5 0 0 0-3.6-3.53 3.62 3.62 0 0 0-3.63 3.49zm19.46 5.45a5.07 5.07 0 0 1-3.87 1.59 3.93 3.93 0 0 1-4.12-3.92 3.82 3.82 0 0 1 4.12-3.87 4.94 4.94 0 0 1 3.87 1.57v-2c0-1.47-1.2-2.35-2.89-2.35a4.84 4.84 0 0 0-3.55 1.57l-1-1.52A6.65 6.65 0 0 1 212 752c2.57 0 4.75 1.13 4.75 4.14v8h-2.21zm0-3.31a3.75 3.75 0 0 0-3-1.35 2.38 2.38 0 1 0 0 4.71 3.75 3.75 0 0 0 3-1.35zm5.74-7.23h2.21v1.81a5 5 0 0 1 3.87-2.08v2.23a3.49 3.49 0 0 0-.76-.07 4.18 4.18 0 0 0-3.11 1.72v8.23h-2.21zm14.65-4.51h5.83c5.1 0 8.48 3.48 8.48 8.19s-3.38 8.16-8.48 8.16h-5.83zm5.83 14.19a5.7 5.7 0 0 0 6-6c0-3.36-2.11-6-6-6h-3.38v12zm10.66-3.78a6 6 0 1 1 12 0c0 3.43-2.28 6.22-6 6.22a5.88 5.88 0 0 1-6-6.22zm9.66 0c0-2.23-1.3-4.24-3.68-4.24s-3.68 2-3.68 4.24 1.32 4.26 3.68 4.26 3.68-2 3.68-4.26zm13.53 4.24a4.9 4.9 0 0 1-3.87 2c-3.09 0-5.29-2.33-5.29-6.2s2.21-6.22 5.29-6.22a4.82 4.82 0 0 1 3.87 2v-6.22h2.21v16.35h-2.21zm0-6.74a4.09 4.09 0 0 0-3.28-1.74c-2.21 0-3.58 1.79-3.58 4.26s1.37 4.24 3.58 4.24a4.07 4.07 0 0 0 3.28-1.72zm6.69 9.86a4.62 4.62 0 0 0 3.8 1.57c1.84 0 3.68-.88 3.68-3.38v-1.54a5 5 0 0 1-3.9 2c-3.06 0-5.27-2.25-5.27-6.13s2.21-6.1 5.27-6.1a4.83 4.83 0 0 1 3.9 2v-1.71H291v11.37c0 4.07-3 5.27-5.88 5.27a6.36 6.36 0 0 1-4.85-1.76zm7.47-9.85a4.13 4.13 0 0 0-3.28-1.74c-2.21 0-3.58 1.72-3.58 4.14s1.37 4.17 3.58 4.17a4.15 4.15 0 0 0 3.28-1.76zm10.91-3.66c3.55 0 5.76 2.77 5.76 6.4v.54h-9.36a3.88 3.88 0 0 0 4 3.68 5 5 0 0 0 3.5-1.4l1 1.45a6.66 6.66 0 0 1-4.75 1.76 6.22 6.22 0 0 1-.2-12.42zm-3.66 5.3h7.23a3.5 3.5 0 0 0-3.6-3.53 3.62 3.62 0 0 0-3.63 3.53zm17.8.83a18.12 18.12 0 0 1 3.58-10.83l1.35 1a20.34 20.34 0 0 0 0 19.63l-1.35 1a18.07 18.07 0 0 1-3.58-10.8zm17.52 2.57h-8l-1.32 3.38h-2.7l6.49-16.35h3.06l6.49 16.35h-2.7zm-7.3-2.18h6.59l-3.31-8.65zm21.66 3.87a4.9 4.9 0 0 1-3.87 2c-3.09 0-5.29-2.33-5.29-6.2s2.21-6.22 5.29-6.22a4.82 4.82 0 0 1 3.87 2v-6.22h2.21v16.35h-2.21zm0-6.74a4.09 4.09 0 0 0-3.28-1.74c-2.21 0-3.58 1.79-3.58 4.26s1.37 4.24 3.58 4.24a4.07 4.07 0 0 0 3.28-1.72zm14.17 6.74a4.9 4.9 0 0 1-3.87 2c-3.09 0-5.29-2.33-5.29-6.2s2.2-6.19 5.31-6.19a4.82 4.82 0 0 1 3.87 2v-6.22h2.21v16.35h-2.21zm0-6.74a4.09 4.09 0 0 0-3.28-1.74c-2.21 0-3.58 1.79-3.58 4.26s1.37 4.24 3.58 4.24a4.07 4.07 0 0 0 3.28-1.72zm4.39-7.35l1.35-1a18.09 18.09 0 0 1 0 21.66l-1.35-1a20.17 20.17 0 0 0 0-19.63zM161.56 782H164v14.19h7.42v2.16h-9.88zm12.18 1.18a1.44 1.44 0 0 1 1.42-1.42 1.42 1.42 0 0 1 1.42 1.42 1.4 1.4 0 0 1-1.42 1.4 1.42 1.42 0 0 1-1.42-1.4zm.34 3.38h2.21v11.84h-2.21zm6.67 13.26a4.62 4.62 0 0 0 3.8 1.57c1.84 0 3.68-.88 3.68-3.38v-1.54a5 5 0 0 1-3.9 2c-3.06 0-5.27-2.25-5.27-6.13s2.21-6.1 5.27-6.1a4.83 4.83 0 0 1 3.9 2v-1.71h2.21v11.37c0 4.07-3 5.27-5.88 5.27a6.36 6.36 0 0 1-4.85-1.76zm7.47-9.85a4.13 4.13 0 0 0-3.28-1.74c-2.21 0-3.58 1.72-3.58 4.14s1.37 4.17 3.58 4.17a4.15 4.15 0 0 0 3.28-1.76zm13.7.8c0-2-1-2.55-2.52-2.55a4.23 4.23 0 0 0-3.26 1.72v8.45h-2.21V782h2.21v6.18a5.69 5.69 0 0 1 4.19-2c2.52 0 3.8 1.27 3.8 3.77v8.36h-2.21zm6.18 5v-7.28h-2v-1.94h2v-3.24h2.21v3.24h2.4v1.94h-2.4v6.79c0 .83.39 1.45 1.15 1.45a1.7 1.7 0 0 0 1.2-.47l.56 1.67a3.14 3.14 0 0 1-2.3.76c-1.86 0-2.82-1.05-2.82-2.92zm12.25-9.5c3.55 0 5.76 2.77 5.76 6.4v.54h-9.36a3.88 3.88 0 0 0 4 3.68 5 5 0 0 0 3.5-1.4l1 1.45a6.66 6.66 0 0 1-4.75 1.76 6.22 6.22 0 0 1-.2-12.42zm-3.63 5.34H224a3.5 3.5 0 0 0-3.6-3.53 3.63 3.63 0 0 0-3.67 3.53zm12.16-5.05h2.21v1.81a5 5 0 0 1 3.87-2.08v2.23a3.49 3.49 0 0 0-.76-.07 4.18 4.18 0 0 0-3.11 1.72v8.23h-2.21zm13.97 3.68a8.18 8.18 0 0 1 8.38-8.46 7.39 7.39 0 0 1 6.49 3.46l-2.08 1.1a5.18 5.18 0 0 0-4.41-2.38c-3.31 0-5.86 2.6-5.86 6.27s2.55 6.27 5.86 6.27a5.18 5.18 0 0 0 4.41-2.38l2.08 1.1a7.42 7.42 0 0 1-6.49 3.46 8.18 8.18 0 0 1-8.38-8.44zm16.54 2.22a6 6 0 1 1 12 0c0 3.43-2.28 6.22-6 6.22a5.88 5.88 0 0 1-6-6.22zm9.66 0c0-2.23-1.3-4.24-3.68-4.24s-3.68 2-3.68 4.24 1.32 4.26 3.68 4.26 3.63-2 3.63-4.26zm5.1-10.46h2.21v16.4h-2.21zm4.97 10.46a6 6 0 1 1 12 0c0 3.43-2.28 6.22-6 6.22a5.88 5.88 0 0 1-6-6.22zm9.66 0c0-2.23-1.3-4.24-3.68-4.24s-3.68 2-3.68 4.24 1.32 4.26 3.68 4.26 3.68-2 3.68-4.26zm13.08 4.32a5.85 5.85 0 0 1-4.22 1.91c-2.52 0-3.77-1.27-3.77-3.77v-8.36h2.21v7.62c0 2 1 2.55 2.5 2.55a4.28 4.28 0 0 0 3.28-1.67v-8.5h2.21v11.84h-2.21zm5.72-10.22h2.21v1.81a5 5 0 0 1 3.87-2.08v2.23a3.49 3.49 0 0 0-.76-.07 4.18 4.18 0 0 0-3.11 1.72v8.23h-2.21z" class="cls-3"/><path d="M111.11 1098.21h325.13m-325.13 182.02h325.13" class="cls-10"/><path d="M169.11 848c4.88 0 8.23 3.6 8.23 8.46s-3.36 8.45-8.23 8.45-8.23-3.6-8.23-8.45 3.35-8.46 8.23-8.46zm0 2.18c-3.5 0-5.71 2.67-5.71 6.27s2.21 6.27 5.71 6.27 5.71-2.7 5.71-6.27-2.26-6.27-5.71-6.27zm9.41 2.6h2.35l3.7 9.29 3.7-9.29h2.38l-4.88 11.84h-2.37zm19.12-.29c3.55 0 5.76 2.77 5.76 6.4v.54H194a3.88 3.88 0 0 0 4 3.68 5 5 0 0 0 3.5-1.4l1 1.45a6.66 6.66 0 0 1-4.75 1.76 6.22 6.22 0 0 1-.2-12.42zm-3.64 5.34h7.23a3.5 3.5 0 0 0-3.6-3.53 3.63 3.63 0 0 0-3.63 3.53zm12.17-5.05h2.21v1.81a5 5 0 0 1 3.87-2.08v2.23a3.49 3.49 0 0 0-.76-.07 4.18 4.18 0 0 0-3.11 1.72v8.23h-2.21zm8.28-4.51h2.21v16.35h-2.21zm13.01 15.05a5.07 5.07 0 0 1-3.87 1.59 3.93 3.93 0 0 1-4.12-3.92 3.82 3.82 0 0 1 4.12-3.87 4.94 4.94 0 0 1 3.87 1.57v-2c0-1.47-1.2-2.35-2.89-2.35a4.84 4.84 0 0 0-3.55 1.57l-1-1.52a6.65 6.65 0 0 1 4.85-1.94c2.57 0 4.75 1.13 4.75 4.14v8h-2.21zm0-3.31a3.75 3.75 0 0 0-3-1.35 2.38 2.38 0 1 0 0 4.71 3.75 3.75 0 0 0 3-1.35zm6.47 7.45a1.64 1.64 0 0 0 1.72-1.15l.69-1.57-4.88-12h2.35l3.7 9.29 3.7-9.29h2.38l-5.83 14.09a3.74 3.74 0 0 1-3.77 2.55 6.4 6.4 0 0 1-1.37-.17l.34-2a2.68 2.68 0 0 0 .97.25zM162 894.74a6.89 6.89 0 0 0 5.15 2.3c2.65 0 3.58-1.35 3.58-2.52 0-1.71-1.86-2.21-3.95-2.74-2.62-.69-5.66-1.45-5.66-4.78 0-2.7 2.38-4.66 5.78-4.66a8 8 0 0 1 6 2.28l-1.42 1.81a6.38 6.38 0 0 0-4.73-1.91c-1.81 0-3.06.93-3.06 2.3s1.76 1.94 3.8 2.45c2.67.71 5.78 1.54 5.78 5 0 2.55-1.76 4.93-6.18 4.93a8.36 8.36 0 0 1-6.45-2.6zm13.24-1.74a6 6 0 1 1 12 0c0 3.43-2.28 6.22-6 6.22a5.88 5.88 0 0 1-6-6.22zm9.66 0c0-2.23-1.3-4.24-3.68-4.24s-3.68 2-3.68 4.24 1.32 4.26 3.68 4.26 3.67-2.01 3.67-4.26zm5.63-4h-2v-1.94h2v-.78c0-2.55 1.49-4 3.6-4a3.9 3.9 0 0 1 1.94.44l-.51 1.64a2.1 2.1 0 0 0-1.05-.27c-1.1 0-1.76.74-1.76 2.16v.78h2.4V889h-2.4v9.9h-2.21zm7.16 7.3V889h-2v-1.94h2v-3.24h2.21v3.24h2.4V889h-2.4v6.79c0 .83.39 1.45 1.15 1.45a1.7 1.7 0 0 0 1.2-.47l.56 1.67a3.14 3.14 0 0 1-2.3.76c-1.87.02-2.82-1.03-2.82-2.9zm13.43-13.72h2.45v14.19H221v2.16h-9.88zm12.17 1.13a1.44 1.44 0 0 1 1.42-1.42 1.42 1.42 0 0 1 1.42 1.42 1.4 1.4 0 0 1-1.42 1.4 1.42 1.42 0 0 1-1.42-1.4zm.34 3.38h2.21v11.84h-2.21zm6.67 13.26a4.62 4.62 0 0 0 3.8 1.57c1.84 0 3.68-.88 3.68-3.38V897a5 5 0 0 1-3.9 2c-3.06 0-5.27-2.25-5.27-6.13s2.21-6.1 5.27-6.1a4.83 4.83 0 0 1 3.9 2v-1.71H240v11.37c0 4.07-3 5.27-5.88 5.27a6.36 6.36 0 0 1-4.85-1.76zm7.47-9.85a4.13 4.13 0 0 0-3.28-1.74c-2.21 0-3.58 1.72-3.58 4.14s1.37 4.17 3.58 4.17a4.15 4.15 0 0 0 3.28-1.76zm13.71.81c0-2-1-2.55-2.52-2.55a4.23 4.23 0 0 0-3.26 1.72v8.45h-2.21v-16.35h2.21v6.18a5.69 5.69 0 0 1 4.19-2c2.52 0 3.8 1.27 3.8 3.77v8.36h-2.21zm6.17 4.99V889h-2v-1.94h2v-3.24h2.21v3.24h2.4V889h-2.4v6.79c0 .83.39 1.45 1.15 1.45a1.7 1.7 0 0 0 1.2-.47l.56 1.67a3.14 3.14 0 0 1-2.3.76c-1.86.02-2.82-1.03-2.82-2.9zm-84.6 29.63h-9v7.3h-2.45v-16.34h2.4v6.86h9v-6.86h2.45v16.35H173zm13.34 6.01a5.07 5.07 0 0 1-3.87 1.59 3.93 3.93 0 0 1-4.12-3.92 3.82 3.82 0 0 1 4.12-3.87 4.94 4.94 0 0 1 3.87 1.57v-2c0-1.47-1.2-2.35-2.89-2.35a4.84 4.84 0 0 0-3.55 1.57L179 923a6.65 6.65 0 0 1 4.85-1.94c2.57 0 4.75 1.13 4.75 4.14v8h-2.21zm0-3.31a3.75 3.75 0 0 0-3-1.35 2.38 2.38 0 1 0 0 4.71 3.75 3.75 0 0 0 3-1.35zm5.73-7.23h2.21v1.81a5 5 0 0 1 3.87-2.08v2.23a3.49 3.49 0 0 0-.76-.07 4.18 4.18 0 0 0-3.11 1.72v8.23h-2.21zm16.72 10.15a4.9 4.9 0 0 1-3.87 2c-3.09 0-5.29-2.33-5.29-6.2s2.21-6.22 5.29-6.22a4.82 4.82 0 0 1 3.87 2v-6.22H211v16.35h-2.21zm0-6.74a4.09 4.09 0 0 0-3.28-1.74c-2.21 0-3.58 1.79-3.58 4.26s1.37 4.24 3.58 4.24a4.07 4.07 0 0 0 3.28-1.72zm12.1-7.92h2.45v14.19h7.42v2.16h-9.88zm12.18 1.11a1.44 1.44 0 0 1 1.42-1.42A1.42 1.42 0 0 1 236 918a1.4 1.4 0 0 1-1.42 1.4 1.42 1.42 0 0 1-1.46-1.4zm.34 3.38h2.21v11.84h-2.21zm6.67 13.28a4.62 4.62 0 0 0 3.8 1.57c1.84 0 3.68-.88 3.68-3.38v-1.55a5 5 0 0 1-3.9 2c-3.06 0-5.27-2.25-5.27-6.13s2.21-6.1 5.27-6.1a4.83 4.83 0 0 1 3.9 2v-1.67h2.21v11.37c0 4.07-3 5.27-5.88 5.27a6.36 6.36 0 0 1-4.85-1.76zm7.47-9.85a4.13 4.13 0 0 0-3.28-1.74c-2.21 0-3.58 1.72-3.58 4.14s1.37 4.17 3.58 4.17a4.15 4.15 0 0 0 3.28-1.76zm13.71.81c0-2-1-2.55-2.52-2.55a4.23 4.23 0 0 0-3.26 1.72v8.45h-2.21v-16.35h2.21v6.18a5.69 5.69 0 0 1 4.19-2c2.52 0 3.8 1.27 3.8 3.77v8.36h-2.21zm6.17 5v-7.28h-2v-1.94h2v-3.24h2.21v3.24h2.4v1.94h-2.4v6.79c0 .83.39 1.45 1.15 1.45a1.7 1.7 0 0 0 1.2-.47l.56 1.67a3.14 3.14 0 0 1-2.3.76c-1.86-.01-2.82-1.06-2.82-2.92zM159.87 951.2h2.79l5.22 13.67 5.24-13.67h2.79l-6.49 16.35h-3.06zm17.62 1.13a1.44 1.44 0 0 1 1.42-1.42 1.42 1.42 0 0 1 1.42 1.42 1.4 1.4 0 0 1-1.42 1.4 1.42 1.42 0 0 1-1.42-1.4zm.34 3.38H180v11.84h-2.21zm3.97 0h2.35l3.7 9.29 3.7-9.29h2.38l-4.88 11.84h-2.38zm13.58-3.38a1.44 1.44 0 0 1 1.42-1.42 1.42 1.42 0 0 1 1.42 1.42 1.4 1.4 0 0 1-1.42 1.4 1.42 1.42 0 0 1-1.42-1.4zm.34 3.38h2.21v11.84h-2.21zm14.14 10.15a4.9 4.9 0 0 1-3.87 2c-3.09 0-5.29-2.33-5.29-6.2s2.21-6.22 5.29-6.22a4.82 4.82 0 0 1 3.87 2v-6.24h2.21v16.35h-2.21zm0-6.74a4.09 4.09 0 0 0-3.28-1.74c-2.21 0-3.58 1.79-3.58 4.26s1.37 4.24 3.58 4.24a4.07 4.07 0 0 0 3.28-1.72zM222 951.2h2.45v14.19h7.42v2.16H222zm12.15 1.13a1.44 1.44 0 0 1 1.42-1.42 1.42 1.42 0 0 1 1.42 1.42 1.4 1.4 0 0 1-1.42 1.4 1.42 1.42 0 0 1-1.42-1.4zm.34 3.38h2.21v11.84h-2.21zm6.67 13.29a4.62 4.62 0 0 0 3.8 1.57c1.84 0 3.68-.88 3.68-3.38v-1.54a5 5 0 0 1-3.9 2c-3.06 0-5.27-2.25-5.27-6.13s2.21-6.1 5.27-6.1a4.83 4.83 0 0 1 3.9 2v-1.71h2.21v11.37c0 4.07-3 5.27-5.88 5.27a6.36 6.36 0 0 1-4.85-1.76zm7.47-9.85a4.13 4.13 0 0 0-3.28-1.74c-2.21 0-3.58 1.72-3.58 4.14s1.37 4.17 3.58 4.17a4.15 4.15 0 0 0 3.28-1.76zm13.7.78c0-2-1-2.55-2.52-2.55a4.23 4.23 0 0 0-3.26 1.72v8.45h-2.21V951.2h2.21v6.18a5.69 5.69 0 0 1 4.19-2c2.52 0 3.8 1.27 3.8 3.77v8.36h-2.21zm6.18 5v-7.28h-2v-1.94h2v-3.24h2.21v3.24h2.4v1.94h-2.4v6.79c0 .83.39 1.45 1.15 1.45a1.7 1.7 0 0 0 1.2-.47l.56 1.67a3.14 3.14 0 0 1-2.3.76c-1.86-.01-2.82-1.06-2.82-2.92zm-106.95 20.58H164v14.19h7.42v2.16h-9.88zm12.18 1.13a1.44 1.44 0 0 1 1.42-1.42 1.42 1.42 0 0 1 1.42 1.42 1.4 1.4 0 0 1-1.42 1.4 1.42 1.42 0 0 1-1.42-1.4zm.34 3.38h2.21v11.84h-2.21zm13.7 4.27c0-2-1-2.6-2.52-2.6a4.23 4.23 0 0 0-3.26 1.71v8.45h-2.21V990H182v1.67a5.64 5.64 0 0 1 4.19-2c2.5 0 3.8 1.32 3.8 3.82v8.31h-2.21zm10.91-4.56c3.55 0 5.76 2.77 5.76 6.4v.54h-9.36a3.88 3.88 0 0 0 4 3.68 5 5 0 0 0 3.5-1.4l1 1.45a6.66 6.66 0 0 1-4.75 1.76 6.22 6.22 0 0 1-.2-12.42zm-3.63 5.34h7.23a3.5 3.5 0 0 0-3.6-3.53 3.62 3.62 0 0 0-3.63 3.53zm19.46 5.49a5.07 5.07 0 0 1-3.87 1.59 3.93 3.93 0 0 1-4.12-3.92 3.82 3.82 0 0 1 4.12-3.87 4.94 4.94 0 0 1 3.87 1.57v-2c0-1.47-1.2-2.35-2.89-2.35a4.84 4.84 0 0 0-3.55 1.57l-1-1.52a6.65 6.65 0 0 1 4.85-1.94c2.57 0 4.75 1.13 4.75 4.14v8h-2.21zm0-3.31a3.75 3.75 0 0 0-3-1.35 2.38 2.38 0 1 0 0 4.71 3.75 3.75 0 0 0 3-1.35zm5.74-7.25h2.21v1.81a5 5 0 0 1 3.87-2.08V992a3.49 3.49 0 0 0-.76-.07 4.18 4.18 0 0 0-3.11 1.72v8.23h-2.21zm14.65-4.49h2.45v14.19h7.42v2.16h-9.88zm12.18 1.13a1.44 1.44 0 0 1 1.42-1.42 1.42 1.42 0 0 1 1.42 1.42 1.4 1.4 0 0 1-1.42 1.4 1.42 1.42 0 0 1-1.42-1.4zm.34 3.38h2.21v11.84h-2.21zm6.67 13.26a4.62 4.62 0 0 0 3.8 1.57c1.84 0 3.68-.88 3.68-3.38v-1.54a5 5 0 0 1-3.9 2c-3.06 0-5.27-2.25-5.27-6.13s2.21-6.1 5.27-6.1a4.83 4.83 0 0 1 3.9 2V990h2.21v11.37c0 4.07-3 5.27-5.88 5.27a6.36 6.36 0 0 1-4.85-1.76zm7.47-9.85a4.13 4.13 0 0 0-3.28-1.74c-2.21 0-3.58 1.72-3.58 4.14s1.37 4.17 3.58 4.17a4.15 4.15 0 0 0 3.28-1.76zm13.7.81c0-2-1-2.55-2.52-2.55a4.23 4.23 0 0 0-3.26 1.72v8.45h-2.21v-16.35h2.21v6.18a5.69 5.69 0 0 1 4.19-2c2.52 0 3.8 1.27 3.8 3.77v8.36h-2.21zm6.18 5V992h-2v-2h2v-3.24h2.21V990h2.4v2h-2.4v6.79c0 .83.39 1.45 1.15 1.45a1.7 1.7 0 0 0 1.2-.47l.56 1.67a3.14 3.14 0 0 1-2.3.76c-1.86-.05-2.82-1.1-2.82-2.96zm-119.89 20.58h6.89a5 5 0 1 1 0 10H164v6.3h-2.45zm6.57 2.16H164v5.73h4.12a2.87 2.87 0 1 0 0-5.73zm7.67-.98a1.44 1.44 0 0 1 1.42-1.42 1.42 1.42 0 0 1 1.42 1.42 1.4 1.4 0 0 1-1.42 1.4 1.42 1.42 0 0 1-1.42-1.4zm.34 3.38h2.21v11.84h-2.21zm13.7 4.22c0-2-1-2.6-2.52-2.6a4.23 4.23 0 0 0-3.26 1.72v8.45h-2.21v-11.84h2.21v1.67a5.64 5.64 0 0 1 4.19-2c2.5 0 3.8 1.32 3.8 3.82v8.31h-2.21zm12.08-8.78h2.45V1034h7.42v2.16h-9.88zm12.18 1.18a1.44 1.44 0 0 1 1.42-1.42 1.42 1.42 0 0 1 1.42 1.42 1.4 1.4 0 0 1-1.42 1.4 1.42 1.42 0 0 1-1.42-1.4zm.34 3.38h2.21v11.84h-2.21zm6.67 13.21a4.62 4.62 0 0 0 3.8 1.57c1.84 0 3.68-.88 3.68-3.38v-1.54a5 5 0 0 1-3.9 2c-3.06 0-5.27-2.25-5.27-6.13s2.21-6.1 5.27-6.1a4.83 4.83 0 0 1 3.9 2v-1.71h2.21v11.37c0 4.07-3 5.27-5.88 5.27a6.36 6.36 0 0 1-4.85-1.76zm7.47-9.85a4.13 4.13 0 0 0-3.28-1.74c-2.21 0-3.58 1.72-3.58 4.14s1.37 4.17 3.58 4.17a4.15 4.15 0 0 0 3.28-1.76zm13.71.81c0-2-1-2.55-2.52-2.55a4.23 4.23 0 0 0-3.26 1.72v8.45h-2.21v-16.35h2.21v6.18a5.69 5.69 0 0 1 4.19-2c2.52 0 3.8 1.27 3.8 3.77v8.36h-2.21zm6.17 5v-7.28h-2v-1.94h2v-3.24h2.21v3.24h2.4v1.94h-2.4v6.79c0 .83.39 1.45 1.15 1.45a1.7 1.7 0 0 0 1.2-.47l.56 1.67a3.14 3.14 0 0 1-2.3.76c-1.86-.01-2.82-1.06-2.82-2.92zm-75.41 29.63h-9v7.3h-2.45v-16.35h2.4v6.87h9v-6.86h2.45v16.35H173zm13.34 6a5.07 5.07 0 0 1-3.87 1.59 3.93 3.93 0 0 1-4.12-3.92 3.82 3.82 0 0 1 4.12-3.87 4.94 4.94 0 0 1 3.87 1.57v-2c0-1.47-1.2-2.35-2.89-2.35a4.84 4.84 0 0 0-3.55 1.57l-1-1.52a6.65 6.65 0 0 1 4.85-1.94c2.57 0 4.75 1.13 4.75 4.14v8h-2.21zm0-3.31a3.75 3.75 0 0 0-3-1.35 2.38 2.38 0 1 0 0 4.71 3.75 3.75 0 0 0 3-1.35zm5.73-7.23h2.21v1.81a5 5 0 0 1 3.87-2.08v2.23a3.49 3.49 0 0 0-.76-.07 4.18 4.18 0 0 0-3.11 1.72v8.23h-2.21zm16.72 10.15a4.9 4.9 0 0 1-3.87 2c-3.09 0-5.29-2.33-5.29-6.2s2.21-6.22 5.29-6.22a4.82 4.82 0 0 1 3.87 2v-6.22H211v16.35h-2.21zm0-6.74a4.09 4.09 0 0 0-3.28-1.74c-2.21 0-3.58 1.79-3.58 4.26s1.37 4.24 3.58 4.24a4.07 4.07 0 0 0 3.28-1.72zm26.16-4.56l-5.29 13h-1l-5.29-13v13h-2.45v-16.35h3.5l4.75 11.74 4.75-11.74h3.5v16.35H235zm5.7-2.23a1.44 1.44 0 0 1 1.42-1.42 1.42 1.42 0 0 1 1.42 1.42 1.4 1.4 0 0 1-1.42 1.4 1.42 1.42 0 0 1-1.42-1.4zm.34 3.38h2.21v11.84H241zm9.96 7.23l-3.33 4.61h-2.5l4.44-6.08-4.17-5.76h2.5l3.06 4.26 3-4.26h2.5l-4.19 5.76 4.46 6.08h-2.5zm-89.44 57.63h5.83c5.1 0 8.48 3.48 8.48 8.19s-3.38 8.16-8.48 8.16h-5.83zm5.83 14.19a5.7 5.7 0 0 0 6-6c0-3.36-2.11-6-6-6H164v12zm11.06-13.06a1.44 1.44 0 0 1 1.42-1.42 1.42 1.42 0 0 1 1.42 1.42 1.4 1.4 0 0 1-1.42 1.4 1.42 1.42 0 0 1-1.42-1.4zm.34 3.38H181v11.84h-2.21zm6.21 1.94h-2V1128h2v-.78c0-2.55 1.49-4 3.6-4a3.9 3.9 0 0 1 1.94.44l-.51 1.64a2.11 2.11 0 0 0-1.05-.27c-1.1 0-1.76.74-1.76 2.16v.78h2.4v1.94h-2.4v9.9H185zm7.25 0h-2V1128h2v-.78c0-2.55 1.5-4 3.6-4a3.9 3.9 0 0 1 1.94.44l-.51 1.64a2.11 2.11 0 0 0-1.05-.27c-1.1 0-1.76.74-1.76 2.16v.78h2.4v1.94h-2.4v9.9h-2.21zm11.95-2.23c3.55 0 5.76 2.77 5.76 6.4v.54h-9.36a3.88 3.88 0 0 0 4 3.68 5 5 0 0 0 3.5-1.4l1 1.45a6.66 6.66 0 0 1-4.75 1.76 6.22 6.22 0 0 1-.2-12.42zm-3.63 5.34h7.23a3.5 3.5 0 0 0-3.6-3.53 3.63 3.63 0 0 0-3.62 3.53zm12.16-5.06h2.21v1.81a5 5 0 0 1 3.87-2.08v2.27a3.49 3.49 0 0 0-.76-.07 4.18 4.18 0 0 0-3.11 1.71v8.23h-2.21zm13.48-.28c3.55 0 5.76 2.77 5.76 6.4v.54h-9.36a3.88 3.88 0 0 0 4 3.68 5 5 0 0 0 3.5-1.4l1 1.45a6.66 6.66 0 0 1-4.75 1.76 6.22 6.22 0 0 1-.2-12.42zm-3.63 5.34h7.23a3.5 3.5 0 0 0-3.6-3.53 3.63 3.63 0 0 0-3.63 3.53zm20.15-.79c0-2-1-2.6-2.52-2.6a4.23 4.23 0 0 0-3.26 1.72v8.45h-2.21V1128h2.21v1.67a5.64 5.64 0 0 1 4.19-2c2.5 0 3.8 1.32 3.8 3.82v8.31h-2.21zm11-4.55a5.17 5.17 0 0 1 4.44 2.08l-1.47 1.35a3.31 3.31 0 0 0-2.87-1.47c-2.33 0-3.82 1.79-3.82 4.24s1.5 4.26 3.82 4.26a3.36 3.36 0 0 0 2.87-1.47l1.47 1.35a5.17 5.17 0 0 1-4.44 2.08 6.21 6.21 0 0 1 0-12.42zm12.06 0c3.55 0 5.76 2.77 5.76 6.4v.54h-9.36a3.88 3.88 0 0 0 4 3.68 5 5 0 0 0 3.5-1.4l1 1.45a6.66 6.66 0 0 1-4.75 1.76 6.22 6.22 0 0 1-.2-12.42zm-3.63 5.34h7.23a3.5 3.5 0 0 0-3.6-3.53 3.63 3.63 0 0 0-3.63 3.53zm-100.6 24.75h11v2.19H164v4.78h8.36v2.16H164v5.1h8.53v2.16h-11zm18.26 11.74l-3.33 4.61H174l4.44-6.08-4.17-5.76h2.5l3.06 4.26 3-4.26h2.5l-4.19 5.76 4.46 6.08h-2.5zm12.38-7.55a5.17 5.17 0 0 1 4.44 2.08l-1.47 1.35a3.31 3.31 0 0 0-2.87-1.47c-2.33 0-3.82 1.79-3.82 4.24s1.49 4.26 3.82 4.26a3.36 3.36 0 0 0 2.87-1.47l1.47 1.35a5.17 5.17 0 0 1-4.44 2.08 6.21 6.21 0 0 1 0-12.42zm6.86-4.19h2.21v16.35h-2.21zm13.7 14.73a5.85 5.85 0 0 1-4.22 1.91c-2.52 0-3.77-1.27-3.77-3.77v-8.36H207v7.62c0 2 1 2.55 2.5 2.55a4.28 4.28 0 0 0 3.28-1.67v-8.5H215v11.84h-2.21zm5.73-1.54a5.74 5.74 0 0 0 4 1.69c1.67 0 2.55-.69 2.55-1.69 0-1.18-1.35-1.57-2.87-1.91-2-.47-4.36-1-4.36-3.55 0-1.89 1.62-3.5 4.51-3.5a6.33 6.33 0 0 1 4.51 1.69l-1 1.54a4.62 4.62 0 0 0-3.5-1.45c-1.5 0-2.43.59-2.43 1.54s1.27 1.37 2.74 1.72c2.06.47 4.51 1 4.51 3.75 0 2-1.67 3.63-4.78 3.63a6.73 6.73 0 0 1-4.93-1.84zm11.1-12.06a1.44 1.44 0 0 1 1.42-1.42 1.42 1.42 0 0 1 1.42 1.42 1.4 1.4 0 0 1-1.42 1.4 1.42 1.42 0 0 1-1.42-1.4zm.34 3.38h2.21v11.84h-2.21zm4.98 5.91a6 6 0 1 1 12 0c0 3.43-2.28 6.22-6 6.22a5.88 5.88 0 0 1-6-6.22zm9.66 0c0-2.23-1.3-4.24-3.68-4.24s-3.68 2-3.68 4.24 1.32 4.26 3.68 4.26 3.68-2.01 3.68-4.26zm13.08-1.65c0-2-1-2.6-2.52-2.6a4.23 4.23 0 0 0-3.26 1.72v8.45h-2.21v-11.84h2.21v1.69a5.64 5.64 0 0 1 4.19-2c2.5 0 3.8 1.32 3.8 3.82v8.31h-2.21zm-95.65 37.7a6.89 6.89 0 0 0 5.15 2.3c2.65 0 3.58-1.35 3.58-2.52 0-1.71-1.86-2.21-3.95-2.74-2.62-.69-5.66-1.45-5.66-4.78 0-2.7 2.38-4.66 5.78-4.66a8 8 0 0 1 6 2.28l-1.42 1.81a6.38 6.38 0 0 0-4.73-1.91c-1.81 0-3.06.93-3.06 2.3s1.76 1.94 3.8 2.45c2.67.71 5.78 1.54 5.78 5 0 2.55-1.76 4.93-6.18 4.93a8.36 8.36 0 0 1-6.45-2.6zm22 2.57a5.85 5.85 0 0 1-4.22 1.91c-2.52 0-3.77-1.27-3.77-3.77v-8.36h2.21v7.62c0 2 1 2.55 2.5 2.55a4.28 4.28 0 0 0 3.28-1.67v-8.5h2.21v11.84H184zm5.67-14.73h2.21v6.22a4.75 4.75 0 0 1 3.87-2c3.09 0 5.27 2.43 5.27 6.22s-2.21 6.2-5.27 6.2a4.86 4.86 0 0 1-3.87-2v1.69h-2.21zm5.49 14.68c2.21 0 3.58-1.76 3.58-4.24s-1.37-4.26-3.58-4.26a4.07 4.07 0 0 0-3.28 1.76v5a4 4 0 0 0 3.28 1.74zm9.12-.96v-7.28h-2v-1.94h2v-3.24h2.21v3.24h2.4v1.94h-2.4v6.79c0 .83.39 1.45 1.15 1.45a1.7 1.7 0 0 0 1.2-.47l.56 1.67a3.14 3.14 0 0 1-2.3.76c-1.87 0-2.82-1.05-2.82-2.92zm7.06-9.21h2.21v1.81a5 5 0 0 1 3.87-2.08v2.23a3.49 3.49 0 0 0-.76-.07 4.18 4.18 0 0 0-3.11 1.71v8.23h-2.21zm15.58 10.54a5.07 5.07 0 0 1-3.87 1.59 3.93 3.93 0 0 1-4.12-3.92 3.82 3.82 0 0 1 4.12-3.87 4.94 4.94 0 0 1 3.87 1.57v-2c0-1.47-1.2-2.35-2.89-2.35a4.84 4.84 0 0 0-3.55 1.57l-1-1.52a6.65 6.65 0 0 1 4.85-1.94c2.57 0 4.75 1.13 4.75 4.14v8h-2.21zm0-3.31a3.75 3.75 0 0 0-3-1.35 2.38 2.38 0 1 0 0 4.71 3.75 3.75 0 0 0 3-1.35zm11.08-7.52a5.17 5.17 0 0 1 4.44 2.08l-1.47 1.35a3.31 3.31 0 0 0-2.87-1.47c-2.33 0-3.82 1.79-3.82 4.24s1.49 4.26 3.82 4.26a3.36 3.36 0 0 0 2.87-1.47l1.47 1.35a5.17 5.17 0 0 1-4.44 2.08 6.21 6.21 0 0 1 0-12.42zm7.25 9.5v-7.28h-2v-1.94h2v-3.24h2.21v3.24h2.4v1.94h-2.4v6.79c0 .83.39 1.45 1.15 1.45a1.7 1.7 0 0 0 1.2-.47l.56 1.67a3.14 3.14 0 0 1-2.3.76c-1.86 0-2.82-1.05-2.82-2.92zm-83.69 20.59h5.83c5.1 0 8.48 3.48 8.48 8.19s-3.38 8.16-8.48 8.16h-5.83zm5.83 14.19a5.7 5.7 0 0 0 6-6c0-3.36-2.11-6-6-6H164v12zm11.06-13.06a1.44 1.44 0 0 1 1.42-1.42 1.42 1.42 0 0 1 1.42 1.42 1.4 1.4 0 0 1-1.42 1.4 1.42 1.42 0 0 1-1.42-1.4zm.34 3.38H181v11.84h-2.21zm3.97 0h2.35l3.7 9.29 3.7-9.29h2.38l-4.89 11.84h-2.38zm13.58-3.38a1.44 1.44 0 0 1 1.42-1.42 1.42 1.42 0 0 1 1.42 1.42 1.4 1.4 0 0 1-1.42 1.4 1.42 1.42 0 0 1-1.42-1.4zm.34 3.38h2.21v11.84h-2.21zm14.14 10.15a4.9 4.9 0 0 1-3.87 2c-3.09 0-5.29-2.33-5.29-6.2s2.21-6.22 5.29-6.22a4.82 4.82 0 0 1 3.87 2v-6.22H213v16.35h-2.21zm0-6.74a4.09 4.09 0 0 0-3.28-1.74c-2.21 0-3.58 1.79-3.58 4.26s1.37 4.24 3.58 4.24a4.07 4.07 0 0 0 3.28-1.72zm10.93-3.7c3.55 0 5.76 2.77 5.76 6.4v.54h-9.36a3.88 3.88 0 0 0 4 3.68 5 5 0 0 0 3.5-1.4l1 1.45a6.66 6.66 0 0 1-4.75 1.76 6.22 6.22 0 0 1-.2-12.42zm-3.63 5.34h7.23a3.5 3.5 0 0 0-3.6-3.53 3.63 3.63 0 0 0-3.63 3.54zM173.05 1315h-9v7.3h-2.45v-16.35h2.4v6.86h9v-6.86h2.45v16.35H173zm14.02 5.66a5.85 5.85 0 0 1-4.22 1.91c-2.52 0-3.77-1.27-3.77-3.77v-8.36h2.21v7.62c0 2 1 2.55 2.5 2.55a4.28 4.28 0 0 0 3.28-1.67v-8.5h2.21v11.84h-2.21zm10.93-10.51c3.55 0 5.76 2.77 5.76 6.4v.54h-9.36a3.88 3.88 0 0 0 4 3.68 5 5 0 0 0 3.5-1.4l1 1.45a6.66 6.66 0 0 1-4.75 1.76 6.22 6.22 0 0 1-.2-12.42zm-3.63 5.34h7.23a3.5 3.5 0 0 0-3.6-3.49 3.62 3.62 0 0 0-3.65 3.49zM162 1352.4a6.89 6.89 0 0 0 5.15 2.3c2.65 0 3.58-1.35 3.58-2.52 0-1.71-1.86-2.21-3.95-2.74-2.62-.69-5.66-1.45-5.66-4.78 0-2.7 2.38-4.66 5.78-4.66a8 8 0 0 1 6 2.28l-1.42 1.81a6.38 6.38 0 0 0-4.73-1.91c-1.81 0-3.06.93-3.06 2.3s1.76 1.94 3.8 2.45c2.67.71 5.78 1.54 5.78 5 0 2.55-1.76 4.93-6.18 4.93a8.36 8.36 0 0 1-6.45-2.6zm21.27 2.89a5.07 5.07 0 0 1-3.87 1.59 3.93 3.93 0 0 1-4.12-3.92 3.82 3.82 0 0 1 4.12-3.87 4.94 4.94 0 0 1 3.87 1.57v-2c0-1.47-1.2-2.35-2.89-2.35a4.84 4.84 0 0 0-3.55 1.57l-1-1.52a6.65 6.65 0 0 1 4.85-1.94c2.57 0 4.75 1.13 4.75 4.14v8h-2.21zm0-3.31a3.75 3.75 0 0 0-3-1.35 2.38 2.38 0 1 0 0 4.71 3.75 3.75 0 0 0 3-1.35zm6.18 2.02v-7.28h-2v-1.94h2v-3.24h2.21v3.24h2.4v1.94h-2.4v6.79c0 .83.39 1.45 1.15 1.45a1.7 1.7 0 0 0 1.2-.47l.56 1.67a3.14 3.14 0 0 1-2.3.76c-1.86-.04-2.82-1.09-2.82-2.92zm15.05 1a5.85 5.85 0 0 1-4.22 1.91c-2.52 0-3.77-1.27-3.77-3.77v-8.36h2.21v7.62c0 2 1 2.55 2.5 2.55a4.28 4.28 0 0 0 3.28-1.67v-8.5h2.21v11.84h-2.21zm5.71-10.25h2.21v1.81a5 5 0 0 1 3.87-2.08v2.23a3.49 3.49 0 0 0-.76-.07 4.18 4.18 0 0 0-3.11 1.72v8.23h-2.21zm15.58 10.54a5.07 5.07 0 0 1-3.87 1.59 3.93 3.93 0 0 1-4.12-3.92 3.82 3.82 0 0 1 4.12-3.87 4.94 4.94 0 0 1 3.87 1.57v-2c0-1.47-1.2-2.35-2.89-2.35a4.84 4.84 0 0 0-3.55 1.57l-1-1.52a6.65 6.65 0 0 1 4.85-1.94c2.57 0 4.75 1.13 4.75 4.14v8h-2.21zm0-3.31a3.75 3.75 0 0 0-3-1.35 2.38 2.38 0 1 0 0 4.71 3.75 3.75 0 0 0 3-1.35zM232 1354v-7.28h-2v-1.94h2v-3.24h2.21v3.24h2.4v1.94h-2.4v6.79c0 .83.39 1.45 1.15 1.45a1.7 1.7 0 0 0 1.2-.47l.56 1.67a3.14 3.14 0 0 1-2.3.76c-1.89-.04-2.82-1.09-2.82-2.92zm6.69-12.63a1.44 1.44 0 0 1 1.42-1.42 1.42 1.42 0 0 1 1.42 1.42 1.4 1.4 0 0 1-1.42 1.4 1.42 1.42 0 0 1-1.42-1.4zm.34 3.38h2.21v11.84H239zm4.97 5.91a6 6 0 1 1 12 0c0 3.43-2.28 6.22-6 6.22a5.88 5.88 0 0 1-6-6.22zm9.66 0c0-2.23-1.3-4.24-3.68-4.24s-3.68 2-3.68 4.24 1.32 4.26 3.68 4.26 3.68-2.01 3.68-4.26zm13.09-1.66c0-2-1-2.6-2.52-2.6a4.23 4.23 0 0 0-3.26 1.72v8.45h-2.21v-11.84H261v1.67a5.64 5.64 0 0 1 4.19-2c2.5 0 3.8 1.32 3.8 3.82v8.31h-2.21zm-105.87 33.74a8.18 8.18 0 0 1 8.38-8.46 7.39 7.39 0 0 1 6.49 3.46l-2.08 1.1a5.18 5.18 0 0 0-4.41-2.38c-3.31 0-5.86 2.6-5.86 6.27s2.55 6.27 5.86 6.27a5.18 5.18 0 0 0 4.41-2.38l2.08 1.1a7.42 7.42 0 0 1-6.49 3.46 8.18 8.18 0 0 1-8.38-8.44zm16.54 2.26a6 6 0 1 1 12 0c0 3.43-2.28 6.22-6 6.22a5.88 5.88 0 0 1-6-6.22zm9.66 0c0-2.23-1.3-4.24-3.68-4.24s-3.68 2-3.68 4.24 1.32 4.26 3.68 4.26 3.67-2.03 3.67-4.26zm5.09-10.44h2.21v16.35h-2.21zm4.98 10.44a6 6 0 1 1 12 0c0 3.43-2.28 6.22-6 6.22a5.88 5.88 0 0 1-6-6.22zm9.66 0c0-2.23-1.3-4.24-3.68-4.24s-3.68 2-3.68 4.24 1.32 4.26 3.68 4.26 3.67-2.03 3.67-4.26zm13.08 4.28a5.85 5.85 0 0 1-4.22 1.91c-2.52 0-3.77-1.27-3.77-3.77v-8.36h2.21v7.62c0 2 1 2.55 2.5 2.55a4.28 4.28 0 0 0 3.28-1.67v-8.5h2.21v11.84h-2.21zm5.71-10.21h2.21v1.81a5 5 0 0 1 3.87-2.08v2.2a3.49 3.49 0 0 0-.76-.07 4.18 4.18 0 0 0-3.11 1.72v8.23h-2.21zm-64.04 29.8H164v14.19h7.42v2.16h-9.88zm20.22 14.72a5.85 5.85 0 0 1-4.22 1.91c-2.52 0-3.77-1.27-3.77-3.77v-8.36H176v7.63c0 2 1 2.55 2.5 2.55a4.28 4.28 0 0 0 3.28-1.67v-8.5H184v11.84h-2.21zm20.1-6.27c0-1.37-.61-2.28-2.06-2.28a3.81 3.81 0 0 0-2.94 1.69v8.48h-2.21v-7.89c0-1.37-.59-2.28-2.08-2.28a3.87 3.87 0 0 0-2.89 1.72v8.45h-2.21v-11.84h2.21v1.63a5.12 5.12 0 0 1 3.82-2 3.06 3.06 0 0 1 3.21 2.21 5 5 0 0 1 4-2.21c2.18 0 3.36 1.2 3.36 3.58v8.55h-2.21zm5.36-7.32a1.44 1.44 0 0 1 1.42-1.42 1.42 1.42 0 0 1 1.42 1.42 1.4 1.4 0 0 1-1.42 1.4 1.42 1.42 0 0 1-1.42-1.4zm.34 3.38h2.21v11.84h-2.21zm13.71 4.26c0-2-1-2.6-2.52-2.6a4.23 4.23 0 0 0-3.26 1.72v8.45h-2.21v-11.84h2.21v1.63a5.64 5.64 0 0 1 4.19-2c2.5 0 3.8 1.32 3.8 3.82v8.31h-2.21zm4.97 1.64a6 6 0 1 1 12 0c0 3.43-2.28 6.22-6 6.22a5.88 5.88 0 0 1-6-6.22zm9.66 0c0-2.23-1.3-4.24-3.68-4.24s-3.68 2-3.68 4.24 1.32 4.26 3.68 4.26 3.68-2 3.68-4.26zm5.08 2.77a5.74 5.74 0 0 0 4 1.69c1.67 0 2.55-.69 2.55-1.69 0-1.18-1.35-1.57-2.87-1.91-2-.47-4.36-1-4.36-3.55 0-1.89 1.62-3.5 4.51-3.5a6.33 6.33 0 0 1 4.51 1.69l-1 1.54a4.62 4.62 0 0 0-3.5-1.45c-1.49 0-2.43.59-2.43 1.54s1.27 1.37 2.74 1.72c2.06.47 4.51 1 4.51 3.75 0 2-1.67 3.63-4.78 3.63a6.73 6.73 0 0 1-4.93-1.84zm11.14-12.05a1.44 1.44 0 0 1 1.42-1.42A1.42 1.42 0 0 1 255 1410a1.4 1.4 0 0 1-1.42 1.4 1.42 1.42 0 0 1-1.44-1.4zm.34 3.38h2.21v11.84h-2.21zm6.15 9.21v-7.28h-2v-1.94h2v-3.24h2.21v3.24h2.4v1.94h-2.4v6.79c0 .83.39 1.45 1.15 1.45a1.7 1.7 0 0 0 1.2-.47l.56 1.67a3.14 3.14 0 0 1-2.3.76c-1.86 0-2.82-1.06-2.82-2.92zm7.8 5.46a1.64 1.64 0 0 0 1.72-1.15l.69-1.57-4.88-12h2.35l3.7 9.29 3.7-9.29h2.38l-5.83 14.09a3.74 3.74 0 0 1-3.77 2.55 6.4 6.4 0 0 1-1.37-.17l.34-2a2.68 2.68 0 0 0 .97.25z" class="cls-3"/><path d="M454.4 418.02h38.14v203.46H454.4m0-228.14h38.14" class="cls-11"/><path d="M519.67 685.64h13.15c4.76 0 7.2 3 7.2 6.37a5.55 5.55 0 0 1-4.31 5.73 6.06 6.06 0 0 1 4.8 6.15c0 3.75-2.51 6.75-7.27 6.75h-13.57zm12 10a2.76 2.76 0 1 0 0-5.51H525v5.51zm.19 10.42c2 0 3.22-1.16 3.22-3a2.92 2.92 0 0 0-3.22-2.92H525v5.88zm12.54-20.42h4.76v25h-4.76zm17.69 6.45c5.4 0 9.07 4 9.07 10v1H557.7a4.88 4.88 0 0 0 5.21 4.2 7.4 7.4 0 0 0 4.83-1.8l2.1 3.07a11.16 11.16 0 0 1-7.46 2.51c-5.51 0-9.67-3.71-9.67-9.52a9.21 9.21 0 0 1 9.38-9.46zm-4.46 7.79h8.92a4.19 4.19 0 0 0-4.46-4 4.35 4.35 0 0 0-4.46 4zm29.19-.18c0-2.51-1.31-3.37-3.34-3.37a5.16 5.16 0 0 0-4.12 2.14v12.18h-4.76v-18.1h4.76v2.36a8.29 8.29 0 0 1 6.33-2.81c4 0 5.88 2.25 5.88 5.77v12.78h-4.76zm21.92 8.65a7.1 7.1 0 0 1-5.58 2.74c-4.57 0-8-3.45-8-9.48s3.41-9.52 8-9.52a7 7 0 0 1 5.58 2.77v-9.22h4.8v25h-4.8zm0-10a5.23 5.23 0 0 0-4.12-2.06c-2.7 0-4.57 2.14-4.57 5.28s1.87 5.25 4.57 5.25a5.23 5.23 0 0 0 4.12-2.06z" class="cls-5"/><path d="M628 685.64h13.15c4.76 0 7.2 3 7.2 6.37a5.55 5.55 0 0 1-4.31 5.73 6.06 6.06 0 0 1 4.8 6.15c0 3.75-2.51 6.75-7.27 6.75H628zm12 10a2.76 2.76 0 1 0 0-5.51h-6.67v5.51zm.19 10.42c2 0 3.22-1.16 3.22-3a2.92 2.92 0 0 0-3.22-2.92h-6.86v5.88zm12.51-20.42h4.76v25h-4.76zm20.3 23.13a7.49 7.49 0 0 1-5.73 2.32c-2.89 0-6.3-1.95-6.3-6 0-4.23 3.41-5.77 6.3-5.77a7.31 7.31 0 0 1 5.73 2.21V699c0-1.84-1.57-3-4-3a7.61 7.61 0 0 0-5.28 2.14l-1.8-3.19a11.87 11.87 0 0 1 7.91-2.85c4.12 0 7.91 1.65 7.91 6.86v11.69H673zm0-4.72a4.76 4.76 0 0 0-3.82-1.57c-1.87 0-3.41 1-3.41 2.74s1.54 2.66 3.41 2.66a4.76 4.76 0 0 0 3.82-1.57zm18-11.96a8.34 8.34 0 0 1 7.16 3.3l-3.16 2.88a4.48 4.48 0 0 0-3.82-1.95c-2.89 0-4.91 2.1-4.91 5.25s2 5.28 4.91 5.28a4.57 4.57 0 0 0 3.82-1.95l3.11 2.89a8.34 8.34 0 0 1-7.16 3.3 9.5 9.5 0 1 1 0-19zm17.16 11.58L706 706v4.65h-4.76v-25H706v15l6.86-8.06h5.85l-7.16 8.21 7.38 9.89h-6z" class="cls-3"/><path d="M541.48 725L533 745.81h-1.3L523.23 725v20.8h-3.11v-25h4.46l7.76 19 7.79-19h4.46v25h-3.11zm20.16 18.75a7.83 7.83 0 0 1-6 2.51c-3.07 0-6.33-2.06-6.33-6s3.26-6 6.33-6a7.57 7.57 0 0 1 6 2.47v-3.26c0-2.44-1.95-3.82-4.57-3.82a7.19 7.19 0 0 0-5.55 2.51l-1.31-1.95a9.47 9.47 0 0 1 7.23-3c3.82 0 7 1.72 7 6.11v12.44h-2.81zm0-5.17a6.06 6.06 0 0 0-5-2.25c-2.62 0-4.46 1.65-4.46 4s1.84 3.93 4.46 3.93a6.06 6.06 0 0 0 5-2.25zm14.24-.91l-3 3v5.17h-2.81v-25h2.81v16.53l9.52-9.63h3.6l-8 8.21 8.06 9.89h-3.6zm20.46-10.41c5.47 0 8.69 4.27 8.69 9.71v.71h-14.65a6.38 6.38 0 0 0 6.52 6.26 7.91 7.91 0 0 0 5.58-2.29l1.35 1.84a9.83 9.83 0 0 1-7.2 2.77c-5.36 0-9.22-3.86-9.22-9.52.01-5.25 3.76-9.48 8.93-9.48zm-6 8.36h11.88a5.87 5.87 0 0 0-6-6c-3.78-.04-5.69 3.22-5.84 5.99zm27.85 1.12c0-5.25 3.45-9.48 9-9.48s9 4.23 9 9.48-3.45 9.52-9 9.52-9-4.26-9-9.52zm15 0c0-3.67-2.14-7-6-7s-6 3.3-6 7 2.17 7 6 7 5.95-3.29 5.95-7zm8.04 5.26v-11.82h-3v-2.47h3v-4.95H644v4.95h3.67v2.47H644v11.24c0 1.35.6 2.32 1.84 2.32a2.71 2.71 0 0 0 1.91-.75l.82 2.1a4.59 4.59 0 0 1-3.37 1.16c-2.62.01-3.97-1.53-3.97-4.25zm22.71-8.11c0-3.19-1.65-4.12-4.08-4.12a7.11 7.11 0 0 0-5.36 2.81v13.23h-2.81v-25h2.81v9.52a9 9 0 0 1 6.48-3.07c3.79 0 5.77 1.84 5.77 5.77v12.78h-2.81zm16.3-6.63c5.47 0 8.69 4.27 8.69 9.71v.71h-14.64a6.38 6.38 0 0 0 6.52 6.26 7.91 7.91 0 0 0 5.58-2.29l1.35 1.84a9.83 9.83 0 0 1-7.2 2.77c-5.36 0-9.22-3.86-9.22-9.52 0-5.25 3.75-9.48 8.92-9.48zm-6 8.36h11.88a5.87 5.87 0 0 0-6-6c-3.77-.04-5.69 3.22-5.83 5.99zm19.23-7.91h2.81v2.92a7.7 7.7 0 0 1 6-3.3v2.89a4.94 4.94 0 0 0-1.12-.11 6.62 6.62 0 0 0-4.91 2.89v12.82h-2.81zm30.02-.45a7.75 7.75 0 0 1 6.63 3.15l-1.87 1.72a5.37 5.37 0 0 0-4.61-2.36c-3.86 0-6.26 3-6.26 7s2.4 7 6.26 7a5.46 5.46 0 0 0 4.61-2.36l1.87 1.72a7.75 7.75 0 0 1-6.63 3.15c-5.4 0-9-4.12-9-9.52s3.6-9.5 9-9.5zm9.51 9.48c0-5.25 3.45-9.48 9-9.48s9 4.23 9 9.48-3.45 9.52-9 9.52-9-4.26-9-9.52zm15 0c0-3.67-2.14-7-6-7s-6 3.3-6 7 2.17 7 6 7 6-3.29 6-7zm7.49-15.93h2.81v25h-2.81zm7.38 15.93c0-5.25 3.45-9.48 9-9.48s9 4.23 9 9.48-3.45 9.52-9 9.52-9-4.26-9-9.52zm15 0c0-3.67-2.14-7-6-7s-6 3.3-6 7 2.17 7 6 7 5.96-3.29 5.96-7zm19.71 6.52a8.85 8.85 0 0 1-6.45 3c-3.79 0-5.77-1.84-5.77-5.77v-12.78h2.81v11.92c0 3.19 1.61 4.12 4 4.12a6.93 6.93 0 0 0 5.36-2.74v-13.3h2.81v18.1h-2.81zm8.42-15.55h2.81v2.92a7.7 7.7 0 0 1 6-3.3v2.89a4.94 4.94 0 0 0-1.12-.11 6.62 6.62 0 0 0-4.91 2.89v12.82H806zm12.26 13.67a8.2 8.2 0 0 0 6 2.59c2.77 0 4.27-1.24 4.27-3 0-2-2.21-2.62-4.65-3.22-3.07-.71-6.56-1.54-6.56-5.28 0-2.81 2.44-5.21 6.75-5.21a9.16 9.16 0 0 1 6.71 2.62l-1.31 1.95a7.05 7.05 0 0 0-5.4-2.29c-2.47 0-4 1.12-4 2.74s2.06 2.32 4.42 2.89c3.15.71 6.78 1.61 6.78 5.62 0 3-2.44 5.47-7.12 5.47a9.63 9.63 0 0 1-7.31-2.85z" class="cls-5"/><path d="M845 720.81h4.76v25H845zm9 1.39a2.85 2.85 0 1 1 2.85 2.85 2.87 2.87 0 0 1-2.85-2.85zm.49 5.51h4.76v18.1h-4.75zM865.74 747a7.2 7.2 0 0 0 5.66 2.25c2.29 0 5-1 5-4.57v-1.84a7 7 0 0 1-5.58 2.85c-4.53 0-8-3.19-8-9.22s3.41-9.22 8-9.22a7 7 0 0 1 5.58 2.77v-2.32h4.8v16.86c0 6.9-5.32 8.58-9.78 8.58a10.91 10.91 0 0 1-7.79-2.7zm10.64-13.45a5.16 5.16 0 0 0-4.08-2.06c-2.7 0-4.57 1.87-4.57 5s1.87 5 4.57 5a5.27 5.27 0 0 0 4.08-2.06zm21.78 1.24c0-2.51-1.31-3.3-3.37-3.3a5.27 5.27 0 0 0-4.12 2.14v12.18h-4.77v-25h4.76v9.26a8.38 8.38 0 0 1 6.37-2.81c4 0 5.88 2.17 5.88 5.7v12.85h-4.76zm10.41 6.52v-9.44h-3v-4.16h3v-4.95h4.8v4.95H917v4.16h-3.67V740c0 1.12.6 2 1.65 2a2.6 2.6 0 0 0 1.65-.52l1 3.6a5.88 5.88 0 0 1-4 1.16c-3.26.02-5.06-1.71-5.06-4.93zm19.94-14.05c5.4 0 9.07 4 9.07 10v1h-13.45a4.88 4.88 0 0 0 5.21 4.2 7.4 7.4 0 0 0 4.83-1.8l2.1 3.07a11.16 11.16 0 0 1-7.46 2.51c-5.51 0-9.67-3.71-9.67-9.52a9.21 9.21 0 0 1 9.37-9.46zm-4.46 7.79H933a4.19 4.19 0 0 0-4.46-4 4.35 4.35 0 0 0-4.49 4zm16.95-7.34h4.76v2.47a7.74 7.74 0 0 1 5.77-2.89v4.65a6.34 6.34 0 0 0-1.31-.11 6 6 0 0 0-4.46 2v12H941zm12.69 12.44a3 3 0 1 1-3 3 3.07 3.07 0 0 1 3-3z" class="cls-7"/><path d="M454.4 621.48h38.14v203.47H454.4" class="cls-11"/><path d="M519.67 927.71h13.15c4.76 0 7.2 3 7.2 6.37a5.55 5.55 0 0 1-4.31 5.73 6.06 6.06 0 0 1 4.8 6.15c0 3.75-2.51 6.75-7.27 6.75h-13.57zm12 10a2.76 2.76 0 1 0 0-5.51H525v5.51zm.19 10.42c2 0 3.22-1.16 3.22-3a2.92 2.92 0 0 0-3.22-2.92H525v5.88zm12.54-20.42h4.76v25h-4.76zm17.69 6.45c5.4 0 9.07 4 9.07 10v1H557.7a4.88 4.88 0 0 0 5.21 4.2 7.4 7.4 0 0 0 4.83-1.8l2.1 3.07a11.16 11.16 0 0 1-7.46 2.51c-5.51 0-9.67-3.71-9.67-9.52a9.21 9.21 0 0 1 9.38-9.46zm-4.46 7.84h8.92a4.19 4.19 0 0 0-4.46-4 4.35 4.35 0 0 0-4.46 4zm29.19-.23c0-2.51-1.31-3.37-3.34-3.37a5.16 5.16 0 0 0-4.12 2.14v12.18h-4.76v-18.1h4.76V937a8.29 8.29 0 0 1 6.33-2.81c4 0 5.88 2.25 5.88 5.77v12.78h-4.76zm21.92 8.65a7.1 7.1 0 0 1-5.58 2.74c-4.57 0-8-3.45-8-9.48s3.41-9.52 8-9.52a7 7 0 0 1 5.58 2.77v-9.22h4.8v25h-4.8zm0-10a5.23 5.23 0 0 0-4.12-2.06c-2.7 0-4.57 2.14-4.57 5.28s1.87 5.25 4.57 5.25a5.23 5.23 0 0 0 4.12-2.06z" class="cls-5"/><path d="M640.07 927.3a11.71 11.71 0 0 1 10.34 5.47l-4.42 2.4a7.09 7.09 0 0 0-5.92-3.15c-4.53 0-7.83 3.49-7.83 8.21s3.3 8.21 7.83 8.21a8.44 8.44 0 0 0 5.4-1.91v-3h-6.67v-4.57h11.92v9.56a13.88 13.88 0 0 1-10.64 4.72c-7.31 0-13.3-5.1-13.3-13s5.98-12.94 13.29-12.94zm14.77 7.31h4.76v2.47a7.74 7.74 0 0 1 5.77-2.89v4.65a6.31 6.31 0 0 0-1.31-.11 6 6 0 0 0-4.46 2v12h-4.76zm21.69-.45c5.4 0 9.07 4 9.07 10v1h-13.45a4.88 4.88 0 0 0 5.21 4.2 7.4 7.4 0 0 0 4.83-1.8l2.1 3.07a11.15 11.15 0 0 1-7.46 2.51c-5.51 0-9.67-3.71-9.67-9.52a9.21 9.21 0 0 1 9.37-9.46zm-4.46 7.84H681a4.19 4.19 0 0 0-4.46-4 4.35 4.35 0 0 0-4.47 4zm18.55 13.82a2.4 2.4 0 0 0 2.51-1.31l.67-1.54-7.35-18.36h5.1l4.72 12.59 4.73-12.59h5.13l-8.51 21.06c-1.35 3.41-3.75 4.31-6.86 4.38a13.05 13.05 0 0 1-2.36-.26l.71-4.27a4.11 4.11 0 0 0 1.51.3z" class="cls-12"/><path d="M541.48 967.08l-8.48 20.8h-1.3l-8.47-20.8v20.8h-3.11v-25h4.46l7.76 19 7.79-19h4.46v25h-3.11zm20.16 18.73a7.83 7.83 0 0 1-6 2.51c-3.07 0-6.33-2.06-6.33-6s3.26-6 6.33-6a7.57 7.57 0 0 1 6 2.47v-3.26c0-2.44-1.95-3.82-4.57-3.82a7.19 7.19 0 0 0-5.55 2.51l-1.31-1.95a9.48 9.48 0 0 1 7.23-3c3.82 0 7 1.72 7 6.11v12.44h-2.81zm0-5.17a6.06 6.06 0 0 0-5-2.25c-2.62 0-4.46 1.65-4.46 4s1.84 3.93 4.46 3.93a6.06 6.06 0 0 0 5-2.25zm14.24-.9l-3 3v5.17h-2.81v-25h2.81v16.53l9.52-9.63h3.6l-8 8.21 8.06 9.89h-3.6zm20.46-10.41c5.47 0 8.69 4.27 8.69 9.71v.71h-14.65a6.38 6.38 0 0 0 6.52 6.25 7.91 7.91 0 0 0 5.58-2.29l1.35 1.84a9.83 9.83 0 0 1-7.2 2.77c-5.36 0-9.22-3.86-9.22-9.52.01-5.24 3.76-9.47 8.93-9.47zm-6 8.36h11.88a5.87 5.87 0 0 0-6-6c-3.78-.04-5.69 3.22-5.84 5.99z" class="cls-5"/><path d="M631.23 985.59a7.1 7.1 0 0 1-5.58 2.74c-4.57 0-8-3.45-8-9.48s3.41-9.52 8-9.52a7 7 0 0 1 5.58 2.77v-9.22H636v25h-4.8zm0-10a5.23 5.23 0 0 0-4.12-2.06c-2.7 0-4.57 2.14-4.57 5.28s1.87 5.25 4.57 5.25a5.23 5.23 0 0 0 4.12-2.06zM651.61 986a7.49 7.49 0 0 1-5.73 2.32c-2.89 0-6.3-1.95-6.3-6 0-4.24 3.41-5.77 6.3-5.77a7.31 7.31 0 0 1 5.73 2.21v-2.51c0-1.84-1.57-3-4-3a7.62 7.62 0 0 0-5.28 2.14l-1.8-3.19a11.87 11.87 0 0 1 7.91-2.85c4.12 0 7.91 1.65 7.91 6.86v11.69h-4.76zm0-4.72a4.76 4.76 0 0 0-3.82-1.57c-1.87 0-3.41 1-3.41 2.74s1.54 2.66 3.41 2.66a4.76 4.76 0 0 0 3.82-1.57zm9.48-11.5h4.76v2.47a7.74 7.74 0 0 1 5.77-2.89V974a6.37 6.37 0 0 0-1.31-.11 6 6 0 0 0-4.46 2v12h-4.76zm20.43 11.13l-2.17 2.32v4.65h-4.76v-25h4.76v15l6.86-8.06H692l-7.11 8.18 7.38 9.89h-6zm13.34 1.27a10.36 10.36 0 0 0 6.26 2.47c2.06 0 3-.71 3-1.84s-1.57-1.72-3.64-2.14c-3.11-.6-7.12-1.35-7.12-5.66 0-3 2.66-5.7 7.42-5.7a11.37 11.37 0 0 1 7.27 2.47l-1.87 3.26a7.63 7.63 0 0 0-5.36-2.1c-1.72 0-2.85.64-2.85 1.69s1.42 1.54 3.45 1.95c3.11.6 7.27 1.42 7.27 5.92 0 3.34-2.81 5.81-7.83 5.81a12.18 12.18 0 0 1-8.09-2.81zm27.06-19.3h4.76v25h-4.76zm8.99 1.39a2.85 2.85 0 1 1 2.85 2.85 2.87 2.87 0 0 1-2.85-2.85zm.49 5.51h4.76v18.1h-4.76zm11.24 19.3a7.19 7.19 0 0 0 5.66 2.25c2.29 0 5-1 5-4.57v-1.84a7 7 0 0 1-5.58 2.85c-4.53 0-8-3.19-8-9.22s3.41-9.22 8-9.22a7 7 0 0 1 5.58 2.77v-2.32h4.8v16.86c0 6.9-5.32 8.58-9.78 8.58a10.91 10.91 0 0 1-7.79-2.7zm10.64-13.45a5.16 5.16 0 0 0-4.08-2.06c-2.7 0-4.57 1.87-4.57 5s1.87 5 4.57 5a5.27 5.27 0 0 0 4.08-2.06zm21.77 1.23c0-2.51-1.31-3.3-3.37-3.3a5.27 5.27 0 0 0-4.12 2.14v12.18h-4.76v-25h4.76v9.26a8.38 8.38 0 0 1 6.37-2.81c4 0 5.88 2.17 5.88 5.7v12.85h-4.76zm10.42 6.52v-9.44h-3v-4.16h3v-4.95h4.8v4.95h3.67v4.16h-3.67v8.17c0 1.12.6 2 1.65 2a2.6 2.6 0 0 0 1.65-.52l1 3.6a5.88 5.88 0 0 1-4 1.16c-3.3-.02-5.1-1.75-5.1-4.97zm19.94-14.05c5.4 0 9.07 4 9.07 10v1H801a4.88 4.88 0 0 0 5.21 4.2 7.4 7.4 0 0 0 4.83-1.8l2.1 3.07a11.16 11.16 0 0 1-7.46 2.51c-5.51 0-9.67-3.71-9.67-9.52a9.21 9.21 0 0 1 9.4-9.46zm-4.46 7.79h8.92a4.19 4.19 0 0 0-4.46-4 4.35 4.35 0 0 0-4.46 4zm16.97-7.34h4.76v2.47a7.74 7.74 0 0 1 5.77-2.89V974a6.37 6.37 0 0 0-1.31-.11 6 6 0 0 0-4.46 2v12h-4.76zm12.67 12.44a3 3 0 1 1-3 3 3.07 3.07 0 0 1 3-3z" class="cls-7"/><path d="M541.48 1002.24L533 1023h-1.3l-8.47-20.8v20.8h-3.11v-25h4.46l7.76 19 7.79-19h4.46v25h-3.11zm20.16 18.76a7.83 7.83 0 0 1-6 2.51c-3.07 0-6.33-2.06-6.33-6s3.26-6 6.33-6a7.57 7.57 0 0 1 6 2.47v-3.26c0-2.44-1.95-3.82-4.57-3.82a7.19 7.19 0 0 0-5.55 2.51l-1.31-1.95a9.48 9.48 0 0 1 7.23-3c3.82 0 7 1.72 7 6.11V1023h-2.81zm0-5.17a6.06 6.06 0 0 0-5-2.25c-2.62 0-4.46 1.65-4.46 4s1.84 3.93 4.46 3.93a6.06 6.06 0 0 0 5-2.25zm14.24-.92l-3 3v5.09h-2.81v-25h2.81v16.53l9.52-9.63h3.6l-8 8.21 8 9.89h-3.6zm20.46-10.42c5.47 0 8.69 4.27 8.69 9.71v.71h-14.65a6.38 6.38 0 0 0 6.52 6.26 7.91 7.91 0 0 0 5.58-2.29l1.35 1.84a9.83 9.83 0 0 1-7.2 2.77c-5.36 0-9.22-3.86-9.22-9.52.01-5.24 3.76-9.48 8.93-9.48zm-6 8.36h11.88a5.87 5.87 0 0 0-6-6c-3.78-.03-5.69 3.23-5.84 6z" class="cls-5"/><path d="M618.79 998h4.76v25h-4.76zm8.99 1.43a2.85 2.85 0 1 1 2.85 2.85 2.87 2.87 0 0 1-2.85-2.85zm.49 5.51H633V1023h-4.76zm11.24 19.3a7.19 7.19 0 0 0 5.66 2.25c2.29 0 5-1 5-4.57v-1.84a7 7 0 0 1-5.58 2.85c-4.53 0-8-3.19-8-9.22s3.41-9.22 8-9.22a7 7 0 0 1 5.58 2.77v-2.32h4.8v16.86c0 6.9-5.32 8.58-9.78 8.58a10.91 10.91 0 0 1-7.79-2.7zm10.64-13.45a5.16 5.16 0 0 0-4.08-2.06c-2.7 0-4.57 1.87-4.57 5s1.87 5 4.57 5a5.27 5.27 0 0 0 4.08-2.06zm21.77 1.21c0-2.51-1.31-3.3-3.37-3.3a5.27 5.27 0 0 0-4.12 2.14V1023h-4.76v-25h4.76v9.26a8.38 8.38 0 0 1 6.37-2.81c4 0 5.88 2.17 5.88 5.7V1023h-4.76zm10.42 6.55v-9.44h-3v-4.16h3V1000h4.8v4.95h3.67v4.16h-3.67v8.17c0 1.13.6 2 1.65 2a2.6 2.6 0 0 0 1.65-.52l1 3.6a5.88 5.88 0 0 1-4 1.16c-3.3-.03-5.1-1.75-5.1-4.97zm12.22-1.2a10.36 10.36 0 0 0 6.26 2.47c2.06 0 3-.71 3-1.84s-1.57-1.72-3.64-2.14c-3.11-.6-7.12-1.35-7.12-5.66 0-3 2.66-5.7 7.42-5.7a11.37 11.37 0 0 1 7.27 2.47l-1.87 3.26a7.63 7.63 0 0 0-5.36-2.1c-1.72 0-2.85.64-2.85 1.69s1.42 1.54 3.45 1.95c3.11.6 7.27 1.42 7.27 5.92 0 3.34-2.81 5.81-7.83 5.81a12.18 12.18 0 0 1-8.09-2.81zm39.44 3.41a7.1 7.1 0 0 1-5.58 2.74c-4.57 0-8-3.45-8-9.48s3.41-9.52 8-9.52a7 7 0 0 1 5.58 2.77V998h4.8v25H734zm0-10a5.23 5.23 0 0 0-4.12-2.06c-2.7 0-4.57 2.14-4.57 5.28s1.87 5.25 4.57 5.25a5.23 5.23 0 0 0 4.12-2.06zm20.37 10.41a7.49 7.49 0 0 1-5.73 2.32c-2.89 0-6.3-1.95-6.3-6 0-4.23 3.41-5.77 6.3-5.77a7.31 7.31 0 0 1 5.73 2.21v-2.51c0-1.84-1.57-3-4-3a7.61 7.61 0 0 0-5.28 2.14l-1.8-3.19a11.87 11.87 0 0 1 7.91-2.85c4.12 0 7.91 1.65 7.91 6.86V1023h-4.76zm0-4.72a4.76 4.76 0 0 0-3.82-1.57c-1.87 0-3.41 1-3.41 2.74s1.54 2.66 3.41 2.66a4.76 4.76 0 0 0 3.82-1.57zm9.48-11.51h4.76v2.47a7.74 7.74 0 0 1 5.77-2.89v4.65a6.31 6.31 0 0 0-1.31-.11 6 6 0 0 0-4.46 2v12h-4.76zm20.42 11.13l-2.17 2.32v4.61h-4.76v-25h4.76v15l6.86-8.06h5.85l-7.16 8.21L795 1023h-6zm20.54-11.58c5.4 0 9.07 4 9.07 10v1h-13.46a4.88 4.88 0 0 0 5.21 4.2 7.4 7.4 0 0 0 4.83-1.8l2.1 3.07a11.15 11.15 0 0 1-7.46 2.51c-5.51 0-9.67-3.71-9.67-9.52a9.21 9.21 0 0 1 9.38-9.46zm-4.46 7.79h8.92a4.19 4.19 0 0 0-4.46-4 4.35 4.35 0 0 0-4.46 4.01zm16.97-7.34h4.76v2.47a7.74 7.74 0 0 1 5.77-2.89v4.65a6.31 6.31 0 0 0-1.31-.11 6 6 0 0 0-4.46 2v12h-4.76zm12.68 12.44a3 3 0 1 1-3 3 3.07 3.07 0 0 1 3-3z" class="cls-6"/><path d="M454.4 824.95h38.14v273.26H454.4" class="cls-11"/></svg>