<svg xmlns="http://www.w3.org/2000/svg" width="9.9in" height="5.9in" viewBox="0 0 710 424"><defs><clipPath id="a"><path fill="none" d="M0 0h710v424H0z"/></clipPath><clipPath id="b"><path fill="none" d="M120.2 2.5h116.7v37.42H120.2z"/></clipPath><clipPath id="c"><path fill="none" d="M237.8 2.5h116.7v37.42H237.8z"/></clipPath><clipPath id="d"><path fill="none" d="M355.5 2.5h116.7v37.42H355.5z"/></clipPath><clipPath id="e"><path fill="none" d="M473.2 2.5h116.7v37.42H473.2z"/></clipPath><clipPath id="f"><path fill="none" d="M590.8 2.5h116.7v37.42H590.8z"/></clipPath><clipPath id="g"><path fill="none" d="M2.5 40.7h116.7v37.67H2.5z"/></clipPath><clipPath id="h"><path fill="none" d="M2.5 79.3h116.7v37.42H2.5z"/></clipPath><clipPath id="i"><path fill="none" d="M2.5 117.7h116.7v37.42H2.5z"/></clipPath><clipPath id="j"><path fill="none" d="M2.5 156.2h116.7v37.42H2.5z"/></clipPath><clipPath id="k"><path fill="none" d="M120.2 156.2h116.7v114.25H120.2z"/></clipPath><clipPath id="l"><path fill="none" d="M2.5 194.6h116.7v37.42H2.5z"/></clipPath><clipPath id="m"><path fill="none" d="M237.8 194.6h116.7v114.25H237.8z"/></clipPath><clipPath id="n"><path fill="none" d="M473.2 194.6h116.7v114.25H473.2z"/></clipPath><clipPath id="o"><path fill="none" d="M2.5 233h116.7v37.42H2.5z"/></clipPath><clipPath id="p"><path fill="none" d="M2.5 271.4h116.7v37.42H2.5z"/></clipPath><clipPath id="q"><path fill="none" d="M2.5 309.8h116.7v34.46H2.5z"/></clipPath><clipPath id="r"><path fill="none" d="M2.5 345.3h116.7v37.42H2.5z"/></clipPath><clipPath id="s"><path fill="none" d="M2.5 383.7h116.7v37.42H2.5z"/></clipPath></defs><g clip-path="url(#a)"><path fill="#ebebeb" d="M2 2h117.7v38.42H2zm117.7 0h117.7v38.42H119.7z"/><path fill="#ebebeb" d="M237.3 2H355v38.42H237.3zM355 2h117.7v38.42H355zm117.7 0h117.7v38.42H472.7z"/><path fill="#ebebeb" d="M590.3 2H708v38.42H590.3z"/><path fill="#fff" d="M119.7 40.4h117.7v38.42H119.7z"/><path fill="#fff" d="M237.3 40.4H355v38.42H237.3zm117.7 0h117.7v38.42H355zm117.7 0h117.7v38.42H472.7z"/><path fill="#fff" d="M590.3 40.4H708v38.42H590.3zM119.7 78.8h117.7v38.42H119.7z"/><path fill="#fff" d="M237.3 78.8H355v38.42H237.3zm117.7 0h117.7v38.42H355zm117.7 0h117.7v38.42H472.7z"/><path fill="#fff" d="M590.3 78.8H708v38.42H590.3zm-470.6 38.4h117.7v38.42H119.7z"/><path fill="#fff" d="M237.3 117.2H355v38.42H237.3zm117.7 0h117.7v38.42H355zm117.7 0h117.7v38.42H472.7z"/><path fill="#fff" d="M590.3 117.2H708v38.42H590.3z"/><path fill="#94c947" d="M119.7 155.7h117.7v115.25H119.7z"/><path fill="#fff" d="M237.3 155.7H355v38.42H237.3zm117.7 0h117.7v38.42H355zm117.7 0h117.7v38.42H472.7z"/><path fill="#fff" d="M590.3 155.7H708v38.42H590.3z"/><path fill="#94c947" d="M237.3 194.1H355v115.25H237.3z"/><path fill="#fff" d="M355 194.1h117.7v38.42H355z"/><path fill="#94c947" d="M472.7 194.1h117.7v115.25H472.7z"/><path fill="#fff" d="M355 232.5h117.7v38.42H355zm235.3 0H708v38.42H590.3zm-470.6 38.4h117.7v38.42H119.7z"/><path fill="#fff" d="M355 270.9h117.7v38.42H355zm235.3 0H708v38.42H590.3zm-470.6 38.4h117.7v35.46H119.7z"/><path fill="#fff" d="M237.3 309.3H355v35.46H237.3zm117.7 0h117.7v35.46H355zm117.7 0h117.7v35.46H472.7z"/><path fill="#fff" d="M590.3 309.3H708v35.46H590.3zm-470.6 35.5h117.7v38.42H119.7z"/><path fill="#fff" d="M237.3 344.8H355v38.42H237.3zm117.7 0h117.7v38.42H355zm117.7 0h117.7v38.42H472.7z"/><path fill="#fff" d="M119.7 383.2h117.7v38.42H119.7z"/><path fill="#fff" d="M237.3 383.2H355v38.42H237.3zm117.7 0h117.7v38.42H355zm117.7 0h117.7v38.42H472.7z"/><path fill="#fff" d="M590.3 383.2H708v38.42H590.3z"/></g><g clip-path="url(#b)"><path d="M158.9 16.6l2 5.9 1.9-5.9h2.7v8.6h-1.8v-6.1l-2.1 6.1h-1.5l-2.1-6v6h-1.8v-8.6zm8.1 4.1a2.8 2.8 0 0 1 1.7-1.7l1.3-.2 1.3.2a2.8 2.8 0 0 1 1.7 1.7 3.8 3.8 0 0 1 .2 1.4 3.8 3.8 0 0 1-.2 1.3 2.9 2.9 0 0 1-.6 1 2.8 2.8 0 0 1-1 .7l-1.3.2-1.3-.2a2.8 2.8 0 0 1-1-.7 2.9 2.9 0 0 1-.6-1 3.8 3.8 0 0 1-.2-1.3 3.8 3.8 0 0 1 0-1.4zm1.5 2.1a1.9 1.9 0 0 0 .2.6l.5.5.7.2.7-.2.5-.5a1.9 1.9 0 0 0 .2-.6 3.6 3.6 0 0 0 .1-.7 3.7 3.7 0 0 0-.1-.7 1.9 1.9 0 0 0-.2-.6l-.5-.5-.7-.2-.7.2-.5.5a1.9 1.9 0 0 0-.2.6 3.7 3.7 0 0 0-.1.7 3.6 3.6 0 0 0 .2.7zm7.4-3.8v.9a2 2 0 0 1 .8-.8l1.1-.2 1.1.2.7.5a2 2 0 0 1 .4.8 5 5 0 0 1 .1 1v3.8h-1.7v-3.5a2.2 2.2 0 0 0-.2-1.1.9.9 0 0 0-.9-.4 1.2 1.2 0 0 0-1 .4 2.3 2.3 0 0 0-.3 1.4v3.3h-1.7V19zm9.9 5.4a1.8 1.8 0 0 1-.8.7l-1.1.2a2.6 2.6 0 0 1-1.2-.3 2.5 2.5 0 0 1-.9-.7 3.3 3.3 0 0 1-.5-1.1 4.4 4.4 0 0 1-.2-1.2 4.2 4.2 0 0 1 .2-1.2 3.1 3.1 0 0 1 .5-1 2.5 2.5 0 0 1 2.1-1l1.1.2a1.8 1.8 0 0 1 .8.7v-3.1h1.7v8.6h-1.6v-.8zm-.1-3.1a1.8 1.8 0 0 0-.2-.6l-.4-.4-.7-.2-.7.2-.5.4a1.9 1.9 0 0 0-.3.6 3.4 3.4 0 0 0-.1.7 3.2 3.2 0 0 0 .1.7 2 2 0 0 0 .3.6l.5.5.7.2.7-.2.5-.5a2 2 0 0 0 .2-.6 3.8 3.8 0 0 0 .1-.7 3.7 3.7 0 0 0-.2-.7zm3-.4a2 2 0 0 1 .3-1l.7-.6.9-.3h2l.9.3.6.5a1.5 1.5 0 0 1 .3.9v3.2a6.4 6.4 0 0 0 0 .8 1.4 1.4 0 0 0 .2.6h-1.7v-.6a2.2 2.2 0 0 1-1 .6l-1.1.2h-.8l-.7-.3-.5-.6a1.9 1.9 0 0 1-.2-.8 1.8 1.8 0 0 1 .2-.9l.5-.5.7-.3.8-.2h1.2l.5-.2a.5.5 0 0 0 .2-.4.9.9 0 0 0-.1-.4l-.2-.3h-.8l-.8.2a1 1 0 0 0-.3.7zm3.9 1.3l-.3.2h-1.5l-.3.2-.2.3a.8.8 0 0 0-.1.4.8.8 0 0 0 .1.4l.2.2h.7l.8-.2.4-.4a1.3 1.3 0 0 0 .2-.5v-1zm5.3 4.8a2.5 2.5 0 0 1-1.4.3h-1v-1.4h1l.5-.3a.9.9 0 0 0 .2-.5 1 1 0 0 0-.1-.4l-2.2-5.7h1.8l1.4 4.2 1.4-4.2h1.8l-2.6 7a2.1 2.1 0 0 1-.8 1z"/></g><g clip-path="url(#c)"><path d="M272.6 18.2v-1.6h7v1.6H277v7h-1.9v-7z"/><path d="M283.5 25.2v-.9a1.9 1.9 0 0 1-.8.8l-1.1.2-1.1-.2-.7-.5a2 2 0 0 1-.4-.8 5 5 0 0 1-.1-1V19h1.7v3.5a2.2 2.2 0 0 0 .2 1.1.9.9 0 0 0 .9.4 1.2 1.2 0 0 0 1-.4 2.3 2.3 0 0 0 .3-1.4V19h1.7v6.2zm4.8-1.5a1.5 1.5 0 0 0 1.1.4l.9-.3a1.1 1.1 0 0 0 .5-.5h1.5a2.8 2.8 0 0 1-1.1 1.6 3.2 3.2 0 0 1-1.8.5l-1.3-.2a2.7 2.7 0 0 1-1-.7 3 3 0 0 1-.6-1 3.8 3.8 0 0 1-.2-1.3 3.6 3.6 0 0 1 .2-1.3 3 3 0 0 1 .6-1l1-.7 1.3-.3a3 3 0 0 1 1.4.3 2.8 2.8 0 0 1 1 .8 3.4 3.4 0 0 1 .5 1.2 4.4 4.4 0 0 1 .1 1.4h-4.5a1.7 1.7 0 0 0 .4 1.1zm1.9-3.3a1.2 1.2 0 0 0-.9-.3h-.7l-.4.3-.2.4v.4h2.8a2 2 0 0 0-.6-.8zm4.6 3.2l.3.3.4.2h1.2l.3-.2a.6.6 0 0 0 .1-.4q0-.4-.5-.6l-1.4-.4-.7-.2-.6-.3-.4-.5a1.3 1.3 0 0 1-.2-.7 1.9 1.9 0 0 1 .2-1 1.7 1.7 0 0 1 .6-.6l.9-.3h2l.8.3.6.6a2 2 0 0 1 .3 1H297a.7.7 0 0 0-.4-.7l-.8-.2h-.6l-.2.2a.5.5 0 0 0-.1.3.5.5 0 0 0 .2.4l.4.2.6.2.7.2.7.2.6.3.4.5a1.4 1.4 0 0 1 .2.7 1.9 1.9 0 0 1-.9 1.7l-.9.4h-2.1l-.9-.4a2 2 0 0 1-.9-1.7h1.6a.9.9 0 0 0 .2.5zm9.4.8a1.8 1.8 0 0 1-.8.7l-1.1.2a2.6 2.6 0 0 1-1.2-.3 2.5 2.5 0 0 1-.9-.7 3.3 3.3 0 0 1-.5-1.1 4.4 4.4 0 0 1-.2-1.2 4.2 4.2 0 0 1 .2-1.2 3.1 3.1 0 0 1 .5-1 2.5 2.5 0 0 1 2.1-1l1.1.2a1.8 1.8 0 0 1 .8.7v-3.1h1.7v8.6h-1.6v-.8zm-.1-3.1a1.8 1.8 0 0 0-.2-.6l-.4-.4-.7-.2-.7.2-.5.4a1.9 1.9 0 0 0-.3.6 3.4 3.4 0 0 0-.1.7 3.2 3.2 0 0 0 .1.7 2 2 0 0 0 .3.6l.5.5.7.2.7-.2.5-.5a2 2 0 0 0 .2-.6 3.8 3.8 0 0 0 .1-.7 3.7 3.7 0 0 0-.2-.7zm2.9-.4a2 2 0 0 1 .3-1l.7-.6.9-.3h2l.9.3.6.5a1.5 1.5 0 0 1 .3.9v3.2a6.4 6.4 0 0 0 0 .8 1.4 1.4 0 0 0 .2.6h-1.7v-.6a2.2 2.2 0 0 1-1 .6l-1.1.2h-.8l-.7-.3-.5-.6a1.9 1.9 0 0 1-.2-.8 1.8 1.8 0 0 1 .2-.9l.5-.5.7-.3.8-.2h1.4l.5-.2a.5.5 0 0 0 .2-.4.9.9 0 0 0-.1-.4l-.2-.3h-.8l-.8.2a1 1 0 0 0-.3.7zm3.9 1.3l-.3.2h-1.5l-.3.2-.2.3a.8.8 0 0 0-.1.4.8.8 0 0 0 .1.4l.2.2h.7l.8-.2.4-.4a1.3 1.3 0 0 0 .2-.5v-1zm5.4 4.8a2.5 2.5 0 0 1-1.4.3h-1v-1.4h1l.5-.3a.9.9 0 0 0 .2-.5 1 1 0 0 0-.1-.4l-2.2-5.7h1.8l1.4 4.2 1.4-4.2h1.8l-2.6 7a2.1 2.1 0 0 1-.8 1z"/></g><g clip-path="url(#d)"><path d="M388.6 25.2l-1.5-5.8-1.4 5.8h-1.9l-2.3-8.6h1.9l1.4 5.8 1.5-5.8h1.7l1.5 5.9 1.4-5.9h1.8l-2.3 8.6zm6-1.5a1.5 1.5 0 0 0 1.1.4l.9-.3a1.1 1.1 0 0 0 .5-.5h1.5a2.8 2.8 0 0 1-1.1 1.6 3.2 3.2 0 0 1-1.8.5l-1.3-.2a2.7 2.7 0 0 1-1-.7 3 3 0 0 1-.6-1 3.8 3.8 0 0 1-.2-1.3 3.6 3.6 0 0 1 .2-1.3 3 3 0 0 1 .6-1l1-.7 1.3-.3a3 3 0 0 1 1.4.3 2.8 2.8 0 0 1 1 .8 3.4 3.4 0 0 1 .5 1.2 4.4 4.4 0 0 1 .1 1.4h-4.5a1.7 1.7 0 0 0 .4 1.1zm1.9-3.3a1.2 1.2 0 0 0-.9-.3h-.7l-.4.3-.2.4v.4h2.8a2 2 0 0 0-.6-.8zm7.5 4a1.8 1.8 0 0 1-.8.7l-1.1.2a2.6 2.6 0 0 1-1.2-.3 2.5 2.5 0 0 1-.9-.7 3.3 3.3 0 0 1-.5-1.1 4.4 4.4 0 0 1-.2-1.2 4.2 4.2 0 0 1 .2-1.2 3.1 3.1 0 0 1 .5-1 2.6 2.6 0 0 1 .9-.7 2.5 2.5 0 0 1 1.2-.3l1 .2a1.8 1.8 0 0 1 .8.7v-3.1h1.7v8.6H404v-.8zm-.1-3.1a1.8 1.8 0 0 0-.2-.6l-.4-.4-.7-.2-.7.2-.5.4a2 2 0 0 0-.3.6 3.4 3.4 0 0 0-.1.7 3.2 3.2 0 0 0 .1.7 2 2 0 0 0 .3.6l.5.5.7.2.7-.2.4-.5a2 2 0 0 0 .2-.6 3.8 3.8 0 0 0 .1-.7 3.7 3.7 0 0 0 0-.7zm4.7-2.3v.9a2 2 0 0 1 .8-.8l1.1-.2 1.1.2.7.5a2 2 0 0 1 .4.8 5 5 0 0 1 .1 1v3.8h-1.7v-3.5a2.2 2.2 0 0 0-.2-1.1.9.9 0 0 0-.9-.4 1.2 1.2 0 0 0-1 .4 2.3 2.3 0 0 0-.3 1.4v3.3H407V19zm7.3 4.7a1.5 1.5 0 0 0 1.1.4l.9-.3a1.1 1.1 0 0 0 .5-.5h1.5a2.8 2.8 0 0 1-1.1 1.6 3.2 3.2 0 0 1-1.8.5l-1.3-.2a2.7 2.7 0 0 1-1-.7 3 3 0 0 1-.6-1 3.8 3.8 0 0 1-.2-1.3 3.6 3.6 0 0 1 .2-1.3 3 3 0 0 1 .6-1l1-.7 1.3-.3a3 3 0 0 1 1.4.3 2.8 2.8 0 0 1 1 .8 3.4 3.4 0 0 1 .5 1.2 4.4 4.4 0 0 1 .1 1.4h-4.5a1.7 1.7 0 0 0 .4 1.1zm1.9-3.3a1.2 1.2 0 0 0-.9-.3h-.7l-.4.3-.2.4v.4h2.8a2 2 0 0 0-.6-.8zm4.6 3.2l.3.3.4.2h1.2l.3-.2a.6.6 0 0 0 .1-.4q0-.4-.5-.6l-1.4-.4-.7-.2-.6-.3-.4-.5a1.3 1.3 0 0 1-.2-.7 1.9 1.9 0 0 1 .2-1 1.7 1.7 0 0 1 .6-.6l.9-.3h2l.8.3.6.6a2 2 0 0 1 .3 1h-1.6a.7.7 0 0 0-.4-.7l-.8-.2h-.6l-.2.2a.5.5 0 0 0-.1.3.5.5 0 0 0 .2.4l.4.2.6.2.7.2.7.2.6.3.4.5a1.4 1.4 0 0 1 .2.7 1.9 1.9 0 0 1-.9 1.7l-.9.4h-2.1l-.9-.4a2 2 0 0 1-.9-1.7h1.6a.9.9 0 0 0 .1.5zm9.4.8a1.8 1.8 0 0 1-.8.7l-1.1.2a2.6 2.6 0 0 1-1.2-.3 2.4 2.4 0 0 1-.9-.7 3.3 3.3 0 0 1-.5-1.1 4.5 4.5 0 0 1-.2-1.2 4.2 4.2 0 0 1 .2-1.2 3.1 3.1 0 0 1 .5-1 2.5 2.5 0 0 1 2.1-1l1.1.2a1.8 1.8 0 0 1 .8.7v-3.1h1.7v8.6h-1.6v-.8zm-.1-3.1a1.8 1.8 0 0 0-.2-.6l-.4-.4-.7-.2-.7.2-.5.4a1.9 1.9 0 0 0-.3.6 3.4 3.4 0 0 0-.1.7 3.2 3.2 0 0 0 .1.7 1.9 1.9 0 0 0 .3.6l.5.5.7.2.7-.2.5-.5a2 2 0 0 0 .2-.6 3.7 3.7 0 0 0 .1-.7 3.6 3.6 0 0 0-.2-.7zm3-.4a2 2 0 0 1 .3-1l.7-.6.9-.3h2l.9.3.6.5a1.5 1.5 0 0 1 .3.9v3.2a6.2 6.2 0 0 0 0 .8 1.4 1.4 0 0 0 .2.6h-1.7v-.6a2.2 2.2 0 0 1-1 .6l-1.1.2h-.8l-.7-.3-.5-.6a2 2 0 0 1-.2-.8 1.8 1.8 0 0 1 .2-.9l.5-.5.7-.3.8-.2h1.2l.5-.2a.5.5 0 0 0 .2-.4.9.9 0 0 0-.1-.4l-.2-.3h-.8l-.8.2a1 1 0 0 0-.3.7zm3.9 1.3l-.3.2h-1.5l-.3.2-.2.3a.8.8 0 0 0-.1.4.8.8 0 0 0 .1.4l.2.2h.7l.8-.2.4-.4a1.3 1.3 0 0 0 .2-.5v-1zm5.3 4.8a2.5 2.5 0 0 1-1.4.3h-1v-1.4h1l.5-.3a.8.8 0 0 0 .2-.5 1 1 0 0 0-.1-.4l-2.2-5.7h1.8l1.4 4.2 1.4-4.2h1.8l-2.6 7a2.1 2.1 0 0 1-.8 1z"/></g><g clip-path="url(#e)"><path d="M505.6 18.2v-1.6h7v1.6H510v7h-1.9v-7zm9.5-1.6v3.2a2 2 0 0 1 .8-.8l1-.2 1.1.2.7.5a2 2 0 0 1 .4.8 5 5 0 0 1 .1 1v3.8h-1.7v-3.4a2.2 2.2 0 0 0-.2-1.1.9.9 0 0 0-.9-.4 1.2 1.2 0 0 0-1 .4 2.3 2.3 0 0 0-.3 1.4v3.3h-1.7v-8.7zm9.6 8.6v-.9a1.9 1.9 0 0 1-.8.8l-1.1.2-1.1-.2-.7-.5a2 2 0 0 1-.4-.8 5 5 0 0 1-.1-1V19h1.7v3.5a2.2 2.2 0 0 0 .2 1.1.9.9 0 0 0 .9.4 1.2 1.2 0 0 0 1-.4 2.3 2.3 0 0 0 .3-1.4V19h1.7v6.2zm4.6-6.2v1.2l.3-.5.5-.4.6-.3h1v1.6h-.7l-.8.2-.5.4a1.7 1.7 0 0 0-.3.6 3.4 3.4 0 0 0-.1.8v2.8h-1.7V19zm4.5 4.6l.3.3.4.2h1.2l.3-.2a.6.6 0 0 0 .1-.4q0-.4-.5-.6l-1.4-.4-.7-.2-.6-.3-.4-.5a1.3 1.3 0 0 1-.2-.7 1.9 1.9 0 0 1 .2-1 1.7 1.7 0 0 1 .6-.6l.9-.3h2l.8.3.6.6a2 2 0 0 1 .3 1H536a.7.7 0 0 0-.4-.7l-.8-.2h-.6l-.2.2a.5.5 0 0 0-.1.3.5.5 0 0 0 .2.4l.4.2.6.2.7.2.7.2.6.3.4.5a1.4 1.4 0 0 1 .2.7 1.9 1.9 0 0 1-.9 1.7l-.9.4h-2.1l-.9-.4a2 2 0 0 1-.9-1.7h1.6a.9.9 0 0 0 .2.5zm9.4.8a1.7 1.7 0 0 1-.8.7l-1.1.2a2.6 2.6 0 0 1-1.2-.3 2.4 2.4 0 0 1-.9-.7 3.3 3.3 0 0 1-.5-1.1 4.4 4.4 0 0 1-.2-1.2 4.2 4.2 0 0 1 .2-1.2 3.1 3.1 0 0 1 .5-1 2.5 2.5 0 0 1 2.1-1l1.1.2a1.8 1.8 0 0 1 .8.7v-3.1h1.7v8.6h-1.6v-.8zm-.1-3.1a1.8 1.8 0 0 0-.2-.6l-.5-.4-.7-.2-.7.2-.5.4a1.9 1.9 0 0 0-.3.6 3.4 3.4 0 0 0-.1.7 3.1 3.1 0 0 0 .1.7 2 2 0 0 0 .3.6l.5.5.7.2.7-.2.5-.5a2 2 0 0 0 .2-.6 3.8 3.8 0 0 0 .1-.7 3.7 3.7 0 0 0-.1-.7zm2.9-.4a2 2 0 0 1 .3-1l.7-.6.9-.3h2l.9.3.6.5a1.5 1.5 0 0 1 .3.9v3.2a6.4 6.4 0 0 0 0 .8 1.4 1.4 0 0 0 .2.6h-1.7v-.6a2.2 2.2 0 0 1-1 .6l-1.1.2h-.8l-.7-.3-.5-.6a2 2 0 0 1-.2-.8 1.8 1.8 0 0 1 .2-.9l.5-.5.7-.3.8-.2h1.4l.5-.2a.5.5 0 0 0 .2-.4.9.9 0 0 0-.1-.4l-.2-.3h-.8l-.8.2a1 1 0 0 0-.3.7zm3.9 1.3l-.3.2h-1.5l-.3.2-.2.3a.8.8 0 0 0-.1.4.8.8 0 0 0 .1.4l.2.2h.7l.8-.2.4-.4a1.3 1.3 0 0 0 .2-.5 3.2 3.2 0 0 0 0-.4zm5.4 4.8a2.5 2.5 0 0 1-1.4.3h-1v-1.4h1l.5-.3a.8.8 0 0 0 .2-.5 1 1 0 0 0-.1-.4l-2.2-5.7h1.8l1.4 4.2 1.4-4.2h1.8l-2.6 7a2.1 2.1 0 0 1-.8 1z"/></g><g clip-path="url(#f)"><path d="M638.3 16.6v1.6h-4.1v2h3.6v1.5h-3.6v3.5h-1.9v-8.6zm2.5 2.4v1.2l.3-.5.5-.4.6-.3h1v1.6h-.6l-.8.2-.5.4a1.7 1.7 0 0 0-.3.6 3.5 3.5 0 0 0-.1.8v2.8h-1.7V19zm3.1-1v-1.4h1.7V18zm1.7 1v6.2h-1.7V19zm5.8 5.4a1.8 1.8 0 0 1-.8.7l-1.1.2a2.6 2.6 0 0 1-1.2-.3 2.4 2.4 0 0 1-.9-.7 3.3 3.3 0 0 1-.5-1.1 4.5 4.5 0 0 1-.2-1.2 4.2 4.2 0 0 1 .2-1.2 3.1 3.1 0 0 1 .5-1 2.5 2.5 0 0 1 2.1-1l1.1.2a1.8 1.8 0 0 1 .8.7v-3.1h1.6v8.6h-1.6v-.8zm-.1-3.1a1.8 1.8 0 0 0-.2-.6l-.4-.4-.7-.2-.7.2-.5.4a1.9 1.9 0 0 0-.3.6 3.4 3.4 0 0 0-.1.7 3.2 3.2 0 0 0 .1.7 1.9 1.9 0 0 0 .3.6l.5.5.7.2.7-.2.5-.5a2 2 0 0 0 .2-.6 3.7 3.7 0 0 0 .1-.7 3.6 3.6 0 0 0-.2-.7zm2.9-.4a2 2 0 0 1 .3-1l.7-.6.9-.3h2l.9.3.6.5a1.5 1.5 0 0 1 .3.9v3.2a6.4 6.4 0 0 0 0 .8 1.5 1.5 0 0 0 .2.6h-1.7v-.6a2.2 2.2 0 0 1-1 .6l-1.1.2h-.8l-.7-.3-.4-.6a1.9 1.9 0 0 1-.2-.8 1.8 1.8 0 0 1 .2-.9l.5-.5.7-.3.8-.2h1.4l.5-.2a.5.5 0 0 0 .2-.4.9.9 0 0 0-.1-.4l-.2-.3h-.8l-.8.2a1 1 0 0 0-.3.7zm3.9 1.3l-.3.2h-1.5l-.3.2-.2.3a.8.8 0 0 0-.1.4.8.8 0 0 0 .1.4l.2.2h.7l.8-.2.4-.4a1.3 1.3 0 0 0 .2-.5v-1zm5.4 4.8a2.5 2.5 0 0 1-1.4.3h-1v-1.4h1l.5-.3a.8.8 0 0 0 .2-.5 1 1 0 0 0-.1-.4l-2.2-5.7h1.8l1.4 4.2 1.4-4.2h1.8l-2.6 7a2.1 2.1 0 0 1-.8 1z"/></g><g clip-path="url(#g)"><path d="M39.2 46.9a2.3 2.3 0 0 1 .7-.7l.9-.4h1l1.3.2.9.6a2.1 2.1 0 0 1 .5.7 2.1 2.1 0 0 1 .1.7 1.9 1.9 0 0 1-.3 1.1 1.7 1.7 0 0 1-.9.7 1.9 1.9 0 0 1 1.2.7 2.2 2.2 0 0 1 .4 1.3 2.4 2.4 0 0 1-.3 1.2 2.5 2.5 0 0 1-.7.8l-1 .5-1.2.2-1.2-.2-1-.5a2.4 2.4 0 0 1-.7-.8 2.4 2.4 0 0 1-.3-1.2 2.1 2.1 0 0 1 .4-1.3 2 2 0 0 1 1.2-.7 1.6 1.6 0 0 1-.9-.6 2.1 2.1 0 0 1-.1-2.1zm1.2 5.3l.3.5.5.3h1.1l.5-.3.3-.5a1.5 1.5 0 0 0 .1-.6 1.3 1.3 0 0 0-.1-.5l-.3-.4-.5-.3h-.6a1.6 1.6 0 0 0-1.1.3 1.2 1.2 0 0 0-.4 1 1.4 1.4 0 0 0 .2.5zm.5-3.3a1.5 1.5 0 0 0 .9.3 1.4 1.4 0 0 0 .9-.3 1 1 0 0 0 .4-.8 1.6 1.6 0 0 0 0-.4l-.2-.4-.4-.3h-1.2l-.4.2-.3.4a1.2 1.2 0 0 0-.1.5 1 1 0 0 0 .4.8zm4.9 1v-1.8h1.9v1.8zm1.9 2.4v1.8h-1.9v-1.8zm1.2-4.4a3.7 3.7 0 0 1 .7-1.3 2.4 2.4 0 0 1 1-.7l1.2-.2 1.2.2a2.4 2.4 0 0 1 1 .7 3.7 3.7 0 0 1 .7 1.3 7.4 7.4 0 0 1 .2 2.1 7.7 7.7 0 0 1-.2 2.1 3.7 3.7 0 0 1-.7 1.3 2.4 2.4 0 0 1-1 .7l-1.2.2-1.2-.2a2.4 2.4 0 0 1-1-.7 3.7 3.7 0 0 1-.7-1.3 7.7 7.7 0 0 1-.2-2.1 7.4 7.4 0 0 1 .2-2.1zm1.5 2.9a4.7 4.7 0 0 0 .1 1 2.1 2.1 0 0 0 .4.8 1 1 0 0 0 .8.3 1 1 0 0 0 .8-.3 2.1 2.1 0 0 0 .4-.8 4.7 4.7 0 0 0 .1-1v-1.4a5.8 5.8 0 0 0 0-.6v-.6l-.2-.6-.4-.4-.6-.2-.6.2-.4.4-.2.6v1.7q0 .2-.2.9zm5.2-2.9a3.7 3.7 0 0 1 .7-1.3 2.4 2.4 0 0 1 1-.7l1.2-.2 1.2.2a2.4 2.4 0 0 1 1 .7 3.7 3.7 0 0 1 .7 1.3 7.4 7.4 0 0 1 .2 2.1 7.7 7.7 0 0 1-.2 2.1 3.7 3.7 0 0 1-.7 1.3 2.4 2.4 0 0 1-1 .7l-1.2.2-1.2-.2a2.4 2.4 0 0 1-1-.7 3.7 3.7 0 0 1-.7-1.3 7.7 7.7 0 0 1-.2-2.1 7.4 7.4 0 0 1 .2-2.1zm1.5 2.9a4.7 4.7 0 0 0 .1 1 2.1 2.1 0 0 0 .4.8 1 1 0 0 0 .8.3 1 1 0 0 0 .8-.3 2.1 2.1 0 0 0 .4-.8 4.7 4.7 0 0 0 .1-1v-1.4a5.8 5.8 0 0 0 0-.6v-.6l-.2-.6-.4-.4-.6-.2-.6.2-.4.4-.2.6v1.7q0 .2-.2.9zm13.1-5.2l3.2 8.6h-2l-.6-1.9h-3.2l-.7 1.9h-1.8l3.2-8.6zm.1 5.3l-1.1-3.1-1.1 3.1zm6.5-5.3l2 5.9 1.9-5.9h2.7v8.6h-1.8v-6.1l-2.1 6.1h-1.4l-2.1-6v6h-1.8v-8.6z"/></g><g clip-path="url(#h)"><path d="M40.8 90.7a1 1 0 0 0 .7.3 1.1 1.1 0 0 0 .8-.3l.5-.7a3.4 3.4 0 0 0 .3-.8 7.6 7.6 0 0 0 .1-.8 2 2 0 0 1-.8.7l-1.1.2-1.1-.2-.9-.6a2.4 2.4 0 0 1-.5-.9 3.3 3.3 0 0 1-.2-1 3.4 3.4 0 0 1 .2-1.2 2.9 2.9 0 0 1 .6-1l.9-.7 1.2-.2a3 3 0 0 1 1.6.4 2.9 2.9 0 0 1 1 1 4.1 4.1 0 0 1 .5 1.4 8.6 8.6 0 0 1 .1 1.6 6.9 6.9 0 0 1-.2 1.6 4.5 4.5 0 0 1-.6 1.4 3.2 3.2 0 0 1-1 1 2.8 2.8 0 0 1-1.5.4l-1-.2-.8-.5-.6-.7a2.9 2.9 0 0 1-.3-1h1.6a1.4 1.4 0 0 0 .5.8zm1.5-2.7l.4-.3.3-.5a2.1 2.1 0 0 0 .1-.6 1.9 1.9 0 0 0-.1-.6l-.3-.5-.4-.4h-1.2l-.4.3-.3.5a1.9 1.9 0 0 0-.1.6 2.2 2.2 0 0 0 .1.6l.2.5.4.4h1.2zm3.5-.1v-1.8h1.9v1.8zm1.9 2.4v1.8h-1.9v-1.8zm1.2-4.4a3.7 3.7 0 0 1 .7-1.3 2.4 2.4 0 0 1 1-.7l1.2-.2 1.2.2a2.4 2.4 0 0 1 1 .7 3.7 3.7 0 0 1 .7 1.3 7.4 7.4 0 0 1 .2 2.1 7.7 7.7 0 0 1-.2 2.1 3.7 3.7 0 0 1-.7 1.3 2.4 2.4 0 0 1-1 .7l-1.2.2-1.2-.2a2.4 2.4 0 0 1-1-.7 3.7 3.7 0 0 1-.7-1.3 7.7 7.7 0 0 1-.2-2.1 7.4 7.4 0 0 1 .2-2.1zm1.5 2.9a4.7 4.7 0 0 0 .1 1 2.1 2.1 0 0 0 .4.8 1 1 0 0 0 .8.3 1 1 0 0 0 .8-.3 2.1 2.1 0 0 0 .4-.8 4.7 4.7 0 0 0 .1-1v-1.4a5.8 5.8 0 0 0 0-.6v-.6l-.2-.6-.4-.4-.6-.2-.6.2-.4.4-.2.6v1.7q0 .2-.2.9zm5.2-2.9a3.7 3.7 0 0 1 .7-1.3 2.4 2.4 0 0 1 1-.7l1.2-.2 1.2.2a2.4 2.4 0 0 1 1 .7 3.7 3.7 0 0 1 .7 1.3 7.4 7.4 0 0 1 .2 2.1 7.7 7.7 0 0 1-.2 2.1 3.7 3.7 0 0 1-.7 1.3 2.4 2.4 0 0 1-1 .7l-1.2.2-1.2-.2a2.4 2.4 0 0 1-1-.7 3.7 3.7 0 0 1-.7-1.3 7.7 7.7 0 0 1-.2-2.1 7.4 7.4 0 0 1 .2-2.1zm1.5 2.9a4.7 4.7 0 0 0 .1 1 2.1 2.1 0 0 0 .4.8 1 1 0 0 0 .8.3 1 1 0 0 0 .8-.3 2.1 2.1 0 0 0 .4-.8 4.7 4.7 0 0 0 .1-1v-1.4a5.8 5.8 0 0 0 0-.6v-.6l-.2-.6-.4-.4-.6-.2-.6.2-.4.4-.2.6v1.7q0 .2-.2.9zm13.1-5.2l3.2 8.6h-2l-.6-1.9h-3.2l-.7 1.9h-1.8l3.2-8.6zm.1 5.3l-1.1-3.1-1.1 3.1zm6.5-5.3l2 5.9 1.9-5.9h2.7v8.6h-1.8v-6.1l-2.1 6.1h-1.4l-2.1-6v6h-1.8v-8.6z"/></g><g clip-path="url(#i)"><path d="M37.4 131.2v-5.4h-2.1v-1.3h.9l.7-.3.6-.5a1.9 1.9 0 0 0 .3-.8h1.4v8.4zm4.2-6.3a3.7 3.7 0 0 1 .7-1.3 2.4 2.4 0 0 1 1-.7l1.2-.2 1.2.2a2.4 2.4 0 0 1 1 .7 3.7 3.7 0 0 1 .7 1.3 7.4 7.4 0 0 1 .2 2.1 7.7 7.7 0 0 1-.2 2.1 3.7 3.7 0 0 1-.7 1.3 2.4 2.4 0 0 1-1 .7l-1.2.2-1.2-.2a2.4 2.4 0 0 1-1-.7 3.7 3.7 0 0 1-.7-1.3 7.7 7.7 0 0 1-.2-2.1 7.4 7.4 0 0 1 .2-2.1zm1.5 2.9a4.7 4.7 0 0 0 .1 1 2.1 2.1 0 0 0 .4.8 1 1 0 0 0 .8.3 1 1 0 0 0 .8-.3 2.1 2.1 0 0 0 .4-.8 4.7 4.7 0 0 0 .1-1v-1.4a5.8 5.8 0 0 0 0-.6v-.6l-.2-.6-.4-.4-.6-.2-.6.2-.4.4-.2.6v1.7q0 .2-.2.9zm5.4-.9v-1.8h1.9v1.8zm1.9 2.4v1.8h-1.9v-1.8zm1.2-4.4a3.7 3.7 0 0 1 .7-1.3 2.4 2.4 0 0 1 1-.7l1.2-.2 1.2.2a2.4 2.4 0 0 1 1 .7 3.7 3.7 0 0 1 .7 1.3 7.4 7.4 0 0 1 .2 2.1 7.7 7.7 0 0 1-.2 2.1 3.7 3.7 0 0 1-.7 1.3 2.4 2.4 0 0 1-1 .7l-1.2.2-1.2-.2a2.4 2.4 0 0 1-1-.7 3.7 3.7 0 0 1-.7-1.3 7.7 7.7 0 0 1-.2-2.1 7.4 7.4 0 0 1 .2-2.1zm1.5 2.9a4.7 4.7 0 0 0 .1 1 2.1 2.1 0 0 0 .4.8 1 1 0 0 0 .8.3 1 1 0 0 0 .8-.3 2.1 2.1 0 0 0 .4-.8 4.7 4.7 0 0 0 .1-1v-1.4a5.8 5.8 0 0 0 0-.6v-.6l-.2-.6-.4-.4-.6-.2-.6.2-.4.4-.2.6v1.7q0 .2-.2.9zm5.2-2.9a3.7 3.7 0 0 1 .7-1.3 2.4 2.4 0 0 1 1-.7l1.2-.2 1.2.2a2.4 2.4 0 0 1 1 .7 3.7 3.7 0 0 1 .7 1.3 7.4 7.4 0 0 1 .2 2.1 7.7 7.7 0 0 1-.3 2 3.7 3.7 0 0 1-.7 1.3 2.4 2.4 0 0 1-1 .7l-1.2.2-1.2-.2a2.4 2.4 0 0 1-1-.7 3.7 3.7 0 0 1-.7-1.3 7.7 7.7 0 0 1-.2-2.1 7.4 7.4 0 0 1 .3-2zm1.5 2.9a4.7 4.7 0 0 0 .1 1 2.1 2.1 0 0 0 .4.8 1 1 0 0 0 .8.3 1 1 0 0 0 .8-.3 2.1 2.1 0 0 0 .4-.8 4.7 4.7 0 0 0 .1-1v-1.4a5.8 5.8 0 0 0 0-.6v-.6l-.2-.6-.4-.4-.6-.2-.6.2-.4.4-.2.6v1.7q0 .2-.2.9zm13.1-5.2l3.2 8.6h-2l-.6-1.9h-3.2l-.7 1.9h-1.9l3.2-8.6zm.1 5.3l-1.1-3.1-1.1 3.1zm6.5-5.3l2 5.9 1.9-5.9h2.7v8.6h-1.8v-6.1l-2.1 6.1h-1.5l-2.1-6v6h-1.8v-8.6z"/></g><g clip-path="url(#j)"><path d="M37.4 169.2v-5.4h-2.1v-1.3h.9l.7-.3.6-.5a1.9 1.9 0 0 0 .3-.8h1.4v8.4zm6.7 0v-5.4H42v-1.3h.9l.7-.3.6-.5a1.9 1.9 0 0 0 .3-.8h1.4v8.4zm4.4-4.3v-1.8h1.9v1.8zm1.9 2.4v1.8h-1.9v-1.8zm1.2-4.4a3.7 3.7 0 0 1 .7-1.3 2.4 2.4 0 0 1 1-.7l1.2-.2 1.2.2a2.4 2.4 0 0 1 1 .7 3.7 3.7 0 0 1 .7 1.3 7.4 7.4 0 0 1 .2 2.1 7.7 7.7 0 0 1-.2 2.1 3.7 3.7 0 0 1-.7 1.3 2.4 2.4 0 0 1-1 .7l-1.2.2-1.2-.2a2.4 2.4 0 0 1-1-.7 3.7 3.7 0 0 1-.7-1.3 7.7 7.7 0 0 1-.2-2.1 7.4 7.4 0 0 1 .2-2.1zm1.5 2.9a4.7 4.7 0 0 0 .1 1 2.1 2.1 0 0 0 .4.8 1 1 0 0 0 .8.3 1 1 0 0 0 .8-.3 2.1 2.1 0 0 0 .4-.8 4.7 4.7 0 0 0 .1-1v-1.4a5.8 5.8 0 0 0 0-.6v-.6l-.2-.6-.4-.4-.6-.2-.6.2-.4.4-.2.6v1.7q0 .2-.2.9zm5.2-2.9a3.7 3.7 0 0 1 .7-1.3 2.4 2.4 0 0 1 1-.7l1.2-.2 1.2.2a2.4 2.4 0 0 1 1 .7 3.7 3.7 0 0 1 .7 1.3 7.4 7.4 0 0 1 .2 2.1 7.7 7.7 0 0 1-.3 2 3.7 3.7 0 0 1-.7 1.3 2.4 2.4 0 0 1-1 .7l-1.2.2-1.2-.2a2.4 2.4 0 0 1-1-.7 3.7 3.7 0 0 1-.7-1.3 7.7 7.7 0 0 1-.2-2.1 7.4 7.4 0 0 1 .3-2zm1.5 2.9a4.7 4.7 0 0 0 .1 1 2.1 2.1 0 0 0 .4.8 1 1 0 0 0 .8.3 1 1 0 0 0 .8-.3 2.1 2.1 0 0 0 .4-.8 4.7 4.7 0 0 0 .1-1v-1.4a5.8 5.8 0 0 0 0-.6v-.6l-.2-.6-.4-.4-.6-.2-.6.2-.4.4-.2.6v1.7q0 .2-.2.9zm13.1-5.2l3.2 8.6h-2l-.6-1.9h-3.2l-.7 1.9h-1.9l3.2-8.6zm.1 5.3l-1.1-3.1-1.1 3.1zm6.5-5.3l2 5.9 1.9-5.9h2.7v8.6h-1.8v-6.1l-2.1 6.1h-1.5l-2.1-6v6h-1.8v-8.6z"/></g><g fill="#fff" clip-path="url(#k)"><path d="M128.8 162.9l-.4-.5-.6-.3h-.7l-1.1.2a2 2 0 0 0-.7.7 2.9 2.9 0 0 0-.4.9 4.7 4.7 0 0 0-.1 1.1 4.4 4.4 0 0 0 .1 1 2.8 2.8 0 0 0 .4.9 2.1 2.1 0 0 0 .7.7l1.1.2a1.7 1.7 0 0 0 1.4-.5 2.4 2.4 0 0 0 .6-1.4h1.8a4.4 4.4 0 0 1-.4 1.5 3.5 3.5 0 0 1-.8 1.1 3.4 3.4 0 0 1-1.2.7l-1.5.2a4.4 4.4 0 0 1-1.8-.3 3.8 3.8 0 0 1-1.3-.9 4.2 4.2 0 0 1-.8-1.4 5.2 5.2 0 0 1-.3-1.7 5.3 5.3 0 0 1 .3-1.8 4.3 4.3 0 0 1 .8-1.4 3.8 3.8 0 0 1 1.3-1 4.3 4.3 0 0 1 1.8-.3l1.3.2 1.1.6a3.2 3.2 0 0 1 .8 1 3.5 3.5 0 0 1 .4 1.3H129a1.5 1.5 0 0 0-.2-.8zm8.4 6.2l-1.2.3a4.4 4.4 0 0 1-1.8-.3 3.8 3.8 0 0 1-1.3-.9 4.2 4.2 0 0 1-.8-1.4 5.2 5.2 0 0 1-.3-1.7 5.3 5.3 0 0 1 .3-1.8 4.3 4.3 0 0 1 .8-1.4 3.8 3.8 0 0 1 1.3-1 4.3 4.3 0 0 1 1.8-.3l1.3.2 1.1.6a3.1 3.1 0 0 1 1.2 2.2h-1.8a1.8 1.8 0 0 0-.6-1.1 1.9 1.9 0 0 0-1.2-.4l-1.1.2a2 2 0 0 0-.7.7 2.9 2.9 0 0 0-.4.9 4.7 4.7 0 0 0-.1 1.1 4.4 4.4 0 0 0 .1 1 2.8 2.8 0 0 0 .4.9 2.1 2.1 0 0 0 .7.7l1.1.2a1.8 1.8 0 0 0 2-1.8h-1.9v-1.4h3.6v4.6h-1.2l-.2-1a2.8 2.8 0 0 1-1.1.9zm7.3-6a4.3 4.3 0 0 1 .8-1.4 3.8 3.8 0 0 1 1.3-1 4.7 4.7 0 0 1 3.5 0 3.8 3.8 0 0 1 1.3 1 4.3 4.3 0 0 1 .8 1.4 5.3 5.3 0 0 1 .3 1.8 5.2 5.2 0 0 1-.3 1.7 4.2 4.2 0 0 1-.8 1.4 3.8 3.8 0 0 1-1.3.9 4.8 4.8 0 0 1-3.5 0 3.8 3.8 0 0 1-1.3-.9 4.2 4.2 0 0 1-.8-1.4 5.2 5.2 0 0 1-.3-1.7 5.3 5.3 0 0 1 .3-1.8zm1.7 2.8a2.8 2.8 0 0 0 .4.9 2.1 2.1 0 0 0 .7.7l1.1.2 1.1-.2a2.1 2.1 0 0 0 .7-.7 2.8 2.8 0 0 0 .4-.9 4.4 4.4 0 0 0 .1-1 4.7 4.7 0 0 0-.1-1.1 2.9 2.9 0 0 0-.4-.9 2 2 0 0 0-.7-.7l-1.1-.2-1.1.2a2 2 0 0 0-.7.7 2.9 2.9 0 0 0-.4.9 4.7 4.7 0 0 0-.1 1.1 4.4 4.4 0 0 0 .1 1.1zm9.2-2.9v.9a2 2 0 0 1 .8-.8l1.1-.2 1.1.2.7.5a2 2 0 0 1 .4.8 5 5 0 0 1 .1 1v3.8h-1.7v-3.5a2.2 2.2 0 0 0-.2-1.1.9.9 0 0 0-.9-.4 1.2 1.2 0 0 0-1 .4 2.3 2.3 0 0 0-.3 1.4v3.3h-1.7V163zm7.3 4.7a1.5 1.5 0 0 0 1.1.4l.9-.3a1.1 1.1 0 0 0 .5-.5h1.5a2.8 2.8 0 0 1-1.1 1.6 3.2 3.2 0 0 1-1.8.5l-1.3-.2a2.7 2.7 0 0 1-1-.7 3 3 0 0 1-.6-1 3.8 3.8 0 0 1-.2-1.3 3.6 3.6 0 0 1 .2-1.3 3 3 0 0 1 .6-1l1-.7 1.3-.3a3 3 0 0 1 1.4.3 2.8 2.8 0 0 1 1 .8 3.4 3.4 0 0 1 .5 1.2 4.4 4.4 0 0 1 .1 1.4h-4.5a1.7 1.7 0 0 0 .4 1.1zm1.9-3.3a1.2 1.2 0 0 0-.9-.3h-.7l-.4.3-.2.4v.4h2.6a2 2 0 0 0-.4-.8zm-36.3 19.7l-1.2.3a4.4 4.4 0 0 1-1.8-.3 3.8 3.8 0 0 1-1.3-.9 4.2 4.2 0 0 1-.8-1.4 5.2 5.2 0 0 1-.3-1.7 5.3 5.3 0 0 1 .3-1.8 4.3 4.3 0 0 1 .8-1.4 3.8 3.8 0 0 1 1.3-1 4.3 4.3 0 0 1 1.8-.3l1.3.2 1.1.6a3.1 3.1 0 0 1 1.2 2.2h-1.8a1.8 1.8 0 0 0-.6-1.1 1.9 1.9 0 0 0-1.2-.4l-1.1.2a2 2 0 0 0-.7.7 2.9 2.9 0 0 0-.4.9 4.7 4.7 0 0 0-.1 1.1 4.4 4.4 0 0 0 .1 1 2.8 2.8 0 0 0 .4.9 2.1 2.1 0 0 0 .7.7l1.1.2a1.8 1.8 0 0 0 2-1.8h-1.9v-1.4h3.6v4.6h-1.2l-.2-1a2.8 2.8 0 0 1-1.1.9zm5.5-6.1v1.2l.3-.5.5-.4.6-.3h1v1.6h-.6l-.8.2-.5.4a1.7 1.7 0 0 0-.3.6 3.4 3.4 0 0 0-.1.8v2.8h-1.7V178zm2.9 1.7a2.8 2.8 0 0 1 1.7-1.7l1.3-.2 1.3.2a2.8 2.8 0 0 1 1.7 1.7 3.8 3.8 0 0 1 .2 1.4 3.8 3.8 0 0 1-.2 1.3 2.9 2.9 0 0 1-.6 1 2.8 2.8 0 0 1-1 .7l-1.3.2-1.3-.2a2.8 2.8 0 0 1-1-.7 2.9 2.9 0 0 1-.6-1 3.8 3.8 0 0 1-.2-1.3 3.8 3.8 0 0 1 0-1.4zm1.5 2.1a1.9 1.9 0 0 0 .2.6l.5.5.7.2.7-.2.5-.5a1.9 1.9 0 0 0 .2-.6 3.6 3.6 0 0 0 .1-.7 3.7 3.7 0 0 0-.1-.7 1.9 1.9 0 0 0-.2-.6l-.5-.5-.7-.2-.7.2-.5.5a1.9 1.9 0 0 0-.2.6 3.7 3.7 0 0 0-.1.7 3.6 3.6 0 0 0 .1.7zm10 2.4v-.9a1.9 1.9 0 0 1-.8.8l-1.1.2-1.1-.2-.7-.5a2 2 0 0 1-.4-.8 5 5 0 0 1-.1-1V178h1.7v3.5a2.2 2.2 0 0 0 .2 1.1.9.9 0 0 0 .9.4 1.2 1.2 0 0 0 1-.4 2.3 2.3 0 0 0 .3-1.4V178h1.7v6.2zm4.5-6.2v.8a1.9 1.9 0 0 1 .8-.7l1.1-.2a2.7 2.7 0 0 1 1.3.3 2.6 2.6 0 0 1 .9.7 3.1 3.1 0 0 1 .5 1.1 4.7 4.7 0 0 1 .2 1.3 4.3 4.3 0 0 1-.2 1.2 3.1 3.1 0 0 1-.5 1 2.5 2.5 0 0 1-.9.7 2.6 2.6 0 0 1-1.2.3l-1.1-.2a2 2 0 0 1-.8-.7v2.9h-1.7V178zm2.2 4.9l.5-.4a1.8 1.8 0 0 0 .2-.6 3.7 3.7 0 0 0 .1-.7 3.5 3.5 0 0 0-.1-.7 2 2 0 0 0-.3-.6l-.5-.5-.7-.2-.7.2-.5.5a1.9 1.9 0 0 0-.2.6 3.8 3.8 0 0 0-.1.7 3.4 3.4 0 0 0 .1.7 1.9 1.9 0 0 0 .3.6l.5.4.7.2zm9.5-3.7h.6l.4-.3a.9.9 0 0 0 .2-.6 1 1 0 0 0-.4-.8 1.3 1.3 0 0 0-.8-.3 1.2 1.2 0 0 0-1 .4 1.6 1.6 0 0 0-.3 1.1h-1.6a3.6 3.6 0 0 1 .2-1.2 2.7 2.7 0 0 1 .6-.9l.9-.6 1.2-.2 1 .2.9.5a2.4 2.4 0 0 1 .7.7 1.9 1.9 0 0 1 .3 1 2 2 0 0 1-.3 1.1 1.5 1.5 0 0 1-.9.6 1.8 1.8 0 0 1 1.1.7 2 2 0 0 1 .4 1.2 2.5 2.5 0 0 1-.9 2l-1 .5-1.2.2-1.3-.2-1-.6a2.6 2.6 0 0 1-.6-1 3.4 3.4 0 0 1-.2-1.3h1.6a2.4 2.4 0 0 0 .1.6l.3.5.4.4h.6a1.4 1.4 0 0 0 1-.4 1.4 1.4 0 0 0 .2-1.7l-.5-.4h-1.3v-1.2zm-36.5 11.4l1 .2.8.5a2.2 2.2 0 0 1 .5.8 2.4 2.4 0 0 1 .2.9 2.6 2.6 0 0 1-.3 1.3 2 2 0 0 1-1 .8l.6.3.4.5.2.6a5.2 5.2 0 0 1 .1.6v1.6l.2.4h-1.9a3.3 3.3 0 0 1-.2-1q0-.6-.1-1.1a1.7 1.7 0 0 0-.4-1 1.4 1.4 0 0 0-1-.3h-1.9v3.3h-1.9v-8.6zm-.7 3.9a1.4 1.4 0 0 0 1-.3 1.2 1.2 0 0 0 .3-.9 1.1 1.1 0 0 0-.3-.9 1.4 1.4 0 0 0-1-.3h-2.1v2.4zm4.6.2a2.8 2.8 0 0 1 1.7-1.7l1.3-.2 1.3.2a2.8 2.8 0 0 1 1.7 1.7 3.8 3.8 0 0 1 .2 1.4 3.8 3.8 0 0 1-.2 1.3 2.9 2.9 0 0 1-.6 1 2.8 2.8 0 0 1-1 .7l-1.3.2-1.3-.2a2.8 2.8 0 0 1-1-.7 2.9 2.9 0 0 1-.6-1 3.8 3.8 0 0 1-.2-1.3 3.8 3.8 0 0 1 0-1.4zm1.5 2.1a1.9 1.9 0 0 0 .2.6l.5.5.7.2.7-.2.5-.5a1.9 1.9 0 0 0 .2-.6 3.6 3.6 0 0 0 .1-.7 3.7 3.7 0 0 0-.1-.7 1.9 1.9 0 0 0-.2-.6l-.5-.5-.7-.2-.7.2-.5.5a1.9 1.9 0 0 0-.2.6 3.7 3.7 0 0 0-.1.7 3.6 3.6 0 0 0 .1.7zm5.8-2.1a2.8 2.8 0 0 1 1.7-1.7l1.3-.2 1.3.2a2.8 2.8 0 0 1 1.7 1.7 3.8 3.8 0 0 1 .2 1.4 3.8 3.8 0 0 1-.2 1.3 2.9 2.9 0 0 1-.6 1 2.8 2.8 0 0 1-1 .7l-1.3.2-1.3-.2a2.8 2.8 0 0 1-1-.7 2.9 2.9 0 0 1-.6-1 3.8 3.8 0 0 1-.2-1.3 3.8 3.8 0 0 1 0-1.4zm1.5 2.1a1.9 1.9 0 0 0 .2.6l.5.5.7.2.7-.2.5-.5a1.9 1.9 0 0 0 .2-.6 3.6 3.6 0 0 0 .1-.7 3.7 3.7 0 0 0-.1-.7 1.9 1.9 0 0 0-.2-.6l-.5-.5-.7-.2-.7.2-.5.5a1.9 1.9 0 0 0-.2.6 3.7 3.7 0 0 0-.1.7 3.6 3.6 0 0 0 .2.7zm7.5-3.8v.8a2.4 2.4 0 0 1 .8-.7l1.1-.3 1.1.2a1.5 1.5 0 0 1 .7.8l.8-.7a2 2 0 0 1 1.1-.3h.9l.7.4a1.8 1.8 0 0 1 .5.7 2.8 2.8 0 0 1 .2 1v4.2h-1.7V195a1.3 1.3 0 0 0-.1-.5l-.3-.3h-1.2l-.3.4a1.4 1.4 0 0 0-.2.5 3.8 3.8 0 0 0 0 .6v3.5h-1.7v-4a1.5 1.5 0 0 0-.1-.5l-.3-.4H149l-.4.2-.3.4a1.7 1.7 0 0 0-.1.7v3.6h-1.7V193zm14.6-2.4l3.6 5.7v-5.7h1.7v8.6h-1.9l-3.6-5.7v5.7h-1.8v-8.6zm6.8 2.1a3.1 3.1 0 0 1 .6-1.1 2.6 2.6 0 0 1 1-.7l1.3-.3 1.1.2.9.5a2.5 2.5 0 0 1 .6.8 2.5 2.5 0 0 1 .2 1.1 2.7 2.7 0 0 1-.2 1.1 2.9 2.9 0 0 1-.5.8l-.8.6-.9.6-.8.6-.7.8h4v1.5h-6.2a3.5 3.5 0 0 1 .2-1.3 3.4 3.4 0 0 1 .6-1l.8-.8 1-.7.6-.4.6-.4.4-.5a1.3 1.3 0 0 0 .2-.7 1.3 1.3 0 0 0-.4-1 1.2 1.2 0 0 0-.9-.3l-.6.2-.4.5a2.1 2.1 0 0 0-.2.6 3.6 3.6 0 0 0-.1.7h-1.6a4 4 0 0 1 .2-1.4zm6.5.2a3.7 3.7 0 0 1 .7-1.3 2.4 2.4 0 0 1 1-.7l1.2-.2 1.2.2a2.4 2.4 0 0 1 1 .7 3.7 3.7 0 0 1 .7 1.3 7.4 7.4 0 0 1 .2 2.1 7.7 7.7 0 0 1-.2 2.1 3.7 3.7 0 0 1-.7 1.3 2.4 2.4 0 0 1-1 .7l-1.2.2-1.2-.2a2.4 2.4 0 0 1-1-.7 3.7 3.7 0 0 1-.7-1.3 7.7 7.7 0 0 1-.2-2.1 7.4 7.4 0 0 1 .2-2.1zm1.5 2.9a4.7 4.7 0 0 0 .1 1 2.1 2.1 0 0 0 .4.8 1 1 0 0 0 .8.3 1 1 0 0 0 .8-.3 2.1 2.1 0 0 0 .4-.8 4.7 4.7 0 0 0 .1-1v-1.4a5.8 5.8 0 0 0 0-.6v-.6l-.2-.6-.4-.4-.6-.2-.6.2-.4.4-.2.6v1.7q0 .2-.2.9zm5.5-3.9a2.3 2.3 0 0 1 .7-.7l.9-.4h1l1.3.2.9.6a2.1 2.1 0 0 1 .5.7 2.1 2.1 0 0 1 .1.7 1.9 1.9 0 0 1-.3 1.1 1.7 1.7 0 0 1-.9.7 1.9 1.9 0 0 1 1.2.7 2.2 2.2 0 0 1 .4 1.3 2.4 2.4 0 0 1-.3 1.2 2.5 2.5 0 0 1-.7.8l-1 .5-1.2.2-1.2-.2-1-.5a2.4 2.4 0 0 1-.7-.8 2.4 2.4 0 0 1-.3-1.2 2.1 2.1 0 0 1 .4-1.3 2 2 0 0 1 1.2-.7 1.6 1.6 0 0 1-.9-.6 2.1 2.1 0 0 1-.1-2.1zm1.2 5.3l.3.5.5.3h1.1l.5-.3.3-.5a1.5 1.5 0 0 0 .1-.6 1.3 1.3 0 0 0-.1-.5l-.3-.4-.5-.3h-.6a1.6 1.6 0 0 0-1.1.3 1.2 1.2 0 0 0-.4 1 1.4 1.4 0 0 0 .2.5zm.5-3.3a1.5 1.5 0 0 0 .9.3 1.4 1.4 0 0 0 .9-.3 1 1 0 0 0 .4-.8 1.6 1.6 0 0 0 0-.4l-.2-.4-.4-.3h-1.1l-.4.2-.3.4a1.2 1.2 0 0 0-.1.5 1 1 0 0 0 .3.8z"/></g><g clip-path="url(#l)"><path d="M37.4 207.2v-5.4h-2.1v-1.3h.9l.7-.3.6-.5a1.9 1.9 0 0 0 .3-.8h1.4v8.4zm4.3-6.5a3.1 3.1 0 0 1 .6-1.1 2.6 2.6 0 0 1 1-.7l1.3-.3 1.1.2.9.5a2.5 2.5 0 0 1 .6.8 2.5 2.5 0 0 1 .2 1.1 2.7 2.7 0 0 1-.2 1.1 2.9 2.9 0 0 1-.5.8l-.8.6-.9.6-.8.6-.7.8h4v1.5h-6.1a3.5 3.5 0 0 1 .2-1.3 3.4 3.4 0 0 1 .6-1l.8-.8 1-.7.6-.4.6-.4.4-.5a1.3 1.3 0 0 0 .2-.7 1.3 1.3 0 0 0-.4-1 1.2 1.2 0 0 0-.9-.3l-.6.2-.4.5a2.1 2.1 0 0 0-.2.6 3.6 3.6 0 0 0-.1.7h-1.6a4 4 0 0 1 .1-1.4zm6.8 2.2v-1.8h1.9v1.8zm1.9 2.4v1.8h-1.9v-1.8zm1.2-4.4a3.7 3.7 0 0 1 .7-1.3 2.4 2.4 0 0 1 1-.7l1.2-.2 1.2.2a2.4 2.4 0 0 1 1 .7 3.7 3.7 0 0 1 .7 1.3 7.4 7.4 0 0 1 .2 2.1 7.7 7.7 0 0 1-.2 2.1 3.7 3.7 0 0 1-.7 1.3 2.4 2.4 0 0 1-1 .7l-1.2.2-1.2-.2a2.4 2.4 0 0 1-1-.7 3.7 3.7 0 0 1-.7-1.3 7.7 7.7 0 0 1-.2-2.1 7.4 7.4 0 0 1 .2-2.1zm1.5 2.9a4.7 4.7 0 0 0 .1 1 2.1 2.1 0 0 0 .4.8 1 1 0 0 0 .8.3 1 1 0 0 0 .8-.3 2.1 2.1 0 0 0 .4-.8 4.7 4.7 0 0 0 .1-1v-1.4a5.8 5.8 0 0 0 0-.6v-.6l-.2-.6-.4-.4-.6-.2-.6.2-.4.4-.2.6v1.7q0 .2-.2.9zm5.2-2.9a3.7 3.7 0 0 1 .7-1.3 2.4 2.4 0 0 1 1-.7l1.2-.2 1.2.2a2.4 2.4 0 0 1 1 .7 3.7 3.7 0 0 1 .7 1.3 7.4 7.4 0 0 1 .2 2.1 7.7 7.7 0 0 1-.3 2 3.7 3.7 0 0 1-.7 1.3 2.4 2.4 0 0 1-1 .7l-1.2.2-1.2-.2a2.4 2.4 0 0 1-1-.7 3.7 3.7 0 0 1-.7-1.3 7.7 7.7 0 0 1-.2-2.1 7.4 7.4 0 0 1 .3-2zm1.5 2.9a4.7 4.7 0 0 0 .1 1 2.1 2.1 0 0 0 .4.8 1 1 0 0 0 .8.3 1 1 0 0 0 .8-.3 2.1 2.1 0 0 0 .4-.8 4.7 4.7 0 0 0 .1-1v-1.4a5.8 5.8 0 0 0 0-.6v-.6l-.2-.6-.4-.4-.6-.2-.6.2-.4.4-.2.6v1.7q0 .2-.2.9zm12.7-5.2l1.4.2.9.6a2.4 2.4 0 0 1 .5.9 3.3 3.3 0 0 1 0 2 2.4 2.4 0 0 1-.5.9l-.9.6-1.4.2h-2v3.1h-1.9v-8.6zm-.5 4h.6l.5-.2.4-.4a1.6 1.6 0 0 0 0-1.3l-.4-.4-.5-.2h-2.1v2.6zm7.3-4l2 5.9 1.9-5.9h2.7v8.6h-1.8v-6.1l-2.1 6.1h-1.5l-2.1-6v6h-1.8v-8.6z"/></g><g fill="#fff" clip-path="url(#m)"><path d="M245.8 200.9l-.4-.5-.6-.3h-.7l-1.1.2a2 2 0 0 0-.7.7 2.9 2.9 0 0 0-.4.9 4.7 4.7 0 0 0-.1 1.1 4.4 4.4 0 0 0 .1 1 2.8 2.8 0 0 0 .4.9 2.1 2.1 0 0 0 .7.7l1.1.2a1.7 1.7 0 0 0 1.4-.5 2.4 2.4 0 0 0 .6-1.4h1.8a4.4 4.4 0 0 1-.4 1.5 3.5 3.5 0 0 1-.8 1.1 3.4 3.4 0 0 1-1.2.7l-1.5.2a4.4 4.4 0 0 1-1.8-.3 3.8 3.8 0 0 1-1.3-.9 4.2 4.2 0 0 1-.8-1.4 5.2 5.2 0 0 1-.3-1.7 5.3 5.3 0 0 1 .3-1.8 4.3 4.3 0 0 1 .8-1.4 3.8 3.8 0 0 1 1.3-1 4.3 4.3 0 0 1 1.8-.3l1.3.2 1.1.6a3.2 3.2 0 0 1 .8 1 3.5 3.5 0 0 1 .4 1.3H246a1.5 1.5 0 0 0-.2-.8zm8.4 6.2l-1.2.3a4.4 4.4 0 0 1-1.8-.3 3.8 3.8 0 0 1-1.3-.9 4.2 4.2 0 0 1-.8-1.4 5.2 5.2 0 0 1-.3-1.7 5.3 5.3 0 0 1 .3-1.8 4.3 4.3 0 0 1 .8-1.4 3.8 3.8 0 0 1 1.3-1 4.3 4.3 0 0 1 1.8-.3l1.3.2 1.1.6a3.1 3.1 0 0 1 1.2 2.2h-1.8a1.8 1.8 0 0 0-.6-1.1 1.9 1.9 0 0 0-1.2-.4l-1.1.2a2 2 0 0 0-.7.7 2.9 2.9 0 0 0-.4.9 4.7 4.7 0 0 0-.1 1.1 4.4 4.4 0 0 0 .1 1 2.8 2.8 0 0 0 .4.9 2.1 2.1 0 0 0 .7.7l1.1.2a1.8 1.8 0 0 0 2-1.8h-1.9v-1.4h3.6v4.6h-1.2l-.2-1a2.8 2.8 0 0 1-1.1.9zm7.3-6a4.3 4.3 0 0 1 .8-1.4 3.8 3.8 0 0 1 1.3-1 4.7 4.7 0 0 1 3.5 0 3.8 3.8 0 0 1 1.3 1 4.3 4.3 0 0 1 .8 1.4 5.3 5.3 0 0 1 .3 1.8 5.2 5.2 0 0 1-.3 1.7 4.2 4.2 0 0 1-.8 1.4 3.8 3.8 0 0 1-1.3.9 4.8 4.8 0 0 1-3.5 0 3.8 3.8 0 0 1-1.3-.9 4.2 4.2 0 0 1-.8-1.4 5.2 5.2 0 0 1-.3-1.7 5.3 5.3 0 0 1 .3-1.8zm1.7 2.8a2.8 2.8 0 0 0 .4.9 2.1 2.1 0 0 0 .7.7l1.1.2 1.1-.2a2.1 2.1 0 0 0 .7-.7 2.8 2.8 0 0 0 .4-.9 4.4 4.4 0 0 0 .1-1 4.7 4.7 0 0 0-.1-1.1 2.9 2.9 0 0 0-.4-.9 2 2 0 0 0-.7-.7l-1.1-.2-1.1.2a2 2 0 0 0-.7.7 2.9 2.9 0 0 0-.4.9 4.7 4.7 0 0 0-.1 1.1 4.4 4.4 0 0 0 .1 1.1zm9.2-2.9v.9a2 2 0 0 1 .8-.8l1.1-.2 1.1.2.7.5a2 2 0 0 1 .4.8 5 5 0 0 1 .1 1v3.8h-1.7v-3.5a2.2 2.2 0 0 0-.2-1.1.9.9 0 0 0-.9-.4 1.2 1.2 0 0 0-1 .4 2.3 2.3 0 0 0-.3 1.4v3.3h-1.7V201zm7.3 4.7a1.5 1.5 0 0 0 1.1.4l.9-.3a1.1 1.1 0 0 0 .5-.5h1.5a2.8 2.8 0 0 1-1.1 1.6 3.2 3.2 0 0 1-1.8.5l-1.3-.2a2.7 2.7 0 0 1-1-.7 3 3 0 0 1-.6-1 3.8 3.8 0 0 1-.2-1.3 3.6 3.6 0 0 1 .2-1.3 3 3 0 0 1 .6-1l1-.7 1.3-.3a3 3 0 0 1 1.4.3 2.8 2.8 0 0 1 1 .8 3.4 3.4 0 0 1 .5 1.2 4.4 4.4 0 0 1 .1 1.4h-4.5a1.7 1.7 0 0 0 .4 1.1zm1.9-3.3a1.2 1.2 0 0 0-.9-.3h-.7l-.4.3-.2.4v.4h2.6a2 2 0 0 0-.4-.8zm-36.3 19.7l-1.2.3a4.4 4.4 0 0 1-1.8-.3 3.8 3.8 0 0 1-1.3-.9 4.2 4.2 0 0 1-.8-1.4 5.2 5.2 0 0 1-.3-1.7 5.3 5.3 0 0 1 .3-1.8 4.3 4.3 0 0 1 .8-1.4 3.8 3.8 0 0 1 1.3-1 4.3 4.3 0 0 1 1.8-.3l1.3.2 1.1.6a3.1 3.1 0 0 1 1.2 2.2h-1.8a1.8 1.8 0 0 0-.6-1.1 1.9 1.9 0 0 0-1.2-.4l-1.1.2a2 2 0 0 0-.7.7 2.9 2.9 0 0 0-.4.9 4.7 4.7 0 0 0-.1 1.1 4.4 4.4 0 0 0 .1 1 2.8 2.8 0 0 0 .4.9 2.1 2.1 0 0 0 .7.7l1.1.2a1.8 1.8 0 0 0 2-1.8h-1.9v-1.4h3.6v4.6h-1.2l-.2-1a2.8 2.8 0 0 1-1.1.9zm5.5-6.1v1.2l.3-.5.5-.4.6-.3h1v1.6h-.6l-.8.2-.5.4a1.7 1.7 0 0 0-.3.6 3.4 3.4 0 0 0-.1.8v2.8h-1.7V216zm2.9 1.7a2.8 2.8 0 0 1 1.7-1.7l1.3-.2 1.3.2a2.8 2.8 0 0 1 1.7 1.7 3.8 3.8 0 0 1 .2 1.4 3.8 3.8 0 0 1-.2 1.3 2.9 2.9 0 0 1-.6 1 2.8 2.8 0 0 1-1 .7l-1.3.2-1.3-.2a2.8 2.8 0 0 1-1-.7 2.9 2.9 0 0 1-.6-1 3.8 3.8 0 0 1-.2-1.3 3.8 3.8 0 0 1 0-1.4zm1.5 2.1a1.9 1.9 0 0 0 .2.6l.5.5.7.2.7-.2.5-.5a1.9 1.9 0 0 0 .2-.6 3.6 3.6 0 0 0 .1-.7 3.7 3.7 0 0 0-.1-.7 1.9 1.9 0 0 0-.2-.6l-.5-.5-.7-.2-.7.2-.5.5a1.9 1.9 0 0 0-.2.6 3.7 3.7 0 0 0-.1.7 3.6 3.6 0 0 0 .1.7zm10 2.4v-.9a1.9 1.9 0 0 1-.8.8l-1.1.2-1.1-.2-.7-.5a2 2 0 0 1-.4-.8 5 5 0 0 1-.1-1V216h1.7v3.5a2.2 2.2 0 0 0 .2 1.1.9.9 0 0 0 .9.4 1.2 1.2 0 0 0 1-.4 2.3 2.3 0 0 0 .3-1.4V216h1.7v6.2zm4.5-6.2v.8a1.9 1.9 0 0 1 .8-.7l1.1-.2a2.7 2.7 0 0 1 1.3.3 2.6 2.6 0 0 1 .9.7 3.1 3.1 0 0 1 .5 1.1 4.7 4.7 0 0 1 .2 1.3 4.3 4.3 0 0 1-.2 1.2 3.1 3.1 0 0 1-.5 1 2.5 2.5 0 0 1-.9.7 2.6 2.6 0 0 1-1.2.3l-1.1-.2a2 2 0 0 1-.8-.7v2.9h-1.7V216zm2.2 4.9l.5-.4a1.8 1.8 0 0 0 .2-.6 3.7 3.7 0 0 0 .1-.7 3.5 3.5 0 0 0-.1-.7 2 2 0 0 0-.3-.6l-.5-.5-.7-.2-.7.2-.5.5a1.9 1.9 0 0 0-.2.6 3.8 3.8 0 0 0-.1.7 3.4 3.4 0 0 0 .1.7 1.9 1.9 0 0 0 .3.6l.5.4.7.2zm9.2 1.3v-5.4H279v-1.3h.9l.7-.3.6-.5a1.9 1.9 0 0 0 .3-.8h1.4v8.4zm-36.2 6.4l1 .2.8.5a2.2 2.2 0 0 1 .5.8 2.4 2.4 0 0 1 .2.9 2.6 2.6 0 0 1-.3 1.3 2 2 0 0 1-1 .8l.6.3.4.5.2.6a5.2 5.2 0 0 1 .1.6v1.6l.2.4h-1.9a3.3 3.3 0 0 1-.2-1q0-.6-.1-1.1a1.7 1.7 0 0 0-.4-1 1.4 1.4 0 0 0-1-.3h-1.9v3.3h-1.9v-8.6zm-.7 3.9a1.4 1.4 0 0 0 1-.3 1.2 1.2 0 0 0 .3-.9 1.1 1.1 0 0 0-.3-.9 1.4 1.4 0 0 0-1-.3h-2.1v2.4zm4.6.2a2.8 2.8 0 0 1 1.7-1.7l1.3-.2 1.3.2a2.8 2.8 0 0 1 1.7 1.7 3.8 3.8 0 0 1 .2 1.4 3.8 3.8 0 0 1-.2 1.3 2.9 2.9 0 0 1-.6 1 2.8 2.8 0 0 1-1 .7l-1.3.2-1.3-.2a2.8 2.8 0 0 1-1-.7 2.9 2.9 0 0 1-.6-1 3.8 3.8 0 0 1-.2-1.3 3.8 3.8 0 0 1 0-1.4zm1.5 2.1a1.9 1.9 0 0 0 .2.6l.5.5.7.2.7-.2.5-.5a1.9 1.9 0 0 0 .2-.6 3.6 3.6 0 0 0 .1-.7 3.7 3.7 0 0 0-.1-.7 1.9 1.9 0 0 0-.2-.6l-.5-.5-.7-.2-.7.2-.5.5a1.9 1.9 0 0 0-.2.6 3.7 3.7 0 0 0-.1.7 3.6 3.6 0 0 0 .1.7zm5.8-2.1a2.8 2.8 0 0 1 1.7-1.7l1.3-.2 1.3.2a2.8 2.8 0 0 1 1.7 1.7 3.8 3.8 0 0 1 .2 1.4 3.8 3.8 0 0 1-.2 1.3 2.9 2.9 0 0 1-.6 1 2.8 2.8 0 0 1-1 .7l-1.3.2-1.3-.2a2.8 2.8 0 0 1-1-.7 2.9 2.9 0 0 1-.6-1 3.8 3.8 0 0 1-.2-1.3 3.8 3.8 0 0 1 0-1.4zm1.5 2.1a1.9 1.9 0 0 0 .2.6l.5.5.7.2.7-.2.5-.5a1.9 1.9 0 0 0 .2-.6 3.6 3.6 0 0 0 .1-.7 3.7 3.7 0 0 0-.1-.7 1.9 1.9 0 0 0-.2-.6l-.5-.5-.7-.2-.7.2-.5.5a1.9 1.9 0 0 0-.2.6 3.7 3.7 0 0 0-.1.7 3.6 3.6 0 0 0 .2.7zm7.5-3.8v.8a2.4 2.4 0 0 1 .8-.7l1.1-.3 1.1.2a1.5 1.5 0 0 1 .7.8l.8-.7a2 2 0 0 1 1.1-.3h.9l.7.4a1.8 1.8 0 0 1 .5.7 2.8 2.8 0 0 1 .2 1v4.2h-1.7V233a1.3 1.3 0 0 0-.1-.5l-.3-.3h-1.2l-.3.4a1.4 1.4 0 0 0-.2.5 3.8 3.8 0 0 0 0 .6v3.5h-1.7v-4a1.5 1.5 0 0 0-.1-.5l-.3-.4H266l-.4.2-.3.4a1.7 1.7 0 0 0-.1.7v3.6h-1.7V231zm14.6-2.4l3.6 5.7v-5.7h1.7v8.6h-1.9l-3.6-5.7v5.7h-1.8v-8.6zm6.8 2.1a3.1 3.1 0 0 1 .6-1.1 2.6 2.6 0 0 1 1-.7l1.3-.3 1.1.2.9.5a2.5 2.5 0 0 1 .6.8 2.5 2.5 0 0 1 .2 1.1 2.7 2.7 0 0 1-.2 1.1 2.9 2.9 0 0 1-.5.8l-.8.6-.9.6-.8.6-.7.8h4v1.5h-6.2a3.5 3.5 0 0 1 .2-1.3 3.4 3.4 0 0 1 .6-1l.8-.8 1-.7.6-.4.6-.4.4-.5a1.3 1.3 0 0 0 .2-.7 1.3 1.3 0 0 0-.4-1 1.2 1.2 0 0 0-.9-.3l-.6.2-.4.5a2.1 2.1 0 0 0-.2.6 3.6 3.6 0 0 0-.1.7h-1.6a4 4 0 0 1 .2-1.4zm6.5.2a3.7 3.7 0 0 1 .7-1.3 2.4 2.4 0 0 1 1-.7l1.2-.2 1.2.2a2.4 2.4 0 0 1 1 .7 3.7 3.7 0 0 1 .7 1.3 7.4 7.4 0 0 1 .2 2.1 7.7 7.7 0 0 1-.2 2.1 3.7 3.7 0 0 1-.7 1.3 2.4 2.4 0 0 1-1 .7l-1.2.2-1.2-.2a2.4 2.4 0 0 1-1-.7 3.7 3.7 0 0 1-.7-1.3 7.7 7.7 0 0 1-.2-2.1 7.4 7.4 0 0 1 .2-2.1zm1.5 2.9a4.7 4.7 0 0 0 .1 1 2.1 2.1 0 0 0 .4.8 1 1 0 0 0 .8.3 1 1 0 0 0 .8-.3 2.1 2.1 0 0 0 .4-.8 4.7 4.7 0 0 0 .1-1v-1.4a5.8 5.8 0 0 0 0-.6v-.6l-.2-.6-.4-.4-.6-.2-.6.2-.4.4-.2.6v1.7q0 .2-.2.9zm9.7-2.1a9.9 9.9 0 0 0-.9 1.8 12.7 12.7 0 0 0-.5 1.9 10.4 10.4 0 0 0-.2 1.8h-1.8a11.5 11.5 0 0 1 .9-3.6 12.9 12.9 0 0 1 1.9-3.2h-4v-1.6h5.7v1.5a6 6 0 0 0-1.1 1.4z"/></g><g fill="#fff" clip-path="url(#n)"><path d="M481.8 200.9l-.4-.5-.6-.3h-.7l-1.1.2a2 2 0 0 0-.7.7 2.9 2.9 0 0 0-.4.9 4.7 4.7 0 0 0-.1 1.1 4.4 4.4 0 0 0 .1 1 2.8 2.8 0 0 0 .4.9 2.1 2.1 0 0 0 .7.7l1.1.2a1.7 1.7 0 0 0 1.3-.5 2.4 2.4 0 0 0 .6-1.4h1.8a4.4 4.4 0 0 1-.4 1.5 3.5 3.5 0 0 1-.8 1.1 3.4 3.4 0 0 1-1.2.7l-1.5.2a4.4 4.4 0 0 1-1.8-.3 3.8 3.8 0 0 1-1.3-.9 4.2 4.2 0 0 1-.8-1.4 5.2 5.2 0 0 1-.3-1.7 5.3 5.3 0 0 1 .3-1.8 4.3 4.3 0 0 1 .8-1.4 3.8 3.8 0 0 1 1.3-1 4.3 4.3 0 0 1 1.8-.3l1.3.2 1.1.6a3.2 3.2 0 0 1 .8 1 3.4 3.4 0 0 1 .4 1.3H482a1.6 1.6 0 0 0-.2-.8zm8.4 6.2l-1.2.3a4.4 4.4 0 0 1-1.8-.3 3.8 3.8 0 0 1-1.3-.9 4.2 4.2 0 0 1-.8-1.4 5.1 5.1 0 0 1-.3-1.7 5.3 5.3 0 0 1 .3-1.8 4.3 4.3 0 0 1 .8-1.4 3.8 3.8 0 0 1 1.3-1 4.3 4.3 0 0 1 1.8-.3l1.3.2 1.1.6a3.2 3.2 0 0 1 1.2 2.2h-1.8a1.8 1.8 0 0 0-.6-1.1 1.9 1.9 0 0 0-1.2-.4l-1.1.2a2 2 0 0 0-.7.7 2.9 2.9 0 0 0-.4.9 4.7 4.7 0 0 0-.1 1.1 4.4 4.4 0 0 0 .1 1 2.8 2.8 0 0 0 .4.9 2 2 0 0 0 .7.7l1.1.2a1.8 1.8 0 0 0 2-1.8h-1.9v-1.4h3.6v4.6h-1.2l-.2-1a2.8 2.8 0 0 1-1.1.9zm7.3-6a4.3 4.3 0 0 1 .8-1.4 3.8 3.8 0 0 1 1.3-1 4.7 4.7 0 0 1 3.5 0 3.8 3.8 0 0 1 1.3 1 4.3 4.3 0 0 1 .8 1.4 5.3 5.3 0 0 1 .3 1.8 5.2 5.2 0 0 1-.3 1.7 4.2 4.2 0 0 1-.8 1.4 3.8 3.8 0 0 1-1.3.9 4.8 4.8 0 0 1-3.5 0 3.8 3.8 0 0 1-1.3-.9 4.2 4.2 0 0 1-.8-1.4 5.2 5.2 0 0 1-.3-1.7 5.3 5.3 0 0 1 .3-1.8zm1.7 2.8a2.8 2.8 0 0 0 .4.9 2.1 2.1 0 0 0 .7.7l1.1.2 1.1-.2a2.1 2.1 0 0 0 .7-.7 2.8 2.8 0 0 0 .4-.9 4.4 4.4 0 0 0 .1-1 4.7 4.7 0 0 0-.1-1.1 2.9 2.9 0 0 0-.4-.9 2.1 2.1 0 0 0-.7-.7l-1.1-.2-1.1.2a2 2 0 0 0-.7.7 2.9 2.9 0 0 0-.4.9 4.7 4.7 0 0 0-.1 1.1 4.4 4.4 0 0 0 .1 1.1zm9.2-2.9v.9a1.9 1.9 0 0 1 .8-.8l1.1-.2 1.1.2.7.5a2 2 0 0 1 .4.8 5 5 0 0 1 .1 1v3.8h-1.7v-3.5a2.2 2.2 0 0 0-.2-1.1.9.9 0 0 0-.9-.4 1.2 1.2 0 0 0-1 .4 2.3 2.3 0 0 0-.3 1.4v3.3h-1.7V201zm7.3 4.7a1.5 1.5 0 0 0 1.1.4l.9-.3a1.1 1.1 0 0 0 .5-.5h1.5a2.8 2.8 0 0 1-1.1 1.6 3.2 3.2 0 0 1-1.8.5l-1.3-.2a2.7 2.7 0 0 1-1-.7 3 3 0 0 1-.6-1 3.8 3.8 0 0 1-.2-1.3 3.6 3.6 0 0 1 .2-1.3 3 3 0 0 1 .6-1l1-.7 1.3-.3a3 3 0 0 1 1.4.3 2.8 2.8 0 0 1 1 .8 3.4 3.4 0 0 1 .5 1.2 4.4 4.4 0 0 1 .1 1.4h-4.5a1.7 1.7 0 0 0 .4 1.1zm1.9-3.3a1.2 1.2 0 0 0-.9-.3h-.7l-.4.3-.2.4v.4h2.6a2 2 0 0 0-.4-.8zm-36.3 19.7l-1.2.3a4.4 4.4 0 0 1-1.8-.3 3.8 3.8 0 0 1-1.3-.9 4.2 4.2 0 0 1-.8-1.4 5.2 5.2 0 0 1-.3-1.7 5.3 5.3 0 0 1 .3-1.8 4.3 4.3 0 0 1 .8-1.4 3.8 3.8 0 0 1 1.3-1 4.3 4.3 0 0 1 1.8-.3l1.3.2 1.1.6a3.1 3.1 0 0 1 1.2 2.2h-1.8a1.8 1.8 0 0 0-.6-1.1 1.9 1.9 0 0 0-1.2-.4l-1.1.2a2 2 0 0 0-.7.7 2.9 2.9 0 0 0-.4.9 4.7 4.7 0 0 0-.1 1.1 4.4 4.4 0 0 0 .1 1 2.8 2.8 0 0 0 .4.9 2.1 2.1 0 0 0 .7.7l1.1.2a1.8 1.8 0 0 0 2-1.8h-1.9v-1.4h3.6v4.6h-1.2l-.2-1a2.8 2.8 0 0 1-1.1.9zm5.5-6.1v1.2l.3-.5.5-.4.6-.3h1v1.6h-.6l-.8.2-.5.4a1.7 1.7 0 0 0-.3.6 3.5 3.5 0 0 0-.1.8v2.8h-1.7V216zm2.9 1.7a2.8 2.8 0 0 1 1.7-1.7l1.3-.2 1.3.2a2.8 2.8 0 0 1 1.7 1.7 3.8 3.8 0 0 1 .2 1.4 3.8 3.8 0 0 1-.2 1.3 2.9 2.9 0 0 1-.6 1 2.8 2.8 0 0 1-1 .7l-1.3.2-1.3-.2a2.8 2.8 0 0 1-1-.7 2.9 2.9 0 0 1-.6-1 3.8 3.8 0 0 1-.2-1.3 3.8 3.8 0 0 1 0-1.4zm1.5 2.1a1.9 1.9 0 0 0 .2.6l.5.5.7.2.7-.2.5-.5a2 2 0 0 0 .2-.6 3.6 3.6 0 0 0 .1-.7 3.7 3.7 0 0 0-.1-.7 1.9 1.9 0 0 0-.2-.6l-.5-.5-.7-.2-.7.2-.5.5a1.9 1.9 0 0 0-.2.6 3.7 3.7 0 0 0-.1.7 3.6 3.6 0 0 0 .1.7zm10 2.4v-.9a1.9 1.9 0 0 1-.8.8l-1.1.2-1.1-.2-.7-.5a2 2 0 0 1-.4-.8 5 5 0 0 1-.1-1V216h1.7v3.5a2.2 2.2 0 0 0 .2 1.1.9.9 0 0 0 .9.4 1.2 1.2 0 0 0 1-.4 2.3 2.3 0 0 0 .3-1.4V216h1.7v6.2zm4.5-6.2v.8a1.9 1.9 0 0 1 .8-.7l1.1-.2a2.7 2.7 0 0 1 1.3.3 2.6 2.6 0 0 1 .9.7 3.1 3.1 0 0 1 .5 1.1 4.7 4.7 0 0 1 .2 1.3 4.3 4.3 0 0 1-.2 1.2 3.1 3.1 0 0 1-.5 1 2.5 2.5 0 0 1-.9.7 2.6 2.6 0 0 1-1.2.3l-1.1-.2a2 2 0 0 1-.8-.7v2.9h-1.7V216zm2.2 4.9l.5-.4a1.8 1.8 0 0 0 .2-.6 3.7 3.7 0 0 0 .1-.7 3.4 3.4 0 0 0-.1-.7 1.9 1.9 0 0 0-.3-.6l-.5-.5-.7-.2-.7.2-.5.5a1.9 1.9 0 0 0-.2.6 3.9 3.9 0 0 0-.1.7 3.5 3.5 0 0 0 .1.7 1.9 1.9 0 0 0 .3.6l.5.4.7.2zm6.8-5.2a3.1 3.1 0 0 1 .6-1.1 2.6 2.6 0 0 1 1-.7l1.3-.3 1.1.2.9.5a2.5 2.5 0 0 1 .6.8 2.5 2.5 0 0 1 .2 1.1 2.7 2.7 0 0 1-.2 1.1l-.5.8-.8.6-.9.6-.8.6-.7.8h4v1.5h-6.2a3.5 3.5 0 0 1 .2-1.3 3.4 3.4 0 0 1 .6-1l.8-.8 1-.7.6-.4.6-.4.4-.5a1.3 1.3 0 0 0 .2-.7 1.3 1.3 0 0 0-.4-1 1.3 1.3 0 0 0-.9-.3l-.6.2-.4.5a2.1 2.1 0 0 0-.2.6 3.5 3.5 0 0 0-.1.7h-1.6a4.1 4.1 0 0 1 .2-1.4zm-33.8 12.9l1 .2.8.5a2.2 2.2 0 0 1 .5.8 2.4 2.4 0 0 1 .2.9 2.6 2.6 0 0 1-.3 1.3 2 2 0 0 1-1 .8l.6.3.4.5.2.6a5.1 5.1 0 0 1 .1.6v1.6l.2.4h-1.9a3.3 3.3 0 0 1-.2-1c0-.4-.1-.7-.1-1.1a1.7 1.7 0 0 0-.4-1 1.4 1.4 0 0 0-1-.3h-1.9v3.3h-1.9v-8.6zm-.7 3.9a1.4 1.4 0 0 0 1-.3 1.2 1.2 0 0 0 .3-.9 1.1 1.1 0 0 0-.3-.9 1.4 1.4 0 0 0-1-.3h-2.1v2.4zm4.6.2a2.8 2.8 0 0 1 1.7-1.7l1.3-.2 1.3.2a2.9 2.9 0 0 1 1 .7 2.9 2.9 0 0 1 .6 1 3.8 3.8 0 0 1 .2 1.4 3.8 3.8 0 0 1-.2 1.3 2.9 2.9 0 0 1-.6 1 2.8 2.8 0 0 1-1 .7l-1.3.2-1.3-.2a2.8 2.8 0 0 1-1-.7 2.9 2.9 0 0 1-.6-1 3.8 3.8 0 0 1-.2-1.3 3.8 3.8 0 0 1 .1-1.4zm1.5 2.1a1.9 1.9 0 0 0 .2.6l.5.5.7.2.7-.2.5-.5a1.9 1.9 0 0 0 .2-.6 3.6 3.6 0 0 0 .1-.7 3.7 3.7 0 0 0-.1-.7 1.9 1.9 0 0 0-.2-.6l-.5-.5-.7-.2-.7.2-.5.5a1.8 1.8 0 0 0-.2.6 3.7 3.7 0 0 0-.1.7 3.6 3.6 0 0 0 .1.7zm5.8-2.1a2.8 2.8 0 0 1 1.7-1.7l1.3-.2 1.3.2a2.8 2.8 0 0 1 1.7 1.7 3.8 3.8 0 0 1 .2 1.4 3.8 3.8 0 0 1-.2 1.3 2.9 2.9 0 0 1-.6 1 2.8 2.8 0 0 1-1 .7l-1.3.2-1.3-.2a2.8 2.8 0 0 1-1-.7 2.9 2.9 0 0 1-.6-1 3.8 3.8 0 0 1-.2-1.3 3.8 3.8 0 0 1 0-1.4zm1.5 2.1a1.9 1.9 0 0 0 .2.6l.5.5.7.2.7-.2.5-.5a2 2 0 0 0 .2-.6 3.6 3.6 0 0 0 .1-.7 3.7 3.7 0 0 0-.1-.7 1.9 1.9 0 0 0-.2-.6l-.5-.5-.7-.2-.7.2-.5.5a1.9 1.9 0 0 0-.2.6 3.7 3.7 0 0 0-.1.7 3.6 3.6 0 0 0 .2.7zm7.5-3.8v.8a2.4 2.4 0 0 1 .8-.7l1.1-.3 1.1.2a1.5 1.5 0 0 1 .7.8l.8-.7a2 2 0 0 1 1.1-.3h.9l.7.4a1.8 1.8 0 0 1 .5.7 2.8 2.8 0 0 1 .2 1v4.2h-1.7V233a1.2 1.2 0 0 0-.1-.5l-.3-.3h-1.2l-.3.4a1.4 1.4 0 0 0-.2.5 3.7 3.7 0 0 0 0 .6v3.5h-1.7v-4a1.5 1.5 0 0 0-.1-.5l-.3-.4H502l-.4.2-.3.4a1.8 1.8 0 0 0-.1.7v3.6h-1.7V231zm14.6-2.4l3.6 5.7v-5.7h1.7v8.6h-1.9l-3.6-5.7v5.7h-1.8v-8.6zm6.8 2.1a3.1 3.1 0 0 1 .6-1.1 2.6 2.6 0 0 1 1-.7l1.3-.3 1.1.2.9.5a2.5 2.5 0 0 1 .6.8 2.5 2.5 0 0 1 .2 1.1 2.7 2.7 0 0 1-.2 1.1l-.5.8-.8.6-.9.6-.8.6-.7.8h4v1.5h-6.2a3.5 3.5 0 0 1 .2-1.3 3.4 3.4 0 0 1 .6-1l.8-.8 1-.7.6-.4.6-.4.4-.5a1.3 1.3 0 0 0 .2-.7 1.3 1.3 0 0 0-.4-1 1.3 1.3 0 0 0-.9-.3l-.6.2-.4.5a2.1 2.1 0 0 0-.2.6 3.5 3.5 0 0 0-.1.7h-1.6a4.1 4.1 0 0 1 .2-1.4zm6.5.2a3.7 3.7 0 0 1 .7-1.3 2.4 2.4 0 0 1 1-.7l1.2-.2 1.2.2a2.4 2.4 0 0 1 1 .7 3.7 3.7 0 0 1 .7 1.3 7.4 7.4 0 0 1 .2 2.1 7.7 7.7 0 0 1-.2 2.1 3.7 3.7 0 0 1-.7 1.3 2.4 2.4 0 0 1-1 .7l-1.2.2-1.2-.2a2.4 2.4 0 0 1-1-.7 3.7 3.7 0 0 1-.7-1.3 7.7 7.7 0 0 1-.2-2.1 7.4 7.4 0 0 1 .2-2.1zm1.5 2.9a4.7 4.7 0 0 0 .1 1 2.1 2.1 0 0 0 .4.8 1 1 0 0 0 .8.3 1 1 0 0 0 .8-.3 2.1 2.1 0 0 0 .4-.8 4.7 4.7 0 0 0 .1-1v-1.4a5.9 5.9 0 0 0 0-.6v-.6l-.2-.6-.4-.4-.6-.2-.6.2-.4.4-.2.6v1.7c0 .1-.2.6-.2.9zm9.7-2.1a9.9 9.9 0 0 0-.9 1.8 12.6 12.6 0 0 0-.5 1.9 10.4 10.4 0 0 0-.2 1.8h-1.8a11.5 11.5 0 0 1 .9-3.6 12.9 12.9 0 0 1 1.9-3.2h-4v-1.6h5.7v1.5a5.9 5.9 0 0 0-1.1 1.4z"/></g><g clip-path="url(#o)"><path d="M41.4 246.2v-5.4h-2.1v-1.3h.9l.7-.3.6-.5a1.9 1.9 0 0 0 .3-.8h1.4v8.4zm4.4-4.3v-1.8h1.9v1.8zm1.9 2.4v1.8h-1.9v-1.8zm1.2-4.4a3.7 3.7 0 0 1 .7-1.3 2.4 2.4 0 0 1 1-.7l1.2-.2 1.2.2a2.4 2.4 0 0 1 1 .7 3.7 3.7 0 0 1 .7 1.3 7.4 7.4 0 0 1 .2 2.1 7.7 7.7 0 0 1-.2 2.1 3.7 3.7 0 0 1-.7 1.3 2.4 2.4 0 0 1-1 .7l-1.2.2-1.2-.2a2.4 2.4 0 0 1-1-.7 3.7 3.7 0 0 1-.7-1.3 7.7 7.7 0 0 1-.2-2.1 7.4 7.4 0 0 1 .2-2.1zm1.5 2.9a4.7 4.7 0 0 0 .1 1 2.1 2.1 0 0 0 .4.8 1 1 0 0 0 .8.3 1 1 0 0 0 .8-.3 2.1 2.1 0 0 0 .4-.8 4.7 4.7 0 0 0 .1-1v-1.4a5.8 5.8 0 0 0 0-.6v-.6l-.2-.6-.4-.4-.6-.2-.6.2-.4.4-.2.6v1.7q0 .2-.2.9zm5.2-2.9a3.7 3.7 0 0 1 .7-1.3 2.4 2.4 0 0 1 1-.7l1.2-.2 1.2.2a2.4 2.4 0 0 1 1 .7 3.7 3.7 0 0 1 .7 1.3 7.4 7.4 0 0 1 .2 2.1 7.7 7.7 0 0 1-.2 2.1 3.7 3.7 0 0 1-.7 1.3 2.4 2.4 0 0 1-1 .7l-1.2.2-1.2-.2a2.4 2.4 0 0 1-1-.7 3.7 3.7 0 0 1-.7-1.3 7.7 7.7 0 0 1-.2-2.1 7.4 7.4 0 0 1 .2-2.1zm1.5 2.9a4.7 4.7 0 0 0 .1 1 2.1 2.1 0 0 0 .4.8 1 1 0 0 0 .8.3 1 1 0 0 0 .8-.3 2.1 2.1 0 0 0 .4-.8 4.7 4.7 0 0 0 .1-1v-1.4a5.8 5.8 0 0 0 0-.6v-.6l-.2-.6-.4-.4-.6-.2-.6.2-.4.4-.2.6v1.7q0 .2-.2.9zm12.7-5.2l1.4.2.9.6a2.4 2.4 0 0 1 .5.9 3.3 3.3 0 0 1 0 2 2.4 2.4 0 0 1-.5.9l-.9.6-1.4.2h-2v3.1H66v-8.6zm-.5 4h.6l.5-.2.4-.4a1.6 1.6 0 0 0 0-1.3l-.4-.4-.5-.2h-2.1v2.6zm7.3-4l2 5.9 1.9-5.9h2.7v8.6h-1.8v-6.1l-2.1 6.1h-1.5l-2.1-6v6H74v-8.6z"/></g><g clip-path="url(#p)"><path d="M39 277.7a3.1 3.1 0 0 1 .6-1.1 2.6 2.6 0 0 1 1-.7l1.3-.3 1.1.2.9.5a2.5 2.5 0 0 1 .6.8 2.5 2.5 0 0 1 .2 1.1 2.7 2.7 0 0 1-.2 1.1 2.9 2.9 0 0 1-.5.8l-.8.6-.9.6-.8.6-.7.8h4v1.5h-6.1a3.5 3.5 0 0 1 .2-1.3 3.4 3.4 0 0 1 .6-1l.8-.8 1-.7.6-.4.6-.4.4-.5a1.3 1.3 0 0 0 .2-.7 1.3 1.3 0 0 0-.4-1 1.2 1.2 0 0 0-.9-.3l-.6.2-.4.5a2.1 2.1 0 0 0-.2.6 3.6 3.6 0 0 0-.1.7h-1.6a4 4 0 0 1 .1-1.4zm6.8 2.2v-1.8h1.9v1.8zm1.9 2.4v1.8h-1.9v-1.8zm1.2-4.4a3.7 3.7 0 0 1 .7-1.3 2.4 2.4 0 0 1 1-.7l1.2-.2 1.2.2a2.4 2.4 0 0 1 1 .7 3.7 3.7 0 0 1 .7 1.3 7.4 7.4 0 0 1 .2 2.1 7.7 7.7 0 0 1-.2 2.1 3.7 3.7 0 0 1-.7 1.3 2.4 2.4 0 0 1-1 .7l-1.2.2-1.2-.2a2.4 2.4 0 0 1-1-.7 3.7 3.7 0 0 1-.7-1.3 7.7 7.7 0 0 1-.2-2.1 7.4 7.4 0 0 1 .2-2.1zm1.5 2.9a4.7 4.7 0 0 0 .1 1 2.1 2.1 0 0 0 .4.8 1 1 0 0 0 .8.3 1 1 0 0 0 .8-.3 2.1 2.1 0 0 0 .4-.8 4.7 4.7 0 0 0 .1-1v-1.4a5.8 5.8 0 0 0 0-.6v-.6l-.2-.6-.4-.4-.6-.2-.6.2-.4.4-.2.6v1.7q0 .2-.2.9zm5.2-2.9a3.7 3.7 0 0 1 .7-1.3 2.4 2.4 0 0 1 1-.7l1.2-.2 1.2.2a2.4 2.4 0 0 1 1 .7 3.7 3.7 0 0 1 .7 1.3 7.4 7.4 0 0 1 .2 2.1 7.7 7.7 0 0 1-.2 2.1 3.7 3.7 0 0 1-.7 1.3 2.4 2.4 0 0 1-1 .7l-1.2.2-1.2-.2a2.4 2.4 0 0 1-1-.7 3.7 3.7 0 0 1-.7-1.3 7.7 7.7 0 0 1-.2-2.1 7.4 7.4 0 0 1 .2-2.1zm1.5 2.9a4.7 4.7 0 0 0 .1 1 2.1 2.1 0 0 0 .4.8 1 1 0 0 0 .8.3 1 1 0 0 0 .8-.3 2.1 2.1 0 0 0 .4-.8 4.7 4.7 0 0 0 .1-1v-1.4a5.8 5.8 0 0 0 0-.6v-.6l-.2-.6-.4-.4-.6-.2-.6.2-.4.4-.2.6v1.7q0 .2-.2.9zm12.7-5.2l1.4.2.9.6a2.4 2.4 0 0 1 .5.9 3.3 3.3 0 0 1 0 2 2.4 2.4 0 0 1-.5.9l-.9.6-1.4.2h-2v3.1H66v-8.6zm-.5 4h.6l.5-.2.4-.4a1.6 1.6 0 0 0 0-1.3l-.4-.4-.5-.2h-2.1v2.6zm7.3-4l2 5.9 1.9-5.9h2.7v8.6h-1.8v-6.1l-2.1 6.1h-1.5l-2.1-6v6H74v-8.6z"/></g><g clip-path="url(#q)"><path d="M41.8 318.2h.6l.4-.3a.9.9 0 0 0 .2-.6 1 1 0 0 0-.4-.8 1.3 1.3 0 0 0-.8-.3 1.2 1.2 0 0 0-1 .4 1.6 1.6 0 0 0-.3 1.1h-1.6a3.6 3.6 0 0 1 .2-1.2 2.7 2.7 0 0 1 .6-.9l.9-.6 1.2-.2 1 .2.9.5a2.4 2.4 0 0 1 .7.7 1.9 1.9 0 0 1 .3 1 2 2 0 0 1-.3 1.1 1.5 1.5 0 0 1-.9.6 1.8 1.8 0 0 1 1.1.7 2 2 0 0 1 .4 1.2 2.5 2.5 0 0 1-.9 2l-1 .5-1.2.2-1.3-.2-1-.6a2.6 2.6 0 0 1-.6-1 3.4 3.4 0 0 1-.2-1.3h1.6a2.4 2.4 0 0 0 .1.6l.3.5.4.4h.6a1.4 1.4 0 0 0 1-.4 1.4 1.4 0 0 0 .2-1.7l-.5-.4h-1.3v-1.2zm4 .7v-1.8h1.9v1.8zm1.9 2.4v1.8h-1.9v-1.8zm1.2-4.4a3.7 3.7 0 0 1 .7-1.3 2.4 2.4 0 0 1 1-.7l1.2-.2 1.2.2a2.4 2.4 0 0 1 1 .7 3.7 3.7 0 0 1 .7 1.3 7.4 7.4 0 0 1 .2 2.1 7.7 7.7 0 0 1-.2 2.1 3.7 3.7 0 0 1-.7 1.3 2.4 2.4 0 0 1-1 .7l-1.2.2-1.2-.2a2.4 2.4 0 0 1-1-.7 3.7 3.7 0 0 1-.7-1.3 7.7 7.7 0 0 1-.2-2.1 7.4 7.4 0 0 1 .2-2.1zm1.5 2.9a4.7 4.7 0 0 0 .1 1 2.1 2.1 0 0 0 .4.8 1 1 0 0 0 .8.3 1 1 0 0 0 .8-.3 2.1 2.1 0 0 0 .4-.8 4.7 4.7 0 0 0 .1-1v-1.4a5.8 5.8 0 0 0 0-.6v-.6l-.2-.6-.4-.4-.6-.2-.6.2-.4.4-.2.6v1.7q0 .2-.2.9zm5.2-2.9a3.7 3.7 0 0 1 .7-1.3 2.4 2.4 0 0 1 1-.7l1.2-.2 1.2.2a2.4 2.4 0 0 1 1 .7 3.7 3.7 0 0 1 .7 1.3 7.4 7.4 0 0 1 .2 2.1 7.7 7.7 0 0 1-.2 2.1 3.7 3.7 0 0 1-.7 1.3 2.4 2.4 0 0 1-1 .7l-1.2.2-1.2-.2a2.4 2.4 0 0 1-1-.7 3.7 3.7 0 0 1-.7-1.3 7.7 7.7 0 0 1-.2-2.1 7.4 7.4 0 0 1 .2-2.1zm1.5 2.9a4.7 4.7 0 0 0 .1 1 2.1 2.1 0 0 0 .4.8 1 1 0 0 0 .8.3 1 1 0 0 0 .8-.3 2.1 2.1 0 0 0 .4-.8 4.7 4.7 0 0 0 .1-1v-1.4a5.8 5.8 0 0 0 0-.6v-.6l-.2-.6-.4-.4-.6-.2-.6.2-.4.4-.2.6v1.7q0 .2-.2.9zm12.7-5.2l1.4.2.9.6a2.4 2.4 0 0 1 .5.9 3.3 3.3 0 0 1 0 2 2.4 2.4 0 0 1-.5.9l-.9.6-1.4.2h-2v3.1H66v-8.6zm-.5 4h.6l.5-.2.4-.4a1.6 1.6 0 0 0 0-1.3l-.4-.4-.5-.2h-2.1v2.6zm7.3-4l2 5.9 1.9-5.9h2.7v8.6h-1.8v-6.1l-2.1 6.1h-1.5l-2.1-6v6H74v-8.6z"/></g><g clip-path="url(#r)"><path d="M38.6 356.2v-1.6l3.6-4.9h1.5v5.1h1.1v1.4h-1v1.9h-1.6v-1.9zm3.5-4.3l-2.1 2.9h2.2v-2.9zm3.7 2v-1.8h1.9v1.8zm1.9 2.4v1.8h-1.9v-1.8zm1.2-4.4a3.7 3.7 0 0 1 .7-1.3 2.4 2.4 0 0 1 1-.7l1.2-.2 1.2.2a2.4 2.4 0 0 1 1 .7 3.7 3.7 0 0 1 .7 1.3 7.4 7.4 0 0 1 .2 2.1 7.7 7.7 0 0 1-.2 2.1 3.7 3.7 0 0 1-.7 1.3 2.4 2.4 0 0 1-1 .7l-1.2.2-1.2-.2a2.4 2.4 0 0 1-1-.7 3.7 3.7 0 0 1-.7-1.3 7.7 7.7 0 0 1-.2-2.1 7.4 7.4 0 0 1 .2-2.1zm1.5 2.9a4.7 4.7 0 0 0 .1 1 2.1 2.1 0 0 0 .4.8 1 1 0 0 0 .8.3 1 1 0 0 0 .8-.3 2.1 2.1 0 0 0 .4-.8 4.7 4.7 0 0 0 .1-1v-1.4a5.8 5.8 0 0 0 0-.6v-.6l-.2-.6-.4-.4-.6-.2-.6.2-.4.4-.2.6v1.7q0 .2-.2.9zm5.2-2.9a3.7 3.7 0 0 1 .7-1.3 2.4 2.4 0 0 1 1-.7l1.2-.2 1.2.2a2.4 2.4 0 0 1 1 .7 3.7 3.7 0 0 1 .7 1.3 7.4 7.4 0 0 1 .2 2.1 7.7 7.7 0 0 1-.2 2.1 3.7 3.7 0 0 1-.7 1.3 2.4 2.4 0 0 1-1 .7l-1.2.2-1.2-.2a2.4 2.4 0 0 1-1-.7 3.7 3.7 0 0 1-.7-1.3 7.7 7.7 0 0 1-.2-2.1 7.4 7.4 0 0 1 .2-2.1zm1.5 2.9a4.7 4.7 0 0 0 .1 1 2.1 2.1 0 0 0 .4.8 1 1 0 0 0 .8.3 1 1 0 0 0 .8-.3 2.1 2.1 0 0 0 .4-.8 4.7 4.7 0 0 0 .1-1v-1.4a5.8 5.8 0 0 0 0-.6v-.6l-.2-.6-.4-.4-.6-.2-.6.2-.4.4-.2.6v1.7q0 .2-.2.9zm12.7-5.2l1.4.2.9.6a2.4 2.4 0 0 1 .5.9 3.3 3.3 0 0 1 0 2 2.4 2.4 0 0 1-.5.9l-.9.6-1.4.2h-2v3.1H66v-8.6zm-.5 4h.6l.5-.2.4-.4a1.6 1.6 0 0 0 0-1.3l-.4-.4-.5-.2h-2.1v2.6zm7.3-4l2 5.9 1.9-5.9h2.7v8.6h-1.8v-6.1l-2.1 6.1h-1.5l-2.1-6v6H74v-8.6z"/></g><g clip-path="url(#s)"><path d="M41 390.2l-.3 1.9.7-.5.9-.2 1.1.2.8.6a2.7 2.7 0 0 1 .5.9 3.5 3.5 0 0 1 .2 1.1 2.9 2.9 0 0 1-.3 1.2 3.1 3.1 0 0 1-.7 1l-1 .6-1.2.2-1.2-.2-1-.5a2.5 2.5 0 0 1-.7-.8 2.6 2.6 0 0 1-.3-1.2h1.7a1.4 1.4 0 0 0 .4.9 1.3 1.3 0 0 0 .9.3h.6l.5-.4.3-.5a1.8 1.8 0 0 0 .1-.6 1.9 1.9 0 0 0-.1-.6l-.3-.5-.5-.3h-.6l-.7.2-.5.5h-1.4l.8-4.6h4.7v1.4zm4.8 2.7v-1.8h1.9v1.8zm1.9 2.4v1.8h-1.9v-1.8zm1.2-4.4a3.7 3.7 0 0 1 .7-1.3 2.4 2.4 0 0 1 1-.7l1.2-.2 1.2.2a2.4 2.4 0 0 1 1 .7 3.7 3.7 0 0 1 .7 1.3 7.4 7.4 0 0 1 .2 2.1 7.7 7.7 0 0 1-.2 2.1 3.7 3.7 0 0 1-.7 1.3 2.4 2.4 0 0 1-1 .7l-1.2.2-1.2-.2a2.4 2.4 0 0 1-1-.7 3.7 3.7 0 0 1-.7-1.3 7.7 7.7 0 0 1-.2-2.1 7.4 7.4 0 0 1 .2-2.1zm1.5 2.9a4.7 4.7 0 0 0 .1 1 2.1 2.1 0 0 0 .4.8 1 1 0 0 0 .8.3 1 1 0 0 0 .8-.3 2.1 2.1 0 0 0 .4-.8 4.7 4.7 0 0 0 .1-1v-1.4a5.8 5.8 0 0 0 0-.6v-.6l-.2-.6-.4-.4-.6-.2-.6.2-.4.4-.2.6v1.7q0 .2-.2.9zm5.2-2.9a3.7 3.7 0 0 1 .7-1.3 2.4 2.4 0 0 1 1-.7l1.2-.2 1.2.2a2.4 2.4 0 0 1 1 .7 3.7 3.7 0 0 1 .7 1.3 7.4 7.4 0 0 1 .2 2.1 7.7 7.7 0 0 1-.2 2.1 3.7 3.7 0 0 1-.7 1.3 2.4 2.4 0 0 1-1 .7l-1.2.2-1.2-.2a2.4 2.4 0 0 1-1-.7 3.7 3.7 0 0 1-.7-1.3 7.7 7.7 0 0 1-.2-2.1 7.4 7.4 0 0 1 .2-2.1zm1.5 2.9a4.7 4.7 0 0 0 .1 1 2.1 2.1 0 0 0 .4.8 1 1 0 0 0 .8.3 1 1 0 0 0 .8-.3 2.1 2.1 0 0 0 .4-.8 4.7 4.7 0 0 0 .1-1v-1.4a5.8 5.8 0 0 0 0-.6v-.6l-.2-.6-.4-.4-.6-.2-.6.2-.4.4-.2.6v1.7q0 .2-.2.9zm12.7-5.2l1.4.2.9.6a2.4 2.4 0 0 1 .5.9 3.3 3.3 0 0 1 0 2 2.4 2.4 0 0 1-.5.9l-.9.6-1.4.2h-2v3.1H66v-8.6zm-.5 4h.6l.5-.2.4-.4a1.6 1.6 0 0 0 0-1.3l-.4-.4-.5-.2h-2.1v2.6zm7.3-4l2 5.9 1.9-5.9h2.7v8.6h-1.8v-6.1l-2.1 6.1h-1.5l-2.1-6v6H74v-8.6z"/></g><g fill="none" clip-path="url(#a)"><path stroke="#d6d6d6" d="M119.7 1.5v38.9m0 0v381.7M237.3 1.5v38.9m0 0v381.7M355 1.5v38.9m0 0v381.7M472.7 1.5v38.9m0 0v381.7M590.3 1.5v38.9m0 0v381.7M1.5 78.8h707m-707 38.4h707m-707 38.5h707m-707 38.4h118.7m116.6 0h471.7m-707 38.4h118.7m234.3 0h118.7m116.6 0h118.7m-707 38.4h236.3m116.7 0h118.7m116.6 0h118.7m-707 38.4h707m-707 35.5h707m-707 38.4h707"/><path stroke="#ebebeb" stroke-width=".5" d="M1.5 40.4h117.7"/><path stroke="#d6d6d6" d="M119.2 40.4h589.3M2 1.5v381.7m0 0v38.9M708 1.5v38.9m0 0v381.7M1.5 2h707M1.5 421.6h707"/></g></svg>