<svg xmlns="http://www.w3.org/2000/svg" width="4in" height="4in" viewBox="0 0 288 288"><path fill="#464646" d="M272.1 123.1a116.6 116.6 0 0 0-23.4-30 42.2 42.2 0 0 0 4.1-18.1A41.2 41.2 0 0 0 176 54.1c-19.9-5.2-40.7-6.8-60.3-4-56.3 7.9-84.3 49.1-66.3 94.2L9.2 147c26.2 8 56.7 24.5 77.7 39-1.7-20.7.5-47.9 9.1-67.1l-25.6 17.4-10.5 4.1c-13.5-39.2 11.6-74.3 60.7-81.2 16.8-2.4 34.6-1.1 51.8 3a41.3 41.3 0 0 0 71 39.1 99.6 99.6 0 0 1 17.4 23.4c23.4 43.6-1.5 85.3-55.5 92.9-3.1.5-6.3.8-9.6 1v9.4c4.9-.2 9.8-.6 14.5-1.2 60.2-8.5 88-55 61.9-103.7z"/></svg>