<svg xmlns="http://www.w3.org/2000/svg" width="4in" height="4in" viewBox="0 0 288 288"><rect width="252" height="252" x="18" y="18" fill="#b2b2b2" rx="30" ry="30"/><path fill="#464646" fill-rule="evenodd" d="M208.9 262H47a29 29 0 0 1-29-29V47a29 29 0 0 1 29-29h186a29 29 0 0 1 29 29v81.4"/><path fill="#b2b2b2" fill-rule="evenodd" d="M266.1 111.6c-44.9 86-64 157.4-64 157.4 3.2-49.5-13.1-73.9-57.5-78.5 50.7-23 85.2-40.2 121.5-78.9z"/><rect width="252" height="252" x="18" y="18" fill="none" stroke="#b2b2b2" stroke-miterlimit="10" stroke-width="14.4" rx="30" ry="30"/></svg>