<svg xmlns="http://www.w3.org/2000/svg" width="22in" height="3.9in" viewBox="0 0 1584.2 282.3"><circle cx="1500.6" cy="77.1" r="28.1" fill="#464646"/><path fill="#464646" d="M1317.6 21.5v245h245v-245zm237.2 140.7c-28.7-23.5-60.8-26.2-89.2 2.2s-57.8-179.6-140.3-10.6V29.3h229.5zM250.3 71.5h-45.2V52.9a23.4 23.4 0 0 0-23.4-23.4h-79.3a23.3 23.3 0 0 0-23.3 23.4v18.6H33.9a17.8 17.8 0 0 0-17.8 17.8v144.1a17.8 17.8 0 0 0 17.8 17.8h216.4a17.8 17.8 0 0 0 17.8-17.8V89.3a17.8 17.8 0 0 0-17.8-17.8zM100.1 52.9a2.3 2.3 0 0 1 2.3-2.4h79.3a2.4 2.4 0 0 1 2.4 2.4v18.6h-84z"/><path fill="#b2b2b2" d="M49.9 85.5h15.2v147H49.9zm170.3 0h15.2v147h-15.2z"/><path fill="#464646" d="M359.1 80.5v127l110 63.5 110-63.5v-127L469.1 17l-110 63.5z"/><path fill="#b2b2b2" d="M479.1 251l88-50.5V97l-88 50.5V251z"/><path fill="#464646" d="M768.1 220a99.9 99.9 0 0 1 147.4-88c-6.1-62.8-59-112-123.4-112A124 124 0 0 0 780 267.4a99.5 99.5 0 0 1-11.9-47.4z"/><path fill="#464646" d="M914.5 163.7a73 73 0 0 0-102.7 102.8 124.2 124.2 0 0 0 102.7-102.8z"/><circle cx="792.1" cy="144" r="124" fill="none"/><path fill="#b2b2b2" d="M795.1 220a72.9 72.9 0 0 1 119.4-56.3 127.7 127.7 0 0 0 1.6-19.7q0-6-.6-12A100 100 0 0 0 780 267.4a121 121 0 0 0 12.1.6 127.8 127.8 0 0 0 19.7-1.5 72.5 72.5 0 0 1-16.7-46.5z"/><circle cx="1116.1" cy="144" r="57" fill="#464646"/><path fill="#464646" d="M1115.1 80a9 9 0 0 0 9-9V13a9 9 0 0 0-18 0v58a9 9 0 0 0 9 9zm-57.7 19.5a8.9 8.9 0 0 0 6.3 2.6 9.3 9.3 0 0 0 6.4-2.6 9 9 0 0 0 0-12.7l-41-41.1a9 9 0 0 0-12.7 12.8zm-5.3 45.5a9.1 9.1 0 0 0-9-9h-58a9 9 0 1 0 0 18h58a9 9 0 0 0 9-9zm6.7 45l-41 41a9 9 0 0 0 0 12.7 8.6 8.6 0 0 0 6.3 2.7 9 9 0 0 0 6.4-2.7l41-41a9 9 0 1 0-12.7-12.7zm58.3 18a9 9 0 0 0-9 9v58a9 9 0 0 0 18 0v-58a9.1 9.1 0 0 0-9-9zm57.7-19.4a9.1 9.1 0 0 0-12.8 0 9 9 0 0 0 0 12.7l41 41a9 9 0 1 0 12.8-12.7zm72.3-54.6h-58a9 9 0 0 0 0 18h58a9 9 0 0 0 0-18zm-80.1-33.3a8.9 8.9 0 0 0 6.3-2.6l41.1-41a9.1 9.1 0 0 0-12.8-12.8l-41 41a9.1 9.1 0 0 0 0 12.8 9.3 9.3 0 0 0 6.4 2.6z"/></svg>