<svg xmlns="http://www.w3.org/2000/svg" width="31in" height="4in" viewBox="0 0 2228.9 288"><defs><clipPath id="a"><path fill="none" d="M228 7h52.1v52.11H228z"/></clipPath><clipPath id="b"><path fill="none" d="M553 7h52.1v52.11H553z"/></clipPath><clipPath id="c"><path fill="none" d="M876.4 7h52.1v52.11h-52.1z"/></clipPath><clipPath id="d"><path fill="none" d="M1199.8 7h52.1v52.11h-52.1z"/></clipPath><clipPath id="e"><path fill="none" d="M1523.2 7h52.1v52.11h-52.1z"/></clipPath><clipPath id="f"><path fill="none" d="M1846.6 7h52.1v52.11h-52.1z"/></clipPath><clipPath id="g"><path fill="none" d="M2170 7h52.1v52.11H2170z"/></clipPath></defs><path fill="#464646" fill-rule="evenodd" d="M21.8 14.9v133.3l39.4-39.4h51.5L21.8 14.9zm248.4 154.4l-32.5-32.5v23.7h-62.6V97.9h23.7l-32.5-32.5-32.4 32.5h23.7v62.6H94.9v-23.7l-32.4 32.5 32.4 32.4V178h62.7v62.7h-23.7l32.4 32.4 32.5-32.4h-23.7V178h62.6v23.7l32.5-32.4z"/><rect width="252" height="252" x="344" y="18" fill="#464646" stroke="#b2b2b2" stroke-miterlimit="10" stroke-width="10" rx="30" ry="30"/><path fill="none" stroke="#b2b2b2" stroke-dasharray="0 12.24" stroke-linecap="round" stroke-linejoin="round" stroke-width="6" d="M356.2 125.5h115a17.2 17.2 0 0 1 17.3 17.3v121.1"/><path fill="#464646" d="M697.6 176.4a1.6 1.6 0 0 0 .9-.3l.9-.4.7-.6c.2-.3.5-.5.6-.8a3.5 3.5 0 0 0 .5-.8l.3-1c0-.3.1-.6.1-.9s-.1-.7-.1-1l-.3-.9a4.1 4.1 0 0 0-.5-.9c-.1-.3-.4-.5-.6-.7l-.7-.7-.9-.4-.9-.3h-2l-.9.3-.8.4a2.7 2.7 0 0 0-.8.7 5.1 5.1 0 0 0-1.5 3.5c0 .3.1.6.1.9l.3 1a3.5 3.5 0 0 0 .5.8l.6.8.8.6.8.4a1.6 1.6 0 0 0 .9.3h2zm69.4 77.3a4.9 4.9 0 0 0-6.4 2.9 5 5 0 0 0 2.9 6.4 4.7 4.7 0 0 0 1.7.3 5 5 0 0 0 1.8-9.6z"/><circle cx="803.1" cy="265.2" r="5" fill="#464646"/><path fill="#464646" d="M750.4 245.6a5 5 0 0 0-6.8 1.7 4.9 4.9 0 0 0 1.7 6.8 4.6 4.6 0 0 0 2.5.8 5.2 5.2 0 0 0 4.3-2.4 5.1 5.1 0 0 0-1.7-6.9zm34.3 13a4.8 4.8 0 0 0-5.7 4 5 5 0 0 0 4 5.8h.8a5 5 0 0 0 .9-9.9zM706 203.9a4.9 4.9 0 0 0 2.3 9.3 4.6 4.6 0 0 0 2.3-.6 4.8 4.8 0 0 0 2.1-6.7 4.9 4.9 0 0 0-6.7-2zm-.5-15a4.9 4.9 0 1 0-9.4 3.1 4.8 4.8 0 0 0 4.7 3.4l1.5-.2a5 5 0 0 0 3.2-6.3zm23 46.3a5 5 0 0 0 .4 7 5.2 5.2 0 0 0 3.3 1.2 4.7 4.7 0 0 0 3.7-1.6 5 5 0 0 0-.4-7.1 4.9 4.9 0 0 0-7 .5zm-5.7-13.8a5 5 0 0 0-7.8 6.1 4.8 4.8 0 0 0 3.9 1.9 4.5 4.5 0 0 0 3.1-1.1 4.9 4.9 0 0 0 .8-6.9zm98.7 37.2a5 5 0 0 0-4 5.8 4.9 4.9 0 0 0 4.8 4.1h.9a5 5 0 0 0 4-5.8 4.8 4.8 0 0 0-5.7-4.1zm78.8-54.7a5.1 5.1 0 0 0-6.7 2.1 4.9 4.9 0 0 0 2 6.7 4.6 4.6 0 0 0 2.3.6 5.1 5.1 0 0 0 4.4-2.6 5 5 0 0 0-2-6.8zm-9.9 16.7a5.1 5.1 0 0 0-7 .8 5 5 0 0 0 .9 7 4.8 4.8 0 0 0 6.9-.8 4.9 4.9 0 0 0-.8-7zm16.6-34.8a5 5 0 0 0-6.3 3.2 4.9 4.9 0 0 0 3.3 6.2 4 4 0 0 0 1.5.3 5 5 0 0 0 4.7-3.5 4.9 4.9 0 0 0-3.2-6.2zm-36.3 49a5 5 0 0 0-.4 7 5 5 0 0 0 3.7 1.7 4.8 4.8 0 0 0 3.3-1.3 4.9 4.9 0 0 0 .4-7 5 5 0 0 0-7-.4zm-31.4 18.9a4.9 4.9 0 0 0-2.9 6.4 4.8 4.8 0 0 0 4.6 3.2 5.7 5.7 0 0 0 1.8-.3 4.9 4.9 0 0 0 2.8-6.4 4.8 4.8 0 0 0-6.3-2.9zm16.6-8a4.8 4.8 0 0 0-1.7 6.8 4.9 4.9 0 0 0 4.2 2.4 4.8 4.8 0 0 0 2.6-.7 5 5 0 0 0 1.7-6.8 4.9 4.9 0 0 0-6.8-1.7zm57.3-77.6l-.8-.7-.8-.4-1-.3h-1.9l-.9.3-.9.4a17415375666968.5 17415375666968.5 0 0 1-1.4 1.4l-.4.9-.3.9a3.1 3.1 0 0 0-.1 1 2.8 2.8 0 0 0 .1.9l.3 1 .4.8.7.8a5 5 0 0 0 3.5 1.4 5.2 5.2 0 0 0 3.5-1.4l.6-.8a3 3 0 0 0 .4-.8 1.9 1.9 0 0 0 .3-1 2.8 2.8 0 0 0 .1-.9 5 5 0 0 0-1.4-3.5zM843 65.5a87.5 87.5 0 0 1 15.1 7.3 100.9 100.9 0 0 1 13.8 9.7A104.5 104.5 0 0 1 884 94.4a106.5 106.5 0 0 1 25.5 63.4 1 1 0 0 0 1 1 1.2 1.2 0 0 0 1.1-1 108.5 108.5 0 0 0-20.3-69 118.7 118.7 0 0 0-12.1-14.3 127.2 127.2 0 0 0-14.4-12 109 109 0 0 0-34.2-16.2 117.8 117.8 0 0 0-18.8-3.6l-2.4-.2-2.4-.2-4.8-.2H795l-2.4.2-4.8.3h-2.4l-2.4.3-4.8.7-4.8 1-2.4.5-2.3.6-4.7 1.5-2.3.7-2.4.8-2.3.8-2.2.9A98.8 98.8 0 0 0 722.3 72a106.1 106.1 0 0 0-18.2 25l-28.5-20c10.8 22.2 17.8 55.1 20.1 80.8 15-21 37.6-45.9 58.1-59.7l-30.2 2.6a118.6 118.6 0 0 1 13.1-13.4 139.3 139.3 0 0 1 26.6-17.9 99.8 99.8 0 0 1 30.9-9.9l2-.2 2.1-.2 4.1-.3h8.2a92.9 92.9 0 0 1 16.5 2 99.8 99.8 0 0 1 15.9 4.7zm403.1 86.6a116.6 116.6 0 0 0-23.4-30 42.2 42.2 0 0 0 4.1-18.1 41.2 41.2 0 0 0-76.8-20.9c-19.9-5.2-40.7-6.8-60.3-4-56.3 7.9-84.3 49.1-66.3 94.2l-40.2 2.7c26.2 8 56.7 24.5 77.7 39-1.7-20.7.5-47.9 9.1-67.1l-25.6 17.4-10.5 4.1c-13.5-39.2 11.6-74.3 60.7-81.2 16.8-2.4 34.6-1.1 51.8 3a41.3 41.3 0 0 0 71 39.1 99.6 99.6 0 0 1 17.4 23.4c23.4 43.6-1.5 85.3-55.5 92.9-3.1.5-6.3.8-9.6 1v9.4c4.9-.2 9.8-.6 14.5-1.2 60.2-8.5 88-55 61.9-103.7zm525.8-99.8h-11.8l-13 146.5h37.8l-13-146.5z"/><path fill="#464646" d="M1715 194.8l51 51 51-51h-102zm75-128.5l-24-24-24 24h48z"/><path fill="#0095da" d="M2177.8 97.6l-7-21.7h-24.7l1.6 7.8-109.6.3 2.5-7.8H2016l-9.7 21.8h9.8l-37.4 92.4h-14L1955 212h41.4l2.6-7.8h173l1.6 7.9h41.4l-7-21.7h-14l-26-92.8zm-144.2.3l2.3-7.2h52.5l-4 50.2h-75.7l15.8-43zm-43.1 92.5l15.8-42.9h77.6l-4.1 50.2h-78.7l2.4-7.3zm178.7 0l1.5 7.2h-78.8l2.2-50.2h77.6l10.4 43.1zm.9-49.7h-75.7l2.1-50.2h52.5l1.5 7.2h9.1z"/><path fill="#464646" d="M1523.5 70.3a26.5 26.5 0 0 0-15.5 1.3l-.7.2c.3-2.1.7-4.2 1-6.2a26.9 26.9 0 0 0-46.9-21.9l-1 1.1c-.2-1.6-.3-3-.6-4.4a27 27 0 0 0-23.1-21.7l-.7-.2h-5a47.4 47.4 0 0 0-6.5 1.6 26.9 26.9 0 0 0-18 26 5.7 5.7 0 0 1 .1 1.4l-2.8-2.4c-8.1-6.4-17.2-8-26.9-4.2s-15 11-16.8 21.1a25.7 25.7 0 0 0 1.1 12.3l19.2 62.7c.8 2.6 1.4 5.3 2.2 8.3l-1.2-.8-10.7-8.4c-16-12.6-40.1-3.3-43.1 16.9-1.5 9.7 1.5 18.1 9.1 24.6 11.7 10.1 23.6 20 35.4 30.1a9.3 9.3 0 0 1 2.1 2.3 95.8 95.8 0 0 0 19.5 23.5 1.7 1.7 0 0 1 .7 1.3c.1 9.5.1 19 .2 28.5a.3.3 0 0 0-.1.2h97.8v-12.7l.3-18.7a6.5 6.5 0 0 1 .4-1.9 186.7 186.7 0 0 0 15.5-47.2 46.8 46.8 0 0 1 3.9-12l28.5-60.2a34.6 34.6 0 0 0 3.7-10.8c1.9-13.7-7.6-27.1-21.1-29.7zm4.9 31.3q-11.4 23.9-22.6 47.7c-2.9 6-5.6 12-8.6 18a41.7 41.7 0 0 0-3.2 9.8c-3.1 17.2-8.1 33.9-16.2 49.5a3.3 3.3 0 0 0-.4 1.7l-.3 18.4v1.5h-67.3c0-.4-.1-.8-.1-1.3 0-6.5-.1-13.1-.2-19.6a1.5 1.5 0 0 0-.6-1.3c-9.2-6.2-16.1-14.6-21.8-24.1a20.6 20.6 0 0 0-4.9-5.7l-35.4-29.9a11.6 11.6 0 0 1 2.1-19.5 11.2 11.2 0 0 1 12.5 1.4l21.8 17a21.3 21.3 0 0 0 5.3 3c4.6 1.8 8.2-.1 9.8-4.8a25 25 0 0 0 .8-9.8c-.6-9.3-3.2-18.1-5.9-27-5.8-18.8-11.5-37.7-17.4-56.5-2.5-7.8 2.4-14.5 8.8-15.7a11.6 11.6 0 0 1 13.2 7.9l6.2 20.3c4 13 8 26.1 12.1 39.1a28.2 28.2 0 0 0 4.7 9.3 12.9 12.9 0 0 0 1.6 1.7c2.2 1.8 3.9 1.4 4.6-1.2a21.1 21.1 0 0 0 1-6.1c-.1-3.8-.3-7.7-.6-11.6-.6-7.5-1.2-15.1-1.9-22.6l-2.1-25.8c-.6-6.3-1.2-12.6-1.6-18.9s3.7-11.6 9.5-12.5 11.8 2.4 13.3 8.3a44 44 0 0 1 .9 7.4l2.7 32.6c.9 10.5 1.7 21.1 2.6 31.6a81 81 0 0 0 1.3 8.6 8.5 8.5 0 0 0 1.5 3 1.8 1.8 0 0 0 2.8.3c1.2-1.3 2.5-2.8 2.8-4.4 3.3-17.8 6.4-35.7 9.6-53.5.6-3.2 1-6.4 1.7-9.5a11.7 11.7 0 0 1 13.5-8.6 11.4 11.4 0 0 1 9.3 12.8c-1.3 8-2.7 15.9-4.2 23.8-2.2 12.7-4.5 25.3-6.7 38a13.9 13.9 0 0 0 1.5 8.2c.7 1.6 2 1.8 3.3.5a12.1 12.1 0 0 0 2.8-3.9c5.9-12.5 11.7-25 17.5-37.5a11.4 11.4 0 0 1 15.4-5.7 11.7 11.7 0 0 1 5.5 15.6z"/><g clip-path="url(#a)"><path fill="#fff" d="M277.2 33.1a23.2 23.2 0 1 1-23.1-23.2 23.2 23.2 0 0 1 23.1 23.2"/><circle cx="254.1" cy="33.1" r="23.1" fill="none" stroke="#00673e" stroke-miterlimit="10" stroke-width="5.88"/><path fill="#00673e" d="M253.1 27.6l-3.6 3.7-2.7-2.8 6.9-6.9h4.1v21.9h-4.7V27.6z"/></g><g clip-path="url(#b)"><path fill="#fff" d="M602.2 33.1a23.2 23.2 0 1 1-23.1-23.2 23.2 23.2 0 0 1 23.1 23.2"/><circle cx="579.1" cy="33.1" r="23.1" fill="none" stroke="#00673e" stroke-miterlimit="10" stroke-width="5.88"/><path fill="#00673e" d="M570.8 39.8c8.9-6.6 11.5-8.9 11.5-11.6s-1.7-2.8-3.5-2.8a8 8 0 0 0-5.9 2.5l-2.6-3.1a11.1 11.1 0 0 1 8.4-3.5c4.7 0 8.4 2.6 8.4 6.9s-3.1 7-9 11.2h9.1v4.1h-16.4z"/></g><g clip-path="url(#c)"><path fill="#fff" d="M925.6 33.1a23.2 23.2 0 1 1-23.1-23.2 23.2 23.2 0 0 1 23.1 23.2"/><circle cx="902.5" cy="33.1" r="23.1" fill="none" stroke="#00673e" stroke-miterlimit="10" stroke-width="5.88"/><path fill="#00673e" d="M895.9 37.3a8.6 8.6 0 0 0 6 2.5c2.7 0 4.2-1.2 4.2-2.8s-1.4-2.6-4.4-2.6H899v-4.1h2.7c2.4 0 4-.8 4-2.5s-1.8-2.6-4-2.6a7.7 7.7 0 0 0-5.6 2.3l-2.3-2.9a10.7 10.7 0 0 1 8.3-3.4c5.2 0 8.3 2.3 8.3 5.9s-2.4 4.5-4.8 5c2.2.2 5.1 1.9 5.1 5.2s-3.3 6.4-8.6 6.4-7-1.5-8.6-3.5z"/></g><g clip-path="url(#d)"><path fill="#fff" d="M1249 33.1a23.2 23.2 0 1 1-23.1-23.2 23.2 23.2 0 0 1 23.1 23.2"/><circle cx="1225.9" cy="33.1" r="23.1" fill="none" stroke="#00673e" stroke-miterlimit="10" stroke-width="5.88"/><path fill="#00673e" d="M1227.3 38.9h-10.4v-3.6l8.7-13.7h6.4v13.2h2.8v4.1h-2.8v4.6h-4.7zm-5.9-4.1h5.9v-9.1z"/></g><g clip-path="url(#e)"><path fill="#fff" d="M1572.4 33.1a23.2 23.2 0 1 1-23.1-23.2 23.2 23.2 0 0 1 23.1 23.2"/><circle cx="1549.3" cy="33.1" r="23.1" fill="none" stroke="#00673e" stroke-miterlimit="10" stroke-width="5.88"/><path fill="#00673e" d="M1543.5 37.4a7.7 7.7 0 0 0 5.8 2.4c2.6 0 4.1-1.5 4.1-3.3s-1.5-3.3-4-3.3a6.1 6.1 0 0 0-4.6 1.8l-3.2-.9V21.6h15v4h-10.5v5.5a7.4 7.4 0 0 1 5-1.8 6.8 6.8 0 0 1 7 7c0 4.6-3.5 7.5-8.8 7.5-3.8 0-6.5-1.2-8.4-3.2z"/></g><g clip-path="url(#f)"><path fill="#fff" d="M1895.8 33.1a23.2 23.2 0 1 1-23.1-23.2 23.2 23.2 0 0 1 23.1 23.2"/><circle cx="1872.7" cy="33.1" r="23.1" fill="none" stroke="#00673e" stroke-miterlimit="10" stroke-width="5.88"/><path fill="#00673e" d="M1874 21.3a10.2 10.2 0 0 1 6.5 2.2l-2.1 3.5a6 6 0 0 0-4.4-1.7c-3.3 0-5.5 2.8-5.5 6.3a.9.9 0 0 0 .1.5 7 7 0 0 1 5.6-2.8c3.9 0 7.4 2.4 7.4 7s-3.4 7.5-8.4 7.5c-6.6 0-9.4-5.1-9.4-11.2s3.7-11.3 10.2-11.3m-1.2 11.9a5.4 5.4 0 0 0-4.2 2.1c.2 2.1 1.3 4.5 4.4 4.5s3.9-1.7 3.9-3.3-1.9-3.3-4.1-3.3"/></g><g clip-path="url(#g)"><path fill="#fff" d="M2219.2 33.1a23.2 23.2 0 1 1-23.1-23.2 23.2 23.2 0 0 1 23.1 23.2"/><circle cx="2196.1" cy="33.1" r="23.1" fill="none" stroke="#00673e" stroke-miterlimit="10" stroke-width="5.88"/><path fill="#00673e" d="M2198.9 25.7h-11v-4.1h16.4v3.2l-8.1 18.7h-5.1l7.8-17.8z"/></g></svg>