<svg xmlns="http://www.w3.org/2000/svg" id="Layer_1" viewBox="0 0 1050 620.2" width="1050" height="620.2"><style>.st0{fill:#00aeef}.st0,.st1,.st2{stroke:#4d4d4d;stroke-width:5;stroke-miterlimit:10}.st1{fill:#ec008c}.st2{fill:#fff200}.st10,.st11,.st12,.st3{stroke:#4d4d4d;stroke-miterlimit:10}.st3{fill:#231f20}.st3,.st4,.st5,.st6,.st7{stroke-width:5}.st4,.st5,.st6,.st7,.st8,.st9{stroke:#4d4d4d;stroke-miterlimit:10}.st4{fill:#e6e6e6}.st5{fill:#b3b3b3}.st6{fill:#666}.st7{fill:red}.st8{fill:#fff;stroke-width:6.5}.st10,.st11,.st12,.st9{stroke-width:5}.st9{fill:#22b573}.st10{fill:#d9e021}.st11{fill:#0f0}.st12{fill:#00f}.st13{fill:#4d4d4d}.st14{fill:#0071bc;stroke:#4d4d4d;stroke-width:5;stroke-miterlimit:10}.st15{fill:gray}</style><path d="M11.7 125.5h123v123h-123z" class="st0"/><path d="M135 125.5h123v123H135z" class="st1"/><path d="M258.2 125.5h123v123h-123z" class="st2"/><path d="M381.5 125.5h123v123h-123z" class="st3"/><path d="M11.7 2.5h123v123h-123z" class="st4"/><path d="M135 2.5h123v123H135z" class="st5"/><path d="M258.2 2.5h123v123h-123z" class="st6"/><path d="M381.5 2.5h123v123h-123z" class="st3"/><path d="M134.7 248.2h123v123h-123z" class="st7"/><path d="M258 494h123v123H258z" class="st8"/><path d="M381 554v-60H258v123h60z" class="st9"/><path d="M381.3 493.8h123v123h-123z" class="st8"/><path d="M504.3 553.8v-60h-123v123h60.1z" class="st10"/><path d="M258 248.5h123v123H258z" class="st11"/><path d="M381.2 248.7h123v123h-123z" class="st12"/><path d="M381 372h123v123H381z" class="st8"/><path d="M504 432v-60H381v123h60z" class="st7"/><circle cx="485.7" cy="476.8" r="8.5" class="st13"/><path d="M258 372h123v123H258z" class="st8"/><path d="M381 432v-60H258v123h60z" class="st14"/><circle cx="362.7" cy="476.8" r="8.5" class="st13"/><path d="M589.4 31.9c9.9 0 16.2 4.8 19.9 10.5l-8.5 4.6c-2.6-3.8-6.8-6-11.4-6-8.7 0-15 6.7-15 15.8s6.3 15.8 15 15.8c3.8 0 7.4-1.3 10.4-3.7V63H587v-8.8h22.9v18.4c-5.2 5.9-12.6 9.2-20.5 9.1-14 0-25.6-9.8-25.6-24.9s11.6-24.9 25.6-24.9zM617.8 46h9.2v4.8c2.7-3.4 6.8-5.4 11.1-5.5v8.9c-.8-.2-1.7-.2-2.5-.2-3 0-7.1 1.7-8.6 3.9v23h-9.2V46zm41.7-.9c10.4 0 17.4 7.8 17.4 19.2v2H651c.6 4.4 4.1 8.1 10 8.1 3.4 0 6.7-1.2 9.3-3.5l4 5.9c-3.5 3.2-8.9 4.8-14.3 4.8-10.6 0-18.6-7.1-18.6-18.3.1-10.1 7.5-18.2 18.1-18.2zm-8.6 15H668c-.2-3.3-2.5-7.7-8.6-7.7-5.6 0-8.1 4.2-8.5 7.7zm35.6 26.6c2.4 0 4-.7 4.8-2.5l1.3-3L678.5 46h9.8l9.1 24.2 9.1-24.2h9.9L700 86.4c-2.6 6.6-7.2 8.3-13.2 8.4-1.5 0-3.1-.1-4.6-.4l1.4-8.2c.9.3 1.9.5 2.9.5zm34.9-16.9c3.4 2.9 7.6 4.5 12 4.8 4 0 5.8-1.4 5.8-3.5 0-2.4-3-3.3-7-4.1-6-1.2-13.7-2.6-13.7-10.9 0-5.8 5.1-11 14.3-11 5.1-.1 10 1.6 14 4.7l-3.6 6.3c-2.8-2.6-6.5-4.1-10.3-4-3.3 0-5.5 1.2-5.5 3.2s2.7 3 6.6 3.7c6 1.2 14 2.7 14 11.4 0 6.4-5.4 11.2-15 11.2-6 0-11.9-2-15.6-5.4l4-6.4zM771 45.1c7.1 0 11.5 3.1 13.8 6.3l-6 5.5c-1.7-2.4-4.4-3.8-7.3-3.7-5.5 0-9.4 4-9.4 10.1s3.9 10.2 9.4 10.2c2.9 0 5.7-1.4 7.3-3.8l6 5.5c-2.3 3.2-6.6 6.3-13.8 6.3-10.7 0-18.4-7.6-18.4-18.3s7.7-18.1 18.4-18.1zm40.6 32c-2.4 2.8-6.5 4.5-11 4.5-5.5 0-12.1-3.8-12.1-11.5 0-8.1 6.5-11.1 12.1-11.1 4.6 0 8.7 1.4 11 4.2v-4.9c0-3.5-3-5.8-7.6-5.8-3.8 0-7.4 1.5-10.1 4.1l-3.5-6.1c4.2-3.6 9.6-5.6 15.2-5.5 7.9 0 15.2 3.2 15.2 13.2v22.5h-9.1v-3.6zm0-9c-1.5-2-4.4-3-7.3-3-3.6 0-6.5 1.9-6.5 5.3s2.9 5.1 6.5 5.1c3 0 5.8-1 7.3-3v-4.4zm18.2-35.4h9.1v48h-9.1v-48zm34 12.4c10.4 0 17.4 7.8 17.4 19.2v2h-25.9c.6 4.4 4.1 8.1 10 8.1 3.4 0 6.7-1.2 9.3-3.5l4 5.9c-3.5 3.2-8.9 4.8-14.3 4.8-10.6 0-18.6-7.1-18.6-18.3.1-10.1 7.6-18.2 18.1-18.2zm-8.6 15h17.1c-.2-3.3-2.5-7.7-8.6-7.7-5.6 0-8 4.2-8.5 7.7zM563.8 179.8C563.8 165 575 155 589 155c11 0 17.1 5.8 20.5 11.7l-8.8 4.3c-2.3-4.3-6.8-7-11.7-7-8.3 0-14.7 6.7-14.7 15.8s6.3 15.8 14.7 15.8c4.9.1 9.4-2.7 11.7-7l8.8 4.2c-3.5 6-9.5 11.8-20.5 11.8-14 0-25.2-10.1-25.2-24.8zm93.6-10.6l-13.5 34.6h-4.5l-13.5-34.6v34.6h-10.2v-48H630l11.7 30 11.7-30h14.4v48h-10.3l-.1-34.6zm33.2 14.9l-18.5-28.4h11.7l12 19.3 11.8-19.3h11.6l-18.4 28.4v19.7h-10.2v-19.7zm47 .4l-3.7 4.5v14.8h-10.2v-48h10.2v21.5l17-21.5h12.6l-19.1 22.5 20.4 25.5h-12.6l-14.6-19.3zM583.9 309.8h-7.5V327h-10.2v-48h22.5c10 0 16.1 6.5 16.1 15.5 0 8.5-5.3 13-10.5 14.3L605 327h-11.8l-9.3-17.2zm3.2-22h-10.7V301h10.7c4.2 0 7.2-2.6 7.2-6.6s-3-6.6-7.2-6.6zm48.6-9.6c9.9 0 16.2 4.8 19.9 10.5l-8.5 4.6c-2.6-3.8-6.8-6-11.4-6-8.7 0-15 6.7-15 15.8 0 9.1 6.3 15.8 15 15.8 3.8 0 7.4-1.3 10.4-3.7v-5.8h-12.8v-8.8h22.9V319c-5.2 5.9-12.6 9.2-20.5 9.1-14 0-25.6-9.8-25.6-24.9s11.6-25 25.6-25zm28.6.8h25.3c9.1 0 13.8 5.8 13.8 12.2 0 6-3.7 10.1-8.3 11 5.1.8 9.2 5.8 9.2 11.8 0 7.2-4.8 13-14 13h-26.1v-48zm23 19.3c3.5 0 5.6-2.2 5.6-5.3s-2.2-5.3-5.6-5.3h-12.8v10.6h12.8zm.3 20c3.9 0 6.2-2.2 6.2-5.7 0-3-2.2-5.6-6.2-5.6h-13.1v11.3h13.1zM568.5 435.7c4 4.2 9.5 6.5 15.3 6.5 5.6 0 8.3-2.7 8.3-5.4 0-3.6-4.2-4.8-9.7-6.1-7.8-1.8-17.9-4-17.9-14.7 0-8 6.9-14.5 18.2-14.5 7.6 0 14 2.3 18.7 6.7l-5.7 7.5c-3.8-3.4-8.7-5.3-13.8-5.3-4.6 0-7.1 2-7.1 4.9 0 3.2 4 4.2 9.6 5.5 7.9 1.8 18 4.2 18 14.8 0 8.8-6.3 15.4-19.2 15.4-9.2 0-15.8-3.1-20.4-7.6l5.7-7.7zm40.6 27.8v-48h9.1v4.4c2.6-3.3 6.5-5.3 10.7-5.3 8.9 0 15.4 6.6 15.4 18.2s-6.5 18.3-15.4 18.3c-4.2 0-8.2-2-10.7-5.3v17.7h-9.1zm17-40.8c-3.1.1-6 1.6-7.8 4V439c1.9 2.4 4.8 3.9 7.8 4 5.3 0 8.8-4.1 8.8-10.1s-3.5-10.2-8.8-10.2zm22.9 10.1c0-9.9 6.9-18.2 18.4-18.2 11.4 0 18.4 8.3 18.4 18.2s-6.9 18.3-18.4 18.3c-11.5 0-18.4-8.3-18.4-18.3zm27.3 0c0-5.4-3.2-10.1-8.9-10.1s-8.9 4.7-8.9 10.1c0 5.4 3.2 10.2 8.9 10.2s8.9-4.7 8.9-10.2zm18.1 8.8v-18.1h-5.8v-8h5.8V406h9.2v9.5h7.1v8h-7.1v15.7c0 2.2 1.2 3.8 3.2 3.8 1.1 0 2.3-.3 3.2-1l1.9 6.9c-1.4 1.2-3.8 2.2-7.6 2.2-6.5 0-9.9-3.3-9.9-9.5zm38.9-15.3c0-14.8 11.2-24.8 25.2-24.8 11 0 17.1 5.8 20.5 11.7l-8.8 4.3c-2.3-4.3-6.8-7-11.7-7-8.4 0-14.7 6.7-14.7 15.8 0 9.1 6.3 15.8 14.7 15.8 4.9.1 9.4-2.7 11.7-7l8.8 4.2c-3.5 6-9.5 11.8-20.5 11.8-14.1 0-25.2-10.1-25.2-24.8zm49.3 6.5c0-9.9 6.9-18.2 18.4-18.2 11.4 0 18.4 8.3 18.4 18.2s-6.9 18.3-18.4 18.3c-11.6 0-18.4-8.3-18.4-18.3zm27.3 0c0-5.4-3.2-10.1-8.9-10.1s-8.9 4.7-8.9 10.1c0 5.4 3.2 10.2 8.9 10.2s8.9-4.7 8.9-10.2zm16.2-30.6h9.1v48H826l.1-48zm16 30.6c0-9.9 6.9-18.2 18.4-18.2 11.4 0 18.4 8.3 18.4 18.2s-6.9 18.3-18.4 18.3c-11.5 0-18.4-8.3-18.4-18.3zm27.3 0c0-5.4-3.2-10.1-8.9-10.1s-8.9 4.7-8.9 10.1c0 5.4 3.2 10.2 8.9 10.2s8.9-4.7 8.9-10.2zm39.8 13c-3.1 3.4-7.6 5.3-12.2 5.3-7.6 0-11.2-4.2-11.2-11v-24.7h9.1v21.1c0 4.8 2.5 6.4 6.4 6.4 3.1-.1 6-1.5 7.9-4v-23.5h9.1v34.8h-9.1v-4.4zm18.2-30.3h9.1v4.8c2.7-3.4 6.8-5.4 11.1-5.5v8.9c-.8-.2-1.7-.2-2.5-.2-3 0-7.1 1.7-8.6 3.9v23h-9.1v-34.9zm26.9 23.8c3.4 2.9 7.6 4.5 12 4.8 4 0 5.8-1.4 5.8-3.5 0-2.5-3-3.3-7-4.1-6-1.2-13.7-2.6-13.7-10.9 0-5.8 5.1-10.9 14.3-10.9 5.1-.1 10 1.6 14 4.8l-3.6 6.3c-2.8-2.6-6.5-4.1-10.3-4-3.3 0-5.5 1.2-5.5 3.2s2.7 3 6.6 3.7c6 1.1 14 2.7 14 11.4 0 6.4-5.4 11.2-15 11.2-6 0-11.9-2-15.5-5.4l3.9-6.6zm-364.9 83.9c9.9 0 16.2 4.8 19.9 10.5l-8.5 4.6c-2.6-3.8-6.8-6-11.4-6-8.7 0-15 6.7-15 15.8s6.3 15.8 15 15.8c3.8 0 7.4-1.3 10.4-3.7v-5.8H587v-8.8h22.9V564c-5.2 5.9-12.6 9.2-20.5 9.1-14 0-25.6-9.8-25.6-24.9s11.6-25 25.6-25zm28.4.8h9.2v48h-9.2v-48zm16 30.6c0-9.9 6.9-18.2 18.4-18.2s18.4 8.3 18.4 18.2-6.9 18.3-18.4 18.3-18.4-8.4-18.4-18.3zm27.2 0c0-5.4-3.2-10.1-8.9-10.1s-8.9 4.7-8.9 10.1 3.2 10.2 8.9 10.2 8.9-4.8 8.9-10.2zm16.3-30.6h9.1v17.7c2.5-3.3 6.5-5.3 10.7-5.3 8.9 0 15.4 6.9 15.4 18.3 0 11.6-6.6 18.2-15.4 18.2-4.2 0-8.2-1.9-10.7-5.3v4.4h-9.1v-48zm17 40.7c5.3 0 8.9-4 8.9-10.1s-3.5-10.2-8.9-10.2c-3.1.1-6 1.5-7.9 4v12.3c2 2.5 4.8 4 7.9 4zm46.1 3.7c-2.4 2.8-6.5 4.5-11 4.5-5.5 0-12.1-3.7-12.1-11.5 0-8.1 6.5-11.1 12.1-11.1 4.6 0 8.7 1.4 11 4.2v-4.8c0-3.5-3-5.8-7.6-5.8-3.8 0-7.4 1.5-10.2 4.1l-3.5-6.1c4.2-3.6 9.6-5.5 15.2-5.4 7.9 0 15.2 3.2 15.2 13.2V572h-9.1v-3.6zm0-9.1c-1.5-2-4.4-3-7.3-3-3.6 0-6.5 1.9-6.5 5.3s3 5.1 6.5 5.1c3 0 5.8-1 7.3-3v-4.4zm18.2-35.3h9.2v48h-9.2v-48zm34.6 24c0-14.8 11.2-24.8 25.2-24.8 11 0 17.1 5.8 20.5 11.7l-8.8 4.3c-2.3-4.3-6.8-7-11.7-7-8.3 0-14.7 6.7-14.7 15.8s6.3 15.8 14.7 15.8c4.9.1 9.4-2.7 11.7-7l8.8 4.2c-3.5 6-9.5 11.8-20.5 11.8-14.1.1-25.2-10-25.2-24.8zm49.3 6.6c0-9.9 6.9-18.2 18.4-18.2s18.4 8.4 18.4 18.2-6.9 18.3-18.4 18.3c-11.6-.1-18.4-8.4-18.4-18.3zm27.3 0c0-5.4-3.2-10.1-8.9-10.1s-8.9 4.7-8.9 10.1 3.2 10.2 8.9 10.2c5.6-.1 8.9-4.8 8.9-10.2zM886 524h9.2v48H886v-48zm16 30.6c0-9.9 6.9-18.2 18.4-18.2s18.4 8.3 18.4 18.2-6.9 18.3-18.4 18.3c-11.5-.1-18.4-8.4-18.4-18.3zm27.3 0c0-5.4-3.2-10.1-8.9-10.1s-8.9 4.7-8.9 10.1 3.2 10.2 8.9 10.2c5.7-.1 8.9-4.8 8.9-10.2zm39.8 13c-3.1 3.4-7.6 5.3-12.2 5.3-7.6 0-11.2-4.2-11.2-11v-24.7h9.2v21.1c0 4.8 2.5 6.4 6.4 6.4 3.1-.1 6-1.5 7.9-4v-23.5h9.1V572h-9.2v-4.4zm18.2-30.4h9.1v4.8c2.7-3.4 6.8-5.4 11.1-5.6v9c-.8-.2-1.7-.2-2.5-.2-3 0-7.1 1.7-8.6 3.9v23h-9.2v-34.9zm26.8 23.8c3.4 2.9 7.6 4.5 12 4.8 4 0 5.8-1.4 5.8-3.5 0-2.5-3-3.3-7-4.1-6-1.2-13.7-2.6-13.7-10.9 0-5.8 5.1-10.9 14.3-10.9 5.1-.1 10 1.6 14 4.8l-3.6 6.3c-2.8-2.6-6.5-4.1-10.3-4-3.3 0-5.5 1.2-5.5 3.2s2.7 3 6.6 3.7c6 1.2 14 2.7 14 11.4 0 6.4-5.4 11.2-15 11.2-6 0-11.9-2-15.6-5.4l4-6.6z" class="st15"/></svg>