<svg xmlns="http://www.w3.org/2000/svg" id="Layer_1" viewBox="0 0 862.7 251.5" width="862.7" height="251.5"><style>.st0{fill:#fff;stroke-width:6.5}.st0,.st1,.st2,.st3{stroke:#4d4d4d;stroke-miterlimit:10}.st1{fill:#22b573}.st1,.st2,.st3{stroke-width:5}.st2{fill:#d9e021}.st3{fill:red}.st4{fill:#4d4d4d}.st5{fill:#0071bc;stroke:#4d4d4d;stroke-width:5;stroke-miterlimit:10}.st6{enable-background:new}.st7{fill:gray}</style><path d="M0 125.2h123v123H0z" class="st0"/><path d="M123 185.2v-60H0v123h60z" class="st1"/><path d="M123.3 125h123v123h-123z" class="st0"/><path d="M246.3 185.1V125h-123v123.1h60.1z" class="st2"/><path d="M123 3.2h123v123H123z" class="st0"/><path d="M246 63.2v-60H123v123h60z" class="st3"/><circle cx="227.7" cy="108" r="8.5" class="st4"/><path d="M0 3.2h123v123H0z" class="st0"/><path d="M123 63.2v-60H0v123h60z" class="st5"/><circle cx="104.7" cy="108" r="8.5" class="st4"/><g class="st6"><path d="M285.5 67c3.4 3.5 8.6 6.5 15.3 6.5 5.6 0 8.4-2.7 8.4-5.4 0-3.6-4.2-4.8-9.7-6.1-7.8-1.8-17.9-4-17.9-14.7 0-8 6.9-14.5 18.2-14.5 7.6 0 14 2.3 18.7 6.7l-5.7 7.5c-3.9-3.6-9.1-5.3-13.8-5.3-4.6 0-7.1 2-7.1 4.9 0 3.2 4 4.2 9.6 5.5 7.9 1.8 18 4.2 18 14.8 0 8.8-6.3 15.4-19.2 15.4-9.2 0-15.8-3.1-20.4-7.6l5.6-7.7zm40.7 27.7v-48h9.1v4.4c2.7-3.4 6.5-5.3 10.7-5.3 8.9 0 15.4 6.6 15.4 18.2s-6.5 18.3-15.4 18.3c-4.1 0-7.9-1.7-10.7-5.3v17.7h-9.1zm17-40.7c-3 0-6.3 1.7-7.8 4v12.3c1.5 2.2 4.9 4 7.8 4 5.3 0 8.8-4.1 8.8-10.2 0-6-3.6-10.1-8.8-10.1zm22.9 10.1c0-9.9 6.9-18.2 18.4-18.2s18.4 8.4 18.4 18.2c0 9.9-6.9 18.3-18.4 18.3-11.5 0-18.4-8.4-18.4-18.3zm27.3 0c0-5.4-3.2-10.1-8.9-10.1s-8.9 4.7-8.9 10.1c0 5.5 3.2 10.2 8.9 10.2 5.6-.1 8.9-4.8 8.9-10.2zm18 8.8V54.7h-5.8v-8h5.8v-9.5h9.2v9.5h7.1v8h-7.1v15.7c0 2.2 1.2 3.8 3.2 3.8 1.4 0 2.7-.5 3.2-1l1.9 6.9c-1.4 1.2-3.8 2.2-7.6 2.2-6.4.1-9.9-3.2-9.9-9.4zm38.9-15.4c0-14.8 11.2-24.8 25.2-24.8 10.9 0 17.1 5.8 20.4 11.7l-8.8 4.3c-2-3.9-6.3-7-11.7-7-8.4 0-14.7 6.7-14.7 15.8s6.3 15.8 14.7 15.8c5.3 0 9.6-3 11.7-7l8.8 4.2c-3.5 6-9.5 11.8-20.4 11.8-14 .1-25.2-10-25.2-24.8zm49.3 6.6c0-9.9 6.9-18.2 18.4-18.2s18.4 8.4 18.4 18.2c0 9.9-6.9 18.3-18.4 18.3-11.4 0-18.4-8.4-18.4-18.3zm27.3 0c0-5.4-3.2-10.1-8.9-10.1s-8.9 4.7-8.9 10.1c0 5.5 3.2 10.2 8.9 10.2 5.7-.1 8.9-4.8 8.9-10.2zm16.3-30.6h9.1v48h-9.1v-48zm16 30.6c0-9.9 6.9-18.2 18.4-18.2S596 54.3 596 64.1c0 9.9-6.9 18.3-18.4 18.3-11.5 0-18.4-8.4-18.4-18.3zm27.3 0c0-5.4-3.2-10.1-8.9-10.1s-8.9 4.7-8.9 10.1c0 5.5 3.2 10.2 8.9 10.2s8.9-4.8 8.9-10.2zm39.7 13c-2.4 2.7-6.6 5.3-12.2 5.3-7.6 0-11.2-4.2-11.2-10.9V46.7h9.1v21.1c0 4.8 2.5 6.4 6.4 6.4 3.5 0 6.3-1.9 7.9-4V46.7h9.1v34.8h-9.1v-4.4zm18.2-30.4h9.1v4.8c2.4-3.1 6.8-5.5 11.1-5.5v8.9c-.6-.1-1.5-.2-2.5-.2-3 0-7.1 1.7-8.6 3.9v23h-9.1V46.7zm26.9 23.9c2.5 2.4 7.7 4.8 12 4.8 4 0 5.8-1.4 5.8-3.5 0-2.4-3-3.3-7-4.1-6-1.2-13.7-2.6-13.7-10.9 0-5.8 5.1-10.9 14.3-10.9 5.9 0 10.6 2 14 4.8l-3.6 6.3c-2.1-2.2-6-4-10.3-4-3.3 0-5.5 1.2-5.5 3.2 0 2.2 2.7 3 6.6 3.7 6 1.2 14 2.7 14 11.4 0 6.4-5.4 11.2-15 11.2-6 0-11.9-2-15.6-5.4l4-6.6z" class="st7"/></g><g class="st6"><path d="M306.5 154.4c9.9 0 16.2 4.8 19.9 10.5l-8.5 4.6c-2.2-3.4-6.3-6-11.4-6-8.7 0-15 6.7-15 15.8s6.3 15.8 15 15.8c4.4 0 8.3-1.8 10.4-3.7v-5.8H304v-8.8h22.9v18.4c-4.9 5.5-11.7 9.1-20.4 9.1-14 0-25.6-9.8-25.6-24.9 0-15.3 11.5-25 25.6-25zm28.3.8h9.1v48h-9.1v-48zm16 30.6c0-9.9 6.9-18.2 18.4-18.2s18.4 8.4 18.4 18.2c0 9.9-6.9 18.3-18.4 18.3s-18.4-8.3-18.4-18.3zm27.3 0c0-5.4-3.2-10.1-8.9-10.1s-8.9 4.7-8.9 10.1c0 5.5 3.2 10.2 8.9 10.2s8.9-4.7 8.9-10.2zm16.3-30.6h9.1v17.7c2.7-3.5 6.6-5.3 10.7-5.3 8.9 0 15.4 6.9 15.4 18.3 0 11.6-6.6 18.2-15.4 18.2-4.2 0-8-1.9-10.7-5.3v4.4h-9.1v-48zm17 40.8c5.3 0 8.9-4 8.9-10.1s-3.5-10.2-8.9-10.2c-3 0-6.3 1.7-7.8 4V192c1.4 2.3 4.8 4 7.8 4zm46.1 3.6c-2.4 2.8-6.5 4.5-11 4.5-5.5 0-12.1-3.7-12.1-11.5 0-8.1 6.6-11.1 12.1-11.1 4.6 0 8.7 1.4 11 4.2v-4.8c0-3.5-3-5.8-7.6-5.8-3.7 0-7.2 1.4-10.2 4.1l-3.5-6.1c4.2-3.7 9.7-5.5 15.2-5.5 7.9 0 15.2 3.2 15.2 13.2v22.5h-9.1v-3.7zm0-9c-1.5-2-4.4-3-7.3-3-3.6 0-6.6 1.9-6.6 5.3 0 3.2 3 5.1 6.6 5.1 3 0 5.8-1 7.3-3v-4.4zm18.2-35.4h9.1v48h-9.1v-48zm34.5 24.1c0-14.8 11.2-24.8 25.2-24.8 10.9 0 17.1 5.8 20.4 11.7l-8.8 4.3c-2-3.9-6.3-7-11.7-7-8.4 0-14.7 6.7-14.7 15.8s6.3 15.8 14.7 15.8c5.3 0 9.6-3 11.7-7l8.8 4.2c-3.5 6-9.5 11.8-20.4 11.8-14 0-25.2-10.1-25.2-24.8zm49.3 6.5c0-9.9 6.9-18.2 18.4-18.2s18.4 8.4 18.4 18.2c0 9.9-6.9 18.3-18.4 18.3-11.4 0-18.4-8.3-18.4-18.3zm27.3 0c0-5.4-3.2-10.1-8.9-10.1s-8.9 4.7-8.9 10.1c0 5.5 3.2 10.2 8.9 10.2s8.9-4.7 8.9-10.2zm16.3-30.6h9.1v48h-9.1v-48zm16 30.6c0-9.9 6.9-18.2 18.4-18.2s18.4 8.4 18.4 18.2c0 9.9-6.9 18.3-18.4 18.3s-18.4-8.3-18.4-18.3zm27.3 0c0-5.4-3.2-10.1-8.9-10.1s-8.9 4.7-8.9 10.1c0 5.5 3.2 10.2 8.9 10.2 5.6 0 8.9-4.7 8.9-10.2zm39.7 13.1c-2.4 2.7-6.6 5.3-12.2 5.3-7.6 0-11.2-4.2-11.2-10.9v-24.7h9.1v21.1c0 4.8 2.5 6.4 6.4 6.4 3.5 0 6.3-1.9 7.9-4v-23.5h9.1v34.8h-9.1v-4.5zm18.2-30.4h9.1v4.8c2.4-3.1 6.8-5.5 11.1-5.5v8.9c-.6-.1-1.5-.2-2.5-.2-3 0-7.1 1.7-8.6 3.9v23h-9.1v-34.9zm26.9 23.8c2.5 2.4 7.7 4.8 12 4.8 4 0 5.8-1.4 5.8-3.5 0-2.4-3-3.3-7-4.1-6-1.2-13.7-2.6-13.7-10.9 0-5.8 5.1-10.9 14.3-10.9 5.9 0 10.6 2 14 4.8l-3.6 6.3c-2.1-2.2-6-4-10.3-4-3.3 0-5.5 1.2-5.5 3.2 0 2.2 2.7 3 6.6 3.7 6 1.2 14 2.7 14 11.4 0 6.4-5.4 11.2-15 11.2-6 0-11.9-2-15.6-5.4l4-6.6z" class="st7"/></g></svg>