<svg xmlns="http://www.w3.org/2000/svg" width="720.4" height="432" viewBox="0 0 720.4 432"><path fill="#2c2a28" d="M129.7 200.6l4.5-4.5-4.5-4.5 3.6-5.3-5.2-3.6 2.7-5.8-5.8-2.7 1.7-6.2-6.2-1.6.6-6.4-6.4-.5-.5-6.4-6.4.6-1.7-6.2-6.1 1.6-2.7-5.7-5.8 2.7-3.7-5.3-5.2 3.7-4.5-4.5-4.5 4.5-5.2-3.7-3.7 5.3-5.8-2.7-2.7 5.7-6.2-1.6-1.6 6.2-6.4-.6-.5 6.4-6.4.5.6 6.4-6.2 1.6 1.7 6.2-5.8 2.7 2.7 5.8-5.3 3.6 3.7 5.3-4.5 4.5 4.5 4.5-3.7 5.2 5.3 3.7-2.7 5.8 5.8 2.7-1.7 6.1 6.2 1.7-.6 6.3 6.4.6.5 6.4 6.4-.6 1.6 6.2 6.2-1.7 2.7 5.8 5.8-2.7 3.6 5.2 5.3-3.6 4.5 4.5 4.5-4.5 5.2 3.6 3.7-5.2 5.8 2.7 2.7-5.8 6.1 1.7 1.7-6.2 6.4.6.5-6.4 6.4-.6-.6-6.3 6.2-1.7-1.7-6.1 5.8-2.7-2.7-5.8 5.2-3.7-3.6-5.2z"/><path fill="#f5f2ed" d="M78.1 241.2h-1.6v-.7h3.3v.8zm-5-.3l-3.4-.5v-.7l3.3.5zm10.1 0v-.7l3.3-.5v.7zm-16.8-1.2l-3.3-1 .3-.7 3.2 1zm23.5-.1l-.2-.7 3.2-1 .3.7zM60 237.4a29.6 29.6 0 0 1-3.1-1.5l.3-.6 3.1 1.5zm36.3 0l-.3-.7a14 14 0 0 0 3-1.5l.4.7zM54 234.2l-2.8-1.9.4-.6 2.8 1.9zm48.3-.1l-.4-.6a17.3 17.3 0 0 0 2.8-1.9l.4.6zm-53.8-4l-2.5-2.3.5-.5a27.3 27.3 0 0 0 2.5 2.3zm59.2 0l-.4-.6 2.4-2.3.5.5zm-64-4.8l-2.1-2.6.6-.5 2.1 2.7zm68.8-.1l-.5-.4 2-2.7.6.5a26.5 26.5 0 0 1-2.1 2.6zm-72.8-5.4a26.9 26.9 0 0 1-1.6-2.9l.6-.3 1.6 2.9zm76.8-.1l-.6-.3 1.7-3 .6.4a27.5 27.5 0 0 1-1.7 2.9zm-79.9-5.9a30.3 30.3 0 0 1-1.2-3.2l.7-.2a28.3 28.3 0 0 0 1.1 3.1zm83-.1l-.6-.3 1.2-3.1.6.2a17.5 17.5 0 0 1-1.2 3.2zm-85.2-6.3c-.3-1.1-.5-2.2-.7-3.3l.7-.2c.2 1.1.4 2.2.7 3.3zm87.4-.1l-.7-.2c.3-1.1.5-2.2.7-3.3h.7c-.2 1.2-.4 2.4-.7 3.5zm-88.6-6.6c-.1-1.1-.2-2.3-.2-3.4h.7c0 1.1.1 2.2.2 3.3zm89.8-.1h-.7c.1-1.1.2-2.2.2-3.4h.7c0 1.1-.1 2.2-.2 3.4zm-89.3-4.5H33c0-1.2 0-2.3.1-3.4h.7c-.1 1.1-.1 2.3-.1 3.4zm88.7-2.3a18.4 18.4 0 0 0-.3-3.3h.7a18.7 18.7 0 0 1 .3 3.4zm-88.2-4.4h-.7l.6-3.3h.7zm87.4-2.2c-.2-1.1-.5-2.2-.8-3.3l.7-.2c.3 1.1.6 2.2.8 3.3zm-85.9-4.3l-.7-.2a30.1 30.1 0 0 1 1.1-3.2l.7.2c-.4 1.1-.8 2.1-1.1 3.2zm84.1-2.2l-1.3-3.1.6-.3a21.5 21.5 0 0 1 1.3 3.2zm-81.7-4l-.6-.3a21.1 21.1 0 0 1 1.6-3l.6.3zm78.9-2a27.5 27.5 0 0 0-1.7-2.9l.6-.4a27.5 27.5 0 0 1 1.7 2.9zm-75.5-3.8l-.6-.4c.7-.9 1.4-1.9 2.1-2.7l.5.4zm71.8-1.8a26.5 26.5 0 0 0-2.1-2.6l.5-.5 2.2 2.6zm-67.6-3.4l-.5-.5 2.4-2.4.5.5zm63.2-1.6l-2.5-2.3.4-.5 2.6 2.3zm-58.2-2.9l-.5-.6a28.3 28.3 0 0 1 2.8-2l.4.6a18.9 18.9 0 0 0-2.7 2zm53-1.4l-2.8-1.8.4-.6 2.8 1.8zm-47.5-2.4l-.3-.6a28 28 0 0 1 3-1.5l.3.6zm41.8-1l-3.1-1.4.3-.7 3.1 1.4zm-35.8-1.8l-.2-.7 3.2-1.1.2.7zm29.6-.8l-3.2-.9v-.7l3.3 1zm-23.1-1.1l-.2-.7a18.6 18.6 0 0 1 3.4-.6v.7a17.5 17.5 0 0 0-3.2.6zm16.6-.4l-3.3-.5v-.7l3.4.5zm-10-.5v-.7h3.4v.7h-3.4zm-21.4 17.7a5.3 5.3 0 0 1 1.6 2.1l1.2-.2v1l-1.4.2a1.6 1.6 0 0 1-.4.7c-.9 1-2.1.8-3.9-.7s-1.8-2.8-.9-3.8 2.2-.8 3.8.7zm-2 2.2c1.1 1 2 1.4 2.4.9s0-1.2-1.2-2.2-1.8-1.4-2.2-.9 0 1.2 1 2.2zm6.6-3.7a5.3 5.3 0 0 1 .9 1.1l-.8.7-.4-.4a1.1 1.1 0 0 1-.4 1.2c-.5.4-1.2.5-1.9-.4l-2.2-2.7.8-.7 2.1 2.5q.4.6.9.3c.3-.3.3-.6-.1-1.2l-2-2.3.9-.8zm3.7-2a2.8 2.8 0 0 0 .6.9l-.9.6-.3-.4a1 1 0 0 1-.6 1 1.3 1.3 0 0 1-1.9-.5c-.5-.8-.2-1.7.8-2.4l.3-.2-.2-.4c-.2-.3-.4-.5-.8-.3s-.3.6-.1.9l-.9.5c-.4-.6-.5-1.4.6-2.1a1.4 1.4 0 0 1 2.1.3zm-1.5-.3l-.3.2c-.6.3-.6.7-.4 1s.5.5.8.3.4-.8 0-1.4zm2.8.9l-3-6 1-.5 3 6zm-.3-6l-.5-1.1 1.1-.4.4 1zm.2.6l1.1-.4 1.9 4.4-1.1.5zm1.8-.8l.6-.2-.4-1.1 1.1-.4.4 1.2.7-.3.3.9-.7.3.8 2.5c.1.3.2.4.5.3h.3l.3.7-.6.4a1.1 1.1 0 0 1-1.5-.8l-.9-2.7-.6.2zm4.3-1.3c.7 1.5 1.3 2.7 1.5 3.3a21.2 21.2 0 0 1 0-3.6l1.1-.2-.3 5.2c-.1 1.6-.6 1.8-1.2 2h-.5l-.2-.9h.4c.4-.1.5-.3.5-.9l-2.5-4.5zm8.7 1h-2v1.9h2.3v.9l-3.2.2-.3-6.4h3.2v1h-2.1v1.5h2.1zm4.8-3.5l-.5 5.3c0 .6-.1 1.1-.1 1.3h-1c-.1-.1 0-.3 0-.5s-.5.6-1.2.5-1.3-1-1.2-2.6.7-2.5 1.8-2.4.8.3.9.5l.2-2.1zm-2.3 5.6c.6.1.7-.4.8-1.5s.1-1.5-.5-1.6-.7.3-.8 1.5 0 1.6.5 1.6zm6.1.5a7.8 7.8 0 0 1-.3 1.4l-1-.2a1.3 1.3 0 0 1 .1-.6 1.1 1.1 0 0 1-1.2.4c-.7-.2-1.2-.6-.9-1.7l.7-3.4 1.1.2-.7 3.2c-.1.5 0 .8.4.8s.7 0 .8-.8l.7-2.9 1.1.2zm4.1 1.1a1.7 1.7 0 0 1-2.2 1.1c-1.4-.5-1.3-1.6-.8-3s1.2-2.2 2.5-1.7a1.5 1.5 0 0 1 1 2.1l-1.1-.4c.1-.2.3-.7-.2-.9s-.8.3-1.2 1.3-.4 1.6.1 1.7.7-.3.8-.5zm3.2 2.3l-.4 1-.9-.5c0-.1.1-.3.1-.4a1.3 1.3 0 0 1-1.2 0 1.4 1.4 0 0 1-.5-1.9q.8-1.4 2.4-.6l.4.2.2-.4c.2-.3.3-.6-.2-.8s-.6 0-.7.3l-1-.5a1.5 1.5 0 0 1 2.2-.6c.9.5 1.2 1.2.7 2zm-.4-1.4l-.4-.2a.8.8 0 0 0-1.1.2.6.6 0 0 0 .3.8c.5.3.8 0 1.1-.7zm2.8-1.6l.6.4.6-1 1 .6-.7 1 .6.4-.5.8-.6-.4-1.4 2.2c-.2.2-.2.4.1.6h.2l-.4.7-.7-.3c-.6-.4-.7-.8-.3-1.6l1.6-2.3-.6-.4zm2.8 1.9l.9.7-2.9 3.9-.9-.7zm.5-.6l.6-.8.9.6-.6.9zm2.4 6.2c-1.2 1.3-2.2 1.4-3.1.6s-.8-1.8.4-3.1 2.2-1.4 3.1-.6.7 1.8-.4 3.1zm-1.9-1.7c-.7.7-.9 1.3-.5 1.6s.9.1 1.6-.7.9-1.3.5-1.6-.9-.1-1.6.7zm3.2 1.7l1.1-1 .7.9-.3.3a1.2 1.2 0 0 1 1.1.5c.5.6.4 1.2-.3 1.9l-2.7 2.2-.7-.9 2.5-2c.3-.3.5-.6.2-1s-.6-.3-1.1.2l-2.4 1.9-.7-.8z"/><path fill="#2c2a28" fill-rule="evenodd" d="M143.6 195.9l10.9-16.4H1.7l10.9 16.4-11.1 16.7h153.1l-11-16.7z"/><path fill="#f4f3ed" d="M154.6 213.1H1v-.8l11-16.4L.8 179h154.6l-11.2 16.9 10.9 16.5v.7zm-152.2-1h151.3L143 195.9l10.6-15.9H2.6l10.6 15.9z"/><path fill="#f5f2ed" d="M36.9 198.2l-.6 3.1h-2.2L37 189h2.8l2.9 12.3h-2.3l-.6-3.1zm2.5-1.9c-.5-2.4-.8-4.1-1-5.2h-.1c-.1 1.1-.5 2.9-1 5.2zm5.7-7.3h2.2v10.4h4.3l-.3 1.9h-6.2zM61 201.3h-1.6c-.1-.4-.1-.6-.2-1a2.5 2.5 0 0 1-2.4 1.2c-2.6 0-3.5-2.3-3.5-6.3s1.5-6.4 4.2-6.4a3.3 3.3 0 0 1 3.5 3.6h-2.2c0-.5-.1-1.7-1.4-1.7s-1.8 1.9-1.8 4.5.3 4.5 1.7 4.5 1.5-.9 1.5-2.7v-.7h-1.6v-1.9H61zm11-6.2c0 4.5-1.2 6.4-4 6.4s-4-1.9-4-6.5 1.5-6.2 4.1-6.2 3.9 2 3.9 6.3zm-5.7-.1c0 3 .4 4.7 1.7 4.7s1.8-1.6 1.8-4.7-.4-4.3-1.8-4.3-1.7 1.6-1.7 4.3zm8.8 6.3V189h2.5c2.6 6.8 3.1 8.1 3.2 8.7-.1-1.5-.1-3.3-.1-5.3V189h2v12.3h-2.4l-3.3-9.1c.1 1.5.1 3.3.1 5.5v3.6zm18.7-6.2c0 2.2-.3 3.9-1 4.9l1.9 1.5-1.2 1.5-2.2-1.7a4.1 4.1 0 0 1-1.6.2c-2.6 0-3.9-1.9-3.9-6.5s1.5-6.2 4-6.2 4 2 4 6.3zm-5.7-.1c0 3 .4 4.7 1.7 4.7s1.8-1.6 1.8-4.7-.5-4.3-1.8-4.3-1.7 1.6-1.7 4.3zm10.9-6v8.5c0 1 .3 2.2 1.6 2.2s1.6-1 1.6-2.2V189h2.2v8.5c0 2.2-.8 4-3.8 4s-3.8-1.7-3.8-4V189zm10.9 0v12.3h-2.2V189zm3.6 12.3V189h2.5l3.2 8.7c-.1-1.5-.1-3.3-.1-5.3V189h2v12.3h-2.4c-2.7-7.2-3.1-8.6-3.3-9.1.1 1.5.1 3.3.1 5.5v3.6z"/><path fill="#f5f2ed" fill-rule="evenodd" d="M137.5 194.5a1.6 1.6 0 0 1 1.6 1.6 1.6 1.6 0 1 1-3.1 0 1.6 1.6 0 0 1 1.5-1.6zm-119.4 0a1.6 1.6 0 0 1 1.5 1.6 1.6 1.6 0 1 1-3.1 0 1.6 1.6 0 0 1 1.6-1.6z"/><path fill="#f4f3ed" d="M78.1 167.6l1.1 2.3 2.5.3-1.8 1.8.4 2.4-2.2-1.1-2.2 1.1.4-2.4-1.8-1.8 2.5-.3 1.1-2.3zm-6.6 4.7l.6 1.1 1.2.2-.9.8.2 1.3-1.1-.6-1.1.6.2-1.3-.9-.8 1.2-.2.6-1.1zm12.5 0l.6 1.1 1.2.2-.9.8.2 1.3-1.1-.6-1.1.6.2-1.3-.9-.8 1.3-.2.5-1.1z"/><path fill="#f5f2ed" d="M56.7 222.9l.7.6c.7.6.6 1.3-.2 2.3s-1.6 1.3-2.4.7l-.7-.6zm-1.9 3l.2.3c.5.4 1.1.1 1.8-.7s.8-1.3.3-1.8l-.3-.2zm4.7 1.7l-1.1-.7-.9 1.2 1.2.8-.3.3-1.5-1 2.3-3.3 1.5 1-.2.4-1.2-.8-.7 1 1.1.8zm.8 1.5c-.2.4-.2.8.2 1s.6.1.8-.3.2-.6-.1-1.1-.6-1-.3-1.5a.9.9 0 0 1 1.4-.3c.7.3.6.9.4 1.4l-.4-.3a.6.6 0 0 0-.2-.8.5.5 0 0 0-.7.2c-.2.3-.1.6.2 1s.5 1.1.2 1.6a1 1 0 0 1-1.5.4 1 1 0 0 1-.4-1.5zm4.1-1.1l-1.8 3.6-.4-.2 1.7-3.6zm1.4 4.9h-.3a.8.8 0 0 1 .1-.4.7.7 0 0 1-.9.1c-.8-.3-.7-1.2-.3-2.3s1.2-1.7 1.9-1.4a1 1 0 0 1 .6 1.4l-.4-.2c0-.1.2-.6-.3-.8s-1 .3-1.3 1.2-.5 1.6 0 1.8.8-.2 1.1-.9v-.2l-.6-.2.2-.4 1 .4zm1.4.5l1.1-3.9.5.2c.3 2.9.4 3.3.4 3.5.1-.6.3-1.1.4-1.8l.4-1.4.5.2-1.1 3.8h-.6c-.3-3-.3-3.4-.3-3.6-.1.5-.3 1.1-.5 1.8l-.4 1.4zm5.8.3c-.1.6-.3 1-1 .9h-.3v-.4h.3c.4 0 .5-.2.5-.5l.5-3.1h.5zm3.5-.7c-.1 1.4-.5 2.1-1.4 2s-1.1-.8-1-2.2.6-2 1.4-1.9 1.1.8 1 2.1zm-1.9-.2q-.1 1.6.6 1.8c.5 0 .7-.5.8-1.6s-.1-1.6-.6-1.7-.7.5-.8 1.5zm3-1.7h1.1a.8.8 0 0 1 1 .9.9.9 0 0 1-.5.9c.3.1.6.3.6 1a1 1 0 0 1-1.1 1.1h-1zm1 1.6a.6.6 0 1 0 0-1.2h-.5v1.2zm-.5 2h.6c.4 0 .6-.2.6-.7s-.2-.8-.7-.8h-.5zm3.2-.9a.7.7 0 0 0 .7.7c.4-.1.6-.3.5-.7s-.2-.6-.8-.8-1-.5-1-1.1a.9.9 0 0 1 .9-1.1.9.9 0 0 1 1.1.9h-.5a.6.6 0 0 0-.6-.6c-.3.1-.5.3-.4.6s.2.5.7.7 1 .6 1.1 1.2-.2 1.1-1 1.2-1.1-.4-1.2-1zm3.5-3.4l1.8-.5v.5l-1.4.3.3 1.2 1.3-.3v.4l-1.3.3.5 1.8-.5.2zm5.3.5c.5 1.3.4 2-.4 2.3s-1.4-.3-1.8-1.6-.3-2 .5-2.3 1.3.3 1.7 1.6zm-1.8.6c.4 1 .8 1.5 1.2 1.3s.5-.7.2-1.8-.8-1.4-1.2-1.3-.5.8-.2 1.8zm3.4-1.1l.8 1.7-.5.2-1.6-3.7 1-.4a.8.8 0 0 1 1.3.5.9.9 0 0 1-.1 1.1c.4-.1.7.2.9.7h.1a1.5 1.5 0 0 0 .4.8l-.5.2-.4-.8c-.3-.5-.5-.7-1-.5zm-.1-.4l.4-.2a.6.6 0 0 0 .3-.9c-.2-.3-.4-.5-.8-.3l-.5.2zm4.5-1.2l.4 1.2-.4.3-1.3-3.9.5-.3 2.9 2.8-.4.3-.9-.9zm.5-.8l-1.3-1.4c.1.3.3 1 .6 1.8zm.1-2.9l.4-.3 2.1 2.9 1.1-.9.2.4-1.4 1.1zm2-1.5l.4-.4 2.3 2.7 1.1-.9.2.3-1.3 1.2zm-27.3-2.9h-1.3v1.5h1.5v.4h-2v-4h1.9v.5h-1.4v1.2h1.3zm1 .9c0 .4.2.7.6.7s.6-.3.6-.7-.1-.6-.7-.9-.9-.5-.9-1.1a1 1 0 0 1 1.1-1 .9.9 0 0 1 1 1h-.5a.6.6 0 0 0-.6-.6.5.5 0 0 0-.5.5c0 .4.2.6.7.8a1.3 1.3 0 0 1 .9 1.3 1 1 0 0 1-1.1 1.1 1 1 0 0 1-1.1-1.1zm2.8-2.5h-.8v-.5h2.2v.5h-.9v3.5h-.5zm1.3 3.5v-.8h.5v.8zm2.4 0v-3.3h-.5v-.3c.3-.1.6-.2.7-.4h.3v3.9zm1.6-.8c.1.2.1.5.5.5s.6-.9.6-1.6a.7.7 0 0 1-.7.4c-.5 0-.9-.4-.9-1.1s.4-1.3 1-1.3 1.1.4 1.1 1.6-.3 2.4-1.1 2.4a.9.9 0 0 1-.9-.9zm0-1.9c0 .5.2.8.5.8s.6-.3.6-.7-.1-.9-.6-.9-.5.3-.5.8zm3.6-.3a.4.4 0 0 0-.5-.5c-.5 0-.5.9-.6 1.4a1 1 0 0 1 .7-.4q.9 0 .9 1.2c0 .7-.2 1.4-1 1.4s-1-.8-1-1.9.2-2.1 1.1-2.1.8.6.9.9zm.1 1.7c0-.5-.2-.8-.6-.8s-.6.3-.6.7.2 1.1.6 1.1.6-.3.6-1zm2.7-2.6v.4a9.6 9.6 0 0 0-1.1 3.5h-.5a8.5 8.5 0 0 1 1.1-3.4h-1.5v-.5zm-21.7 5.6h26.3v.56H65.2zm0-8h26.3v.56H65.2z"/><path fill="#2c2a28" d="M506.4 200.6l4.5-4.5-4.5-4.5 3.6-5.3-5.2-3.6 2.7-5.8-5.8-2.7 1.7-6.2-6.2-1.6.6-6.4-6.4-.5-.6-6.4-6.3.6-1.7-6.2-6.1 1.6-2.7-5.7-5.8 2.7-3.7-5.3-5.2 3.7-4.5-4.5-4.5 4.5-5.3-3.7-3.6 5.3-5.8-2.7-2.7 5.7-6.2-1.6-1.6 6.2-6.4-.6-.5 6.4-6.4.5.6 6.4-6.2 1.6 1.6 6.2-5.7 2.7 2.7 5.8-5.3 3.6 3.7 5.3-4.5 4.5 4.5 4.5-3.7 5.2 5.3 3.7-2.7 5.8 5.7 2.7-1.6 6.1 6.2 1.7-.6 6.3 6.3.6.6 6.4 6.4-.6 1.6 6.2 6.2-1.7 2.7 5.8 5.8-2.7 3.6 5.2 5.3-3.6 4.5 4.5 4.5-4.5 5.2 3.6 3.7-5.2 5.8 2.7 2.7-5.8 6.1 1.7 1.7-6.2 6.3.6.6-6.4 6.4-.6-.6-6.3 6.2-1.7-1.7-6.1 5.8-2.7-2.7-5.8 5.2-3.7-3.6-5.2z"/><path fill="#f5f2ed" d="M454.8 241.2h-1.7v-.7h3.3v.8zm-5.1-.3l-3.3-.5v-.7l3.3.5zm10.2 0v-.7l3.4-.5v.7zm-16.8-1.2l-3.3-1 .3-.7 3.2 1zm23.5-.1l-.2-.7 3.2-1 .2.7zm-29.9-2.2a29.6 29.6 0 0 1-3.1-1.5l.3-.6 3 1.5zm36.3 0l-.3-.7a21 21 0 0 0 3-1.5l.4.7zm-42.3-3.2l-2.8-1.9.4-.6 2.7 1.9zm48.3-.1l-.4-.6a23.1 23.1 0 0 0 2.8-1.9l.4.6zm-53.8-4l-2.5-2.3.5-.5a27.3 27.3 0 0 0 2.5 2.3zm59.2 0l-.4-.6 2.4-2.3.5.5zm-64-4.8l-2.1-2.6.6-.5a24.7 24.7 0 0 0 2.1 2.7zm68.8-.1l-.5-.4 2-2.7.6.5zm-72.8-5.4c-.6-.9-1.1-1.9-1.7-2.9l.7-.3 1.6 2.9zm76.8-.1l-.6-.3c.6-1 1.1-2 1.6-3l.7.4c-.6 1-1.1 2-1.7 2.9zm-79.9-5.9a17.5 17.5 0 0 1-1.2-3.2l.6-.2 1.2 3.1zm83-.1l-.6-.3 1.2-3.1.6.2a17.5 17.5 0 0 1-1.2 3.2zm-85.2-6.3c-.3-1.1-.5-2.2-.7-3.3l.7-.2c.2 1.1.4 2.2.7 3.3zm87.4-.1l-.7-.2c.3-1.1.5-2.2.7-3.3h.7c-.2 1.2-.4 2.4-.7 3.5zm-88.6-6.6c-.1-1.1-.2-2.3-.2-3.4h.7c0 1.1.1 2.2.2 3.3zm89.8-.1h-.7c.1-1.1.1-2.2.2-3.4h.7c-.1 1.1-.1 2.2-.2 3.4zm-89.3-4.5h-.7c0-1.2 0-2.3.1-3.4h.7c-.1 1.1-.1 2.3-.1 3.4zm88.7-2.3a18.4 18.4 0 0 0-.3-3.3h.7a18.7 18.7 0 0 1 .3 3.4zm-88.2-4.4h-.7a19.1 19.1 0 0 1 .6-3.3h.7a19.1 19.1 0 0 0-.6 3.3zm87.4-2.2c-.2-1.1-.5-2.2-.8-3.3l.7-.2c.3 1.1.6 2.2.8 3.3zm-85.9-4.3l-.7-.2a30.1 30.1 0 0 1 1.1-3.2l.7.2c-.4 1.1-.8 2.1-1.1 3.2zm84.1-2.2c-.4-1-.9-2-1.3-3.1l.6-.3c.5 1.1.9 2.1 1.3 3.2zm-81.7-4l-.6-.3a21.1 21.1 0 0 1 1.6-3l.6.3c-.6 1-1.1 2-1.6 3zm78.9-2c-.6-1-1.1-2-1.7-2.9l.5-.4a17.5 17.5 0 0 1 1.8 2.9zm-75.5-3.8l-.6-.4a27.8 27.8 0 0 1 2.1-2.7l.5.4zm71.8-1.8l-2.1-2.6.5-.5 2.2 2.6zm-67.6-3.4l-.5-.5 2.4-2.4.5.5zm63.2-1.6l-2.5-2.3.4-.5 2.6 2.3zm-58.3-2.9l-.4-.6 2.7-2 .4.6zm53.1-1.4l-2.8-1.8.4-.6 2.8 1.8zm-47.5-2.4l-.4-.6a29.6 29.6 0 0 1 3.1-1.5l.3.6zm41.8-1l-3.1-1.4.3-.7 3.1 1.4zm-35.8-1.8l-.2-.7 3.2-1.1.2.7zm29.6-.8l-3.2-.9v-.7l3.3 1zm-23.2-1.1v-.7a19.1 19.1 0 0 1 3.3-.6v.7zm16.7-.4l-3.3-.5v-.7l3.4.5zm-10-.5v-.7h3.4v.7H452zm-21.4 17.7a5.3 5.3 0 0 1 1.6 2.1l1.2-.2v1l-1.4.2a1.6 1.6 0 0 1-.4.7c-.9 1-2.1.8-3.9-.7s-1.8-2.8-1-3.8 2.3-.8 3.9.7zm-2 2.2c1.1 1 1.9 1.4 2.4.9s0-1.2-1.2-2.2-1.8-1.4-2.3-.9 0 1.2 1.1 2.2zm6.6-3.7l.9 1.1-.8.7-.4-.4a1.1 1.1 0 0 1-.4 1.2c-.6.4-1.2.5-1.9-.4l-2.2-2.7.8-.7 2.1 2.5q.4.6.9.3c.3-.3.3-.6-.2-1.2l-1.9-2.3.9-.8zm3.7-2a2.8 2.8 0 0 0 .6.9l-.9.6-.3-.4a1 1 0 0 1-.6 1 1.3 1.3 0 0 1-1.9-.5c-.5-.8-.3-1.7.8-2.4l.3-.2-.3-.4c-.1-.3-.3-.5-.7-.3s-.3.6-.2.9l-.9.5a1.4 1.4 0 0 1 .7-2.1 1.3 1.3 0 0 1 2 .3zm-1.5-.3l-.3.2c-.6.3-.6.7-.4 1a.5.5 0 0 0 .8.3c.5-.3.3-.8 0-1.4zm2.8.9l-3-6 1-.5 3 6zm-.4-6l-.4-1.1 1-.4.5 1zm.3.6l1-.4 1.9 4.4-1 .5zm1.8-.8l.6-.2-.4-1.1 1.1-.4.3 1.2.8-.3.3.9-.8.3.9 2.5c.1.3.2.4.5.3h.3l.3.7-.7.4c-.7.2-1.1 0-1.4-.8l-.9-2.7-.6.2zm4.3-1.3c.7 1.5 1.3 2.7 1.5 3.3a35.5 35.5 0 0 1-.1-3.6l1.2-.2-.3 5.2c-.1 1.6-.6 1.8-1.3 2h-.4l-.2-.9h.3c.5-.1.6-.3.6-.9l-2.5-4.5zm8.7 1h-2.1v1.9h2.3v.9l-3.3.2-.2-6.4h3.2v1h-2.2v1.5h2zm4.8-3.5l-.5 5.3c0 .6-.1 1.1-.1 1.3H458v-.5c-.1.4-.4.6-1.1.5s-1.3-1-1.2-2.6.7-2.5 1.8-2.4a1.3 1.3 0 0 1 .9.5v-2.1zm-2.3 5.6c.6.1.7-.4.8-1.5s.1-1.5-.5-1.6-.8.3-.9 1.5.1 1.6.6 1.6zm6.1.5c-.1.7-.3 1.1-.3 1.4l-1-.2v-.6a1.1 1.1 0 0 1-1.2.4c-.6-.2-1.1-.6-.8-1.7l.7-3.4 1.1.2-.7 3.2c-.1.5 0 .8.4.8s.6 0 .8-.8l.7-2.9 1 .2zm4 1.1a1.6 1.6 0 0 1-2.2 1.1c-1.3-.5-1.2-1.6-.7-3s1.2-2.2 2.5-1.7a1.5 1.5 0 0 1 1 2.1l-1.1-.4c.1-.2.2-.7-.2-.9s-.8.3-1.2 1.3-.4 1.6.1 1.7.7-.3.8-.5zm3.3 2.3a4.2 4.2 0 0 0-.4 1l-.9-.5c0-.1.1-.3.1-.4a1.3 1.3 0 0 1-1.2 0 1.4 1.4 0 0 1-.5-1.9c.4-.9 1.3-1.1 2.4-.6l.4.2.2-.4c.1-.3.3-.6-.2-.8s-.6 0-.7.3l-1-.5a1.5 1.5 0 0 1 2.2-.6 1.4 1.4 0 0 1 .7 2zm-.5-1.4l-.3-.2c-.6-.3-.9-.1-1.1.2a.6.6 0 0 0 .2.8c.6.3.8 0 1.2-.7zm2.9-1.6l.6.4.6-1 1 .6-.7 1 .6.4-.5.8-.6-.4-1.4 2.2c-.2.2-.2.4.1.6s.1.1.2.1l-.4.7a1.5 1.5 0 0 1-.7-.3c-.6-.4-.8-.8-.3-1.6l1.6-2.3-.6-.4zm2.8 1.9l.9.7-2.9 3.9-.9-.7zm.5-.6l.6-.8.9.6-.6.9zm2.4 6.2c-1.2 1.3-2.2 1.4-3.1.6s-.8-1.8.4-3.1 2.2-1.4 3-.6.8 1.8-.3 3.1zm-1.9-1.7c-.7.7-.9 1.3-.5 1.6s.8.1 1.5-.7 1-1.3.6-1.6-.9-.1-1.6.7zm3.2 1.7l1.1-1 .7.9-.4.3a1.4 1.4 0 0 1 1.2.5c.5.6.4 1.2-.3 1.9l-2.7 2.2-.7-.9 2.4-2c.4-.3.6-.6.3-1s-.6-.3-1.2.2l-2.3 1.9-.7-.8z"/><path fill="#2c2a28" fill-rule="evenodd" d="M520.3 195.9l10.9-16.4H378.4l10.8 16.4-11 16.7h153.1l-11-16.7z"/><path fill="#f4f3ed" d="M531.3 213.1H377.7v-.8l10.9-16.4-11.1-16.9h154.6l-11.2 16.9 10.9 16.5v.7zm-152.2-1h151.3l-10.7-16.2 10.5-15.9H379.3l10.5 15.9z"/><path fill="#f5f2ed" d="M413.6 198.2l-.6 3.1h-2.2l2.8-12.3h2.9l2.9 12.3h-2.3l-.6-3.1zm2.5-1.9c-.5-2.4-.9-4.1-1.1-5.2-.2 1.1-.6 2.9-1 5.2zm5.7-7.3h2.2v10.4h4.2l-.2 1.9h-6.2zm15.9 12.3H436c0-.4-.1-.6-.1-1a2.5 2.5 0 0 1-2.4 1.2c-2.6 0-3.5-2.3-3.5-6.3s1.5-6.4 4.1-6.4a3.4 3.4 0 0 1 3.6 3.6h-2.2c0-.5-.1-1.7-1.4-1.7s-1.8 1.9-1.8 4.5.3 4.5 1.7 4.5 1.5-.9 1.5-2.7v-.7h-1.6v-1.9h3.8zm11-6.2c0 4.5-1.2 6.4-4 6.4s-4-1.9-4-6.5 1.5-6.2 4-6.2 4 2 4 6.3zm-5.7-.1c0 3 .4 4.7 1.7 4.7s1.8-1.6 1.8-4.7-.5-4.3-1.8-4.3-1.7 1.6-1.7 4.3zm8.8 6.3V189h2.5c2.6 6.8 3 8.1 3.2 8.7-.1-1.5-.1-3.3-.1-5.3V189h2v12.3H457c-2.7-7.2-3.1-8.6-3.3-9.1.1 1.5.1 3.3.1 5.5v3.6zm18.7-6.2c0 2.2-.3 3.9-1 4.9l1.9 1.5-1.2 1.5-2.3-1.7a3.4 3.4 0 0 1-1.5.2c-2.6 0-3.9-1.9-3.9-6.5s1.5-6.2 4-6.2 4 2 4 6.3zm-5.8-.1c0 3 .5 4.7 1.8 4.7s1.7-1.6 1.7-4.7-.4-4.3-1.7-4.3-1.8 1.6-1.8 4.3zm11-6v8.5c0 1 .2 2.2 1.6 2.2s1.6-1 1.6-2.2V189h2.2v8.5c0 2.2-.9 4-3.8 4s-3.8-1.7-3.8-4V189zm10.9 0v12.3h-2.2V189zm3.6 12.3V189h2.5l3.2 8.7c-.1-1.5-.1-3.3-.1-5.3V189h1.9v12.3h-2.4c-2.6-7.2-3-8.6-3.2-9.1.1 1.5.1 3.3.1 5.5v3.6z"/><path fill="#f5f2ed" fill-rule="evenodd" d="M514.2 194.5a1.6 1.6 0 0 1 1.6 1.6 1.6 1.6 0 1 1-3.2 0 1.6 1.6 0 0 1 1.6-1.6zm-119.5 0a1.6 1.6 0 0 1 1.6 1.6 1.6 1.6 0 1 1-3.1 0 1.6 1.6 0 0 1 1.5-1.6z"/><path fill="#f4f3ed" d="M454.8 167.6l1.1 2.3 2.5.3-1.8 1.8.4 2.4-2.2-1.1-2.2 1.1.4-2.4-1.8-1.8 2.5-.3 1.1-2.3zm-6.6 4.7l.5 1.1 1.3.2-.9.8.2 1.3-1.1-.6-1.1.6.2-1.3-.9-.8 1.2-.2.6-1.1zm12.5 0l.6 1.1 1.2.2-.9.8.2 1.3-1.1-.6-1.1.6.2-1.3-.9-.8 1.3-.2.5-1.1z"/><path fill="#f5f2ed" d="M433.4 222.9l.7.6c.7.6.6 1.3-.2 2.3s-1.7 1.3-2.5.7l-.6-.6zm-2 3l.3.3c.5.4 1.1.1 1.8-.7s.7-1.3.2-1.8l-.2-.2zm4.7 1.7l-1.1-.7-.8 1.2 1.2.8-.3.3-1.5-1 2.2-3.3 1.6 1-.3.4-1.1-.8-.7 1 1.1.8zm.9 1.5c-.2.4-.2.8.2 1s.6.1.8-.3.2-.6-.2-1.1-.5-1-.2-1.5a.9.9 0 0 1 1.4-.3c.7.3.6.9.4 1.4l-.4-.3c0-.2.2-.6-.2-.8a.5.5 0 0 0-.7.2c-.2.3-.2.6.2 1s.5 1.1.2 1.6a1.1 1.1 0 0 1-2-1.1zm4.1-1.1l-1.8 3.6-.4-.2 1.7-3.6zm1.4 4.9h-.4l.2-.4a.7.7 0 0 1-.9.1c-.8-.3-.8-1.2-.3-2.3s1.2-1.7 1.9-1.4a1 1 0 0 1 .6 1.4l-.5-.2a.5.5 0 0 0-.3-.8c-.5-.2-.9.3-1.2 1.2s-.5 1.6 0 1.8.7-.2 1-.9v-.2l-.6-.2v-.4l1.1.4zm1.4.5l1.1-3.9.5.2c.3 2.9.4 3.3.4 3.5a14.9 14.9 0 0 1 .4-1.8l.4-1.4.4.2-1 3.8h-.6c-.3-3-.3-3.4-.3-3.6-.1.5-.3 1.1-.5 1.8l-.4 1.4zm5.8.3c-.1.6-.3 1-1 .9h-.3v-.4h.2c.4 0 .4-.2.5-.5l.5-3.1h.5zm3.5-.7c-.1 1.4-.5 2.1-1.4 2s-1.1-.8-1-2.2.6-2 1.4-1.9 1.1.8 1 2.1zm-1.9-.2q-.2 1.6.6 1.8c.5 0 .7-.5.8-1.6s-.1-1.6-.6-1.7-.7.5-.8 1.5zm3-1.7h1.1c.6-.1.9.3 1 .9a.9.9 0 0 1-.5.9c.3.1.6.3.6 1a1 1 0 0 1-1.1 1.1h-1.1zm.9 1.6c.5 0 .7-.2.7-.6a.5.5 0 0 0-.6-.6h-.5v1.2zm-.4 2h.5c.5 0 .7-.2.7-.7s-.2-.8-.8-.8h-.4zm3.1-.9a.8.8 0 0 0 .8.7c.4-.1.5-.3.5-.7s-.2-.6-.8-.8-1-.5-1-1.1a.9.9 0 0 1 .9-1.1c.8-.1 1 .5 1.1.9h-.5a.6.6 0 0 0-.6-.6c-.4.1-.5.3-.5.6s.3.5.8.7 1 .6 1.1 1.2a1 1 0 0 1-1 1.2c-.8.1-1.1-.4-1.2-1zm3.5-3.4l1.9-.5v.5l-1.4.3.3 1.2 1.3-.3v.4l-1.3.3.4 1.8-.4.2zm5.4.5c.5 1.3.4 2-.5 2.3s-1.3-.3-1.8-1.6-.2-2 .5-2.3 1.4.3 1.8 1.6zm-1.8.6c.4 1 .8 1.5 1.2 1.3s.5-.7.1-1.8-.7-1.4-1.1-1.3-.5.8-.2 1.8zm3.4-1.1l.8 1.7-.5.2-1.6-3.7.9-.4a.9.9 0 0 1 1.4.5.9.9 0 0 1-.1 1.1c.4-.1.6.2.9.7l.4.8-.4.2a5.9 5.9 0 0 1-.4-.8h-.1c-.2-.5-.4-.7-.9-.5zm-.2-.4l.5-.2a.6.6 0 0 0 .3-.9c-.2-.3-.5-.5-.8-.3l-.5.2zm4.5-1.2l.5 1.2-.5.3-1.3-3.9.6-.3 2.9 2.8-.4.3-.9-.9zm.6-.8l-1.4-1.4a13.6 13.6 0 0 1 .7 1.8zm.1-2.9l.4-.3 2.1 2.9 1.1-.9.2.4-1.4 1.1zm2-1.5l.4-.4 2.3 2.7 1.1-.9.2.3-1.4 1.2zm-27.3-2.9h-1.3v1.5h1.5v.4h-1.9v-4h1.9v.5h-1.4v1.2h1.3zm1 .9c0 .4.2.7.6.7s.6-.3.6-.7-.1-.6-.7-.9-.9-.5-.9-1.1a.9.9 0 0 1 1-1c.8 0 1 .5 1.1 1h-.5a.6.6 0 0 0-.6-.6.5.5 0 0 0-.5.5c0 .4.2.6.7.8a1.3 1.3 0 0 1 .9 1.3 1 1 0 0 1-1.1 1.1 1 1 0 0 1-1.1-1.1zm2.8-2.5h-.9v-.5h2.3v.5h-.9v3.5h-.5zm1.3 3.5v-.8h.5v.8zm2.4 0v-3.3h-.5v-.3c.3-.1.6-.2.7-.4h.3v3.9zm1.6-.8c.1.2.1.5.5.5s.6-.9.6-1.6a.8.8 0 0 1-.7.4c-.5 0-.9-.4-.9-1.1s.4-1.3 1-1.3 1 .4 1 1.6-.2 2.4-1 2.4a.8.8 0 0 1-.9-.9zm0-1.9c0 .5.1.8.5.8s.6-.3.6-.7-.1-.9-.6-.9-.5.3-.5.8zm3.6-.3a.5.5 0 0 0-.5-.5c-.5 0-.6.9-.6 1.4a.7.7 0 0 1 .7-.4q.9 0 .9 1.2c0 .7-.2 1.4-1 1.4s-1.1-.8-1.1-1.9.3-2.1 1.2-2.1a.8.8 0 0 1 .8.9zm0 1.7c0-.5-.1-.8-.5-.8s-.6.3-.6.7.1 1.1.6 1.1.5-.3.5-1zm2.8-2.6v.4a9.7 9.7 0 0 0-1.2 3.5h-.5a10.5 10.5 0 0 1 1.2-3.4h-1.5v-.5zm-21.7 5.6h26.3v.56h-26.3zm0-8h26.3v.56h-26.3z"/><path fill="#2c2a28" d="M318 200.6l4.5-4.5-4.5-4.5 3.7-5.3-5.2-3.6 2.7-5.8-5.8-2.7 1.6-6.2-6.1-1.6.5-6.4-6.3-.5-.6-6.4-6.4.6-1.6-6.2-6.2 1.6-2.7-5.7-5.8 2.7-3.6-5.3-5.3 3.7-4.5-4.5-4.5 4.5-5.2-3.7-3.7 5.3-5.8-2.7-2.7 5.7-6.1-1.6-1.7 6.2-6.3-.6-.6 6.4-6.3.5.5 6.4-6.2 1.6 1.7 6.2-5.8 2.7 2.7 5.8-5.2 3.6 3.6 5.3-4.5 4.5 4.5 4.5-3.6 5.2 5.2 3.7-2.7 5.8 5.8 2.7-1.7 6.1 6.2 1.7-.5 6.3 6.3.6.6 6.4 6.3-.6 1.7 6.2 6.1-1.7 2.7 5.8 5.8-2.7 3.7 5.2 5.2-3.6 4.5 4.5 4.5-4.5 5.3 3.6 3.6-5.2 5.8 2.7 2.7-5.8 6.2 1.7 1.6-6.2 6.4.6.6-6.4 6.3-.6-.5-6.3 6.1-1.7-1.6-6.1 5.7-2.7-2.6-5.8 5.2-3.7-3.7-5.2z"/><path fill="#f5f2ed" d="M266.4 241.2h-1.6v-.7h3.4v.8zm-5-.3l-3.4-.5.2-.7 3.3.5zm10.2 0v-.7l3.3-.5v.7zm-16.9-1.2l-3.2-1 .2-.7 3.2 1zm23.6-.1l-.2-.7 3.2-1 .2.7zm-30-2.2l-3-1.5.3-.6 3 1.5zm36.4 0l-.3-.7a21 21 0 0 0 3-1.5l.3.7zm-42.4-3.2l-2.8-1.9.4-.6 2.8 1.9zm48.3-.1l-.3-.6a22.2 22.2 0 0 0 2.7-1.9l.4.6zm-53.7-4a27.3 27.3 0 0 1-2.5-2.3l.5-.5 2.4 2.3zm59.2 0l-.5-.6a27.3 27.3 0 0 0 2.5-2.3l.5.5zm-64-4.8a17.1 17.1 0 0 1-2.1-2.6l.5-.5 2.1 2.7zm68.8-.1l-.6-.4 2.1-2.7.6.5zm-72.8-5.4a27.5 27.5 0 0 1-1.7-2.9l.6-.3 1.7 2.9zm76.8-.1l-.7-.3c.6-1 1.2-2 1.7-3l.6.4zm-80-5.9l-1.2-3.2.7-.2 1.2 3.1zm83.1-.1l-.7-.3a19.8 19.8 0 0 0 1.2-3.1l.7.2zm-85.3-6.3c-.2-1.1-.5-2.2-.7-3.3l.7-.2c.2 1.1.5 2.2.7 3.3zm87.5-.1l-.7-.2c.2-1.1.5-2.2.7-3.3h.7c-.2 1.2-.5 2.4-.7 3.5zm-88.6-6.6c-.2-1.1-.2-2.3-.3-3.4h.7c.1 1.1.1 2.2.3 3.3zm89.7-.1h-.7c.1-1.1.2-2.2.2-3.4h.7c0 1.1-.1 2.2-.2 3.4zm-89.3-4.5h-.7c0-1.2.1-2.3.1-3.4h.8c-.1 1.1-.2 2.3-.2 3.4zm88.8-2.3l-.3-3.3h.7l.3 3.4zm-88.3-4.4h-.7c.2-1.1.4-2.2.7-3.3h.6zm87.4-2.2c-.2-1.1-.4-2.2-.7-3.3l.6-.2c.3 1.1.6 2.2.8 3.3zm-85.9-4.3l-.7-.2 1.2-3.2.6.2c-.4 1.1-.8 2.1-1.1 3.2zm84.1-2.2l-1.3-3.1.7-.3c.5 1.1.9 2.1 1.3 3.2zm-81.6-4l-.7-.3a21.4 21.4 0 0 1 1.7-3l.6.3c-.6 1-1.1 2-1.6 3zm78.8-2a27.5 27.5 0 0 0-1.7-2.9l.6-.4 1.8 2.9zm-75.4-3.8l-.6-.4a26.9 26.9 0 0 1 2-2.7l.6.4zm71.8-1.8a27.5 27.5 0 0 0-2.2-2.6l.6-.5c.7.9 1.5 1.7 2.1 2.6zm-67.6-3.4l-.6-.5 2.5-2.4.4.5zm63.1-1.6l-2.5-2.3.5-.5 2.5 2.3zm-58.2-2.9l-.4-.6a26.9 26.9 0 0 1 2.7-2l.4.6zm53.1-1.4l-2.8-1.8.3-.6 2.9 1.8zm-47.6-2.4l-.3-.6c1-.5 2-1.1 3-1.5l.3.6zm41.8-1l-3-1.4.2-.7 3.1 1.4zm-35.7-1.8l-.3-.7 3.3-1.1.2.7zm29.5-.8l-3.2-.9.2-.7 3.3 1zm-23.1-1.1v-.7a17.5 17.5 0 0 1 3.3-.6v.7zm16.6-.4l-3.3-.5v-.7l3.3.5zm-10-.5v-.7h3.4v.7h-3.4zm-21.3 17.7a4.9 4.9 0 0 1 1.5 2.1l1.2-.2.2 1-1.4.2a1.8 1.8 0 0 1-.5.7c-.9 1-2.1.8-3.8-.7s-1.9-2.8-1-3.8 2.1-.8 3.8.7zm-2 2.2c1.1 1 1.9 1.4 2.3.9s0-1.2-1.1-2.2-1.8-1.4-2.3-.9 0 1.2 1.1 2.2zm6.5-3.7l1 1.1-.9.7-.3-.4c.1.5-.1.8-.5 1.2s-1.1.5-1.8-.4l-2.3-2.7.9-.7 2.1 2.5c.3.4.5.5.8.3s.4-.6-.1-1.2l-1.9-2.3.8-.8zm3.7-2a7 7 0 0 0 .6.9l-.8.6-.3-.4c0 .4-.2.7-.7 1a1.2 1.2 0 0 1-1.8-.5c-.6-.8-.3-1.7.7-2.4l.4-.2-.3-.4c-.2-.3-.4-.5-.8-.3s-.2.6-.1.9l-.9.5c-.4-.6-.5-1.4.6-2.1a1.4 1.4 0 0 1 2.1.3zm-1.5-.3l-.3.2c-.5.3-.6.7-.3 1a.5.5 0 0 0 .8.3c.5-.3.3-.8-.1-1.4zm2.9.9l-3-6 1-.5 3 6zm-.4-6l-.4-1.1 1-.4.4 1zm.3.6l1-.4 1.9 4.4-1 .5zm1.7-.8l.6-.2-.3-1.1 1-.4.4 1.2.7-.3.3.9-.7.3.9 2.5c.1.3.2.4.5.3h.2l.3.7-.6.4a1 1 0 0 1-1.4-.8l-1-2.7-.6.2zm4.3-1.3c.7 1.5 1.3 2.7 1.5 3.3v-3.6l1.1-.2-.3 5.2c0 1.6-.5 1.8-1.2 2h-.4l-.2-.9h.3c.4-.1.5-.3.5-.9l-2.5-4.5zm8.8 1h-2.1v1.9h2.3v.9l-3.3.2-.3-6.4h3.3v1h-2.1v1.5h2zm4.7-3.5l-.4 5.3a7.8 7.8 0 0 0-.1 1.3h-1.1v-.5a.9.9 0 0 1-1.1.5c-1 0-1.4-1-1.2-2.6s.6-2.5 1.8-2.4a1 1 0 0 1 .8.5l.2-2.1zm-2.3 5.6c.6.1.8-.4.9-1.5s0-1.5-.6-1.6-.7.3-.8 1.5.1 1.6.5 1.6zm6.2.5a5.8 5.8 0 0 0-.3 1.4l-1.1-.2c0-.2.1-.4.1-.6a1.1 1.1 0 0 1-1.2.4c-.7-.2-1.1-.6-.9-1.7l.8-3.4 1.1.2-.7 3.2c-.1.5-.1.8.3.8s.7 0 .9-.8l.6-2.9 1.1.2zm4 1.1a1.6 1.6 0 0 1-2.2 1.1c-1.3-.5-1.3-1.6-.8-3s1.3-2.2 2.6-1.7a1.5 1.5 0 0 1 .9 2.1l-1-.4c0-.2.2-.7-.3-.9s-.8.3-1.1 1.3-.4 1.6 0 1.7.8-.3.9-.5zm3.3 2.3l-.5 1-.9-.5a.8.8 0 0 1 .2-.4 1.3 1.3 0 0 1-1.2 0 1.3 1.3 0 0 1-.6-1.9 1.7 1.7 0 0 1 2.5-.6l.3.2.3-.4c.1-.3.2-.6-.2-.8s-.6 0-.8.3l-.9-.5a1.4 1.4 0 0 1 2.1-.6c.9.5 1.2 1.2.8 2zm-.5-1.4l-.3-.2c-.6-.3-.9-.1-1.1.2a.5.5 0 0 0 .2.8c.5.3.8 0 1.1-.7zm2.9-1.6l.5.4.7-1 .9.6-.6 1 .6.4-.5.8-.6-.4-1.5 2.2c-.1.2-.2.4.1.6h.3l-.5.7-.6-.3c-.7-.4-.8-.8-.3-1.6l1.5-2.3-.5-.4zm2.8 1.9l.9.7-2.9 3.9-.9-.7zm.4-.6l.7-.8.9.6-.7.9zm2.5 6.2c-1.2 1.3-2.3 1.4-3.1.6s-.9-1.8.3-3.1 2.2-1.4 3.1-.6.7 1.8-.3 3.1zm-1.9-1.7c-.7.7-1 1.3-.6 1.6s.9.1 1.6-.7.9-1.3.5-1.6-.8-.1-1.5.7zm3.1 1.7l1.2-1 .7.9-.4.3a1.5 1.5 0 0 1 1.2.5c.5.6.4 1.2-.4 1.9l-2.6 2.2-.8-.9 2.5-2c.4-.3.5-.6.2-1s-.5-.3-1.1.2l-2.3 1.9-.7-.8z"/><path fill="#2c2a28" fill-rule="evenodd" d="M332 195.9l10.8-16.4H190l10.9 16.4-11 16.7H343l-11-16.7z"/><path fill="#f4f3ed" d="M343 213.1H189.4v-.8l10.8-16.4-11.1-16.9h154.6l-11.1 16.9 10.9 16.5v.7zm-152.2-1h151.3l-10.7-16.2 10.5-15.9H191l10.5 15.9z"/><path fill="#f5f2ed" d="M225.3 198.2l-.7 3.1h-2.2l2.9-12.3h2.9l2.8 12.3h-2.3l-.6-3.1zm2.4-1.9c-.4-2.4-.8-4.1-1-5.2h-.1c-.1 1.1-.5 2.9-1 5.2zm5.8-7.3h2.2v10.4h4.2l-.2 1.9h-6.2zm15.9 12.3h-1.7a3.4 3.4 0 0 1-.1-1 2.6 2.6 0 0 1-2.4 1.2c-2.6 0-3.6-2.3-3.6-6.3s1.6-6.4 4.2-6.4 3.5 2.9 3.6 3.6h-2.2a1.5 1.5 0 0 0-1.5-1.7c-1.4 0-1.8 1.9-1.8 4.5s.4 4.5 1.8 4.5 1.5-.9 1.5-2.7v-.7h-1.7v-1.9h3.9zm11-6.2c0 4.5-1.2 6.4-4.1 6.4s-3.9-1.9-3.9-6.5 1.5-6.2 4-6.2 4 2 4 6.3zm-5.8-.1c0 3 .5 4.7 1.8 4.7s1.7-1.6 1.7-4.7-.4-4.3-1.7-4.3-1.8 1.6-1.8 4.3zm8.9 6.3V189h2.5c2.5 6.8 3 8.1 3.1 8.7h.1c-.1-1.5-.1-3.3-.1-5.3V189h1.9v12.3h-2.4c-2.6-7.2-3.1-8.6-3.2-9.1.1 1.5.1 3.3.1 5.5v3.6zm18.6-6.2a10.1 10.1 0 0 1-.9 4.9l1.9 1.5-1.3 1.5-2.2-1.7a3.4 3.4 0 0 1-1.5.2c-2.7 0-4-1.9-4-6.5s1.6-6.2 4.1-6.2 3.9 2 3.9 6.3zm-5.7-.1c0 3 .5 4.7 1.7 4.7s1.8-1.6 1.8-4.7-.4-4.3-1.8-4.3-1.7 1.6-1.7 4.3zm10.9-6v8.5c0 1 .3 2.2 1.7 2.2s1.5-1 1.5-2.2V189h2.2v8.5c0 2.2-.8 4-3.8 4s-3.8-1.7-3.8-4V189zm11 0v12.3h-2.2V189zm3.5 12.3V189h2.5c2.6 6.8 3.1 8.1 3.2 8.7-.1-1.5-.1-3.3-.1-5.3V189h2v12.3H307l-3.3-9.1c.1 1.5.1 3.3.1 5.5v3.6z"/><path fill="#f5f2ed" fill-rule="evenodd" d="M325.9 194.5a1.6 1.6 0 0 1 1.6 1.6 1.7 1.7 0 0 1-1.6 1.6 1.6 1.6 0 0 1-1.6-1.6 1.6 1.6 0 0 1 1.6-1.6zm-119.5 0a1.6 1.6 0 0 1 1.6 1.6 1.6 1.6 0 0 1-3.2 0 1.6 1.6 0 0 1 1.6-1.6z"/><path fill="#f4f3ed" d="M266.4 167.6l1.1 2.3 2.5.3-1.8 1.8.5 2.4-2.3-1.1-2.2 1.1.4-2.4-1.8-1.8 2.5-.3 1.1-2.3zm-6.6 4.7l.6 1.1 1.2.2-.9.8.2 1.3-1.1-.6-1.1.6.2-1.3-.9-.8 1.3-.2.5-1.1zm12.6 0l.5 1.1 1.3.2-.9.8.2 1.3-1.1-.6-1.1.6.2-1.3-.9-.8 1.2-.2.6-1.1z"/><path fill="#f5f2ed" d="M245 222.9l.7.6c.7.6.6 1.3-.2 2.3s-1.6 1.3-2.4.7l-.6-.6zm-1.9 3l.3.3c.5.4 1 .1 1.7-.7s.8-1.3.3-1.8l-.3-.2zm4.7 1.7l-1.1-.7-.8 1.2 1.2.8-.3.3-1.6-1 2.3-3.3 1.5 1-.2.4-1.1-.8-.7 1 1 .8zm.8 1.5c-.1.4-.1.8.2 1a.6.6 0 0 0 .9-.3c.2-.4.1-.6-.2-1.1s-.5-1-.2-1.5a.9.9 0 0 1 1.4-.3c.7.3.6.9.3 1.4l-.4-.3c.1-.2.3-.6-.2-.8s-.5 0-.7.2-.1.6.2 1 .5 1.1.2 1.6a1 1 0 0 1-1.5.4 1 1 0 0 1-.4-1.5zm4.1-1.1l-1.7 3.6-.5-.2 1.8-3.6zm1.5 4.9h-.4c0-.1.1-.2.1-.4a.7.7 0 0 1-.9.1c-.8-.3-.7-1.2-.3-2.3s1.2-1.7 2-1.4a1 1 0 0 1 .5 1.4l-.4-.2c0-.1.2-.6-.3-.8s-.9.3-1.3 1.2-.4 1.6.1 1.8.7-.2 1-.9v-.2l-.7-.2.2-.4 1.1.4zm1.3.5l1.1-3.9.6.2c.3 2.9.3 3.3.3 3.5a16.7 16.7 0 0 1 .5-1.8l.4-1.4.4.2-1.1 3.8h-.5a26.3 26.3 0 0 0-.4-3.6c-.1.5-.2 1.1-.4 1.8l-.4 1.4zm5.8.3c0 .6-.2 1-.9.9h-.3v-.4h.3c.3 0 .4-.2.5-.5l.4-3.1h.5zm3.6-.7c-.2 1.4-.5 2.1-1.4 2s-1.2-.8-1-2.2.5-2 1.3-1.9 1.2.8 1.1 2.1zm-1.9-.2c-.1 1.1 0 1.7.5 1.8s.8-.5.8-1.6 0-1.6-.5-1.7-.7.5-.8 1.5zm2.9-1.7h1.1a.8.8 0 0 1 1 .9c0 .6-.2.8-.5.9a.9.9 0 0 1 .7 1 1 1 0 0 1-1.1 1.1H266zm1 1.6c.5 0 .6-.2.6-.6a.5.5 0 0 0-.6-.6h-.5v1.2zm-.4 2h.5a.6.6 0 0 0 .7-.7.7.7 0 0 0-.8-.8h-.4zm3.1-.9c.1.4.3.7.7.7s.6-.3.5-.7-.2-.6-.7-.8-1-.5-1.1-1.1a1.1 1.1 0 0 1 .9-1.1 1.1 1.1 0 0 1 1.2.9h-.5c-.1-.2-.2-.6-.6-.6s-.5.3-.5.6.2.5.7.7 1.1.6 1.1 1.2a1 1 0 0 1-.9 1.2 1.1 1.1 0 0 1-1.3-1zm3.5-3.4l1.8-.5v.5l-1.3.3.3 1.2 1.2-.3v.4l-1.2.3.4 1.8-.5.2zm5.4.5c.4 1.3.3 2-.5 2.3s-1.3-.3-1.8-1.6-.2-2 .5-2.3 1.3.3 1.8 1.6zm-1.8.6c.3 1 .7 1.5 1.2 1.3s.5-.7.1-1.8-.7-1.4-1.2-1.3-.5.8-.1 1.8zm3.4-1.1l.7 1.7-.4.2-1.7-3.7 1-.4a1 1 0 0 1 1.4.5 1 1 0 0 1-.1 1.1c.4-.1.6.2.8.7h.1l.4.8-.4.2a2 2 0 0 1-.4-.8h-.1c-.2-.5-.4-.7-.9-.5zm-.2-.4l.4-.2c.5-.2.5-.5.3-.9a.5.5 0 0 0-.8-.3l-.5.2zm4.5-1.2l.4 1.2-.4.3-1.3-3.9.5-.3 3 2.8-.5.3-.8-.9zm.6-.8a17.4 17.4 0 0 1-1.4-1.4l.7 1.8zm0-2.9l.4-.3 2.1 2.9 1.2-.9.2.4-1.5 1.1zm2.1-1.5l.3-.4 2.4 2.7 1-.9.3.3-1.4 1.2zm-27.3-2.9h-1.3v1.5h1.4v.4H258v-4h1.8v.5h-1.3v1.2h1.3zm.9.9c.1.4.3.7.7.7s.6-.3.6-.7-.2-.6-.7-.9-.9-.5-.9-1.1a1 1 0 0 1 2 0h-.5c0-.2 0-.6-.5-.6s-.5.2-.5.5.1.6.6.8a1.3 1.3 0 0 1 1 1.3 1 1 0 0 1-1.1 1.1 1 1 0 0 1-1.1-1.1zm2.9-2.5h-.9v-.5h2.3v.5h-.9v3.5h-.5zm1.3 3.5v-.8h.4v.8zm2.4 0v-3.3h-.5v-.3c.2-.1.5-.2.6-.4h.4v3.9zm1.6-.8c0 .2.1.5.4.5s.6-.9.6-1.6a.5.5 0 0 1-.6.4c-.6 0-.9-.4-.9-1.1s.4-1.3 1-1.3 1 .4 1 1.6-.2 2.4-1.1 2.4a.9.9 0 0 1-.9-.9zm0-1.9c0 .5.1.8.5.8s.5-.3.5-.7-.1-.9-.5-.9-.5.3-.5.8zm3.5-.3c0-.1 0-.5-.4-.5s-.6.9-.6 1.4a.7.7 0 0 1 .7-.4q.9 0 .9 1.2c0 .7-.3 1.4-1.1 1.4s-1-.8-1-1.9.3-2.1 1.1-2.1a.9.9 0 0 1 .9.9zm.1 1.7c0-.5-.2-.8-.5-.8s-.6.3-.6.7.1 1.1.5 1.1.6-.3.6-1zm2.7-2.6v.4a12 12 0 0 0-1.1 3.5h-.5a13.6 13.6 0 0 1 1.1-3.4h-1.4v-.5zm-21.7 5.6h26.3v.56h-26.3zm0-8h26.3v.56h-26.3z"/><path fill="#2c2a28" d="M694.7 200.6l4.5-4.5-4.5-4.5 3.7-5.3-5.3-3.6 2.7-5.8-5.7-2.7 1.6-6.2-6.2-1.6.6-6.4-6.4-.5-.5-6.4-6.4.6-1.6-6.2-6.2 1.6-2.7-5.7-5.8 2.7-3.6-5.3-5.3 3.7-4.5-4.5-4.5 4.5-5.2-3.7-3.7 5.3-5.8-2.7-2.7 5.7-6.1-1.6-1.7 6.2-6.3-.6-.6 6.4-6.4.5.6 6.4-6.2 1.6 1.7 6.2-5.8 2.7 2.7 5.8-5.2 3.6 3.6 5.3-4.5 4.5 4.5 4.5-3.6 5.2 5.2 3.7-2.7 5.8 5.8 2.7-1.7 6.1 6.2 1.7-.6 6.3 6.4.6.5 6.4 6.4-.6 1.7 6.2 6.1-1.7 2.7 5.8 5.8-2.7 3.7 5.2 5.2-3.6 4.5 4.5 4.5-4.5 5.3 3.6 3.6-5.2 5.8 2.7 2.7-5.8 6.2 1.7 1.6-6.2 6.4.6.5-6.4 6.4-.6-.6-6.3 6.2-1.7-1.7-6.1 5.8-2.7-2.7-5.8 5.3-3.7-3.7-5.2z"/><path fill="#f5f2ed" d="M643.1 241.2h-1.6v-.7h3.4v.8zm-5-.3l-3.4-.5.2-.7 3.3.5zm10.2 0v-.7l3.3-.5v.7zm-16.9-1.2l-3.2-1 .2-.7 3.2 1zm23.5-.1v-.7l3.2-1 .2.7zm-29.9-2.2c-1-.5-2.1-.9-3.1-1.5l.4-.6 3 1.5zm36.3 0l-.2-.7a21 21 0 0 0 3-1.5l.3.7zm-42.3-3.2l-2.8-1.9.4-.6 2.8 1.9zm48.3-.1l-.4-.6a17.3 17.3 0 0 0 2.8-1.9l.4.6zm-53.8-4l-2.4-2.3.5-.5a26.1 26.1 0 0 0 2.4 2.3zm59.3 0l-.5-.6a26.1 26.1 0 0 0 2.4-2.3l.5.5zm-64-4.8a17.1 17.1 0 0 1-2.1-2.6l.5-.5 2.1 2.7zm68.7-.1l-.5-.4 2.1-2.7.5.5a17.1 17.1 0 0 1-2.1 2.6zm-72.7-5.4a27.5 27.5 0 0 1-1.7-2.9l.6-.3 1.7 2.9zm76.7-.1l-.6-.3c.6-1 1.2-2 1.7-3l.6.4a27.5 27.5 0 0 1-1.7 2.9zm-79.9-5.9l-1.2-3.2.7-.2a16.6 16.6 0 0 0 1.2 3.1zm83.1-.1l-.7-.3 1.2-3.1.7.2zm-85.3-6.3c-.3-1.1-.5-2.2-.7-3.3l.7-.2c.2 1.1.4 2.2.7 3.3zm87.4-.1l-.7-.2a19.4 19.4 0 0 0 .7-3.3h.7a20.5 20.5 0 0 1-.7 3.5zm-88.6-6.6c-.1-1.1-.2-2.3-.2-3.4h.7c.1 1.1.1 2.2.2 3.3zm89.8-.1h-.7c.1-1.1.2-2.2.2-3.4h.7c0 1.1-.1 2.2-.2 3.4zm-89.3-4.5h-.7c0-1.2 0-2.3.1-3.4h.7c0 1.1-.1 2.3-.1 3.4zm88.8-2.3l-.3-3.3h.7l.3 3.4zm-88.3-4.4h-.7l.6-3.3h.7zm87.4-2.2c-.2-1.1-.5-2.2-.8-3.3l.7-.2c.3 1.1.6 2.2.8 3.3zm-85.9-4.3l-.7-.2a30.3 30.3 0 0 1 1.2-3.2l.6.2c-.4 1.1-.8 2.1-1.1 3.2zm84.1-2.2l-1.3-3.1.7-.3c.4 1.1.9 2.1 1.3 3.2zm-81.6-4l-.7-.3c.5-1.1 1.1-2.1 1.6-3l.6.3zm78.8-2a27.5 27.5 0 0 0-1.7-2.9l.6-.4a27.5 27.5 0 0 1 1.7 2.9zm-75.5-3.8l-.5-.4a26.9 26.9 0 0 1 2-2.7l.5.4zm71.9-1.8a27.5 27.5 0 0 0-2.2-2.6l.6-.5 2.1 2.6zm-67.7-3.4l-.5-.5 2.4-2.4.5.5zm63.2-1.6l-2.5-2.3.5-.5 2.5 2.3zm-58.2-2.9l-.5-.6 2.8-2 .4.6zm53-1.4l-2.8-1.8.4-.6 2.9 1.8zm-47.5-2.4l-.3-.6c1-.5 2-1.1 3-1.5l.3.6zm41.8-1l-3-1.4.2-.7 3.1 1.4zm-35.7-1.8l-.3-.7 3.2-1.1.2.7zm29.5-.8l-3.2-.9.2-.7 3.2 1zm-23.1-1.1l-.2-.7a20.2 20.2 0 0 1 3.4-.6v.7a19.1 19.1 0 0 0-3.2.6zm16.6-.4l-3.3-.5v-.7l3.3.5zm-10-.5v-.7h3.4v.7h-3.4zM619 169.5a5.9 5.9 0 0 1 1.5 2.1l1.2-.2.2 1-1.4.2a1.8 1.8 0 0 1-.5.7c-.9 1-2.1.8-3.8-.7s-1.9-2.8-1-3.8 2.1-.8 3.8.7zm-2.1 2.2c1.2 1 2 1.4 2.4.9s0-1.2-1.1-2.2-1.9-1.4-2.3-.9 0 1.2 1 2.2zm6.6-3.7a5.3 5.3 0 0 1 .9 1.1l-.8.7-.4-.4c.2.5 0 .8-.4 1.2s-1.1.5-1.9-.4l-2.2-2.7.9-.7 2 2.5q.4.6.9.3c.3-.3.4-.6-.1-1.2l-1.9-2.3.8-.8zm3.7-2a7 7 0 0 0 .6.9l-.9.6-.2-.4c0 .4-.2.7-.7 1a1.2 1.2 0 0 1-1.8-.5c-.6-.8-.3-1.7.7-2.4a.5.5 0 0 0 .4-.2l-.3-.4c-.2-.3-.4-.5-.8-.3s-.3.6-.1.9l-.9.5c-.4-.6-.5-1.4.6-2.1a1.4 1.4 0 0 1 2.1.3zm-1.5-.3l-.3.2c-.5.3-.6.7-.4 1s.5.5.8.3.4-.8 0-1.4zm2.8.9l-3-6 1-.5 3 6zm-.3-6l-.4-1.1 1-.4.4 1zm.3.6l1-.4 1.9 4.4-1 .5zm1.7-.8l.6-.2-.4-1.1 1.1-.4.4 1.2.7-.3.3.9-.7.3.8 2.5c.1.3.2.4.6.3h.2l.3.7-.6.4a1.1 1.1 0 0 1-1.5-.8l-.9-2.7-.6.2zm4.3-1.3c.7 1.5 1.3 2.7 1.5 3.3v-3.6l1.1-.2-.3 5.2c0 1.6-.6 1.8-1.2 2h-.5l-.2-.9h.4c.4-.1.5-.3.5-.9l-2.5-4.5zm8.7 1h-2v1.9h2.3v.9l-3.3.2-.3-6.4h3.3v1h-2.1v1.5h2.1zm4.8-3.5l-.4 5.3a7.8 7.8 0 0 0-.1 1.3h-1.1v-.5a.9.9 0 0 1-1.1.5c-1.1 0-1.4-1-1.3-2.6s.7-2.5 1.9-2.4a1 1 0 0 1 .8.5l.2-2.1zm-2.3 5.6c.6.1.8-.4.9-1.5s0-1.5-.6-1.6-.7.3-.8 1.5.1 1.6.5 1.6zm6.1.5a7.8 7.8 0 0 1-.3 1.4l-1-.2a1.3 1.3 0 0 1 .1-.6 1.1 1.1 0 0 1-1.2.4c-.7-.2-1.1-.6-.9-1.7l.8-3.4 1.1.2-.7 3.2c-.1.5-.1.8.3.8s.7 0 .8-.8l.7-2.9 1.1.2zm4.1 1.1a1.7 1.7 0 0 1-2.2 1.1c-1.3-.5-1.3-1.6-.8-3s1.2-2.2 2.5-1.7a1.5 1.5 0 0 1 1 2.1l-1-.4c0-.2.2-.7-.3-.9s-.8.3-1.1 1.3-.4 1.6 0 1.7.7-.3.9-.5zm3.2 2.3l-.4 1-.9-.5.2-.4a1.4 1.4 0 0 1-1.3 0 1.4 1.4 0 0 1-.5-1.9 1.7 1.7 0 0 1 2.5-.6l.3.2.3-.4c.1-.3.2-.6-.2-.8s-.6 0-.8.3l-1-.5a1.5 1.5 0 0 1 2.2-.6c.9.5 1.2 1.2.8 2zm-.4-1.4l-.3-.2c-.6-.3-1-.1-1.1.2a.5.5 0 0 0 .2.8c.5.3.8 0 1.1-.7zm2.9-1.6l.5.4.7-1 .9.6-.7 1 .7.4-.5.8-.7-.4-1.4 2.2c-.2.2-.2.4.1.6h.2l-.4.7a1.1 1.1 0 0 1-.6-.3c-.7-.4-.8-.8-.3-1.6l1.5-2.3-.5-.4zm2.8 1.9l.9.7-3 3.9-.9-.7zm.4-.6l.7-.8.9.6-.7.9zm2.4 6.2c-1.2 1.3-2.2 1.4-3.1.6s-.8-1.8.4-3.1 2.2-1.4 3.1-.6.7 1.8-.4 3.1zm-1.8-1.7c-.7.7-1 1.3-.6 1.6s.9.1 1.6-.7.9-1.3.5-1.6-.8-.1-1.5.7zm3.1 1.7l1.2-1 .7.9-.4.3a1.2 1.2 0 0 1 1.1.5c.6.6.5 1.2-.3 1.9l-2.6 2.2-.8-.9 2.5-2c.4-.3.5-.6.2-1s-.6-.3-1.1.2l-2.3 1.9-.8-.8z"/><path fill="#2c2a28" fill-rule="evenodd" d="M708.6 195.9l10.9-16.4H566.7l10.9 16.4-11 16.7h153.1l-11.1-16.7z"/><path fill="#f4f3ed" d="M719.7 213.1H566.1v-.8l10.9-16.4-11.2-16.9h154.6l-11.2 16.9 11 16.5v.7zm-152.2-1h151.3L708 195.9l10.6-15.9h-151l10.6 15.9z"/><path fill="#f5f2ed" d="M601.9 198.2l-.6 3.1h-2.2L602 189h2.8l2.9 12.3h-2.3l-.6-3.1zm2.5-1.9c-.4-2.4-.8-4.1-1-5.2h-.1c-.1 1.1-.5 2.9-1 5.2zm5.8-7.3h2.2v10.4h4.2l-.2 1.9h-6.2zm15.9 12.3h-1.7a3.4 3.4 0 0 1-.1-1 2.7 2.7 0 0 1-2.5 1.2c-2.6 0-3.5-2.3-3.5-6.3s1.5-6.4 4.2-6.4a3.3 3.3 0 0 1 3.5 3.6h-2.1c-.1-.5-.2-1.7-1.5-1.7s-1.8 1.9-1.8 4.5.3 4.5 1.7 4.5 1.6-.9 1.6-2.7v-.7h-1.7v-1.9h3.9zm11-6.2c0 4.5-1.3 6.4-4.1 6.4s-4-1.9-4-6.5 1.6-6.2 4.1-6.2 4 2 4 6.3zm-5.8-.1c0 3 .5 4.7 1.7 4.7s1.8-1.6 1.8-4.7-.4-4.3-1.8-4.3-1.7 1.6-1.7 4.3zm8.9 6.3V189h2.4c2.6 6.8 3.1 8.1 3.2 8.7 0-1.5-.1-3.3-.1-5.3V189h2v12.3h-2.4c-2.6-7.2-3.1-8.6-3.2-9.1h-.1c.1 1.5.1 3.3.1 5.5v3.6zm18.6-6.2c0 2.2-.3 3.9-1 4.9l2 1.5-1.3 1.5-2.2-1.7a3.9 3.9 0 0 1-1.5.2c-2.7 0-4-1.9-4-6.5s1.5-6.2 4.1-6.2 3.9 2 3.9 6.3zm-5.7-.1c0 3 .4 4.7 1.7 4.7s1.8-1.6 1.8-4.7-.4-4.3-1.8-4.3-1.7 1.6-1.7 4.3zm10.9-6v8.5c0 1 .3 2.2 1.6 2.2s1.6-1 1.6-2.2V189h2.2v8.5c0 2.2-.8 4-3.8 4s-3.8-1.7-3.8-4V189zm11 0v12.3h-2.2V189zm3.5 12.3V189h2.5c2.6 6.8 3.1 8.1 3.2 8.7-.1-1.5-.1-3.3-.1-5.3V189h2v12.3h-2.4c-2.7-7.2-3.1-8.6-3.3-9.1.1 1.5.1 3.3.1 5.5v3.6z"/><path fill="#f5f2ed" fill-rule="evenodd" d="M702.6 194.5a1.6 1.6 0 0 1 1.5 1.6 1.6 1.6 0 1 1-3.1 0 1.6 1.6 0 0 1 1.6-1.6zm-119.5 0a1.6 1.6 0 0 1 1.6 1.6 1.6 1.6 0 0 1-3.2 0 1.6 1.6 0 0 1 1.6-1.6z"/><path fill="#f4f3ed" d="M643.1 167.6l1.1 2.3 2.5.3-1.8 1.8.4 2.4-2.2-1.1-2.2 1.1.4-2.4-1.8-1.8 2.5-.3 1.1-2.3zm-6.6 4.7l.6 1.1 1.2.2-.9.8.2 1.3-1.1-.6-1.1.6.2-1.3-.9-.8 1.3-.2.5-1.1zm12.6 0l.5 1.1 1.3.2-.9.8.2 1.3-1.1-.6-1.1.6.2-1.3-.9-.8 1.2-.2.6-1.1z"/><path fill="#f5f2ed" d="M621.7 222.9l.7.6c.7.6.6 1.3-.2 2.3s-1.6 1.3-2.4.7l-.7-.6zm-1.9 3l.2.3c.6.4 1.1.1 1.8-.7s.8-1.3.3-1.8l-.3-.2zm4.7 1.7l-1.1-.7-.8 1.2 1.2.8-.3.3-1.6-1 2.3-3.3 1.5 1-.2.4-1.2-.8-.7 1 1.1.8zm.8 1.5c-.2.4-.2.8.2 1s.6.1.9-.3.1-.6-.2-1.1-.5-1-.2-1.5a.8.8 0 0 1 1.3-.3c.7.3.6.9.4 1.4l-.4-.3a.6.6 0 0 0-.2-.8c-.3-.2-.5 0-.7.2s-.1.6.2 1 .5 1.1.2 1.6a1 1 0 0 1-1.5.4 1 1 0 0 1-.4-1.5zm4.1-1.1l-1.7 3.6-.5-.2 1.8-3.6zm1.4 4.9h-.3a.8.8 0 0 1 .1-.4.7.7 0 0 1-.9.1c-.8-.3-.7-1.2-.3-2.3s1.2-1.7 2-1.4a1 1 0 0 1 .5 1.4l-.4-.2c0-.1.2-.6-.3-.8s-.9.3-1.3 1.2-.5 1.6 0 1.8.8-.2 1.1-.9v-.2l-.6-.2.2-.4 1.1.4zm1.4.5l1.1-3.9.6.2c.3 2.9.3 3.3.3 3.5a16.7 16.7 0 0 1 .5-1.8l.4-1.4.4.2-1.1 3.8h-.5c-.3-3-.4-3.4-.4-3.6-.1.5-.3 1.1-.4 1.8l-.4 1.4zm5.8.3c-.1.6-.2 1-.9.9h-.4v-.4h.3c.3 0 .4-.2.4-.5l.5-3.1h.5zm3.5-.7c-.1 1.4-.5 2.1-1.3 2s-1.2-.8-1.1-2.2.6-2 1.4-1.9 1.1.8 1 2.1zm-1.9-.2c0 1.1.1 1.7.6 1.8s.7-.5.8-1.6-.1-1.6-.5-1.7-.8.5-.9 1.5zm3-1.7h1.1a.8.8 0 0 1 1 .9c0 .6-.2.8-.5.9s.6.3.7 1a1.1 1.1 0 0 1-1.2 1.1h-1zm1 1.6c.5 0 .6-.2.6-.6a.5.5 0 0 0-.6-.6h-.5v1.2zm-.4 2h.5a.6.6 0 0 0 .7-.7.7.7 0 0 0-.8-.8h-.5zm3.1-.9c.1.4.3.7.7.7s.6-.3.5-.7-.2-.6-.8-.8-.9-.5-1-1.1a1 1 0 0 1 .9-1.1.9.9 0 0 1 1.1.9h-.4c-.1-.2-.2-.6-.7-.6a.5.5 0 0 0-.4.6c0 .4.2.5.7.7s1.1.6 1.1 1.2-.2 1.1-1 1.2-1.1-.4-1.2-1zm3.5-3.4l1.8-.5v.5l-1.3.3.2 1.2 1.3-.3v.4l-1.3.3.5 1.8-.5.2zm5.4.5c.4 1.3.3 2-.5 2.3s-1.4-.3-1.8-1.6-.3-2 .5-2.3 1.3.3 1.8 1.6zm-1.8.6c.3 1 .7 1.5 1.2 1.3s.4-.7.1-1.8-.7-1.4-1.2-1.3-.5.8-.1 1.8zm3.3-1.1l.8 1.7-.4.2-1.7-3.7 1-.4a1 1 0 0 1 1.4.5 1.3 1.3 0 0 1-.1 1.1c.3-.1.6.2.8.7h.1a2.9 2.9 0 0 0 .4.8l-.5.2-.4-.8c-.3-.5-.5-.7-.9-.5zm-.1-.4l.4-.2a.6.6 0 0 0 .3-.9.5.5 0 0 0-.8-.3l-.5.2zm4.5-1.2l.4 1.2-.4.3-1.3-3.9.5-.3 3 2.8-.5.3-.9-.9zm.5-.8l-1.3-1.4a18.2 18.2 0 0 1 .6 1.8zm.1-2.9l.4-.3 2.1 2.9 1.2-.9.2.4-1.5 1.1zm2-1.5l.4-.4 2.4 2.7 1-.9.3.3-1.4 1.2zm-27.2-2.9h-1.4v1.5h1.5v.4h-1.8v-4h1.8v.5h-1.4v1.2h1.4zm.9.9c.1.4.2.7.7.7s.6-.3.6-.7-.2-.6-.7-.9-.9-.5-.9-1.1a1 1 0 0 1 2 0h-.5c0-.2-.1-.6-.5-.6s-.6.2-.6.5.2.6.7.8a1.3 1.3 0 0 1 1 1.3 1 1 0 0 1-1.1 1.1c-.9 0-1.1-.6-1.2-1.1zm2.9-2.5h-.9v-.5h2.2v.5h-.8v3.5h-.5zm1.2 3.5v-.8h.5v.8zm2.5 0v-3.3h-.6v-.3c.3-.1.6-.2.7-.4h.3v3.9zm1.6-.8c0 .2.1.5.4.5s.6-.9.6-1.6a.5.5 0 0 1-.6.4c-.6 0-.9-.4-.9-1.1s.3-1.3 1-1.3 1 .4 1 1.6-.3 2.4-1.1 2.4a.9.9 0 0 1-.9-.9zm-.1-1.9c0 .5.2.8.6.8s.5-.3.5-.7-.1-.9-.5-.9-.6.3-.6.8zm3.6-.3c0-.1 0-.5-.4-.5s-.6.9-.6 1.4a.7.7 0 0 1 .7-.4c.5 0 .9.4.9 1.2s-.3 1.4-1.1 1.4-1-.8-1-1.9.2-2.1 1.1-2.1a.9.9 0 0 1 .9.9zm.1 1.7c0-.5-.2-.8-.6-.8s-.5.3-.5.7.1 1.1.5 1.1.6-.3.6-1zm2.7-2.6v.4a12 12 0 0 0-1.1 3.5h-.5a10.5 10.5 0 0 1 1.1-3.4H650v-.5zm-21.7 5.6h26.3v.56h-26.3zm0-8h26.3v.56h-26.3z"/><path fill="#231f20" d="M43.5 9.6h-4.4V6h13v3.6h-4.4V22h-4.2zm11 13.9c.9 0 1.4-.2 1.6-.7l.3-.6-4.6-11.7h3.8l2.7 7.3 2.6-7.3h3.9l-5.2 13.2c-1 2.4-2.7 3-4.9 3h-1.6l.5-3.3zm11.4 3v-16h3.7v1.3a4.3 4.3 0 0 1 3.4-1.6c2.9 0 5.1 2.1 5.1 6s-2.2 6.1-5.1 6.1a4.4 4.4 0 0 1-3.4-1.6v5.8zm5.9-13.1a3.1 3.1 0 0 0-2.2 1.1V18a3.1 3.1 0 0 0 2.2 1.1 2.6 2.6 0 0 0 2.6-2.9 2.6 2.6 0 0 0-2.6-2.8zm13.7-3.2c3.4 0 5.9 2.5 5.9 6.4v.8h-8.3a2.9 2.9 0 0 0 3 2.1 4.3 4.3 0 0 0 2.8-1l1.6 2.3a7.9 7.9 0 0 1-4.9 1.5c-3.5 0-6.3-2.3-6.3-6.1a6 6 0 0 1 6.2-6zM83.1 15h4.8a2.2 2.2 0 0 0-2.4-2 2.3 2.3 0 0 0-2.4 2zm10.7 3a6.8 6.8 0 0 0 4.1 1.5c1.1 0 1.5-.3 1.5-.8s-.8-.8-2-1-4.7-.8-4.7-3.7 1.7-3.8 4.9-3.8a8.4 8.4 0 0 1 4.9 1.5l-1.4 2.4a5.5 5.5 0 0 0-3.4-1.2c-.9 0-1.5.3-1.5.8s.6.7 1.9.9 4.8.8 4.8 3.9-1.9 3.8-5.2 3.8a9.5 9.5 0 0 1-5.5-1.7zm16.4-1.8a6 6 0 0 1 6.3-6c4 0 6.4 2.8 6.4 6a6.4 6.4 0 0 1-12.7 0zm8.9 0a2.6 2.6 0 1 0-5.1 0c0 1.6.9 2.9 2.5 2.9a2.6 2.6 0 0 0 2.6-2.9zm6.5-2.5h-1.9v-3.2h1.9v-.6a4 4 0 0 1 4.2-4.1 5.4 5.4 0 0 1 2.4.5l-.7 2.5-.9-.2a1.2 1.2 0 0 0-1.3 1.4v.5h2.4v3.2h-2.4V22h-3.7z"/><path fill="#ed1c24" d="M140.5 16.7a7.3 7.3 0 0 0 5.1 2.1c1.4 0 2.3-.6 2.3-1.4s-1.1-1.2-2.8-1.6-6.3-1.2-6.3-5 2.3-5 6.4-5a10.2 10.2 0 0 1 6.5 2.2l-2.3 3a7.4 7.4 0 0 0-4.5-1.7c-1.4 0-1.9.6-1.9 1.3s1 1.1 2.8 1.4 6.3 1.4 6.3 5-2.4 5.3-6.7 5.3a9.8 9.8 0 0 1-7.1-2.5z"/><path fill="#ec008c" d="M161.9 14.9l-2.1 7.1h-4l-3.5-11.5h3.8l1.9 7.1 2.3-7.1h3.3l2.3 7.1 1.8-7.1h3.8L168.1 22h-4z"/><path fill="#00a651" d="M179.6 20.9a4.9 4.9 0 0 1-3.6 1.4 3.8 3.8 0 0 1-4-3.8c0-2.8 2.2-3.6 4-3.6a4.5 4.5 0 0 1 3.6 1.3v-1.5c0-1-.9-1.6-2.4-1.6a5 5 0 0 0-3.3 1.2l-1.3-2.3a8 8 0 0 1 5.2-1.8c2.8 0 5.4 1 5.4 4.6V22h-3.6zm0-2.9a2.9 2.9 0 0 0-2.1-.8c-1 0-1.9.5-1.9 1.4s.9 1.3 1.9 1.3a2.9 2.9 0 0 0 2.1-.8z"/><path fill="#00aeef" d="M186.7 18.9v-5.2h-1.9v-3.2h1.9V7.3h3.7v3.2h2.3v3.2h-2.3v4.2c0 .7.4 1.2 1 1.2a1.6 1.6 0 0 0 .9-.3l.8 2.8a4.5 4.5 0 0 1-2.8.7c-2.3 0-3.6-1.1-3.6-3.4z"/><path fill="#2e3192" d="M200.1 10.2a5.7 5.7 0 0 1 4.8 2.1l-2.4 2.2a2.8 2.8 0 0 0-2.2-1.1 2.7 2.7 0 0 0-2.7 2.8 2.7 2.7 0 0 0 2.7 2.9 2.6 2.6 0 0 0 2.2-1.2l2.4 2.3a5.7 5.7 0 0 1-4.8 2.1 5.9 5.9 0 0 1-6.3-6.1c0-3.6 2.7-6 6.3-6z"/><path fill="#ef4136" d="M214.4 15.3c0-1.4-.7-1.9-1.9-1.9a2.6 2.6 0 0 0-2.2 1.2V22h-3.7V6h3.7v5.9a5.4 5.4 0 0 1 4-1.7c2.6 0 3.8 1.5 3.8 3.6V22h-3.7z"/><path fill="#fbb040" d="M226.2 10.2c3.5 0 6 2.5 6 6.4v.8h-8.3a2.8 2.8 0 0 0 3 2.1 4.5 4.5 0 0 0 2.8-1l1.5 2.3a7.4 7.4 0 0 1-4.8 1.5c-3.6 0-6.3-2.3-6.3-6.1a5.9 5.9 0 0 1 6.1-6zm-2.3 4.8h4.7a2.2 2.2 0 0 0-2.4-2 2.2 2.2 0 0 0-2.3 2z"/><path fill="#8dc63f" d="M234.5 18a7 7 0 0 0 4.1 1.5c1.1 0 1.6-.3 1.6-.8s-.8-.8-2-1-4.8-.8-4.8-3.7 1.8-3.8 5-3.8a8.1 8.1 0 0 1 4.8 1.5l-1.4 2.4a5.5 5.5 0 0 0-3.4-1.2c-.8 0-1.4.3-1.4.8s.6.7 1.8.9 4.9.8 4.9 3.9-1.9 3.8-5.3 3.8a9.1 9.1 0 0 1-5.4-1.7z"/><path fill="#f08222" d="M0 0h28.8v28.8H0z"/><path fill="#21160d" d="M1.8 1.8H27V27H1.8z"/><path fill="#f08222" d="M10.6 15.7h2.9L12 9.9zm4.6 6.3l-1.1-3.7H10L8.9 22H6.2l3.9-13.3V7.3h3.7L18.2 22zm4.4-11.2h3v11.23h-3z"/><ellipse cx="21.1" cy="8.3" fill="#f08222" rx="1.5" ry="1.5"/><path fill="#231f20" d="M56.6 272.7a4 4 0 0 1 3.1 1.5l-.8.5a3 3 0 0 0-2.3-1.1 3.1 3.1 0 0 0-3.1 3.3 3 3 0 0 0 3.1 3.2 2.9 2.9 0 0 0 2.1-.8v-1.7H56v-.8h3.7v2.8a3.8 3.8 0 0 1-3.1 1.4 3.9 3.9 0 0 1-4.1-4.1 4 4 0 0 1 4.1-4.2zm4.7 2.4h.9v.9a2.6 2.6 0 0 1 2-1v.9h-.4a2.1 2.1 0 0 0-1.6 1v4.1h-.9zm6.5-.2a2.8 2.8 0 0 1 2.8 3.1v.3h-4.7a2 2 0 0 0 2.1 2 2.7 2.7 0 0 0 1.8-.8l.4.6a3.2 3.2 0 0 1-2.3.9 2.9 2.9 0 0 1-3-3 3 3 0 0 1 2.9-3.1zm-1.9 2.7h3.8a1.8 1.8 0 0 0-1.9-1.9 1.9 1.9 0 0 0-1.9 1.9zm6.4 4.8a.8.8 0 0 0 .9-.6l.4-.9-2.4-5.8h.9l2 4.7 1.9-4.7h1l-2.9 6.9a1.7 1.7 0 0 1-1.7 1.2h-.7l.2-.8zm5.6-2.9a2.8 2.8 0 0 0 1.9.8c.9 0 1.4-.4 1.4-1s-.8-.8-1.5-1-2.1-.5-2.1-1.7.7-1.7 2.1-1.7a3 3 0 0 1 2.2.9l-.4.6a2.5 2.5 0 0 0-1.8-.7c-.8 0-1.3.3-1.3.8s.7.8 1.5 1 2.1.5 2.1 1.8-.7 1.7-2.2 1.7a3.2 3.2 0 0 1-2.4-.9zm8.2-4.6a2.8 2.8 0 0 1 2.1 1l-.6.6a1.9 1.9 0 0 0-1.5-.8 2.1 2.1 0 0 0-2 2.3 2 2 0 0 0 2 2.2 1.8 1.8 0 0 0 1.5-.7l.6.5a2.5 2.5 0 0 1-2.1 1 2.8 2.8 0 0 1-2.9-3 2.9 2.9 0 0 1 2.9-3.1zm7 5.3a2.8 2.8 0 0 1-2 .8 1.9 1.9 0 1 1 0-3.8 2.4 2.4 0 0 1 2 .8v-1.1a1.4 1.4 0 0 0-1.5-1.2 2.5 2.5 0 0 0-1.8.8l-.4-.6a2.9 2.9 0 0 1 2.3-1c1.2 0 2.3.6 2.3 2v4h-.9zm0-1.6a2.1 2.1 0 0 0-1.6-.8 1.3 1.3 0 1 0 0 2.6 2.1 2.1 0 0 0 1.6-.8zm2.7-5.7h.9v8h-.9zm5.2 2a2.9 2.9 0 0 1 2.8 3.1v.3h-4.7a2 2 0 0 0 2.1 2 2.3 2.3 0 0 0 1.7-.8l.5.6a3.2 3.2 0 0 1-2.3.9 2.9 2.9 0 0 1-3-3 3 3 0 0 1 2.9-3.1zm-1.9 2.7h3.8a1.9 1.9 0 1 0-3.8 0zm-52.4 12.8a7.8 7.8 0 0 1 1.5-4.4l.4.4a8.5 8.5 0 0 0-1 4 8.6 8.6 0 0 0 1 4.1l-.4.4a7.8 7.8 0 0 1-1.5-4.5zm2.8-4.2h.8v2.6a1.9 1.9 0 0 1 1.6-.9c1.3 0 2.2 1 2.2 2.6a2.2 2.2 0 0 1-2.2 2.5 2.1 2.1 0 0 1-1.6-.8v.7h-.8zm2.2 6.1a1.6 1.6 0 0 0 1.6-1.8c0-1.1-.6-1.9-1.6-1.9a1.7 1.7 0 0 0-1.4.8v2.2a1.6 1.6 0 0 0 1.4.7zm3.6-6.1h.7v6.7h-.7zm5.3 6.1a2 2 0 0 1-1.6.7 1.6 1.6 0 0 1-1.7-1.6 1.5 1.5 0 0 1 1.7-1.6 2 2 0 0 1 1.6.7v-.9c0-.7-.6-1-1.3-1a2 2 0 0 0-1.4.6l-.4-.5a2.6 2.6 0 0 1 1.9-.8c1.1 0 1.9.5 1.9 1.7v3.3h-.7zm0-1.4a1.7 1.7 0 0 0-1.4-.6 1.1 1.1 0 1 0 0 2.2 1.7 1.7 0 0 0 1.4-.6zm4.3-3a2.1 2.1 0 0 1 1.8.9l-.5.4a1.4 1.4 0 0 0-1.2-.6 1.7 1.7 0 0 0-1.7 1.9 1.7 1.7 0 0 0 1.7 1.8 1.4 1.4 0 0 0 1.2-.6l.5.5a2.4 2.4 0 0 1-1.8.8 2.4 2.4 0 0 1-2.4-2.5 2.4 2.4 0 0 1 2.4-2.6zm4.4 2.8l-.8.8v1.4h-.7v-6.7h.7v4.4L71 288h1l-2.1 2.2 2.1 2.7h-1zm11.6 2.2h-1.1a4.6 4.6 0 0 0-.7-.7 2.6 2.6 0 0 1-1.9.8 1.8 1.8 0 0 1-2.1-1.9c0-1 .7-1.5 1.5-2a3.3 3.3 0 0 1-.6-1.4 1.7 1.7 0 0 1 1.7-1.6 1.3 1.3 0 0 1 1.5 1.3c0 1-.8 1.5-1.7 1.9l.8.9a3.6 3.6 0 0 0 .8.9 4 4 0 0 0 .7-1.5l.7.3a14 14 0 0 1-.9 1.7zm-2.3-1.2l-.9-1a4.4 4.4 0 0 1-.8-1.1 1.8 1.8 0 0 0-1 1.5 1.3 1.3 0 0 0 1.3 1.3 1.7 1.7 0 0 0 1.4-.7zm-1.4-2.9c.7-.3 1.3-.7 1.3-1.4a.7.7 0 0 0-.7-.7.9.9 0 0 0-1 1 3 3 0 0 0 .4 1.1zm10.2.2l-1.3 3.9h-.7l-1.6-4.9h.8l1.2 3.9 1.3-3.9h.6l1.3 3.9 1.2-3.9h.7l-1.5 4.9h-.8zm7.7.7c0-.9-.5-1.1-1.1-1.1a1.9 1.9 0 0 0-1.4.7v3.6h-.8v-6.7h.8v2.5a2.3 2.3 0 0 1 1.7-.8c1 0 1.5.5 1.5 1.6v3.4h-.7zm2.1-2.9a.5.5 0 0 1 1 0 .5.5 0 0 1-1 0zm.1 1.2h.8v4.9h-.8zm2.4 3.9v-3.2h-.8v-.7h.8v-1.3h.8v1.3h1v.7h-1v3c0 .4.1.6.5.6l.5-.2.2.6a1.2 1.2 0 0 1-.9.3 1 1 0 0 1-1.1-1.1zm4.9-4a2.3 2.3 0 0 1 2.3 2.6v.2H103a1.8 1.8 0 0 0 1.8 1.7 2.2 2.2 0 0 0 1.5-.6l.3.5a2.9 2.9 0 0 1-1.9.7 2.4 2.4 0 0 1-2.5-2.5 2.5 2.5 0 0 1 2.4-2.6zm-1.6 2.3h3.2a1.6 1.6 0 0 0-1.6-1.7 1.7 1.7 0 0 0-1.6 1.7zm4.6-3.8l.4-.4a7.7 7.7 0 0 1 1.4 4.4 7.7 7.7 0 0 1-1.4 4.5l-.4-.4a8.6 8.6 0 0 0 1-4.1 8.5 8.5 0 0 0-1-4zm-34.5 18.4h10v10h-10zm344.1-27.9a4 4 0 0 1 4.1-4.2 3.5 3.5 0 0 1 3 1.6l-.8.5a2.6 2.6 0 0 0-2.2-1.2 3.2 3.2 0 0 0-3.1 3.3 3.1 3.1 0 0 0 3.1 3.2 2.8 2.8 0 0 0 2.2-1.1l.9.4a3.8 3.8 0 0 1-3.1 1.6 4 4 0 0 1-4.1-4.1zm15.3-2.7l-2.8 6.7h-.4l-2.7-6.7v6.7h-1v-8h1.5l2.4 6.1 2.5-6.1h1.5v8h-1zm5.2 3.3l-3.2-4.6h1.2l2.5 3.7 2.4-3.7h1.2l-3.1 4.6v3.4h-1zm7-.2l-.9.9v2.7h-.9v-8h.9v4.1l3.6-4.1h1.2l-3.3 3.8 3.6 4.2h-1.2zm8.1-.4a4 4 0 0 1 4.1-4.2 3.7 3.7 0 0 1 3.1 1.6l-.9.5a2.5 2.5 0 0 0-2.2-1.2 3.1 3.1 0 0 0-3 3.3 3 3 0 0 0 3 3.2 2.6 2.6 0 0 0 2.2-1.1l.9.4a3.7 3.7 0 0 1-3.1 1.6 4 4 0 0 1-4.1-4.1zm8.1 1.1a2.9 2.9 0 1 1 5.7 0 2.9 2.9 0 1 1-5.7 0zm4.8 0a2 2 0 1 0-3.9 0 2 2 0 1 0 3.9 0zm2.4-5.1h.9v8h-.9zm2.4 5.1a2.9 2.9 0 1 1 2.8 3 2.8 2.8 0 0 1-2.8-3zm4.7 0c0-1.2-.6-2.3-1.9-2.3a2.1 2.1 0 0 0-1.9 2.3 2 2 0 0 0 1.9 2.2c1.3 0 1.9-1 1.9-2.2zm6.4 2.1a2.9 2.9 0 0 1-2.1.9 1.6 1.6 0 0 1-1.8-1.8v-4.1h.9v3.8c0 1 .5 1.3 1.3 1.3a2.2 2.2 0 0 0 1.7-.9v-4.2h.9v5.8h-.9zm2.7-5h.9v.9a2.3 2.3 0 0 1 1.9-1v.9h-.4a2 2 0 0 0-1.5 1v4.1h-.9zm3.9 4.4a2.8 2.8 0 0 0 1.9.8c.9 0 1.4-.4 1.4-1s-.7-.8-1.5-1-2.1-.5-2.1-1.7a1.9 1.9 0 0 1 2.1-1.7 3 3 0 0 1 2.2.9l-.4.6a2.5 2.5 0 0 0-1.8-.7c-.7 0-1.2.3-1.2.8s.6.8 1.4 1 2.1.5 2.1 1.8-.7 1.7-2.2 1.7a3.2 3.2 0 0 1-2.4-.9zm-63.8 10.9a7.7 7.7 0 0 1 1.4-4.4l.5.4a7.5 7.5 0 0 0-1.1 4 7.6 7.6 0 0 0 1.1 4.1l-.5.4a7.7 7.7 0 0 1-1.4-4.5zm2.8-2.4h.8v.8a1.9 1.9 0 0 1 1.6-.9v.8h-.3a1.7 1.7 0 0 0-1.3.8v3.4h-.8zm3 2.5a2.4 2.4 0 1 1 4.8 0 2.4 2.4 0 1 1-4.8 0zm4 0a1.6 1.6 0 1 0-3.2 0 1.6 1.6 0 1 0 3.2 0zm5.3 1.7a2.5 2.5 0 0 1-1.7.8 1.4 1.4 0 0 1-1.6-1.5V288h.8v3.2c0 .9.4 1.1 1.1 1.1a1.9 1.9 0 0 0 1.4-.7V288h.7v4.9h-.7zm5.5-2.5a1 1 0 0 0-1.1-1.1 2.1 2.1 0 0 0-1.4.7v3.6h-.8V288h.8v.7a2.3 2.3 0 0 1 1.7-.8c1 0 1.5.5 1.5 1.6v3.4h-.7zm5.7 2.5a2.1 2.1 0 0 1-1.6.8 2.2 2.2 0 0 1-2.1-2.5c0-1.6.8-2.6 2.1-2.6a1.7 1.7 0 0 1 1.6.9v-2.6h.8v6.7h-.8zm0-2.8a1.7 1.7 0 0 0-1.4-.8c-1 0-1.6.8-1.6 1.9a1.6 1.6 0 0 0 1.6 1.8 1.6 1.6 0 0 0 1.4-.7zm4.2-1.4h.8l1.6 4 1.6-4h.8l-2 4.9h-.8zm8.6 4.3a2 2 0 0 1-1.6.7 1.7 1.7 0 0 1-1.7-1.6 1.6 1.6 0 0 1 1.7-1.6 1.9 1.9 0 0 1 1.6.7v-.9c0-.7-.5-1-1.2-1a2 2 0 0 0-1.5.6l-.4-.5a3 3 0 0 1 2-.8 1.6 1.6 0 0 1 1.8 1.7v3.3h-.7zm0-1.4a1.6 1.6 0 0 0-1.3-.6 1.1 1.1 0 1 0 0 2.2 1.6 1.6 0 0 0 1.3-.6zm2.3-4.7h.7v6.7h-.7zm5.5 6a2.5 2.5 0 0 1-1.8.8 1.3 1.3 0 0 1-1.5-1.5V288h.7v3.2c0 .9.5 1.1 1.1 1.1a2 2 0 0 0 1.5-.7V288h.7v4.9h-.7zm4.3-4.3a2.3 2.3 0 0 1 2.3 2.6v.2H474a1.8 1.8 0 0 0 1.8 1.7 1.8 1.8 0 0 0 1.4-.6l.4.5a2.9 2.9 0 0 1-1.9.7 2.4 2.4 0 0 1-2.5-2.5 2.5 2.5 0 0 1 2.4-2.6zm-1.6 2.3h3.2a1.6 1.6 0 0 0-1.6-1.7 1.7 1.7 0 0 0-1.6 1.7zm5.1 1.5a2 2 0 0 0 1.6.7c.7 0 1.1-.3 1.1-.8s-.6-.7-1.2-.9-1.8-.4-1.8-1.4a1.6 1.6 0 0 1 1.8-1.4 2.3 2.3 0 0 1 1.8.7l-.3.5a2.1 2.1 0 0 0-1.5-.6c-.6 0-1 .3-1 .8s.5.6 1.2.7 1.8.5 1.8 1.5-.7 1.5-1.9 1.5a2.4 2.4 0 0 1-2-.8zm4.1-5.3l.5-.4a7.7 7.7 0 0 1 1.4 4.4 7.7 7.7 0 0 1-1.4 4.5l-.5-.4a7.6 7.6 0 0 0 1.1-4.1 7.5 7.5 0 0 0-1.1-4z"/><path fill="#232c65" stroke="#232c65" stroke-miterlimit="10" d="M442.3 309.8h10v10h-10z"/><path fill="#d4e48f" stroke="#d4e48f" stroke-miterlimit="10" d="M457.2 309.8h10v10h-10z"/><path fill="#231f20" d="M43.5 9.6h-4.4V6h13v3.6h-4.4V22h-4.2zm11 13.9c.9 0 1.4-.2 1.6-.7l.3-.6-4.6-11.7h3.8l2.7 7.3 2.6-7.3h3.9l-5.2 13.2c-1 2.4-2.7 3-4.9 3h-1.6l.5-3.3zm11.4 3v-16h3.7v1.3a4.3 4.3 0 0 1 3.4-1.6c2.9 0 5.1 2.1 5.1 6s-2.2 6.1-5.1 6.1a4.4 4.4 0 0 1-3.4-1.6v5.8zm5.9-13.1a3.1 3.1 0 0 0-2.2 1.1V18a3.1 3.1 0 0 0 2.2 1.1 2.6 2.6 0 0 0 2.6-2.9 2.6 2.6 0 0 0-2.6-2.8zm13.7-3.2c3.4 0 5.9 2.5 5.9 6.4v.8h-8.3a2.9 2.9 0 0 0 3 2.1 4.3 4.3 0 0 0 2.8-1l1.6 2.3a7.9 7.9 0 0 1-4.9 1.5c-3.5 0-6.3-2.3-6.3-6.1a6 6 0 0 1 6.2-6zM83.1 15h4.8a2.2 2.2 0 0 0-2.4-2 2.3 2.3 0 0 0-2.4 2zm10.7 3a6.8 6.8 0 0 0 4.1 1.5c1.1 0 1.5-.3 1.5-.8s-.8-.8-2-1-4.7-.8-4.7-3.7 1.7-3.8 4.9-3.8a8.4 8.4 0 0 1 4.9 1.5l-1.4 2.4a5.5 5.5 0 0 0-3.4-1.2c-.9 0-1.5.3-1.5.8s.6.7 1.9.9 4.8.8 4.8 3.9-1.9 3.8-5.2 3.8a9.5 9.5 0 0 1-5.5-1.7zm16.4-1.8a6 6 0 0 1 6.3-6c4 0 6.4 2.8 6.4 6a6.4 6.4 0 0 1-12.7 0zm8.9 0a2.6 2.6 0 1 0-5.1 0c0 1.6.9 2.9 2.5 2.9a2.6 2.6 0 0 0 2.6-2.9zm6.5-2.5h-1.9v-3.2h1.9v-.6a4 4 0 0 1 4.2-4.1 5.4 5.4 0 0 1 2.4.5l-.7 2.5-.9-.2a1.2 1.2 0 0 0-1.3 1.4v.5h2.4v3.2h-2.4V22h-3.7z"/><path fill="#ed1c24" d="M140.5 16.7a7.3 7.3 0 0 0 5.1 2.1c1.4 0 2.3-.6 2.3-1.4s-1.1-1.2-2.8-1.6-6.3-1.2-6.3-5 2.3-5 6.4-5a10.2 10.2 0 0 1 6.5 2.2l-2.3 3a7.4 7.4 0 0 0-4.5-1.7c-1.4 0-1.9.6-1.9 1.3s1 1.1 2.8 1.4 6.3 1.4 6.3 5-2.4 5.3-6.7 5.3a9.8 9.8 0 0 1-7.1-2.5z"/><path fill="#ec008c" d="M161.9 14.9l-2.1 7.1h-4l-3.5-11.5h3.8l1.9 7.1 2.3-7.1h3.3l2.3 7.1 1.8-7.1h3.8L168.1 22h-4z"/><path fill="#00a651" d="M179.6 20.9a4.9 4.9 0 0 1-3.6 1.4 3.8 3.8 0 0 1-4-3.8c0-2.8 2.2-3.6 4-3.6a4.5 4.5 0 0 1 3.6 1.3v-1.5c0-1-.9-1.6-2.4-1.6a5 5 0 0 0-3.3 1.2l-1.3-2.3a8 8 0 0 1 5.2-1.8c2.8 0 5.4 1 5.4 4.6V22h-3.6zm0-2.9a2.9 2.9 0 0 0-2.1-.8c-1 0-1.9.5-1.9 1.4s.9 1.3 1.9 1.3a2.9 2.9 0 0 0 2.1-.8z"/><path fill="#00aeef" d="M186.7 18.9v-5.2h-1.9v-3.2h1.9V7.3h3.7v3.2h2.3v3.2h-2.3v4.2c0 .7.4 1.2 1 1.2a1.6 1.6 0 0 0 .9-.3l.8 2.8a4.5 4.5 0 0 1-2.8.7c-2.3 0-3.6-1.1-3.6-3.4z"/><path fill="#2e3192" d="M200.1 10.2a5.7 5.7 0 0 1 4.8 2.1l-2.4 2.2a2.8 2.8 0 0 0-2.2-1.1 2.7 2.7 0 0 0-2.7 2.8 2.7 2.7 0 0 0 2.7 2.9 2.6 2.6 0 0 0 2.2-1.2l2.4 2.3a5.7 5.7 0 0 1-4.8 2.1 5.9 5.9 0 0 1-6.3-6.1c0-3.6 2.7-6 6.3-6z"/><path fill="#ef4136" d="M214.4 15.3c0-1.4-.7-1.9-1.9-1.9a2.6 2.6 0 0 0-2.2 1.2V22h-3.7V6h3.7v5.9a5.4 5.4 0 0 1 4-1.7c2.6 0 3.8 1.5 3.8 3.6V22h-3.7z"/><path fill="#fbb040" d="M226.2 10.2c3.5 0 6 2.5 6 6.4v.8h-8.3a2.8 2.8 0 0 0 3 2.1 4.5 4.5 0 0 0 2.8-1l1.5 2.3a7.4 7.4 0 0 1-4.8 1.5c-3.6 0-6.3-2.3-6.3-6.1a5.9 5.9 0 0 1 6.1-6zm-2.3 4.8h4.7a2.2 2.2 0 0 0-2.4-2 2.2 2.2 0 0 0-2.3 2z"/><path fill="#8dc63f" d="M234.5 18a7 7 0 0 0 4.1 1.5c1.1 0 1.6-.3 1.6-.8s-.8-.8-2-1-4.8-.8-4.8-3.7 1.8-3.8 5-3.8a8.1 8.1 0 0 1 4.8 1.5l-1.4 2.4a5.5 5.5 0 0 0-3.4-1.2c-.8 0-1.4.3-1.4.8s.6.7 1.8.9 4.9.8 4.9 3.9-1.9 3.8-5.3 3.8a9.1 9.1 0 0 1-5.4-1.7z"/><path fill="#f08222" d="M0 0h28.8v28.8H0z"/><path fill="#21160d" d="M1.8 1.8H27V27H1.8z"/><path fill="#f08222" d="M10.6 15.7h2.9L12 9.9zm4.6 6.3l-1.1-3.7H10L8.9 22H6.2l3.9-13.3V7.3h3.7L18.2 22zm4.4-11.2h3v11.23h-3z"/><ellipse cx="21.1" cy="8.3" fill="#f08222" rx="1.5" ry="1.5"/><path fill="#231f20" d="M327.2 427.9a4 4 0 0 1 4.1-4.2 3.5 3.5 0 0 1 3 1.6l-.8.5a2.7 2.7 0 0 0-2.2-1.2 3.1 3.1 0 0 0-3.1 3.3 3 3 0 0 0 3.1 3.2 2.7 2.7 0 0 0 2.2-1.2l.8.5a3.5 3.5 0 0 1-3 1.6 4 4 0 0 1-4.1-4.1zm8 1.1a2.9 2.9 0 1 1 2.9 3 2.9 2.9 0 0 1-2.9-3zm4.8 0a1.9 1.9 0 1 0-3.8 0 1.9 1.9 0 1 0 3.8 0zm2.4-5.1h.9v8h-.9zm2.4 5.1a2.9 2.9 0 1 1 5.7 0 2.9 2.9 0 1 1-5.7 0zm4.8 0a2 2 0 1 0-1.9 2.2 2 2 0 0 0 1.9-2.2zm6.3 2a2.8 2.8 0 0 1-2 1c-1.3 0-1.9-.6-1.9-1.8v-4.1h.9v3.8c0 1 .5 1.3 1.3 1.3a2.1 2.1 0 0 0 1.7-.9v-4.2h.9v5.8h-.9zm2.7-4.9h.9v.9a2.7 2.7 0 0 1 1.9-1.1v1h-.3a2.1 2.1 0 0 0-1.6 1v4.1h-.9zm7.1-2.2h3.6a2 2 0 0 1 2.2 2 1.8 1.8 0 0 1-1.4 1.8 2 2 0 0 1 1.6 2 2.1 2.1 0 0 1-2.3 2.2h-3.7zm3.4 3.4a1.2 1.2 0 0 0 1.4-1.3 1.3 1.3 0 0 0-1.4-1.3h-2.4v2.6zm0 3.7a1.3 1.3 0 0 0 1.5-1.4 1.4 1.4 0 0 0-1.5-1.4h-2.4v2.8zm4.1-4.9h.9v.9a2.7 2.7 0 0 1 1.9-1.1v1h-.3a2.1 2.1 0 0 0-1.6 1v4.1h-.9zm6.5-.2a2.9 2.9 0 0 1 2.8 3.1v.3h-4.7a2.1 2.1 0 0 0 2.1 2 2.7 2.7 0 0 0 1.8-.8l.4.6a3.2 3.2 0 0 1-2.3.9 2.9 2.9 0 0 1-3-3 3 3 0 0 1 2.9-3.1zm-1.9 2.7h3.8a1.9 1.9 0 0 0-3.8 0zm9.8 2.6a2.8 2.8 0 0 1-2 .8 2 2 0 0 1-2-1.9 1.9 1.9 0 0 1 2-1.9 2.4 2.4 0 0 1 2 .8v-1.1c0-.8-.7-1.2-1.5-1.2a2.5 2.5 0 0 0-1.8.8l-.4-.6a2.9 2.9 0 0 1 2.3-1c1.2 0 2.3.6 2.3 2v4h-.9zm0-1.7a2.4 2.4 0 0 0-1.6-.7 1.3 1.3 0 0 0-1.5 1.3 1.4 1.4 0 0 0 1.5 1.3 2.1 2.1 0 0 0 1.6-.8zm4.5-.2l-.9.9v1.7h-.9v-8h.9v5.2l3-3h1.1l-2.5 2.6 2.6 3.2h-1.2z"/><path fill="#231f20" d="M327.2 427.9a4 4 0 0 1 4.1-4.2 3.5 3.5 0 0 1 3 1.6l-.8.5a2.7 2.7 0 0 0-2.2-1.2 3.1 3.1 0 0 0-3.1 3.3 3 3 0 0 0 3.1 3.2 2.7 2.7 0 0 0 2.2-1.2l.8.5a3.5 3.5 0 0 1-3 1.6 4 4 0 0 1-4.1-4.1zm8 1.1a2.9 2.9 0 1 1 2.9 3 2.9 2.9 0 0 1-2.9-3zm4.8 0a1.9 1.9 0 1 0-3.8 0 1.9 1.9 0 1 0 3.8 0zm2.4-5.1h.9v8h-.9zm2.4 5.1a2.9 2.9 0 1 1 5.7 0 2.9 2.9 0 1 1-5.7 0zm4.8 0a2 2 0 1 0-1.9 2.2 2 2 0 0 0 1.9-2.2zm6.3 2a2.8 2.8 0 0 1-2 1c-1.3 0-1.9-.6-1.9-1.8v-4.1h.9v3.8c0 1 .5 1.3 1.3 1.3a2.1 2.1 0 0 0 1.7-.9v-4.2h.9v5.8h-.9zm2.7-4.9h.9v.9a2.7 2.7 0 0 1 1.9-1.1v1h-.3a2.1 2.1 0 0 0-1.6 1v4.1h-.9zm7.1-2.2h3.6a2 2 0 0 1 2.2 2 1.8 1.8 0 0 1-1.4 1.8 2 2 0 0 1 1.6 2 2.1 2.1 0 0 1-2.3 2.2h-3.7zm3.4 3.4a1.2 1.2 0 0 0 1.4-1.3 1.3 1.3 0 0 0-1.4-1.3h-2.4v2.6zm0 3.7a1.3 1.3 0 0 0 1.5-1.4 1.4 1.4 0 0 0-1.5-1.4h-2.4v2.8zm4.1-4.9h.9v.9a2.7 2.7 0 0 1 1.9-1.1v1h-.3a2.1 2.1 0 0 0-1.6 1v4.1h-.9zm6.5-.2a2.9 2.9 0 0 1 2.8 3.1v.3h-4.7a2.1 2.1 0 0 0 2.1 2 2.7 2.7 0 0 0 1.8-.8l.4.6a3.2 3.2 0 0 1-2.3.9 2.9 2.9 0 0 1-3-3 3 3 0 0 1 2.9-3.1zm-1.9 2.7h3.8a1.9 1.9 0 0 0-3.8 0zm9.8 2.6a2.8 2.8 0 0 1-2 .8 2 2 0 0 1-2-1.9 1.9 1.9 0 0 1 2-1.9 2.4 2.4 0 0 1 2 .8v-1.1c0-.8-.7-1.2-1.5-1.2a2.5 2.5 0 0 0-1.8.8l-.4-.6a2.9 2.9 0 0 1 2.3-1c1.2 0 2.3.6 2.3 2v4h-.9zm0-1.7a2.4 2.4 0 0 0-1.6-.7 1.3 1.3 0 0 0-1.5 1.3 1.4 1.4 0 0 0 1.5 1.3 2.1 2.1 0 0 0 1.6-.8zm4.5-.2l-.9.9v1.7h-.9v-8h.9v5.2l3-3h1.1l-2.5 2.6 2.6 3.2h-1.2zM233.5 279a3.3 3.3 0 0 0 2.5 1.1c1.4 0 1.9-.7 1.9-1.4s-1-1.2-2-1.5-2.8-.7-2.8-2.2 1.2-2.2 2.8-2.2a3.6 3.6 0 0 1 2.8 1.1l-.6.7a2.9 2.9 0 0 0-2.3-1 1.5 1.5 0 0 0-1.6 1.3c0 .8.9 1.1 1.9 1.3s2.8.8 2.8 2.5-.8 2.3-2.9 2.3a3.9 3.9 0 0 1-3.1-1.3zm6.9 4.1v-8h.9v.8a2.6 2.6 0 0 1 1.9-1c1.5 0 2.6 1.2 2.6 3.1a2.7 2.7 0 0 1-2.6 3 2.3 2.3 0 0 1-1.9-1v3.1zm2.6-7.4a2.2 2.2 0 0 0-1.7 1v2.6a2.1 2.1 0 0 0 1.7.9c1.2 0 1.9-.9 1.9-2.2s-.7-2.3-1.9-2.3zm3.9 2.3a2.9 2.9 0 1 1 2.9 3 2.9 2.9 0 0 1-2.9-3zm4.8 0a1.9 1.9 0 1 0-3.8 0 1.9 1.9 0 1 0 3.8 0zm2.6 1.7v-3.8h-1v-.8h1v-1.6h.9v1.6h1.2v.8h-1.2v3.6c0 .4.2.7.6.7l.6-.2.3.6a1.4 1.4 0 0 1-1.1.4 1.2 1.2 0 0 1-1.3-1.3zm6.2-2.8a4 4 0 0 1 4-4.2 3.6 3.6 0 0 1 3.1 1.6l-.8.5a2.8 2.8 0 0 0-2.3-1.2 3.1 3.1 0 0 0-3 3.3 3 3 0 0 0 5.3 2.1l.8.4a3.7 3.7 0 0 1-3.1 1.6 4 4 0 0 1-4-4.1zm8 1.1a2.9 2.9 0 1 1 2.9 3 2.9 2.9 0 0 1-2.9-3zm4.8 0a1.9 1.9 0 1 0-3.8 0 1.9 1.9 0 1 0 3.8 0zm2.4-5.1h.9v8h-.9zm2.4 5.1a2.9 2.9 0 1 1 5.7 0 2.9 2.9 0 1 1-5.7 0zm4.8 0a2 2 0 1 0-3.9 0 2 2 0 1 0 3.9 0zm6.3 2.1a2.8 2.8 0 0 1-2.1.9 1.6 1.6 0 0 1-1.8-1.8v-4.1h.9v3.8c0 1 .5 1.3 1.3 1.3a2.1 2.1 0 0 0 1.7-.9v-4.2h.9v5.8h-.9zm2.7-5h.9v.9a2.4 2.4 0 0 1 1.9-1v.9h-.3a2.1 2.1 0 0 0-1.6 1v4.1h-.9zm3.9 4.4a2.8 2.8 0 0 0 1.9.8c.9 0 1.4-.4 1.4-1s-.7-.8-1.5-1-2.1-.5-2.1-1.7.8-1.7 2.2-1.7a2.8 2.8 0 0 1 2.1.9l-.4.6a2.4 2.4 0 0 0-1.7-.7c-.8 0-1.3.3-1.3.8s.6.8 1.4 1 2.2.5 2.2 1.8-.8 1.7-2.3 1.7a2.9 2.9 0 0 1-2.3-.9z"/><path fill="#232c65" d="M238.7 285.7h2.4a1.8 1.8 0 1 1 0 3.6h-1.7v2.4h-.7zm2.3.6h-1.6v2.3h1.6a1.1 1.1 0 0 0 1.2-1.1 1.2 1.2 0 0 0-1.2-1.2zm5.5 4.9a2 2 0 0 1-1.5.6 1.5 1.5 0 0 1-1.5-1.5 1.4 1.4 0 0 1 1.5-1.4 2 2 0 0 1 1.5.6v-.8c0-.6-.5-.9-1.1-.9a1.8 1.8 0 0 0-1.4.6l-.3-.5a2.2 2.2 0 0 1 1.7-.7c1 0 1.7.4 1.7 1.5v3h-.6zm0-1.3a1.8 1.8 0 0 0-1.2-.5c-.7 0-1.1.4-1.1.9a1 1 0 0 0 1.1 1 1.8 1.8 0 0 0 1.2-.5zm4.9-1.1a.9.9 0 0 0-1-1 1.4 1.4 0 0 0-1.2.7v3.2h-.7v-4.4h.7v.7a2 2 0 0 1 1.5-.8 1.3 1.3 0 0 1 1.4 1.4v3.1h-.7zm2.2 2v-2.9h-.7v-.6h.7v-1.2h.6v1.2h.9v.6h-.9v2.7a.6.6 0 0 0 .5.6c.2 0 .4-.1.4-.2l.2.5c-.1.2-.4.3-.8.3s-.9-.4-.9-1zm2.2-1.3a2.2 2.2 0 0 1 2.2-2.3 2.3 2.3 0 0 1 0 4.6 2.2 2.2 0 0 1-2.2-2.3zm3.6 0a1.5 1.5 0 0 0-1.4-1.7 1.7 1.7 0 0 0 0 3.4 1.5 1.5 0 0 0 1.4-1.7zm4.8-.7a.9.9 0 0 0-1-1 1.7 1.7 0 0 0-1.3.7v3.2h-.7v-4.4h.7v.7a2.1 2.1 0 0 1 1.6-.8c.9 0 1.3.5 1.3 1.4v3.1h-.6zm3.9-1.6a2.1 2.1 0 0 1 2.1 2.3v.2h-3.5a1.5 1.5 0 0 0 1.5 1.5 2.4 2.4 0 0 0 1.4-.5l.3.4a2.4 2.4 0 0 1-1.7.7 2.2 2.2 0 0 1-2.3-2.3 2.2 2.2 0 0 1 2.2-2.3zm-1.4 2h2.8a1.4 1.4 0 1 0-2.8 0zm6.7 1.9c2.2-1.7 3.3-2.7 3.3-3.8a1.1 1.1 0 0 0-1.2-1.1 2.1 2.1 0 0 0-1.7.8l-.4-.5a2.5 2.5 0 0 1 2.1-.9c1 0 2 .5 2 1.7s-1.3 2.4-2.9 3.7h2.9v.7h-4.1zm6.7-2.5a1.6 1.6 0 0 1-1.3-1.5c0-1 1-1.5 2-1.5s2.1.5 2.1 1.5a1.7 1.7 0 0 1-1.4 1.5 1.7 1.7 0 0 1 1.5 1.6c0 1-1 1.6-2.2 1.6s-2.1-.6-2.1-1.6a1.6 1.6 0 0 1 1.4-1.6zm.7.3c-.4.1-1.4.4-1.4 1.2s.7 1 1.4 1 1.4-.4 1.4-1-1-1.1-1.4-1.2zm0-2.7c-.7 0-1.3.4-1.3 1s1 1 1.3 1.1 1.3-.3 1.3-1.1-.6-1-1.3-1zm5.4-.6c1.6 0 2.3 1.6 2.3 3.1s-.7 3.1-2.3 3.1-2.3-1.7-2.3-3.1.6-3.1 2.3-3.1zm0 .6c-1.2 0-1.5 1.3-1.5 2.5s.3 2.4 1.5 2.4 1.5-1.2 1.5-2.4-.4-2.5-1.5-2.5zm3.2 2.5a3 3 0 0 1 3.1-3.1 2.8 2.8 0 0 1 2.3 1.2l-.7.3a1.9 1.9 0 0 0-1.6-.9 2.3 2.3 0 0 0-2.3 2.5 2.3 2.3 0 0 0 2.3 2.4 1.7 1.7 0 0 0 1.6-.9l.7.4a2.8 2.8 0 0 1-2.3 1.2 3.1 3.1 0 0 1-3.1-3.1z"/><path fill="#d4e48f" d="M239.2 296.5h2.4a1.8 1.8 0 1 1 0 3.6H240v2.4h-.8zm2.3.6H240v2.3h1.5a1.1 1.1 0 0 0 1.2-1.1 1.2 1.2 0 0 0-1.2-1.2zm5.5 4.9a2 2 0 0 1-1.4.6 1.5 1.5 0 0 1-1.6-1.5 1.5 1.5 0 0 1 1.6-1.4 1.8 1.8 0 0 1 1.4.6v-.8c0-.6-.5-.9-1.1-.9a1.8 1.8 0 0 0-1.3.6l-.3-.5a2.1 2.1 0 0 1 1.7-.7c.9 0 1.7.4 1.7 1.5v3h-.7zm0-1.3a1.7 1.7 0 0 0-1.2-.5 1 1 0 1 0 0 1.9 1.7 1.7 0 0 0 1.2-.5zm5-1.1a.9.9 0 0 0-1-1 1.7 1.7 0 0 0-1.3.7v3.2h-.7v-4.4h.7v.7a2 2 0 0 1 1.5-.8 1.2 1.2 0 0 1 1.4 1.4v3.1h-.6zm2.1 2v-2.9h-.7v-.6h.7v-1.2h.7v1.2h.9v.6h-.9v2.7c0 .3.1.6.4.6l.5-.2.2.5a1 1 0 0 1-.8.3.9.9 0 0 1-1-1zm2.3-1.3a2.1 2.1 0 0 1 2.1-2.3 2.3 2.3 0 0 1 0 4.6 2.1 2.1 0 0 1-2.1-2.3zm3.6 0a1.5 1.5 0 1 0-1.5 1.7 1.5 1.5 0 0 0 1.5-1.7zm4.7-.7a.9.9 0 0 0-1-1 1.4 1.4 0 0 0-1.2.7v3.2h-.7v-4.4h.7v.7a2 2 0 0 1 1.5-.8 1.3 1.3 0 0 1 1.4 1.4v3.1h-.7zm3.9-1.6a2.1 2.1 0 0 1 2.1 2.3v.2h-3.5a1.5 1.5 0 0 0 1.6 1.5 1.9 1.9 0 0 0 1.3-.5l.3.4a2.4 2.4 0 0 1-1.7.7 2.1 2.1 0 0 1-2.2-2.3 2.2 2.2 0 0 1 2.1-2.3zm-1.4 2h2.8a1.4 1.4 0 0 0-1.4-1.4 1.4 1.4 0 0 0-1.4 1.4zm7 1.1a1.8 1.8 0 0 0 1.6.8c.9 0 1.4-.4 1.4-1.1s-.6-1.1-1.5-1.1h-.6v-.6h.6c.8 0 1.4-.3 1.4-1a1.2 1.2 0 0 0-1.3-1.1 1.9 1.9 0 0 0-1.6.8l-.4-.5a2.5 2.5 0 0 1 2-.9c1.2 0 2.1.6 2.1 1.6a1.6 1.6 0 0 1-1.3 1.4 1.5 1.5 0 0 1 1.4 1.5c0 1-.8 1.7-2.2 1.7a2.6 2.6 0 0 1-2.1-1zm7.8-4h-3.3v-.6h4.1v.5l-2.4 5.5h-.8zm1.6 4.8c2.1-1.7 3.3-2.7 3.3-3.8a1.1 1.1 0 0 0-1.2-1.1 2 2 0 0 0-1.7.8l-.4-.5a2.5 2.5 0 0 1 2.1-.9c1 0 2 .5 2 1.7s-1.3 2.4-2.9 3.7h2.9v.7h-4.1zm5.2-2.4a3 3 0 0 1 3.1-3.1 2.7 2.7 0 0 1 2.3 1.2l-.6.3a2.2 2.2 0 0 0-1.7-.9 2.3 2.3 0 0 0-2.3 2.5 2.3 2.3 0 0 0 2.3 2.4 2 2 0 0 0 1.7-.9l.6.4a2.7 2.7 0 0 1-2.3 1.2 3.1 3.1 0 0 1-3.1-3.1z"/><path fill="#232c65" stroke="#232c65" stroke-miterlimit="10" d="M254 309.8h10v10h-10z"/><path fill="#fff" stroke="#231f20" stroke-miterlimit="10" stroke-width=".25" d="M259.5 319.8l4.5-4.5v4.5h-4.5z"/><circle cx="262.6" cy="318.4" r=".5" fill="#231f20"/><path fill="#d4e48f" stroke="#d4e48f" stroke-miterlimit="10" d="M268.9 309.8h10v10h-10z"/><path fill="#fff" stroke="#231f20" stroke-miterlimit="10" stroke-width=".25" d="M274.3 319.8l4.6-4.5v4.5h-4.6z"/><circle cx="277.5" cy="318.4" r=".5" fill="#231f20"/><path fill="#232c65" stroke="#232c65" stroke-miterlimit="10" d="M630.7 309.8h10v10h-10z"/><path fill="#d4e48f" stroke="#d4e48f" stroke-miterlimit="10" d="M645.5 309.8h10v10h-10z"/><path fill="#231f20" d="M613 277.7h-1.5v3.2h-1v-8h3.2a2.3 2.3 0 0 1 2.5 2.4 2.2 2.2 0 0 1-2.1 2.3l2.2 3.3h-1.2zm.5-3.9h-2v3h2a1.5 1.5 0 1 0 0-3zm8-1.1a3.9 3.9 0 0 1 3.1 1.5l-.7.5a3.2 3.2 0 0 0-2.4-1.1 3.1 3.1 0 0 0-3 3.3 3 3 0 0 0 3 3.2 3.2 3.2 0 0 0 2.2-.8v-1.7h-2.8v-.8h3.8v2.8a4.2 4.2 0 0 1-3.2 1.4 4 4 0 0 1-4.1-4.1 4.1 4.1 0 0 1 4.1-4.2zm4.8.2h3.6a2 2 0 0 1 2.2 2 1.8 1.8 0 0 1-1.4 1.8 2.1 2.1 0 0 1-.7 4.2h-3.7zm3.4 3.4c.9 0 1.4-.5 1.4-1.2a1.2 1.2 0 0 0-1.4-1.3h-2.4v2.5zm0 3.7c1 0 1.5-.5 1.5-1.4a1.4 1.4 0 0 0-1.5-1.4h-2.4v2.8zm6.9-3.1a4 4 0 0 1 4.1-4.2 3.7 3.7 0 0 1 3.1 1.6l-.9.5a2.5 2.5 0 0 0-2.2-1.2 3.1 3.1 0 0 0-3 3.3 3 3 0 0 0 3 3.2 2.6 2.6 0 0 0 2.2-1.1l.9.4a3.7 3.7 0 0 1-3.1 1.6 4 4 0 0 1-4.1-4.1zm8.1 1.1a2.9 2.9 0 1 1 5.7 0 2.9 2.9 0 1 1-5.7 0zm4.8 0a2 2 0 1 0-3.9 0 2 2 0 1 0 3.9 0zm2.4-5.1h.9v8h-.9zm2.4 5.1a2.9 2.9 0 1 1 2.8 3 2.8 2.8 0 0 1-2.8-3zm4.7 0c0-1.2-.6-2.3-1.9-2.3a2.1 2.1 0 0 0-1.9 2.3 2 2 0 0 0 1.9 2.2c1.3 0 1.9-1 1.9-2.2zm6.4 2.1a2.9 2.9 0 0 1-2.1.9 1.6 1.6 0 0 1-1.8-1.8v-4.1h.9v3.8c0 1 .5 1.3 1.3 1.3a2.2 2.2 0 0 0 1.7-.9v-4.2h.9v5.8h-.9zm2.7-5h.9v.9a2.3 2.3 0 0 1 1.9-1v.9h-.4a2 2 0 0 0-1.5 1v4.1h-.9zm3.9 4.4a2.8 2.8 0 0 0 1.9.8c.9 0 1.4-.4 1.4-1s-.7-.8-1.5-1-2.1-.5-2.1-1.7a1.9 1.9 0 0 1 2.1-1.7 3 3 0 0 1 2.2.9l-.4.6a2.5 2.5 0 0 0-1.8-.7c-.8 0-1.2.3-1.2.8s.6.8 1.4 1 2.1.5 2.1 1.8-.7 1.7-2.2 1.7a3.2 3.2 0 0 1-2.4-.9zm-65.3 12.9a8.6 8.6 0 0 1 1.7-5.3l.5.4a10.4 10.4 0 0 0 0 9.7l-.5.5a9 9 0 0 1-1.7-5.3zm3.4-2.9h.9v.9a2.3 2.3 0 0 1 1.9-1v.9h-.4a2 2 0 0 0-1.5 1v4.1h-.9zm3.6 2.9a2.9 2.9 0 1 1 5.7 0 2.9 2.9 0 1 1-5.7 0zm4.8 0a2 2 0 1 0-3.9 0 2 2 0 1 0 3.9 0zm6.3 2.1a2.8 2.8 0 0 1-2.1.9 1.6 1.6 0 0 1-1.8-1.8v-4.1h.9v3.8c0 1 .5 1.3 1.3 1.3a2.1 2.1 0 0 0 1.7-.9v-4.2h.9v5.8h-.9zm6.6-3c0-1-.5-1.4-1.3-1.4a2.4 2.4 0 0 0-1.7.9v4.3h-.9v-5.8h.9v.8a2.8 2.8 0 0 1 2.1-1c1.2 0 1.8.6 1.8 1.9v4.1h-.9zm6.9 2.9a2.3 2.3 0 0 1-1.9 1c-1.6 0-2.6-1.1-2.6-3s1-3.1 2.6-3.1a2.4 2.4 0 0 1 1.9 1.1v-3.1h.9v8h-.9zm0-3.3a2.2 2.2 0 0 0-1.7-1c-1.2 0-1.9 1-1.9 2.3s.7 2.2 1.9 2.2a2.1 2.1 0 0 0 1.7-.9zm4.9-1.6h1l1.9 4.7 2-4.7h1l-2.5 5.8h-.9zm10.4 5.1a2.6 2.6 0 0 1-1.9.8 1.9 1.9 0 1 1 0-3.8 2.2 2.2 0 0 1 1.9.8v-1.1c0-.7-.6-1.2-1.5-1.2a2.5 2.5 0 0 0-1.7.8l-.4-.6a2.8 2.8 0 0 1 2.3-1 1.9 1.9 0 0 1 2.2 2v4h-.9zm0-1.6a1.8 1.8 0 0 0-1.6-.8 1.3 1.3 0 1 0 0 2.6 1.8 1.8 0 0 0 1.6-.8zm2.7-5.7h.9v8h-.9zm6.6 7.2a2.7 2.7 0 0 1-2 .9c-1.3 0-1.9-.6-1.9-1.8v-4.1h.9v3.8c0 1 .5 1.3 1.3 1.3a2.1 2.1 0 0 0 1.7-.9v-4.2h.9v5.8h-.9zm5.2-5.2a2.8 2.8 0 0 1 2.8 3.1v.3h-4.7a2.1 2.1 0 0 0 2.1 2 2.3 2.3 0 0 0 1.8-.8l.4.6a2.9 2.9 0 0 1-2.3.9 2.8 2.8 0 0 1-2.9-3 2.9 2.9 0 0 1 2.8-3.1zm-1.9 2.7h3.8a1.8 1.8 0 0 0-1.9-1.9 2 2 0 0 0-1.9 1.9zm6.1 1.9a3.1 3.1 0 0 0 2 .8c.8 0 1.3-.4 1.3-1s-.7-.8-1.5-1-2.1-.5-2.1-1.7.8-1.7 2.2-1.7a2.6 2.6 0 0 1 2.1.9l-.4.6a2.2 2.2 0 0 0-1.7-.7c-.8 0-1.3.3-1.3.8s.7.8 1.4 1 2.2.5 2.2 1.8-.8 1.7-2.3 1.7a3.2 3.2 0 0 1-2.3-.9zm5-6.4l.5-.4a8.6 8.6 0 0 1 1.7 5.3 9 9 0 0 1-1.7 5.3l-.5-.5a10.4 10.4 0 0 0 0-9.7z"/></svg>