<svg xmlns="http://www.w3.org/2000/svg" width="719.7" height="258" viewBox="0 0 719.7 258"><title>types-of-swatches-practice</title><g id="Layer_2" data-name="Layer 2"><g id="Your_Artwork" data-name="Your Artwork"><path d="M131.9,128.2c.1-1.5.1-3.1.1-4.6s0-3.1-.1-4.6l7.7-13.5a.9.9,0,0,0-.3-1.2l-13.4-7.7a49.3,49.3,0,0,0-4.7-8V73.1a.9.9,0,0,0-.8-.9H104.9a58.4,58.4,0,0,0-8.1-4.6L89.1,54.2a.8.8,0,0,0-1.2-.3L74.5,61.6l-4.6-.2-4.6.2L51.9,53.9a1,1,0,0,0-1.3.3L42.9,67.6a57.3,57.3,0,0,0-8,4.6H19.4a.9.9,0,0,0-.9.9V88.6a57.3,57.3,0,0,0-4.6,8L.5,104.3c-.2.2-.4.3-.4.6a.7.7,0,0,0,.1.6L7.9,119c-.1,1.5-.2,3-.2,4.6s.1,3.1.2,4.6L.2,141.6a.9.9,0,0,0-.1.7.7.7,0,0,0,.4.5l13.4,7.7a64.8,64.8,0,0,0,4.6,8.1V174a.9.9,0,0,0,.9.9H34.9a57.8,57.8,0,0,0,8,4.7L50.6,193a1.2,1.2,0,0,0,.8.4h.5l13.4-7.8a34.6,34.6,0,0,0,4.6.2,35.4,35.4,0,0,0,4.6-.2l13.4,7.8h.5a.8.8,0,0,0,.7-.4l7.7-13.4a59,59,0,0,0,8.1-4.7h15.5a.9.9,0,0,0,.8-.9V158.6a55,55,0,0,0,4.7-8.1l13.4-7.7a1,1,0,0,0,.4-.5,1.7,1.7,0,0,0-.1-.7Zm5.7-22.8-6,10.5a64.8,64.8,0,0,0-4.4-16.5ZM119.5,74V86.1A66,66,0,0,0,107.4,74ZM88,55.9l6.1,10.4a61.6,61.6,0,0,0-16.6-4.4Zm-36.3,0,10.5,6a60.9,60.9,0,0,0-16.5,4.4ZM20.3,74H32.4A63,63,0,0,0,20.3,86.1ZM2.2,105.4l10.4-6a60.9,60.9,0,0,0-4.4,16.5Zm0,36.3,6-10.5a61.6,61.6,0,0,0,4.4,16.6Zm18.1,31.5V161.1a66,66,0,0,0,12.1,12.1Zm31.4,18.1-6-10.4a64.6,64.6,0,0,0,16.5,4.3Zm36.3,0-10.5-6.1a65.4,65.4,0,0,0,16.6-4.3Zm31.5-18.1H107.4a69.3,69.3,0,0,0,12.1-12.1Zm7.7-25.4a65.5,65.5,0,0,0,4.4-16.6l6,10.5Z" fill="#170a0e"/><path d="M81.3,93.9a.9.9,0,0,0-1.8,0c0,4.2-3.8,7.7-8.7,8V88.2h4.7a.9.9,0,0,0,0-1.8H70.8V84.1a3.2,3.2,0,0,0-.9-6.2,3.2,3.2,0,0,0-3.2,3.2,3.2,3.2,0,0,0,2.3,3v2.3H64.3a.9.9,0,1,0,0,1.8H69v13.7c-4.9-.3-8.7-3.8-8.7-8a.9.9,0,1,0-1.8,0c0,5.2,4.6,9.4,10.5,9.8v.5a.9.9,0,0,0,1.8,0v-.5C76.6,103.3,81.3,99.1,81.3,93.9ZM68.5,81.1a1.4,1.4,0,0,1,2.8,0,1.4,1.4,0,0,1-2.8,0Z" fill="#efeff0"/><path d="M47,125.5H44.4a1.1,1.1,0,0,1-1.1-.6l-2.7-4.3-.3-.4H38.7v5.4H35.8V111.4h4.4a9,9,0,0,1,2.5.3,5.4,5.4,0,0,1,1.7.8,3.1,3.1,0,0,1,1,1.3,4.7,4.7,0,0,1,.3,1.7,2.7,2.7,0,0,1-.2,1.3A6.1,6.1,0,0,1,45,118l-1,.9a4.5,4.5,0,0,1-1.2.6l.5.4a1,1,0,0,1,.4.5Zm-6.8-7.4,1.2-.2.8-.5a1.4,1.4,0,0,0,.5-.8,2.4,2.4,0,0,0,.2-.9,1.9,1.9,0,0,0-.7-1.6,3.4,3.4,0,0,0-2-.5H38.7v4.5Z" fill="#efeff0"/><path d="M56.5,115.5v10H54.8a.8.8,0,0,1-.7-.5v-.7l-.7.6-.6.4-.8.3h-1a3.2,3.2,0,0,1-1.4-.3l-1.1-.8a3.4,3.4,0,0,1-.6-1.2,4.1,4.1,0,0,1-.3-1.6v-6.3h2.7v6.3a2.2,2.2,0,0,0,.4,1.3,1.7,1.7,0,0,0,1.2.5l1-.2,1-.7v-7.2Z" fill="#efeff0"/><path d="M59.4,125.5v-8.1h-.8l-.5-.3a.5.5,0,0,1-.2-.4v-1.1h1.5V115a3.7,3.7,0,0,1,.3-1.5,2.4,2.4,0,0,1,.7-1.2,3.3,3.3,0,0,1,1.3-.7,3.8,3.8,0,0,1,1.6-.3h.6l.7.2v1.3a.5.5,0,0,1-.2.4H63a.5.5,0,0,0-.5.3,1,1,0,0,0-.4.5,2.8,2.8,0,0,0-.1.9v.4h3.8v-.2a4.7,4.7,0,0,1,.3-1.7,3.4,3.4,0,0,1,.9-1.4,5.1,5.1,0,0,1,1.6-.9,6.1,6.1,0,0,1,2.4-.4h1.6v1.4l-.2.3h-.5l-1.7.2a2.3,2.3,0,0,0-1,.5,1.2,1.2,0,0,0-.6.8,3.7,3.7,0,0,0-.1,1.1h6.3v10H72v-8.1H68.5v8.1H65.8v-8.1H62.1v8.1Z" fill="#efeff0"/><path d="M76.8,116.9a3.9,3.9,0,0,1,1.9-1.2,5.9,5.9,0,0,1,2.3-.4,3.8,3.8,0,0,1,1.6.3,2.5,2.5,0,0,1,1.2.8,3.6,3.6,0,0,1,.8,1.2,4.1,4.1,0,0,1,.2,1.6v6.3H83a1.1,1.1,0,0,1-.3-.5l-.2-.6-.7.6-.8.4-.8.3h-1l-1.2-.2-.9-.5a2.4,2.4,0,0,1-.6-.9,2.2,2.2,0,0,1-.2-1.2,2.3,2.3,0,0,1,.3-1.1,2.1,2.1,0,0,1,.9-1,6.8,6.8,0,0,1,1.9-.8,10.9,10.9,0,0,1,2.8-.3v-.5a2,2,0,0,0-.4-1.4,1.2,1.2,0,0,0-1.1-.4h-1l-.6.3-.5.3H78l-.5-.2-.3-.3Zm5.4,4.4-1.6.2-1.1.3-.5.4a1.4,1.4,0,0,0-.2.6,1,1,0,0,0,.4.8c.2.2.5.2.9.2a2,2,0,0,0,1.1-.2l1-.7Z" fill="#efeff0"/><path d="M89.4,116.6l.7-.5.7-.4.7-.3h1a3.2,3.2,0,0,1,1.4.3,2.8,2.8,0,0,1,1.1.8,2.3,2.3,0,0,1,.6,1.2,4,4,0,0,1,.3,1.5v6.4H93.2v-6.4a2.5,2.5,0,0,0-.4-1.3,1.6,1.6,0,0,0-1.2-.4,1.8,1.8,0,0,0-1,.2l-1,.7v7.2H86.9v-10h1.7a.7.7,0,0,1,.7.4Z" fill="#efeff0"/><path d="M104.2,117.5l-.2.3h-.7l-.5-.2-.5-.2h-.8a1.5,1.5,0,0,0-1,.3,1,1,0,0,0-.4.7.8.8,0,0,0,.2.5l.6.4.7.2.9.3.9.4.8.5.5.7a3.6,3.6,0,0,1,.2,1.1,2.8,2.8,0,0,1-.3,1.3,2.6,2.6,0,0,1-.7,1.1l-1.3.7a4.8,4.8,0,0,1-1.8.3h-1l-1-.3-.8-.4a1.8,1.8,0,0,1-.7-.5l.6-1,.3-.3h.4l.4.2.5.2.6.3h1.5l.5-.2a.5.5,0,0,0,.2-.4.4.4,0,0,0,.1-.3,1.1,1.1,0,0,0-.2-.6l-.5-.4-.8-.2-.9-.3-.9-.4-.8-.5a2.2,2.2,0,0,1-.5-.8,3.7,3.7,0,0,1-.2-1.2,5,5,0,0,1,.2-1.2,3.5,3.5,0,0,1,.8-1,3.4,3.4,0,0,1,1.2-.6,4.1,4.1,0,0,1,1.6-.3,4.2,4.2,0,0,1,2,.4,2.8,2.8,0,0,1,1.4.9Z" fill="#efeff0"/><path d="M46.2,131.8l-.2.2h-.2l-.4-.2-.5-.3-.7-.3-1-.2-1,.2-.7.4-.5.6a1.9,1.9,0,0,0-.1.8,1.9,1.9,0,0,0,.2.8,1.3,1.3,0,0,0,.7.6l1,.4,1.1.4,1.1.4.9.6.7.9a2.8,2.8,0,0,1,.3,1.3,4.1,4.1,0,0,1-.3,1.6,5,5,0,0,1-.8,1.2,3.5,3.5,0,0,1-1.3.8,5.7,5.7,0,0,1-1.8.3,5.1,5.1,0,0,1-2.2-.4,5.2,5.2,0,0,1-1.7-1.2l.5-.8h.6l.3.2.5.3.5.3.7.3h.8l1.1-.2.8-.5a1.8,1.8,0,0,0,.5-.7,2.9,2.9,0,0,0,.2-.9,1.2,1.2,0,0,0-.3-.9l-.7-.7-.9-.4-1.1-.3-1.1-.4-1-.6a3.3,3.3,0,0,1-.6-1,2.5,2.5,0,0,1-.3-1.3,2.8,2.8,0,0,1,.3-1.3,2.6,2.6,0,0,1,.7-1.1l1.2-.8a4.7,4.7,0,0,1,1.7-.3,4.1,4.1,0,0,1,1.9.4l1.5.9Z" fill="#efeff0"/><path d="M55.9,133.5v8.8H55c-.2,0-.4-.1-.4-.3v-1a6.3,6.3,0,0,1-1.3,1.1,4.3,4.3,0,0,1-1.7.3,2.3,2.3,0,0,1-1.2-.2,2.3,2.3,0,0,1-1-.7,3.1,3.1,0,0,1-.5-1,5.9,5.9,0,0,1-.2-1.4v-5.6h1.5v5.6a2.5,2.5,0,0,0,.5,1.6,2,2,0,0,0,1.4.5,3.1,3.1,0,0,0,1.3-.3,4.4,4.4,0,0,0,1.1-.9v-6.5Z" fill="#efeff0"/><path d="M59.8,134.9a4.5,4.5,0,0,1,1.3-1.1,3.3,3.3,0,0,1,1.7-.4,3.2,3.2,0,0,1,1.4.3,1.9,1.9,0,0,1,1,.8,6.1,6.1,0,0,1,.7,1.4,11.2,11.2,0,0,1,.2,2,11,11,0,0,1-.2,1.8,6.4,6.4,0,0,1-.8,1.4,4,4,0,0,1-1.2,1,4.1,4.1,0,0,1-1.6.3l-1.4-.2-1-.8v3.9H58.4V133.5h.9c.2,0,.3.1.4.3Zm.1,5.3a3.2,3.2,0,0,0,.9.8,3,3,0,0,0,3.1-.6,4.6,4.6,0,0,0,.6-2.5,6.6,6.6,0,0,0-.1-1.5,2.3,2.3,0,0,0-.5-1,1.3,1.3,0,0,0-.7-.6l-.9-.2a1.8,1.8,0,0,0-1.3.4,3.1,3.1,0,0,0-1.1.9Z" fill="#efeff0"/><path d="M69.6,134.9a3.5,3.5,0,0,1,1.3-1.1,2.7,2.7,0,0,1,1.6-.4,3.2,3.2,0,0,1,1.4.3,2.1,2.1,0,0,1,1.1.8,5.9,5.9,0,0,1,.6,1.4,6,6,0,0,1,.3,2,5.7,5.7,0,0,1-.3,1.8,3.9,3.9,0,0,1-.8,1.4,4,4,0,0,1-1.2,1,3.7,3.7,0,0,1-1.5.3l-1.4-.2-1.1-.8v3.9H68.1V133.5H69c.2,0,.4.1.4.3Zm0,5.3a2.5,2.5,0,0,0,1,.8,2,2,0,0,0,1.1.2,2.4,2.4,0,0,0,1.9-.8,4.6,4.6,0,0,0,.7-2.5,6.1,6.1,0,0,0-.2-1.5,2.3,2.3,0,0,0-.4-1,1.9,1.9,0,0,0-.7-.6l-1-.2a2,2,0,0,0-1.3.4,4.4,4.4,0,0,0-1.1.9Z" fill="#efeff0"/><path d="M79.4,129.5v12.8H77.9V129.5Z" fill="#efeff0"/><path d="M83.9,130.8a.8.8,0,0,1-.1.4l-.3.3-.3.3h-.9l-.3-.3c-.1-.1-.2-.2-.2-.3a.8.8,0,0,1-.1-.4.9.9,0,0,1,.1-.5c0-.1.1-.2.2-.3l.3-.3h.9l.3.3.3.3A.9.9,0,0,1,83.9,130.8Zm-.3,2.7v8.8H82v-8.8Z" fill="#efeff0"/><path d="M93.2,141.1l-.7.6a2,2,0,0,1-.8.4l-1,.2h-.9a4.7,4.7,0,0,1-1.7-.3,3,3,0,0,1-1.3-.9,3.8,3.8,0,0,1-.9-1.5,5.6,5.6,0,0,1-.3-2,4.7,4.7,0,0,1,.3-1.7,3.9,3.9,0,0,1,.8-1.4,3,3,0,0,1,1.3-.9,4.7,4.7,0,0,1,1.7-.3l1.5.2,1.1.8a5,5,0,0,1,.8,1.2,4.7,4.7,0,0,1,.3,1.7,2,2,0,0,1-.1.5H87.1a6.1,6.1,0,0,0,.2,1.5l.6,1a1.8,1.8,0,0,0,.9.6l1.1.2h1l.7-.3.5-.3h.7ZM92,137a3,3,0,0,0-.2-1,2,2,0,0,0-.4-.8l-.7-.5-1-.2a2.1,2.1,0,0,0-1.7.7,2.5,2.5,0,0,0-.8,1.8Z" fill="#efeff0"/><path d="M100.4,135l-.3.2h-.3l-.4-.3-.6-.2H97.3l-.5.3c-.2.1-.3.3-.4.4s-.1.3-.1.5a1.4,1.4,0,0,0,.2.6l.5.4.8.3.8.2.8.3.8.5c.2.1.3.4.5.6a2.9,2.9,0,0,1,.2.9,3.6,3.6,0,0,1-.2,1.1,2.2,2.2,0,0,1-.7.9,2.1,2.1,0,0,1-1,.6,3.4,3.4,0,0,1-1.5.2,4.1,4.1,0,0,1-1.6-.3l-1.3-.7.4-.6c0-.1.1-.1.1-.2h.6l.4.2.6.3h1.7l.6-.3.3-.5a.7.7,0,0,0,.1-.5c0-.3,0-.5-.2-.6a1,1,0,0,0-.5-.4l-.7-.3-.9-.3-.8-.3-.7-.4a2,2,0,0,1-.6-.7,3,3,0,0,1-.2-1,1.6,1.6,0,0,1,.3-.9,2.4,2.4,0,0,1,.6-.9l.9-.5a3.2,3.2,0,0,1,1.4-.2,3.7,3.7,0,0,1,1.5.3,2.4,2.4,0,0,1,1.2.7Z" fill="#efeff0"/><path d="M69.9,176.6a58.4,58.4,0,0,1-7.3-.5l.4-2.6a52.2,52.2,0,0,0,6.9.4Zm4.3-.2-.2-2.6a50.7,50.7,0,0,0,6.8-1.1l.6,2.6A43.2,43.2,0,0,1,74.2,176.4Zm-18.7-1.8a51.3,51.3,0,0,1-6.9-2.5l1.1-2.4a50.2,50.2,0,0,0,6.5,2.3Zm32.9-1.3-.9-2.5a51.1,51.1,0,0,0,6.3-2.9l1.3,2.3A57.9,57.9,0,0,1,88.4,173.3Zm-46.3-4.6a41.9,41.9,0,0,1-5.9-4.2l1.7-2.1a53.4,53.4,0,0,0,5.6,4.1Zm59.1-2.4-1.6-2.1a46.5,46.5,0,0,0,5.3-4.5l1.9,1.9A42.2,42.2,0,0,1,101.2,166.3Zm-70.3-6.8a49.9,49.9,0,0,1-4.6-5.7l2.2-1.6a57.9,57.9,0,0,0,4.3,5.5Zm80.8-3.3-2.1-1.7a57.2,57.2,0,0,0,3.9-5.7l2.3,1.3A50,50,0,0,1,111.7,156.2Zm-89.1-8.7a56.5,56.5,0,0,1-2.9-6.7l2.5-.9c.8,2.2,1.7,4.3,2.7,6.4Zm96.4-3.9-2.5-1a56.7,56.7,0,0,0,2.2-6.6l2.6.6A57.3,57.3,0,0,1,119,143.6ZM17.8,133.7q-.6-3.6-.9-7.2l2.7-.2a39.5,39.5,0,0,0,.9,6.9Zm104.8-4.2-2.7-.3a54,54,0,0,0,.3-5.6v-1.4h2.7v1.4C122.9,125.5,122.8,127.5,122.6,129.5ZM19.7,119.4l-2.7-.2a56.8,56.8,0,0,1,1.1-7.2l2.6.5A54.6,54.6,0,0,0,19.7,119.4Zm99.9-4.1c-.4-2.2-1-4.5-1.6-6.7l2.5-.8a56.5,56.5,0,0,1,1.7,7.1Zm-96.9-9.4-2.5-.9a57.9,57.9,0,0,1,3.1-6.7l2.3,1.3A45.1,45.1,0,0,0,22.7,105.9Zm92.7-3.8a43.6,43.6,0,0,0-3.3-6l2.2-1.5c1.3,2.1,2.5,4.2,3.6,6.4ZM29.3,93.7l-2.1-1.5a42.2,42.2,0,0,1,4.7-5.6l1.9,1.9A55.9,55.9,0,0,0,29.3,93.7Zm78.6-3.1a57.8,57.8,0,0,0-4.9-5l1.7-2a51.1,51.1,0,0,1,5.2,5.2ZM39,83.8l-1.6-2.1a63.4,63.4,0,0,1,6-4.1L44.7,80A43.5,43.5,0,0,0,39,83.8Zm58.4-2.3a35.6,35.6,0,0,0-6-3.4l1.1-2.5a66,66,0,0,1,6.4,3.6ZM51,76.9l-1-2.5a50.5,50.5,0,0,1,6.9-2.2l.6,2.5A49.7,49.7,0,0,0,51,76.9Zm33.9-1.4a50.3,50.3,0,0,0-6.7-1.6l.4-2.6A43.2,43.2,0,0,1,85.7,73Zm-20.5-2-.3-2.6a44.6,44.6,0,0,1,7.3-.3v2.6Q67.9,73.2,64.4,73.5Z" fill="#efeff0"/><path d="M69.1,156.6c-.7,0-.6.7-6.7,5.3s-13.7,1.5-14.9-2.9a7.2,7.2,0,0,1,1.7-7.1s-1.3,3.4,1.5,5,7.6-4.2,11.3-4.9,7.1,2.8,7.1,2.8S69.1,156.6,69.1,156.6Zm1.6,0c.7,0,.6.7,6.7,5.3s13.7,1.5,14.9-2.9a7.2,7.2,0,0,0-1.7-7.1s1.2,3.4-1.6,5-7.6-4.2-11.3-4.9-7,2.8-7,2.8S70.7,156.6,70.7,156.6Z" fill="#efeff0"/><path d="M518.5,128.2c.1-1.5.2-3.1.2-4.6s-.1-3.1-.2-4.6l7.8-13.5a1.3,1.3,0,0,0,.1-.6c-.1-.3-.3-.4-.5-.6l-13.3-7.7a57.8,57.8,0,0,0-4.7-8V73.1a.9.9,0,0,0-.9-.9H491.6a64.8,64.8,0,0,0-8.1-4.6l-7.7-13.4a.9.9,0,0,0-1.2-.3l-13.4,7.7-4.7-.2-4.6.2-13.4-7.7a.8.8,0,0,0-1.2.3l-7.7,13.4a64.8,64.8,0,0,0-8.1,4.6H406.1a.9.9,0,0,0-.9.9V88.6a57.8,57.8,0,0,0-4.7,8l-13.3,7.7c-.2.2-.4.3-.5.6a1.3,1.3,0,0,0,.1.6l7.8,13.5c-.1,1.5-.2,3-.2,4.6s.1,3.1.2,4.6l-7.8,13.4a1.7,1.7,0,0,0-.1.7l.5.5,13.3,7.7a65.6,65.6,0,0,0,4.7,8.1V174a.9.9,0,0,0,.9.9h15.4a65.6,65.6,0,0,0,8.1,4.7l7.7,13.4a1.2,1.2,0,0,0,.8.4h.4l13.4-7.8a36.2,36.2,0,0,0,4.6.2,37,37,0,0,0,4.7-.2l13.4,7.8h.4a1.2,1.2,0,0,0,.8-.4l7.7-13.4a65.6,65.6,0,0,0,8.1-4.7H507a.9.9,0,0,0,.9-.9V158.6a65.6,65.6,0,0,0,4.7-8.1l13.3-7.7a1.2,1.2,0,0,0,.5-.5,1.7,1.7,0,0,0-.1-.7Zm5.8-22.8-6.1,10.5a60.9,60.9,0,0,0-4.4-16.5ZM506.1,74V86.1A60.3,60.3,0,0,0,494,74ZM474.7,55.9l6,10.4a60.9,60.9,0,0,0-16.5-4.4Zm-36.3,0,10.5,6a60.9,60.9,0,0,0-16.5,4.4ZM407,74h12.1A60.3,60.3,0,0,0,407,86.1Zm-18.2,31.4,10.5-6a60.9,60.9,0,0,0-4.4,16.5Zm0,36.3,6.1-10.5a61.6,61.6,0,0,0,4.4,16.6ZM407,173.2V161.1a63,63,0,0,0,12.1,12.1Zm31.4,18.1-6-10.4a64.6,64.6,0,0,0,16.5,4.3Zm36.3,0-10.5-6.1a64.6,64.6,0,0,0,16.5-4.3Zm31.4-18.1H494a63,63,0,0,0,12.1-12.1Zm7.7-25.4a61.6,61.6,0,0,0,4.4-16.6l6.1,10.5Z" fill="#892432"/><path d="M468,93.9a.9.9,0,1,0-1.8,0c0,4.2-3.9,7.7-8.8,8V88.2h4.8a.9.9,0,1,0,0-1.8h-4.8V84.1a3.1,3.1,0,0,0,2.3-3,3.2,3.2,0,1,0-6.3,0,3.1,3.1,0,0,0,2.3,3v2.3h-4.8a.9.9,0,1,0,0,1.8h4.8v13.7c-4.9-.3-8.8-3.8-8.8-8a.9.9,0,1,0-1.8,0c0,5.2,4.7,9.4,10.6,9.8v.5a.9.9,0,0,0,.8.9.9.9,0,0,0,.9-.9v-.5C463.3,103.3,468,99.1,468,93.9ZM455.1,81.1a1.4,1.4,0,0,1,1.4-1.4,1.5,1.5,0,0,1,1.5,1.4,1.5,1.5,0,0,1-1.5,1.4A1.5,1.5,0,0,1,455.1,81.1Z" fill="#dec9a2"/><path d="M433.7,125.5H431a1.1,1.1,0,0,1-1-.6l-2.7-4.3a.8.8,0,0,0-.4-.4h-1.6v5.4h-2.9V111.4h4.5a9.5,9.5,0,0,1,2.5.3,5.4,5.4,0,0,1,1.7.8,3.1,3.1,0,0,1,1,1.3,4.7,4.7,0,0,1,.3,1.7,5.1,5.1,0,0,1-.2,1.3,3.4,3.4,0,0,1-.6,1.2,3.8,3.8,0,0,1-.9.9,5.2,5.2,0,0,1-1.3.6l.6.4.4.5Zm-6.9-7.4,1.3-.2.8-.5a2.2,2.2,0,0,0,.5-.8,2.4,2.4,0,0,0,.2-.9,2.2,2.2,0,0,0-.7-1.6,3.7,3.7,0,0,0-2-.5h-1.6v4.5Z" fill="#dec9a2"/><path d="M443.1,115.5v10h-1.6a.7.7,0,0,1-.7-.5l-.2-.7-.6.6-.7.4-.8.3h-.9a3.2,3.2,0,0,1-1.4-.3,3.1,3.1,0,0,1-1.1-.8,7.5,7.5,0,0,1-.7-1.2,7.8,7.8,0,0,1-.2-1.6v-6.3h2.7v6.3a1.7,1.7,0,0,0,.4,1.3,1.3,1.3,0,0,0,1.1.5l1.1-.2.9-.7v-7.2Z" fill="#dec9a2"/><path d="M446.1,125.5v-8.1h-.8l-.5-.3a.5.5,0,0,1-.2-.4v-1.1h1.5V115a6.8,6.8,0,0,1,.2-1.5,3.6,3.6,0,0,1,.8-1.2,2.4,2.4,0,0,1,1.2-.7,4.1,4.1,0,0,1,1.6-.3h.7l.6.2v1.3c0,.2-.1.3-.3.4h-1.2a.9.9,0,0,0-.6.3l-.3.5a2.8,2.8,0,0,0-.1.9v.4h3.7v-.2a3.3,3.3,0,0,1,.4-1.7,3.4,3.4,0,0,1,.9-1.4,4.2,4.2,0,0,1,1.6-.9,5.6,5.6,0,0,1,2.3-.4h1.7v1.4q0,.1-.3.3h-.5l-1.6.2a2.3,2.3,0,0,0-1,.5,1.2,1.2,0,0,0-.6.8,3.6,3.6,0,0,0-.2,1.1h6.3v10h-2.7v-8.1h-3.5v8.1h-2.7v-8.1h-3.6v8.1Z" fill="#dec9a2"/><path d="M463.4,116.9a4.7,4.7,0,0,1,2-1.2,5.9,5.9,0,0,1,2.3-.4,4.1,4.1,0,0,1,1.6.3,2.5,2.5,0,0,1,1.2.8,2.4,2.4,0,0,1,.7,1.2,4.1,4.1,0,0,1,.3,1.6v6.3h-1.8a1.1,1.1,0,0,1-.3-.5l-.2-.6-.8.6-.7.4-.8.3h-1l-1.2-.2a1.9,1.9,0,0,1-.9-.5,2.4,2.4,0,0,1-.6-.9,2.1,2.1,0,0,1-.3-1.2,2.3,2.3,0,0,1,.3-1.1,2.4,2.4,0,0,1,1-1,6.1,6.1,0,0,1,1.8-.8,11.7,11.7,0,0,1,2.9-.3v-.5a2,2,0,0,0-.4-1.4,1.6,1.6,0,0,0-1.2-.4h-.9l-.6.3-.6.3h-.5l-.5-.2-.3-.3Zm5.5,4.4-1.6.2-1.1.3-.5.4a1.4,1.4,0,0,0-.2.6,1,1,0,0,0,.3.8,1.5,1.5,0,0,0,.9.2,2.2,2.2,0,0,0,1.2-.2l1-.7Z" fill="#dec9a2"/><path d="M476.1,116.6l.6-.5.7-.4.8-.3h.9a3.3,3.3,0,0,1,1.5.3,2,2,0,0,1,1,.8,2.4,2.4,0,0,1,.7,1.2,7.7,7.7,0,0,1,.2,1.5v6.4h-2.7v-6.4a2.5,2.5,0,0,0-.3-1.3,1.6,1.6,0,0,0-1.2-.4,2.2,2.2,0,0,0-1.1.2l-.9.7v7.2h-2.7v-10h1.7a.5.5,0,0,1,.6.4Z" fill="#dec9a2"/><path d="M490.9,117.5l-.2.3H490l-.5-.2-.6-.2h-.7a1.3,1.3,0,0,0-1,.3.8.8,0,0,0-.4.7.8.8,0,0,0,.2.5l.5.4.8.2.9.3.9.4a1.8,1.8,0,0,1,.7.5c.3.2.4.5.6.7a3.6,3.6,0,0,1,.2,1.1,2.8,2.8,0,0,1-.3,1.3,2.8,2.8,0,0,1-.8,1.1,3.2,3.2,0,0,1-1.3.7,4.7,4.7,0,0,1-1.7.3h-1.1l-.9-.3-.9-.4-.7-.5.7-1c0-.1.1-.2.2-.3h.4l.5.2.4.2.6.3h1.6a.5.5,0,0,0,.4-.2c.2-.1.2-.2.3-.4a.4.4,0,0,0,.1-.3,1.1,1.1,0,0,0-.2-.6l-.6-.4-.8-.2-.8-.3-.9-.4-.8-.5a2.2,2.2,0,0,1-.5-.8,2.1,2.1,0,0,1-.3-1.2,2.7,2.7,0,0,1,.3-1.2,6.1,6.1,0,0,1,.7-1l1.2-.6a4.7,4.7,0,0,1,1.7-.3,4.5,4.5,0,0,1,2,.4,4.2,4.2,0,0,1,1.4.9Z" fill="#dec9a2"/><path d="M432.8,131.8v.2h-.3l-.3-.2-.5-.3-.7-.3-1-.2-1,.2-.8.4a2.1,2.1,0,0,0-.4.6,1.9,1.9,0,0,0-.1.8,1.1,1.1,0,0,0,.2.8,1.3,1.3,0,0,0,.7.6l.9.4,1.1.4,1.1.4,1,.6.7.9a5.1,5.1,0,0,1,.2,1.3,4.1,4.1,0,0,1-.3,1.6,2.3,2.3,0,0,1-.8,1.2,2.9,2.9,0,0,1-1.3.8,4.7,4.7,0,0,1-1.7.3,5.6,5.6,0,0,1-2.3-.4,4.8,4.8,0,0,1-1.6-1.2l.4-.8h.7l.3.2.4.3.6.3.6.3h.9l1.1-.2.8-.5a1.8,1.8,0,0,0,.5-.7,2.8,2.8,0,0,0,.1-.9c0-.4,0-.7-.2-.9a2.3,2.3,0,0,0-.7-.7l-.9-.4-1.1-.3-1.1-.4-1-.6a3.6,3.6,0,0,1-.7-1,4.4,4.4,0,0,1-.2-1.3,5.1,5.1,0,0,1,.2-1.3,4.4,4.4,0,0,1,.8-1.1,3.6,3.6,0,0,1,1.2-.8,4.1,4.1,0,0,1,1.6-.3,3.8,3.8,0,0,1,1.9.4,3.8,3.8,0,0,1,1.5.9Z" fill="#dec9a2"/><path d="M442.6,133.5v8.8h-.9a.5.5,0,0,1-.5-.3v-1a4.5,4.5,0,0,1-1.3,1.1,3.8,3.8,0,0,1-1.6.3,2.4,2.4,0,0,1-2.2-.9,3.1,3.1,0,0,1-.5-1,3.2,3.2,0,0,1-.2-1.4v-5.6h1.5v5.6a2.5,2.5,0,0,0,.5,1.6,1.8,1.8,0,0,0,1.4.5l1.2-.3a3.1,3.1,0,0,0,1.1-.9v-6.5Z" fill="#dec9a2"/><path d="M446.5,134.9a4.5,4.5,0,0,1,1.3-1.1,3.1,3.1,0,0,1,1.7-.4,2.8,2.8,0,0,1,1.3.3,2.1,2.1,0,0,1,1.1.8,6.1,6.1,0,0,1,.7,1.4,11.2,11.2,0,0,1,.2,2,5.7,5.7,0,0,1-.3,1.8,3.7,3.7,0,0,1-.7,1.4,4,4,0,0,1-1.2,1,4.1,4.1,0,0,1-1.6.3l-1.4-.2a3.9,3.9,0,0,1-1-.8v3.9H445V133.5h1c.2,0,.3.1.4.3Zm.1,5.3a3.2,3.2,0,0,0,.9.8,2,2,0,0,0,1.1.2,2.3,2.3,0,0,0,1.9-.8,3.9,3.9,0,0,0,.7-2.5,6.1,6.1,0,0,0-.2-1.5,2.3,2.3,0,0,0-.4-1,1.3,1.3,0,0,0-.7-.6l-.9-.2a2.1,2.1,0,0,0-1.4.4,4.1,4.1,0,0,0-1,.9Z" fill="#dec9a2"/><path d="M456.2,134.9a4.5,4.5,0,0,1,1.3-1.1,3.3,3.3,0,0,1,1.7-.4,3.2,3.2,0,0,1,1.4.3,1.9,1.9,0,0,1,1,.8,6.1,6.1,0,0,1,.7,1.4,11.2,11.2,0,0,1,.2,2,11,11,0,0,1-.2,1.8,6.4,6.4,0,0,1-.8,1.4,4,4,0,0,1-1.2,1,4.1,4.1,0,0,1-1.6.3l-1.4-.2a3.9,3.9,0,0,1-1-.8v3.9h-1.5V133.5h.9c.2,0,.3.1.4.3Zm.1,5.3a3.2,3.2,0,0,0,.9.8,3,3,0,0,0,3.1-.6,4.6,4.6,0,0,0,.6-2.5,6.6,6.6,0,0,0-.1-1.5,2.3,2.3,0,0,0-.5-1,1.3,1.3,0,0,0-.7-.6l-.9-.2a1.8,1.8,0,0,0-1.3.4,3.1,3.1,0,0,0-1.1.9Z" fill="#dec9a2"/><path d="M466.1,129.5v12.8h-1.6V129.5Z" fill="#dec9a2"/><path d="M470.5,130.8v.4l-.3.3-.3.3H469l-.3-.3-.3-.3c0-.2-.1-.3-.1-.4s.1-.3.1-.5l.3-.3.3-.3h.9l.3.3.3.3Zm-.3,2.7v8.8h-1.5v-8.8Z" fill="#dec9a2"/><path d="M479.9,141.1l-.7.6-.9.4-.9.2h-1a4.1,4.1,0,0,1-1.6-.3,4.2,4.2,0,0,1-1.4-.9,5.3,5.3,0,0,1-.8-1.5,5.4,5.4,0,0,1-.4-2,4.7,4.7,0,0,1,.3-1.7,6.4,6.4,0,0,1,.8-1.4,3.8,3.8,0,0,1,1.3-.9,4.8,4.8,0,0,1,1.8-.3l1.4.2a3.6,3.6,0,0,1,1.2.8,2.9,2.9,0,0,1,.7,1.2,4.7,4.7,0,0,1,.3,1.7c0,.3,0,.4-.1.5h-6.1a6.1,6.1,0,0,0,.2,1.5,2.1,2.1,0,0,0,.6,1,1.6,1.6,0,0,0,.8.6l1.2.2h1l.7-.3.5-.3h.7Zm-1.3-4.1a3.1,3.1,0,0,0-.1-1,2.2,2.2,0,0,0-.5-.8,1.8,1.8,0,0,0-.7-.5l-.9-.2a2.3,2.3,0,0,0-1.8.7,3,3,0,0,0-.8,1.8Z" fill="#dec9a2"/><path d="M487,135c0,.1-.1.2-.3.2h-.3l-.4-.3-.5-.2H484l-.6.3-.3.4a.9.9,0,0,0-.1.5.7.7,0,0,0,.2.6l.5.4.7.3.9.2.8.3.7.5a1.5,1.5,0,0,1,.5.6,1.5,1.5,0,0,1,.2.9,2,2,0,0,1-.2,1.1,1.5,1.5,0,0,1-.6.9,2.4,2.4,0,0,1-1.1.6,3.2,3.2,0,0,1-1.4.2,4.7,4.7,0,0,1-1.7-.3,3.5,3.5,0,0,1-1.2-.7l.3-.6.2-.2h.6l.4.2.6.3h1.7l.5-.3a1,1,0,0,0,.4-.5,4.3,4.3,0,0,0,.1-.5.8.8,0,0,0-.2-.6,1,1,0,0,0-.5-.4l-.8-.3-.8-.3-.8-.3-.8-.4a1.8,1.8,0,0,1-.5-.7,3,3,0,0,1-.2-1,2.9,2.9,0,0,1,.2-.9l.6-.9a3.1,3.1,0,0,1,1-.5,2.7,2.7,0,0,1,1.3-.2,4.1,4.1,0,0,1,1.6.3,2.4,2.4,0,0,1,1.2.7Z" fill="#dec9a2"/><path d="M456.5,176.6a58.1,58.1,0,0,1-7.2-.5l.3-2.6a53.2,53.2,0,0,0,6.9.4Zm4.4-.2-.2-2.6a50.7,50.7,0,0,0,6.8-1.1l.6,2.6A44.8,44.8,0,0,1,460.9,176.4Zm-18.8-1.8a63.7,63.7,0,0,1-6.9-2.5l1.1-2.4a50.2,50.2,0,0,0,6.5,2.3Zm33-1.3-.9-2.5a58.9,58.9,0,0,0,6.3-2.9l1.2,2.3A49.8,49.8,0,0,1,475.1,173.3Zm-46.3-4.6a49.7,49.7,0,0,1-6-4.2l1.7-2.1a45.7,45.7,0,0,0,5.7,4.1Zm59.1-2.4-1.6-2.1a57.2,57.2,0,0,0,5.3-4.5l1.9,1.9A60.6,60.6,0,0,1,487.9,166.3Zm-70.4-6.8a62.6,62.6,0,0,1-4.5-5.7l2.2-1.6a45.3,45.3,0,0,0,4.3,5.5Zm80.8-3.3-2.1-1.7a36,36,0,0,0,3.9-5.7l2.3,1.3A50,50,0,0,1,498.3,156.2Zm-89.1-8.7a55.8,55.8,0,0,1-2.8-6.7l2.5-.9c.8,2.2,1.7,4.3,2.7,6.4Zm96.5-3.9-2.5-1a56.7,56.7,0,0,0,2.2-6.6l2.5.6A43.7,43.7,0,0,1,505.7,143.6Zm-101.2-9.9a44.3,44.3,0,0,1-.9-7.2l2.7-.2a52,52,0,0,0,.8,6.9Zm104.8-4.2-2.7-.3a54,54,0,0,0,.3-5.6v-1.4h2.7v1.4C509.6,125.5,509.5,127.5,509.3,129.5ZM406.4,119.4l-2.7-.2a56.8,56.8,0,0,1,1.1-7.2l2.6.5A54.6,54.6,0,0,0,406.4,119.4Zm99.8-4.1a40.7,40.7,0,0,0-1.6-6.7l2.6-.8a56.5,56.5,0,0,1,1.7,7.1Zm-96.8-9.4-2.5-.9a57.1,57.1,0,0,1,3-6.7l2.4,1.3A45.1,45.1,0,0,0,409.4,105.9Zm92.7-3.8a44.2,44.2,0,0,0-3.4-6l2.3-1.5a57.1,57.1,0,0,1,3.5,6.4ZM416,93.7l-2.1-1.5a42.2,42.2,0,0,1,4.7-5.6l1.9,1.9A55.9,55.9,0,0,0,416,93.7Zm78.5-3.1a46.2,46.2,0,0,0-4.9-5l1.8-2a63.8,63.8,0,0,1,5.2,5.2Zm-68.8-6.8L424,81.7a64.9,64.9,0,0,1,6.1-4.1l1.3,2.4A43.5,43.5,0,0,0,425.7,83.8Zm58.4-2.3a40,40,0,0,0-6-3.4l1.1-2.5c2.2,1.1,4.3,2.3,6.4,3.6Zm-46.5-4.6-1-2.5a56.8,56.8,0,0,1,7-2.2l.6,2.5A56.7,56.7,0,0,0,437.6,76.9Zm34-1.4a54.3,54.3,0,0,0-6.7-1.6l.4-2.6a43.2,43.2,0,0,1,7.1,1.7Zm-20.6-2-.3-2.6a45.1,45.1,0,0,1,7.3-.3v2.6C455.7,73.2,453.3,73.3,451,73.5Z" fill="#dec9a2"/><path d="M455.7,156.6c-.6,0-.6.7-6.6,5.3s-13.8,1.5-15-2.9a7.1,7.1,0,0,1,1.8-7.1s-1.3,3.4,1.5,5,7.6-4.2,11.3-4.9,7,2.8,7,2.8S455.7,156.6,455.7,156.6Zm1.7,0c.6,0,.6.7,6.6,5.3s13.8,1.5,15-2.9a7.1,7.1,0,0,0-1.8-7.1s1.3,3.4-1.5,5-7.6-4.2-11.3-4.9-7,2.8-7,2.8S457.4,156.6,457.4,156.6Z" fill="#dec9a2"/><path d="M324.9,128.2c.1-1.5.2-3.1.2-4.6s-.1-3.1-.2-4.6l7.7-13.5a.7.7,0,0,0,.1-.6,1.3,1.3,0,0,0-.4-.6l-13.4-7.7a57.3,57.3,0,0,0-4.6-8V73.1a.9.9,0,0,0-.9-.9H297.9a57.3,57.3,0,0,0-8-4.6l-7.8-13.4a.8.8,0,0,0-1.2-.3l-13.4,7.7-4.6-.2-4.6.2-13.4-7.7a.8.8,0,0,0-1.2.3l-7.8,13.4a57.3,57.3,0,0,0-8,4.6H212.4a.9.9,0,0,0-.9.9V88.6a57.3,57.3,0,0,0-4.6,8l-13.4,7.7a1.3,1.3,0,0,0-.4.6.7.7,0,0,0,.1.6l7.7,13.5c-.1,1.5-.2,3-.2,4.6s.1,3.1.2,4.6l-7.7,13.4a.9.9,0,0,0-.1.7,1,1,0,0,0,.4.5l13.4,7.7a64.8,64.8,0,0,0,4.6,8.1V174a.9.9,0,0,0,.9.9h15.5a57.8,57.8,0,0,0,8,4.7l7.8,13.4a.8.8,0,0,0,.7.4h.5l13.4-7.8a53,53,0,0,0,9.2,0l13.4,7.8h.5a.8.8,0,0,0,.7-.4l7.8-13.4a57.8,57.8,0,0,0,8-4.7h15.5a.9.9,0,0,0,.9-.9V158.6a64.8,64.8,0,0,0,4.6-8.1l13.4-7.7a1,1,0,0,0,.4-.5.9.9,0,0,0-.1-.7Zm5.7-22.8-6,10.5a60.9,60.9,0,0,0-4.4-16.5ZM312.5,74V86.1A66,66,0,0,0,300.4,74ZM281,55.9l6.1,10.4a61.9,61.9,0,0,0-16.5-4.4Zm-36.3,0,10.5,6a60.9,60.9,0,0,0-16.5,4.4ZM213.3,74h12.1a63,63,0,0,0-12.1,12.1Zm-18.1,31.4,10.4-6a60.9,60.9,0,0,0-4.4,16.5Zm0,36.3,6-10.5a61.6,61.6,0,0,0,4.4,16.6Zm18.1,31.5V161.1a66,66,0,0,0,12.1,12.1Zm31.4,18.1-6-10.4a64.6,64.6,0,0,0,16.5,4.3Zm36.3,0-10.4-6.1a65.7,65.7,0,0,0,16.5-4.3Zm31.5-18.1H300.4a69.3,69.3,0,0,0,12.1-12.1Zm7.7-25.4a61.6,61.6,0,0,0,4.4-16.6l6,10.5Z" fill="#892432"/><path d="M274.3,93.9a.9.9,0,1,0-1.8,0c0,4.2-3.8,7.7-8.7,8V88.2h4.7a.9.9,0,0,0,0-1.8h-4.7V84.1a3.2,3.2,0,0,0,2.3-3,3.2,3.2,0,0,0-6.4,0,3.2,3.2,0,0,0,2.3,3v2.3h-4.7a.9.9,0,1,0,0,1.8H262v13.7c-4.9-.3-8.7-3.8-8.7-8a.9.9,0,0,0-1.8,0c0,5.2,4.6,9.4,10.5,9.8v.5a.9.9,0,0,0,1.8,0v-.5C269.7,103.3,274.3,99.1,274.3,93.9ZM261.5,81.1a1.4,1.4,0,1,1,2.8,0,1.4,1.4,0,0,1-2.8,0Z" fill="#dec9a2"/><path d="M240,125.5h-2.6a1.1,1.1,0,0,1-1.1-.6l-2.7-4.3-.3-.4h-1.6v5.4h-2.9V111.4h4.4a9,9,0,0,1,2.5.3,7.5,7.5,0,0,1,1.8.8,3.8,3.8,0,0,1,.9,1.3,3.3,3.3,0,0,1,.4,1.7,5.1,5.1,0,0,1-.2,1.3L238,118l-1,.9a3.4,3.4,0,0,1-1.2.6l.5.4a1,1,0,0,1,.4.5Zm-6.8-7.4,1.2-.2a2.6,2.6,0,0,0,.9-.5,5.6,5.6,0,0,0,.5-.8,2.5,2.5,0,0,0,.1-.9,1.9,1.9,0,0,0-.7-1.6,3.4,3.4,0,0,0-2-.5h-1.5v4.5Z" fill="#dec9a2"/><path d="M249.5,115.5v10h-1.7a.8.8,0,0,1-.7-.5v-.7l-.6.6-.7.4-.8.3H244a3.3,3.3,0,0,1-1.5-.3l-1.1-.8a3.4,3.4,0,0,1-.6-1.2,4.1,4.1,0,0,1-.2-1.6v-6.3h2.6v6.3a2.2,2.2,0,0,0,.4,1.3,1.7,1.7,0,0,0,1.2.5l1-.2,1-.7v-7.2Z" fill="#dec9a2"/><path d="M252.4,125.5v-8.1h-.8l-.5-.3c-.1-.1-.1-.2-.1-.4v-1.1h1.4V115a3.7,3.7,0,0,1,.3-1.5,2.5,2.5,0,0,1,.8-1.2,2.4,2.4,0,0,1,1.2-.7,3.8,3.8,0,0,1,1.6-.3h.7l.6.2v1.3a.5.5,0,0,1-.2.4H256a.5.5,0,0,0-.5.3,1,1,0,0,0-.4.5c0,.3-.1.6-.1.9v.4h3.8v-.2a4.7,4.7,0,0,1,.3-1.7,3.4,3.4,0,0,1,.9-1.4,4.6,4.6,0,0,1,1.7-.9,5.3,5.3,0,0,1,2.3-.4h1.6v1.4l-.2.3h-.5l-1.7.2a3.1,3.1,0,0,0-1,.5,1.1,1.1,0,0,0-.5.8,2,2,0,0,0-.2,1.1h6.3v10H265v-8.1h-3.5v8.1h-2.7v-8.1h-3.7v8.1Z" fill="#dec9a2"/><path d="M269.8,116.9a4.4,4.4,0,0,1,1.9-1.2,5.9,5.9,0,0,1,2.3-.4,3.8,3.8,0,0,1,1.6.3,3.7,3.7,0,0,1,2,2,4.1,4.1,0,0,1,.3,1.6v6.3H276a1.1,1.1,0,0,1-.3-.5l-.2-.6-.7.6-.8.4-.8.3h-.9l-1.3-.2-.9-.5a2.4,2.4,0,0,1-.6-.9,3.7,3.7,0,0,1-.2-1.2,2.3,2.3,0,0,1,.3-1.1,2.8,2.8,0,0,1,.9-1,6.8,6.8,0,0,1,1.9-.8,10.9,10.9,0,0,1,2.8-.3v-.5a2,2,0,0,0-.4-1.4,1.2,1.2,0,0,0-1.1-.4h-.9l-.7.3-.5.3H271a.5.5,0,0,1-.4-.2c-.2,0-.3-.2-.4-.3Zm5.4,4.4-1.6.2-1,.3-.6.4a1.3,1.3,0,0,0-.1.6,1,1,0,0,0,.3.8c.2.2.5.2.9.2a2.5,2.5,0,0,0,1.2-.2l.9-.7Z" fill="#dec9a2"/><path d="M282.4,116.6l.7-.5.7-.4.8-.3h.9a3.2,3.2,0,0,1,1.4.3,2.8,2.8,0,0,1,1.1.8,2.3,2.3,0,0,1,.6,1.2,4,4,0,0,1,.3,1.5v6.4h-2.7v-6.4a1.8,1.8,0,0,0-.4-1.3,1.5,1.5,0,0,0-1.2-.4,1.8,1.8,0,0,0-1,.2l-1,.7v7.2H280v-10h1.6c.4,0,.6.1.7.4Z" fill="#dec9a2"/><path d="M297.2,117.5l-.2.3h-.7l-.4-.2-.6-.2h-.8a1.5,1.5,0,0,0-1,.3,1,1,0,0,0-.4.7.5.5,0,0,0,.3.5l.5.4.8.2.8.3.9.4.8.5.5.7a2,2,0,0,1,.2,1.1,5.1,5.1,0,0,1-.2,1.3,4.4,4.4,0,0,1-.8,1.1l-1.3.7a4.8,4.8,0,0,1-1.8.3h-1l-1-.3-.8-.4a1.8,1.8,0,0,1-.7-.5l.6-1,.3-.3h.4l.4.2.5.2.6.3h1.5l.5-.2a.5.5,0,0,0,.2-.4.4.4,0,0,0,.1-.3c0-.3,0-.4-.2-.6l-.5-.4-.8-.2-.9-.3-.9-.4a1.8,1.8,0,0,1-.7-.5,1.6,1.6,0,0,1-.6-.8,3.7,3.7,0,0,1-.2-1.2,5,5,0,0,1,.2-1.2,3.5,3.5,0,0,1,.8-1,3.4,3.4,0,0,1,1.2-.6,4.3,4.3,0,0,1,1.7-.3,4.1,4.1,0,0,1,1.9.4,3.8,3.8,0,0,1,1.5.9Z" fill="#dec9a2"/><path d="M239.2,131.8l-.2.2h-.2l-.4-.2-.5-.3-.7-.3-1-.2-1,.2-.7.4-.4.6a1.9,1.9,0,0,0-.2.8,1.1,1.1,0,0,0,.3.8,1.2,1.2,0,0,0,.6.6l1,.4,1.1.4,1.1.4.9.6.7.9a2.8,2.8,0,0,1,.3,1.3,4.1,4.1,0,0,1-.3,1.6,5,5,0,0,1-.8,1.2,3.5,3.5,0,0,1-1.3.8,4.8,4.8,0,0,1-1.8.3,5.4,5.4,0,0,1-2.2-.4,5.2,5.2,0,0,1-1.7-1.2l.5-.8h.6l.4.2.4.3.5.3.7.3h.9l1-.2.8-.5a1.8,1.8,0,0,0,.5-.7,2.9,2.9,0,0,0,.2-.9,1.2,1.2,0,0,0-.3-.9c-.1-.3-.4-.5-.6-.7l-1-.4-1.1-.3-1.1-.4-.9-.6a3.6,3.6,0,0,1-.7-1,2.5,2.5,0,0,1-.3-1.3,2.8,2.8,0,0,1,.3-1.3,4.1,4.1,0,0,1,.7-1.1l1.2-.8a4.7,4.7,0,0,1,1.7-.3,4.1,4.1,0,0,1,1.9.4,3.8,3.8,0,0,1,1.5.9Z" fill="#dec9a2"/><path d="M248.9,133.5v8.8H248c-.2,0-.3-.1-.4-.3v-1a4.5,4.5,0,0,1-1.3,1.1,4.1,4.1,0,0,1-1.6.3,2.7,2.7,0,0,1-1.3-.2,1.6,1.6,0,0,1-.9-.7,2.1,2.1,0,0,1-.6-1,5.9,5.9,0,0,1-.2-1.4v-5.6h1.6v5.6a2.5,2.5,0,0,0,.4,1.6,2,2,0,0,0,1.4.5,2.8,2.8,0,0,0,1.3-.3,4.4,4.4,0,0,0,1.1-.9v-6.5Z" fill="#dec9a2"/><path d="M252.9,134.9a4.1,4.1,0,0,1,1.2-1.1,3.3,3.3,0,0,1,1.7-.4,3.2,3.2,0,0,1,1.4.3,1.9,1.9,0,0,1,1,.8,4.9,4.9,0,0,1,.9,3.4,5.5,5.5,0,0,1-.2,1.8,3.9,3.9,0,0,1-.8,1.4,4,4,0,0,1-1.2,1,3.8,3.8,0,0,1-1.6.3l-1.3-.2-1.1-.8v3.9h-1.5V133.5h.9c.2,0,.4.1.4.3Zm0,5.3a2.5,2.5,0,0,0,1,.8,2,2,0,0,0,1.1.2,2.6,2.6,0,0,0,1.9-.8,4.6,4.6,0,0,0,.6-2.5,6.6,6.6,0,0,0-.1-1.5,5.1,5.1,0,0,0-.4-1,1.6,1.6,0,0,0-.8-.6l-.9-.2a2,2,0,0,0-1.3.4,4.4,4.4,0,0,0-1.1.9Z" fill="#dec9a2"/><path d="M262.6,134.9a4.5,4.5,0,0,1,1.3-1.1,2.9,2.9,0,0,1,1.6-.4,3.2,3.2,0,0,1,1.4.3,2.1,2.1,0,0,1,1.1.8,3.5,3.5,0,0,1,.6,1.4,6,6,0,0,1,.3,2,5.7,5.7,0,0,1-.3,1.8,6.1,6.1,0,0,1-.7,1.4l-1.2,1a4.1,4.1,0,0,1-1.6.3l-1.4-.2a3.9,3.9,0,0,1-1-.8v3.9h-1.6V133.5h.9c.3,0,.4.1.4.3Zm.1,5.3a2.3,2.3,0,0,0,.9.8,2,2,0,0,0,1.1.2,2.4,2.4,0,0,0,1.9-.8,3.9,3.9,0,0,0,.7-2.5,6.1,6.1,0,0,0-.2-1.5,2.3,2.3,0,0,0-.4-1,1.3,1.3,0,0,0-.7-.6l-1-.2a2,2,0,0,0-1.3.4,2.8,2.8,0,0,0-1,.9Z" fill="#dec9a2"/><path d="M272.4,129.5v12.8h-1.5V129.5Z" fill="#dec9a2"/><path d="M276.9,130.8a.8.8,0,0,1-.1.4l-.2.3-.4.3h-.8l-.4-.3c-.1-.1-.2-.2-.2-.3a.8.8,0,0,1-.1-.4.9.9,0,0,1,.1-.5c0-.1.1-.2.2-.3l.4-.3h.8l.4.3.2.3A.9.9,0,0,1,276.9,130.8Zm-.3,2.7v8.8H275v-8.8Z" fill="#dec9a2"/><path d="M286.2,141.1l-.6.6-.9.4-.9.2h-1a4.7,4.7,0,0,1-1.7-.3,3.8,3.8,0,0,1-1.3-.9,3.8,3.8,0,0,1-.9-1.5,5.6,5.6,0,0,1-.3-2,4.7,4.7,0,0,1,.3-1.7,3.9,3.9,0,0,1,.8-1.4,3,3,0,0,1,1.3-.9,4.7,4.7,0,0,1,1.7-.3l1.5.2,1.1.8a3.2,3.2,0,0,1,.8,1.2,4.7,4.7,0,0,1,.3,1.7,2,2,0,0,1-.1.5h-6.2a3.3,3.3,0,0,0,.3,1.5,3.1,3.1,0,0,0,.5,1l.9.6,1.1.2h1l.7-.3.6-.3h.6ZM285,137a3,3,0,0,0-.2-1,2,2,0,0,0-.4-.8,1.8,1.8,0,0,0-.7-.5l-1-.2a2.1,2.1,0,0,0-1.7.7,2.5,2.5,0,0,0-.8,1.8Z" fill="#dec9a2"/><path d="M293.4,135l-.3.2h-.3l-.4-.3-.6-.2h-1.5l-.5.3-.4.4c0,.2-.1.3-.1.5a1.4,1.4,0,0,0,.2.6l.5.4.8.3.8.2.8.3.8.5a1.5,1.5,0,0,1,.5.6,2.9,2.9,0,0,1,.2.9,3.6,3.6,0,0,1-.2,1.1,2.2,2.2,0,0,1-.7.9,2.1,2.1,0,0,1-1,.6,3.2,3.2,0,0,1-1.4.2,4.3,4.3,0,0,1-1.7-.3l-1.3-.7.4-.6c0-.1.1-.1.2-.2h.5l.4.2.7.3h1.6l.6-.3a.9.9,0,0,0,.3-.5.7.7,0,0,0,.1-.5c0-.3,0-.5-.2-.6a1,1,0,0,0-.5-.4l-.7-.3-.9-.3-.8-.3-.7-.4a1.8,1.8,0,0,1-.5-.7,1.6,1.6,0,0,1-.2-1,1.5,1.5,0,0,1,.2-.9,2.4,2.4,0,0,1,.6-.9l1-.5a2.5,2.5,0,0,1,1.3-.2,3.3,3.3,0,0,1,1.5.3,2.4,2.4,0,0,1,1.2.7Z" fill="#dec9a2"/><path d="M262.9,176.6a59.7,59.7,0,0,1-7.3-.5l.4-2.6a53.2,53.2,0,0,0,6.9.4Zm4.3-.2-.2-2.6a55,55,0,0,0,6.9-1.1l.5,2.6A43.2,43.2,0,0,1,267.2,176.4Zm-18.7-1.8a51.3,51.3,0,0,1-6.9-2.5l1.1-2.4a50.2,50.2,0,0,0,6.5,2.3Zm32.9-1.3-.9-2.5a45.1,45.1,0,0,0,6.3-2.9l1.3,2.3A57.9,57.9,0,0,1,281.4,173.3Zm-46.3-4.6a57.9,57.9,0,0,1-5.9-4.2l1.7-2.1a53.4,53.4,0,0,0,5.6,4.1Zm59.1-2.4-1.5-2.1c1.8-1.4,3.6-2.9,5.3-4.5l1.8,1.9A42.2,42.2,0,0,1,294.2,166.3Zm-70.3-6.8a49.9,49.9,0,0,1-4.6-5.7l2.2-1.6a46.1,46.1,0,0,0,4.4,5.5Zm80.8-3.3-2.1-1.7a57.2,57.2,0,0,0,3.9-5.7l2.3,1.3A50,50,0,0,1,304.7,156.2Zm-89.1-8.7a56.5,56.5,0,0,1-2.9-6.7l2.6-.9a39.6,39.6,0,0,0,2.7,6.4Zm96.4-3.9-2.5-1a56.7,56.7,0,0,0,2.2-6.6l2.6.6A57.3,57.3,0,0,1,312,143.6Zm-101.2-9.9q-.6-3.6-.9-7.2l2.7-.2a39.5,39.5,0,0,0,.9,6.9Zm104.8-4.2-2.7-.3a54.6,54.6,0,0,0,.4-5.6c0-.5-.1-.9-.1-1.4h2.7v1.4C315.9,125.5,315.8,127.5,315.6,129.5ZM212.7,119.4l-2.7-.2a56.8,56.8,0,0,1,1.1-7.2l2.7.5A55,55,0,0,0,212.7,119.4Zm99.9-4.1a54.3,54.3,0,0,0-1.6-6.7l2.5-.8a56.5,56.5,0,0,1,1.7,7.1Zm-96.9-9.4-2.5-.9a57.9,57.9,0,0,1,3.1-6.7l2.3,1.3A60.5,60.5,0,0,0,215.7,105.9Zm92.8-3.8a58.2,58.2,0,0,0-3.4-6l2.2-1.5c1.3,2.1,2.5,4.2,3.6,6.4Zm-86.1-8.4-2.2-1.5a42.2,42.2,0,0,1,4.7-5.6l1.9,1.9A43.2,43.2,0,0,0,222.4,93.7Zm78.5-3.1a57.8,57.8,0,0,0-4.9-5l1.7-2a51.1,51.1,0,0,1,5.2,5.2ZM232,83.8l-1.6-2.1a63.4,63.4,0,0,1,6-4.1l1.4,2.4A44.5,44.5,0,0,0,232,83.8Zm58.5-2.3a40.9,40.9,0,0,0-6.1-3.4l1.2-2.5c2.1,1.1,4.3,2.3,6.3,3.6ZM244,76.9l-1-2.5a55.4,55.4,0,0,1,6.9-2.2l.7,2.5A46.4,46.4,0,0,0,244,76.9Zm34-1.4a51.7,51.7,0,0,0-6.8-1.6l.5-2.6a48.6,48.6,0,0,1,7.1,1.7Zm-20.6-2-.3-2.6a44.6,44.6,0,0,1,7.3-.3v2.6Q260.9,73.2,257.4,73.5Z" fill="#dec9a2"/><path d="M262.1,156.6c-.7,0-.6.7-6.7,5.3s-13.7,1.5-14.9-2.9a7.2,7.2,0,0,1,1.7-7.1s-1.2,3.4,1.5,5,7.6-4.2,11.3-4.9,7.1,2.8,7.1,2.8S262.1,156.6,262.1,156.6Zm1.6,0c.7,0,.6.7,6.7,5.3s13.7,1.5,14.9-2.9a7.2,7.2,0,0,0-1.7-7.1s1.2,3.4-1.5,5-7.6-4.2-11.3-4.9-7.1,2.8-7.1,2.8S263.7,156.6,263.7,156.6Z" fill="#dec9a2"/><path d="M711.9,128.2c.1-1.5.1-3.1.1-4.6s0-3.1-.1-4.6l7.7-13.5a.9.9,0,0,0-.3-1.2l-13.4-7.7a49.3,49.3,0,0,0-4.7-8V73.1a.9.9,0,0,0-.8-.9H684.9a58.4,58.4,0,0,0-8.1-4.6l-7.7-13.4a.8.8,0,0,0-1.2-.3l-13.4,7.7-4.6-.2-4.6.2-13.4-7.7a1,1,0,0,0-1.3.3l-7.7,13.4a57.3,57.3,0,0,0-8,4.6H599.4a.9.9,0,0,0-.9.9V88.6a57.3,57.3,0,0,0-4.6,8l-13.4,7.7c-.2.2-.4.3-.4.6a.7.7,0,0,0,.1.6l7.7,13.5c-.1,1.5-.2,3-.2,4.6s.1,3.1.2,4.6l-7.7,13.4a.9.9,0,0,0-.1.7.7.7,0,0,0,.4.5l13.4,7.7a64.8,64.8,0,0,0,4.6,8.1V174a.9.9,0,0,0,.9.9h15.5a57.8,57.8,0,0,0,8,4.7l7.7,13.4a1.2,1.2,0,0,0,.8.4h.5l13.4-7.8a34.6,34.6,0,0,0,4.6.2,35.4,35.4,0,0,0,4.6-.2l13.4,7.8h.5a.8.8,0,0,0,.7-.4l7.7-13.4a59,59,0,0,0,8.1-4.7h15.5a.9.9,0,0,0,.8-.9V158.6a55,55,0,0,0,4.7-8.1l13.4-7.7a1,1,0,0,0,.4-.5,1.7,1.7,0,0,0-.1-.7Zm5.7-22.8-6,10.5a64.8,64.8,0,0,0-4.4-16.5ZM699.5,74V86.1A66,66,0,0,0,687.4,74ZM668,55.9l6.1,10.4a61.6,61.6,0,0,0-16.6-4.4Zm-36.3,0,10.5,6a60.9,60.9,0,0,0-16.5,4.4ZM600.3,74h12.1a63,63,0,0,0-12.1,12.1Zm-18.1,31.4,10.4-6a60.9,60.9,0,0,0-4.4,16.5Zm0,36.3,6-10.5a61.6,61.6,0,0,0,4.4,16.6Zm18.1,31.5V161.1a66,66,0,0,0,12.1,12.1Zm31.4,18.1-6-10.4a64.6,64.6,0,0,0,16.5,4.3Zm36.3,0-10.5-6.1a65.4,65.4,0,0,0,16.6-4.3Zm31.5-18.1H687.4a69.3,69.3,0,0,0,12.1-12.1Zm7.7-25.4a65.5,65.5,0,0,0,4.4-16.6l6,10.5Z" fill="#892432"/><path d="M661.3,93.9a.9.9,0,1,0-1.8,0c0,4.2-3.8,7.7-8.7,8V88.2h4.7a.9.9,0,0,0,0-1.8h-4.7V84.1a3.2,3.2,0,0,0-.9-6.2,3.2,3.2,0,0,0-3.2,3.2,3.2,3.2,0,0,0,2.3,3v2.3h-4.7a.9.9,0,1,0,0,1.8H649v13.7c-4.9-.3-8.7-3.8-8.7-8a.9.9,0,1,0-1.8,0c0,5.2,4.6,9.4,10.5,9.8v.5a.9.9,0,1,0,1.8,0v-.5C656.6,103.3,661.3,99.1,661.3,93.9ZM648.5,81.1a1.4,1.4,0,1,1,2.8,0,1.4,1.4,0,1,1-2.8,0Z" fill="#dec9a2"/><path d="M627,125.5h-2.6a1.1,1.1,0,0,1-1.1-.6l-2.7-4.3-.3-.4h-1.6v5.4h-2.9V111.4h4.4a9,9,0,0,1,2.5.3,5.4,5.4,0,0,1,1.7.8,3.1,3.1,0,0,1,1,1.3,4.7,4.7,0,0,1,.3,1.7,2.7,2.7,0,0,1-.2,1.3,6.1,6.1,0,0,1-.5,1.2l-1,.9a4.5,4.5,0,0,1-1.2.6l.5.4a1,1,0,0,1,.4.5Zm-6.8-7.4,1.2-.2.8-.5a1.4,1.4,0,0,0,.5-.8,2.4,2.4,0,0,0,.2-.9,1.9,1.9,0,0,0-.7-1.6,3.4,3.4,0,0,0-2-.5h-1.5v4.5Z" fill="#dec9a2"/><path d="M636.5,115.5v10h-1.7a.8.8,0,0,1-.7-.5v-.7l-.7.6-.6.4-.8.3h-1a3.2,3.2,0,0,1-1.4-.3l-1.1-.8a3.4,3.4,0,0,1-.6-1.2,4.1,4.1,0,0,1-.3-1.6v-6.3h2.7v6.3a2.2,2.2,0,0,0,.4,1.3,1.7,1.7,0,0,0,1.2.5l1-.2,1-.7v-7.2Z" fill="#dec9a2"/><path d="M639.4,125.5v-8.1h-.8l-.5-.3a.5.5,0,0,1-.2-.4v-1.1h1.5V115a3.7,3.7,0,0,1,.3-1.5,2.4,2.4,0,0,1,.7-1.2,3.3,3.3,0,0,1,1.3-.7,3.8,3.8,0,0,1,1.6-.3h.6l.7.2v1.3a.5.5,0,0,1-.2.4H643a.5.5,0,0,0-.5.3,1,1,0,0,0-.4.5,2.8,2.8,0,0,0-.1.9v.4h3.8v-.2a4.7,4.7,0,0,1,.3-1.7,3.4,3.4,0,0,1,.9-1.4,5.1,5.1,0,0,1,1.6-.9,6.1,6.1,0,0,1,2.4-.4h1.6v1.4l-.2.3h-.5l-1.7.2a2.3,2.3,0,0,0-1,.5,1.2,1.2,0,0,0-.6.8,3.7,3.7,0,0,0-.1,1.1h6.3v10H652v-8.1h-3.5v8.1h-2.7v-8.1h-3.7v8.1Z" fill="#dec9a2"/><path d="M656.8,116.9a3.9,3.9,0,0,1,1.9-1.2,5.9,5.9,0,0,1,2.3-.4,3.8,3.8,0,0,1,1.6.3,2.5,2.5,0,0,1,1.2.8,3.6,3.6,0,0,1,.8,1.2,4.1,4.1,0,0,1,.2,1.6v6.3H663a1.1,1.1,0,0,1-.3-.5l-.2-.6-.7.6-.8.4-.8.3h-1l-1.2-.2-.9-.5a2.4,2.4,0,0,1-.6-.9,2.2,2.2,0,0,1-.2-1.2,2.3,2.3,0,0,1,.3-1.1,2.1,2.1,0,0,1,.9-1,6.8,6.8,0,0,1,1.9-.8,10.9,10.9,0,0,1,2.8-.3v-.5a2,2,0,0,0-.4-1.4,1.2,1.2,0,0,0-1.1-.4h-1l-.6.3-.5.3H658l-.5-.2c-.1,0-.2-.2-.3-.3Zm5.4,4.4-1.6.2-1.1.3-.5.4a1.4,1.4,0,0,0-.2.6,1,1,0,0,0,.4.8c.2.2.5.2.9.2a2,2,0,0,0,1.1-.2l1-.7Z" fill="#dec9a2"/><path d="M669.4,116.6l.7-.5.7-.4.7-.3h1a3.2,3.2,0,0,1,1.4.3,2.8,2.8,0,0,1,1.1.8,2.3,2.3,0,0,1,.6,1.2,4,4,0,0,1,.3,1.5v6.4h-2.7v-6.4a2.5,2.5,0,0,0-.4-1.3,1.6,1.6,0,0,0-1.2-.4,1.8,1.8,0,0,0-1,.2l-1,.7v7.2h-2.7v-10h1.7a.7.7,0,0,1,.7.4Z" fill="#dec9a2"/><path d="M684.2,117.5l-.2.3h-.7l-.5-.2-.5-.2h-.8a1.5,1.5,0,0,0-1,.3,1,1,0,0,0-.4.7.8.8,0,0,0,.2.5l.6.4.7.2.9.3.9.4.8.5.5.7a3.6,3.6,0,0,1,.2,1.1,2.8,2.8,0,0,1-.3,1.3,2.6,2.6,0,0,1-.7,1.1l-1.3.7a4.8,4.8,0,0,1-1.8.3h-1l-1-.3-.8-.4a1.8,1.8,0,0,1-.7-.5l.6-1,.3-.3h.4l.4.2.5.2.6.3h1.5l.5-.2a.5.5,0,0,0,.2-.4.4.4,0,0,0,.1-.3,1.1,1.1,0,0,0-.2-.6l-.5-.4-.8-.2-.9-.3-.9-.4-.8-.5a2.2,2.2,0,0,1-.5-.8,3.7,3.7,0,0,1-.2-1.2,5,5,0,0,1,.2-1.2,3.5,3.5,0,0,1,.8-1,3.4,3.4,0,0,1,1.2-.6,4.1,4.1,0,0,1,1.6-.3,4.2,4.2,0,0,1,2,.4,2.8,2.8,0,0,1,1.4.9Z" fill="#dec9a2"/><path d="M626.2,131.8l-.2.2h-.2l-.4-.2-.5-.3-.7-.3-1-.2-1,.2-.7.4-.5.6a1.9,1.9,0,0,0-.1.8,1.9,1.9,0,0,0,.2.8,1.3,1.3,0,0,0,.7.6l1,.4,1.1.4,1.1.4.9.6.7.9a2.8,2.8,0,0,1,.3,1.3,4.1,4.1,0,0,1-.3,1.6,5,5,0,0,1-.8,1.2,3.5,3.5,0,0,1-1.3.8l-1.8.3a5.1,5.1,0,0,1-2.2-.4,5.2,5.2,0,0,1-1.7-1.2l.5-.8h.6l.3.2.5.3.5.3.7.3h.8l1.1-.2.8-.5a1.8,1.8,0,0,0,.5-.7,2.9,2.9,0,0,0,.2-.9,1.2,1.2,0,0,0-.3-.9,2.3,2.3,0,0,0-.7-.7l-.9-.4-1.1-.3-1.1-.4-1-.6a3.3,3.3,0,0,1-.6-1,2.5,2.5,0,0,1-.3-1.3,2.8,2.8,0,0,1,.3-1.3,2.6,2.6,0,0,1,.7-1.1l1.2-.8a4.7,4.7,0,0,1,1.7-.3,4.1,4.1,0,0,1,1.9.4l1.5.9Z" fill="#dec9a2"/><path d="M635.9,133.5v8.8H635c-.2,0-.4-.1-.4-.3v-1a6.3,6.3,0,0,1-1.3,1.1,4.3,4.3,0,0,1-1.7.3,2.3,2.3,0,0,1-1.2-.2,2.3,2.3,0,0,1-1-.7,3.1,3.1,0,0,1-.5-1,5.9,5.9,0,0,1-.2-1.4v-5.6h1.5v5.6a2.5,2.5,0,0,0,.5,1.6,2,2,0,0,0,1.4.5,3.1,3.1,0,0,0,1.3-.3,4.4,4.4,0,0,0,1.1-.9v-6.5Z" fill="#dec9a2"/><path d="M639.8,134.9a4.5,4.5,0,0,1,1.3-1.1,3.3,3.3,0,0,1,1.7-.4,3.2,3.2,0,0,1,1.4.3,1.9,1.9,0,0,1,1,.8,6.1,6.1,0,0,1,.7,1.4,11.2,11.2,0,0,1,.2,2,11,11,0,0,1-.2,1.8,6.4,6.4,0,0,1-.8,1.4,4,4,0,0,1-1.2,1,4.1,4.1,0,0,1-1.6.3l-1.4-.2-1-.8v3.9h-1.5V133.5h.9c.2,0,.3.1.4.3Zm.1,5.3a3.2,3.2,0,0,0,.9.8,3,3,0,0,0,3.1-.6,4.6,4.6,0,0,0,.6-2.5,6.6,6.6,0,0,0-.1-1.5,2.3,2.3,0,0,0-.5-1,1.3,1.3,0,0,0-.7-.6l-.9-.2a1.8,1.8,0,0,0-1.3.4,3.1,3.1,0,0,0-1.1.9Z" fill="#dec9a2"/><path d="M649.6,134.9a3.5,3.5,0,0,1,1.3-1.1,2.7,2.7,0,0,1,1.6-.4,3.2,3.2,0,0,1,1.4.3,2.1,2.1,0,0,1,1.1.8,5.9,5.9,0,0,1,.6,1.4,6,6,0,0,1,.3,2,5.7,5.7,0,0,1-.3,1.8,3.9,3.9,0,0,1-.8,1.4,4,4,0,0,1-1.2,1,3.7,3.7,0,0,1-1.5.3l-1.4-.2-1.1-.8v3.9h-1.5V133.5h.9c.2,0,.4.1.4.3Zm0,5.3a2.5,2.5,0,0,0,1,.8,2,2,0,0,0,1.1.2,2.4,2.4,0,0,0,1.9-.8,4.6,4.6,0,0,0,.7-2.5,6.1,6.1,0,0,0-.2-1.5,2.3,2.3,0,0,0-.4-1,1.9,1.9,0,0,0-.7-.6l-1-.2a2,2,0,0,0-1.3.4,4.4,4.4,0,0,0-1.1.9Z" fill="#dec9a2"/><path d="M659.4,129.5v12.8h-1.5V129.5Z" fill="#dec9a2"/><path d="M663.9,130.8a.8.8,0,0,1-.1.4l-.3.3-.3.3h-.9l-.3-.3c-.1-.1-.2-.2-.2-.3a.8.8,0,0,1-.1-.4.9.9,0,0,1,.1-.5c0-.1.1-.2.2-.3l.3-.3h.9l.3.3.3.3A.9.9,0,0,1,663.9,130.8Zm-.3,2.7v8.8H662v-8.8Z" fill="#dec9a2"/><path d="M673.2,141.1l-.7.6-.8.4-1,.2h-.9a4.7,4.7,0,0,1-1.7-.3,3,3,0,0,1-1.3-.9,3.8,3.8,0,0,1-.9-1.5,5.6,5.6,0,0,1-.3-2,4.7,4.7,0,0,1,.3-1.7,3.9,3.9,0,0,1,.8-1.4,3,3,0,0,1,1.3-.9,4.7,4.7,0,0,1,1.7-.3l1.5.2,1.1.8a5,5,0,0,1,.8,1.2,4.7,4.7,0,0,1,.3,1.7,2,2,0,0,1-.1.5h-6.2a6.1,6.1,0,0,0,.2,1.5l.6,1a1.8,1.8,0,0,0,.9.6l1.1.2h1l.7-.3.5-.3h.7ZM672,137a3,3,0,0,0-.2-1,2,2,0,0,0-.4-.8l-.7-.5-1-.2a2.1,2.1,0,0,0-1.7.7,2.5,2.5,0,0,0-.8,1.8Z" fill="#dec9a2"/><path d="M680.4,135l-.3.2h-.3l-.4-.3-.6-.2h-1.5l-.5.3-.4.4c0,.2-.1.3-.1.5a1.4,1.4,0,0,0,.2.6l.5.4.8.3.8.2.8.3.8.5c.2.1.3.4.5.6a2.9,2.9,0,0,1,.2.9,3.6,3.6,0,0,1-.2,1.1,2.2,2.2,0,0,1-.7.9,2.1,2.1,0,0,1-1,.6,3.4,3.4,0,0,1-1.5.2,4.1,4.1,0,0,1-1.6-.3l-1.3-.7.4-.6c0-.1.1-.1.1-.2h.6l.4.2.6.3h1.7l.6-.3.3-.5a.7.7,0,0,0,.1-.5c0-.3,0-.5-.2-.6a1,1,0,0,0-.5-.4l-.7-.3-.9-.3-.8-.3-.7-.4a2,2,0,0,1-.6-.7,3,3,0,0,1-.2-1,1.6,1.6,0,0,1,.3-.9,2.4,2.4,0,0,1,.6-.9l.9-.5a3.2,3.2,0,0,1,1.4-.2,3.7,3.7,0,0,1,1.5.3,2.4,2.4,0,0,1,1.2.7Z" fill="#dec9a2"/><path d="M649.9,176.6a58.4,58.4,0,0,1-7.3-.5l.4-2.6a52.2,52.2,0,0,0,6.9.4Zm4.3-.2-.2-2.6a50.7,50.7,0,0,0,6.8-1.1l.6,2.6A43.2,43.2,0,0,1,654.2,176.4Zm-18.7-1.8a51.3,51.3,0,0,1-6.9-2.5l1.1-2.4a50.2,50.2,0,0,0,6.5,2.3Zm32.9-1.3-.9-2.5a51.1,51.1,0,0,0,6.3-2.9l1.3,2.3A57.9,57.9,0,0,1,668.4,173.3Zm-46.3-4.6a41.9,41.9,0,0,1-5.9-4.2l1.7-2.1a53.4,53.4,0,0,0,5.6,4.1Zm59.1-2.4-1.6-2.1a46.5,46.5,0,0,0,5.3-4.5l1.9,1.9A42.2,42.2,0,0,1,681.2,166.3Zm-70.3-6.8a49.9,49.9,0,0,1-4.6-5.7l2.2-1.6a57.9,57.9,0,0,0,4.3,5.5Zm80.8-3.3-2.1-1.7a57.2,57.2,0,0,0,3.9-5.7l2.3,1.3A50,50,0,0,1,691.7,156.2Zm-89.1-8.7a56.5,56.5,0,0,1-2.9-6.7l2.5-.9c.8,2.2,1.7,4.3,2.7,6.4Zm96.4-3.9-2.5-1a56.7,56.7,0,0,0,2.2-6.6l2.6.6A57.3,57.3,0,0,1,699,143.6Zm-101.2-9.9q-.6-3.6-.9-7.2l2.7-.2a39.5,39.5,0,0,0,.9,6.9Zm104.8-4.2-2.7-.3a54,54,0,0,0,.3-5.6v-1.4h2.7v1.4C702.9,125.5,702.8,127.5,702.6,129.5ZM599.7,119.4l-2.7-.2a56.8,56.8,0,0,1,1.1-7.2l2.6.5A54.6,54.6,0,0,0,599.7,119.4Zm99.9-4.1c-.4-2.2-1-4.5-1.6-6.7l2.5-.8a56.5,56.5,0,0,1,1.7,7.1Zm-96.9-9.4-2.5-.9a57.9,57.9,0,0,1,3.1-6.7l2.3,1.3A45.1,45.1,0,0,0,602.7,105.9Zm92.7-3.8a43.6,43.6,0,0,0-3.3-6l2.2-1.5c1.3,2.1,2.5,4.2,3.6,6.4Zm-86.1-8.4-2.1-1.5a42.2,42.2,0,0,1,4.7-5.6l1.9,1.9A55.9,55.9,0,0,0,609.3,93.7Zm78.6-3.1a57.8,57.8,0,0,0-4.9-5l1.7-2a51.1,51.1,0,0,1,5.2,5.2ZM619,83.8l-1.6-2.1a63.4,63.4,0,0,1,6-4.1l1.3,2.4A43.5,43.5,0,0,0,619,83.8Zm58.4-2.3a35.6,35.6,0,0,0-6-3.4l1.1-2.5a66,66,0,0,1,6.4,3.6ZM631,76.9l-1-2.5a50.5,50.5,0,0,1,6.9-2.2l.6,2.5A49.7,49.7,0,0,0,631,76.9Zm33.9-1.4a50.3,50.3,0,0,0-6.7-1.6l.4-2.6a43.2,43.2,0,0,1,7.1,1.7Zm-20.5-2-.3-2.6a44.6,44.6,0,0,1,7.3-.3v2.6Z" fill="#dec9a2"/><path d="M649.1,156.6c-.7,0-.6.7-6.7,5.3s-13.7,1.5-14.9-2.9a7.2,7.2,0,0,1,1.7-7.1s-1.3,3.4,1.5,5,7.6-4.2,11.3-4.9,7.1,2.8,7.1,2.8S649.1,156.6,649.1,156.6Zm1.6,0c.7,0,.6.7,6.7,5.3s13.7,1.5,14.9-2.9a7.2,7.2,0,0,0-1.7-7.1s1.2,3.4-1.6,5-7.6-4.2-11.3-4.9-7,2.8-7,2.8S650.7,156.6,650.7,156.6Z" fill="#dec9a2"/></g><g id="Template_Do_Not_Touch" data-name="Template Do Not Touch"><path d="M48.4,210.4a4,4,0,0,1,3.1,1.5l-.8.5a3.2,3.2,0,0,0-2.3-1.1,3.1,3.1,0,0,0-3.1,3.3,3,3,0,0,0,3.1,3.2,3.1,3.1,0,0,0,2.1-.8v-1.7H47.8v-.8h3.7v2.9a4.1,4.1,0,0,1-3.1,1.3,3.9,3.9,0,0,1-4.1-4.1A4,4,0,0,1,48.4,210.4Z" fill="#231f20"/><path d="M53.1,212.8H54v.9a2.6,2.6,0,0,1,1.9-1v.9h-.3a2.1,2.1,0,0,0-1.6,1v4.1h-.9Z" fill="#231f20"/><path d="M59.6,212.6a2.9,2.9,0,0,1,2.8,3.1v.3H57.7a2,2,0,0,0,2.1,2,2.7,2.7,0,0,0,1.8-.8l.4.6a3.2,3.2,0,0,1-2.3.9,2.9,2.9,0,0,1-3-3A3,3,0,0,1,59.6,212.6Zm-1.9,2.7h3.8a1.9,1.9,0,0,0-3.8,0Z" fill="#231f20"/><path d="M64.1,220.1a.8.8,0,0,0,.9-.6l.4-.9L63,212.8h.9l2,4.7,1.9-4.7h1l-2.9,6.9a1.7,1.7,0,0,1-1.7,1.2h-.7V220Z" fill="#231f20"/><path d="M69.7,217.2a2.8,2.8,0,0,0,1.9.8c.9,0,1.3-.4,1.3-1s-.7-.8-1.4-1-2.1-.5-2.1-1.7.7-1.7,2.1-1.7a3,3,0,0,1,2.2.9l-.5.6a2.1,2.1,0,0,0-1.7-.7c-.8,0-1.3.3-1.3.8s.7.8,1.5,1,2.1.5,2.1,1.8-.8,1.7-2.3,1.7a3.2,3.2,0,0,1-2.3-.9Z" fill="#231f20"/><path d="M77.8,212.6a2.9,2.9,0,0,1,2.2,1l-.6.6a1.9,1.9,0,0,0-1.5-.8,2.1,2.1,0,0,0-2,2.3,2,2,0,0,0,2,2.2,1.8,1.8,0,0,0,1.5-.7l.6.5a2.6,2.6,0,0,1-2.2,1,2.8,2.8,0,0,1-2.8-3A2.9,2.9,0,0,1,77.8,212.6Z" fill="#231f20"/><path d="M84.8,217.9a2.4,2.4,0,0,1-1.9.8,1.9,1.9,0,1,1,0-3.8,2.1,2.1,0,0,1,1.9.8v-1.1a1.3,1.3,0,0,0-1.4-1.2,2.5,2.5,0,0,0-1.8.8l-.4-.6a3.3,3.3,0,0,1,2.3-1,1.9,1.9,0,0,1,2.2,2v4h-.9Zm0-1.6a1.8,1.8,0,0,0-1.5-.8,1.3,1.3,0,1,0,0,2.6,2,2,0,0,0,1.5-.7Z" fill="#231f20"/><path d="M87.6,210.6h.9v8h-.9Z" fill="#231f20"/><path d="M92.8,212.6a2.9,2.9,0,0,1,2.8,3.1v.3H90.9a1.9,1.9,0,0,0,2,2,2.3,2.3,0,0,0,1.8-.8l.5.6a3.2,3.2,0,0,1-2.3.9,2.9,2.9,0,0,1-3-3A3,3,0,0,1,92.8,212.6Zm-1.9,2.7h3.8a1.9,1.9,0,1,0-3.8,0Z" fill="#231f20"/><path d="M38.5,228.1a7.7,7.7,0,0,1,1.4-4.4l.5.4a8.5,8.5,0,0,0-1,4,8.6,8.6,0,0,0,1,4.1l-.5.4A7.7,7.7,0,0,1,38.5,228.1Z" fill="#231f20"/><path d="M41.3,223.9h.8v2.6a1.8,1.8,0,0,1,1.6-.9c1.3,0,2.2,1,2.2,2.6a2.2,2.2,0,0,1-2.2,2.5,2.1,2.1,0,0,1-1.6-.8v.7h-.8Zm2.2,6.1a1.6,1.6,0,0,0,1.6-1.8c0-1.1-.6-1.9-1.6-1.9a1.7,1.7,0,0,0-1.4.8v2.2A1.6,1.6,0,0,0,43.5,230Z" fill="#231f20"/><path d="M47.1,223.9h.7v6.7h-.7Z" fill="#231f20"/><path d="M52.3,230a1.9,1.9,0,0,1-1.6.7,1.6,1.6,0,0,1-1.6-1.6,1.5,1.5,0,0,1,1.6-1.6,1.8,1.8,0,0,1,1.6.7v-.9c0-.7-.5-1-1.2-1a2.2,2.2,0,0,0-1.5.6l-.3-.5a2.6,2.6,0,0,1,1.9-.8,1.7,1.7,0,0,1,1.9,1.7v3.3h-.8Zm0-1.4A1.5,1.5,0,0,0,51,228a1.1,1.1,0,1,0,0,2.2,1.5,1.5,0,0,0,1.3-.6Z" fill="#231f20"/><path d="M56.7,225.6a2.1,2.1,0,0,1,1.8.9l-.5.4a1.4,1.4,0,0,0-1.2-.6,1.7,1.7,0,0,0-1.7,1.9,1.7,1.7,0,0,0,1.7,1.8,1.4,1.4,0,0,0,1.2-.6l.5.5a2.4,2.4,0,0,1-1.8.8,2.4,2.4,0,0,1-2.4-2.5A2.4,2.4,0,0,1,56.7,225.6Z" fill="#231f20"/><path d="M61.1,228.4l-.8.8v1.4h-.8v-6.7h.8v4.4l2.5-2.6h1l-2.2,2.2,2.2,2.7h-1Z" fill="#231f20"/><path d="M72.6,230.6h-1l-.7-.7a2.6,2.6,0,0,1-1.9.8,1.8,1.8,0,0,1-2.1-1.9c0-1,.7-1.5,1.5-2a2.4,2.4,0,0,1-.6-1.4,1.7,1.7,0,0,1,1.7-1.6,1.3,1.3,0,0,1,1.5,1.3c0,1-.8,1.5-1.7,1.9l.8.9a3.6,3.6,0,0,0,.8.9,4,4,0,0,0,.7-1.5l.7.3a15.1,15.1,0,0,1-1,1.7A15.9,15.9,0,0,1,72.6,230.6Zm-2.2-1.2-.9-1a4.4,4.4,0,0,1-.8-1.1,1.8,1.8,0,0,0-1,1.5,1.3,1.3,0,0,0,1.3,1.3A1.9,1.9,0,0,0,70.4,229.4ZM69,226.5c.7-.3,1.3-.7,1.3-1.4a.7.7,0,0,0-.8-.7.9.9,0,0,0-.9,1A3,3,0,0,0,69,226.5Z" fill="#231f20"/><path d="M79.2,226.7l-1.3,3.9h-.7l-1.6-4.9h.8l1.2,3.9,1.3-3.9h.6l1.3,3.9,1.1-3.9h.8l-1.5,4.9h-.8Z" fill="#231f20"/><path d="M86.9,227.4c0-.9-.5-1.1-1.1-1.1a2.4,2.4,0,0,0-1.5.7v3.6h-.7v-6.7h.7v2.5a2.5,2.5,0,0,1,1.8-.8c1,0,1.5.5,1.5,1.6v3.4h-.7Z" fill="#231f20"/><path d="M89,224.5a.5.5,0,0,1,1,0,.5.5,0,0,1-1,0Zm.1,1.2h.8v4.9h-.8Z" fill="#231f20"/><path d="M91.5,229.6v-3.2h-.8v-.7h.8v-1.3h.8v1.3h.9v.7h-.9v3c0,.4.1.6.5.6l.5-.2.2.6a1.2,1.2,0,0,1-.9.3A1,1,0,0,1,91.5,229.6Z" fill="#231f20"/><path d="M96.4,225.6a2.3,2.3,0,0,1,2.3,2.6v.2H94.8a1.8,1.8,0,0,0,1.8,1.7,1.8,1.8,0,0,0,1.4-.6l.4.5a2.9,2.9,0,0,1-1.9.7,2.4,2.4,0,0,1-2.5-2.5A2.5,2.5,0,0,1,96.4,225.6Zm-1.6,2.3H98a1.6,1.6,0,0,0-1.6-1.7A1.7,1.7,0,0,0,94.8,227.9Z" fill="#231f20"/><path d="M99.4,224.1l.4-.4a7.7,7.7,0,0,1,1.4,4.4,7.7,7.7,0,0,1-1.4,4.5l-.4-.4a8.6,8.6,0,0,0,1-4.1A8.5,8.5,0,0,0,99.4,224.1Z" fill="#231f20"/><rect x="64.9" y="242.5" width="10" height="10" fill="#231f20"/><path d="M419,214.6a4,4,0,0,1,4.1-4.2,3.5,3.5,0,0,1,3,1.6l-.8.5a2.7,2.7,0,0,0-2.2-1.2,3.2,3.2,0,0,0-3.1,3.3,3.1,3.1,0,0,0,3.1,3.2,2.7,2.7,0,0,0,2.2-1.1l.9.4a3.8,3.8,0,0,1-3.1,1.6A4,4,0,0,1,419,214.6Z" fill="#231f20"/><path d="M434.3,211.9l-2.8,6.7h-.4l-2.7-6.7v6.7h-1v-8h1.5l2.4,6.1,2.5-6.1h1.5v8h-1Z" fill="#231f20"/><path d="M439.5,215.2l-3.2-4.6h1.2l2.5,3.7,2.4-3.7h1.2l-3.1,4.6v3.4h-1Z" fill="#231f20"/><path d="M446.5,215l-.9.9v2.7h-.9v-8h.9v4.1l3.6-4.1h1.2l-3.3,3.8,3.6,4.2h-1.2Z" fill="#231f20"/><path d="M454.6,214.6a4,4,0,0,1,4.1-4.2,3.7,3.7,0,0,1,3.1,1.6l-.9.5a2.5,2.5,0,0,0-2.2-1.2,3.1,3.1,0,0,0-3,3.3,3,3,0,0,0,3,3.2,2.4,2.4,0,0,0,2.2-1.1l.9.4a3.7,3.7,0,0,1-3.1,1.6A4,4,0,0,1,454.6,214.6Z" fill="#231f20"/><path d="M462.7,215.7a2.9,2.9,0,1,1,5.7,0,2.9,2.9,0,1,1-5.7,0Zm4.8,0a2,2,0,1,0-3.9,0,2,2,0,1,0,3.9,0Z" fill="#231f20"/><path d="M469.9,210.6h.9v8h-.9Z" fill="#231f20"/><path d="M472.3,215.7a2.9,2.9,0,1,1,5.7,0,2.9,2.9,0,1,1-5.7,0Zm4.7,0c0-1.2-.6-2.3-1.9-2.3a2.1,2.1,0,0,0-1.9,2.3,2,2,0,0,0,1.9,2.2C476.4,217.9,477,216.9,477,215.7Z" fill="#231f20"/><path d="M483.4,217.8a2.9,2.9,0,0,1-2.1.9,1.6,1.6,0,0,1-1.8-1.8v-4.1h.9v3.8c0,1,.5,1.3,1.3,1.3a2.2,2.2,0,0,0,1.7-.9v-4.2h.9v5.8h-.9Z" fill="#231f20"/><path d="M486.1,212.8h.9v.9a2.3,2.3,0,0,1,1.9-1v.9h-.4a2,2,0,0,0-1.5,1v4.1h-.9Z" fill="#231f20"/><path d="M490,217.2a2.8,2.8,0,0,0,1.9.8c.9,0,1.4-.4,1.4-1s-.7-.8-1.5-1-2.1-.5-2.1-1.7a1.9,1.9,0,0,1,2.1-1.7,3,3,0,0,1,2.2.9l-.4.6a2.5,2.5,0,0,0-1.8-.7c-.7,0-1.2.3-1.2.8s.6.8,1.4,1,2.2.5,2.2,1.8-.8,1.7-2.3,1.7a3.2,3.2,0,0,1-2.4-.9Z" fill="#231f20"/><path d="M426.2,228.1a7.7,7.7,0,0,1,1.4-4.4l.5.4a7.5,7.5,0,0,0-1.1,4,7.6,7.6,0,0,0,1.1,4.1l-.5.4A7.7,7.7,0,0,1,426.2,228.1Z" fill="#231f20"/><path d="M429,225.7h.8v.8a1.9,1.9,0,0,1,1.6-.9v.8h-.3a1.7,1.7,0,0,0-1.3.8v3.4H429Z" fill="#231f20"/><path d="M432,228.2a2.4,2.4,0,1,1,4.8,0,2.4,2.4,0,1,1-4.8,0Zm4,0a1.6,1.6,0,1,0-3.2,0,1.6,1.6,0,1,0,3.2,0Z" fill="#231f20"/><path d="M441.3,229.9a2.5,2.5,0,0,1-1.7.8,1.4,1.4,0,0,1-1.6-1.5v-3.5h.8v3.2c0,.9.4,1.1,1.1,1.1a1.9,1.9,0,0,0,1.4-.7v-3.6h.7v4.9h-.7Z" fill="#231f20"/><path d="M446.8,227.4a1,1,0,0,0-1.1-1.1,2.1,2.1,0,0,0-1.4.7v3.6h-.8v-4.9h.8v.7a2.3,2.3,0,0,1,1.7-.8c1,0,1.5.5,1.5,1.6v3.4h-.7Z" fill="#231f20"/><path d="M452.5,229.9a2.1,2.1,0,0,1-1.6.8,2.2,2.2,0,0,1-2.1-2.5c0-1.6.8-2.6,2.1-2.6a1.7,1.7,0,0,1,1.6.9v-2.6h.8v6.7h-.8Zm0-2.8a1.7,1.7,0,0,0-1.4-.8c-1,0-1.6.8-1.6,1.9a1.6,1.6,0,0,0,1.6,1.8,1.6,1.6,0,0,0,1.4-.7Z" fill="#231f20"/><path d="M456.7,225.7h.8l1.6,4,1.6-4h.8l-2,4.9h-.8Z" fill="#231f20"/><path d="M465.3,230a2,2,0,0,1-1.6.7,1.7,1.7,0,0,1-1.7-1.6,1.6,1.6,0,0,1,1.7-1.6,1.9,1.9,0,0,1,1.6.7v-.9c0-.7-.5-1-1.2-1a2,2,0,0,0-1.5.6l-.4-.5a3,3,0,0,1,2-.8,1.6,1.6,0,0,1,1.8,1.7v3.3h-.7Zm0-1.4a1.6,1.6,0,0,0-1.3-.6,1.1,1.1,0,1,0,0,2.2,1.6,1.6,0,0,0,1.3-.6Z" fill="#231f20"/><path d="M467.5,223.9h.8v6.7h-.8Z" fill="#231f20"/><path d="M473.1,229.9a2.5,2.5,0,0,1-1.8.8,1.3,1.3,0,0,1-1.5-1.5v-3.5h.7v3.2c0,.9.5,1.1,1.1,1.1a2,2,0,0,0,1.5-.7v-3.6h.7v4.9h-.7Z" fill="#231f20"/><path d="M477.4,225.6a2.3,2.3,0,0,1,2.3,2.6v.2h-3.9a1.8,1.8,0,0,0,1.8,1.7,1.8,1.8,0,0,0,1.4-.6l.4.5a2.9,2.9,0,0,1-1.9.7,2.4,2.4,0,0,1-2.5-2.5A2.5,2.5,0,0,1,477.4,225.6Zm-1.6,2.3H479a1.6,1.6,0,0,0-1.6-1.7A1.7,1.7,0,0,0,475.8,227.9Z" fill="#231f20"/><path d="M480.9,229.4a2,2,0,0,0,1.6.7c.7,0,1.1-.3,1.1-.8s-.6-.7-1.2-.9-1.8-.4-1.8-1.4a1.6,1.6,0,0,1,1.8-1.4,2.3,2.3,0,0,1,1.8.7l-.3.5a2.1,2.1,0,0,0-1.5-.6c-.6,0-1,.3-1,.8s.5.6,1.2.7,1.8.5,1.8,1.5-.7,1.5-1.9,1.5a2.4,2.4,0,0,1-2-.8Z" fill="#231f20"/><path d="M485,224.1l.5-.4a7.7,7.7,0,0,1,1.4,4.4,7.7,7.7,0,0,1-1.4,4.5l-.5-.4a7.6,7.6,0,0,0,1.1-4.1A7.5,7.5,0,0,0,485,224.1Z" fill="#231f20"/><rect x="444.1" y="247.5" width="10" height="10" fill="#5f162b" stroke="#5f162b" stroke-miterlimit="10"/><rect x="459" y="247.5" width="10" height="10" fill="#f4efcb" stroke="#f4efcb" stroke-miterlimit="10"/><path d="M230.2,216.7a3.3,3.3,0,0,0,2.5,1.1c1.5,0,1.9-.7,1.9-1.3s-1-1.3-2-1.6-2.7-.7-2.7-2.2,1.1-2.2,2.7-2.2a4,4,0,0,1,2.9,1.1l-.6.7a3.1,3.1,0,0,0-2.4-1,1.5,1.5,0,0,0-1.6,1.3c0,.8.9,1.1,1.9,1.3s2.8.8,2.8,2.5-.7,2.3-2.9,2.3a3.9,3.9,0,0,1-3.1-1.3Z" fill="#231f20"/><path d="M237.1,220.8v-8h.9v.8a2.6,2.6,0,0,1,2-1c1.5,0,2.5,1.2,2.5,3.1s-1,3-2.5,3a2.6,2.6,0,0,1-2-1v3.1Zm2.6-7.4a2.2,2.2,0,0,0-1.7,1V217a2.1,2.1,0,0,0,1.7.9c1.2,0,1.9-.9,1.9-2.2S240.9,213.4,239.7,213.4Z" fill="#231f20"/><path d="M243.6,215.7a3,3,0,0,1,2.9-3.1,2.9,2.9,0,0,1,2.9,3.1,2.8,2.8,0,0,1-2.9,3A2.9,2.9,0,0,1,243.6,215.7Zm4.8,0c0-1.2-.6-2.3-1.9-2.3a2.1,2.1,0,0,0-1.9,2.3,2,2,0,0,0,1.9,2.2C247.8,217.9,248.4,216.9,248.4,215.7Z" fill="#231f20"/><path d="M251,217.4v-3.8h-.9v-.8h.9v-1.6h.9v1.6h1.2v.8h-1.2v3.6c0,.4.2.7.6.7a.8.8,0,0,0,.6-.2l.3.6a1.2,1.2,0,0,1-1.1.4A1.2,1.2,0,0,1,251,217.4Z" fill="#231f20"/><path d="M257.2,214.6a4,4,0,0,1,4.1-4.2,3.5,3.5,0,0,1,3,1.6l-.8.5a2.7,2.7,0,0,0-2.2-1.2,3.1,3.1,0,0,0-3.1,3.3,3,3,0,0,0,3.1,3.2,2.7,2.7,0,0,0,2.2-1.1l.8.4a3.5,3.5,0,0,1-3,1.6A4,4,0,0,1,257.2,214.6Z" fill="#231f20"/><path d="M265.2,215.7a3,3,0,0,1,2.9-3.1,2.9,2.9,0,0,1,2.9,3.1,2.8,2.8,0,0,1-2.9,3A2.9,2.9,0,0,1,265.2,215.7Zm4.8,0c0-1.2-.6-2.3-1.9-2.3a2.1,2.1,0,0,0-1.9,2.3,2,2,0,0,0,1.9,2.2C269.4,217.9,270,216.9,270,215.7Z" fill="#231f20"/><path d="M272.4,210.6h.9v8h-.9Z" fill="#231f20"/><path d="M274.8,215.7a2.9,2.9,0,1,1,5.7,0,2.9,2.9,0,1,1-5.7,0Zm4.8,0a2,2,0,1,0-3.9,0,2,2,0,1,0,3.9,0Z" fill="#231f20"/><path d="M285.9,217.8a2.7,2.7,0,0,1-2,.9,1.7,1.7,0,0,1-1.9-1.8v-4.1h.9v3.8c0,1,.5,1.3,1.3,1.3a2.1,2.1,0,0,0,1.7-.9v-4.2h.9v5.8h-.9Z" fill="#231f20"/><path d="M288.6,212.8h.9v.9a2.6,2.6,0,0,1,2-1v.9h-.4a2.1,2.1,0,0,0-1.6,1v4.1h-.9Z" fill="#231f20"/><path d="M292.6,217.2a2.6,2.6,0,0,0,1.9.8c.8,0,1.3-.4,1.3-1s-.7-.8-1.5-1-2.1-.5-2.1-1.7.8-1.7,2.2-1.7a2.6,2.6,0,0,1,2.1.9l-.4.6a2.2,2.2,0,0,0-1.7-.7c-.8,0-1.3.3-1.3.8s.7.8,1.4,1,2.2.5,2.2,1.8-.8,1.7-2.3,1.7a3.2,3.2,0,0,1-2.3-.9Z" fill="#231f20"/><path d="M235.4,223.4h2.4a1.8,1.8,0,1,1,0,3.6h-1.7v2.4h-.7Zm2.3.6h-1.6v2.3h1.6a1.1,1.1,0,0,0,1.2-1.1A1.2,1.2,0,0,0,237.7,224Z" fill="#8c2332"/><path d="M243.2,228.9a2,2,0,0,1-1.5.6,1.5,1.5,0,0,1-1.5-1.5,1.4,1.4,0,0,1,1.5-1.4,2,2,0,0,1,1.5.6v-.8c0-.6-.5-.9-1.1-.9a1.8,1.8,0,0,0-1.4.6l-.3-.5a2.6,2.6,0,0,1,1.7-.7c1,0,1.7.4,1.7,1.5v3h-.6Zm0-1.3a1.8,1.8,0,0,0-1.2-.5,1,1,0,0,0-1.1,1c0,.5.4.9,1.1.9a1.8,1.8,0,0,0,1.2-.5Z" fill="#8c2332"/><path d="M248.1,226.5a.9.9,0,0,0-1-1,1.4,1.4,0,0,0-1.2.7v3.2h-.7V225h.7v.7a2,2,0,0,1,1.5-.8,1.3,1.3,0,0,1,1.4,1.4v3.1h-.7Z" fill="#8c2332"/><path d="M250.3,228.5v-2.9h-.8V225h.8v-1.2h.6V225h.9v.6h-.9v2.7a.6.6,0,0,0,.5.6c.2,0,.4-.1.4-.2l.2.5c-.1.2-.4.3-.8.3S250.3,229.1,250.3,228.5Z" fill="#8c2332"/><path d="M252.5,227.2a2.2,2.2,0,0,1,2.2-2.3,2.3,2.3,0,0,1,0,4.6A2.2,2.2,0,0,1,252.5,227.2Zm3.6,0a1.5,1.5,0,0,0-1.4-1.7,1.7,1.7,0,0,0,0,3.4A1.5,1.5,0,0,0,256.1,227.2Z" fill="#8c2332"/><path d="M260.9,226.5a.9.9,0,0,0-1-1,1.7,1.7,0,0,0-1.3.7v3.2h-.7V225h.7v.7a2.1,2.1,0,0,1,1.6-.8c.9,0,1.3.5,1.3,1.4v3.1h-.6Z" fill="#8c2332"/><path d="M264.8,224.9a2.1,2.1,0,0,1,2.1,2.3v.2h-3.6a1.6,1.6,0,0,0,1.6,1.5,2.4,2.4,0,0,0,1.4-.5l.3.4a2.7,2.7,0,0,1-1.8.7,2.3,2.3,0,0,1,0-4.6Zm-1.5,2h2.9a1.4,1.4,0,0,0-1.4-1.4A1.5,1.5,0,0,0,263.3,226.9Z" fill="#8c2332"/><path d="M270.1,228.8c2.1-1.7,3.3-2.7,3.3-3.8a1.1,1.1,0,0,0-1.2-1.1,2.3,2.3,0,0,0-1.7.8l-.4-.5a2.5,2.5,0,0,1,2.1-.9c1,0,2,.5,2,1.7s-1.3,2.4-2.9,3.7h2.9v.7h-4.1Z" fill="#8c2332"/><path d="M277.6,223.3c1.7,0,2.3,1.6,2.3,3.1s-.6,3.1-2.3,3.1-2.2-1.7-2.2-3.1S276,223.3,277.6,223.3Zm0,.6c-1.1,0-1.5,1.3-1.5,2.5s.4,2.4,1.5,2.4,1.6-1.2,1.6-2.4S278.8,223.9,277.6,223.9Z" fill="#8c2332"/><path d="M280.9,228.8c2.1-1.7,3.3-2.7,3.3-3.8a1.1,1.1,0,0,0-1.2-1.1,2.3,2.3,0,0,0-1.7.8l-.4-.5a2.5,2.5,0,0,1,2.1-.9c1,0,2,.5,2,1.7s-1.3,2.4-2.9,3.7H285v.7h-4.1Z" fill="#8c2332"/><path d="M286.2,226.4a2.9,2.9,0,0,1,3-3.1,2.7,2.7,0,0,1,2.3,1.2l-.6.3a2.2,2.2,0,0,0-1.7-.9,2.3,2.3,0,0,0-2.3,2.5,2.3,2.3,0,0,0,2.3,2.4,2,2,0,0,0,1.7-.9l.6.4a2.7,2.7,0,0,1-2.3,1.2A3,3,0,0,1,286.2,226.4Z" fill="#8c2332"/><path d="M235.6,234.2H238a1.8,1.8,0,1,1,0,3.6h-1.6v2.4h-.8Zm2.3.6h-1.5v2.3h1.5c.8,0,1.2-.4,1.2-1.1A1.1,1.1,0,0,0,237.9,234.8Z" fill="#dfc9a2"/><path d="M243.4,239.7a1.7,1.7,0,0,1-1.4.6,1.4,1.4,0,0,1-1.5-1.5,1.4,1.4,0,0,1,1.5-1.4,1.7,1.7,0,0,1,1.4.6v-.8c0-.6-.5-.9-1.1-.9a1.8,1.8,0,0,0-1.3.6l-.3-.5a2.4,2.4,0,0,1,1.7-.7c.9,0,1.7.4,1.7,1.5v3h-.7Zm0-1.3a1.5,1.5,0,0,0-1.2-.5,1,1,0,1,0,0,1.9,1.5,1.5,0,0,0,1.2-.5Z" fill="#dfc9a2"/><path d="M248.4,237.3a.9.9,0,0,0-1-1,1.7,1.7,0,0,0-1.3.7v3.2h-.7v-4.4h.7v.7a2.1,2.1,0,0,1,1.6-.8c.9,0,1.3.5,1.3,1.4v3.1h-.6Z" fill="#dfc9a2"/><path d="M250.5,239.3v-2.9h-.7v-.6h.7v-1.2h.7v1.2h.9v.6h-.9v2.7c0,.3.2.6.4.6l.5-.2.2.5a1,1,0,0,1-.8.3A.9.9,0,0,1,250.5,239.3Z" fill="#dfc9a2"/><path d="M252.8,238a2.1,2.1,0,0,1,2.1-2.3,2.3,2.3,0,0,1,0,4.6A2.1,2.1,0,0,1,252.8,238Zm3.6,0a1.5,1.5,0,1,0-1.5,1.7A1.5,1.5,0,0,0,256.4,238Z" fill="#dfc9a2"/><path d="M261.1,237.3a.9.9,0,0,0-.9-1,1.4,1.4,0,0,0-1.3.7v3.2h-.7v-4.4h.7v.7a2,2,0,0,1,1.5-.8,1.3,1.3,0,0,1,1.4,1.4v3.1h-.7Z" fill="#dfc9a2"/><path d="M265,235.7c1.4,0,2.1,1,2.1,2.4h-3.5a1.6,1.6,0,0,0,1.6,1.5,1.9,1.9,0,0,0,1.3-.5l.3.4a2.4,2.4,0,0,1-1.7.7,2.1,2.1,0,0,1-2.2-2.3A2.2,2.2,0,0,1,265,235.7Zm-1.4,2h2.9a1.4,1.4,0,0,0-1.5-1.4A1.4,1.4,0,0,0,263.6,237.7Z" fill="#dfc9a2"/><path d="M273,238.7h-2.8V238l2.5-3.8h1.1V238h.8v.7h-.8v1.5H273Zm-2.1-.7H273v-3.1Z" fill="#dfc9a2"/><path d="M277.8,234.1a1.9,1.9,0,0,1,1.6.7l-.3.6a1.6,1.6,0,0,0-1.3-.7c-1.2,0-1.7,1.2-1.7,2.4v.2a2.2,2.2,0,0,1,1.7-.9,1.8,1.8,0,0,1,2,1.9,2,2,0,0,1-2.1,2c-1.7,0-2.4-1.5-2.4-3.1S276.1,234.1,277.8,234.1Zm-.2,3a1.8,1.8,0,0,0-1.5.9c.1.7.5,1.6,1.5,1.6a1.3,1.3,0,0,0,1.4-1.3C279,237.5,278.4,237.1,277.6,237.1Z" fill="#dfc9a2"/><path d="M282.1,237.1a1.6,1.6,0,0,1-1.3-1.5c0-1,1-1.5,2-1.5s2.1.5,2.1,1.5a1.7,1.7,0,0,1-1.4,1.5,1.8,1.8,0,0,1,1.5,1.6c0,1-1,1.6-2.2,1.6s-2.1-.6-2.1-1.6A1.8,1.8,0,0,1,282.1,237.1Zm.7.3c-.3.1-1.4.4-1.4,1.2s.7,1,1.4,1,1.4-.4,1.4-1S283.2,237.5,282.8,237.4Zm0-2.7c-.7,0-1.3.4-1.3,1s1,1,1.3,1.1,1.3-.3,1.3-1.1S283.5,234.7,282.8,234.7Z" fill="#dfc9a2"/><path d="M285.9,237.2a3,3,0,0,1,3.1-3.1,2.8,2.8,0,0,1,2.3,1.2l-.7.3a1.9,1.9,0,0,0-1.6-.9,2.3,2.3,0,0,0-2.3,2.5,2.3,2.3,0,0,0,2.3,2.4,1.7,1.7,0,0,0,1.6-.9l.7.4a2.8,2.8,0,0,1-2.3,1.2A3.1,3.1,0,0,1,285.9,237.2Z" fill="#dfc9a2"/><rect x="250.8" y="247.5" width="10" height="10" fill="#5f162b" stroke="#5f162b" stroke-miterlimit="10"/><polygon points="256.3 257.5 260.8 253 260.8 257.5 256.3 257.5" fill="#fff" stroke="#231f20" stroke-miterlimit="10" stroke-width="0.25"/><circle cx="259.4" cy="256.1" r="0.5" fill="#231f20"/><rect x="265.6" y="247.5" width="10" height="10" fill="#f4efcb" stroke="#f4efcb" stroke-miterlimit="10"/><polygon points="271.1 257.5 275.6 253 275.6 257.5 271.1 257.5" fill="#fff" stroke="#231f20" stroke-miterlimit="10" stroke-width="0.25"/><circle cx="274.3" cy="256.1" r="0.5" fill="#231f20"/><rect x="250.8" y="247.5" width="10" height="10" fill="#5f162b" stroke="#5f162b" stroke-miterlimit="10"/><polygon points="256.3 257.5 260.8 253 260.8 257.5 256.3 257.5" fill="#fff" stroke="#231f20" stroke-miterlimit="10" stroke-width="0.25"/><circle cx="259.4" cy="256.1" r="0.5" fill="#231f20"/><rect x="265.6" y="247.5" width="10" height="10" fill="#f4efcb" stroke="#f4efcb" stroke-miterlimit="10"/><polygon points="271.1 257.5 275.6 253 275.6 257.5 271.1 257.5" fill="#fff" stroke="#231f20" stroke-miterlimit="10" stroke-width="0.25"/><circle cx="274.3" cy="256.1" r="0.5" fill="#231f20"/><path d="M43.5,9.6H39.1V6h13V9.6H47.7V22H43.5Z" fill="#231f20"/><path d="M54.5,23.5c.9,0,1.4-.2,1.6-.7l.3-.6L51.8,10.5h3.8l2.7,7.3,2.6-7.3h3.9L59.6,23.7c-1,2.4-2.7,3-4.9,3H53.1l.5-3.3Z" fill="#231f20"/><path d="M65.9,26.5v-16h3.7v1.3A4.3,4.3,0,0,1,73,10.2c2.9,0,5.1,2.1,5.1,6s-2.2,6.1-5.1,6.1a4.4,4.4,0,0,1-3.4-1.6v5.8Zm5.9-13.1a3.1,3.1,0,0,0-2.2,1.1V18a3.1,3.1,0,0,0,2.2,1.1,2.6,2.6,0,0,0,2.6-2.9A2.6,2.6,0,0,0,71.8,13.4Z" fill="#231f20"/><path d="M85.5,10.2c3.4,0,5.9,2.5,5.9,6.4v.8H83.1a2.9,2.9,0,0,0,3,2.1,4.3,4.3,0,0,0,2.8-1l1.6,2.3a7.9,7.9,0,0,1-4.9,1.5c-3.5,0-6.3-2.3-6.3-6.1A6,6,0,0,1,85.5,10.2ZM83.1,15h4.8a2.2,2.2,0,0,0-2.4-2A2.3,2.3,0,0,0,83.1,15Z" fill="#231f20"/><path d="M93.8,18a6.8,6.8,0,0,0,4.1,1.5c1.1,0,1.5-.3,1.5-.8s-.8-.8-2-1-4.7-.8-4.7-3.7,1.7-3.8,4.9-3.8a8.4,8.4,0,0,1,4.9,1.5l-1.4,2.4a5.5,5.5,0,0,0-3.4-1.2c-.9,0-1.5.3-1.5.8s.6.7,1.9.9,4.8.8,4.8,3.9-1.9,3.8-5.2,3.8a9.5,9.5,0,0,1-5.5-1.7Z" fill="#231f20"/><path d="M110.2,16.2a6,6,0,0,1,6.3-6c4,0,6.4,2.8,6.4,6a6.4,6.4,0,0,1-12.7,0Zm8.9,0a2.6,2.6,0,1,0-5.1,0c0,1.6.9,2.9,2.5,2.9A2.6,2.6,0,0,0,119.1,16.2Z" fill="#231f20"/><path d="M125.6,13.7h-1.9V10.5h1.9V9.9a4,4,0,0,1,4.2-4.1,5.4,5.4,0,0,1,2.4.5l-.7,2.5-.9-.2a1.2,1.2,0,0,0-1.3,1.4v.5h2.4v3.2h-2.4V22h-3.7Z" fill="#231f20"/><path d="M140.5,16.7a7.3,7.3,0,0,0,5.1,2.1c1.4,0,2.3-.6,2.3-1.4s-1.1-1.2-2.8-1.6-6.3-1.2-6.3-5,2.3-5,6.4-5A10.2,10.2,0,0,1,151.7,8l-2.3,3a7.4,7.4,0,0,0-4.5-1.7c-1.4,0-1.9.6-1.9,1.3s1,1.1,2.8,1.4,6.3,1.4,6.3,5-2.4,5.3-6.7,5.3a9.8,9.8,0,0,1-7.1-2.5Z" fill="#ed1c24"/><path d="M161.9,14.9,159.8,22h-4l-3.5-11.5h3.8l1.9,7.1,2.3-7.1h3.3l2.3,7.1,1.8-7.1h3.8L168.1,22h-4Z" fill="#ec008c"/><path d="M179.6,20.9a4.9,4.9,0,0,1-3.6,1.4,3.8,3.8,0,0,1-4-3.8c0-2.8,2.2-3.6,4-3.6a4.5,4.5,0,0,1,3.6,1.3V14.7c0-1-.9-1.6-2.4-1.6a5,5,0,0,0-3.3,1.2L172.6,12a8,8,0,0,1,5.2-1.8c2.8,0,5.4,1,5.4,4.6V22h-3.6Zm0-2.9a2.9,2.9,0,0,0-2.1-.8c-1,0-1.9.5-1.9,1.4s.9,1.3,1.9,1.3a2.9,2.9,0,0,0,2.1-.8Z" fill="#00a651"/><path d="M186.7,18.9V13.7h-1.9V10.5h1.9V7.3h3.7v3.2h2.3v3.2h-2.3v4.2c0,.7.4,1.2,1,1.2a1.6,1.6,0,0,0,.9-.3l.8,2.8a4.5,4.5,0,0,1-2.8.7C188,22.3,186.7,21.2,186.7,18.9Z" fill="#00aeef"/><path d="M200.1,10.2a5.7,5.7,0,0,1,4.8,2.1l-2.4,2.2a2.8,2.8,0,0,0-2.2-1.1,2.7,2.7,0,0,0-2.7,2.8,2.7,2.7,0,0,0,2.7,2.9,2.6,2.6,0,0,0,2.2-1.2l2.4,2.3a5.7,5.7,0,0,1-4.8,2.1,5.9,5.9,0,0,1-6.3-6.1C193.8,12.6,196.5,10.2,200.1,10.2Z" fill="#2e3192"/><path d="M214.4,15.3c0-1.4-.7-1.9-1.9-1.9a2.6,2.6,0,0,0-2.2,1.2V22h-3.7V6h3.7v5.9a5.4,5.4,0,0,1,4-1.7c2.6,0,3.8,1.5,3.8,3.6V22h-3.7Z" fill="#ef4136"/><path d="M226.2,10.2c3.5,0,6,2.5,6,6.4v.8h-8.3a2.8,2.8,0,0,0,3,2.1,4.5,4.5,0,0,0,2.8-1l1.5,2.3a7.4,7.4,0,0,1-4.8,1.5c-3.6,0-6.3-2.3-6.3-6.1A5.9,5.9,0,0,1,226.2,10.2ZM223.9,15h4.7a2.2,2.2,0,0,0-2.4-2A2.2,2.2,0,0,0,223.9,15Z" fill="#fbb040"/><path d="M234.5,18a7,7,0,0,0,4.1,1.5c1.1,0,1.6-.3,1.6-.8s-.8-.8-2-1-4.8-.8-4.8-3.7,1.8-3.8,5-3.8a8.1,8.1,0,0,1,4.8,1.5l-1.4,2.4a5.5,5.5,0,0,0-3.4-1.2c-.8,0-1.4.3-1.4.8s.6.7,1.8.9,4.9.8,4.9,3.9-1.9,3.8-5.3,3.8a9.1,9.1,0,0,1-5.4-1.7Z" fill="#8dc63f"/><rect width="28.8" height="28.8" fill="#f08222"/><rect x="1.8" y="1.8" width="25.2" height="25.2" fill="#21160d"/><path d="M10.6,15.7h2.9L12,9.9ZM15.2,22l-1.1-3.7H10L8.9,22H6.2L10.1,8.7V7.3h3.7L18.2,22Z" fill="#f08222"/><rect x="19.6" y="10.8" width="3" height="11.23" fill="#f08222"/><ellipse cx="21.1" cy="8.3" rx="1.5" ry="1.5" fill="#f08222"/><path d="M43.5,9.6H39.1V6h13V9.6H47.7V22H43.5Z" fill="#231f20"/><path d="M54.5,23.5c.9,0,1.4-.2,1.6-.7l.3-.6L51.8,10.5h3.8l2.7,7.3,2.6-7.3h3.9L59.6,23.7c-1,2.4-2.7,3-4.9,3H53.1l.5-3.3Z" fill="#231f20"/><path d="M65.9,26.5v-16h3.7v1.3A4.3,4.3,0,0,1,73,10.2c2.9,0,5.1,2.1,5.1,6s-2.2,6.1-5.1,6.1a4.4,4.4,0,0,1-3.4-1.6v5.8Zm5.9-13.1a3.1,3.1,0,0,0-2.2,1.1V18a3.1,3.1,0,0,0,2.2,1.1,2.6,2.6,0,0,0,2.6-2.9A2.6,2.6,0,0,0,71.8,13.4Z" fill="#231f20"/><path d="M85.5,10.2c3.4,0,5.9,2.5,5.9,6.4v.8H83.1a2.9,2.9,0,0,0,3,2.1,4.3,4.3,0,0,0,2.8-1l1.6,2.3a7.9,7.9,0,0,1-4.9,1.5c-3.5,0-6.3-2.3-6.3-6.1A6,6,0,0,1,85.5,10.2ZM83.1,15h4.8a2.2,2.2,0,0,0-2.4-2A2.3,2.3,0,0,0,83.1,15Z" fill="#231f20"/><path d="M93.8,18a6.8,6.8,0,0,0,4.1,1.5c1.1,0,1.5-.3,1.5-.8s-.8-.8-2-1-4.7-.8-4.7-3.7,1.7-3.8,4.9-3.8a8.4,8.4,0,0,1,4.9,1.5l-1.4,2.4a5.5,5.5,0,0,0-3.4-1.2c-.9,0-1.5.3-1.5.8s.6.7,1.9.9,4.8.8,4.8,3.9-1.9,3.8-5.2,3.8a9.5,9.5,0,0,1-5.5-1.7Z" fill="#231f20"/><path d="M110.2,16.2a6,6,0,0,1,6.3-6c4,0,6.4,2.8,6.4,6a6.4,6.4,0,0,1-12.7,0Zm8.9,0a2.6,2.6,0,1,0-5.1,0c0,1.6.9,2.9,2.5,2.9A2.6,2.6,0,0,0,119.1,16.2Z" fill="#231f20"/><path d="M125.6,13.7h-1.9V10.5h1.9V9.9a4,4,0,0,1,4.2-4.1,5.4,5.4,0,0,1,2.4.5l-.7,2.5-.9-.2a1.2,1.2,0,0,0-1.3,1.4v.5h2.4v3.2h-2.4V22h-3.7Z" fill="#231f20"/><path d="M140.5,16.7a7.3,7.3,0,0,0,5.1,2.1c1.4,0,2.3-.6,2.3-1.4s-1.1-1.2-2.8-1.6-6.3-1.2-6.3-5,2.3-5,6.4-5A10.2,10.2,0,0,1,151.7,8l-2.3,3a7.4,7.4,0,0,0-4.5-1.7c-1.4,0-1.9.6-1.9,1.3s1,1.1,2.8,1.4,6.3,1.4,6.3,5-2.4,5.3-6.7,5.3a9.8,9.8,0,0,1-7.1-2.5Z" fill="#ed1c24"/><path d="M161.9,14.9,159.8,22h-4l-3.5-11.5h3.8l1.9,7.1,2.3-7.1h3.3l2.3,7.1,1.8-7.1h3.8L168.1,22h-4Z" fill="#ec008c"/><path d="M179.6,20.9a4.9,4.9,0,0,1-3.6,1.4,3.8,3.8,0,0,1-4-3.8c0-2.8,2.2-3.6,4-3.6a4.5,4.5,0,0,1,3.6,1.3V14.7c0-1-.9-1.6-2.4-1.6a5,5,0,0,0-3.3,1.2L172.6,12a8,8,0,0,1,5.2-1.8c2.8,0,5.4,1,5.4,4.6V22h-3.6Zm0-2.9a2.9,2.9,0,0,0-2.1-.8c-1,0-1.9.5-1.9,1.4s.9,1.3,1.9,1.3a2.9,2.9,0,0,0,2.1-.8Z" fill="#00a651"/><path d="M186.7,18.9V13.7h-1.9V10.5h1.9V7.3h3.7v3.2h2.3v3.2h-2.3v4.2c0,.7.4,1.2,1,1.2a1.6,1.6,0,0,0,.9-.3l.8,2.8a4.5,4.5,0,0,1-2.8.7C188,22.3,186.7,21.2,186.7,18.9Z" fill="#00aeef"/><path d="M200.1,10.2a5.7,5.7,0,0,1,4.8,2.1l-2.4,2.2a2.8,2.8,0,0,0-2.2-1.1,2.7,2.7,0,0,0-2.7,2.8,2.7,2.7,0,0,0,2.7,2.9,2.6,2.6,0,0,0,2.2-1.2l2.4,2.3a5.7,5.7,0,0,1-4.8,2.1,5.9,5.9,0,0,1-6.3-6.1C193.8,12.6,196.5,10.2,200.1,10.2Z" fill="#2e3192"/><path d="M214.4,15.3c0-1.4-.7-1.9-1.9-1.9a2.6,2.6,0,0,0-2.2,1.2V22h-3.7V6h3.7v5.9a5.4,5.4,0,0,1,4-1.7c2.6,0,3.8,1.5,3.8,3.6V22h-3.7Z" fill="#ef4136"/><path d="M226.2,10.2c3.5,0,6,2.5,6,6.4v.8h-8.3a2.8,2.8,0,0,0,3,2.1,4.5,4.5,0,0,0,2.8-1l1.5,2.3a7.4,7.4,0,0,1-4.8,1.5c-3.6,0-6.3-2.3-6.3-6.1A5.9,5.9,0,0,1,226.2,10.2ZM223.9,15h4.7a2.2,2.2,0,0,0-2.4-2A2.2,2.2,0,0,0,223.9,15Z" fill="#fbb040"/><path d="M234.5,18a7,7,0,0,0,4.1,1.5c1.1,0,1.6-.3,1.6-.8s-.8-.8-2-1-4.8-.8-4.8-3.7,1.8-3.8,5-3.8a8.1,8.1,0,0,1,4.8,1.5l-1.4,2.4a5.5,5.5,0,0,0-3.4-1.2c-.8,0-1.4.3-1.4.8s.6.7,1.8.9,4.9.8,4.9,3.9-1.9,3.8-5.3,3.8a9.1,9.1,0,0,1-5.4-1.7Z" fill="#8dc63f"/><rect width="28.8" height="28.8" fill="#f08222"/><rect x="1.8" y="1.8" width="25.2" height="25.2" fill="#21160d"/><path d="M10.6,15.7h2.9L12,9.9ZM15.2,22l-1.1-3.7H10L8.9,22H6.2L10.1,8.7V7.3h3.7L18.2,22Z" fill="#f08222"/><rect x="19.6" y="10.8" width="3" height="11.23" fill="#f08222"/><ellipse cx="21.1" cy="8.3" rx="1.5" ry="1.5" fill="#f08222"/><rect x="637.4" y="247.5" width="10" height="10" fill="#5f162b" stroke="#5f162b" stroke-miterlimit="10"/><rect x="652.3" y="247.5" width="10" height="10" fill="#f4efcb" stroke="#f4efcb" stroke-miterlimit="10"/><path d="M619.8,215.4h-1.6v3.2h-1v-8h3.2a2.3,2.3,0,0,1,2.5,2.4,2.2,2.2,0,0,1-2,2.3l2.1,3.3h-1.1Zm.5-3.9h-2.1v3h2.1a1.5,1.5,0,1,0,0-3Z" fill="#231f20"/><path d="M628.3,210.4a4,4,0,0,1,3.1,1.5l-.8.5a3,3,0,0,0-2.3-1.1,3.2,3.2,0,0,0-3.1,3.3,3.1,3.1,0,0,0,3.1,3.2,3.2,3.2,0,0,0,2.2-.8v-1.7h-2.8v-.8h3.8v2.9a4.4,4.4,0,0,1-3.2,1.3,3.9,3.9,0,0,1-4.1-4.1A4,4,0,0,1,628.3,210.4Z" fill="#231f20"/><path d="M633.1,210.6h3.5a2,2,0,0,1,2.3,2,1.8,1.8,0,0,1-1.4,1.8,2.2,2.2,0,0,1,1.5,2,2.1,2.1,0,0,1-2.3,2.2h-3.6Zm3.4,3.4a1.1,1.1,0,0,0,1.3-1.2,1.2,1.2,0,0,0-1.3-1.3h-2.4V214Zm0,3.7c1,0,1.5-.5,1.5-1.4a1.4,1.4,0,0,0-1.5-1.4h-2.4v2.8Z" fill="#231f20"/><path d="M643.4,214.6a4,4,0,0,1,4.1-4.2,3.5,3.5,0,0,1,3,1.6l-.8.5a2.7,2.7,0,0,0-2.2-1.2,3.2,3.2,0,0,0-3.1,3.3,3.1,3.1,0,0,0,3.1,3.2,2.7,2.7,0,0,0,2.2-1.1l.9.4a3.8,3.8,0,0,1-3.1,1.6A4,4,0,0,1,643.4,214.6Z" fill="#231f20"/><path d="M651.5,215.7a2.9,2.9,0,1,1,5.7,0,2.9,2.9,0,1,1-5.7,0Zm4.7,0c0-1.2-.6-2.3-1.9-2.3a2.1,2.1,0,0,0-1.9,2.3,2,2,0,0,0,1.9,2.2C655.6,217.9,656.2,216.9,656.2,215.7Z" fill="#231f20"/><path d="M658.7,210.6h.9v8h-.9Z" fill="#231f20"/><path d="M661,215.7a2.9,2.9,0,1,1,5.8,0,2.9,2.9,0,1,1-5.8,0Zm4.8,0a1.9,1.9,0,1,0-3.8,0,1.9,1.9,0,1,0,3.8,0Z" fill="#231f20"/><path d="M672.1,217.8a2.7,2.7,0,0,1-2,.9,1.7,1.7,0,0,1-1.9-1.8v-4.1h.9v3.8c0,1,.5,1.3,1.3,1.3a2.1,2.1,0,0,0,1.7-.9v-4.2h.9v5.8h-.9Z" fill="#231f20"/><path d="M674.8,212.8h.9v.9a2.6,2.6,0,0,1,2-1v.9h-.4a2.3,2.3,0,0,0-1.6,1v4.1h-.9Z" fill="#231f20"/><path d="M678.8,217.2a2.6,2.6,0,0,0,1.9.8c.9,0,1.3-.4,1.3-1s-.7-.8-1.5-1-2.1-.5-2.1-1.7.8-1.7,2.2-1.7a3,3,0,0,1,2.2.9l-.5.6a2.2,2.2,0,0,0-1.7-.7c-.8,0-1.3.3-1.3.8s.7.8,1.4,1,2.2.5,2.2,1.8-.8,1.7-2.3,1.7a3.2,3.2,0,0,1-2.3-.9Z" fill="#231f20"/><path d="M613.5,230.1a8.6,8.6,0,0,1,1.7-5.3l.5.4a9.6,9.6,0,0,0-1.2,4.9,9.2,9.2,0,0,0,1.2,4.8l-.5.5A9,9,0,0,1,613.5,230.1Z" fill="#231f20"/><path d="M616.8,227.2h.9v.9a2.6,2.6,0,0,1,2-1v.9h-.4a2.2,2.2,0,0,0-1.6.9V233h-.9Z" fill="#231f20"/><path d="M620.5,230.1a2.9,2.9,0,1,1,5.7,0,2.9,2.9,0,1,1-5.7,0Zm4.7,0c0-1.2-.6-2.3-1.9-2.3a2.1,2.1,0,0,0-1.9,2.3,2,2,0,0,0,1.9,2.2C624.6,232.3,625.2,231.3,625.2,230.1Z" fill="#231f20"/><path d="M631.6,232.2a2.9,2.9,0,0,1-2.1.9,1.6,1.6,0,0,1-1.8-1.8v-4.1h.9V231c0,1,.5,1.3,1.3,1.3a2.2,2.2,0,0,0,1.7-.9v-4.2h.9V233h-.9Z" fill="#231f20"/><path d="M638.2,229.2c0-1-.5-1.4-1.3-1.4a2.4,2.4,0,0,0-1.7.9V233h-.9v-5.8h.9v.8a2.8,2.8,0,0,1,2-1,1.7,1.7,0,0,1,1.9,1.9V233h-.9Z" fill="#231f20"/><path d="M645.1,232.1a2.6,2.6,0,0,1-2,1c-1.5,0-2.6-1.1-2.6-3s1.1-3.1,2.6-3.1a2.4,2.4,0,0,1,2,1.1V225h.9v8h-.9Zm0-3.3a2.2,2.2,0,0,0-1.8-1c-1.1,0-1.8,1-1.8,2.3s.7,2.2,1.8,2.2a2.1,2.1,0,0,0,1.8-.9Z" fill="#231f20"/><path d="M650,227.2h1l1.9,4.7,1.9-4.7h1l-2.4,5.8h-1Z" fill="#231f20"/><path d="M660.4,232.3a2.7,2.7,0,0,1-1.9.8,1.9,1.9,0,1,1,0-3.8,2.2,2.2,0,0,1,1.9.8V229c0-.7-.6-1.2-1.5-1.2a2.7,2.7,0,0,0-1.8.8l-.4-.6a3.3,3.3,0,0,1,2.3-1c1.3,0,2.3.6,2.3,2v4h-.9Zm0-1.6a2.1,2.1,0,0,0-1.6-.8,1.3,1.3,0,1,0,0,2.6,2.4,2.4,0,0,0,1.6-.7Z" fill="#231f20"/><path d="M663.1,225h.9v8h-.9Z" fill="#231f20"/><path d="M669.7,232.2a2.9,2.9,0,0,1-2.1.9,1.6,1.6,0,0,1-1.8-1.8v-4.1h.9V231c0,1,.5,1.3,1.3,1.3a2.1,2.1,0,0,0,1.7-.9v-4.2h.9V233h-.9Z" fill="#231f20"/><path d="M674.9,227a2.8,2.8,0,0,1,2.8,3.1v.3H673a2,2,0,0,0,2.1,2,2.5,2.5,0,0,0,1.8-.8l.4.6a3,3,0,0,1-2.3.9,2.8,2.8,0,0,1-2.9-3A2.9,2.9,0,0,1,674.9,227Zm-1.9,2.7h3.8a1.8,1.8,0,0,0-1.9-1.9A2,2,0,0,0,673,229.7Z" fill="#231f20"/><path d="M679.1,231.6a2.8,2.8,0,0,0,1.9.8c.9,0,1.4-.4,1.4-1s-.7-.8-1.5-1-2.1-.5-2.1-1.7.8-1.7,2.2-1.7a2.9,2.9,0,0,1,2.1.9l-.4.6a2.4,2.4,0,0,0-1.7-.7c-.8,0-1.3.3-1.3.8s.6.8,1.4,1,2.2.5,2.2,1.8-.8,1.7-2.3,1.7a3.2,3.2,0,0,1-2.4-.9Z" fill="#231f20"/><path d="M684,225.2l.6-.4a8.6,8.6,0,0,1,1.7,5.3,9,9,0,0,1-1.7,5.3l-.6-.5a9.3,9.3,0,0,0,1.3-4.8A9.7,9.7,0,0,0,684,225.2Z" fill="#231f20"/></g></g></svg>