<svg xmlns="http://www.w3.org/2000/svg" width="720.4" height="258" viewBox="0 0 720.4 258"><title>types-of-swatches-exercise</title><g id="Layer_2" data-name="Layer 2"><g id="Your_Artwork" data-name="Your Artwork"><polygon points="129.7 138.3 134.2 133.8 129.7 129.3 133.3 124 128.1 120.4 130.8 114.6 125 111.9 126.7 105.7 120.5 104.1 121.1 97.7 114.7 97.2 114.2 90.8 107.8 91.4 106.1 85.2 100 86.8 97.3 81.1 91.5 83.8 87.8 78.5 82.6 82.2 78.1 77.7 73.6 82.2 68.4 78.5 64.7 83.8 58.9 81.1 56.2 86.8 50 85.2 48.4 91.4 42 90.8 41.5 97.2 35.1 97.7 35.7 104.1 29.5 105.7 31.2 111.9 25.4 114.6 28.1 120.4 22.8 124 26.5 129.3 22 133.8 22 133.8 22 133.8 26.5 138.3 22.8 143.5 22.8 143.5 22.8 143.5 28.1 147.2 25.4 153 31.2 155.7 29.5 161.8 35.7 163.5 35.1 169.8 41.5 170.4 42 176.8 48.4 176.2 50 182.4 56.2 180.7 58.9 186.5 64.7 183.8 68.3 189 73.6 185.4 78.1 189.9 78.1 189.9 78.1 189.9 82.6 185.4 87.8 189 87.8 189 87.8 189 91.5 183.8 97.3 186.5 100 180.7 106.1 182.4 107.8 176.2 114.2 176.8 114.7 170.4 121.1 169.8 120.5 163.5 126.7 161.8 125 155.7 130.8 153 128.1 147.2 133.3 143.5 129.7 138.3" fill="#2c2a28"/><path d="M78.1,178.9H76.5v-.7h3.3v.8Zm-5-.3-3.4-.5v-.7l3.3.5Zm10.1,0v-.7l3.3-.5v.7Zm-16.8-1.2-3.3-1,.3-.7,3.2,1Zm23.5-.1-.2-.7,3.2-1,.3.7ZM60,175.1a17.7,17.7,0,0,1-3.1-1.5l.3-.6,3.1,1.5Zm36.3,0-.3-.7a14,14,0,0,0,3-1.5l.4.7ZM54,171.9,51.2,170l.4-.6,2.8,1.9Zm48.3-.1-.4-.6a17.3,17.3,0,0,0,2.8-1.9l.4.6Zm-53.8-4L46,165.5l.5-.5a27.3,27.3,0,0,0,2.5,2.3Zm59.2,0-.4-.6,2.4-2.3.5.5Zm-64-4.8-2.1-2.6.6-.5,2.1,2.7Zm68.8-.1-.5-.4,2-2.7.6.5A26.5,26.5,0,0,1,112.5,162.9Zm-72.8-5.4a26.9,26.9,0,0,1-1.6-2.9l.6-.3,1.6,2.9Zm76.8-.1-.6-.3,1.7-3,.6.4A27.5,27.5,0,0,1,116.5,157.4Zm-79.9-5.9a30.3,30.3,0,0,1-1.2-3.2l.7-.2a28.3,28.3,0,0,0,1.1,3.1Zm83-.1-.6-.3,1.2-3.1.6.2A17.5,17.5,0,0,1,119.6,151.4Zm-85.2-6.3c-.3-1.1-.5-2.2-.7-3.3l.7-.2c.2,1.1.4,2.2.7,3.3Zm87.4-.1-.7-.2c.3-1.1.5-2.2.7-3.3h.7C122.3,142.7,122.1,143.9,121.8,145Zm-88.6-6.6c-.1-1.1-.2-2.3-.2-3.4h.7c0,1.1.1,2.2.2,3.3Zm89.8-.1h-.7c.1-1.1.2-2.2.2-3.3h.7C123.2,136,123.1,137.1,123,138.3Zm-89.3-4.5H33c0-1.2,0-2.3.1-3.4h.7C33.7,131.5,33.7,132.7,33.7,133.8Zm88.7-2.3a18.4,18.4,0,0,0-.3-3.3h.7a18.7,18.7,0,0,1,.3,3.4Zm-88.2-4.4h-.7l.6-3.3h.7Zm87.4-2.2c-.2-1.1-.5-2.2-.8-3.3l.7-.2c.3,1.1.6,2.2.8,3.3Zm-85.9-4.3-.7-.2a30.1,30.1,0,0,1,1.1-3.2l.7.2C36.4,118.5,36,119.5,35.7,120.6Zm84.1-2.2-1.3-3.1.6-.2a16.9,16.9,0,0,1,1.3,3.1Zm-81.7-4-.6-.3a21.1,21.1,0,0,1,1.6-3l.6.3Zm78.9-2a27.5,27.5,0,0,0-1.7-2.9l.6-.4a27.5,27.5,0,0,1,1.7,2.9Zm-75.5-3.8-.6-.4c.7-.9,1.4-1.9,2.1-2.7l.5.4Zm71.8-1.8a26.5,26.5,0,0,0-2.1-2.6l.5-.5,2.2,2.6Zm-67.6-3.4-.5-.5,2.4-2.4.5.5Zm63.2-1.6-2.5-2.2.4-.6,2.6,2.3ZM50.7,98.9l-.5-.6a28.3,28.3,0,0,1,2.8-2l.4.6A18.9,18.9,0,0,0,50.7,98.9Zm53-1.4-2.8-1.8.4-.6,2.8,1.8ZM56.2,95.1l-.3-.6,3-1.5.3.6Zm41.8-1-3.1-1.4.3-.7,3.1,1.4ZM62.2,92.3l-.2-.7,3.2-1.1.2.7Zm29.6-.8-3.2-.9v-.7l3.3,1ZM68.7,90.4l-.2-.7a18.6,18.6,0,0,1,3.4-.6v.7A17.5,17.5,0,0,0,68.7,90.4ZM85.3,90,82,89.5v-.7l3.4.5Zm-10-.5v-.7h3.4v.7H75.3Z" fill="#f5f2ed"/><path d="M53.9,107.2a5.3,5.3,0,0,1,1.6,2.1l1.2-.2v1l-1.4.2a1.6,1.6,0,0,1-.4.7c-.9,1-2.1.8-3.9-.7s-1.8-2.8-.9-3.8S52.3,105.7,53.9,107.2Zm-2,2.2c1.1,1,2,1.4,2.4.9s0-1.2-1.2-2.2-1.8-1.4-2.2-.9S50.9,108.4,51.9,109.4Z" fill="#f5f2ed"/><path d="M58.5,105.7a5.3,5.3,0,0,1,.9,1.1l-.8.7-.4-.4a1.1,1.1,0,0,1-.4,1.2c-.5.4-1.2.5-1.9-.4l-2.2-2.7.8-.7,2.1,2.5q.4.6.9.3c.3-.3.3-.6-.1-1.2l-2-2.3.9-.7Z" fill="#f5f2ed"/><path d="M62.2,103.7a2,2,0,0,0,.6.9l-.9.6c0-.1-.2-.3-.3-.4a1.3,1.3,0,0,1-.6,1.1,1.4,1.4,0,0,1-1.9-.6c-.5-.8-.2-1.7.8-2.4l.3-.2-.2-.4c-.2-.2-.4-.5-.8-.3s-.3.6-.1.9l-.9.5c-.4-.6-.5-1.4.6-2.1a1.4,1.4,0,0,1,2.1.3Zm-1.5-.3-.3.2c-.6.3-.6.7-.4,1s.5.5.8.3.4-.7,0-1.4Z" fill="#f5f2ed"/><path d="M63.5,104.3l-3-6,1-.5,3,6Z" fill="#f5f2ed"/><path d="M63.2,98.3l-.5-1.1,1.1-.4.4,1Zm.2.6,1.1-.4,1.9,4.4-1.1.5Z" fill="#f5f2ed"/><path d="M65.2,98.1l.6-.2-.4-1.1,1.1-.4.4,1.2.7-.3.3.9-.7.3L68,101c.1.3.2.4.5.3h.3l.3.7-.6.4a1.1,1.1,0,0,1-1.5-.8l-.9-2.7-.6.2Z" fill="#f5f2ed"/><path d="M69.5,96.8c.7,1.5,1.3,2.7,1.5,3.3h0a21.2,21.2,0,0,1,0-3.6l1.1-.2-.3,5.2c-.1,1.6-.6,1.8-1.2,2h-.5l-.2-.9h.4c.4-.1.5-.3.5-.9l-2.5-4.5Z" fill="#f5f2ed"/><path d="M78.2,97.8h-2v1.9h2.3v.9l-3.2.2-.3-6.4h3.2v1H76.1v1.5h2.1Z" fill="#f5f2ed"/><path d="M83,94.3l-.5,5.3c0,.6-.1,1.1-.1,1.3h-1c-.1-.1,0-.3,0-.5s-.5.6-1.2.5-1.3-1-1.2-2.6.7-2.5,1.8-2.4.8.3.9.5l.2-2.1Zm-2.3,5.6c.6.1.7-.4.8-1.5s.1-1.5-.5-1.6-.7.3-.8,1.5S80.2,99.9,80.7,99.9Z" fill="#f5f2ed"/><path d="M86.8,100.4a7.8,7.8,0,0,1-.3,1.4l-1-.2a1.3,1.3,0,0,1,.1-.6,1.1,1.1,0,0,1-1.2.4c-.7-.2-1.2-.6-.9-1.7l.7-3.4,1.1.2-.7,3.2c-.1.5,0,.8.4.8s.7,0,.8-.8l.7-2.9,1.1.2Z" fill="#f5f2ed"/><path d="M90.9,101.5a1.7,1.7,0,0,1-2.2,1.1c-1.4-.5-1.3-1.6-.8-3s1.2-2.2,2.5-1.7a1.5,1.5,0,0,1,1,2.1l-1.1-.4c.1-.2.3-.7-.2-.9s-.8.3-1.2,1.3-.4,1.6.1,1.7.7-.3.8-.5Z" fill="#f5f2ed"/><path d="M94.1,103.8l-.4,1-.9-.5v-.4a1.3,1.3,0,0,1-1.2,0,1.4,1.4,0,0,1-.5-1.9q.8-1.4,2.4-.6l.4.2.2-.4c.2-.3.3-.6-.2-.8s-.6,0-.7.3l-1-.5a1.5,1.5,0,0,1,2.2-.6c.9.5,1.2,1.2.7,2Zm-.4-1.4-.4-.2a.8.8,0,0,0-1.1.2.6.6,0,0,0,.3.8c.5.3.8,0,1.1-.7Z" fill="#f5f2ed"/><path d="M96.5,100.8l.6.4.6-1,1,.6-.7,1,.6.4-.5.8-.6-.4-1.4,2.2c-.2.2-.2.4.1.6h.2l-.4.7-.7-.3c-.6-.4-.7-.8-.3-1.6l1.6-2.3-.6-.4Z" fill="#f5f2ed"/><path d="M99.3,102.7l.9.7-2.9,3.9-.9-.7Zm.5-.5.6-.9.9.6-.6.9Z" fill="#f5f2ed"/><path d="M102.2,108.3c-1.2,1.3-2.2,1.4-3.1.6s-.8-1.8.4-3.1,2.2-1.4,3.1-.6S103.3,107,102.2,108.3Zm-1.9-1.7c-.7.7-.9,1.3-.5,1.6s.9.1,1.6-.7.9-1.3.5-1.6S101,105.8,100.3,106.6Z" fill="#f5f2ed"/><path d="M103.5,108.3l1.1-1,.7.9-.3.3a1.2,1.2,0,0,1,1.1.5c.5.6.4,1.2-.3,1.9l-2.7,2.2-.7-.8,2.5-2.1c.3-.3.5-.6.2-1s-.6-.3-1.1.2l-2.4,1.9-.7-.8Z" fill="#f5f2ed"/><polygon points="143.6 133.6 154.5 117.2 1.7 117.2 12.6 133.6 1.5 150.3 1.5 150.3 154.6 150.3 154.6 150.3 143.6 133.6" fill="#2c2a28" fill-rule="evenodd"/><path d="M154.6,150.8H1V150L12,133.6.8,116.7H155.4l-11.2,16.9,10.9,16.5v.7Zm-152.2-1H153.7L143,133.6l10.6-15.9H2.6l10.6,15.9Z" fill="#f4f3ed"/><path d="M36.9,135.9l-.6,3.1H34.1L37,126.7h2.8L42.7,139H40.4l-.6-3.1Zm2.5-1.9c-.5-2.3-.8-4.1-1-5.2h-.1c-.1,1.1-.5,2.9-1,5.2Z" fill="#f5f2ed"/><path d="M45.1,126.7h2.2v10.4h4.3l-.3,1.9H45.1Z" fill="#f5f2ed"/><path d="M61,139H59.4c-.1-.4-.1-.6-.2-1a2.5,2.5,0,0,1-2.4,1.2c-2.6,0-3.5-2.3-3.5-6.3s1.5-6.4,4.2-6.4a3.3,3.3,0,0,1,3.5,3.6H58.8c0-.5-.1-1.7-1.4-1.7s-1.8,1.9-1.8,4.5.3,4.5,1.7,4.5,1.5-.9,1.5-2.7V134H57.2v-1.9H61Z" fill="#f5f2ed"/><path d="M72,132.8c0,4.5-1.2,6.4-4,6.4s-4-1.9-4-6.5,1.5-6.2,4.1-6.2S72,128.5,72,132.8Zm-5.7-.1c0,3,.4,4.7,1.7,4.7s1.8-1.6,1.8-4.7-.4-4.3-1.8-4.3S66.3,130,66.3,132.7Z" fill="#f5f2ed"/><path d="M75.1,139V126.7h2.5c2.6,6.8,3.1,8.1,3.2,8.7h0c-.1-1.5-.1-3.3-.1-5.3v-3.4h2V139H80.3L77,129.9h0c.1,1.5.1,3.3.1,5.5V139Z" fill="#f5f2ed"/><path d="M93.8,132.8c0,2.2-.3,3.9-1,4.9l1.9,1.5-1.2,1.5L91.3,139a4.1,4.1,0,0,1-1.6.2c-2.6,0-3.9-1.9-3.9-6.5s1.5-6.2,4-6.2S93.8,128.5,93.8,132.8Zm-5.7-.1c0,3,.4,4.7,1.7,4.7s1.8-1.6,1.8-4.7-.5-4.3-1.8-4.3S88.1,130,88.1,132.7Z" fill="#f5f2ed"/><path d="M99,126.7v8.5c0,1,.3,2.2,1.6,2.2s1.6-1,1.6-2.2v-8.5h2.2v8.5c0,2.2-.8,4-3.8,4s-3.8-1.7-3.8-4v-8.5Z" fill="#f5f2ed"/><path d="M109.9,126.7V139h-2.2V126.7Z" fill="#f5f2ed"/><path d="M113.5,139V126.7H116l3.2,8.7h0c-.1-1.5-.1-3.3-.1-5.3v-3.4h2V139h-2.4c-2.7-7.2-3.1-8.6-3.3-9.1h0c.1,1.5.1,3.3.1,5.5V139Z" fill="#f5f2ed"/><path d="M137.5,132.2a1.6,1.6,0,0,1,0,3.2,1.6,1.6,0,0,1,0-3.2Z" fill="#f5f2ed" fill-rule="evenodd"/><path d="M18.1,132.2a1.6,1.6,0,0,1,0,3.2,1.6,1.6,0,0,1,0-3.2Z" fill="#f5f2ed" fill-rule="evenodd"/><polygon points="78.1 105.3 79.2 107.6 81.7 107.9 79.9 109.7 80.3 112.1 78.1 111 75.9 112.1 76.3 109.7 74.5 107.9 77 107.6 78.1 105.3" fill="#f4f3ed"/><polygon points="71.5 110 72.1 111.1 73.3 111.3 72.4 112.1 72.6 113.4 71.5 112.8 70.4 113.4 70.6 112.1 69.7 111.3 70.9 111.1 71.5 110" fill="#f4f3ed"/><polygon points="84 110 84.6 111.1 85.8 111.3 84.9 112.1 85.1 113.4 84 112.8 82.9 113.4 83.1 112.1 82.2 111.3 83.5 111.1 84 110" fill="#f4f3ed"/><path d="M56.7,160.6l.7.6c.7.6.6,1.3-.2,2.3s-1.6,1.3-2.4.7l-.7-.6Zm-1.9,3,.2.3c.5.4,1.1.1,1.8-.7s.8-1.3.3-1.8l-.3-.2Z" fill="#f5f2ed"/><path d="M59.5,165.3l-1.1-.7-.9,1.2,1.2.8-.3.3-1.5-1,2.3-3.3,1.5,1.1-.2.3-1.2-.8-.7,1,1.1.8Z" fill="#f5f2ed"/><path d="M60.3,166.8c-.2.4-.2.8.2,1s.6.1.8-.3.2-.6-.1-1.1-.6-1-.3-1.5a.9.9,0,0,1,1.4-.3c.7.3.6.9.4,1.4l-.4-.3a.6.6,0,0,0-.2-.8.5.5,0,0,0-.7.2c-.2.3-.1.6.2,1s.5,1.1.2,1.6a1,1,0,0,1-1.5.4,1,1,0,0,1-.4-1.5Z" fill="#f5f2ed"/><path d="M64.4,165.7l-1.8,3.6-.4-.2,1.7-3.6Z" fill="#f5f2ed"/><path d="M65.8,170.6h-.3a.8.8,0,0,1,.1-.4.7.7,0,0,1-.9.1c-.8-.3-.7-1.2-.3-2.3s1.2-1.7,1.9-1.4a1,1,0,0,1,.6,1.4l-.4-.2c0-.1.2-.6-.3-.8s-1,.3-1.3,1.2-.5,1.6,0,1.8.8-.2,1.1-.9v-.2l-.6-.2.2-.4,1,.4Z" fill="#f5f2ed"/><path d="M67.2,171.1l1.1-3.9.5.2c.3,2.9.4,3.3.4,3.5h0c.1-.6.3-1.1.4-1.8l.4-1.4.5.2-1.1,3.8h-.6c-.3-3-.3-3.4-.3-3.6h0c-.1.5-.3,1.1-.5,1.8l-.4,1.4Z" fill="#f5f2ed"/><path d="M73,171.4c-.1.6-.3,1-1,.9h-.3v-.4H72c.4,0,.5-.2.5-.5l.5-3h.5Z" fill="#f5f2ed"/><path d="M76.5,170.7c-.1,1.4-.5,2.1-1.4,2s-1.1-.8-1-2.2.6-2,1.4-1.9S76.6,169.4,76.5,170.7Zm-1.9-.1c-.1,1,.1,1.6.6,1.7s.7-.5.8-1.6-.1-1.6-.6-1.7S74.7,169.5,74.6,170.6Z" fill="#f5f2ed"/><path d="M77.6,168.8h1.1a.8.8,0,0,1,1,.9.9.9,0,0,1-.5.9c.3.1.6.3.6,1a1,1,0,0,1-1.1,1.1h-1Zm1,1.6a.6.6,0,1,0,0-1.2h-.5v1.2Zm-.5,2h.6c.4,0,.6-.2.6-.7s-.2-.8-.7-.8h-.5Z" fill="#f5f2ed"/><path d="M81.3,171.6a.7.7,0,0,0,.7.6.5.5,0,0,0,.5-.7c0-.4-.2-.6-.8-.8s-1-.5-1-1.1a.9.9,0,0,1,.9-1.1.9.9,0,0,1,1.1.9h-.5a.6.6,0,0,0-.6-.6c-.3.1-.5.3-.4.6s.2.5.7.7,1,.6,1.1,1.2-.2,1.1-1,1.2-1.1-.4-1.2-1Z" fill="#f5f2ed"/><path d="M84.8,168.1l1.8-.5v.5l-1.4.3.3,1.2,1.3-.3v.4l-1.3.3.5,1.8-.5.2Z" fill="#f5f2ed"/><path d="M90.1,168.6c.5,1.3.4,2-.4,2.3s-1.4-.3-1.8-1.6-.3-2,.5-2.3S89.7,167.3,90.1,168.6Zm-1.8.6c.4,1,.8,1.5,1.2,1.3s.5-.7.2-1.8-.8-1.4-1.2-1.3S88,168.2,88.3,169.2Z" fill="#f5f2ed"/><path d="M91.7,168.1l.8,1.7-.5.2-1.6-3.7,1-.4a.8.8,0,0,1,1.3.5.9.9,0,0,1-.1,1.1c.4-.1.7.2.9.7h.1a1.5,1.5,0,0,0,.4.8l-.5.2-.4-.8h0c-.3-.5-.5-.7-1-.5Zm-.1-.4.4-.2c.4-.1.5-.5.3-.9s-.4-.5-.8-.3l-.5.2Z" fill="#f5f2ed"/><path d="M96.1,166.5l.4,1.2-.4.3-1.3-3.9.5-.3,2.9,2.8-.4.3-.9-.9Zm.5-.8-1.3-1.4h0a18.4,18.4,0,0,0,.6,1.8Z" fill="#f5f2ed"/><path d="M96.7,162.8l.4-.3,2.1,2.9,1.1-.9.2.4L99.1,166Z" fill="#f5f2ed"/><path d="M98.7,161.3l.4-.4,2.3,2.7,1.1-.9.2.3-1.3,1.2Z" fill="#f5f2ed"/><path d="M71.4,158.4H70.1v1.5h1.5v.4H69.6v-4h1.9v.5H70.1V158h1.3Z" fill="#f5f2ed"/><path d="M72.4,159.3c0,.4.2.7.6.7s.6-.3.6-.7-.1-.6-.7-.9-.9-.5-.9-1.1a1,1,0,0,1,1.1-1,.9.9,0,0,1,1,1h-.5a.6.6,0,0,0-.6-.6.5.5,0,0,0-.5.5c0,.4.2.6.7.8a1.3,1.3,0,0,1,.9,1.3,1,1,0,0,1-1.1,1.1,1,1,0,0,1-1.1-1.1Z" fill="#f5f2ed"/><path d="M75.2,156.8h-.8v-.5h2.2v.5h-.9v3.5h-.5Z" fill="#f5f2ed"/><path d="M76.5,160.3v-.8H77v.8Z" fill="#f5f2ed"/><path d="M78.9,160.3V157h-.5v-.3c.3-.1.6-.2.7-.4h.3v3.9Z" fill="#f5f2ed"/><path d="M80.5,159.5c.1.2.1.5.5.5s.6-.9.6-1.6a.7.7,0,0,1-.7.4c-.5,0-.9-.4-.9-1.1s.4-1.3,1-1.3,1.1.4,1.1,1.6-.3,2.4-1.1,2.4a.9.9,0,0,1-.9-.9Zm0-1.9c0,.5.2.8.5.8s.6-.3.6-.7-.1-.9-.6-.9S80.5,157.1,80.5,157.6Z" fill="#f5f2ed"/><path d="M84.1,157.3a.4.4,0,0,0-.5-.5c-.5,0-.5.9-.6,1.4a1,1,0,0,1,.7-.4q.9,0,.9,1.2c0,.7-.2,1.4-1,1.4s-1-.8-1-1.9.2-2.1,1.1-2.1.8.6.9.9Zm.1,1.8q0-.9-.6-.9c-.4,0-.6.3-.6.7s.2,1.1.6,1.1S84.2,159.7,84.2,159.1Z" fill="#f5f2ed"/><path d="M86.9,156.4v.4a9.6,9.6,0,0,0-1.1,3.5h-.5a8.5,8.5,0,0,1,1.1-3.4H84.9v-.5Z" fill="#f5f2ed"/><rect x="65.2" y="162" width="26.3" height="0.56" fill="#f5f2ed"/><rect x="65.2" y="154" width="26.3" height="0.56" fill="#f5f2ed"/><polygon points="506.4 138.3 510.9 133.8 506.4 129.3 510 124 504.8 120.4 507.5 114.6 501.7 111.9 503.4 105.7 497.2 104.1 497.8 97.7 491.4 97.2 490.8 90.8 484.5 91.4 482.8 85.2 476.7 86.8 474 81.1 468.2 83.8 464.5 78.5 459.3 82.2 454.8 77.7 450.3 82.2 445 78.5 441.4 83.8 435.6 81.1 432.9 86.8 426.7 85.2 425.1 91.4 418.7 90.8 418.2 97.2 411.8 97.7 412.4 104.1 406.2 105.7 407.8 111.9 402.1 114.6 404.8 120.4 399.5 124 403.2 129.3 398.7 133.8 398.7 133.8 398.7 133.8 403.2 138.3 399.5 143.5 399.5 143.5 399.5 143.5 404.8 147.2 402.1 153 407.8 155.7 406.2 161.8 412.4 163.5 411.8 169.8 418.1 170.4 418.7 176.8 425.1 176.2 426.7 182.4 432.9 180.7 435.6 186.5 441.4 183.8 445 189 450.3 185.4 454.8 189.9 454.8 189.9 454.8 189.9 459.3 185.4 464.5 189 464.5 189 464.5 189 468.2 183.8 474 186.5 476.7 180.7 482.8 182.4 484.5 176.2 490.8 176.8 491.4 170.4 497.8 169.8 497.2 163.5 503.4 161.8 501.7 155.7 507.5 153 504.8 147.2 510 143.5 506.4 138.3" fill="#2c2a28"/><path d="M454.8,178.9h-1.7v-.7h3.3v.8Zm-5.1-.3-3.3-.5v-.7l3.3.5Zm10.2,0v-.7l3.4-.5v.7Zm-16.8-1.2-3.3-1,.3-.7,3.2,1Zm23.5-.1-.2-.7,3.2-1,.2.7Zm-29.9-2.2a17.7,17.7,0,0,1-3.1-1.5l.3-.6,3,1.5Zm36.3,0-.3-.7,3-1.5.4.7Zm-42.3-3.2-2.8-1.9.4-.6,2.7,1.9Zm48.3-.1-.4-.6a23.1,23.1,0,0,0,2.8-1.9l.4.6Zm-53.8-4-2.5-2.3.5-.5a27.3,27.3,0,0,0,2.5,2.3Zm59.2,0-.4-.6,2.4-2.3.5.5Zm-64-4.8-2.1-2.6.6-.5a24.7,24.7,0,0,0,2.1,2.7Zm68.8-.1-.5-.4,2-2.7.6.5Zm-72.8-5.4c-.6-.9-1.1-1.9-1.7-2.9l.7-.3,1.6,2.9Zm76.8-.1-.6-.3c.6-1,1.1-2,1.6-3l.7.4C494.3,155.5,493.8,156.5,493.2,157.4Zm-79.9-5.9a17.5,17.5,0,0,1-1.2-3.2l.6-.2,1.2,3.1Zm83-.1-.6-.3,1.2-3.1.6.2A17.5,17.5,0,0,1,496.3,151.4Zm-85.2-6.3c-.3-1.1-.5-2.2-.7-3.3l.7-.2c.2,1.1.4,2.2.7,3.3Zm87.4-.1-.7-.2c.3-1.1.5-2.2.7-3.3h.7C499,142.7,498.8,143.9,498.5,145Zm-88.6-6.6c-.1-1.1-.2-2.3-.2-3.4h.7c0,1.1.1,2.2.2,3.3Zm89.8-.1H499c.1-1.1.1-2.2.2-3.3h.7C499.8,136,499.8,137.1,499.7,138.3Zm-89.3-4.5h-.7c0-1.2,0-2.3.1-3.4h.7C410.4,131.5,410.4,132.7,410.4,133.8Zm88.7-2.3a18.4,18.4,0,0,0-.3-3.3h.7a18.7,18.7,0,0,1,.3,3.4Zm-88.2-4.4h-.7a19.1,19.1,0,0,1,.6-3.3h.7A19.1,19.1,0,0,0,410.9,127.1Zm87.4-2.2c-.2-1.1-.5-2.2-.8-3.3l.7-.2c.3,1.1.6,2.2.8,3.3Zm-85.9-4.3-.7-.2a30.1,30.1,0,0,1,1.1-3.2l.7.2C413.1,118.5,412.7,119.5,412.4,120.6Zm84.1-2.2c-.4-1-.9-2-1.3-3.1l.6-.2a28.8,28.8,0,0,1,1.3,3.1Zm-81.7-4-.6-.3a21.1,21.1,0,0,1,1.6-3l.6.3C415.8,112.4,415.3,113.4,414.8,114.4Zm78.9-2c-.6-1-1.1-2-1.7-2.9l.5-.4a17.5,17.5,0,0,1,1.8,2.9Zm-75.5-3.8-.6-.4a27.8,27.8,0,0,1,2.1-2.7l.5.4Zm71.8-1.8-2.1-2.6.5-.5,2.2,2.6Zm-67.6-3.4-.5-.5,2.4-2.4.5.5Zm63.2-1.6-2.5-2.2.4-.6,2.6,2.3Zm-58.3-2.9-.4-.6,2.7-2,.4.6Zm53.1-1.4-2.8-1.8.4-.6,2.8,1.8Zm-47.5-2.4-.4-.6a29.6,29.6,0,0,1,3.1-1.5l.3.6Zm41.8-1-3.1-1.4.3-.7,3.1,1.4Zm-35.8-1.8-.2-.7,3.2-1.1.2.7Zm29.6-.8-3.2-.9v-.7l3.3,1Zm-23.2-1.1v-.7l3.3-.6v.7A19.1,19.1,0,0,0,445.3,90.4ZM462,90l-3.3-.5v-.7l3.4.5Zm-10-.5v-.7h3.4v.7H452Z" fill="#f5f2ed"/><path d="M430.6,107.2a5.3,5.3,0,0,1,1.6,2.1l1.2-.2v1l-1.4.2a1.6,1.6,0,0,1-.4.7c-.9,1-2.1.8-3.9-.7s-1.8-2.8-1-3.8S429,105.7,430.6,107.2Zm-2,2.2c1.1,1,1.9,1.4,2.4.9s0-1.2-1.2-2.2-1.8-1.4-2.3-.9S427.5,108.4,428.6,109.4Z" fill="#f5f2ed"/><path d="M435.2,105.7l.9,1.1-.8.7-.4-.4a1.1,1.1,0,0,1-.4,1.2c-.6.4-1.2.5-1.9-.4l-2.2-2.7.8-.7,2.1,2.5q.4.6.9.3c.3-.3.3-.6-.2-1.2l-1.9-2.3.9-.7Z" fill="#f5f2ed"/><path d="M438.9,103.7a2,2,0,0,0,.6.9l-.9.6-.3-.4a1.3,1.3,0,0,1-.6,1.1,1.4,1.4,0,0,1-1.9-.6c-.5-.8-.3-1.7.8-2.4l.3-.2-.3-.4c-.1-.2-.3-.5-.7-.3s-.3.6-.2.9l-.9.5a1.4,1.4,0,0,1,.7-2.1,1.3,1.3,0,0,1,2,.3Zm-1.5-.3-.3.2c-.6.3-.6.7-.4,1a.5.5,0,0,0,.8.3c.5-.3.3-.7,0-1.4Z" fill="#f5f2ed"/><path d="M440.2,104.3l-3-6,1-.5,3,6Z" fill="#f5f2ed"/><path d="M439.8,98.3l-.4-1.1,1-.4.5,1Zm.3.6,1-.4,1.9,4.4-1,.5Z" fill="#f5f2ed"/><path d="M441.9,98.1l.6-.2-.4-1.1,1.1-.4.3,1.2.8-.3.3.9-.8.3.9,2.5c.1.3.2.4.5.3h.3l.3.7-.7.4c-.7.2-1.1,0-1.4-.8l-.9-2.7-.6.2Z" fill="#f5f2ed"/><path d="M446.2,96.8c.7,1.5,1.3,2.7,1.5,3.3h0a35.5,35.5,0,0,1-.1-3.6l1.2-.2-.3,5.2c-.1,1.6-.6,1.8-1.3,2h-.4l-.2-.9h.3c.5-.1.6-.3.6-.9L445,97.1Z" fill="#f5f2ed"/><path d="M454.9,97.8h-2.1v1.9h2.3v.9l-3.3.2-.2-6.4h3.2v1h-2.2v1.5h2Z" fill="#f5f2ed"/><path d="M459.7,94.3l-.5,5.3c0,.6-.1,1.1-.1,1.3H458v-.5c-.1.4-.4.6-1.1.5s-1.3-1-1.2-2.6.7-2.5,1.8-2.4a1.3,1.3,0,0,1,.9.5V94.2Zm-2.3,5.6c.6.1.7-.4.8-1.5s.1-1.5-.5-1.6-.8.3-.9,1.5S456.9,99.9,457.4,99.9Z" fill="#f5f2ed"/><path d="M463.5,100.4c-.1.7-.3,1.1-.3,1.4l-1-.2V101a1.1,1.1,0,0,1-1.2.4c-.6-.2-1.1-.6-.8-1.7l.7-3.4,1.1.2-.7,3.2c-.1.5,0,.8.4.8s.6,0,.8-.8l.7-2.9,1,.2Z" fill="#f5f2ed"/><path d="M467.5,101.5a1.6,1.6,0,0,1-2.2,1.1c-1.3-.5-1.2-1.6-.7-3s1.2-2.2,2.5-1.7a1.5,1.5,0,0,1,1,2.1l-1.1-.4c.1-.2.2-.7-.2-.9s-.8.3-1.2,1.3-.4,1.6.1,1.7.7-.3.8-.5Z" fill="#f5f2ed"/><path d="M470.8,103.8a4.2,4.2,0,0,0-.4,1l-.9-.5v-.4a1.3,1.3,0,0,1-1.2,0,1.4,1.4,0,0,1-.5-1.9c.4-.9,1.3-1.1,2.4-.6l.4.2.2-.4c.1-.3.3-.6-.2-.8s-.6,0-.7.3l-1-.5a1.5,1.5,0,0,1,2.2-.6,1.4,1.4,0,0,1,.7,2Zm-.5-1.4-.3-.2c-.6-.3-.9-.1-1.1.2a.6.6,0,0,0,.2.8c.6.3.8,0,1.2-.7Z" fill="#f5f2ed"/><path d="M473.2,100.8l.6.4.6-1,1,.6-.7,1,.6.4-.5.8-.6-.4-1.4,2.2c-.2.2-.2.4.1.6h.2l-.4.7a1.5,1.5,0,0,1-.7-.3c-.6-.4-.8-.8-.3-1.6l1.6-2.3-.6-.4Z" fill="#f5f2ed"/><path d="M476,102.7l.9.7-2.9,3.9-.9-.7Zm.5-.5.6-.9.9.6-.6.9Z" fill="#f5f2ed"/><path d="M478.9,108.3c-1.2,1.3-2.2,1.4-3.1.6s-.8-1.8.4-3.1,2.2-1.4,3-.6S480,107,478.9,108.3Zm-1.9-1.7c-.7.7-.9,1.3-.5,1.6s.8.1,1.5-.7,1-1.3.6-1.6S477.7,105.8,477,106.6Z" fill="#f5f2ed"/><path d="M480.2,108.3l1.1-1,.7.9-.4.3a1.4,1.4,0,0,1,1.2.5c.5.6.4,1.2-.3,1.9l-2.7,2.2-.7-.8,2.4-2.1c.4-.3.6-.6.3-1s-.6-.3-1.2.2l-2.3,1.9-.7-.8Z" fill="#f5f2ed"/><polygon points="520.3 133.6 531.2 117.2 378.4 117.2 389.2 133.6 378.2 150.3 378.2 150.3 531.3 150.3 531.3 150.3 520.3 133.6" fill="#2c2a28" fill-rule="evenodd"/><path d="M531.3,150.8H377.7V150l10.9-16.4-11.2-16.9H532.1l-11.2,16.9,10.9,16.5v.7Zm-152.2-1H530.4l-10.7-16.2,10.5-15.9H379.3l10.5,15.9Z" fill="#f4f3ed"/><path d="M413.6,135.9,413,139h-2.2l2.8-12.3h2.9l2.9,12.3h-2.3l-.6-3.1Zm2.5-1.9c-.5-2.3-.9-4.1-1.1-5.2h0c-.2,1.1-.6,2.9-1,5.2Z" fill="#f5f2ed"/><path d="M421.8,126.7H424v10.4h4.2L428,139h-6.2Z" fill="#f5f2ed"/><path d="M437.7,139H436c0-.4-.1-.6-.1-1a2.5,2.5,0,0,1-2.4,1.2c-2.6,0-3.5-2.3-3.5-6.3s1.5-6.4,4.1-6.4a3.4,3.4,0,0,1,3.6,3.6h-2.2c0-.5-.1-1.7-1.4-1.7s-1.8,1.9-1.8,4.5.3,4.5,1.7,4.5,1.5-.9,1.5-2.7V134h-1.6v-1.9h3.8Z" fill="#f5f2ed"/><path d="M448.7,132.8c0,4.5-1.2,6.4-4,6.4s-4-1.9-4-6.5,1.5-6.2,4-6.2S448.7,128.5,448.7,132.8Zm-5.7-.1c0,3,.4,4.7,1.7,4.7s1.8-1.6,1.8-4.7-.5-4.3-1.8-4.3S443,130,443,132.7Z" fill="#f5f2ed"/><path d="M451.8,139V126.7h2.5c2.6,6.8,3,8.1,3.2,8.7h0c-.1-1.5-.1-3.3-.1-5.3v-3.4h2V139H457c-2.7-7.2-3.1-8.6-3.3-9.1h0c.1,1.5.1,3.3.1,5.5V139Z" fill="#f5f2ed"/><path d="M470.5,132.8c0,2.2-.3,3.9-1,4.9l1.9,1.5-1.2,1.5-2.3-1.7a3.4,3.4,0,0,1-1.5.2c-2.6,0-3.9-1.9-3.9-6.5s1.5-6.2,4-6.2S470.5,128.5,470.5,132.8Zm-5.8-.1c0,3,.5,4.7,1.8,4.7s1.7-1.6,1.7-4.7-.4-4.3-1.7-4.3S464.7,130,464.7,132.7Z" fill="#f5f2ed"/><path d="M475.7,126.7v8.5c0,1,.2,2.2,1.6,2.2s1.6-1,1.6-2.2v-8.5h2.2v8.5c0,2.2-.9,4-3.8,4s-3.8-1.7-3.8-4v-8.5Z" fill="#f5f2ed"/><path d="M486.6,126.7V139h-2.2V126.7Z" fill="#f5f2ed"/><path d="M490.2,139V126.7h2.5l3.2,8.7h0c-.1-1.5-.1-3.3-.1-5.3v-3.4h1.9V139h-2.4c-2.6-7.2-3-8.6-3.2-9.1h0c.1,1.5.1,3.3.1,5.5V139Z" fill="#f5f2ed"/><path d="M514.2,132.2a1.6,1.6,0,1,1-1.6,1.6,1.6,1.6,0,0,1,1.6-1.6Z" fill="#f5f2ed" fill-rule="evenodd"/><path d="M394.7,132.2a1.6,1.6,0,1,1,0,3.2,1.6,1.6,0,0,1,0-3.2Z" fill="#f5f2ed" fill-rule="evenodd"/><polygon points="454.8 105.3 455.9 107.6 458.4 107.9 456.6 109.7 457 112.1 454.8 111 452.6 112.1 453 109.7 451.2 107.9 453.7 107.6 454.8 105.3" fill="#f4f3ed"/><polygon points="448.2 110 448.7 111.1 450 111.3 449.1 112.1 449.3 113.4 448.2 112.8 447.1 113.4 447.3 112.1 446.4 111.3 447.6 111.1 448.2 110" fill="#f4f3ed"/><polygon points="460.7 110 461.3 111.1 462.5 111.3 461.6 112.1 461.8 113.4 460.7 112.8 459.6 113.4 459.8 112.1 458.9 111.3 460.2 111.1 460.7 110" fill="#f4f3ed"/><path d="M433.4,160.6l.7.6c.7.6.6,1.3-.2,2.3s-1.7,1.3-2.5.7l-.6-.6Zm-2,3,.3.3c.5.4,1.1.1,1.8-.7s.7-1.3.2-1.8l-.2-.2Z" fill="#f5f2ed"/><path d="M436.1,165.3l-1.1-.7-.8,1.2,1.2.8-.3.3-1.5-1,2.2-3.3,1.6,1.1-.3.3-1.1-.8-.7,1,1.1.8Z" fill="#f5f2ed"/><path d="M437,166.8c-.2.4-.2.8.2,1s.6.1.8-.3.2-.6-.2-1.1-.5-1-.2-1.5a.9.9,0,0,1,1.4-.3c.7.3.6.9.4,1.4l-.4-.3c0-.2.2-.6-.2-.8a.5.5,0,0,0-.7.2c-.2.3-.2.6.2,1s.5,1.1.2,1.6a1,1,0,0,1-1.5.4,1,1,0,0,1-.5-1.5Z" fill="#f5f2ed"/><path d="M441.1,165.7l-1.8,3.6-.4-.2,1.7-3.6Z" fill="#f5f2ed"/><path d="M442.5,170.6h-.4l.2-.4a.7.7,0,0,1-.9.1c-.8-.3-.8-1.2-.3-2.3s1.2-1.7,1.9-1.4a1,1,0,0,1,.6,1.4l-.5-.2a.5.5,0,0,0-.3-.8c-.5-.2-.9.3-1.2,1.2s-.5,1.6,0,1.8.7-.2,1-.9v-.2l-.6-.2v-.4l1.1.4Z" fill="#f5f2ed"/><path d="M443.9,171.1l1.1-3.9.5.2c.3,2.9.4,3.3.4,3.5h0a14.9,14.9,0,0,1,.4-1.8l.4-1.4.4.2-1,3.8h-.6c-.3-3-.3-3.4-.3-3.6h0c-.1.5-.3,1.1-.5,1.8l-.4,1.4Z" fill="#f5f2ed"/><path d="M449.7,171.4c-.1.6-.3,1-1,.9h-.3v-.4h.2c.4,0,.4-.2.5-.5l.5-3h.5Z" fill="#f5f2ed"/><path d="M453.2,170.7c-.1,1.4-.5,2.1-1.4,2s-1.1-.8-1-2.2.6-2,1.4-1.9S453.3,169.4,453.2,170.7Zm-1.9-.1c-.1,1,.1,1.6.6,1.7s.7-.5.8-1.6-.1-1.6-.6-1.7S451.4,169.5,451.3,170.6Z" fill="#f5f2ed"/><path d="M454.3,168.8h1.1c.6-.1.9.3,1,.9a.9.9,0,0,1-.5.9c.3.1.6.3.6,1a1,1,0,0,1-1.1,1.1h-1.1Zm.9,1.6c.5,0,.7-.2.7-.6a.5.5,0,0,0-.6-.6h-.5v1.2Zm-.4,2h.5c.5,0,.7-.2.7-.7s-.2-.8-.8-.8h-.4Z" fill="#f5f2ed"/><path d="M457.9,171.6a.8.8,0,0,0,.8.6c.4,0,.5-.3.5-.7s-.2-.6-.8-.8-1-.5-1-1.1a.9.9,0,0,1,.9-1.1c.8-.1,1,.5,1.1.9h-.5a.6.6,0,0,0-.6-.6c-.4.1-.5.3-.5.6s.3.5.8.7,1,.6,1.1,1.2a1,1,0,0,1-1,1.2c-.8.1-1.1-.4-1.2-1Z" fill="#f5f2ed"/><path d="M461.4,168.1l1.9-.5v.5l-1.4.3.3,1.2,1.3-.3v.4l-1.3.3.4,1.8-.4.2Z" fill="#f5f2ed"/><path d="M466.8,168.6c.5,1.3.4,2-.5,2.3s-1.3-.3-1.8-1.6-.2-2,.5-2.3S466.4,167.3,466.8,168.6Zm-1.8.6c.4,1,.8,1.5,1.2,1.3s.5-.7.1-1.8-.7-1.4-1.1-1.3S464.7,168.2,465,169.2Z" fill="#f5f2ed"/><path d="M468.4,168.1l.8,1.7-.5.2-1.6-3.7.9-.4a.9.9,0,0,1,1.4.5.9.9,0,0,1-.1,1.1c.4-.1.6.2.9.7h0l.4.8-.4.2a2.9,2.9,0,0,1-.4-.8h-.1c-.2-.5-.4-.7-.9-.5Zm-.2-.4.5-.2c.4-.1.5-.5.3-.9s-.5-.5-.8-.3l-.5.2Z" fill="#f5f2ed"/><path d="M472.7,166.5l.5,1.2-.5.3-1.3-3.9.6-.3,2.9,2.8-.4.3-.9-.9Zm.6-.8-1.4-1.4h0c.2.4.4,1,.7,1.8Z" fill="#f5f2ed"/><path d="M473.4,162.8l.4-.3,2.1,2.9,1.1-.9.2.4-1.4,1.1Z" fill="#f5f2ed"/><path d="M475.4,161.3l.4-.4,2.3,2.7,1.1-.9.2.3-1.4,1.2Z" fill="#f5f2ed"/><path d="M448.1,158.4h-1.3v1.5h1.5v.4h-1.9v-4h1.9v.5h-1.4V158h1.3Z" fill="#f5f2ed"/><path d="M449.1,159.3c0,.4.2.7.6.7s.6-.3.6-.7-.1-.6-.7-.9-.9-.5-.9-1.1a.9.9,0,0,1,1-1c.8,0,1,.5,1.1,1h-.5a.6.6,0,0,0-.6-.6.5.5,0,0,0-.5.5c0,.4.2.6.7.8a1.3,1.3,0,0,1,.9,1.3,1,1,0,0,1-1.1,1.1,1,1,0,0,1-1.1-1.1Z" fill="#f5f2ed"/><path d="M451.9,156.8H451v-.5h2.3v.5h-.9v3.5h-.5Z" fill="#f5f2ed"/><path d="M453.2,160.3v-.8h.5v.8Z" fill="#f5f2ed"/><path d="M455.6,160.3V157h-.5v-.3c.3-.1.6-.2.7-.4h.3v3.9Z" fill="#f5f2ed"/><path d="M457.2,159.5c.1.2.1.5.5.5s.6-.9.6-1.6a.8.8,0,0,1-.7.4c-.5,0-.9-.4-.9-1.1s.4-1.3,1-1.3,1,.4,1,1.6-.2,2.4-1,2.4a.8.8,0,0,1-.9-.9Zm0-1.9c0,.5.1.8.5.8s.6-.3.6-.7-.1-.9-.6-.9S457.2,157.1,457.2,157.6Z" fill="#f5f2ed"/><path d="M460.8,157.3a.5.5,0,0,0-.5-.5c-.5,0-.6.9-.6,1.4a.7.7,0,0,1,.7-.4q.9,0,.9,1.2c0,.7-.2,1.4-1,1.4s-1.1-.8-1.1-1.9.3-2.1,1.2-2.1a.8.8,0,0,1,.8.9Zm0,1.8c0-.6-.1-.9-.5-.9s-.6.3-.6.7.1,1.1.6,1.1S460.8,159.7,460.8,159.1Z" fill="#f5f2ed"/><path d="M463.6,156.4v.4a9.7,9.7,0,0,0-1.2,3.5h-.5a10.5,10.5,0,0,1,1.2-3.4h-1.5v-.5Z" fill="#f5f2ed"/><rect x="441.9" y="162" width="26.3" height="0.56" fill="#f5f2ed"/><rect x="441.9" y="154" width="26.3" height="0.56" fill="#f5f2ed"/><polygon points="318 138.3 322.5 133.8 318 129.3 321.7 124 316.5 120.4 319.2 114.6 313.4 111.9 315 105.7 308.9 104.1 309.4 97.7 303.1 97.2 302.5 90.8 296.1 91.4 294.5 85.2 288.3 86.8 285.6 81.1 279.8 83.8 276.2 78.5 270.9 82.2 266.4 77.7 261.9 82.2 256.7 78.5 253 83.8 247.2 81.1 244.5 86.8 238.4 85.2 236.7 91.4 230.4 90.8 229.8 97.2 223.5 97.7 224 104.1 217.8 105.7 219.5 111.9 213.7 114.6 216.4 120.4 211.2 124 214.8 129.3 210.3 133.8 210.3 133.8 210.3 133.8 214.8 138.3 211.2 143.5 211.2 143.5 211.2 143.5 216.4 147.2 213.7 153 219.5 155.7 217.8 161.8 224 163.5 223.5 169.8 229.8 170.4 230.4 176.8 236.7 176.2 238.4 182.4 244.5 180.7 247.2 186.5 253 183.8 256.7 189 261.9 185.4 266.4 189.9 266.4 189.9 266.4 189.9 270.9 185.4 276.2 189 276.2 189 276.2 189 279.8 183.8 285.6 186.5 288.3 180.7 294.5 182.4 296.1 176.2 302.5 176.8 303.1 170.4 309.4 169.8 308.9 163.5 315 161.8 313.4 155.7 319.1 153 316.5 147.2 321.7 143.5 318 138.3" fill="#2c2a28"/><path d="M266.4,178.9h-1.6v-.7h3.4v.8Zm-5-.3-3.4-.5.2-.7,3.3.5Zm10.2,0v-.7l3.3-.5v.7Zm-16.9-1.2-3.2-1,.2-.7,3.2,1Zm23.6-.1-.2-.7,3.2-1,.2.7Zm-30-2.2-3-1.5.3-.6,3,1.5Zm36.4,0-.3-.7,3-1.5.3.7Zm-42.4-3.2-2.8-1.9.4-.6,2.8,1.9Zm48.3-.1-.3-.6a22.2,22.2,0,0,0,2.7-1.9l.4.6Zm-53.7-4a27.3,27.3,0,0,1-2.5-2.3l.5-.5,2.4,2.3Zm59.2,0-.5-.6a27.3,27.3,0,0,0,2.5-2.3l.5.5Zm-64-4.8a17.1,17.1,0,0,1-2.1-2.6l.5-.5,2.1,2.7Zm68.8-.1-.6-.4,2.1-2.7.6.5Zm-72.8-5.4a27.5,27.5,0,0,1-1.7-2.9l.6-.3,1.7,2.9Zm76.8-.1-.7-.3c.6-1,1.2-2,1.7-3l.6.4Zm-80-5.9-1.2-3.2.7-.2,1.2,3.1Zm83.1-.1-.7-.3a19.8,19.8,0,0,0,1.2-3.1l.7.2Zm-85.3-6.3c-.2-1.1-.5-2.2-.7-3.3l.7-.2c.2,1.1.5,2.2.7,3.3Zm87.5-.1-.7-.2c.2-1.1.5-2.2.7-3.3h.7C310.7,142.7,310.4,143.9,310.2,145Zm-88.6-6.6c-.2-1.1-.2-2.3-.3-3.4h.7c.1,1.1.1,2.2.3,3.3Zm89.7-.1h-.7c.1-1.1.2-2.2.2-3.3h.7C311.5,136,311.4,137.1,311.3,138.3ZM222,133.8h-.7c0-1.2.1-2.3.1-3.4h.8C222.1,131.5,222,132.7,222,133.8Zm88.8-2.3-.3-3.3h.7l.3,3.4Zm-88.3-4.4h-.7c.2-1.1.4-2.2.7-3.3h.6Zm87.4-2.2c-.2-1.1-.4-2.2-.7-3.3l.6-.2c.3,1.1.6,2.2.8,3.3ZM224,120.6l-.7-.2,1.2-3.2.6.2C224.7,118.5,224.3,119.5,224,120.6Zm84.1-2.2-1.3-3.1.7-.2a28.8,28.8,0,0,1,1.3,3.1Zm-81.6-4-.7-.3a21.4,21.4,0,0,1,1.7-3l.6.3C227.5,112.4,227,113.4,226.5,114.4Zm78.8-2a27.5,27.5,0,0,0-1.7-2.9l.6-.4L306,112Zm-75.4-3.8-.6-.4a26.9,26.9,0,0,1,2-2.7l.6.4Zm71.8-1.8a27.5,27.5,0,0,0-2.2-2.6l.6-.5c.7.9,1.5,1.7,2.1,2.6Zm-67.6-3.4-.6-.5,2.5-2.4.4.5Zm63.1-1.6-2.5-2.2.5-.6,2.5,2.3ZM239,98.9l-.4-.6a26.9,26.9,0,0,1,2.7-2l.4.6Zm53.1-1.4-2.8-1.8.3-.6,2.9,1.8Zm-47.6-2.4-.3-.6,3-1.5.3.6Zm41.8-1-3-1.4.2-.7,3.1,1.4Zm-35.7-1.8-.3-.7,3.3-1.1.2.7Zm29.5-.8-3.2-.9.2-.7,3.3,1ZM257,90.4v-.7a17.5,17.5,0,0,1,3.3-.6v.7A19.1,19.1,0,0,0,257,90.4Zm16.6-.4-3.3-.5v-.7l3.3.5Zm-10-.5v-.7H267v.7h-3.4Z" fill="#f5f2ed"/><path d="M242.3,107.2a4.9,4.9,0,0,1,1.5,2.1l1.2-.2.2,1-1.4.2a1.8,1.8,0,0,1-.5.7c-.9,1-2.1.8-3.8-.7s-1.9-2.8-1-3.8S240.6,105.7,242.3,107.2Zm-2,2.2c1.1,1,1.9,1.4,2.3.9s0-1.2-1.1-2.2-1.8-1.4-2.3-.9S239.2,108.4,240.3,109.4Z" fill="#f5f2ed"/><path d="M246.8,105.7l1,1.1-.9.7-.3-.4c.1.5-.1.8-.5,1.2s-1.1.5-1.8-.4l-2.3-2.7.9-.7L245,107c.3.4.5.5.8.3s.4-.6-.1-1.2l-1.9-2.3.8-.7Z" fill="#f5f2ed"/><path d="M250.5,103.7a3.5,3.5,0,0,0,.6.9l-.8.6-.3-.4c0,.4-.2.7-.7,1.1a1.3,1.3,0,0,1-1.8-.6c-.6-.8-.3-1.7.7-2.4a.5.5,0,0,0,.4-.2l-.3-.4c-.2-.2-.4-.5-.8-.3s-.2.6-.1.9l-.9.5c-.4-.6-.5-1.4.6-2.1a1.4,1.4,0,0,1,2.1.3Zm-1.5-.3-.3.2c-.5.3-.6.7-.3,1a.5.5,0,0,0,.8.3c.5-.3.3-.7-.1-1.4Z" fill="#f5f2ed"/><path d="M251.9,104.3l-3-6,1-.5,3,6Z" fill="#f5f2ed"/><path d="M251.5,98.3l-.4-1.1,1-.4.4,1Zm.3.6,1-.4,1.9,4.4-1,.5Z" fill="#f5f2ed"/><path d="M253.5,98.1l.6-.2-.3-1.1,1-.4.4,1.2.7-.3.3.9-.7.3.9,2.5c.1.3.2.4.5.3h.2l.3.7-.6.4a1,1,0,0,1-1.4-.8l-1-2.7-.6.2Z" fill="#f5f2ed"/><path d="M257.8,96.8c.7,1.5,1.3,2.7,1.5,3.3h0V96.5l1.1-.2-.3,5.2c0,1.6-.5,1.8-1.2,2h-.4l-.2-.9h.3c.4-.1.5-.3.5-.9l-2.5-4.5Z" fill="#f5f2ed"/><path d="M266.6,97.8h-2.1v1.9h2.3v.9l-3.3.2-.3-6.4h3.3v1h-2.1v1.5h2Z" fill="#f5f2ed"/><path d="M271.3,94.3l-.4,5.3a7.8,7.8,0,0,0-.1,1.3h-1.1v-.5a.9.9,0,0,1-1.1.5c-1,0-1.4-1-1.2-2.6s.6-2.5,1.8-2.4a1,1,0,0,1,.8.5l.2-2.1ZM269,99.9c.6.1.8-.4.9-1.5s0-1.5-.6-1.6-.7.3-.8,1.5S268.6,99.9,269,99.9Z" fill="#f5f2ed"/><path d="M275.2,100.4a5.8,5.8,0,0,0-.3,1.4l-1.1-.2c0-.2.1-.4.1-.6a1.1,1.1,0,0,1-1.2.4c-.7-.2-1.1-.6-.9-1.7l.8-3.4,1.1.2-.7,3.2c-.1.5-.1.8.3.8s.7,0,.9-.8l.6-2.9,1.1.2Z" fill="#f5f2ed"/><path d="M279.2,101.5a1.6,1.6,0,0,1-2.2,1.1c-1.3-.5-1.3-1.6-.8-3s1.3-2.2,2.6-1.7a1.5,1.5,0,0,1,.9,2.1l-1-.4c0-.2.2-.7-.3-.9s-.8.3-1.1,1.3-.4,1.6,0,1.7.8-.3.9-.5Z" fill="#f5f2ed"/><path d="M282.5,103.8l-.5,1-.9-.5a.8.8,0,0,1,.2-.4,1.3,1.3,0,0,1-1.2,0,1.3,1.3,0,0,1-.6-1.9,1.7,1.7,0,0,1,2.5-.6l.3.2.3-.4c.1-.3.2-.6-.2-.8s-.6,0-.8.3l-.9-.5a1.4,1.4,0,0,1,2.1-.6c.9.5,1.2,1.2.8,2Zm-.5-1.4-.3-.2c-.6-.3-.9-.1-1.1.2a.5.5,0,0,0,.2.8c.5.3.8,0,1.1-.7Z" fill="#f5f2ed"/><path d="M284.9,100.8l.5.4.7-1,.9.6-.6,1,.6.4-.5.8-.6-.4-1.5,2.2c-.1.2-.2.4.1.6h.3l-.5.7-.6-.3c-.7-.4-.8-.8-.3-1.6l1.5-2.3-.5-.4Z" fill="#f5f2ed"/><path d="M287.7,102.7l.9.7-2.9,3.9-.9-.7Zm.4-.5.7-.9.9.6-.7.9Z" fill="#f5f2ed"/><path d="M290.6,108.3c-1.2,1.3-2.3,1.4-3.1.6s-.9-1.8.3-3.1,2.2-1.4,3.1-.6S291.6,107,290.6,108.3Zm-1.9-1.7c-.7.7-1,1.3-.6,1.6s.9.1,1.6-.7.9-1.3.5-1.6S289.4,105.8,288.7,106.6Z" fill="#f5f2ed"/><path d="M291.8,108.3l1.2-1,.7.9-.4.3a1.5,1.5,0,0,1,1.2.5c.5.6.4,1.2-.4,1.9l-2.6,2.2-.8-.8,2.5-2.1c.4-.3.5-.6.2-1s-.5-.3-1.1.2l-2.3,1.9-.7-.8Z" fill="#f5f2ed"/><polygon points="332 133.6 342.8 117.2 190 117.2 200.9 133.6 189.9 150.3 189.9 150.3 343 150.3 343 150.3 332 133.6" fill="#2c2a28" fill-rule="evenodd"/><path d="M343,150.8H189.4V150l10.8-16.4-11.2-16.9H343.7l-11.1,16.9,10.9,16.5v.7Zm-152.2-1H342.1l-10.7-16.2,10.5-15.9H191l10.5,15.9Z" fill="#f4f3ed"/><path d="M225.3,135.9l-.7,3.1h-2.2l2.9-12.3h2.9L231,139h-2.3l-.6-3.1Zm2.4-1.9c-.4-2.3-.8-4.1-1-5.2h-.1c-.1,1.1-.5,2.9-1,5.2Z" fill="#f5f2ed"/><path d="M233.5,126.7h2.2v10.4h4.2l-.2,1.9h-6.2Z" fill="#f5f2ed"/><path d="M249.4,139h-1.7a3.4,3.4,0,0,1-.1-1,2.6,2.6,0,0,1-2.4,1.2c-2.6,0-3.6-2.3-3.6-6.3s1.6-6.4,4.2-6.4,3.5,2.9,3.6,3.6h-2.2a1.5,1.5,0,0,0-1.5-1.7c-1.4,0-1.8,1.9-1.8,4.5s.4,4.5,1.8,4.5,1.5-.9,1.5-2.7V134h-1.7v-1.9h3.9Z" fill="#f5f2ed"/><path d="M260.4,132.8c0,4.5-1.2,6.4-4.1,6.4s-3.9-1.9-3.9-6.5,1.5-6.2,4-6.2S260.4,128.5,260.4,132.8Zm-5.8-.1c0,3,.5,4.7,1.8,4.7s1.7-1.6,1.7-4.7-.4-4.3-1.7-4.3S254.6,130,254.6,132.7Z" fill="#f5f2ed"/><path d="M263.5,139V126.7H266c2.5,6.8,3,8.1,3.1,8.7h.1c-.1-1.5-.1-3.3-.1-5.3v-3.4H271V139h-2.4c-2.6-7.2-3.1-8.6-3.2-9.1h0c.1,1.5.1,3.3.1,5.5V139Z" fill="#f5f2ed"/><path d="M282.1,132.8a10.1,10.1,0,0,1-.9,4.9l1.9,1.5-1.3,1.5-2.2-1.7a3.4,3.4,0,0,1-1.5.2c-2.7,0-4-1.9-4-6.5s1.6-6.2,4.1-6.2S282.1,128.5,282.1,132.8Zm-5.7-.1c0,3,.5,4.7,1.7,4.7s1.8-1.6,1.8-4.7-.4-4.3-1.8-4.3S276.4,130,276.4,132.7Z" fill="#f5f2ed"/><path d="M287.3,126.7v8.5c0,1,.3,2.2,1.7,2.2s1.5-1,1.5-2.2v-8.5h2.2v8.5c0,2.2-.8,4-3.8,4s-3.8-1.7-3.8-4v-8.5Z" fill="#f5f2ed"/><path d="M298.3,126.7V139h-2.2V126.7Z" fill="#f5f2ed"/><path d="M301.8,139V126.7h2.5c2.6,6.8,3.1,8.1,3.2,8.7h0c-.1-1.5-.1-3.3-.1-5.3v-3.4h2V139H307l-3.3-9.1h0c.1,1.5.1,3.3.1,5.5V139Z" fill="#f5f2ed"/><path d="M325.9,132.2a1.6,1.6,0,0,1,0,3.2,1.6,1.6,0,1,1,0-3.2Z" fill="#f5f2ed" fill-rule="evenodd"/><path d="M206.4,132.2a1.6,1.6,0,1,1-1.6,1.6,1.6,1.6,0,0,1,1.6-1.6Z" fill="#f5f2ed" fill-rule="evenodd"/><polygon points="266.4 105.3 267.5 107.6 270 107.9 268.2 109.7 268.7 112.1 266.4 111 264.2 112.1 264.6 109.7 262.8 107.9 265.3 107.6 266.4 105.3" fill="#f4f3ed"/><polygon points="259.8 110 260.4 111.1 261.6 111.3 260.7 112.1 260.9 113.4 259.8 112.8 258.7 113.4 258.9 112.1 258 111.3 259.3 111.1 259.8 110" fill="#f4f3ed"/><polygon points="272.4 110 272.9 111.1 274.2 111.3 273.3 112.1 273.5 113.4 272.4 112.8 271.3 113.4 271.5 112.1 270.6 111.3 271.8 111.1 272.4 110" fill="#f4f3ed"/><path d="M245,160.6l.7.6c.7.6.6,1.3-.2,2.3s-1.6,1.3-2.4.7l-.6-.6Zm-1.9,3,.3.3c.5.4,1,.1,1.7-.7s.8-1.3.3-1.8l-.3-.2Z" fill="#f5f2ed"/><path d="M247.8,165.3l-1.1-.7-.8,1.2,1.2.8-.3.3-1.6-1,2.3-3.3,1.5,1.1-.2.3-1.1-.8-.7,1,1,.8Z" fill="#f5f2ed"/><path d="M248.6,166.8c-.1.4-.1.8.2,1a.6.6,0,0,0,.9-.3c.2-.4.1-.6-.2-1.1s-.5-1-.2-1.5a.9.9,0,0,1,1.4-.3c.7.3.6.9.3,1.4l-.4-.3c.1-.2.3-.6-.2-.8s-.5,0-.7.2-.1.6.2,1,.5,1.1.2,1.6a1,1,0,0,1-1.5.4,1,1,0,0,1-.4-1.5Z" fill="#f5f2ed"/><path d="M252.7,165.7l-1.7,3.6-.5-.2,1.8-3.6Z" fill="#f5f2ed"/><path d="M254.2,170.6h-.4c0-.1.1-.2.1-.4a.7.7,0,0,1-.9.1c-.8-.3-.7-1.2-.3-2.3s1.2-1.7,2-1.4a1,1,0,0,1,.5,1.4l-.4-.2c0-.1.2-.6-.3-.8s-.9.3-1.3,1.2-.4,1.6.1,1.8.7-.2,1-.9v-.2l-.7-.2.2-.4,1.1.4Z" fill="#f5f2ed"/><path d="M255.5,171.1l1.1-3.9.6.2c.3,2.9.3,3.3.3,3.5h0a16.7,16.7,0,0,1,.5-1.8l.4-1.4.4.2-1.1,3.8h-.5a26.3,26.3,0,0,0-.4-3.6h0c-.1.5-.2,1.1-.4,1.8l-.4,1.4Z" fill="#f5f2ed"/><path d="M261.3,171.4c0,.6-.2,1-.9.9s-.3,0-.3-.1v-.4h.3c.3,0,.4-.2.5-.5l.4-3h.5Z" fill="#f5f2ed"/><path d="M264.9,170.7c-.2,1.4-.5,2.1-1.4,2s-1.2-.8-1-2.2.5-2,1.3-1.9S265,169.4,264.9,170.7Zm-1.9-.1c-.1,1,0,1.6.5,1.7s.8-.5.8-1.6,0-1.6-.5-1.7S263.1,169.5,263,170.6Z" fill="#f5f2ed"/><path d="M265.9,168.8H267a.8.8,0,0,1,1,.9c0,.6-.2.8-.5.9a.9.9,0,0,1,.7,1,1,1,0,0,1-1.1,1.1H266Zm1,1.6c.5,0,.6-.2.6-.6a.5.5,0,0,0-.6-.6h-.5v1.2Zm-.4,2h.5a.6.6,0,0,0,.7-.7.7.7,0,0,0-.8-.8h-.4Z" fill="#f5f2ed"/><path d="M269.6,171.6a.7.7,0,0,0,.7.6.5.5,0,0,0,.5-.7c0-.4-.2-.6-.7-.8s-1-.5-1.1-1.1a1.1,1.1,0,0,1,.9-1.1,1.1,1.1,0,0,1,1.2.9h-.5c-.1-.2-.2-.6-.6-.6s-.5.3-.5.6.2.5.7.7,1.1.6,1.1,1.2a1,1,0,0,1-.9,1.2,1.1,1.1,0,0,1-1.3-1Z" fill="#f5f2ed"/><path d="M273.1,168.1l1.8-.5v.5l-1.3.3.3,1.2,1.2-.3v.4l-1.2.3.4,1.8-.5.2Z" fill="#f5f2ed"/><path d="M278.5,168.6c.4,1.3.3,2-.5,2.3s-1.3-.3-1.8-1.6-.2-2,.5-2.3S278,167.3,278.5,168.6Zm-1.8.6c.3,1,.7,1.5,1.2,1.3s.5-.7.1-1.8-.7-1.4-1.2-1.3S276.3,168.2,276.7,169.2Z" fill="#f5f2ed"/><path d="M280.1,168.1l.7,1.7-.4.2-1.7-3.7,1-.4a1,1,0,0,1,1.4.5,1,1,0,0,1-.1,1.1c.4-.1.6.2.8.7h.1l.4.8-.4.2c-.2-.1-.3-.5-.4-.8h-.1c-.2-.5-.4-.7-.9-.5Zm-.2-.4.4-.2c.5-.1.5-.5.3-.9a.5.5,0,0,0-.8-.3l-.5.2Z" fill="#f5f2ed"/><path d="M284.4,166.5l.4,1.2-.4.3-1.3-3.9.5-.3,3,2.8-.5.3-.8-.9Zm.6-.8-1.4-1.4h0c.1.4.4,1,.7,1.8Z" fill="#f5f2ed"/><path d="M285,162.8l.4-.3,2.1,2.9,1.2-.9.2.4-1.5,1.1Z" fill="#f5f2ed"/><path d="M287.1,161.3l.3-.4,2.4,2.7,1-.9.3.3-1.4,1.2Z" fill="#f5f2ed"/><path d="M259.8,158.4h-1.3v1.5h1.4v.4H258v-4h1.8v.5h-1.3V158h1.3Z" fill="#f5f2ed"/><path d="M260.7,159.3c.1.4.3.7.7.7s.6-.3.6-.7-.2-.6-.7-.9-.9-.5-.9-1.1a1,1,0,0,1,2,0h-.5c0-.2,0-.6-.5-.6s-.5.2-.5.5.1.6.6.8a1.3,1.3,0,0,1,1,1.3,1,1,0,0,1-1.1,1.1,1,1,0,0,1-1.1-1.1Z" fill="#f5f2ed"/><path d="M263.6,156.8h-.9v-.5H265v.5h-.9v3.5h-.5Z" fill="#f5f2ed"/><path d="M264.9,160.3v-.8h.4v.8Z" fill="#f5f2ed"/><path d="M267.3,160.3V157h-.5v-.3c.2-.1.5-.2.6-.4h.4v3.9Z" fill="#f5f2ed"/><path d="M268.9,159.5c0,.2.1.5.4.5s.6-.9.6-1.6a.5.5,0,0,1-.6.4c-.6,0-.9-.4-.9-1.1s.4-1.3,1-1.3,1,.4,1,1.6-.2,2.4-1.1,2.4a.9.9,0,0,1-.9-.9Zm0-1.9c0,.5.1.8.5.8s.5-.3.5-.7-.1-.9-.5-.9S268.9,157.1,268.9,157.6Z" fill="#f5f2ed"/><path d="M272.4,157.3c0-.1,0-.5-.4-.5s-.6.9-.6,1.4a.7.7,0,0,1,.7-.4q.9,0,.9,1.2c0,.7-.3,1.4-1.1,1.4s-1-.8-1-1.9.3-2.1,1.1-2.1a.9.9,0,0,1,.9.9Zm.1,1.8c0-.6-.2-.9-.5-.9s-.6.3-.6.7.1,1.1.5,1.1S272.5,159.7,272.5,159.1Z" fill="#f5f2ed"/><path d="M275.2,156.4v.4a12,12,0,0,0-1.1,3.5h-.5a13.6,13.6,0,0,1,1.1-3.4h-1.4v-.5Z" fill="#f5f2ed"/><rect x="253.5" y="162" width="26.3" height="0.56" fill="#f5f2ed"/><rect x="253.5" y="154" width="26.3" height="0.56" fill="#f5f2ed"/><polygon points="694.7 138.3 699.2 133.8 694.7 129.3 698.4 124 693.1 120.4 695.8 114.6 690.1 111.9 691.7 105.7 685.5 104.1 686.1 97.7 679.7 97.2 679.2 90.8 672.8 91.4 671.2 85.2 665 86.8 662.3 81.1 656.5 83.8 652.9 78.5 647.6 82.2 643.1 77.7 638.6 82.2 633.4 78.5 629.7 83.8 623.9 81.1 621.2 86.8 615.1 85.2 613.4 91.4 607.1 90.8 606.5 97.2 600.1 97.7 600.7 104.1 594.5 105.7 596.2 111.9 590.4 114.6 593.1 120.4 587.9 124 591.5 129.3 587 133.8 587 133.8 587 133.8 591.5 138.3 587.9 143.5 587.9 143.5 587.9 143.5 593.1 147.2 590.4 153 596.2 155.7 594.5 161.8 600.7 163.5 600.1 169.8 606.5 170.4 607 176.8 613.4 176.2 615.1 182.4 621.2 180.7 623.9 186.5 629.7 183.8 633.4 189 638.6 185.4 643.1 189.9 643.1 189.9 643.1 189.9 647.6 185.4 652.9 189 652.9 189 652.9 189 656.5 183.8 662.3 186.5 665 180.7 671.2 182.4 672.8 176.2 679.2 176.8 679.7 170.4 686.1 169.8 685.5 163.5 691.7 161.8 690 155.7 695.8 153 693.1 147.2 698.4 143.5 694.7 138.3" fill="#2c2a28"/><path d="M643.1,178.9h-1.6v-.7h3.4v.8Zm-5-.3-3.4-.5.2-.7,3.3.5Zm10.2,0v-.7l3.3-.5v.7Zm-16.9-1.2-3.2-1,.2-.7,3.2,1Zm23.5-.1v-.7l3.2-1,.2.7ZM625,175.1a22,22,0,0,1-3.1-1.5l.4-.6,3,1.5Zm36.3,0-.2-.7,3-1.5.3.7ZM619,171.9l-2.8-1.9.4-.6,2.8,1.9Zm48.3-.1-.4-.6a17.3,17.3,0,0,0,2.8-1.9l.4.6Zm-53.8-4-2.4-2.3.5-.5a26.1,26.1,0,0,0,2.4,2.3Zm59.3,0-.5-.6a26.1,26.1,0,0,0,2.4-2.3l.5.5Zm-64-4.8a17.1,17.1,0,0,1-2.1-2.6l.5-.5,2.1,2.7Zm68.7-.1-.5-.4,2.1-2.7.5.5A17.1,17.1,0,0,1,677.5,162.9Zm-72.7-5.4a27.5,27.5,0,0,1-1.7-2.9l.6-.3,1.7,2.9Zm76.7-.1-.6-.3c.6-1,1.2-2,1.7-3l.6.4A27.5,27.5,0,0,1,681.5,157.4Zm-79.9-5.9-1.2-3.2.7-.2a16.6,16.6,0,0,0,1.2,3.1Zm83.1-.1-.7-.3,1.2-3.1.7.2Zm-85.3-6.3c-.3-1.1-.5-2.2-.7-3.3l.7-.2c.2,1.1.4,2.2.7,3.3Zm87.4-.1-.7-.2a19.4,19.4,0,0,0,.7-3.3h.7A20.5,20.5,0,0,1,686.8,145Zm-88.6-6.6c-.1-1.1-.2-2.3-.2-3.4h.7c.1,1.1.1,2.2.2,3.3Zm89.8-.1h-.7c.1-1.1.2-2.2.2-3.3h.7C688.2,136,688.1,137.1,688,138.3Zm-89.3-4.5H598c0-1.2,0-2.3.1-3.4h.7C598.8,131.5,598.7,132.7,598.7,133.8Zm88.8-2.3-.3-3.3h.7l.3,3.4Zm-88.3-4.4h-.7l.6-3.3h.7Zm87.4-2.2c-.2-1.1-.5-2.2-.8-3.3l.7-.2c.3,1.1.6,2.2.8,3.3Zm-85.9-4.3-.7-.2a30.3,30.3,0,0,1,1.2-3.2l.6.2C601.4,118.5,601,119.5,600.7,120.6Zm84.1-2.2-1.3-3.1.7-.2c.4,1,.9,2,1.3,3.1Zm-81.6-4-.7-.3c.5-1.1,1.1-2.1,1.6-3l.6.3Zm78.8-2a27.5,27.5,0,0,0-1.7-2.9l.6-.4a27.5,27.5,0,0,1,1.7,2.9Zm-75.5-3.8-.5-.4a26.9,26.9,0,0,1,2-2.7l.5.4Zm71.9-1.8a27.5,27.5,0,0,0-2.2-2.6l.6-.5,2.1,2.6Zm-67.7-3.4-.5-.5,2.4-2.4.5.5Zm63.2-1.6-2.5-2.2.5-.6,2.5,2.3Zm-58.2-2.9-.5-.6,2.8-2,.4.6Zm53-1.4-2.8-1.8.4-.6,2.9,1.8Zm-47.5-2.4-.3-.6,3-1.5.3.6Zm41.8-1-3-1.4.2-.7,3.1,1.4Zm-35.7-1.8-.3-.7,3.2-1.1.2.7Zm29.5-.8-3.2-.9.2-.7,3.2,1Zm-23.1-1.1-.2-.7a20.2,20.2,0,0,1,3.4-.6v.7A19.1,19.1,0,0,0,633.7,90.4Zm16.6-.4-3.3-.5v-.7l3.3.5Zm-10-.5v-.7h3.4v.7h-3.4Z" fill="#f5f2ed"/><path d="M619,107.2a5.9,5.9,0,0,1,1.5,2.1l1.2-.2.2,1-1.4.2a1.8,1.8,0,0,1-.5.7c-.9,1-2.1.8-3.8-.7s-1.9-2.8-1-3.8S617.3,105.7,619,107.2Zm-2.1,2.2c1.2,1,2,1.4,2.4.9s0-1.2-1.1-2.2-1.9-1.4-2.3-.9S615.9,108.4,616.9,109.4Z" fill="#f5f2ed"/><path d="M623.5,105.7a5.3,5.3,0,0,1,.9,1.1l-.8.7-.4-.4c.2.5,0,.8-.4,1.2s-1.1.5-1.9-.4l-2.2-2.7.9-.7,2,2.5q.4.6.9.3c.3-.3.4-.6-.1-1.2l-1.9-2.3.8-.7Z" fill="#f5f2ed"/><path d="M627.2,103.7a3.5,3.5,0,0,0,.6.9l-.9.6c0-.1-.2-.3-.2-.4s-.2.7-.7,1.1a1.3,1.3,0,0,1-1.8-.6c-.6-.8-.3-1.7.7-2.4a.5.5,0,0,0,.4-.2l-.3-.4c-.2-.2-.4-.5-.8-.3s-.3.6-.1.9l-.9.5c-.4-.6-.5-1.4.6-2.1a1.4,1.4,0,0,1,2.1.3Zm-1.5-.3-.3.2c-.5.3-.6.7-.4,1s.5.5.8.3.4-.7,0-1.4Z" fill="#f5f2ed"/><path d="M628.5,104.3l-3-6,1-.5,3,6Z" fill="#f5f2ed"/><path d="M628.2,98.3l-.4-1.1,1-.4.4,1Zm.3.6,1-.4,1.9,4.4-1,.5Z" fill="#f5f2ed"/><path d="M630.2,98.1l.6-.2-.4-1.1,1.1-.4.4,1.2.7-.3.3.9-.7.3.8,2.5c.1.3.2.4.6.3h.2l.3.7-.6.4a1.1,1.1,0,0,1-1.5-.8l-.9-2.7-.6.2Z" fill="#f5f2ed"/><path d="M634.5,96.8c.7,1.5,1.3,2.7,1.5,3.3h0V96.5l1.1-.2-.3,5.2c0,1.6-.6,1.8-1.2,2h-.5l-.2-.9h.4c.4-.1.5-.3.5-.9l-2.5-4.5Z" fill="#f5f2ed"/><path d="M643.2,97.8h-2v1.9h2.3v.9l-3.3.2-.3-6.4h3.3v1h-2.1v1.5h2.1Z" fill="#f5f2ed"/><path d="M648,94.3l-.4,5.3a7.8,7.8,0,0,0-.1,1.3h-1.1v-.5a.9.9,0,0,1-1.1.5c-1.1,0-1.4-1-1.3-2.6s.7-2.5,1.9-2.4a1,1,0,0,1,.8.5l.2-2.1Zm-2.3,5.6c.6.1.8-.4.9-1.5s0-1.5-.6-1.6-.7.3-.8,1.5S645.3,99.9,645.7,99.9Z" fill="#f5f2ed"/><path d="M651.8,100.4a7.8,7.8,0,0,1-.3,1.4l-1-.2a1.3,1.3,0,0,1,.1-.6,1.1,1.1,0,0,1-1.2.4c-.7-.2-1.1-.6-.9-1.7l.8-3.4,1.1.2-.7,3.2c-.1.5-.1.8.3.8s.7,0,.8-.8l.7-2.9,1.1.2Z" fill="#f5f2ed"/><path d="M655.9,101.5a1.7,1.7,0,0,1-2.2,1.1c-1.3-.5-1.3-1.6-.8-3s1.2-2.2,2.5-1.7a1.5,1.5,0,0,1,1,2.1l-1-.4c0-.2.2-.7-.3-.9s-.8.3-1.1,1.3-.4,1.6,0,1.7.7-.3.9-.5Z" fill="#f5f2ed"/><path d="M659.1,103.8l-.4,1-.9-.5.2-.4a1.4,1.4,0,0,1-1.3,0,1.4,1.4,0,0,1-.5-1.9,1.7,1.7,0,0,1,2.5-.6l.3.2.3-.4c.1-.3.2-.6-.2-.8s-.6,0-.8.3l-1-.5a1.5,1.5,0,0,1,2.2-.6c.9.5,1.2,1.2.8,2Zm-.4-1.4-.3-.2c-.6-.3-1-.1-1.1.2a.5.5,0,0,0,.2.8c.5.3.8,0,1.1-.7Z" fill="#f5f2ed"/><path d="M661.6,100.8l.5.4.7-1,.9.6-.7,1,.7.4-.5.8-.7-.4-1.4,2.2c-.2.2-.2.4.1.6h.2l-.4.7a1.1,1.1,0,0,1-.6-.3c-.7-.4-.8-.8-.3-1.6l1.5-2.3-.5-.4Z" fill="#f5f2ed"/><path d="M664.4,102.7l.9.7-3,3.9-.9-.7Zm.4-.5.7-.9.9.6-.7.9Z" fill="#f5f2ed"/><path d="M667.2,108.3c-1.2,1.3-2.2,1.4-3.1.6s-.8-1.8.4-3.1,2.2-1.4,3.1-.6S668.3,107,667.2,108.3Zm-1.8-1.7c-.7.7-1,1.3-.6,1.6s.9.1,1.6-.7.9-1.3.5-1.6S666.1,105.8,665.4,106.6Z" fill="#f5f2ed"/><path d="M668.5,108.3l1.2-1,.7.9-.4.3a1.2,1.2,0,0,1,1.1.5c.6.6.5,1.2-.3,1.9l-2.6,2.2-.8-.8,2.5-2.1c.4-.3.5-.6.2-1s-.6-.3-1.1.2l-2.3,1.9-.8-.8Z" fill="#f5f2ed"/><polygon points="708.6 133.6 719.5 117.2 566.7 117.2 577.6 133.6 566.6 150.3 566.6 150.3 719.7 150.3 719.7 150.3 708.6 133.6" fill="#2c2a28" fill-rule="evenodd"/><path d="M719.7,150.8H566.1V150L577,133.6l-11.2-16.9H720.4l-11.2,16.9,11,16.5v.7Zm-152.2-1H718.8L708,133.6l10.6-15.9h-151l10.6,15.9Z" fill="#f4f3ed"/><path d="M601.9,135.9l-.6,3.1h-2.2l2.9-12.3h2.8l2.9,12.3h-2.3l-.6-3.1Zm2.5-1.9c-.4-2.3-.8-4.1-1-5.2h-.1c-.1,1.1-.5,2.9-1,5.2Z" fill="#f5f2ed"/><path d="M610.2,126.7h2.2v10.4h4.2l-.2,1.9h-6.2Z" fill="#f5f2ed"/><path d="M626.1,139h-1.7a3.4,3.4,0,0,1-.1-1,2.7,2.7,0,0,1-2.5,1.2c-2.6,0-3.5-2.3-3.5-6.3s1.5-6.4,4.2-6.4a3.3,3.3,0,0,1,3.5,3.6h-2.1c-.1-.5-.2-1.7-1.5-1.7s-1.8,1.9-1.8,4.5.3,4.5,1.7,4.5,1.6-.9,1.6-2.7V134h-1.7v-1.9h3.9Z" fill="#f5f2ed"/><path d="M637.1,132.8c0,4.5-1.3,6.4-4.1,6.4s-4-1.9-4-6.5,1.6-6.2,4.1-6.2S637.1,128.5,637.1,132.8Zm-5.8-.1c0,3,.5,4.7,1.7,4.7s1.8-1.6,1.8-4.7-.4-4.3-1.8-4.3S631.3,130,631.3,132.7Z" fill="#f5f2ed"/><path d="M640.2,139V126.7h2.4c2.6,6.8,3.1,8.1,3.2,8.7h0c0-1.5-.1-3.3-.1-5.3v-3.4h2V139h-2.4c-2.6-7.2-3.1-8.6-3.2-9.1H642c.1,1.5.1,3.3.1,5.5V139Z" fill="#f5f2ed"/><path d="M658.8,132.8c0,2.2-.3,3.9-1,4.9l2,1.5-1.3,1.5-2.2-1.7a3.9,3.9,0,0,1-1.5.2c-2.7,0-4-1.9-4-6.5s1.5-6.2,4.1-6.2S658.8,128.5,658.8,132.8Zm-5.7-.1c0,3,.4,4.7,1.7,4.7s1.8-1.6,1.8-4.7-.4-4.3-1.8-4.3S653.1,130,653.1,132.7Z" fill="#f5f2ed"/><path d="M664,126.7v8.5c0,1,.3,2.2,1.6,2.2s1.6-1,1.6-2.2v-8.5h2.2v8.5c0,2.2-.8,4-3.8,4s-3.8-1.7-3.8-4v-8.5Z" fill="#f5f2ed"/><path d="M675,126.7V139h-2.2V126.7Z" fill="#f5f2ed"/><path d="M678.5,139V126.7H681c2.6,6.8,3.1,8.1,3.2,8.7h0c-.1-1.5-.1-3.3-.1-5.3v-3.4h2V139h-2.4c-2.7-7.2-3.1-8.6-3.3-9.1h0c.1,1.5.1,3.3.1,5.5V139Z" fill="#f5f2ed"/><path d="M702.6,132.2a1.6,1.6,0,0,1,0,3.2,1.6,1.6,0,0,1,0-3.2Z" fill="#f5f2ed" fill-rule="evenodd"/><path d="M583.1,132.2a1.6,1.6,0,1,1-1.6,1.6,1.6,1.6,0,0,1,1.6-1.6Z" fill="#f5f2ed" fill-rule="evenodd"/><polygon points="643.1 105.3 644.2 107.6 646.7 107.9 644.9 109.7 645.3 112.1 643.1 111 640.9 112.1 641.3 109.7 639.5 107.9 642 107.6 643.1 105.3" fill="#f4f3ed"/><polygon points="636.5 110 637.1 111.1 638.3 111.3 637.4 112.1 637.6 113.4 636.5 112.8 635.4 113.4 635.6 112.1 634.7 111.3 636 111.1 636.5 110" fill="#f4f3ed"/><polygon points="649.1 110 649.6 111.1 650.9 111.3 650 112.1 650.2 113.4 649.1 112.8 648 113.4 648.2 112.1 647.3 111.3 648.5 111.1 649.1 110" fill="#f4f3ed"/><path d="M621.7,160.6l.7.6c.7.6.6,1.3-.2,2.3s-1.6,1.3-2.4.7l-.7-.6Zm-1.9,3,.2.3c.6.4,1.1.1,1.8-.7s.8-1.3.3-1.8l-.3-.2Z" fill="#f5f2ed"/><path d="M624.5,165.3l-1.1-.7-.8,1.2,1.2.8-.3.3-1.6-1,2.3-3.3,1.5,1.1-.2.3-1.2-.8-.7,1,1.1.8Z" fill="#f5f2ed"/><path d="M625.3,166.8c-.2.4-.2.8.2,1s.6.1.9-.3.1-.6-.2-1.1-.5-1-.2-1.5a.8.8,0,0,1,1.3-.3c.7.3.6.9.4,1.4l-.4-.3a.6.6,0,0,0-.2-.8c-.3-.2-.5,0-.7.2s-.1.6.2,1,.5,1.1.2,1.6a1,1,0,0,1-1.5.4,1,1,0,0,1-.4-1.5Z" fill="#f5f2ed"/><path d="M629.4,165.7l-1.7,3.6-.5-.2,1.8-3.6Z" fill="#f5f2ed"/><path d="M630.8,170.6h-.3a.8.8,0,0,1,.1-.4.7.7,0,0,1-.9.1c-.8-.3-.7-1.2-.3-2.3s1.2-1.7,2-1.4a1,1,0,0,1,.5,1.4l-.4-.2c0-.1.2-.6-.3-.8s-.9.3-1.3,1.2-.5,1.6,0,1.8.8-.2,1.1-.9v-.2l-.6-.2.2-.4,1.1.4Z" fill="#f5f2ed"/><path d="M632.2,171.1l1.1-3.9.6.2c.3,2.9.3,3.3.3,3.5h0a16.7,16.7,0,0,1,.5-1.8l.4-1.4.4.2-1.1,3.8h-.5c-.3-3-.4-3.4-.4-3.6h0c-.1.5-.3,1.1-.4,1.8l-.4,1.4Z" fill="#f5f2ed"/><path d="M638,171.4c-.1.6-.2,1-.9.9h-.4v-.4h.3c.3,0,.4-.2.4-.5l.5-3h.5Z" fill="#f5f2ed"/><path d="M641.5,170.7c-.1,1.4-.5,2.1-1.3,2s-1.2-.8-1.1-2.2.6-2,1.4-1.9S641.6,169.4,641.5,170.7Zm-1.9-.1c0,1,.1,1.6.6,1.7s.7-.5.8-1.6-.1-1.6-.5-1.7S639.7,169.5,639.6,170.6Z" fill="#f5f2ed"/><path d="M642.6,168.8h1.1a.8.8,0,0,1,1,.9c0,.6-.2.8-.5.9s.6.3.7,1a1.1,1.1,0,0,1-1.2,1.1h-1Zm1,1.6c.5,0,.6-.2.6-.6a.5.5,0,0,0-.6-.6h-.5v1.2Zm-.4,2h.5a.6.6,0,0,0,.7-.7.7.7,0,0,0-.8-.8h-.5Z" fill="#f5f2ed"/><path d="M646.3,171.6a.7.7,0,0,0,.7.6.5.5,0,0,0,.5-.7c0-.4-.2-.6-.8-.8a1.3,1.3,0,0,1-1-1.1,1,1,0,0,1,.9-1.1.9.9,0,0,1,1.1.9h-.4c-.1-.2-.2-.6-.7-.6a.5.5,0,0,0-.4.6c0,.4.2.5.7.7s1.1.6,1.1,1.2-.2,1.1-1,1.2-1.1-.4-1.2-1Z" fill="#f5f2ed"/><path d="M649.8,168.1l1.8-.5v.5l-1.3.3.2,1.2,1.3-.3v.4l-1.3.3.5,1.8-.5.2Z" fill="#f5f2ed"/><path d="M655.2,168.6c.4,1.3.3,2-.5,2.3s-1.4-.3-1.8-1.6-.3-2,.5-2.3S654.7,167.3,655.2,168.6Zm-1.8.6c.3,1,.7,1.5,1.2,1.3s.4-.7.1-1.8-.7-1.4-1.2-1.3S653,168.2,653.4,169.2Z" fill="#f5f2ed"/><path d="M656.7,168.1l.8,1.7-.4.2-1.7-3.7,1-.4a1,1,0,0,1,1.4.5,1.3,1.3,0,0,1-.1,1.1c.3-.1.6.2.8.7h.1a2.9,2.9,0,0,0,.4.8l-.5.2c-.1-.1-.2-.5-.4-.8h0c-.3-.5-.5-.7-.9-.5Zm-.1-.4.4-.2c.4-.1.5-.5.3-.9a.5.5,0,0,0-.8-.3l-.5.2Z" fill="#f5f2ed"/><path d="M661.1,166.5l.4,1.2-.4.3-1.3-3.9.5-.3,3,2.8-.5.3-.9-.9Zm.5-.8-1.3-1.4h0c.1.4.4,1,.6,1.8Z" fill="#f5f2ed"/><path d="M661.7,162.8l.4-.3,2.1,2.9,1.2-.9.2.4-1.5,1.1Z" fill="#f5f2ed"/><path d="M663.7,161.3l.4-.4,2.4,2.7,1-.9.3.3-1.4,1.2Z" fill="#f5f2ed"/><path d="M636.5,158.4h-1.4v1.5h1.5v.4h-1.8v-4h1.8v.5h-1.4V158h1.4Z" fill="#f5f2ed"/><path d="M637.4,159.3c.1.4.2.7.7.7s.6-.3.6-.7-.2-.6-.7-.9-.9-.5-.9-1.1a1,1,0,0,1,2,0h-.5c0-.2-.1-.6-.5-.6s-.6.2-.6.5.2.6.7.8a1.3,1.3,0,0,1,1,1.3,1,1,0,0,1-1.1,1.1c-.9,0-1.1-.6-1.2-1.1Z" fill="#f5f2ed"/><path d="M640.3,156.8h-.9v-.5h2.2v.5h-.8v3.5h-.5Z" fill="#f5f2ed"/><path d="M641.5,160.3v-.8h.5v.8Z" fill="#f5f2ed"/><path d="M644,160.3V157h-.6v-.3c.3-.1.6-.2.7-.4h.3v3.9Z" fill="#f5f2ed"/><path d="M645.6,159.5c0,.2.1.5.4.5s.6-.9.6-1.6a.5.5,0,0,1-.6.4c-.6,0-.9-.4-.9-1.1s.3-1.3,1-1.3,1,.4,1,1.6-.3,2.4-1.1,2.4a.9.9,0,0,1-.9-.9Zm-.1-1.9c0,.5.2.8.6.8s.5-.3.5-.7-.1-.9-.5-.9S645.5,157.1,645.5,157.6Z" fill="#f5f2ed"/><path d="M649.1,157.3c0-.1,0-.5-.4-.5s-.6.9-.6,1.4a.7.7,0,0,1,.7-.4c.5,0,.9.4.9,1.2s-.3,1.4-1.1,1.4-1-.8-1-1.9.2-2.1,1.1-2.1a.9.9,0,0,1,.9.9Zm.1,1.8q0-.9-.6-.9c-.4,0-.5.3-.5.7s.1,1.1.5,1.1S649.2,159.7,649.2,159.1Z" fill="#f5f2ed"/><path d="M651.9,156.4v.4a12,12,0,0,0-1.1,3.5h-.5a10.5,10.5,0,0,1,1.1-3.4H650v-.5Z" fill="#f5f2ed"/><rect x="630.2" y="162" width="26.3" height="0.56" fill="#f5f2ed"/><rect x="630.2" y="154" width="26.3" height="0.56" fill="#f5f2ed"/></g><g id="Template"><path d="M43.5,9.6H39.1V6h13V9.6H47.7V22H43.5Z" fill="#231f20"/><path d="M54.5,23.5c.9,0,1.4-.2,1.6-.7l.3-.6L51.8,10.5h3.8l2.7,7.3,2.6-7.3h3.9L59.6,23.7c-1,2.4-2.7,3-4.9,3H53.1l.5-3.3Z" fill="#231f20"/><path d="M65.9,26.5v-16h3.7v1.3A4.3,4.3,0,0,1,73,10.2c2.9,0,5.1,2.1,5.1,6s-2.2,6.1-5.1,6.1a4.4,4.4,0,0,1-3.4-1.6v5.8Zm5.9-13.1a3.1,3.1,0,0,0-2.2,1.1V18a3.1,3.1,0,0,0,2.2,1.1,2.6,2.6,0,0,0,2.6-2.9A2.6,2.6,0,0,0,71.8,13.4Z" fill="#231f20"/><path d="M85.5,10.2c3.4,0,5.9,2.5,5.9,6.4v.8H83.1a2.9,2.9,0,0,0,3,2.1,4.3,4.3,0,0,0,2.8-1l1.6,2.3a7.9,7.9,0,0,1-4.9,1.5c-3.5,0-6.3-2.3-6.3-6.1A6,6,0,0,1,85.5,10.2ZM83.1,15h4.8a2.2,2.2,0,0,0-2.4-2A2.3,2.3,0,0,0,83.1,15Z" fill="#231f20"/><path d="M93.8,18a6.8,6.8,0,0,0,4.1,1.5c1.1,0,1.5-.3,1.5-.8s-.8-.8-2-1-4.7-.8-4.7-3.7,1.7-3.8,4.9-3.8a8.4,8.4,0,0,1,4.9,1.5l-1.4,2.4a5.5,5.5,0,0,0-3.4-1.2c-.9,0-1.5.3-1.5.8s.6.7,1.9.9,4.8.8,4.8,3.9-1.9,3.8-5.2,3.8a9.5,9.5,0,0,1-5.5-1.7Z" fill="#231f20"/><path d="M110.2,16.2a6,6,0,0,1,6.3-6c4,0,6.4,2.8,6.4,6a6.4,6.4,0,0,1-12.7,0Zm8.9,0a2.6,2.6,0,1,0-5.1,0c0,1.6.9,2.9,2.5,2.9A2.6,2.6,0,0,0,119.1,16.2Z" fill="#231f20"/><path d="M125.6,13.7h-1.9V10.5h1.9V9.9a4,4,0,0,1,4.2-4.1,5.4,5.4,0,0,1,2.4.5l-.7,2.5-.9-.2a1.2,1.2,0,0,0-1.3,1.4v.5h2.4v3.2h-2.4V22h-3.7Z" fill="#231f20"/><path d="M140.5,16.7a7.3,7.3,0,0,0,5.1,2.1c1.4,0,2.3-.6,2.3-1.4s-1.1-1.2-2.8-1.6-6.3-1.2-6.3-5,2.3-5,6.4-5A10.2,10.2,0,0,1,151.7,8l-2.3,3a7.4,7.4,0,0,0-4.5-1.7c-1.4,0-1.9.6-1.9,1.3s1,1.1,2.8,1.4,6.3,1.4,6.3,5-2.4,5.3-6.7,5.3a9.8,9.8,0,0,1-7.1-2.5Z" fill="#ed1c24"/><path d="M161.9,14.9,159.8,22h-4l-3.5-11.5h3.8l1.9,7.1,2.3-7.1h3.3l2.3,7.1,1.8-7.1h3.8L168.1,22h-4Z" fill="#ec008c"/><path d="M179.6,20.9a4.9,4.9,0,0,1-3.6,1.4,3.8,3.8,0,0,1-4-3.8c0-2.8,2.2-3.6,4-3.6a4.5,4.5,0,0,1,3.6,1.3V14.7c0-1-.9-1.6-2.4-1.6a5,5,0,0,0-3.3,1.2L172.6,12a8,8,0,0,1,5.2-1.8c2.8,0,5.4,1,5.4,4.6V22h-3.6Zm0-2.9a2.9,2.9,0,0,0-2.1-.8c-1,0-1.9.5-1.9,1.4s.9,1.3,1.9,1.3a2.9,2.9,0,0,0,2.1-.8Z" fill="#00a651"/><path d="M186.7,18.9V13.7h-1.9V10.5h1.9V7.3h3.7v3.2h2.3v3.2h-2.3v4.2c0,.7.4,1.2,1,1.2a1.6,1.6,0,0,0,.9-.3l.8,2.8a4.5,4.5,0,0,1-2.8.7C188,22.3,186.7,21.2,186.7,18.9Z" fill="#00aeef"/><path d="M200.1,10.2a5.7,5.7,0,0,1,4.8,2.1l-2.4,2.2a2.8,2.8,0,0,0-2.2-1.1,2.7,2.7,0,0,0-2.7,2.8,2.7,2.7,0,0,0,2.7,2.9,2.6,2.6,0,0,0,2.2-1.2l2.4,2.3a5.7,5.7,0,0,1-4.8,2.1,5.9,5.9,0,0,1-6.3-6.1C193.8,12.6,196.5,10.2,200.1,10.2Z" fill="#2e3192"/><path d="M214.4,15.3c0-1.4-.7-1.9-1.9-1.9a2.6,2.6,0,0,0-2.2,1.2V22h-3.7V6h3.7v5.9a5.4,5.4,0,0,1,4-1.7c2.6,0,3.8,1.5,3.8,3.6V22h-3.7Z" fill="#ef4136"/><path d="M226.2,10.2c3.5,0,6,2.5,6,6.4v.8h-8.3a2.8,2.8,0,0,0,3,2.1,4.5,4.5,0,0,0,2.8-1l1.5,2.3a7.4,7.4,0,0,1-4.8,1.5c-3.6,0-6.3-2.3-6.3-6.1A5.9,5.9,0,0,1,226.2,10.2ZM223.9,15h4.7a2.2,2.2,0,0,0-2.4-2A2.2,2.2,0,0,0,223.9,15Z" fill="#fbb040"/><path d="M234.5,18a7,7,0,0,0,4.1,1.5c1.1,0,1.6-.3,1.6-.8s-.8-.8-2-1-4.8-.8-4.8-3.7,1.8-3.8,5-3.8a8.1,8.1,0,0,1,4.8,1.5l-1.4,2.4a5.5,5.5,0,0,0-3.4-1.2c-.8,0-1.4.3-1.4.8s.6.7,1.8.9,4.9.8,4.9,3.9-1.9,3.8-5.3,3.8a9.1,9.1,0,0,1-5.4-1.7Z" fill="#8dc63f"/><rect width="28.8" height="28.8" fill="#f08222"/><rect x="1.8" y="1.8" width="25.2" height="25.2" fill="#21160d"/><path d="M10.6,15.7h2.9L12,9.9ZM15.2,22l-1.1-3.7H10L8.9,22H6.2L10.1,8.7V7.3h3.7L18.2,22Z" fill="#f08222"/><rect x="19.6" y="10.8" width="3" height="11.23" fill="#f08222"/><ellipse cx="21.1" cy="8.3" rx="1.5" ry="1.5" fill="#f08222"/><path d="M56.6,210.4a4,4,0,0,1,3.1,1.5l-.8.5a3,3,0,0,0-2.3-1.1,3.1,3.1,0,0,0-3.1,3.3,3,3,0,0,0,3.1,3.2,2.9,2.9,0,0,0,2.1-.8v-1.7H56v-.8h3.7v2.9a4.1,4.1,0,0,1-3.1,1.3,3.9,3.9,0,0,1-4.1-4.1A4,4,0,0,1,56.6,210.4Z" fill="#231f20"/><path d="M61.3,212.8h.9v.9a2.6,2.6,0,0,1,2-1v.9h-.4a2.1,2.1,0,0,0-1.6,1v4.1h-.9Z" fill="#231f20"/><path d="M67.8,212.6a2.8,2.8,0,0,1,2.8,3.1v.3H65.9a2,2,0,0,0,2.1,2,2.7,2.7,0,0,0,1.8-.8l.4.6a3.2,3.2,0,0,1-2.3.9,2.9,2.9,0,0,1-3-3A3,3,0,0,1,67.8,212.6Zm-1.9,2.7h3.8a1.8,1.8,0,0,0-1.9-1.9A1.9,1.9,0,0,0,65.9,215.3Z" fill="#231f20"/><path d="M72.3,220.1a.8.8,0,0,0,.9-.6l.4-.9-2.4-5.8h.9l2,4.7,1.9-4.7h1l-2.9,6.9a1.7,1.7,0,0,1-1.7,1.2h-.7l.2-.8Z" fill="#231f20"/><path d="M77.9,217.2a2.8,2.8,0,0,0,1.9.8c.9,0,1.4-.4,1.4-1s-.8-.8-1.5-1-2.1-.5-2.1-1.7.7-1.7,2.1-1.7a3,3,0,0,1,2.2.9l-.4.6a2.5,2.5,0,0,0-1.8-.7c-.8,0-1.3.3-1.3.8s.7.8,1.5,1,2.1.5,2.1,1.8-.7,1.7-2.2,1.7a3.2,3.2,0,0,1-2.4-.9Z" fill="#231f20"/><path d="M86.1,212.6a2.8,2.8,0,0,1,2.1,1l-.6.6a1.9,1.9,0,0,0-1.5-.8,2.1,2.1,0,0,0-2,2.3,2,2,0,0,0,2,2.2,1.8,1.8,0,0,0,1.5-.7l.6.5a2.5,2.5,0,0,1-2.1,1,2.8,2.8,0,0,1-2.9-3A2.9,2.9,0,0,1,86.1,212.6Z" fill="#231f20"/><path d="M93.1,217.9a2.8,2.8,0,0,1-2,.8,1.9,1.9,0,1,1,0-3.8,2.4,2.4,0,0,1,2,.8v-1.1a1.4,1.4,0,0,0-1.5-1.2,2.5,2.5,0,0,0-1.8.8l-.4-.6a3.3,3.3,0,0,1,2.3-1c1.2,0,2.3.6,2.3,2v4h-.9Zm0-1.6a2.1,2.1,0,0,0-1.6-.8,1.3,1.3,0,1,0,0,2.6,2.4,2.4,0,0,0,1.6-.7Z" fill="#231f20"/><path d="M95.8,210.6h.9v8h-.9Z" fill="#231f20"/><path d="M101,212.6a2.9,2.9,0,0,1,2.8,3.1v.3H99.1a2,2,0,0,0,2.1,2,2.3,2.3,0,0,0,1.7-.8l.5.6a3.2,3.2,0,0,1-2.3.9,2.9,2.9,0,0,1-3-3A3,3,0,0,1,101,212.6Zm-1.9,2.7h3.8a1.9,1.9,0,0,0-3.8,0Z" fill="#231f20"/><path d="M46.7,228.1a7.8,7.8,0,0,1,1.5-4.4l.4.4a8.5,8.5,0,0,0-1,4,8.6,8.6,0,0,0,1,4.1l-.4.4A7.8,7.8,0,0,1,46.7,228.1Z" fill="#231f20"/><path d="M49.5,223.9h.8v2.6a1.9,1.9,0,0,1,1.6-.9c1.3,0,2.2,1,2.2,2.6a2.2,2.2,0,0,1-2.2,2.5,2.1,2.1,0,0,1-1.6-.8v.7h-.8Zm2.2,6.1a1.6,1.6,0,0,0,1.6-1.8c0-1.1-.6-1.9-1.6-1.9a1.7,1.7,0,0,0-1.4.8v2.2A1.6,1.6,0,0,0,51.7,230Z" fill="#231f20"/><path d="M55.3,223.9H56v6.7h-.7Z" fill="#231f20"/><path d="M60.6,230a2,2,0,0,1-1.6.7,1.6,1.6,0,0,1-1.7-1.6,1.5,1.5,0,0,1,1.7-1.6,2,2,0,0,1,1.6.7v-.9c0-.7-.6-1-1.3-1a2,2,0,0,0-1.4.6l-.4-.5a2.6,2.6,0,0,1,1.9-.8c1.1,0,1.9.5,1.9,1.7v3.3h-.7Zm0-1.4a1.7,1.7,0,0,0-1.4-.6,1.1,1.1,0,1,0,0,2.2,1.7,1.7,0,0,0,1.4-.6Z" fill="#231f20"/><path d="M64.9,225.6a2.1,2.1,0,0,1,1.8.9l-.5.4a1.4,1.4,0,0,0-1.2-.6,1.7,1.7,0,0,0-1.7,1.9A1.7,1.7,0,0,0,65,230a1.4,1.4,0,0,0,1.2-.6l.5.5a2.4,2.4,0,0,1-1.8.8,2.4,2.4,0,0,1-2.4-2.5A2.4,2.4,0,0,1,64.9,225.6Z" fill="#231f20"/><path d="M69.3,228.4l-.8.8v1.4h-.7v-6.7h.7v4.4l2.5-2.6h1l-2.1,2.2,2.1,2.7H71Z" fill="#231f20"/><path d="M80.9,230.6H79.8a4.6,4.6,0,0,0-.7-.7,2.6,2.6,0,0,1-1.9.8,1.8,1.8,0,0,1-2.1-1.9c0-1,.7-1.5,1.5-2a3.3,3.3,0,0,1-.6-1.4,1.7,1.7,0,0,1,1.7-1.6,1.3,1.3,0,0,1,1.5,1.3c0,1-.8,1.5-1.7,1.9l.8.9a3.6,3.6,0,0,0,.8.9,4,4,0,0,0,.7-1.5l.7.3a14,14,0,0,1-.9,1.7Zm-2.3-1.2-.9-1a4.4,4.4,0,0,1-.8-1.1,1.8,1.8,0,0,0-1,1.5,1.3,1.3,0,0,0,1.3,1.3A1.7,1.7,0,0,0,78.6,229.4Zm-1.4-2.9c.7-.3,1.3-.7,1.3-1.4a.7.7,0,0,0-.7-.7.9.9,0,0,0-1,1A3,3,0,0,0,77.2,226.5Z" fill="#231f20"/><path d="M87.4,226.7l-1.3,3.9h-.7l-1.6-4.9h.8l1.2,3.9,1.3-3.9h.6l1.3,3.9,1.2-3.9h.7l-1.5,4.9h-.8Z" fill="#231f20"/><path d="M95.1,227.4c0-.9-.5-1.1-1.1-1.1a1.9,1.9,0,0,0-1.4.7v3.6h-.8v-6.7h.8v2.5a2.3,2.3,0,0,1,1.7-.8c1,0,1.5.5,1.5,1.6v3.4h-.7Z" fill="#231f20"/><path d="M97.2,224.5a.5.5,0,0,1,1,0,.5.5,0,0,1-1,0Zm.1,1.2h.8v4.9h-.8Z" fill="#231f20"/><path d="M99.7,229.6v-3.2h-.8v-.7h.8v-1.3h.8v1.3h1v.7h-1v3c0,.4.1.6.5.6l.5-.2.2.6a1.2,1.2,0,0,1-.9.3A1,1,0,0,1,99.7,229.6Z" fill="#231f20"/><path d="M104.6,225.6a2.3,2.3,0,0,1,2.3,2.6v.2H103a1.8,1.8,0,0,0,1.8,1.7,2.2,2.2,0,0,0,1.5-.6l.3.5a2.9,2.9,0,0,1-1.9.7,2.4,2.4,0,0,1-2.5-2.5A2.5,2.5,0,0,1,104.6,225.6Zm-1.6,2.3h3.2a1.6,1.6,0,0,0-1.6-1.7A1.7,1.7,0,0,0,103,227.9Z" fill="#231f20"/><path d="M107.6,224.1l.4-.4a7.7,7.7,0,0,1,1.4,4.4,7.7,7.7,0,0,1-1.4,4.5l-.4-.4a8.6,8.6,0,0,0,1-4.1A8.5,8.5,0,0,0,107.6,224.1Z" fill="#231f20"/><rect x="73.1" y="242.5" width="10" height="10" fill="#231f20"/><path d="M417.2,214.6a4,4,0,0,1,4.1-4.2,3.5,3.5,0,0,1,3,1.6l-.8.5a2.6,2.6,0,0,0-2.2-1.2,3.2,3.2,0,0,0-3.1,3.3,3.1,3.1,0,0,0,3.1,3.2,2.5,2.5,0,0,0,2.2-1.1l.9.4a3.8,3.8,0,0,1-3.1,1.6A4,4,0,0,1,417.2,214.6Z" fill="#231f20"/><path d="M432.5,211.9l-2.8,6.7h-.4l-2.7-6.7v6.7h-1v-8h1.5l2.4,6.1,2.5-6.1h1.5v8h-1Z" fill="#231f20"/><path d="M437.7,215.2l-3.2-4.6h1.2l2.5,3.7,2.4-3.7h1.2l-3.1,4.6v3.4h-1Z" fill="#231f20"/><path d="M444.7,215l-.9.9v2.7h-.9v-8h.9v4.1l3.6-4.1h1.2l-3.3,3.8,3.6,4.2h-1.2Z" fill="#231f20"/><path d="M452.8,214.6a4,4,0,0,1,4.1-4.2A3.7,3.7,0,0,1,460,212l-.9.5a2.5,2.5,0,0,0-2.2-1.2,3.1,3.1,0,0,0-3,3.3,3,3,0,0,0,3,3.2,2.4,2.4,0,0,0,2.2-1.1l.9.4a3.7,3.7,0,0,1-3.1,1.6A4,4,0,0,1,452.8,214.6Z" fill="#231f20"/><path d="M460.9,215.7a2.9,2.9,0,1,1,5.7,0,2.9,2.9,0,1,1-5.7,0Zm4.8,0a2,2,0,1,0-3.9,0,2,2,0,1,0,3.9,0Z" fill="#231f20"/><path d="M468.1,210.6h.9v8h-.9Z" fill="#231f20"/><path d="M470.5,215.7a2.9,2.9,0,1,1,5.7,0,2.9,2.9,0,1,1-5.7,0Zm4.7,0c0-1.2-.6-2.3-1.9-2.3a2.1,2.1,0,0,0-1.9,2.3,2,2,0,0,0,1.9,2.2C474.6,217.9,475.2,216.9,475.2,215.7Z" fill="#231f20"/><path d="M481.6,217.8a2.9,2.9,0,0,1-2.1.9,1.6,1.6,0,0,1-1.8-1.8v-4.1h.9v3.8c0,1,.5,1.3,1.3,1.3a2.2,2.2,0,0,0,1.7-.9v-4.2h.9v5.8h-.9Z" fill="#231f20"/><path d="M484.3,212.8h.9v.9a2.3,2.3,0,0,1,1.9-1v.9h-.4a2,2,0,0,0-1.5,1v4.1h-.9Z" fill="#231f20"/><path d="M488.2,217.2a2.8,2.8,0,0,0,1.9.8c.9,0,1.4-.4,1.4-1s-.7-.8-1.5-1-2.1-.5-2.1-1.7a1.9,1.9,0,0,1,2.1-1.7,3,3,0,0,1,2.2.9l-.4.6a2.5,2.5,0,0,0-1.8-.7c-.7,0-1.2.3-1.2.8s.6.8,1.4,1,2.1.5,2.1,1.8-.7,1.7-2.2,1.7a3.2,3.2,0,0,1-2.4-.9Z" fill="#231f20"/><path d="M424.4,228.1a7.7,7.7,0,0,1,1.4-4.4l.5.4a7.5,7.5,0,0,0-1.1,4,7.6,7.6,0,0,0,1.1,4.1l-.5.4A7.7,7.7,0,0,1,424.4,228.1Z" fill="#231f20"/><path d="M427.2,225.7h.8v.8a1.9,1.9,0,0,1,1.6-.9v.8h-.3a1.7,1.7,0,0,0-1.3.8v3.4h-.8Z" fill="#231f20"/><path d="M430.2,228.2a2.4,2.4,0,1,1,4.8,0,2.4,2.4,0,1,1-4.8,0Zm4,0a1.6,1.6,0,1,0-3.2,0,1.6,1.6,0,1,0,3.2,0Z" fill="#231f20"/><path d="M439.5,229.9a2.5,2.5,0,0,1-1.7.8,1.4,1.4,0,0,1-1.6-1.5v-3.5h.8v3.2c0,.9.4,1.1,1.1,1.1a1.9,1.9,0,0,0,1.4-.7v-3.6h.7v4.9h-.7Z" fill="#231f20"/><path d="M445,227.4a1,1,0,0,0-1.1-1.1,2.1,2.1,0,0,0-1.4.7v3.6h-.8v-4.9h.8v.7a2.3,2.3,0,0,1,1.7-.8c1,0,1.5.5,1.5,1.6v3.4H445Z" fill="#231f20"/><path d="M450.7,229.9a2.1,2.1,0,0,1-1.6.8,2.2,2.2,0,0,1-2.1-2.5c0-1.6.8-2.6,2.1-2.6a1.7,1.7,0,0,1,1.6.9v-2.6h.8v6.7h-.8Zm0-2.8a1.7,1.7,0,0,0-1.4-.8c-1,0-1.6.8-1.6,1.9a1.6,1.6,0,0,0,1.6,1.8,1.6,1.6,0,0,0,1.4-.7Z" fill="#231f20"/><path d="M454.9,225.7h.8l1.6,4,1.6-4h.8l-2,4.9h-.8Z" fill="#231f20"/><path d="M463.5,230a2,2,0,0,1-1.6.7,1.7,1.7,0,0,1-1.7-1.6,1.6,1.6,0,0,1,1.7-1.6,1.9,1.9,0,0,1,1.6.7v-.9c0-.7-.5-1-1.2-1a2,2,0,0,0-1.5.6l-.4-.5a3,3,0,0,1,2-.8,1.6,1.6,0,0,1,1.8,1.7v3.3h-.7Zm0-1.4a1.6,1.6,0,0,0-1.3-.6,1.1,1.1,0,1,0,0,2.2,1.6,1.6,0,0,0,1.3-.6Z" fill="#231f20"/><path d="M465.8,223.9h.7v6.7h-.7Z" fill="#231f20"/><path d="M471.3,229.9a2.5,2.5,0,0,1-1.8.8,1.3,1.3,0,0,1-1.5-1.5v-3.5h.7v3.2c0,.9.5,1.1,1.1,1.1a2,2,0,0,0,1.5-.7v-3.6h.7v4.9h-.7Z" fill="#231f20"/><path d="M475.6,225.6a2.3,2.3,0,0,1,2.3,2.6v.2H474a1.8,1.8,0,0,0,1.8,1.7,1.8,1.8,0,0,0,1.4-.6l.4.5a2.9,2.9,0,0,1-1.9.7,2.4,2.4,0,0,1-2.5-2.5A2.5,2.5,0,0,1,475.6,225.6Zm-1.6,2.3h3.2a1.6,1.6,0,0,0-1.6-1.7A1.7,1.7,0,0,0,474,227.9Z" fill="#231f20"/><path d="M479.1,229.4a2,2,0,0,0,1.6.7c.7,0,1.1-.3,1.1-.8s-.6-.7-1.2-.9-1.8-.4-1.8-1.4a1.6,1.6,0,0,1,1.8-1.4,2.3,2.3,0,0,1,1.8.7l-.3.5a2.1,2.1,0,0,0-1.5-.6c-.6,0-1,.3-1,.8s.5.6,1.2.7,1.8.5,1.8,1.5-.7,1.5-1.9,1.5a2.4,2.4,0,0,1-2-.8Z" fill="#231f20"/><path d="M483.2,224.1l.5-.4a7.7,7.7,0,0,1,1.4,4.4,7.7,7.7,0,0,1-1.4,4.5l-.5-.4a7.6,7.6,0,0,0,1.1-4.1A7.5,7.5,0,0,0,483.2,224.1Z" fill="#231f20"/><rect x="442.3" y="247.5" width="10" height="10" fill="#232c65" stroke="#232c65" stroke-miterlimit="10"/><rect x="457.2" y="247.5" width="10" height="10" fill="#d4e48f" stroke="#d4e48f" stroke-miterlimit="10"/><path d="M43.5,9.6H39.1V6h13V9.6H47.7V22H43.5Z" fill="#231f20"/><path d="M54.5,23.5c.9,0,1.4-.2,1.6-.7l.3-.6L51.8,10.5h3.8l2.7,7.3,2.6-7.3h3.9L59.6,23.7c-1,2.4-2.7,3-4.9,3H53.1l.5-3.3Z" fill="#231f20"/><path d="M65.9,26.5v-16h3.7v1.3A4.3,4.3,0,0,1,73,10.2c2.9,0,5.1,2.1,5.1,6s-2.2,6.1-5.1,6.1a4.4,4.4,0,0,1-3.4-1.6v5.8Zm5.9-13.1a3.1,3.1,0,0,0-2.2,1.1V18a3.1,3.1,0,0,0,2.2,1.1,2.6,2.6,0,0,0,2.6-2.9A2.6,2.6,0,0,0,71.8,13.4Z" fill="#231f20"/><path d="M85.5,10.2c3.4,0,5.9,2.5,5.9,6.4v.8H83.1a2.9,2.9,0,0,0,3,2.1,4.3,4.3,0,0,0,2.8-1l1.6,2.3a7.9,7.9,0,0,1-4.9,1.5c-3.5,0-6.3-2.3-6.3-6.1A6,6,0,0,1,85.5,10.2ZM83.1,15h4.8a2.2,2.2,0,0,0-2.4-2A2.3,2.3,0,0,0,83.1,15Z" fill="#231f20"/><path d="M93.8,18a6.8,6.8,0,0,0,4.1,1.5c1.1,0,1.5-.3,1.5-.8s-.8-.8-2-1-4.7-.8-4.7-3.7,1.7-3.8,4.9-3.8a8.4,8.4,0,0,1,4.9,1.5l-1.4,2.4a5.5,5.5,0,0,0-3.4-1.2c-.9,0-1.5.3-1.5.8s.6.7,1.9.9,4.8.8,4.8,3.9-1.9,3.8-5.2,3.8a9.5,9.5,0,0,1-5.5-1.7Z" fill="#231f20"/><path d="M110.2,16.2a6,6,0,0,1,6.3-6c4,0,6.4,2.8,6.4,6a6.4,6.4,0,0,1-12.7,0Zm8.9,0a2.6,2.6,0,1,0-5.1,0c0,1.6.9,2.9,2.5,2.9A2.6,2.6,0,0,0,119.1,16.2Z" fill="#231f20"/><path d="M125.6,13.7h-1.9V10.5h1.9V9.9a4,4,0,0,1,4.2-4.1,5.4,5.4,0,0,1,2.4.5l-.7,2.5-.9-.2a1.2,1.2,0,0,0-1.3,1.4v.5h2.4v3.2h-2.4V22h-3.7Z" fill="#231f20"/><path d="M140.5,16.7a7.3,7.3,0,0,0,5.1,2.1c1.4,0,2.3-.6,2.3-1.4s-1.1-1.2-2.8-1.6-6.3-1.2-6.3-5,2.3-5,6.4-5A10.2,10.2,0,0,1,151.7,8l-2.3,3a7.4,7.4,0,0,0-4.5-1.7c-1.4,0-1.9.6-1.9,1.3s1,1.1,2.8,1.4,6.3,1.4,6.3,5-2.4,5.3-6.7,5.3a9.8,9.8,0,0,1-7.1-2.5Z" fill="#ed1c24"/><path d="M161.9,14.9,159.8,22h-4l-3.5-11.5h3.8l1.9,7.1,2.3-7.1h3.3l2.3,7.1,1.8-7.1h3.8L168.1,22h-4Z" fill="#ec008c"/><path d="M179.6,20.9a4.9,4.9,0,0,1-3.6,1.4,3.8,3.8,0,0,1-4-3.8c0-2.8,2.2-3.6,4-3.6a4.5,4.5,0,0,1,3.6,1.3V14.7c0-1-.9-1.6-2.4-1.6a5,5,0,0,0-3.3,1.2L172.6,12a8,8,0,0,1,5.2-1.8c2.8,0,5.4,1,5.4,4.6V22h-3.6Zm0-2.9a2.9,2.9,0,0,0-2.1-.8c-1,0-1.9.5-1.9,1.4s.9,1.3,1.9,1.3a2.9,2.9,0,0,0,2.1-.8Z" fill="#00a651"/><path d="M186.7,18.9V13.7h-1.9V10.5h1.9V7.3h3.7v3.2h2.3v3.2h-2.3v4.2c0,.7.4,1.2,1,1.2a1.6,1.6,0,0,0,.9-.3l.8,2.8a4.5,4.5,0,0,1-2.8.7C188,22.3,186.7,21.2,186.7,18.9Z" fill="#00aeef"/><path d="M200.1,10.2a5.7,5.7,0,0,1,4.8,2.1l-2.4,2.2a2.8,2.8,0,0,0-2.2-1.1,2.7,2.7,0,0,0-2.7,2.8,2.7,2.7,0,0,0,2.7,2.9,2.6,2.6,0,0,0,2.2-1.2l2.4,2.3a5.7,5.7,0,0,1-4.8,2.1,5.9,5.9,0,0,1-6.3-6.1C193.8,12.6,196.5,10.2,200.1,10.2Z" fill="#2e3192"/><path d="M214.4,15.3c0-1.4-.7-1.9-1.9-1.9a2.6,2.6,0,0,0-2.2,1.2V22h-3.7V6h3.7v5.9a5.4,5.4,0,0,1,4-1.7c2.6,0,3.8,1.5,3.8,3.6V22h-3.7Z" fill="#ef4136"/><path d="M226.2,10.2c3.5,0,6,2.5,6,6.4v.8h-8.3a2.8,2.8,0,0,0,3,2.1,4.5,4.5,0,0,0,2.8-1l1.5,2.3a7.4,7.4,0,0,1-4.8,1.5c-3.6,0-6.3-2.3-6.3-6.1A5.9,5.9,0,0,1,226.2,10.2ZM223.9,15h4.7a2.2,2.2,0,0,0-2.4-2A2.2,2.2,0,0,0,223.9,15Z" fill="#fbb040"/><path d="M234.5,18a7,7,0,0,0,4.1,1.5c1.1,0,1.6-.3,1.6-.8s-.8-.8-2-1-4.8-.8-4.8-3.7,1.8-3.8,5-3.8a8.1,8.1,0,0,1,4.8,1.5l-1.4,2.4a5.5,5.5,0,0,0-3.4-1.2c-.8,0-1.4.3-1.4.8s.6.7,1.8.9,4.9.8,4.9,3.9-1.9,3.8-5.3,3.8a9.1,9.1,0,0,1-5.4-1.7Z" fill="#8dc63f"/><rect width="28.8" height="28.8" fill="#f08222"/><rect x="1.8" y="1.8" width="25.2" height="25.2" fill="#21160d"/><path d="M10.6,15.7h2.9L12,9.9ZM15.2,22l-1.1-3.7H10L8.9,22H6.2L10.1,8.7V7.3h3.7L18.2,22Z" fill="#f08222"/><rect x="19.6" y="10.8" width="3" height="11.23" fill="#f08222"/><ellipse cx="21.1" cy="8.3" rx="1.5" ry="1.5" fill="#f08222"/><path d="M233.5,216.7a3.3,3.3,0,0,0,2.5,1.1c1.4,0,1.9-.7,1.9-1.3s-1-1.3-2-1.6-2.8-.7-2.8-2.2,1.2-2.2,2.8-2.2a3.6,3.6,0,0,1,2.8,1.1l-.6.7a2.9,2.9,0,0,0-2.3-1,1.5,1.5,0,0,0-1.6,1.3c0,.8.9,1.1,1.9,1.3s2.8.8,2.8,2.5-.8,2.3-2.9,2.3a3.9,3.9,0,0,1-3.1-1.3Z" fill="#231f20"/><path d="M240.4,220.8v-8h.9v.8a2.6,2.6,0,0,1,1.9-1c1.5,0,2.6,1.2,2.6,3.1a2.7,2.7,0,0,1-2.6,3,2.3,2.3,0,0,1-1.9-1v3.1Zm2.6-7.4a2.2,2.2,0,0,0-1.7,1V217a2.1,2.1,0,0,0,1.7.9c1.2,0,1.9-.9,1.9-2.2S244.2,213.4,243,213.4Z" fill="#231f20"/><path d="M246.9,215.7a2.9,2.9,0,1,1,5.8,0,2.9,2.9,0,1,1-5.8,0Zm4.8,0a1.9,1.9,0,1,0-3.8,0,1.9,1.9,0,1,0,3.8,0Z" fill="#231f20"/><path d="M254.3,217.4v-3.8h-1v-.8h1v-1.6h.9v1.6h1.2v.8h-1.2v3.6c0,.4.2.7.6.7l.6-.2.3.6a1.4,1.4,0,0,1-1.1.4A1.2,1.2,0,0,1,254.3,217.4Z" fill="#231f20"/><path d="M260.5,214.6a4,4,0,0,1,4-4.2,3.6,3.6,0,0,1,3.1,1.6l-.8.5a2.8,2.8,0,0,0-2.3-1.2,3.1,3.1,0,0,0-3,3.3,3,3,0,0,0,3,3.2,2.7,2.7,0,0,0,2.3-1.1l.8.4a3.7,3.7,0,0,1-3.1,1.6A4,4,0,0,1,260.5,214.6Z" fill="#231f20"/><path d="M268.5,215.7a2.9,2.9,0,1,1,5.8,0,2.9,2.9,0,1,1-5.8,0Zm4.8,0a1.9,1.9,0,1,0-3.8,0,1.9,1.9,0,1,0,3.8,0Z" fill="#231f20"/><path d="M275.7,210.6h.9v8h-.9Z" fill="#231f20"/><path d="M278.1,215.7a2.9,2.9,0,1,1,5.7,0,2.9,2.9,0,1,1-5.7,0Zm4.8,0a2,2,0,1,0-3.9,0,2,2,0,1,0,3.9,0Z" fill="#231f20"/><path d="M289.2,217.8a2.8,2.8,0,0,1-2.1.9,1.6,1.6,0,0,1-1.8-1.8v-4.1h.9v3.8c0,1,.5,1.3,1.3,1.3a2.1,2.1,0,0,0,1.7-.9v-4.2h.9v5.8h-.9Z" fill="#231f20"/><path d="M291.9,212.8h.9v.9a2.4,2.4,0,0,1,1.9-1v.9h-.3a2.1,2.1,0,0,0-1.6,1v4.1h-.9Z" fill="#231f20"/><path d="M295.8,217.2a2.8,2.8,0,0,0,1.9.8c.9,0,1.4-.4,1.4-1s-.7-.8-1.5-1-2.1-.5-2.1-1.7.8-1.7,2.2-1.7a2.8,2.8,0,0,1,2.1.9l-.4.6a2.4,2.4,0,0,0-1.7-.7c-.8,0-1.3.3-1.3.8s.6.8,1.4,1,2.2.5,2.2,1.8-.8,1.7-2.3,1.7a2.9,2.9,0,0,1-2.3-.9Z" fill="#231f20"/><path d="M238.7,223.4h2.4a1.8,1.8,0,1,1,0,3.6h-1.7v2.4h-.7Zm2.3.6h-1.6v2.3H241a1.1,1.1,0,0,0,1.2-1.1A1.2,1.2,0,0,0,241,224Z" fill="#232c65"/><path d="M246.5,228.9a2,2,0,0,1-1.5.6,1.5,1.5,0,0,1-1.5-1.5,1.4,1.4,0,0,1,1.5-1.4,2,2,0,0,1,1.5.6v-.8c0-.6-.5-.9-1.1-.9a1.8,1.8,0,0,0-1.4.6l-.3-.5a2.6,2.6,0,0,1,1.7-.7c1,0,1.7.4,1.7,1.5v3h-.6Zm0-1.3a1.8,1.8,0,0,0-1.2-.5,1,1,0,0,0-1.1,1c0,.5.4.9,1.1.9a1.8,1.8,0,0,0,1.2-.5Z" fill="#232c65"/><path d="M251.4,226.5a.9.9,0,0,0-1-1,1.4,1.4,0,0,0-1.2.7v3.2h-.7V225h.7v.7a2,2,0,0,1,1.5-.8,1.3,1.3,0,0,1,1.4,1.4v3.1h-.7Z" fill="#232c65"/><path d="M253.6,228.5v-2.9h-.7V225h.7v-1.2h.6V225h.9v.6h-.9v2.7a.6.6,0,0,0,.5.6c.2,0,.4-.1.4-.2l.2.5c-.1.2-.4.3-.8.3S253.6,229.1,253.6,228.5Z" fill="#232c65"/><path d="M255.8,227.2a2.2,2.2,0,0,1,2.2-2.3,2.3,2.3,0,0,1,0,4.6A2.2,2.2,0,0,1,255.8,227.2Zm3.6,0a1.5,1.5,0,0,0-1.4-1.7,1.7,1.7,0,0,0,0,3.4A1.5,1.5,0,0,0,259.4,227.2Z" fill="#232c65"/><path d="M264.2,226.5a.9.9,0,0,0-1-1,1.7,1.7,0,0,0-1.3.7v3.2h-.7V225h.7v.7a2.1,2.1,0,0,1,1.6-.8c.9,0,1.3.5,1.3,1.4v3.1h-.6Z" fill="#232c65"/><path d="M268.1,224.9a2.1,2.1,0,0,1,2.1,2.3v.2h-3.5a1.5,1.5,0,0,0,1.5,1.5,2.4,2.4,0,0,0,1.4-.5l.3.4a2.4,2.4,0,0,1-1.7.7,2.2,2.2,0,0,1-2.3-2.3A2.2,2.2,0,0,1,268.1,224.9Zm-1.4,2h2.8a1.4,1.4,0,1,0-2.8,0Z" fill="#232c65"/><path d="M273.4,228.8c2.2-1.7,3.3-2.7,3.3-3.8a1.1,1.1,0,0,0-1.2-1.1,2.5,2.5,0,0,0-1.7.8l-.4-.5a2.5,2.5,0,0,1,2.1-.9c1,0,2,.5,2,1.7s-1.3,2.4-2.9,3.7h2.9v.7h-4.1Z" fill="#232c65"/><path d="M280.1,226.3a1.6,1.6,0,0,1-1.3-1.5c0-1,1-1.5,2-1.5s2.1.5,2.1,1.5a1.7,1.7,0,0,1-1.4,1.5,1.8,1.8,0,0,1,1.5,1.6c0,1-1,1.6-2.2,1.6s-2.1-.6-2.1-1.6A1.7,1.7,0,0,1,280.1,226.3Zm.7.3c-.4.1-1.4.4-1.4,1.2s.7,1,1.4,1,1.4-.4,1.4-1S281.2,226.7,280.8,226.6Zm0-2.7c-.7,0-1.3.4-1.3,1s1,1,1.3,1.1,1.3-.3,1.3-1.1S281.5,223.9,280.8,223.9Z" fill="#232c65"/><path d="M286.2,223.3c1.6,0,2.3,1.6,2.3,3.1s-.7,3.1-2.3,3.1-2.3-1.7-2.3-3.1S284.5,223.3,286.2,223.3Zm0,.6c-1.2,0-1.5,1.3-1.5,2.5s.3,2.4,1.5,2.4,1.5-1.2,1.5-2.4S287.3,223.9,286.2,223.9Z" fill="#232c65"/><path d="M289.4,226.4a3,3,0,0,1,3.1-3.1,2.8,2.8,0,0,1,2.3,1.2l-.7.3a1.9,1.9,0,0,0-1.6-.9,2.3,2.3,0,0,0-2.3,2.5,2.3,2.3,0,0,0,2.3,2.4,1.7,1.7,0,0,0,1.6-.9l.7.4a2.8,2.8,0,0,1-2.3,1.2A3.1,3.1,0,0,1,289.4,226.4Z" fill="#232c65"/><path d="M239.2,234.2h2.4a1.8,1.8,0,1,1,0,3.6H240v2.4h-.8Zm2.3.6H240v2.3h1.5a1.1,1.1,0,0,0,1.2-1.1A1.2,1.2,0,0,0,241.5,234.8Z" fill="#d4e48f"/><path d="M247,239.7a2,2,0,0,1-1.4.6,1.5,1.5,0,0,1-1.6-1.5,1.5,1.5,0,0,1,1.6-1.4,1.8,1.8,0,0,1,1.4.6v-.8c0-.6-.5-.9-1.1-.9a1.8,1.8,0,0,0-1.3.6l-.3-.5a2.4,2.4,0,0,1,1.7-.7c.9,0,1.7.4,1.7,1.5v3H247Zm0-1.3a1.7,1.7,0,0,0-1.2-.5,1,1,0,1,0,0,1.9,1.7,1.7,0,0,0,1.2-.5Z" fill="#d4e48f"/><path d="M252,237.3a.9.9,0,0,0-1-1,1.7,1.7,0,0,0-1.3.7v3.2H249v-4.4h.7v.7a2,2,0,0,1,1.5-.8,1.2,1.2,0,0,1,1.4,1.4v3.1H252Z" fill="#d4e48f"/><path d="M254.1,239.3v-2.9h-.7v-.6h.7v-1.2h.7v1.2h.9v.6h-.9v2.7c0,.3.1.6.4.6l.5-.2.2.5a1,1,0,0,1-.8.3A.9.9,0,0,1,254.1,239.3Z" fill="#d4e48f"/><path d="M256.4,238a2.1,2.1,0,0,1,2.1-2.3,2.3,2.3,0,0,1,0,4.6A2.1,2.1,0,0,1,256.4,238Zm3.6,0a1.5,1.5,0,1,0-1.5,1.7A1.5,1.5,0,0,0,260,238Z" fill="#d4e48f"/><path d="M264.7,237.3a.9.9,0,0,0-1-1,1.4,1.4,0,0,0-1.2.7v3.2h-.7v-4.4h.7v.7a2,2,0,0,1,1.5-.8,1.3,1.3,0,0,1,1.4,1.4v3.1h-.7Z" fill="#d4e48f"/><path d="M268.6,235.7a2.1,2.1,0,0,1,2.1,2.4h-3.5a1.5,1.5,0,0,0,1.6,1.5,1.9,1.9,0,0,0,1.3-.5l.3.4a2.4,2.4,0,0,1-1.7.7,2.1,2.1,0,0,1-2.2-2.3A2.2,2.2,0,0,1,268.6,235.7Zm-1.4,2H270a1.4,1.4,0,0,0-1.4-1.4A1.4,1.4,0,0,0,267.2,237.7Z" fill="#d4e48f"/><path d="M274.2,238.8a1.8,1.8,0,0,0,1.6.8c.9,0,1.4-.4,1.4-1.1s-.6-1.1-1.5-1.1h-.6v-.6h.6c.8,0,1.4-.3,1.4-1a1.2,1.2,0,0,0-1.3-1.1,1.9,1.9,0,0,0-1.6.8l-.4-.5a2.5,2.5,0,0,1,2-.9c1.2,0,2.1.6,2.1,1.6a1.6,1.6,0,0,1-1.3,1.4,1.5,1.5,0,0,1,1.4,1.5c0,1-.8,1.7-2.2,1.7a2.6,2.6,0,0,1-2.1-1Z" fill="#d4e48f"/><path d="M282,234.8h-3.3v-.6h4.1v.5l-2.4,5.5h-.8Z" fill="#d4e48f"/><path d="M283.6,239.6c2.1-1.7,3.3-2.7,3.3-3.8a1.1,1.1,0,0,0-1.2-1.1,2.3,2.3,0,0,0-1.7.8l-.4-.5a2.5,2.5,0,0,1,2.1-.9c1,0,2,.5,2,1.7s-1.3,2.4-2.9,3.7h2.9v.7h-4.1Z" fill="#d4e48f"/><path d="M288.8,237.2a3,3,0,0,1,3.1-3.1,2.7,2.7,0,0,1,2.3,1.2l-.6.3a2.2,2.2,0,0,0-1.7-.9,2.3,2.3,0,0,0-2.3,2.5,2.3,2.3,0,0,0,2.3,2.4,2,2,0,0,0,1.7-.9l.6.4a2.7,2.7,0,0,1-2.3,1.2A3.1,3.1,0,0,1,288.8,237.2Z" fill="#d4e48f"/><rect x="254" y="247.5" width="10" height="10" fill="#232c65" stroke="#232c65" stroke-miterlimit="10"/><polygon points="259.5 257.5 264 253 264 257.5 259.5 257.5" fill="#fff" stroke="#231f20" stroke-miterlimit="10" stroke-width="0.25"/><circle cx="262.6" cy="256.1" r="0.5" fill="#231f20"/><rect x="268.9" y="247.5" width="10" height="10" fill="#d4e48f" stroke="#d4e48f" stroke-miterlimit="10"/><polygon points="274.3 257.5 278.9 253 278.9 257.5 274.3 257.5" fill="#fff" stroke="#231f20" stroke-miterlimit="10" stroke-width="0.25"/><circle cx="277.5" cy="256.1" r="0.5" fill="#231f20"/><rect x="630.7" y="247.5" width="10" height="10" fill="#232c65" stroke="#232c65" stroke-miterlimit="10"/><rect x="645.5" y="247.5" width="10" height="10" fill="#d4e48f" stroke="#d4e48f" stroke-miterlimit="10"/><path d="M613,215.4h-1.5v3.2h-1v-8h3.2a2.3,2.3,0,0,1,2.5,2.4,2.2,2.2,0,0,1-2.1,2.3l2.2,3.3h-1.2Zm.5-3.9h-2v3h2a1.5,1.5,0,1,0,0-3Z" fill="#231f20"/><path d="M621.5,210.4a3.9,3.9,0,0,1,3.1,1.5l-.7.5a3.2,3.2,0,0,0-2.4-1.1,3.1,3.1,0,0,0-3,3.3,3,3,0,0,0,3,3.2,3.2,3.2,0,0,0,2.2-.8v-1.7h-2.8v-.8h3.8v2.9a4.4,4.4,0,0,1-3.2,1.3,4,4,0,0,1-4.1-4.1A4.1,4.1,0,0,1,621.5,210.4Z" fill="#231f20"/><path d="M626.3,210.6h3.6a2,2,0,0,1,2.2,2,1.8,1.8,0,0,1-1.4,1.8,2.1,2.1,0,0,1-.7,4.2h-3.7Zm3.4,3.4c.9,0,1.4-.5,1.4-1.2a1.2,1.2,0,0,0-1.4-1.3h-2.4V214Zm0,3.7c1,0,1.5-.5,1.5-1.4a1.4,1.4,0,0,0-1.5-1.4h-2.4v2.8Z" fill="#231f20"/><path d="M636.6,214.6a4,4,0,0,1,4.1-4.2,3.7,3.7,0,0,1,3.1,1.6l-.9.5a2.5,2.5,0,0,0-2.2-1.2,3.1,3.1,0,0,0-3,3.3,3,3,0,0,0,3,3.2,2.4,2.4,0,0,0,2.2-1.1l.9.4a3.7,3.7,0,0,1-3.1,1.6A4,4,0,0,1,636.6,214.6Z" fill="#231f20"/><path d="M644.7,215.7a2.9,2.9,0,1,1,5.7,0,2.9,2.9,0,1,1-5.7,0Zm4.8,0a2,2,0,1,0-3.9,0,2,2,0,1,0,3.9,0Z" fill="#231f20"/><path d="M651.9,210.6h.9v8h-.9Z" fill="#231f20"/><path d="M654.3,215.7a2.9,2.9,0,1,1,5.7,0,2.9,2.9,0,1,1-5.7,0Zm4.7,0c0-1.2-.6-2.3-1.9-2.3a2.1,2.1,0,0,0-1.9,2.3,2,2,0,0,0,1.9,2.2C658.4,217.9,659,216.9,659,215.7Z" fill="#231f20"/><path d="M665.4,217.8a2.9,2.9,0,0,1-2.1.9,1.6,1.6,0,0,1-1.8-1.8v-4.1h.9v3.8c0,1,.5,1.3,1.3,1.3a2.2,2.2,0,0,0,1.7-.9v-4.2h.9v5.8h-.9Z" fill="#231f20"/><path d="M668.1,212.8h.9v.9a2.3,2.3,0,0,1,1.9-1v.9h-.4a2,2,0,0,0-1.5,1v4.1h-.9Z" fill="#231f20"/><path d="M672,217.2a2.8,2.8,0,0,0,1.9.8c.9,0,1.4-.4,1.4-1s-.7-.8-1.5-1-2.1-.5-2.1-1.7a1.9,1.9,0,0,1,2.1-1.7,3,3,0,0,1,2.2.9l-.4.6a2.5,2.5,0,0,0-1.8-.7c-.8,0-1.2.3-1.2.8s.6.8,1.4,1,2.1.5,2.1,1.8-.7,1.7-2.2,1.7a3.2,3.2,0,0,1-2.4-.9Z" fill="#231f20"/><path d="M606.7,230.1a8.6,8.6,0,0,1,1.7-5.3l.5.4a10.7,10.7,0,0,0-1.2,4.9,10.3,10.3,0,0,0,1.2,4.8l-.5.5A9,9,0,0,1,606.7,230.1Z" fill="#231f20"/><path d="M610.1,227.2h.9v.9a2.3,2.3,0,0,1,1.9-1v.9h-.4a1.9,1.9,0,0,0-1.5.9V233h-.9Z" fill="#231f20"/><path d="M613.7,230.1a2.9,2.9,0,1,1,5.7,0,2.9,2.9,0,1,1-5.7,0Zm4.8,0a2,2,0,1,0-3.9,0,2,2,0,1,0,3.9,0Z" fill="#231f20"/><path d="M624.8,232.2a2.8,2.8,0,0,1-2.1.9,1.6,1.6,0,0,1-1.8-1.8v-4.1h.9V231c0,1,.5,1.3,1.3,1.3a2.1,2.1,0,0,0,1.7-.9v-4.2h.9V233h-.9Z" fill="#231f20"/><path d="M631.4,229.2c0-1-.5-1.4-1.3-1.4a2.4,2.4,0,0,0-1.7.9V233h-.9v-5.8h.9v.8a2.8,2.8,0,0,1,2.1-1,1.7,1.7,0,0,1,1.8,1.9V233h-.9Z" fill="#231f20"/><path d="M638.3,232.1a2.3,2.3,0,0,1-1.9,1c-1.6,0-2.6-1.1-2.6-3s1-3.1,2.6-3.1a2.4,2.4,0,0,1,1.9,1.1V225h.9v8h-.9Zm0-3.3a2.2,2.2,0,0,0-1.7-1c-1.2,0-1.9,1-1.9,2.3s.7,2.2,1.9,2.2a2.1,2.1,0,0,0,1.7-.9Z" fill="#231f20"/><path d="M643.2,227.2h1l1.9,4.7,2-4.7h1l-2.5,5.8h-.9Z" fill="#231f20"/><path d="M653.6,232.3a2.6,2.6,0,0,1-1.9.8,1.9,1.9,0,1,1,0-3.8,2.2,2.2,0,0,1,1.9.8V229c0-.7-.6-1.2-1.5-1.2a2.5,2.5,0,0,0-1.7.8l-.4-.6a3.1,3.1,0,0,1,2.3-1,1.9,1.9,0,0,1,2.2,2v4h-.9Zm0-1.6a1.8,1.8,0,0,0-1.6-.8,1.3,1.3,0,1,0,0,2.6,2,2,0,0,0,1.6-.7Z" fill="#231f20"/><path d="M656.3,225h.9v8h-.9Z" fill="#231f20"/><path d="M662.9,232.2a2.7,2.7,0,0,1-2,.9c-1.3,0-1.9-.6-1.9-1.8v-4.1h.9V231c0,1,.5,1.3,1.3,1.3a2.1,2.1,0,0,0,1.7-.9v-4.2h.9V233h-.9Z" fill="#231f20"/><path d="M668.1,227a2.8,2.8,0,0,1,2.8,3.1v.3h-4.7a2.1,2.1,0,0,0,2.1,2,2.3,2.3,0,0,0,1.8-.8l.4.6a2.9,2.9,0,0,1-2.3.9,2.8,2.8,0,0,1-2.9-3A2.9,2.9,0,0,1,668.1,227Zm-1.9,2.7H670a1.8,1.8,0,0,0-1.9-1.9A2,2,0,0,0,666.2,229.7Z" fill="#231f20"/><path d="M672.3,231.6a3.1,3.1,0,0,0,2,.8c.8,0,1.3-.4,1.3-1s-.7-.8-1.5-1-2.1-.5-2.1-1.7.8-1.7,2.2-1.7a2.6,2.6,0,0,1,2.1.9l-.4.6a2.2,2.2,0,0,0-1.7-.7c-.8,0-1.3.3-1.3.8s.7.8,1.4,1,2.2.5,2.2,1.8-.8,1.7-2.3,1.7a3.2,3.2,0,0,1-2.3-.9Z" fill="#231f20"/><path d="M677.3,225.2l.5-.4a8.6,8.6,0,0,1,1.7,5.3,9,9,0,0,1-1.7,5.3l-.5-.5a10.3,10.3,0,0,0,1.2-4.8A10.7,10.7,0,0,0,677.3,225.2Z" fill="#231f20"/></g></g></svg>