<svg xmlns="http://www.w3.org/2000/svg" id="Layer_1" viewBox="0 0 547.3 276.26" width="547.3" height="276.26"><defs><style>.cls-1{fill:none}.cls-2{fill:#00aeef}.cls-3{fill:#fff200}.cls-4{isolation:isolate}.cls-5{clip-path:url(#clip-path)}.cls-6{fill:#fff}.cls-7{fill:#00683f}</style><clipPath id="clip-path"><path d="M207.91 102.87l187.72-33.68 129.22 49.35-187.72 33.68-129.22-49.35z" class="cls-1"/></clipPath></defs><path d="M.43 0H189.2v224.8H.43z" class="cls-2"/><path d="M94.814 173.842a79.456 79.456 0 1 1 79.455-79.456 79.456 79.456 0 0 1-79.455 79.456z" class="cls-3"/><g class="cls-4"><g class="cls-5"><path d="M524.85 118.54l-187.72 33.68-129.22-49.35 187.72-33.68 129.22 49.35" class="cls-2"/></g></g><path d="M420.761 131.473c-43.635 7.829-103.364 4.877-133.4-6.593-30.041-11.472-19.01-27.117 24.625-34.945 43.643-7.83 103.359-4.879 133.4 6.593 30.036 11.47 19.018 27.115-24.625 34.945" class="cls-6"/><g class="cls-4"><path d="M420.761 95.428c-43.635 7.829-103.364 4.877-133.4-6.593S268.35 61.718 311.985 53.89c43.643-7.83 103.365-4.877 133.4 6.593s19.019 27.115-24.624 34.945" class="cls-3"/></g><path d="M171.574 245.75h-5.655v-2.885h14.587v2.884h-5.656v15.792h-3.276zm8.96 2.267h2.94v1.988a5.776 5.776 0 0 1 4.396-2.296v2.912a4.352 4.352 0 0 0-.924-.084 4.67 4.67 0 0 0-3.472 1.792v9.212h-2.94zm17.416 12.068a5.708 5.708 0 0 1-4.368 1.792 4.492 4.492 0 0 1-4.704-4.48c0-3.108 2.492-4.396 4.704-4.396a5.589 5.589 0 0 1 4.368 1.736v-2.016c0-1.568-1.288-2.52-3.164-2.52a5.535 5.535 0 0 0-4.004 1.708l-1.204-2.044a8.04 8.04 0 0 1 5.684-2.185c2.996 0 5.628 1.261 5.628 4.9v8.96h-2.94zm0-3.668a3.96 3.96 0 0 0-3.22-1.4c-1.652 0-2.884.952-2.884 2.437 0 1.456 1.232 2.408 2.884 2.408a3.96 3.96 0 0 0 3.22-1.4zm6.188 10.276v-18.676h2.94v1.848a5.397 5.397 0 0 1 4.34-2.184c3.5 0 5.992 2.633 5.992 7.084s-2.492 7.112-5.992 7.112a5.31 5.31 0 0 1-4.34-2.212v7.028zm6.412-16.408a4.388 4.388 0 0 0-3.472 1.82v5.348a4.472 4.472 0 0 0 3.472 1.82c2.324 0 3.808-1.876 3.808-4.509 0-2.603-1.484-4.479-3.808-4.479zm9.268 16.408v-18.676h2.94v1.848a5.397 5.397 0 0 1 4.34-2.184c3.5 0 5.992 2.633 5.992 7.084s-2.492 7.112-5.992 7.112a5.31 5.31 0 0 1-4.34-2.212v7.028zm6.412-16.408a4.388 4.388 0 0 0-3.473 1.82v5.348a4.472 4.472 0 0 0 3.473 1.82c2.323 0 3.808-1.876 3.808-4.509 0-2.603-1.485-4.479-3.808-4.479zm8.903-6.328a1.835 1.835 0 0 1 1.82-1.82 1.82 1.82 0 0 1 0 3.64 1.835 1.835 0 0 1-1.82-1.82zm.365 4.06h2.94v13.525h-2.94zm15.315 5.068c0-2.1-1.064-2.8-2.716-2.8a4.45 4.45 0 0 0-3.472 1.82v9.436h-2.94v-13.524h2.94v1.848a6.398 6.398 0 0 1 4.76-2.184c2.912 0 4.368 1.568 4.368 4.34v9.52h-2.94zm7.392 9.8a5.242 5.242 0 0 0 4.283 1.736c1.933 0 4.004-.896 4.004-3.668v-1.624a5.488 5.488 0 0 1-4.34 2.24c-3.444 0-5.991-2.492-5.991-6.944 0-4.368 2.52-6.944 5.99-6.944a5.386 5.386 0 0 1 4.34 2.212v-1.876h2.94v12.824c0 4.872-3.611 6.189-6.943 6.189a7.628 7.628 0 0 1-5.656-2.017zm8.287-10.78a4.385 4.385 0 0 0-3.472-1.82c-2.324 0-3.807 1.737-3.807 4.34s1.483 4.34 3.807 4.34a4.387 4.387 0 0 0 3.472-1.819zm12.824-4.088h2.94v1.988a5.775 5.775 0 0 1 4.396-2.296v2.912a4.359 4.359 0 0 0-.924-.084 4.67 4.67 0 0 0-3.472 1.792v9.212h-2.94zm15.174-.337c4.061 0 6.665 3.11 6.665 7.365v.7h-10.444a4.097 4.097 0 0 0 4.312 3.724 5.724 5.724 0 0 0 3.836-1.484l1.344 1.932a7.882 7.882 0 0 1-5.488 1.96 7.1 7.1 0 0 1-.224-14.196zm-3.807 5.993h7.617a3.618 3.618 0 0 0-3.81-3.584 3.73 3.73 0 0 0-3.807 3.584zm22.316 13.02v-7.028a5.31 5.31 0 0 1-4.34 2.212c-3.5 0-5.991-2.66-5.991-7.112s2.49-7.084 5.99-7.084a5.396 5.396 0 0 1 4.34 2.184v-1.848h2.94v18.677zm0-14.587a4.385 4.385 0 0 0-3.472-1.82c-2.324 0-3.808 1.876-3.808 4.48 0 2.632 1.484 4.508 3.808 4.508a4.469 4.469 0 0 0 3.472-1.82zm15.316 7.644a6.484 6.484 0 0 1-4.788 2.127c-2.912 0-4.34-1.512-4.34-4.284v-9.576h2.94v8.512c0 2.1 1.064 2.745 2.715 2.745a4.5 4.5 0 0 0 3.473-1.765v-9.492h2.94v13.524h-2.94zm5.823-15.793a1.835 1.835 0 0 1 1.82-1.82 1.82 1.82 0 0 1 0 3.64 1.835 1.835 0 0 1-1.82-1.82zm.365 4.06h2.94v13.525h-2.94zm6.188 0h2.94v1.988a5.775 5.775 0 0 1 4.396-2.296v2.912a4.359 4.359 0 0 0-.924-.084 4.67 4.67 0 0 0-3.472 1.792v9.212h-2.94zm15.175-.337c4.06 0 6.664 3.11 6.664 7.365v.7h-10.444a4.097 4.097 0 0 0 4.312 3.724 5.724 5.724 0 0 0 3.836-1.484l1.344 1.932a7.882 7.882 0 0 1-5.488 1.96 7.1 7.1 0 0 1-.224-14.196zm-3.808 5.993h7.617a3.618 3.618 0 0 0-3.81-3.584 3.73 3.73 0 0 0-3.807 3.584zm22.344 6.02a5.477 5.477 0 0 1-4.34 2.184c-3.472 0-6.02-2.632-6.02-7.084 0-4.368 2.52-7.112 6.02-7.112a5.426 5.426 0 0 1 4.34 2.212v-7.028h2.94v18.676h-2.94zm0-7.587a4.44 4.44 0 0 0-3.5-1.82c-2.324 0-3.808 1.876-3.808 4.507 0 2.605 1.484 4.48 3.808 4.48a4.419 4.419 0 0 0 3.5-1.792z" class="cls-7"/><path d="M30.005 89.857l-1.98 2.035-1.458-1.531 3.781-3.8h2.232v12.01h-2.575zm8.983-3.475c3.421 0 4.97 3.097 4.97 6.193s-1.549 6.212-4.97 6.212c-3.439 0-4.97-3.114-4.97-6.212s1.531-6.193 4.97-6.193zm0 2.269c-1.728 0-2.377 1.71-2.377 3.924s.649 3.944 2.377 3.944c1.71 0 2.359-1.729 2.359-3.944s-.649-3.925-2.359-3.925zm10.8-2.269c3.421 0 4.969 3.097 4.969 6.193s-1.548 6.212-4.969 6.212c-3.44 0-4.97-3.114-4.97-6.212s1.53-6.193 4.97-6.193zm0 2.269c-1.728 0-2.377 1.71-2.377 3.924s.649 3.944 2.377 3.944c1.71 0 2.359-1.729 2.359-3.944s-.649-3.925-2.359-3.925zm8.729-2.269a2.931 2.931 0 0 1 3.061 3.024 3.054 3.054 0 0 1-6.104 0 2.927 2.927 0 0 1 3.043-3.024zm0 1.422a1.584 1.584 0 0 0 0 3.151 1.584 1.584 0 0 0 0-3.151zm6.5-1.242h1.369l-7.689 12.01h-1.35zm.108 6.23a2.94 2.94 0 0 1 3.06 3.024 3.052 3.052 0 1 1-3.06-3.024zm0 1.422a1.435 1.435 0 0 0-1.423 1.602 1.437 1.437 0 1 0 2.864 0 1.448 1.448 0 0 0-1.44-1.602zm11.932-.558l-4.627-7.094h2.917l2.988 4.825 2.953-4.825h2.917l-4.591 7.094v4.915h-2.557zm9.557-3.998c2.593 0 4.358 1.946 4.358 4.79v.504h-6.464a2.344 2.344 0 0 0 2.503 2.017 3.554 3.554 0 0 0 2.322-.864l1.009 1.476a5.357 5.357 0 0 1-3.583 1.206 4.565 4.565 0 1 1-.145-9.129zm-2.142 3.745h4.285a2.014 2.014 0 0 0-2.143-1.925 2.09 2.09 0 0 0-2.142 1.925zm7.795-6.841h2.286v12.01h-2.286zm4.193 0h2.286v12.01H96.46zm3.636 7.652a4.6 4.6 0 1 1 4.592 4.573 4.405 4.405 0 0 1-4.592-4.573zm6.824 0a2.243 2.243 0 1 0-2.232 2.54 2.295 2.295 0 0 0 2.232-2.54zm9.503-1.566l-1.836 5.923h-2.45l-2.646-8.696h2.377l1.62 5.852 1.91-5.852h2.034l1.908 5.852 1.621-5.852h2.376l-2.646 8.696h-2.431z" class="cls-2"/><path d="M340.62 175.54l-4.626-7.095h2.917l2.988 4.826 2.953-4.826h2.917l-4.592 7.095v4.915h-2.556zm9.558-3.998c2.593 0 4.358 1.945 4.358 4.79v.504h-6.464a2.344 2.344 0 0 0 2.503 2.017 3.554 3.554 0 0 0 2.322-.865l1.009 1.477a5.359 5.359 0 0 1-3.583 1.206 4.565 4.565 0 1 1-.145-9.13zm-2.142 3.745h4.285a2.014 2.014 0 0 0-2.143-1.926 2.09 2.09 0 0 0-2.142 1.926zm7.794-6.842h2.287v12.01h-2.286zm4.194 0h2.286v12.01h-2.286zm3.635 7.652a4.6 4.6 0 1 1 4.592 4.574 4.405 4.405 0 0 1-4.592-4.574zm6.824 0a2.243 2.243 0 1 0-2.232 2.54 2.295 2.295 0 0 0 2.232-2.54zm9.504-1.567l-1.836 5.925h-2.45l-2.646-8.697h2.377l1.62 5.852 1.909-5.852h2.035l1.908 5.852 1.621-5.852h2.376l-2.646 8.697h-2.431zm15.263 2.577l-1.044 1.116v2.232h-2.286v-12.01h2.286v7.185l3.295-3.871h2.809l-3.439 3.942 3.547 4.755h-2.863zm11.808-1.91a1.41 1.41 0 0 0-1.602-1.62 2.475 2.475 0 0 0-1.98 1.026v5.852h-2.286v-8.696h2.286v1.133a3.983 3.983 0 0 1 3.043-1.35 2.53 2.53 0 0 1 2.827 2.773v6.14h-2.287zm3.635.9a4.6 4.6 0 1 1 4.592 4.574 4.405 4.405 0 0 1-4.592-4.574zm6.824 0a2.243 2.243 0 1 0-2.232 2.54 2.295 2.295 0 0 0 2.232-2.54z" class="cls-7"/><path d="M425.274 171.542a4.009 4.009 0 0 1 3.44 1.585l-1.496 1.386a2.149 2.149 0 0 0-1.835-.936 2.536 2.536 0 0 0 0 5.06 2.194 2.194 0 0 0 1.836-.937l1.495 1.387a4.01 4.01 0 0 1-3.44 1.584 4.565 4.565 0 1 1 0-9.13zm7.901 5.565l-1.043 1.116v2.232h-2.287v-12.01h2.287v7.185l3.294-3.871h2.809l-3.438 3.942 3.546 4.755h-2.863z" class="cls-7"/><path d="M439.222 177.719a4.982 4.982 0 0 0 3.007 1.187c.99 0 1.46-.341 1.46-.881 0-.613-.758-.829-1.748-1.027-1.494-.288-3.42-.649-3.42-2.719 0-1.459 1.277-2.737 3.564-2.737a5.469 5.469 0 0 1 3.494 1.188l-.9 1.567a3.672 3.672 0 0 0-2.575-1.008c-.829 0-1.369.305-1.369.81 0 .54.685.739 1.657.936 1.495.288 3.493.684 3.493 2.845 0 1.602-1.35 2.791-3.763 2.791a5.852 5.852 0 0 1-3.89-1.35zm11.682-1.622a4.6 4.6 0 1 1 4.592 4.574 4.405 4.405 0 0 1-4.592-4.574zm6.824 0a2.243 2.243 0 1 0-2.232 2.54 2.295 2.295 0 0 0 2.232-2.54zm9.575 3.26a4.067 4.067 0 0 1-3.06 1.314 2.49 2.49 0 0 1-2.809-2.736v-6.177h2.286v5.276a1.398 1.398 0 0 0 1.603 1.603 2.56 2.56 0 0 0 1.98-.99v-5.888h2.287v8.696h-2.287zm4.644-1.062v-4.538h-1.441v-1.999h1.44v-2.377h2.306v2.377h1.763v1.998h-1.763v3.927c0 .54.287.954.792.954a1.25 1.25 0 0 0 .792-.252l.486 1.728a2.825 2.825 0 0 1-1.91.558 2.173 2.173 0 0 1-2.465-2.376zM339.72 190.94l-1.98 2.036-1.458-1.53 3.781-3.8h2.233v12.01h-2.576zm8.984-3.474c3.42 0 4.969 3.097 4.969 6.193s-1.548 6.212-4.97 6.212c-3.439 0-4.97-3.114-4.97-6.212s1.531-6.193 4.97-6.193zm0 2.269c-1.729 0-2.377 1.71-2.377 3.924s.648 3.944 2.377 3.944c1.71 0 2.358-1.729 2.358-3.944s-.648-3.924-2.358-3.924zm10.8-2.269c3.42 0 4.968 3.097 4.968 6.193s-1.547 6.212-4.968 6.212c-3.44 0-4.97-3.114-4.97-6.212s1.53-6.193 4.97-6.193zm0 2.269c-1.729 0-2.377 1.71-2.377 3.924s.648 3.944 2.377 3.944c1.71 0 2.358-1.729 2.358-3.944s-.649-3.924-2.358-3.924zm8.728-2.269a2.931 2.931 0 0 1 3.062 3.024 3.054 3.054 0 0 1-6.105 0 2.927 2.927 0 0 1 3.043-3.024zm0 1.422a1.584 1.584 0 0 0 0 3.151 1.584 1.584 0 0 0 0-3.151zm6.5-1.242h1.37l-7.69 12.01h-1.35zm.108 6.23a2.94 2.94 0 0 1 3.061 3.024 3.052 3.052 0 1 1-3.06-3.024zm0 1.422a1.435 1.435 0 0 0-1.422 1.602 1.437 1.437 0 1 0 2.863 0 1.448 1.448 0 0 0-1.441-1.602zm7.971 0a4.6 4.6 0 1 1 4.592 4.573 4.405 4.405 0 0 1-4.592-4.573zm6.824 0a2.243 2.243 0 1 0-2.232 2.54 2.295 2.295 0 0 0 2.232-2.54zm4.21-2.341h-1.44v-1.998h1.44v-.469a2.803 2.803 0 0 1 2.935-3.024 3.686 3.686 0 0 1 1.656.36l-.468 1.62a1.404 1.404 0 0 0-.738-.18c-.648 0-1.08.431-1.08 1.26v.432h1.765v1.998h-1.765v6.698h-2.305zm13.322-2.215a4.009 4.009 0 0 1 3.44 1.585l-1.496 1.387a2.149 2.149 0 0 0-1.836-.936 2.536 2.536 0 0 0 0 5.06 2.194 2.194 0 0 0 1.836-.937l1.495 1.387a4.01 4.01 0 0 1-3.44 1.584 4.565 4.565 0 1 1 0-9.13z" class="cls-7"/><path d="M412.493 201.15a1.154 1.154 0 0 0 1.206-.63l.324-.738-3.53-8.823h2.45l2.269 6.05 2.268-6.05h2.467l-4.087 10.12a3.161 3.161 0 0 1-3.295 2.106 6.316 6.316 0 0 1-1.135-.126l.342-2.053a1.984 1.984 0 0 0 .72.144zm13.339-2.395a3.597 3.597 0 0 1-2.754 1.116 2.897 2.897 0 0 1-3.026-2.88 2.754 2.754 0 0 1 3.026-2.773 3.513 3.513 0 0 1 2.754 1.062v-1.207c0-.882-.756-1.458-1.908-1.458a3.658 3.658 0 0 0-2.54 1.027l-.864-1.53a5.705 5.705 0 0 1 3.8-1.37c1.98 0 3.799.794 3.799 3.295v5.619h-2.287zm0-2.269a2.286 2.286 0 0 0-1.836-.755c-.9 0-1.639.485-1.639 1.314 0 .81.738 1.278 1.639 1.278a2.287 2.287 0 0 0 1.836-.756zm10.062-2.088a1.41 1.41 0 0 0-1.602-1.62 2.475 2.475 0 0 0-1.98 1.026v5.852h-2.287v-8.697h2.286v1.134a3.983 3.983 0 0 1 3.043-1.35 2.53 2.53 0 0 1 2.827 2.773v6.14h-2.287z" class="cls-7"/><path d="M31.217 195.368l-2.64 2.713-1.945-2.041 5.041-5.064h2.976v16.01h-3.432zm11.976-4.631c4.56 0 6.625 4.127 6.625 8.255s-2.065 8.282-6.625 8.282c-4.584 0-6.624-4.153-6.624-8.282s2.04-8.255 6.623-8.255zm0 3.023c-2.304 0-3.168 2.28-3.168 5.232s.864 5.257 3.168 5.257c2.28 0 3.144-2.304 3.144-5.257s-.864-5.232-3.145-5.232zm14.4-3.023c4.56 0 6.625 4.127 6.625 8.255s-2.065 8.282-6.625 8.282c-4.584 0-6.624-4.153-6.624-8.282s2.04-8.255 6.624-8.255zm0 3.023c-2.304 0-3.168 2.28-3.168 5.232s.864 5.257 3.168 5.257c2.28 0 3.144-2.304 3.144-5.257s-.864-5.232-3.144-5.232zm11.64-3.023a3.907 3.907 0 0 1 4.08 4.032 4.07 4.07 0 0 1-8.137 0 3.901 3.901 0 0 1 4.057-4.032zm0 1.895a2.111 2.111 0 0 0 0 4.2 2.111 2.111 0 0 0 0-4.2zm8.664-1.656h1.824l-10.248 16.01h-1.801zm.144 8.304a3.921 3.921 0 0 1 4.08 4.034 4.069 4.069 0 1 1-4.08-4.034zm0 1.897a1.913 1.913 0 0 0-1.896 2.137 1.916 1.916 0 1 0 3.816 0 1.93 1.93 0 0 0-1.92-2.137zm10.679-2.185a8.103 8.103 0 0 1 8.4-8.28 7.387 7.387 0 0 1 6.816 3.912l-2.927 1.44a4.386 4.386 0 0 0-3.889-2.328 5.27 5.27 0 0 0 0 10.513 4.34 4.34 0 0 0 3.889-2.328l2.927 1.416a7.43 7.43 0 0 1-6.816 3.936 8.104 8.104 0 0 1-8.4-8.28z" class="cls-6"/><path d="M106.432 208.978a1.537 1.537 0 0 0 1.607-.84l.433-.985-4.704-11.76h3.263l3.025 8.064 3.024-8.064h3.288l-5.448 13.489c-.864 2.184-2.4 2.76-4.393 2.808a8.263 8.263 0 0 1-1.511-.168l.456-2.737a2.63 2.63 0 0 0 .96.193zm17.784-3.193a4.795 4.795 0 0 1-3.672 1.489 3.863 3.863 0 0 1-4.033-3.841c0-2.712 2.185-3.696 4.033-3.696a4.683 4.683 0 0 1 3.672 1.417v-1.609c0-1.177-1.008-1.944-2.544-1.944a4.88 4.88 0 0 0-3.385 1.368l-1.151-2.04a7.605 7.605 0 0 1 5.064-1.824c2.64 0 5.065 1.056 5.065 4.392v7.489h-3.049zm0-3.024a3.049 3.049 0 0 0-2.448-1.008c-1.2 0-2.185.649-2.185 1.752 0 1.08.985 1.704 2.185 1.704a3.049 3.049 0 0 0 2.448-1.008zm13.416-2.784a1.88 1.88 0 0 0-2.137-2.16 3.301 3.301 0 0 0-2.64 1.368v7.8h-3.048v-11.592h3.048v1.511a5.31 5.31 0 0 1 4.057-1.8c2.544 0 3.768 1.44 3.768 3.697v8.184h-3.048z" class="cls-6"/></svg>