<svg xmlns="http://www.w3.org/2000/svg" id="Layer_1" viewBox="0 0 547.3 276.26" width="547.3" height="276.26"><defs><style>.cls-1{fill:none}.cls-2{fill:#00aeef}.cls-3{fill:#bfd730}.cls-4{isolation:isolate}.cls-5{clip-path:url(#clip-path)}.cls-6{fill:#aae1fa}.cls-7{fill:#fff200}.cls-8{fill:#00683f}.cls-9{fill:#fff}</style><clipPath id="clip-path"><path d="M207.48 102.87L395.2 69.19l129.22 49.35-187.72 33.68-129.22-49.35z" class="cls-1"/></clipPath></defs><path d="M0 0h188.77v224.8H0z" class="cls-2"/><path d="M94.386 173.842a79.456 79.456 0 1 1 79.456-79.456 79.456 79.456 0 0 1-79.456 79.456z" class="cls-3"/><g class="cls-4"><g class="cls-5"><path d="M524.42 118.54L336.7 152.22l-129.22-49.35L395.2 69.19l129.22 49.35" class="cls-2"/></g></g><g class="cls-4"><path d="M420.334 131.473c-43.636 7.829-103.365 4.877-133.4-6.593-30.042-11.472-19.011-27.117 24.624-34.945 43.643-7.83 103.36-4.879 133.4 6.593 30.036 11.47 19.018 27.115-24.625 34.945" class="cls-6"/></g><g class="cls-4"><path d="M420.334 95.428c-43.636 7.829-103.365 4.877-133.4-6.593s-19.012-27.117 24.624-34.945c43.643-7.83 103.364-4.877 133.4 6.593s19.018 27.115-24.625 34.945" class="cls-7"/></g><path d="M151.673 247.933v13.608h-3.276v-18.676h3.36l9.548 13.244v-13.244h3.276v18.676h-3.164zm15.4 6.832a6.96 6.96 0 1 1 6.943 7.112 6.77 6.77 0 0 1-6.943-7.112zm10.863 0c0-2.38-1.4-4.48-3.92-4.48-2.491 0-3.891 2.1-3.891 4.48 0 2.408 1.4 4.509 3.891 4.509 2.52 0 3.92-2.101 3.92-4.51zm12.684 3.64v-7.812h-2.24v-2.576h2.24v-3.696h2.94v3.696h2.744v2.576h-2.744v7.084c0 .924.448 1.597 1.288 1.597a1.9 1.9 0 0 0 1.316-.477l.7 2.212a3.878 3.878 0 0 1-2.772.868 3.119 3.119 0 0 1-3.472-3.472zm7.784-10.388h2.94v1.988a5.776 5.776 0 0 1 4.396-2.296v2.912a4.352 4.352 0 0 0-.924-.084 4.67 4.67 0 0 0-3.472 1.792v9.212h-2.94zm17.416 12.068a5.708 5.708 0 0 1-4.368 1.792 4.492 4.492 0 0 1-4.704-4.48c0-3.108 2.492-4.396 4.704-4.396a5.59 5.59 0 0 1 4.368 1.736v-2.016c0-1.568-1.288-2.52-3.164-2.52a5.536 5.536 0 0 0-4.004 1.708l-1.204-2.044a8.042 8.042 0 0 1 5.683-2.185c2.997 0 5.628 1.261 5.628 4.9v8.96h-2.939zm0-3.668a3.959 3.959 0 0 0-3.22-1.4c-1.652 0-2.885.952-2.885 2.437 0 1.456 1.233 2.408 2.885 2.408a3.959 3.959 0 0 0 3.22-1.4zm6.187 10.276v-18.676h2.94v1.848a5.397 5.397 0 0 1 4.34-2.184c3.5 0 5.992 2.633 5.992 7.084s-2.492 7.112-5.992 7.112a5.31 5.31 0 0 1-4.34-2.212v7.028zm6.412-16.408a4.388 4.388 0 0 0-3.472 1.82v5.348a4.472 4.472 0 0 0 3.472 1.82c2.324 0 3.808-1.876 3.808-4.509 0-2.603-1.484-4.479-3.808-4.479zm9.268 16.408v-18.676h2.94v1.848a5.397 5.397 0 0 1 4.34-2.184c3.5 0 5.992 2.633 5.992 7.084s-2.493 7.112-5.993 7.112a5.31 5.31 0 0 1-4.34-2.212v7.028zm6.412-16.408a4.388 4.388 0 0 0-3.473 1.82v5.348a4.472 4.472 0 0 0 3.473 1.82c2.323 0 3.808-1.876 3.808-4.509 0-2.603-1.485-4.479-3.808-4.479zm8.903-6.328a1.835 1.835 0 0 1 1.82-1.82 1.82 1.82 0 0 1 0 3.64 1.835 1.835 0 0 1-1.82-1.82zm.365 4.06h2.94v13.525h-2.94zm15.316 5.068c0-2.1-1.065-2.8-2.716-2.8a4.45 4.45 0 0 0-3.472 1.82v9.436h-2.94v-13.524h2.94v1.848a6.398 6.398 0 0 1 4.76-2.184c2.912 0 4.368 1.568 4.368 4.34v9.52h-2.94zm7.392 9.8a5.242 5.242 0 0 0 4.283 1.736c1.932 0 4.004-.896 4.004-3.668v-1.624a5.488 5.488 0 0 1-4.34 2.24c-3.444 0-5.991-2.492-5.991-6.944 0-4.368 2.52-6.944 5.99-6.944a5.386 5.386 0 0 1 4.34 2.212v-1.876h2.94v12.824c0 4.872-3.612 6.189-6.944 6.189a7.628 7.628 0 0 1-5.655-2.017zm8.287-10.78a4.385 4.385 0 0 0-3.472-1.82c-2.324 0-3.808 1.737-3.808 4.34s1.484 4.34 3.808 4.34a4.387 4.387 0 0 0 3.472-1.819zm12.824-4.088h2.94v1.988a5.775 5.775 0 0 1 4.396-2.296v2.912a4.359 4.359 0 0 0-.924-.084 4.67 4.67 0 0 0-3.473 1.792v9.212h-2.94zm15.174-.337c4.061 0 6.665 3.11 6.665 7.365v.7H308.58a4.097 4.097 0 0 0 4.313 3.724 5.724 5.724 0 0 0 3.835-1.484l1.344 1.932a7.882 7.882 0 0 1-5.487 1.96 7.1 7.1 0 0 1-.225-14.196zm-3.807 5.993h7.616a3.618 3.618 0 0 0-3.808-3.584 3.73 3.73 0 0 0-3.808 3.584zm22.315 13.02v-7.028a5.31 5.31 0 0 1-4.34 2.212c-3.5 0-5.99-2.66-5.99-7.112s2.49-7.084 5.99-7.084a5.396 5.396 0 0 1 4.34 2.184v-1.848h2.94v18.677zm0-14.587a4.385 4.385 0 0 0-3.471-1.82c-2.324 0-3.808 1.876-3.808 4.48 0 2.632 1.484 4.508 3.808 4.508a4.469 4.469 0 0 0 3.471-1.82zm15.317 7.644a6.484 6.484 0 0 1-4.788 2.127c-2.912 0-4.34-1.512-4.34-4.284v-9.576h2.94v8.512c0 2.1 1.064 2.745 2.715 2.745a4.5 4.5 0 0 0 3.473-1.765v-9.492h2.94v13.524h-2.94zm5.823-15.793a1.835 1.835 0 0 1 1.82-1.82 1.82 1.82 0 0 1 0 3.64 1.835 1.835 0 0 1-1.82-1.82zm.365 4.06h2.939v13.525h-2.94zm6.187 0h2.94v1.988a5.775 5.775 0 0 1 4.396-2.296v2.912a4.359 4.359 0 0 0-.924-.084 4.67 4.67 0 0 0-3.472 1.792v9.212h-2.94zm15.176-.337c4.06 0 6.664 3.11 6.664 7.365v.7h-10.445a4.097 4.097 0 0 0 4.313 3.724 5.724 5.724 0 0 0 3.836-1.484l1.344 1.932a7.882 7.882 0 0 1-5.488 1.96 7.1 7.1 0 0 1-.224-14.196zm-3.808 5.993h7.616a3.618 3.618 0 0 0-3.808-3.584 3.73 3.73 0 0 0-3.808 3.584zm22.342 6.02a5.477 5.477 0 0 1-4.34 2.184c-3.47 0-6.02-2.632-6.02-7.084 0-4.368 2.52-7.112 6.02-7.112a5.426 5.426 0 0 1 4.34 2.212v-7.028h2.94v18.676h-2.94zm0-7.587a4.44 4.44 0 0 0-3.5-1.82c-2.323 0-3.807 1.876-3.807 4.507 0 2.605 1.484 4.48 3.808 4.48a4.419 4.419 0 0 0 3.5-1.792z" class="cls-8"/><path d="M27.633 83.506a4.782 4.782 0 0 0 3.313 1.368c1.458 0 2.269-.63 2.269-1.549 0-.971-.738-1.422-2.413-1.422-.504 0-1.315 0-1.494.018V79.69c.215.017 1.026.017 1.494.017 1.332 0 2.215-.431 2.215-1.332 0-.954-.973-1.44-2.233-1.44a4.35 4.35 0 0 0-3.061 1.26l-1.26-1.584a5.911 5.911 0 0 1 4.59-1.908c2.809 0 4.538 1.26 4.538 3.259a2.946 2.946 0 0 1-2.628 2.737 3.014 3.014 0 0 1 2.808 2.88c0 2.07-1.854 3.529-4.735 3.529A5.998 5.998 0 0 1 26.3 85.18zm14.095-8.805c3.421 0 4.97 3.097 4.97 6.194s-1.549 6.212-4.97 6.212c-3.439 0-4.97-3.115-4.97-6.212s1.53-6.194 4.97-6.194zm0 2.269c-1.728 0-2.377 1.71-2.377 3.925s.649 3.943 2.377 3.943c1.71 0 2.359-1.728 2.359-3.943s-.649-3.925-2.359-3.925zm8.729-2.269a2.931 2.931 0 0 1 3.061 3.025 3.054 3.054 0 0 1-6.104 0 2.927 2.927 0 0 1 3.043-3.025zm0 1.422a1.584 1.584 0 0 0 0 3.152 1.584 1.584 0 0 0 0-3.152zm6.5-1.242h1.368l-7.687 12.01h-1.351zm.108 6.23a2.941 2.941 0 0 1 3.06 3.024 3.052 3.052 0 1 1-3.06-3.024zm0 1.422a1.435 1.435 0 0 0-1.423 1.602 1.437 1.437 0 1 0 2.864 0 1.448 1.448 0 0 0-1.44-1.602zm8.007-1.638a6.08 6.08 0 0 1 6.302-6.212 5.54 5.54 0 0 1 5.113 2.935l-2.196 1.08a3.29 3.29 0 0 0-2.917-1.747 3.953 3.953 0 0 0 0 7.887 3.256 3.256 0 0 0 2.917-1.746l2.196 1.062a5.574 5.574 0 0 1-5.113 2.952 6.079 6.079 0 0 1-6.302-6.211z" class="cls-9"/><path d="M78.356 88.385a1.154 1.154 0 0 0 1.206-.63l.325-.738-3.53-8.823h2.45l2.268 6.05 2.269-6.05h2.466l-4.087 10.12a3.161 3.161 0 0 1-3.294 2.106 6.316 6.316 0 0 1-1.135-.126l.342-2.053a1.984 1.984 0 0 0 .72.144zm13.339-2.395a3.598 3.598 0 0 1-2.755 1.117 2.897 2.897 0 0 1-3.024-2.881 2.754 2.754 0 0 1 3.024-2.773 3.515 3.515 0 0 1 2.755 1.063v-1.207c0-.882-.756-1.458-1.908-1.458a3.658 3.658 0 0 0-2.54 1.026l-.864-1.53a5.705 5.705 0 0 1 3.8-1.369c1.98 0 3.8.793 3.8 3.296v5.617h-2.288zm0-2.269a2.286 2.286 0 0 0-1.836-.756c-.9 0-1.638.486-1.638 1.315 0 .81.738 1.278 1.638 1.278a2.284 2.284 0 0 0 1.836-.757zm10.063-2.088a1.41 1.41 0 0 0-1.603-1.62 2.475 2.475 0 0 0-1.98 1.026v5.852H95.89v-8.697h2.286v1.134a3.985 3.985 0 0 1 3.043-1.35 2.53 2.53 0 0 1 2.827 2.773v6.14h-2.287zM29.577 97.376l-1.98 2.035-1.458-1.53 3.781-3.8h2.233v12.01h-2.576zm8.983-3.475c3.42 0 4.969 3.097 4.969 6.194s-1.548 6.212-4.969 6.212c-3.44 0-4.97-3.115-4.97-6.212s1.531-6.194 4.97-6.194zm0 2.27c-1.728 0-2.377 1.71-2.377 3.924s.648 3.943 2.377 3.943c1.71 0 2.358-1.728 2.358-3.943s-.648-3.925-2.358-3.925zm10.8-2.27c3.42 0 4.969 3.097 4.969 6.194s-1.548 6.212-4.969 6.212c-3.44 0-4.97-3.115-4.97-6.212s1.53-6.194 4.97-6.194zm0 2.27c-1.728 0-2.377 1.71-2.377 3.924s.648 3.943 2.377 3.943c1.71 0 2.358-1.728 2.358-3.943s-.648-3.925-2.358-3.925zm8.729-2.27a2.931 2.931 0 0 1 3.061 3.025 3.054 3.054 0 0 1-6.104 0 2.927 2.927 0 0 1 3.043-3.025zm0 1.422a1.584 1.584 0 0 0 0 3.152 1.584 1.584 0 0 0 0-3.152zm6.5-1.242h1.369l-7.689 12.01h-1.35zm.108 6.23a2.94 2.94 0 0 1 3.06 3.025 3.052 3.052 0 1 1-3.06-3.025zm0 1.422a1.435 1.435 0 0 0-1.423 1.603 1.437 1.437 0 1 0 2.864 0 1.448 1.448 0 0 0-1.44-1.602zm11.932-.557l-4.627-7.095h2.917l2.988 4.825 2.953-4.825h2.917l-4.592 7.095v4.915H76.63zm9.557-3.998c2.593 0 4.358 1.945 4.358 4.79v.504H84.08a2.344 2.344 0 0 0 2.503 2.016 3.554 3.554 0 0 0 2.322-.864l1.009 1.477a5.357 5.357 0 0 1-3.583 1.206 4.565 4.565 0 1 1-.145-9.13zm-2.142 3.745h4.285a2.014 2.014 0 0 0-2.143-1.926 2.09 2.09 0 0 0-2.142 1.926zm7.795-6.842h2.286v12.01h-2.286zm4.193 0h2.286v12.01h-2.286zm3.636 7.653a4.6 4.6 0 1 1 4.592 4.573 4.405 4.405 0 0 1-4.592-4.573zm6.824 0a2.243 2.243 0 1 0-2.232 2.539 2.295 2.295 0 0 0 2.232-2.54zm9.503-1.567l-1.836 5.924h-2.449l-2.647-8.696h2.377l1.62 5.851 1.91-5.851h2.034l1.908 5.851 1.621-5.851h2.376l-2.646 8.696h-2.431z" class="cls-9"/><path d="M340.193 175.54l-4.627-7.095h2.917l2.988 4.826 2.954-4.826h2.917l-4.592 7.095v4.915h-2.557zm9.557-3.998c2.594 0 4.358 1.945 4.358 4.79v.504h-6.464a2.344 2.344 0 0 0 2.503 2.017 3.554 3.554 0 0 0 2.323-.865l1.008 1.477a5.359 5.359 0 0 1-3.583 1.206 4.565 4.565 0 1 1-.144-9.13zm-2.142 3.745h4.285a2.014 2.014 0 0 0-2.142-1.926 2.09 2.09 0 0 0-2.143 1.926zm7.795-6.842h2.286v12.01h-2.286zm4.194 0h2.286v12.01h-2.286zm3.634 7.652a4.6 4.6 0 1 1 4.592 4.574 4.405 4.405 0 0 1-4.592-4.574zm6.824 0a2.243 2.243 0 1 0-2.232 2.54 2.295 2.295 0 0 0 2.233-2.54zm9.505-1.567l-1.837 5.925h-2.449l-2.646-8.697h2.377l1.62 5.852 1.908-5.852h2.035l1.908 5.852 1.622-5.852h2.376l-2.647 8.697h-2.43zm11.932 9.238v-12.01h2.286v1.098a3.36 3.36 0 0 1 2.683-1.314c2.233 0 3.853 1.657 3.853 4.555s-1.62 4.574-3.853 4.574a3.322 3.322 0 0 1-2.683-1.332v4.429zm4.25-10.191a2.56 2.56 0 0 0-1.964.99v3.08a2.62 2.62 0 0 0 1.963.99 2.555 2.555 0 0 0 0-5.06zm5.92-1.819h2.286v1.189a3.72 3.72 0 0 1 2.773-1.387v2.233a3.023 3.023 0 0 0-.63-.054 2.9 2.9 0 0 0-2.143.972v5.744h-2.286zm5.886-2.647a1.368 1.368 0 1 1 1.368 1.37 1.38 1.38 0 0 1-1.368-1.37zm.234 2.647h2.286v8.697h-2.286zm10.063 3.439a1.41 1.41 0 0 0-1.603-1.62 2.475 2.475 0 0 0-1.98 1.026v5.852h-2.286v-8.696h2.286v1.133a3.985 3.985 0 0 1 3.043-1.35 2.53 2.53 0 0 1 2.827 2.773v6.14h-2.287zm4.641 3.098v-4.538h-1.44v-1.999h1.44v-2.377h2.305v2.377h1.765v1.998h-1.765v3.927c0 .54.289.954.793.954a1.25 1.25 0 0 0 .792-.252l.486 1.728a2.827 2.827 0 0 1-1.909.558 2.174 2.174 0 0 1-2.467-2.376zm5.509-.576a4.982 4.982 0 0 0 3.007 1.187c.99 0 1.459-.341 1.459-.881 0-.613-.757-.829-1.747-1.027-1.494-.288-3.421-.649-3.421-2.719 0-1.459 1.278-2.737 3.565-2.737a5.469 5.469 0 0 1 3.493 1.188l-.9 1.567a3.672 3.672 0 0 0-2.575-1.008c-.828 0-1.368.305-1.368.81 0 .54.685.739 1.656.936 1.495.288 3.494.684 3.494 2.845 0 1.602-1.351 2.791-3.763 2.791a5.854 5.854 0 0 1-3.89-1.35zm-91.763 17.579a4.6 4.6 0 1 1 4.592 4.573 4.405 4.405 0 0 1-4.592-4.573zm6.824 0a2.243 2.243 0 1 0-2.232 2.54 2.295 2.295 0 0 0 2.233-2.54zm9.576-.9a1.41 1.41 0 0 0-1.603-1.62 2.475 2.475 0 0 0-1.98 1.026v5.852h-2.286v-8.697h2.286v1.134a3.985 3.985 0 0 1 3.043-1.35 2.53 2.53 0 0 1 2.827 2.773v6.14h-2.287zm8.889 3.096v-4.537h-1.44v-1.998h1.44v-2.377h2.305v2.377h1.765v1.998h-1.765v3.926c0 .54.29.954.793.954a1.25 1.25 0 0 0 .792-.252l.486 1.729a2.827 2.827 0 0 1-1.909.557 2.174 2.174 0 0 1-2.467-2.377zm4.717-2.196a4.6 4.6 0 1 1 4.592 4.573 4.405 4.405 0 0 1-4.592-4.573zm6.824 0a2.243 2.243 0 1 0-2.232 2.54 2.295 2.295 0 0 0 2.232-2.54zm3.706 7.671v-12.01h2.287v1.098a3.362 3.362 0 0 1 2.682-1.315c2.233 0 3.854 1.657 3.854 4.556s-1.62 4.573-3.854 4.573a3.322 3.322 0 0 1-2.683-1.332v4.43zm4.25-10.192a2.56 2.56 0 0 0-1.963.99v3.08a2.62 2.62 0 0 0 1.962.99 2.555 2.555 0 0 0 0-5.06zm9.61 2.521a4.6 4.6 0 1 1 4.592 4.573 4.405 4.405 0 0 1-4.592-4.573zm6.824 0a2.243 2.243 0 1 0-2.232 2.54 2.295 2.295 0 0 0 2.232-2.54zm4.21-2.341h-1.44v-1.998h1.44v-.469a2.803 2.803 0 0 1 2.935-3.024 3.686 3.686 0 0 1 1.656.36l-.468 1.62a1.404 1.404 0 0 0-.738-.18c-.649 0-1.08.431-1.08 1.26v.432h1.764v1.998h-1.764v6.698h-2.305zm9.828 3.313a4.782 4.782 0 0 0 3.313 1.369c1.458 0 2.268-.63 2.268-1.549 0-.972-.738-1.422-2.413-1.422-.504 0-1.314 0-1.494.018v-2.233c.216.018 1.026.018 1.494.018 1.332 0 2.215-.432 2.215-1.332 0-.954-.973-1.44-2.232-1.44a4.35 4.35 0 0 0-3.062 1.26l-1.26-1.584a5.908 5.908 0 0 1 4.59-1.909c2.81 0 4.538 1.26 4.538 3.26a2.944 2.944 0 0 1-2.628 2.736 3.015 3.015 0 0 1 2.809 2.88c0 2.072-1.855 3.53-4.736 3.53a5.998 5.998 0 0 1-4.735-1.927zm14.095-8.804c3.42 0 4.969 3.097 4.969 6.193s-1.548 6.212-4.97 6.212c-3.439 0-4.97-3.114-4.97-6.212s1.531-6.193 4.97-6.193zm0 2.269c-1.729 0-2.377 1.71-2.377 3.924s.648 3.944 2.377 3.944c1.71 0 2.358-1.729 2.358-3.944s-.648-3.924-2.358-3.924zm8.728-2.269a2.931 2.931 0 0 1 3.062 3.024 3.054 3.054 0 0 1-6.105 0 2.927 2.927 0 0 1 3.043-3.024zm0 1.422a1.584 1.584 0 0 0 0 3.151 1.584 1.584 0 0 0 0-3.151zm6.5-1.242h1.369l-7.688 12.01h-1.35zm.109 6.23a2.941 2.941 0 0 1 3.06 3.024 3.052 3.052 0 1 1-3.06-3.024zm0 1.422a1.435 1.435 0 0 0-1.423 1.602 1.437 1.437 0 1 0 2.863 0 1.448 1.448 0 0 0-1.44-1.602zm12.58-4.556a4.009 4.009 0 0 1 3.44 1.585l-1.496 1.387a2.149 2.149 0 0 0-1.836-.936 2.536 2.536 0 0 0 0 5.06 2.194 2.194 0 0 0 1.836-.937l1.495 1.387a4.01 4.01 0 0 1-3.44 1.584 4.565 4.565 0 1 1 0-9.13z" class="cls-8"/><path d="M458.829 201.15a1.154 1.154 0 0 0 1.206-.63l.324-.738-3.529-8.823h2.45l2.268 6.05 2.268-6.05h2.467l-4.087 10.12a3.161 3.161 0 0 1-3.295 2.106 6.316 6.316 0 0 1-1.134-.126l.341-2.053a1.984 1.984 0 0 0 .721.144zm13.339-2.395a3.597 3.597 0 0 1-2.754 1.116 2.897 2.897 0 0 1-3.025-2.88 2.754 2.754 0 0 1 3.025-2.773 3.513 3.513 0 0 1 2.754 1.062v-1.207c0-.882-.756-1.458-1.908-1.458a3.658 3.658 0 0 0-2.54 1.027l-.864-1.53a5.705 5.705 0 0 1 3.8-1.37c1.98 0 3.799.794 3.799 3.295v5.619h-2.287zm0-2.269a2.286 2.286 0 0 0-1.836-.755c-.9 0-1.639.485-1.639 1.314 0 .81.739 1.278 1.639 1.278a2.287 2.287 0 0 0 1.836-.756zm10.062-2.088a1.41 1.41 0 0 0-1.603-1.62 2.475 2.475 0 0 0-1.98 1.026v5.852h-2.286v-8.697h2.287v1.134a3.983 3.983 0 0 1 3.042-1.35 2.53 2.53 0 0 1 2.828 2.773v6.14h-2.288z" class="cls-8"/><path d="M30.789 195.368l-2.64 2.713-1.945-2.041 5.041-5.064h2.976v16.01h-3.432zm11.975-4.631c4.561 0 6.625 4.127 6.625 8.255s-2.064 8.282-6.625 8.282c-4.584 0-6.624-4.153-6.624-8.282s2.04-8.255 6.624-8.255zm0 3.023c-2.303 0-3.168 2.28-3.168 5.232s.865 5.257 3.169 5.257c2.28 0 3.144-2.304 3.144-5.257s-.864-5.232-3.145-5.232zm14.401-3.023c4.56 0 6.625 4.127 6.625 8.255s-2.065 8.282-6.625 8.282c-4.584 0-6.624-4.153-6.624-8.282s2.04-8.255 6.624-8.255zm0 3.023c-2.304 0-3.168 2.28-3.168 5.232s.864 5.257 3.168 5.257c2.28 0 3.144-2.304 3.144-5.257s-.864-5.232-3.144-5.232zm11.64-3.023a3.907 3.907 0 0 1 4.08 4.032 4.07 4.07 0 0 1-8.137 0 3.901 3.901 0 0 1 4.057-4.032zm0 1.895a2.111 2.111 0 0 0 0 4.2 2.111 2.111 0 0 0 0-4.2zm8.664-1.656h1.824l-10.248 16.01h-1.801zm.144 8.304a3.921 3.921 0 0 1 4.08 4.034 4.069 4.069 0 1 1-4.08-4.034zm0 1.897a1.913 1.913 0 0 0-1.896 2.137 1.916 1.916 0 1 0 3.816 0 1.93 1.93 0 0 0-1.92-2.137zm10.679-2.185a8.103 8.103 0 0 1 8.4-8.28 7.387 7.387 0 0 1 6.816 3.912l-2.927 1.44a4.386 4.386 0 0 0-3.89-2.328 5.27 5.27 0 0 0 0 10.513 4.34 4.34 0 0 0 3.89-2.328l2.927 1.416a7.43 7.43 0 0 1-6.816 3.936 8.104 8.104 0 0 1-8.4-8.28z" class="cls-9"/><path d="M106.004 208.978a1.537 1.537 0 0 0 1.607-.84l.433-.985-4.704-11.76h3.264l3.024 8.064 3.025-8.064h3.287l-5.448 13.489c-.865 2.184-2.4 2.76-4.393 2.808a8.263 8.263 0 0 1-1.512-.168l.457-2.737a2.63 2.63 0 0 0 .96.193zm17.784-3.193a4.795 4.795 0 0 1-3.672 1.489 3.863 3.863 0 0 1-4.033-3.841c0-2.712 2.185-3.696 4.033-3.696a4.683 4.683 0 0 1 3.672 1.417v-1.609c0-1.177-1.008-1.944-2.544-1.944a4.88 4.88 0 0 0-3.385 1.368l-1.151-2.04a7.605 7.605 0 0 1 5.064-1.824c2.64 0 5.065 1.056 5.065 4.392v7.489h-3.049zm0-3.024a3.049 3.049 0 0 0-2.448-1.008c-1.2 0-2.185.649-2.185 1.752 0 1.08.985 1.704 2.185 1.704a3.049 3.049 0 0 0 2.448-1.008zm13.416-2.784a1.88 1.88 0 0 0-2.137-2.16 3.301 3.301 0 0 0-2.64 1.368v7.8h-3.048v-11.592h3.048v1.511a5.31 5.31 0 0 1 4.057-1.8c2.544 0 3.768 1.44 3.768 3.697v8.184h-3.048z" class="cls-9"/></svg>