<svg xmlns="http://www.w3.org/2000/svg" id="Layer_1" viewBox="0 0 881.19 736.32" width="881.19" height="736.32"><defs><style>.cls-1,.cls-10,.cls-7,.cls-9{fill:none}.cls-2{fill:#00aeef}.cls-3{fill:#fff200}.cls-4{fill:#00a76d}.cls-5{isolation:isolate}.cls-6{clip-path:url(#clip-path)}.cls-10,.cls-7,.cls-9{stroke:#fff;stroke-linecap:round;stroke-linejoin:round}.cls-7{stroke-width:4px}.cls-8{fill:#00683f}.cls-9{stroke-width:2px}.cls-10{stroke-width:3px}.cls-11{clip-path:url(#clip-path-2)}.cls-12{fill:#00693f}.cls-13{clip-path:url(#clip-path-4)}.cls-14{clip-path:url(#clip-path-6)}.cls-15{clip-path:url(#clip-path-7)}</style><clipPath id="clip-path"><path d="M665.5 119.13l60.65-53.5 146.44 24.45-60.66 53.51-146.43-24.46z" class="cls-1"/></clipPath><clipPath id="clip-path-2"><path d="M57.6 96.39h57.8v129.59H57.6z" class="cls-1" transform="rotate(-45.354 86.5 161.18)"/></clipPath><clipPath id="clip-path-4"><path d="M482.61 330.8H612.2v57.8H482.61z" class="cls-1" transform="rotate(-44.646 547.402 359.696)"/></clipPath><clipPath id="clip-path-6"><path d="M681.88 96.91l51.06-45.05 123.27 20.58-51.06 45.05-123.27-20.58z" class="cls-1"/></clipPath><clipPath id="clip-path-7"><path d="M677.86 71.52l53.41-47.12 128.96 21.53-53.42 47.13-128.95-21.54z" class="cls-1"/></clipPath></defs><path d="M263.41 266.88h377.54v377.54H263.41z" class="cls-2"/><circle cx="452.18" cy="455.65" r="158.91" class="cls-3"/><path d="M452.183 289.412A166.237 166.237 0 1 0 618.42 455.649a166.237 166.237 0 0 0-166.237-166.237zm0 325.148a158.911 158.911 0 1 1 158.912-158.91 158.911 158.911 0 0 1-158.912 158.91z" class="cls-4"/><g class="cls-5"><g class="cls-6"><path d="M743.51 127.126c-34.037-5.684-50.2-20.375-36.101-32.813s53.124-17.914 87.162-12.23c34.045 5.684 50.209 20.375 36.11 32.814s-53.125 17.914-87.17 12.229m129.079-37.05l-146.435-24.45-60.655 53.507 146.434 24.452 60.656-53.509" class="cls-2"/></g></g><path d="M10.01 78.1h377.54v377.54H10.01z" class="cls-3"/><circle cx="198.78" cy="266.88" r="158.91" class="cls-2"/><path d="M198.78 107.965a158.911 158.911 0 1 0 158.911 158.912A158.911 158.911 0 0 0 198.78 107.965zm0 310.498a151.586 151.586 0 1 1 151.586-151.586A151.586 151.586 0 0 1 198.78 418.463z" class="cls-4"/><path d="M400.436 694.545a10.355 10.355 0 0 0 7.595 3.311c3.456 0 4.823-1.691 4.823-3.275 0-2.16-2.556-2.808-5.47-3.563-3.925-.973-8.532-2.124-8.532-7.2 0-3.96 3.491-7.02 8.747-7.02a12.497 12.497 0 0 1 9 3.348l-2.413 3.132a9.758 9.758 0 0 0-6.947-2.736c-2.484 0-4.068 1.188-4.068 2.988 0 1.872 2.448 2.483 5.292 3.203 3.96 1.008 8.675 2.232 8.675 7.451 0 3.996-2.808 7.415-9.287 7.415-4.428 0-7.63-1.548-9.755-3.815zm19.764 13.246v-24.009h3.78v2.376a6.935 6.935 0 0 1 5.58-2.807c4.498 0 7.702 3.382 7.702 9.106s-3.204 9.143-7.703 9.143a6.824 6.824 0 0 1-5.579-2.844v9.035zm8.243-21.093a5.639 5.639 0 0 0-4.463 2.34v6.875a5.742 5.742 0 0 0 4.463 2.339c2.989 0 4.896-2.411 4.896-5.795 0-3.348-1.908-5.759-4.896-5.759zm11.916-2.916h3.78v2.556a7.423 7.423 0 0 1 5.651-2.952v3.744a5.56 5.56 0 0 0-1.188-.108 6.002 6.002 0 0 0-4.463 2.303v11.843h-3.78zm19.511-.432c5.22 0 8.567 3.996 8.567 9.467v.9H455.01a5.266 5.266 0 0 0 5.544 4.787 7.357 7.357 0 0 0 4.93-1.907l1.73 2.483a10.135 10.135 0 0 1-7.057 2.52 9.127 9.127 0 0 1-.288-18.249zm-4.896 7.704h9.791a4.65 4.65 0 0 0-4.895-4.608 4.796 4.796 0 0 0-4.896 4.608zm27.108 8.242a7.337 7.337 0 0 1-5.616 2.304 5.774 5.774 0 0 1-6.047-5.76c0-3.995 3.204-5.65 6.047-5.65a7.187 7.187 0 0 1 5.615 2.23v-2.591c0-2.016-1.656-3.24-4.067-3.24a7.119 7.119 0 0 0-5.147 2.196l-1.548-2.627a10.336 10.336 0 0 1 7.306-2.808c3.852 0 7.236 1.62 7.236 6.3v11.518h-3.78zm0-4.715a5.088 5.088 0 0 0-4.14-1.8c-2.124 0-3.707 1.224-3.707 3.132 0 1.871 1.583 3.095 3.707 3.095a5.088 5.088 0 0 0 4.14-1.8zm20.195 4.211a7.04 7.04 0 0 1-5.58 2.808c-4.463 0-7.738-3.383-7.738-9.107 0-5.615 3.24-9.142 7.738-9.142a6.978 6.978 0 0 1 5.58 2.842v-9.034h3.78v24.009h-3.78zm0-9.755a5.713 5.713 0 0 0-4.5-2.339c-2.987 0-4.895 2.411-4.895 5.795 0 3.348 1.908 5.759 4.895 5.759a5.682 5.682 0 0 0 4.5-2.304z" class="cls-7"/><path d="M400.436 694.545a10.355 10.355 0 0 0 7.595 3.311c3.456 0 4.823-1.691 4.823-3.275 0-2.16-2.556-2.808-5.47-3.563-3.925-.973-8.532-2.124-8.532-7.2 0-3.96 3.491-7.02 8.747-7.02a12.497 12.497 0 0 1 9 3.348l-2.413 3.132a9.758 9.758 0 0 0-6.947-2.736c-2.484 0-4.068 1.188-4.068 2.988 0 1.872 2.448 2.483 5.292 3.203 3.96 1.008 8.675 2.232 8.675 7.451 0 3.996-2.808 7.415-9.287 7.415-4.428 0-7.63-1.548-9.755-3.815zm19.764 13.246v-24.009h3.78v2.376a6.935 6.935 0 0 1 5.58-2.807c4.498 0 7.702 3.382 7.702 9.106s-3.204 9.143-7.703 9.143a6.824 6.824 0 0 1-5.579-2.844v9.035zm8.243-21.093a5.639 5.639 0 0 0-4.463 2.34v6.875a5.742 5.742 0 0 0 4.463 2.339c2.989 0 4.896-2.411 4.896-5.795 0-3.348-1.908-5.759-4.896-5.759zm11.916-2.916h3.78v2.556a7.423 7.423 0 0 1 5.651-2.952v3.744a5.56 5.56 0 0 0-1.188-.108 6.002 6.002 0 0 0-4.463 2.303v11.843h-3.78zm19.511-.432c5.22 0 8.567 3.996 8.567 9.467v.9H455.01a5.266 5.266 0 0 0 5.544 4.787 7.357 7.357 0 0 0 4.93-1.907l1.73 2.483a10.135 10.135 0 0 1-7.057 2.52 9.127 9.127 0 0 1-.288-18.249zm-4.896 7.704h9.791a4.65 4.65 0 0 0-4.895-4.608 4.796 4.796 0 0 0-4.896 4.608zm27.108 8.242a7.337 7.337 0 0 1-5.616 2.304 5.774 5.774 0 0 1-6.047-5.76c0-3.995 3.204-5.65 6.047-5.65a7.187 7.187 0 0 1 5.615 2.23v-2.591c0-2.016-1.656-3.24-4.067-3.24a7.119 7.119 0 0 0-5.147 2.196l-1.548-2.627a10.336 10.336 0 0 1 7.306-2.808c3.852 0 7.236 1.62 7.236 6.3v11.518h-3.78zm0-4.715a5.088 5.088 0 0 0-4.14-1.8c-2.124 0-3.707 1.224-3.707 3.132 0 1.871 1.583 3.095 3.707 3.095a5.088 5.088 0 0 0 4.14-1.8zm20.195 4.211a7.04 7.04 0 0 1-5.58 2.808c-4.463 0-7.738-3.383-7.738-9.107 0-5.615 3.24-9.142 7.738-9.142a6.978 6.978 0 0 1 5.58 2.842v-9.034h3.78v24.009h-3.78zm0-9.755a5.713 5.713 0 0 0-4.5-2.339c-2.987 0-4.895 2.411-4.895 5.795 0 3.348 1.908 5.759 4.895 5.759a5.682 5.682 0 0 0 4.5-2.304z" class="cls-8"/><path d="M454.313 417.124h3.51v16.919h8.82v3.09h-12.33zm14.431 1.17a1.95 1.95 0 1 1 1.949 1.95 1.965 1.965 0 0 1-1.95-1.95zm.39 4.35h3.15v14.49h-3.15zm7.919 15.929a5.618 5.618 0 0 0 4.59 1.86c2.07 0 4.29-.96 4.29-3.93v-1.74a5.882 5.882 0 0 1-4.65 2.4c-3.69 0-6.42-2.67-6.42-7.44 0-4.68 2.7-7.44 6.42-7.44a5.772 5.772 0 0 1 4.65 2.37v-2.01h3.15v13.74c0 5.22-3.87 6.63-7.44 6.63a8.176 8.176 0 0 1-6.06-2.16zm8.88-11.55a4.703 4.703 0 0 0-3.72-1.95c-2.49 0-4.08 1.86-4.08 4.65s1.59 4.65 4.08 4.65a4.703 4.703 0 0 0 3.72-1.95zm16.44.99c0-2.25-1.17-2.94-2.94-2.94a4.868 4.868 0 0 0-3.72 1.95v10.11h-3.15v-20.009h3.15v7.499a6.928 6.928 0 0 1 5.13-2.34c3.12 0 4.68 1.62 4.68 4.59v10.26h-3.15zm7.26 5.759v-8.369h-2.4v-2.76h2.4v-3.96h3.15v3.96h2.94v2.76h-2.94v7.59c0 .99.48 1.71 1.38 1.71a2.033 2.033 0 0 0 1.41-.51l.75 2.37a4.154 4.154 0 0 1-2.97.93c-2.43 0-3.72-1.32-3.72-3.72zm14.549-3.899a7.456 7.456 0 1 1 14.91 0c0 4.17-2.82 7.62-7.47 7.62a7.262 7.262 0 0 1-7.44-7.62zm11.64 0c0-2.55-1.5-4.8-4.2-4.8-2.67 0-4.17 2.25-4.17 4.8 0 2.58 1.5 4.83 4.17 4.83 2.7 0 4.2-2.25 4.2-4.83zm5.85-12.749h3.15v7.53a5.73 5.73 0 0 1 4.65-2.37c3.72 0 6.42 2.94 6.42 7.62 0 4.77-2.73 7.59-6.42 7.59a5.827 5.827 0 0 1-4.65-2.34v1.979h-3.15zm6.869 17.58c2.52 0 4.11-1.98 4.11-4.8s-1.59-4.83-4.11-4.83a4.73 4.73 0 0 0-3.72 1.98v5.729a4.676 4.676 0 0 0 3.72 1.92zm13.11 3.269c0 3.09-1.619 5.04-4.8 5.04a8.047 8.047 0 0 1-1.619-.15l.33-2.61a4.399 4.399 0 0 0 .9.09c1.14 0 2.04-.66 2.04-2.37v-15.33h3.149zm-3.539-19.679a1.95 1.95 0 1 1 1.95 1.95 1.965 1.965 0 0 1-1.95-1.95zm13.469 3.989c4.35 0 7.14 3.33 7.14 7.89v.75h-11.19a4.39 4.39 0 0 0 4.62 3.99 6.136 6.136 0 0 0 4.11-1.59l1.44 2.07a8.445 8.445 0 0 1-5.88 2.1 7.607 7.607 0 0 1-.24-15.21zm-4.079 6.42h8.16a3.875 3.875 0 0 0-4.08-3.84 3.997 3.997 0 0 0-4.08 3.84zm20.338-6.42a6.496 6.496 0 0 1 5.55 2.58l-2.07 1.92a3.867 3.867 0 0 0-3.328-1.71c-2.64 0-4.38 1.98-4.38 4.8s1.739 4.83 4.38 4.83a3.94 3.94 0 0 0 3.329-1.71l2.07 1.92a6.496 6.496 0 0 1-5.55 2.58 7.606 7.606 0 0 1 0-15.21zm8.342 11.489v-8.369h-2.4v-2.76h2.4v-3.96h3.149v3.96h2.94v2.76h-2.94v7.59c0 .99.48 1.71 1.38 1.71a2.033 2.033 0 0 0 1.41-.51l.75 2.37a4.154 4.154 0 0 1-2.97.93c-2.43 0-3.72-1.32-3.72-3.72zm21.898-11.489c4.35 0 7.14 3.33 7.14 7.89v.75h-11.19a4.39 4.39 0 0 0 4.62 3.99 6.136 6.136 0 0 0 4.11-1.59l1.44 2.07a8.447 8.447 0 0 1-5.88 2.1 7.607 7.607 0 0 1-.24-15.21zm-4.08 6.42h8.16a3.875 3.875 0 0 0-4.08-3.84 3.997 3.997 0 0 0-4.079 3.84z" class="cls-9"/><path d="M631.94 431.793l-3.78 5.34h-3.51l5.31-7.44-5.01-7.05h3.54l3.45 4.92 3.42-4.92h3.54l-5.01 7.05 5.34 7.44h-3.54zm8.88 10.859v-20.008h3.15v1.98a5.783 5.783 0 0 1 4.65-2.34c3.75 0 6.42 2.82 6.42 7.59s-2.67 7.62-6.42 7.62a5.691 5.691 0 0 1-4.65-2.37v7.528zm6.87-17.579a4.702 4.702 0 0 0-3.72 1.95v5.73a4.79 4.79 0 0 0 3.72 1.95c2.49 0 4.08-2.01 4.08-4.83 0-2.79-1.59-4.8-4.08-4.8zm18.78 10.5a6.118 6.118 0 0 1-4.68 1.92 4.813 4.813 0 0 1-5.04-4.8c0-3.33 2.67-4.71 5.04-4.71a5.991 5.991 0 0 1 4.68 1.86v-2.16c0-1.68-1.38-2.7-3.39-2.7a5.931 5.931 0 0 0-4.29 1.83l-1.29-2.19a8.617 8.617 0 0 1 6.09-2.34c3.21 0 6.03 1.351 6.03 5.25v9.6h-3.15zm0-3.93a4.243 4.243 0 0 0-3.45-1.5c-1.77 0-3.09 1.02-3.09 2.61 0 1.56 1.32 2.58 3.09 2.58a4.241 4.241 0 0 0 3.45-1.5zm16.409-3.57c0-2.25-1.14-3-2.91-3a4.771 4.771 0 0 0-3.72 1.95v10.11H673.1v-14.49h3.15v1.98a6.858 6.858 0 0 1 5.1-2.34c3.12 0 4.68 1.68 4.68 4.65v10.2h-3.15zm16.829 7.08a5.869 5.869 0 0 1-4.65 2.34c-3.72 0-6.45-2.82-6.45-7.59 0-4.68 2.7-7.62 6.45-7.62a5.811 5.811 0 0 1 4.65 2.37v-7.529h3.15v20.009h-3.15zm0-8.13a4.76 4.76 0 0 0-3.75-1.95c-2.49 0-4.08 2.01-4.08 4.83 0 2.79 1.59 4.8 4.08 4.8a4.734 4.734 0 0 0 3.75-1.92zm6.811 5.94a7.481 7.481 0 0 0 4.92 2.04c1.89 0 2.85-.69 2.85-1.77 0-1.26-1.53-1.71-3.3-2.1-2.49-.54-5.46-1.2-5.46-4.44 0-2.37 2.04-4.41 5.7-4.41a8.282 8.282 0 0 1 5.64 2.04l-1.32 2.22a5.847 5.847 0 0 0-4.29-1.74c-1.65 0-2.7.6-2.7 1.62 0 1.11 1.44 1.5 3.15 1.89 2.52.54 5.61 1.26 5.61 4.68 0 2.55-2.13 4.5-6.03 4.5a8.813 8.813 0 0 1-6.21-2.25zm-253.196 32.91a7.456 7.456 0 1 1 14.91 0c0 4.17-2.82 7.62-7.47 7.62a7.262 7.262 0 0 1-7.44-7.62zm11.64 0c0-2.55-1.5-4.8-4.2-4.8-2.67 0-4.17 2.25-4.17 4.8 0 2.58 1.5 4.83 4.17 4.83 2.7 0 4.2-2.25 4.2-4.83zm15.629-1.8c0-2.25-1.14-3-2.91-3a4.771 4.771 0 0 0-3.72 1.95v10.11h-3.149v-14.49h3.15v1.98a6.858 6.858 0 0 1 5.1-2.34c3.12 0 4.68 1.68 4.68 4.65v10.2h-3.15zm7.261 5.699v-8.369h-2.4v-2.76h2.4v-3.96h3.15v3.96h2.94v2.76h-2.94v7.59c0 .99.48 1.71 1.38 1.71a2.033 2.033 0 0 0 1.41-.51l.75 2.37a4.154 4.154 0 0 1-2.97.93c-2.43 0-3.72-1.32-3.72-3.72zm7.439-3.899a7.456 7.456 0 1 1 14.91 0c0 4.17-2.82 7.62-7.47 7.62a7.262 7.262 0 0 1-7.44-7.62zm11.64 0c0-2.55-1.5-4.8-4.2-4.8-2.67 0-4.17 2.25-4.17 4.8 0 2.58 1.5 4.83 4.17 4.83 2.7 0 4.2-2.25 4.2-4.83zm23.16 5.28a5.869 5.869 0 0 1-4.65 2.34c-3.72 0-6.45-2.82-6.45-7.59 0-4.68 2.7-7.62 6.45-7.62a5.811 5.811 0 0 1 4.65 2.37v-7.529h3.15v20.009h-3.15zm0-8.13a4.76 4.76 0 0 0-3.75-1.95c-2.49 0-4.08 2.01-4.08 4.83 0 2.79 1.59 4.8 4.08 4.8a4.734 4.734 0 0 0 3.75-1.92zm15.479 8.55a6.118 6.118 0 0 1-4.68 1.92 4.813 4.813 0 0 1-5.04-4.8c0-3.33 2.67-4.71 5.04-4.71a5.991 5.991 0 0 1 4.68 1.86v-2.16c0-1.68-1.38-2.7-3.39-2.7a5.931 5.931 0 0 0-4.29 1.83l-1.29-2.19a8.617 8.617 0 0 1 6.09-2.34c3.21 0 6.03 1.351 6.03 5.25v9.6h-3.15zm0-3.93a4.243 4.243 0 0 0-3.45-1.5c-1.77 0-3.09 1.02-3.09 2.61 0 1.56 1.32 2.58 3.09 2.58a4.241 4.241 0 0 0 3.45-1.5zm6.631-8.999h3.15v2.13a6.189 6.189 0 0 1 4.71-2.46v3.12a4.604 4.604 0 0 0-.99-.09 5.002 5.002 0 0 0-3.72 1.92v9.869h-3.15zm14.968 8.519l-2.01 2.07v3.9h-3.148v-20.009h3.149v12.509l6.39-6.99h3.9l-6.03 6.57 6.15 7.92h-3.96zm17.13-14.039h3.15v7.53a5.73 5.73 0 0 1 4.65-2.37c3.72 0 6.42 2.94 6.42 7.62 0 4.77-2.73 7.59-6.42 7.59a5.827 5.827 0 0 1-4.65-2.34v1.979h-3.15zm6.87 17.58c2.52 0 4.11-1.98 4.11-4.8s-1.59-4.83-4.11-4.83a4.73 4.73 0 0 0-3.72 1.98v5.729a4.676 4.676 0 0 0 3.72 1.92zm18.81.869a6.118 6.118 0 0 1-4.68 1.92 4.813 4.813 0 0 1-5.04-4.8c0-3.33 2.67-4.71 5.04-4.71a5.99 5.99 0 0 1 4.68 1.86v-2.16c0-1.68-1.38-2.7-3.39-2.7a5.931 5.931 0 0 0-4.29 1.83l-1.29-2.19a8.617 8.617 0 0 1 6.09-2.34c3.21 0 6.03 1.351 6.03 5.25v9.6h-3.15zm0-3.93a4.243 4.243 0 0 0-3.45-1.5c-1.77 0-3.09 1.02-3.09 2.61 0 1.56 1.32 2.58 3.09 2.58a4.241 4.241 0 0 0 3.45-1.5zm13.23-9.36a6.496 6.496 0 0 1 5.55 2.58l-2.07 1.92a3.867 3.867 0 0 0-3.33-1.71c-2.64 0-4.38 1.98-4.38 4.8s1.74 4.83 4.38 4.83a3.94 3.94 0 0 0 3.33-1.71l2.07 1.92a6.496 6.496 0 0 1-5.55 2.58 7.606 7.606 0 0 1 0-15.21zm12.87 8.88l-2.01 2.07v3.9h-3.15v-20.009h3.15v12.509l6.39-6.99h3.9l-6.03 6.57 6.15 7.92h-3.96zm10.56 7.41a5.618 5.618 0 0 0 4.59 1.86c2.07 0 4.29-.96 4.29-3.93v-1.74a5.882 5.882 0 0 1-4.65 2.4c-3.69 0-6.42-2.67-6.42-7.44 0-4.68 2.7-7.44 6.42-7.44a5.772 5.772 0 0 1 4.65 2.37v-2.01h3.15v13.74c0 5.22-3.87 6.63-7.44 6.63a8.176 8.176 0 0 1-6.06-2.16zm8.88-11.55a4.703 4.703 0 0 0-3.72-1.95c-2.49 0-4.08 1.86-4.08 4.65s1.59 4.65 4.08 4.65a4.703 4.703 0 0 0 3.72-1.95zm6.63-4.379h3.149v2.13a6.189 6.189 0 0 1 4.71-2.46v3.12a4.604 4.604 0 0 0-.99-.09 5.002 5.002 0 0 0-3.72 1.92v9.869h-3.15zm8.909 7.229a7.456 7.456 0 1 1 14.91 0c0 4.17-2.82 7.62-7.47 7.62a7.262 7.262 0 0 1-7.44-7.62zm11.64 0c0-2.55-1.5-4.8-4.2-4.8-2.67 0-4.17 2.25-4.17 4.8 0 2.58 1.5 4.83 4.17 4.83 2.7 0 4.2-2.25 4.2-4.83zm15.629 5.34a6.944 6.944 0 0 1-5.13 2.28c-3.119 0-4.65-1.62-4.65-4.59v-10.26h3.15v9.119c0 2.25 1.14 2.94 2.91 2.94a4.821 4.821 0 0 0 3.72-1.89v-10.17h3.15v14.49h-3.15zm16.41-7.14c0-2.25-1.14-3-2.91-3a4.771 4.771 0 0 0-3.72 1.95v10.11h-3.149v-14.49h3.15v1.98a6.858 6.858 0 0 1 5.1-2.34c3.12 0 4.68 1.68 4.68 4.65v10.2h-3.15zm16.829 7.08a5.869 5.869 0 0 1-4.649 2.34c-3.72 0-6.45-2.82-6.45-7.59 0-4.68 2.7-7.62 6.45-7.62a5.811 5.811 0 0 1 4.65 2.37v-7.529h3.15v20.009h-3.15zm0-8.13a4.76 4.76 0 0 0-3.75-1.95c-2.489 0-4.079 2.01-4.079 4.83 0 2.79 1.59 4.8 4.08 4.8a4.734 4.734 0 0 0 3.75-1.92z" class="cls-9"/><path d="M454.313 417.124h3.51v16.919h8.82v3.09h-12.33zm14.431 1.17a1.95 1.95 0 1 1 1.949 1.95 1.965 1.965 0 0 1-1.95-1.95zm.39 4.35h3.15v14.49h-3.15zm7.919 15.929a5.618 5.618 0 0 0 4.59 1.86c2.07 0 4.29-.96 4.29-3.93v-1.74a5.882 5.882 0 0 1-4.65 2.4c-3.69 0-6.42-2.67-6.42-7.44 0-4.68 2.7-7.44 6.42-7.44a5.772 5.772 0 0 1 4.65 2.37v-2.01h3.15v13.74c0 5.22-3.87 6.63-7.44 6.63a8.176 8.176 0 0 1-6.06-2.16zm8.88-11.55a4.703 4.703 0 0 0-3.72-1.95c-2.49 0-4.08 1.86-4.08 4.65s1.59 4.65 4.08 4.65a4.703 4.703 0 0 0 3.72-1.95zm16.44.99c0-2.25-1.17-2.94-2.94-2.94a4.868 4.868 0 0 0-3.72 1.95v10.11h-3.15v-20.009h3.15v7.499a6.928 6.928 0 0 1 5.13-2.34c3.12 0 4.68 1.62 4.68 4.59v10.26h-3.15zm7.26 5.759v-8.369h-2.4v-2.76h2.4v-3.96h3.15v3.96h2.94v2.76h-2.94v7.59c0 .99.48 1.71 1.38 1.71a2.033 2.033 0 0 0 1.41-.51l.75 2.37a4.154 4.154 0 0 1-2.97.93c-2.43 0-3.72-1.32-3.72-3.72zm14.549-3.899a7.456 7.456 0 1 1 14.91 0c0 4.17-2.82 7.62-7.47 7.62a7.262 7.262 0 0 1-7.44-7.62zm11.64 0c0-2.55-1.5-4.8-4.2-4.8-2.67 0-4.17 2.25-4.17 4.8 0 2.58 1.5 4.83 4.17 4.83 2.7 0 4.2-2.25 4.2-4.83zm5.85-12.749h3.15v7.53a5.73 5.73 0 0 1 4.65-2.37c3.72 0 6.42 2.94 6.42 7.62 0 4.77-2.73 7.59-6.42 7.59a5.827 5.827 0 0 1-4.65-2.34v1.979h-3.15zm6.869 17.58c2.52 0 4.11-1.98 4.11-4.8s-1.59-4.83-4.11-4.83a4.73 4.73 0 0 0-3.72 1.98v5.729a4.676 4.676 0 0 0 3.72 1.92zm13.11 3.269c0 3.09-1.619 5.04-4.8 5.04a8.047 8.047 0 0 1-1.619-.15l.33-2.61a4.399 4.399 0 0 0 .9.09c1.14 0 2.04-.66 2.04-2.37v-15.33h3.149zm-3.539-19.679a1.95 1.95 0 1 1 1.95 1.95 1.965 1.965 0 0 1-1.95-1.95zm13.469 3.989c4.35 0 7.14 3.33 7.14 7.89v.75h-11.19a4.39 4.39 0 0 0 4.62 3.99 6.136 6.136 0 0 0 4.11-1.59l1.44 2.07a8.445 8.445 0 0 1-5.88 2.1 7.607 7.607 0 0 1-.24-15.21zm-4.079 6.42h8.16a3.875 3.875 0 0 0-4.08-3.84 3.997 3.997 0 0 0-4.08 3.84zm20.338-6.42a6.496 6.496 0 0 1 5.55 2.58l-2.07 1.92a3.867 3.867 0 0 0-3.328-1.71c-2.64 0-4.38 1.98-4.38 4.8s1.739 4.83 4.38 4.83a3.94 3.94 0 0 0 3.329-1.71l2.07 1.92a6.496 6.496 0 0 1-5.55 2.58 7.606 7.606 0 0 1 0-15.21zm8.342 11.489v-8.369h-2.4v-2.76h2.4v-3.96h3.149v3.96h2.94v2.76h-2.94v7.59c0 .99.48 1.71 1.38 1.71a2.033 2.033 0 0 0 1.41-.51l.75 2.37a4.154 4.154 0 0 1-2.97.93c-2.43 0-3.72-1.32-3.72-3.72zm21.898-11.489c4.35 0 7.14 3.33 7.14 7.89v.75h-11.19a4.39 4.39 0 0 0 4.62 3.99 6.136 6.136 0 0 0 4.11-1.59l1.44 2.07a8.447 8.447 0 0 1-5.88 2.1 7.607 7.607 0 0 1-.24-15.21zm-4.08 6.42h8.16a3.875 3.875 0 0 0-4.08-3.84 3.997 3.997 0 0 0-4.079 3.84z" class="cls-8"/><path d="M631.94 431.793l-3.78 5.34h-3.51l5.31-7.44-5.01-7.05h3.54l3.45 4.92 3.42-4.92h3.54l-5.01 7.05 5.34 7.44h-3.54zm8.88 10.859v-20.008h3.15v1.98a5.783 5.783 0 0 1 4.65-2.34c3.75 0 6.42 2.82 6.42 7.59s-2.67 7.62-6.42 7.62a5.691 5.691 0 0 1-4.65-2.37v7.528zm6.87-17.579a4.702 4.702 0 0 0-3.72 1.95v5.73a4.79 4.79 0 0 0 3.72 1.95c2.49 0 4.08-2.01 4.08-4.83 0-2.79-1.59-4.8-4.08-4.8zm18.78 10.5a6.118 6.118 0 0 1-4.68 1.92 4.813 4.813 0 0 1-5.04-4.8c0-3.33 2.67-4.71 5.04-4.71a5.991 5.991 0 0 1 4.68 1.86v-2.16c0-1.68-1.38-2.7-3.39-2.7a5.931 5.931 0 0 0-4.29 1.83l-1.29-2.19a8.617 8.617 0 0 1 6.09-2.34c3.21 0 6.03 1.351 6.03 5.25v9.6h-3.15zm0-3.93a4.243 4.243 0 0 0-3.45-1.5c-1.77 0-3.09 1.02-3.09 2.61 0 1.56 1.32 2.58 3.09 2.58a4.241 4.241 0 0 0 3.45-1.5zm16.409-3.57c0-2.25-1.14-3-2.91-3a4.771 4.771 0 0 0-3.72 1.95v10.11H673.1v-14.49h3.15v1.98a6.858 6.858 0 0 1 5.1-2.34c3.12 0 4.68 1.68 4.68 4.65v10.2h-3.15zm16.829 7.08a5.869 5.869 0 0 1-4.65 2.34c-3.72 0-6.45-2.82-6.45-7.59 0-4.68 2.7-7.62 6.45-7.62a5.811 5.811 0 0 1 4.65 2.37v-7.529h3.15v20.009h-3.15zm0-8.13a4.76 4.76 0 0 0-3.75-1.95c-2.49 0-4.08 2.01-4.08 4.83 0 2.79 1.59 4.8 4.08 4.8a4.734 4.734 0 0 0 3.75-1.92zm6.811 5.94a7.481 7.481 0 0 0 4.92 2.04c1.89 0 2.85-.69 2.85-1.77 0-1.26-1.53-1.71-3.3-2.1-2.49-.54-5.46-1.2-5.46-4.44 0-2.37 2.04-4.41 5.7-4.41a8.282 8.282 0 0 1 5.64 2.04l-1.32 2.22a5.847 5.847 0 0 0-4.29-1.74c-1.65 0-2.7.6-2.7 1.62 0 1.11 1.44 1.5 3.15 1.89 2.52.54 5.61 1.26 5.61 4.68 0 2.55-2.13 4.5-6.03 4.5a8.813 8.813 0 0 1-6.21-2.25zm-253.196 32.91a7.456 7.456 0 1 1 14.91 0c0 4.17-2.82 7.62-7.47 7.62a7.262 7.262 0 0 1-7.44-7.62zm11.64 0c0-2.55-1.5-4.8-4.2-4.8-2.67 0-4.17 2.25-4.17 4.8 0 2.58 1.5 4.83 4.17 4.83 2.7 0 4.2-2.25 4.2-4.83zm15.629-1.8c0-2.25-1.14-3-2.91-3a4.771 4.771 0 0 0-3.72 1.95v10.11h-3.149v-14.49h3.15v1.98a6.858 6.858 0 0 1 5.1-2.34c3.12 0 4.68 1.68 4.68 4.65v10.2h-3.15zm7.261 5.699v-8.369h-2.4v-2.76h2.4v-3.96h3.15v3.96h2.94v2.76h-2.94v7.59c0 .99.48 1.71 1.38 1.71a2.033 2.033 0 0 0 1.41-.51l.75 2.37a4.154 4.154 0 0 1-2.97.93c-2.43 0-3.72-1.32-3.72-3.72zm7.439-3.899a7.456 7.456 0 1 1 14.91 0c0 4.17-2.82 7.62-7.47 7.62a7.262 7.262 0 0 1-7.44-7.62zm11.64 0c0-2.55-1.5-4.8-4.2-4.8-2.67 0-4.17 2.25-4.17 4.8 0 2.58 1.5 4.83 4.17 4.83 2.7 0 4.2-2.25 4.2-4.83zm23.16 5.28a5.869 5.869 0 0 1-4.65 2.34c-3.72 0-6.45-2.82-6.45-7.59 0-4.68 2.7-7.62 6.45-7.62a5.811 5.811 0 0 1 4.65 2.37v-7.529h3.15v20.009h-3.15zm0-8.13a4.76 4.76 0 0 0-3.75-1.95c-2.49 0-4.08 2.01-4.08 4.83 0 2.79 1.59 4.8 4.08 4.8a4.734 4.734 0 0 0 3.75-1.92zm15.479 8.55a6.118 6.118 0 0 1-4.68 1.92 4.813 4.813 0 0 1-5.04-4.8c0-3.33 2.67-4.71 5.04-4.71a5.991 5.991 0 0 1 4.68 1.86v-2.16c0-1.68-1.38-2.7-3.39-2.7a5.931 5.931 0 0 0-4.29 1.83l-1.29-2.19a8.617 8.617 0 0 1 6.09-2.34c3.21 0 6.03 1.351 6.03 5.25v9.6h-3.15zm0-3.93a4.243 4.243 0 0 0-3.45-1.5c-1.77 0-3.09 1.02-3.09 2.61 0 1.56 1.32 2.58 3.09 2.58a4.241 4.241 0 0 0 3.45-1.5zm6.631-8.999h3.15v2.13a6.189 6.189 0 0 1 4.71-2.46v3.12a4.604 4.604 0 0 0-.99-.09 5.002 5.002 0 0 0-3.72 1.92v9.869h-3.15zm14.968 8.519l-2.01 2.07v3.9h-3.148v-20.009h3.149v12.509l6.39-6.99h3.9l-6.03 6.57 6.15 7.92h-3.96zm17.13-14.039h3.15v7.53a5.73 5.73 0 0 1 4.65-2.37c3.72 0 6.42 2.94 6.42 7.62 0 4.77-2.73 7.59-6.42 7.59a5.827 5.827 0 0 1-4.65-2.34v1.979h-3.15zm6.87 17.58c2.52 0 4.11-1.98 4.11-4.8s-1.59-4.83-4.11-4.83a4.73 4.73 0 0 0-3.72 1.98v5.729a4.676 4.676 0 0 0 3.72 1.92zm18.81.869a6.118 6.118 0 0 1-4.68 1.92 4.813 4.813 0 0 1-5.04-4.8c0-3.33 2.67-4.71 5.04-4.71a5.99 5.99 0 0 1 4.68 1.86v-2.16c0-1.68-1.38-2.7-3.39-2.7a5.931 5.931 0 0 0-4.29 1.83l-1.29-2.19a8.617 8.617 0 0 1 6.09-2.34c3.21 0 6.03 1.351 6.03 5.25v9.6h-3.15zm0-3.93a4.243 4.243 0 0 0-3.45-1.5c-1.77 0-3.09 1.02-3.09 2.61 0 1.56 1.32 2.58 3.09 2.58a4.241 4.241 0 0 0 3.45-1.5zm13.23-9.36a6.496 6.496 0 0 1 5.55 2.58l-2.07 1.92a3.867 3.867 0 0 0-3.33-1.71c-2.64 0-4.38 1.98-4.38 4.8s1.74 4.83 4.38 4.83a3.94 3.94 0 0 0 3.33-1.71l2.07 1.92a6.496 6.496 0 0 1-5.55 2.58 7.606 7.606 0 0 1 0-15.21zm12.87 8.88l-2.01 2.07v3.9h-3.15v-20.009h3.15v12.509l6.39-6.99h3.9l-6.03 6.57 6.15 7.92h-3.96zm10.56 7.41a5.618 5.618 0 0 0 4.59 1.86c2.07 0 4.29-.96 4.29-3.93v-1.74a5.882 5.882 0 0 1-4.65 2.4c-3.69 0-6.42-2.67-6.42-7.44 0-4.68 2.7-7.44 6.42-7.44a5.772 5.772 0 0 1 4.65 2.37v-2.01h3.15v13.74c0 5.22-3.87 6.63-7.44 6.63a8.176 8.176 0 0 1-6.06-2.16zm8.88-11.55a4.703 4.703 0 0 0-3.72-1.95c-2.49 0-4.08 1.86-4.08 4.65s1.59 4.65 4.08 4.65a4.703 4.703 0 0 0 3.72-1.95zm6.63-4.379h3.149v2.13a6.189 6.189 0 0 1 4.71-2.46v3.12a4.604 4.604 0 0 0-.99-.09 5.002 5.002 0 0 0-3.72 1.92v9.869h-3.15zm8.909 7.229a7.456 7.456 0 1 1 14.91 0c0 4.17-2.82 7.62-7.47 7.62a7.262 7.262 0 0 1-7.44-7.62zm11.64 0c0-2.55-1.5-4.8-4.2-4.8-2.67 0-4.17 2.25-4.17 4.8 0 2.58 1.5 4.83 4.17 4.83 2.7 0 4.2-2.25 4.2-4.83zm15.629 5.34a6.944 6.944 0 0 1-5.13 2.28c-3.119 0-4.65-1.62-4.65-4.59v-10.26h3.15v9.119c0 2.25 1.14 2.94 2.91 2.94a4.821 4.821 0 0 0 3.72-1.89v-10.17h3.15v14.49h-3.15zm16.41-7.14c0-2.25-1.14-3-2.91-3a4.771 4.771 0 0 0-3.72 1.95v10.11h-3.149v-14.49h3.15v1.98a6.858 6.858 0 0 1 5.1-2.34c3.12 0 4.68 1.68 4.68 4.65v10.2h-3.15zm16.829 7.08a5.869 5.869 0 0 1-4.649 2.34c-3.72 0-6.45-2.82-6.45-7.59 0-4.68 2.7-7.62 6.45-7.62a5.811 5.811 0 0 1 4.65 2.37v-7.529h3.15v20.009h-3.15zm0-8.13a4.76 4.76 0 0 0-3.75-1.95c-2.489 0-4.079 2.01-4.079 4.83 0 2.79 1.59 4.8 4.08 4.8a4.734 4.734 0 0 0 3.75-1.92z" class="cls-8"/><path d="M200.91 149.004h3.51v16.92h8.82v3.09h-12.33zm14.43 1.17a1.95 1.95 0 1 1 1.95 1.95 1.965 1.965 0 0 1-1.95-1.95zm.39 4.35h3.15v14.49h-3.15zm7.92 15.929a5.616 5.616 0 0 0 4.59 1.86c2.07 0 4.29-.96 4.29-3.93v-1.74a5.88 5.88 0 0 1-4.65 2.4c-3.69 0-6.42-2.67-6.42-7.44 0-4.68 2.7-7.44 6.42-7.44a5.771 5.771 0 0 1 4.65 2.37v-2.01h3.15v13.74c0 5.22-3.87 6.63-7.44 6.63a8.177 8.177 0 0 1-6.06-2.16zm8.88-11.55a4.702 4.702 0 0 0-3.72-1.95c-2.49 0-4.08 1.86-4.08 4.65s1.59 4.65 4.08 4.65a4.702 4.702 0 0 0 3.72-1.95zm16.439.991c0-2.25-1.17-2.94-2.94-2.94a4.868 4.868 0 0 0-3.72 1.95v10.109h-3.15v-20.01h3.15v7.5a6.925 6.925 0 0 1 5.13-2.34c3.12 0 4.68 1.62 4.68 4.59v10.26h-3.15zm7.26 5.759v-8.37h-2.4v-2.76h2.4v-3.96h3.15v3.96h2.94v2.76h-2.94v7.59c0 .99.48 1.71 1.38 1.71a2.034 2.034 0 0 0 1.41-.51l.75 2.37a4.156 4.156 0 0 1-2.97.93c-2.43 0-3.72-1.32-3.72-3.72zm15.449-16.649h3.15v7.53a5.73 5.73 0 0 1 4.65-2.37c3.72 0 6.42 2.94 6.42 7.62 0 4.77-2.73 7.59-6.42 7.59a5.824 5.824 0 0 1-4.65-2.34v1.98h-3.15zm6.87 17.58c2.52 0 4.11-1.98 4.11-4.8s-1.59-4.83-4.11-4.83a4.728 4.728 0 0 0-3.72 1.98v5.73a4.677 4.677 0 0 0 3.72 1.92zm18.81.869a6.117 6.117 0 0 1-4.68 1.92 4.813 4.813 0 0 1-5.04-4.8c0-3.33 2.67-4.71 5.04-4.71a5.99 5.99 0 0 1 4.68 1.86v-2.16c0-1.68-1.38-2.7-3.39-2.7a5.934 5.934 0 0 0-4.29 1.83l-1.29-2.189a8.616 8.616 0 0 1 6.09-2.34c3.21 0 6.03 1.35 6.03 5.25v9.6h-3.15zm0-3.93a4.24 4.24 0 0 0-3.45-1.5c-1.77 0-3.09 1.02-3.09 2.61 0 1.56 1.32 2.58 3.09 2.58a4.242 4.242 0 0 0 3.45-1.5zm13.229-9.359a6.498 6.498 0 0 1 5.55 2.58l-2.07 1.92a3.867 3.867 0 0 0-3.33-1.71c-2.64 0-4.38 1.98-4.38 4.8s1.74 4.83 4.38 4.83a3.94 3.94 0 0 0 3.33-1.71l2.07 1.92a6.497 6.497 0 0 1-5.55 2.58 7.606 7.606 0 0 1 0-15.21zm12.87 8.879l-2.01 2.07v3.9h-3.15v-20.01h3.15v12.51l6.39-6.99h3.9l-6.03 6.57 6.15 7.92h-3.96zm10.561 7.41a5.617 5.617 0 0 0 4.59 1.86c2.07 0 4.29-.96 4.29-3.93v-1.74a5.88 5.88 0 0 1-4.65 2.4c-3.69 0-6.42-2.67-6.42-7.44 0-4.68 2.7-7.44 6.42-7.44a5.771 5.771 0 0 1 4.65 2.37v-2.01h3.15v13.74c0 5.22-3.87 6.63-7.44 6.63a8.178 8.178 0 0 1-6.06-2.16zm8.879-11.55a4.702 4.702 0 0 0-3.72-1.95c-2.49 0-4.08 1.86-4.08 4.65s1.59 4.65 4.08 4.65a4.702 4.702 0 0 0 3.72-1.95zm6.63-4.379h3.15v2.13a6.187 6.187 0 0 1 4.71-2.46v3.12a4.67 4.67 0 0 0-.99-.09 5.003 5.003 0 0 0-3.72 1.92v9.87h-3.15zm8.91 7.229a7.456 7.456 0 1 1 14.91 0c0 4.17-2.82 7.62-7.47 7.62a7.26 7.26 0 0 1-7.44-7.62zm11.64 0c0-2.55-1.5-4.8-4.2-4.8-2.67 0-4.17 2.25-4.17 4.8 0 2.58 1.5 4.83 4.17 4.83 2.7 0 4.2-2.25 4.2-4.83zm15.629 5.34a6.944 6.944 0 0 1-5.13 2.28c-3.12 0-4.65-1.62-4.65-4.59v-10.26h3.15v9.12c0 2.25 1.14 2.94 2.91 2.94a4.82 4.82 0 0 0 3.72-1.89v-10.17h3.15v14.49h-3.15zm16.41-7.139c0-2.25-1.14-3-2.91-3a4.768 4.768 0 0 0-3.72 1.95v10.109h-3.15v-14.49h3.15v1.98a6.854 6.854 0 0 1 5.1-2.34c3.12 0 4.68 1.68 4.68 4.65v10.2h-3.15zm16.829 7.079a5.867 5.867 0 0 1-4.65 2.34c-3.72 0-6.45-2.82-6.45-7.59 0-4.68 2.7-7.62 6.45-7.62a5.813 5.813 0 0 1 4.65 2.37v-7.53h3.15v20.01h-3.15zm0-8.13a4.76 4.76 0 0 0-3.75-1.95c-2.489 0-4.079 2.01-4.079 4.83 0 2.79 1.59 4.8 4.08 4.8a4.735 4.735 0 0 0 3.75-1.92zm20.19-4.739c4.35 0 7.14 3.33 7.14 7.89v.75h-11.19a4.39 4.39 0 0 0 4.62 3.99 6.135 6.135 0 0 0 4.11-1.59l1.44 2.07a8.444 8.444 0 0 1-5.88 2.1 7.607 7.607 0 0 1-.24-15.21zm-4.08 6.42h8.16a3.875 3.875 0 0 0-4.08-3.84 3.996 3.996 0 0 0-4.08 3.84z" class="cls-9"/><path d="M452.994 163.673l-3.78 5.34h-3.51l5.31-7.44-5.01-7.049h3.54l3.45 4.92 3.42-4.92h3.54l-5.01 7.05 5.34 7.44h-3.54zm8.881 10.86v-20.01h3.15v1.98a5.782 5.782 0 0 1 4.65-2.34c3.75 0 6.42 2.82 6.42 7.59s-2.67 7.62-6.42 7.62a5.69 5.69 0 0 1-4.65-2.37v7.53zm6.87-17.58a4.702 4.702 0 0 0-3.72 1.95v5.73a4.79 4.79 0 0 0 3.72 1.95c2.49 0 4.08-2.01 4.08-4.83 0-2.79-1.59-4.8-4.08-4.8zm18.779 10.5a6.117 6.117 0 0 1-4.68 1.92 4.813 4.813 0 0 1-5.04-4.8c0-3.33 2.67-4.71 5.04-4.71a5.988 5.988 0 0 1 4.68 1.86v-2.16c0-1.68-1.38-2.7-3.39-2.7a5.934 5.934 0 0 0-4.29 1.83l-1.29-2.189a8.616 8.616 0 0 1 6.09-2.34c3.21 0 6.03 1.35 6.03 5.25v9.6h-3.15zm0-3.93a4.241 4.241 0 0 0-3.45-1.5c-1.77 0-3.09 1.02-3.09 2.61 0 1.56 1.32 2.58 3.09 2.58a4.243 4.243 0 0 0 3.45-1.5zm16.41-3.569c0-2.25-1.14-3-2.91-3a4.771 4.771 0 0 0-3.72 1.95v10.109h-3.15v-14.49h3.15v1.98a6.856 6.856 0 0 1 5.1-2.34c3.12 0 4.68 1.68 4.68 4.65v10.2h-3.15zm16.829 7.079a5.867 5.867 0 0 1-4.65 2.34c-3.72 0-6.45-2.82-6.45-7.59 0-4.68 2.7-7.62 6.45-7.62a5.813 5.813 0 0 1 4.65 2.37v-7.53h3.15v20.01h-3.15zm0-8.13a4.76 4.76 0 0 0-3.75-1.95c-2.49 0-4.08 2.01-4.08 4.83 0 2.79 1.59 4.8 4.08 4.8a4.735 4.735 0 0 0 3.75-1.92zm6.81 5.94a7.48 7.48 0 0 0 4.92 2.04c1.89 0 2.85-.69 2.85-1.77 0-1.26-1.53-1.71-3.3-2.1-2.49-.54-5.46-1.2-5.46-4.44 0-2.37 2.04-4.41 5.7-4.41a8.282 8.282 0 0 1 5.64 2.04l-1.32 2.22a5.843 5.843 0 0 0-4.29-1.74c-1.65 0-2.7.6-2.7 1.62 0 1.11 1.44 1.5 3.15 1.89 2.52.54 5.61 1.26 5.61 4.68 0 2.55-2.13 4.5-6.03 4.5a8.81 8.81 0 0 1-6.209-2.25zm-327.653 32.91a7.456 7.456 0 1 1 14.91 0c0 4.17-2.82 7.62-7.47 7.62a7.26 7.26 0 0 1-7.44-7.62zm11.64 0c0-2.55-1.5-4.8-4.2-4.8-2.67 0-4.17 2.25-4.17 4.8 0 2.58 1.5 4.83 4.17 4.83 2.7 0 4.2-2.25 4.2-4.83zm15.629-1.799c0-2.25-1.14-3-2.91-3a4.768 4.768 0 0 0-3.72 1.95v10.109h-3.15v-14.49h3.15v1.98a6.855 6.855 0 0 1 5.1-2.34c3.12 0 4.68 1.68 4.68 4.65v10.2h-3.15zm7.261 5.699v-8.37h-2.4v-2.76h2.4v-3.96h3.15v3.96h2.94v2.76h-2.94v7.59c0 .99.48 1.71 1.38 1.71a2.034 2.034 0 0 0 1.41-.51l.75 2.37a4.154 4.154 0 0 1-2.97.93c-2.43 0-3.72-1.32-3.72-3.72zm7.44-3.9a7.456 7.456 0 1 1 14.908 0c0 4.17-2.82 7.62-7.47 7.62a7.26 7.26 0 0 1-7.439-7.62zm11.638 0c0-2.55-1.5-4.8-4.2-4.8-2.67 0-4.17 2.25-4.17 4.8 0 2.58 1.5 4.83 4.17 4.83 2.7 0 4.2-2.25 4.2-4.83zm23.16 5.28a5.867 5.867 0 0 1-4.65 2.34c-3.72 0-6.45-2.82-6.45-7.59 0-4.68 2.7-7.62 6.45-7.62a5.813 5.813 0 0 1 4.65 2.37v-7.53h3.15v20.01h-3.15zm0-8.13a4.759 4.759 0 0 0-3.75-1.95c-2.49 0-4.08 2.01-4.08 4.83 0 2.79 1.59 4.8 4.08 4.8a4.734 4.734 0 0 0 3.75-1.92zm15.48 8.55a6.117 6.117 0 0 1-4.68 1.92 4.813 4.813 0 0 1-5.04-4.8c0-3.33 2.67-4.71 5.04-4.71a5.99 5.99 0 0 1 4.68 1.86v-2.16c0-1.68-1.38-2.7-3.39-2.7a5.934 5.934 0 0 0-4.29 1.83l-1.29-2.189a8.615 8.615 0 0 1 6.09-2.34c3.21 0 6.03 1.35 6.03 5.25v9.6h-3.15zm0-3.93a4.241 4.241 0 0 0-3.45-1.5c-1.77 0-3.09 1.02-3.09 2.61 0 1.56 1.32 2.58 3.09 2.58a4.243 4.243 0 0 0 3.45-1.5zm6.63-8.999h3.15v2.13a6.187 6.187 0 0 1 4.71-2.46v3.12a4.67 4.67 0 0 0-.99-.09 5.003 5.003 0 0 0-3.72 1.92v9.87h-3.15zm14.97 8.519l-2.01 2.07v3.9h-3.15v-20.01h3.15v12.51l6.39-6.99h3.9l-6.03 6.57 6.149 7.92h-3.96zm16.229-1.29a7.456 7.456 0 1 1 14.91 0c0 4.17-2.82 7.62-7.47 7.62a7.26 7.26 0 0 1-7.44-7.62zm11.64 0c0-2.55-1.5-4.8-4.2-4.8-2.67 0-4.17 2.25-4.17 4.8 0 2.58 1.5 4.83 4.17 4.83 2.7 0 4.2-2.25 4.2-4.83zm5.85-12.749h3.15v7.53a5.73 5.73 0 0 1 4.65-2.37c3.72 0 6.42 2.94 6.42 7.62 0 4.77-2.73 7.59-6.42 7.59a5.824 5.824 0 0 1-4.65-2.34v1.98h-3.15zm6.87 17.58c2.52 0 4.11-1.98 4.11-4.8s-1.59-4.83-4.11-4.83a4.728 4.728 0 0 0-3.72 1.98v5.73a4.677 4.677 0 0 0 3.72 1.92zm13.11 3.269c0 3.09-1.62 5.04-4.8 5.04a8.061 8.061 0 0 1-1.62-.15l.33-2.61a4.353 4.353 0 0 0 .9.09c1.14 0 2.04-.66 2.04-2.37v-15.33h3.15zm-3.54-19.68a1.95 1.95 0 1 1 1.95 1.95 1.965 1.965 0 0 1-1.95-1.95zm13.47 3.991c4.35 0 7.14 3.33 7.14 7.89v.75h-11.19a4.388 4.388 0 0 0 4.62 3.99 6.132 6.132 0 0 0 4.11-1.59l1.44 2.07a8.446 8.446 0 0 1-5.88 2.1 7.607 7.607 0 0 1-.24-15.21zm-4.08 6.42h8.16a3.876 3.876 0 0 0-4.08-3.84 3.997 3.997 0 0 0-4.08 3.84zm20.339-6.42a6.496 6.496 0 0 1 5.55 2.58l-2.07 1.92a3.868 3.868 0 0 0-3.33-1.71c-2.64 0-4.38 1.98-4.38 4.8s1.74 4.83 4.38 4.83a3.94 3.94 0 0 0 3.33-1.71l2.07 1.92a6.495 6.495 0 0 1-5.55 2.58 7.606 7.606 0 0 1 0-15.21zm8.34 11.489v-8.37h-2.4v-2.76h2.4v-3.96h3.15v3.96h2.94v2.76h-2.94v7.59c0 .99.48 1.71 1.38 1.71a2.031 2.031 0 0 0 1.41-.51l.75 2.37a4.154 4.154 0 0 1-2.97.93c-2.43 0-3.72-1.32-3.72-3.72z" class="cls-9"/><path d="M200.91 149.004h3.51v16.92h8.82v3.09h-12.33zm14.43 1.17a1.95 1.95 0 1 1 1.95 1.95 1.965 1.965 0 0 1-1.95-1.95zm.39 4.35h3.15v14.49h-3.15zm7.92 15.929a5.616 5.616 0 0 0 4.59 1.86c2.07 0 4.29-.96 4.29-3.93v-1.74a5.88 5.88 0 0 1-4.65 2.4c-3.69 0-6.42-2.67-6.42-7.44 0-4.68 2.7-7.44 6.42-7.44a5.771 5.771 0 0 1 4.65 2.37v-2.01h3.15v13.74c0 5.22-3.87 6.63-7.44 6.63a8.177 8.177 0 0 1-6.06-2.16zm8.88-11.55a4.702 4.702 0 0 0-3.72-1.95c-2.49 0-4.08 1.86-4.08 4.65s1.59 4.65 4.08 4.65a4.702 4.702 0 0 0 3.72-1.95zm16.439.991c0-2.25-1.17-2.94-2.94-2.94a4.868 4.868 0 0 0-3.72 1.95v10.109h-3.15v-20.01h3.15v7.5a6.925 6.925 0 0 1 5.13-2.34c3.12 0 4.68 1.62 4.68 4.59v10.26h-3.15zm7.26 5.759v-8.37h-2.4v-2.76h2.4v-3.96h3.15v3.96h2.94v2.76h-2.94v7.59c0 .99.48 1.71 1.38 1.71a2.034 2.034 0 0 0 1.41-.51l.75 2.37a4.156 4.156 0 0 1-2.97.93c-2.43 0-3.72-1.32-3.72-3.72zm15.449-16.649h3.15v7.53a5.73 5.73 0 0 1 4.65-2.37c3.72 0 6.42 2.94 6.42 7.62 0 4.77-2.73 7.59-6.42 7.59a5.824 5.824 0 0 1-4.65-2.34v1.98h-3.15zm6.87 17.58c2.52 0 4.11-1.98 4.11-4.8s-1.59-4.83-4.11-4.83a4.728 4.728 0 0 0-3.72 1.98v5.73a4.677 4.677 0 0 0 3.72 1.92zm18.81.869a6.117 6.117 0 0 1-4.68 1.92 4.813 4.813 0 0 1-5.04-4.8c0-3.33 2.67-4.71 5.04-4.71a5.99 5.99 0 0 1 4.68 1.86v-2.16c0-1.68-1.38-2.7-3.39-2.7a5.934 5.934 0 0 0-4.29 1.83l-1.29-2.189a8.616 8.616 0 0 1 6.09-2.34c3.21 0 6.03 1.35 6.03 5.25v9.6h-3.15zm0-3.93a4.24 4.24 0 0 0-3.45-1.5c-1.77 0-3.09 1.02-3.09 2.61 0 1.56 1.32 2.58 3.09 2.58a4.242 4.242 0 0 0 3.45-1.5zm13.229-9.359a6.498 6.498 0 0 1 5.55 2.58l-2.07 1.92a3.867 3.867 0 0 0-3.33-1.71c-2.64 0-4.38 1.98-4.38 4.8s1.74 4.83 4.38 4.83a3.94 3.94 0 0 0 3.33-1.71l2.07 1.92a6.497 6.497 0 0 1-5.55 2.58 7.606 7.606 0 0 1 0-15.21zm12.87 8.879l-2.01 2.07v3.9h-3.15v-20.01h3.15v12.51l6.39-6.99h3.9l-6.03 6.57 6.15 7.92h-3.96zm10.561 7.41a5.617 5.617 0 0 0 4.59 1.86c2.07 0 4.29-.96 4.29-3.93v-1.74a5.88 5.88 0 0 1-4.65 2.4c-3.69 0-6.42-2.67-6.42-7.44 0-4.68 2.7-7.44 6.42-7.44a5.771 5.771 0 0 1 4.65 2.37v-2.01h3.15v13.74c0 5.22-3.87 6.63-7.44 6.63a8.178 8.178 0 0 1-6.06-2.16zm8.879-11.55a4.702 4.702 0 0 0-3.72-1.95c-2.49 0-4.08 1.86-4.08 4.65s1.59 4.65 4.08 4.65a4.702 4.702 0 0 0 3.72-1.95zm6.63-4.379h3.15v2.13a6.187 6.187 0 0 1 4.71-2.46v3.12a4.67 4.67 0 0 0-.99-.09 5.003 5.003 0 0 0-3.72 1.92v9.87h-3.15zm8.91 7.229a7.456 7.456 0 1 1 14.91 0c0 4.17-2.82 7.62-7.47 7.62a7.26 7.26 0 0 1-7.44-7.62zm11.64 0c0-2.55-1.5-4.8-4.2-4.8-2.67 0-4.17 2.25-4.17 4.8 0 2.58 1.5 4.83 4.17 4.83 2.7 0 4.2-2.25 4.2-4.83zm15.629 5.34a6.944 6.944 0 0 1-5.13 2.28c-3.12 0-4.65-1.62-4.65-4.59v-10.26h3.15v9.12c0 2.25 1.14 2.94 2.91 2.94a4.82 4.82 0 0 0 3.72-1.89v-10.17h3.15v14.49h-3.15zm16.41-7.139c0-2.25-1.14-3-2.91-3a4.768 4.768 0 0 0-3.72 1.95v10.109h-3.15v-14.49h3.15v1.98a6.854 6.854 0 0 1 5.1-2.34c3.12 0 4.68 1.68 4.68 4.65v10.2h-3.15zm16.829 7.079a5.867 5.867 0 0 1-4.65 2.34c-3.72 0-6.45-2.82-6.45-7.59 0-4.68 2.7-7.62 6.45-7.62a5.813 5.813 0 0 1 4.65 2.37v-7.53h3.15v20.01h-3.15zm0-8.13a4.76 4.76 0 0 0-3.75-1.95c-2.489 0-4.079 2.01-4.079 4.83 0 2.79 1.59 4.8 4.08 4.8a4.735 4.735 0 0 0 3.75-1.92zm20.19-4.739c4.35 0 7.14 3.33 7.14 7.89v.75h-11.19a4.39 4.39 0 0 0 4.62 3.99 6.135 6.135 0 0 0 4.11-1.59l1.44 2.07a8.444 8.444 0 0 1-5.88 2.1 7.607 7.607 0 0 1-.24-15.21zm-4.08 6.42h8.16a3.875 3.875 0 0 0-4.08-3.84 3.996 3.996 0 0 0-4.08 3.84z" class="cls-8"/><path d="M452.994 163.673l-3.78 5.34h-3.51l5.31-7.44-5.01-7.049h3.54l3.45 4.92 3.42-4.92h3.54l-5.01 7.05 5.34 7.44h-3.54zm8.881 10.86v-20.01h3.15v1.98a5.782 5.782 0 0 1 4.65-2.34c3.75 0 6.42 2.82 6.42 7.59s-2.67 7.62-6.42 7.62a5.69 5.69 0 0 1-4.65-2.37v7.53zm6.87-17.58a4.702 4.702 0 0 0-3.72 1.95v5.73a4.79 4.79 0 0 0 3.72 1.95c2.49 0 4.08-2.01 4.08-4.83 0-2.79-1.59-4.8-4.08-4.8zm18.779 10.5a6.117 6.117 0 0 1-4.68 1.92 4.813 4.813 0 0 1-5.04-4.8c0-3.33 2.67-4.71 5.04-4.71a5.988 5.988 0 0 1 4.68 1.86v-2.16c0-1.68-1.38-2.7-3.39-2.7a5.934 5.934 0 0 0-4.29 1.83l-1.29-2.189a8.616 8.616 0 0 1 6.09-2.34c3.21 0 6.03 1.35 6.03 5.25v9.6h-3.15zm0-3.93a4.241 4.241 0 0 0-3.45-1.5c-1.77 0-3.09 1.02-3.09 2.61 0 1.56 1.32 2.58 3.09 2.58a4.243 4.243 0 0 0 3.45-1.5zm16.41-3.569c0-2.25-1.14-3-2.91-3a4.771 4.771 0 0 0-3.72 1.95v10.109h-3.15v-14.49h3.15v1.98a6.856 6.856 0 0 1 5.1-2.34c3.12 0 4.68 1.68 4.68 4.65v10.2h-3.15zm16.829 7.079a5.867 5.867 0 0 1-4.65 2.34c-3.72 0-6.45-2.82-6.45-7.59 0-4.68 2.7-7.62 6.45-7.62a5.813 5.813 0 0 1 4.65 2.37v-7.53h3.15v20.01h-3.15zm0-8.13a4.76 4.76 0 0 0-3.75-1.95c-2.49 0-4.08 2.01-4.08 4.83 0 2.79 1.59 4.8 4.08 4.8a4.735 4.735 0 0 0 3.75-1.92zm6.81 5.94a7.48 7.48 0 0 0 4.92 2.04c1.89 0 2.85-.69 2.85-1.77 0-1.26-1.53-1.71-3.3-2.1-2.49-.54-5.46-1.2-5.46-4.44 0-2.37 2.04-4.41 5.7-4.41a8.282 8.282 0 0 1 5.64 2.04l-1.32 2.22a5.843 5.843 0 0 0-4.29-1.74c-1.65 0-2.7.6-2.7 1.62 0 1.11 1.44 1.5 3.15 1.89 2.52.54 5.61 1.26 5.61 4.68 0 2.55-2.13 4.5-6.03 4.5a8.81 8.81 0 0 1-6.209-2.25zm-327.653 32.91a7.456 7.456 0 1 1 14.91 0c0 4.17-2.82 7.62-7.47 7.62a7.26 7.26 0 0 1-7.44-7.62zm11.64 0c0-2.55-1.5-4.8-4.2-4.8-2.67 0-4.17 2.25-4.17 4.8 0 2.58 1.5 4.83 4.17 4.83 2.7 0 4.2-2.25 4.2-4.83zm15.629-1.799c0-2.25-1.14-3-2.91-3a4.768 4.768 0 0 0-3.72 1.95v10.109h-3.15v-14.49h3.15v1.98a6.855 6.855 0 0 1 5.1-2.34c3.12 0 4.68 1.68 4.68 4.65v10.2h-3.15zm7.261 5.699v-8.37h-2.4v-2.76h2.4v-3.96h3.15v3.96h2.94v2.76h-2.94v7.59c0 .99.48 1.71 1.38 1.71a2.034 2.034 0 0 0 1.41-.51l.75 2.37a4.154 4.154 0 0 1-2.97.93c-2.43 0-3.72-1.32-3.72-3.72zm7.44-3.9a7.456 7.456 0 1 1 14.908 0c0 4.17-2.82 7.62-7.47 7.62a7.26 7.26 0 0 1-7.439-7.62zm11.638 0c0-2.55-1.5-4.8-4.2-4.8-2.67 0-4.17 2.25-4.17 4.8 0 2.58 1.5 4.83 4.17 4.83 2.7 0 4.2-2.25 4.2-4.83zm23.16 5.28a5.867 5.867 0 0 1-4.65 2.34c-3.72 0-6.45-2.82-6.45-7.59 0-4.68 2.7-7.62 6.45-7.62a5.813 5.813 0 0 1 4.65 2.37v-7.53h3.15v20.01h-3.15zm0-8.13a4.759 4.759 0 0 0-3.75-1.95c-2.49 0-4.08 2.01-4.08 4.83 0 2.79 1.59 4.8 4.08 4.8a4.734 4.734 0 0 0 3.75-1.92zm15.48 8.55a6.117 6.117 0 0 1-4.68 1.92 4.813 4.813 0 0 1-5.04-4.8c0-3.33 2.67-4.71 5.04-4.71a5.99 5.99 0 0 1 4.68 1.86v-2.16c0-1.68-1.38-2.7-3.39-2.7a5.934 5.934 0 0 0-4.29 1.83l-1.29-2.189a8.615 8.615 0 0 1 6.09-2.34c3.21 0 6.03 1.35 6.03 5.25v9.6h-3.15zm0-3.93a4.241 4.241 0 0 0-3.45-1.5c-1.77 0-3.09 1.02-3.09 2.61 0 1.56 1.32 2.58 3.09 2.58a4.243 4.243 0 0 0 3.45-1.5zm6.63-8.999h3.15v2.13a6.187 6.187 0 0 1 4.71-2.46v3.12a4.67 4.67 0 0 0-.99-.09 5.003 5.003 0 0 0-3.72 1.92v9.87h-3.15zm14.97 8.519l-2.01 2.07v3.9h-3.15v-20.01h3.15v12.51l6.39-6.99h3.9l-6.03 6.57 6.149 7.92h-3.96zm16.229-1.29a7.456 7.456 0 1 1 14.91 0c0 4.17-2.82 7.62-7.47 7.62a7.26 7.26 0 0 1-7.44-7.62zm11.64 0c0-2.55-1.5-4.8-4.2-4.8-2.67 0-4.17 2.25-4.17 4.8 0 2.58 1.5 4.83 4.17 4.83 2.7 0 4.2-2.25 4.2-4.83zm5.85-12.749h3.15v7.53a5.73 5.73 0 0 1 4.65-2.37c3.72 0 6.42 2.94 6.42 7.62 0 4.77-2.73 7.59-6.42 7.59a5.824 5.824 0 0 1-4.65-2.34v1.98h-3.15zm6.87 17.58c2.52 0 4.11-1.98 4.11-4.8s-1.59-4.83-4.11-4.83a4.728 4.728 0 0 0-3.72 1.98v5.73a4.677 4.677 0 0 0 3.72 1.92zm13.11 3.269c0 3.09-1.62 5.04-4.8 5.04a8.061 8.061 0 0 1-1.62-.15l.33-2.61a4.353 4.353 0 0 0 .9.09c1.14 0 2.04-.66 2.04-2.37v-15.33h3.15zm-3.54-19.68a1.95 1.95 0 1 1 1.95 1.95 1.965 1.965 0 0 1-1.95-1.95zm13.47 3.991c4.35 0 7.14 3.33 7.14 7.89v.75h-11.19a4.388 4.388 0 0 0 4.62 3.99 6.132 6.132 0 0 0 4.11-1.59l1.44 2.07a8.446 8.446 0 0 1-5.88 2.1 7.607 7.607 0 0 1-.24-15.21zm-4.08 6.42h8.16a3.876 3.876 0 0 0-4.08-3.84 3.997 3.997 0 0 0-4.08 3.84zm20.339-6.42a6.496 6.496 0 0 1 5.55 2.58l-2.07 1.92a3.868 3.868 0 0 0-3.33-1.71c-2.64 0-4.38 1.98-4.38 4.8s1.74 4.83 4.38 4.83a3.94 3.94 0 0 0 3.33-1.71l2.07 1.92a6.495 6.495 0 0 1-5.55 2.58 7.606 7.606 0 0 1 0-15.21zm8.34 11.489v-8.37h-2.4v-2.76h2.4v-3.96h3.15v3.96h2.94v2.76h-2.94v7.59c0 .99.48 1.71 1.38 1.71a2.031 2.031 0 0 0 1.41-.51l.75 2.37a4.154 4.154 0 0 1-2.97.93c-2.43 0-3.72-1.32-3.72-3.72z" class="cls-8"/><path d="M81.26 506.147v11.05H78.6v-15.165h2.728l7.753 10.754v-10.754h2.66v15.165h-2.57zm12.504 5.548a5.651 5.651 0 1 1 5.639 5.775 5.497 5.497 0 0 1-5.639-5.775zm8.822 0c0-1.933-1.137-3.638-3.183-3.638-2.024 0-3.16 1.705-3.16 3.638 0 1.955 1.137 3.66 3.16 3.66 2.046 0 3.183-1.705 3.183-3.66zm14.824-5.752a4.924 4.924 0 0 1 4.206 1.955l-1.569 1.455a2.931 2.931 0 0 0-2.523-1.296 3.315 3.315 0 0 0-3.32 3.638c0 2.137 1.319 3.66 3.32 3.66a2.985 2.985 0 0 0 2.523-1.296l1.57 1.455a4.924 4.924 0 0 1-4.207 1.956 5.764 5.764 0 0 1 0-11.527zm5.16 5.752a5.651 5.651 0 1 1 5.64 5.775 5.497 5.497 0 0 1-5.64-5.775zm8.823 0c0-1.933-1.138-3.638-3.183-3.638-2.024 0-3.16 1.705-3.16 3.638 0 1.955 1.136 3.66 3.16 3.66 2.045 0 3.183-1.705 3.183-3.66zm4.433-9.663h2.387v15.165h-2.387zm4.342 9.663a5.651 5.651 0 1 1 5.64 5.775 5.497 5.497 0 0 1-5.64-5.775zm8.822 0c0-1.933-1.137-3.638-3.183-3.638-2.023 0-3.16 1.705-3.16 3.638 0 1.955 1.137 3.66 3.16 3.66 2.046 0 3.183-1.705 3.183-3.66zm11.845 4.047a5.264 5.264 0 0 1-3.888 1.728c-2.364 0-3.524-1.228-3.524-3.479v-7.776h2.387v6.912c0 1.705.865 2.228 2.206 2.228a3.652 3.652 0 0 0 2.82-1.432v-7.708h2.387v10.982h-2.388zm5.025-9.527h2.387v1.615a4.69 4.69 0 0 1 3.57-1.864v2.364a3.493 3.493 0 0 0-.75-.068 3.792 3.792 0 0 0-2.82 1.455v7.48h-2.387zm7.571 7.822a5.668 5.668 0 0 0 3.729 1.545c1.432 0 2.16-.522 2.16-1.34 0-.956-1.16-1.297-2.501-1.593-1.887-.409-4.138-.909-4.138-3.364 0-1.796 1.546-3.342 4.32-3.342a6.278 6.278 0 0 1 4.274 1.546l-1 1.682a4.43 4.43 0 0 0-3.251-1.319c-1.25 0-2.046.455-2.046 1.228 0 .841 1.091 1.137 2.387 1.433 1.91.409 4.252.954 4.252 3.546 0 1.933-1.615 3.41-4.57 3.41a6.68 6.68 0 0 1-4.706-1.705zm-95.195 12.166a1.478 1.478 0 1 1 1.477 1.477 1.49 1.49 0 0 1-1.477-1.477zm.295 3.296h2.387v10.981h-2.387zm12.437 4.115c0-1.705-.865-2.273-2.206-2.273a3.616 3.616 0 0 0-2.82 1.477v7.662h-2.386v-10.981h2.387V531a5.196 5.196 0 0 1 3.865-1.773c2.364 0 3.547 1.273 3.547 3.524v7.73h-2.387zm15.414-4.387a4.924 4.924 0 0 1 4.206 1.955l-1.568 1.455a2.931 2.931 0 0 0-2.524-1.296 3.315 3.315 0 0 0-3.32 3.638c0 2.137 1.32 3.66 3.32 3.66a2.985 2.985 0 0 0 2.524-1.296l1.568 1.455a4.924 4.924 0 0 1-4.206 1.955 5.764 5.764 0 0 1 0-11.526zm5.161 5.752a5.651 5.651 0 1 1 5.64 5.774 5.497 5.497 0 0 1-5.64-5.774zm8.822 0c0-1.933-1.137-3.638-3.183-3.638-2.023 0-3.16 1.705-3.16 3.638 0 1.955 1.137 3.66 3.16 3.66 2.046 0 3.183-1.705 3.183-3.66zm17.893-1.66c0-1.182-.523-1.978-1.796-1.978a3.331 3.331 0 0 0-2.546 1.455v7.684h-2.387v-7.162c0-1.182-.523-1.978-1.819-1.978a3.323 3.323 0 0 0-2.524 1.478v7.662H124.8v-10.981h2.387V531a4.745 4.745 0 0 1 3.57-1.773 2.86 2.86 0 0 1 3.001 2.023 4.657 4.657 0 0 1 3.729-2.023c2.023 0 3.16 1.091 3.16 3.32v7.933h-2.388zm18.485 0c0-1.182-.523-1.978-1.796-1.978a3.331 3.331 0 0 0-2.547 1.455v7.684h-2.387v-7.162c0-1.182-.523-1.978-1.819-1.978a3.323 3.323 0 0 0-2.523 1.478v7.662h-2.388v-10.981h2.387V531a4.745 4.745 0 0 1 3.57-1.773 2.86 2.86 0 0 1 3.001 2.023 4.657 4.657 0 0 1 3.728-2.023c2.024 0 3.16 1.091 3.16 3.32v7.933h-2.387zm4.342 1.66a5.651 5.651 0 1 1 5.64 5.774 5.497 5.497 0 0 1-5.64-5.774zm8.822 0c0-1.933-1.137-3.638-3.183-3.638-2.023 0-3.16 1.705-3.16 3.638 0 1.955 1.137 3.66 3.16 3.66 2.046 0 3.183-1.705 3.183-3.66zm11.846-1.365c0-1.705-.864-2.273-2.206-2.273a3.616 3.616 0 0 0-2.819 1.477v7.662h-2.387v-10.981h2.387V531a5.196 5.196 0 0 1 3.865-1.773c2.365 0 3.547 1.273 3.547 3.524v7.73h-2.387z" class="cls-10"/><path d="M81.26 506.147v11.05H78.6v-15.165h2.728l7.753 10.754v-10.754h2.66v15.165h-2.57zm12.504 5.548a5.651 5.651 0 1 1 5.639 5.775 5.497 5.497 0 0 1-5.639-5.775zm8.822 0c0-1.933-1.137-3.638-3.183-3.638-2.024 0-3.16 1.705-3.16 3.638 0 1.955 1.137 3.66 3.16 3.66 2.046 0 3.183-1.705 3.183-3.66zm14.824-5.752a4.924 4.924 0 0 1 4.206 1.955l-1.569 1.455a2.931 2.931 0 0 0-2.523-1.296 3.315 3.315 0 0 0-3.32 3.638c0 2.137 1.319 3.66 3.32 3.66a2.985 2.985 0 0 0 2.523-1.296l1.57 1.455a4.924 4.924 0 0 1-4.207 1.956 5.764 5.764 0 0 1 0-11.527zm5.16 5.752a5.651 5.651 0 1 1 5.64 5.775 5.497 5.497 0 0 1-5.64-5.775zm8.823 0c0-1.933-1.138-3.638-3.183-3.638-2.024 0-3.16 1.705-3.16 3.638 0 1.955 1.136 3.66 3.16 3.66 2.045 0 3.183-1.705 3.183-3.66zm4.433-9.663h2.387v15.165h-2.387zm4.342 9.663a5.651 5.651 0 1 1 5.64 5.775 5.497 5.497 0 0 1-5.64-5.775zm8.822 0c0-1.933-1.137-3.638-3.183-3.638-2.023 0-3.16 1.705-3.16 3.638 0 1.955 1.137 3.66 3.16 3.66 2.046 0 3.183-1.705 3.183-3.66zm11.845 4.047a5.264 5.264 0 0 1-3.888 1.728c-2.364 0-3.524-1.228-3.524-3.479v-7.776h2.387v6.912c0 1.705.865 2.228 2.206 2.228a3.652 3.652 0 0 0 2.82-1.432v-7.708h2.387v10.982h-2.388zm5.025-9.527h2.387v1.615a4.69 4.69 0 0 1 3.57-1.864v2.364a3.493 3.493 0 0 0-.75-.068 3.792 3.792 0 0 0-2.82 1.455v7.48h-2.387zm7.571 7.822a5.668 5.668 0 0 0 3.729 1.545c1.432 0 2.16-.522 2.16-1.34 0-.956-1.16-1.297-2.501-1.593-1.887-.409-4.138-.909-4.138-3.364 0-1.796 1.546-3.342 4.32-3.342a6.278 6.278 0 0 1 4.274 1.546l-1 1.682a4.43 4.43 0 0 0-3.251-1.319c-1.25 0-2.046.455-2.046 1.228 0 .841 1.091 1.137 2.387 1.433 1.91.409 4.252.954 4.252 3.546 0 1.933-1.615 3.41-4.57 3.41a6.68 6.68 0 0 1-4.706-1.705zm-95.195 12.166a1.478 1.478 0 1 1 1.477 1.477 1.49 1.49 0 0 1-1.477-1.477zm.295 3.296h2.387v10.981h-2.387zm12.437 4.115c0-1.705-.865-2.273-2.206-2.273a3.616 3.616 0 0 0-2.82 1.477v7.662h-2.386v-10.981h2.387V531a5.196 5.196 0 0 1 3.865-1.773c2.364 0 3.547 1.273 3.547 3.524v7.73h-2.387zm15.414-4.387a4.924 4.924 0 0 1 4.206 1.955l-1.568 1.455a2.931 2.931 0 0 0-2.524-1.296 3.315 3.315 0 0 0-3.32 3.638c0 2.137 1.32 3.66 3.32 3.66a2.985 2.985 0 0 0 2.524-1.296l1.568 1.455a4.924 4.924 0 0 1-4.206 1.955 5.764 5.764 0 0 1 0-11.526zm5.161 5.752a5.651 5.651 0 1 1 5.64 5.774 5.497 5.497 0 0 1-5.64-5.774zm8.822 0c0-1.933-1.137-3.638-3.183-3.638-2.023 0-3.16 1.705-3.16 3.638 0 1.955 1.137 3.66 3.16 3.66 2.046 0 3.183-1.705 3.183-3.66zm17.893-1.66c0-1.182-.523-1.978-1.796-1.978a3.331 3.331 0 0 0-2.546 1.455v7.684h-2.387v-7.162c0-1.182-.523-1.978-1.819-1.978a3.323 3.323 0 0 0-2.524 1.478v7.662H124.8v-10.981h2.387V531a4.745 4.745 0 0 1 3.57-1.773 2.86 2.86 0 0 1 3.001 2.023 4.657 4.657 0 0 1 3.729-2.023c2.023 0 3.16 1.091 3.16 3.32v7.933h-2.388zm18.485 0c0-1.182-.523-1.978-1.796-1.978a3.331 3.331 0 0 0-2.547 1.455v7.684h-2.387v-7.162c0-1.182-.523-1.978-1.819-1.978a3.323 3.323 0 0 0-2.523 1.478v7.662h-2.388v-10.981h2.387V531a4.745 4.745 0 0 1 3.57-1.773 2.86 2.86 0 0 1 3.001 2.023 4.657 4.657 0 0 1 3.728-2.023c2.024 0 3.16 1.091 3.16 3.32v7.933h-2.387zm4.342 1.66a5.651 5.651 0 1 1 5.64 5.774 5.497 5.497 0 0 1-5.64-5.774zm8.822 0c0-1.933-1.137-3.638-3.183-3.638-2.023 0-3.16 1.705-3.16 3.638 0 1.955 1.137 3.66 3.16 3.66 2.046 0 3.183-1.705 3.183-3.66zm11.846-1.365c0-1.705-.864-2.273-2.206-2.273a3.616 3.616 0 0 0-2.819 1.477v7.662h-2.387v-10.981h2.387V531a5.196 5.196 0 0 1 3.865-1.773c2.365 0 3.547 1.273 3.547 3.524v7.73h-2.387z" class="cls-8"/><path d="M150.452 51.546a12.068 12.068 0 0 1 12.419-12.419 10.945 10.945 0 0 1 9.827 5.4l-3.6 1.835a7.205 7.205 0 0 0-6.228-3.492c-4.571 0-8.098 3.636-8.098 8.676s3.527 8.675 8.098 8.675a7.129 7.129 0 0 0 6.228-3.492l3.6 1.836a10.989 10.989 0 0 1-9.827 5.4 12.068 12.068 0 0 1-12.419-12.42zm36.574 1.044c0-2.7-1.403-3.528-3.527-3.528a5.841 5.841 0 0 0-4.464 2.34v12.13h-3.78V39.523h3.78v8.999a8.311 8.311 0 0 1 6.155-2.808c3.744 0 5.616 1.944 5.616 5.508v12.31h-3.78zm6.878 2.231c0-4.967 3.42-9.107 8.927-9.107 5.58 0 8.963 4.14 8.963 9.107 0 5.004-3.384 9.143-8.963 9.143-5.507 0-8.927-4.14-8.927-9.143zm13.966 0c0-3.06-1.8-5.759-5.039-5.759-3.204 0-5.003 2.7-5.003 5.76 0 3.095 1.8 5.795 5.003 5.795 3.239 0 5.039-2.7 5.039-5.796zm13.213 1.549l-2.412 2.483v4.68h-3.78v-24.01h3.78v15.01l7.667-8.386h4.68l-7.235 7.883 7.379 9.502h-4.752z" class="cls-7"/><path d="M239.946 45.714c5.22 0 8.567 3.996 8.567 9.467v.9h-13.426a5.266 5.266 0 0 0 5.543 4.788 7.36 7.36 0 0 0 4.932-1.908l1.728 2.483a10.134 10.134 0 0 1-7.056 2.52 8.74 8.74 0 0 1-9.107-9.143 8.787 8.787 0 0 1 8.82-9.107zm-4.895 7.703h9.79a4.65 4.65 0 0 0-4.895-4.607 4.796 4.796 0 0 0-4.895 4.607z" class="cls-7"/><path d="M150.452 51.546a12.068 12.068 0 0 1 12.419-12.419 10.945 10.945 0 0 1 9.827 5.4l-3.6 1.835a7.205 7.205 0 0 0-6.228-3.492c-4.571 0-8.098 3.636-8.098 8.676s3.527 8.675 8.098 8.675a7.129 7.129 0 0 0 6.228-3.492l3.6 1.836a10.989 10.989 0 0 1-9.827 5.4 12.068 12.068 0 0 1-12.419-12.42zm36.574 1.044c0-2.7-1.403-3.528-3.527-3.528a5.841 5.841 0 0 0-4.464 2.34v12.13h-3.78V39.523h3.78v8.999a8.311 8.311 0 0 1 6.155-2.808c3.744 0 5.616 1.944 5.616 5.508v12.31h-3.78zm6.878 2.231c0-4.967 3.42-9.107 8.927-9.107 5.58 0 8.963 4.14 8.963 9.107 0 5.004-3.384 9.143-8.963 9.143-5.507 0-8.927-4.14-8.927-9.143zm13.966 0c0-3.06-1.8-5.759-5.039-5.759-3.204 0-5.003 2.7-5.003 5.76 0 3.095 1.8 5.795 5.003 5.795 3.239 0 5.039-2.7 5.039-5.796zm13.213 1.549l-2.412 2.483v4.68h-3.78v-24.01h3.78v15.01l7.667-8.386h4.68l-7.235 7.883 7.379 9.502h-4.752z" class="cls-8"/><path d="M239.946 45.714c5.22 0 8.567 3.996 8.567 9.467v.9h-13.426a5.266 5.266 0 0 0 5.543 4.788 7.36 7.36 0 0 0 4.932-1.908l1.728 2.483a10.134 10.134 0 0 1-7.056 2.52 8.74 8.74 0 0 1-9.107-9.143 8.787 8.787 0 0 1 8.82-9.107zm-4.895 7.703h9.79a4.65 4.65 0 0 0-4.895-4.607 4.796 4.796 0 0 0-4.895 4.607z" class="cls-8"/><path d="M11.13 469.02h53.06v53.06H11.13z" class="cls-3"/><path d="M11.13 522.08h53.06v53.06H11.13z" class="cls-2"/><g id="Down_Arrow" class="cls-11"><g class="cls-11"><path d="M125.372 198.716l-19.004-44.484a.524.524 0 0 0-.99.075l-2.934 11.35a.524.524 0 0 1-.838.275l-53.601-43.684a.524.524 0 0 0-.733.742l44.343 53.058a.525.525 0 0 1-.264.842l-11.317 3.077a.524.524 0 0 0-.062.99l44.718 18.45a.524.524 0 0 0 .682-.69" class="cls-12"/></g></g><g id="Down_Arrow-2" class="cls-13"><g class="cls-13"><path d="M586.274 322.16l-19.005 44.483a.524.524 0 0 1-.99-.074l-2.933-11.35a.524.524 0 0 0-.839-.275l-53.6 43.684a.524.524 0 0 1-.734-.743l44.343-53.058a.525.525 0 0 0-.264-.842l-11.317-3.076a.524.524 0 0 1-.062-.99l44.719-18.45a.524.524 0 0 1 .682.69" class="cls-12"/></g></g><g class="cls-5"><g class="cls-14"><path d="M794.572 62.15c-34.037-5.684-73.062-.207-87.161 12.23-14.104 12.442 2.06 27.133 36.097 32.817 34.046 5.685 73.07.209 87.174-12.233 14.1-12.438-2.064-27.13-36.11-32.814" class="cls-3"/></g></g><g class="cls-5"><g class="cls-15"><path d="M743.508 81.25c-34.037-5.684-50.2-20.375-36.1-32.813 14.102-12.441 53.127-17.917 87.164-12.234 34.046 5.685 50.21 20.376 36.106 32.818-14.1 12.438-53.124 17.914-87.17 12.229m52.242-46.086c-35.609-5.946-76.432-.217-91.186 12.798-14.751 13.013 2.157 28.381 37.766 34.327s76.441.219 91.192-12.793c14.754-13.016-2.163-28.386-37.772-34.332" class="cls-4"/></g></g></svg>