<svg xmlns="http://www.w3.org/2000/svg" id="Layer_1" viewBox="0 0 2000 300" width="2000" height="300"><style>.st0{fill:#474747}.st1,.st2{fill:#fff;stroke:#474747;stroke-width:7.89;stroke-miterlimit:10}.st2{fill:none;stroke:#474748;stroke-width:9.86}.st3{stroke:#e6e6e5}.st3,.st4,.st5{fill:#fff;stroke-width:10.9;stroke-miterlimit:10}.st6,.st7,.st8{fill:#fff}.st6,.st7,.st8,.st9{stroke-miterlimit:10}.st4{stroke:#989898}.st5{stroke:#474747}.st6{stroke:#989898;stroke-width:4.58}.st7{stroke:#ccc;stroke-width:3.8}.st8{stroke:#474747;stroke-width:8.17}.st9{fill:none;stroke:#474748;stroke-width:10.21}.st10{fill:#fff;stroke-width:8.11;stroke-miterlimit:10}.st10,.st11,.st12{stroke:#474747}.st11,.st12,.st13,.st14{stroke-miterlimit:10}.st11,.st12{fill:#b4b4b4;stroke-width:11.6}.st12{fill:#fff}.st13,.st14{fill:#676767;stroke:#ccc;stroke-width:13.28}.st14{stroke:#989898;stroke-width:11.6}.st15{fill:#94c948}</style><path d="M193 68.6l-17.2-8.7V36.5h-31.2v4.3h-5.9v15.3h5.9v3.8l-17.2 8.7h-6.2v118.1h78V68.6H193zm-2.6 109.3H130V77.4h60.4v100.5zm-30.2-24.6c14.1 0 25.6-11.5 25.6-25.6S174.3 102 160.2 102s-25.6 11.5-25.6 25.6c0 14.2 11.4 25.6 25.6 25.7zm0-42.6c9.4 0 17 7.6 17 17s-7.6 17-17 17-17-7.6-17-17 7.6-17 17-17zm-44.1-52c-4.9 0-9-3.9-9-8.9s3.9-9 8.9-9c4.9 0 9 3.9 9 8.9v.1c0 4.9-4 8.8-8.9 8.9zm-17.3-9c0 4.9-4 8.9-8.9 8.9s-8.9-4-8.9-8.9 4-8.9 8.9-8.9 8.9 4 8.9 8.9zm-26.2 0c0 4.9-4 8.9-8.9 8.9s-8.9-4-8.9-8.9 4-8.9 8.9-8.9 8.9 4 8.9 8.9zm26.2 25.4c0 4.9-4 8.9-8.9 8.9S81 80 81 75.1s4-8.9 8.9-8.9 8.9 3.9 8.9 8.9zm-26.2 0c0 4.9-4 8.9-8.9 8.9s-8.9-4-8.9-8.9 4-8.9 8.9-8.9 8.9 3.9 8.9 8.9zm0 25.3c0 4.9-4 8.9-8.9 8.9s-8.9-4-8.9-8.9 4-8.9 8.9-8.9 8.9 3.9 8.9 8.9z" class="st0"/><circle cx="386.7" cy="121.5" r="28.4" class="st1"/><circle cx="386.7" cy="121.5" r="15.9" class="st1"/><path d="M303.2 76.9V43h34z" class="st0"/><path d="M320.2 60l27.6 27.6" class="st2"/><path d="M303.2 155.4v-33.9h34z" class="st0"/><path d="M320.2 138.5l47.5 47.5" class="st2"/><path d="M387.5 71.1V37.2h34z" class="st0"/><path d="M404.5 54.2l47.5 47.5" class="st2"/><path d="M1171.2 67.8c-20.9-20.9-53.7-24.1-78.2-7.7l-11.5-9.5-6.5 38.8 36.8-13.8-10.8-8.9c24.8-14.6 56.7-6.4 71.3 18.4 4.7 8 7.2 17.1 7.2 26.4h9.9c0-16.3-6.5-32.1-18.2-43.7zm13.2 66l-36.8 13.8 10.8 8.9c-24.8 14.6-56.7 6.4-71.3-18.4-4.7-8-7.2-17.1-7.2-26.4h-9.9c0 34.2 27.7 61.9 61.9 61.9 12.3 0 24.3-3.7 34.5-10.5l11.5 9.5 6.5-38.8z" class="st0"/><circle cx="1127.4" cy="111.6" r="28.4" class="st1"/><circle cx="1127.4" cy="111.6" r="15.8" class="st1"/><circle cx="1672.4" cy="107" r="39.2" class="st3"/><circle cx="1672.4" cy="107" r="21.9" class="st3"/><circle cx="1589.7" cy="81.7" r="39.2" class="st4"/><circle cx="1589.7" cy="81.7" r="21.9" class="st4"/><circle cx="1616.1" cy="141.5" r="39.2" class="st5"/><circle cx="1616.1" cy="141.5" r="21.9" class="st5"/><circle cx="830.4" cy="129.2" r="40.8" class="st6"/><circle cx="871.5" cy="136.2" r="33.8" class="st7"/><circle cx="900.6" cy="140.6" r="29.4" class="st8"/><circle cx="900.6" cy="140.6" r="16.4" class="st8"/><path d="M901.5 88.4V53.2h35.2z" class="st0"/><path d="M919.1 70.8l49.2 49.2" class="st9"/><path d="M630 85.8v-34h33.9z" class="st0"/><path d="M647 68.8l27.6 27.6" class="st2"/><path d="M623.5 85.8v-34h-33.9z" class="st0"/><path d="M606.5 68.8l-27.6 27.6" class="st2"/><circle cx="611.8" cy="143" r="28.4" class="st1"/><circle cx="611.8" cy="143" r="15.8" class="st1"/><circle cx="571.6" cy="130.3" r="28.4" class="st1"/><circle cx="571.6" cy="130.3" r="15.8" class="st1"/><circle cx="685" cy="130.3" r="28.4" class="st1"/><circle cx="685" cy="130.3" r="15.8" class="st1"/><path d="M1391.3 93.4c1.3-1.2 2.8-2.2 4.4-2.8a5 5 0 0 1 5 .7c2.3 2.1 1.2 5.8-.1 8.6l-10.9 24.4c7.6 2.9 15.5 4.9 23.5 5.8 1.7.3 3.4.2 5-.4 2.8-1.2 3.9-4.6 4.6-7.7 1.3-6 1.9-12.3.7-18.4s-4.5-11.9-9.7-15.2-12.5-3.6-17.4.2" class="st0"/><circle cx="1395.3" cy="156.7" r="29.2" class="st10"/><circle cx="1395.3" cy="156.7" r="16.3" class="st10"/><circle cx="1436.8" cy="127.5" r="29.2" class="st10"/><circle cx="1436.8" cy="127.5" r="16.3" class="st10"/><path d="M1353.4 49l-10.6 10.7 22.4 22.3-9.2 9.2-22.3-22.4-39 39 44.7 44.8 58.8-58.8z" class="st0"/><path d="M1320.6 37.2h13v31.6h-13z" class="st0" transform="rotate(-45.001 1327.088 53.064)"/><circle cx="1906.1" cy="84" r="41.8" class="st11"/><circle cx="1906.1" cy="84" r="23.3" class="st12"/><path d="M1844.9 112.8h68.2V181h-68.2z" class="st13"/><path d="M1815.5 86.5h46v46h-46z" class="st14"/><path d="M58.2 249.6c2.5 2.8 6.1 4.4 9.8 4.4 5.1 0 6.9-2.6 6.9-4.8 0-3.3-3.6-4.2-7.6-5.3-5-1.3-10.9-2.8-10.9-9.2 0-5.2 4.6-8.9 11.1-8.9 4.8 0 8.7 1.6 11.4 4.4l-2.7 3.5c-2.4-2.4-5.7-3.7-9-3.7-3.5 0-5.9 1.8-5.9 4.4 0 2.8 3.4 3.7 7.3 4.7 5.1 1.4 11.1 3 11.1 9.6 0 4.9-3.4 9.5-11.8 9.5-5.6 0-9.7-2-12.4-5l2.7-3.6zM85 266.2v-31.4h4.2v3.2c1.7-2.4 4.5-3.8 7.4-3.8 5.9 0 10.1 4.5 10.1 11.9S102.5 258 96.6 258c-3 0-5.7-1.4-7.4-3.9V266H85zm10.6-28.1c-2.5 0-4.9 1.3-6.3 3.3v9.6c1.4 2.1 3.8 3.3 6.3 3.3 4.2 0 6.8-3.4 6.8-8.2s-2.6-8-6.8-8zm16.6-3.2h4.2v3.5c1.7-2.4 4.5-3.9 7.4-4v4.3c-.5-.1-1-.1-1.5-.1-2.4.1-4.6 1.4-6 3.3v15.8h-4.2l.1-22.8zm29.8 20.2c-1.9 2-4.6 3.2-7.4 3.1-3.8 0-7.9-2.5-7.9-7.5 0-5.2 4.1-7.4 7.9-7.4 2.8-.2 5.5.9 7.4 3v-3.8c0-2.8-2.3-4.5-5.6-4.5-2.6 0-5.1 1.1-6.8 3l-1.8-2.9c2.5-2.5 5.8-3.8 9.3-3.7 4.9 0 9.1 2.2 9.1 7.9v15.3H142v-2.5zm0-6.3c-1.4-1.7-3.6-2.7-5.8-2.6-3.1 0-5.2 1.8-5.2 4.5s2.2 4.5 5.2 4.5c2.2.1 4.4-.9 5.8-2.6v-3.8zm12.4 14.2c1.5.1 2.9-.8 3.3-2.2l1.3-3-9.4-22.9h4.5l7.1 17.8 7.1-17.8h4.6l-11.2 27c-1 3.1-4 5.1-7.2 4.9-.9 0-1.8-.1-2.6-.3l.7-3.8c.6.2 1.2.3 1.8.3zm32-28.7c6.8 0 11 5.3 11 12.3v1h-18c.2 4 3.7 7.2 7.7 7 2.5 0 4.9-.9 6.7-2.7l2 2.8c-2.5 2.3-5.8 3.5-9.1 3.4-6.8 0-11.8-4.8-11.8-11.9.1-6.6 4.8-11.9 11.5-11.9zm-7 10.3h13.9c0-3.7-3-6.7-6.7-6.8h-.2c-4.6 0-6.8 3.7-7 6.8zm23.3-9.7h4.2v3.5c1.7-2.4 4.5-3.9 7.4-4v4.3c-.5-.1-1-.1-1.5-.1-2.4.1-4.6 1.4-6 3.3v15.8h-4.2l.1-22.8zm111.4 14.7c2.5 2.8 6.1 4.4 9.9 4.4 5.1 0 6.9-2.6 6.9-4.8 0-3.3-3.6-4.2-7.6-5.3-5-1.3-10.9-2.8-10.9-9.2 0-5.2 4.6-8.9 11.1-8.9 4.8 0 8.6 1.6 11.4 4.4l-2.7 3.5c-2.4-2.4-5.7-3.8-9.1-3.7-3.5 0-5.9 1.8-5.9 4.4 0 2.8 3.4 3.7 7.3 4.7 5.1 1.4 11.1 3 11.1 9.6 0 4.9-3.4 9.5-11.8 9.5-5.6 0-9.7-2-12.4-5l2.7-3.6zm42.2-6.6c0-3.8-1.9-4.9-4.8-4.9-2.5.1-4.8 1.3-6.2 3.3v16.2H341v-31.3h4.2v11.8c2-2.3 4.9-3.7 8-3.8 4.8 0 7.3 2.4 7.3 7.2v16h-4.2V243zm10.4-14.6c0-1.5 1.2-2.7 2.7-2.7 1.5 0 2.7 1.2 2.7 2.7 0 1.5-1.2 2.7-2.7 2.7-1.5 0-2.7-1.2-2.7-2.7zm.6 6.5h4.2v22.7h-4.2v-22.7zm12 3.7h-3.8v-3.7h3.8v-1.5c0-4.9 2.9-7.6 6.9-7.6 1.3 0 2.6.3 3.7.9l-1 3.1c-.6-.3-1.3-.5-2-.5-2.1 0-3.4 1.4-3.4 4.1v1.5h4.6v3.7h-4.6v19h-4.2v-19zm13.7 14v-14h-3.8v-3.7h3.8v-6.2h4.2v6.2h4.6v3.7h-4.6v13c0 1.6.8 2.8 2.2 2.8.9 0 1.7-.3 2.3-.9l1.1 3.2c-1.2 1.1-2.8 1.6-4.4 1.5-3.5 0-5.4-2.1-5.4-5.6zm23.5-18.3c6.8 0 11 5.3 11 12.3v1h-18c.2 4 3.7 7.2 7.7 7 2.5 0 4.9-.9 6.7-2.7l2 2.8c-2.5 2.3-5.8 3.5-9.1 3.4-6.8 0-11.8-4.8-11.8-11.9.2-6.6 4.9-11.9 11.5-11.9zm-7 10.3h13.9c0-3.7-3-6.7-6.7-6.8h-.2c-4.5 0-6.7 3.7-7 6.8zm23.4-9.7h4.2v3.5c1.7-2.4 4.5-3.9 7.4-4v4.3c-.5-.1-1-.1-1.5-.1-2.4.1-4.6 1.4-6 3.3v15.8h-4.2l.1-22.8zm94 14.7c2.5 2.8 6.1 4.4 9.9 4.4 5.1 0 6.9-2.6 6.9-4.8 0-3.3-3.6-4.2-7.6-5.3-5-1.3-10.9-2.8-10.9-9.2 0-5.2 4.6-8.9 11.1-8.9 4.8 0 8.7 1.6 11.4 4.4l-2.7 3.5c-2.4-2.4-5.7-3.8-9.1-3.7-3.5 0-5.9 1.8-5.9 4.4 0 2.8 3.4 3.7 7.3 4.7 5.1 1.4 11.1 3 11.1 9.6 0 4.9-3.4 9.4-11.8 9.4-5.6 0-9.7-2-12.4-5l2.7-3.5zm37-15.3c3.3-.2 6.5 1.3 8.5 4l-2.8 2.6c-1.2-1.8-3.3-2.9-5.5-2.8-4.5 0-7.3 3.4-7.3 8.1s2.9 8.2 7.3 8.2c2.2.1 4.3-1 5.5-2.8l2.8 2.6c-2 2.7-5.2 4.2-8.5 4-6.9 0-11.6-5.1-11.6-11.9s4.8-12 11.6-12zm13.2.6h4.2v3.5c1.7-2.4 4.5-3.9 7.4-4v4.3c-.5-.1-1-.1-1.5-.1-2.4.1-4.6 1.4-6 3.3v15.8H577l.1-22.8zm31.2 19.6c-2.1 2.3-5 3.6-8.1 3.7-4.8 0-7.2-2.4-7.2-7.2v-16h4.2v14.6c0 3.8 1.9 4.9 4.8 4.9 2.5-.1 4.8-1.2 6.3-3.2V235h4.2v22.7h-4.2v-3.2zm26.3-11.4c0-3.8-1.9-5-4.8-5-2.5.1-4.8 1.3-6.2 3.3v16.2h-4.2v-22.7h4.2v3.2c2-2.3 4.9-3.7 8-3.8 4.8 0 7.3 2.5 7.3 7.3v15.9h-4.2l-.1-14.4zm21.1-8.8c3.3-.2 6.5 1.3 8.5 4l-2.8 2.6c-1.2-1.8-3.3-2.9-5.5-2.8-4.5 0-7.3 3.4-7.3 8.1s2.9 8.2 7.3 8.2c2.2.1 4.3-1 5.5-2.8l2.8 2.6c-2 2.7-5.2 4.2-8.5 4-6.9 0-11.6-5.1-11.6-11.9s4.7-12 11.6-12zm28.5 8.7c0-3.8-1.9-4.9-4.8-4.9-2.5.1-4.8 1.3-6.2 3.3v16.2H669v-31.3h4.2v11.8c2-2.3 4.9-3.7 8-3.8 4.8 0 7.3 2.4 7.3 7.2v16h-4.2l-.1-14.5zm20.9-8.7c6.8 0 11 5.3 11 12.3v1h-18c.2 4 3.7 7.2 7.7 7 2.5 0 4.9-.9 6.7-2.7l2 2.8c-2.5 2.3-5.8 3.5-9.1 3.4-6.8 0-11.8-4.8-11.8-11.9.1-6.6 4.9-11.9 11.5-11.9zm-7 10.3H712c0-3.7-3-6.7-6.7-6.8h-.2c-4.5 0-6.7 3.7-7 6.8zm23.4-9.7h4.2v3.5c1.7-2.4 4.5-3.9 7.4-4v4.3c-.5-.1-1-.1-1.5-.1-2.4.1-4.6 1.4-6 3.3v15.8h-4.2l.1-22.8zm110.1 14.7c2.5 2.8 6.1 4.4 9.9 4.4 5.1 0 6.9-2.6 6.9-4.8 0-3.3-3.6-4.2-7.6-5.3-5-1.3-10.9-2.8-10.9-9.2 0-5.2 4.6-8.9 11.1-8.9 4.8 0 8.7 1.6 11.4 4.4l-2.7 3.5c-2.4-2.4-5.7-3.8-9.1-3.7-3.5 0-5.9 1.8-5.9 4.4 0 2.8 3.4 3.7 7.3 4.7 5.1 1.4 11.1 3 11.1 9.6 0 4.9-3.4 9.5-11.8 9.5-5.6 0-9.7-2-12.4-5l2.7-3.6zm26.3-21.2c0-1.5 1.2-2.7 2.7-2.7 1.5 0 2.7 1.2 2.7 2.7 0 1.5-1.2 2.7-2.7 2.7-1.5 0-2.7-1.2-2.7-2.7zm.6 6.5h4.2v22.7h-4.2v-22.7zm9.9 19.5l11.8-15.7h-11.8V235h17.4v3.1L873.9 254H886v3.7h-17.6v-3.3zm33.3-20.1c6.8 0 11 5.3 11 12.3v1h-18c.2 4 3.7 7.2 7.7 7 2.5 0 4.9-.9 6.7-2.7l2 2.8c-2.5 2.3-5.8 3.5-9.1 3.4-6.8 0-11.8-4.8-11.8-11.9.1-6.6 4.9-11.9 11.5-11.9zm-7 10.3h13.9c0-3.7-3-6.7-6.7-6.8h-.2c-4.5 0-6.7 3.7-7 6.8zm23.4-9.7h4.2v3.5c1.7-2.4 4.5-3.9 7.4-4v4.3c-.5-.1-1-.1-1.5-.1-2.4.1-4.6 1.4-6 3.3v15.8H918l.1-22.8zm135.5 14.7c2.5 2.8 6.1 4.4 9.9 4.4 5.1 0 6.9-2.6 6.9-4.8 0-3.3-3.6-4.2-7.6-5.3-5-1.3-10.9-2.8-10.9-9.2 0-5.2 4.6-8.9 11.1-8.9 4.8 0 8.7 1.6 11.4 4.4l-2.7 3.5c-2.4-2.4-5.7-3.8-9.1-3.7-3.5 0-5.9 1.8-5.9 4.4 0 2.8 3.4 3.7 7.3 4.7 5.1 1.4 11.1 3 11.1 9.6 0 4.9-3.4 9.5-11.8 9.5-5.6 0-9.7-2-12.4-5l2.7-3.6zm26.9 16.6v-31.4h4.2v3.2c1.7-2.4 4.5-3.8 7.4-3.8 5.9 0 10.1 4.5 10.1 11.9s-4.2 11.9-10.1 11.9c-3 0-5.7-1.4-7.4-3.9V266h-4.2zm10.5-28.1c-2.5 0-4.9 1.3-6.3 3.3v9.6c1.4 2.1 3.8 3.3 6.3 3.3 4.2 0 6.8-3.4 6.8-8.2s-2.5-8-6.8-8zm16-9.7c0-1.5 1.2-2.7 2.7-2.7 1.5 0 2.7 1.2 2.7 2.7 0 1.5-1.2 2.7-2.7 2.7-1.5 0-2.7-1.2-2.7-2.7zm.7 6.5h4.2v22.7h-4.2v-22.7zm26.2 8.2c0-3.8-1.9-5-4.8-5-2.5.1-4.8 1.3-6.2 3.3v16.2h-4.2v-22.7h4.2v3.2c2-2.3 4.9-3.7 8-3.8 4.8 0 7.3 2.5 7.3 7.3v15.9h-4.2l-.1-14.4zm26.3 0c0-3.8-1.9-5-4.8-5-2.5.1-4.8 1.3-6.2 3.3v16.2h-4.2v-22.7h4.2v3.2c2-2.3 4.9-3.7 8-3.8 4.8 0 7.3 2.5 7.3 7.3v15.9h-4.2l-.1-14.4zm20.9-8.8c6.8 0 11 5.3 11 12.3v1h-18c.2 4 3.7 7.2 7.7 7 2.5 0 4.9-.9 6.7-2.7l2 2.8c-2.5 2.3-5.8 3.5-9.1 3.4-6.8 0-11.8-4.8-11.8-11.9.1-6.6 4.9-11.9 11.5-11.9zm-7 10.3h13.9c0-3.7-3-6.7-6.7-6.8h-.2c-4.6 0-6.7 3.7-7 6.8zm23.3-9.7h4.2v3.5c1.7-2.4 4.5-3.9 7.4-4v4.3c-.5-.1-1-.1-1.5-.1-2.4.1-4.6 1.4-6 3.3v15.8h-4.2l.1-22.8zm114.3 14.7c2.5 2.8 6.1 4.4 9.9 4.4 5.1 0 6.9-2.6 6.9-4.8 0-3.3-3.6-4.2-7.6-5.3-5-1.3-10.9-2.8-10.9-9.2 0-5.2 4.6-8.9 11.1-8.9 4.8 0 8.7 1.6 11.4 4.4l-2.7 3.5c-2.4-2.4-5.7-3.8-9.1-3.7-3.5 0-5.9 1.8-5.9 4.4 0 2.8 3.4 3.7 7.3 4.7 5.1 1.4 11.1 3 11.1 9.6 0 4.9-3.4 9.5-11.8 9.5-5.6 0-9.7-2-12.4-5l2.7-3.6zm27 3v-14h-3.8v-3.7h3.8v-6.2h4.2v6.2h4.6v3.7h-4.6v13c0 1.6.8 2.8 2.2 2.8.9 0 1.7-.3 2.3-.9l1.1 3.2c-1.2 1.1-2.8 1.6-4.4 1.5-3.6 0-5.4-2.1-5.4-5.6zm27.5 2.5c-1.9 2-4.6 3.2-7.4 3.1-3.8 0-7.9-2.5-7.9-7.5 0-5.2 4.1-7.4 7.9-7.4 2.8-.1 5.5.9 7.4 3v-3.8c0-2.8-2.3-4.5-5.6-4.5-2.6 0-5.1 1.1-6.8 3l-1.8-2.9c2.5-2.5 5.8-3.8 9.3-3.7 4.9 0 9.1 2.2 9.1 7.9v15.3h-4.2v-2.5zm0-6.3c-1.4-1.7-3.6-2.7-5.8-2.6-3.1 0-5.2 1.8-5.2 4.5s2.2 4.5 5.2 4.5c2.2.1 4.4-.9 5.8-2.6v-3.8zm10.3-20.4c0-1.5 1.2-2.7 2.7-2.7 1.5 0 2.7 1.2 2.7 2.7 0 1.5-1.2 2.7-2.7 2.7-1.4 0-2.6-1.2-2.7-2.7zm.7 6.5h4.2v22.7h-4.2v-22.7zm26.3 8.2c0-3.8-1.9-5-4.8-5-2.5.1-4.8 1.3-6.2 3.3v16.2h-4.2v-22.7h4.2v3.2c2-2.3 4.9-3.7 8-3.8 4.8 0 7.3 2.5 7.3 7.3v15.9h-4.2l-.1-14.4zm20.9-8.8c6.8 0 11 5.3 11 12.3v1h-18c.2 4 3.7 7.2 7.7 7 2.5 0 4.9-.9 6.7-2.7l2 2.8c-2.5 2.3-5.8 3.5-9.1 3.4-6.8 0-11.8-4.8-11.8-11.9.1-6.6 4.9-11.9 11.5-11.9zm-7 10.3h13.9c0-3.7-3-6.7-6.7-6.8h-.2c-4.6 0-6.7 3.7-7 6.8zm23.3-9.7h4.3v3.5c1.7-2.4 4.5-3.9 7.4-4v4.3c-.5-.1-1-.1-1.5-.1-2.4.1-4.6 1.4-6 3.3v15.8h-4.2v-22.8zm100.5 14.7c2.5 2.8 6.1 4.4 9.9 4.4 5.1 0 6.9-2.6 6.9-4.8 0-3.3-3.6-4.2-7.6-5.3-5-1.3-10.9-2.8-10.9-9.2 0-5.2 4.6-8.9 11.1-8.9 4.8 0 8.7 1.6 11.4 4.4l-2.7 3.5c-2.4-2.4-5.7-3.8-9.1-3.7-3.5 0-5.9 1.8-5.9 4.4 0 2.8 3.4 3.7 7.3 4.7 5.1 1.4 11.1 3 11.1 9.6 0 4.9-3.4 9.5-11.8 9.5-5.6 0-9.7-2-12.4-5l2.7-3.6zm37.1-15.3c3.3-.2 6.5 1.3 8.5 4l-2.8 2.6c-1.2-1.8-3.3-2.9-5.5-2.8-4.5 0-7.3 3.4-7.3 8.1s2.9 8.2 7.3 8.2c2.2.1 4.3-1 5.5-2.8l2.8 2.6c-2 2.7-5.2 4.2-8.5 4-6.9 0-11.6-5.1-11.6-11.9s4.7-12 11.6-12zm13.1.6h4.2v3.5c1.7-2.4 4.5-3.9 7.4-4v4.3c-.5-.1-1-.1-1.5-.1-2.4.1-4.6 1.4-6 3.3v15.8h-4.2l.1-22.8zm25.9-.6c6.8 0 11 5.3 11 12.3v1h-18c.2 4 3.7 7.2 7.7 7 2.5 0 4.9-.9 6.7-2.7l2 2.8c-2.5 2.3-5.8 3.5-9.1 3.4-6.8 0-11.8-4.8-11.8-11.9.1-6.6 4.9-11.9 11.5-11.9zm-7 10.3h13.9c0-3.7-2.9-6.7-6.6-6.8h-.3c-4.6 0-6.7 3.7-7 6.8zm33.3-10.3c6.8 0 11 5.3 11 12.3v1h-18c.2 4 3.7 7.2 7.7 7 2.5 0 4.9-.9 6.7-2.7l2 2.8c-2.5 2.3-5.8 3.5-9.1 3.4-6.8 0-11.8-4.8-11.8-11.9.1-6.6 4.9-11.9 11.5-11.9zm-7 10.3h13.9c0-3.7-3-6.7-6.7-6.8h-.2c-4.6 0-6.7 3.7-7 6.8zm38.7-1.5c0-3.8-1.9-5-4.8-5-2.5.1-4.8 1.3-6.2 3.3v16.2h-4.2v-22.7h4.2v3.2c2-2.3 4.9-3.7 8-3.8 4.8 0 7.3 2.5 7.3 7.3v15.9h-4.2v-14.4zm20.9-8.8c6.8 0 11 5.3 11 12.3v1h-18c.2 4 3.7 7.2 7.7 7 2.5 0 4.9-.9 6.7-2.7l2 2.8c-2.5 2.3-5.8 3.5-9.1 3.4-6.8 0-11.8-4.8-11.8-11.9.1-6.6 4.9-11.9 11.5-11.9zm-7 10.3h13.9c0-3.7-2.9-6.7-6.6-6.8h-.3c-4.6 0-6.7 3.7-7 6.8zm23.4-9.7h4.2v3.5c1.7-2.4 4.5-3.9 7.4-4v4.3c-.5-.1-1-.1-1.5-.1-2.4.1-4.6 1.4-6 3.3v15.8h-4.2l.1-22.8zm114.4 14.7c2.5 2.8 6.1 4.4 9.9 4.4 5.1 0 6.9-2.6 6.9-4.8 0-3.3-3.6-4.2-7.6-5.3-5-1.3-10.9-2.8-10.9-9.2 0-5.2 4.6-8.9 11.1-8.9 4.8 0 8.7 1.6 11.4 4.4l-2.7 3.5c-2.4-2.4-5.7-3.7-9.1-3.6-3.5 0-5.9 1.8-5.9 4.4 0 2.8 3.4 3.7 7.3 4.7 5.1 1.4 11.1 3 11.1 9.6 0 4.9-3.4 9.5-11.8 9.5-5.6 0-9.7-2-12.4-5l2.7-3.7zm27 3v-14h-3.8v-3.7h3.8v-6.2h4.2v6.2h4.6v3.7h-4.6v13c0 1.6.8 2.8 2.2 2.8.9 0 1.7-.3 2.3-.9l1.1 3.2c-1.2 1.1-2.8 1.6-4.4 1.5-3.6 0-5.4-2.1-5.4-5.6zm14.9 10.4c1.5.1 2.9-.8 3.3-2.2l1.3-3-9.3-22.9h4.5l7.1 17.8 7.1-17.8h4.6l-11.2 27c-1 3.1-4 5.1-7.2 4.9-.9 0-1.8-.1-2.6-.3l.7-3.8c.4.2 1.1.3 1.7.3zm22-36.7h4.2v31.3h-4.2v-31.3zm20.9 8c6.8 0 11 5.3 11 12.3v1h-18c.2 4 3.7 7.2 7.7 7 2.5 0 4.9-.9 6.7-2.7l2 2.8c-2.5 2.3-5.8 3.5-9.1 3.4-6.8 0-11.8-4.8-11.8-11.9.1-6.6 4.9-11.9 11.5-11.9zm-7 10.3h13.9c0-3.7-3-6.7-6.7-6.8h-.2c-4.6 0-6.7 3.7-7 6.8zm23.3-9.7h4.2v3.5c1.7-2.4 4.5-3.9 7.4-4v4.3c-.5-.1-1-.1-1.5-.1-2.4.1-4.6 1.4-6 3.3v15.8h-4.2l.1-22.8z" class="st15"/></svg>