<svg xmlns="http://www.w3.org/2000/svg" id="Layer_1" viewBox="0 0 983.22 870.1" width="983.22" height="870.1"><defs><style>.cls-1{fill:#464646}</style></defs><path d="M879.74 198.69l-87.32-44V36h-158v21.89h-30.03v77.57h30.08v19.27l-87.32 44h-31.6v599.04h395.8V198.69zM866.68 753.1H560.23V243.37h306.45zm-153.23-125c71.62 0 129.89-58.27 129.89-129.9a129.89 129.89 0 0 0-259.78 0c-.01 71.67 58.26 129.94 129.88 129.94zm0-216a86.13 86.13 0 1 1-86.13 86.13 86.22 86.22 0 0 1 86.12-86.12zM490 148.44a45.28 45.28 0 1 1 45.28-45.28A45.28 45.28 0 0 1 490 148.44zm-87.75-45.28A45.28 45.28 0 1 1 357 57.89a45.28 45.28 0 0 1 45.24 45.28zm-133 0a45.28 45.28 0 1 1-45.28-45.28 45.28 45.28 0 0 1 45.24 45.29zm133 128.4A45.28 45.28 0 1 1 357 186.29a45.28 45.28 0 0 1 45.24 45.27zm-133 0a45.28 45.28 0 1 1-45.28-45.28 45.28 45.28 0 0 1 45.24 45.28zm0 128.4a45.28 45.28 0 1 1-45.28-45.28A45.28 45.28 0 0 1 269.21 360z" class="cls-1"/></svg>