<svg xmlns="http://www.w3.org/2000/svg" viewBox="0 0 1476 900" width="1476" height="900"><defs><style>.cls-1,.cls-2,.cls-5{fill:none;stroke-miterlimit:10;stroke-width:.5px}.cls-1,.cls-2{stroke:#f15a22}.cls-2{stroke-dasharray:6 6}.cls-3{fill:#00683f}.cls-4{fill:#94c948}.cls-5{stroke:#231f20}.cls-6{fill:#231f20}.cls-7{fill:#fff}</style></defs><g id="Die_Line"><path d="M109.77 764.34l-36-14.4v-547.2l36-14.4m1224 0v684m-144-684v3" class="cls-1"/><path d="M1189.77 197.34v561" class="cls-2"/><path d="M1189.77 761.34v3m-468-576v3" class="cls-1"/><path d="M721.77 197.34v561" class="cls-2"/><path d="M721.77 761.34v3m-144-576v3" class="cls-1"/><path d="M577.77 197.34v561" class="cls-2"/><path d="M577.77 761.34v3m-468-576v3" class="cls-1"/><path d="M109.77 197.34v561" class="cls-2"/><path d="M109.77 761.34v3m1080-576h3" class="cls-1"/><path d="M1198.77 188.34h129" class="cls-2"/><path d="M1330.77 188.34h3M1027 123.52l6.19 19.28a3.86 3.86 0 0 1-3.68 5H923.09a3.86 3.86 0 0 1-3.68-5l6.19-19.28M109.77 764.34h3" class="cls-1"/><path d="M118.77 764.34h1209" class="cls-2"/><path d="M1330.77 764.34h3m-138 108h138m-1224-684h3" class="cls-1"/><path d="M118.77 188.34h1209" class="cls-2"/><path d="M1330.77 188.34h3m-144 576l6 108m-474-108v108m-138 0h138m-144-108l6 108m-6-108v108m-468-108l6 108m1074-108v108m-462 0h462m-468-108l6 108m606-684v-108m-138 0h138m-144 108l6-108m-474 108v-108m-138 0h138m-144 108l6-108m-6 108v-108m-462 792H193l3.48 10.82a3.86 3.86 0 0 0 3.68 2.68h94a3.86 3.86 0 0 0 3.68-2.68l3.48-10.82h96.93l3.48 10.82a3.86 3.86 0 0 0 3.68 2.68h94a3.86 3.86 0 0 0 3.68-2.68l3.48-10.82h71.2m-468-684l6-108m1074 108v-108m-462 0h462m-468 108l6-108m-150 0h-71.2l-3.48 10.82a3.86 3.86 0 0 1-3.68 2.68h-94a3.86 3.86 0 0 1-3.68-2.68l-3.48-10.82h-96.94l-3.48 10.82a3.86 3.86 0 0 1-3.68 2.68h-94a3.86 3.86 0 0 1-3.68-2.68L193 80.34h-77.23" class="cls-1"/></g><g id="Labels"><path d="M314.79 61.73a4.44 4.44 0 0 1 3.38 1.39l-.88 1.37a3 3 0 0 0-2.5-1.15c-2.18 0-3.28 2.11-3.28 4.34a2.86 2.86 0 0 0 0 .4 4.19 4.19 0 0 1 3.3-1.76 3.69 3.69 0 0 1 4 3.85 4 4 0 0 1-4.32 4c-3.44 0-4.79-2.9-4.79-6.19s1.66-6.25 5.09-6.25zm-.41 6.12a3.49 3.49 0 0 0-2.83 1.6c.14 1.4.88 3.08 2.85 3.08a2.42 2.42 0 0 0 2.6-2.32 2.33 2.33 0 0 0-2.62-2.36zm7.34 4.01a1.14 1.14 0 0 1 1.14 1.14 1.15 1.15 0 0 1-1.13 1.13 1.14 1.14 0 0 1-1.12-1.13 1.12 1.12 0 0 1 1.11-1.14zM326 71a4 4 0 0 0 3.28 1.51 2.4 2.4 0 0 0 2.61-2.34 2.32 2.32 0 0 0-2.57-2.36 3.69 3.69 0 0 0-2.7 1.08l-1.3-.41v-6.57H333v1.58h-5.8v3.84a4 4 0 0 1 2.75-1.06 3.7 3.7 0 0 1 3.83 3.85c0 2.47-1.87 4-4.41 4a5.21 5.21 0 0 1-4.37-1.88zm9.62-5.49a2.83 2.83 0 0 0 1.22-1.69.88.88 0 0 1-.27.05 1 1 0 0 1-1-1 1.11 1.11 0 0 1 1.1-1.12 1.33 1.33 0 0 1 1.33 1.47 3.59 3.59 0 0 1-1.58 2.9zm3.11 0a2.91 2.91 0 0 0 1.27-1.69.88.88 0 0 1-.27.05 1 1 0 0 1-1-1 1.12 1.12 0 0 1 1.1-1.12 1.33 1.33 0 0 1 1.26 1.49 3.62 3.62 0 0 1-1.57 2.9zm14.57 1.73l-2.14 6.68h-1.67l-2.74-8.7h1.69l2 6.63 2.18-6.63H354l2.18 6.63 2-6.63h1.69l-2.74 8.7h-1.67zm7.7-4.5a1.06 1.06 0 0 1 1-1 1 1 0 0 1 1 1 1 1 0 0 1-1 1 1 1 0 0 1-1-1zm.25 2.48h1.62v8.7h-1.62zm10.42 7.45a3.6 3.6 0 0 1-2.84 1.46c-2.27 0-3.89-1.71-3.89-4.56s1.62-4.57 3.89-4.57a3.54 3.54 0 0 1 2.84 1.48v-4.57h1.62v12h-1.62zm0-5a3 3 0 0 0-2.41-1.28c-1.62 0-2.63 1.31-2.63 3.13s1 3.12 2.63 3.12a3 3 0 0 0 2.41-1.26zM379.7 65c2.61 0 4.23 2 4.23 4.7v.4h-6.88a2.85 2.85 0 0 0 3 2.7 3.7 3.7 0 0 0 2.58-1l.76 1.06a4.89 4.89 0 0 1-3.49 1.3 4.57 4.57 0 0 1-.2-9.16zm-2.7 3.93h5.31a2.57 2.57 0 0 0-2.65-2.59 2.66 2.66 0 0 0-2.66 2.59z" class="cls-3"/><path d="M258.37 197.91h8.07v1.58h-6.27V203h6.14v1.58h-6.14v5.33h-1.8zm15.56-.2a6.21 6.21 0 1 1-6 6.21 5.91 5.91 0 0 1 6-6.21zm0 1.6c-2.57 0-4.2 2-4.2 4.61s1.62 4.61 4.2 4.61 4.2-2 4.2-4.61-1.67-4.61-4.2-4.61zm8.22-1.4H284v10.43h5.46v1.58h-7.26zm9.23 0h4.29a6 6 0 1 1 0 12h-4.29zm4.29 10.43a4.42 4.42 0 0 0 0-8.84h-2.48v8.84zm18.59-10.63a6.21 6.21 0 1 1-6 6.21 5.91 5.91 0 0 1 6-6.21zm0 1.6c-2.57 0-4.2 2-4.2 4.61s1.62 4.61 4.2 4.61 4.2-2 4.2-4.61-1.66-4.61-4.2-4.61zm12.28 5.98h-2.25v4.63h-1.8v-12h5.06a3.58 3.58 0 0 1 3.85 3.69 3.35 3.35 0 0 1-3 3.51l3.08 4.81h-2.08zm.77-5.8h-3v4.21h3a2.11 2.11 0 1 0 0-4.21zm11.23 7.35a5.06 5.06 0 0 0 3.78 1.69c1.94 0 2.63-1 2.63-1.85 0-1.26-1.37-1.62-2.9-2-1.93-.5-4.16-1.06-4.16-3.51 0-2 1.75-3.42 4.25-3.42a5.89 5.89 0 0 1 4.38 1.67l-1 1.33a4.69 4.69 0 0 0-3.48-1.4c-1.33 0-2.25.68-2.25 1.69s1.3 1.42 2.79 1.8c2 .52 4.25 1.13 4.25 3.69 0 1.87-1.3 3.62-4.54 3.62a6.15 6.15 0 0 1-4.74-1.91zm9.83-2.92a6 6 0 0 1 6.16-6.21 5.43 5.43 0 0 1 4.77 2.54l-1.53.81a3.81 3.81 0 0 0-3.24-1.75 4.62 4.62 0 0 0 0 9.22 3.81 3.81 0 0 0 3.24-1.75l1.53.81a5.45 5.45 0 0 1-4.77 2.54 6 6 0 0 1-6.16-6.21zm18.27-6.21a6.21 6.21 0 1 1-6 6.21 5.91 5.91 0 0 1 6-6.21zm0 1.6c-2.57 0-4.2 2-4.2 4.61s1.62 4.61 4.2 4.61 4.2-2 4.2-4.61-1.66-4.61-4.2-4.61zm12.28 5.98h-2.25v4.63h-1.8v-12h5.06a3.58 3.58 0 0 1 3.85 3.69 3.35 3.35 0 0 1-3 3.51l3.08 4.81h-2.09zm.77-5.8h-3v4.21h3a2.11 2.11 0 1 0 0-4.21zm6.31-1.58h8.07v1.58h-6.27V203h6.14v1.58h-6.14v3.75h6.27v1.58H386zm14.95 0h1.8v10.43h5.46v1.58h-7.26zm9.23 0H412v12h-1.8zm6.29 2.79v9.22h-1.8v-12h1.85l6.54 9v-9h1.8v12h-1.75zm11.05-2.79h8.07v1.58h-6.27V203h6.14v1.58h-6.14v3.75h6.27v1.58h-8.07zm491.95-40.24h-3.73v-1.58H925v1.58h-3.71v10.43h-1.8zm13.79 7.94h-5.89l-1 2.48h-2l4.77-12h2.25l4.77 12h-2zM927.9 164h4.84l-2.43-6.36zm9.75-7.92h5.64c2.14 0 3.38 1.31 3.38 3.06a2.72 2.72 0 0 1-2.09 2.75 3 3 0 0 1 2.32 3 3.14 3.14 0 0 1-3.48 3.24h-5.78zm5.29 5.1a1.76 1.76 0 1 0 0-3.51h-3.49v3.51zm.09 5.33a1.81 1.81 0 0 0 2-1.89 1.83 1.83 0 0 0-2-1.85h-3.58v3.75zm10.75-10.43h1.8v10.43H961v1.58h-7.26zm14.22-.19a6.21 6.21 0 1 1-6 6.21 5.91 5.91 0 0 1 6-6.21zm0 1.6c-2.58 0-4.2 2-4.2 4.61s1.62 4.61 4.2 4.61 4.2-2 4.2-4.61-1.68-4.61-4.2-4.61zm7.7 4.61a6 6 0 0 1 6.16-6.21 5.43 5.43 0 0 1 4.77 2.54l-1.53.81a3.81 3.81 0 0 0-3.24-1.75 4.62 4.62 0 0 0 0 9.22 3.81 3.81 0 0 0 3.24-1.71l1.53.81a5.45 5.45 0 0 1-4.77 2.54 6 6 0 0 1-6.16-6.25zm15.66.77l-1.13 1.28v3.94h-1.8v-12h1.8v6l5-6h2.23l-5 5.69 5.35 6.32h-2.23zm13 2.13a5.06 5.06 0 0 0 3.78 1.69c1.94 0 2.63-1 2.63-1.85 0-1.26-1.37-1.62-2.9-2-1.93-.5-4.16-1.06-4.16-3.51 0-2 1.75-3.42 4.25-3.42a5.89 5.89 0 0 1 4.38 1.67l-1 1.33a4.68 4.68 0 0 0-3.47-1.4c-1.33 0-2.25.68-2.25 1.69s1.3 1.42 2.79 1.8c2 .52 4.25 1.13 4.25 3.69 0 1.87-1.3 3.62-4.54 3.62a6.15 6.15 0 0 1-4.74-1.91zm10.33-8.92h1.8v10.43h5.46v1.58h-7.26zm9.23 0h1.8v12h-1.8zm7.42 1.59h-3.73v-1.58h9.24v1.58h-3.71v10.43h-1.8zm183.79 301.01a5.06 5.06 0 0 0 3.78 1.69c1.95 0 2.63-1 2.63-1.85 0-1.26-1.37-1.62-2.9-2-1.93-.5-4.16-1.06-4.16-3.51 0-2 1.75-3.42 4.25-3.42a5.89 5.89 0 0 1 4.38 1.67l-1 1.33a4.68 4.68 0 0 0-3.47-1.4c-1.33 0-2.25.68-2.25 1.69s1.3 1.42 2.79 1.8c2 .52 4.25 1.13 4.25 3.69 0 1.87-1.3 3.62-4.54 3.62a6.15 6.15 0 0 1-4.74-1.91zm10.33-8.93h1.8v12h-1.8zm4.48 0h4.29a6 6 0 1 1 0 12h-4.29zm4.29 10.43a4.42 4.42 0 0 0 0-8.84h-2.49v8.84zm8.4-10.43h8.07v1.58h-6.27v3.51h6.14v1.58h-6.14v3.75h6.27v1.58h-8.07zm14.96 0h5.06a3.69 3.69 0 1 1 0 7.38h-3.26v4.63h-1.8zm4.83 1.58h-3v4.21h3a2.11 2.11 0 1 0 0-4.21zm12.15 7.94h-5.89l-1 2.48h-2l4.77-12h2.25l4.77 12h-2zm-5.37-1.6h4.8l-2.43-6.36zm11.56-5.13v9.22H1279v-12h1.85l6.54 9v-9h1.8v12h-1.75zm11.05-2.79h8.07v1.58h-6.27v3.51h6.14v1.58h-6.14v3.75h6.27v1.58h-8.07zm10.31 0h1.8v10.43h5.46v1.58h-7.26zM85.56 495.68a5.65 5.65 0 0 1 2.38-4.75l.85 1.46a4.14 4.14 0 0 0-1.62 3.29 4.62 4.62 0 0 0 9.24 0 4.66 4.66 0 0 0-1.19-3H93v3.85h-1.53v-5.65h4.41a6.39 6.39 0 0 1 2.12 4.8 6.22 6.22 0 1 1-12.44 0zm.2-7.14v-1.8h10.42v-5.46h1.58v7.26zm0-8.77V478H93a3 3 0 0 0 3.37-3.24c0-2.11-1.31-3.22-3.37-3.22h-7.24v-1.82H93c3 0 4.93 1.67 4.93 5s-2 5.06-4.92 5.06zm0-12.77v-8.07h1.58v6.27h3.51v-6.14h1.58v6.14h3.75v-6.27h1.58V467zm1.58-17.9v3.73h-1.58v-9.24h1.58v3.71h10.43v1.8zm7.94-13.79v5.89l2.48 1v2l-12-4.77v-2.25l12-4.77v2zm-1.6 5.37v-4.84l-6.36 2.43zm-7.92-9.76v-5.64c0-2.14 1.31-3.38 3.06-3.38a2.72 2.72 0 0 1 2.75 2.1 3 3 0 0 1 3-2.32 3.14 3.14 0 0 1 3.24 3.47v5.78zm5.1-5.29a1.76 1.76 0 1 0-3.51 0v3.49h3.51zm5.33-.09a1.8 1.8 0 0 0-1.89-2 1.83 1.83 0 0 0-1.85 2v3.58h3.75z" class="cls-4"/><path d="M12 455.56c-1.37-.41-2.57-1.31-2.57-2.86 0-2.18 2.18-3.13 4.27-3.13s4.25 1 4.25 3.13c0 1.55-1.22 2.45-2.59 2.86a3.52 3.52 0 0 1 2.77 3.13c0 2.09-2 3.28-4.43 3.28s-4.47-1.17-4.47-3.28a3.52 3.52 0 0 1 2.77-3.13zm1.69.81c-.76.09-2.65.7-2.65 2.11 0 1.17 1.21 1.89 2.65 1.89s2.63-.72 2.63-1.89c.03-1.4-1.88-2.02-2.6-2.11zm0-5.2c-1.4 0-2.45.67-2.45 1.8s1.71 1.75 2.45 1.87c.74-.13 2.43-.59 2.43-1.87s-1.05-1.8-2.4-1.8zm6.15 2.18a2.83 2.83 0 0 0 1.22-1.69.88.88 0 0 1-.27.05 1 1 0 0 1-1-1 1.11 1.11 0 0 1 1.1-1.12 1.33 1.33 0 0 1 1.26 1.49A3.59 3.59 0 0 1 20.6 454zm3.11 0a2.91 2.91 0 0 0 1.22-1.69.88.88 0 0 1-.27.05 1 1 0 0 1-1-1 1.12 1.12 0 0 1 1.1-1.12 1.33 1.33 0 0 1 1.26 1.49 3.62 3.62 0 0 1-1.57 2.9zm9.49 6.48v-5.35H31v-1.42h1.44v-2.38h1.62v2.38h1.76v1.42h-1.76v5c0 .61.29 1.06.85 1.06a1.25 1.25 0 0 0 .88-.34l.41 1.22a2.31 2.31 0 0 1-1.69.56 1.89 1.89 0 0 1-2.07-2.15zm10.56.97a3.73 3.73 0 0 1-2.85 1.2 2.89 2.89 0 0 1-3-2.88 2.81 2.81 0 0 1 3-2.85A3.63 3.63 0 0 1 43 457.4V456c0-1.08-.88-1.73-2.12-1.73a3.56 3.56 0 0 0-2.61 1.15l-.7-1.12a4.89 4.89 0 0 1 3.56-1.42c1.89 0 3.49.83 3.49 3v5.87H43zm0-2.43a2.76 2.76 0 0 0-2.23-1 1.75 1.75 0 1 0 0 3.46 2.75 2.75 0 0 0 2.23-1zm4.2-8.62h1.62v12H47.2zm4.2 0H53v12h-1.6zM6.22 138.19l-1.94 2-1.06-1.1 3.22-3.3H8v12H6.22zm5.25 7.6a1.14 1.14 0 0 1 1.13 1.12 1.15 1.15 0 0 1-1.13 1.09 1.14 1.14 0 0 1-1.12-1.13 1.12 1.12 0 0 1 1.12-1.08zm4.32-.85a4 4 0 0 0 3.28 1.51 2.4 2.4 0 0 0 2.61-2.34 2.32 2.32 0 0 0-2.57-2.36 3.69 3.69 0 0 0-2.7 1.08l-1.3-.41v-6.59h7.6v1.58h-5.8v3.84a4 4 0 0 1 2.75-1.06A3.7 3.7 0 0 1 23.5 144c0 2.47-1.87 4-4.41 4a5.21 5.21 0 0 1-4.36-1.89zm9.58-5.51a2.83 2.83 0 0 0 1.22-1.69.88.88 0 0 1-.27.05 1 1 0 0 1-1-1 1.11 1.11 0 0 1 1.1-1.12 1.33 1.33 0 0 1 1.26 1.49 3.59 3.59 0 0 1-1.58 2.9zm3.11 0a2.91 2.91 0 0 0 1.22-1.69.88.88 0 0 1-.27.05 1 1 0 0 1-1-1 1.12 1.12 0 0 1 1.1-1.12 1.33 1.33 0 0 1 1.26 1.49 3.62 3.62 0 0 1-1.57 2.9zm9.52 6.49v-5.35h-1.47v-1.42H38v-2.38h1.62v2.38h1.76v1.42h-1.79v5c0 .61.29 1.06.85 1.06a1.24 1.24 0 0 0 .88-.34l.41 1.22a2.31 2.31 0 0 1-1.69.56 1.89 1.89 0 0 1-2.04-2.15zm10.52.97a3.73 3.73 0 0 1-2.85 1.17 2.89 2.89 0 0 1-3-2.88 2.81 2.81 0 0 1 3-2.85 3.63 3.63 0 0 1 2.85 1.15V142c0-1.08-.88-1.73-2.12-1.73a3.56 3.56 0 0 0-2.61 1.15l-.7-1.12a4.89 4.89 0 0 1 3.57-1.42c1.89 0 3.49.83 3.49 3v5.87h-1.63zm0-2.43a2.76 2.76 0 0 0-2.23-1 1.75 1.75 0 1 0 0 3.46 2.75 2.75 0 0 0 2.23-1zm4.21-8.63h1.62v12h-1.62zm4.19 0h1.62v12h-1.62zm566.43-63.34c4.5-3.46 6.57-5.26 6.57-7.15a2.08 2.08 0 0 0-2.34-2 4.12 4.12 0 0 0-3.26 1.48l-1.06-1.17a5.49 5.49 0 0 1 4.3-1.91c2.16 0 4.2 1.22 4.2 3.62s-2.25 4.45-5.55 7h5.6v1.58h-8.46zm10.73-6.98a2.83 2.83 0 0 0 1.22-1.69.88.88 0 0 1-.27.05 1 1 0 0 1-1-1 1.11 1.11 0 0 1 1.1-1.12 1.33 1.33 0 0 1 1.26 1.49 3.59 3.59 0 0 1-1.58 2.9zm3.11 0a2.91 2.91 0 0 0 1.22-1.69.88.88 0 0 1-.27.05 1 1 0 0 1-1-1 1.12 1.12 0 0 1 1.1-1.12 1.33 1.33 0 0 1 1.26 1.49 3.62 3.62 0 0 1-1.57 2.9zm14.56 1.73l-2.14 6.68h-1.67l-2.74-8.7h1.69l2 6.63 2.18-6.63h1.4l2.18 6.63 2-6.63h1.69l-2.74 8.7h-1.7zm7.74-4.5a1.06 1.06 0 0 1 1-1 1 1 0 0 1 1 1 1 1 0 0 1-1 1 1 1 0 0 1-1-1zm.25 2.48h1.62v8.7h-1.62zm10.39 7.45a3.6 3.6 0 0 1-2.84 1.46c-2.27 0-3.89-1.71-3.89-4.56S665 65 667.29 65a3.54 3.54 0 0 1 2.84 1.48v-4.57h1.62v12h-1.62zm0-5a3 3 0 0 0-2.41-1.28c-1.62 0-2.63 1.31-2.63 3.13s1 3.12 2.63 3.12a3 3 0 0 0 2.41-1.26zm8.03-2.67c2.61 0 4.23 2 4.23 4.7v.4h-6.88a2.85 2.85 0 0 0 3 2.7 3.7 3.7 0 0 0 2.58-1l.76 1.06a4.89 4.89 0 0 1-3.49 1.3 4.57 4.57 0 0 1-.14-9.13zm-2.67 3.93h5.31a2.57 2.57 0 0 0-2.65-2.59 2.66 2.66 0 0 0-2.66 2.59zm251.3-7.2a4.44 4.44 0 0 1 3.38 1.39l-.88 1.37a3 3 0 0 0-2.5-1.15c-2.18 0-3.28 2.11-3.28 4.34a2.86 2.86 0 0 0 0 .4 4.19 4.19 0 0 1 3.3-1.76 3.69 3.69 0 0 1 4 3.85 4 4 0 0 1-4.32 4c-3.44 0-4.79-2.9-4.79-6.19s1.66-6.25 5.09-6.25zm-.41 6.12a3.49 3.49 0 0 0-2.83 1.6c.14 1.4.88 3.08 2.84 3.08a2.42 2.42 0 0 0 2.61-2.32 2.33 2.33 0 0 0-2.62-2.36zm7.34 4.01a1.14 1.14 0 0 1 1.14 1.14 1.15 1.15 0 0 1-1.13 1.13 1.14 1.14 0 0 1-1.12-1.13 1.12 1.12 0 0 1 1.11-1.14zM938 71a4 4 0 0 0 3.28 1.51 2.4 2.4 0 0 0 2.61-2.34 2.32 2.32 0 0 0-2.57-2.36 3.69 3.69 0 0 0-2.7 1.08l-1.3-.41v-6.57H945v1.58h-5.8v3.84a4 4 0 0 1 2.75-1.06 3.7 3.7 0 0 1 3.83 3.85c0 2.47-1.87 4-4.41 4a5.21 5.21 0 0 1-4.37-1.88zm9.62-5.49a2.83 2.83 0 0 0 1.22-1.69.87.87 0 0 1-.27.05 1 1 0 0 1-1-1 1.11 1.11 0 0 1 1.1-1.12 1.33 1.33 0 0 1 1.33 1.47 3.59 3.59 0 0 1-1.58 2.9zm3.12 0a2.91 2.91 0 0 0 1.26-1.69.88.88 0 0 1-.27.05 1 1 0 0 1-1-1 1.12 1.12 0 0 1 1.1-1.12 1.33 1.33 0 0 1 1.26 1.49 3.62 3.62 0 0 1-1.57 2.9zm14.56 1.73l-2.14 6.68h-1.67l-2.74-8.7h1.69l2 6.63 2.18-6.63H966l2.18 6.63 2-6.63h1.69l-2.74 8.7h-1.67zm7.7-4.5a1.06 1.06 0 0 1 1-1 1 1 0 0 1 1 1 1 1 0 0 1-1 1 1 1 0 0 1-1-1zm.25 2.48h1.62v8.7h-1.62zm10.42 7.45a3.6 3.6 0 0 1-2.84 1.46c-2.27 0-3.89-1.71-3.89-4.56s1.62-4.57 3.89-4.57a3.54 3.54 0 0 1 2.84 1.48v-4.57h1.62v12h-1.62zm0-5a3 3 0 0 0-2.41-1.28c-1.62 0-2.63 1.31-2.63 3.13s1 3.12 2.63 3.12a3 3 0 0 0 2.41-1.26zM991.7 65c2.61 0 4.23 2 4.23 4.7v.4h-6.88a2.85 2.85 0 0 0 3 2.7 3.7 3.7 0 0 0 2.58-1l.76 1.06a4.89 4.89 0 0 1-3.49 1.3 4.57 4.57 0 0 1-.2-9.16zm-2.7 3.93h5.31a2.57 2.57 0 0 0-2.65-2.59 2.66 2.66 0 0 0-2.66 2.59zm243.35 3.56c4.5-3.46 6.57-5.26 6.57-7.15a2.08 2.08 0 0 0-2.34-2 4.12 4.12 0 0 0-3.26 1.48l-1.06-1.17a5.49 5.49 0 0 1 4.3-1.91c2.16 0 4.2 1.22 4.2 3.62s-2.25 4.45-5.54 7h5.6v1.58h-8.46zm10.72-6.98a2.83 2.83 0 0 0 1.22-1.69.88.88 0 0 1-.27.05 1 1 0 0 1-1-1 1.11 1.11 0 0 1 1.1-1.12 1.33 1.33 0 0 1 1.26 1.49 3.59 3.59 0 0 1-1.58 2.9zm3.12 0a2.91 2.91 0 0 0 1.22-1.69.89.89 0 0 1-.27.05 1 1 0 0 1-1-1 1.12 1.12 0 0 1 1.1-1.12 1.33 1.33 0 0 1 1.26 1.49 3.62 3.62 0 0 1-1.57 2.9zm14.56 1.73l-2.14 6.68h-1.67l-2.74-8.7h1.69l2 6.63 2.18-6.63h1.4l2.18 6.63 2-6.63h1.69l-2.74 8.7h-1.67zm7.74-4.5a1.06 1.06 0 0 1 1-1 1 1 0 0 1 1 1 1 1 0 0 1-1 1 1 1 0 0 1-1-1zm.25 2.48h1.62v8.7h-1.62zm10.39 7.45a3.6 3.6 0 0 1-2.84 1.46c-2.27 0-3.89-1.71-3.89-4.56s1.6-4.57 3.88-4.57a3.54 3.54 0 0 1 2.84 1.48v-4.57h1.62v12h-1.62zm0-5a3 3 0 0 0-2.41-1.28c-1.62 0-2.63 1.31-2.63 3.13s1 3.12 2.63 3.12a3 3 0 0 0 2.41-1.26zm8.03-2.67c2.61 0 4.23 2 4.23 4.7v.4h-6.88a2.85 2.85 0 0 0 3 2.7 3.7 3.7 0 0 0 2.58-1l.76 1.06a4.89 4.89 0 0 1-3.49 1.3 4.57 4.57 0 0 1-.14-9.13zm-2.67 3.93h5.31a2.57 2.57 0 0 0-2.65-2.59 2.66 2.66 0 0 0-2.66 2.59z" class="cls-3"/><path d="M74.27 30.75h1259" class="cls-5"/><path d="M73.77 27.5h1V34h-1zm1259 0h1V34h-1z" class="cls-6"/><path d="M640.11 13.91h127.31v29.46H640.11z" class="cls-7"/><path d="M653.39 24.3l-2.64 2.7-1.94-2 5-5.06h3v16h-3.43zM667 22.91h-8v-3h12v2.38l-6 13.63h-3.74zm5.3 9.39a1.94 1.94 0 1 1-1.94 1.94 2 2 0 0 1 1.94-1.94zm6.12-.79a5.84 5.84 0 0 0 4.27 1.73c1.9 0 3-1.08 3-2.4s-1.06-2.45-2.88-2.45a4.62 4.62 0 0 0-3.36 1.32l-2.38-.65v-9.15h11v2.93h-7.66v4a5.52 5.52 0 0 1 3.6-1.32 5 5 0 0 1 5.14 5.16c0 3.38-2.54 5.52-6.41 5.52a8 8 0 0 1-6.17-2.4zm12.91-6a4 4 0 0 0 1.85-2.28 1.07 1.07 0 0 1-.46.1 1.64 1.64 0 0 1-1.63-1.73 1.92 1.92 0 0 1 1.91-1.93 2.23 2.23 0 0 1 2.16 2.45 5.6 5.6 0 0 1-2.47 4.46zm4.87 0a4.19 4.19 0 0 0 1.87-2.28 1.2 1.2 0 0 1-.48.1 1.64 1.64 0 0 1-1.59-1.74 1.92 1.92 0 0 1 1.9-1.92 2.21 2.21 0 0 1 2.1 2.45 5.53 5.53 0 0 1-2.47 4.46zM716.37 28l-2.45 7.9h-3.26l-3.53-11.59h3.17l2.16 7.8 2.54-7.8h2.71l2.54 7.8 2.16-7.8h3.17l-3.53 11.59h-3.24zm10.41-7.2a1.82 1.82 0 1 1 1.82 1.82 1.84 1.84 0 0 1-1.82-1.82zm.31 3.53h3v11.59h-3zm14.05 10.13a4.55 4.55 0 0 1-3.58 1.75c-2.93 0-5.14-2.21-5.14-6.07s2.18-6.1 5.14-6.1a4.47 4.47 0 0 1 3.58 1.78v-5.9h3.07v16h-3.07zm0-6.38a3.35 3.35 0 0 0-2.64-1.32c-1.73 0-2.93 1.37-2.93 3.38s1.2 3.36 2.93 3.36a3.35 3.35 0 0 0 2.64-1.32zM752.49 24c3.46 0 5.81 2.59 5.81 6.38v.67h-8.62a3.12 3.12 0 0 0 3.32 2.74 4.74 4.74 0 0 0 3.1-1.15l1.34 2a7.15 7.15 0 0 1-4.78 1.61 5.87 5.87 0 0 1-6.19-6.1 5.9 5.9 0 0 1 6.02-6.15zm-2.86 5h5.71a2.69 2.69 0 0 0-2.86-2.57 2.79 2.79 0 0 0-2.85 2.57z" class="cls-3"/><path d="M1404.56 80.84v791" class="cls-5"/><path d="M1401.31 80.34h6.5v1h-6.5zm0 791h6.5v1h-6.5z" class="cls-6"/><path d="M1345.8 439.74h127.31v29.46H1345.8z" class="cls-7"/><path d="M1379.22 450.14l-2.64 2.71-1.94-2 5-5.06h3v16h-3.43zm9.86 0l-2.64 2.71-1.94-2 5-5.06h3v16h-3.43zm6.39 1.2a4 4 0 0 0 1.85-2.28 1.07 1.07 0 0 1-.46.1 1.64 1.64 0 0 1-1.63-1.73 1.92 1.92 0 0 1 1.87-1.92 2.23 2.23 0 0 1 2.16 2.45 5.6 5.6 0 0 1-2.47 4.46zm4.87 0a4.18 4.18 0 0 0 1.87-2.28 1.2 1.2 0 0 1-.48.1 1.64 1.64 0 0 1-1.63-1.73 1.92 1.92 0 0 1 1.9-1.92 2.21 2.21 0 0 1 2.14 2.45 5.53 5.53 0 0 1-2.47 4.46zm13.03 7.54v-6h-1.92v-2.66h1.92V447h3.07v3.17h2.35v2.66h-2.35v5.23c0 .72.38 1.27 1.06 1.27a1.67 1.67 0 0 0 1.06-.34l.65 2.3a3.76 3.76 0 0 1-2.54.74c-2.15-.03-3.3-1.09-3.3-3.15zm14.47 1.68a4.8 4.8 0 0 1-3.67 1.49 3.86 3.86 0 0 1-4-3.84c0-2.71 2.18-3.7 4-3.7a4.68 4.68 0 0 1 3.67 1.42v-1.61c0-1.18-1-1.94-2.54-1.94a4.88 4.88 0 0 0-3.38 1.37l-1.15-2a7.6 7.6 0 0 1 5.06-1.82c2.64 0 5.06 1.06 5.06 4.39v7.49h-3zm0-3a3 3 0 0 0-2.45-1c-1.2 0-2.18.65-2.18 1.75s1 1.7 2.18 1.7a3 3 0 0 0 2.45-1zm6.07-11.81h3v16h-3zm6.09 0h3v16h-3z" class="cls-3"/></g></svg>