<svg xmlns="http://www.w3.org/2000/svg" xmlns:xlink="http://www.w3.org/1999/xlink" id="Layer_1" viewBox="0 0 983.22 870.1" width="983.22" height="870.1"><defs><style>.cls-1,.cls-4{fill:#fff}.cls-1,.cls-2{stroke:#00adee}.cls-1,.cls-2,.cls-4,.cls-5{stroke-miterlimit:10}.cls-1{stroke-width:8px}.cls-2,.cls-5{fill:none}.cls-2{stroke-width:10px}.cls-3{fill:#231f20}.cls-4,.cls-5{stroke:red;stroke-width:9px}</style><symbol id="Corner_Handle" viewBox="0 0 40 40"><path d="M4 4h32v32H4z" class="cls-1"/></symbol></defs><path d="M44.73 42.57H935.5V828.5H44.73z" class="cls-2"/><use width="40" height="40" transform="translate(25 23)" xlink:href="#Corner_Handle"/><use width="40" height="40" transform="translate(916 23)" xlink:href="#Corner_Handle"/><use width="40" height="40" transform="translate(25 809)" xlink:href="#Corner_Handle"/><use width="40" height="40" transform="translate(916 809)" xlink:href="#Corner_Handle"/><path d="M80.65 64.24h10.18v49.07h25.58v9H80.65zm40.81 36.97c0-12 8.26-22 21.58-22 13.49 0 21.66 10 21.66 22s-8.18 22.1-21.66 22.1c-13.32 0-21.58-10-21.58-22.1zm33.76 0c0-7.4-4.35-13.92-12.18-13.92s-12.09 6.53-12.09 13.92 4.35 14 12.09 14 12.17-6.51 12.17-14zm18.7-20.96h9.14v6.18c3.13-4 8.18-7.13 13.66-7.13v9a13.48 13.48 0 0 0-2.87-.26c-3.83 0-9 2.61-10.79 5.57v28.62h-9.14zm48.89-1.05c12.62 0 20.71 9.66 20.71 22.88v2.18h-32.45c.7 6.35 5.48 11.57 13.4 11.57a17.79 17.79 0 0 0 11.92-4.61l4.18 6c-4.18 4-10.35 6.09-17.05 6.09-12.62 0-22-8.79-22-22.1-.02-12.21 8.85-22.01 21.29-22.01zM211 97.82h23.67c-.17-5-3.57-11.14-11.83-11.14-7.84 0-11.43 6.01-11.84 11.14zm93.07-2.96c0-4.52-2-7.57-6.87-7.57-4.09 0-7.92 2.87-9.74 5.57v29.41h-9.14V94.86c0-4.52-2-7.57-7-7.57-4 0-7.74 2.87-9.66 5.66v29.32h-9.14v-42h9.14V86c1.74-2.61 7.31-6.79 13.66-6.79s10.09 3.13 11.48 7.74a17.82 17.82 0 0 1 14.27-7.74c7.74 0 12.09 4.18 12.09 12.7v30.37h-9.14zm42.19-27.23a5.66 5.66 0 1 1 5.66 5.66 5.7 5.7 0 0 1-5.66-5.66zm1.13 12.62h9.14v42h-9.14zm20.97 58.03v-58h9.14V86a16.77 16.77 0 0 1 13.5-6.8c10.88 0 18.62 8.18 18.62 22s-7.74 22.1-18.62 22.1a16.5 16.5 0 0 1-13.49-6.87v21.84zm19.92-51a13.64 13.64 0 0 0-10.79 5.66v16.62a13.88 13.88 0 0 0 10.79 5.66c7.22 0 11.83-5.83 11.83-14s-4.61-13.93-11.83-13.93zm31.06 22.9a21.69 21.69 0 0 0 14.27 5.92c5.48 0 8.27-2 8.27-5.13 0-3.65-4.44-5-9.57-6.09-7.22-1.57-15.83-3.48-15.83-12.88 0-6.87 5.92-12.79 16.53-12.79a24 24 0 0 1 16.36 5.92l-3.83 6.44c-2.52-2.87-7.22-5-12.44-5-4.79 0-7.83 1.74-7.83 4.7 0 3.22 4.18 4.35 9.14 5.48 7.31 1.57 16.27 3.65 16.27 13.57 0 7.4-6.18 13.05-17.49 13.05-7.13 0-13.66-2.26-18-6.53zm68.9 6.52a20.14 20.14 0 0 1-14.88 6.61c-9 0-13.49-4.7-13.49-13.31V80.25H469v26.45c0 6.53 3.31 8.53 8.44 8.53a14 14 0 0 0 10.79-5.48v-29.5h9.14v42h-9.14zm72.48-21.84c0-4.52-2-7.57-6.87-7.57-4.09 0-7.92 2.87-9.74 5.57v29.41H535V94.86c0-4.52-2-7.57-7-7.57-4 0-7.74 2.87-9.66 5.66v29.32h-9.14v-42h9.14V86c1.74-2.61 7.31-6.79 13.66-6.79s10.09 3.13 11.48 7.74a17.82 17.82 0 0 1 14.27-7.74c7.74 0 12.09 4.18 12.09 12.7v30.37h-9.14zm72.9 21.67a17 17 0 0 1-13.49 6.79c-10.79 0-18.71-8.18-18.71-22 0-13.57 7.83-22.1 18.71-22.1a16.86 16.86 0 0 1 13.49 6.87V64.24h9.14v58h-9.14zm0-23.58a13.81 13.81 0 0 0-10.87-5.66c-7.22 0-11.83 5.83-11.83 14s4.61 13.92 11.83 13.92a13.73 13.73 0 0 0 10.88-5.57zm18.38 8.26c0-12 8.26-22 21.58-22 13.49 0 21.66 10 21.66 22s-8.18 22.1-21.66 22.1c-13.34 0-21.58-10-21.58-22.1zm33.76 0c0-7.4-4.35-13.92-12.18-13.92s-12.09 6.53-12.09 13.92 4.35 14 12.09 14 12.15-6.51 12.15-14zm18.67-36.97h9.14v58h-9.14zm18.36 36.97c0-12 8.26-22 21.58-22 13.49 0 21.66 10 21.66 22s-8.18 22.1-21.66 22.1c-13.31 0-21.58-10-21.58-22.1zm33.76 0c0-7.4-4.35-13.92-12.18-13.92s-12.09 6.53-12.09 13.92 4.35 14 12.09 14 12.18-6.51 12.18-14zm18.7-20.96h9.14v6.18c3.13-4 8.18-7.13 13.66-7.13v9a13.48 13.48 0 0 0-2.87-.26c-3.83 0-9 2.61-10.79 5.57v28.62h-9.14zM80.92 214.58a21.69 21.69 0 0 0 14.27 5.92c5.48 0 8.27-2 8.27-5.13 0-3.65-4.44-5-9.57-6.09C86.66 207.7 78 205.79 78 196.39c0-6.87 5.92-12.79 16.53-12.79a24 24 0 0 1 16.36 5.92L107.1 196c-2.52-2.87-7.22-5-12.44-5-4.79 0-7.83 1.74-7.83 4.7 0 3.22 4.18 4.35 9.14 5.48 7.31 1.57 16.27 3.65 16.27 13.57 0 7.4-6.18 13.05-17.49 13.05-7.13 0-13.66-2.26-18-6.53zm39.4-42.58a5.66 5.66 0 1 1 5.66 5.66 5.7 5.7 0 0 1-5.66-5.66zm1.13 12.62h9.14v42h-9.14zm22.8 32.31v-24.28h-7v-8h7v-11.49h9.14v11.49h8.53v8h-8.53v22c0 2.87 1.39 5 4 5a5.9 5.9 0 0 0 4.09-1.48l2.17 6.87c-1.65 1.57-4.35 2.7-8.61 2.7-7.04-.03-10.79-3.85-10.79-10.81zm73.95 5.22c-3.13 3.57-8 5.57-13.57 5.57-6.87 0-14.62-4.61-14.62-13.92 0-9.66 7.74-13.66 14.62-13.66 5.66 0 10.53 1.83 13.57 5.39v-6.26c0-4.87-4-7.83-9.83-7.83a17.21 17.21 0 0 0-12.44 5.31l-3.74-6.35a25 25 0 0 1 17.66-6.79c9.31 0 17.49 3.92 17.49 15.23v27.84h-9.14zm0-11.4c-2.09-2.87-6-4.35-10-4.35-5.13 0-9 3-9 7.57s3.83 7.48 9 7.48c4 0 7.92-1.48 10-4.35zm72.47-11.49c0-4.52-2-7.57-6.87-7.57-4.09 0-7.92 2.87-9.74 5.57v29.41h-9.14v-27.41c0-4.52-2-7.57-7-7.57-4 0-7.74 2.87-9.66 5.66v29.32h-9.14v-42h9.14v5.74c1.74-2.61 7.31-6.79 13.66-6.79s10.09 3.13 11.48 7.74a17.82 17.82 0 0 1 14.27-7.74c7.74 0 12.09 4.18 12.09 12.7v30.37h-9.14zm39.67-15.66c12.62 0 20.71 9.66 20.71 22.88v2.18H318.6c.7 6.35 5.48 11.57 13.4 11.57a17.79 17.79 0 0 0 11.92-4.61l4.18 6c-4.18 4-10.35 6.09-17.05 6.09-12.62 0-22-8.79-22-22.1-.05-12.18 8.85-22.01 21.29-22.01zm-11.83 18.62h23.67c-.17-5-3.57-11.14-11.83-11.14-7.84 0-11.41 6.01-11.84 11.14zm43.41 14.71v-24.28h-7v-8h7v-11.49h9.14v11.49h8.53v8h-8.53v22c0 2.87 1.39 5 4 5a5.9 5.9 0 0 0 4.09-1.48l2.17 6.87c-1.65 1.57-4.35 2.7-8.61 2.7-7.05-.03-10.79-3.85-10.79-10.81zm24.97 17.92c2.78-1.65 5.66-5.22 6.26-8.18a5.68 5.68 0 0 1-1.48.26 5.19 5.19 0 0 1-5.22-5.48 6 6 0 0 1 5.92-6c3.57 0 6.79 2.87 6.79 7.92 0 6-3.39 11.49-8.18 14.88zm63.77-51.25c8.18 0 13.14 3.48 16.1 7.48l-6 5.57a11.22 11.22 0 0 0-9.66-5c-7.66 0-12.7 5.74-12.7 13.92s5 14 12.7 14a11.42 11.42 0 0 0 9.66-5l6 5.57c-3 4-7.92 7.48-16.1 7.48-12.79 0-21.75-9.31-21.75-22.1s8.96-21.92 21.75-21.92zm21.49 22.01c0-12 8.26-22 21.58-22 13.49 0 21.66 10 21.66 22s-8.18 22.1-21.66 22.1c-13.32 0-21.58-10-21.58-22.1zm33.76 0c0-7.4-4.35-13.92-12.18-13.92s-12.09 6.53-12.09 13.92 4.35 14 12.09 14 12.17-6.51 12.17-14zm47.09-5.22c0-6.53-3.31-8.7-8.44-8.7a13.83 13.83 0 0 0-10.79 5.66v29.32h-9.14v-42h9.14v5.74a19.88 19.88 0 0 1 14.79-6.79c9 0 13.57 4.87 13.57 13.49v29.58H553zm21.46 14.19a21.69 21.69 0 0 0 14.27 5.92c5.48 0 8.27-2 8.27-5.13 0-3.65-4.44-5-9.57-6.09-7.22-1.57-15.83-3.48-15.83-12.88 0-6.87 5.92-12.79 16.53-12.79a24 24 0 0 1 16.36 5.92l-3.84 6.47c-2.52-2.87-7.22-5-12.44-5-4.79 0-7.83 1.74-7.83 4.7 0 3.22 4.18 4.35 9.14 5.48 7.31 1.57 16.27 3.65 16.27 13.57 0 7.4-6.18 13.05-17.49 13.05-7.13 0-13.66-2.26-18-6.53zm59.24-30.98c12.62 0 20.71 9.66 20.71 22.88v2.18H622c.7 6.35 5.48 11.57 13.4 11.57a17.79 17.79 0 0 0 11.92-4.61l4.18 6c-4.18 4-10.35 6.09-17.05 6.09-12.62 0-22-8.79-22-22.1-.06-12.18 8.81-22.01 21.25-22.01zm-11.83 18.62h23.67c-.17-5-3.57-11.14-11.83-11.14-7.84 0-11.4 6.01-11.84 11.14zm60.73-18.62c8.18 0 13.14 3.48 16.1 7.48l-6 5.57a11.22 11.22 0 0 0-9.66-5c-7.66 0-12.7 5.74-12.7 13.92s5 14 12.7 14a11.42 11.42 0 0 0 9.66-5l6 5.57c-3 4-7.92 7.48-16.1 7.48-12.79 0-21.75-9.31-21.75-22.1s8.96-21.92 21.75-21.92zm20.79 18.1h20.88v7.83h-20.88zM82.22 321.32V297h-7v-8h7v-11.44h9.14V289h8.53v8h-8.53v22c0 2.87 1.39 5 4 5a5.9 5.9 0 0 0 4.09-1.48l2.17 6.87c-1.65 1.57-4.35 2.7-8.61 2.7-7.01.02-10.79-3.8-10.79-10.77zM126.85 288c12.62 0 20.71 9.66 20.71 22.88v2.18h-32.45c.7 6.35 5.48 11.57 13.4 11.57a17.79 17.79 0 0 0 11.91-4.63l4.18 6c-4.18 4-10.35 6.09-17.05 6.09-12.62 0-22-8.79-22-22.1-.01-12.16 8.86-21.99 21.3-21.99zM115 306.62h23.67c-.17-5-3.57-11.14-11.83-11.14-7.84 0-11.39 6.01-11.84 11.14zm43.43 14.7V297h-7v-8h7v-11.44h9.14V289h8.53v8h-8.53v22c0 2.87 1.39 5 4 5a5.9 5.9 0 0 0 4.09-1.48l2.17 6.87c-1.65 1.57-4.35 2.7-8.61 2.7-7.05.02-10.79-3.8-10.79-10.77zm54.29 4.18a20.14 20.14 0 0 1-14.88 6.61c-9 0-13.49-4.7-13.49-13.31V289h9.14v26.5c0 6.53 3.31 8.53 8.44 8.53a14 14 0 0 0 10.79-5.48V289h9.14v42h-9.14zm39.67-37.5c12.62 0 20.71 9.66 20.71 22.88v2.18h-32.46c.7 6.35 5.48 11.57 13.4 11.57A17.79 17.79 0 0 0 266 320l4.18 6c-4.18 4-10.35 6.09-17.05 6.09-12.62 0-22-8.79-22-22.1-.06-12.16 8.82-21.99 21.26-21.99zm-11.83 18.62h23.67c-.17-5-3.57-11.14-11.83-11.14-7.84 0-11.4 6.01-11.84 11.14zM282.14 289h9.14v6.18c3.13-4 8.18-7.13 13.66-7.13v9a13.48 13.48 0 0 0-2.87-.26c-3.83 0-9 2.61-10.79 5.57v28.63h-9.14zm78.21 37.54c-3.13 3.57-8 5.57-13.57 5.57-6.87 0-14.62-4.61-14.62-13.92 0-9.66 7.74-13.66 14.62-13.66 5.66 0 10.53 1.83 13.57 5.39v-6.26c0-4.87-4-7.83-9.83-7.83a17.21 17.21 0 0 0-12.44 5.31l-3.74-6.35A25 25 0 0 1 352 288c9.31 0 17.49 3.92 17.49 15.23v27.84h-9.14zm0-11.4c-2.09-2.87-6-4.35-10-4.35-5.13 0-9 3-9 7.57s3.83 7.48 9 7.48c4 0 7.92-1.48 10-4.35zm50.55 10.19a17 17 0 0 1-13.49 6.79c-10.79 0-18.71-8.18-18.71-22 0-13.57 7.83-22.1 18.71-22.1a16.86 16.86 0 0 1 13.49 6.87V273h9.1v58h-9.1zm0-23.58a13.81 13.81 0 0 0-10.9-5.66c-7.22 0-11.83 5.83-11.83 14S392.8 324 400 324a13.73 13.73 0 0 0 10.88-5.57zm19.83-25.32a5.66 5.66 0 0 1 11.31 0 5.66 5.66 0 0 1-11.31 0zm1.14 12.57H441v42h-9.14zm20.96 58.08V289H462v5.74a16.77 16.77 0 0 1 13.45-6.74c10.88 0 18.62 8.18 18.62 22s-7.74 22.1-18.62 22.1a16.5 16.5 0 0 1-13.45-6.86v21.84zm19.92-51a13.64 13.64 0 0 0-10.75 5.67v16.62a13.88 13.88 0 0 0 10.76 5.63c7.22 0 11.83-5.83 11.83-14s-4.59-13.91-11.83-13.91zm29.41-19.65a5.66 5.66 0 0 1 11.31 0 5.66 5.66 0 0 1-11.31 0zm1.13 12.57h9.14v42h-9.14zm21.49 30a21.69 21.69 0 0 0 14.22 5.89c5.48 0 8.27-2 8.27-5.13 0-3.65-4.44-5-9.57-6.09-7.22-1.57-15.83-3.48-15.83-12.88 0-6.87 5.92-12.79 16.53-12.79a24 24 0 0 1 16.36 5.92l-3.76 6.44c-2.52-2.87-7.22-5-12.44-5-4.79 0-7.83 1.74-7.83 4.7 0 3.22 4.18 4.35 9.14 5.48 7.31 1.57 16.27 3.65 16.27 13.57 0 7.4-6.18 13.05-17.49 13.05-7.13 0-13.66-2.26-18-6.53zm59.68-31c8.18 0 13.14 3.48 16.1 7.48l-6 5.57a11.22 11.22 0 0 0-9.66-5c-7.66 0-12.7 5.74-12.7 13.92s5 14 12.7 14a11.42 11.42 0 0 0 9.66-5l6 5.57c-3 4-7.92 7.48-16.1 7.48-12.79 0-21.75-9.31-21.75-22.1S571.67 288 584.46 288zm22.97-11.57a5.66 5.66 0 1 1 11.31 0 5.66 5.66 0 1 1-11.31 0zm1.13 12.57h9.14v42h-9.14zm49.33 15.79c0-6.53-3.31-8.7-8.44-8.7a13.83 13.83 0 0 0-10.79 5.66v29.32h-9.14V289h9.14v5.74a19.88 19.88 0 0 1 14.79-6.74c9 0 13.57 4.87 13.57 13.49v29.58h-9.14zm24.7 30.46c3.39 3.92 7.74 5.39 13.31 5.39 6 0 12.44-2.78 12.44-11.4v-5a17.06 17.06 0 0 1-13.49 7c-10.7 0-18.62-7.74-18.62-21.58 0-13.57 7.83-21.58 18.62-21.58a16.74 16.74 0 0 1 13.49 6.87V289h9.14v39.85c0 15.14-11.22 19.23-21.58 19.23-7.13 0-12.44-1.57-17.58-6.26zm25.75-33.5a13.64 13.64 0 0 0-10.79-5.66c-7.22 0-11.83 5.39-11.83 13.49s4.61 13.49 11.83 13.49a13.63 13.63 0 0 0 10.79-5.66zM770.38 288c12.62 0 20.71 9.66 20.71 22.88v2.18h-32.46c.7 6.35 5.48 11.57 13.4 11.57A17.79 17.79 0 0 0 784 320l4.18 6c-4.18 4-10.35 6.09-17.05 6.09-12.62 0-22-8.79-22-22.1-.07-12.16 8.81-21.99 21.25-21.99zm-11.83 18.62h23.67c-.17-5-3.57-11.14-11.83-11.14-7.84 0-11.39 6.01-11.85 11.14zM800.13 273h9.14v58h-9.14zm19.87 3.43a5.66 5.66 0 0 1 11.31 0 5.66 5.66 0 0 1-11.31 0zm1.1 12.57h9.14v42h-9.14zm22.79 32.32V297h-7v-8h7v-11.44H853V289h8.53v8H853v22c0 2.87 1.39 5 4 5a5.9 5.9 0 0 0 4.09-1.48l2.17 6.87c-1.65 1.57-4.35 2.7-8.61 2.7-7.02.02-10.76-3.8-10.76-10.77zm24.97 17.93c2.78-1.65 5.66-5.22 6.26-8.18a5.68 5.68 0 0 1-1.48.26 5.19 5.19 0 0 1-5.22-5.48 6 6 0 0 1 5.92-6c3.57 0 6.79 2.87 6.79 7.92 0 6-3.39 11.49-8.18 14.88zM80.92 423.38a21.69 21.69 0 0 0 14.27 5.92c5.48 0 8.27-2 8.27-5.13 0-3.65-4.44-5-9.57-6.09C86.66 416.5 78 414.59 78 405.19c0-6.87 5.92-12.79 16.53-12.79a24 24 0 0 1 16.36 5.92l-3.83 6.44c-2.52-2.87-7.22-5-12.44-5-4.79 0-7.83 1.74-7.83 4.7 0 3.22 4.18 4.35 9.14 5.48 7.31 1.57 16.27 3.65 16.27 13.57 0 7.4-6.18 13.05-17.49 13.05-7.13 0-13.66-2.26-18-6.53zm59.24-30.98c12.62 0 20.71 9.66 20.71 22.88v2.18h-32.45c.7 6.35 5.48 11.57 13.4 11.57a17.79 17.79 0 0 0 11.92-4.61l4.18 6c-4.18 4-10.35 6.09-17.05 6.09-12.62 0-22-8.79-22-22.1-.02-12.18 8.85-22.01 21.29-22.01zM128.33 411H152c-.17-5-3.57-11.14-11.83-11.14-7.84.02-11.41 6.03-11.84 11.14zm71.17 18.73a17 17 0 0 1-13.5 6.78c-10.79 0-18.71-8.18-18.71-22 0-13.57 7.83-22.1 18.71-22.1a16.86 16.86 0 0 1 13.49 6.87v-21.84h9.14v58h-9.13zm0-23.58a13.81 13.81 0 0 0-10.87-5.66c-7.22 0-11.83 5.83-11.83 14s4.61 13.92 11.83 13.92a13.73 13.73 0 0 0 10.88-5.57zm72.9 23.58a17 17 0 0 1-13.49 6.79c-10.79 0-18.71-8.18-18.71-22 0-13.57 7.83-22.1 18.71-22.1a16.86 16.86 0 0 1 13.49 6.87v-21.85h9.14v58h-9.14zm0-23.58a13.81 13.81 0 0 0-10.87-5.66c-7.22 0-11.83 5.83-11.83 14s4.61 13.92 11.83 13.92a13.73 13.73 0 0 0 10.88-5.57zm19.83-25.32a5.66 5.66 0 0 1 11.31 0 5.66 5.66 0 1 1-11.31 0zm1.13 12.62h9.14v42h-9.14zm46.64 37.5c-3.13 3.57-8 5.57-13.57 5.57-6.87 0-14.62-4.61-14.62-13.92 0-9.66 7.74-13.66 14.62-13.66 5.66 0 10.53 1.83 13.57 5.39v-6.26c0-4.87-4-7.83-9.83-7.83a17.21 17.21 0 0 0-12.44 5.31l-3.73-6.36a25 25 0 0 1 17.66-6.79c9.31 0 17.49 3.92 17.49 15.23v27.84H340zm0-11.4c-2.09-2.87-6-4.35-10-4.35-5.13 0-9 3-9 7.57s3.83 7.48 9 7.48c4 0 7.92-1.48 10-4.35zm72.47-11.49c0-4.52-2-7.57-6.87-7.57-4.09 0-7.92 2.87-9.74 5.57v29.41h-9.14v-27.41c0-4.52-2-7.57-7-7.57-4 0-7.74 2.87-9.66 5.66v29.32H361v-42h9.14v5.74c1.74-2.61 7.31-6.79 13.66-6.79s10.09 3.13 11.48 7.74a17.82 17.82 0 0 1 14.27-7.74c7.74 0 12.09 4.18 12.09 12.7v30.37h-9.14zm71.69 1.13c0-6.53-3.31-8.7-8.44-8.7a13.83 13.83 0 0 0-10.79 5.66v29.32h-9.14v-42h9.14v5.74a19.88 19.88 0 0 1 14.79-6.79c9 0 13.57 4.87 13.57 13.49v29.58h-9.14zm18.35 5.22c0-12 8.26-22 21.58-22 13.49 0 21.66 10 21.66 22s-8.18 22.1-21.66 22.1c-13.31 0-21.58-10-21.58-22.1zm33.76 0c0-7.4-4.35-13.92-12.18-13.92S512 407 512 414.41s4.35 14 12.09 14 12.18-6.51 12.18-14zm47.07-5.22c0-6.53-3.31-8.7-8.44-8.7a13.83 13.83 0 0 0-10.79 5.66v29.32H555v-42h9.14v5.74a19.88 19.88 0 0 1 14.79-6.79c9 0 13.57 4.87 13.57 13.49v29.58h-9.14zm49.32 20.71a20.14 20.14 0 0 1-14.88 6.61c-9 0-13.49-4.7-13.49-13.31v-29.75h9.14v26.45c0 6.53 3.31 8.53 8.44 8.53a14 14 0 0 0 10.79-5.48v-29.5h9.14v42h-9.14zm72.48-21.84c0-4.52-2-7.57-6.87-7.57-4.09 0-7.92 2.87-9.74 5.57v29.41h-9.14v-27.41c0-4.52-2-7.57-7-7.57-4 0-7.74 2.87-9.66 5.66v29.32h-9.14v-42h9.14v5.74c1.74-2.61 7.31-6.79 13.66-6.79s10.09 3.13 11.48 7.74a17.82 17.82 0 0 1 14.27-7.74c7.74 0 12.09 4.18 12.09 12.7v30.37h-9.14zm72.47 0c0-4.52-2-7.57-6.87-7.57-4.09 0-7.92 2.87-9.74 5.57v29.41h-9.14v-27.41c0-4.52-2-7.57-7-7.57-4 0-7.74 2.87-9.66 5.66v29.32h-9.1v-42h9.14v5.74c1.74-2.61 7.31-6.79 13.66-6.79s10.09 3.13 11.48 7.74a17.82 17.82 0 0 1 14.27-7.74c7.74 0 12.09 4.18 12.09 12.7v30.37h-9.14zm24.01 36.37c2.87 0 4.79-.87 6-3.65l2.09-4.79-17.23-42.55h9.74l12.27 31.5 12.27-31.5h9.83L816.32 443c-2.87 7.13-7.92 9.4-14.44 9.48a25.88 25.88 0 0 1-5.13-.61l1.39-8.18a9.56 9.56 0 0 0 3.48.74zm-692.86 69.16c0-6.53-3.31-8.7-8.44-8.7a13.83 13.83 0 0 0-10.79 5.66v29.32h-9.14v-42h9.14v5.74a19.88 19.88 0 0 1 14.79-6.79c9 0 13.57 4.87 13.57 13.49v29.58h-9.14zm19.83-28.36a5.66 5.66 0 1 1 5.66 5.66 5.7 5.7 0 0 1-5.66-5.66zm1.13 12.62h9.14v42h-9.14zm20.97-16.01h9.14v21.84a16.62 16.62 0 0 1 13.49-6.87c10.79 0 18.62 8.53 18.62 22.1 0 13.83-7.92 22-18.62 22a16.9 16.9 0 0 1-13.49-6.79v5.74h-9.14zm19.92 51c7.31 0 11.92-5.74 11.92-13.92s-4.61-14-11.92-14a13.71 13.71 0 0 0-10.79 5.74v16.62c2 3.11 6.53 5.54 10.79 5.54zm59.08-19.42c0-6.53-3.39-8.53-8.53-8.53a14.12 14.12 0 0 0-10.79 5.66v29.32h-9.14v-58h9.14v21.75a20.09 20.09 0 0 1 14.88-6.79c9 0 13.57 4.7 13.57 13.31v29.76h-9.14zm62.02-16.62c12.62 0 20.71 9.66 20.71 22.88v2.18H280c.7 6.35 5.48 11.57 13.4 11.57a17.79 17.79 0 0 0 11.92-4.61l4.18 6c-4.18 4-10.35 6.09-17.05 6.09-12.62 0-22-8.79-22-22.1-.05-12.18 8.82-22.01 21.26-22.01zm-11.83 18.62h23.67c-.17-5-3.57-11.14-11.83-11.14-7.84 0-11.4 6.01-11.84 11.14zm69.95 18.88a20.14 20.14 0 0 1-14.83 6.61c-9 0-13.49-4.7-13.49-13.31v-29.75h9.14v26.45c0 6.53 3.31 8.53 8.44 8.53a14 14 0 0 0 10.79-5.48v-29.5H359v42h-9.14zm19.83-49.07a5.66 5.66 0 1 1 5.66 5.66 5.7 5.7 0 0 1-5.66-5.66zm1.13 12.62h9.14v42h-9.14zm21.49 29.93a21.69 21.69 0 0 0 14.27 5.92c5.48 0 8.27-2 8.27-5.13 0-3.65-4.44-5-9.57-6.09-7.22-1.57-15.83-3.48-15.83-12.88 0-6.87 5.92-12.79 16.53-12.79a24 24 0 0 1 16.36 5.92l-3.83 6.44c-2.52-2.87-7.22-5-12.44-5-4.79 0-7.83 1.74-7.83 4.7 0 3.22 4.18 4.35 9.14 5.48 7.31 1.57 16.27 3.65 16.27 13.57 0 7.4-6.18 13.05-17.49 13.05-7.13 0-13.66-2.26-18-6.53zm92.05-15.32c0-4.52-2-7.57-6.87-7.57-4.09 0-7.92 2.87-9.74 5.57v29.41h-9.14v-27.41c0-4.52-2-7.57-7-7.57-4 0-7.74 2.87-9.66 5.66v29.32h-9.14v-42H442v5.74c1.74-2.61 7.31-6.79 13.66-6.79s10.09 3.13 11.48 7.74a17.82 17.82 0 0 1 14.27-7.74c7.74 0 12.09 4.18 12.09 12.7v30.37h-9.14zm18.35 6.35c0-12 8.26-22 21.58-22 13.49 0 21.66 10 21.66 22s-8.18 22.1-21.66 22.1c-13.31 0-21.58-10-21.58-22.1zm33.76 0c0-7.4-4.35-13.92-12.18-13.92s-12.09 6.53-12.09 13.92 4.35 14 12.09 14 12.18-6.51 12.18-14zm48.29 15.32a17 17 0 0 1-13.49 6.79c-10.79 0-18.71-8.18-18.71-22 0-13.57 7.83-22.1 18.71-22.1a16.86 16.86 0 0 1 13.49 6.87v-21.85h9.14v58h-9.14zm0-23.58a13.81 13.81 0 0 0-10.87-5.66c-7.22 0-11.83 5.83-11.83 14s4.61 13.92 11.83 13.92a13.73 13.73 0 0 0 10.88-5.57zm45.15 19.58v-24.28h-7v-8h7v-11.49H639v11.49h8.53v8H639v22c0 2.87 1.39 5 4 5a5.9 5.9 0 0 0 4.09-1.48l2.17 6.87c-1.65 1.57-4.35 2.7-8.61 2.7-7.03-.03-10.77-3.86-10.77-10.81zm24.79-44.9a5.66 5.66 0 1 1 5.66 5.66 5.7 5.7 0 0 1-5.66-5.66zm1.13 12.62h9.14v42h-9.14zm49.33 15.74c0-6.53-3.31-8.7-8.44-8.7a13.83 13.83 0 0 0-10.79 5.66v29.32h-9.14v-42h9.14v5.74a19.88 19.88 0 0 1 14.79-6.79c9 0 13.57 4.87 13.57 13.49v29.58h-9.14zm40.11-16.79c8.18 0 13.14 3.48 16.1 7.48l-6 5.57a11.22 11.22 0 0 0-9.66-5c-7.66 0-12.7 5.74-12.7 13.92s5 14 12.7 14a11.42 11.42 0 0 0 9.66-5l6 5.57c-3 4-7.92 7.48-16.1 7.48-12.79 0-21.75-9.31-21.75-22.1s8.96-21.92 21.75-21.92zm22.96-11.57a5.66 5.66 0 1 1 5.66 5.66 5.7 5.7 0 0 1-5.66-5.66zm1.13 12.62h9.14v42h-9.14zm50.55 36.28a17 17 0 0 1-13.49 6.79c-10.79 0-18.71-8.18-18.71-22 0-13.57 7.83-22.1 18.71-22.1a16.86 16.86 0 0 1 13.49 6.87v-21.85H829v58h-9.14zm0-23.58a13.81 13.81 0 0 0-10.88-5.66c-7.22 0-11.83 5.83-11.83 14s4.61 13.92 11.83 13.92a13.73 13.73 0 0 0 10.88-5.57zm17.66 4.35h20.88v7.83h-20.88zM108.76 638.7a20.14 20.14 0 0 1-14.88 6.61c-9 0-13.49-4.7-13.49-13.31v-29.75h9.14v26.45c0 6.53 3.31 8.53 8.44 8.53a14 14 0 0 0 10.79-5.48v-29.5h9.14v42h-9.14zm49.32-20.7c0-6.53-3.31-8.7-8.44-8.7a13.83 13.83 0 0 0-10.79 5.66v29.32h-9.14v-42h9.14V608a19.88 19.88 0 0 1 14.79-6.79c9 0 13.57 4.87 13.57 13.49v29.58h-9.14zm22.8 16.53v-24.28h-7v-8h7v-11.49H190v11.49h8.53v8H190v22c0 2.87 1.39 5 4 5a5.9 5.9 0 0 0 4.09-1.48l2.17 6.87c-1.65 1.57-4.35 2.7-8.61 2.7-7.03-.03-10.77-3.85-10.77-10.81zm76.64 4.17a20.14 20.14 0 0 1-14.88 6.61c-9 0-13.49-4.7-13.49-13.31v-29.75h9.14v26.45c0 6.53 3.31 8.53 8.44 8.53a14 14 0 0 0 10.79-5.48v-29.5h9.14v42h-9.14zm22.79-4.17v-24.28h-7v-8h7v-11.49h9.14v11.49H298v8h-8.53v22c0 2.87 1.39 5 4 5a5.9 5.9 0 0 0 4.09-1.48l2.17 6.87c-1.65 1.57-4.35 2.7-8.61 2.7-7.06-.03-10.81-3.85-10.81-10.81zm48.29-48.29h9.14v58h-9.14zm46.63 53.51c-3.13 3.57-8 5.57-13.57 5.57-6.87 0-14.62-4.61-14.62-13.92 0-9.66 7.74-13.66 14.62-13.66 5.66 0 10.53 1.83 13.57 5.39v-6.26c0-4.87-4-7.83-9.83-7.83a17.21 17.21 0 0 0-12.4 5.3l-3.78-6.34a25 25 0 0 1 17.66-6.79c9.31 0 17.49 3.92 17.49 15.23v27.84h-9.14zm0-11.4c-2.09-2.87-6-4.35-10-4.35-5.13 0-9 3-9 7.57s3.83 7.48 9 7.48c4 0 7.92-1.48 10-4.35zm18.36-5.14c0-12 8.26-22 21.58-22 13.49 0 21.66 10 21.66 22s-8.18 22.1-21.66 22.1c-13.32 0-21.58-10-21.58-22.1zm33.76 0c0-7.4-4.35-13.92-12.18-13.92s-12.09 6.53-12.09 13.92 4.35 14 12.09 14 12.17-6.51 12.17-14zM446 602.25h9.14v6.18c3.13-4 8.18-7.13 13.66-7.13v9a13.48 13.48 0 0 0-2.87-.26c-3.83 0-9 2.61-10.79 5.57v28.63H446zm48.94-1.05c12.62 0 20.71 9.66 20.71 22.88v2.18H483.2c.7 6.35 5.48 11.57 13.4 11.57a17.79 17.79 0 0 0 11.92-4.61l4.18 6c-4.18 4-10.35 6.09-17.05 6.09-12.62 0-22-8.79-22-22.1-.02-12.21 8.85-22.01 21.29-22.01zm-11.83 18.62h23.67c-.17-5-3.57-11.14-11.83-11.14-7.84 0-11.41 6.01-11.84 11.14zm60.29-18.62c12.62 0 20.71 9.66 20.71 22.88v2.18h-32.46c.7 6.35 5.48 11.57 13.4 11.57a17.79 17.79 0 0 0 11.95-4.61l4.18 6c-4.18 4-10.35 6.09-17.05 6.09-12.62 0-22-8.79-22-22.1-.05-12.21 8.87-22.01 21.27-22.01zm-11.83 18.62h23.67c-.17-5-3.57-11.14-11.83-11.14-7.84 0-11.41 6.01-11.84 11.14zM575 634.53v-24.28h-7v-8h7v-11.49h9.14v11.49h8.53v8h-8.53v22c0 2.87 1.39 5 4 5a5.9 5.9 0 0 0 4.09-1.48l2.17 6.87c-1.65 1.57-4.35 2.7-8.61 2.7-7.07-.03-10.79-3.85-10.79-10.81zm77.84 4a17 17 0 0 1-13.49 6.79c-10.79 0-18.71-8.18-18.71-22 0-13.57 7.83-22.1 18.71-22.1a16.86 16.86 0 0 1 13.49 6.87v-21.85H662v58h-9.14zm0-23.58a13.81 13.81 0 0 0-10.84-5.66c-7.22 0-11.83 5.83-11.83 14s4.61 13.92 11.83 13.92a13.73 13.73 0 0 0 10.88-5.57zm18.36 8.26c0-12 8.26-22 21.58-22 13.49 0 21.66 10 21.66 22s-8.18 22.1-21.66 22.1c-13.32 0-21.58-10-21.58-22.1zm33.76 0c0-7.4-4.35-13.92-12.18-13.92s-12.09 6.53-12.09 13.92 4.35 14 12.09 14 12.22-6.51 12.22-14zm18.7-36.97h9.14v58h-9.14zM742 623.21c0-12 8.26-22 21.58-22 13.49 0 21.66 10 21.66 22s-8.18 22.1-21.66 22.1c-13.3 0-21.58-10-21.58-22.1zm33.76 0c0-7.4-4.35-13.92-12.18-13.92s-12.09 6.53-12.09 13.92 4.35 14 12.09 14 12.19-6.51 12.19-14zm18.72-20.96h9.14v6.18c3.13-4 8.18-7.13 13.66-7.13v9a13.48 13.48 0 0 0-2.87-.26c-3.83 0-9 2.61-10.79 5.57v28.63h-9.14zm48.89-1.05c12.62 0 20.71 9.66 20.71 22.88v2.18h-32.46c.7 6.35 5.48 11.57 13.4 11.57a17.79 17.79 0 0 0 11.92-4.61l4.18 6c-4.18 4-10.35 6.09-17.05 6.09-12.62 0-22-8.79-22-22.1-.02-12.21 8.86-22.01 21.3-22.01zm-11.83 18.62h23.66c-.17-5-3.57-11.14-11.83-11.14-7.83 0-11.37 6.01-11.83 11.14zM131.9 721.26c0-4.52-2-7.57-6.87-7.57-4.09 0-7.92 2.87-9.74 5.57v29.41h-9.14v-27.41c0-4.52-2-7.57-7-7.57-4 0-7.74 2.87-9.66 5.66v29.32h-9.1v-42h9.14v5.74c1.74-2.61 7.31-6.79 13.66-6.79s10.09 3.13 11.48 7.74a17.82 17.82 0 0 1 14.27-7.74c7.74 0 12.09 4.18 12.09 12.7v30.37h-9.13zm46.63 22.89c-3.13 3.57-8 5.57-13.57 5.57-6.87 0-14.62-4.61-14.62-13.92 0-9.66 7.74-13.66 14.62-13.66 5.66 0 10.53 1.83 13.57 5.39v-6.26c0-4.87-4-7.83-9.83-7.83a17.21 17.21 0 0 0-12.44 5.31l-3.74-6.35a25 25 0 0 1 17.66-6.79c9.31 0 17.49 3.92 17.49 15.23v27.84h-9.14zm0-11.4c-2.09-2.87-6-4.35-10-4.35-5.13 0-9 3-9 7.57s3.83 7.48 9 7.48c4 0 7.92-1.48 10-4.35zm24.71 20.1c3.39 3.92 7.74 5.39 13.31 5.39 6 0 12.44-2.78 12.44-11.4v-5a17.06 17.06 0 0 1-13.49 7c-10.7 0-18.62-7.74-18.62-21.58 0-13.57 7.83-21.58 18.62-21.58a16.74 16.74 0 0 1 13.5 6.8v-5.83h9.14v39.85c0 15.14-11.22 19.23-21.58 19.23-7.13 0-12.44-1.57-17.58-6.26zm25.76-33.5a13.64 13.64 0 0 0-10.79-5.66c-7.22 0-11.83 5.39-11.83 13.49s4.61 13.49 11.83 13.49A13.63 13.63 0 0 0 229 735zm49.32 3.04c0-6.53-3.31-8.7-8.44-8.7a13.83 13.83 0 0 0-10.79 5.66v29.32H250v-42h9.14v5.74a19.88 19.88 0 0 1 14.79-6.79c9 0 13.57 4.87 13.57 13.49v29.58h-9.14zm46.63 21.76c-3.13 3.57-8 5.57-13.57 5.57-6.87 0-14.62-4.61-14.62-13.92 0-9.66 7.74-13.66 14.62-13.66 5.66 0 10.53 1.83 13.57 5.39v-6.26c0-4.87-4-7.83-9.83-7.83a17.21 17.21 0 0 0-12.44 5.31l-3.74-6.35a25 25 0 0 1 17.66-6.79c9.31 0 17.49 3.92 17.49 15.23v27.84h-9.14zm0-11.4c-2.09-2.87-6-4.35-10-4.35-5.13 0-9 3-9 7.57s3.83 7.48 9 7.48c4 0 7.92-1.48 10-4.35zm68.99 11.4c-3.13 3.57-8 5.57-13.57 5.57-6.87 0-14.62-4.61-14.62-13.92 0-9.66 7.74-13.66 14.62-13.66 5.66 0 10.53 1.83 13.57 5.39v-6.26c0-4.87-4-7.83-9.83-7.83a17.21 17.21 0 0 0-12.44 5.31l-3.74-6.35a25 25 0 0 1 17.66-6.79c9.31 0 17.49 3.92 17.49 15.23v27.84h-9.14zm0-11.4c-2.09-2.87-6-4.35-10-4.35-5.13 0-9 3-9 7.57s3.83 7.48 9 7.48c4 0 7.92-1.48 10-4.35zm20.96-42.11h9.1v58h-9.1zm19.84 3.36a5.66 5.66 0 1 1 5.66 5.66 5.7 5.7 0 0 1-5.66-5.66zm1.13 12.62H445v42h-9.14zm50.46 58.06v-21.84a16.5 16.5 0 0 1-13.49 6.87c-10.88 0-18.62-8.27-18.62-22.1s7.74-22 18.62-22a16.77 16.77 0 0 1 13.49 6.79v-5.74h9.14v58zm0-45.33a13.64 13.64 0 0 0-10.79-5.66c-7.22 0-11.83 5.83-11.83 13.92s4.61 14 11.83 14a13.88 13.88 0 0 0 10.79-5.61zm49.33 23.75a20.14 20.14 0 0 1-14.88 6.61c-9 0-13.49-4.7-13.49-13.31v-29.75h9.14v26.45c0 6.53 3.31 8.53 8.44 8.53a14 14 0 0 0 10.79-5.48v-29.5h9.14v42h-9.14zm46.63 1.05c-3.13 3.57-8 5.57-13.57 5.57-6.87 0-14.62-4.61-14.62-13.92 0-9.66 7.74-13.66 14.62-13.66 5.66 0 10.53 1.83 13.57 5.39v-6.26c0-4.87-4-7.83-9.83-7.83a17.21 17.21 0 0 0-12.46 5.3l-3.74-6.35a25 25 0 0 1 17.66-6.79c9.31 0 17.49 3.92 17.49 15.23v27.84h-9.14zm0-11.4c-2.09-2.87-6-4.35-10-4.35-5.13 0-9 3-9 7.57s3.83 7.48 9 7.48c4 0 7.92-1.48 10-4.35zm72.47-11.49c0-4.52-2-7.57-6.87-7.57-4.09 0-7.92 2.87-9.74 5.57v29.41H629v-27.41c0-4.52-2-7.57-7-7.57-4 0-7.74 2.87-9.66 5.66v29.32h-9.14v-42h9.14v5.74c1.74-2.61 7.31-6.79 13.66-6.79s10.09 3.13 11.48 7.74a17.82 17.82 0 0 1 14.27-7.74c7.74 0 12.09 4.18 12.09 12.7v30.37h-9.14zm62.03-15.66c12.62 0 20.71 9.66 20.71 22.88v2.18H705c.7 6.35 5.48 11.57 13.4 11.57a17.79 17.79 0 0 0 11.92-4.61l4.18 6c-4.18 4-10.35 6.09-17.05 6.09-12.62 0-22-8.79-22-22.1.03-12.18 8.9-22.01 21.34-22.01zM705 724.22h23.67c-.17-5-3.57-11.14-11.83-11.14-7.84 0-11.45 6.01-11.84 11.14zm41.54-17.57h9.14v6.18c3.13-4 8.18-7.13 13.66-7.13v9a13.48 13.48 0 0 0-2.87-.26c-3.83 0-9 2.61-10.79 5.57v28.63h-9.14zm55.86 37.5c-3.13 3.57-8 5.57-13.57 5.57-6.87 0-14.62-4.61-14.62-13.92 0-9.66 7.74-13.66 14.62-13.66 5.66 0 10.53 1.83 13.57 5.39v-6.26c0-4.87-4-7.83-9.83-7.83a17.21 17.21 0 0 0-12.44 5.31l-3.74-6.35a25 25 0 0 1 17.61-6.8c9.31 0 17.49 3.92 17.49 15.23v27.84h-9.09zm0-11.4c-2.09-2.87-6-4.35-10-4.35-5.13 0-9 3-9 7.57s3.83 7.48 9 7.48c4 0 7.92-1.48 10-4.35zm22.79 6.18v-24.28h-7v-8h7v-11.49h9.14v11.49h8.53v8h-8.53v22c0 2.87 1.39 5 4 5a5.9 5.9 0 0 0 4.09-1.48l2.17 6.87c-1.65 1.57-4.35 2.7-8.61 2.7-7.05-.03-10.79-3.85-10.79-10.81z" class="cls-3"/><path d="M907.5 727.5h56v56h-56z" class="cls-4"/><path d="M935.5 737v37M917 755.5h37" class="cls-5"/></svg>