<?xml version="1.0" standalone="no"?>
<!DOCTYPE svg PUBLIC "-//W3C//DTD SVG 20010904//EN"
 "http://www.w3.org/TR/2001/REC-SVG-20010904/DTD/svg10.dtd">
<svg version="1.0" xmlns="http://www.w3.org/2000/svg"
 width="260.000000pt" height="260.000000pt" viewBox="0 0 260.000000 260.000000"
 preserveAspectRatio="xMidYMid meet">
<metadata>
Created by potrace 1.11, written by Peter Selinger 2001-2013
</metadata>
<g transform="translate(0.000000,260.000000) scale(0.100000,-0.100000)"
fill="#000000" stroke="none">
<path d="M0 1300 l0 -1300 1300 0 1300 0 0 1300 0 1300 -1300 0 -1300 0 0
-1300z m2068 1058 l-3 -113 -50 -6 c-110 -14 -214 -98 -256 -208 -29 -76 -23
-203 12 -276 47 -100 143 -169 249 -182 l50 -6 0 -118 0 -119 -43 0 c-98 0
-236 53 -329 126 -32 25 -58 43 -58 40 0 -2 9 -26 21 -53 11 -26 25 -58 30
-70 l9 -23 -135 0 -134 0 -42 110 -42 110 -233 0 -233 0 -42 -110 -42 -110
-133 0 -132 0 48 112 c36 83 55 115 75 125 100 53 481 185 704 244 l121 32 0
41 c0 71 28 178 66 256 86 174 292 305 487 309 l38 1 -3 -112z m-732 -151 c59
-136 104 -250 101 -253 -5 -5 -179 -34 -209 -34 -12 0 -30 34 -66 127 l-49
126 -40 -104 c-22 -57 -46 -121 -54 -143 -8 -21 -23 -42 -34 -47 -28 -11 -236
-52 -241 -46 -2 2 55 144 128 316 l133 312 113 -3 112 -3 106 -248z m734
-1052 l0 -25 -770 0 -770 0 0 25 0 25 770 0 770 0 0 -25z m-1577 -179 c18 -7
43 -25 56 -39 l23 -25 -29 -15 c-26 -14 -30 -14 -57 10 -92 79 -203 -72 -117
-158 35 -35 77 -38 114 -9 29 23 46 25 71 7 17 -12 15 -15 -18 -45 -66 -58
-152 -55 -218 7 -35 32 -41 45 -46 89 -6 65 1 93 35 133 47 56 120 73 186 45z
m1377 -46 c0 -23 4 -30 20 -30 16 0 20 -7 20 -30 0 -23 -4 -30 -20 -30 -18 0
-20 -7 -20 -60 0 -53 2 -60 19 -60 24 0 39 -39 20 -51 -22 -14 -66 -10 -83 7
-12 11 -16 36 -16 90 0 67 -2 74 -20 74 -16 0 -20 7 -20 30 0 23 4 30 20 30
16 0 20 7 20 30 0 27 3 30 30 30 27 0 30 -3 30 -30z m-1102 -44 c46 -24 70
-88 52 -140 -18 -57 -53 -81 -117 -81 -49 0 -58 3 -83 32 -38 43 -47 91 -25
137 10 20 29 43 44 51 34 18 95 19 129 1z m152 -2 c0 -14 2 -14 22 0 29 21 82
20 103 0 14 -15 18 -15 40 0 13 9 40 16 59 16 54 0 66 -26 66 -137 l0 -93 -30
0 -30 0 0 79 c0 91 -13 112 -55 93 -24 -11 -25 -16 -25 -92 l0 -80 -35 0 -34
0 -3 87 c-3 76 -6 88 -21 91 -39 8 -57 -26 -57 -105 l0 -73 -30 0 -30 0 0 115
0 115 30 0 c20 0 30 -5 30 -16z m400 -1 c0 -15 1 -15 18 0 21 19 73 22 103 7
43 -24 63 -117 37 -175 -22 -49 -93 -70 -136 -39 -22 15 -22 15 -22 -40 0 -56
0 -56 -30 -56 l-30 0 0 160 0 160 30 0 c21 0 30 -5 30 -17z m270 -68 c0 -73 3
-86 19 -95 13 -6 28 -7 45 0 24 9 25 14 28 92 3 82 3 83 31 86 l27 3 0 -115 0
-116 -30 0 c-16 0 -30 5 -30 11 0 5 -10 3 -22 -5 -31 -22 -84 -20 -108 4 -17
17 -20 33 -20 120 l0 100 30 0 30 0 0 -85z m519 70 c27 -14 44 -42 57 -97 l6
-28 -86 0 c-47 0 -86 -4 -86 -9 0 -5 7 -17 17 -26 16 -16 58 -17 93 -1 9 4 20
-1 27 -14 11 -17 9 -21 -17 -35 -82 -42 -190 15 -190 103 0 92 96 150 179 107z
m151 -1 c0 -14 2 -14 22 0 34 24 48 20 48 -14 0 -25 -4 -30 -23 -30 -38 0 -47
-19 -47 -97 l0 -73 -30 0 -30 0 0 115 0 115 30 0 c20 0 30 -5 30 -16z m-515
-369 c0 -25 -4 -31 -27 -33 -19 -2 -28 2 -33 18 -8 27 12 52 39 48 16 -2 21
-10 21 -33z m-1117 11 c15 -8 35 -23 45 -34 18 -20 18 -21 -10 -35 -26 -14
-30 -13 -52 4 -66 54 -164 -15 -147 -104 7 -37 38 -71 74 -82 33 -10 92 12 92
35 0 15 -9 19 -42 22 -39 3 -43 6 -46 31 l-3 27 81 0 81 0 -3 -62 c-3 -58 -5
-64 -37 -85 -93 -62 -214 -30 -255 68 -35 85 0 181 79 215 40 17 109 17 143 0z
m852 -47 l0 -60 22 15 c28 20 88 21 114 2 16 -12 20 -29 22 -115 l4 -101 -36
0 -35 0 -3 88 c-3 81 -5 87 -25 90 -12 2 -31 -2 -42 -8 -19 -9 -21 -20 -21
-90 l0 -80 -30 0 -30 0 0 160 0 160 30 0 30 0 0 -61z m-680 -45 c0 -14 2 -14
22 0 32 23 48 20 48 -8 0 -19 -8 -27 -35 -36 l-35 -12 0 -79 0 -79 -30 0 -30
0 0 115 0 115 30 0 c20 0 30 -5 30 -16z m275 -9 c23 -22 25 -32 25 -115 l0
-90 -30 0 c-16 0 -30 4 -30 9 0 6 -12 3 -27 -5 -39 -19 -66 -18 -97 7 -35 27
-37 90 -4 113 26 18 80 21 109 6 16 -9 19 -7 19 8 0 38 -55 56 -100 32 -15 -8
-21 -6 -30 9 -15 30 22 51 88 51 43 0 58 -5 77 -25z m138 13 c4 -10 7 -10 18
0 7 6 32 12 55 12 59 0 94 -41 94 -110 0 -61 -16 -97 -51 -116 -36 -18 -53
-18 -89 1 l-30 16 0 -56 c0 -54 0 -55 -30 -55 l-30 0 0 160 0 160 29 0 c16 0
31 -6 34 -12z m537 -103 l0 -115 -30 0 -30 0 0 115 0 115 30 0 30 0 0 -115z
m215 103 c28 -13 32 -30 11 -47 -11 -9 -20 -9 -35 -2 -28 15 -52 14 -73 -6
-22 -20 -24 -76 -2 -97 17 -18 69 -22 79 -6 8 13 45 -10 45 -28 0 -20 -68 -45
-106 -38 -74 14 -118 88 -94 160 21 64 106 96 175 64z m208 1 c30 -16 30 -15
18 -38 -10 -18 -13 -19 -39 -5 -34 18 -56 18 -71 0 -10 -12 -8 -17 8 -25 11
-6 27 -11 36 -11 31 0 75 -30 81 -56 15 -58 -47 -102 -125 -89 -57 10 -76 26
-62 53 11 21 13 21 42 6 36 -18 84 -15 84 6 0 9 -20 22 -54 32 -63 21 -67 24
-76 60 -11 42 31 78 90 78 26 0 56 -5 68 -11z"/>
<path d="M672 834 c-26 -18 -31 -84 -7 -104 22 -18 66 -15 82 6 21 29 16 81
-9 98 -12 9 -27 16 -33 16 -6 0 -21 -7 -33 -16z"/>
<path d="M1338 839 c-13 -7 -18 -23 -18 -59 0 -45 2 -49 31 -59 27 -9 33 -8
55 14 55 55 -2 143 -68 104z"/>
<path d="M2012 838 c-26 -26 -13 -38 38 -38 51 0 64 12 38 38 -15 15 -61 15
-76 0z"/>
<path d="M957 313 c-14 -13 -7 -43 12 -53 27 -14 71 4 71 29 0 10 -7 22 -16
25 -21 8 -59 8 -67 -1z"/>
<path d="M1228 389 c-21 -12 -25 -88 -6 -107 33 -33 98 0 98 49 0 54 -48 84
-92 58z"/>
</g>
</svg>
