<svg xmlns="http://www.w3.org/2000/svg" id="Layer_1" viewBox="0 0 983.22 870.1" width="983.22" height="870.1"><defs><style>.cls-1{fill:#464646;stroke:#b4b4b4;stroke-linecap:round;stroke-linejoin:round;stroke-width:30.89px}.cls-2{fill:#b4b4b4}</style></defs><path d="M594.12 115.13c-136.42 0-247 110.55-247.1 247H54.58V822h539.18V609.32h.36c136.47 0 247.1-110.63 247.1-247.1s-110.63-247.09-247.1-247.09z" class="cls-1"/><path d="M495.15 561.15c-7.05-62.08-58.67-111.31-121-115.72a131.4 131.4 0 0 0-134.25 89.78h-.05v.23a130.8 130.8 0 0 0-6.2 32.18c-8.11 30.7-26.21 75.91-65.47 102.2-16.08 10.77-14.74 35.46 2.33 44.57 74 39.49 166.78 13.7 223.94-9.94a130.88 130.88 0 0 0 52.71-25.68l.27-.16a131.24 131.24 0 0 0 47.72-117.46z" class="cls-2"/><path d="M700.85 95c-11.15 10.16-19.95 18.68-25.52 24.25L369.08 425.51a133.52 133.52 0 0 1 25.64-.64c62.32 4.41 113.95 53.64 121 115.72a133.54 133.54 0 0 1-1 37.29l309.64-309.61C848 244.63 930 167.65 959.45 95z" class="cls-2"/></svg>