<svg xmlns="http://www.w3.org/2000/svg" id="Layer_1" viewBox="0 0 983.22 870.1" width="983.22" height="870.1"><defs><style>.cls-1,.cls-4{fill:none;stroke:#464646;stroke-miterlimit:10}.cls-1{stroke-width:21px}.cls-2{fill:#b4b4b4}.cls-3{fill:#464646}.cls-4{stroke-width:20px}</style></defs><path d="M129.9 696.49l-16.84 101a14 14 0 0 0 16.08 16.08l101-16.84a14 14 0 0 0 7.58-3.9L870.91 159.7a14 14 0 0 0 0-19.76l-84.2-84.2a14 14 0 0 0-19.76 0L133.8 688.9a14 14 0 0 0-3.9 7.59z" class="cls-1"/><path d="M129.9 696.49l-16.84 101a14 14 0 0 0 16.08 16.08l101-16.84a14 14 0 0 0 7.58-3.9L870.91 159.7a14 14 0 0 0 0-19.76l-84.2-84.2a14 14 0 0 0-19.76 0L133.8 688.9a14 14 0 0 0-3.9 7.59z" class="cls-2"/><path d="M139.24 709.27l-14.49 87a4.94 4.94 0 0 0 5.69 5.69l87-14.49a4.94 4.94 0 0 0 2.68-8.37l-72.46-72.46a4.94 4.94 0 0 0-8.42 2.63z" class="cls-3"/><path d="M676.03 146l104 104" class="cls-4"/></svg>