<svg xmlns="http://www.w3.org/2000/svg" id="Layer_1" viewBox="0 0 983.22 870.1" width="983.22" height="870.1"><defs><style>.cls-1{fill:#b4b4b4}.cls-2{fill:#464646}.cls-3{fill:none;stroke:#fff;stroke-miterlimit:10;stroke-width:48.6px}</style></defs><path d="M253.13 561.37l-3.87-36.25a176.13 176.13 0 0 0 0-350.24l3.87-36.25a212.58 212.58 0 0 1 0 422.73z" class="cls-1"/><path d="M485.53 672a321 321 0 0 1-242.14-109.8c-4.41.28-8.76.42-13 .42-117.22 0-212.6-95.38-212.6-212.62s95.38-212.61 212.61-212.61c4.24 0 8.58.14 13 .42A321 321 0 0 1 485.53 28.05c177.53 0 322 144.43 322 322S663.06 672 485.53 672zM259 524.09l6.24 7.56a284.74 284.74 0 0 0 220.29 103.86C643 635.51 771 507.44 771 350S643 64.5 485.53 64.5a284.74 284.74 0 0 0-220.27 103.87l-6.26 7.55-9.75-1a178 178 0 0 0-18.86-1c-97.13 0-176.16 79-176.16 176.16s79 176.16 176.16 176.16a178 178 0 0 0 18.86-1z" class="cls-2"/><circle cx="139.28" cy="356.08" r="24.3" class="cls-2"/><circle cx="236.47" cy="356.08" r="24.3" class="cls-2"/><circle cx="333.67" cy="356.08" r="24.3" class="cls-2"/><circle cx="528.06" cy="356.08" r="24.3" class="cls-2"/><path d="M600.95 307.48v534.57l157.94-157.94h206.54L600.95 307.48z" class="cls-3"/><path d="M600.95 307.48v534.57l157.94-157.94h206.54L600.95 307.48z" class="cls-2"/></svg>