<svg xmlns="http://www.w3.org/2000/svg" id="Layer_1" viewBox="0 0 1737.3 415.9" width="1737.3" height="415.9"><style>.st0{fill:#e6e7e8}.st1{fill:#fff}.st2{fill:none;stroke:#94c948;stroke-width:1.63;stroke-miterlimit:10}.st3{fill:#006840}</style><path d="M0 0h249.3v322.7H0z" class="st0"/><path d="M11.7 15.2h225.9v292.3H11.7z" class="st1"/><path d="M249.3 0h249.3v322.7H249.3z" class="st0"/><path d="M261.1 15.2H487v292.3H261.1z" class="st1"/><path d="M249.3 322.7V0" class="st2"/><path d="M862.8 0h249.3v322.7H862.8z" class="st0"/><path d="M875.3 14.2h210V286h-210z" class="st1"/><path d="M613.5 0h249.3v322.7H613.5z" class="st0"/><path d="M640.3 14.2h210V286h-210z" class="st1"/><path d="M862.8 322.7V0" class="st2"/><path d="M1488 0h249.3v322.7H1488z" class="st0"/><path d="M1511 25.2h180v232.9h-180z" class="st1"/><path d="M1238.6 0h249.3v322.7h-249.3z" class="st0"/><path d="M1285 25.2h180v232.9h-180z" class="st1"/><path d="M1488 322.7V0" class="st2"/><path d="M155.1 366.6c1.9 2.2 4.7 3.4 7.6 3.4 3.9 0 5.3-2 5.3-3.7 0-2.5-2.7-3.2-5.8-4-3.9-1-8.3-2.1-8.3-7 0-4 3.5-6.8 8.5-6.8 3.3-.1 6.4 1.1 8.8 3.4l-2.1 2.7c-1.8-1.9-4.3-2.9-6.9-2.9-2.7 0-4.5 1.4-4.5 3.4s2.6 2.8 5.6 3.6c3.9 1 8.5 2.3 8.5 7.4 0 3.7-2.6 7.2-9.1 7.2-3.6.2-7-1.2-9.5-3.8l1.9-2.9zm21.4 10.3c1.1.1 2.2-.6 2.5-1.7l1-2.3-7.2-17.6h3.5l5.4 13.6 5.4-13.6h3.5L182 376c-.8 2.4-3.1 3.9-5.5 3.7-.7 0-1.3-.1-2-.2l.5-2.9c.5.2 1 .3 1.5.3zm37.9-15.7c0-2-.9-3.4-3-3.4-1.7.1-3.3 1-4.3 2.5v12.5h-3.2v-11.6c0-2-.9-3.4-3.1-3.4-1.7.1-3.3 1.1-4.2 2.5v12.4h-3.2v-17.4h3.2v2.5c1.4-1.7 3.4-2.8 5.6-2.9 2.1-.2 4.1 1.2 4.7 3.2 1.3-2 3.5-3.2 5.9-3.2 3.2 0 4.9 1.8 4.9 5.3v12.6h-3.3v-11.6zm29.5 0c0-2-.9-3.4-3-3.4-1.7.1-3.3 1-4.3 2.5v12.5h-3.2v-11.6c0-2-.9-3.4-3.1-3.4-1.7.1-3.3 1.1-4.2 2.5v12.4h-3.2v-17.4h3.2v2.5c1.4-1.7 3.4-2.8 5.6-2.9 2.1-.2 4.1 1.2 4.7 3.2 1.3-2 3.5-3.2 5.9-3.2 3.2 0 4.9 1.8 4.9 5.3v12.6H244l-.1-11.6zm16-6.2c5.2 0 8.5 4.1 8.5 9.4v.8h-13.8c.2 3.1 2.8 5.5 5.9 5.4 1.9 0 3.8-.7 5.1-2l1.5 2.1c-1.9 1.8-4.4 2.7-7 2.6-5.2 0-9-3.7-9-9.1.1-5.2 3.8-9.2 8.8-9.2zm-5.3 7.8h10.6c0-2.8-2.3-5.2-5.1-5.2h-.2c-2.8 0-5.2 2.3-5.3 5.2zm18.5 6.1v-10.7h-2.9v-2.8h2.9v-4.8h3.2v4.8h3.5v2.8h-3.5v10c0 1.2.6 2.1 1.7 2.1.7 0 1.3-.2 1.8-.7l.8 2.5c-.9.8-2.1 1.2-3.4 1.1-2.7 0-4.1-1.6-4.1-4.3zm10.4-13.5h3.2v2.6c1.3-1.8 3.4-3 5.7-3.1v3.3c-.4-.1-.7-.1-1.1-.1-1.8.1-3.5 1-4.6 2.5v12.1h-3.2v-17.3zm11.6-5c0-1.1.9-2.1 2.1-2.1 1.2 0 2.1.9 2.1 2.1 0 1.1-.9 2.1-2.1 2.1-1.1 0-2-.9-2.1-2.1zm.5 5h3.2v17.4h-3.2v-17.4zm16.2-.4c2.5-.1 5 1 6.5 3.1l-2.2 2c-.9-1.4-2.5-2.2-4.2-2.2-3.4 0-5.6 2.6-5.6 6.2s2.2 6.3 5.6 6.3c1.7 0 3.3-.8 4.2-2.2l2.2 2c-1.5 2.1-4 3.2-6.5 3.1-5.3 0-8.9-3.9-8.9-9.1s3.7-9.2 8.9-9.2zm20.8 15.9c-1.5 1.6-3.5 2.4-5.7 2.3-3.2.1-5.9-2.4-6-5.6v-.2c0-4 3.1-5.7 6-5.7 2.1-.1 4.2.7 5.7 2.3v-2.9c0-2.2-1.8-3.5-4.2-3.5-2 0-3.9.8-5.2 2.3l-1.4-2.2c1.9-1.9 4.5-2.9 7.1-2.8 3.8 0 7 1.7 7 6.1v11.7h-3.2l-.1-1.8zm0-4.9c-1.1-1.3-2.7-2.1-4.5-2-2.3 0-4 1.4-4 3.5s1.7 3.5 4 3.5c1.7.1 3.4-.7 4.5-2v-3zm8.4-17.2h3.2v24H341v-24zm-182.9 50.8c0-4.5 1.4-8.8 4.1-12.4l1.5 1.1c-3.8 7-3.8 15.4 0 22.4l-1.5 1.2c-2.7-3.5-4.1-7.9-4.1-12.3zm8.6 3.8V395h-2.2v-2.2h2.2v-3.7h2.5v3.7h2.8v2.2h-2.7v7.8c0 1 .4 1.6 1.3 1.6.5 0 1-.2 1.4-.5l.6 1.9c-.7.6-1.7.9-2.6.9-2.2 0-3.3-1.2-3.3-3.3zm7.2-3.8c0-3.9 2.6-7.1 6.8-7.1s6.8 3.2 6.8 7.1-2.6 7.1-6.8 7.1-6.8-3.2-6.8-7.1zm11 0c0-2.5-1.5-4.8-4.2-4.8s-4.2 2.3-4.2 4.8 1.5 4.9 4.2 4.9 4.3-2.3 4.2-4.9zm13.1-11.9h2.5v7.1c1-1.4 2.7-2.3 4.4-2.3 3.5 0 6 2.8 6 7.1s-2.5 7.1-6 7.1c-1.7 0-3.4-.9-4.4-2.3v1.9H198v-18.6zm6.3 16.8c2.5 0 4.1-2 4.1-4.8s-1.6-4.9-4.1-4.9c-1.5 0-2.9.8-3.8 2v5.7c.9 1.2 2.3 2 3.8 2zm15.8-12c4.1 0 6.6 3.2 6.6 7.3v.6H216c.1 2.4 2.2 4.3 4.6 4.2 1.5 0 2.9-.6 4-1.6l1.2 1.6c-1.5 1.4-3.4 2.1-5.4 2-3.9.1-7.1-3.1-7.2-7-.1-3.8 3-7 6.9-7.1zm-4.1 6.1h8.3c0-2.2-1.8-4-4-4h-.1c-2.3 0-4.1 1.8-4.2 4zm29.4 6.3c-1.2 1.2-2.8 1.9-4.4 1.8-2.5.1-4.6-1.8-4.7-4.3v-.2c0-3.1 2.4-4.4 4.7-4.4 1.7-.1 3.3.6 4.4 1.8v-2.2c0-1.7-1.4-2.7-3.3-2.7-1.5 0-3 .7-4.1 1.8l-1.1-1.7c1.5-1.5 3.5-2.3 5.5-2.2 2.9 0 5.4 1.3 5.4 4.7v9.1h-2.5l.1-1.5zm0-3.8c-.9-1-2.1-1.6-3.5-1.5-1.8 0-3.1 1.1-3.1 2.7s1.3 2.7 3.1 2.7c1.3.1 2.6-.5 3.5-1.5v-2.4zm4.6-8.3h2.7l4.2 10.6 4.2-10.6h2.7l-5.6 13.5h-2.7l-5.5-13.5zm15.1 6.8c0-3.9 2.6-7.1 6.8-7.1s6.8 3.2 6.8 7.1-2.6 7.1-6.8 7.1-6.8-3.2-6.8-7.1zm11 0c0-2.5-1.5-4.8-4.2-4.8s-4.2 2.3-4.2 4.8 1.5 4.9 4.2 4.9 4.2-2.3 4.2-4.9zm5.4-10.6c0-.9.7-1.6 1.6-1.6.9 0 1.6.7 1.6 1.6 0 .9-.7 1.6-1.6 1.6-.8 0-1.5-.7-1.6-1.6zm.4 3.9h2.5v13.5h-2.5v-13.5zm16.2 11.5c-1 1.4-2.7 2.2-4.4 2.3-3.5 0-6-2.7-6-7.1s2.5-7.1 6-7.1c1.8 0 3.4.9 4.4 2.3v-7.1h2.5v18.7h-2.5v-2zm0-7.7c-.9-1.2-2.3-2-3.8-2-2.5 0-4.1 2-4.1 4.9s1.6 4.8 4.1 4.8c1.5 0 2.9-.8 3.8-2v-5.7zm12.5-4.2c4.1 0 6.6 3.2 6.6 7.3v.6h-10.7c.1 2.4 2.2 4.3 4.6 4.2 1.5 0 2.9-.6 4-1.6l1.2 1.6c-1.5 1.4-3.4 2.1-5.4 2-3.9.1-7.1-3.1-7.2-7-.2-3.8 3-7 6.9-7.1zm-4.2 6.1h8.3c0-2.2-1.8-4-4-4h-.1c-2.3 0-4.1 1.8-4.2 4zm23.6 5.8c-1 1.4-2.7 2.2-4.4 2.3-3.5 0-6-2.7-6-7.1s2.5-7.1 6-7.1c1.8 0 3.4.9 4.4 2.3v-7.1h2.5v18.7H330v-2zm0-7.7c-.9-1.2-2.3-2-3.8-2-2.5 0-4.1 2-4.1 4.9s1.6 4.8 4.1 4.8c1.5 0 2.9-.8 3.8-2v-5.7zm5-8.4l1.5-1.1c5.5 7.3 5.5 17.4 0 24.8l-1.5-1.2c3.9-7 3.9-15.5 0-22.5zm362.2-34.6l-7.8 19.1h-1.5l-7.8-19.1v19.1h-3.6v-24h5.2l7 17.2 7-17.2h5.2v24h-3.6l-.1-19.1zm7.8 10.4c0-5 3.4-9.1 8.8-9.1s8.8 4.1 8.8 9.1-3.3 9.1-8.8 9.1-8.8-4.1-8.8-9.1zm14.2 0c0-3.3-1.9-6.2-5.4-6.2s-5.4 3-5.4 6.2 1.9 6.3 5.4 6.3 5.4-3 5.4-6.3zm19.8 6.2a7.01 7.01 0 0 1-5.7 2.9c-4.5 0-7.8-3.4-7.8-9.1s3.2-9.1 7.8-9.1c2.3 0 4.4 1.1 5.7 3v-9.1h3.2v24H739v-2.6zm0-9.9c-1.1-1.6-2.9-2.5-4.8-2.6-3.2 0-5.3 2.6-5.3 6.3s2 6.2 5.3 6.2c1.9 0 3.7-1 4.8-2.5v-7.4zm16.1-5.4c5.2 0 8.5 4.1 8.5 9.4v.8h-13.8c.2 3.1 2.8 5.5 5.9 5.4 1.9 0 3.8-.7 5.2-2l1.5 2.1c-1.9 1.8-4.4 2.7-7 2.6-5.2 0-9-3.7-9-9.1 0-5.2 3.6-9.2 8.7-9.2zm-5.3 7.8h10.6c0-2.8-2.3-5.2-5.1-5.2h-.2c-2.9 0-5.2 2.3-5.3 5.2zm17.8-7.4h3.2v2.6c1.3-1.8 3.4-3 5.7-3.1v3.3c-.4-.1-.7-.1-1.1-.1-1.8.1-3.5 1-4.6 2.5v12.1h-3.2v-17.3zm22.9 15.5c-1.5 1.6-3.5 2.4-5.7 2.3-3.2.1-5.9-2.4-6-5.6v-.2c0-4 3.1-5.7 6-5.7 2.1-.1 4.2.7 5.7 2.3v-2.9c0-2.2-1.8-3.5-4.2-3.5-2 0-3.9.8-5.2 2.3l-1.4-2.2c1.9-1.9 4.5-2.9 7.1-2.8 3.8 0 7 1.7 7 6.1v11.7h-3.2l-.1-1.8zm0-4.9c-1.1-1.3-2.7-2.1-4.5-2-2.3 0-4 1.4-4 3.5s1.7 3.5 4 3.5c1.7.1 3.4-.7 4.5-2v-3zm9.1 2.9v-10.7h-2.9v-2.8h2.9v-4.8h3.2v4.8h3.5v2.8h-3.5v10c0 1.2.6 2.1 1.7 2.1.7 0 1.3-.2 1.8-.7l.8 2.5c-.9.8-2.1 1.2-3.4 1.1-2.7 0-4.1-1.6-4.1-4.3zm18-13.9c5.2 0 8.5 4.1 8.5 9.4v.8h-13.8c.2 3.1 2.8 5.5 5.9 5.4 1.9 0 3.8-.7 5.2-2l1.5 2.1c-1.9 1.8-4.4 2.7-7 2.6-5.2 0-9-3.7-9-9.1 0-5.2 3.6-9.2 8.7-9.2zm-5.3 7.8h10.6c0-2.8-2.3-5.2-5.1-5.2h-.2c-2.9 0-5.2 2.3-5.3 5.2zm42.4 5h-11.8l-1.9 5h-4l9.5-24h4.5l9.5 24h-4l-1.8-5zm-10.7-3.2h9.7l-4.9-12.7-4.8 12.7zm19.4 3.5c1.5 1.6 3.6 2.4 5.8 2.5 2.5 0 3.7-1 3.7-2.5 0-1.7-2-2.3-4.2-2.8-3-.7-6.4-1.5-6.4-5.2 0-2.8 2.4-5.1 6.6-5.1 2.4-.1 4.8.8 6.6 2.5l-1.4 2.3c-1.3-1.4-3.2-2.2-5.2-2.1-2.2 0-3.6.9-3.6 2.3s1.9 2 4 2.5c3 .7 6.6 1.5 6.6 5.5 0 3-2.5 5.3-7 5.3-2.7.1-5.3-.9-7.2-2.7l1.7-2.5zm17.9 8.8c1.1.1 2.2-.6 2.5-1.7l1-2.3-7.2-17.6h3.5l5.4 13.6 5.4-13.6h3.5l-8.6 20.7c-.8 2.4-3.1 3.9-5.5 3.7-.7 0-1.3-.1-2-.2l.5-2.9c.5.2 1 .3 1.5.3zm38-15.7c0-2-.9-3.4-3-3.4-1.7.1-3.3 1-4.3 2.5v12.5h-3.2v-11.6c0-2-.9-3.4-3.1-3.4-1.7.1-3.3 1.1-4.2 2.5v12.4h-3.2v-17.4h3.2v2.5c1.4-1.7 3.4-2.8 5.6-2.9 2.1-.2 4.1 1.2 4.7 3.2 1.3-2 3.5-3.2 5.9-3.2 3.2 0 4.9 1.8 4.9 5.3v12.6h-3.2l-.1-11.6zm29.5 0c0-2-.9-3.4-3-3.4-1.7.1-3.3 1-4.3 2.5v12.5h-3.3v-11.6c0-2-.9-3.4-3.1-3.4-1.7.1-3.3 1.1-4.2 2.5v12.4h-3.2v-17.4h3.2v2.5c1.4-1.7 3.4-2.8 5.6-2.9 2.1-.2 4.1 1.2 4.7 3.2 1.3-2 3.5-3.2 5.9-3.2 3.2 0 4.9 1.8 4.9 5.3v12.6h-3.2v-11.6zm16-6.2c5.2 0 8.5 4.1 8.5 9.4v.8h-13.8c.2 3.1 2.8 5.5 5.9 5.4 1.9 0 3.8-.7 5.2-2l1.5 2.1c-1.9 1.8-4.4 2.7-7 2.6-5.2 0-9-3.7-9-9.1 0-5.2 3.6-9.2 8.7-9.2zm-5.3 7.8h10.6c0-2.8-2.3-5.2-5.1-5.2h-.2c-2.9 0-5.2 2.3-5.3 5.2zm18.5 6.1v-10.7h-2.9v-2.8h2.9v-4.8h3.2v4.8h3.5v2.8h-3.5v10c0 1.2.6 2.1 1.7 2.1.7 0 1.3-.2 1.8-.7l.8 2.5c-.9.8-2.1 1.2-3.4 1.1-2.7 0-4.1-1.6-4.1-4.3zm10.3-13.5h3.2v2.6c1.3-1.8 3.4-3 5.7-3.1v3.3c-.4-.1-.7-.1-1.1-.1-1.8.1-3.5 1-4.6 2.5v12.1h-3.2v-17.3zm11.7-5c0-1.1.9-2.1 2.1-2.1 1.2 0 2.1.9 2.1 2.1 0 1.1-.9 2.1-2.1 2.1-1.2 0-2.1-.9-2.1-2.1zm.5 5h3.2v17.4h-3.2v-17.4zm16.2-.4c2.5-.1 5 1 6.5 3.1l-2.2 2c-.9-1.4-2.5-2.2-4.2-2.2-3.4 0-5.6 2.6-5.6 6.2s2.2 6.3 5.6 6.3c1.7 0 3.3-.8 4.2-2.2l2.2 2c-1.5 2-4 3.2-6.5 3.1-5.3 0-8.9-3.9-8.9-9.1s3.6-9.2 8.9-9.2zm20.8 15.9c-1.5 1.6-3.5 2.4-5.7 2.3-3.2.1-5.9-2.4-6-5.6v-.2c0-4 3.1-5.7 6-5.7 2.1-.1 4.2.7 5.7 2.3v-2.9c0-2.2-1.8-3.5-4.2-3.5-2 0-3.9.8-5.2 2.3l-1.4-2.2c1.9-1.9 4.5-2.9 7.1-2.8 3.8 0 7 1.7 7 6.1v11.7h-3.2v-1.8zm0-4.9c-1.1-1.3-2.7-2.1-4.5-2-2.3 0-4 1.4-4 3.5s1.7 3.5 4 3.5c1.7.1 3.4-.7 4.5-2v-3zm8.4-17.2h3.2v24h-3.2v-24zm251.8 0h8.6c7.5 0 12.5 5.1 12.5 12s-5 12-12.5 12h-8.6v-24zm8.6 20.8c5.5 0 8.8-4 8.8-8.8s-3.1-8.9-8.8-8.9h-5v17.7h5zm17.8 7.3c1.1.1 2.2-.6 2.5-1.7l1-2.3-7.2-17.6h3.5l5.4 13.6 5.4-13.6h3.5l-8.6 20.7c-.8 2.4-3.1 3.9-5.5 3.7-.7 0-1.3-.1-2-.2l.5-2.9c.5.2 1 .3 1.5.3zm28.5-15.3c0-2.9-1.5-3.8-3.7-3.8-1.9.1-3.7 1-4.8 2.5v12.4h-3.2v-17.4h3.2v2.5c1.5-1.8 3.8-2.8 6.2-2.9 3.7 0 5.6 1.9 5.6 5.6v12.2h-3.2v-11.1zm19.1 9.3c-1.5 1.6-3.5 2.4-5.7 2.3-3.2.1-5.9-2.4-6-5.6v-.2c0-4 3.1-5.7 6-5.7 2.1-.1 4.2.7 5.7 2.3v-2.9c0-2.2-1.8-3.5-4.2-3.5-2 0-3.9.8-5.2 2.3l-1.4-2.2c1.9-1.9 4.5-2.9 7.1-2.8 3.8 0 7 1.7 7 6.1v11.7h-3.2l-.1-1.8zm0-4.9c-1.1-1.3-2.7-2.1-4.5-2-2.3 0-4 1.4-4 3.5s1.7 3.5 4 3.5c1.7.1 3.4-.7 4.5-2v-3zm29.6-4.8c0-2-.9-3.4-3-3.4-1.7.1-3.3 1-4.3 2.5v12.5h-3.2v-11.6c0-2-.9-3.4-3.1-3.4-1.7.1-3.3 1.1-4.2 2.5v12.4h-3.2v-17.4h3.2v2.5c1.4-1.7 3.4-2.8 5.6-2.9 2.1-.2 4.1 1.2 4.7 3.2 1.3-2 3.5-3.2 5.9-3.2 3.2 0 4.9 1.8 4.9 5.3v12.6h-3.2l-.1-11.6zm7.9-10.8c0-1.1.9-2.1 2.1-2.1 1.2 0 2.1.9 2.1 2.1 0 1.1-.9 2.1-2.1 2.1-1.2 0-2.1-.9-2.1-2.1zm.5 5h3.2v17.4h-3.2v-17.4zm16.1-.4c2.5-.1 5 1 6.5 3.1l-2.2 2c-.9-1.4-2.5-2.2-4.2-2.2-3.4 0-5.6 2.6-5.6 6.2s2.2 6.3 5.6 6.3c1.7 0 3.3-.8 4.2-2.2l2.2 2c-1.5 2-4 3.2-6.5 3.1-5.3 0-8.9-3.9-8.9-9.1s3.7-9.2 8.9-9.2zm34.7 12.8h-11.8l-1.9 5h-4l9.5-24h4.5l9.5 24h-4l-1.8-5zm-10.7-3.2h9.7l-4.9-12.7-4.8 12.7zm19.4 3.5c1.5 1.6 3.6 2.4 5.8 2.5 2.4 0 3.7-1 3.7-2.5 0-1.7-2-2.3-4.2-2.8-3-.7-6.4-1.5-6.4-5.2 0-2.8 2.4-5.1 6.6-5.1 2.4-.1 4.8.8 6.6 2.5l-1.4 2.3c-1.3-1.4-3.2-2.2-5.2-2.1-2.2 0-3.6.9-3.6 2.3s1.9 2 4 2.5c3 .7 6.6 1.5 6.6 5.5 0 3-2.4 5.3-7 5.3-2.7.1-5.3-.9-7.2-2.7l1.7-2.5zm17.9 8.8c1.1.1 2.2-.6 2.5-1.7l1-2.3-7.2-17.6h3.5l5.4 13.6 5.4-13.6h3.5l-8.6 20.7c-.8 2.4-3.1 3.9-5.5 3.7-.7 0-1.3-.1-2-.2l.5-2.9c.6.2 1 .3 1.5.3zm38-15.7c0-2-.9-3.4-3-3.4-1.7.1-3.3 1-4.3 2.5v12.5h-3.2v-11.6c0-2-.9-3.4-3.1-3.4-1.7.1-3.3 1.1-4.2 2.5v12.4h-3.2v-17.4h3.2v2.5c1.4-1.7 3.4-2.8 5.6-2.9 2.1-.2 4.1 1.2 4.7 3.2 1.3-2 3.5-3.2 5.9-3.2 3.2 0 4.9 1.8 4.9 5.3v12.6h-3.2l-.1-11.6zm29.5 0c0-2-.9-3.4-3-3.4-1.7.1-3.3 1-4.3 2.5v12.5h-3.3v-11.6c0-2-.9-3.4-3.1-3.4-1.7.1-3.3 1.1-4.2 2.5v12.4h-3.2v-17.4h3.2v2.5c1.4-1.7 3.4-2.8 5.6-2.9 2.1-.2 4.1 1.2 4.7 3.2 1.3-2 3.5-3.2 5.9-3.2 3.2 0 4.9 1.8 4.9 5.3v12.6h-3.2v-11.6zm16-6.2c5.2 0 8.5 4.1 8.5 9.4v.8h-13.8c.2 3.1 2.8 5.5 5.9 5.4 1.9 0 3.8-.7 5.2-2l1.5 2.1c-1.9 1.8-4.4 2.7-7 2.6-5.2 0-9-3.7-9-9.1 0-5.2 3.6-9.2 8.7-9.2zm-5.3 7.8h10.6c0-2.8-2.3-5.2-5.1-5.2h-.2c-2.9 0-5.2 2.3-5.3 5.2zm18.5 6.1v-10.7h-2.9v-2.8h2.9v-4.8h3.2v4.8h3.5v2.8h-3.5v10c0 1.2.6 2.1 1.7 2.1.7 0 1.3-.2 1.8-.7l.8 2.5c-.9.8-2.1 1.2-3.4 1.1-2.7 0-4.1-1.6-4.1-4.3zm10.4-13.5h3.2v2.6c1.3-1.8 3.4-3 5.7-3.1v3.3c-.4-.1-.7-.1-1.1-.1-1.8.1-3.5 1-4.6 2.5v12.1h-3.2v-17.3zm11.6-5c0-1.1.9-2.1 2.1-2.1 1.2 0 2.1.9 2.1 2.1 0 1.1-.9 2.1-2.1 2.1-1.1 0-2.1-.9-2.1-2.1zm.5 5h3.2v17.4h-3.2v-17.4zm16.2-.4c2.5-.1 5 1 6.5 3l-2.2 2c-.9-1.4-2.5-2.2-4.2-2.2-3.4 0-5.6 2.6-5.6 6.2s2.2 6.3 5.6 6.3c1.7 0 3.3-.8 4.2-2.2l2.2 2c-1.5 2-4 3.2-6.5 3.1-5.3 0-8.9-3.9-8.9-9.1s3.6-9.1 8.9-9.1zm20.8 15.9c-1.5 1.6-3.5 2.4-5.7 2.3-3.2.1-5.9-2.4-6-5.6v-.2c0-4 3.1-5.7 6-5.7 2.1-.1 4.2.7 5.7 2.3v-2.9c0-2.2-1.8-3.5-4.2-3.5-2 0-3.9.8-5.2 2.3l-1.4-2.2c1.9-1.9 4.5-2.9 7.1-2.8 3.8 0 7 1.7 7 6.1v11.7h-3.2l-.1-1.8zm0-4.9c-1.1-1.3-2.7-2.1-4.5-2-2.3 0-4 1.4-4 3.5s1.7 3.5 4 3.5c1.7.1 3.4-.7 4.5-2v-3zm8.4-17.2h3.2v24h-3.2v-24z" class="st3"/></svg>