<svg xmlns="http://www.w3.org/2000/svg" id="Layer_1" width="1684.25" height="1003" viewBox="0 0 1684.25 1003"><defs><style>.cls-1{fill:#323232}.cls-2{fill:none;stroke:#b3b3b3;stroke-linecap:round;stroke-miterlimit:10;stroke-width:12.57px}.cls-3{fill:#b3b3b3}.cls-4{fill:#e6e6e6}.cls-5{fill:#262626}</style></defs><path d="M.25 52h1684v951H.25z" class="cls-1"/><path d="M100.16 278.19v178.87" class="cls-2"/><path d="M124.53 287.94h100.88v72.38H124.53zm78.29 79.87h-78.29v72.38h156v-72.38h-77.71z" class="cls-3"/><path d="M1054.78 277.44H875.91" class="cls-2"/><path d="M958.41 316.06h100.88v72.37H958.41z" class="cls-3" transform="rotate(90 1008.845 352.245)"/><path d="M965.16 380.1v-78.29h-72.38v156h72.38V380.1z" class="cls-3"/><path d="M279.78 675H100.91m178.87 126.5H100.91" class="cls-2"/><path d="M139.91 694.25h100.88v72.38H139.91zm50.72 126.37h-78.29V893h156v-72.38h-77.71z" class="cls-3"/><path d="M856.34 694.56v178.88m126.5-178.88v178.88" class="cls-2"/><path d="M833.91 747.81h155.75v72.38H833.91z" class="cls-3" transform="rotate(-90 911.78 784)"/><path d="M1001.97 783.82v48.55h72.37v-96.75h-72.37v48.2z" class="cls-3"/><path d="M1584.34 873.44V694.56m-126.5 178.88V694.56" class="cls-2"/><path d="M1478.47 747.81h100.88v72.38h-100.88z" class="cls-3" transform="rotate(90 1528.905 783.995)"/><path d="M1438.72 784.29V706h-72.38v156h72.38v-77.71z" class="cls-3"/><path d="M567.41 888h178.87M567.41 761.5h178.87" class="cls-2"/><path d="M578.66 796.37h156.38v72.38H578.66z" class="cls-3" transform="rotate(-180 656.845 832.56)"/><path d="M656.64 742.37h55.89V670H601.16v72.37h55.48z" class="cls-3"/><path d="M513.03 730.31H334.16m178.87 107.38H334.16" class="cls-2"/><path d="M373.16 694.12h100.88v72.37H373.16zm50.72 107.38h-78.29v72.37h156V801.5h-77.71z" class="cls-3"/><path d="M1274.03 873.44V694.56m-107.37 178.88V694.56" class="cls-2"/><path d="M1223.59 747.81h100.88v72.38h-100.88z" class="cls-3" transform="rotate(90 1274.03 784)"/><path d="M1202.84 784.29V706h-72.37v156h72.37v-77.71z" class="cls-3"/><path d="M1385.91 457.81h178.87" class="cls-2"/><path d="M1381.41 346.81h100.88v72.38h-100.88z" class="cls-3" transform="rotate(-90 1431.845 382.995)"/><path d="M1475.53 355.14v78.3h72.38v-156h-72.38v77.7z" class="cls-3"/><path d="M1309.78 336.5h-178.87" class="cls-2"/><path d="M1213.41 300.31h100.88v72.37h-100.88z" class="cls-3" transform="rotate(90 1263.845 336.495)"/><path d="M1220.16 336.79V258.5h-72.38v156h72.38v-77.71z" class="cls-3"/><path d="M747.03 278.19v178.87" class="cls-2"/><path d="M621.78 287.94h100.88v72.38H621.78z" class="cls-3" transform="rotate(-180 672.22 324.125)"/><path d="M644.37 367.81h78.29v72.38h-156v-72.38h77.71z" class="cls-3"/><path d="M423.59 278.19v178.87" class="cls-2"/><path d="M373.16 287.94h100.88v72.38H373.16zm50.72 79.87h-78.29v72.38h156v-72.38h-77.71z" class="cls-3"/><path d="M151.7 188.45h-25.94l-4.28 10.95h-8.72l21-52.9h9.91l21 52.9H156zm-23.64-7.06h21.34l-10.71-28zm42.84-34.9h7.1v52.9h-7.1zm17.37 3.65a4.66 4.66 0 0 1 4.6-4.6 4.6 4.6 0 0 1 4.6 4.6 4.54 4.54 0 0 1-4.6 4.52 4.59 4.59 0 0 1-4.6-4.52zm1.11 10.95h7.14v38.31h-7.14zM211 204c3.17 3.65 7.06 5.08 12.29 5.08 5.95 0 11.9-2.86 11.9-10.95v-5a16.15 16.15 0 0 1-12.61 6.58c-9.91 0-17.05-7.3-17.05-19.83 0-12.29 7.14-19.75 17.05-19.75a15.64 15.64 0 0 1 12.61 6.5v-5.55h7.14v36.8c0 13.17-9.6 17.05-19 17.05-6.42 0-11.1-1.35-15.7-5.71zm24.19-31.88a13.36 13.36 0 0 0-10.63-5.63c-7.14 0-11.58 5.55-11.58 13.4s4.44 13.48 11.58 13.48a13.42 13.42 0 0 0 10.63-5.71zm44.29 2.76c0-6.35-3.25-8.41-8.17-8.41a13.69 13.69 0 0 0-10.55 5.53v27.36h-7.14v-38.28h7.14v5.39a18.27 18.27 0 0 1 13.56-6.34c8.09 0 12.29 4.28 12.29 12.37v26.89h-7.14zM118.23 568.49h18.88c16.5 0 27.44 11.26 27.44 26.49s-10.95 26.41-27.44 26.41h-18.88zm18.88 45.92c12.21 0 19.27-8.72 19.27-19.43 0-10.87-6.82-19.51-19.27-19.51h-10.95v38.95zm35.77-42.27a4.66 4.66 0 0 1 4.6-4.6 4.6 4.6 0 0 1 4.6 4.6 4.54 4.54 0 0 1-4.6 4.52 4.59 4.59 0 0 1-4.6-4.52zm1.12 10.94h7.14v38.31H174zm18.55 28.08a18.56 18.56 0 0 0 12.85 5.47c5.39 0 8.25-2.22 8.25-5.47 0-3.81-4.36-5.08-9.28-6.19-6.5-1.51-14.12-3.25-14.12-11.5 0-6.11 5.23-11.34 14.59-11.34a20.5 20.5 0 0 1 14.59 5.47l-3.17 5c-2.22-2.7-6.5-4.68-11.34-4.68s-7.85 1.9-7.85 5c0 3.33 4.13 4.44 8.88 5.55 6.66 1.51 14.59 3.33 14.59 12.13 0 6.58-5.39 11.74-15.47 11.74-6.42 0-12.06-2-15.94-5.95zm38.45 1.75v-23.56h-6.35v-6.27H231v-10.47h7.14v10.47h7.77v6.27h-7.77v22c0 2.7 1.27 4.68 3.73 4.68a5.49 5.49 0 0 0 3.89-1.51l1.82 5.39c-1.51 1.43-3.73 2.46-7.46 2.46-6.01-.02-9.12-3.44-9.12-9.46zm22.86-29.83H261V589c2.94-3.81 7.46-6.74 12.53-6.74v7.22a11.14 11.14 0 0 0-2.46-.24c-3.57 0-8.41 2.7-10.07 5.55v26.65h-7.14zm25.7-10.94a4.66 4.66 0 0 1 4.6-4.6 4.6 4.6 0 0 1 4.6 4.6 4.54 4.54 0 0 1-4.6 4.52 4.59 4.59 0 0 1-4.6-4.52zm1.11 10.95h7.14v38.31h-7.14zm18.49-14.6h7.14v20.15a15.38 15.38 0 0 1 12.53-6.5c10 0 17.05 7.85 17.05 20.14 0 12.53-7.14 20.07-17.05 20.07a15.73 15.73 0 0 1-12.53-6.43v5.47h-7.14zM316.92 616c7.14 0 11.58-5.71 11.58-13.72s-4.44-13.8-11.58-13.8a13.19 13.19 0 0 0-10.63 5.71v16.26c1.91 3.09 6.27 5.55 10.63 5.55zm53.94.16a18.93 18.93 0 0 1-13.64 6.19c-8.17 0-12.21-4.12-12.21-12.21v-27h7.14v24.67c0 6.35 3.17 8.25 8.09 8.25a13.85 13.85 0 0 0 10.63-5.39v-27.59H378v38.31h-7.14zm19.91-3.25v-23.56h-6.35v-6.27h6.35v-10.47h7.14v10.47h7.77v6.27h-7.77v22c0 2.7 1.27 4.68 3.73 4.68a5.49 5.49 0 0 0 3.89-1.51l1.82 5.39c-1.51 1.43-3.73 2.46-7.46 2.46-6.03-.02-9.12-3.44-9.12-9.46zm39.66-30.78c11.5 0 18.64 9 18.64 20.7v1.74h-30.3a12.56 12.56 0 0 0 13 11.9 16.29 16.29 0 0 0 11.35-4.47l3.33 4.68c-3.81 3.73-9.2 5.71-15.39 5.71-11.42 0-19.83-8.09-19.83-20.15 0-11.15 8.01-20.11 19.2-20.11zm-11.74 17.29h23.4c-.16-5.08-3.57-11.42-11.66-11.42-7.7 0-11.34 6.19-11.74 11.42z" class="cls-4"/><path d="M34.79 0h1614.42A34.79 34.79 0 0 1 1684 34.79V103H0V34.79A34.79 34.79 0 0 1 34.79 0z" class="cls-5"/></svg>