<svg xmlns="http://www.w3.org/2000/svg" xmlns:xlink="http://www.w3.org/1999/xlink" id="Layer_1" viewBox="0 0 182.18 52.58" width="182.18" height="52.58"><defs><style>.cls-1{fill:#fff}.cls-2{fill:#00aeef}.cls-3,.cls-4,.cls-6{fill:none}.cls-3{stroke:#94c948}.cls-3,.cls-6{stroke-miterlimit:10}.cls-4{stroke:#fff;stroke-linecap:round;stroke-linejoin:round;stroke-width:3px}.cls-5{fill:#00683f}.cls-6{stroke:#58595b}.cls-7{fill:#d1d3d4}.cls-8{fill:#58595b}</style><symbol id="Anchor" viewBox="0 0 3.06 3.06"><path d="M.25.25h2.56v2.56H.25z" class="cls-1"/><path d="M2.56.5v2.06H.5V.5h2.06m.5-.5H0v3.06h3.06V0z" class="cls-2"/></symbol><symbol id="Anchor_Selected" viewBox="0 0 3.06 3.06"><path d="M.25.25h2.56v2.56H.25z" class="cls-2"/><path d="M2.56.5v2.06H.5V.5h2.06m.5-.5H0v3.06h3.06V0z" class="cls-2"/></symbol></defs><path d="M145.63 32.11c-4.73-13.94-33.75-49.87-71.73-13.43s-67 .51-71.73-13.43" class="cls-3"/><use width="3.06" height="3.06" transform="rotate(-45 6.337 2.625)" xlink:href="#Anchor"/><g id="Anchor-3"><use width="3.06" height="3.06" transform="rotate(-45 58.414 -77.246)" xlink:href="#Anchor_Selected"/><path d="M46.5 10.77a3.94 3.94 0 0 0 2.94 1.32c1.51 0 2-.77 2-1.44 0-1-1.07-1.26-2.26-1.57-1.44-.4-3.18-.83-3.18-2.74 0-1.54 1.36-2.66 3.31-2.66A4.58 4.58 0 0 1 52.71 5l-.81 1a3.64 3.64 0 0 0-2.7-1.09c-1 0-1.75.53-1.75 1.32s1 1.11 2.17 1.4c1.53.41 3.31.88 3.31 2.87 0 1.46-1 2.82-3.53 2.82a4.78 4.78 0 0 1-3.68-1.48zm10.7-4.54c2 0 3.29 1.58 3.29 3.66v.31h-5.35a2.22 2.22 0 0 0 2.3 2.1 2.87 2.87 0 0 0 2-.8l.59.83a3.8 3.8 0 0 1-2.72 1 3.38 3.38 0 0 1-3.5-3.56 3.4 3.4 0 0 1 3.39-3.54zm-2.07 3.05h4.13a2 2 0 0 0-2.06-2 2.07 2.07 0 0 0-2.07 2zm6.66-5.46h1.26v9.34h-1.26zm5.95 2.41c2 0 3.29 1.58 3.29 3.66v.31h-5.35a2.22 2.22 0 0 0 2.3 2.1 2.88 2.88 0 0 0 2-.8l.59.83a3.8 3.8 0 0 1-2.72 1 3.38 3.38 0 0 1-3.5-3.56 3.4 3.4 0 0 1 3.39-3.54zm-2.07 3.05h4.13a2 2 0 0 0-2.06-2 2.07 2.07 0 0 0-2.07 2zm9.69-3.05a3 3 0 0 1 2.54 1.19l-.84.77a1.89 1.89 0 0 0-1.64-.84 2.2 2.2 0 0 0-2.19 2.42 2.21 2.21 0 0 0 2.19 2.44 1.92 1.92 0 0 0 1.64-.84l.84.77a3 3 0 0 1-2.54 1.19 3.38 3.38 0 0 1-3.45-3.56 3.37 3.37 0 0 1 3.45-3.54zm3.89 5.43V7.5h-1.12V6.4h1.12V4.55h1.26V6.4h1.37v1.1h-1.37v3.88c0 .48.22.83.66.83a1 1 0 0 0 .69-.27l.32 1a1.79 1.79 0 0 1-1.32.43 1.47 1.47 0 0 1-1.61-1.71zM86 6.23c2 0 3.29 1.58 3.29 3.66v.31h-5.38a2.22 2.22 0 0 0 2.3 2.1 2.87 2.87 0 0 0 2-.8l.59.83a3.8 3.8 0 0 1-2.72 1 3.38 3.38 0 0 1-3.5-3.56A3.4 3.4 0 0 1 86 6.23zm-2.1 3.05H88a2 2 0 0 0-2.06-2 2.07 2.07 0 0 0-2.04 2zm11.48 2.92a2.8 2.8 0 0 1-2.21 1.13c-1.76 0-3-1.33-3-3.54s1.26-3.56 3-3.56a2.75 2.75 0 0 1 2.21 1.15V3.82h1.26v9.34h-1.26zm0-3.85a2.34 2.34 0 0 0-1.88-1c-1.26 0-2 1-2 2.44s.78 2.42 2 2.42a2.33 2.33 0 0 0 1.88-1z" class="cls-4"/><path d="M46.5 10.77a3.94 3.94 0 0 0 2.94 1.32c1.51 0 2-.77 2-1.44 0-1-1.07-1.26-2.26-1.57-1.44-.4-3.18-.83-3.18-2.74 0-1.54 1.36-2.66 3.31-2.66A4.58 4.58 0 0 1 52.71 5l-.81 1a3.64 3.64 0 0 0-2.7-1.09c-1 0-1.75.53-1.75 1.32s1 1.11 2.17 1.4c1.53.41 3.31.88 3.31 2.87 0 1.46-1 2.82-3.53 2.82a4.78 4.78 0 0 1-3.68-1.48zm10.7-4.54c2 0 3.29 1.58 3.29 3.66v.31h-5.35a2.22 2.22 0 0 0 2.3 2.1 2.87 2.87 0 0 0 2-.8l.59.83a3.8 3.8 0 0 1-2.72 1 3.38 3.38 0 0 1-3.5-3.56 3.4 3.4 0 0 1 3.39-3.54zm-2.07 3.05h4.13a2 2 0 0 0-2.06-2 2.07 2.07 0 0 0-2.07 2zm6.66-5.46h1.26v9.34h-1.26zm5.95 2.41c2 0 3.29 1.58 3.29 3.66v.31h-5.35a2.22 2.22 0 0 0 2.3 2.1 2.88 2.88 0 0 0 2-.8l.59.83a3.8 3.8 0 0 1-2.72 1 3.38 3.38 0 0 1-3.5-3.56 3.4 3.4 0 0 1 3.39-3.54zm-2.07 3.05h4.13a2 2 0 0 0-2.06-2 2.07 2.07 0 0 0-2.07 2zm9.69-3.05a3 3 0 0 1 2.54 1.19l-.84.77a1.89 1.89 0 0 0-1.64-.84 2.2 2.2 0 0 0-2.19 2.42 2.21 2.21 0 0 0 2.19 2.44 1.92 1.92 0 0 0 1.64-.84l.84.77a3 3 0 0 1-2.54 1.19 3.38 3.38 0 0 1-3.45-3.56 3.37 3.37 0 0 1 3.45-3.54zm3.89 5.43V7.5h-1.12V6.4h1.12V4.55h1.26V6.4h1.37v1.1h-1.37v3.88c0 .48.22.83.66.83a1 1 0 0 0 .69-.27l.32 1a1.79 1.79 0 0 1-1.32.43 1.47 1.47 0 0 1-1.61-1.71zM86 6.23c2 0 3.29 1.58 3.29 3.66v.31h-5.38a2.22 2.22 0 0 0 2.3 2.1 2.87 2.87 0 0 0 2-.8l.59.83a3.8 3.8 0 0 1-2.72 1 3.38 3.38 0 0 1-3.5-3.56A3.4 3.4 0 0 1 86 6.23zm-2.1 3.05H88a2 2 0 0 0-2.06-2 2.07 2.07 0 0 0-2.04 2zm11.48 2.92a2.8 2.8 0 0 1-2.21 1.13c-1.76 0-3-1.33-3-3.54s1.26-3.56 3-3.56a2.75 2.75 0 0 1 2.21 1.15V3.82h1.26v9.34h-1.26zm0-3.85a2.34 2.34 0 0 0-1.88-1c-1.26 0-2 1-2 2.44s.78 2.42 2 2.42a2.33 2.33 0 0 0 1.88-1zm12.34 32.3v7.17h-1.4v-9.34h1.44l5.08 7v-7h1.4v9.34h-1.36zm7.87 3.78A3.42 3.42 0 1 1 119 48a3.36 3.36 0 0 1-3.41-3.57zm5.52 0a2.12 2.12 0 1 0-4.2 0 2.12 2.12 0 1 0 4.2 0zm2.89 1.9v-4.16h-1.12v-1.11H124v-1.85h1.26v1.85h1.37v1.11h-1.37V46c0 .48.22.83.66.83a1 1 0 0 0 .69-.27l.32 1a1.79 1.79 0 0 1-1.32.43 1.47 1.47 0 0 1-1.61-1.66zm7.32-.9a3.94 3.94 0 0 0 2.94 1.32c1.51 0 2-.77 2-1.44 0-1-1.06-1.26-2.26-1.57-1.5-.39-3.24-.83-3.24-2.73 0-1.54 1.36-2.66 3.31-2.66a4.58 4.58 0 0 1 3.4 1.3l-.81 1a3.64 3.64 0 0 0-2.7-1.09c-1 0-1.75.53-1.75 1.32s1 1.11 2.17 1.4c1.53.41 3.31.88 3.31 2.87 0 1.46-1 2.82-3.53 2.82a4.78 4.78 0 0 1-3.68-1.48zM142 40.89c2 0 3.29 1.58 3.29 3.66v.31H140a2.22 2.22 0 0 0 2.3 2.1 2.87 2.87 0 0 0 2-.8l.59.83a3.8 3.8 0 0 1-2.72 1 3.55 3.55 0 0 1-.11-7.1zm-2.07 3.05h4.13a2 2 0 0 0-2.06-2 2.07 2.07 0 0 0-2.05 2zm6.68-5.46h1.26v9.34h-1.26zm5.95 2.41c2 0 3.29 1.58 3.29 3.66v.31h-5.35a2.22 2.22 0 0 0 2.3 2.1 2.88 2.88 0 0 0 2-.8l.59.83a3.8 3.8 0 0 1-2.72 1 3.55 3.55 0 0 1-.11-7.1zm-2.07 3.05h4.13a2 2 0 0 0-2.06-2 2.07 2.07 0 0 0-2.07 2zm9.69-3.05a3 3 0 0 1 2.54 1.19l-.84.77a1.89 1.89 0 0 0-1.64-.84 2.2 2.2 0 0 0-2.24 2.42 2.21 2.21 0 0 0 2.19 2.44 1.92 1.92 0 0 0 1.64-.84l.84.77a3 3 0 0 1-2.49 1.2 3.55 3.55 0 0 1 0-7.1zm3.89 5.44v-4.16h-1.12v-1.11h1.12v-1.85h1.26v1.85h1.37v1.11h-1.37V46c0 .48.22.83.66.83a1 1 0 0 0 .69-.27l.32 1a1.79 1.79 0 0 1-1.32.43 1.47 1.47 0 0 1-1.61-1.66zm6.72-5.44c2 0 3.29 1.58 3.29 3.66v.31h-5.35A2.22 2.22 0 0 0 171 47a2.87 2.87 0 0 0 2-.8l.59.83a3.8 3.8 0 0 1-2.72 1 3.55 3.55 0 0 1-.11-7.1zm-2.07 3.05h4.13a2 2 0 0 0-2.06-2 2.07 2.07 0 0 0-2.07 2zm11.48 2.92A2.8 2.8 0 0 1 178 48c-1.76 0-3-1.33-3-3.54s1.26-3.56 3-3.56a2.76 2.76 0 0 1 2.2 1.1v-3.52h1.26v9.34h-1.26zm0-3.85a2.34 2.34 0 0 0-1.88-1c-1.26 0-2 1-2 2.44s.78 2.42 2 2.42a2.33 2.33 0 0 0 1.88-1z" class="cls-5"/><path d="M76.66 21.49l-.25 12.44 4.15-3.32 5.26-.7-9.16-8.42z" class="cls-6"/><path d="M76.66 21.49l-.25 12.44 4.15-3.32 5.26-.7-9.16-8.42z" class="cls-7"/></g><use width="3.06" height="3.06" transform="rotate(-45 110.495 -157.129)" xlink:href="#Anchor"/><path d="M82.02 33.73h3.38v3.38h-3.38z" class="cls-6"/><path d="M82.02 33.73h3.38v3.38h-3.38z" class="cls-7"/><path d="M82.86 34.58h1.69v1.69h-1.69z" class="cls-8"/></svg>