<svg xmlns="http://www.w3.org/2000/svg" id="Layer_1" width="415.17" height="206.34" viewBox="0 0 415.17 206.34"><defs><style>.cls-1,.cls-5{fill:#474747}.cls-1,.cls-7{stroke:#b5b5b5}.cls-1,.cls-4,.cls-7{stroke-linecap:round;stroke-linejoin:round;stroke-width:4.19px}.cls-2{fill:#00683f}.cls-3,.cls-4{fill:#b5b5b5}.cls-4{stroke:#474747}.cls-6{clip-path:url(#clip-path)}.cls-7{fill:none}</style><clipPath id="clip-path"><rect id="_Rectangle_" width="67" height="67" x="321.41" y="26.21" class="cls-1" rx="33.5" ry="33.5"/></clipPath></defs><path d="M29.86 128.43h6.66c5.82 0 9.69 4 9.69 9.35s-3.86 9.32-9.69 9.32h-6.66zm6.66 16.21a6.51 6.51 0 0 0 6.8-6.86c0-3.84-2.41-6.89-6.8-6.89h-3.86v13.75zm13.03-11.06h2.52v2.07a5.74 5.74 0 0 1 4.42-2.38v2.55a4 4 0 0 0-.87-.08 4.78 4.78 0 0 0-3.56 2v9.41h-2.51zm17.81 12.04a5.79 5.79 0 0 1-4.42 1.82 4.49 4.49 0 0 1-4.7-4.48c0-3.08 2.44-4.42 4.7-4.42a5.64 5.64 0 0 1 4.42 1.79v-2.24c0-1.68-1.37-2.69-3.3-2.69a5.53 5.53 0 0 0-4.06 1.79l-1.09-1.74a7.61 7.61 0 0 1 5.54-2.21c2.94 0 5.43 1.29 5.43 4.73v9.13h-2.52zm0-3.78a4.28 4.28 0 0 0-3.47-1.54c-1.82 0-3.11 1.09-3.11 2.69s1.29 2.69 3.11 2.69a4.28 4.28 0 0 0 3.47-1.54zm14.95-5.12L79 147.1h-2.6l-4.26-13.52h2.63l3.08 10.3 3.39-10.3h2.16l3.39 10.3 3.08-10.3h2.63l-4.26 13.52h-2.6zM20.2 158.37v14.33h-2.8V154h2.88l10.16 14v-14h2.8v18.7h-2.7zm16.3 7.56c0-3.89 2.63-7.08 6.83-7.08s6.83 3.19 6.83 7.08-2.6 7.07-6.83 7.07-6.83-3.15-6.83-7.07zm11 0c0-2.55-1.48-4.84-4.2-4.84s-4.2 2.3-4.2 4.84 1.51 4.87 4.2 4.87 4.23-2.3 4.23-4.87zm5.86-6.75h2.52v2.07a5.74 5.74 0 0 1 4.42-2.38v2.55a4 4 0 0 0-.87-.08 4.78 4.78 0 0 0-3.56 2v9.41h-2.51zm25.9 4.51c0-1.57-.7-2.6-2.35-2.6a4.35 4.35 0 0 0-3.37 1.91v9.69H71v-9c0-1.57-.67-2.6-2.38-2.6a4.42 4.42 0 0 0-3.3 2v9.66h-2.5v-13.57h2.52v1.9a5.85 5.85 0 0 1 4.37-2.24 3.49 3.49 0 0 1 3.67 2.52 5.67 5.67 0 0 1 4.56-2.52c2.49 0 3.84 1.37 3.84 4.09v9.77h-2.52zm14.86 7.53A5.79 5.79 0 0 1 89.7 173a4.49 4.49 0 0 1-4.7-4.48c0-3.08 2.44-4.42 4.7-4.42a5.64 5.64 0 0 1 4.42 1.79v-2.24c0-1.68-1.37-2.69-3.3-2.69a5.53 5.53 0 0 0-4.06 1.79l-1.09-1.74a7.61 7.61 0 0 1 5.54-2.21c2.94 0 5.43 1.29 5.43 4.73v9.13h-2.52zm0-3.78a4.28 4.28 0 0 0-3.47-1.54c-1.82 0-3.11 1.09-3.11 2.69s1.29 2.69 3.11 2.69a4.28 4.28 0 0 0 3.47-1.54zm6.56-13.44h2.52v18.7h-2.52zm84.89-25.57h6.66c5.82 0 9.69 4 9.69 9.35s-3.86 9.32-9.69 9.32h-6.66zm6.66 16.21a6.51 6.51 0 0 0 6.8-6.86c0-3.84-2.41-6.89-6.8-6.89h-3.86v13.75zm13.02-11.06h2.52v2.07a5.74 5.74 0 0 1 4.42-2.38v2.55a4 4 0 0 0-.87-.08 4.78 4.78 0 0 0-3.56 2v9.41h-2.52zm17.81 12.04a5.79 5.79 0 0 1-4.42 1.82 4.49 4.49 0 0 1-4.7-4.48c0-3.08 2.44-4.42 4.7-4.42a5.64 5.64 0 0 1 4.42 1.79v-2.24c0-1.68-1.37-2.69-3.3-2.69a5.53 5.53 0 0 0-4.06 1.79l-1.09-1.74a7.61 7.61 0 0 1 5.54-2.21c2.94 0 5.43 1.29 5.43 4.73v9.13h-2.52zm0-3.78a4.28 4.28 0 0 0-3.47-1.54c-1.82 0-3.11 1.09-3.11 2.69s1.29 2.69 3.11 2.69a4.28 4.28 0 0 0 3.47-1.54zm14.94-5.12l-3.33 10.39h-2.6l-4.26-13.52h2.63l3.08 10.3 3.39-10.3h2.18l3.39 10.3 3.08-10.3h2.63l-4.26 13.52h-2.6zM174.24 154H183c3.33 0 5.26 2 5.26 4.76a4.22 4.22 0 0 1-3.25 4.28 4.62 4.62 0 0 1 3.61 4.59c0 2.94-2 5-5.4 5h-9zm8.23 7.92a2.74 2.74 0 1 0 0-5.46H177V162zm.14 8.29a2.81 2.81 0 0 0 3.14-2.94 2.85 2.85 0 0 0-3.14-2.88H177v5.82zM198 158.84c4.06 0 6.58 3.16 6.58 7.31v.62h-10.7a4.43 4.43 0 0 0 4.59 4.2 5.75 5.75 0 0 0 4-1.6l1.18 1.65a7.61 7.61 0 0 1-5.43 2 7.1 7.1 0 0 1-.22-14.2zm-4.14 6.1h8.26a4 4 0 0 0-4.12-4 4.14 4.14 0 0 0-4.16 4.01zm23-.94c0-2.24-1.15-2.91-2.88-2.91a4.83 4.83 0 0 0-3.72 2v9.66h-2.52V154h2.52v7.06a6.5 6.5 0 0 1 4.79-2.24c2.88 0 4.34 1.46 4.34 4.31v9.55h-2.52zm6.14-8.68a1.64 1.64 0 0 1 1.62-1.62 1.62 1.62 0 0 1 1.62 1.62 1.6 1.6 0 0 1-1.62 1.6 1.62 1.62 0 0 1-1.62-1.6zm.39 3.86h2.52v13.52h-2.52zm15.67 4.87c0-2.24-1.15-3-2.88-3a4.83 4.83 0 0 0-3.72 2v9.66h-2.52v-13.53h2.52v1.9a6.45 6.45 0 0 1 4.79-2.24c2.86 0 4.34 1.51 4.34 4.37v9.49h-2.52zm16.16 6.72a5.59 5.59 0 0 1-4.42 2.27c-3.53 0-6-2.66-6-7.08s2.52-7.11 6-7.11a5.51 5.51 0 0 1 4.42 2.3V154h2.52v18.7h-2.52zm0-7.7a4.67 4.67 0 0 0-3.75-2c-2.52 0-4.09 2-4.09 4.87s1.57 4.84 4.09 4.84a4.65 4.65 0 0 0 3.75-2zm69.3-34.64h6.66c5.82 0 9.69 4 9.69 9.35s-3.86 9.32-9.69 9.32h-6.66zm6.66 16.21a6.51 6.51 0 0 0 6.8-6.86c0-3.84-2.41-6.89-6.8-6.89h-3.86v13.75zm13.02-11.06h2.52v2.07a5.74 5.74 0 0 1 4.42-2.38v2.55a4 4 0 0 0-.87-.08 4.78 4.78 0 0 0-3.56 2v9.41h-2.51zm17.8 12.04a5.79 5.79 0 0 1-4.42 1.82 4.49 4.49 0 0 1-4.7-4.48c0-3.08 2.44-4.42 4.7-4.42a5.64 5.64 0 0 1 4.42 1.79v-2.24c0-1.68-1.37-2.69-3.3-2.69a5.53 5.53 0 0 0-4.06 1.79l-1.09-1.74a7.61 7.61 0 0 1 5.54-2.21c2.94 0 5.43 1.29 5.43 4.73v9.13H362zm0-3.78a4.28 4.28 0 0 0-3.47-1.54c-1.82 0-3.11 1.09-3.11 2.69s1.29 2.69 3.11 2.69a4.28 4.28 0 0 0 3.47-1.54zm15-5.12l-3.33 10.39H371l-4.26-13.52h2.63l3.08 10.3 3.39-10.3h2.18l3.39 10.3 3.08-10.3h2.63l-4.22 13.51h-2.6zM319.93 154h2.8v18.7h-2.8zM336 164.05c0-2.24-1.15-3-2.88-3a4.83 4.83 0 0 0-3.72 2v9.66h-2.52v-13.53h2.52v1.9a6.45 6.45 0 0 1 4.79-2.24c2.86 0 4.34 1.51 4.34 4.37v9.49H336zm6.52 5.04a6.55 6.55 0 0 0 4.54 1.93c1.9 0 2.91-.78 2.91-1.93 0-1.34-1.54-1.79-3.28-2.18-2.3-.53-5-1.15-5-4.06 0-2.16 1.85-4 5.15-4a7.24 7.24 0 0 1 5.15 1.93l-1.12 1.76a5.27 5.27 0 0 0-4-1.65c-1.71 0-2.77.67-2.77 1.76s1.46 1.57 3.14 2c2.35.53 5.15 1.18 5.15 4.28 0 2.32-1.9 4.14-5.46 4.14a7.7 7.7 0 0 1-5.63-2.1zm12.69-13.77a1.64 1.64 0 0 1 1.62-1.62 1.62 1.62 0 0 1 1.62 1.62 1.6 1.6 0 0 1-1.62 1.6 1.62 1.62 0 0 1-1.62-1.6zm.39 3.86h2.52v13.52h-2.52zm16.15 11.59a5.59 5.59 0 0 1-4.42 2.27c-3.53 0-6-2.66-6-7.08s2.52-7.11 6-7.11a5.51 5.51 0 0 1 4.42 2.3V154h2.52v18.7h-2.52zm0-7.7a4.67 4.67 0 0 0-3.75-2c-2.52 0-4.09 2-4.09 4.87s1.57 4.84 4.09 4.84a4.65 4.65 0 0 0 3.75-2zm12.49-4.23c4.06 0 6.58 3.16 6.58 7.31v.62h-10.7a4.43 4.43 0 0 0 4.59 4.2 5.75 5.75 0 0 0 4-1.6l1.19 1.63a7.61 7.61 0 0 1-5.43 2 7.1 7.1 0 0 1-.22-14.2zm-4.14 6.1h8.26a4 4 0 0 0-4.12-4 4.14 4.14 0 0 0-4.14 4.01z" class="cls-2"/><g id="Anchor"><rect width="67" height="67" x="10.01" y="7.84" class="cls-1" rx="33.5" ry="33.5"/><path d="M43.51 41.09h67v67h-67z" class="cls-3"/><path d="M199.21 41.09h67v67h-67z" class="cls-4"/><rect width="67" height="67" x="165.71" y="7.84" class="cls-1" rx="33.5" ry="33.5"/><rect id="_Rectangle_2" width="67" height="67" x="321.41" y="26.21" class="cls-5" rx="33.5" ry="33.5"/><g class="cls-6"><path d="M345.91 52.09h67v67h-67z" class="cls-4"/></g><rect id="_Rectangle_3" width="67" height="67" x="321.41" y="26.21" class="cls-7" rx="33.5" ry="33.5"/></g></svg>