<svg xmlns="http://www.w3.org/2000/svg" id="Layer_1" width="656.5" height="294.4" viewBox="0 0 656.5 294.4"><style>.st0{fill:#323232}.st1{fill:#262626}.st2{fill:#00683f}.st3{fill:#515151;stroke:#a7a9ac;stroke-width:3}.st3,.st4,.st5,.st6{stroke-miterlimit:10}.st4{fill:none;stroke:#262626;stroke-width:5}.st5,.st6{fill:none;stroke:#bcbec0;stroke-width:4}.st6{stroke-linecap:square}</style><path d="M656.5 214.7H0V19.4C0 8.7 8.7 0 19.4 0H637c10.7 0 19.4 8.7 19.4 19.4l.1 195.3z" class="st0"/><path d="M656.5 53.2H0V19.4C0 8.7 8.7 0 19.4 0H637c10.7 0 19.4 8.7 19.4 19.4l.1 33.8z" class="st1"/><path d="M191.5 248.3H188v7.2h-2.8v-18.7h7.9c3.6 0 6 2.3 6 5.7.1 2.8-1.9 5.2-4.6 5.5l4.8 7.5h-3.2l-4.6-7.2zm1.2-9H188v6.5h4.7c1.8.1 3.4-1.3 3.5-3.1s-1.3-3.4-3.1-3.5c-.2.1-.3.1-.4.1zm8 9.4c0-3.9 2.6-7.1 6.8-7.1s6.8 3.2 6.8 7.1-2.6 7.1-6.8 7.1-6.8-3.2-6.8-7.1zm11 0c0-2.6-1.5-4.8-4.2-4.8s-4.2 2.3-4.2 4.8 1.5 4.9 4.2 4.9 4.3-2.3 4.2-4.9zm15 4.9c-1.2 1.4-3 2.1-4.8 2.2-2.9 0-4.3-1.5-4.3-4.3v-9.6h2.5v8.7c0 2.2 1.1 2.9 2.9 2.9 1.5 0 2.8-.7 3.8-1.9v-9.7h2.5v13.5h-2.5l-.1-1.8zm15.7-6.8c0-2.2-1.1-3-2.9-3-1.5.1-2.9.8-3.7 2v9.7h-2.5V242h2.5v1.9c1.2-1.4 2.9-2.2 4.8-2.2 2.9 0 4.3 1.5 4.3 4.4v9.5h-2.5v-8.8zm16.1 6.7c-1 1.4-2.7 2.2-4.4 2.3-3.5 0-6-2.7-6-7.1s2.5-7.1 6-7.1c1.8 0 3.4.9 4.4 2.3v-7.1h2.5v18.7h-2.5v-2zm0-7.7c-.9-1.2-2.3-2-3.8-2-2.5 0-4.1 2-4.1 4.9s1.6 4.8 4.1 4.8c1.5 0 2.9-.8 3.8-2v-5.7zm12.5-4.2c4.1 0 6.6 3.2 6.6 7.3v.6h-10.7c.1 2.4 2.2 4.3 4.6 4.2 1.5 0 2.9-.6 4-1.6l1.2 1.7c-1.5 1.4-3.4 2.1-5.4 2-3.9-.1-7-3.4-6.8-7.3 0-3.7 2.9-6.7 6.5-6.9zm-4.1 6.1h8.3c0-2.2-1.8-4-4-4h-.1c-2.3 0-4.2 1.8-4.2 4zm23.5 5.8c-1 1.4-2.7 2.2-4.4 2.3-3.5 0-6-2.7-6-7.1s2.5-7.1 6-7.1c1.8 0 3.4.9 4.4 2.3v-7.1h2.5v18.7h-2.5v-2zm0-7.7c-.9-1.2-2.3-2-3.8-2-2.5 0-4.1 2-4.1 4.9s1.6 4.8 4.1 4.8c1.5 0 2.9-.8 3.8-2v-5.7zm-104.8 36.1h-3.5v7.2h-2.8v-18.7h7.9c3.6 0 6 2.3 6 5.7.1 2.8-1.9 5.2-4.6 5.5l4.8 7.5H190l-4.4-7.2zm1.2-9h-4.7v6.5h4.7c1.8.1 3.4-1.3 3.5-3.1.1-1.8-1.3-3.4-3.1-3.5-.1.1-.3.1-.4.1zm14.9 2.3c4.1 0 6.6 3.2 6.6 7.3v.6h-10.7c.1 2.4 2.2 4.3 4.6 4.2 1.5 0 2.9-.6 4-1.6l1.2 1.7c-1.5 1.4-3.4 2.1-5.4 2-3.9.1-7.1-3.1-7.2-7-.2-3.9 3-7.1 6.9-7.2zm-4.2 6.1h8.3c0-2.2-1.8-4-4-4h-.1c-2.3 0-4.1 1.8-4.2 4zm20-6.1c2-.1 3.9.8 5.1 2.4l-1.7 1.5c-.7-1.1-2-1.7-3.3-1.7-2.7 0-4.4 2-4.4 4.8s1.7 4.9 4.4 4.9c1.3 0 2.5-.6 3.3-1.7l1.7 1.5c-1.2 1.6-3.1 2.5-5.1 2.4-3.9 0-7.1-3.2-7.1-7.1 0-3.8 3.1-7 7.1-7zm8.3 10.9v-8.3h-2.2v-2.2h2.2v-3.7h2.5v3.7h2.7v2.2h-2.7v7.8c0 1 .4 1.6 1.3 1.6.5 0 1-.2 1.4-.5l.6 1.9c-.7.6-1.7 1-2.6.9-2.1-.1-3.2-1.3-3.2-3.4zm16.4 1.5c-1.1 1.2-2.8 1.9-4.4 1.8-2.5.1-4.6-1.8-4.7-4.3v-.2c0-3.1 2.4-4.4 4.7-4.4 1.7-.1 3.3.6 4.4 1.8V280c0-1.7-1.4-2.7-3.3-2.7-1.5 0-3 .7-4.1 1.8l-1.1-1.7c1.5-1.5 3.5-2.3 5.5-2.2 2.9 0 5.4 1.3 5.4 4.7v9.1h-2.5l.1-1.4zm0-3.8c-.9-1-2.1-1.6-3.5-1.5-1.8 0-3.1 1.1-3.1 2.7s1.3 2.7 3.1 2.7c1.3.1 2.6-.5 3.5-1.5v-2.4zm15.7-3.4c0-2.2-1.1-3-2.9-3-1.5.1-2.9.8-3.7 2v9.7h-2.5v-13.5h2.5v1.9c1.2-1.4 2.9-2.2 4.7-2.2 2.9 0 4.3 1.5 4.3 4.4v9.5h-2.5l.1-8.8zm7.6 10.3c1.1 1.2 2.7 1.9 4.3 1.8 2.1 0 4.2-1 4.2-3.9v-1.8c-1 1.4-2.7 2.3-4.5 2.3-3.5 0-6-2.6-6-7s2.5-7 6-7c1.8 0 3.4.9 4.5 2.3v-2h2.5v13c0 4.6-3.4 6-6.7 6-2 .1-4.1-.6-5.5-2l1.2-1.7zm8.5-11.3c-.9-1.2-2.3-2-3.8-2-2.5 0-4.1 2-4.1 4.7s1.6 4.8 4.1 4.8c1.5 0 2.9-.8 3.8-2v-5.5zm6.6-9h2.5v18.7h-2.5v-18.7zm12.4 4.8c4.1 0 6.6 3.2 6.6 7.3v.6h-10.7c.1 2.4 2.2 4.3 4.6 4.2 1.5 0 2.9-.6 4-1.6l1.2 1.6c-1.5 1.4-3.4 2.1-5.4 2-3.9.1-7.1-3.1-7.2-7-.1-3.8 3-7.1 6.9-7.1zm-4.1 6.1h8.3c0-2.2-1.8-4-4-4h-.1c-2.3 0-4.1 1.8-4.2 4z" class="st2"/><path d="M215.8 117.4h47.4c5.9 0 10.6 4.8 10.6 10.6v18c0 5.9-4.8 10.6-10.6 10.6h-47.4c-5.9 0-10.6-4.8-10.6-10.6v-18c-.1-5.8 4.7-10.6 10.6-10.6z" class="st3"/><path d="M34.2 248.3h-3.5v7.2h-2.8v-18.7h7.9c3.6 0 6 2.3 6 5.7.1 2.8-1.9 5.2-4.7 5.5l4.8 7.5h-3.3l-4.4-7.2zm1.2-9h-4.7v6.5h4.7c1.8.1 3.4-1.3 3.5-3.1s-1.3-3.4-3.1-3.5c-.1.1-.2.1-.4.1zm14.9 2.3c4.1 0 6.6 3.2 6.6 7.3v.6H46.2c.1 2.4 2.2 4.3 4.6 4.2 1.5 0 2.9-.6 4-1.6l1.2 1.7c-1.5 1.4-3.4 2.1-5.4 2-3.9.1-7.1-3.1-7.2-7s3-7.2 6.9-7.2zm-4.2 6.1h8.3c0-2.2-1.8-4-4-4h-.1c-2.3 0-4.1 1.8-4.2 4zm20-6.1c2-.1 3.9.8 5.1 2.4l-1.7 1.5c-.7-1.1-2-1.7-3.3-1.7-2.7 0-4.4 2-4.4 4.8s1.7 4.9 4.4 4.9c1.3 0 2.5-.6 3.3-1.7l1.7 1.5c-1.2 1.6-3.1 2.5-5.1 2.4-3.9 0-7.1-3.2-7.1-7.1 0-3.8 3.2-7 7.1-7zm8.3 10.9v-8.3h-2.2V242h2.2v-3.7h2.5v3.7h2.7v2.2h-2.7v7.8c0 1 .4 1.7 1.3 1.7.5 0 1-.2 1.4-.5l.6 1.9c-.7.6-1.7.9-2.6.9-2.1-.2-3.2-1.4-3.2-3.5zm16.4 1.5c-1.1 1.2-2.8 1.9-4.4 1.8-2.5.1-4.6-1.8-4.7-4.3v-.2c0-3.1 2.4-4.4 4.7-4.4 1.7-.1 3.3.6 4.4 1.8v-2.3c0-1.7-1.4-2.7-3.3-2.7-1.5 0-3 .7-4.1 1.8l-1.1-1.7c1.5-1.5 3.5-2.3 5.5-2.2 2.9 0 5.4 1.3 5.4 4.7v9.1h-2.5l.1-1.4zm0-3.8c-.9-1-2.1-1.6-3.5-1.5-1.8 0-3.1 1.1-3.1 2.7s1.3 2.7 3.1 2.7c1.3.1 2.6-.5 3.5-1.5v-2.4zm15.7-3.4c0-2.2-1.2-3-2.9-3-1.5.1-2.9.8-3.7 2v9.7h-2.5V242h2.5v1.9c1.2-1.4 2.9-2.2 4.8-2.2 2.9 0 4.3 1.5 4.3 4.4v9.5h-2.5v-8.8zm7.6 10.3c1.1 1.2 2.7 1.9 4.3 1.8 2.1 0 4.2-1 4.2-3.9v-1.8c-1 1.4-2.7 2.3-4.4 2.3-3.5 0-6-2.6-6-7s2.5-7 6-7c1.8 0 3.4.9 4.4 2.3v-2h2.5v13c0 4.7-3.4 6-6.7 6-2 .1-4.1-.6-5.5-2l1.2-1.7zm8.6-11.3c-.9-1.2-2.3-2-3.8-2-2.5 0-4.1 2-4.1 4.7s1.6 4.8 4.1 4.8c1.5 0 2.9-.8 3.8-2v-5.5zm6.5-9h2.5v18.7h-2.5v-18.7zm12.5 4.8c4.1 0 6.6 3.2 6.6 7.3v.6h-10.7c.1 2.4 2.2 4.3 4.6 4.2 1.5 0 2.9-.6 4-1.6l1.2 1.7c-1.5 1.4-3.4 2.1-5.4 2-3.9-.1-7-3.4-6.8-7.3 0-3.7 2.8-6.7 6.5-6.9zm-4.2 6.1h8.3c0-2.2-1.8-4-4-4h-.1c-2.3 0-4.1 1.8-4.2 4z" class="st2"/><path d="M27.9 117.4h68.7v39.3H27.9z" class="st3"/><path d="M378 236.8h12.5v2.5h-9.7v5.5h9.5v2.5h-9.5v5.8h9.7v2.5H378v-18.8zm16 0h2.5v18.7H394v-18.7zm6.5 0h2.5v18.7h-2.5v-18.7zm6.1 1.3c0-.9.7-1.7 1.6-1.7.9 0 1.6.7 1.6 1.6 0 .9-.7 1.6-1.6 1.6-.8 0-1.5-.7-1.6-1.5zm.4 3.8h2.5v13.5H407v-13.5zm6.5 18.7v-18.7h2.5v1.9c1-1.4 2.7-2.3 4.4-2.3 3.5 0 6 2.7 6 7.1s-2.5 7.1-6 7.1c-1.8 0-3.4-.9-4.4-2.3v7.1l-2.5.1zm6.3-16.8c-1.5 0-2.9.8-3.8 2v5.7c.9 1.2 2.3 2 3.8 2 2.5 0 4.1-2 4.1-4.9 0-2.8-1.6-4.8-4.1-4.8zm9.9 8.1c1.2 1.2 2.8 1.9 4.5 1.9 1.9 0 2.9-.8 2.9-1.9 0-1.3-1.5-1.8-3.3-2.2-2.3-.5-5-1.2-5-4.1 0-2.2 1.9-4 5.1-4 1.9-.1 3.7.6 5.1 1.9l-1.1 1.8c-1-1.1-2.5-1.7-4-1.6-1.7 0-2.8.7-2.8 1.8s1.5 1.6 3.1 2c2.4.5 5.1 1.2 5.1 4.3 0 2.3-1.9 4.1-5.5 4.1-2.1.1-4.1-.7-5.6-2.1l1.5-1.9zm19-10.3c4.1 0 6.6 3.2 6.6 7.3v.6h-10.7c.1 2.4 2.2 4.3 4.6 4.2 1.5 0 2.9-.6 4-1.6l1.2 1.7c-1.5 1.4-3.4 2.1-5.4 2-3.9.1-7.1-3.1-7.2-7-.1-3.9 3-7.2 6.9-7.2zm-4.1 6.1h8.3c0-2.2-1.8-4-4-4h-.1c-2.3 0-4.1 1.8-4.2 4z" class="st2"/><ellipse cx="416.6" cy="137.1" class="st3" rx="34" ry="19.7"/><path d="M545.6 236.8h7.9c3.2 0 5.7 2.6 5.7 5.7 0 3.2-2.6 5.7-5.7 5.7h-5.1v7.2h-2.8v-18.6zm7.5 2.4h-4.7v6.6h4.7c1.8.1 3.4-1.3 3.5-3.1s-1.3-3.4-3.1-3.5c-.2.1-.3.1-.4 0zm7.9 9.5c0-3.9 2.6-7.1 6.8-7.1s6.8 3.2 6.8 7.1-2.6 7.1-6.8 7.1-6.8-3.2-6.8-7.1zm11 0c0-2.6-1.5-4.8-4.2-4.8s-4.2 2.3-4.2 4.8 1.5 4.9 4.2 4.9 4.2-2.3 4.2-4.9zm5.8-11.9h2.5v18.7h-2.5v-18.7zm7.4 21.9c.9.1 1.7-.5 2-1.3l.8-1.8-5.6-13.7h2.7l4.2 10.6 4.2-10.6h2.7l-6.7 16.1c-.6 1.8-2.4 3-4.3 2.9-.5 0-1.1-.1-1.6-.2l.4-2.3c.5.2.8.3 1.2.3zm14.2-1.6c1.1 1.2 2.7 1.9 4.3 1.8 2.1 0 4.2-1 4.2-3.9v-1.8c-1 1.4-2.7 2.3-4.5 2.3-3.5 0-6-2.6-6-7s2.5-7 6-7c1.8 0 3.4.9 4.5 2.3v-2h2.5v13c0 4.7-3.4 6-6.7 6-2 .1-4.1-.6-5.5-2l1.2-1.7zm8.5-11.3c-.9-1.2-2.3-2-3.8-2-2.5 0-4.1 2-4.1 4.7s1.6 4.8 4.1 4.8c1.5 0 2.9-.8 3.8-2v-5.5zm5.7 2.9c0-3.9 2.6-7.1 6.8-7.1s6.8 3.2 6.8 7.1-2.6 7.1-6.8 7.1-6.8-3.2-6.8-7.1zm11 0c0-2.6-1.5-4.8-4.2-4.8s-4.2 2.3-4.2 4.8 1.5 4.9 4.2 4.9 4.2-2.3 4.2-4.9zm15-1.9c0-2.2-1.2-3-2.9-3-1.5.1-2.9.8-3.7 2v9.7h-2.5V242h2.5v1.9c1.2-1.4 2.9-2.2 4.8-2.2 2.9 0 4.3 1.5 4.3 4.4v9.5h-2.5v-8.8z" class="st2"/><path d="M609.2 110.4h-30.8L563 137.1l15.4 26.7h30.8l15.4-26.7z" class="st3"/><path d="M298.8 61.8v23m7.4-23v23m7.3-23v23m7.4-23v23m7.3-23v23m7.5-23v23m7.3-23v23m7.4-23v23m7.4-23v23" class="st4"/><path d="M23.3 11.9L52.5 41m-29.2 0l29.2-29.1" class="st5"/><path d="M581 28l13 13m-14.6-14.5L594 11.9m2.2 16.1l13 13m-14.5-14.5l14.5-14.6" class="st6"/></svg>