<svg xmlns="http://www.w3.org/2000/svg" id="Layer_1" viewBox="0 0 80.41 48.32" width="80.41" height="48.32"><defs><style>.cls-1{fill:#231f20}.cls-2{fill:#e6e7e8}.cls-3{fill:#fff}.cls-4{fill:#00683f}</style></defs><path d="M38.94 4.85h20.69v20.69H38.94z" class="cls-1" transform="rotate(-180 49.28 15.2)"/><path d="M60.13 26H38.44V4.35h21.69zm-20.69-1h19.69V5.35H39.44z" class="cls-1"/><path d="M39.44 26H17.75V4.35h21.69zm-20.69-1h19.69V5.35H18.75z" class="cls-2"/><path d="M18.25 4.85h20.69v20.69H18.25z" class="cls-3"/><path d="M5 34.12h4a2.05 2.05 0 0 1 2.28 2A1.8 1.8 0 0 1 9.84 38a2 2 0 0 1 1.55 2 2.1 2.1 0 0 1-2.33 2.16H5zm3.65 3.31a1 1 0 1 0 0-2.08H6.42v2.08zm.06 3.46A1.08 1.08 0 0 0 10 39.77a1.1 1.1 0 0 0-1.22-1.1H6.42v2.22zm3.65-6.31a.78.78 0 1 1 .78.78.79.79 0 0 1-.78-.78zm.16 1.74h1.26v5.8h-1.26zm2.9 4.46v-3.35h-1v-1.1h1v-1.59h1.26v1.58h1.18v1.1h-1.18v3c0 .4.19.68.55.68a.81.81 0 0 0 .56-.2l.3.95a1.66 1.66 0 0 1-1.19.37 1.34 1.34 0 0 1-1.48-1.44zm10.44-2.44c0-.62-.28-1-.95-1a1.76 1.76 0 0 0-1.34.77v4.06h-1.26v-3.83c0-.62-.28-1-1-1a1.75 1.75 0 0 0-1.33.78v4h-1.22v-5.8H20v.79a2.5 2.5 0 0 1 1.88-.94 1.51 1.51 0 0 1 1.58 1.07 2.46 2.46 0 0 1 2-1.07 1.53 1.53 0 0 1 1.67 1.75v4.19h-1.27zm6.2 3.16a2.45 2.45 0 0 1-1.87.77 1.93 1.93 0 0 1-2-1.92 1.87 1.87 0 0 1 2-1.88 2.4 2.4 0 0 1 1.87.74v-.86c0-.67-.55-1.08-1.36-1.08A2.37 2.37 0 0 0 29 38l-.52-.88a3.45 3.45 0 0 1 2.44-.94c1.28 0 2.41.54 2.41 2.1v3.84h-1.27zm0-1.57a1.7 1.7 0 0 0-1.38-.6 1.05 1.05 0 1 0 0 2.08 1.7 1.7 0 0 0 1.38-.6zm2.65 4.4v-8H36v.79a2.31 2.31 0 0 1 1.86-.94c1.5 0 2.57 1.13 2.57 3s-1.07 3-2.57 3a2.28 2.28 0 0 1-1.86-.86v3zm2.75-7a1.88 1.88 0 0 0-1.49.78v2.29a1.92 1.92 0 0 0 1.49.78 1.71 1.71 0 0 0 1.63-1.93 1.7 1.7 0 0 0-1.63-1.95zm13.76-1.27l-2.46 6.06h-.6l-2.45-6.06v6.06h-1.4v-8h2l2.17 5.39 2.18-5.39h2v8h-1.4zm2.47 3.16a3 3 0 1 1 3 3 2.9 2.9 0 0 1-3-3zm4.66 0a1.69 1.69 0 1 0-1.68 1.93 1.74 1.74 0 0 0 1.68-1.93zm6.42 2.11a2.35 2.35 0 0 1-1.86.94c-1.49 0-2.58-1.13-2.58-3s1.08-3 2.58-3a2.33 2.33 0 0 1 1.86.95v-3H66v8h-1.23zm0-3.25a1.9 1.9 0 0 0-1.5-.78 1.71 1.71 0 0 0-1.63 1.93 1.7 1.7 0 0 0 1.63 1.92 1.89 1.89 0 0 0 1.5-.77zm5.23-1.9a2.87 2.87 0 0 1 2.86 3.16v.3h-4.48a1.76 1.76 0 0 0 1.85 1.6 2.45 2.45 0 0 0 1.64-.64l.58.83a3.38 3.38 0 0 1-2.35.84 3 3 0 0 1-.1-6.08zm-1.63 2.57h3.26A1.55 1.55 0 0 0 70 37.21a1.6 1.6 0 0 0-1.63 1.54z" class="cls-4"/></svg>