<svg xmlns="http://www.w3.org/2000/svg" id="Layer_1" viewBox="0 0 792 367.38" width="792" height="367.38"><defs><style>.cls-1,.cls-2{fill:none}.cls-1{clip-rule:evenodd}.cls-3{clip-path:url(#clip-path)}.cls-17,.cls-4{fill:#7f7f7f}.cls-5{fill:#e5e5e5;fill-rule:evenodd}.cls-6{clip-path:url(#clip-path-2)}.cls-7{clip-path:url(#clip-path-3)}.cls-8{fill:#01683f}.cls-9{clip-path:url(#clip-path-4)}.cls-10{clip-path:url(#clip-path-5)}.cls-11{clip-path:url(#clip-path-6)}.cls-12{clip-path:url(#clip-path-7)}.cls-13{clip-path:url(#clip-path-8)}.cls-14{clip-path:url(#clip-path-9)}.cls-15{clip-path:url(#clip-path-10)}.cls-16{clip-path:url(#clip-path-11)}.cls-17{opacity:.2}.cls-18{clip-path:url(#clip-path-12)}.cls-19{clip-path:url(#clip-path-13)}.cls-20{clip-path:url(#clip-path-14)}.cls-21{clip-path:url(#clip-path-15)}.cls-22{clip-path:url(#clip-path-16)}.cls-23{clip-path:url(#clip-path-17)}.cls-24{clip-path:url(#clip-path-18)}.cls-25{clip-path:url(#clip-path-19)}.cls-26{clip-path:url(#clip-path-20)}.cls-27{clip-path:url(#clip-path-21)}.cls-28{clip-path:url(#clip-path-22)}.cls-29{clip-path:url(#clip-path-23)}.cls-30{clip-path:url(#clip-path-24)}.cls-31{clip-path:url(#clip-path-25)}.cls-32{clip-path:url(#clip-path-26)}.cls-33{clip-path:url(#clip-path-27)}.cls-34{clip-path:url(#clip-path-28)}.cls-35{clip-path:url(#clip-path-29)}.cls-36{clip-path:url(#clip-path-30)}.cls-37{clip-path:url(#clip-path-31)}.cls-38{clip-path:url(#clip-path-32)}.cls-39{clip-path:url(#clip-path-33)}.cls-40{clip-path:url(#clip-path-34)}.cls-41{clip-path:url(#clip-path-35)}.cls-42{clip-path:url(#clip-path-36)}.cls-43{clip-path:url(#clip-path-37)}.cls-44{clip-path:url(#clip-path-38)}.cls-45{clip-path:url(#clip-path-39)}.cls-46{fill:#00683f}</style><clipPath id="clip-path"><path d="M19.67 88.73h67.5v48.75h-67.5zm-7.5 6.56v35.63A14.07 14.07 0 0 0 26.23 145h54.38a14.07 14.07 0 0 0 14.06-14.06V95.29a14.07 14.07 0 0 0-14.06-14.06H26.23a14.07 14.07 0 0 0-14.06 14.06z" class="cls-1"/></clipPath><clipPath id="clip-path-2"><path d="M53.34 114.75c0 7.13-4.65 11.48-11.44 11.48-6.94 0-11-4.88-11-11.1 0-6.52 4.46-11.4 11.36-11.4 7.18 0 11.08 5.02 11.08 11.02zm-16.84.3c0 4.27 2.14 7.27 5.66 7.27s5.59-3.19 5.59-7.43c0-3.9-2-7.27-5.62-7.27s-5.62 3.19-5.62 7.43z" class="cls-1"/></clipPath><clipPath id="clip-path-3"><path d="M56.83 104.06H62v9.64h.11q.79-1.24 1.58-2.36l5.31-7.28h6.49l-7.72 9.3 8.14 12.53h-6.14L64 116.48l-2 2.29v7.12h-5.17v-21.83" class="cls-1"/></clipPath><clipPath id="clip-path-4"><path d="M698 104.35a1.86 1.86 0 0 1 1.88-1.87h26.22a1.87 1.87 0 0 1 0 3.75h-26.25a1.86 1.86 0 0 1-1.87-1.87" class="cls-1"/></clipPath><clipPath id="clip-path-5"><path d="M698 119.35a1.86 1.86 0 0 1 1.88-1.87h26.22a1.87 1.87 0 0 1 0 3.75h-26.25a1.86 1.86 0 0 1-1.87-1.87" class="cls-1"/></clipPath><clipPath id="clip-path-6"><path d="M698 111.85a1.86 1.86 0 0 1 1.88-1.87h26.22a1.87 1.87 0 0 1 0 3.75h-26.25a1.86 1.86 0 0 1-1.87-1.87" class="cls-1"/></clipPath><clipPath id="clip-path-7"><path d="M698 126.85a1.86 1.86 0 0 1 1.88-1.87h26.22a1.87 1.87 0 0 1 0 3.75h-26.25a1.86 1.86 0 0 1-1.87-1.87" class="cls-1"/></clipPath><clipPath id="clip-path-8"><path d="M744.29 121.23c-1.31 0-1.69.75-.9 1.65l7.46 8.93a2 2 0 0 0 3 0l7.46-8.93c.79-.9.41-1.65-.9-1.65h-16.12" class="cls-1"/></clipPath><clipPath id="clip-path-9"><path d="M744.29 113.73c-1.31 0-1.69-.75-.9-1.65l7.46-8.93a2 2 0 0 1 3 0l7.46 8.93c.79.9.41 1.65-.9 1.65h-16.12" class="cls-1"/></clipPath><clipPath id="clip-path-10"><path d="M690.47 91.23h45V140h-45zm48.75 0h26.25V140h-26.25zM683 140a7.52 7.52 0 0 0 7.5 7.5h75a7.52 7.52 0 0 0 7.5-7.5V91.23a7.52 7.52 0 0 0-7.5-7.5h-75a7.52 7.52 0 0 0-7.5 7.5z" class="cls-1"/></clipPath><clipPath id="clip-path-11"><path d="M739.22 91.23h26.25v48.75h-26.25z" class="cls-2"/></clipPath><clipPath id="clip-path-12"><path d="M19.67 246.9h67.5v48.75h-67.5zm-7.5 48.75a7.52 7.52 0 0 0 7.5 7.5h67.5a7.52 7.52 0 0 0 7.5-7.5V246.9a7.52 7.52 0 0 0-7.5-7.5h-67.5a7.52 7.52 0 0 0-7.5 7.5z" class="cls-1"/></clipPath><clipPath id="clip-path-13"><path d="M31.11 284.4h-3.75v5.6a1.88 1.88 0 0 0 1.88 1.88 1.86 1.86 0 0 0 1.87-1.88zm-3.75-31.88v28.13h3.75v-28.13a1.86 1.86 0 0 0-1.87-1.87 1.88 1.88 0 0 0-1.88 1.87z" class="cls-1"/></clipPath><clipPath id="clip-path-14"><path d="M45.92 284.4v5.6a1.88 1.88 0 0 0 3.75 0v-5.6zm0-31.88v28.13h3.75v-28.13a1.88 1.88 0 1 0-3.75 0z" class="cls-1"/></clipPath><clipPath id="clip-path-15"><path d="M75.92 284.4v5.6a1.88 1.88 0 0 0 3.75 0v-5.6zm0-31.88v28.13h3.75v-28.13a1.87 1.87 0 0 0-3.75 0z" class="cls-1"/></clipPath><clipPath id="clip-path-16"><path d="M34.67 284.4v3.75a3.75 3.75 0 0 0 7.5 0v-3.75zm0-30v26.25h7.5V254.4a3.75 3.75 0 1 0-7.5 0z" class="cls-1"/></clipPath><clipPath id="clip-path-17"><path d="M53.42 284.4v3.75a3.75 3.75 0 0 0 7.5 0v-3.75zm0-30v26.25h7.5V254.4a3.75 3.75 0 1 0-7.5 0z" class="cls-1"/></clipPath><clipPath id="clip-path-18"><path d="M64.67 284.4v3.75a3.75 3.75 0 0 0 7.5 0v-3.75zm0-30v26.25h7.5V254.4a3.75 3.75 0 0 0-7.5 0z" class="cls-1"/></clipPath><clipPath id="clip-path-19"><path d="M216.27 311a37.5 37.5 0 1 1 37.5-37.5 37.56 37.56 0 0 1-37.5 37.5zm0-68.36a30.86 30.86 0 1 0 30.86 30.86 30.89 30.89 0 0 0-30.86-30.84z" class="cls-1"/></clipPath><clipPath id="clip-path-20"><path d="M216.08 288.19a14.44 14.44 0 1 0-14.44-14.44 14.44 14.44 0 0 0 14.44 14.44" class="cls-1"/></clipPath><clipPath id="clip-path-21"><path d="M396 279.59l15.37 2.62c4.5 0 5.63-3.38 1.88-6.75l-34.87-38.25c-1.87-1.5-2.63-3-5.63-2.25-1.87.75-2.25 2.62-2.25 5.25v54.37c.37 4.88 3.75 5.63 6.75 2.25l10.12-13.12s7.5 21 7.88 21.75c1.5 3.75 3.37 5.63 7.87 3.75 3.38-1.5 4.12-3.75 2.25-7.5-.75-2.62-9.37-22.12-9.37-22.12" class="cls-1"/></clipPath><clipPath id="clip-path-22"><path d="M530 310.51h67.5A7.52 7.52 0 0 0 605 303s.08-29.59 0-30l-7.5 11.55V303H530v-37.5h29.9l1.28-4.76c.71-2.74 2.55-2.74 2.55-2.74H530a7.52 7.52 0 0 0-7.5 7.5V303a7.52 7.52 0 0 0 7.5 7.51z" class="cls-1"/></clipPath><clipPath id="clip-path-23"><path d="M537.52 293.64a1.86 1.86 0 0 1 1.88-1.87h18.75a1.88 1.88 0 0 1 0 3.75h-18.76a1.86 1.86 0 0 1-1.87-1.87" class="cls-1"/></clipPath><clipPath id="clip-path-24"><path d="M589.3 253.29l9.19 9.15-9.08 16.84a3.1 3.1 0 0 1-1.87 1.5l-20 5.33 12.34-12.34a4 4 0 1 0-1.13-6.45 4.07 4.07 0 0 0-.75 4.58l-12.26 12.23 5.26-19.71a3.39 3.39 0 0 1 1.69-2.1zm4.7-13.65a2.74 2.74 0 0 0-3.71.94l-3.49 8-18.26 9.79a3.77 3.77 0 0 0-1.84 2.36l-6.52 24.15a5.94 5.94 0 0 0 1.43 5.29 6.05 6.05 0 0 0 5.29 1.43l24.32-6.6a3.57 3.57 0 0 0 2.14-1.69l9.9-18.45 7.95-3.41a2.78 2.78 0 0 0 .94-3.75 2.6 2.6 0 0 0-3.6-.94l-5.93 2.24-9.9-9.86 2.21-5.89a2.57 2.57 0 0 0-.93-3.61z" class="cls-1"/></clipPath><clipPath id="clip-path-25"><path d="M595.08 243.16H595v.07l-2.21 5.89 9.9 9.86 5.92-2.17c1.2-.75-11.7-13.65-13.46-13.65" class="cls-1"/></clipPath><clipPath id="clip-path-26"><path d="M764.76 242.85a2.59 2.59 0 1 1 2.59 2.59 2.59 2.59 0 0 1-2.59-2.59zm0 60a2.59 2.59 0 1 1 2.58 2.59 2.59 2.59 0 0 1-2.61-2.55zm-78.72 0a2.59 2.59 0 1 1 2.59 2.59 2.59 2.59 0 0 1-2.63-2.59zm0-60a2.59 2.59 0 1 1 2.59 2.59 2.59 2.59 0 0 1-2.63-2.59zm8.25 5.59l67.5.08-.06 48.75-67.5-.08zm-7.56 48.74a5.86 5.86 0 1 0 7.49 7.51l67.5.08a5.86 5.86 0 1 0 7.51-7.49l.06-48.75a5.86 5.86 0 1 0-7.49-7.51l-67.5-.08a5.86 5.86 0 1 0-7.51 7.49z" class="cls-1"/></clipPath><clipPath id="clip-path-27"><path d="M720.49 259.71v26.25h5.62a1.88 1.88 0 0 1 0 3.75h-18.75a1.88 1.88 0 1 1 0-3.75H713v-26.25h-7.5v5.62a1.88 1.88 0 0 1-3.75 0v-5.62a3.76 3.76 0 0 1 3.75-3.75H728a3.76 3.76 0 0 1 3.75 3.75v5.62a1.88 1.88 0 0 1-3.75 0v-5.62h-7.5" class="cls-1"/></clipPath><clipPath id="clip-path-28"><path d="M737.37 252.23a1.88 1.88 0 1 0 0 3.75H743v33.75h-5.62a1.88 1.88 0 0 0 0 3.75h15a1.88 1.88 0 0 0 0-3.75h-5.68v-33.75h5.62a1.88 1.88 0 0 0 0-3.75h-15" class="cls-1"/></clipPath><clipPath id="clip-path-29"><path d="M180.22 81.85h60v60h-60zm-7.5 60a7.52 7.52 0 0 0 7.5 7.5h60a7.52 7.52 0 0 0 7.5-7.5v-60a7.52 7.52 0 0 0-7.5-7.5h-60a7.52 7.52 0 0 0-7.5 7.5z" class="cls-1"/></clipPath><clipPath id="clip-path-30"><path d="M222.37 98.43a6.64 6.64 0 0 1 8.59 0 5 5 0 0 1 0 7.65L205.27 129a6.64 6.64 0 0 1-8.59 0c-1.68-1.44-7.68-10.7-7.68-10.7-2-2.66-1.8-5.74 1.2-8 2.44-1.84 6.19-2.17 8.4.3l4.24 6.07 19.5-18.26" class="cls-1"/></clipPath><clipPath id="clip-path-31"><path d="M348.87 72.6h75v22.5h-75zm0 30h33.75v33.75h-33.75zm-7.5 33.75a7.52 7.52 0 0 0 7.5 7.5h33.75a7.52 7.52 0 0 0 7.5-7.5V102.6h33.75a7.52 7.52 0 0 0 7.5-7.5V72.6a7.52 7.52 0 0 0-7.5-7.5h-75a7.52 7.52 0 0 0-7.5 7.5z" class="cls-1"/></clipPath><clipPath id="clip-path-32"><path d="M356.37 112a1.86 1.86 0 0 1 1.88-1.87h15a1.87 1.87 0 0 1 0 3.75h-15a1.86 1.86 0 0 1-1.87-1.87" class="cls-1"/></clipPath><clipPath id="clip-path-33"><path d="M356.37 127a1.86 1.86 0 0 1 1.88-1.87h15a1.87 1.87 0 0 1 0 3.75h-15a1.86 1.86 0 0 1-1.87-1.87" class="cls-1"/></clipPath><clipPath id="clip-path-34"><path d="M356.37 119.48a1.86 1.86 0 0 1 1.88-1.87h15a1.87 1.87 0 0 1 0 3.75h-15a1.86 1.86 0 0 1-1.87-1.87" class="cls-1"/></clipPath><clipPath id="clip-path-35"><path d="M398.93 80.1c-1.31 0-1.69.75-.9 1.65l7.46 8.92a2 2 0 0 0 3 0l7.51-8.92c.79-.9.41-1.65-.9-1.65h-16.17" class="cls-1"/></clipPath><clipPath id="clip-path-36"><path d="M386.37 68.85h3.75v33.75h-3.75z" class="cls-2"/></clipPath><clipPath id="clip-path-37"><path d="M348.87 72.6h75v22.5h-75z" class="cls-2"/></clipPath><clipPath id="clip-path-38"><path d="M569.48 76.1l1.69 1.69-15.86 15.86c-5.51-5.51-13.65-5-20.14-.45a3.3 3.3 0 0 0-.22 5.06l13.27 13.24-23.17 23a3.74 3.74 0 0 0 5.29 5.29l23.18-23 13.27 13.24a3.3 3.3 0 0 0 5.06-.22c4.54-6.45 4.88-14.74-.64-20.29l15.86-15.86 1.73 1.73a5.46 5.46 0 1 0 7.72-7.73l-19.31-19.32a5.48 5.48 0 0 0-7.73 7.76" class="cls-1"/></clipPath><clipPath id="clip-path-39"><path d="M524.07 144.35a3.76 3.76 0 0 1 3.75-3.75h45a3.75 3.75 0 0 1 0 7.5h-45a3.76 3.76 0 0 1-3.75-3.75" class="cls-1"/></clipPath></defs><g class="cls-3"><path d="M-6.58 62.48h120v101.25h-120z" class="cls-4"/></g><path d="M56.83 126.23H62v3.41h-5.17zm19.39.11l2.21 3.37h-6.19l-2-3.37zm-22.88-11.59a11.1 11.1 0 0 1-.15 2 9.72 9.72 0 0 1 .15 1.8c0 7.13-4.65 11.48-11.44 11.48-6.94 0-11-4.88-11-11.1a10.54 10.54 0 0 1 .15-1.87 10.26 10.26 0 0 1-.15-1.87c0-6.52 4.46-11.4 11.36-11.4 7.18-.06 11.08 4.96 11.08 10.96zm3.49-10.69H62v9.64h.11q.79-1.24 1.58-2.36l5.31-7.28h6.49l-7.72 9.3 8.14 12.53h-6.14L64 116.48l-2 2.29v7.12h-5.17zm-37.16 33.42h67.5V88.73h-67.5zm16.84-22.42c0 4.27 2.14 7.27 5.66 7.27s5.59-3.19 5.59-7.43c0-3.9-2-7.27-5.62-7.27s-5.63 3.18-5.63 7.42z" class="cls-5"/><g class="cls-6"><path d="M12.17 84.98h59.92v60H12.17z" class="cls-4"/></g><g class="cls-7"><path d="M38.08 85.31h56.59v59.32H38.08z" class="cls-4"/></g><path d="M27.57 161.54h5.91c2.2 0 3.42 1.37 3.42 3.06a2.7 2.7 0 0 1-2.09 2.75 3 3 0 0 1 2.32 3 3.15 3.15 0 0 1-3.49 3.24h-6.07zm5.47 5a1.56 1.56 0 1 0 0-3.11h-3.36v3.11zm.09 5.19A1.62 1.62 0 0 0 35 170a1.65 1.65 0 0 0-1.84-1.66h-3.48v3.33zm11.92.67a4.17 4.17 0 0 1-3.05 1.36 2.47 2.47 0 0 1-2.82-2.76v-6.16h1.89v5.47c0 1.35.68 1.76 1.75 1.76a2.89 2.89 0 0 0 2.23-1.07v-6.1h1.89v8.7h-1.89zm4.72-.87v-5h-1.45v-1.66h1.44v-2.38h1.89v2.38h1.76v1.66h-1.75v4.56c0 .59.29 1 .83 1a1.22 1.22 0 0 0 .85-.31l.45 1.42a2.49 2.49 0 0 1-1.78.56 2 2 0 0 1-2.24-2.23zm5.74 0v-5h-1.44v-1.66h1.44v-2.38h1.89v2.38h1.76v1.66H57.4v4.56c0 .59.29 1 .83 1a1.22 1.22 0 0 0 .85-.31l.45 1.42a2.5 2.5 0 0 1-1.78.56 2 2 0 0 1-2.24-2.23zm4.82-2.34a4.48 4.48 0 1 1 4.46 4.57 4.35 4.35 0 0 1-4.46-4.57zm7 0a2.54 2.54 0 1 0-2.52 2.9 2.61 2.61 0 0 0 2.51-2.9zm9.72-1.08c0-1.35-.68-1.8-1.75-1.8a2.86 2.86 0 0 0-2.23 1.17v6.07h-1.89v-8.7h1.89V166a4.11 4.11 0 0 1 3.06-1.4 2.51 2.51 0 0 1 2.81 2.79v6.12h-1.89z" class="cls-8"/><g class="cls-9"><path d="M679.22 83.73h67.5v41.25h-67.5z" class="cls-4"/></g><g class="cls-10"><path d="M679.22 98.73h67.5v41.25h-67.5z" class="cls-4"/></g><g class="cls-11"><path d="M679.22 91.23h67.5v41.25h-67.5z" class="cls-4"/></g><g class="cls-12"><path d="M679.22 106.23h67.5v41.25h-67.5z" class="cls-4"/></g><g class="cls-13"><path d="M724.23 102.48h56.24v48.75h-56.24z" class="cls-4"/></g><g class="cls-14"><path d="M724.23 83.73h56.24v48.75h-56.24z" class="cls-4"/></g><g class="cls-15"><path d="M664.22 64.98h127.5v101.25h-127.5z" class="cls-4"/></g><g class="cls-16"><path d="M720.47 72.48h63.75v86.25h-63.75z" class="cls-17"/></g><path d="M670.26 161.54h2.11v10.16h5.29v1.85h-7.4zm9.02.7a1.17 1.17 0 1 1 1.17 1.17 1.18 1.18 0 0 1-1.17-1.17zm.23 2.61h1.89v8.7h-1.89zM684 171a4.49 4.49 0 0 0 3 1.22c1.13 0 1.71-.41 1.71-1.06s-.92-1-2-1.26c-1.5-.32-3.28-.72-3.28-2.67 0-1.42 1.22-2.65 3.42-2.65a5 5 0 0 1 3.38 1.22l-.79 1.33a3.51 3.51 0 0 0-2.58-1c-1 0-1.62.36-1.62 1s.86.9 1.89 1.13c1.51.32 3.37.76 3.37 2.81 0 1.53-1.28 2.7-3.62 2.7a5.29 5.29 0 0 1-3.73-1.35zm8.72.53v-5h-1.44v-1.66h1.44v-2.38h1.89v2.38h1.76v1.66h-1.76v4.56c0 .59.29 1 .83 1a1.22 1.22 0 0 0 .85-.31l.45 1.42a2.5 2.5 0 0 1-1.78.56 2 2 0 0 1-2.24-2.23zm9.45-2.34a4.48 4.48 0 1 1 4.46 4.57 4.35 4.35 0 0 1-4.46-4.57zm7 0a2.54 2.54 0 1 0-2.52 2.9 2.61 2.61 0 0 0 2.51-2.9zm4.31-2.68H712v-1.66h1.44v-.49a2.68 2.68 0 0 1 2.75-3 3.13 3.13 0 0 1 1.51.34l-.41 1.39a1.51 1.51 0 0 0-.76-.18c-.74 0-1.21.49-1.21 1.46v.49h1.76v1.66h-1.76v7h-1.89zm9.23 1.04a6 6 0 0 1 6.21-6.21 5.47 5.47 0 0 1 4.92 2.7L732 165a3.6 3.6 0 0 0-3.12-1.75 4.35 4.35 0 0 0 0 8.68 3.57 3.57 0 0 0 3.12-1.75l1.8.92a5.5 5.5 0 0 1-4.92 2.7 6 6 0 0 1-6.17-6.25zm18.65.52c0-1.35-.7-1.76-1.76-1.76a2.92 2.92 0 0 0-2.23 1.17v6.07h-1.89v-12h1.89V166a4.16 4.16 0 0 1 3.08-1.4 2.48 2.48 0 0 1 2.81 2.75v6.16h-1.89zm3.8 1.12a4.48 4.48 0 1 1 4.46 4.57 4.35 4.35 0 0 1-4.46-4.57zm7 0a2.54 2.54 0 1 0-2.52 2.9 2.61 2.61 0 0 0 2.5-2.9zm3.62-6.95a1.17 1.17 0 1 1 1.17 1.17 1.18 1.18 0 0 1-1.17-1.17zm.23 2.61h1.89v8.7H756zm8.3-.21a3.9 3.9 0 0 1 3.33 1.55l-1.24 1.15a2.32 2.32 0 0 0-2-1 2.9 2.9 0 0 0 0 5.78 2.36 2.36 0 0 0 2-1l1.24 1.15a3.9 3.9 0 0 1-3.33 1.55 4.56 4.56 0 0 1 0-9.13zm8.86 0c2.61 0 4.29 2 4.29 4.74v.45h-6.72a2.63 2.63 0 0 0 2.77 2.39 3.68 3.68 0 0 0 2.47-1l.86 1.24a5.07 5.07 0 0 1-3.53 1.26 4.57 4.57 0 0 1-.14-9.13zm-2.45 3.85h4.9a2.33 2.33 0 0 0-2.45-2.3 2.4 2.4 0 0 0-2.45 2.3zm8.71 2.51a4.49 4.49 0 0 0 3 1.22c1.13 0 1.71-.41 1.71-1.06s-.92-1-2-1.26c-1.5-.32-3.28-.72-3.28-2.67 0-1.42 1.22-2.65 3.42-2.65a5 5 0 0 1 3.38 1.22l-.79 1.33a3.51 3.51 0 0 0-2.58-1c-1 0-1.62.36-1.62 1s.86.9 1.89 1.13c1.51.32 3.37.76 3.37 2.81 0 1.53-1.28 2.7-3.62 2.7a5.29 5.29 0 0 1-3.73-1.35z" class="cls-8"/><g class="cls-18"><path d="M-6.58 220.65h120V321.9h-120z" class="cls-4"/></g><g class="cls-19"><path d="M8.61 231.9h41.25v78.75H8.61z" class="cls-4"/></g><g class="cls-20"><path d="M27.17 231.9h41.25v78.75H27.17z" class="cls-4"/></g><g class="cls-21"><path d="M57.17 231.9h41.25v78.75H57.17z" class="cls-4"/></g><g class="cls-22"><path d="M15.92 231.9h45v78.75h-45z" class="cls-4"/></g><g class="cls-23"><path d="M34.67 231.9h45v78.75h-45z" class="cls-4"/></g><g class="cls-24"><path d="M45.92 231.9h45v78.75h-45z" class="cls-4"/></g><path d="M21.36 318.71h5.91c2.2 0 3.42 1.37 3.42 3.06a2.7 2.7 0 0 1-2.09 2.75 3 3 0 0 1 2.32 3 3.15 3.15 0 0 1-3.49 3.24h-6.07zm5.47 5a1.56 1.56 0 1 0 0-3.12h-3.37v3.12zm.09 5.19a1.62 1.62 0 0 0 1.84-1.67 1.65 1.65 0 0 0-1.84-1.66h-3.46v3.33zm11.36.89a3.67 3.67 0 0 1-2.81 1.15 2.89 2.89 0 0 1-3-2.88 2.8 2.8 0 0 1 3-2.83 3.59 3.59 0 0 1 2.81 1.12V325c0-1-.83-1.62-2-1.62a3.56 3.56 0 0 0-2.57 1.1l-.77-1.31a5.17 5.17 0 0 1 3.66-1.4c1.93 0 3.62.81 3.62 3.15v5.76h-1.94zm0-2.36a2.55 2.55 0 0 0-2.07-.9 1.58 1.58 0 1 0 0 3.11 2.55 2.55 0 0 0 2.07-.9zm4.33-5.43h1.89v1.28a3.71 3.71 0 0 1 2.83-1.48v1.87a2.78 2.78 0 0 0-.59-.05 3 3 0 0 0-2.23 1.15v5.92h-1.9zm10.21-.19a3.9 3.9 0 0 1 3.33 1.55l-1.24 1.15a2.32 2.32 0 0 0-2-1 2.9 2.9 0 0 0 0 5.78 2.36 2.36 0 0 0 2-1l1.24 1.15a3.9 3.9 0 0 1-3.33 1.55 4.56 4.56 0 0 1 0-9.13zm4.45 4.55a4.48 4.48 0 1 1 4.46 4.57 4.35 4.35 0 0 1-4.46-4.57zm7 0a2.54 2.54 0 1 0-2.52 2.9 2.61 2.61 0 0 0 2.5-2.9zm9.97 3.17a3.52 3.52 0 0 1-2.79 1.4c-2.23 0-3.87-1.69-3.87-4.56s1.62-4.57 3.87-4.57a3.49 3.49 0 0 1 2.79 1.42v-4.52h1.89v12h-1.89zm0-4.88a2.86 2.86 0 0 0-2.24-1.17c-1.5 0-2.45 1.21-2.45 2.9s1 2.88 2.45 2.88a2.84 2.84 0 0 0 2.25-1.15zm8.21-2.84c2.61 0 4.29 2 4.29 4.74v.45H80a2.63 2.63 0 0 0 2.77 2.39 3.68 3.68 0 0 0 2.47-1l.86 1.24a5.07 5.07 0 0 1-3.53 1.26 4.57 4.57 0 0 1-.14-9.13zM80 325.66h4.9a2.33 2.33 0 0 0-2.45-2.3 2.4 2.4 0 0 0-2.45 2.3z" class="cls-8"/><g class="cls-25"><path d="M160.02 217.27h112.5v112.5h-112.5z" class="cls-4"/></g><g class="cls-26"><path d="M182.89 240.56h66.37v66.38h-66.37z" class="cls-4"/></g><path d="M170.45 326.24h-2.09v4.48h-2.11v-12h5.28a3.65 3.65 0 0 1 3.93 3.76 3.37 3.37 0 0 1-2.85 3.53l2.94 4.72h-2.43zm.79-5.67h-2.88v3.82h2.88a1.91 1.91 0 1 0 0-3.82zm11.22 9.22a3.67 3.67 0 0 1-2.81 1.15 2.89 2.89 0 0 1-3-2.88 2.8 2.8 0 0 1 3-2.83 3.59 3.59 0 0 1 2.81 1.12V325c0-1-.83-1.62-2-1.62a3.56 3.56 0 0 0-2.57 1.1l-.77-1.31a5.17 5.17 0 0 1 3.66-1.4c1.93 0 3.62.81 3.62 3.15v5.76h-1.89zm0-2.36a2.55 2.55 0 0 0-2.07-.9 1.58 1.58 0 1 0 0 3.12 2.55 2.55 0 0 0 2.07-.9zm10.46 2.1a3.52 3.52 0 0 1-2.79 1.41c-2.23 0-3.87-1.69-3.87-4.56s1.62-4.57 3.87-4.57a3.49 3.49 0 0 1 2.79 1.42v-4.52h1.89v12h-1.89zm0-4.88a2.86 2.86 0 0 0-2.25-1.17c-1.5 0-2.45 1.21-2.45 2.9s1 2.88 2.45 2.88a2.84 2.84 0 0 0 2.25-1.15zm4.08-5.24a1.17 1.17 0 1 1 1.17 1.17 1.18 1.18 0 0 1-1.17-1.17zm.23 2.61h1.89v8.7h-1.89zm3.82 4.34a4.48 4.48 0 1 1 4.46 4.57 4.35 4.35 0 0 1-4.46-4.57zm7 0a2.54 2.54 0 1 0-2.52 2.9 2.61 2.61 0 0 0 2.47-2.9zm8.53-7.65h5.91c2.2 0 3.42 1.37 3.42 3.06a2.7 2.7 0 0 1-2.09 2.75 3 3 0 0 1 2.32 3 3.15 3.15 0 0 1-3.49 3.24h-6.07zm5.47 5a1.56 1.56 0 1 0 0-3.11h-3.37v3.11zm.09 5.19a1.62 1.62 0 0 0 1.84-1.67 1.65 1.65 0 0 0-1.84-1.66h-3.46v3.33zm11.92.67a4.17 4.17 0 0 1-3.08 1.37 2.47 2.47 0 0 1-2.79-2.75V322h1.89v5.47c0 1.35.68 1.76 1.75 1.76a2.89 2.89 0 0 0 2.23-1.13V322H236v8.7h-1.89zm4.72-.87v-5h-1.44V322h1.44v-2.38h1.89V322h1.76v1.66h-1.76v4.56c0 .59.29 1 .83 1a1.22 1.22 0 0 0 .85-.31l.45 1.42a2.5 2.5 0 0 1-1.78.56 2 2 0 0 1-2.24-2.19zm5.74 0v-5h-1.44V322h1.44v-2.38h1.89V322h1.76v1.66h-1.76v4.56c0 .59.29 1 .83 1a1.22 1.22 0 0 0 .85-.31l.45 1.42a2.49 2.49 0 0 1-1.78.56 2 2 0 0 1-2.24-2.19zm4.82-2.34a4.48 4.48 0 1 1 4.46 4.57 4.35 4.35 0 0 1-4.46-4.57zm7 0a2.54 2.54 0 1 0-2.52 2.9 2.61 2.61 0 0 0 2.51-2.9zm9.73-1.08c0-1.35-.68-1.8-1.75-1.8a2.86 2.86 0 0 0-2.23 1.17v6.07h-1.89V322h1.89v1.19a4.11 4.11 0 0 1 3.06-1.4 2.51 2.51 0 0 1 2.85 2.81v6.12h-1.89z" class="cls-8"/><g class="cls-27"><path d="M351.78 216.02h82.51V328.7h-82.51z" class="cls-4"/></g><path d="M341.17 327.41a5.18 5.18 0 0 0 3.8 1.66c1.73 0 2.41-.85 2.41-1.64 0-1.08-1.28-1.4-2.74-1.78-2-.49-4.27-1.06-4.27-3.6 0-2 1.75-3.51 4.38-3.51a6.25 6.25 0 0 1 4.5 1.67l-1.25 1.56a4.88 4.88 0 0 0-3.48-1.37c-1.24 0-2 .59-2 1.49s1.22 1.24 2.65 1.6c2 .5 4.34 1.12 4.34 3.73 0 2-1.4 3.71-4.65 3.71A6.42 6.42 0 0 1 340 329zm14.11-5.6c2.61 0 4.29 2 4.29 4.74v.45h-6.72a2.63 2.63 0 0 0 2.77 2.39 3.68 3.68 0 0 0 2.47-1l.86 1.24a5.07 5.07 0 0 1-3.53 1.26 4.57 4.57 0 0 1-.14-9.13zm-2.45 3.85h4.9a2.33 2.33 0 0 0-2.45-2.3 2.4 2.4 0 0 0-2.45 2.3zm8.6-6.95h1.89v12h-1.89zm8.21 3.1c2.61 0 4.29 2 4.29 4.74v.45h-6.72a2.63 2.63 0 0 0 2.77 2.39 3.68 3.68 0 0 0 2.47-1l.86 1.24a5.07 5.07 0 0 1-3.53 1.26 4.57 4.57 0 0 1-.14-9.13zm-2.45 3.85h4.9a2.33 2.33 0 0 0-2.45-2.3 2.4 2.4 0 0 0-2.45 2.3zm12.57-3.85a3.9 3.9 0 0 1 3.33 1.55l-1.24 1.15a2.32 2.32 0 0 0-2-1 2.9 2.9 0 0 0 0 5.78 2.37 2.37 0 0 0 2-1l1.24 1.15a3.9 3.9 0 0 1-3.33 1.55 4.56 4.56 0 0 1 0-9.13zm5.36 6.89v-5h-1.44V322h1.44v-2.38H387V322h1.76v1.66H387v4.56c0 .59.29 1 .83 1a1.22 1.22 0 0 0 .85-.31l.45 1.42a2.49 2.49 0 0 1-1.78.56 2 2 0 0 1-2.23-2.19zm5.13-9.29a1.17 1.17 0 1 1 1.17 1.17 1.18 1.18 0 0 1-1.17-1.17zm.23 2.61h1.89v8.7h-1.89zm3.8 4.34a4.47 4.47 0 1 1 4.47 4.57 4.35 4.35 0 0 1-4.47-4.57zm7 0a2.54 2.54 0 1 0-2.52 2.9 2.61 2.61 0 0 0 2.51-2.9zm9.72-1.08c0-1.35-.68-1.8-1.75-1.8a2.86 2.86 0 0 0-2.23 1.17v6.07h-1.89V322H407v1.19a4.11 4.11 0 0 1 3.06-1.4 2.51 2.51 0 0 1 2.81 2.79v6.12H411zm11.88-4.71h-3.64v-1.86h9.38v1.86H425v10.15h-2.11zm5.04 5.79a4.48 4.48 0 1 1 4.46 4.57 4.35 4.35 0 0 1-4.46-4.57zm7 0a2.54 2.54 0 1 0-2.52 2.9 2.61 2.61 0 0 0 2.51-2.9zm3.32 0a4.47 4.47 0 1 1 4.46 4.57 4.35 4.35 0 0 1-4.46-4.57zm7 0a2.54 2.54 0 1 0-2.52 2.9 2.61 2.61 0 0 0 2.5-2.9zm3.85-7.65H451v12h-1.89z" class="cls-8"/><g class="cls-28"><path d="M503.77 239.26H623.8v90H503.77z" class="cls-4"/></g><g class="cls-29"><path d="M518.77 273.01h60v41.25h-60z" class="cls-4"/></g><g class="cls-30"><path d="M541.27 220.51h90v89.99h-90z" class="cls-4"/></g><g class="cls-31"><path d="M573.97 224.41h53.4v53.33h-53.4z" class="cls-17"/></g><path d="M532.23 330a5.18 5.18 0 0 0 3.8 1.66c1.73 0 2.41-.85 2.41-1.64 0-1.08-1.28-1.4-2.74-1.78-2-.49-4.27-1.06-4.27-3.6 0-2 1.75-3.51 4.38-3.51a6.25 6.25 0 0 1 4.5 1.67l-1.21 1.57a4.88 4.88 0 0 0-3.48-1.37c-1.24 0-2 .59-2 1.49s1.22 1.24 2.65 1.6c2 .5 4.34 1.12 4.34 3.73 0 2-1.4 3.71-4.65 3.71a6.42 6.42 0 0 1-4.88-1.91zm10.01-8a1.17 1.17 0 1 1 1.17 1.17 1.18 1.18 0 0 1-1.17-1.17zm.23 2.61h1.89v8.7h-1.89zm5.11 9.59a3.37 3.37 0 0 0 2.75 1.12 2.29 2.29 0 0 0 2.58-2.36v-1a3.53 3.53 0 0 1-2.79 1.44c-2.21 0-3.85-1.6-3.85-4.47s1.62-4.46 3.85-4.46a3.46 3.46 0 0 1 2.79 1.42v-1.21h1.89v8.25c0 3.13-2.32 4-4.47 4a4.91 4.91 0 0 1-3.64-1.3zm5.33-6.93a2.82 2.82 0 0 0-2.23-1.17c-1.5 0-2.45 1.12-2.45 2.79s1 2.79 2.45 2.79a2.82 2.82 0 0 0 2.23-1.17zm10.21.63c0-1.35-.68-1.8-1.75-1.8a2.86 2.86 0 0 0-2.23 1.17v6.07h-1.89v-8.7h1.89v1.19a4.11 4.11 0 0 1 3.06-1.4 2.51 2.51 0 0 1 2.81 2.79v6.12h-1.89zm9.65 4.5a3.67 3.67 0 0 1-2.81 1.15 2.89 2.89 0 0 1-3-2.88 2.8 2.8 0 0 1 3-2.83 3.59 3.59 0 0 1 2.81 1.12v-1.3c0-1-.83-1.62-2-1.62a3.56 3.56 0 0 0-2.57 1.1l-.77-1.31a5.17 5.17 0 0 1 3.66-1.4c1.93 0 3.62.81 3.62 3.15v5.76h-1.89zm0-2.36a2.55 2.55 0 0 0-2.07-.9 1.58 1.58 0 1 0 0 3.12 2.55 2.55 0 0 0 2.07-.9zm4.71 1.28v-5H576v-1.66h1.44v-2.38h1.89v2.38h1.76v1.66h-1.76v4.56c0 .59.29 1 .83 1a1.22 1.22 0 0 0 .85-.31l.45 1.42a2.5 2.5 0 0 1-1.78.56 2 2 0 0 1-2.2-2.23zm11.23.86a4.17 4.17 0 0 1-3.08 1.37 2.47 2.47 0 0 1-2.79-2.75v-6.16h1.89v5.47c0 1.35.68 1.76 1.75 1.76a2.89 2.89 0 0 0 2.23-1.13v-6.1h1.89v8.7h-1.89zm4.34-7.54h1.89v1.28a3.71 3.71 0 0 1 2.83-1.48v1.87a2.77 2.77 0 0 0-.59-.05 3 3 0 0 0-2.23 1.15v5.92h-1.89zm10.12-.22c2.61 0 4.29 2 4.29 4.74v.45h-6.72a2.63 2.63 0 0 0 2.77 2.39 3.68 3.68 0 0 0 2.47-1l.86 1.24a5.07 5.07 0 0 1-3.53 1.26 4.57 4.57 0 0 1-.14-9.13zm-2.45 3.85h4.9a2.33 2.33 0 0 0-2.45-2.3 2.4 2.4 0 0 0-2.45 2.3z" class="cls-8"/><g class="cls-32"><path d="M673.49 208.98h108.97v127.73H673.49z" class="cls-4" transform="rotate(-89.93 727.997 272.837)"/></g><g class="cls-33"><path d="M681.1 239.08h71.25v67.5H681.1z" class="cls-4" transform="rotate(-89.93 716.74 272.824)"/></g><g class="cls-34"><path d="M705.47 244.74h78.75v56.25h-78.75z" class="cls-4" transform="rotate(-89.93 744.867 272.857)"/></g><path d="M700.54 320.49h-3.64v-1.86h9.38v1.85h-3.64v10.15h-2.11zm9.46 1.26c2.61 0 4.28 2 4.28 4.74v.45h-6.72a2.63 2.63 0 0 0 2.77 2.4 3.68 3.68 0 0 0 2.47-1l.86 1.24a5.07 5.07 0 0 1-3.53 1.26 4.57 4.57 0 0 1-.13-9.13zm-2.45 3.85h4.9a2.33 2.33 0 0 0-2.45-2.31 2.4 2.4 0 0 0-2.46 2.3zm11.11 1.86l-2.27 3.2h-2.11l3.19-4.46-3-4.24h2.12l2.07 3 2.06-3h2.13l-3 4.23 3.2 4.47h-2.12zm6.06 1.2v-5h-1.44V322h1.44v-2.4h1.89v2.4h1.76v1.66h-1.76v4.56c0 .59.29 1 .83 1a1.22 1.22 0 0 0 .85-.31l.45 1.42a2.49 2.49 0 0 1-1.78.56 2 2 0 0 1-2.24-2.23zm10.06-9.98h5.91c2.2 0 3.42 1.37 3.42 3.07a2.7 2.7 0 0 1-2.11 2.75 3 3 0 0 1 2.32 3 3.15 3.15 0 0 1-3.5 3.24h-6.07zm5.55 10.16a1.62 1.62 0 0 0 1.84-1.67 1.65 1.65 0 0 0-1.83-1.66h-3.46v3.33zm-.08-5.19a1.56 1.56 0 1 0 0-3.12h-3.37v3.12zm5.59 2.69a4.48 4.48 0 1 1 4.46 4.58 4.35 4.35 0 0 1-4.46-4.58zm7 0a2.54 2.54 0 1 0-2.52 2.9 2.61 2.61 0 0 0 2.51-2.89z" class="cls-8"/><path d="M759.49 327.51l-2.27 3.2h-2.11l3.19-4.46-3-4.24h2.12l2.07 3 2.05-3h2.13l-3 4.23 3.2 4.47h-2.12z" class="cls-8"/><g class="cls-35"><path d="M153.97 55.6h112.5v112.5h-112.5z" class="cls-4"/></g><g class="cls-36"><path d="M168.98 78.1h82.5v71.25h-82.5z" class="cls-4"/></g><path d="M166.26 167.55a6 6 0 0 1 6.21-6.21 5.47 5.47 0 0 1 4.92 2.7l-1.8.92a3.6 3.6 0 0 0-3.12-1.75 4.35 4.35 0 0 0 0 8.68 3.57 3.57 0 0 0 3.12-1.75l1.8.92a5.5 5.5 0 0 1-4.92 2.7 6 6 0 0 1-6.21-6.21zm18.65.52c0-1.35-.7-1.76-1.76-1.76a2.92 2.92 0 0 0-2.23 1.17v6.07H179v-12h1.89V166a4.15 4.15 0 0 1 3.08-1.4 2.48 2.48 0 0 1 2.81 2.75v6.16h-1.89zm8.21-3.43c2.61 0 4.29 2 4.29 4.74v.45h-6.72a2.63 2.63 0 0 0 2.77 2.39 3.68 3.68 0 0 0 2.47-1l.86 1.24a5.07 5.07 0 0 1-3.53 1.26 4.57 4.57 0 0 1-.14-9.13zm-2.45 3.85h4.9a2.33 2.33 0 0 0-2.45-2.3 2.4 2.4 0 0 0-2.45 2.3zm12.56-3.85a3.9 3.9 0 0 1 3.33 1.55l-1.24 1.15a2.32 2.32 0 0 0-2-1 2.9 2.9 0 0 0 0 5.78 2.37 2.37 0 0 0 2-1l1.24 1.15a3.9 3.9 0 0 1-3.33 1.55 4.56 4.56 0 0 1 0-9.13zm8.09 5.36l-1.21 1.24v2.34h-1.89v-12h1.89V169l3.83-4.2h2.34l-3.62 3.94 3.69 4.75H214zm11.05-8.46h5.91c2.2 0 3.42 1.37 3.42 3.06a2.7 2.7 0 0 1-2.09 2.75 3 3 0 0 1 2.32 3 3.15 3.15 0 0 1-3.49 3.24h-6.07zm5.47 5a1.56 1.56 0 1 0 0-3.11h-3.37v3.11zm.09 5.19a1.62 1.62 0 0 0 1.84-1.67 1.65 1.65 0 0 0-1.84-1.66h-3.46v3.33zm5.51-2.54a4.48 4.48 0 1 1 4.46 4.57 4.35 4.35 0 0 1-4.46-4.57zm7 0a2.54 2.54 0 1 0-2.52 2.9 2.61 2.61 0 0 0 2.5-2.9z" class="cls-8"/><path d="M247.08 170.34l-2.27 3.21h-2.11l3.19-4.46-3-4.23H245l2.07 3 2.05-3h2.13l-3 4.23 3.21 4.46h-2.12z" class="cls-8"/><g class="cls-37"><path d="M322.62 46.35h127.5V162.6h-127.5z" class="cls-4"/></g><g class="cls-38"><path d="M337.62 91.35h56.25v41.25h-56.25z" class="cls-4"/></g><g class="cls-39"><path d="M337.62 106.35h56.25v41.25h-56.25z" class="cls-4"/></g><g class="cls-40"><path d="M337.62 98.85h56.25v41.25h-56.25z" class="cls-4"/></g><g class="cls-41"><path d="M378.87 61.35h56.24v48.75h-56.24z" class="cls-4"/></g><g class="cls-42"><path d="M367.62 50.1h41.25v71.25h-41.25z" class="cls-4"/></g><g class="cls-43"><path d="M330.12 53.85h112.5v60h-112.5z" class="cls-17"/></g><path d="M323.68 154.41h4.47c3.75 0 6.28 2.48 6.28 6s-2.54 6-6.28 6h-4.47zm4.47 10.16a3.94 3.94 0 0 0 4.12-4.14 3.89 3.89 0 0 0-4.12-4.16h-2.36v8.3zm8.25-6.84h1.89V159a3.71 3.71 0 0 1 2.83-1.48v1.87a2.77 2.77 0 0 0-.59-.05 3 3 0 0 0-2.23 1.15v5.92h-1.9zm5.71 4.34a4.48 4.48 0 1 1 4.46 4.57 4.35 4.35 0 0 1-4.46-4.57zm7 0a2.54 2.54 0 1 0-2.52 2.9 2.61 2.61 0 0 0 2.5-2.9zm3.89 7.67v-12h1.89v1.19a3.47 3.47 0 0 1 2.79-1.4c2.25 0 3.85 1.69 3.85 4.56s-1.6 4.57-3.85 4.57a3.41 3.41 0 0 1-2.79-1.42v4.52zm4.12-10.55a2.82 2.82 0 0 0-2.23 1.17v3.44a2.87 2.87 0 0 0 2.23 1.17c1.49 0 2.45-1.21 2.45-2.9s-.99-2.88-2.48-2.88zm5.6 2.07H367v1.62h-4.32zm6.14-6.85h4.47c3.75 0 6.28 2.48 6.28 6s-2.54 6-6.28 6h-4.47zm4.47 10.16a3.94 3.94 0 0 0 4.12-4.14 3.89 3.89 0 0 0-4.12-4.16H371v8.3zm7.67-2.5a4.48 4.48 0 1 1 4.46 4.57 4.35 4.35 0 0 1-4.46-4.57zm7 0a2.54 2.54 0 1 0-2.52 2.9 2.61 2.61 0 0 0 2.52-2.9zm9.46-2.07l-2 6.37h-2l-2.7-8.7h2l1.84 6.32 2.07-6.32h1.66l2.07 6.32 1.84-6.32h2l-2.7 8.7h-2zm13.88 1c0-1.35-.68-1.8-1.75-1.8a2.86 2.86 0 0 0-2.23 1.17v6.07h-1.89v-8.7h1.89v1.19a4.11 4.11 0 0 1 3.06-1.4 2.51 2.51 0 0 1 2.81 2.79v6.12h-1.89zm9.01-6.59h2.11v10.16h5.29v1.85h-7.4zm9.02.71a1.17 1.17 0 1 1 1.17 1.17 1.18 1.18 0 0 1-1.17-1.17zm.23 2.61h1.89v8.7h-1.89zm4.45 6.19a4.49 4.49 0 0 0 3 1.22c1.13 0 1.71-.41 1.71-1.06s-.92-1-2-1.26c-1.5-.32-3.28-.72-3.28-2.67 0-1.42 1.22-2.65 3.42-2.65a5 5 0 0 1 3.38 1.22l-.79 1.33a3.51 3.51 0 0 0-2.57-1c-1 0-1.62.36-1.62 1s.86.9 1.89 1.13c1.51.32 3.37.76 3.37 2.81 0 1.53-1.28 2.7-3.62 2.7a5.29 5.29 0 0 1-3.73-1.35zm8.77.49v-5h-1.44v-1.66h1.44v-2.38h1.89v2.38h1.76v1.66h-1.76v4.56c0 .59.29 1 .83 1a1.22 1.22 0 0 0 .85-.31l.45 1.42a2.49 2.49 0 0 1-1.78.56 2 2 0 0 1-2.24-2.23z" class="cls-8"/><g class="cls-44"><path d="M505.2 48.01h111.67v111.65H505.2z" class="cls-4"/></g><g class="cls-45"><path d="M505.32 121.85h90v45h-90z" class="cls-17"/></g><path d="M522.24 168.49l-1 1.22v3.83h-2.11v-12h2.11v5.73l4.7-5.73h2.61l-4.88 5.67 5.24 6.34h-2.59zm11.3-3.85c2.61 0 4.29 2 4.29 4.74v.45h-6.72a2.63 2.63 0 0 0 2.77 2.39 3.68 3.68 0 0 0 2.47-1l.86 1.24a5.07 5.07 0 0 1-3.53 1.26 4.57 4.57 0 0 1-.14-9.13zm-2.45 3.85H536a2.33 2.33 0 0 0-2.45-2.3 2.4 2.4 0 0 0-2.45 2.3zm12.48-3.85c2.61 0 4.29 2 4.29 4.74v.45h-6.72a2.63 2.63 0 0 0 2.77 2.39 3.68 3.68 0 0 0 2.47-1l.86 1.24a5.07 5.07 0 0 1-3.53 1.26 4.57 4.57 0 0 1-.14-9.13zm-2.45 3.85H546a2.33 2.33 0 0 0-2.45-2.3 2.4 2.4 0 0 0-2.43 2.3zm8.61 8.37v-12h1.89V166a3.47 3.47 0 0 1 2.79-1.4c2.25 0 3.85 1.69 3.85 4.56s-1.6 4.57-3.85 4.57a3.41 3.41 0 0 1-2.79-1.42v4.52zm4.12-10.55a2.82 2.82 0 0 0-2.23 1.17v3.44a2.87 2.87 0 0 0 2.23 1.17c1.49 0 2.45-1.21 2.45-2.9s-.96-2.88-2.45-2.88zm13.86-2.92h-3.64v-1.85h9.38v1.85h-3.64v10.15h-2.11zm5.04 5.8a4.48 4.48 0 1 1 4.46 4.57 4.35 4.35 0 0 1-4.46-4.57zm7 0a2.54 2.54 0 1 0-2.52 2.9 2.61 2.61 0 0 0 2.5-2.9zm3.31 0a4.48 4.48 0 1 1 4.46 4.57 4.35 4.35 0 0 1-4.46-4.57zm7 0a2.54 2.54 0 1 0-2.52 2.9 2.61 2.61 0 0 0 2.46-2.9zm3.86-7.65h1.89v12h-1.89z" class="cls-8"/><path d="M6.9 10.21H.84V7.12h15.63v3.09h-6.06v16.92H6.9z" class="cls-46"/><path d="M18 30.22A2 2 0 0 0 20.07 29l.72-1.65-5.94-14.71h3.36l4.23 10.86 4.23-10.86h3.39l-7 17.1a4.85 4.85 0 0 1-5 3.27 8.93 8.93 0 0 1-1.77-.21l.51-2.8a3.29 3.29 0 0 0 1.2.22zm14 2.43v-20h3.15v2a5.78 5.78 0 0 1 4.65-2.34c3.75 0 6.42 2.82 6.42 7.59s-2.67 7.62-6.42 7.62a5.69 5.69 0 0 1-4.65-2.37v7.53zm6.87-17.58a4.7 4.7 0 0 0-3.72 2v5.73a4.79 4.79 0 0 0 3.72 2c2.49 0 4.08-2 4.08-4.83s-1.55-4.9-4.04-4.9zm17.02-2.79c4.35 0 7.14 3.33 7.14 7.89v.75H51.84a4.39 4.39 0 0 0 4.62 4 6.13 6.13 0 0 0 4.11-1.59L62 25.39a8.45 8.45 0 0 1-5.88 2.1 7.28 7.28 0 0 1-7.59-7.62 7.32 7.32 0 0 1 7.36-7.59zm-4.08 6.42H60a3.88 3.88 0 0 0-4.08-3.84 4 4 0 0 0-4.11 3.84zM66.33 23a7.48 7.48 0 0 0 4.92 2c1.89 0 2.85-.69 2.85-1.77 0-1.26-1.53-1.71-3.3-2.1-2.49-.54-5.46-1.2-5.46-4.44 0-2.37 2-4.41 5.7-4.41a8.28 8.28 0 0 1 5.64 2l-1.32 2.22a5.84 5.84 0 0 0-4.29-1.74c-1.65 0-2.7.6-2.7 1.62s1.44 1.5 3.15 1.89c2.52.54 5.61 1.26 5.61 4.68 0 2.55-2.13 4.5-6 4.5a8.81 8.81 0 0 1-6.21-2.25zm20.79-3.13a7.46 7.46 0 1 1 14.91 0c0 4.17-2.82 7.62-7.47 7.62a7.26 7.26 0 0 1-7.44-7.62zm11.64 0c0-2.55-1.5-4.8-4.2-4.8s-4.17 2.25-4.17 4.8 1.5 4.83 4.17 4.83 4.2-2.25 4.2-4.83zM106 15.4h-2.4v-2.76h2.4v-.81c0-3.24 1.92-5 4.59-5a5.22 5.22 0 0 1 2.52.57l-.69 2.31a2.52 2.52 0 0 0-1.26-.3c-1.23 0-2 .81-2 2.43v.81H112v2.75h-2.94v11.73H106zm16.25-8.28h3.51v20h-3.51zm17.46 10.95c0-2.25-1.14-3-2.91-3a4.77 4.77 0 0 0-3.72 2v10.06h-3.15V12.64h3.15v2a6.85 6.85 0 0 1 5.1-2.34c3.12 0 4.68 1.68 4.68 4.65v10.2h-3.15zm7.23 14.58v-20h3.15v2a5.78 5.78 0 0 1 4.65-2.34c3.75 0 6.42 2.82 6.42 7.59s-2.67 7.62-6.42 7.62a5.69 5.69 0 0 1-4.65-2.37v7.53zm6.87-17.58a4.7 4.7 0 0 0-3.72 2v5.73a4.79 4.79 0 0 0 3.72 2c2.49 0 4.08-2 4.08-4.83s-1.59-4.9-4.08-4.9zm20.31 10.14a6.94 6.94 0 0 1-5.12 2.28c-3.12 0-4.65-1.62-4.65-4.59V12.64h3.15v9.12c0 2.25 1.14 2.94 2.91 2.94a4.82 4.82 0 0 0 3.72-1.89V12.64h3.15v14.49h-3.15zm7.88-1.44V15.4h-2.4v-2.76h2.4v-4h3.15v4h2.94v2.76h-2.94V23c0 1 .48 1.71 1.38 1.71a2 2 0 0 0 1.41-.51l.75 2.37a4.16 4.16 0 0 1-3 .93c-2.42-.01-3.69-1.33-3.69-3.73z" class="cls-46"/></svg>