<svg xmlns="http://www.w3.org/2000/svg" id="Layer_1" viewBox="0 0 500 500" width="500" height="500"><defs><style>.cls-1{fill:#f6f6f6}</style></defs><path d="M267-7.6c56.71 0 115.66 16.42 155.21 43.28l-63.48 109.69C330.38 126 303.51 118.51 267 118.51c-56.71 0-108.95 35.82-108.95 96.26v1.49c25.37-32.83 70.14-50.74 115.66-50.74 89.54 0 176.1 56 176.1 161.93 0 108.2-88.8 179.09-206.7 179.09C79.66 506.53 5.78 395.35 5.78 249.84 5.78 83.44 112.49-7.6 267-7.6zm-39.6 294.75c-25.37 0-49.25 6-70.14 20.15 3 33.58 23.88 73.13 79.1 73.13 38.8 0 60.44-21.64 60.44-45.52 0-35.07-35.8-47.76-69.4-47.76z" class="cls-1"/></svg>