<svg xmlns="http://www.w3.org/2000/svg" id="Layer_1" viewBox="0 0 500 500" width="500" height="500"><defs><style>.cls-1{fill:#94c947}</style></defs><path d="M295.83 370.08v-38.8h-91.66v38.8c0 40.81-34.12 74.93-74.93 74.93S55 410.89 55 370.08a74.52 74.52 0 0 1 74.26-74.26H168v-91.65h-38.08c-40.81 0-74.92-34.11-74.92-74.92S89.11 55 129.92 55a74.52 74.52 0 0 1 74.26 74.26v39.47h91.65v-39.48c0-40.81 34.12-74.26 74.93-74.26A74.52 74.52 0 0 1 445 129.25c0 40.81-33.45 74.93-74.26 74.93H332v91.65h38.8a74.52 74.52 0 0 1 74.2 74.25c0 40.81-33.45 74.93-74.26 74.93s-74.91-34.12-74.91-74.93zM129.92 90.45c-22.08 0-39.47 17.39-39.47 38.8a39.54 39.54 0 0 0 39.47 39.47H168v-39.47c0-21.41-17.34-38.8-38.08-38.8zm-.67 240.84c-21.41 0-38.8 18.06-38.8 38.8 0 22.08 17.39 39.47 38.8 39.47S168 392.16 168 370.08v-38.8zm166.58-127.12h-91.66v91.65h91.65zM332 129.25v39.47h38.8c20.74 0 38.8-18.06 38.8-39.47s-18.06-38.8-38.8-38.8a38.83 38.83 0 0 0-38.8 38.8zm0 202v38.8c0 22.08 17.39 39.47 38.8 39.47s38.8-17.39 38.8-39.47c0-20.74-17.39-38.8-38.8-38.8z" class="cls-1"/></svg>