<svg xmlns="http://www.w3.org/2000/svg" id="Indesign_1_" viewBox="0 0 576 576" width="576" height="576"><style>.st0{fill:#ee4494}.st1{fill:#180a0d}</style><path d="M0 0h576v576H0z" class="st0"/><path d="M36 36h504v504H36z" class="st1"/><path d="M207.9 428.1c0 2.5-1.1 3.7-3.3 3.7h-43c-2.2 0-3.3-1.2-3.3-3.7V165.9c0-2.2 1.1-3.3 3.3-3.3h43c2.2 0 3.3 1.1 3.3 3.3v262.2zm129.9 7.8c-14.7 0-28.5-2.1-41.4-6.3-12.8-4.2-24-10.7-33.4-19.3-9.4-8.6-16.8-19.4-22.1-32.4-5.3-13-8-28.1-8-45.3 0-14.7 2.7-28.7 8-41.8 5.3-13.1 13-24.4 23.1-34 10.1-9.6 22.3-17.1 36.7-22.7 14.3-5.6 30.5-8.4 48.5-8.4 3 0 5.8.1 8.4.2 2.6.1 5.7.5 9.2 1v-84c0-1.9.8-2.9 2.5-2.9H414c1.4 0 2 .8 2 2.5V390c0 4.1.1 8.5.4 13.3.3 4.8.7 9.1 1.2 12.9 0 1.9-.8 3.1-2.5 3.7-13.4 5.7-26.6 9.8-39.5 12.3-12.9 2.5-25.5 3.7-37.8 3.7zM366.9 270c-4.9-1.9-11.3-2.9-19.3-2.9-9 0-17.4 1.4-25.2 4.3-7.8 2.9-14.5 7-20.3 12.3-5.7 5.3-10.2 12-13.5 19.9-3.3 7.9-4.9 16.8-4.9 26.6 0 11.2 1.6 20.8 4.7 28.7 3.1 7.9 7.4 14.5 12.7 19.7 5.3 5.2 11.6 8.9 18.8 11.3 7.2 2.3 15 3.5 23.1 3.5 4.1 0 8.1-.2 12.1-.6 4-.4 7.8-1.3 11.7-2.7V270z" class="st0"/></svg>