<?xml version="1.0" encoding="utf-8"?>
<!-- Generator: Adobe Illustrator 23.0.3, SVG Export Plug-In . SVG Version: 6.00 Build 0)  -->
<svg version="1.1" id="Layer_1" xmlns="http://www.w3.org/2000/svg" xmlns:xlink="http://www.w3.org/1999/xlink" x="0px" y="0px"
	 viewBox="0 0 288 288" style="enable-background:new 0 0 288 288;" xml:space="preserve">
<style type="text/css">
	.st0{fill:#00673E;}
</style>
<path class="st0" d="M164.5,10.5c17.4,8.7,46.6,38.7,58.5,54.5c-10.3-7.1-31.6-13.4-48.2-9.5C176.4,43.7,173.2,19.2,164.5,10.5z
	 M223,96.6v102.7H65V9.7h66.4c38.7,0,26.1,63.2,26.1,63.2C181.9,67.4,223,69.7,223,96.6z M104.5,108.4c0,6.3,5.5,11.9,11.8,11.9
	s11.8-5.5,11.8-11.9c0-6.3-5.5-11.8-11.8-11.8S104.5,102.1,104.5,108.4z M183.5,159.8l-27.6-47.4l-16.6,23.7l-10.3-7.9l-24.5,31.6
	H183.5z M99.5,263.1H81.6l-2.5,6.9h-9.4l15.5-40h10.7l15.4,40H102L99.5,263.1z M83.9,255.7h13.3l-6.6-18.4L83.9,255.7z M128,229.9
	h28.3v7.3h-19.8v8.7h19.4v7.3h-19.4V270H128V229.9z M160.1,232.2c0-2.5,2.1-4.6,4.6-4.6c2.5,0,4.6,2,4.6,4.6c0,2.5-2,4.6-4.6,4.6
	C162.2,236.7,160.1,234.7,160.1,232.2z M160.9,241h7.6v29h-7.6V241z M174.8,229.9h7.6v40h-7.6V229.9z M202,240.3
	c8.6,0,14.5,6.5,14.5,16v1.7h-21.5c0.5,3.7,3.4,6.7,8.3,6.7c2.7,0,5.9-1.1,7.7-2.9l3.4,4.9c-2.9,2.7-7.4,4-11.9,4
	c-8.8,0-15.5-5.9-15.5-15.2C187,247,193.1,240.3,202,240.3z M194.8,252.7h14.3c-0.2-2.8-2.1-6.4-7.1-6.4
	C197.2,246.3,195.2,249.9,194.8,252.7z"/>
</svg>
