<svg xmlns="http://www.w3.org/2000/svg" id="Layer_2" viewBox="0 0 576 561.6" width="576" height="561.6"><style>.st0{fill:#dbdbdb}.st1{fill:#babee5}.st2{fill:#9bb0c4}.st3{fill:none;stroke:#2367bb;stroke-width:1.728;stroke-linecap:round;stroke-linejoin:round}.st4{fill:#265489}</style><path d="M0 0h576v561.6H0z" class="st0"/><path d="M540.5 561.6h-2.4v-16.8h-39.6v16.8h-2.4v-16.8h-39.6v16.8h-2.4v-16.8h-39.6v16.8h-2.4v-16.8h-39.6v16.8h-2.4v-16.8h-39.4v16.8h-2.4v-16.8h-39.8v16.8h-2.4v-16.8h-39.6v16.8h-2.4v-16.8h-39.6v16.8h-2.4v-16.8h-39.6v16.8h-2.4v-16.8h-39.6v16.8h-2.4v-16.8H78.5v16.8h-2.4v-16.8H36.5v16.8h-2.4v-16.8H0v-2.4h34.1v-39.6H0v-2.4h34.1v-39.6H0v-2.4h34.1v-39.6H0v-2.4h34.1v-39.6H0v-2.4h34.1v-39.6H0v-2.4h34.1v-39.6H0v-2.4h34.1v-39.6H0v-2.4h34.1v-39.6H0v-2.4h34.1v-39.6H0v-2.4h34.1v-39.6H0v-2.4h34.1V82.8H0v-2.4h34.1V40.8H0v-2.4h34.1V0h2.4v38.4h39.6V0h2.4v38.4h39.6V0h2.4v38.4h39.6V0h2.4v38.4h39.6V0h2.4v38.4h39.6V0h2.4v38.4h39.6V0h2.4v38.4h39.8V0h2.4v38.4h39.4V0h2.4v38.4h39.6V0h2.4v38.4h39.6V0h2.4v38.4h39.6V0h2.4v38.4h39.6V0h2.4v38.4H576v2.4h-35.5v39.6H576v2.4h-35.5v39.6H576v2.4h-35.5v39.6H576v2.4h-35.5v39.6H576v2.4h-35.5v39.6H576v2.4h-35.5v39.6H576v2.4h-35.5v39.6H576v2.4h-35.5v39.6H576v2.4h-35.5v39.6H576v2.4h-35.5v39.6H576v2.4h-35.5v39.6H576v2.4h-35.5v39.6H576v2.4h-35.5v16.8zm-42-19.2h39.6v-39.6h-39.6v39.6zm-42 0h39.6v-39.6h-39.6v39.6zm-42 0h39.6v-39.6h-39.6v39.6zm-42 0h39.6v-39.6h-39.6v39.6zm-41.8 0h39.4v-39.6h-39.4v39.6zm-42.2 0h39.8v-39.6h-39.8v39.6zm-42 0h39.6v-39.6h-39.6v39.6zm-42 0h39.6v-39.6h-39.6v39.6zm-42 0h39.6v-39.6h-39.6v39.6zm-42 0h39.6v-39.6h-39.6v39.6zm-42 0h39.6v-39.6H78.5v39.6zm-42 0h39.6v-39.6H36.5v39.6zm462-42h39.6v-39.6h-39.6v39.6zm-42 0h39.6v-39.6h-39.6v39.6zm-42 0h39.6v-39.6h-39.6v39.6zm-42 0h39.6v-39.6h-39.6v39.6zm-41.8 0h39.4v-39.6h-39.4v39.6zm-42.2 0h39.8v-39.6h-39.8v39.6zm-42 0h39.6v-39.6h-39.6v39.6zm-42 0h39.6v-39.6h-39.6v39.6zm-42 0h39.6v-39.6h-39.6v39.6zm-42 0h39.6v-39.6h-39.6v39.6zm-42 0h39.6v-39.6H78.5v39.6zm-42 0h39.6v-39.6H36.5v39.6zm462-42h39.6v-39.6h-39.6v39.6zm-42 0h39.6v-39.6h-39.6v39.6zm-42 0h39.6v-39.6h-39.6v39.6zm-42 0h39.6v-39.6h-39.6v39.6zm-41.8 0h39.4v-39.6h-39.4v39.6zm-42.2 0h39.8v-39.6h-39.8v39.6zm-42 0h39.6v-39.6h-39.6v39.6zm-42 0h39.6v-39.6h-39.6v39.6zm-42 0h39.6v-39.6h-39.6v39.6zm-42 0h39.6v-39.6h-39.6v39.6zm-42 0h39.6v-39.6H78.5v39.6zm-42 0h39.6v-39.6H36.5v39.6zm462-42h39.6v-39.6h-39.6v39.6zm-42 0h39.6v-39.6h-39.6v39.6zm-42 0h39.6v-39.6h-39.6v39.6zm-42 0h39.6v-39.6h-39.6v39.6zm-41.8 0h39.4v-39.6h-39.4v39.6zm-42.2 0h39.8v-39.6h-39.8v39.6zm-42 0h39.6v-39.6h-39.6v39.6zm-42 0h39.6v-39.6h-39.6v39.6zm-42 0h39.6v-39.6h-39.6v39.6zm-42 0h39.6v-39.6h-39.6v39.6zm-42 0h39.6v-39.6H78.5v39.6zm-42 0h39.6v-39.6H36.5v39.6zm462-42h39.6v-39.6h-39.6v39.6zm-42 0h39.6v-39.6h-39.6v39.6zm-42 0h39.6v-39.6h-39.6v39.6zm-42 0h39.6v-39.6h-39.6v39.6zm-41.8 0h39.4v-39.6h-39.4v39.6zm-42.2 0h39.8v-39.6h-39.8v39.6zm-42 0h39.6v-39.6h-39.6v39.6zm-42 0h39.6v-39.6h-39.6v39.6zm-42 0h39.6v-39.6h-39.6v39.6zm-42 0h39.6v-39.6h-39.6v39.6zm-42 0h39.6v-39.6H78.5v39.6zm-42 0h39.6v-39.6H36.5v39.6zm462-42h39.6v-39.6h-39.6v39.6zm-42 0h39.6v-39.6h-39.6v39.6zm-42 0h39.6v-39.6h-39.6v39.6zm-42 0h39.6v-39.6h-39.6v39.6zm-41.8 0h39.4v-39.6h-39.4v39.6zm-42.2 0h39.8v-39.6h-39.8v39.6zm-42 0h39.6v-39.6h-39.6v39.6zm-42 0h39.6v-39.6h-39.6v39.6zm-42 0h39.6v-39.6h-39.6v39.6zm-42 0h39.6v-39.6h-39.6v39.6zm-42 0h39.6v-39.6H78.5v39.6zm-42 0h39.6v-39.6H36.5v39.6zm462-42h39.6v-39.6h-39.6v39.6zm-42 0h39.6v-39.6h-39.6v39.6zm-42 0h39.6v-39.6h-39.6v39.6zm-42 0h39.6v-39.6h-39.6v39.6zm-41.8 0h39.4v-39.6h-39.4v39.6zm-42.2 0h39.8v-39.6h-39.8v39.6zm-42 0h39.6v-39.6h-39.6v39.6zm-42 0h39.6v-39.6h-39.6v39.6zm-42 0h39.6v-39.6h-39.6v39.6zm-42 0h39.6v-39.6h-39.6v39.6zm-42 0h39.6v-39.6H78.5v39.6zm-42 0h39.6v-39.6H36.5v39.6zm462-42h39.6v-39.6h-39.6v39.6zm-42 0h39.6v-39.6h-39.6v39.6zm-42 0h39.6v-39.6h-39.6v39.6zm-42 0h39.6v-39.6h-39.6v39.6zm-41.8 0h39.4v-39.6h-39.4v39.6zm-42.2 0h39.8v-39.6h-39.8v39.6zm-42 0h39.6v-39.6h-39.6v39.6zm-42 0h39.6v-39.6h-39.6v39.6zm-42 0h39.6v-39.6h-39.6v39.6zm-42 0h39.6v-39.6h-39.6v39.6zm-42 0h39.6v-39.6H78.5v39.6zm-42 0h39.6v-39.6H36.5v39.6zm462-42h39.6v-39.6h-39.6v39.6zm-42 0h39.6v-39.6h-39.6v39.6zm-42 0h39.6v-39.6h-39.6v39.6zm-42 0h39.6v-39.6h-39.6v39.6zm-41.8 0h39.4v-39.6h-39.4v39.6zm-42.2 0h39.8v-39.6h-39.8v39.6zm-42 0h39.6v-39.6h-39.6v39.6zm-42 0h39.6v-39.6h-39.6v39.6zm-42 0h39.6v-39.6h-39.6v39.6zm-42 0h39.6v-39.6h-39.6v39.6zm-42 0h39.6v-39.6H78.5v39.6zm-42 0h39.6v-39.6H36.5v39.6zm462-42h39.6v-39.6h-39.6v39.6zm-42 0h39.6v-39.6h-39.6v39.6zm-42 0h39.6v-39.6h-39.6v39.6zm-42 0h39.6v-39.6h-39.6v39.6zm-41.8 0h39.4v-39.6h-39.4v39.6zm-42.2 0h39.8v-39.6h-39.8v39.6zm-42 0h39.6v-39.6h-39.6v39.6zm-42 0h39.6v-39.6h-39.6v39.6zm-42 0h39.6v-39.6h-39.6v39.6zm-42 0h39.6v-39.6h-39.6v39.6zm-42 0h39.6v-39.6H78.5v39.6zm-42 0h39.6v-39.6H36.5v39.6zm462-42h39.6V82.8h-39.6v39.6zm-42 0h39.6V82.8h-39.6v39.6zm-42 0h39.6V82.8h-39.6v39.6zm-42 0h39.6V82.8h-39.6v39.6zm-41.8 0h39.4V82.8h-39.4v39.6zm-42.2 0h39.8V82.8h-39.8v39.6zm-42 0h39.6V82.8h-39.6v39.6zm-42 0h39.6V82.8h-39.6v39.6zm-42 0h39.6V82.8h-39.6v39.6zm-42 0h39.6V82.8h-39.6v39.6zm-42 0h39.6V82.8H78.5v39.6zm-42 0h39.6V82.8H36.5v39.6zm462-42h39.6V40.8h-39.6v39.6zm-42 0h39.6V40.8h-39.6v39.6zm-42 0h39.6V40.8h-39.6v39.6zm-42 0h39.6V40.8h-39.6v39.6zm-41.8 0h39.4V40.8h-39.4v39.6zm-42.2 0h39.8V40.8h-39.8v39.6zm-42 0h39.6V40.8h-39.6v39.6zm-42 0h39.6V40.8h-39.6v39.6zm-42 0h39.6V40.8h-39.6v39.6zm-42 0h39.6V40.8h-39.6v39.6zm-42 0h39.6V40.8H78.5v39.6zm-42 0h39.6V40.8H36.5v39.6z" class="st1"/><path d="M183.6 389.3c0 2.4-.7 3.1-2.9 3.1h-37.4c-1.9 0-2.9-.7-2.9-3.1v-258c0-1.9.7-2.9 2.9-2.9H275c2.4 0 2.9.7 3.1 2.9l3.8 33.1c.5 2.4-.7 3.1-3.1 3.1h-95.3v75.1H269c1.9 0 2.9.5 2.9 2.9v33.1c0 2.4-.7 2.9-2.9 2.9h-85.4v107.8zm162.2-85.5c.5 32.4 15.8 54.2 52.3 54.2 14.2 0 26.4-1.9 39.1-7.4 1.7-.7 2.9-.5 2.9 1.7v30c0 2.4-.7 3.6-2.4 4.8-12.7 6.2-28.6 9.1-48.2 9.1-63.4 0-87.1-46.6-87.1-98.9 0-56.6 29.3-102.7 80.6-102.7 52.3 0 70.3 43.9 70.3 79.4 0 11.5-.7 20.9-1.9 25.2-.5 1.9-1.2 2.9-3.1 3.1-4.8.7-19 1.7-39.8 1.7h-62.6v-.2zm48.8-32.8c12.2 0 16.6 0 17.8-.5 0-1.7.5-3.1.5-4.3 0-13-6.2-36.7-31.2-36.7-23 0-32.9 20.2-35.3 41.5h48.2z" class="st2"/><path d="M186 280.8l64.1-37-56.4 37 63.8-37-57.1 37 64.1-37-57.4 37 62.7-36.2-58.1 36.2 58.5-33.8-53 33.8 53-30.7-44.6 30.7 44.6-25.9-37.9 25.9 37.9-22.1-30.7 22.1 30.7-17.8-22 17.8 22-12.7-15.6 12.7 15.6-9.1-9.3 9.1 9.3-5.5-2.8 5.5 2.8-1.9M186 166.8l64.6-37.2-58.6 37.2 64.8-37.2-58.3 37.2 64.8-37.2-59.5 37.2 64.8-37.2-58.1 37.2 64.3-37-55.4 37 57.3-33.1-49.9 33.1 50.4-29-45.4 29 45.9-26.4-40.1 26.4 40.3-23.3-35 23.3 35.5-20.4-28.8 20.4 29-16.8-22.3 16.8 22.8-13.2-19.4 13.2 19.7-11.3-12.8 11.3 13.2-7.4-7.4 7.4 7.9-4.3" class="st3"/><path d="M142.1 135.1l9.6-5.5-9.6 8.4 14.9-8.4-14.9 13.2 22.8-13.2-22.8 17.8 30.7-17.8-30.7 20.6 36-20.6-36 23.3 40.5-23.3-40.5 25.9 45.1-25.9-45.1 30.5 53-30.5-53 36 62.4-36-62.4 38.9 67.7-38.9-67.7 41.3 71.5-41.3-71.5 44.4 76.8-44.4-76.8 48.7 84.5-48.7-84.5 51.4 89-51.4-89 57.1 98.9-57.1-98.9 62.9 40.1-23.3-40.1 27.8 40.1-23.2-40.1 27.1 40.1-23.1-40.1 25.5 40.1-23.1-40.1 28.1 40.1-23-40.1 28.3 40.1-23-40.1 25.9 40.1-23.1-40.1 26.9 40.1-23-40.1 28.8 40.1-23.1-40.1 27.4 40.1-23-40.1 26.6 40.1-23-40.1 27.8 40.1-23-40.1 28.8 40.1-23.1-40.1 26.7 40.1-23.1-40.1 28.1 40.1-23-40.1 27.6 40.1-23.1-40.1 25.9 40.1-23.2-40.1 26.6 40.1-23-40.1 27.8 43.2-25-43.2 30.5 52.5-30.5-52.5 35.3 60.9-35.3-60.9 40.4 69.8-40.4-69.8 45.2 78.2-45.2-78.2 50 86.4-50-86.4 55.7 96.2-55.7-96.2 58.8 102-58.8-102 62 40.1-23.1-40.1 27.4 40.1-23.1-40.1 27.2 40.1-23.3-40.1 25.9 40.1-23.3-40.1 27.1 40.1-23-40.1 28.3 40.1-23-40.1 27.8 40.1-23-40.1 29 40.1-23.3-40.1 27.2 40.1-23.1-40.1 27.1 40.1-23-40.1 25.9 40.1-23.3-40.1 26.9 40.1-23-40.1 26.9 40.1-23.1-40.1 25.7 40.1-23-40.1 27.3 40.1-23.3-40.1 25.5 40.1-23.1-40.1 28.4 40.1-23.3-40.1 27.8 40.1-23-40.1 27.3 40.1-23-40.1 27.6 40.1-23-40.1 28 40.1-23-37.2 26.6 37.2-21.3-29.6 21.3 29.6-17-19.5 17 19.5-11-12.3 11 12.3-6.9-5.6 6.9 5.6-3.1M372 230.4l45.1-26.2-34.1 24.3 37.7-21.9-31.9 22.4 35-20.2-30.4 21.4 33.1-19-30.3 20.2 32-18.8-29.3 20.2 31.4-18-27.8 20.9 30.7-17.8-28.1 20.2 30.3-17.5-28.1 20.4 30-17.3-27.9 21.1 30.3-17.5-28.8 20.4 30.5-17.8-29.6 20.7 30.8-17.8-29.8 20.9 31.2-18-30.7 20.4 31.7-18.3-31.2 21.4 32.1-18.5-31.7 21.4 32.4-19-32.4 21.1 33.2-19.2-33.2 21.9 33.9-19.7-34.1 22.1 34.6-19.9" class="st3"/><path d="M348 302.9l53.8-31-47.6 31 53.8-31-47.3 31 88.3-51.1-83 51.1 83.8-48.3-77.3 48.3 78-44.9-68.9 44.9 69.4-40.1-62.2 40.1 62.6-36-57.6 36 57.6-33.4-51.6 33.4 51.9-30-46.6 30 46.6-27.1-39.9 27.1 39.9-23.1-33.1 23.1 32.8-19.2-29.2 18.9 29.2-16.8-22 16.8 21.8-12.7-15.6 12.5 15.4-8.9-5.3 8.2 4.3-2.4" class="st3"/><path d="M342.5 206.6l9.3-5.5-19.4 13.9 30.2-17.5-36.2 24.5 45.1-26.2-48 30 52.6-30.2-57.6 38.2 66.5-38.2-68.4 42.5 73.2-42.3-75.6 47.3 80.6-46.5-83.5 54.2 91.2-52.8-92.4 55.9 95-54.9-96.7 60.9 102.2-59-103.2 63.6 107.1-61.7-108.3 66.5 50.9-29.3-51.3 34.1 46-26.7-47 32.4 43.7-25.2-43.9 28.8 42.4-24.7-42.7 28.1 41.8-24.2-41.8 27.1 41.3-23.8-41.5 27.6 40.8-23.5-40.8 28.8 46.1-26.9-46.1 30.3 52.3-30.3-52.1 34.8 60.3-34.8-60 37.7 65-37.7-64.8 40.6 70.1-40.6-69.6 44.4 76.8-44.4-76.3 47.3 81.6-47.3-80.9 51.9 89.7-51.9-88.8 56.7 37-21.4-36 25.9 36.2-20.9-34.8 25.2 35.6-20.4-34.1 24.5 34.8-19.9-33.9 23 34.6-19.9-32.6 23.8 34-19.7-33.3 21.4 33.8-19.5-32.1 23.3 34-19.7-32.4 22.6 33.9-19.5-32.7 21.4 33.9-19.7-31.7 22.8 33.8-19.7-32.8 21.2 34-19.7-33.1 21.1 34.3-19.7-32.6 21.9 34.6-20.2-33.2 21.8 35.1-20.1-31.7 24 36-20.9-32.2 24.2 37.5-21.6-35.8 23.1 38.4-22.1-36.2 23.8 39.1-22.6-36.5 24.5 40.6-23.5-36.5 26.1 43.2-24.9-39.6 26.8 46.1-26.6-44.2 27.6 47.5-27.4-43.2 29.3 51.4-29.7-48.2 30.9 54.9-31.7-50.9 32.9 60-34.5-53.2 36.4 70-40.3-66.9 40.8 66.9-38.6-62.6 39.3 62.6-36.2-54.7 37 54.7-31.7-49.6 31.9 49.6-28.8-43.2 28.8 43.2-25-34.8 24.8 34.8-20.2-30.2 19.7 30.2-17.5-22.8 16.5 22.8-13.2-2.1 7.2 1.2-.7" class="st3"/><path d="M181 393.6h-37.7c-3.6 0-4.1-2.4-4.1-4.3v-258c0-2.6 1.4-4.1 4.1-4.1H275c3.4 0 3.8 1.7 4.3 3.8l4.1 33.4c.2 1.4 0 2.4-.7 3.1-1 1.2-2.6 1.2-3.6 1.2h-94.3v72.7H269c2.4 0 4.1.7 4.1 4.1v33.1c0 3.4-1.7 4.1-4.1 4.1h-84.2V389c0 2.2-.2 4.6-3.8 4.6zm-37.7-263.8c-1.2 0-1.7.2-1.7 1.7v257.8c0 1.9.5 1.9 1.7 1.9H181c1.2 0 1.7 0 1.7-1.9V280.6h86.6c1.4 0 1.7 0 1.7-1.7v-33.1c0-1.7 0-1.7-1.7-1.7h-86.9v-77.5h96.5c1.2 0 1.7-.2 1.9-.5.2-.2.2-.7 0-1.4l-4.1-33.4c-.2-1.4-.2-1.7-1.9-1.7H143.3v.2zm246 267.4c-30 0-52.8-10.3-68.2-30.2-13.2-17.3-19.9-41.3-19.9-69.8 0-62.2 32.9-103.9 81.8-103.9 49.4 0 71.5 40.6 71.5 80.6 0 11.3-.7 21.1-1.9 25.7-.5 2.4-1.7 3.6-4.1 4.1-4.8.7-19 1.7-40.1 1.7h-61.2c.5 24 10.1 51.8 50.9 51.8 15.1 0 26.9-2.4 38.6-7.4 1.4-.7 2.6-.5 3.1 0 .5.2 1.2 1.2 1.2 2.9v30c0 2.9-1.2 4.3-2.9 5.8-12.3 5.6-28.4 8.7-48.8 8.7zM383 195.4c-39.6 0-79.4 31.4-79.4 101.5 0 88.1 60 97.7 85.9 97.7 19.9 0 35.8-2.9 47.8-8.9 1-.7 1.7-1.7 1.7-3.6v-30c0-.5 0-.7-.2-.7 0 0-.2 0-1 .2-12 5.3-24.2 7.7-39.6 7.7-34.6 0-53-19.2-53.5-55.4v-1.2h63.6c20.9 0 35-.7 39.8-1.7 1.4-.2 1.9-.7 2.2-2.2 1.2-4.6 1.9-13.9 1.9-25 0-57.8-37.2-78.4-69.2-78.4zm11.6 76.8h-49.7l.2-1.4c3.1-27.1 16.3-42.5 36.5-42.5 11.3 0 20.2 4.8 25.9 14.2 6 9.6 6.5 20.6 6.5 24 0 .5 0 1.2-.2 1.9 0 .7-.2 1.4-.2 2.4v1l-.7.2c-1.5.2-5.6.2-18.3.2zm-47.1-2.4h46.8c9.6 0 14.6 0 16.6-.2 0-.5 0-1.2.2-1.7 0-.7.2-1.2.2-1.7 0-13.2-6.2-35.5-30-35.5-25.6-.1-32.1 26.3-33.8 39.1z" class="st4"/></svg>