<?xml version="1.0" encoding="utf-8"?>
<!-- Generator: Adobe Illustrator 23.0.3, SVG Export Plug-In . SVG Version: 6.00 Build 0)  -->
<svg version="1.1" id="Layer_1" xmlns="http://www.w3.org/2000/svg" xmlns:xlink="http://www.w3.org/1999/xlink" x="0px" y="0px"
	 viewBox="0 0 288 288" style="enable-background:new 0 0 288 288;" xml:space="preserve">
<style type="text/css">
	.st0{fill:#00673E;}
</style>
<path class="st0" d="M104.9,15.3H36.5l6.8,48.9h19.6l-3.9-29.3h36.2c10.8,13.7,19.6,19.6,42,19.6h90.9l-2,9.8h19.6l5.9-29.3H137.2
	C117.6,34.8,116.6,30.9,104.9,15.3z M261.3,83.7H26.7l19.6,127.1h195.5L261.3,83.7z M62.7,263.1H44.8l-2.5,6.9h-9.4l15.5-40h10.7
	l15.4,40h-9.3L62.7,263.1z M47.1,255.7h13.3l-6.6-18.4L47.1,255.7z M91.2,229.9h28.3v7.3H99.7v8.7h19.4v7.3H99.7V270h-8.5V229.9z
	 M122.2,255.4c0-8.2,5.8-15.2,15.3-15.2c9.6,0,15.4,7,15.4,15.2c0,8.3-5.8,15.2-15.4,15.2C128,270.7,122.2,263.7,122.2,255.4z
	 M144.9,255.4c0-4.5-2.7-8.4-7.4-8.4s-7.4,3.9-7.4,8.4c0,4.6,2.6,8.5,7.4,8.5S144.9,260,144.9,255.4z M157.3,229.9h7.6v40h-7.6
	V229.9z M191.2,266.3c-2.3,2.8-5.5,4.4-8.9,4.4c-7.3,0-12.8-5.5-12.8-15.2c0-9.5,5.5-15.2,12.8-15.2c3.4,0,6.7,1.5,8.9,4.4v-14.8
	h7.7v40h-7.7V266.3z M191.2,250.3c-1.3-1.9-4-3.3-6.6-3.3c-4.3,0-7.3,3.4-7.3,8.5c0,5,3,8.4,7.3,8.4c2.6,0,5.3-1.4,6.6-3.3V250.3z
	 M218.4,240.3c8.6,0,14.5,6.5,14.5,16v1.7h-21.5c0.5,3.7,3.4,6.7,8.3,6.7c2.7,0,5.9-1.1,7.7-2.9l3.4,4.9c-2.9,2.7-7.4,4-11.9,4
	c-8.8,0-15.5-5.9-15.5-15.2C203.4,247,209.6,240.3,218.4,240.3z M211.2,252.7h14.3c-0.2-2.8-2.1-6.4-7.1-6.4
	C213.6,246.3,211.6,249.9,211.2,252.7z M237.2,241h7.6v4c2-2.6,5.6-4.6,9.2-4.6v7.4c-0.5-0.1-1.3-0.2-2.1-0.2
	c-2.5,0-5.9,1.4-7.1,3.2V270h-7.6V241z"/>
</svg>
