<svg xmlns="http://www.w3.org/2000/svg" id="Layer_2" viewBox="0 0 576 576" width="576" height="576"><style>.st0{fill:#ee4494}.st1{fill:#180a0d}</style><path d="M0 0h576v576H0z" class="st0"/><path d="M36 36h504v504H36z" class="st1"/><path d="M227.2 272.6l74.1 120.3c1.5 2 1 3.2-1.5 3.7h-45.1c-2.7 0-4.5-1-5.5-2.9-8.8-15.2-17.7-30.3-26.6-45.5-8.9-15.2-17.9-30.7-27-46.6h-.4c-8.3 15.4-16.8 30.8-25.3 46.2-8.6 15.4-17.1 30.7-25.7 45.9-1 2-2.4 2.9-4.4 2.9H97c-1.2 0-1.9-.4-2-1.3-.1-.9.1-1.7.5-2.4l71.9-117.4L97 158.9c-1.2-2.2-.6-3.3 1.8-3.3h44.8c2 0 3.4.9 4.4 2.6 8.1 15.4 16.5 30.6 25.3 45.5 8.8 14.9 17.4 30.1 25.7 45.5h.4c8.1-15.4 16.3-30.6 24.8-45.5 8.4-14.9 16.9-30 25.5-45.1.7-2 2.2-2.9 4.4-2.9h41.1c2.2 0 2.7 1.2 1.5 3.7l-69.5 113.2z" class="st0"/><path d="M394.9 400.3c-13.2 0-25.6-1.9-37.1-5.7-11.5-3.8-21.5-9.5-29.9-17.2-8.4-7.7-15-17.4-19.8-29-4.8-11.6-7.2-25.1-7.2-40.5 0-13.2 2.4-25.7 7.2-37.4 4.8-11.7 11.7-21.9 20.7-30.4 9-8.6 20-15.3 32.8-20.4 12.8-5 27.3-7.5 43.5-7.5 2.7 0 5.2.1 7.5.2s5.1.4 8.3.9V138c0-1.7.7-2.6 2.2-2.6h40c1.2 0 1.8.7 1.8 2.2v221.6c0 3.7.1 7.6.4 11.9.2 4.3.6 8.1 1.1 11.6 0 1.7-.7 2.8-2.2 3.3-12 5.1-23.8 8.8-35.4 11-11.6 2.2-22.9 3.3-33.9 3.3zm26-148.6c-4.4-1.7-10.2-2.6-17.2-2.6-8.1 0-15.6 1.3-22.6 3.9-7 2.6-13 6.2-18.2 11-5.1 4.8-9.2 10.7-12.1 17.8-2.9 7.1-4.4 15-4.4 23.8 0 10 1.4 18.6 4.2 25.7 2.8 7.1 6.6 13 11.4 17.6 4.8 4.6 10.4 8 16.9 10.1 6.5 2.1 13.4 3.1 20.7 3.1 3.7 0 7.3-.2 10.8-.5 3.5-.4 7-1.2 10.5-2.4V251.7z" class="st0"/><path d="M227.2 272.6l74.1 120.3c1.5 2 1 3.2-1.5 3.7h-45.1c-2.7 0-4.5-1-5.5-2.9-8.8-15.2-17.7-30.3-26.6-45.5-8.9-15.2-17.9-30.7-27-46.6h-.4c-8.3 15.4-16.8 30.8-25.3 46.2-8.6 15.4-17.1 30.7-25.7 45.9-1 2-2.4 2.9-4.4 2.9H97c-1.2 0-1.9-.4-2-1.3-.1-.9.1-1.7.5-2.4l71.9-117.4L97 158.9c-1.2-2.2-.6-3.3 1.8-3.3h44.8c2 0 3.4.9 4.4 2.6 8.1 15.4 16.5 30.6 25.3 45.5 8.8 14.9 17.4 30.1 25.7 45.5h.4c8.1-15.4 16.3-30.6 24.8-45.5 8.4-14.9 16.9-30 25.5-45.1.7-2 2.2-2.9 4.4-2.9h41.1c2.2 0 2.7 1.2 1.5 3.7l-69.5 113.2z" class="st0"/><path d="M394.9 400.3c-13.2 0-25.6-1.9-37.1-5.7-11.5-3.8-21.5-9.5-29.9-17.2-8.4-7.7-15-17.4-19.8-29-4.8-11.6-7.2-25.1-7.2-40.5 0-13.2 2.4-25.7 7.2-37.4 4.8-11.7 11.7-21.9 20.7-30.4 9-8.6 20-15.3 32.8-20.4 12.8-5 27.3-7.5 43.5-7.5 2.7 0 5.2.1 7.5.2s5.1.4 8.3.9V138c0-1.7.7-2.6 2.2-2.6h40c1.2 0 1.8.7 1.8 2.2v221.6c0 3.7.1 7.6.4 11.9.2 4.3.6 8.1 1.1 11.6 0 1.7-.7 2.8-2.2 3.3-12 5.1-23.8 8.8-35.4 11-11.6 2.2-22.9 3.3-33.9 3.3zm26-148.6c-4.4-1.7-10.2-2.6-17.2-2.6-8.1 0-15.6 1.3-22.6 3.9-7 2.6-13 6.2-18.2 11-5.1 4.8-9.2 10.7-12.1 17.8-2.9 7.1-4.4 15-4.4 23.8 0 10 1.4 18.6 4.2 25.7 2.8 7.1 6.6 13 11.4 17.6 4.8 4.6 10.4 8 16.9 10.1 6.5 2.1 13.4 3.1 20.7 3.1 3.7 0 7.3-.2 10.8-.5 3.5-.4 7-1.2 10.5-2.4V251.7z" class="st0"/></svg>