<svg xmlns="http://www.w3.org/2000/svg" id="Layer_1" width="1000" height="95.5" viewBox="0 0 1000 95.5"><defs><style>.cls-1{fill:#00673f}.cls-2{fill:#77bc1f}</style></defs><path d="M98.9 46.1a27.15 27.15 0 0 0 26.3 28.2h1.1v19.6A47.174 47.174 0 0 1 90 78l6.1 14.5H74l-7.3-18.7h-38l-7.3 19H0l7.8-19a387.604 387.604 0 0 1 70.1-23.5v-3.1C78.2 21.2 98.3 0 126.3 0v18.4A27.212 27.212 0 0 0 98.9 45zm-23.8-3.4c-5.9.8-12.3 1.7-19 2.8L48 24.3l-9.5 24.3C31.3 50 24 51.4 16.8 53.1l22.3-52h18.4z" class="cls-1"/><path d="M160.1 92.5V1.7h4.2v90.8z" class="cls-2"/><path d="M200.8 46.4c0-19.6 14.8-32.7 33.2-32.7a28.575 28.575 0 0 1 26.8 15.4l-11.5 5.6a17.602 17.602 0 0 0-15.4-9.2c-11.2 0-19.6 8.9-19.6 20.7s8.4 20.7 19.6 20.7a17.721 17.721 0 0 0 15.4-9.2l11.5 5.6a29.191 29.191 0 0 1-27.1 15.6c-18.1.2-32.9-13.3-32.9-32.5zM264 55a24.313 24.313 0 0 1 48.6 0 24.313 24.313 0 0 1-48.6 0zm36 0c0-7-4.2-13.4-11.7-13.4s-11.7 6.1-11.7 13.4 4.2 13.4 11.7 13.4c7.2 0 11.7-6.4 11.7-13.4zm76.5-6.1c0-4.2-2-7.3-6.7-7.3a12.664 12.664 0 0 0-9.5 5.3v31H348v-29c0-4.2-2-7.3-6.7-7.3a12.664 12.664 0 0 0-9.5 5.3v30.7h-12V32.1h12V38a19.23 19.23 0 0 1 15.1-7c6.7 0 10.9 3.1 12.8 8.4a19.774 19.774 0 0 1 15.6-8.4c8.4 0 13.4 4.5 13.4 14v33h-12.3l.1-29.1zm22.1 46.6V32.1h12V38a17.759 17.759 0 0 1 14.2-7c11.7 0 20.4 8.7 20.4 24s-8.7 24-20.4 24a17.48 17.48 0 0 1-14.2-7v23.5zm22.3-53.9a12.745 12.745 0 0 0-10.3 5.3v16.2a14.875 14.875 0 0 0 10.3 5.3c7 0 11.5-5.3 11.5-13.4s-4.5-13.4-11.5-13.4zm62.3 30.5a22.17 22.17 0 0 1-16.2 7c-10.1 0-14.8-5.6-14.8-14.5V32.1h12V60c0 6.4 3.4 8.4 8.4 8.4a12.745 12.745 0 0 0 10.3-5.3v-31h12v45.8h-11.7v-5.8zm24.6-5.6v-24H500V31.8h7.5V19.6h12.3v12.6h9.2v10.6h-9.2v20.7c0 2.8 1.4 5 4.2 5a7.812 7.812 0 0 0 4.2-1.4l2.5 9.2a14.314 14.314 0 0 1-10.1 2.8c-8.3 0-12.8-4.5-12.8-12.6zM556.4 31c13.7 0 22.9 10.3 22.9 25.1v2.8h-34.1a12.24 12.24 0 0 0 13.1 10.6 19.576 19.576 0 0 0 12.3-4.5l5.3 7.8a28.772 28.772 0 0 1-19 6.4c-14 0-24.6-9.5-24.6-24a23.402 23.402 0 0 1 22.6-24 4.42 4.42 0 0 1 1.5-.2zm-11.1 19.6h22.6a10.709 10.709 0 0 0-11.2-10.1 10.643 10.643 0 0 0-11.4 10.1zM586 32.1h12v6.1a18.78 18.78 0 0 1 14.5-7.3v11.7c-5.3-1.1-11.2.6-14.5 4.7v30.4h-12zm85.8-18.4a30.003 30.003 0 0 1 26.3 14l-11.2 5.9a18.156 18.156 0 0 0-15.1-8.1c-11.5 0-19.8 8.9-19.8 20.7s8.4 20.7 19.8 20.7a22.488 22.488 0 0 0 13.7-4.7v-7.8h-16.8V42.5h30.2V67a35.698 35.698 0 0 1-27.1 12C653.4 79 638 66.2 638 46s15.1-32.3 33.8-32.3zm35.5 18.4h12v6.1a18.78 18.78 0 0 1 14.5-7.3v11.7c-5.3-1.1-11.2.6-14.5 4.7v30.4h-12zM767 73.2a18.797 18.797 0 0 1-14.5 5.9 15.214 15.214 0 0 1-15.9-14.5V64c0-10.6 8.7-14.5 15.9-14.5a19.039 19.039 0 0 1 14.5 5.6v-6.4c0-4.7-3.9-7.8-10.1-7.8a19.986 19.986 0 0 0-13.4 5.3l-4.5-8.1a31.037 31.037 0 0 1 20.1-7.3c10.3 0 20.1 4.2 20.1 17.3v29.6h-12v-4.5zm0-12a11.78 11.78 0 0 0-9.8-3.9c-4.7 0-8.7 2.5-8.7 7s3.9 6.7 8.7 6.7a11.897 11.897 0 0 0 9.8-3.9zm22.4 34.3V32.1h12V38a17.759 17.759 0 0 1 14.2-7c11.7 0 20.4 8.7 20.4 24s-8.7 24-20.4 24a17.48 17.48 0 0 1-14.2-7v23.5zm22.3-53.9a12.745 12.745 0 0 0-10.3 5.3v16.2a14.875 14.875 0 0 0 10.3 5.3c7 0 11.5-5.3 11.5-13.4s-4.5-13.4-11.5-13.4zm62 8.4c0-6.4-3.4-8.4-8.7-8.4a12.338 12.338 0 0 0-10.3 5.3v30.7h-12V14.5h12V38a20.428 20.428 0 0 1 16.2-7c10.1 0 14.8 5.6 14.8 14.5v32.4h-12V50zM895 19a7.3 7.3 0 1 1 14.6 0 7.476 7.476 0 0 1-7.3 7.3C898 26 895 22.9 895 19zm1.1 13.1h12v45.8h-12zm43.6-1.1a22.72 22.72 0 0 1 18.2 8.1l-7.8 7.3a11.327 11.327 0 0 0-9.8-5c-7.3 0-12.6 5.3-12.6 13.4s5 13.4 12.6 13.4a11.69 11.69 0 0 0 9.8-5l7.8 7.3a21.734 21.734 0 0 1-18.2 8.4 23.407 23.407 0 0 1-24.3-22.3v-2a22.96 22.96 0 0 1 22.3-24 3.606 3.606 0 0 0 2 .4zm25.4 32.4a26.317 26.317 0 0 0 15.9 6.4c5.3 0 7.8-1.7 7.8-4.7 0-3.1-3.9-4.5-9.2-5.3-7.8-1.4-18.2-3.4-18.2-14.2 0-7.8 6.7-14.5 18.7-14.5a31.014 31.014 0 0 1 18.4 6.1l-4.7 8.4a20.255 20.255 0 0 0-13.7-5.3c-4.5 0-7.3 1.7-7.3 4.2s3.6 3.9 8.7 5c7.8 1.4 18.4 3.6 18.4 15.1 0 8.4-7 14.8-19.8 14.8a29.519 29.519 0 0 1-20.4-7z" class="cls-1"/></svg>