<svg xmlns="http://www.w3.org/2000/svg" id="Layer_1" viewBox="0 0 358 34.2" width="358" height="34.2"><style>.st0{fill:#aec988}.st1{fill:#77bc1f}</style><path d="M35.4 16.5c-.2 5.5 4.1 9.9 9.4 10.1h.4v7c-5 .1-9.7-2-13-5.7l2.2 5.2h-7.9l-2.6-6.7H10.3l-2.6 6.8H0l2.8-6.8c8.1-3.6 16.5-6.4 25.1-8.4v-1.1C28 7.6 35.2 0 45.2 0v6.6c-5.3-.1-9.7 4.2-9.8 9.5v.4zm-8.5-1.2c-2.1.3-4.4.6-6.8 1l-2.9-7.6-3.4 8.7c-2.6.5-5.2 1-7.8 1.6L14 .4h6.6l6.3 14.9z" class="st0"/><path d="M57.3 33.1V.6h1.5v32.5h-1.5z" class="st1"/><path d="M71.9 16.6c0-7 5.3-11.7 11.9-11.7 4-.2 7.8 2 9.6 5.5l-4.1 2c-1.1-2-3.2-3.3-5.5-3.3-4 0-7 3.2-7 7.4s3 7.4 7 7.4c2.3 0 4.4-1.3 5.5-3.3l4.1 2c-1.9 3.6-5.6 5.7-9.7 5.6-6.5.1-11.8-4.7-11.8-11.6zm22.6 3.1c.2-4.8 4.2-8.6 9-8.4 4.6.2 8.2 3.8 8.4 8.4-.2 4.8-4.2 8.6-9 8.4-4.6-.2-8.2-3.9-8.4-8.4zm12.9 0c0-2.5-1.5-4.8-4.2-4.8S99 17.1 99 19.7s1.5 4.8 4.2 4.8c2.6 0 4.2-2.3 4.2-4.8zm27.4-2.2c0-1.5-.7-2.6-2.4-2.6-1.4.1-2.6.8-3.4 1.9v11.1h-4.4V17.5c0-1.5-.7-2.6-2.4-2.6-1.4.1-2.6.8-3.4 1.9v11h-4.3V11.5h4.3v2.1c1.3-1.6 3.3-2.5 5.4-2.5 2.4 0 3.9 1.1 4.6 3 1.3-1.8 3.4-3 5.6-3 3 0 4.8 1.6 4.8 5v11.8h-4.4V17.5zm7.9 16.7V11.5h4.3v2.1c1.2-1.6 3.1-2.5 5.1-2.5 4.2 0 7.3 3.1 7.3 8.6s-3.1 8.6-7.3 8.6c-2 0-3.9-.9-5.1-2.5v8.4h-4.3zm8-19.3c-1.5 0-2.8.7-3.7 1.9v5.8c.9 1.1 2.3 1.8 3.7 1.9 2.5 0 4.1-1.9 4.1-4.8s-1.6-4.8-4.1-4.8zM173 25.8c-1.5 1.6-3.6 2.5-5.8 2.5-3.6 0-5.3-2-5.3-5.2V11.5h4.3v10c0 2.3 1.2 3 3 3 1.5 0 2.8-.7 3.7-1.9V11.5h4.3v16.4H173v-2.1zm8.8-2v-8.6H179v-3.8h2.7V7h4.4v4.5h3.3v3.8h-3.3v7.4c0 1 .5 1.8 1.5 1.8.5 0 1.1-.2 1.5-.5l.9 3.3c-1 .8-2.3 1.1-3.6 1-3 0-4.6-1.6-4.6-4.5zm17.4-12.7c4.9 0 8.2 3.7 8.2 9v1h-12.2c.3 2.3 2.4 4 4.7 3.8 1.6 0 3.2-.6 4.4-1.6l1.9 2.8c-1.9 1.5-4.3 2.4-6.8 2.3-5 0-8.8-3.4-8.8-8.6-.1-4.6 3.5-8.5 8.1-8.6.2-.1.3-.1.5-.1zm-4 7h8.1c-.1-2.1-1.9-3.7-4-3.6-2.2-.1-4 1.5-4.1 3.6zm14.6-6.6h4.3v2.2c1.3-1.6 3.2-2.6 5.2-2.6v4.2c-1.9-.4-4 .2-5.2 1.7v10.9h-4.3V11.5zm30.7-6.6c3.8-.1 7.4 1.8 9.4 5l-4 2.1c-1.2-1.8-3.2-2.9-5.4-2.9-4.1 0-7.1 3.2-7.1 7.4s3 7.4 7.1 7.4c1.8 0 3.5-.6 4.9-1.7v-2.8h-6v-4.2h10.8V24c-2.4 2.8-6 4.3-9.7 4.3-6.6 0-12.1-4.6-12.1-11.8s5.4-11.6 12.1-11.6zm12.7 6.6h4.3v2.2c1.3-1.6 3.2-2.6 5.2-2.6v4.2c-1.9-.4-4 .2-5.2 1.7v10.9h-4.3V11.5zm21.4 14.7c-1.3 1.4-3.2 2.2-5.2 2.1-3 .1-5.6-2.2-5.7-5.2v-.2c0-3.8 3.1-5.2 5.7-5.2 1.9-.1 3.8.6 5.2 2v-2.3c0-1.7-1.4-2.8-3.6-2.8-1.8 0-3.5.7-4.8 1.9l-1.6-2.9c2-1.7 4.5-2.6 7.2-2.6 3.7 0 7.2 1.5 7.2 6.2v10.6h-4.3v-1.6h-.1zm0-4.3c-.9-1-2.2-1.5-3.5-1.4-1.7 0-3.1.9-3.1 2.5s1.4 2.4 3.1 2.4c1.3.1 2.6-.4 3.5-1.4v-2.1zm8 12.3V11.5h4.3v2.1c1.2-1.6 3.1-2.5 5.1-2.5 4.2 0 7.3 3.1 7.3 8.6s-3.1 8.6-7.3 8.6c-2 0-3.9-.9-5.1-2.5v8.4h-4.3zm8-19.3c-1.5 0-2.8.7-3.7 1.9v5.8c.9 1.1 2.3 1.8 3.7 1.9 2.5 0 4.1-1.9 4.1-4.8s-1.6-4.8-4.1-4.8zm22.2 3c0-2.3-1.2-3-3.1-3-1.5 0-2.9.7-3.7 1.9v11h-4.3V5.2h4.3v8.4c1.5-1.7 3.6-2.6 5.8-2.5 3.6 0 5.3 2 5.3 5.2v11.6h-4.3v-10zm7.6-11.1c0-1.4 1.2-2.6 2.6-2.6s2.6 1.2 2.6 2.6-1.2 2.6-2.6 2.6c-1.5-.1-2.6-1.2-2.6-2.6zm.4 4.7h4.3v16.4h-4.3V11.5zm15.6-.4c2.5-.1 4.9 1 6.5 2.9l-2.8 2.6c-.8-1.2-2.1-1.8-3.5-1.8-2.6 0-4.5 1.9-4.5 4.8s1.8 4.8 4.5 4.8c1.4 0 2.7-.6 3.5-1.8l2.8 2.6c-1.5 2-4 3.1-6.5 3-4.6.2-8.5-3.4-8.7-8v-.7c-.2-4.6 3.4-8.5 8-8.6.2.2.5.2.7.2zm9.1 11.6c1.6 1.4 3.6 2.2 5.7 2.3 1.9 0 2.8-.6 2.8-1.7s-1.4-1.6-3.3-1.9c-2.8-.5-6.5-1.2-6.5-5.1 0-2.8 2.4-5.2 6.7-5.2 2.4 0 4.7.8 6.6 2.2l-1.7 3c-1.3-1.2-3.1-1.9-4.9-1.9-1.6 0-2.6.6-2.6 1.5s1.3 1.4 3.1 1.8c2.8.5 6.6 1.3 6.6 5.4 0 3-2.5 5.3-7.1 5.3-2.7.1-5.3-.8-7.3-2.5l1.9-3.2z" class="st0"/></svg>