<svg xmlns="http://www.w3.org/2000/svg" id="Layer_1" viewBox="0 0 306.1 69.9" width="306.1" height="69.9"><style>.st0{fill:#ef3e33}.st1{fill:#fff}.st2{fill:#231f20}</style><path d="M5.7 4.4h156.1v61.1H5.7z" class="st0"/><path d="M26.7 57V12.9h18.7c4.6 0 8.2.4 10.3 1.1s3.9 2.3 5.1 4.3c1.3 2 1.9 4.4 1.9 6.9 0 3.3-1 6-2.9 8.2-2 2.3-4.9 3.6-8.7 4.1 1.9 1.1 3.5 2.4 4.8 3.6 1.3 1.4 2.9 3.8 5 7.2l5.4 8.5H55.7l-6.4-9.5c-2.3-3.4-3.9-5.5-4.6-6.5-.9-.9-1.8-1.5-2.6-1.9-1-.4-2.4-.5-4.5-.5h-1.8v18.3h-9v.3zm8.9-25.5h6.5c4.3 0 6.9-.1 8-.5 1-.4 1.9-1 2.5-1.9.6-.9.9-2 .9-3.3 0-1.5-.4-2.6-1.1-3.6-.8-.9-1.9-1.5-3.4-1.8-.8-.1-2.9-.1-6.5-.1h-6.9v11.2zm54.8 9.3v-7.4h19.2V51c-1.9 1.8-4.5 3.4-8.2 4.8s-7.2 2-10.8 2c-4.6 0-8.7-1-12.1-2.9-3.4-1.9-6-4.6-7.8-8.3-1.8-3.6-2.6-7.5-2.6-11.7 0-4.6 1-8.7 2.9-12.2s4.8-6.3 8.4-8.2c2.9-1.5 6.4-2.1 10.5-2.1 5.5 0 9.8 1.1 12.8 3.4s5 5.5 5.9 9.5L99.9 27c-.6-2.1-1.8-3.9-3.5-5.1-1.8-1.3-3.9-1.9-6.4-1.9-3.9 0-7 1.3-9.3 3.6-2.3 2.5-3.4 6.2-3.4 10.9 0 5.3 1.1 9.2 3.5 11.8 2.5 2.5 5.5 3.8 9.3 3.8 1.9 0 3.8-.4 5.6-1.1 1.9-.8 3.5-1.6 4.8-2.6v-5.6H90.4zm26.1-27.9h16.3c3.6 0 6.4.3 8.4.9 2.6.8 4.8 2.1 6.7 4 1.9 1.9 3.3 4.3 4.3 7.2 1 2.8 1.4 6.3 1.4 10.4 0 3.6-.5 6.8-1.4 9.4-1.1 3.3-2.6 5.8-4.8 7.8-1.5 1.5-3.6 2.6-6.3 3.5-2 .6-4.6.9-7.9.9h-16.7V12.9zm8.9 7.4v29.1h6.7c2.5 0 4.3-.1 5.4-.4 1.4-.4 2.6-1 3.6-1.9 1-.9 1.8-2.3 2.4-4.3.6-2 .9-4.6.9-8 0-3.4-.3-6-.9-7.8-.6-1.9-1.4-3.3-2.5-4.3s-2.5-1.8-4.1-2.1c-1.3-.3-3.6-.4-7.3-.4-.1.1-4.2.1-4.2.1z" class="st1"/><path d="M183.2 25.2l4 1.3c-.6 2.3-1.6 3.9-3 5s-3.2 1.6-5.4 1.6c-2.7 0-5-1-6.7-2.8-1.7-1.8-2.6-4.4-2.6-7.7 0-3.4.9-6 2.6-8s4.1-2.8 6.9-2.8c2.5 0 4.5.8 6.1 2.3 1 .9 1.6 2.2 2 3.8l-4.1 1c-.2-1.1-.8-1.9-1.5-2.5-.8-.6-1.7-1-2.8-1-1.5 0-2.7.5-3.7 1.6s-1.4 2.8-1.4 5.3c0 2.6.4 4.4 1.4 5.5 1 1.1 2.2 1.6 3.7 1.6 1.1 0 2-.3 2.8-1.1.9-.5 1.4-1.6 1.7-3.1zm10.7 7.6H190V17.9h3.7v2.2c.6-1 1.2-1.6 1.7-1.9.5-.3 1.1-.4 1.7-.4.9 0 1.7.2 2.6.8l-1.2 3.4c-.6-.4-1.3-.6-1.8-.6s-1 .1-1.4.4c-.4.3-.6.9-.9 1.6-.2.8-.3 2.5-.3 5v4.5h-.2zm15.4-4.8l3.9.6c-.5 1.4-1.3 2.5-2.4 3.2-1.1.8-2.5 1.1-4.1 1.1-2.6 0-4.5-.9-5.7-2.5-1-1.3-1.5-3-1.5-5.1 0-2.5.6-4.4 1.9-5.7 1.3-1.4 2.9-2 4.8-2 2.2 0 4 .8 5.2 2.2 1.2 1.4 1.8 3.7 1.8 6.7h-9.8c0 1.2.3 2 1 2.7s1.4 1 2.3 1c.6 0 1.1-.2 1.5-.5.6-.4.9-.9 1.1-1.7zm.2-4c0-1.2-.3-2-.9-2.6s-1.2-.9-2-.9c-.9 0-1.5.3-2.2 1-.5.6-.9 1.5-.9 2.6h5.9V24zm9.4-1.6l-3.6-.6c.4-1.4 1.1-2.5 2-3.1s2.5-1.1 4.3-1.1c1.7 0 3 .2 3.9.6s1.5 1 1.8 1.6c.3.6.5 1.8.5 3.6v4.5c0 1.3.1 2.3.2 2.9.1.6.3 1.3.8 1.9h-3.9c-.1-.2-.2-.6-.3-1.2-.1-.2-.1-.4-.1-.4-.6.6-1.4 1.2-2.2 1.5-.8.3-1.6.5-2.5.5-1.5 0-2.7-.4-3.6-1.3-.9-.9-1.3-1.8-1.3-3.1 0-.9.2-1.6.6-2.3s1-1.2 1.7-1.5c.8-.3 1.7-.6 3.1-.9 1.8-.3 3.1-.6 3.8-1v-.4c0-.8-.2-1.3-.5-1.6s-1.1-.4-2.2-.4c-.6 0-1.3.1-1.6.4-.3.2-.6.8-.9 1.4zm5.3 3.3c-.5.2-1.3.3-2.4.6-1.1.2-1.8.4-2.2.6-.5.3-.8.9-.8 1.4s.2 1 .6 1.4c.4.4 1 .6 1.5.6.8 0 1.4-.2 2-.6.4-.3.8-.8 1-1.3.1-.3.1-1 .1-1.9v-.8zm13.9-7.8V21h-2.7v6c0 1.2 0 1.9.1 2.2 0 .2.2.3.3.5.2.1.4.2.6.2.3 0 .9-.1 1.6-.3l.3 3c-.9.4-1.9.5-3.1.5-.8 0-1.3-.1-1.9-.3-.5-.2-1-.5-1.3-1-.2-.3-.4-.9-.5-1.5-.1-.4-.1-1.4-.1-2.8V21h-1.8v-3.1h1.8V15l3.9-2.3V18h2.8v-.1zm2.2-1.9v-3.7h3.9V16h-3.9zm0 16.8V17.9h3.9v14.8h-3.9v.1zm11.4 0l-5.9-14.9h4.1l2.8 7.5.8 2.5c.2-.6.3-1.1.4-1.3.1-.4.2-.9.4-1.3l2.8-7.5h4l-5.9 14.8h-3.4v.2zm19.8-4.8l3.9.6c-.5 1.4-1.3 2.5-2.4 3.2-1.1.8-2.5 1.1-4.1 1.1-2.6 0-4.5-.9-5.7-2.5-1-1.3-1.5-3-1.5-5.1 0-2.5.6-4.4 1.9-5.7 1.3-1.4 2.9-2 4.8-2 2.2 0 4 .8 5.2 2.2 1.2 1.4 1.8 3.7 1.8 6.7h-9.8c0 1.2.3 2 1 2.7.6.6 1.4 1 2.3 1 .6 0 1.1-.2 1.5-.5.6-.4.9-.9 1.1-1.7zm.2-4c0-1.2-.3-2-.9-2.6-.5-.5-1.2-.9-2-.9-.9 0-1.5.3-2.2 1-.5.6-.9 1.5-.9 2.6h5.9V24z" class="st2"/><path d="M170.2 36.2h7.5c1.7 0 3 .1 3.9.4 1.2.3 2.3 1 3.1 1.8.9.9 1.5 2 1.9 3.3.4 1.3.6 2.9.6 4.8 0 1.7-.2 3.1-.6 4.3-.5 1.5-1.3 2.7-2.2 3.6-.8.6-1.7 1.3-2.9 1.6-.9.3-2.2.4-3.7.4H170l.2-20.2zm4.1 3.5v13.6h3.1c1.2 0 1.9-.1 2.5-.2.6-.2 1.2-.4 1.6-.9.4-.4.8-1.1 1.1-1.9.3-.9.4-2.2.4-3.8s-.1-2.8-.4-3.7c-.3-.9-.6-1.5-1.2-1.9-.5-.4-1.2-.8-1.9-1-.5-.1-1.7-.2-3.3-.2h-1.9zm15.8.2v-3.7h3.9v3.7h-3.9zm0 16.8V41.9h3.9v14.8h-3.9zm11.1 0h-3.9V41.9h3.7v2.2c.6-1 1.2-1.6 1.7-1.9.5-.3 1.1-.4 1.7-.4.9 0 1.7.2 2.6.8l-1.2 3.4c-.6-.4-1.3-.6-1.8-.6s-1 .1-1.4.4c-.4.3-.6.9-.9 1.6-.2.8-.3 2.5-.3 5v4.4h-.2zm15.4-4.7l3.9.6c-.5 1.4-1.3 2.5-2.4 3.2-1.1.8-2.5 1.1-4.1 1.1-2.6 0-4.5-.9-5.7-2.5-1-1.3-1.5-3-1.5-5.1 0-2.5.6-4.4 1.9-5.7 1.3-1.4 2.9-2 4.8-2 2.2 0 4 .8 5.2 2.2s1.8 3.7 1.8 6.7h-9.8c0 1.2.3 2 1 2.7.6.6 1.4 1 2.3 1 .6 0 1.1-.2 1.5-.5.6-.4.9-1 1.1-1.7zm.3-3.9c0-1.2-.3-2-.9-2.6-.5-.5-1.2-.9-2-.9-.9 0-1.5.3-2.2 1-.5.6-.9 1.5-.9 2.6h5.9v-.1zm19.4-1.9l-3.9.6c-.1-.8-.4-1.4-.9-1.7-.4-.4-1.1-.5-1.8-.5-1 0-1.7.3-2.4 1s-.9 1.8-.9 3.3c0 1.7.3 3 .9 3.8s1.4 1.1 2.4 1.1c.8 0 1.4-.2 1.8-.6.4-.4.8-1.2 1-2.2l3.9.6c-.4 1.7-1.2 3.1-2.3 4-1.2.9-2.7 1.4-4.5 1.4-2.2 0-3.9-.6-5.2-2-1.3-1.4-1.9-3.2-1.9-5.7s.6-4.3 1.9-5.7 3-2 5.3-2c1.8 0 3.2.4 4.3 1.2 1.1.8 1.8 1.9 2.3 3.4zm9.1-4.3V45h-2.7v6c0 1.2 0 1.9.1 2.2 0 .2.2.3.3.5.2.1.4.2.6.2.3 0 .9-.1 1.6-.3l.3 3c-.9.4-1.9.5-3.1.5-.8 0-1.3-.1-1.9-.3-.5-.2-1-.5-1.3-1-.2-.3-.4-.9-.5-1.5-.1-.4-.1-1.4-.1-2.8V45h-1.8v-3.1h1.8V39l3.9-2.3V42h2.8v-.1zm2.2-2v-3.7h3.9v3.7h-3.9zm0 16.8V41.9h3.9v14.8h-3.9zM254 49c0-1.3.3-2.6 1-3.8s1.5-2.2 2.7-2.8c1.2-.6 2.5-1 4-1 2.3 0 4.1.8 5.5 2.2 1.4 1.4 2.2 3.3 2.2 5.5 0 2.3-.8 4.1-2.2 5.6s-3.2 2.2-5.5 2.2c-1.4 0-2.7-.3-3.9-1-1.2-.6-2.2-1.5-2.8-2.7-.6-.9-1-2.4-1-4.2zm4 .3c0 1.5.3 2.6 1.1 3.3.6.8 1.5 1.2 2.6 1.2 1 0 1.8-.4 2.6-1.2.6-.8 1.1-1.9 1.1-3.4 0-1.4-.3-2.6-1.1-3.3-.6-.8-1.5-1.2-2.6-1.2-1 0-1.8.4-2.6 1.2-.6.8-1.1 2-1.1 3.4zm27.3 7.4h-3.9v-7.5c0-1.6-.1-2.6-.2-3.1-.2-.4-.4-.9-.9-1.1-.3-.2-.9-.4-1.4-.4-.6 0-1.3.2-1.8.5s-.9.9-1.1 1.5c-.2.6-.3 1.7-.3 3.4v6.7h-3.9V41.9h3.7v2.2c1.3-1.7 2.9-2.5 4.8-2.5.9 0 1.6.1 2.4.4.8.3 1.3.8 1.6 1.2s.6 1.1.8 1.6c.1.6.2 1.5.2 2.6v9.3zm2-4.2l3.9-.6c.2.8.5 1.3 1 1.7.5.4 1.2.6 2.2.6 1 0 1.7-.2 2.3-.5.3-.2.5-.6.5-1.1 0-.3-.1-.5-.3-.8s-.6-.3-1.3-.5c-3.1-.6-5.2-1.3-6-1.9-1.2-.8-1.7-1.9-1.7-3.3 0-1.3.5-2.4 1.5-3.2s2.6-1.3 4.7-1.3c2 0 3.6.3 4.5 1 1 .6 1.6 1.6 2 2.9l-3.7.6c-.1-.5-.4-1-.9-1.3-.4-.3-1.1-.4-1.9-.4-1.1 0-1.7.1-2.3.4-.3.2-.4.4-.4.8 0 .3.1.5.4.8s1.6.6 3.7 1.1 3.6 1.1 4.4 1.7 1.2 1.6 1.2 2.9c0 1.4-.5 2.5-1.7 3.4-1.2 1-2.8 1.5-5.1 1.5-2 0-3.7-.4-4.7-1.2-1.2-.8-1.9-1.9-2.3-3.3z" class="st0"/></svg>