<svg xmlns="http://www.w3.org/2000/svg" id="Layer_1" viewBox="0 0 1041 420" width="1041" height="420"><style>.st0{fill:none;stroke:#000;stroke-width:3.27}.st1{fill:url(#SVGID_1_)}</style><path d="M65.7 45.5H51v38.4h3.3V48.5h11.4v-3zm117.6 0v3h11.4v35.4h3.3V45.5h-14.7z"/><path d="M613.5 367.1h381v-36.9m-940.2 0v36.9h376.2" class="st0"/><linearGradient id="SVGID_1_" x1="522.75" x2="522.75" y1="230.19" y2="247.35" gradientTransform="matrix(1 0 0 -1 0 422)" gradientUnits="userSpaceOnUse"><stop offset="0" stop-color="#414042"/><stop offset="1"/></linearGradient><path d="M51 174.8h943.5v17.4H51v-17.4z" class="st1"/><path d="M994.5 174.8h-3.3v-9.9h3.3v9.9zm-13.2 0h-3v-9.9h3v9.9zm-12.9 0h-3.3v-9.9h3.3v9.9zm-13.2 0h-3v-9.9h3v9.9zm-12.9 0H939v-9.9h3.3v9.9zm-13.2 0h-3.3v-9.9h3.3v9.9zm-12.9 0h-3.3v-9.9h3.3v9.9zm-13.2 0h-3.3v-9.9h3.3v9.9zm-12.9 0h-3.3v-9.9h3.3v9.9zm-13.2 0h-3.3v-9.9h3.3v9.9zm-12.9 0h-3.3v-9.9h3.3v9.9zm-13.2 0h-3.3v-9.9h3.3v9.9zm-12.9 0h-3.3v-9.9h3.3v9.9zm-13.2 0h-3.3v-9.9h3.3v9.9zm-12.9 0h-3.3v-9.9h3.3v9.9zm-13.2 0h-3.3v-9.9h3.3v9.9zm-12.9 0h-3.3v-9.9h3.3v9.9zm-13.2 0h-3.3v-9.9h3.3v9.9zm-13.2 0h-3v-9.9h3v9.9zm-12.9 0h-3.3v-9.9h3.3v9.9zm-13.2 0h-3v-9.9h3v9.9zm-12.9 0H717v-9.9h3.3v9.9zm-13.2 0h-3.3v-9.9h3.3v9.9zm-12.9 0h-3.3v-9.9h3.3v9.9zm-13.2 0h-3.3v-9.9h3.3v9.9zm-12.9 0h-3.3v-9.9h3.3v9.9zm-13.2 0h-3.3v-9.9h3.3v9.9zm-12.9 0h-3.3v-9.9h3.3v9.9zm-13.2 0h-3.3v-9.9h3.3v9.9zm-12.9 0h-3.3v-9.9h3.3v9.9zm-13.2 0h-3.3v-9.9h3.3v9.9zm-12.9 0h-3.3v-9.9h3.3v9.9zm-13.2 0h-3.3v-9.9h3.3v9.9zm-12.9 0h-3.3v-9.9h3.3v9.9zm-13.2 0h-3.3v-9.9h3.3v9.9zm-13.2 0h-3v-9.9h3v9.9zm-12.9 0h-3.3v-9.9h3.3v9.9zm-13.2 0h-3v-9.9h3v9.9zm-12.9 0H495v-9.9h3.3v9.9zm-13.2 0h-3.3v-9.9h3.3v9.9zm-12.9 0h-3.3v-9.9h3.3v9.9zm-13.2 0h-3.3v-9.9h3.3v9.9zm-12.9 0h-3.3v-9.9h3.3v9.9zm-13.2 0h-3.3v-9.9h3.3v9.9zm-12.9 0h-3.3v-9.9h3.3v9.9zm-13.2 0h-3.3v-9.9h3.3v9.9zm-12.9 0h-3.3v-9.9h3.3v9.9zm-13.2 0h-3.3v-9.9h3.3v9.9zm-12.9 0h-3.3v-9.9h3.3v9.9zm-13.2 0h-3.3v-9.9h3.3v9.9zm-12.9 0h-3.3v-9.9h3.3v9.9zm-13.2 0h-3.3v-9.9h3.3v9.9zm-13.2 0h-3v-9.9h3v9.9zm-12.9 0h-3.3v-9.9h3.3v9.9zm-13.2 0h-3v-9.9h3v9.9zm-12.9 0H273v-9.9h3.3v9.9zm-13.2 0h-3.3v-9.9h3.3v9.9zm-12.9 0h-3.3v-9.9h3.3v9.9zm-13.2 0h-3.3v-9.9h3.3v9.9zm-12.9 0h-3.3v-9.9h3.3v9.9zm-13.2 0h-3.3v-9.9h3.3v9.9zm-12.9 0h-3.3V155h3.3v19.8zm-13.2 0h-3.3V155h3.3v19.8zm-12.9 0h-3.3V155h3.3v19.8zm-13.2 0h-3.3V155h3.3v19.8zm-12.9 0h-3.3V155h3.3v19.8zm-13.2 0h-3.3V155h3.3v19.8zm-12.9 0h-3.3V155h3.3v19.8zm-13.2 0h-3.3V155h3.3v19.8zm-13.2 0h-3V155h3v19.8zm-12.9 0h-3.3V155h3.3v19.8zm-13.2 0h-3V155h3v19.8zm-12.9 0H51V155h3.3v19.8z"/><path d="M54.3 206.9v36.9h406.2m126 0h408v-36.9m-940.2 60v36.9h386.1m161.4 0h392.7v-36.9" class="st0"/><path d="M57.3 106.7H51v38.7h3.3V110h3v-3.3zm134.4 0v3.3h3v35.4h3.3v-38.7h-6.3zM76.8 35.6l-5.7 5.1-3-3.6 9-7.5h4.5v29.7h-5.1V35.6h.3zm29.4-5.7h9.9c1.5 0 2.7 0 4.2.3s2.4.6 3.6 1.5c.9.6 1.8 1.5 2.4 2.7.6 1.2.9 2.4.9 4.2 0 1.8-.3 3.3-.9 4.5-.6 1.2-1.5 2.1-2.7 2.7-1.2.6-2.4 1.2-3.9 1.2-1.5.3-3 .3-4.5.3h-3.9v12.3h-5.4V29.9h.3zm8.7 12.9h2.4c.9 0 1.5-.3 2.1-.6s1.2-.6 1.8-1.2c.3-.6.6-1.5.6-2.4s-.3-1.8-.6-2.1-.9-.9-1.5-1.2-1.2-.6-2.1-.6h-6v8.4h3.3v-.3zm15.9-10.2c0-.9.3-1.5.9-2.1.6-.6 1.5-.9 2.4-.9s1.8.3 2.4.9.9 1.2.9 2.1c0 .9-.3 1.5-.9 2.1s-1.5.9-2.4.9-1.8-.3-2.4-.9c-.6-.6-.9-1.2-.9-2.1zm.9 6.9h4.8v20.1h-5.1V39.5h.3zm24.6 6c-.6-.6-1.2-1.2-1.8-1.5-.6-.3-1.2-.6-2.1-.6s-1.8.3-2.4.6c-.6.3-1.5.9-1.8 1.2-.6.6-.9 1.2-1.2 1.8s-.3 1.5-.3 2.4 0 1.5.3 2.4c.3.6.6 1.5 1.2 1.8.6.6 1.2.9 1.8 1.2s1.5.6 2.4.6 1.5-.3 2.1-.6c.6-.3 1.2-.9 1.8-1.5l3.3 3.6c-.6.6-1.2.9-1.8 1.2s-1.2.6-2.1.9c-.6.3-1.2.3-1.8.6h-1.5c-1.5 0-3-.3-4.2-.9-1.2-.6-2.4-1.2-3.6-2.1-.9-.9-1.8-2.1-2.4-3.3-.6-1.2-.9-2.7-.9-4.2s.3-3 .9-4.2c.6-1.2 1.5-2.4 2.4-3.3.9-.9 2.1-1.5 3.6-2.1 1.2-.6 2.7-.9 4.2-.9 1.2 0 2.7.3 3.9.6 1.2.6 2.4 1.2 3.3 2.4l-3.3 3.9zm18.9 11.4c-.9 1.2-1.8 2.1-3 2.4-1.2.6-2.4.9-3.6.9-.9 0-1.8 0-2.7-.3-.9-.3-1.8-.6-2.4-1.2l-1.8-1.8c-.3-.9-.6-1.5-.6-2.7 0-1.2.3-2.1.6-2.7.3-.9.9-1.5 1.5-1.8.6-.6 1.5-.9 2.4-1.2.9-.3 1.8-.6 2.7-.6.9-.3 1.8-.3 2.7-.3h3.9V47c0-1.2-.3-2.1-1.2-2.7-.9-.6-2.1-.9-3.3-.9s-2.1.3-3 .6c-.9.3-1.8.9-2.4 1.5l-2.7-2.7c1.2-1.2 2.4-2.1 3.9-2.4 1.5-.6 3-.9 4.5-.9s2.7.3 3.6.6c.9.3 1.8.6 2.4 1.2.6.6 1.2 1.2 1.5 1.8.3.6.6 1.2.9 2.1.3.6.3 1.2.3 2.1v13.5h-4.5v-3.9h.3zm-.3-6.3h-3.6c-.9 0-1.8.3-2.4.3-.9.3-1.5.6-2.1.9-.3.6-.3 1.2-.3 1.8 0 .6 0 .9.3 1.2l.9.9c.3.3.6.3 1.2.6s.9 0 1.2 0c1.8 0 3-.3 3.9-1.2.9-.9 1.2-2.1 1.2-3.3v-1.2h-.3zm297.3 180.6l-5.7 5.1-3-3.6 9-7.5h4.5v29.7h-5.1v-23.7h.3zm29.4-6h5.4v29.7h-5.4v-29.7zm11.1 9.6h4.8v3.3c.6-.9 1.2-1.8 2.1-2.7.9-.6 2.4-1.2 3.9-1.2 1.2 0 2.4.3 3.3.6.9.3 1.8.9 2.4 1.8.6.6.9 1.5 1.2 2.4.3.9.3 1.8.3 3v12.6h-5.1v-12c0-.6-.3-1.2-.3-1.8s-.6-1.2-1.2-1.5c-.6-.3-1.2-.6-2.1-.6-.9 0-1.5 0-2.1.3-.6.3-.9.6-1.5 1.2-.3.6-.6.9-.9 1.5-.3.6-.3 1.2-.3 1.8v11.1h-5.1v-19.8h.6zm38.1 6c-.6-.6-1.2-1.2-1.8-1.5-.6-.3-1.2-.6-2.1-.6s-1.8.3-2.4.6c-.6.3-1.5.9-1.8 1.2-.6.6-.9 1.2-1.2 1.8s-.3 1.5-.3 2.4 0 1.5.3 2.4c.3.9.6 1.5 1.2 1.8.6.6 1.2.9 1.8 1.2.6.3 1.5.6 2.4.6s1.5-.3 2.1-.6c.6-.3 1.2-.9 1.8-1.5l3.3 3.6c-.6.6-1.2.9-1.8 1.2-.6.3-1.2.6-2.1.9-.6.3-1.2.3-1.8.6h-1.5c-1.5 0-3-.3-4.2-.9-1.2-.6-2.4-1.2-3.6-2.1-.9-.9-1.8-2.1-2.4-3.3-.6-1.2-.9-2.7-.9-4.2s.3-3 .9-4.2c.6-1.2 1.5-2.4 2.4-3.3.9-.9 2.1-1.5 3.6-2.1 1.2-.6 2.7-.9 4.2-.9 1.2 0 2.7.3 3.9.6 1.2.6 2.4 1.2 3.3 2.4l-3.3 3.9zm11.4-3.3c.6-.9 1.2-1.5 2.1-2.4.9-.6 2.4-.9 3.9-.9 1.2 0 2.4.3 3.3.6.9.3 1.8.9 2.4 1.8.6.6.9 1.5 1.2 2.4.3.9.3 1.8.3 3v12.6h-5.1v-12c0-.6-.3-1.2-.3-1.8-.3-.6-.6-1.2-1.2-1.5-.6-.3-1.2-.6-2.1-.6-.9 0-1.5 0-2.1.3-.6.3-.9.6-1.5 1.2s-.6.9-.9 1.5c-.3.6-.3 1.2-.3 1.8v11.1h-5.1v-31.5h5.1v14.4h.3zm-91.8 50.4l-7.2 11.1c.3-.3.6-.3 1.2-.3h1.5c1.2 0 2.4.3 3.6.9 1.2.6 2.1 1.2 2.7 2.1.9.9 1.5 1.8 1.8 3 .3 1.2.6 2.4.6 3.6 0 1.5-.3 3-.9 4.2-.6 1.2-1.2 2.4-2.1 3.3-.9.9-2.1 1.5-3.3 2.1-1.2.6-2.7.6-4.2.6s-3-.3-4.2-.6-2.4-1.2-3.3-2.1-1.8-1.8-2.1-3.3c-.6-1.2-.9-2.7-.9-4.2s.3-3 .9-4.2c.6-1.2 1.2-2.7 2.1-3.9l7.5-12h6.3v-.3zm-11.1 19.8c0 .9 0 1.5.3 2.1.3.6.6 1.2 1.2 1.8.6.6 1.2.9 1.8 1.2.6.3 1.5.3 2.1.3s1.5 0 2.1-.3c.6-.3 1.2-.6 1.8-1.2.6-.6.9-1.2 1.2-1.8.3-.6.3-1.5.3-2.1 0-.6 0-1.5-.3-2.1-.3-.6-.6-1.2-1.2-1.8-.6-.6-1.2-.9-1.8-1.2-.6-.3-1.5-.3-2.1-.3s-1.5 0-2.1.3c-.6.3-1.2.6-1.8 1.2-.6.6-.9 1.2-1.2 1.8-.3.6-.3 1.5-.3 2.1zm33.3-19.8h9.9c1.5 0 2.7 0 4.2.3s2.4.6 3.6 1.5c.9.6 1.8 1.5 2.4 2.7.6 1.2.9 2.4.9 4.2 0 1.8-.3 3.3-.9 4.5-.6 1.2-1.5 2.1-2.7 2.7s-2.4 1.2-3.9 1.2-3 .3-4.5.3h-3.9v12.3h-5.4v-29.7h.3zm8.4 12.9h2.4c.9 0 1.5-.3 2.1-.6.6-.3 1.2-.6 1.8-1.2.3-.6.6-1.2.6-2.4 0-.9-.3-1.8-.6-2.1s-.9-.9-1.5-1.2-1.2-.6-2.1-.6h-6v8.4h3.3v-.3zm16.2-10.2c0-.9.3-1.5.9-2.1.6-.6 1.5-.9 2.4-.9s1.8.3 2.4.9c.6.6.9 1.2.9 2.1 0 .9-.3 1.5-.9 2.1-.6.6-1.5.9-2.4.9s-1.8-.3-2.4-.9-.9-1.5-.9-2.1zm.6 6.6h5.1v20.1h-5.1v-20.1zm24.6 6.3c-.6-.6-1.2-1.2-1.8-1.5-.6-.3-1.2-.6-2.1-.6-.9 0-1.8.3-2.4.6-.6.3-1.5.9-1.8 1.2-.6.6-.9 1.2-1.2 1.8-.3.6-.3 1.5-.3 2.4 0 .9 0 1.5.3 2.4.3.6.6 1.5 1.2 1.8.6.6 1.2.9 1.8 1.2.6.3 1.5.6 2.4.6.9 0 1.5-.3 2.1-.6.6-.3 1.2-.9 1.8-1.5l3.3 3.6c-.6.6-1.2.9-1.8 1.2-.6.3-1.2.6-2.1.9-.9.3-1.2.3-1.8.6h-1.5c-1.5 0-3-.3-4.2-.9-1.2-.6-2.4-1.2-3.6-2.1-.9-.9-1.8-2.1-2.4-3.3-.6-1.2-.9-2.7-.9-4.2s.3-3 .9-4.2c.6-1.2 1.5-2.4 2.4-3.3.9-.9 2.1-1.5 3.6-2.1 1.2-.6 2.7-.9 4.2-.9 1.2 0 2.7.3 3.9.6 1.2.6 2.4 1.2 3.3 2.4l-3.3 3.9zm19.2 11.1c-.9 1.2-1.8 2.1-3 2.4-1.2.6-2.4.9-3.6.9-.9 0-1.8 0-2.7-.3-.9-.3-1.8-.6-2.4-1.2l-1.8-1.8c-.3-.9-.6-1.5-.6-2.7 0-1.2.3-2.1.6-2.7.3-.6.9-1.5 1.5-1.8.6-.6 1.5-.9 2.4-1.2.9-.3 1.8-.6 2.7-.6.9-.3 1.8-.3 2.7-.3h3.9v-.6c0-1.2-.3-2.1-1.2-2.7-.9-.6-2.1-.9-3.3-.9-1.2 0-2.1.3-3 .6s-1.8.9-2.4 1.5l-2.7-2.7c1.2-1.2 2.4-2.1 3.9-2.4 1.5-.6 3-.9 4.5-.9s2.7.3 3.6.6c.9.3 1.8.6 2.4 1.2.6.6 1.2 1.2 1.5 1.8.3.6.6 1.2.9 2.1.3.6.3 1.2.3 2.1v13.5h-4.5v-3.9h.3zm-.3-6h-3.6c-.9 0-1.8.3-2.4.3-.9.3-1.5.6-2.1.9s-.9.9-.9 1.8c0 .6 0 .9.3 1.2l.9.9c.3.3.6.3 1.2.6h1.2c1.8 0 3-.3 3.9-1.2.9-.9 1.2-2.1 1.2-3.3v-1.2h.3zm21-5.7c-.9-1.5-2.4-2.1-3.9-2.1-.6 0-1.2.3-2.1.6-.6.3-.9.9-.9 1.5s.3 1.2.9 1.2c.6.3 1.2.6 2.1.6.9.3 1.8.3 2.7.6l2.7.9c.9.3 1.5.9 2.1 1.8.6.9.9 1.8.9 3s-.3 2.1-.9 3c-.6.9-1.2 1.5-2.1 2.1-.9.6-1.8.9-2.7 1.2-.9.3-2.1.3-3 .3-1.5 0-3-.3-4.2-.6-1.2-.3-2.4-1.2-3.6-2.4l3.3-3c.6.6 1.2 1.2 2.1 1.8.6.6 1.5.6 2.7.6h1.2c.3 0 .9-.3 1.2-.3.3-.3.6-.3.9-.6s.3-.6.3-.9c0-.6-.3-1.2-.9-1.5-.6-.3-1.2-.6-2.1-.9-.9-.3-1.8-.3-2.7-.6l-2.7-.9c-.9-.3-1.5-.9-2.1-1.8-.6-.9-.9-1.8-.9-3s.3-2.1.6-3c.6-.9 1.2-1.5 1.8-2.1.9-.6 1.5-.9 2.7-1.2.9-.3 2.1-.3 3-.3 1.2 0 2.7.3 3.9.6 1.2.6 2.4 1.2 3.3 2.4l-3.6 3zm-139.8 48.9h17.4v3.9l-10.2 21.6h-5.1l10.5-21.3h-12.6v-4.2zm21.9 21l9.9-9.6.9-.9.9-.9c.3-.3.6-.6.6-1.2.3-.3.3-.9.3-1.2 0-.6 0-.9-.3-1.5-.3-.3-.6-.9-.9-.9-.3-.3-.6-.6-1.2-.6-.3-.3-.9-.3-1.5-.3-1.2 0-2.1.3-2.7.9-.6.6-1.2 1.5-1.2 2.4l-4.5-.3c0-1.2.3-2.1.9-3 .6-.9 1.2-1.8 1.8-2.4.6-.6 1.5-1.2 2.7-1.5.9-.3 2.1-.6 3.3-.6s2.1.3 3.3.3c.9.3 1.8.6 2.7 1.2s1.2 1.2 1.8 2.4c.6 1.2.6 2.1.6 3.3 0 1.5-.3 3-1.2 4.2-.6 1.2-1.8 2.4-2.7 3.3l-7.8 7.2h11.7v3.9h-17.1v-4.2h-.3zm32.7-21h8.7c1.2 0 2.4 0 3.6.3 1.2.3 2.1.6 3 1.2.9.6 1.5 1.2 2.1 2.4.6.9.9 2.1.9 3.6s-.3 3-.9 3.9c-.6.9-1.2 1.8-2.1 2.4s-2.1.9-3.3 1.2-2.4.3-3.9.3h-3.3v10.5h-4.5v-25.8h-.3zm7.5 11.1h2.1c.6 0 1.2-.3 1.8-.3.6-.3 1.2-.6 1.5-1.2s.6-1.2.6-2.1-.3-1.5-.6-1.8c-.3-.6-.9-.9-1.2-1.2-.3-.3-1.2-.3-1.8-.6s-1.2 0-1.8 0h-3.3v7.2h2.7zm13.2 5.7c0-1.5.3-2.7.6-3.6s1.2-2.1 2.1-3c.9-.9 1.8-1.5 3-1.8 1.2-.3 2.4-.6 3.6-.6 1.2 0 2.4.3 3.6.6 1.2.3 2.1.9 3 1.8.9.9 1.5 1.8 2.1 3s.6 2.4.6 3.6-.3 2.7-.6 3.6c-.6 1.2-1.2 2.1-2.1 3-.9.9-1.8 1.5-3 1.8-1.2.3-2.4.6-3.6.6-1.2 0-2.4-.3-3.6-.6-1.2-.3-2.1-.9-3-1.8-.9-.9-1.5-1.8-2.1-3-.3-.9-.6-2.1-.6-3.6zm4.5 0c0 .6 0 1.2.3 1.8l.9 1.8c.3.6.9.9 1.5 1.2s1.2.3 2.1.3 1.5 0 2.1-.3c.6-.3 1.2-.6 1.5-1.2.3-.6.9-.9.9-1.8s.3-1.2.3-1.8c0-.6 0-1.2-.3-1.8l-.9-1.8c-.3-.6-.9-.9-1.5-1.2-.6-.3-1.2-.3-2.1-.3s-1.5 0-2.1.3c-.6.3-1.2.6-1.5 1.2s-.9.9-.9 1.8-.3 1.2-.3 1.8zm18-14.4c0-.6.3-1.2.9-1.8.6-.6 1.2-.9 2.1-.9.9 0 1.5.3 2.1.6s.9 1.2.9 1.8c0 .6-.3 1.5-.9 1.8-.6.6-1.2.6-2.1.6-.9 0-1.5-.3-2.1-.9-.6-.6-.9-.6-.9-1.2zm.6 5.7h4.2v17.4h-4.2v-17.4zm9.3 0h4.2v2.7c.3-.9.9-1.5 1.8-2.4.9-.9 2.1-.9 3.3-.9 1.2 0 2.1.3 3 .6s1.5.9 2.1 1.5c.6.6.9 1.2 1.2 2.1s.3 1.8.3 2.7V377h-4.2v-10.2c0-.6-.3-1.2-.3-1.8-.3-.6-.6-.9-.9-1.2-.3-.3-.9-.6-1.8-.6-.6 0-1.2 0-1.8.3-.6.3-.9.6-1.2.9-.3.3-.6.9-.6 1.5s-.3 1.2-.3 1.8v9.3h-4.2v-17.1h-.6zm18.6 3.6v-3.6h3.6v-5.1h4.2v5.1h4.8v3.6h-4.8v7.5c0 .9.3 1.5.6 2.1.3.6.9.9 1.8.9h1.2c.6 0 .9-.3 1.2-.3v3.6c-.6.3-.9.3-1.8.3h-1.8c-1.2 0-2.1 0-2.7-.3-.6-.3-1.2-.6-1.8-1.2l-.9-1.8c-.3-.9-.3-1.8-.3-2.7v-8.1h-3.3zm25.2 1.2c-.9-1.2-2.1-1.8-3.3-1.8-.6 0-1.2 0-1.8.3-.6.3-.9.9-.9 1.5s.3.9.6 1.2c.6.3.9.3 1.8.6.6.3 1.5.3 2.4.6s1.5.6 2.4.9 1.2.9 1.8 1.5c.6.6.6 1.5.6 2.7 0 .9-.3 1.8-.6 2.7-.3.9-.9 1.2-1.8 1.8-.6.3-1.5.6-2.4.9s-1.8.3-2.7.3c-1.2 0-2.7-.3-3.6-.6-.9-.3-2.1-1.2-3-2.1l3-2.7c.6.6 1.2 1.2 1.8 1.5.6.3 1.5.6 2.4.6h.9c.3 0 .6-.3.9-.3.3-.3.6-.3.6-.6.3-.3.3-.6.3-.9 0-.6-.3-.9-.6-1.2-.6-.3-.9-.6-1.8-.6-.6-.3-1.5-.3-2.4-.6-.9-.3-1.5-.3-2.4-.9-.6-.3-1.2-.9-1.8-1.5-.6-.6-.6-1.5-.6-2.7 0-.9.3-1.8.6-2.4s.9-1.2 1.5-1.8c.6-.6 1.5-.9 2.1-.9.9-.3 1.8-.3 2.7-.3 1.2 0 2.4.3 3.3.6.9.3 2.1 1.2 2.7 2.1l-2.7 2.1zM77.7 99.2l-3.6 3.3-1.8-2.1 5.7-4.8h3v18.9h-3.3V99.2zm10.2 12l7.5-7.2.6-.6c.3-.3.3-.6.6-.9.3-.3.3-.6.6-.9 0-.3.3-.6.3-.9s0-.6-.3-1.2-.3-.6-.6-.9c-.3-.3-.6-.3-.9-.6-.3 0-.6-.3-1.2-.3-.9 0-1.5.3-2.1.6-.6.6-.9 1.2-.9 1.8l-3.3-.3c0-.9.3-1.8.6-2.4.3-.6.9-1.2 1.5-1.8.6-.6 1.2-.9 1.8-.9.6-.3 1.5-.3 2.4-.3s1.8 0 2.4.3c.6.3 1.5.6 2.1.9s.9.9 1.2 1.8c.3.6.6 1.5.6 2.4 0 1.2-.3 2.1-.9 3-.6.9-1.2 1.8-2.1 2.4l-6 5.4h9v3H87.9v-2.4zm24.6-15.6h6.3c.9 0 1.8 0 2.7.3.9.3 1.5.6 2.4.9.6.3 1.2.9 1.5 1.8.3.6.6 1.5.6 2.7 0 1.2-.3 2.1-.6 3-.3.6-.9 1.2-1.8 1.8-.6.3-1.5.6-2.4.9s-1.8.3-3 .3h-2.4v7.2h-3.3V95.6zm5.4 8.1h1.5c.6 0 .9 0 1.5-.3.3-.3.9-.3 1.2-.9.3-.3.3-.9.3-1.5s0-1.2-.3-1.5l-.9-.9c-.3-.3-.9-.3-1.2-.3h-3.9v5.4h1.8zm10.2 4.5c0-.9.3-2.1.6-2.7.3-.9.9-1.5 1.5-2.1.6-.6 1.5-1.2 2.1-1.5.6-.3 1.8-.6 2.7-.6.9 0 1.8.3 2.7.6s1.5.9 2.1 1.5c.6.6 1.2 1.2 1.5 2.1s.6 1.8.6 2.7c0 .9-.3 2.1-.6 2.7-.3.9-.9 1.5-1.5 2.1-.6.6-1.5 1.2-2.1 1.5-.9.3-1.8.6-2.7.6s-1.8-.3-2.7-.6c-.9-.3-1.5-.9-2.1-1.5-.6-.6-1.2-1.2-1.5-2.1-.3-.9-.6-1.8-.6-2.7zm3.3 0c0 .6 0 .9.3 1.5s.3.9.9 1.2c.3.3.6.6 1.2.9.6.3.9.3 1.5.3s1.2 0 1.5-.3c.6-.3.9-.6 1.2-.9.3-.3.6-.9.9-1.2.3-.6.3-.9.3-1.5s0-.9-.3-1.5-.3-.9-.9-1.2c-.3-.3-.6-.6-1.2-.9-.6-.3-.9-.3-1.5-.3s-1.2 0-1.5.3c-.6.3-.9.6-1.2.9s-.6.9-.9 1.2c-.3.3-.3.9-.3 1.5zm13.5-11.1c0-.6.3-.9.6-1.5.3-.3.9-.6 1.5-.6s1.2.3 1.5.6.6.9.6 1.5-.3.9-.6 1.5c-.3.3-.9.6-1.5.6s-1.2-.3-1.5-.6-.6-.9-.6-1.5zm.3 4.5h3.3v12.9h-3.3v-12.9zm6.9 0h3v2.1c.3-.6.9-1.2 1.5-1.8.6-.6 1.5-.6 2.7-.6.9 0 1.5 0 2.1.3s1.2.6 1.5 1.2c.3.6.6.9.9 1.5.3.6.3 1.2.3 1.8v8.4h-3.3v-7.8c0-.3 0-.9-.3-1.2-.3-.3-.3-.6-.6-.9-.3-.3-.9-.3-1.2-.3-.6 0-.9 0-1.5.3-.3.3-.6.3-.9.6-.3.3-.3.6-.6 1.2s-.3.9-.3 1.2v6.9h-3.3v-12.9zm14.1 2.7v-2.7h2.7v-3.9h3.3v3.9h3.3v2.7h-3.6v5.7c0 .6 0 1.2.3 1.5.3.3.6.6 1.5.6h.9c.3 0 .6-.3.9-.3v2.7c-.3.3-.9.3-1.2.3h-1.2c-.9 0-1.5 0-2.1-.3-.6-.3-.9-.6-1.2-.9s-.6-.9-.6-1.5-.3-1.2-.3-2.1v-6h-2.7v.3zm18.9.9c-.6-.9-1.5-1.2-2.4-1.2-.3 0-.9 0-1.2.3-.3.3-.6.6-.6 1.2 0 .3.3.6.6.9.3.3.9.3 1.2.6.3.3 1.2.3 1.8.3.6 0 1.2.3 1.8.6.6.3.9.6 1.2 1.2.3.6.6 1.2.6 2.1 0 .9-.3 1.5-.6 2.1-.3.6-.9.9-1.2 1.2-.6.3-1.2.6-1.8.6s-1.2.3-2.1.3c-.9 0-1.8 0-2.7-.3-.9-.3-1.5-.9-2.4-1.5l2.1-2.1c.3.6.9.9 1.2 1.2.6.3 1.2.3 1.8.3h.6s.6 0 .6-.3c.3 0 .3-.3.6-.6s.3-.3.3-.6-.3-.9-.6-.9c-.3-.3-.9-.3-1.2-.6-.3-.3-1.2-.3-1.8-.3-.6 0-1.2-.3-1.8-.6-.6-.3-.9-.6-1.2-1.2s-.6-1.2-.6-1.8c0-.6 0-1.2.3-1.8.3-.6.6-.9 1.2-1.2.6-.3.9-.6 1.8-.9.6-.3 1.2-.3 1.8-.3.9 0 1.8 0 2.7.3.9.3 1.5.9 2.1 1.5l-2.1 1.5z"/></svg>