<svg xmlns="http://www.w3.org/2000/svg" id="Icons" width="1008" height="306" viewBox="0 0 1008 306"><style>.st0{fill:#bfd730}.st1{fill:#504fa1}.st2{fill:none;stroke:#fff;stroke-width:2.46;stroke-linecap:round;stroke-linejoin:round;stroke-dasharray:5.998,5.998}.st3{fill:#fff}.st4{fill:#231f20}.st5{fill:#d8d9da}.st6{fill:#fffcd5}.st7{fill:#c7536f}.st8{fill:#f15a29}.st9{fill:none;stroke:#f15a29;stroke-width:3.56;stroke-miterlimit:10}.st10{fill:#be1e2d}.st11{fill:none;stroke:#be1e2d;stroke-width:3.56;stroke-linecap:round;stroke-linejoin:round}.st12{fill:none;stroke:#f15a29;stroke-width:2.37;stroke-miterlimit:10}.st13{fill:#f58229}.st14{fill:#bcbec0}.st15{fill:#1b75bc}.st16{fill:#ffcb05}</style><path d="M706.6 10.6h288v288h-288z" class="st0"/><circle cx="848.2" cy="144.8" r="102.4" class="st1"/><circle cx="848.2" cy="144.8" r="102.4" class="st1"/><path d="M962.1 262H734.2l11.6-117.2h204.8z" class="st1"/><circle cx="848.2" cy="144.8" r="89.7" class="st2"/><circle cx="848.2" cy="144.8" r="81.9" class="st3"/><path d="M848.2 93.1L838 144.8h20.4zm-15.4-20.9c1.1-.2 2.1.5 2.4 1.5l2 9.6c.2 1.1-.5 2.1-1.5 2.4-1.1.2-2.1-.5-2.4-1.5l-2-9.6c-.3-1.1.4-2.1 1.5-2.4zM818 77c1-.4 2.2 0 2.6 1l4 8.9c.4 1 0 2.2-1 2.6-1 .4-2.2 0-2.6-1l-4-8.9c-.4-1 0-2.1 1-2.6zm-13.4 7.8c.9-.6 2.1-.4 2.8.4l5.7 7.9c.6.9.4 2.1-.4 2.8-.9.6-2.1.4-2.8-.4l-5.7-7.9c-.7-.9-.5-2.2.4-2.8zm-11.5 10.3c.7-.8 2-.9 2.8-.1l7.3 6.5c.8.7.9 2 .1 2.8-.7.8-2 .9-2.8.1l-7.3-6.5c-.8-.7-.9-1.9-.1-2.8zm-9.1 12.6c.5-1 1.8-1.3 2.7-.7l8.5 4.9c1 .5 1.3 1.8.7 2.7-.5 1-1.8 1.3-2.7.7l-8.5-4.9c-1-.6-1.3-1.8-.7-2.7zm-6.3 14.1c.3-1 1.5-1.6 2.5-1.3l9.3 3c1 .3 1.6 1.5 1.3 2.5-.3 1-1.5 1.6-2.5 1.3l-9.3-3c-1.1-.3-1.7-1.4-1.3-2.5zm-3.2 15.2c.1-1.1 1.1-1.9 2.2-1.8l9.7 1c1.1.1 1.9 1.1 1.8 2.2-.1 1.1-1.1 1.9-2.2 1.8l-9.7-1c-1.2-.1-2-1.1-1.8-2.2zm-.1 15.5c-.1-1.1.7-2.1 1.8-2.2l9.7-1c1.1-.1 2.1.7 2.2 1.8.1 1.1-.7 2.1-1.8 2.2l-9.7 1c-1.1.1-2-.7-2.2-1.8zm3.3 15.2c-.3-1 .2-2.2 1.3-2.5l9.3-3c1-.3 2.2.2 2.5 1.3.3 1-.2 2.2-1.3 2.5l-9.3 3c-1.1.3-2.2-.3-2.5-1.3zm6.3 14.1c-.5-1-.2-2.2.7-2.7l8.5-4.9c1-.5 2.2-.2 2.7.7.5 1 .2 2.2-.7 2.7l-8.5 4.9c-1 .6-2.2.3-2.7-.7zm9.1 12.6c-.7-.8-.7-2.1.1-2.8l7.3-6.5c.8-.7 2.1-.7 2.8.1.7.8.7 2.1-.1 2.8l-7.3 6.5c-.8.7-2.1.7-2.8-.1zm11.1 8.3c-.9-.6-1.1-1.9-.4-2.8l5.8-7.9c.6-.9 1.9-1.1 2.8-.4.9.6 1.1 1.9.4 2.8l-5.8 7.9c-.6.9-1.9 1.1-2.8.4zm13.8 9.8c-1-.4-1.5-1.6-1-2.6l4-8.9c.4-1 1.6-1.5 2.6-1 1 .4 1.5 1.6 1 2.6l-4 8.9c-.4 1-1.6 1.4-2.6 1zm14.8 4.8c-1.1-.2-1.8-1.3-1.5-2.4l2-9.6c.2-1.1 1.3-1.8 2.4-1.5 1.1.2 1.8 1.3 1.5 2.4l-2 9.6c-.3 1-1.4 1.7-2.4 1.5zm15.4 1.6c-1.1 0-2-.9-2-2v-9.8c0-1.1.9-2 2-2s2 .9 2 2v9.8c0 1.1-.9 2-2 2zm15.4-1.6c-1.1.2-2.1-.5-2.4-1.5l-2-9.6c-.2-1.1.5-2.1 1.5-2.4 1.1-.2 2.1.5 2.4 1.5l2 9.6c.2 1.1-.4 2.1-1.5 2.4zm14.7-4.8c-1 .4-2.2 0-2.6-1l-4-8.9c-.4-1 0-2.2 1-2.6 1-.4 2.2 0 2.6 1l4 8.9c.5.9 0 2.1-1 2.6zm13.4-7.8c-.9.6-2.1.4-2.8-.4l-5.7-7.9c-.6-.9-.4-2.1.4-2.8.9-.6 2.1-.4 2.8.4l5.7 7.9c.7.9.5 2.2-.4 2.8zm11.6-10.3c-.7.8-2 .9-2.8.1l-7.3-6.5c-.8-.7-.9-2-.1-2.8.7-.8 2-.9 2.8-.1l7.3 6.5c.7.7.8 1.9.1 2.8zm9.1-12.6c-.5 1-1.8 1.3-2.7.7l-8.5-4.9c-1-.5-1.3-1.8-.7-2.7.5-1 1.8-1.3 2.7-.7l8.5 4.9c.9.5 1.2 1.8.7 2.7zm6.3-14.1c-.3 1-1.5 1.6-2.5 1.3l-9.3-3c-1-.3-1.6-1.5-1.3-2.5.3-1 1.5-1.6 2.5-1.3l9.3 3c1.1.3 1.6 1.4 1.3 2.5zm3.2-15.2c-.1 1.1-1.1 1.9-2.2 1.8l-9.7-1c-1.1-.1-1.9-1.1-1.8-2.2.1-1.1 1.1-1.9 2.2-1.8l9.7 1c1.1.1 1.9 1.1 1.8 2.2zm0-15.5c.1 1.1-.7 2.1-1.8 2.2l-9.7 1c-1.1.1-2.1-.7-2.2-1.8-.1-1.1.7-2.1 1.8-2.2l9.7-1c1.1-.1 2.1.7 2.2 1.8zm-3.2-15.2c.3 1-.2 2.2-1.3 2.5l-9.3 3c-1 .3-2.2-.2-2.5-1.3-.3-1 .2-2.2 1.3-2.5l9.3-3c1-.3 2.1.3 2.5 1.3zm-6.3-14.1c.5 1 .2 2.2-.7 2.7l-8.5 4.9c-1 .5-2.2.2-2.7-.7-.5-1-.2-2.2.7-2.7l8.5-4.9c.9-.6 2.1-.3 2.7.7zm-9.1-12.6c.7.8.7 2.1-.1 2.8l-7.3 6.5c-.8.7-2.1.7-2.8-.1-.7-.8-.7-2.1.1-2.8l7.3-6.5c.8-.7 2-.7 2.8.1zm-11.5-10.3c.9.6 1.1 1.9.4 2.8l-5.7 7.9c-.6.9-1.9 1.1-2.8.4-.9-.6-1.1-1.9-.4-2.8l5.7-7.9c.6-.9 1.9-1.1 2.8-.4zM878.3 77c1 .4 1.5 1.6 1 2.6l-4 8.9c-.4 1-1.6 1.5-2.6 1-1-.4-1.5-1.6-1-2.6l4-8.9c.4-1 1.6-1.4 2.6-1zm-14.7-4.8c1.1.2 1.8 1.3 1.5 2.4l-2 9.6c-.2 1.1-1.3 1.8-2.4 1.5-1.1-.2-1.8-1.3-1.5-2.4l2-9.6c.3-1 1.3-1.7 2.4-1.5z" class="st4"/><path d="M928.7 236.1h13.8c4.1 0 7.4 3.3 7.4 7.4 0 4.1-3.3 7.4-7.4 7.4h-13.8c-4.1 0-7.4-3.3-7.4-7.4 0-4.1 3.3-7.4 7.4-7.4z" class="st3"/><path d="M929.6 238.4h12c2.8 0 5.1 2.3 5.1 5.1s-2.3 5.1-5.1 5.1h-12c-2.8 0-5.1-2.3-5.1-5.1 0-2.9 2.3-5.1 5.1-5.1z" class="st5"/><circle cx="941.7" cy="243.5" r="5.1" class="st1"/><circle cx="848.2" cy="77.5" r="6.7" class="st4"/><circle cx="848.2" cy="77.5" r="3.7" class="st3"/><path d="M848.2 125.3s14 11.8 14 19.5-6.3 14-14 14-14-6.3-14-14 14-19.5 14-19.5z" class="st5"/><path d="M360 10.6h288v288H360z" class="st6"/><path d="M410.1 251.1l7.3 7.3c-3.5-1.1-6.2-3.8-7.3-7.3zm171.5-189l-4.9-4.9c1.8 1.5 3.5 3.1 4.9 4.9z" class="st7"/><path d="M409.6 82.1v162.2h63.5V82.1h-63.5zm35.5 89c0-2.4 1.9-4.3 4.3-4.3s5.3 4.3 5.3 4.3-2.9 4.3-5.3 4.3-4.3-1.9-4.3-4.3zm0-15c0-2.4 1.9-4.3 4.3-4.3s5.3 4.3 5.3 4.3-2.9 4.3-5.3 4.3-4.3-2-4.3-4.3zm0-15c0-2.4 1.9-4.3 4.3-4.3s5.3 4.3 5.3 4.3-2.9 4.3-5.3 4.3c-2.4-.1-4.3-2-4.3-4.3zm0-15c0-2.4 1.9-4.3 4.3-4.3s5.3 4.3 5.3 4.3-2.9 4.3-5.3 4.3c-2.4-.1-4.3-2-4.3-4.3z" class="st8"/><circle cx="588.5" cy="82.1" r="8.5" class="st8"/><path d="M538.6 100.7l-.3 103.6" class="st9"/><path d="M418.1 50.3h145.3c13.8 0 25 11.2 25 25v13.5c0 13.8-11.2 25-25 25H418.1c-4.7 0-8.5-3.8-8.5-8.5V58.8c0-4.7 3.8-8.5 8.5-8.5zm0 179.4h166.4c4.7 0 8.5 3.8 8.5 8.5v12.1c0 4.7-3.8 8.5-8.5 8.5H418.1c-4.7 0-8.5-3.8-8.5-8.5v-12.1c0-4.7 3.8-8.5 8.5-8.5z" class="st10"/><path d="M520.5 216.8h36.2v8.7c0 1-.8 1.8-1.8 1.8h-32.5c-1 0-1.8-.8-1.8-1.8l-.1-8.7z" class="st8"/><path d="M481.9 161.8c-.4 31.3 24.7 57.1 56 57.5 31.3.4 57.1-24.7 57.5-56v-1.5" class="st11"/><path d="M533.7 205.4l-4.9-18.6 4.9-18.7h9.8l4.9 18.7-4.9 18.6z" class="st12"/><path d="M529.7 205.4l-8.9-18.6 8.9-18.7h17.8l8.9 18.7-8.9 18.6z" class="st12"/><path d="M12 10.6h288v288H12z" class="st13"/><path d="M252.6 69.3l-76 76c22.8 34.4 13.4 80.7-20.9 103.5s-80.7 13.4-103.5-21-13.4-80.7 20.9-103.5c25-16.6 57.6-16.6 82.6 0l76-76c5.8-5.7 15.2-5.6 20.9.2s5.7 15 0 20.8z" class="st14"/><ellipse cx="114.4" cy="186.6" class="st3" rx="66" ry="66" transform="rotate(-45.001 114.362 186.584)"/><path d="M193.1 79.3l35.1-35.1c7.9-7.9 20.7-7.9 28.6 0 7.9 7.9 7.9 20.7 0 28.6l-35.1 35.1-28.6-28.6z" class="st15"/><ellipse cx="76.7" cy="186.6" class="st16" rx="13.3" ry="13.3" transform="rotate(-45.001 76.664 186.579)"/><ellipse cx="114.4" cy="148.9" class="st16" rx="13.3" ry="13.3" transform="rotate(-45.001 114.378 148.877)"/><ellipse cx="114.4" cy="224.3" class="st16" rx="13.3" ry="13.3" transform="rotate(-45.001 114.36 224.29)"/><ellipse cx="152.1" cy="186.6" class="st16" rx="13.3" ry="13.3" transform="rotate(-45.001 152.07 186.6)"/></svg>