<svg xmlns="http://www.w3.org/2000/svg" id="Icons" width="981" height="288" viewBox="0 0 981 288"><style>.st0{fill:#2e3192}.st1{fill:#9ccde4}.st2{fill:#fff}.st3,.st4{fill:none;stroke-width:3;stroke-linecap:round}.st3{stroke-linejoin:round;stroke-dasharray:6.0294,6.0294;stroke:#fff}.st4{stroke:#231f20;stroke-miterlimit:10}.st5{fill:#231f20}.st6{fill:#fbb040}.st7{fill:#6d6e71}.st8{fill:#bcbec0}.st10,.st9{fill:none;stroke-miterlimit:10}.st9{stroke-linecap:round;stroke:#fff;stroke-width:4}.st10{stroke:#bcbec0;stroke-width:5.12}.st11{fill:#d5cbb9}.st12{fill:#594a42}.st13{fill:#9b8579}.st14{fill:#d3c8b5}.st15,.st16{fill:none;stroke:#fff;stroke-width:4;stroke-miterlimit:10}.st16{stroke-width:2;stroke-linecap:round}</style><path d="M693 0h288v288H693z" class="st0"/><circle cx="837" cy="188.3" r="75.7" class="st1"/><path d="M923.6 273.2H750.3l10.9-84.9h151.5zm-77.2-182h-18.9l-4.5 28h28z" class="st1"/><path d="M950.5 85H723.4l15.9 12.4h195.3z" class="st1"/><circle cx="837" cy="188.3" r="57.4" class="st2"/><circle cx="837" cy="188.3" r="63.3" class="st3"/><path d="M787 188.3h13.4m-11.7-13l13 3.5m-8-15.5l11.6 6.7m-3.6-17.1l9.4 9.5m.9-17.4l6.7 11.6M824 140l3.5 13m9.5-14.7v13.4m12.9-11.7l-3.5 13m15.6-8l-6.8 11.6m17.1-3.7l-9.5 9.5m17.4.9l-11.6 6.7m16.6 5.3l-12.9 3.5m14.6 9.5h-13.4m11.7 12.9l-12.9-3.5m7.9 15.5l-11.6-6.7m3.7 17.1l-9.5-9.5m-.8 17.4l-6.8-11.6m-5.3 16.6l-3.5-12.9m-9.4 14.6v-13.4" class="st4"/><circle cx="837" cy="188.3" r="3.8" class="st5"/><path d="M857.7 167.6L837 188.3" class="st4"/><path d="M929.9 82.2l-58.3-22.1c-.8 5-5.5 8.5-10.5 7.7-5-.8-8.5-5.5-7.7-10.5.2-1.3.7-2.5 1.3-3.5L797 31.9c-3 7.9-11.9 11.9-19.8 8.9s-11.9-11.9-8.9-19.8l-16.5-6.2v67.4h60.4c-1.6-5.5 1.5-11.3 7-12.9 5.5-1.6 11.3 1.5 12.9 7 .6 1.9.6 4 0 6h97.8zM787.3 68.8c-3.4 0-6.1-2.7-6.1-6.1s2.7-6.1 6.1-6.1c3.4 0 6.1 2.7 6.1 6.1.1 3.3-2.7 6.1-6.1 6.1z" class="st6"/><path d="M0 0h288v288H0z" class="st7"/><path d="M185.4 61.6h-82.8L89.3 252.7h109.4z" class="st8"/><path d="M87.6 252.7h112.8" class="st9"/><path d="M116.5 81.5c0-2.2-3.9-3.9-3.9-3.9s-3.9 1.8-3.9 3.9c0 2.2 1.8 3.9 3.9 3.9 2.1 0 3.9-1.7 3.9-3.9zm15.7 0c0-2.2-3.9-3.9-3.9-3.9s-3.9 1.8-3.9 3.9c0 2.2 1.8 3.9 3.9 3.9 2.1 0 3.9-1.7 3.9-3.9zm15.7 0c0-2.2-3.9-3.9-3.9-3.9s-3.9 1.8-3.9 3.9c0 2.2 1.8 3.9 3.9 3.9s3.9-1.7 3.9-3.9zm15.8 0c0-2.2-3.9-3.9-3.9-3.9s-3.9 1.8-3.9 3.9c0 2.2 1.8 3.9 3.9 3.9s3.9-1.7 3.9-3.9zm15.7 0c0-2.2-3.9-3.9-3.9-3.9s-3.9 1.8-3.9 3.9c0 2.2 1.8 3.9 3.9 3.9s3.9-1.7 3.9-3.9zm-55.1 7.9c0-2.2-3.9-3.9-3.9-3.9s-3.9 1.8-3.9 3.9c0 2.2 1.8 3.9 3.9 3.9 2.2 0 3.9-1.8 3.9-3.9zm15.8 0c0-2.2-3.9-3.9-3.9-3.9s-3.9 1.8-3.9 3.9c0 2.2 1.8 3.9 3.9 3.9s3.9-1.8 3.9-3.9zm15.7 0c0-2.2-3.9-3.9-3.9-3.9s-3.9 1.8-3.9 3.9c0 2.2 1.8 3.9 3.9 3.9s3.9-1.8 3.9-3.9zm15.7 0c0-2.2-3.9-3.9-3.9-3.9s-3.9 1.8-3.9 3.9c0 2.2 1.8 3.9 3.9 3.9s3.9-1.8 3.9-3.9zm-55 7.8c0-2.2-3.9-3.9-3.9-3.9s-3.9 1.8-3.9 3.9c0 2.2 1.8 3.9 3.9 3.9 2.1.1 3.9-1.7 3.9-3.9zm15.7 0c0-2.2-3.9-3.9-3.9-3.9s-3.9 1.8-3.9 3.9c0 2.2 1.8 3.9 3.9 3.9 2.1.1 3.9-1.7 3.9-3.9zm15.7 0c0-2.2-3.9-3.9-3.9-3.9s-3.9 1.8-3.9 3.9c0 2.2 1.8 3.9 3.9 3.9s3.9-1.7 3.9-3.9zm15.8 0c0-2.2-3.9-3.9-3.9-3.9s-3.9 1.8-3.9 3.9c0 2.2 1.8 3.9 3.9 3.9s3.9-1.7 3.9-3.9zm15.7 0c0-2.2-3.9-3.9-3.9-3.9s-3.9 1.8-3.9 3.9c0 2.2 1.8 3.9 3.9 3.9s3.9-1.7 3.9-3.9zm-55.1 7.9c0-2.2-3.9-3.9-3.9-3.9s-3.9 1.8-3.9 3.9c0 2.2 1.8 3.9 3.9 3.9 2.2 0 3.9-1.7 3.9-3.9zm15.8 0c0-2.2-3.9-3.9-3.9-3.9s-3.9 1.8-3.9 3.9c0 2.2 1.8 3.9 3.9 3.9s3.9-1.7 3.9-3.9zm15.7 0c0-2.2-3.9-3.9-3.9-3.9s-3.9 1.8-3.9 3.9c0 2.2 1.8 3.9 3.9 3.9s3.9-1.7 3.9-3.9zm15.7 0c0-2.2-3.9-3.9-3.9-3.9s-3.9 1.8-3.9 3.9c0 2.2 1.8 3.9 3.9 3.9s3.9-1.7 3.9-3.9zm-55 7.9c0-2.2-3.9-3.9-3.9-3.9s-3.9 1.8-3.9 3.9c0 2.2 1.8 3.9 3.9 3.9 2.1 0 3.9-1.7 3.9-3.9zm15.7 0c0-2.2-3.9-3.9-3.9-3.9s-3.9 1.8-3.9 3.9c0 2.2 1.8 3.9 3.9 3.9 2.1 0 3.9-1.7 3.9-3.9zm15.7 0c0-2.2-3.9-3.9-3.9-3.9s-3.9 1.8-3.9 3.9c0 2.2 1.8 3.9 3.9 3.9s3.9-1.7 3.9-3.9zm15.8 0c0-2.2-3.9-3.9-3.9-3.9s-3.9 1.8-3.9 3.9c0 2.2 1.8 3.9 3.9 3.9s3.9-1.7 3.9-3.9zm15.7 0c0-2.2-3.9-3.9-3.9-3.9s-3.9 1.8-3.9 3.9c0 2.2 1.8 3.9 3.9 3.9s3.9-1.7 3.9-3.9zm-55.1 7.8c0-2.2-3.9-3.9-3.9-3.9s-3.9 1.8-3.9 3.9c0 2.2 1.8 3.9 3.9 3.9 2.2.1 3.9-1.7 3.9-3.9zm15.8 0c0-2.2-3.9-3.9-3.9-3.9s-3.9 1.8-3.9 3.9c0 2.2 1.8 3.9 3.9 3.9s3.9-1.7 3.9-3.9zm15.7 0c0-2.2-3.9-3.9-3.9-3.9s-3.9 1.8-3.9 3.9c0 2.2 1.8 3.9 3.9 3.9s3.9-1.7 3.9-3.9zm15.7 0c0-2.2-3.9-3.9-3.9-3.9s-3.9 1.8-3.9 3.9c0 2.2 1.8 3.9 3.9 3.9s3.9-1.7 3.9-3.9zm-55 7.9c0-2.2-3.9-3.9-3.9-3.9s-3.9 1.8-3.9 3.9c0 2.2 1.8 3.9 3.9 3.9 2.1 0 3.9-1.7 3.9-3.9zm15.7 0c0-2.2-3.9-3.9-3.9-3.9s-3.9 1.8-3.9 3.9c0 2.2 1.8 3.9 3.9 3.9 2.1 0 3.9-1.7 3.9-3.9zm15.7 0c0-2.2-3.9-3.9-3.9-3.9s-3.9 1.8-3.9 3.9c0 2.2 1.8 3.9 3.9 3.9s3.9-1.7 3.9-3.9zm15.8 0c0-2.2-3.9-3.9-3.9-3.9s-3.9 1.8-3.9 3.9c0 2.2 1.8 3.9 3.9 3.9s3.9-1.7 3.9-3.9zm15.7 0c0-2.2-3.9-3.9-3.9-3.9s-3.9 1.8-3.9 3.9c0 2.2 1.8 3.9 3.9 3.9s3.9-1.7 3.9-3.9zm-55.1 7.9c0-2.2-3.9-3.9-3.9-3.9s-3.9 1.8-3.9 3.9c0 2.2 1.8 3.9 3.9 3.9 2.2 0 3.9-1.8 3.9-3.9zm15.8 0c0-2.2-3.9-3.9-3.9-3.9s-3.9 1.8-3.9 3.9c0 2.2 1.8 3.9 3.9 3.9s3.9-1.8 3.9-3.9zm15.7 0c0-2.2-3.9-3.9-3.9-3.9s-3.9 1.8-3.9 3.9c0 2.2 1.8 3.9 3.9 3.9s3.9-1.8 3.9-3.9zm15.7 0c0-2.2-3.9-3.9-3.9-3.9s-3.9 1.8-3.9 3.9c0 2.2 1.8 3.9 3.9 3.9s3.9-1.8 3.9-3.9zm-55 7.8c0-2.2-3.9-3.9-3.9-3.9s-3.9 1.8-3.9 3.9c0 2.2 1.8 3.9 3.9 3.9 2.1.1 3.9-1.7 3.9-3.9zm15.7 0c0-2.2-3.9-3.9-3.9-3.9s-3.9 1.8-3.9 3.9c0 2.2 1.8 3.9 3.9 3.9 2.1.1 3.9-1.7 3.9-3.9zm15.7 0c0-2.2-3.9-3.9-3.9-3.9s-3.9 1.8-3.9 3.9c0 2.2 1.8 3.9 3.9 3.9s3.9-1.7 3.9-3.9zm15.8 0c0-2.2-3.9-3.9-3.9-3.9s-3.9 1.8-3.9 3.9c0 2.2 1.8 3.9 3.9 3.9s3.9-1.7 3.9-3.9zm15.7 0c0-2.2-3.9-3.9-3.9-3.9s-3.9 1.8-3.9 3.9c0 2.2 1.8 3.9 3.9 3.9s3.9-1.7 3.9-3.9zm-55.1 7.9c0-2.2-3.9-3.9-3.9-3.9s-3.9 1.8-3.9 3.9c0 2.2 1.8 3.9 3.9 3.9 2.2 0 3.9-1.7 3.9-3.9zm15.8 0c0-2.2-3.9-3.9-3.9-3.9s-3.9 1.8-3.9 3.9c0 2.2 1.8 3.9 3.9 3.9s3.9-1.7 3.9-3.9zm15.7 0c0-2.2-3.9-3.9-3.9-3.9s-3.9 1.8-3.9 3.9c0 2.2 1.8 3.9 3.9 3.9s3.9-1.7 3.9-3.9zm15.7 0c0-2.2-3.9-3.9-3.9-3.9s-3.9 1.8-3.9 3.9c0 2.2 1.8 3.9 3.9 3.9s3.9-1.7 3.9-3.9zm-55 7.8c0-2.2-3.9-3.9-3.9-3.9s-3.9 1.8-3.9 3.9c0 2.2 1.8 3.9 3.9 3.9 2.1.1 3.9-1.7 3.9-3.9zm15.7 0c0-2.2-3.9-3.9-3.9-3.9s-3.9 1.8-3.9 3.9c0 2.2 1.8 3.9 3.9 3.9 2.1.1 3.9-1.7 3.9-3.9zm15.7 0c0-2.2-3.9-3.9-3.9-3.9s-3.9 1.8-3.9 3.9c0 2.2 1.8 3.9 3.9 3.9s3.9-1.7 3.9-3.9zm15.8 0c0-2.2-3.9-3.9-3.9-3.9s-3.9 1.8-3.9 3.9c0 2.2 1.8 3.9 3.9 3.9s3.9-1.7 3.9-3.9zm15.7 0c0-2.2-3.9-3.9-3.9-3.9s-3.9 1.8-3.9 3.9c0 2.2 1.8 3.9 3.9 3.9s3.9-1.7 3.9-3.9zm-55.1 7.9c0-2.2-3.9-3.9-3.9-3.9s-3.9 1.8-3.9 3.9c0 2.2 1.8 3.9 3.9 3.9 2.2 0 3.9-1.7 3.9-3.9zm15.8 0c0-2.2-3.9-3.9-3.9-3.9s-3.9 1.8-3.9 3.9c0 2.2 1.8 3.9 3.9 3.9s3.9-1.7 3.9-3.9zm15.7 0c0-2.2-3.9-3.9-3.9-3.9s-3.9 1.8-3.9 3.9c0 2.2 1.8 3.9 3.9 3.9s3.9-1.7 3.9-3.9zm15.7 0c0-2.2-3.9-3.9-3.9-3.9s-3.9 1.8-3.9 3.9c0 2.2 1.8 3.9 3.9 3.9s3.9-1.7 3.9-3.9zm-55 7.9c0-2.2-3.9-3.9-3.9-3.9s-3.9 1.8-3.9 3.9c0 2.2 1.8 3.9 3.9 3.9 2.1 0 3.9-1.7 3.9-3.9zm15.7 0c0-2.2-3.9-3.9-3.9-3.9s-3.9 1.8-3.9 3.9c0 2.2 1.8 3.9 3.9 3.9 2.1 0 3.9-1.7 3.9-3.9zm15.7 0c0-2.2-3.9-3.9-3.9-3.9s-3.9 1.8-3.9 3.9c0 2.2 1.8 3.9 3.9 3.9s3.9-1.7 3.9-3.9zm15.8 0c0-2.2-3.9-3.9-3.9-3.9s-3.9 1.8-3.9 3.9c0 2.2 1.8 3.9 3.9 3.9s3.9-1.7 3.9-3.9zm15.7 0c0-2.2-3.9-3.9-3.9-3.9s-3.9 1.8-3.9 3.9c0 2.2 1.8 3.9 3.9 3.9s3.9-1.7 3.9-3.9zm-55.1 7.8c0-2.2-3.9-3.9-3.9-3.9s-3.9 1.8-3.9 3.9c0 2.2 1.8 3.9 3.9 3.9 2.2.1 3.9-1.7 3.9-3.9zm15.8 0c0-2.2-3.9-3.9-3.9-3.9s-3.9 1.8-3.9 3.9c0 2.2 1.8 3.9 3.9 3.9s3.9-1.7 3.9-3.9zm15.7 0c0-2.2-3.9-3.9-3.9-3.9s-3.9 1.8-3.9 3.9c0 2.2 1.8 3.9 3.9 3.9s3.9-1.7 3.9-3.9zm15.7 0c0-2.2-3.9-3.9-3.9-3.9s-3.9 1.8-3.9 3.9c0 2.2 1.8 3.9 3.9 3.9s3.9-1.7 3.9-3.9zm-55 7.9c0-2.2-3.9-3.9-3.9-3.9s-3.9 1.8-3.9 3.9c0 2.2 1.8 3.9 3.9 3.9 2.1 0 3.9-1.7 3.9-3.9zm15.7 0c0-2.2-3.9-3.9-3.9-3.9s-3.9 1.8-3.9 3.9c0 2.2 1.8 3.9 3.9 3.9 2.1 0 3.9-1.7 3.9-3.9zm15.7 0c0-2.2-3.9-3.9-3.9-3.9s-3.9 1.8-3.9 3.9c0 2.2 1.8 3.9 3.9 3.9s3.9-1.7 3.9-3.9zm15.8 0c0-2.2-3.9-3.9-3.9-3.9s-3.9 1.8-3.9 3.9c0 2.2 1.8 3.9 3.9 3.9s3.9-1.7 3.9-3.9zm15.7 0c0-2.2-3.9-3.9-3.9-3.9s-3.9 1.8-3.9 3.9c0 2.2 1.8 3.9 3.9 3.9s3.9-1.7 3.9-3.9zm-55.1 7.9c0-2.2-3.9-3.9-3.9-3.9s-3.9 1.8-3.9 3.9c0 2.2 1.8 3.9 3.9 3.9 2.2 0 3.9-1.8 3.9-3.9zm15.8 0c0-2.2-3.9-3.9-3.9-3.9s-3.9 1.8-3.9 3.9c0 2.2 1.8 3.9 3.9 3.9s3.9-1.8 3.9-3.9zm15.7 0c0-2.2-3.9-3.9-3.9-3.9s-3.9 1.8-3.9 3.9c0 2.2 1.8 3.9 3.9 3.9s3.9-1.8 3.9-3.9zm15.7 0c0-2.2-3.9-3.9-3.9-3.9s-3.9 1.8-3.9 3.9c0 2.2 1.8 3.9 3.9 3.9s3.9-1.8 3.9-3.9zm-55 7.8c0-2.2-3.9-3.9-3.9-3.9s-3.9 1.8-3.9 3.9c0 2.2 1.8 3.9 3.9 3.9 2.1.1 3.9-1.7 3.9-3.9zm15.7 0c0-2.2-3.9-3.9-3.9-3.9s-3.9 1.8-3.9 3.9c0 2.2 1.8 3.9 3.9 3.9 2.1.1 3.9-1.7 3.9-3.9zm15.7 0c0-2.2-3.9-3.9-3.9-3.9s-3.9 1.8-3.9 3.9c0 2.2 1.8 3.9 3.9 3.9s3.9-1.7 3.9-3.9zm15.8 0c0-2.2-3.9-3.9-3.9-3.9s-3.9 1.8-3.9 3.9c0 2.2 1.8 3.9 3.9 3.9s3.9-1.7 3.9-3.9zm15.7 0c0-2.2-3.9-3.9-3.9-3.9s-3.9 1.8-3.9 3.9c0 2.2 1.8 3.9 3.9 3.9s3.9-1.7 3.9-3.9zm-55.1 7.9c0-2.2-3.9-3.9-3.9-3.9s-3.9 1.8-3.9 3.9c0 2.2 1.8 3.9 3.9 3.9 2.2 0 3.9-1.7 3.9-3.9zm15.8 0c0-2.2-3.9-3.9-3.9-3.9s-3.9 1.8-3.9 3.9c0 2.2 1.8 3.9 3.9 3.9s3.9-1.7 3.9-3.9zm15.7 0c0-2.2-3.9-3.9-3.9-3.9s-3.9 1.8-3.9 3.9c0 2.2 1.8 3.9 3.9 3.9s3.9-1.7 3.9-3.9zm15.7 0c0-2.2-3.9-3.9-3.9-3.9s-3.9 1.8-3.9 3.9c0 2.2 1.8 3.9 3.9 3.9s3.9-1.7 3.9-3.9zm-55 7.9c0-2.2-3.9-3.9-3.9-3.9s-3.9 1.8-3.9 3.9c0 2.2 1.8 3.9 3.9 3.9 2.1 0 3.9-1.8 3.9-3.9zm15.7 0c0-2.2-3.9-3.9-3.9-3.9s-3.9 1.8-3.9 3.9c0 2.2 1.8 3.9 3.9 3.9 2.1 0 3.9-1.8 3.9-3.9zm15.7 0c0-2.2-3.9-3.9-3.9-3.9s-3.9 1.8-3.9 3.9c0 2.2 1.8 3.9 3.9 3.9s3.9-1.8 3.9-3.9zm15.8 0c0-2.2-3.9-3.9-3.9-3.9s-3.9 1.8-3.9 3.9c0 2.2 1.8 3.9 3.9 3.9s3.9-1.8 3.9-3.9zm15.7 0c0-2.2-3.9-3.9-3.9-3.9s-3.9 1.8-3.9 3.9c0 2.2 1.8 3.9 3.9 3.9s3.9-1.8 3.9-3.9zm-55.1 7.8c0-2.2-3.9-3.9-3.9-3.9s-3.9 1.8-3.9 3.9c0 2.2 1.8 3.9 3.9 3.9 2.2.1 3.9-1.7 3.9-3.9zm15.8 0c0-2.2-3.9-3.9-3.9-3.9s-3.9 1.8-3.9 3.9c0 2.2 1.8 3.9 3.9 3.9s3.9-1.7 3.9-3.9zm15.7 0c0-2.2-3.9-3.9-3.9-3.9s-3.9 1.8-3.9 3.9c0 2.2 1.8 3.9 3.9 3.9s3.9-1.7 3.9-3.9zm15.7 0c0-2.2-3.9-3.9-3.9-3.9s-3.9 1.8-3.9 3.9c0 2.2 1.8 3.9 3.9 3.9s3.9-1.7 3.9-3.9z" class="st2"/><path d="M120.8 35.3h46.4c4.6 0 8.2 3.7 8.2 8.2V61c0 4.6-3.7 8.2-8.2 8.2h-46.4c-4.6 0-8.2-3.7-8.2-8.2V43.6c-.1-4.6 3.6-8.3 8.2-8.3z" class="st10"/><path d="M346.5 0h288v288h-288z" class="st11"/><path d="M401.2 211.4h161.1c4 0 7.2 3.2 7.2 7.2v19c0 4-3.2 7.2-7.2 7.2H401.2v-33.4z" class="st12"/><path d="M401 73.1h33.4v155H401z" class="st12"/><path d="M469 112.1h50.9v8.9H469z" class="st13"/><circle cx="518" cy="173.5" r="12.1" class="st2"/><circle cx="518" cy="173.5" r="8.5" class="st14"/><path d="M473.1 157.3h42.6c1.3 0 2.3 1 2.3 2.3v25.8c0 10.6-8.6 19.1-19.1 19.1H490c-10.6 0-19.1-8.6-19.1-19.1v-25.8c-.1-1.2 1-2.3 2.2-2.3zm-9.4 48.9h61.4v3.6h-61.4z" class="st2"/><path d="M594.6 121.1l-70.8 3.2v5.8l70.8 3.3z" class="st12"/><path d="M461.6 118.7h65.6v17h-65.6z" class="st12"/><path d="M486.6 133.8h15.7v8.9h-15.7zm-78.2-87.2H549c4 0 7.2 3.2 7.2 7.2v52.3c0 4-3.2 7.2-7.2 7.2H401.2V53.8c0-4 3.2-7.2 7.2-7.2z" class="st12"/><circle cx="522.3" cy="80" r="9.8" class="st2"/><path d="M539.5 80c0 .9-.7 1.7-1.7 1.7h-6.7c-.9 0-1.7-.7-1.7-1.7 0-.9.7-1.7 1.7-1.7h6.7c1 0 1.7.8 1.7 1.7z" class="st2"/><circle cx="447.8" cy="78.3" r="20.5" class="st15"/><circle cx="447.8" cy="78.3" r="3.3" class="st2"/><path d="M457.7 68.8l-9.9 9.9" class="st16"/><circle cx="594.6" cy="127.2" r="6.2" class="st12"/></svg>