<svg xmlns="http://www.w3.org/2000/svg" xmlns:xlink="http://www.w3.org/1999/xlink" id="Layer_1" width="887" height="240" viewBox="0 0 887 240"><style>.st0{fill:#fff}.st1{fill:#00aeef}.st2{fill:#00683f}.st3,.st4{fill:none;stroke:#94c947;stroke-width:16;stroke-linecap:square}.st3{stroke-miterlimit:10}.st4{stroke-linejoin:bevel}.st5{stroke:#00673e;stroke-linecap:round;stroke-miterlimit:10}.st5,.st6,.st7{fill:none;stroke-width:16}.st6{stroke-linejoin:bevel;stroke:#00673e;stroke-linecap:round}.st7{stroke:#94c948;stroke-linecap:square;stroke-miterlimit:10}.st8{fill:#94c948}.st10,.st9{fill:none;stroke-miterlimit:10}.st9{stroke:#94c948;stroke-width:5.65}.st10{stroke:#00aeef;stroke-width:2}</style><symbol id="Anchor" viewBox="-1.5 -1.5 3.1 3.1"><path d="M-1.3-1.3h2.6v2.6h-2.6v-2.6z" class="st0"/><path d="M1-1v2h-2v-2h2m.5-.5h-3.1v3.1h3.1v-3.1z" class="st1"/></symbol><path d="M440 39.9l84.3 98.1H355.4L440 39.9m0-25.8L318.5 154.8h243L440 14.1z" class="st2"/><path d="M440 14.1l121.5 141h-243L440 14.1m.6-.9h-1.5l-121.5 141 .6 1.5h243l.6-1.5-121.2-141z" class="st1"/><path d="M826.7 219.5H664.1" class="st3"/><path d="M826.7 219.5H664.1" class="st4"/><path d="M522.3 219.6H359.7" class="st5"/><path d="M521.3 219.6H360.7" class="st6"/><path d="M218 219.5H55.7" class="st7"/><path d="M743.9 14.1l121.5 141h-243l121.5-141M756.8 3H731L609.5 144l12.9 27.9h243l12.9-27.9L756.8 3z" class="st8"/><path d="M743.9 14.1l121.5 141h-243l121.5-141m.9-.9h-1.5l-121.5 141 .6 1.5h243l.6-1.5c.3 0-121.2-140.7-121.2-141z" class="st1"/><path d="M257.3 165L135.8 24.3 14 165h243.3z" class="st9"/><path d="M135.8 24.3L257.3 165h-243L135.8 24.3m.6-.6h-1.5l-121.5 141 .6 1.2h243l.6-1.5L136.4 23.7z" class="st1"/><use width="3.1" height="3.1" x="-1.5" y="-1.5" overflow="visible" transform="matrix(3 0 0 3 136.262 24.81)" xlink:href="#Anchor"/><use width="3.1" height="3.1" x="-1.5" y="-1.5" overflow="visible" transform="matrix(3 0 0 3 14.702 165.66)" xlink:href="#Anchor"/><use width="3.1" height="3.1" x="-1.5" y="-1.5" overflow="visible" transform="matrix(3 0 0 3 257.792 165.66)" xlink:href="#Anchor"/><use width="3.1" height="3.1" x="-1.5" y="-1.5" overflow="visible" transform="matrix(3 0 0 3 318.902 155.4)" xlink:href="#Anchor"/><use width="3.1" height="3.1" x="-1.5" y="-1.5" overflow="visible" transform="matrix(3 0 0 3 440.432 14.58)" xlink:href="#Anchor"/><use width="3.1" height="3.1" x="-1.5" y="-1.5" overflow="visible" transform="matrix(3 0 0 3 561.992 155.4)" xlink:href="#Anchor"/><use width="3.1" height="3.1" x="-1.5" y="-1.5" overflow="visible" transform="matrix(3 0 0 3 623.102 155.4)" xlink:href="#Anchor"/><use width="3.1" height="3.1" x="-1.5" y="-1.5" overflow="visible" transform="matrix(3 0 0 3 744.632 14.58)" xlink:href="#Anchor"/><use width="3.1" height="3.1" x="-1.5" y="-1.5" overflow="visible" transform="matrix(3 0 0 3 866.162 155.4)" xlink:href="#Anchor"/><path d="M47.8 219.5h177.5" class="st10"/><use id="XMLID_1_" width="3.1" height="3.1" x="-1.5" y="-1.5" overflow="visible" transform="matrix(3.2255 0 0 -3.2255 47.843 219.5)" xlink:href="#Anchor"/><use id="XMLID_2_" width="3.1" height="3.1" x="-1.5" y="-1.5" overflow="visible" transform="matrix(3.2255 0 0 -3.2255 225.311 219.5)" xlink:href="#Anchor"/><path d="M359.3 219.6h163.3" class="st10"/><use id="XMLID_4_" width="3.1" height="3.1" x="-1.5" y="-1.5" overflow="visible" transform="matrix(3.2255 0 0 -3.2255 361.39 219.574)" xlink:href="#Anchor"/><use id="XMLID_3_" width="3.1" height="3.1" x="-1.5" y="-1.5" overflow="visible" transform="matrix(3.2255 0 0 -3.2255 520.652 219.642)" xlink:href="#Anchor"/><path d="M663.7 219.5h163.4" class="st10"/><use id="XMLID_6_" width="3.1" height="3.1" x="-1.5" y="-1.5" overflow="visible" transform="matrix(3.2255 0 0 -3.2255 665.812 219.5)" xlink:href="#Anchor"/><use id="XMLID_5_" width="3.1" height="3.1" x="-1.5" y="-1.5" overflow="visible" transform="matrix(3.2255 0 0 -3.2255 824.987 219.5)" xlink:href="#Anchor"/></svg>