<svg xmlns="http://www.w3.org/2000/svg" id="Layer_1" width="422.5" height="156.29" viewBox="0 0 422.5 156.29"><defs><style>.cls-1{fill:#94c948}.cls-2{fill:#00683f}.cls-3{fill:none;stroke:#fff;stroke-miterlimit:10;stroke-width:.29px}.cls-4{fill:#fff}</style></defs><ellipse cx="46.45" cy="53.31" class="cls-1" rx="21.61" ry="37.56"/><path d="M18.39 105.68h6.66c5.82 0 9.69 4 9.69 9.35s-3.86 9.32-9.69 9.32h-6.66zm6.66 16.21a6.51 6.51 0 0 0 6.8-6.86c0-3.84-2.41-6.89-6.8-6.89h-3.86v13.75zm13.03-11.06h2.52v2.07a5.74 5.74 0 0 1 4.4-2.38v2.55a4 4 0 0 0-.87-.08 4.78 4.78 0 0 0-3.56 2v9.41h-2.49zm17.8 12.04a5.79 5.79 0 0 1-4.42 1.82 4.49 4.49 0 0 1-4.7-4.48c0-3.08 2.44-4.42 4.7-4.42a5.64 5.64 0 0 1 4.42 1.79v-2.24c0-1.68-1.37-2.69-3.3-2.69a5.53 5.53 0 0 0-4.06 1.79l-1.09-1.74a7.61 7.61 0 0 1 5.57-2.21c2.94 0 5.43 1.29 5.43 4.73v9.13h-2.55zm0-3.78a4.28 4.28 0 0 0-3.47-1.54c-1.82 0-3.11 1.09-3.11 2.69s1.29 2.69 3.11 2.69a4.28 4.28 0 0 0 3.47-1.54zm7.65 6.91a5.28 5.28 0 0 0 4.34 1.79c2.1 0 4.2-1 4.2-3.86v-1.76a5.7 5.7 0 0 1-4.45 2.32c-3.5 0-6-2.58-6-7s2.52-7 6-7a5.52 5.52 0 0 1 4.45 2.3v-2h2.52v13c0 4.65-3.39 6-6.72 6a7.27 7.27 0 0 1-5.54-2zm8.54-11.26a4.72 4.72 0 0 0-3.75-2c-2.52 0-4.09 2-4.09 4.73s1.57 4.76 4.09 4.76a4.74 4.74 0 0 0 3.75-2z" class="cls-2"/><circle cx="171.61" cy="53.31" r="37.56" class="cls-1"/><path d="M112 119.56a7.87 7.87 0 0 0 5.88 2.63c3 0 4.09-1.54 4.09-2.88 0-2-2.13-2.52-4.51-3.14-3-.78-6.47-1.65-6.47-5.46 0-3.08 2.72-5.32 6.61-5.32a9.15 9.15 0 0 1 6.8 2.6l-1.62 2.07a7.28 7.28 0 0 0-5.4-2.18c-2.07 0-3.5 1.06-3.5 2.63s2 2.21 4.34 2.8c3.05.81 6.61 1.76 6.61 5.74 0 2.91-2 5.63-7.06 5.63a9.56 9.56 0 0 1-7.36-3zm25.16-3.92c0-2.24-1.15-2.91-2.88-2.91a4.83 4.83 0 0 0-3.72 2v9.66H128v-18.71h2.52v7.06a6.5 6.5 0 0 1 4.79-2.24c2.88 0 4.34 1.46 4.34 4.31v9.55h-2.52zm6.16-8.64a1.64 1.64 0 0 1 1.62-1.62 1.62 1.62 0 0 1 1.62 1.62 1.6 1.6 0 0 1-1.62 1.6 1.62 1.62 0 0 1-1.62-1.6zm.39 3.86h2.52v13.52h-2.52zm7.14 2.14h-2.24v-2.21h2.24v-.9c0-2.91 1.71-4.54 4.12-4.54a4.46 4.46 0 0 1 2.21.5l-.59 1.88a2.41 2.41 0 0 0-1.2-.31c-1.26 0-2 .84-2 2.46v.9h2.74V113h-2.74v11.31h-2.52zm8.15 8.36V113h-2.24v-2.21H159v-3.7h2.52v3.7h2.74V113h-2.74v7.76c0 1 .45 1.65 1.32 1.65a1.94 1.94 0 0 0 1.37-.53l.64 1.9a3.59 3.59 0 0 1-2.63.87c-2.1.04-3.22-1.17-3.22-3.29zm6.91-4.88h6.72v2.18h-6.72zm9.64-10.8h6.66c5.82 0 9.69 4 9.69 9.35s-3.86 9.32-9.69 9.32h-6.66zm6.66 16.21A6.51 6.51 0 0 0 189 115c0-3.84-2.41-6.89-6.8-6.89h-3.86v13.75zm13.02-11.06h2.52v2.07a5.74 5.74 0 0 1 4.42-2.38v2.55a4 4 0 0 0-.87-.08 4.78 4.78 0 0 0-3.56 2v9.41h-2.52zM213 122.87a5.8 5.8 0 0 1-4.42 1.82 4.49 4.49 0 0 1-4.7-4.48c0-3.08 2.44-4.42 4.7-4.42a5.64 5.64 0 0 1 4.42 1.79v-2.24c0-1.68-1.37-2.69-3.3-2.69a5.53 5.53 0 0 0-4.06 1.79l-1.09-1.74a7.6 7.6 0 0 1 5.54-2.21c2.94 0 5.43 1.29 5.43 4.73v9.13H213zm0-3.78a4.28 4.28 0 0 0-3.47-1.54c-1.82 0-3.11 1.09-3.11 2.69s1.29 2.69 3.11 2.69a4.28 4.28 0 0 0 3.47-1.54zm7.68 6.91a5.28 5.28 0 0 0 4.34 1.79c2.1 0 4.2-1 4.2-3.86v-1.76a5.7 5.7 0 0 1-4.45 2.32c-3.5 0-6-2.58-6-7s2.52-7 6-7a5.52 5.52 0 0 1 4.45 2.3v-2h2.52v13c0 4.65-3.39 6-6.72 6a7.27 7.27 0 0 1-5.54-2zm8.54-11.26a4.72 4.72 0 0 0-3.75-2c-2.52 0-4.09 2-4.09 4.73s1.57 4.76 4.09 4.76a4.74 4.74 0 0 0 3.75-2z" class="cls-2"/><path d="M171.61 15.9v74.62" class="cls-3"/><path d="M170.67 15.75h1.88v.29h-1.88zm0 74.63h1.88v.29h-1.88z" class="cls-4"/><path d="M208.93 53.21H134.3" class="cls-3"/><path d="M208.78 52.27h.29v1.88h-.29zm-74.62 0h.29v1.88h-.29z" class="cls-4"/><path d="M267.65 105.37c5.57 0 9.41 4.12 9.41 9.66s-3.84 9.66-9.41 9.66-9.41-4.12-9.41-9.66 3.83-9.66 9.41-9.66zm0 2.49c-4 0-6.52 3.05-6.52 7.17s2.52 7.17 6.52 7.17 6.52-3.08 6.52-7.17-2.58-7.17-6.52-7.17zm12.74 21.64v-18.67h2.52v1.93a5.51 5.51 0 0 1 4.42-2.27c3.53 0 6 2.66 6 7.08s-2.49 7.11-6 7.11a5.39 5.39 0 0 1-4.42-2.3v7.11zm6.27-16.77a4.63 4.63 0 0 0-3.75 2v5.74a4.71 4.71 0 0 0 3.75 2c2.52 0 4.06-2 4.06-4.87s-1.54-4.87-4.06-4.87zm10.34 8.63V113h-2.24v-2.21H297v-3.7h2.52v3.7h2.74V113h-2.74v7.76c0 1 .45 1.65 1.32 1.65a1.94 1.94 0 0 0 1.37-.53l.64 1.9a3.59 3.59 0 0 1-2.63.87c-2.08.04-3.22-1.17-3.22-3.29zm7.72-14.36a1.64 1.64 0 0 1 1.62-1.62A1.63 1.63 0 0 1 308 107a1.6 1.6 0 0 1-1.62 1.6 1.62 1.62 0 0 1-1.66-1.6zm.39 3.86h2.52v13.52h-2.52zm5.68 6.72c0-3.89 2.63-7.08 6.83-7.08s6.83 3.19 6.83 7.08-2.6 7.11-6.83 7.11-6.83-3.19-6.83-7.11zm11 0c0-2.55-1.48-4.84-4.2-4.84s-4.2 2.3-4.2 4.84 1.51 4.87 4.2 4.87 4.24-2.3 4.24-4.87zm14.99-1.88c0-2.24-1.15-3-2.88-3a4.83 4.83 0 0 0-3.72 2v9.66h-2.52v-13.53h2.52v1.9a6.45 6.45 0 0 1 4.79-2.24c2.86 0 4.34 1.51 4.34 4.37v9.49h-2.52zm5.35.78h6.72v2.18h-6.72zm9.63-10.8h6.66c5.82 0 9.69 4 9.69 9.35s-3.86 9.32-9.69 9.32h-6.66zm6.66 16.21a6.51 6.51 0 0 0 6.8-6.86c0-3.84-2.41-6.89-6.8-6.89h-3.86v13.75zm13.02-11.06H374v2.07a5.75 5.75 0 0 1 4.42-2.38v2.55a4 4 0 0 0-.87-.08 4.78 4.78 0 0 0-3.56 2v9.41h-2.52zm17.81 12.04a5.8 5.8 0 0 1-4.42 1.82 4.49 4.49 0 0 1-4.7-4.48c0-3.08 2.44-4.42 4.7-4.42a5.64 5.64 0 0 1 4.42 1.79v-2.24c0-1.68-1.37-2.69-3.3-2.69a5.53 5.53 0 0 0-4.06 1.79l-1.09-1.74a7.6 7.6 0 0 1 5.54-2.21c2.94 0 5.43 1.29 5.43 4.73v9.13h-2.52zm0-3.78a4.29 4.29 0 0 0-3.47-1.54c-1.82 0-3.11 1.09-3.11 2.69s1.29 2.69 3.11 2.69a4.29 4.29 0 0 0 3.47-1.54zm7.64 6.91a5.27 5.27 0 0 0 4.34 1.79c2.1 0 4.2-1 4.2-3.86v-1.76a5.7 5.7 0 0 1-4.45 2.32c-3.5 0-6-2.58-6-7s2.52-7 6-7a5.52 5.52 0 0 1 4.45 2.3v-2H408v13c0 4.65-3.39 6-6.72 6a7.27 7.27 0 0 1-5.54-2zm8.54-11.26a4.71 4.71 0 0 0-3.75-2c-2.52 0-4.09 2-4.09 4.73s1.57 4.76 4.09 4.76a4.74 4.74 0 0 0 3.75-2z" class="cls-2"/><ellipse cx="333.45" cy="53.31" class="cls-1" rx="37.56" ry="28.84"/><ellipse cx="333.45" cy="53.31" class="cls-4" rx="7.87" ry="6.05"/><path d="M297.63 53.31h71.63" class="cls-3"/><path d="M295.89 53.31a8.73 8.73 0 0 1 2.47 1.37l-.5-1.37.5-1.37a8.72 8.72 0 0 1-2.47 1.37zm75.11 0a8.73 8.73 0 0 0-2.47 1.37l.5-1.37-.5-1.37a8.72 8.72 0 0 0 2.47 1.37z" class="cls-4"/></svg>