<svg xmlns="http://www.w3.org/2000/svg" viewBox="0 0 946.55 273.19" width="946.55" height="273.19"><defs><style>.cls-1{fill:#ffe4b8}.cls-2{fill:#f04f23}.cls-3{fill:#fcb31b}.cls-10,.cls-12,.cls-4,.cls-7{fill:none}.cls-4{stroke:#fcb31b;stroke-width:3.04px}.cls-10,.cls-4,.cls-7{stroke-miterlimit:10}.cls-5{fill:#beb8dc}.cls-6{fill:#a8deed}.cls-10,.cls-7{stroke:#163f60}.cls-7{stroke-width:2.88px}.cls-8{fill:#163f60}.cls-9{fill:#246597}.cls-10{stroke-width:2.71px}.cls-11{fill:#4bc1bf}.cls-12{stroke:#a8deed;stroke-linecap:round;stroke-linejoin:round;stroke-width:3.41px}</style></defs><g id="Mine"><path d="M0 0h273.19v273.19H0z" class="cls-1"/><path d="M124.25 27.08a59.28 59.28 0 0 1 59.28 59.28v116.52H65V86.35a59.28 59.28 0 0 1 59.28-59.28z" class="cls-2"/><path d="M64.98 202.88h118.55v15.43H64.98z" class="cls-3"/><path d="M192.66 116.85a14 14 0 0 1 14 14V171h-28v-40.15a14 14 0 0 1 14-14z" class="cls-2" transform="rotate(45 192.663 143.953)"/><path d="M79 235.25c0-6-10.87-16.95-10.87-16.95s-10.87 10.94-10.87 16.95a10.87 10.87 0 1 0 21.73 0z" class="cls-4"/><path d="M336.68 0h273.19v273.19H336.68z" class="cls-5"/><path d="M673.36 0h273.19v273.19H673.36z" class="cls-6"/><path d="M358.66 149.42h206.96" class="cls-7"/><rect width="111.93" height="114.25" x="406.18" y="136.6" class="cls-8" rx="8.12" ry="8.12"/><rect width="77.66" height="79.27" x="423.31" y="64.68" class="cls-8" rx="8.12" ry="8.12"/><rect width="44.17" height="79.27" x="440.06" y="137.33" class="cls-9" rx="6.13" ry="6.13" transform="rotate(-90 462.14 176.97)"/><ellipse cx="462.14" cy="64.68" class="cls-10" rx="29.79" ry="43.36"/><path d="M86.68 176.97l2.07 6.36h6.68l-5.41 3.93 2.07 6.35-5.41-3.93-5.4 3.93 2.06-6.35-5.41-3.93h6.69l2.06-6.36zm25.05 0l2.07 6.36h6.68l-5.41 3.93 2.07 6.35-5.41-3.93-5.41 3.93 2.07-6.35-5.41-3.93h6.68l2.07-6.36zm25.05 0l2.06 6.36h6.69l-5.41 3.93 2.06 6.35-5.4-3.93-5.41 3.93 2.06-6.35-5.4-3.93h6.68l2.07-6.36zm25.04 0l2.07 6.36h6.68l-5.41 3.93 2.07 6.35-5.41-3.93-5.41 3.93 2.07-6.35-5.41-3.93h6.69l2.06-6.36z" class="cls-3"/><path d="M882.79 101.35h27.83a8.13 8.13 0 0 1 8.13 8.13 8.13 8.13 0 0 1-8.13 8.13h-27.83v-16.26z" class="cls-11" transform="rotate(-30 900.765 109.48)"/><path d="M802.49 38.78h14.92a5 5 0 0 1 5 5v10.81h-24.9V43.76a5 5 0 0 1 4.98-4.98z" class="cls-9"/><ellipse cx="809.95" cy="82.18" class="cls-11" rx="80.44" ry="31.02"/><path d="M701.15 101.35H729a8.13 8.13 0 0 1 8.13 8.13 8.13 8.13 0 0 1-8.13 8.13h-27.85v-16.26z" class="cls-11" transform="rotate(-150 719.138 109.48)"/><path d="M729.52 82h160.87v109.34a10.22 10.22 0 0 1-10.22 10.22H739.74a10.22 10.22 0 0 1-10.22-10.22V82z" class="cls-9"/><path d="M763.49 215c0-2.85-5.16-9.11-5.16-9.11s-5.16 6.26-5.16 9.11a5.16 5.16 0 0 0 10.32 0zm10.33 14.25c0-2.85-5.16-9.11-5.16-9.11s-5.16 6.26-5.16 9.11a5.16 5.16 0 0 0 10.32 0zM784.14 215c0-2.85-5.16-9.11-5.16-9.11s-5.16 6.26-5.16 9.11a5.16 5.16 0 0 0 10.32 0zm10.33 14.25c0-2.85-5.16-9.11-5.16-9.11s-5.16 6.26-5.16 9.11a5.16 5.16 0 1 0 10.32 0zM804.79 215c0-2.85-5.16-9.11-5.16-9.11s-5.16 6.26-5.16 9.11a5.16 5.16 0 1 0 10.32 0zm10.33 14.25c0-2.85-5.16-9.11-5.16-9.11s-5.16 6.26-5.16 9.11a5.16 5.16 0 0 0 10.32 0zM825.44 215c0-2.85-5.16-9.11-5.16-9.11s-5.16 6.26-5.16 9.11a5.16 5.16 0 1 0 10.32 0zm10.33 14.25c0-2.85-5.16-9.11-5.16-9.11s-5.16 6.26-5.16 9.11a5.16 5.16 0 0 0 10.32 0zM846.09 215c0-2.85-5.16-9.11-5.16-9.11s-5.16 6.26-5.16 9.11a5.16 5.16 0 1 0 10.32 0zm20.65 0c0-2.85-5.16-9.11-5.16-9.11s-5.16 6.26-5.16 9.11a5.16 5.16 0 0 0 10.32 0zm-10.33 14.25c0-2.85-5.16-9.11-5.16-9.11s-5.16 6.26-5.16 9.11a5.16 5.16 0 0 0 10.32 0z" class="cls-6"/><path d="M763.49 215c0-2.85-5.16-9.11-5.16-9.11s-5.16 6.26-5.16 9.11a5.16 5.16 0 0 0 10.32 0zm10.33 14.25c0-2.85-5.16-9.11-5.16-9.11s-5.16 6.26-5.16 9.11a5.16 5.16 0 0 0 10.32 0zM784.14 215c0-2.85-5.16-9.11-5.16-9.11s-5.16 6.26-5.16 9.11a5.16 5.16 0 0 0 10.32 0zm10.33 14.25c0-2.85-5.16-9.11-5.16-9.11s-5.16 6.26-5.16 9.11a5.16 5.16 0 1 0 10.32 0zM804.79 215c0-2.85-5.16-9.11-5.16-9.11s-5.16 6.26-5.16 9.11a5.16 5.16 0 1 0 10.32 0zm10.33 14.25c0-2.85-5.16-9.11-5.16-9.11s-5.16 6.26-5.16 9.11a5.16 5.16 0 0 0 10.32 0zM825.44 215c0-2.85-5.16-9.11-5.16-9.11s-5.16 6.26-5.16 9.11a5.16 5.16 0 1 0 10.32 0zm10.33 14.25c0-2.85-5.16-9.11-5.16-9.11s-5.16 6.26-5.16 9.11a5.16 5.16 0 0 0 10.32 0zM846.09 215c0-2.85-5.16-9.11-5.16-9.11s-5.16 6.26-5.16 9.11a5.16 5.16 0 1 0 10.32 0zm20.65 0c0-2.85-5.16-9.11-5.16-9.11s-5.16 6.26-5.16 9.11a5.16 5.16 0 0 0 10.32 0zm-10.33 14.25c0-2.85-5.16-9.11-5.16-9.11s-5.16 6.26-5.16 9.11a5.16 5.16 0 0 0 10.32 0z" class="cls-3"/><path d="M418.59 223.7v16.91m12.45-16.91v16.91m12.44-16.91v16.91m12.44-16.91v16.91m12.44-16.91v16.91m12.45-16.91v16.91m12.44-16.91v16.91m12.44-16.91v16.91" class="cls-12"/></g></svg>