<svg xmlns="http://www.w3.org/2000/svg" xmlns:xlink="http://www.w3.org/1999/xlink" width="504" height="360" viewBox="0 0 504 360"><defs><symbol id="New_Symbol" data-name="New Symbol" viewBox="0 0 3.9 3.9"><rect x="0.5" y="0.5" width="2.9" height="2.88" fill="#fff" stroke="#80cfe3" stroke-miterlimit="10"/></symbol></defs><title>illustrator-type-summative</title><g id="Layer_2" data-name="Layer 2"><g id="Layer_2-2" data-name="Layer 2"><rect width="504" height="360" fill="#ffe501"/><rect x="25.6" y="25.6" width="452.7" height="308.73" rx="9.2" fill="none" stroke="#000" stroke-width="6.1"/><path d="M58.3,85.8a8,8,0,0,1-6.2,3c-5.3,0-9.5-4-9.5-11.2s4.1-11.1,9.5-11.1a7.7,7.7,0,0,1,6.2,3V58.9h6.8V88.3H58.3Zm0-11.4a5.1,5.1,0,0,0-4-1.9c-2.7,0-4.7,2-4.7,5.1s2,5.2,4.7,5.2a5.5,5.5,0,0,0,4-1.9Z"/><path d="M67.8,77.6c0-6,4.3-11.1,11.5-11.1s11.6,5.1,11.6,11.1S86.6,88.8,79.3,88.8,67.8,83.6,67.8,77.6Zm16.2,0c0-2.8-1.7-5.1-4.7-5.1s-4.5,2.3-4.5,5.1,1.6,5.2,4.5,5.2S84,80.5,84,77.6Z"/><path d="M108.9,76c0-2.6-1.4-3.5-3.5-3.5a5.4,5.4,0,0,0-4.1,2V88.3H94.5V67h6.8v2.6a9.6,9.6,0,0,1,7.3-3.1c4.9,0,7.1,2.8,7.1,6.7V88.3h-6.8Z"/><path d="M119.9,70.2a8.5,8.5,0,0,0,3.7-4.2l-1,.2a3.5,3.5,0,0,1-3.5-3.7,4.1,4.1,0,0,1,4.1-4c2.4,0,4.5,1.8,4.5,5.1a11,11,0,0,1-5,8.9Z"/><path d="M133.1,82.6V72.9h-3.6V67h3.6V61.2h6.7V67h4.3v5.9h-4.3v7.8a1.9,1.9,0,0,0,1.9,2.1,2.5,2.5,0,0,0,1.7-.5l1.3,5.1c-.8.8-2.5,1.4-5,1.4C135.4,88.8,133.1,86.6,133.1,82.6Z"/><path d="M160.2,82.6V72.9h-3.6V67h3.6V61.2h6.7V67h4.3v5.9h-4.3v7.8a1.9,1.9,0,0,0,1.9,2.1,2.5,2.5,0,0,0,1.7-.5l1.3,5.1c-.8.8-2.5,1.4-5,1.4C162.5,88.8,160.2,86.6,160.2,82.6Z"/><path d="M183.4,81.8l-4.1,6.5h-7.4l7.2-10.9L172.3,67h7.4l3.7,5.8L187,67h7.4l-6.7,10.4,7.2,10.9h-7.4Z"/><path d="M198.5,82.6V72.9H195V67h3.5V61.2h6.8V67h4.3v5.9h-4.3v7.8a1.9,1.9,0,0,0,1.8,2.1,2.8,2.8,0,0,0,1.8-.5l1.3,5.1c-.9.8-2.5,1.4-5,1.4C200.9,88.8,198.5,86.6,198.5,82.6Z"/><path d="M235.1,84.2h-4.4V75.5H223V71.4h7.7V63h4.4v8.4h7.7v4.1h-7.7Z"/><path d="M272.1,85.8a8.2,8.2,0,0,1-6.3,3c-5.2,0-9.4-4-9.4-11.2s4.1-11.1,9.4-11.1a7.9,7.9,0,0,1,6.3,3V58.9h6.7V88.3h-6.7Zm0-11.4a5.3,5.3,0,0,0-4.1-1.9c-2.7,0-4.7,2-4.7,5.1s2,5.2,4.7,5.2a5.7,5.7,0,0,0,4.1-1.9Z"/><path d="M283.8,67h6.8v2.7a9.3,9.3,0,0,1,6.6-3.2V73l-1.7-.2c-1.7,0-4,.8-4.9,2V88.3h-6.8Z"/><path d="M297.4,67h7.1l4.8,13.5L314.2,67h7.1L313,88.3h-7.2Z"/><path d="M178.6,151h-2.1v-.7h5v.7h-2.1v5.9h-.8Z"/><path d="M183.6,152a2.3,2.3,0,0,1,2.3,2.6v.2H182a1.6,1.6,0,0,0,1.7,1.6,2,2,0,0,0,1.5-.6l.4.5a2.7,2.7,0,0,1-2,.7,2.3,2.3,0,0,1-2.4-2.5A2.4,2.4,0,0,1,183.6,152Zm-1.6,2.2h3.1a1.5,1.5,0,0,0-1.5-1.6A1.6,1.6,0,0,0,182,154.2Z"/><path d="M188.5,154.9l-1.5,2h-.9l1.9-2.5-1.8-2.3h.9l1.4,1.8,1.3-1.8h.9l-1.8,2.3,1.9,2.5h-.9Z"/><path d="M191.8,155.9v-3.1H191v-.7h.8v-1.3h.7v1.3h1v.7h-1v3a.6.6,0,0,0,.5.6l.5-.2.3.5a1.2,1.2,0,0,1-.9.3A1,1,0,0,1,191.8,155.9Z"/><path d="M194.4,150.8a.5.5,0,0,1,.5-.5.5.5,0,1,1,0,1A.5.5,0,0,1,194.4,150.8Zm.2,1.3h.7v4.8h-.7Z"/><path d="M200.1,153.8c0-.9-.4-1.2-1.1-1.2a1.8,1.8,0,0,0-1.4.8v3.5h-.8v-4.8h.8v.7a2.3,2.3,0,0,1,1.7-.8,1.3,1.3,0,0,1,1.5,1.5v3.4h-.7Z"/><path d="M202.7,157.6a1.9,1.9,0,0,0,1.6.7,1.4,1.4,0,0,0,1.5-1.5v-.7a1.9,1.9,0,0,1-1.6.9c-1.3,0-2.1-1-2.1-2.5s.8-2.5,2.1-2.5a1.9,1.9,0,0,1,1.6.8v-.7h.8v4.7c0,1.6-1.1,2.1-2.3,2.1a2.9,2.9,0,0,1-2-.7Zm3.1-4.2a1.7,1.7,0,0,0-1.4-.8c-1,0-1.6.8-1.6,1.9a1.6,1.6,0,0,0,1.6,1.8,1.5,1.5,0,0,0,1.4-.8Z"/><path d="M213.6,153l-1.3,3.9h-.7l-1.6-4.8h.8l1.2,3.8,1.3-3.8h.6l1.3,3.8,1.1-3.8h.8l-1.5,4.8h-.8Z"/><path d="M221.3,153.7a1,1,0,0,0-1.1-1.1,2,2,0,0,0-1.5.8v3.5H218v-6.6h.7v2.5a2.5,2.5,0,0,1,1.8-.8,1.3,1.3,0,0,1,1.5,1.5v3.4h-.7Z"/><path d="M223.4,150.8a.5.5,0,1,1,.5.5A.5.5,0,0,1,223.4,150.8Zm.1,1.3h.8v4.8h-.8Z"/><path d="M225.8,150.3h.7v6.6h-.7Z"/><path d="M230.1,152c1.5,0,2.3,1.1,2.3,2.6v.2h-3.9a1.7,1.7,0,0,0,1.8,1.6,2.2,2.2,0,0,0,1.5-.6l.3.5a2.5,2.5,0,0,1-1.9.7,2.5,2.5,0,0,1-.1-5Zm-1.6,2.2h3.2a1.6,1.6,0,0,0-1.6-1.6A1.7,1.7,0,0,0,228.5,154.2Z"/><path d="M239.7,156.2a1.8,1.8,0,0,1-1.6.8,2.2,2.2,0,0,1-2.2-2.5,2.2,2.2,0,0,1,2.2-2.5,2.1,2.1,0,0,1,1.6.8v-2.5h.8v6.6h-.8Zm0-2.8a1.7,1.7,0,0,0-1.4-.8c-1,0-1.6.8-1.6,1.9s.6,1.9,1.6,1.9a1.7,1.7,0,0,0,1.4-.8Z"/><path d="M242,152.1h.7v.8a2.2,2.2,0,0,1,1.6-.9v.8H244a1.8,1.8,0,0,0-1.3.8v3.4H242Z"/><path d="M245.1,150.8a.5.5,0,0,1,.5-.5.5.5,0,1,1,0,1A.5.5,0,0,1,245.1,150.8Zm.2,1.3h.7v4.8h-.7Z"/><path d="M246.8,152.1h.8l1.6,4,1.6-4h.8l-2,4.8h-.8Z"/><path d="M252.3,150.8a.5.5,0,1,1,.5.5A.5.5,0,0,1,252.3,150.8Zm.1,1.3h.8v4.8h-.8Z"/><path d="M257.9,153.8c0-.9-.4-1.2-1-1.2a2,2,0,0,0-1.5.8v3.5h-.7v-4.8h.7v.7a2.5,2.5,0,0,1,1.7-.8c1.1,0,1.6.5,1.6,1.5v3.4h-.8Z"/><path d="M260.6,157.6a1.7,1.7,0,0,0,1.5.7,1.4,1.4,0,0,0,1.6-1.5v-.7a2.2,2.2,0,0,1-1.6.9,2.2,2.2,0,0,1-2.2-2.5,2.2,2.2,0,0,1,2.2-2.5,2.1,2.1,0,0,1,1.6.8v-.7h.7v4.7c0,1.6-1.1,2.1-2.3,2.1a2.5,2.5,0,0,1-1.9-.7Zm3.1-4.2a2,2,0,0,0-1.5-.8c-.9,0-1.5.8-1.5,1.9a1.6,1.6,0,0,0,1.5,1.8,1.8,1.8,0,0,0,1.5-.8Z"/><path d="M271.8,153.7a1,1,0,0,0-1.1-1.1,1.7,1.7,0,0,0-1.4.8v3.5h-.8v-6.6h.8v2.5a2.3,2.3,0,0,1,1.7-.8,1.3,1.3,0,0,1,1.5,1.5v3.4h-.7Z"/><path d="M277,156.4a2.1,2.1,0,0,1-1.6.6,1.5,1.5,0,0,1-1.6-1.6,1.5,1.5,0,0,1,1.6-1.5,2,2,0,0,1,1.6.6v-.9c0-.6-.5-1-1.2-1a1.9,1.9,0,0,0-1.5.7l-.3-.5a2.2,2.2,0,0,1,1.9-.8c1,0,1.9.4,1.9,1.6v3.3H277Zm0-1.4a1.5,1.5,0,0,0-1.3-.6,1.1,1.1,0,0,0-1.2,1.1c0,.6.5,1,1.2,1a1.5,1.5,0,0,0,1.3-.6Z"/><path d="M279.3,155.7a2,2,0,0,0,1.6.7c.7,0,1.1-.3,1.1-.8s-.6-.7-1.2-.8-1.8-.4-1.8-1.4.7-1.4,1.8-1.4a2.5,2.5,0,0,1,1.8.7l-.4.5a1.6,1.6,0,0,0-1.4-.6c-.7,0-1.1.3-1.1.7s.6.6,1.2.8,1.8.4,1.8,1.5-.6,1.4-1.9,1.4a2.5,2.5,0,0,1-1.9-.7Z"/><path d="M176.9,162.3h.8v2.5a1.9,1.9,0,0,1,1.6-.8c1.3,0,2.1,1,2.1,2.5s-.8,2.5-2.1,2.5a1.8,1.8,0,0,1-1.6-.8v.7h-.8Zm2.2,6.1c1,0,1.6-.8,1.6-1.9s-.6-1.9-1.6-1.9a1.7,1.7,0,0,0-1.4.8v2.2A1.7,1.7,0,0,0,179.1,168.4Z"/><path d="M184.8,164a2.3,2.3,0,0,1,2.3,2.6v.2h-3.9a1.6,1.6,0,0,0,1.7,1.6,2,2,0,0,0,1.5-.6l.4.5a2.7,2.7,0,0,1-2,.7,2.3,2.3,0,0,1-2.4-2.5A2.4,2.4,0,0,1,184.8,164Zm-1.6,2.2h3.1a1.5,1.5,0,0,0-1.5-1.6A1.6,1.6,0,0,0,183.2,166.2Z"/><path d="M190.4,164a2.1,2.1,0,0,1,1.8.8l-.5.5a1.3,1.3,0,0,0-1.2-.7,1.9,1.9,0,0,0,0,3.8,1.3,1.3,0,0,0,1.2-.7l.5.5a2.1,2.1,0,0,1-1.8.8,2.5,2.5,0,0,1,0-5Z"/><path d="M193,166.5a2.4,2.4,0,1,1,2.4,2.5A2.3,2.3,0,0,1,193,166.5Zm4,0a1.7,1.7,0,1,0-1.6,1.9A1.7,1.7,0,0,0,197,166.5Z"/><path d="M204.8,165.6c0-.6-.3-1-.9-1a1.8,1.8,0,0,0-1.3.8v3.5h-.7v-3.3c0-.6-.3-1-.9-1a1.8,1.8,0,0,0-1.3.8v3.5H199v-4.8h.7v.7a2.2,2.2,0,0,1,1.6-.8,1.3,1.3,0,0,1,1.3.9,1.8,1.8,0,0,1,1.6-.9c.9,0,1.3.5,1.3,1.4v3.5h-.7Z"/><path d="M209.1,164a2.4,2.4,0,0,1,2.4,2.6v.2h-3.9a1.6,1.6,0,0,0,1.7,1.6,2.2,2.2,0,0,0,1.5-.6l.3.5a2.5,2.5,0,1,1-2-4.3Zm-1.5,2.2h3.1a1.6,1.6,0,0,0-1.6-1.6A1.6,1.6,0,0,0,207.6,166.2Z"/><path d="M215.4,167.9v-3.1h-.8v-.7h.8v-1.3h.8v1.3h.9v.7h-.9v3c0,.3.1.6.4.6a.8.8,0,0,0,.6-.2l.2.5a1.2,1.2,0,0,1-.9.3A1,1,0,0,1,215.4,167.9Z"/><path d="M221.5,165.7a1,1,0,0,0-1.1-1.1,2,2,0,0,0-1.5.8v3.5h-.7v-6.6h.7v2.5a2.5,2.5,0,0,1,1.8-.8,1.3,1.3,0,0,1,1.5,1.5v3.4h-.7Z"/><path d="M225.8,164c1.5,0,2.3,1.1,2.3,2.6v.2h-3.9a1.7,1.7,0,0,0,1.8,1.6,2.2,2.2,0,0,0,1.5-.6l.3.5a2.5,2.5,0,0,1-1.9.7,2.5,2.5,0,0,1-.1-5Zm-1.6,2.2h3.2a1.6,1.6,0,0,0-1.6-1.6A1.7,1.7,0,0,0,224.2,166.2Z"/><path d="M235.2,165.8c0-.9-.4-1.2-1.1-1.2a1.8,1.8,0,0,0-1.4.8v3.5h-.8v-4.8h.8v.7a2.3,2.3,0,0,1,1.7-.8,1.3,1.3,0,0,1,1.5,1.5v3.4h-.7Z"/><path d="M240.7,168.2a2.1,2.1,0,0,1-1.7.8c-1,0-1.6-.4-1.6-1.5v-3.4h.8v3.2a1,1,0,0,0,1.1,1.1,1.8,1.8,0,0,0,1.4-.8v-3.5h.7v4.8h-.7Z"/><path d="M248.8,165.6c0-.6-.3-1-.9-1a1.8,1.8,0,0,0-1.3.8v3.5h-.7v-3.3c0-.6-.3-1-.9-1a1.8,1.8,0,0,0-1.3.8v3.5h-.8v-4.8h.8v.7a2,2,0,0,1,1.6-.8,1.3,1.3,0,0,1,1.3.9,1.8,1.8,0,0,1,1.6-.9c.9,0,1.3.5,1.3,1.4v3.5h-.7Z"/><path d="M251,162.3h.8v2.5a1.9,1.9,0,0,1,1.6-.8,2.2,2.2,0,0,1,2.2,2.5,2.2,2.2,0,0,1-2.2,2.5,1.8,1.8,0,0,1-1.6-.8v.7H251Zm2.2,6.1c1,0,1.6-.8,1.6-1.9s-.6-1.9-1.6-1.9a1.7,1.7,0,0,0-1.4.8v2.2A1.7,1.7,0,0,0,253.2,168.4Z"/><path d="M258.9,164a2.3,2.3,0,0,1,2.3,2.6v.2h-3.9a1.6,1.6,0,0,0,1.7,1.6,2,2,0,0,0,1.5-.6l.4.5a2.6,2.6,0,0,1-1.9.7,2.4,2.4,0,0,1-2.5-2.5A2.4,2.4,0,0,1,258.9,164Zm-1.6,2.2h3.2a1.6,1.6,0,0,0-1.6-1.6A1.6,1.6,0,0,0,257.3,166.2Z"/><path d="M262.4,164.1h.8v.8a1.9,1.9,0,0,1,1.6-.9v.8h-.3a1.7,1.7,0,0,0-1.3.8v3.4h-.8Z"/><path d="M268,166.5a2.4,2.4,0,1,1,2.4,2.5A2.3,2.3,0,0,1,268,166.5Zm4,0a1.6,1.6,0,1,0-1.6,1.9A1.7,1.7,0,0,0,272,166.5Z"/><path d="M277.3,165.8c0-.9-.5-1.2-1.1-1.2a1.7,1.7,0,0,0-1.4.8v3.5H274v-4.8h.8v.7a2.3,2.3,0,0,1,1.7-.8,1.3,1.3,0,0,1,1.5,1.5v3.4h-.7Z"/><path d="M281.6,164c1.5,0,2.3,1.1,2.3,2.6v.2H280a1.7,1.7,0,0,0,1.8,1.6,1.8,1.8,0,0,0,1.4-.6l.4.5a2.5,2.5,0,0,1-1.9.7,2.5,2.5,0,0,1-.1-5Zm-1.6,2.2h3.2a1.6,1.6,0,0,0-1.6-1.6A1.7,1.7,0,0,0,280,166.2Z"/><path d="M291.2,168.2a1.8,1.8,0,0,1-1.6.8,2.2,2.2,0,0,1-2.2-2.5,2.2,2.2,0,0,1,2.2-2.5,2.1,2.1,0,0,1,1.6.8v-2.5h.8v6.6h-.8Zm0-2.8a1.7,1.7,0,0,0-1.4-.8c-1,0-1.6.8-1.6,1.9s.6,1.9,1.6,1.9a1.7,1.7,0,0,0,1.4-.8Z"/><path d="M293.5,164.1h.7v.8a2.2,2.2,0,0,1,1.6-.9v.8h-.3a1.8,1.8,0,0,0-1.3.8v3.4h-.7Z"/><path d="M296.6,162.8a.5.5,0,0,1,.5-.5.5.5,0,1,1,0,1A.5.5,0,0,1,296.6,162.8Zm.2,1.3h.7v4.8h-.7Z"/><path d="M298.3,164.1h.8l1.6,4,1.6-4h.8l-2,4.8h-.8Z"/><path d="M303.8,162.8a.5.5,0,1,1,.5.5A.5.5,0,0,1,303.8,162.8Zm.1,1.3h.8v4.8h-.8Z"/><path d="M309.4,165.8c0-.9-.4-1.2-1-1.2a2,2,0,0,0-1.5.8v3.5h-.7v-4.8h.7v.7a2.5,2.5,0,0,1,1.7-.8,1.4,1.4,0,0,1,1.6,1.5v3.4h-.8Z"/><path d="M312.1,169.6a1.7,1.7,0,0,0,1.5.7,1.4,1.4,0,0,0,1.6-1.5v-.7a2.2,2.2,0,0,1-1.6.9,2.2,2.2,0,0,1-2.2-2.5,2.2,2.2,0,0,1,2.2-2.5,2.1,2.1,0,0,1,1.6.8v-.7h.7v4.7c0,1.6-1.1,2.1-2.3,2.1a2.5,2.5,0,0,1-1.9-.7Zm3.1-4.2a2,2,0,0,0-1.5-.8c-.9,0-1.5.8-1.5,1.9a1.6,1.6,0,0,0,1.5,1.8,1.8,1.8,0,0,0,1.5-.8Z"/><path d="M180.4,180.2a1.8,1.8,0,0,1-1.6.8,2.2,2.2,0,0,1-2.2-2.5,2.2,2.2,0,0,1,2.2-2.5,2.1,2.1,0,0,1,1.6.8v-2.5h.8v6.6h-.8Zm0-2.8a1.8,1.8,0,0,0-1.4-.8c-1,0-1.6.8-1.6,1.9s.6,1.9,1.6,1.9a1.8,1.8,0,0,0,1.4-.8Z"/><path d="M182.5,174.8a.5.5,0,0,1,.5-.5.5.5,0,0,1,0,1A.5.5,0,0,1,182.5,174.8Zm.2,1.3h.7v4.8h-.7Z"/><path d="M184.9,179.7a2,2,0,0,0,1.6.7c.7,0,1.1-.3,1.1-.8s-.6-.7-1.2-.8-1.8-.4-1.8-1.4.7-1.4,1.8-1.4a2.5,2.5,0,0,1,1.8.7l-.3.5a1.9,1.9,0,0,0-1.5-.6c-.6,0-1,.3-1,.7s.5.6,1.1.8,1.8.4,1.8,1.5-.6,1.4-1.9,1.4a2.6,2.6,0,0,1-1.9-.7Z"/><path d="M189.7,179.9v-3.1h-.8v-.7h.8v-1.3h.8v1.3h.9v.7h-.9v3c0,.3.1.6.5.6l.5-.2.2.5a1.2,1.2,0,0,1-.9.3A1,1,0,0,1,189.7,179.9Z"/><path d="M192.5,176.1h.8v.8a1.9,1.9,0,0,1,1.6-.9v.8h-.3a1.7,1.7,0,0,0-1.3.8v3.4h-.8Z"/><path d="M198.8,180.4a2.1,2.1,0,0,1-1.6.6,1.6,1.6,0,0,1-1.7-1.6,1.6,1.6,0,0,1,1.7-1.5,2.1,2.1,0,0,1,1.6.6v-.9c0-.6-.5-1-1.2-1a1.9,1.9,0,0,0-1.5.7l-.3-.5a2.2,2.2,0,0,1,1.9-.8c1,0,1.9.4,1.9,1.6v3.3h-.8Zm0-1.4a1.6,1.6,0,0,0-1.3-.6,1.1,1.1,0,0,0-1.2,1.1c0,.6.5,1,1.2,1a1.6,1.6,0,0,0,1.3-.6Z"/><path d="M203.2,176a2.1,2.1,0,0,1,1.8.8l-.5.5a1.5,1.5,0,0,0-1.3-.7c-1,0-1.6.8-1.6,1.9s.6,1.9,1.6,1.9a1.5,1.5,0,0,0,1.3-.7l.5.5a2.1,2.1,0,0,1-1.8.8,2.5,2.5,0,0,1,0-5Z"/><path d="M206.2,179.9v-3.1h-.8v-.7h.8v-1.3h.7v1.3h1v.7h-1v3a.6.6,0,0,0,.5.6l.5-.2.2.5q-.2.3-.9.3C206.5,181,206.2,180.6,206.2,179.9Z"/><path d="M208.8,174.8a.5.5,0,0,1,.5-.5.5.5,0,0,1,0,1A.5.5,0,0,1,208.8,174.8Zm.2,1.3h.7v4.8H209Z"/><path d="M210.9,178.5a2.4,2.4,0,0,1,2.4-2.5,2.5,2.5,0,0,1,0,5A2.4,2.4,0,0,1,210.9,178.5Zm4,0c0-1-.5-1.9-1.6-1.9a1.9,1.9,0,0,0,0,3.8C214.4,180.4,214.9,179.5,214.9,178.5Z"/><path d="M220.2,177.8c0-.9-.4-1.2-1.1-1.2a1.8,1.8,0,0,0-1.4.8v3.5h-.8v-4.8h.8v.7a2.3,2.3,0,0,1,1.7-.8,1.3,1.3,0,0,1,1.5,1.5v3.4h-.7Z"/><path d="M225.2,176.8h-.8v-.7h.8v-.4a1.3,1.3,0,0,1,1.4-1.5h.8l-.2.6h-.5c-.4,0-.7.3-.7.9v.4h1v.7h-1v4.1h-.8Z"/><path d="M227.6,178.5A2.3,2.3,0,0,1,230,176a2.5,2.5,0,0,1,0,5A2.3,2.3,0,0,1,227.6,178.5Zm4,0a1.7,1.7,0,0,0-1.6-1.9c-1.1,0-1.6.9-1.6,1.9s.5,1.9,1.6,1.9A1.7,1.7,0,0,0,231.6,178.5Z"/><path d="M233.6,176.1h.7v.8a2.2,2.2,0,0,1,1.6-.9v.8h-.3a1.8,1.8,0,0,0-1.3.8v3.4h-.7Z"/><path d="M245.3,177.6c0-.6-.3-1-.9-1a1.8,1.8,0,0,0-1.3.8v3.5h-.7v-3.3c0-.6-.3-1-.9-1a1.8,1.8,0,0,0-1.3.8v3.5h-.7v-4.8h.7v.7a2.2,2.2,0,0,1,1.6-.8,1.3,1.3,0,0,1,1.3.9,1.8,1.8,0,0,1,1.6-.9c.9,0,1.3.5,1.3,1.4v3.5h-.7Z"/><path d="M250.6,180.4a2.3,2.3,0,0,1-1.6.6,1.5,1.5,0,0,1-1.7-1.6,1.5,1.5,0,0,1,1.7-1.5,2.3,2.3,0,0,1,1.6.6v-.9c0-.6-.6-1-1.3-1a1.7,1.7,0,0,0-1.4.7l-.4-.5a2.2,2.2,0,0,1,1.9-.8c1.1,0,1.9.4,1.9,1.6v3.3h-.7Zm0-1.4a1.7,1.7,0,0,0-1.4-.6,1.1,1.1,0,0,0-1.2,1.1c0,.6.5,1,1.2,1a1.7,1.7,0,0,0,1.4-.6Z"/><path d="M256.1,177.8c0-.9-.5-1.2-1.1-1.2a1.7,1.7,0,0,0-1.4.8v3.5h-.8v-4.8h.8v.7a2.3,2.3,0,0,1,1.7-.8,1.3,1.3,0,0,1,1.5,1.5v3.4h-.7Z"/><path d="M258.6,182.2c.3,0,.5-.1.7-.5l.3-.7-2-4.9h.8l1.6,4,1.6-4h.8l-2.4,5.8a1.5,1.5,0,0,1-1.4,1H258l.2-.7Z"/><path d="M265.8,182.8v-6.7h.7v.7a2.1,2.1,0,0,1,1.7-.8c1.2,0,2.1.9,2.1,2.5s-.9,2.5-2.1,2.5a2.1,2.1,0,0,1-1.7-.8v2.6Zm2.2-6.2a2,2,0,0,0-1.5.8v2.2a2,2,0,0,0,1.5.8c1,0,1.5-.8,1.5-1.9S269,176.6,268,176.6Z"/><path d="M273.6,176c1.5,0,2.3,1.1,2.3,2.6v.2H272a1.7,1.7,0,0,0,1.8,1.6,2.2,2.2,0,0,0,1.5-.6l.3.5a2.5,2.5,0,0,1-1.9.7,2.3,2.3,0,0,1-2.4-2.5A2.4,2.4,0,0,1,273.6,176Zm-1.6,2.2h3.2a1.6,1.6,0,0,0-1.6-1.6A1.7,1.7,0,0,0,272,178.2Z"/><path d="M276.9,178.5a2.3,2.3,0,0,1,2.4-2.5,2.5,2.5,0,0,1,0,5A2.3,2.3,0,0,1,276.9,178.5Zm4,0a1.7,1.7,0,0,0-1.6-1.9c-1.1,0-1.6.9-1.6,1.9s.5,1.9,1.6,1.9A1.7,1.7,0,0,0,280.9,178.5Z"/><path d="M282.9,182.8v-6.7h.7v.7a2.1,2.1,0,0,1,1.7-.8c1.2,0,2.1.9,2.1,2.5s-.9,2.5-2.1,2.5a2.1,2.1,0,0,1-1.7-.8v2.6Zm2.2-6.2a2,2,0,0,0-1.5.8v2.2a2,2,0,0,0,1.5.8c.9,0,1.5-.8,1.5-1.9S286,176.6,285.1,176.6Z"/><path d="M288.6,174.3h.8v6.6h-.8Z"/><path d="M293,176a2.3,2.3,0,0,1,2.3,2.6v.2h-3.9a1.6,1.6,0,0,0,1.7,1.6,2,2,0,0,0,1.5-.6l.4.5a2.6,2.6,0,0,1-1.9.7,2.4,2.4,0,0,1-2.5-2.5A2.4,2.4,0,0,1,293,176Zm-1.6,2.2h3.2a1.6,1.6,0,0,0-1.6-1.6A1.6,1.6,0,0,0,291.4,178.2Z"/><path d="M296.8,179.9a.6.6,0,0,1,.6.6.6.6,0,0,1-.6.5.5.5,0,0,1-.5-.5A.6.6,0,0,1,296.8,179.9Z"/><path d="M176.9,192.3h2.3a3.3,3.3,0,1,1,0,6.6h-2.3Zm2.3,5.9a2.5,2.5,0,0,0,2.6-2.6,2.5,2.5,0,0,0-2.6-2.6h-1.4v5.2Z"/><path d="M183.9,194.1h.8v.8a2,2,0,0,1,1.6-.9v.8H186a1.7,1.7,0,0,0-1.3.8v3.4h-.8Z"/><path d="M187.1,192.8a.5.5,0,1,1,.5.5A.5.5,0,0,1,187.1,192.8Zm.1,1.3h.8v4.8h-.8Z"/><path d="M188.7,194.1h.9l1.6,4,1.6-4h.8l-2,4.8h-.8Z"/><path d="M196.5,194a2.3,2.3,0,0,1,2.3,2.6v.2h-3.9a1.6,1.6,0,0,0,1.7,1.6,2,2,0,0,0,1.5-.6l.4.5a2.7,2.7,0,0,1-2,.7,2.3,2.3,0,0,1-2.4-2.5A2.4,2.4,0,0,1,196.5,194Zm-1.6,2.2H198a1.5,1.5,0,0,0-1.5-1.6A1.6,1.6,0,0,0,194.9,196.2Z"/><path d="M200,194.1h.7v.8a2.2,2.2,0,0,1,1.7-.9v.8h-.3a2,2,0,0,0-1.4.8v3.4H200Z"/><path d="M203.3,197.7a2,2,0,0,0,1.6.7c.7,0,1.1-.3,1.1-.8s-.6-.7-1.2-.8-1.8-.4-1.8-1.4.7-1.4,1.8-1.4a2.5,2.5,0,0,1,1.8.7l-.4.5a1.6,1.6,0,0,0-1.4-.6c-.7,0-1.1.3-1.1.7s.6.6,1.2.8,1.8.4,1.8,1.5-.6,1.4-1.9,1.4a2.5,2.5,0,0,1-1.9-.7Z"/><path d="M213.8,195.8c0-.9-.4-1.2-1.1-1.2a1.8,1.8,0,0,0-1.4.8v3.5h-.8v-4.8h.8v.7a2.3,2.3,0,0,1,1.7-.8,1.3,1.3,0,0,1,1.5,1.5v3.4h-.7Z"/><path d="M218.1,194a2.4,2.4,0,0,1,2.4,2.6v.2h-4a1.7,1.7,0,0,0,1.8,1.6,2.2,2.2,0,0,0,1.5-.6l.3.5a2.5,2.5,0,1,1-2-4.3Zm-1.6,2.2h3.2a1.6,1.6,0,0,0-1.6-1.6A1.7,1.7,0,0,0,216.5,196.2Z"/><path d="M223.8,194a2.3,2.3,0,0,1,2.3,2.6v.2h-3.9a1.6,1.6,0,0,0,1.7,1.6,2,2,0,0,0,1.5-.6l.4.5a2.7,2.7,0,0,1-2,.7,2.3,2.3,0,0,1-2.4-2.5A2.4,2.4,0,0,1,223.8,194Zm-1.6,2.2h3.1a1.5,1.5,0,0,0-1.5-1.6A1.6,1.6,0,0,0,222.2,196.2Z"/><path d="M230.8,198.2a2.1,2.1,0,0,1-1.6.8,2.2,2.2,0,0,1-2.2-2.5,2.2,2.2,0,0,1,2.2-2.5,2.1,2.1,0,0,1,1.6.8v-2.5h.7v6.6h-.7Zm0-2.8a2,2,0,0,0-1.5-.8c-.9,0-1.5.8-1.5,1.9s.6,1.9,1.5,1.9a2,2,0,0,0,1.5-.8Z"/><path d="M235.8,197.9v-3.1H235v-.7h.8v-1.3h.7v1.3h1v.7h-1v3a.6.6,0,0,0,.5.6l.5-.2.2.5q-.1.3-.9.3C236.1,199,235.8,198.6,235.8,197.9Z"/><path d="M238.3,196.5a2.3,2.3,0,0,1,2.4-2.5,2.5,2.5,0,0,1,0,5A2.3,2.3,0,0,1,238.3,196.5Zm4,0a1.7,1.7,0,0,0-1.6-1.9c-1.1,0-1.6.9-1.6,1.9s.5,1.9,1.6,1.9A1.7,1.7,0,0,0,242.3,196.5Z"/><path d="M246.9,192.3h.7v2.5a2.1,2.1,0,0,1,1.6-.8,2.2,2.2,0,0,1,2.2,2.5,2.2,2.2,0,0,1-2.2,2.5,2.1,2.1,0,0,1-1.6-.8v.7h-.7Zm2.2,6.1c.9,0,1.5-.8,1.5-1.9s-.6-1.9-1.5-1.9a2,2,0,0,0-1.5.8v2.2A2,2,0,0,0,249.1,198.4Z"/><path d="M254.7,194c1.5,0,2.3,1.1,2.3,2.6v.2h-3.9a1.7,1.7,0,0,0,1.8,1.6,2.2,2.2,0,0,0,1.5-.6l.3.5a2.5,2.5,0,0,1-1.9.7,2.5,2.5,0,0,1-.1-5Zm-1.6,2.2h3.2a1.6,1.6,0,0,0-1.6-1.6A1.7,1.7,0,0,0,253.1,196.2Z"/><path d="M263.8,198.4a2.1,2.1,0,0,1-1.6.6,1.5,1.5,0,0,1-1.6-1.6,1.5,1.5,0,0,1,1.6-1.5,2,2,0,0,1,1.6.6v-.9c0-.6-.5-1-1.2-1a1.9,1.9,0,0,0-1.5.7l-.3-.5a2.2,2.2,0,0,1,1.9-.8c1,0,1.9.4,1.9,1.6v3.3h-.8Zm0-1.4a1.5,1.5,0,0,0-1.3-.6,1.1,1.1,0,0,0-1.2,1.1c0,.6.5,1,1.2,1a1.5,1.5,0,0,0,1.3-.6Z"/><path d="M269,195l-1.2,3.9H267l-1.5-4.8h.7l1.2,3.8,1.3-3.8h.6l1.3,3.8,1.2-3.8h.8l-1.6,4.8h-.7Z"/><path d="M276.5,198.4a2.3,2.3,0,0,1-1.6.6,1.5,1.5,0,0,1-1.7-1.6,1.5,1.5,0,0,1,1.7-1.5,2.3,2.3,0,0,1,1.6.6v-.9c0-.6-.6-1-1.3-1a1.7,1.7,0,0,0-1.4.7l-.4-.5a2.2,2.2,0,0,1,1.9-.8c1.1,0,1.9.4,1.9,1.6v3.3h-.7Zm0-1.4a1.7,1.7,0,0,0-1.4-.6,1.1,1.1,0,0,0-1.2,1.1c0,.6.5,1,1.2,1a1.7,1.7,0,0,0,1.4-.6Z"/><path d="M278.7,194.1h.8v.8a1.9,1.9,0,0,1,1.6-.9v.8h-.3a1.7,1.7,0,0,0-1.3.8v3.4h-.8Z"/><path d="M284.1,194c1.5,0,2.3,1.1,2.3,2.6v.2h-3.9a1.7,1.7,0,0,0,1.7,1.6,1.9,1.9,0,0,0,1.5-.6l.4.5a2.5,2.5,0,0,1-1.9.7,2.5,2.5,0,0,1-.1-5Zm-1.6,2.2h3.2a1.6,1.6,0,0,0-1.6-1.6A1.7,1.7,0,0,0,282.5,196.2Z"/><path d="M289.9,196.5a2.4,2.4,0,0,1,2.4-2.5,2.5,2.5,0,0,1,0,5A2.4,2.4,0,0,1,289.9,196.5Zm4,0a1.6,1.6,0,1,0-1.6,1.9A1.7,1.7,0,0,0,293.9,196.5Z"/><path d="M296.1,194.8h-.8v-.7h.8v-.4a1.3,1.3,0,0,1,1.4-1.5h.8l-.2.6h-.5c-.4,0-.7.3-.7.9v.4h1v.7h-1v4.1h-.8Z"/><path d="M301.5,197.9v-3.1h-.8v-.7h.8v-1.3h.7v1.3h1v.7h-1v3a.6.6,0,0,0,.5.6l.5-.2.3.5a1.2,1.2,0,0,1-.9.3A1,1,0,0,1,301.5,197.9Z"/><path d="M307.5,195.7c0-.8-.4-1.1-1-1.1a2,2,0,0,0-1.5.8v3.5h-.7v-6.6h.7v2.5a2.5,2.5,0,0,1,1.8-.8,1.3,1.3,0,0,1,1.5,1.5v3.4h-.8Z"/><path d="M311.9,194c1.5,0,2.3,1.1,2.3,2.6v.2h-3.9a1.7,1.7,0,0,0,1.7,1.6,1.9,1.9,0,0,0,1.5-.6l.4.5a2.5,2.5,0,0,1-1.9.7,2.5,2.5,0,0,1-.1-5Zm-1.6,2.2h3.2a1.6,1.6,0,0,0-1.6-1.6A1.6,1.6,0,0,0,310.3,196.2Z"/><path d="M180.4,210.2a1.8,1.8,0,0,1-1.6.8,2.2,2.2,0,0,1-2.2-2.5,2.2,2.2,0,0,1,2.2-2.5,2.1,2.1,0,0,1,1.6.8v-2.5h.8v6.6h-.8Zm0-2.8a1.8,1.8,0,0,0-1.4-.8c-1,0-1.6.8-1.6,1.9s.6,1.9,1.6,1.9a1.8,1.8,0,0,0,1.4-.8Z"/><path d="M185.7,210.4a2.3,2.3,0,0,1-1.6.6,1.6,1.6,0,0,1-1.7-1.6,1.6,1.6,0,0,1,1.7-1.5,2.3,2.3,0,0,1,1.6.6v-.9c0-.6-.5-1-1.2-1a1.8,1.8,0,0,0-1.5.7l-.4-.5a2.6,2.6,0,0,1,2-.8c1,0,1.8.4,1.8,1.6v3.3h-.7Zm0-1.4a1.6,1.6,0,0,0-1.3-.6,1.1,1.1,0,0,0-1.2,1.1c0,.6.5,1,1.2,1a1.6,1.6,0,0,0,1.3-.6Z"/><path d="M191.2,207.8c0-.9-.4-1.2-1.1-1.2a1.8,1.8,0,0,0-1.4.8v3.5h-.8v-4.8h.8v.7a2.3,2.3,0,0,1,1.7-.8,1.3,1.3,0,0,1,1.5,1.5v3.4h-.7Z"/><path d="M193.8,211.6a1.9,1.9,0,0,0,1.6.7,1.4,1.4,0,0,0,1.5-1.5v-.7a1.9,1.9,0,0,1-1.6.9,2.2,2.2,0,0,1-2.1-2.5c0-1.6.8-2.5,2.1-2.5a1.9,1.9,0,0,1,1.6.8v-.7h.8v4.7c0,1.6-1.1,2.1-2.3,2.1a2.9,2.9,0,0,1-2-.7Zm3.1-4.2a1.7,1.7,0,0,0-1.4-.8c-1,0-1.6.8-1.6,1.9a1.6,1.6,0,0,0,1.6,1.8,1.5,1.5,0,0,0,1.4-.8Z"/><path d="M201.3,206a2.3,2.3,0,0,1,2.3,2.6v.2h-3.9a1.7,1.7,0,0,0,1.7,1.6,2,2,0,0,0,1.5-.6l.4.5a2.5,2.5,0,0,1-1.9.7,2.4,2.4,0,0,1-2.5-2.5A2.4,2.4,0,0,1,201.3,206Zm-1.6,2.2h3.2a1.6,1.6,0,0,0-3.2,0Z"/><path d="M204.8,206.1h.8v.8a2,2,0,0,1,1.6-.9v.8h-.3a1.7,1.7,0,0,0-1.3.8v3.4h-.8Z"/><path d="M208.1,209.7a2,2,0,0,0,1.6.7c.7,0,1.1-.3,1.1-.8s-.6-.7-1.2-.8-1.8-.4-1.8-1.4.7-1.4,1.8-1.4a2.5,2.5,0,0,1,1.8.7l-.3.5a1.9,1.9,0,0,0-1.5-.6c-.6,0-1,.3-1,.7s.5.6,1.1.8,1.8.4,1.8,1.5-.6,1.4-1.9,1.4a2.6,2.6,0,0,1-1.9-.7Z"/><path d="M218.4,210.4a2.3,2.3,0,0,1-1.6.6,1.5,1.5,0,0,1-1.7-1.6,1.5,1.5,0,0,1,1.7-1.5,2.3,2.3,0,0,1,1.6.6v-.9c0-.6-.6-1-1.3-1a1.7,1.7,0,0,0-1.4.7l-.4-.5a2.4,2.4,0,0,1,1.9-.8c1.1,0,1.9.4,1.9,1.6v3.3h-.7Zm0-1.4a1.7,1.7,0,0,0-1.4-.6,1.1,1.1,0,0,0-1.2,1.1c0,.6.5,1,1.2,1a1.7,1.7,0,0,0,1.4-.6Z"/><path d="M223.9,207.8c0-.9-.5-1.2-1.1-1.2a1.7,1.7,0,0,0-1.4.8v3.5h-.8v-4.8h.8v.7a2.3,2.3,0,0,1,1.7-.8,1.3,1.3,0,0,1,1.5,1.5v3.4h-.7Z"/><path d="M229.6,210.2a1.8,1.8,0,0,1-1.6.8,2.2,2.2,0,0,1-2.2-2.5A2.2,2.2,0,0,1,228,206a2.1,2.1,0,0,1,1.6.8v-2.5h.8v6.6h-.8Zm0-2.8a1.7,1.7,0,0,0-1.4-.8c-1,0-1.6.8-1.6,1.9s.6,1.9,1.6,1.9a1.7,1.7,0,0,0,1.4-.8Z"/><path d="M236,208.8l-.8.7v1.4h-.7v-6.6h.7v4.4l2.5-2.6h1l-2.1,2.2,2.1,2.6h-1Z"/><path d="M241.5,206a2.3,2.3,0,0,1,2.3,2.6v.2h-3.9a1.6,1.6,0,0,0,1.7,1.6,2,2,0,0,0,1.5-.6l.4.5a2.7,2.7,0,0,1-2,.7,2.3,2.3,0,0,1-2.4-2.5A2.4,2.4,0,0,1,241.5,206Zm-1.6,2.2H243a1.5,1.5,0,0,0-1.5-1.6A1.6,1.6,0,0,0,239.9,208.2Z"/><path d="M247.1,206c1.5,0,2.3,1.1,2.3,2.6v.2h-3.9a1.7,1.7,0,0,0,1.7,1.6,1.9,1.9,0,0,0,1.5-.6l.4.5a2.5,2.5,0,0,1-1.9.7,2.4,2.4,0,0,1-2.5-2.5A2.4,2.4,0,0,1,247.1,206Zm-1.6,2.2h3.2a1.6,1.6,0,0,0-1.6-1.6A1.6,1.6,0,0,0,245.5,208.2Z"/><path d="M250.6,212.8v-6.7h.8v.7a1.8,1.8,0,0,1,1.6-.8,2.5,2.5,0,0,1,0,5,1.9,1.9,0,0,1-1.6-.8v2.6Zm2.2-6.2a1.7,1.7,0,0,0-1.4.8v2.2a1.7,1.7,0,0,0,1.4.8c1,0,1.6-.8,1.6-1.9S253.8,206.6,252.8,206.6Z"/><path d="M259.1,209.9v-3.1h-.8v-.7h.8v-1.3h.7v1.3h1v.7h-1v3a.6.6,0,0,0,.5.6l.5-.2.3.5a1.2,1.2,0,0,1-.9.3A1,1,0,0,1,259.1,209.9Z"/><path d="M265.2,207.7a1,1,0,0,0-1.1-1.1,2,2,0,0,0-1.5.8v3.5h-.7v-6.6h.7v2.5a2.5,2.5,0,0,1,1.8-.8,1.3,1.3,0,0,1,1.5,1.5v3.4h-.7Z"/><path d="M269.5,206c1.5,0,2.3,1.1,2.3,2.6v.2h-3.9a1.7,1.7,0,0,0,1.8,1.6,1.8,1.8,0,0,0,1.4-.6l.4.5a2.5,2.5,0,0,1-1.9.7,2.5,2.5,0,0,1-.1-5Zm-1.6,2.2h3.2a1.6,1.6,0,0,0-1.6-1.6A1.7,1.7,0,0,0,267.9,208.2Z"/><path d="M272.9,204.8a.5.5,0,1,1,.5.5A.5.5,0,0,1,272.9,204.8Zm.1,1.3h.8v4.8H273Z"/><path d="M275.3,206.1h.7v.8a2.2,2.2,0,0,1,1.6-.9v.8c0-.1-.1-.1-.3-.1a2,2,0,0,0-1.3.8v3.4h-.7Z"/><path d="M284.2,210.4a2.3,2.3,0,0,1-1.6.6,1.6,1.6,0,0,1-1.7-1.6,1.6,1.6,0,0,1,1.7-1.5,2.3,2.3,0,0,1,1.6.6v-.9c0-.6-.5-1-1.2-1a1.8,1.8,0,0,0-1.5.7l-.4-.5a2.6,2.6,0,0,1,2-.8c1,0,1.8.4,1.8,1.6v3.3h-.7Zm0-1.4a1.6,1.6,0,0,0-1.3-.6,1.1,1.1,0,0,0-1.2,1.1c0,.6.5,1,1.2,1a1.6,1.6,0,0,0,1.3-.6Z"/><path d="M286.6,209.9v-3.1h-.8v-.7h.8v-1.3h.7v1.3h1v.7h-1v3a.6.6,0,0,0,.5.6l.5-.2.3.5a1.2,1.2,0,0,1-.9.3A1,1,0,0,1,286.6,209.9Z"/><path d="M289.5,209.9v-3.1h-.8v-.7h.8v-1.3h.8v1.3h1v.7h-1v3c0,.3.1.6.5.6l.5-.2.2.5a1.2,1.2,0,0,1-.9.3A1,1,0,0,1,289.5,209.9Z"/><path d="M294.4,206c1.5,0,2.3,1.1,2.3,2.6v.2h-3.9a1.7,1.7,0,0,0,1.8,1.6,1.8,1.8,0,0,0,1.4-.6l.4.5a2.5,2.5,0,0,1-1.9.7,2.5,2.5,0,0,1-.1-5Zm-1.6,2.2H296a1.6,1.6,0,0,0-1.6-1.6A1.7,1.7,0,0,0,292.8,208.2Z"/><path d="M301.2,207.8c0-.9-.4-1.2-1.1-1.2a1.8,1.8,0,0,0-1.4.8v3.5h-.8v-4.8h.8v.7a2.3,2.3,0,0,1,1.7-.8,1.3,1.3,0,0,1,1.5,1.5v3.4h-.7Z"/><path d="M303,208.2h2.4v.6H303Z"/><path d="M177.1,221.9v-3.1h-.8v-.7h.8v-1.3h.7v1.3h1v.7h-1v3a.6.6,0,0,0,.5.6l.5-.2.2.5a1.1,1.1,0,0,1-.9.3C177.4,223,177.1,222.6,177.1,221.9Z"/><path d="M179.7,216.8a.5.5,0,0,1,.5-.5.5.5,0,0,1,0,1A.5.5,0,0,1,179.7,216.8Zm.2,1.3h.7v4.8h-.7Z"/><path d="M181.8,220.5a2.4,2.4,0,1,1,2.4,2.5A2.3,2.3,0,0,1,181.8,220.5Zm4,0a1.6,1.6,0,1,0-1.6,1.9A1.7,1.7,0,0,0,185.8,220.5Z"/><path d="M191.1,219.8c0-.9-.4-1.2-1.1-1.2a1.8,1.8,0,0,0-1.4.8v3.5h-.8v-4.8h.8v.7a2.3,2.3,0,0,1,1.7-.8,1.3,1.3,0,0,1,1.5,1.5v3.4h-.7Z"/><path d="M195.6,220.5A2.4,2.4,0,0,1,198,218a2.5,2.5,0,0,1,0,5A2.4,2.4,0,0,1,195.6,220.5Zm4,0c0-1-.5-1.9-1.6-1.9a1.9,1.9,0,0,0,0,3.8C199.1,222.4,199.6,221.5,199.6,220.5Z"/><path d="M204.9,219.8c0-.9-.4-1.2-1.1-1.2a1.8,1.8,0,0,0-1.4.8v3.5h-.8v-4.8h.8v.7a2.3,2.3,0,0,1,1.7-.8,1.3,1.3,0,0,1,1.5,1.5v3.4h-.7Z"/><path d="M209.9,221.9v-3.1h-.8v-.7h.8v-1.3h.7v1.3h1v.7h-1v3a.6.6,0,0,0,.5.6l.5-.2.2.5q-.2.3-.9.3C210.2,223,209.9,222.6,209.9,221.9Z"/><path d="M215.9,219.7a1,1,0,0,0-1.1-1.1,2,2,0,0,0-1.4.8v3.5h-.7v-6.6h.7v2.5a2.5,2.5,0,0,1,1.7-.8,1.4,1.4,0,0,1,1.6,1.5v3.4h-.8Z"/><path d="M220.3,218a2.3,2.3,0,0,1,2.3,2.6v.2h-3.9a1.7,1.7,0,0,0,1.7,1.6,2,2,0,0,0,1.5-.6l.4.5a2.6,2.6,0,0,1-1.9.7,2.4,2.4,0,0,1-2.5-2.5A2.4,2.4,0,0,1,220.3,218Zm-1.6,2.2h3.2a1.6,1.6,0,0,0-3.2,0Z"/><path d="M226.4,218.1h.7v.8a2.2,2.2,0,0,1,1.7-.9v.8h-.3a2,2,0,0,0-1.4.8v3.4h-.7Z"/><path d="M229.4,220.5a2.4,2.4,0,1,1,2.4,2.5A2.3,2.3,0,0,1,229.4,220.5Zm4,0a1.6,1.6,0,1,0-1.6,1.9A1.7,1.7,0,0,0,233.4,220.5Z"/><path d="M238.4,222.4a2.1,2.1,0,0,1-1.6.6,1.6,1.6,0,0,1-1.7-1.6,1.6,1.6,0,0,1,1.7-1.5,2.1,2.1,0,0,1,1.6.6v-.9c0-.6-.5-1-1.2-1a1.9,1.9,0,0,0-1.5.7l-.3-.5a2.2,2.2,0,0,1,1.9-.8c1,0,1.9.4,1.9,1.6v3.3h-.8Zm0-1.4a1.6,1.6,0,0,0-1.3-.6,1.1,1.1,0,0,0-1.2,1.1c0,.6.5,1,1.2,1a1.6,1.6,0,0,0,1.3-.6Z"/><path d="M244.2,222.2a2.1,2.1,0,0,1-1.6.8,2.2,2.2,0,0,1-2.2-2.5,2.2,2.2,0,0,1,2.2-2.5,2.1,2.1,0,0,1,1.6.8v-2.5h.7v6.6h-.7Zm0-2.8a2,2,0,0,0-1.5-.8c-.9,0-1.5.8-1.5,1.9s.6,1.9,1.5,1.9a2,2,0,0,0,1.5-.8Z"/><path d="M246.3,223.9a1.3,1.3,0,0,0,.6-.9h-.1a.5.5,0,0,1-.5-.5.6.6,0,0,1,.5-.6c.3,0,.6.3.6.8a1.8,1.8,0,0,1-.8,1.5Z"/><path d="M254.6,219.8c0-.9-.5-1.2-1.1-1.2a1.7,1.7,0,0,0-1.4.8v3.5h-.8v-4.8h.8v.7a2.3,2.3,0,0,1,1.7-.8,1.3,1.3,0,0,1,1.5,1.5v3.4h-.7Z"/><path d="M256.5,220.5a2.4,2.4,0,0,1,2.4-2.5,2.5,2.5,0,0,1,0,5A2.4,2.4,0,0,1,256.5,220.5Zm4,0c0-1-.5-1.9-1.6-1.9a1.9,1.9,0,0,0,0,3.8C260,222.4,260.5,221.5,260.5,220.5Z"/><path d="M262.7,221.9v-3.1h-.8v-.7h.8v-1.3h.7v1.3h1v.7h-1v3a.6.6,0,0,0,.5.6l.5-.2.3.5a1.2,1.2,0,0,1-.9.3A1,1,0,0,1,262.7,221.9Z"/><path d="M267.8,220.5a2.3,2.3,0,0,1,2.4-2.5,2.5,2.5,0,0,1,0,5A2.3,2.3,0,0,1,267.8,220.5Zm4,0a1.7,1.7,0,0,0-1.6-1.9c-1.1,0-1.6.9-1.6,1.9s.5,1.9,1.6,1.9A1.7,1.7,0,0,0,271.8,220.5Z"/><path d="M277,219.8c0-.9-.4-1.2-1-1.2a2,2,0,0,0-1.5.8v3.5h-.7v-4.8h.7v.7a2.5,2.5,0,0,1,1.7-.8c1.1,0,1.6.5,1.6,1.5v3.4H277Z"/><path d="M282,221.9v-3.1h-.8v-.7h.8v-1.3h.8v1.3h.9v.7h-.9v3c0,.3.1.6.5.6l.5-.2.2.5a1.2,1.2,0,0,1-.9.3A1,1,0,0,1,282,221.9Z"/><path d="M288.1,219.7a1,1,0,0,0-1.1-1.1,1.7,1.7,0,0,0-1.4.8v3.5h-.8v-6.6h.8v2.5a2.3,2.3,0,0,1,1.7-.8,1.3,1.3,0,0,1,1.5,1.5v3.4h-.7Z"/><path d="M292.4,218c1.5,0,2.3,1.1,2.3,2.6v.2h-3.9a1.7,1.7,0,0,0,1.8,1.6,2.2,2.2,0,0,0,1.5-.6l.3.5a2.5,2.5,0,0,1-1.9.7,2.5,2.5,0,0,1-.1-5Zm-1.6,2.2H294a1.6,1.6,0,0,0-1.6-1.6A1.7,1.7,0,0,0,290.8,220.2Z"/><path d="M295.8,216.8a.5.5,0,0,1,.5-.5.5.5,0,0,1,0,1A.5.5,0,0,1,295.8,216.8Zm.2,1.3h.7v4.8H296Z"/><path d="M298.2,218.1h.8v.8a1.9,1.9,0,0,1,1.6-.9v.8h-.3a1.7,1.7,0,0,0-1.3.8v3.4h-.8Z"/><path d="M179,230a2.1,2.1,0,0,1,1.8.8l-.5.5a1.3,1.3,0,0,0-1.2-.7,1.9,1.9,0,0,0,0,3.8,1.3,1.3,0,0,0,1.2-.7l.5.5a2.1,2.1,0,0,1-1.8.8,2.5,2.5,0,0,1,0-5Z"/><path d="M184,230a2.3,2.3,0,0,1,2.3,2.6v.2h-3.9a1.6,1.6,0,0,0,1.7,1.6,2,2,0,0,0,1.5-.6l.4.5a2.7,2.7,0,0,1-2,.7,2.3,2.3,0,0,1-2.4-2.5A2.4,2.4,0,0,1,184,230Zm-1.6,2.2h3.1a1.5,1.5,0,0,0-1.5-1.6A1.6,1.6,0,0,0,182.4,232.2Z"/><path d="M187.5,228.3h.7v6.6h-.7Z"/><path d="M189.7,228.3h.8v6.6h-.8Z"/><path d="M194.6,236.8v-6.7h.7v.7a2.1,2.1,0,0,1,1.7-.8c1.2,0,2.1.9,2.1,2.5s-.9,2.5-2.1,2.5a2.1,2.1,0,0,1-1.7-.8v2.6Zm2.2-6.2a2,2,0,0,0-1.5.8v2.2a2,2,0,0,0,1.5.8c.9,0,1.5-.8,1.5-1.9S197.7,230.6,196.8,230.6Z"/><path d="M203.6,231.7a1,1,0,0,0-1.1-1.1,1.8,1.8,0,0,0-1.4.8v3.5h-.8v-6.6h.8v2.5a2.3,2.3,0,0,1,1.7-.8,1.3,1.3,0,0,1,1.5,1.5v3.4h-.7Z"/><path d="M205.6,232.5a2.4,2.4,0,1,1,2.3,2.5A2.3,2.3,0,0,1,205.6,232.5Zm3.9,0c0-1-.5-1.9-1.6-1.9a1.9,1.9,0,0,0,0,3.8C209,234.4,209.5,233.5,209.5,232.5Z"/><path d="M214.8,231.8c0-.9-.4-1.2-1.1-1.2a1.8,1.8,0,0,0-1.4.8v3.5h-.7v-4.8h.7v.7a2.3,2.3,0,0,1,1.7-.8,1.4,1.4,0,0,1,1.6,1.5v3.4h-.8Z"/><path d="M219.2,230a2.3,2.3,0,0,1,2.3,2.6v.2h-3.9a1.6,1.6,0,0,0,1.7,1.6,2,2,0,0,0,1.5-.6l.4.5a2.7,2.7,0,0,1-2,.7,2.3,2.3,0,0,1-2.4-2.5A2.4,2.4,0,0,1,219.2,230Zm-1.6,2.2h3.1a1.5,1.5,0,0,0-1.5-1.6A1.6,1.6,0,0,0,217.6,232.2Z"/><path d="M222.7,233.7a2,2,0,0,0,1.6.7c.7,0,1.1-.3,1.1-.8s-.6-.7-1.2-.8-1.8-.4-1.8-1.4.7-1.4,1.8-1.4a2.5,2.5,0,0,1,1.8.7l-.4.5a1.6,1.6,0,0,0-1.4-.6c-.7,0-1.1.3-1.1.7s.6.6,1.2.8,1.8.4,1.8,1.5-.6,1.4-1.9,1.4a2.5,2.5,0,0,1-1.9-.7Z"/><path d="M229.6,232.5A2.4,2.4,0,0,1,232,230a2.5,2.5,0,0,1,0,5A2.4,2.4,0,0,1,229.6,232.5Zm4,0c0-1-.5-1.9-1.6-1.9a1.9,1.9,0,0,0,0,3.8C233.1,234.4,233.6,233.5,233.6,232.5Z"/><path d="M235.6,230.1h.8v.8a2,2,0,0,1,1.6-.9v.8h-.3a1.7,1.7,0,0,0-1.3.8v3.4h-.8Z"/><path d="M241.2,232.5a2.4,2.4,0,0,1,2.4-2.5,2.5,2.5,0,0,1,0,5A2.4,2.4,0,0,1,241.2,232.5Zm4,0c0-1-.5-1.9-1.6-1.9a1.9,1.9,0,0,0,0,3.8C244.7,234.4,245.2,233.5,245.2,232.5Z"/><path d="M247.4,233.9v-3.1h-.8v-.7h.8v-1.3h.7v1.3h1v.7h-1v3a.6.6,0,0,0,.5.6l.5-.2.3.5a1.2,1.2,0,0,1-.9.3A1,1,0,0,1,247.4,233.9Z"/><path d="M253.5,231.7a1,1,0,0,0-1.1-1.1,2,2,0,0,0-1.5.8v3.5h-.7v-6.6h.7v2.5a2.5,2.5,0,0,1,1.8-.8,1.3,1.3,0,0,1,1.5,1.5v3.4h-.7Z"/><path d="M257.8,230c1.5,0,2.3,1.1,2.3,2.6v.2h-3.9a1.7,1.7,0,0,0,1.8,1.6,1.8,1.8,0,0,0,1.4-.6l.4.5a2.5,2.5,0,0,1-1.9.7,2.5,2.5,0,0,1-.1-5Zm-1.6,2.2h3.2a1.6,1.6,0,0,0-1.6-1.6A1.7,1.7,0,0,0,256.2,232.2Z"/><path d="M261.3,230.1h.8v.8a2,2,0,0,1,1.6-.9v.8h-.3a1.7,1.7,0,0,0-1.3.8v3.4h-.8Z"/><path d="M273,231.6c0-.6-.2-1-.9-1a1.5,1.5,0,0,0-1.2.8v3.5h-.8v-3.3c0-.6-.2-1-.9-1a1.5,1.5,0,0,0-1.2.8v3.5h-.8v-4.8h.8v.7a2,2,0,0,1,1.5-.8,1.2,1.2,0,0,1,1.3.9,1.9,1.9,0,0,1,1.6-.9,1.3,1.3,0,0,1,1.4,1.4v3.5H273Z"/><path d="M275,232.5a2.4,2.4,0,1,1,2.4,2.5A2.3,2.3,0,0,1,275,232.5Zm4,0a1.6,1.6,0,1,0-1.6,1.9A1.7,1.7,0,0,0,279,232.5Z"/><path d="M281,228.3h.8v2.5a1.9,1.9,0,0,1,1.6-.8,2.2,2.2,0,0,1,2.1,2.5c0,1.6-.9,2.5-2.1,2.5a1.8,1.8,0,0,1-1.6-.8v.7H281Zm2.2,6.1c1,0,1.6-.8,1.6-1.9s-.6-1.9-1.6-1.9a1.7,1.7,0,0,0-1.4.8v2.2A1.7,1.7,0,0,0,283.2,234.4Z"/><path d="M286.6,228.8a.5.5,0,0,1,.5-.5.5.5,0,0,1,0,1A.5.5,0,0,1,286.6,228.8Zm.2,1.3h.7v4.8h-.7Z"/><path d="M289,228.3h.8v6.6H289Z"/><path d="M293.4,230a2.3,2.3,0,0,1,2.3,2.6v.2h-3.9a1.6,1.6,0,0,0,1.7,1.6,2,2,0,0,0,1.5-.6l.4.5a2.7,2.7,0,0,1-2,.7,2.3,2.3,0,0,1-2.4-2.5A2.4,2.4,0,0,1,293.4,230Zm-1.6,2.2h3.1a1.5,1.5,0,0,0-1.5-1.6A1.6,1.6,0,0,0,291.8,232.2Z"/><path d="M330.8,156.2a1.9,1.9,0,0,1-1.6.8,2.2,2.2,0,0,1-2.2-2.5,2.2,2.2,0,0,1,2.2-2.5,2.1,2.1,0,0,1,1.6.8v-2.5h.8v6.6h-.8Zm0-2.8a1.8,1.8,0,0,0-1.4-.8c-1,0-1.6.8-1.6,1.9s.6,1.9,1.6,1.9a1.8,1.8,0,0,0,1.4-.8Z"/><path d="M335.2,152a2.3,2.3,0,0,1,2.3,2.6v.2h-3.9a1.6,1.6,0,0,0,1.7,1.6,2,2,0,0,0,1.5-.6l.4.5a2.7,2.7,0,0,1-2,.7,2.3,2.3,0,0,1-2.4-2.5A2.4,2.4,0,0,1,335.2,152Zm-1.6,2.2h3.1a1.6,1.6,0,0,0-1.6-1.6A1.6,1.6,0,0,0,333.6,154.2Z"/><path d="M338,152.1h.8l1.6,4,1.6-4h.8l-2,4.8H340Z"/><path d="M343.5,150.8a.5.5,0,0,1,.5-.5.5.5,0,0,1,0,1A.5.5,0,0,1,343.5,150.8Zm.1,1.3h.7v4.8h-.7Z"/><path d="M348,152a1.9,1.9,0,0,1,1.7.8l-.5.5a1.3,1.3,0,0,0-1.2-.7,1.9,1.9,0,0,0,0,3.8,1.3,1.3,0,0,0,1.2-.7l.5.5a1.9,1.9,0,0,1-1.7.8,2.5,2.5,0,0,1,0-5Z"/><path d="M352.9,152a2.3,2.3,0,0,1,2.3,2.6v.2h-3.9a1.7,1.7,0,0,0,1.7,1.6,2,2,0,0,0,1.5-.6l.4.5a2.5,2.5,0,0,1-1.9.7,2.4,2.4,0,0,1-2.5-2.5A2.4,2.4,0,0,1,352.9,152Zm-1.6,2.2h3.2a1.6,1.6,0,0,0-3.2,0Z"/><path d="M356.4,155.7a2,2,0,0,0,1.6.7c.7,0,1.1-.3,1.1-.8s-.6-.7-1.2-.8-1.8-.4-1.8-1.4.7-1.4,1.8-1.4a2.5,2.5,0,0,1,1.8.7l-.3.5a1.8,1.8,0,0,0-1.5-.6c-.6,0-1,.3-1,.7s.5.6,1.1.8,1.8.4,1.8,1.5-.6,1.4-1.9,1.4a2.6,2.6,0,0,1-1.9-.7Z"/><path d="M361.5,155.9a.6.6,0,0,1,.5.6.5.5,0,0,1-.5.5.6.6,0,0,1-.6-.5A.6.6,0,0,1,361.5,155.9Z"/><path d="M369.6,151.5l-1.5,5.4h-.9l-1.9-6.6h1l1.4,5.5,1.6-5.5h.7l1.5,5.5,1.5-5.5h.9l-1.9,6.6h-.9Z"/><path d="M376.5,152a2.3,2.3,0,0,1,2.3,2.6v.2h-3.9a1.7,1.7,0,0,0,1.7,1.6,2,2,0,0,0,1.5-.6l.4.5a2.6,2.6,0,0,1-1.9.7,2.4,2.4,0,0,1-2.5-2.5A2.4,2.4,0,0,1,376.5,152Zm-1.6,2.2h3.2a1.6,1.6,0,0,0-1.6-1.6A1.6,1.6,0,0,0,374.9,154.2Z"/><path d="M385.9,153.7a1,1,0,0,0-1.1-1.1,2,2,0,0,0-1.5.8v3.5h-.7v-6.6h.7v2.5a2.5,2.5,0,0,1,1.8-.8,1.3,1.3,0,0,1,1.5,1.5v3.4h-.7Z"/><path d="M391.1,156.4a2.1,2.1,0,0,1-1.6.6,1.6,1.6,0,0,1-1.7-1.6,1.6,1.6,0,0,1,1.7-1.5,2.1,2.1,0,0,1,1.6.6v-.9c0-.6-.5-1-1.2-1a1.9,1.9,0,0,0-1.5.7l-.3-.5a2.2,2.2,0,0,1,1.9-.8c1,0,1.9.4,1.9,1.6v3.3h-.8Zm0-1.4a1.6,1.6,0,0,0-1.3-.6,1.1,1.1,0,0,0-1.2,1.1c0,.6.5,1,1.2,1a1.6,1.6,0,0,0,1.3-.6Z"/><path d="M392.7,152.1h.8l1.6,4,1.6-4h.8l-2,4.8h-.8Z"/><path d="M400.4,152a2.3,2.3,0,0,1,2.3,2.6v.2h-3.9a1.6,1.6,0,0,0,1.7,1.6,2,2,0,0,0,1.5-.6l.4.5a2.6,2.6,0,0,1-1.9.7,2.4,2.4,0,0,1-2.5-2.5A2.4,2.4,0,0,1,400.4,152Zm-1.6,2.2H402a1.6,1.6,0,0,0-1.6-1.6A1.6,1.6,0,0,0,398.8,154.2Z"/><path d="M410,156.2a2.1,2.1,0,0,1-1.6.8,2.2,2.2,0,0,1-2.2-2.5,2.2,2.2,0,0,1,2.2-2.5,2.1,2.1,0,0,1,1.6.8v-2.5h.7v6.6H410Zm0-2.8a2,2,0,0,0-1.5-.8c-.9,0-1.5.8-1.5,1.9s.6,1.9,1.5,1.9a2,2,0,0,0,1.5-.8Z"/><path d="M414.3,152a2.4,2.4,0,0,1,2.4,2.6v.2h-4a1.7,1.7,0,0,0,1.8,1.6,2.2,2.2,0,0,0,1.5-.6l.3.5a2.5,2.5,0,1,1-2-4.3Zm-1.6,2.2h3.2a1.6,1.6,0,0,0-1.6-1.6A1.7,1.7,0,0,0,412.7,154.2Z"/><path d="M417.1,152.1h.9l1.6,4,1.6-4h.8l-2,4.8h-.8Z"/><path d="M424.9,152a2.3,2.3,0,0,1,2.3,2.6v.2h-3.9a1.6,1.6,0,0,0,1.7,1.6,2,2,0,0,0,1.5-.6l.4.5a2.7,2.7,0,0,1-2,.7,2.3,2.3,0,0,1-2.4-2.5A2.4,2.4,0,0,1,424.9,152Zm-1.6,2.2h3.1a1.5,1.5,0,0,0-1.5-1.6A1.6,1.6,0,0,0,423.3,154.2Z"/><path d="M428.4,150.3h.7v6.6h-.7Z"/><path d="M430.4,154.5a2.4,2.4,0,1,1,2.4,2.5A2.3,2.3,0,0,1,430.4,154.5Zm4,0a1.7,1.7,0,1,0-1.6,1.9A1.7,1.7,0,0,0,434.4,154.5Z"/><path d="M436.4,158.8v-6.7h.7v.7a2.1,2.1,0,0,1,1.6-.8,2.5,2.5,0,0,1,0,5,2.1,2.1,0,0,1-1.6-.8v2.6Zm2.2-6.2a2,2,0,0,0-1.5.8v2.2a2,2,0,0,0,1.5.8c.9,0,1.5-.8,1.5-1.9S439.5,152.6,438.6,152.6Z"/><path d="M444.2,152c1.5,0,2.3,1.1,2.3,2.6v.2h-3.9a1.7,1.7,0,0,0,1.8,1.6,1.8,1.8,0,0,0,1.4-.6l.4.5a2.5,2.5,0,0,1-1.9.7,2.5,2.5,0,0,1-.1-5Zm-1.6,2.2h3.2a1.6,1.6,0,0,0-1.6-1.6A1.7,1.7,0,0,0,442.6,154.2Z"/><path d="M451.2,156.2a1.8,1.8,0,0,1-1.6.8c-1.3,0-2.1-.9-2.1-2.5s.8-2.5,2.1-2.5a1.9,1.9,0,0,1,1.6.8v-2.5h.8v6.6h-.8Zm0-2.8a1.7,1.7,0,0,0-1.4-.8c-1,0-1.6.8-1.6,1.9s.6,1.9,1.6,1.9a1.7,1.7,0,0,0,1.4-.8Z"/><path d="M327.5,167.9v-3.1h-.8v-.7h.8v-1.3h.7v1.3h1v.7h-1v3a.6.6,0,0,0,.5.6l.5-.2.2.5a1.1,1.1,0,0,1-.9.3C327.8,169,327.5,168.6,327.5,167.9Z"/><path d="M333.5,165.7a1,1,0,0,0-1.1-1.1,1.8,1.8,0,0,0-1.4.8v3.5h-.8v-6.6h.8v2.5a2.3,2.3,0,0,1,1.7-.8,1.4,1.4,0,0,1,1.6,1.5v3.4h-.8Z"/><path d="M337.9,164a2.3,2.3,0,0,1,2.3,2.6v.2h-3.9a1.6,1.6,0,0,0,1.7,1.6,2,2,0,0,0,1.5-.6l.4.5a2.7,2.7,0,0,1-2,.7,2.3,2.3,0,0,1-2.4-2.5A2.4,2.4,0,0,1,337.9,164Zm-1.6,2.2h3.1a1.5,1.5,0,0,0-1.5-1.6A1.6,1.6,0,0,0,336.3,166.2Z"/><path d="M347.5,168.2a2.1,2.1,0,0,1-1.7.8c-1.2,0-2.1-.9-2.1-2.5a2.2,2.2,0,0,1,2.1-2.5,2.1,2.1,0,0,1,1.7.8v-2.5h.7v6.6h-.7Zm0-2.8a2,2,0,0,0-1.5-.8c-.9,0-1.5.8-1.5,1.9s.6,1.9,1.5,1.9a2,2,0,0,0,1.5-.8Z"/><path d="M349.4,166.5a2.4,2.4,0,0,1,2.4-2.5,2.5,2.5,0,0,1,0,5A2.4,2.4,0,0,1,349.4,166.5Zm4,0c0-1-.5-1.9-1.6-1.9a1.9,1.9,0,0,0,0,3.8C352.9,168.4,353.4,167.5,353.4,166.5Z"/><path d="M358.7,165.8c0-.9-.4-1.2-1.1-1.2a1.8,1.8,0,0,0-1.4.8v3.5h-.8v-4.8h.8v.7a2.3,2.3,0,0,1,1.7-.8,1.4,1.4,0,0,1,1.6,1.5v3.4h-.8Z"/><path d="M360.7,164.1a2,2,0,0,0,.7-.9h-.2a.5.5,0,0,1-.5-.5.6.6,0,0,1,.6-.5c.3,0,.6.2.6.7a2,2,0,0,1-.8,1.5Z"/><path d="M363.3,167.9v-3.1h-.8v-.7h.8v-1.3h.8v1.3h1v.7h-1v3a.6.6,0,0,0,.5.6l.5-.2.2.5a1.1,1.1,0,0,1-.9.3A1,1,0,0,1,363.3,167.9Z"/><path d="M368.9,167.9v-3.1h-.8v-.7h.8v-1.3h.7v1.3h1v.7h-1v3a.6.6,0,0,0,.5.6l.5-.2.2.5a1.1,1.1,0,0,1-.9.3C369.2,169,368.9,168.6,368.9,167.9Z"/><path d="M373.3,166.9l-1.4,2H371l1.9-2.5-1.8-2.3h.9l1.3,1.8,1.4-1.8h.8l-1.7,2.3,1.9,2.5h-.9Z"/><path d="M376.7,167.9v-3.1h-.8v-.7h.8v-1.3h.7v1.3h1v.7h-1v3a.6.6,0,0,0,.5.6l.5-.2.2.5a1.1,1.1,0,0,1-.9.3C377,169,376.7,168.6,376.7,167.9Z"/><path d="M384.1,167.9h-.6v-2.1h-1.9v-.5h1.9v-2.1h.6v2.1H386v.5h-1.9Z"/><path d="M393.1,168.2a1.9,1.9,0,0,1-1.6.8,2.2,2.2,0,0,1-2.2-2.5,2.2,2.2,0,0,1,2.2-2.5,2.1,2.1,0,0,1,1.6.8v-2.5h.8v6.6h-.8Zm0-2.8a1.8,1.8,0,0,0-1.4-.8c-1,0-1.6.8-1.6,1.9s.6,1.9,1.6,1.9a1.8,1.8,0,0,0,1.4-.8Z"/><path d="M395.4,164.1h.7v.8a2.2,2.2,0,0,1,1.6-.9v.8h-.3a1.8,1.8,0,0,0-1.3.8v3.4h-.7Z"/><path d="M397.9,164.1h.8l1.7,4,1.6-4h.8l-2,4.8h-.9Z"/><path d="M408.3,164a1.9,1.9,0,0,1,1.7.8l-.5.5a1.3,1.3,0,0,0-1.2-.7,1.9,1.9,0,0,0,0,3.8,1.3,1.3,0,0,0,1.2-.7l.5.5a1.9,1.9,0,0,1-1.7.8,2.5,2.5,0,0,1,0-5Z"/><path d="M414.1,168.4a2.1,2.1,0,0,1-1.6.6,1.6,1.6,0,0,1-1.7-1.6,1.6,1.6,0,0,1,1.7-1.5,2.1,2.1,0,0,1,1.6.6v-.9c0-.6-.5-1-1.2-1a1.8,1.8,0,0,0-1.5.7l-.3-.5a2.2,2.2,0,0,1,1.9-.8c1,0,1.9.4,1.9,1.6v3.3h-.8Zm0-1.4a1.6,1.6,0,0,0-1.3-.6,1.1,1.1,0,0,0-1.2,1.1c0,.6.5,1,1.2,1a1.6,1.6,0,0,0,1.3-.6Z"/><path d="M422.2,165.6c0-.6-.3-1-.9-1a1.8,1.8,0,0,0-1.3.8v3.5h-.7v-3.3c0-.6-.3-1-.9-1a1.8,1.8,0,0,0-1.3.8v3.5h-.7v-4.8h.7v.7a2.2,2.2,0,0,1,1.6-.8,1.3,1.3,0,0,1,1.3.9,1.8,1.8,0,0,1,1.6-.9c.9,0,1.3.5,1.3,1.4v3.5h-.7Z"/><path d="M424.4,170.8v-6.7h.8v.7a1.8,1.8,0,0,1,1.6-.8,2.5,2.5,0,0,1,0,5,2.1,2.1,0,0,1-1.6-.8v2.6Zm2.2-6.2a1.7,1.7,0,0,0-1.4.8v2.2a1.7,1.7,0,0,0,1.4.8c1,0,1.6-.8,1.6-1.9S427.6,164.6,426.6,164.6Z"/><path d="M433.2,168.4a2.3,2.3,0,0,1-1.6.6,1.6,1.6,0,0,1-1.7-1.6,1.6,1.6,0,0,1,1.7-1.5,2.1,2.1,0,0,1,1.6.6v-.9c0-.6-.5-1-1.2-1a1.8,1.8,0,0,0-1.5.7l-.4-.5a2.6,2.6,0,0,1,2-.8c1,0,1.8.4,1.8,1.6v3.3h-.7Zm0-1.4a1.6,1.6,0,0,0-1.3-.6,1.1,1.1,0,0,0-1.2,1.1c0,.6.5,1,1.2,1a1.6,1.6,0,0,0,1.3-.6Z"/><path d="M435.3,162.8a.5.5,0,1,1,.5.5A.5.5,0,0,1,435.3,162.8Zm.1,1.3h.8v4.8h-.8Z"/><path d="M438.1,169.6a1.7,1.7,0,0,0,1.5.7,1.4,1.4,0,0,0,1.6-1.5v-.7a2.2,2.2,0,0,1-1.6.9,2.2,2.2,0,0,1-2.2-2.5,2.2,2.2,0,0,1,2.2-2.5,2.1,2.1,0,0,1,1.6.8v-.7h.7v4.7c0,1.6-1.1,2.1-2.3,2.1a2.6,2.6,0,0,1-1.9-.7Zm3.1-4.2a2,2,0,0,0-1.5-.8c-.9,0-1.5.8-1.5,1.9a1.6,1.6,0,0,0,1.5,1.8,1.8,1.8,0,0,0,1.5-.8Z"/><path d="M446.7,165.8c0-.9-.4-1.2-1.1-1.2a1.8,1.8,0,0,0-1.4.8v3.5h-.8v-4.8h.8v.7a2.3,2.3,0,0,1,1.7-.8,1.3,1.3,0,0,1,1.5,1.5v3.4h-.7Z"/><path d="M451.7,167.9v-3.1h-.8v-.7h.8v-1.3h.7v1.3h1v.7h-1v3a.6.6,0,0,0,.5.6l.5-.2.2.5q-.2.3-.9.3C452,169,451.7,168.6,451.7,167.9Z"/><path d="M454.2,166.5a2.3,2.3,0,0,1,2.4-2.5,2.5,2.5,0,0,1,0,5A2.3,2.3,0,0,1,454.2,166.5Zm4,0a1.7,1.7,0,0,0-1.6-1.9c-1.1,0-1.6.9-1.6,1.9s.5,1.9,1.6,1.9A1.7,1.7,0,0,0,458.2,166.5Z"/><path d="M330.6,177.7a1,1,0,0,0-1.1-1.1,1.7,1.7,0,0,0-1.4.8v3.5h-.8v-6.6h.8v2.5a2.3,2.3,0,0,1,1.7-.8,1.3,1.3,0,0,1,1.5,1.5v3.4h-.7Z"/><path d="M334.9,176c1.5,0,2.3,1.1,2.3,2.6v.2h-3.9a1.7,1.7,0,0,0,1.8,1.6,2.2,2.2,0,0,0,1.5-.6l.3.5a2.5,2.5,0,0,1-1.9.7,2.5,2.5,0,0,1-.1-5Zm-1.6,2.2h3.2a1.6,1.6,0,0,0-1.6-1.6A1.7,1.7,0,0,0,333.3,178.2Z"/><path d="M338.5,174.3h.7v6.6h-.7Z"/><path d="M340.7,182.8v-6.7h.8v.7a1.8,1.8,0,0,1,1.6-.8c1.3,0,2.1.9,2.1,2.5s-.8,2.5-2.1,2.5a1.8,1.8,0,0,1-1.6-.8v2.6Zm2.2-6.2a1.7,1.7,0,0,0-1.4.8v2.2a1.7,1.7,0,0,0,1.4.8c1,0,1.5-.8,1.5-1.9S343.9,176.6,342.9,176.6Z"/><path d="M351.1,176c1.5,0,2.3,1.1,2.3,2.6v.2h-3.9a1.7,1.7,0,0,0,1.8,1.6,2.2,2.2,0,0,0,1.5-.6l.3.5a2.5,2.5,0,0,1-1.9.7,2.5,2.5,0,0,1-.1-5Zm-1.6,2.2h3.2a1.6,1.6,0,0,0-1.6-1.6A1.7,1.7,0,0,0,349.5,178.2Z"/><path d="M358.2,180.2a2.1,2.1,0,0,1-1.7.8c-1.2,0-2.1-.9-2.1-2.5a2.2,2.2,0,0,1,2.1-2.5,2.1,2.1,0,0,1,1.7.8v-2.5h.7v6.6h-.7Zm0-2.8a2,2,0,0,0-1.5-.8c-1,0-1.5.8-1.5,1.9s.5,1.9,1.5,1.9a2,2,0,0,0,1.5-.8Z"/><path d="M363.7,180.2a2.2,2.2,0,0,1-1.8.8c-1,0-1.5-.4-1.5-1.5v-3.4h.8v3.2c0,.8.4,1.1,1,1.1a2,2,0,0,0,1.5-.8v-3.5h.7v4.8h-.7Z"/><path d="M368,176a2.1,2.1,0,0,1,1.8.8l-.5.5a1.3,1.3,0,0,0-1.2-.7,1.9,1.9,0,0,0,0,3.8,1.3,1.3,0,0,0,1.2-.7l.5.5a2.1,2.1,0,0,1-1.8.8,2.5,2.5,0,0,1,0-5Z"/><path d="M373.9,180.4a2.3,2.3,0,0,1-1.6.6,1.6,1.6,0,0,1-1.7-1.6,1.6,1.6,0,0,1,1.7-1.5,2.3,2.3,0,0,1,1.6.6v-.9c0-.6-.5-1-1.2-1a1.8,1.8,0,0,0-1.5.7l-.4-.5a2.6,2.6,0,0,1,2-.8c1,0,1.8.4,1.8,1.6v3.3h-.7Zm0-1.4a1.6,1.6,0,0,0-1.3-.6,1.1,1.1,0,0,0-1.2,1.1c0,.6.5,1,1.2,1a1.6,1.6,0,0,0,1.3-.6Z"/><path d="M376.3,179.9v-3.1h-.8v-.7h.8v-1.3h.7v1.3h1v.7h-1v3a.6.6,0,0,0,.5.6l.5-.2.3.5a1.2,1.2,0,0,1-.9.3A1,1,0,0,1,376.3,179.9Z"/><path d="M381.2,176a2.3,2.3,0,0,1,2.3,2.6v.2h-3.9a1.6,1.6,0,0,0,1.7,1.6,2,2,0,0,0,1.5-.6l.4.5a2.6,2.6,0,0,1-1.9.7,2.4,2.4,0,0,1-2.5-2.5A2.4,2.4,0,0,1,381.2,176Zm-1.6,2.2h3.2a1.6,1.6,0,0,0-1.6-1.6A1.6,1.6,0,0,0,379.6,178.2Z"/><path d="M389.4,176a2.1,2.1,0,0,1,1.8.8l-.5.5a1.3,1.3,0,0,0-1.2-.7,1.9,1.9,0,0,0,0,3.8,1.3,1.3,0,0,0,1.2-.7l.5.5a2.1,2.1,0,0,1-1.8.8,2.5,2.5,0,0,1,0-5Z"/><path d="M392,178.5a2.4,2.4,0,1,1,2.3,2.5A2.3,2.3,0,0,1,392,178.5Zm3.9,0c0-1-.5-1.9-1.6-1.9a1.9,1.9,0,0,0,0,3.8C395.4,180.4,395.9,179.5,395.9,178.5Z"/><path d="M403.8,177.6c0-.6-.3-1-.9-1a1.8,1.8,0,0,0-1.3.8v3.5h-.7v-3.3c0-.6-.3-1-.9-1a1.8,1.8,0,0,0-1.3.8v3.5H398v-4.8h.7v.7a2.2,2.2,0,0,1,1.6-.8,1.3,1.3,0,0,1,1.3.9,1.8,1.8,0,0,1,1.6-.9c.9,0,1.3.5,1.3,1.4v3.5h-.7Z"/><path d="M411.9,177.6c0-.6-.3-1-.9-1a1.7,1.7,0,0,0-1.3.8v3.5h-.8v-3.3c0-.6-.2-1-.8-1a1.7,1.7,0,0,0-1.3.8v3.5H406v-4.8h.8v.7a2,2,0,0,1,1.5-.8,1.2,1.2,0,0,1,1.3.9,2.1,2.1,0,0,1,1.7-.9,1.2,1.2,0,0,1,1.3,1.4v3.5h-.7Z"/><path d="M417.4,180.2a2.1,2.1,0,0,1-1.7.8c-1.1,0-1.6-.4-1.6-1.5v-3.4h.8v3.2c0,.8.4,1.1,1,1.1a2,2,0,0,0,1.5-.8v-3.5h.7v4.8h-.7Z"/><path d="M422.9,177.8c0-.9-.4-1.2-1.1-1.2a1.8,1.8,0,0,0-1.4.8v3.5h-.8v-4.8h.8v.7a2.3,2.3,0,0,1,1.7-.8,1.3,1.3,0,0,1,1.5,1.5v3.4h-.7Z"/><path d="M425,174.8a.5.5,0,1,1,.5.5A.5.5,0,0,1,425,174.8Zm.1,1.3h.8v4.8h-.8Z"/><path d="M427.5,179.9v-3.1h-.8v-.7h.8v-1.3h.8v1.3h1v.7h-1v3c0,.3.1.6.5.6l.5-.2.2.5a1.2,1.2,0,0,1-.9.3A1,1,0,0,1,427.5,179.9Z"/><path d="M430.2,174.8a.5.5,0,1,1,.5.5A.5.5,0,0,1,430.2,174.8Zm.1,1.3h.8v4.8h-.8Z"/><path d="M434.7,176a2.3,2.3,0,0,1,2.3,2.6v.2h-3.9a1.6,1.6,0,0,0,1.7,1.6,2,2,0,0,0,1.5-.6l.4.5a2.6,2.6,0,0,1-1.9.7,2.4,2.4,0,0,1-2.5-2.5A2.4,2.4,0,0,1,434.7,176Zm-1.6,2.2h3.2a1.6,1.6,0,0,0-1.6-1.6A1.6,1.6,0,0,0,433.1,178.2Z"/><path d="M438.2,179.7a2,2,0,0,0,1.6.7c.7,0,1.1-.3,1.1-.8s-.6-.7-1.2-.8-1.8-.4-1.8-1.4.7-1.4,1.8-1.4a2.5,2.5,0,0,1,1.8.7l-.3.5a1.9,1.9,0,0,0-1.5-.6c-.6,0-1.1.3-1.1.7s.6.6,1.2.8,1.8.4,1.8,1.5-.6,1.4-1.9,1.4a2.5,2.5,0,0,1-1.9-.7Z"/><path d="M448.5,180.4a2.3,2.3,0,0,1-1.6.6,1.5,1.5,0,0,1-1.7-1.6,1.5,1.5,0,0,1,1.7-1.5,2.3,2.3,0,0,1,1.6.6v-.9c0-.6-.6-1-1.3-1a1.7,1.7,0,0,0-1.4.7l-.4-.5a2.2,2.2,0,0,1,1.9-.8c1.1,0,1.9.4,1.9,1.6v3.3h-.7Zm0-1.4a1.7,1.7,0,0,0-1.4-.6,1.1,1.1,0,0,0-1.2,1.1c0,.6.5,1,1.2,1a1.7,1.7,0,0,0,1.4-.6Z"/><path d="M454,177.8c0-.9-.5-1.2-1.1-1.2a1.7,1.7,0,0,0-1.4.8v3.5h-.8v-4.8h.8v.7a2.3,2.3,0,0,1,1.7-.8,1.3,1.3,0,0,1,1.5,1.5v3.4H454Z"/><path d="M459.7,180.2a1.8,1.8,0,0,1-1.6.8,2.2,2.2,0,0,1-2.2-2.5,2.2,2.2,0,0,1,2.2-2.5,2.1,2.1,0,0,1,1.6.8v-2.5h.8v6.6h-.8Zm0-2.8a1.8,1.8,0,0,0-1.4-.8c-1,0-1.6.8-1.6,1.9s.6,1.9,1.6,1.9a1.8,1.8,0,0,0,1.4-.8Z"/><path d="M327.3,191.7a2,2,0,0,0,1.6.7c.7,0,1.1-.3,1.1-.8s-.6-.7-1.2-.8-1.8-.4-1.8-1.4.7-1.4,1.8-1.4a2.5,2.5,0,0,1,1.8.7l-.3.5a1.9,1.9,0,0,0-1.5-.6c-.6,0-1.1.3-1.1.7s.6.6,1.2.8,1.8.4,1.8,1.5-.6,1.4-1.9,1.4a2.6,2.6,0,0,1-1.9-.7Z"/><path d="M332.1,191.9v-3.1h-.8v-.7h.8v-1.3h.8v1.3h.9v.7h-.9v3c0,.3.1.6.4.6a.8.8,0,0,0,.6-.2l.2.5a1.2,1.2,0,0,1-.9.3A1,1,0,0,1,332.1,191.9Z"/><path d="M334.6,190.5A2.4,2.4,0,1,1,337,193,2.3,2.3,0,0,1,334.6,190.5Zm4,0a1.6,1.6,0,1,0-1.6,1.9A1.7,1.7,0,0,0,338.6,190.5Z"/><path d="M340.6,194.8v-6.7h.8v.7a1.8,1.8,0,0,1,1.6-.8c1.3,0,2.1.9,2.1,2.5s-.8,2.5-2.1,2.5a1.9,1.9,0,0,1-1.6-.8v2.6Zm2.2-6.2a1.7,1.7,0,0,0-1.4.8v2.2a1.7,1.7,0,0,0,1.4.8c1,0,1.6-.8,1.6-1.9S343.8,188.6,342.8,188.6Z"/><path d="M348.9,194.8v-6.7h.8v.7a1.8,1.8,0,0,1,1.6-.8,2.5,2.5,0,0,1,0,5,2.1,2.1,0,0,1-1.6-.8v2.6Zm2.2-6.2a1.7,1.7,0,0,0-1.4.8v2.2a1.7,1.7,0,0,0,1.4.8c1,0,1.6-.8,1.6-1.9S352.1,188.6,351.1,188.6Z"/><path d="M354.7,188.1h.7v.8a2.2,2.2,0,0,1,1.6-.9v.8h-.3a1.8,1.8,0,0,0-1.3.8v3.4h-.7Z"/><path d="M360.1,188a2.3,2.3,0,0,1,2.3,2.6v.2h-3.9a1.7,1.7,0,0,0,1.7,1.6,2,2,0,0,0,1.5-.6l.4.5a2.6,2.6,0,0,1-1.9.7,2.4,2.4,0,0,1-2.5-2.5A2.4,2.4,0,0,1,360.1,188Zm-1.6,2.2h3.2a1.6,1.6,0,0,0-1.6-1.6A1.6,1.6,0,0,0,358.5,190.2Z"/><path d="M362.9,188.1h.8l1.6,4,1.6-4h.8l-2,4.8h-.8Z"/><path d="M370.6,188c1.5,0,2.3,1.1,2.3,2.6v.2H369a1.7,1.7,0,0,0,1.8,1.6,1.8,1.8,0,0,0,1.4-.6l.4.5a2.5,2.5,0,0,1-1.9.7,2.5,2.5,0,0,1-.1-5Zm-1.6,2.2h3.2a1.6,1.6,0,0,0-1.6-1.6A1.7,1.7,0,0,0,369,190.2Z"/><path d="M377.4,189.8c0-.9-.4-1.2-1.1-1.2a1.8,1.8,0,0,0-1.4.8v3.5h-.8v-4.8h.8v.7a2.3,2.3,0,0,1,1.7-.8,1.3,1.3,0,0,1,1.5,1.5v3.4h-.7Z"/><path d="M379.8,191.9v-3.1H379v-.7h.8v-1.3h.8v1.3h.9v.7h-.9v3c0,.3.1.6.4.6l.5-.2.3.5a1.2,1.2,0,0,1-.9.3A1,1,0,0,1,379.8,191.9Z"/><path d="M385.6,192.4a2.1,2.1,0,0,1-1.6.6,1.6,1.6,0,0,1-1.7-1.6,1.6,1.6,0,0,1,1.7-1.5,2.1,2.1,0,0,1,1.6.6v-.9c0-.6-.5-1-1.2-1a1.8,1.8,0,0,0-1.5.7l-.3-.5a2.2,2.2,0,0,1,1.9-.8c1,0,1.9.4,1.9,1.6v3.3h-.8Zm0-1.4a1.6,1.6,0,0,0-1.3-.6,1.1,1.1,0,0,0-1.2,1.1c0,.6.5,1,1.2,1a1.6,1.6,0,0,0,1.3-.6Z"/><path d="M387.9,186.3h.7v2.5a2.1,2.1,0,0,1,1.6-.8,2.2,2.2,0,0,1,2.2,2.5,2.2,2.2,0,0,1-2.2,2.5,2.1,2.1,0,0,1-1.6-.8v.7h-.7Zm2.1,6.1c1,0,1.6-.8,1.6-1.9s-.6-1.9-1.6-1.9a2,2,0,0,0-1.4.8v2.2A2,2,0,0,0,390,192.4Z"/><path d="M393.6,186.3h.8v6.6h-.8Z"/><path d="M398,188a2.3,2.3,0,0,1,2.3,2.6v.2h-3.9a1.6,1.6,0,0,0,1.7,1.6,2,2,0,0,0,1.5-.6l.4.5a2.7,2.7,0,0,1-2,.7,2.3,2.3,0,0,1-2.4-2.5A2.4,2.4,0,0,1,398,188Zm-1.6,2.2h3.1a1.6,1.6,0,0,0-1.6-1.6A1.6,1.6,0,0,0,396.4,190.2Z"/><path d="M404.2,191.9v-3.1h-.8v-.7h.8v-1.3h.8v1.3h.9v.7H405v3c0,.3.1.6.5.6l.5-.2.2.5a1.2,1.2,0,0,1-.9.3A1,1,0,0,1,404.2,191.9Z"/><path d="M407,188.1h.8v.8a1.9,1.9,0,0,1,1.6-.9v.8h-.3a1.7,1.7,0,0,0-1.3.8v3.4H407Z"/><path d="M413.3,192.4a2.1,2.1,0,0,1-1.6.6,1.6,1.6,0,0,1-1.7-1.6,1.6,1.6,0,0,1,1.7-1.5,2.1,2.1,0,0,1,1.6.6v-.9c0-.6-.5-1-1.2-1a1.9,1.9,0,0,0-1.5.7l-.3-.5a2.2,2.2,0,0,1,1.9-.8c1,0,1.9.4,1.9,1.6v3.3h-.8Zm0-1.4a1.6,1.6,0,0,0-1.3-.6,1.1,1.1,0,0,0-1.2,1.1c0,.6.5,1,1.2,1a1.6,1.6,0,0,0,1.3-.6Z"/><path d="M415.9,193.6a1.9,1.9,0,0,0,1.6.7,1.4,1.4,0,0,0,1.6-1.5v-.7a2.1,2.1,0,0,1-3.8-1.6c0-1.6.9-2.5,2.1-2.5a2.1,2.1,0,0,1,1.7.8v-.7h.7v4.7c0,1.6-1.1,2.1-2.3,2.1a2.5,2.5,0,0,1-1.9-.7Zm3.2-4.2a2,2,0,0,0-1.5-.8c-.9,0-1.5.8-1.5,1.9a1.6,1.6,0,0,0,1.5,1.8,1.8,1.8,0,0,0,1.5-.8Z"/><path d="M423.4,188c1.5,0,2.3,1.1,2.3,2.6v.2h-3.9a1.7,1.7,0,0,0,1.8,1.6,2.2,2.2,0,0,0,1.5-.6l.3.5a2.5,2.5,0,0,1-1.9.7,2.5,2.5,0,0,1-.1-5Zm-1.6,2.2H425a1.6,1.6,0,0,0-1.6-1.6A1.7,1.7,0,0,0,421.8,190.2Z"/><path d="M430.4,192.2a1.8,1.8,0,0,1-1.6.8c-1.2,0-2.1-.9-2.1-2.5s.8-2.5,2.1-2.5a1.8,1.8,0,0,1,1.6.8v-2.5h.8v6.6h-.8Zm0-2.8a1.7,1.7,0,0,0-1.4-.8c-1,0-1.6.8-1.6,1.9s.6,1.9,1.6,1.9a1.7,1.7,0,0,0,1.4-.8Z"/><path d="M432.6,186.8a.5.5,0,0,1,.5-.5.5.5,0,0,1,0,1A.5.5,0,0,1,432.6,186.8Zm.1,1.3h.7v4.8h-.7Z"/><path d="M437,188a2.4,2.4,0,0,1,2.4,2.6v.2h-3.9a1.6,1.6,0,0,0,1.7,1.6,2.2,2.2,0,0,0,1.5-.6l.3.5a2.5,2.5,0,1,1-2-4.3Zm-1.5,2.2h3.1a1.6,1.6,0,0,0-1.6-1.6A1.6,1.6,0,0,0,435.5,190.2Z"/><path d="M440.5,191.7a2.4,2.4,0,0,0,1.6.7c.8,0,1.2-.3,1.2-.8s-.6-.7-1.3-.8-1.7-.4-1.7-1.4.6-1.4,1.8-1.4a2.5,2.5,0,0,1,1.8.7l-.4.5a1.7,1.7,0,0,0-1.4-.6c-.7,0-1.1.3-1.1.7s.6.6,1.2.8,1.8.4,1.8,1.5-.6,1.4-1.9,1.4a2.4,2.4,0,0,1-1.9-.7Z"/><path d="M445.6,191.9a.6.6,0,0,1,.6.6.6.6,0,0,1-.6.5.5.5,0,0,1-.5-.5A.6.6,0,0,1,445.6,191.9Z"/><path d="M327.3,204.3h4.4v.7h-3.5v2.1h3.4v.8h-3.4v2.3h3.5v.7h-4.4Z"/><path d="M336.5,210.2a2.1,2.1,0,0,1-1.6.8,2.2,2.2,0,0,1-2.2-2.5,2.2,2.2,0,0,1,2.2-2.5,2.1,2.1,0,0,1,1.6.8v-2.5h.7v6.6h-.7Zm0-2.8a2,2,0,0,0-1.5-.8c-.9,0-1.5.8-1.5,1.9s.6,1.9,1.5,1.9a2,2,0,0,0,1.5-.8Z"/><path d="M342,210.2a2.1,2.1,0,0,1-1.7.8c-1,0-1.6-.4-1.6-1.5v-3.4h.8v3.2a1,1,0,0,0,1.1,1.1,1.8,1.8,0,0,0,1.4-.8v-3.5h.8v4.8H342Z"/><path d="M346.4,206a2.1,2.1,0,0,1,1.8.8l-.5.5a1.6,1.6,0,0,0-1.3-.7c-1,0-1.6.8-1.6,1.9s.6,1.9,1.6,1.9a1.6,1.6,0,0,0,1.3-.7l.5.5a2.1,2.1,0,0,1-1.8.8,2.5,2.5,0,0,1,0-5Z"/><path d="M352.2,210.4a2.1,2.1,0,0,1-1.6.6,1.6,1.6,0,0,1-1.7-1.6,1.6,1.6,0,0,1,1.7-1.5,2.1,2.1,0,0,1,1.6.6v-.9c0-.6-.5-1-1.2-1a1.9,1.9,0,0,0-1.5.7l-.3-.5a2.2,2.2,0,0,1,1.9-.8c1,0,1.9.4,1.9,1.6v3.3h-.8Zm0-1.4a1.6,1.6,0,0,0-1.3-.6,1.1,1.1,0,0,0-1.2,1.1c0,.6.5,1,1.2,1a1.6,1.6,0,0,0,1.3-.6Z"/><path d="M354.6,209.9v-3.1h-.8v-.7h.8v-1.3h.8v1.3h1v.7h-1v3c0,.3.1.6.5.6l.5-.2.2.5a1.2,1.2,0,0,1-.9.3A1,1,0,0,1,354.6,209.9Z"/><path d="M359.5,206c1.5,0,2.3,1.1,2.3,2.6v.2h-3.9a1.7,1.7,0,0,0,1.8,1.6,2.2,2.2,0,0,0,1.5-.6l.3.5a2.5,2.5,0,0,1-1.9.7,2.5,2.5,0,0,1-.1-5Zm-1.6,2.2h3.2a1.6,1.6,0,0,0-1.6-1.6A1.7,1.7,0,0,0,357.9,208.2Z"/><path d="M365.9,212.2c.3,0,.5-.1.7-.5l.3-.7-2-4.9h.8l1.6,4,1.6-4h.8l-2.4,5.8a1.5,1.5,0,0,1-1.4,1h-.5v-.7Z"/><path d="M370.2,208.5a2.4,2.4,0,0,1,2.4-2.5,2.5,2.5,0,0,1,0,5A2.4,2.4,0,0,1,370.2,208.5Zm4,0c0-1-.5-1.9-1.6-1.9a1.9,1.9,0,0,0,0,3.8C373.7,210.4,374.2,209.5,374.2,208.5Z"/><path d="M379.5,210.2a2.1,2.1,0,0,1-1.7.8c-1,0-1.6-.4-1.6-1.5v-3.4h.8v3.2a1,1,0,0,0,1.1,1.1,1.8,1.8,0,0,0,1.4-.8v-3.5h.8v4.8h-.8Z"/><path d="M381.8,206.1h.7v.8a2.2,2.2,0,0,1,1.6-.9v.8h-.3a1.8,1.8,0,0,0-1.3.8v3.4h-.7Z"/><path d="M385,209.7a2.2,2.2,0,0,0,1.6.7c.8,0,1.2-.3,1.2-.8s-.6-.7-1.3-.8-1.7-.4-1.7-1.4.6-1.4,1.8-1.4a2.5,2.5,0,0,1,1.8.7l-.4.5a1.7,1.7,0,0,0-1.4-.6c-.7,0-1.1.3-1.1.7s.5.6,1.2.8,1.8.4,1.8,1.5-.7,1.4-1.9,1.4a2.7,2.7,0,0,1-2-.7Z"/><path d="M391.8,206c1.5,0,2.3,1.1,2.3,2.6v.2h-3.9a1.7,1.7,0,0,0,1.8,1.6,1.8,1.8,0,0,0,1.4-.6l.4.5a2.5,2.5,0,0,1-1.9.7,2.5,2.5,0,0,1-.1-5Zm-1.6,2.2h3.2a1.6,1.6,0,0,0-1.6-1.6A1.7,1.7,0,0,0,390.2,208.2Z"/><path d="M395.3,204.3h.8v6.6h-.8Z"/><path d="M397.8,206.8H397v-.7h.8v-.4a1.3,1.3,0,0,1,1.4-1.5h.7l-.2.6h-.4c-.5,0-.8.3-.8.9v.4h1v.7h-1v4.1h-.7Z"/><path d="M400.4,209.9a.6.6,0,0,1,.5.6.5.5,0,0,1-.5.5.6.6,0,0,1-.6-.5A.6.6,0,0,1,400.4,209.9Z"/><path d="M406.5,205h-2.1v-.7h5.1v.7h-2.1v5.9h-.9Z"/><path d="M412.6,210.4a2.1,2.1,0,0,1-1.6.6,1.6,1.6,0,0,1-1.7-1.6,1.6,1.6,0,0,1,1.7-1.5,2.1,2.1,0,0,1,1.6.6v-.9c0-.6-.5-1-1.2-1a1.9,1.9,0,0,0-1.5.7l-.3-.5a2.2,2.2,0,0,1,1.9-.8c1,0,1.9.4,1.9,1.6v3.3h-.8Zm0-1.4a1.6,1.6,0,0,0-1.3-.6,1.1,1.1,0,0,0-1.2,1.1c0,.6.5,1,1.2,1a1.6,1.6,0,0,0,1.3-.6Z"/><path d="M416.4,208.8l-.8.7v1.4h-.7v-6.6h.7v4.4l2.6-2.6h.9l-2.1,2.2,2.1,2.6h-.9Z"/><path d="M421.9,206c1.5,0,2.3,1.1,2.3,2.6v.2h-3.9a1.7,1.7,0,0,0,1.7,1.6,1.9,1.9,0,0,0,1.5-.6l.4.5a2.5,2.5,0,0,1-1.9.7,2.4,2.4,0,0,1-2.5-2.5A2.4,2.4,0,0,1,421.9,206Zm-1.6,2.2h3.2a1.6,1.6,0,0,0-1.6-1.6A1.6,1.6,0,0,0,420.3,208.2Z"/><path d="M428.2,209.9v-3.1h-.8v-.7h.8v-1.3h.7v1.3h1v.7h-1v3a.6.6,0,0,0,.5.6l.5-.2.2.5a1.1,1.1,0,0,1-.9.3C428.5,211,428.2,210.6,428.2,209.9Z"/><path d="M434.2,207.7a1,1,0,0,0-1.1-1.1,1.8,1.8,0,0,0-1.4.8v3.5h-.8v-6.6h.8v2.5a2.3,2.3,0,0,1,1.7-.8,1.4,1.4,0,0,1,1.6,1.5v3.4h-.8Z"/><path d="M438.6,206a2.3,2.3,0,0,1,2.3,2.6v.2H437a1.6,1.6,0,0,0,1.7,1.6,2,2,0,0,0,1.5-.6l.4.5a2.7,2.7,0,0,1-2,.7,2.3,2.3,0,0,1-2.4-2.5A2.4,2.4,0,0,1,438.6,206Zm-1.6,2.2h3.1a1.5,1.5,0,0,0-1.5-1.6A1.6,1.6,0,0,0,437,208.2Z"/><path d="M327.3,224.8v-6.7h.8v.7a1.8,1.8,0,0,1,1.6-.8c1.3,0,2.1.9,2.1,2.5s-.8,2.5-2.1,2.5a1.8,1.8,0,0,1-1.6-.8v2.6Zm2.2-6.2a1.7,1.7,0,0,0-1.4.8v2.2a1.7,1.7,0,0,0,1.4.8c1,0,1.5-.8,1.5-1.9S330.5,218.6,329.5,218.6Z"/><path d="M333.1,216.3h.7v6.6h-.7Z"/><path d="M337.4,218c1.5,0,2.3,1.1,2.3,2.6v.2h-3.9a1.7,1.7,0,0,0,1.7,1.6,1.9,1.9,0,0,0,1.5-.6l.4.5a2.5,2.5,0,0,1-1.9.7,2.5,2.5,0,0,1-.1-5Zm-1.6,2.2H339a1.6,1.6,0,0,0-1.6-1.6A1.6,1.6,0,0,0,335.8,220.2Z"/><path d="M344.4,222.2a1.8,1.8,0,0,1-1.6.8,2.2,2.2,0,0,1-2.2-2.5,2.2,2.2,0,0,1,2.2-2.5,2.1,2.1,0,0,1,1.6.8v-2.5h.8v6.6h-.8Zm0-2.8a1.7,1.7,0,0,0-1.4-.8c-1,0-1.6.8-1.6,1.9s.6,1.9,1.6,1.9a1.7,1.7,0,0,0,1.4-.8Z"/><path d="M347.1,223.6a1.7,1.7,0,0,0,1.5.7,1.4,1.4,0,0,0,1.6-1.5v-.7a2.1,2.1,0,0,1-3.8-1.6c0-1.6.9-2.5,2.1-2.5a2.1,2.1,0,0,1,1.7.8v-.7h.7v4.7c0,1.6-1.1,2.1-2.3,2.1a2.5,2.5,0,0,1-1.9-.7Zm3.1-4.2a2,2,0,0,0-1.5-.8c-.9,0-1.5.8-1.5,1.9a1.6,1.6,0,0,0,1.5,1.8,1.8,1.8,0,0,0,1.5-.8Z"/><path d="M354.5,218c1.5,0,2.3,1.1,2.3,2.6v.2h-3.9a1.7,1.7,0,0,0,1.8,1.6,2.2,2.2,0,0,0,1.5-.6l.3.5a2.5,2.5,0,0,1-1.9.7,2.5,2.5,0,0,1-.1-5Zm-1.6,2.2h3.2a1.6,1.6,0,0,0-1.6-1.6A1.7,1.7,0,0,0,352.9,220.2Z"/><path d="M358.4,221.9a.6.6,0,0,1,.5.6.5.5,0,0,1-.5.5.6.6,0,0,1-.6-.5A.6.6,0,0,1,358.4,221.9Z"/><path d="M363,221.4a2.9,2.9,0,0,0,2.1.9c1.2,0,1.5-.6,1.5-1.1s-.8-1.1-1.6-1.3-2.3-.6-2.3-1.9,1-1.8,2.3-1.8a3.2,3.2,0,0,1,2.4.9l-.5.6a2.4,2.4,0,0,0-2-.8c-.8,0-1.3.4-1.3,1.1s.7.8,1.6,1.1,2.3.6,2.3,2-.7,1.9-2.5,1.9a3.2,3.2,0,0,1-2.5-1Z"/><path d="M372,219.7a1,1,0,0,0-1.1-1.1,1.8,1.8,0,0,0-1.4.8v3.5h-.8v-6.6h.8v2.5a2.3,2.3,0,0,1,1.7-.8,1.3,1.3,0,0,1,1.5,1.5v3.4H372Z"/><path d="M377.3,222.4a2.3,2.3,0,0,1-1.6.6,1.5,1.5,0,0,1-1.7-1.6,1.5,1.5,0,0,1,1.7-1.5,2.3,2.3,0,0,1,1.6.6v-.9c0-.6-.6-1-1.3-1a1.7,1.7,0,0,0-1.4.7l-.4-.5a2.2,2.2,0,0,1,1.9-.8c1.1,0,1.9.4,1.9,1.6v3.3h-.7Zm0-1.4a1.7,1.7,0,0,0-1.4-.6,1.1,1.1,0,0,0-1.2,1.1c0,.6.5,1,1.2,1a1.7,1.7,0,0,0,1.4-.6Z"/><path d="M379.5,218.1h.8v.8a1.9,1.9,0,0,1,1.6-.9v.8h-.3a1.7,1.7,0,0,0-1.3.8v3.4h-.8Z"/><path d="M384.9,218c1.5,0,2.3,1.1,2.3,2.6v.2h-3.9a1.7,1.7,0,0,0,1.8,1.6,1.8,1.8,0,0,0,1.4-.6l.4.5a2.5,2.5,0,0,1-1.9.7,2.5,2.5,0,0,1-.1-5Zm-1.6,2.2h3.2a1.6,1.6,0,0,0-1.6-1.6A1.7,1.7,0,0,0,383.3,220.2Z"/><path d="M391.2,221.9v-3.1h-.8v-.7h.8v-1.3h.7v1.3h1v.7h-1v3a.6.6,0,0,0,.5.6l.5-.2.2.5a1.1,1.1,0,0,1-.9.3C391.5,223,391.2,222.6,391.2,221.9Z"/><path d="M397.2,219.7a1,1,0,0,0-1.1-1.1,2,2,0,0,0-1.4.8v3.5H394v-6.6h.7v2.5a2.3,2.3,0,0,1,1.7-.8,1.4,1.4,0,0,1,1.6,1.5v3.4h-.8Z"/><path d="M401.6,218a2.3,2.3,0,0,1,2.3,2.6v.2H400a1.6,1.6,0,0,0,1.7,1.6,2,2,0,0,0,1.5-.6l.4.5a2.6,2.6,0,0,1-1.9.7,2.4,2.4,0,0,1-2.5-2.5A2.4,2.4,0,0,1,401.6,218Zm-1.6,2.2h3.2a1.6,1.6,0,0,0-1.6-1.6A1.6,1.6,0,0,0,400,220.2Z"/><path d="M413.5,219.6c0-.6-.3-1-.9-1a1.8,1.8,0,0,0-1.3.8v3.5h-.7v-3.3c0-.6-.3-1-.9-1a1.8,1.8,0,0,0-1.3.8v3.5h-.7v-4.8h.7v.7a2.2,2.2,0,0,1,1.6-.8,1.2,1.2,0,0,1,1.3.9,1.9,1.9,0,0,1,1.6-.9,1.3,1.3,0,0,1,1.4,1.4v3.5h-.8Z"/><path d="M417.9,218a2.3,2.3,0,0,1,2.3,2.6v.2h-3.9a1.6,1.6,0,0,0,1.7,1.6,2,2,0,0,0,1.5-.6l.4.5a2.7,2.7,0,0,1-2,.7,2.3,2.3,0,0,1-2.4-2.5A2.4,2.4,0,0,1,417.9,218Zm-1.6,2.2h3.1a1.5,1.5,0,0,0-1.5-1.6A1.6,1.6,0,0,0,416.3,220.2Z"/><path d="M421.4,221.7a2,2,0,0,0,1.6.7c.7,0,1.1-.3,1.1-.8s-.6-.7-1.2-.8-1.8-.4-1.8-1.4.7-1.4,1.8-1.4a2.5,2.5,0,0,1,1.8.7l-.4.5a1.6,1.6,0,0,0-1.4-.6c-.7,0-1.1.3-1.1.7s.6.6,1.2.8,1.8.4,1.8,1.5-.6,1.4-1.9,1.4a2.5,2.5,0,0,1-1.9-.7Z"/><path d="M426,221.7a2,2,0,0,0,1.6.7c.7,0,1.1-.3,1.1-.8s-.5-.7-1.2-.8-1.7-.4-1.7-1.4.6-1.4,1.8-1.4a2.1,2.1,0,0,1,1.7.7l-.3.5a1.7,1.7,0,0,0-1.4-.6c-.7,0-1.1.3-1.1.7s.5.6,1.2.8,1.8.4,1.8,1.5-.7,1.4-1.9,1.4a2.7,2.7,0,0,1-2-.7Z"/><path d="M433.7,222.4a2.1,2.1,0,0,1-1.6.6,1.6,1.6,0,0,1-1.7-1.6,1.6,1.6,0,0,1,1.7-1.5,2.1,2.1,0,0,1,1.6.6v-.9c0-.6-.5-1-1.2-1a1.8,1.8,0,0,0-1.5.7l-.3-.5a2.2,2.2,0,0,1,1.9-.8c1,0,1.9.4,1.9,1.6v3.3h-.8Zm0-1.4a1.6,1.6,0,0,0-1.3-.6,1.1,1.1,0,0,0-1.2,1.1c0,.6.5,1,1.2,1a1.6,1.6,0,0,0,1.3-.6Z"/><path d="M436.3,223.6a1.9,1.9,0,0,0,1.6.7,1.4,1.4,0,0,0,1.6-1.5v-.7a2.1,2.1,0,0,1-3.8-1.6c0-1.6.9-2.5,2.1-2.5a2.1,2.1,0,0,1,1.7.8v-.7h.7v4.7c0,1.6-1.1,2.1-2.3,2.1a2.5,2.5,0,0,1-1.9-.7Zm3.2-4.2a2,2,0,0,0-1.5-.8c-1,0-1.5.8-1.5,1.9s.5,1.8,1.5,1.8a1.8,1.8,0,0,0,1.5-.8Z"/><path d="M443.8,218c1.5,0,2.3,1.1,2.3,2.6v.2h-3.9a1.7,1.7,0,0,0,1.8,1.6,1.8,1.8,0,0,0,1.4-.6l.4.5a2.5,2.5,0,0,1-1.9.7,2.5,2.5,0,0,1-.1-5Zm-1.6,2.2h3.2a1.6,1.6,0,0,0-1.6-1.6A1.7,1.7,0,0,0,442.2,220.2Z"/><path d="M447.7,221.9a.6.6,0,0,1,.5.6.5.5,0,0,1-.5.5.6.6,0,0,1-.6-.5A.6.6,0,0,1,447.7,221.9Z"/><path d="M330.8,234.2a1.9,1.9,0,0,1-1.6.8,2.2,2.2,0,0,1-2.2-2.5,2.2,2.2,0,0,1,2.2-2.5,2.1,2.1,0,0,1,1.6.8v-2.5h.8v6.6h-.8Zm0-2.8a1.8,1.8,0,0,0-1.4-.8c-1,0-1.6.8-1.6,1.9s.6,1.9,1.6,1.9a1.8,1.8,0,0,0,1.4-.8Z"/><path d="M332.8,232.5a2.3,2.3,0,0,1,2.4-2.5,2.5,2.5,0,0,1,0,5A2.3,2.3,0,0,1,332.8,232.5Zm4,0a1.7,1.7,0,0,0-1.6-1.9c-1.1,0-1.6.9-1.6,1.9s.5,1.9,1.6,1.9A1.7,1.7,0,0,0,336.8,232.5Z"/><path d="M342,231.8c0-.9-.4-1.2-1-1.2a2,2,0,0,0-1.5.8v3.5h-.7v-4.8h.7v.7a2.5,2.5,0,0,1,1.7-.8c1.1,0,1.6.5,1.6,1.5v3.4H342Z"/><path d="M344.1,230.1a1.3,1.3,0,0,0,.6-.9h-.1a.5.5,0,0,1,0-1c.3,0,.6.2.6.7a1.8,1.8,0,0,1-.8,1.5Z"/><path d="M346.7,233.9v-3.1h-.8v-.7h.8v-1.3h.7v1.3h1v.7h-1v3a.6.6,0,0,0,.5.6l.5-.2.2.5q-.2.3-.9.3C347,235,346.7,234.6,346.7,233.9Z"/><path d="M352.2,233.9v-3.1h-.8v-.7h.8v-1.3h.7v1.3h1v.7h-1v3a.6.6,0,0,0,.5.6l.5-.2.3.5a1.2,1.2,0,0,1-.9.3A1,1,0,0,1,352.2,233.9Z"/><path d="M356.7,232.9l-1.5,2h-.8l1.8-2.5-1.7-2.3h.8l1.4,1.8,1.3-1.8h.9l-1.8,2.3,1.9,2.5h-.9Z"/><path d="M360,233.9v-3.1h-.8v-.7h.8v-1.3h.7v1.3h1v.7h-1v3a.6.6,0,0,0,.5.6l.5-.2.3.5a1.2,1.2,0,0,1-.9.3A1,1,0,0,1,360,233.9Z"/><path d="M367.4,233.9h-.6v-2.1h-1.9v-.5h1.9v-2.1h.6v2.1h1.9v.5h-1.9Z"/><path d="M376.4,234.2a1.8,1.8,0,0,1-1.6.8c-1.3,0-2.1-.9-2.1-2.5s.8-2.5,2.1-2.5a1.9,1.9,0,0,1,1.6.8v-2.5h.8v6.6h-.8Zm0-2.8a1.7,1.7,0,0,0-1.4-.8c-1,0-1.6.8-1.6,1.9s.6,1.9,1.6,1.9a1.7,1.7,0,0,0,1.4-.8Z"/><path d="M378.7,230.1h.7v.8a2.2,2.2,0,0,1,1.6-.9v.8c0-.1-.1-.1-.3-.1a2,2,0,0,0-1.3.8v3.4h-.7Z"/><path d="M381.3,230.1h.8l1.6,4,1.6-4h.8l-2,4.8h-.8Z"/><path d="M386.6,233.9a.6.6,0,0,1,.6.6.6.6,0,0,1-.6.5.5.5,0,0,1-.5-.5A.6.6,0,0,1,386.6,233.9Z"/><path d="M181.4,123.8h-3.2v2.8h-1.4v-6.7h1.4v2.6h3.2v-2.6h1.4v6.7h-1.4Z"/><path d="M186.3,121.6a2.5,2.5,0,0,1,2.4,2.7v.3h-3.6a1.3,1.3,0,0,0,1.4,1.1,1.9,1.9,0,0,0,1.3-.5l.6.8a2.9,2.9,0,0,1-2,.7,2.4,2.4,0,0,1-2.6-2.5A2.5,2.5,0,0,1,186.3,121.6Zm-1.2,2.1h2.4a1.2,1.2,0,0,0-2.4,0Z"/><path d="M189.6,121.8h1.3v.6a2,2,0,0,1,1.5-.7v1.2h-.3a1.7,1.7,0,0,0-1.2.5v3.2h-1.3Z"/><path d="M195.4,121.6a2.4,2.4,0,0,1,2.4,2.7v.3h-3.5a1.2,1.2,0,0,0,1.3,1.1,1.9,1.9,0,0,0,1.3-.5l.6.8a2.7,2.7,0,0,1-2,.7,2.4,2.4,0,0,1-2.6-2.5A2.6,2.6,0,0,1,195.4,121.6Zm-1.2,2.1h2.4a1.1,1.1,0,0,0-1.2-1A1.1,1.1,0,0,0,194.2,123.7Z"/><path d="M198.6,122.3a1.6,1.6,0,0,0,.8-1h-.2a.7.7,0,0,1-.7-.7.9.9,0,0,1,.8-.8.9.9,0,0,1,.9,1,2.3,2.3,0,0,1-1,1.9Z"/><path d="M201.1,125.1a2.6,2.6,0,0,0,1.6.6c.6,0,.9-.2.9-.5s-.5-.4-1-.5-1.9-.4-1.9-1.5.7-1.6,2-1.6a2.9,2.9,0,0,1,1.9.7l-.5.9a2,2,0,0,0-1.4-.6c-.5,0-.8.2-.8.5s.4.4.9.5,2,.4,2,1.6-.8,1.5-2.1,1.5a3.6,3.6,0,0,1-2.2-.7Z"/><path d="M211.2,126.1a2.1,2.1,0,0,1-1.6.6,1.6,1.6,0,0,1-1.6-1.6,1.5,1.5,0,0,1,1.6-1.5,2,2,0,0,1,1.6.6v-.7c0-.5-.4-.8-1.1-.8a2,2,0,0,0-1.4.6l-.5-.9a3.4,3.4,0,0,1,2.1-.8c1.1,0,2.1.5,2.1,1.9v3.1h-1.2Zm0-1.3a1.2,1.2,0,0,0-1-.4c-.5,0-1,.3-1,.7s.5.7,1,.7a1.2,1.2,0,0,0,1-.4Z"/><path d="M216.4,125.1a2.9,2.9,0,0,0,1.7.6c.5,0,.8-.2.8-.5s-.4-.4-1-.5-1.9-.4-1.9-1.5.7-1.6,2-1.6a2.7,2.7,0,0,1,1.9.7l-.5.9a2,2,0,0,0-1.4-.6c-.5,0-.8.2-.8.5s.4.4,1,.5,1.9.4,1.9,1.6-.8,1.5-2.1,1.5a4.1,4.1,0,0,1-2.2-.7Z"/><path d="M223.3,121.6a2.3,2.3,0,0,1,1.9.9l-.8.8a1.4,1.4,0,0,0-1.1-.5,1.3,1.3,0,0,0-1.3,1.4,1.3,1.3,0,0,0,1.3,1.4,1.4,1.4,0,0,0,1.1-.5l.8.7a2.1,2.1,0,0,1-1.9.9,2.4,2.4,0,0,1-2.6-2.5A2.5,2.5,0,0,1,223.3,121.6Z"/><path d="M228.9,126.1a1.9,1.9,0,0,1-1.5.6,1.6,1.6,0,0,1-1.7-1.6,1.5,1.5,0,0,1,1.7-1.5,1.9,1.9,0,0,1,1.5.6v-.7c0-.5-.4-.8-1-.8a1.8,1.8,0,0,0-1.4.6l-.5-.9a3.2,3.2,0,0,1,2.1-.8c1.1,0,2.1.5,2.1,1.9v3.1h-1.3Zm0-1.3a1.2,1.2,0,0,0-1-.4.8.8,0,0,0-.9.7c0,.5.4.7.9.7a1.2,1.2,0,0,0,1-.4Z"/><path d="M231.5,121.8h1.2v.6a2.4,2.4,0,0,1,1.6-.7v1.2h-.4a1.7,1.7,0,0,0-1.2.5v3.2h-1.2Z"/><path d="M235.5,127.4a.6.6,0,0,0,.6-.3l.2-.4-1.9-4.9h1.3l1.3,3.3,1.2-3.3h1.4l-2.3,5.6a1.6,1.6,0,0,1-1.8,1.1h-.6l.2-1.2Z"/><path d="M242.9,125.1a2.6,2.6,0,0,0,1.6.6c.6,0,.8-.2.8-.5s-.4-.4-.9-.5-1.9-.4-1.9-1.5.7-1.6,2-1.6a2.9,2.9,0,0,1,1.9.7l-.5.9a2,2,0,0,0-1.4-.6c-.5,0-.8.2-.8.5s.4.4.9.5,2,.4,2,1.6-.8,1.5-2.1,1.5a3.6,3.6,0,0,1-2.2-.7Z"/><path d="M247.8,125.4v-2.5H247v-1.1h.8v-1.4H249v1.4h1v1.1h-1V125a.6.6,0,0,0,.5.6l.4-.2.3,1a1.4,1.4,0,0,1-1.1.3A1.2,1.2,0,0,1,247.8,125.4Z"/><path d="M253.8,126.1a1.9,1.9,0,0,1-1.5.6,1.6,1.6,0,0,1-1.7-1.6,1.5,1.5,0,0,1,1.7-1.5,1.9,1.9,0,0,1,1.5.6v-.7c0-.5-.4-.8-1.1-.8a2,2,0,0,0-1.4.6l-.5-.9a3.4,3.4,0,0,1,2.1-.8c1.1,0,2.2.5,2.2,1.9v3.1h-1.3Zm0-1.3a1.2,1.2,0,0,0-1-.4.8.8,0,0,0-.9.7c0,.5.4.7.9.7a1.2,1.2,0,0,0,1-.4Z"/><path d="M256.6,125.4v-2.5h-.8v-1.1h.8v-1.4h1.2v1.4h1v1.1h-1V125a.6.6,0,0,0,.5.6l.4-.2.3,1a1.4,1.4,0,0,1-1.1.3A1.2,1.2,0,0,1,256.6,125.4Z"/><path d="M259.6,120.3a.8.8,0,0,1,.7-.8.8.8,0,1,1,0,1.6A.8.8,0,0,1,259.6,120.3Zm.1,1.5H261v4.8h-1.3Z"/><path d="M262.4,125.1a2.6,2.6,0,0,0,1.6.6c.6,0,.8-.2.8-.5s-.4-.4-.9-.5-1.9-.4-1.9-1.5a1.7,1.7,0,0,1,1.9-1.6,3,3,0,0,1,2,.7l-.5.9a2.2,2.2,0,0,0-1.4-.6c-.5,0-.8.2-.8.5s.4.4.9.5,2,.4,2,1.6-.8,1.5-2.1,1.5a3.6,3.6,0,0,1-2.2-.7Z"/><path d="M267.3,125.4v-2.5h-.8v-1.1h.8v-1.4h1.2v1.4h1v1.1h-1V125a.6.6,0,0,0,.5.6l.4-.2.3,1a1.6,1.6,0,0,1-1.1.3A1.2,1.2,0,0,1,267.3,125.4Z"/><path d="M270.3,120.3a.8.8,0,0,1,.7-.8.8.8,0,1,1,0,1.6A.8.8,0,0,1,270.3,120.3Zm.1,1.5h1.2v4.8h-1.2Z"/><path d="M275.2,121.6a2.6,2.6,0,0,1,1.9.9l-.9.8a1.1,1.1,0,0,0-1-.5,1.2,1.2,0,0,0-1.3,1.4,1.3,1.3,0,0,0,1.3,1.4,1.1,1.1,0,0,0,1-.5l.9.7a2.3,2.3,0,0,1-1.9.9,2.4,2.4,0,0,1-2.6-2.5A2.5,2.5,0,0,1,275.2,121.6Z"/><path d="M278.6,125.1a.8.8,0,0,1,.8.8.9.9,0,0,1-.8.8.9.9,0,0,1-.9-.8A.8.8,0,0,1,278.6,125.1Z"/><path d="M283,119.9h1.5v6.7H283Z"/><path d="M286,122.9h-.8v-1.1h.8v-.3a1.6,1.6,0,0,1,1.7-1.7l.9.2-.3.9h-.4a.7.7,0,0,0-.6.7v.3h1v1.1h-1v3.7H286Z"/><path d="M292,127.4a.8.8,0,0,0,.7-.3l.2-.4-2-4.9h1.4l1.2,3.3,1.3-3.3h1.3l-2.2,5.6a1.8,1.8,0,0,1-1.9,1.1h-.6l.2-1.2Z"/><path d="M296.4,124.2a2.5,2.5,0,0,1,2.6-2.6,2.4,2.4,0,0,1,2.5,2.6,2.4,2.4,0,0,1-2.5,2.5A2.5,2.5,0,0,1,296.4,124.2Zm3.8,0a1.3,1.3,0,0,0-1.2-1.4,1.3,1.3,0,0,0-1.3,1.4,1.3,1.3,0,1,0,2.5,0Z"/><path d="M305.7,126a2.5,2.5,0,0,1-1.7.7,1.4,1.4,0,0,1-1.5-1.5v-3.4h1.2v2.9a.8.8,0,0,0,.9.9,1.4,1.4,0,0,0,1.1-.6v-3.2H307v4.8h-1.3Z"/><path d="M311.1,125.4v-2.5h-.8v-1.1h.8v-1.4h1.2v1.4h1v1.1h-1V125a.6.6,0,0,0,.5.6l.4-.2.3,1a1.4,1.4,0,0,1-1.1.3A1.2,1.2,0,0,1,311.1,125.4Z"/><path d="M316.4,121.6a2.5,2.5,0,0,1,2.4,2.7v.3h-3.6a1.3,1.3,0,0,0,1.4,1.1,2.1,2.1,0,0,0,1.3-.5l.5.8a2.5,2.5,0,0,1-1.9.7,2.4,2.4,0,0,1-2.6-2.5A2.5,2.5,0,0,1,316.4,121.6Zm-1.2,2.1h2.4a1.2,1.2,0,0,0-1.2-1A1.1,1.1,0,0,0,315.2,123.7Z"/><path d="M321.3,125l-1.1,1.6h-1.5l1.8-2.5-1.7-2.3h1.5l1,1.5,1-1.5h1.4l-1.6,2.3,1.7,2.5h-1.4Z"/><path d="M324.7,125.4v-2.5h-.8v-1.1h.8v-1.4h1.2v1.4h1v1.1h-1V125a.6.6,0,0,0,.5.6c.2,0,.4-.1.4-.2l.3,1a1.4,1.4,0,0,1-1.1.3A1.2,1.2,0,0,1,324.7,125.4Z"/><path d="M333.3,126.1a2.1,2.1,0,0,1-1.6.6,1.7,1.7,0,0,1-1.7-1.6,1.6,1.6,0,0,1,1.7-1.5,2.1,2.1,0,0,1,1.6.6v-.7c0-.5-.5-.8-1.1-.8a2,2,0,0,0-1.4.6l-.5-.9a3.4,3.4,0,0,1,2.1-.8c1.1,0,2.1.5,2.1,1.9v3.1h-1.2Zm0-1.3a1.5,1.5,0,0,0-1.1-.4.8.8,0,0,0-.9.7c0,.5.4.7.9.7a1.5,1.5,0,0,0,1.1-.4Z"/><path d="M339,123.7c0-.7-.3-.9-.8-.9a1.6,1.6,0,0,0-1.1.5v3.3h-1.3v-4.8h1.3v.6a2.1,2.1,0,0,1,1.6-.8,1.4,1.4,0,0,1,1.6,1.6v3.4H339Z"/><path d="M344.9,126a2.1,2.1,0,0,1-1.5.7c-1.2,0-2.1-.9-2.1-2.5s.9-2.6,2.1-2.6a1.9,1.9,0,0,1,1.5.8v-2.5h1.3v6.7h-1.3Zm0-2.7a1.4,1.4,0,0,0-1.1-.5c-.7,0-1.2.5-1.2,1.4a1.3,1.3,0,0,0,1.2,1.4,1.5,1.5,0,0,0,1.1-.6Z"/><path d="M353.3,126a2.1,2.1,0,0,1-1.5.7c-1.2,0-2.1-.9-2.1-2.5s.9-2.6,2.1-2.6a1.9,1.9,0,0,1,1.5.8v-2.5h1.3v6.7h-1.3Zm0-2.7a1.4,1.4,0,0,0-1.1-.5c-.7,0-1.2.5-1.2,1.4a1.3,1.3,0,0,0,1.2,1.4,1.5,1.5,0,0,0,1.1-.6Z"/><path d="M355.9,121.8h1.2v.6a2.4,2.4,0,0,1,1.6-.7v1.2h-.4a1.7,1.7,0,0,0-1.2.5v3.2h-1.2Z"/><path d="M359.3,120.3a.9.9,0,0,1,.8-.8.8.8,0,0,1,0,1.6A.9.9,0,0,1,359.3,120.3Zm.2,1.5h1.2v4.8h-1.2Z"/><path d="M361.3,121.8h1.4l1.2,3.3,1.3-3.3h1.3l-1.9,4.8h-1.4Z"/><path d="M369.3,121.6a2.5,2.5,0,0,1,2.4,2.7v.3h-3.6a1.3,1.3,0,0,0,1.4,1.1,1.9,1.9,0,0,0,1.3-.5l.6.8a2.9,2.9,0,0,1-2,.7,2.4,2.4,0,0,1-2.6-2.5A2.5,2.5,0,0,1,369.3,121.6Zm-1.2,2.1h2.4a1.2,1.2,0,0,0-2.4,0Z"/><path d="M372.5,127.5a1.7,1.7,0,0,0,.8-.9h-.2a.7.7,0,0,1-.7-.7.8.8,0,0,1,.8-.8.9.9,0,0,1,.9,1,2.6,2.6,0,0,1-1,1.9Z"/><path d="M378.1,127.4c.4,0,.6-.1.7-.3l.2-.4-2-4.9h1.4l1.3,3.3,1.2-3.3h1.4l-2.3,5.6a1.6,1.6,0,0,1-1.8,1.1h-.6v-1.2Z"/><path d="M382.5,124.2a2.6,2.6,0,1,1,2.6,2.5A2.5,2.5,0,0,1,382.5,124.2Zm3.8,0c0-.8-.4-1.4-1.2-1.4s-1.2.6-1.2,1.4a1.2,1.2,0,1,0,2.4,0Z"/><path d="M391.9,126a2.9,2.9,0,0,1-1.7.7,1.4,1.4,0,0,1-1.6-1.5v-3.4h1.3v2.9c0,.7.3.9.9.9a1.7,1.7,0,0,0,1.1-.6v-3.2h1.2v4.8h-1.2Z"/><path d="M394.3,122.3a2,2,0,0,0,.8-1h-.2a.7.7,0,0,1-.7-.7.9.9,0,0,1,.8-.8.9.9,0,0,1,.9,1,2.3,2.3,0,0,1-1,1.9Z"/><path d="M396.9,121.8h1.3v.6a2,2,0,0,1,1.5-.7v1.2h-.3a1.7,1.7,0,0,0-1.2.5v3.2h-1.3Z"/><path d="M402.7,121.6a2.4,2.4,0,0,1,2.4,2.7v.3h-3.5a1.2,1.2,0,0,0,1.3,1.1,1.9,1.9,0,0,0,1.3-.5l.6.8a2.7,2.7,0,0,1-2,.7,2.4,2.4,0,0,1-2.6-2.5A2.6,2.6,0,0,1,402.7,121.6Zm-1.2,2.1h2.4a1.1,1.1,0,0,0-1.2-1A1.1,1.1,0,0,0,401.5,123.7Z"/><path d="M408.5,125.5c2.7-2,3.5-2.7,3.5-3.5s-.5-.9-1.1-.9a2.5,2.5,0,0,0-1.8.8l-.8-1a3.8,3.8,0,0,1,2.6-1.1,2.2,2.2,0,0,1,2.5,2.2c0,1.1-.9,2.1-2.7,3.3h2.8v1.3h-5Z"/><path d="M414.9,124.7a2.7,2.7,0,0,0,1.9.8c.8,0,1.2-.4,1.2-.9s-.4-.8-1.3-.8h-.8v-1.2h.8c.7,0,1.2-.2,1.2-.7s-.5-.8-1.2-.8a2.2,2.2,0,0,0-1.7.7l-.7-.9a3.3,3.3,0,0,1,2.5-1.1c1.6,0,2.6.7,2.6,1.8a1.6,1.6,0,0,1-1.5,1.5,1.7,1.7,0,0,1,1.6,1.6c0,1.2-1.1,2-2.7,2a3.3,3.3,0,0,1-2.6-1.1Z"/><path d="M423.3,125.4v-2.5h-.8v-1.1h.8v-1.4h1.3v1.4h1v1.1h-1V125c0,.3.1.6.4.6l.5-.2.2,1a1.3,1.3,0,0,1-1,.3A1.2,1.2,0,0,1,423.3,125.4Z"/><path d="M426.3,120.3a.9.9,0,0,1,.8-.8.8.8,0,0,1,0,1.6A.9.9,0,0,1,426.3,120.3Zm.1,1.5h1.3v4.8h-1.3Z"/><path d="M435,123.5c0-.4-.2-.7-.8-.7a1.6,1.6,0,0,0-1,.5v3.3H432v-3.1c0-.4-.2-.7-.8-.7a1.6,1.6,0,0,0-1,.5v3.3H429v-4.8h1.2v.6a2.2,2.2,0,0,1,1.6-.8,1.5,1.5,0,0,1,1.4.9,2,2,0,0,1,1.6-.9c.9,0,1.4.5,1.4,1.5v3.5H435Z"/><path d="M439.7,121.6a2.5,2.5,0,0,1,2.4,2.7v.3h-3.6a1.3,1.3,0,0,0,1.4,1.1,2.1,2.1,0,0,0,1.3-.5l.5.8a2.5,2.5,0,0,1-1.9.7,2.4,2.4,0,0,1-2.6-2.5A2.5,2.5,0,0,1,439.7,121.6Zm-1.2,2.1h2.4a1.2,1.2,0,0,0-1.2-1A1.1,1.1,0,0,0,438.5,123.7Z"/><path d="M443.1,125.1a3.2,3.2,0,0,0,1.7.6c.6,0,.8-.2.8-.5s-.4-.4-.9-.5-1.9-.4-1.9-1.5a1.7,1.7,0,0,1,1.9-1.6,3,3,0,0,1,2,.7l-.5.9a2.3,2.3,0,0,0-1.5-.6c-.4,0-.7.2-.7.5s.4.4.9.5,1.9.4,1.9,1.6-.7,1.5-2,1.5a3.6,3.6,0,0,1-2.2-.7Z"/><path d="M182.8,135.5a.6.6,0,0,0-.7-.7,1.2,1.2,0,0,0-1,.5v3.3h-1.3v-3.1a.6.6,0,0,0-.7-.7,1.4,1.4,0,0,0-1,.5v3.3h-1.3v-4.8h1.3v.6a2,2,0,0,1,1.5-.8,1.4,1.4,0,0,1,1.4.9,2.2,2.2,0,0,1,1.6-.9,1.4,1.4,0,0,1,1.5,1.5v3.5h-1.3Z"/><path d="M185,136.2a2.5,2.5,0,0,1,2.6-2.6,2.4,2.4,0,0,1,2.5,2.6,2.4,2.4,0,0,1-2.5,2.5A2.5,2.5,0,0,1,185,136.2Zm3.8,0a1.3,1.3,0,0,0-1.2-1.4,1.3,1.3,0,0,0-1.3,1.4,1.3,1.3,0,1,0,2.5,0Z"/><path d="M191.1,133.8h1.2v.6a2.4,2.4,0,0,1,1.6-.7v1.2h-.4a1.7,1.7,0,0,0-1.2.5v3.2h-1.2Z"/><path d="M196.8,133.6a2.5,2.5,0,0,1,2.5,2.7v.3h-3.6a1.3,1.3,0,0,0,1.4,1.1,2.4,2.4,0,0,0,1.3-.5l.5.8a2.7,2.7,0,0,1-2,.7,2.5,2.5,0,0,1-2.6-2.5A2.6,2.6,0,0,1,196.8,133.6Zm-1.1,2.1H198a1.1,1.1,0,0,0-1.2-1A1,1,0,0,0,195.7,135.7Z"/><path d="M202.7,131.9H204v6.7h-1.3Z"/><path d="M205.1,132.3a.8.8,0,1,1,.8.8A.9.9,0,0,1,205.1,132.3Zm.2,1.5h1.2v4.8h-1.2Z"/><path d="M209.7,136.7l-.6.6v1.3h-1.3v-6.7h1.3v4l1.8-2.1h1.6l-1.9,2.1,1.9,2.7h-1.6Z"/><path d="M215.1,133.6a2.5,2.5,0,0,1,2.5,2.7v.3H214c0,.6.5,1.1,1.4,1.1a1.8,1.8,0,0,0,1.2-.5l.6.8a2.7,2.7,0,0,1-2,.7,2.4,2.4,0,0,1-2.6-2.5A2.6,2.6,0,0,1,215.1,133.6Zm-1.2,2.1h2.4a1.1,1.1,0,0,0-1.2-1A1.1,1.1,0,0,0,213.9,135.7Z"/><path d="M218.5,131.9h1.2v6.7h-1.2Z"/><path d="M221.4,139.4c.4,0,.6-.1.7-.3l.2-.4-2-4.9h1.4l1.2,3.3,1.3-3.3h1.4l-2.3,5.6a1.7,1.7,0,0,1-1.8,1.1h-.7l.2-1.2Z"/><path d="M228.9,137.4v-2.5h-.8v-1.1h.8v-1.4h1.3v1.4h1v1.1h-1V137a.6.6,0,0,0,.5.6l.4-.2.3,1a1.6,1.6,0,0,1-1.1.3A1.2,1.2,0,0,1,228.9,137.4Z"/><path d="M231.8,136.2a2.4,2.4,0,0,1,2.5-2.6,2.6,2.6,0,1,1,0,5.1A2.4,2.4,0,0,1,231.8,136.2Zm3.8,0a1.3,1.3,0,0,0-1.3-1.4c-.8,0-1.2.6-1.2,1.4a1.3,1.3,0,0,0,1.2,1.4A1.3,1.3,0,0,0,235.6,136.2Z"/><path d="M243.6,135.6c0-.6-.3-.8-.9-.8a2.2,2.2,0,0,0-1.1.5v3.3h-1.2v-6.7h1.2v2.5a2.5,2.5,0,0,1,1.7-.8,1.4,1.4,0,0,1,1.6,1.6v3.4h-1.3Z"/><path d="M249.1,138.1a2.1,2.1,0,0,1-1.6.6,1.6,1.6,0,0,1-1.6-1.6,1.5,1.5,0,0,1,1.6-1.5,2,2,0,0,1,1.6.6v-.7c0-.5-.4-.8-1.1-.8a2,2,0,0,0-1.4.6l-.5-.9a3.4,3.4,0,0,1,2.1-.8c1.1,0,2.1.5,2.1,1.9v3.1h-1.2Zm0-1.3a1.2,1.2,0,0,0-1-.4c-.5,0-1,.3-1,.7s.5.7,1,.7a1.2,1.2,0,0,0,1-.4Z"/><path d="M250.9,133.8h1.4l1.2,3.3,1.3-3.3h1.4l-2,4.8h-1.3Z"/><path d="M258.9,133.6a2.4,2.4,0,0,1,2.4,2.7v.3h-3.5a1.2,1.2,0,0,0,1.3,1.1,1.9,1.9,0,0,0,1.3-.5l.6.8a2.7,2.7,0,0,1-2,.7,2.4,2.4,0,0,1-2.6-2.5A2.6,2.6,0,0,1,258.9,133.6Zm-1.2,2.1h2.4a1.1,1.1,0,0,0-1.2-1A1.1,1.1,0,0,0,257.7,135.7Z"/><path d="M267.7,138.1a1.9,1.9,0,0,1-1.5.6,1.6,1.6,0,0,1-1.7-1.6,1.5,1.5,0,0,1,1.7-1.5,1.9,1.9,0,0,1,1.5.6v-.7c0-.5-.4-.8-1-.8a1.8,1.8,0,0,0-1.4.6l-.5-.9a3.2,3.2,0,0,1,2.1-.8c1.1,0,2.1.5,2.1,1.9v3.1h-1.3Zm0-1.3a1.2,1.2,0,0,0-1-.4.8.8,0,0,0-.9.7c0,.5.4.7.9.7a1.2,1.2,0,0,0,1-.4Z"/><path d="M275.1,133.6a2.3,2.3,0,0,1,1.9.9l-.9.8a1.1,1.1,0,0,0-1-.5,1.3,1.3,0,0,0-1.3,1.4,1.3,1.3,0,0,0,1.3,1.4,1.1,1.1,0,0,0,1-.5l.9.7a2.1,2.1,0,0,1-1.9.9,2.4,2.4,0,0,1-2.6-2.5A2.5,2.5,0,0,1,275.1,133.6Z"/><path d="M280.7,138.1a1.9,1.9,0,0,1-1.5.6,1.6,1.6,0,0,1-1.7-1.6,1.5,1.5,0,0,1,1.7-1.5,1.9,1.9,0,0,1,1.5.6v-.7c0-.5-.4-.8-1.1-.8a2,2,0,0,0-1.4.6l-.4-.9a3,3,0,0,1,2.1-.8c1.1,0,2.1.5,2.1,1.9v3.1h-1.3Zm0-1.3a1.2,1.2,0,0,0-1-.4.8.8,0,0,0-.9.7c0,.5.4.7.9.7a1.2,1.2,0,0,0,1-.4Z"/><path d="M283.2,133.8h1.3v.6a2,2,0,0,1,1.5-.7v1.2h-.3a1.7,1.7,0,0,0-1.2.5v3.2h-1.3Z"/><path d="M291.6,133.6a2.3,2.3,0,0,1,1.9.9l-.8.8a1.3,1.3,0,0,0-2.3.9,1.3,1.3,0,0,0,1.3,1.4,1.2,1.2,0,0,0,1-.5l.8.7a2.1,2.1,0,0,1-1.9.9,2.4,2.4,0,0,1-2.5-2.5A2.5,2.5,0,0,1,291.6,133.6Z"/><path d="M294.4,133.8h1.3v.6a2,2,0,0,1,1.5-.7v1.2h-.4a1.4,1.4,0,0,0-1.1.5v3.2h-1.3Z"/><path d="M300.9,138.1a1.9,1.9,0,0,1-1.5.6,1.6,1.6,0,0,1-1.7-1.6,1.5,1.5,0,0,1,1.7-1.5,1.9,1.9,0,0,1,1.5.6v-.7c0-.5-.4-.8-1.1-.8a2,2,0,0,0-1.4.6l-.5-.9a3.4,3.4,0,0,1,2.1-.8c1.1,0,2.1.5,2.1,1.9v3.1h-1.2Zm0-1.3a1.2,1.2,0,0,0-1-.4.8.8,0,0,0-.9.7c0,.5.4.7.9.7a1.2,1.2,0,0,0,1-.4Z"/><path d="M303.5,137.1a3.2,3.2,0,0,0,1.7.6c.6,0,.8-.2.8-.5s-.4-.4-.9-.5-1.9-.4-1.9-1.5a1.7,1.7,0,0,1,1.9-1.6,3.2,3.2,0,0,1,2,.7l-.5.9a2.3,2.3,0,0,0-1.5-.6c-.4,0-.7.2-.7.5s.4.4.9.5,1.9.4,1.9,1.6-.7,1.5-2,1.5a3.6,3.6,0,0,1-2.2-.7Z"/><path d="M311.4,135.6c0-.6-.3-.8-.9-.8a1.6,1.6,0,0,0-1,.5v3.3h-1.3v-6.7h1.3v2.5a2.1,2.1,0,0,1,1.6-.8,1.4,1.4,0,0,1,1.6,1.6v3.4h-1.3Z"/><path d="M314.6,137.1a.7.7,0,0,1,.8.8.8.8,0,0,1-.8.8.9.9,0,0,1-.8-.8A.8.8,0,0,1,314.6,137.1Z"/><line x1="41.6" y1="88.3" x2="323.3" y2="88.3" fill="none" stroke="#80cfe3" stroke-miterlimit="10"/><use width="3.9" height="3.88" transform="translate(39.6 86.3)" xlink:href="#New_Symbol"/><line x1="326.2" y1="284.3" x2="410.4" y2="284.3" fill="none" stroke="#80cfe3" stroke-miterlimit="10"/><use width="3.9" height="3.88" transform="translate(324.2 282.3)" xlink:href="#New_Symbol"/><line x1="326.2" y1="308.3" x2="457.4" y2="308.3" fill="none" stroke="#80cfe3" stroke-miterlimit="10"/><rect x="176.2" y="117.8" width="286" height="24.45" fill="none" stroke="#80cfe3" stroke-miterlimit="10"/><use width="3.9" height="3.88" transform="translate(174.3 140.3)" xlink:href="#New_Symbol"/><use width="3.9" height="3.88" transform="translate(174.3 115.9)" xlink:href="#New_Symbol"/><use width="3.9" height="3.88" transform="translate(460.2 140.3)" xlink:href="#New_Symbol"/><use width="3.9" height="3.88" transform="translate(460.2 115.9)" xlink:href="#New_Symbol"/><rect x="176.2" y="147.7" width="286" height="100.6" fill="none" stroke="#80cfe3" stroke-miterlimit="10"/><use width="3.9" height="3.88" transform="translate(174.3 145.8)" xlink:href="#New_Symbol"/><use width="3.9" height="3.88" transform="translate(174.2 246.4)" xlink:href="#New_Symbol"/><line x1="316.8" y1="147.7" x2="316.8" y2="248.3" fill="none" stroke="#80cfe3" stroke-miterlimit="10"/><line x1="324.2" y1="147.7" x2="324.2" y2="248.3" fill="none" stroke="#80cfe3" stroke-miterlimit="10"/><use width="3.9" height="3.88" transform="translate(318.6 145.6)" xlink:href="#New_Symbol"/><use width="3.9" height="3.88" transform="translate(318.6 246.4)" xlink:href="#New_Symbol"/><use width="3.9" height="3.88" transform="translate(460.2 145.6)" xlink:href="#New_Symbol"/><use width="3.9" height="3.88" transform="translate(460.2 246.4)" xlink:href="#New_Symbol"/><path d="M329.3,278.3h-2.1v-.7h5.1v.7h-2.1v6h-.9Z"/><path d="M335.4,283.7a2.2,2.2,0,0,1-1.6.7,1.7,1.7,0,0,1-1.7-1.6,1.6,1.6,0,0,1,1.7-1.6,2.1,2.1,0,0,1,1.6.6V281c0-.7-.5-1-1.2-1a2,2,0,0,0-1.5.6l-.3-.5a2.6,2.6,0,0,1,1.9-.8c1,0,1.9.5,1.9,1.6v3.4h-.8Zm0-1.4a1.6,1.6,0,0,0-1.3-.6,1.1,1.1,0,0,0-1.2,1.1c0,.6.5,1,1.2,1a1.6,1.6,0,0,0,1.3-.6Z"/><path d="M339.2,282.1l-.8.8v1.4h-.7v-6.7h.7V282l2.6-2.6h.9l-2.1,2.2,2.1,2.7H341Z"/><path d="M344.7,279.3a2.3,2.3,0,0,1,2.3,2.6v.2h-3.9a1.7,1.7,0,0,0,1.7,1.7,2.1,2.1,0,0,0,1.5-.7l.4.5a2.7,2.7,0,0,1-1.9.8,2.4,2.4,0,0,1-2.5-2.6A2.4,2.4,0,0,1,344.7,279.3Zm-1.6,2.2h3.2a1.6,1.6,0,0,0-1.6-1.6A1.6,1.6,0,0,0,343.1,281.5Z"/><path d="M350.9,283.2v-3.1h-.8v-.7h.8v-1.3h.8v1.3h1v.7h-1v3c0,.3.1.6.5.6l.5-.2.2.6a1.9,1.9,0,0,1-.9.3C351.3,284.4,350.9,284,350.9,283.2Z"/><path d="M357,281.1c0-.9-.4-1.1-1.1-1.1a1.7,1.7,0,0,0-1.4.7v3.6h-.8v-6.7h.8v2.5a2.3,2.3,0,0,1,1.7-.8,1.3,1.3,0,0,1,1.5,1.5v3.5H357Z"/><path d="M361.3,279.3a2.4,2.4,0,0,1,2.4,2.6v.2h-3.9a1.7,1.7,0,0,0,1.7,1.7,2.3,2.3,0,0,0,1.5-.7l.3.5a2.5,2.5,0,0,1-4.3-1.8A2.4,2.4,0,0,1,361.3,279.3Zm-1.5,2.2h3.1a1.6,1.6,0,0,0-1.6-1.6A1.6,1.6,0,0,0,359.8,281.5Z"/><path d="M367.5,286.1v-6.7h.7v.7a2.5,2.5,0,0,1,1.6-.8,2.2,2.2,0,0,1,2.2,2.5c0,1.6-.9,2.6-2.2,2.6a1.9,1.9,0,0,1-1.6-.9v2.6Zm2.1-6.1a1.9,1.9,0,0,0-1.4.7v2.2a2,2,0,0,0,1.4.8c1,0,1.6-.8,1.6-1.9A1.6,1.6,0,0,0,369.6,280Z"/><path d="M373.2,277.6h.7v6.7h-.7Z"/><path d="M377.5,279.3a2.4,2.4,0,0,1,2.4,2.6v.2H376a1.7,1.7,0,0,0,1.7,1.7,2.3,2.3,0,0,0,1.5-.7l.3.5a2.5,2.5,0,0,1-4.3-1.8A2.4,2.4,0,0,1,377.5,279.3Zm-1.5,2.2h3.1a1.6,1.6,0,0,0-1.6-1.6A1.6,1.6,0,0,0,376,281.5Z"/><path d="M384.6,283.5a2.2,2.2,0,0,1-1.7.9c-1.2,0-2.1-1-2.1-2.6a2.2,2.2,0,0,1,2.1-2.5,2,2,0,0,1,1.7.9v-2.6h.7v6.7h-.7Zm0-2.7a1.8,1.8,0,0,0-1.5-.8,1.6,1.6,0,0,0-1.5,1.8c0,1.1.6,1.9,1.5,1.9a1.8,1.8,0,0,0,1.5-.8Z"/><path d="M387.2,284.9a1.9,1.9,0,0,0,1.6.7,1.4,1.4,0,0,0,1.5-1.5v-.6a2.1,2.1,0,0,1-1.6.8,2.2,2.2,0,0,1-2.2-2.5,2.2,2.2,0,0,1,2.2-2.5,1.9,1.9,0,0,1,1.6.9v-.8h.8v4.7a2,2,0,0,1-2.3,2.1,2.4,2.4,0,0,1-2-.7Zm3.1-4.1a1.5,1.5,0,0,0-1.4-.8,1.6,1.6,0,0,0-1.6,1.8c0,1.1.6,1.9,1.6,1.9a1.7,1.7,0,0,0,1.4-.8Z"/><path d="M394.7,279.3a2.3,2.3,0,0,1,2.3,2.6v.2h-3.9a1.7,1.7,0,0,0,1.7,1.7,2.1,2.1,0,0,0,1.5-.7l.4.5a2.8,2.8,0,0,1-2,.8,2.4,2.4,0,0,1-2.4-2.6A2.4,2.4,0,0,1,394.7,279.3Zm-1.6,2.2h3.1a1.5,1.5,0,0,0-1.5-1.6A1.6,1.6,0,0,0,393.1,281.5Z"/><path d="M403.8,283.7a2.4,2.4,0,0,1-1.6.7,1.7,1.7,0,0,1-1.7-1.6,1.6,1.6,0,0,1,1.7-1.6,2.1,2.1,0,0,1,1.6.6V281c0-.7-.5-1-1.2-1a2,2,0,0,0-1.5.6l-.4-.5a3,3,0,0,1,2-.8c1,0,1.8.5,1.8,1.6v3.4h-.7Zm0-1.4a1.6,1.6,0,0,0-1.3-.6,1.1,1.1,0,0,0-1.2,1.1c0,.6.5,1,1.2,1a1.6,1.6,0,0,0,1.3-.6Z"/><path d="M406.2,283.2v-3.1h-.8v-.7h.8v-1.3h.7v1.3h1v.7h-1v3a.6.6,0,0,0,.5.6l.5-.2.3.6a1.9,1.9,0,0,1-.9.3C406.6,284.4,406.2,284,406.2,283.2Z"/><path d="M328,293.1a2.1,2.1,0,1,1,2.1,2.1A2.1,2.1,0,0,1,328,293.1Zm.2,3.6h3.7v11.6h-3.7Z"/><path d="M338.3,308.2c0,2.8-1.4,4.8-4.5,4.8h-1.3v-3h.6c.9,0,1.4-.5,1.4-1.7V296.7h3.7Zm-3.9-15.1a2.1,2.1,0,0,1,2.1-2.1,2.1,2.1,0,0,1,0,4.2A2.1,2.1,0,0,1,334.4,293.1Z"/><path d="M348.8,306.9a5.2,5.2,0,0,1-4,1.6c-2.6,0-3.8-1.4-3.8-3.6v-8.2h3.7v6.7c0,1.4.7,1.9,1.9,1.9a2.8,2.8,0,0,0,2.2-1.1v-7.5h3.7v11.6h-3.7Z"/><path d="M355.8,304.2a6.8,6.8,0,0,0,4,1.6c1.2,0,1.6-.4,1.6-.9s-.8-.8-2-1-4.7-.8-4.7-3.7,1.7-3.8,4.9-3.8a8.4,8.4,0,0,1,4.9,1.5l-1.4,2.5a5.2,5.2,0,0,0-3.4-1.3c-.9,0-1.5.3-1.5.8s.6.7,1.8.9,4.9.8,4.9,3.9-1.9,3.8-5.2,3.8a9.5,9.5,0,0,1-5.5-1.7Z"/><path d="M367.6,305.1v-5.2h-1.9v-3.2h1.9v-3.2h3.7v3.2h2.3v3.2h-2.3v4.2c0,.7.4,1.2,1,1.2a1.6,1.6,0,0,0,.9-.3l.8,2.8a4.5,4.5,0,0,1-2.8.7C368.9,308.5,367.6,307.4,367.6,305.1Z"/><path d="M383.3,306.9a4.6,4.6,0,0,1-3.5,1.6c-2.8,0-5.1-2.1-5.1-6.1s2.2-6,5.1-6a4.6,4.6,0,0,1,3.5,1.6v-5.8h3.6v16.1h-3.6Zm0-6.2a3,3,0,0,0-2.3-1.1,2.6,2.6,0,0,0-2.5,2.8,2.6,2.6,0,0,0,2.5,2.9,3.4,3.4,0,0,0,2.3-1.1Z"/><path d="M389.7,296.7h3.6v1.4a5.4,5.4,0,0,1,3.7-1.7V300l-.9-.2a3.8,3.8,0,0,0-2.8,1.1v7.4h-3.6Z"/><path d="M398.4,293.1a2.1,2.1,0,1,1,2.1,2.1A2.1,2.1,0,0,1,398.4,293.1Zm.3,3.6h3.6v11.6h-3.6Z"/><path d="M403.5,296.7h3.8L410,304l2.6-7.3h3.9l-4.6,11.6H408Z"/><path d="M423,296.4c3.4,0,5.9,2.5,5.9,6.4v.8h-8.2a2.7,2.7,0,0,0,2.9,2.1,4.6,4.6,0,0,0,2.9-1L428,307a7.4,7.4,0,0,1-4.8,1.5c-3.6,0-6.4-2.3-6.4-6.1A6,6,0,0,1,423,296.4Zm-2.4,4.8h4.8a2.2,2.2,0,0,0-2.4-2A2.4,2.4,0,0,0,420.6,301.2Z"/><path d="M432.2,305.9a1.3,1.3,0,1,1-1.3,1.3A1.3,1.3,0,0,1,432.2,305.9Z"/><path d="M441.7,296.4a4.8,4.8,0,0,1,4.2,2l-1.2,1.1a3.2,3.2,0,0,0-2.9-1.5c-2.5,0-4,1.9-4,4.4s1.5,4.5,4,4.5a3.2,3.2,0,0,0,2.9-1.5l1.2,1.1a4.8,4.8,0,0,1-4.2,2c-3.5,0-5.8-2.6-5.8-6.1A5.7,5.7,0,0,1,441.7,296.4Z"/><path d="M455.7,306.9a4.9,4.9,0,0,1-3.8,1.6,3.9,3.9,0,0,1-4.1-3.8,3.8,3.8,0,0,1,4.1-3.8,4.8,4.8,0,0,1,3.8,1.6v-2.1c0-1.6-1.2-2.5-2.9-2.5a4.8,4.8,0,0,0-3.6,1.6l-.8-1.2a5.9,5.9,0,0,1,4.6-1.9c2.5,0,4.5,1.1,4.5,3.9v8h-1.8Zm0-3.3a4,4,0,0,0-3.2-1.4,2.5,2.5,0,1,0,0,5,3.7,3.7,0,0,0,3.2-1.4Z"/></g></g></svg>