<svg xmlns="http://www.w3.org/2000/svg" xmlns:xlink="http://www.w3.org/1999/xlink" width="7.6in" height="6.4in" viewBox="0 0 549.9 457.5"><defs><symbol id="a" viewBox="0 0 3.9 3.9"><path fill="#fff" stroke="#6dcff6" stroke-miterlimit="10" d="M.5.5h2.9v2.88H.5z"/></symbol></defs><path fill="#fd0" d="M13 47.3h522v378H13z"/><path fill="none" stroke="#231f20" d="M22 56.3h504v360H22z"/><rect width="324" height="468" x="112" y="2.3" fill="none" stroke="#231f20" stroke-width="6" rx="12.2" transform="rotate(90 274 236.3)"/><path fill="none" stroke="#00aeef" stroke-width=".5" d="M352 92.3h138v288H352zm-294 0h138v288H58zm147 0h138v288H205z"/><path fill="#231f20" d="M75.3 142.1a8.1 8.1 0 0 1-6.3 3c-5.2 0-9.4-4-9.4-11.2s4.1-11.1 9.4-11.1a7.8 7.8 0 0 1 6.3 3v-10.6h6.8v29.4h-6.8zm0-11.4a5.3 5.3 0 0 0-4.1-1.9c-2.6 0-4.6 2-4.6 5.1s2 5.2 4.6 5.2a5.7 5.7 0 0 0 4.1-1.9zm9.4 3.2c0-6 4.4-11.1 11.6-11.1s11.6 5.1 11.6 11.1-4.3 11.2-11.6 11.2-11.6-5.2-11.6-11.2zm16.3 0c0-2.8-1.7-5.1-4.7-5.1s-4.6 2.3-4.6 5.1 1.7 5.2 4.6 5.2 4.7-2.3 4.7-5.2zm24.9-1.6c0-2.6-1.4-3.5-3.5-3.5a5.4 5.4 0 0 0-4.1 2v13.8h-6.8v-21.3h6.8v2.6a9.4 9.4 0 0 1 7.3-3.1c4.9 0 7.1 2.8 7.1 6.7v15.1h-6.8zm10.9-5.8a8.6 8.6 0 0 0 3.8-4.2l-1 .2a3.5 3.5 0 0 1-3.5-3.7 4.1 4.1 0 0 1 4.1-4c2.4 0 4.5 1.8 4.5 5.1a11.3 11.3 0 0 1-5 8.9zm13.2 12.3v-9.6h-3.5v-5.9h3.5v-5.8h6.8v5.8h4.3v5.9h-4.3v7.8a1.9 1.9 0 0 0 1.9 2.1 3.1 3.1 0 0 0 1.7-.5l1.3 5.1c-.8.8-2.5 1.4-5 1.4-4.3 0-6.7-2.2-6.7-6.3zm27.1 0v-9.6h-3.5v-5.9h3.5v-5.8h6.8v5.8h4.3v5.9h-4.3v7.8a1.9 1.9 0 0 0 1.9 2.1 3.1 3.1 0 0 0 1.7-.5l1.3 5.1c-.8.8-2.5 1.4-5 1.4-4.3 0-6.7-2.2-6.7-6.3zm23.3-.7l-4.2 6.5h-7.4l7.3-10.9-6.8-10.4h7.4l3.7 5.8 3.6-5.8h7.4l-6.8 10.4 7.3 10.9h-7.4zm15.1.7v-9.6H212v-5.9h3.5v-5.8h6.7v5.8h4.4v5.9h-4.4v7.8a1.9 1.9 0 0 0 1.9 2.1 2.8 2.8 0 0 0 1.7-.5l1.4 5.1c-.9.8-2.5 1.4-5 1.4-4.4 0-6.7-2.2-6.7-6.3zm36.6 1.7h-4.4v-8.7H240v-4.1h7.7v-8.4h4.4v8.4h7.7v4.1h-7.7zm37 1.6a8.2 8.2 0 0 1-6.3 3c-5.3 0-9.4-4-9.4-11.2s4.1-11.1 9.4-11.1a7.9 7.9 0 0 1 6.3 3v-10.6h6.7v29.4h-6.7zm0-11.4a5.5 5.5 0 0 0-4.1-1.9c-2.7 0-4.7 2-4.7 5.1s2 5.2 4.7 5.2a5.9 5.9 0 0 0 4.1-1.9zm11.7-7.4h6.8v2.7a9.1 9.1 0 0 1 6.6-3.2v6.5l-1.7-.2c-1.7 0-4.1.8-4.9 2v13.5h-6.8zm13.6 0h7.1l4.8 13.5 4.8-13.5h7.2l-8.3 21.3h-7.3zm-106.8 84h-2.1v-.7h5v.7h-2.1v5.9h-.8zm4.9 1a2.4 2.4 0 0 1 2.4 2.6v.2H211a1.6 1.6 0 0 0 1.7 1.6 2.2 2.2 0 0 0 1.5-.6l.3.5a2.5 2.5 0 1 1-2-4.3zm-1.5 2.2h3.1a1.6 1.6 0 0 0-1.6-1.6 1.6 1.6 0 0 0-1.5 1.6zm6.4.7l-1.4 2h-.9l1.9-2.5-1.8-2.3h.9l1.3 1.8 1.4-1.8h.8l-1.7 2.3 1.9 2.5h-.9zm3.4 1v-3.1h-.8v-.7h.8v-1.3h.7v1.3h1v.7h-1v3a.6.6 0 0 0 .5.6l.5-.2.2.5a1.1 1.1 0 0 1-.9.3c-.7 0-1-.4-1-1.1zm2.6-5.1a.5.5 0 0 1 .5-.5.5.5 0 0 1 0 1 .5.5 0 0 1-.5-.5zm.2 1.3h.7v4.8h-.7zm5.5 1.7c0-.9-.5-1.2-1.1-1.2a1.7 1.7 0 0 0-1.4.8v3.5h-.8v-4.8h.8v.7a2.3 2.3 0 0 1 1.7-.8 1.3 1.3 0 0 1 1.5 1.5v3.4h-.7zm2.6 3.8a1.9 1.9 0 0 0 1.6.7 1.4 1.4 0 0 0 1.5-1.5v-.7a1.9 1.9 0 0 1-1.6.9 2.2 2.2 0 0 1-2.2-2.5 2.2 2.2 0 0 1 2.2-2.5 2.1 2.1 0 0 1 1.6.8v-.7h.8v4.7a2 2 0 0 1-2.3 2.1 2.7 2.7 0 0 1-2-.7zm3.1-4.2a1.8 1.8 0 0 0-1.4-.8c-1 0-1.6.8-1.6 1.9a1.6 1.6 0 0 0 1.6 1.8 1.8 1.8 0 0 0 1.4-.8zm7.8-.4l-1.3 3.9h-.8l-1.5-4.8h.8l1.2 3.8 1.2-3.8h.7l1.2 3.8 1.2-3.8h.8l-1.5 4.8h-.8zm7.6.7c0-.8-.4-1.1-1-1.1a2 2 0 0 0-1.5.8v3.5h-.7v-6.6h.7v2.5a2.5 2.5 0 0 1 1.8-.8 1.3 1.3 0 0 1 1.5 1.5v3.4h-.8zm2.2-2.9a.5.5 0 0 1 .5-.5.5.5 0 0 1 0 1 .5.5 0 0 1-.5-.5zm.1 1.3h.7v4.8h-.7zm2.2-1.8h.8v6.6h-.8zm4.4 1.7c1.5 0 2.3 1.1 2.3 2.6v.2h-3.9a1.7 1.7 0 0 0 1.7 1.6 1.9 1.9 0 0 0 1.5-.6l.4.5a2.5 2.5 0 0 1-1.9.7 2.4 2.4 0 0 1-2.5-2.5 2.4 2.4 0 0 1 2.4-2.5zm-1.6 2.2h3.2a1.6 1.6 0 0 0-1.6-1.6 1.6 1.6 0 0 0-1.6 1.6zm11.2 2a1.9 1.9 0 0 1-1.6.8 2.2 2.2 0 0 1-2.2-2.5 2.2 2.2 0 0 1 2.2-2.5 2.1 2.1 0 0 1 1.6.8v-2.5h.8v6.6h-.8zm0-2.8a1.8 1.8 0 0 0-1.4-.8c-1 0-1.6.8-1.6 1.9s.6 1.9 1.6 1.9a1.8 1.8 0 0 0 1.4-.8zm2.3-1.3h.7v.8a2.2 2.2 0 0 1 1.6-.9v.8h-.3a1.8 1.8 0 0 0-1.3.8v3.4h-.7zm3.1-1.3a.5.5 0 0 1 .5-.5.5.5 0 0 1 0 1 .5.5 0 0 1-.5-.5zm.2 1.3h.7v4.8h-.7zm1.5 0h.8l1.6 3.9 1.6-3.9h.8l-2 4.8h-.8zm5.5-1.3a.5.5 0 1 1 .5.5.5.5 0 0 1-.5-.5zm.1 1.3h.8v4.8h-.8zm5.5 1.7c0-.9-.4-1.2-1.1-1.2a1.8 1.8 0 0 0-1.4.8v3.5h-.7v-4.8h.7v.7a2.3 2.3 0 0 1 1.7-.8 1.4 1.4 0 0 1 1.6 1.5v3.4h-.8zm2.6 3.8a1.9 1.9 0 0 0 1.6.7 1.4 1.4 0 0 0 1.6-1.5v-.7a2.1 2.1 0 0 1-3.8-1.6c0-1.6.9-2.5 2.1-2.5a2.1 2.1 0 0 1 1.7.8v-.7h.7v4.7c0 1.6-1.1 2.1-2.3 2.1a2.5 2.5 0 0 1-1.9-.7zm3.2-4.2a2 2 0 0 0-1.5-.8c-1 0-1.5.8-1.5 1.9s.5 1.8 1.5 1.8a2 2 0 0 0 1.5-.8zm8.1.3a1 1 0 0 0-1.1-1.1 2 2 0 0 0-1.5.8v3.5h-.7v-6.6h.7v2.5a2.5 2.5 0 0 1 1.8-.8 1.3 1.3 0 0 1 1.5 1.5v3.4h-.7zm5.2 2.7a2.1 2.1 0 0 1-1.6.6 1.6 1.6 0 0 1-1.7-1.6 1.6 1.6 0 0 1 1.7-1.5 2.1 2.1 0 0 1 1.6.6v-.9c0-.6-.5-1-1.2-1a1.9 1.9 0 0 0-1.5.7l-.3-.5a2.2 2.2 0 0 1 1.9-.8c1 0 1.9.4 1.9 1.6v3.3h-.8zm0-1.4a1.6 1.6 0 0 0-1.3-.6 1.1 1.1 0 0 0-1.2 1.1c0 .6.5 1 1.2 1a1.6 1.6 0 0 0 1.3-.6zm2.2.7a2.4 2.4 0 0 0 1.6.7c.8 0 1.2-.3 1.2-.8s-.6-.7-1.3-.8-1.7-.4-1.7-1.4.6-1.4 1.8-1.4a2.5 2.5 0 0 1 1.8.7l-.4.5a1.7 1.7 0 0 0-1.4-.6c-.7 0-1.1.3-1.1.7s.6.6 1.2.8 1.8.4 1.8 1.5-.6 1.4-1.9 1.4a2.4 2.4 0 0 1-1.9-.7zm-102.3 6.6h.7v2.5a2.1 2.1 0 0 1 1.7-.8 2.2 2.2 0 0 1 2.1 2.5c0 1.6-.9 2.5-2.1 2.5a2.1 2.1 0 0 1-1.7-.8v.7h-.7zm2.2 6.1c1 0 1.5-.8 1.5-1.9s-.5-1.9-1.5-1.9a2 2 0 0 0-1.5.8v2.2a2 2 0 0 0 1.5.8zm5.6-4.4a2.4 2.4 0 0 1 2.4 2.6v.2h-3.9a1.6 1.6 0 0 0 1.7 1.6 2.2 2.2 0 0 0 1.5-.6l.3.5a2.5 2.5 0 1 1-2-4.3zm-1.5 2.2h3.1a1.6 1.6 0 0 0-1.6-1.6 1.6 1.6 0 0 0-1.5 1.6zm7.2-2.2a2.1 2.1 0 0 1 1.8.8l-.5.5a1.5 1.5 0 0 0-1.3-.7c-1 0-1.6.8-1.6 1.9s.6 1.9 1.6 1.9a1.5 1.5 0 0 0 1.3-.7l.5.5a2.1 2.1 0 0 1-1.8.8 2.5 2.5 0 0 1 0-5zm2.5 2.5a2.4 2.4 0 0 1 2.4-2.5 2.5 2.5 0 0 1 0 5 2.4 2.4 0 0 1-2.4-2.5zm4 0c0-1-.5-1.9-1.6-1.9a1.9 1.9 0 0 0 0 3.8c1.1 0 1.6-.9 1.6-1.9zm7.9-.9c0-.6-.3-1-.9-1a1.8 1.8 0 0 0-1.3.8v3.5h-.7v-3.3c0-.6-.3-1-.9-1a1.8 1.8 0 0 0-1.3.8v3.5h-.8v-4.8h.8v.7a2 2 0 0 1 1.6-.8 1.3 1.3 0 0 1 1.3.9 1.8 1.8 0 0 1 1.6-.9c.9 0 1.3.5 1.3 1.4v3.5h-.7zm4.3-1.6c1.5 0 2.3 1.1 2.3 2.6v.2h-3.9a1.7 1.7 0 0 0 1.8 1.6 2.2 2.2 0 0 0 1.5-.6l.3.5a2.5 2.5 0 0 1-1.9.7 2.5 2.5 0 0 1-.1-5zm-1.6 2.2h3.2a1.6 1.6 0 0 0-1.6-1.6 1.7 1.7 0 0 0-1.6 1.6zm7.9 1.7v-3.1h-.8v-.7h.8v-1.3h.7v1.3h1v.7h-1v3a.6.6 0 0 0 .5.6l.5-.2.3.5a1.2 1.2 0 0 1-.9.3 1 1 0 0 1-1.1-1.1zm6-2.2c0-.8-.4-1.1-1-1.1a2 2 0 0 0-1.5.8v3.5h-.7v-6.6h.7v2.5a2.5 2.5 0 0 1 1.8-.8 1.3 1.3 0 0 1 1.5 1.5v3.4h-.8zm4.4-1.7c1.5 0 2.3 1.1 2.3 2.6v.2h-3.9a1.7 1.7 0 0 0 1.7 1.6 1.9 1.9 0 0 0 1.5-.6l.4.5a2.5 2.5 0 0 1-1.9.7 2.4 2.4 0 0 1-2.5-2.5 2.4 2.4 0 0 1 2.4-2.5zm-1.6 2.2h3.2a1.6 1.6 0 0 0-1.6-1.6 1.6 1.6 0 0 0-1.6 1.6zm11-.4c0-.9-.5-1.2-1.1-1.2a1.7 1.7 0 0 0-1.4.8v3.5h-.8v-4.8h.8v.7a2.3 2.3 0 0 1 1.7-.8 1.3 1.3 0 0 1 1.5 1.5v3.4h-.7zm5.5 2.4a2.1 2.1 0 0 1-1.7.8c-1.1 0-1.6-.5-1.6-1.5v-3.4h.8v3.2c0 .8.4 1.1 1 1.1a2 2 0 0 0 1.5-.8v-3.5h.7v4.8h-.7zm8.1-2.6c0-.6-.3-1-.9-1a1.7 1.7 0 0 0-1.3.8v3.5h-.8v-3.3c0-.6-.2-1-.9-1a1.6 1.6 0 0 0-1.2.8v3.5h-.8v-4.8h.8v.7a2 2 0 0 1 1.5-.8 1.2 1.2 0 0 1 1.3.9 2.1 2.1 0 0 1 1.7-.9 1.2 1.2 0 0 1 1.3 1.4v3.5h-.7zm2.2-3.3h.8v2.5a1.8 1.8 0 0 1 1.6-.8 2.2 2.2 0 0 1 2.1 2.5c0 1.6-.9 2.5-2.1 2.5a1.8 1.8 0 0 1-1.6-.8v.7h-.8zm2.2 6.1c1 0 1.6-.8 1.6-1.9s-.6-1.9-1.6-1.9a1.7 1.7 0 0 0-1.4.8v2.2a1.7 1.7 0 0 0 1.4.8zm5.7-4.4a2.3 2.3 0 0 1 2.3 2.6v.2h-3.9a1.6 1.6 0 0 0 1.7 1.6 2 2 0 0 0 1.5-.6l.4.5a2.7 2.7 0 0 1-2 .7 2.3 2.3 0 0 1-2.4-2.5 2.4 2.4 0 0 1 2.4-2.5zm-1.6 2.2h3.1a1.6 1.6 0 0 0-1.6-1.6 1.6 1.6 0 0 0-1.5 1.6zm5.1-2.1h.7v.8a2.2 2.2 0 0 1 1.6-.9v.8h-.3a2 2 0 0 0-1.3.8v3.4h-.7zm5.6 2.4a2.3 2.3 0 0 1 2.4-2.5 2.5 2.5 0 0 1 0 5 2.3 2.3 0 0 1-2.4-2.5zm4 0a1.7 1.7 0 0 0-1.6-1.9c-1.1 0-1.6.9-1.6 1.9s.5 1.9 1.6 1.9a1.7 1.7 0 0 0 1.6-1.9zm5.2-.7c0-.9-.4-1.2-1-1.2a2 2 0 0 0-1.5.8v3.5h-.7v-4.8h.7v.7a2.5 2.5 0 0 1 1.8-.8 1.3 1.3 0 0 1 1.5 1.5v3.4h-.8zm4.4-1.8c1.5 0 2.3 1.1 2.3 2.6v.2H309a1.7 1.7 0 0 0 1.7 1.6 1.9 1.9 0 0 0 1.5-.6l.4.5a2.5 2.5 0 0 1-1.9.7 2.4 2.4 0 0 1-2.5-2.5 2.4 2.4 0 0 1 2.4-2.5zm-1.6 2.2h3.2a1.6 1.6 0 0 0-1.6-1.6 1.6 1.6 0 0 0-1.6 1.6zm11.2 2a1.9 1.9 0 0 1-1.6.8 2.2 2.2 0 0 1-2.2-2.5 2.2 2.2 0 0 1 2.2-2.5 2.1 2.1 0 0 1 1.6.8v-2.5h.8v6.6h-.8zm0-2.8a1.8 1.8 0 0 0-1.4-.8c-1 0-1.6.8-1.6 1.9s.6 1.9 1.6 1.9a1.8 1.8 0 0 0 1.4-.8zm2.3-1.3h.7v.8a2.2 2.2 0 0 1 1.6-.9v.8h-.3a1.8 1.8 0 0 0-1.3.8v3.4h-.7zm3.1-1.3a.5.5 0 0 1 .5-.5.5.5 0 0 1 0 1 .5.5 0 0 1-.5-.5zm.2 1.3h.7v4.8h-.7zm1.5 0h.8l1.6 3.9 1.6-3.9h.8l-2 4.8h-.8zm5.5-1.3a.5.5 0 1 1 .5.5.5.5 0 0 1-.5-.5zm.1 1.3h.8v4.8h-.8zm5.5 1.7c0-.9-.4-1.2-1.1-1.2a1.8 1.8 0 0 0-1.4.8v3.5h-.7v-4.8h.7v.7a2.3 2.3 0 0 1 1.7-.8 1.4 1.4 0 0 1 1.6 1.5v3.4h-.8zm2.6 3.8a1.9 1.9 0 0 0 1.6.7 1.4 1.4 0 0 0 1.6-1.5v-.7a2.1 2.1 0 0 1-3.8-1.6c0-1.6.9-2.5 2.1-2.5a2.1 2.1 0 0 1 1.7.8v-.7h.7v4.7c0 1.6-1.1 2.1-2.3 2.1a2.5 2.5 0 0 1-1.9-.7zm3.2-4.2a2 2 0 0 0-1.5-.8c-1 0-1.5.8-1.5 1.9s.5 1.8 1.5 1.8a2 2 0 0 0 1.5-.8zm-134.8 14.8a2.1 2.1 0 0 1-1.6.8 2.2 2.2 0 0 1-2.2-2.5 2.2 2.2 0 0 1 2.2-2.5 2.1 2.1 0 0 1 1.6.8v-2.5h.7v6.6h-.7zm0-2.8a2 2 0 0 0-1.5-.8c-.9 0-1.5.8-1.5 1.9s.6 1.9 1.5 1.9a2 2 0 0 0 1.5-.8zm2.1-2.6a.5.5 0 1 1 .5.5.5.5 0 0 1-.5-.5zm.1 1.3h.8v4.8h-.8zm2.3 3.6a2 2 0 0 0 1.6.7c.7 0 1.1-.3 1.1-.8s-.6-.7-1.2-.8-1.8-.4-1.8-1.4.7-1.4 1.8-1.4a2.5 2.5 0 0 1 1.8.7l-.4.5a1.6 1.6 0 0 0-1.4-.6c-.7 0-1.1.3-1.1.7s.6.6 1.2.8 1.8.4 1.8 1.5-.6 1.4-1.9 1.4a2.5 2.5 0 0 1-1.9-.7zm4.8.2v-3.1h-.8v-.7h.8v-1.3h.7v1.3h1v.7h-1v3a.6.6 0 0 0 .5.6l.5-.2.3.5a1.2 1.2 0 0 1-.9.3 1 1 0 0 1-1.1-1.1zm2.8-3.8h.7v.8a2.2 2.2 0 0 1 1.6-.9v.8h-.3a2 2 0 0 0-1.3.8v3.4h-.7zm6.3 4.3a2.1 2.1 0 0 1-1.6.6 1.6 1.6 0 0 1-1.7-1.6 1.6 1.6 0 0 1 1.7-1.5 2.1 2.1 0 0 1 1.6.6v-.9c0-.6-.5-1-1.2-1a1.8 1.8 0 0 0-1.5.7l-.3-.5a2.2 2.2 0 0 1 1.9-.8c1 0 1.9.4 1.9 1.6v3.3h-.8zm0-1.4a1.6 1.6 0 0 0-1.3-.6 1.1 1.1 0 0 0-1.2 1.1c0 .6.5 1 1.2 1a1.6 1.6 0 0 0 1.3-.6zm4.4-3a2.1 2.1 0 0 1 1.8.8l-.5.5a1.6 1.6 0 0 0-1.3-.7c-1 0-1.6.8-1.6 1.9s.6 1.9 1.6 1.9a1.6 1.6 0 0 0 1.3-.7l.5.5a2.1 2.1 0 0 1-1.8.8 2.5 2.5 0 0 1 0-5zm3 3.9v-3.1h-.8v-.7h.8v-1.3h.7v1.3h1v.7h-1v3a.6.6 0 0 0 .5.6l.5-.2.2.5a1.1 1.1 0 0 1-.9.3c-.7 0-1-.4-1-1.1zm2.6-5.1a.5.5 0 1 1 .5.5.5.5 0 0 1-.5-.5zm.1 1.3h.8v4.8h-.8zm2 2.4a2.4 2.4 0 1 1 2.4 2.5 2.3 2.3 0 0 1-2.4-2.5zm4 0a1.6 1.6 0 1 0-1.6 1.9 1.7 1.7 0 0 0 1.6-1.9zm5.3-.7c0-.9-.5-1.2-1.1-1.2a1.7 1.7 0 0 0-1.4.8v3.5h-.8v-4.8h.8v.7a2.3 2.3 0 0 1 1.7-.8 1.3 1.3 0 0 1 1.5 1.5v3.4h-.7zm5-1h-.8v-.7h.8v-.4a1.3 1.3 0 0 1 1.4-1.5h.7v.6h-.5c-.5 0-.7.3-.7.9v.4h.9v.7h-1v4.1h-.8zm2.4 1.7a2.4 2.4 0 1 1 2.3 2.5 2.3 2.3 0 0 1-2.3-2.5zm3.9 0c0-1-.5-1.9-1.6-1.9a1.9 1.9 0 0 0 0 3.8c1.1 0 1.6-.9 1.6-1.9zm2.1-2.4h.7v.8a2.2 2.2 0 0 1 1.6-.9v.8h-.3a1.8 1.8 0 0 0-1.3.8v3.4h-.7zm11.7 1.5c0-.6-.3-1-.9-1a1.7 1.7 0 0 0-1.3.8v3.5h-.8v-3.3c0-.6-.2-1-.8-1a1.7 1.7 0 0 0-1.3.8v3.5h-.8v-4.8h.8v.7a2 2 0 0 1 1.5-.8 1.2 1.2 0 0 1 1.3.9 2.1 2.1 0 0 1 1.7-.9 1.2 1.2 0 0 1 1.3 1.4v3.5h-.7zm5.2 2.8a2.1 2.1 0 0 1-1.6.6 1.6 1.6 0 0 1-1.7-1.6 1.6 1.6 0 0 1 1.7-1.5 2.1 2.1 0 0 1 1.6.6v-.9c0-.6-.5-1-1.2-1a1.9 1.9 0 0 0-1.5.7l-.3-.5a2.2 2.2 0 0 1 1.9-.8c1 0 1.9.4 1.9 1.6v3.3h-.8zm0-1.4a1.6 1.6 0 0 0-1.3-.6 1.1 1.1 0 0 0-1.2 1.1c0 .6.5 1 1.2 1a1.6 1.6 0 0 0 1.3-.6zm5.5-1.2c0-.9-.4-1.2-1-1.2a2 2 0 0 0-1.5.8v3.5h-.7v-4.8h.7v.7a2.5 2.5 0 0 1 1.8-.8 1.3 1.3 0 0 1 1.5 1.5v3.4h-.8zm2.6 4.4c.3 0 .5-.1.7-.5l.3-.7-2-4.9h.8l1.6 3.9 1.6-3.9h.8l-2.4 5.8a1.5 1.5 0 0 1-1.4 1h-.6v-.7zm7.2.6v-6.7h.7v.7a2.1 2.1 0 0 1 1.7-.8c1.2 0 2.1.9 2.1 2.5s-.9 2.5-2.1 2.5a2.1 2.1 0 0 1-1.7-.8v2.6zm2.2-6.2a2 2 0 0 0-1.5.8v2.2a2 2 0 0 0 1.5.8c.9 0 1.5-.8 1.5-1.9s-.6-1.9-1.5-1.9zm5.6-.6c1.5 0 2.3 1.1 2.3 2.6v.2H301a1.7 1.7 0 0 0 1.8 1.6 2.2 2.2 0 0 0 1.5-.6l.3.5a2.5 2.5 0 0 1-1.9.7 2.5 2.5 0 0 1-.1-5zm-1.6 2.2h3.2a1.6 1.6 0 0 0-1.6-1.6 1.7 1.7 0 0 0-1.6 1.6zm4.9.3a2.4 2.4 0 1 1 2.4 2.5 2.3 2.3 0 0 1-2.4-2.5zm4 0a1.7 1.7 0 1 0-1.6 1.9 1.7 1.7 0 0 0 1.6-1.9zm2 4.3v-6.7h.7v.7a2.1 2.1 0 0 1 1.6-.8 2.5 2.5 0 0 1 0 5 2.1 2.1 0 0 1-1.6-.8v2.6zm2.2-6.2a2 2 0 0 0-1.5.8v2.2a2 2 0 0 0 1.5.8c.9 0 1.5-.8 1.5-1.9s-.6-1.9-1.5-1.9zm3.5-2.3h.8v6.6h-.8zm4.4 1.7a2.3 2.3 0 0 1 2.3 2.6v.2h-3.9a1.6 1.6 0 0 0 1.7 1.6 2 2 0 0 0 1.5-.6l.4.5a2.7 2.7 0 0 1-2 .7 2.3 2.3 0 0 1-2.4-2.5 2.4 2.4 0 0 1 2.4-2.5zm-1.6 2.2h3.1a1.6 1.6 0 0 0-1.6-1.6 1.6 1.6 0 0 0-1.5 1.6zm5.4 1.7a.6.6 0 0 1 .6.6.6.6 0 0 1-.6.5.5.5 0 0 1-.5-.5.6.6 0 0 1 .5-.6zm-119.9 12.4h2.3a3.3 3.3 0 1 1 0 6.6h-2.3zm2.3 5.9a2.5 2.5 0 0 0 2.6-2.6 2.5 2.5 0 0 0-2.6-2.6h-1.4v5.2zm4.7-4.1h.7v.8a2.2 2.2 0 0 1 1.7-.9v.8h-.3a2 2 0 0 0-1.4.8v3.4h-.7zm3.2-1.3a.5.5 0 0 1 .5-.5.5.5 0 0 1 0 1 .5.5 0 0 1-.5-.5zm.1 1.3h.7v4.8h-.7zm1.5 0h.8l1.6 3.9 1.6-3.9h.9l-2 4.8h-.9zm7.7-.1a2.4 2.4 0 0 1 2.4 2.6v.2h-3.9a1.6 1.6 0 0 0 1.7 1.6 2.2 2.2 0 0 0 1.5-.6l.3.5a2.5 2.5 0 1 1-2-4.3zm-1.5 2.2h3.1a1.6 1.6 0 0 0-1.6-1.6 1.6 1.6 0 0 0-1.5 1.6zm5.1-2.1h.7v.8a2.2 2.2 0 0 1 1.6-.9v.8h-.3a1.8 1.8 0 0 0-1.3.8v3.4h-.7zm3.2 3.6a2.4 2.4 0 0 0 1.6.7c.8 0 1.2-.3 1.2-.8s-.6-.7-1.3-.8-1.7-.4-1.7-1.4.6-1.4 1.8-1.4a2.5 2.5 0 0 1 1.8.7l-.4.5a1.7 1.7 0 0 0-1.4-.6c-.7 0-1.1.3-1.1.7s.6.6 1.2.8 1.8.4 1.8 1.5-.6 1.4-1.9 1.4a2.4 2.4 0 0 1-1.9-.7zm10.6-1.9c0-.9-.5-1.2-1.1-1.2a1.7 1.7 0 0 0-1.4.8v3.5h-.8v-4.8h.8v.7a2.3 2.3 0 0 1 1.7-.8 1.3 1.3 0 0 1 1.5 1.5v3.4h-.7zm4.3-1.8c1.5 0 2.3 1.1 2.3 2.6v.2h-3.9a1.7 1.7 0 0 0 1.8 1.6 2.2 2.2 0 0 0 1.5-.6l.3.5a2.5 2.5 0 0 1-1.9.7 2.5 2.5 0 0 1-.1-5zm-1.6 2.2h3.2a1.6 1.6 0 0 0-1.6-1.6 1.7 1.7 0 0 0-1.6 1.6zm7.2-2.2a2.4 2.4 0 0 1 2.4 2.6v.2h-3.9a1.6 1.6 0 0 0 1.7 1.6 2.2 2.2 0 0 0 1.5-.6l.3.5a2.5 2.5 0 1 1-2-4.3zm-1.5 2.2h3.1a1.6 1.6 0 0 0-1.6-1.6 1.6 1.6 0 0 0-1.5 1.6zm8.6 2a2.1 2.1 0 0 1-1.7.8c-1.2 0-2.1-.9-2.1-2.5a2.2 2.2 0 0 1 2.1-2.5 2.1 2.1 0 0 1 1.7.8v-2.5h.7v6.6h-.7zm0-2.8a2 2 0 0 0-1.5-.8c-.9 0-1.5.8-1.5 1.9s.6 1.9 1.5 1.9a2 2 0 0 0 1.5-.8zm5 2.5v-3.1h-.8v-.7h.8v-1.3h.7v1.3h1v.7h-1v3a.6.6 0 0 0 .5.6l.5-.2.2.5a1.1 1.1 0 0 1-.9.3c-.7 0-1-.4-1-1.1zm2.5-1.4a2.4 2.4 0 1 1 2.4 2.5 2.3 2.3 0 0 1-2.4-2.5zm4 0a1.7 1.7 0 1 0-1.6 1.9 1.7 1.7 0 0 0 1.6-1.9zm4.5-4.2h.8v2.5a2.1 2.1 0 0 1 1.6-.8 2.2 2.2 0 0 1 2.2 2.5 2.2 2.2 0 0 1-2.2 2.5 1.9 1.9 0 0 1-1.6-.8v.7h-.8zm2.2 6.1c1 0 1.6-.8 1.6-1.9s-.6-1.9-1.6-1.9a1.8 1.8 0 0 0-1.4.8v2.2a1.8 1.8 0 0 0 1.4.8zm5.7-4.4c1.5 0 2.3 1.1 2.3 2.6v.2h-3.9a1.7 1.7 0 0 0 1.7 1.6 1.9 1.9 0 0 0 1.5-.6l.4.5a2.5 2.5 0 0 1-1.9.7 2.4 2.4 0 0 1-2.5-2.5 2.4 2.4 0 0 1 2.4-2.5zm-1.6 2.2h3.2a1.6 1.6 0 0 0-1.6-1.6 1.6 1.6 0 0 0-1.6 1.6zm10.7 2.2a2.1 2.1 0 0 1-1.6.6 1.6 1.6 0 0 1-1.7-1.6 1.6 1.6 0 0 1 1.7-1.5 2.1 2.1 0 0 1 1.6.6v-.9c0-.6-.5-1-1.2-1a1.9 1.9 0 0 0-1.5.7l-.3-.5a2.2 2.2 0 0 1 1.9-.8c1 0 1.9.4 1.9 1.6v3.3h-.8zm0-1.4a1.6 1.6 0 0 0-1.3-.6 1.1 1.1 0 0 0-1.2 1.1c0 .6.5 1 1.2 1a1.6 1.6 0 0 0 1.3-.6zm5.2-2l-1.3 3.9h-.7l-1.6-4.8h.8l1.2 3.8 1.3-3.8h.6l1.3 3.8 1.2-3.8h.7l-1.5 4.8h-.7zm7.4 3.4a2.1 2.1 0 0 1-1.6.6 1.6 1.6 0 0 1-1.7-1.6 1.6 1.6 0 0 1 1.7-1.5 2.1 2.1 0 0 1 1.6.6v-.9c0-.6-.5-1-1.2-1a1.9 1.9 0 0 0-1.5.7l-.3-.5a2.2 2.2 0 0 1 1.9-.8c1 0 1.9.4 1.9 1.6v3.3h-.8zm0-1.4a1.6 1.6 0 0 0-1.3-.6 1.1 1.1 0 0 0-1.2 1.1c0 .6.5 1 1.2 1a1.6 1.6 0 0 0 1.3-.6zm2.3-2.9h.7v.8a2.2 2.2 0 0 1 1.6-.9v.8h-.3a2 2 0 0 0-1.3.8v3.4h-.7zm5.4-.1a2.3 2.3 0 0 1 2.3 2.6v.2h-3.9a1.7 1.7 0 0 0 1.7 1.6 2 2 0 0 0 1.5-.6l.4.5a2.5 2.5 0 0 1-1.9.7 2.4 2.4 0 0 1-2.5-2.5 2.4 2.4 0 0 1 2.4-2.5zm-1.6 2.2h3.2a1.6 1.6 0 1 0-3.2 0zm7.4.3a2.4 2.4 0 1 1 2.4 2.5 2.3 2.3 0 0 1-2.4-2.5zm4 0a1.6 1.6 0 1 0-1.6 1.9 1.7 1.7 0 0 0 1.6-1.9zm2.2-1.7h-.8v-.7h.8v-.4a1.3 1.3 0 0 1 1.4-1.5h.8l-.2.6h-.5c-.5 0-.7.3-.7.9v.4h1v.7h-1v4.1h-.8zm5.4 3.1v-3.1h-.8v-.7h.8v-1.3h.7v1.3h1v.7h-1v3a.6.6 0 0 0 .5.6l.5-.2.2.5q-.1.3-.9.3c-.7 0-1-.4-1-1.1zm6-2.2a1 1 0 0 0-1.1-1.1 2 2 0 0 0-1.4.8v3.5h-.7v-6.6h.7v2.5a2.5 2.5 0 0 1 1.7-.8c1.1 0 1.6.5 1.6 1.5v3.4h-.8zm4.4-1.7a2.3 2.3 0 0 1 2.3 2.6v.2h-3.9a1.7 1.7 0 0 0 1.7 1.6 2 2 0 0 0 1.5-.6l.4.5a2.5 2.5 0 0 1-1.9.7 2.4 2.4 0 0 1-2.5-2.5 2.4 2.4 0 0 1 2.4-2.5zm-1.6 2.2h3.2a1.6 1.6 0 0 0-3.2 0zm-129.9 14a2.1 2.1 0 0 1-1.6.8 2.2 2.2 0 0 1-2.2-2.5 2.2 2.2 0 0 1 2.2-2.5 2.1 2.1 0 0 1 1.6.8v-2.5h.7v6.6h-.7zm0-2.8a2 2 0 0 0-1.5-.8c-.9 0-1.5.8-1.5 1.9s.6 1.9 1.5 1.9a2 2 0 0 0 1.5-.8zm5.3 3a2.3 2.3 0 0 1-1.6.6 1.5 1.5 0 0 1-1.7-1.6 1.5 1.5 0 0 1 1.7-1.5 2.3 2.3 0 0 1 1.6.6v-.9c0-.6-.6-1-1.3-1a1.7 1.7 0 0 0-1.4.7l-.4-.5a2.4 2.4 0 0 1 1.9-.8c1.1 0 1.9.4 1.9 1.6v3.3h-.7zm0-1.4a1.7 1.7 0 0 0-1.4-.6 1.1 1.1 0 0 0-1.2 1.1c0 .6.5 1 1.2 1a1.7 1.7 0 0 0 1.4-.6zm5.5-1.2c0-.9-.5-1.2-1.1-1.2a1.7 1.7 0 0 0-1.4.8v3.5h-.8v-4.8h.8v.7a2.3 2.3 0 0 1 1.7-.8 1.3 1.3 0 0 1 1.5 1.5v3.4h-.7zm2.6 3.8a1.9 1.9 0 0 0 1.6.7 1.4 1.4 0 0 0 1.5-1.5v-.7a1.9 1.9 0 0 1-1.6.9 2.2 2.2 0 0 1-2.2-2.5 2.2 2.2 0 0 1 2.2-2.5 2.1 2.1 0 0 1 1.6.8v-.7h.8v4.7a2 2 0 0 1-2.3 2.1 2.7 2.7 0 0 1-2-.7zm3.1-4.2a1.7 1.7 0 0 0-1.4-.8c-1 0-1.6.8-1.6 1.9a1.6 1.6 0 0 0 1.6 1.8 1.7 1.7 0 0 0 1.4-.8zm4.4-1.4a2.3 2.3 0 0 1 2.3 2.6v.2h-3.9a1.6 1.6 0 0 0 1.7 1.6 2 2 0 0 0 1.5-.6l.4.5a2.7 2.7 0 0 1-2 .7 2.3 2.3 0 0 1-2.4-2.5 2.4 2.4 0 0 1 2.4-2.5zm-1.6 2.2h3.1a1.5 1.5 0 0 0-1.5-1.6 1.6 1.6 0 0 0-1.6 1.6zm5.1-2.1h.7v.8a2.2 2.2 0 0 1 1.7-.9v.8h-.3a2 2 0 0 0-1.4.8v3.4h-.7zm3.3 3.6a2 2 0 0 0 1.6.7c.7 0 1.1-.3 1.1-.8s-.6-.7-1.2-.8-1.8-.4-1.8-1.4.7-1.4 1.8-1.4a2.5 2.5 0 0 1 1.8.7l-.4.5a1.6 1.6 0 0 0-1.4-.6c-.7 0-1.1.3-1.1.7s.6.6 1.2.8 1.8.4 1.8 1.5-.6 1.4-1.9 1.4a2.5 2.5 0 0 1-1.9-.7zm10.2.7a2.1 2.1 0 0 1-1.6.6 1.5 1.5 0 0 1-1.6-1.6 1.5 1.5 0 0 1 1.6-1.5 2 2 0 0 1 1.6.6v-.9c0-.6-.5-1-1.2-1a1.9 1.9 0 0 0-1.5.7l-.3-.5a2.2 2.2 0 0 1 1.9-.8c1 0 1.9.4 1.9 1.6v3.3h-.8zm0-1.4a1.5 1.5 0 0 0-1.3-.6 1.1 1.1 0 0 0-1.2 1.1c0 .6.5 1 1.2 1a1.5 1.5 0 0 0 1.3-.6zm5.6-1.2c0-.9-.5-1.2-1.1-1.2a2 2 0 0 0-1.5.8v3.5h-.7v-4.8h.7v.7a2.5 2.5 0 0 1 1.8-.8 1.3 1.3 0 0 1 1.5 1.5v3.4h-.7zm5.7 2.4a1.9 1.9 0 0 1-1.6.8 2.2 2.2 0 0 1-2.2-2.5 2.2 2.2 0 0 1 2.2-2.5 2.1 2.1 0 0 1 1.6.8v-2.5h.8v6.6h-.8zm0-2.8a1.8 1.8 0 0 0-1.4-.8c-1 0-1.6.8-1.6 1.9s.6 1.9 1.6 1.9a1.8 1.8 0 0 0 1.4-.8zm6.4 1.4l-.8.7v1.4h-.8v-6.6h.8v4.4l2.5-2.6h1l-2.2 2.2 2.2 2.6h-1zm5.4-2.8a2.4 2.4 0 0 1 2.4 2.6v.2h-3.9a1.6 1.6 0 0 0 1.7 1.6 2.2 2.2 0 0 0 1.5-.6l.3.5a2.5 2.5 0 1 1-2-4.3zm-1.5 2.2h3.1a1.6 1.6 0 0 0-1.6-1.6 1.6 1.6 0 0 0-1.5 1.6zm7.2-2.2a2.3 2.3 0 0 1 2.3 2.6v.2h-3.9a1.6 1.6 0 0 0 1.7 1.6 2 2 0 0 0 1.5-.6l.4.5a2.6 2.6 0 0 1-1.9.7 2.4 2.4 0 0 1-2.5-2.5 2.4 2.4 0 0 1 2.4-2.5zm-1.6 2.2h3.2a1.6 1.6 0 0 0-1.6-1.6 1.6 1.6 0 0 0-1.6 1.6zm5.1 4.6v-6.7h.8v.7a1.8 1.8 0 0 1 1.6-.8c1.3 0 2.1.9 2.1 2.5s-.8 2.5-2.1 2.5a1.8 1.8 0 0 1-1.6-.8v2.6zm2.2-6.2a1.7 1.7 0 0 0-1.4.8v2.2a1.7 1.7 0 0 0 1.4.8c1 0 1.5-.8 1.5-1.9s-.5-1.9-1.5-1.9zm6.3 3.3v-3.1h-.8v-.7h.8v-1.3h.7v1.3h1v.7h-1v3a.6.6 0 0 0 .5.6l.5-.2.2.5q-.2.3-.9.3c-.7 0-1-.4-1-1.1zm6-2.2a1 1 0 0 0-1.1-1.1 2 2 0 0 0-1.4.8v3.5h-.7v-6.6h.7v2.5a2.5 2.5 0 0 1 1.7-.8c1.1 0 1.6.5 1.6 1.5v3.4h-.8zm4.4-1.7a2.3 2.3 0 0 1 2.3 2.6v.2h-3.9a1.7 1.7 0 0 0 1.7 1.6 2 2 0 0 0 1.5-.6l.4.5a2.5 2.5 0 0 1-1.9.7 2.4 2.4 0 0 1-2.5-2.5 2.4 2.4 0 0 1 2.4-2.5zm-1.6 2.2h3.2a1.6 1.6 0 0 0-3.2 0zm5-3.4a.5.5 0 1 1 .5.5.5.5 0 0 1-.5-.5zm.1 1.3h.8v4.8h-.8zm2.3 0h.7v.8a2.2 2.2 0 0 1 1.6-.9v.8h-.3a1.8 1.8 0 0 0-1.3.8v3.4h-.7zm8.9 4.3a2.3 2.3 0 0 1-1.6.6 1.5 1.5 0 0 1-1.7-1.6 1.5 1.5 0 0 1 1.7-1.5 2.3 2.3 0 0 1 1.6.6v-.9c0-.6-.6-1-1.3-1a1.7 1.7 0 0 0-1.4.7l-.4-.5a2.4 2.4 0 0 1 1.9-.8c1.1 0 1.9.4 1.9 1.6v3.3h-.7zm0-1.4a1.7 1.7 0 0 0-1.4-.6 1.1 1.1 0 0 0-1.2 1.1c0 .6.5 1 1.2 1a1.7 1.7 0 0 0 1.4-.6zm2.4.9v-3.1h-.8v-.7h.8v-1.3h.7v1.3h1v.7h-1v3a.6.6 0 0 0 .5.6l.5-.2.2.5a1.1 1.1 0 0 1-.9.3c-.7 0-1-.4-1-1.1zm2.9 0v-3.1h-.8v-.7h.8v-1.3h.8v1.3h.9v.7h-.9v3c0 .3.1.6.4.6l.6-.2.2.5a1.2 1.2 0 0 1-.9.3 1 1 0 0 1-1.1-1.1zm4.9-3.9c1.5 0 2.3 1.1 2.3 2.6v.2h-3.9a1.7 1.7 0 0 0 1.7 1.6 1.9 1.9 0 0 0 1.5-.6l.4.5a2.5 2.5 0 0 1-1.9.7 2.4 2.4 0 0 1-2.5-2.5 2.4 2.4 0 0 1 2.4-2.5zm-1.6 2.2h3.2a1.6 1.6 0 0 0-1.6-1.6 1.6 1.6 0 0 0-1.6 1.6zm8.4-.4c0-.9-.4-1.2-1.1-1.2a1.8 1.8 0 0 0-1.4.8v3.5h-.8v-4.8h.8v.7a2.3 2.3 0 0 1 1.7-.8 1.3 1.3 0 0 1 1.5 1.5v3.4h-.7zm1.8.4h2.4v.6H332zm-126 13.7v-3.1h-.8v-.7h.8v-1.3h.8v1.3h1v.7h-1v3a.6.6 0 0 0 .5.6l.5-.2.2.5a1.1 1.1 0 0 1-.9.3 1 1 0 0 1-1.1-1.1zm2.7-5.1a.5.5 0 1 1 .5.5.5.5 0 0 1-.5-.5zm.1 1.3h.8v4.8h-.8zm2 2.4a2.4 2.4 0 1 1 2.4 2.5 2.3 2.3 0 0 1-2.4-2.5zm4 0a1.6 1.6 0 1 0-1.6 1.9 1.7 1.7 0 0 0 1.6-1.9zm5.3-.7c0-.9-.5-1.2-1.1-1.2a1.7 1.7 0 0 0-1.4.8v3.5h-.8v-4.8h.8v.7a2.3 2.3 0 0 1 1.7-.8 1.3 1.3 0 0 1 1.5 1.5v3.4h-.7zm4.5.7a2.4 2.4 0 1 1 2.4 2.5 2.3 2.3 0 0 1-2.4-2.5zm4 0a1.6 1.6 0 1 0-1.6 1.9 1.7 1.7 0 0 0 1.6-1.9zm5.3-.7c0-.9-.5-1.2-1.1-1.2a1.7 1.7 0 0 0-1.4.8v3.5h-.8v-4.8h.8v.7a2.3 2.3 0 0 1 1.7-.8 1.3 1.3 0 0 1 1.5 1.5v3.4h-.7zm5 2.1v-3.1h-.8v-.7h.8v-1.3h.7v1.3h1v.7h-1v3a.6.6 0 0 0 .5.6l.5-.2.2.5a1.1 1.1 0 0 1-.9.3c-.7 0-1-.4-1-1.1zm6-2.2a1 1 0 0 0-1.1-1.1 1.8 1.8 0 0 0-1.4.8v3.5h-.8v-6.6h.8v2.5a2.3 2.3 0 0 1 1.7-.8 1.4 1.4 0 0 1 1.6 1.5v3.4h-.8zm4.4-1.7a2.3 2.3 0 0 1 2.3 2.6v.2h-3.9a1.6 1.6 0 0 0 1.7 1.6 2 2 0 0 0 1.5-.6l.4.5a2.7 2.7 0 0 1-2 .7 2.3 2.3 0 0 1-2.4-2.5 2.4 2.4 0 0 1 2.4-2.5zm-1.6 2.2h3.1a1.5 1.5 0 0 0-1.5-1.6 1.6 1.6 0 0 0-1.6 1.6zm7.7-2.1h.7v.8a2.2 2.2 0 0 1 1.6-.9v.8h-.3a1.8 1.8 0 0 0-1.3.8v3.4h-.7zm3 2.4a2.4 2.4 0 1 1 2.4 2.5 2.3 2.3 0 0 1-2.4-2.5zm4 0a1.6 1.6 0 1 0-1.6 1.9 1.7 1.7 0 0 0 1.6-1.9zm5 1.9a2.1 2.1 0 0 1-1.6.6 1.6 1.6 0 0 1-1.7-1.6 1.6 1.6 0 0 1 1.7-1.5 2.1 2.1 0 0 1 1.6.6v-.9c0-.6-.5-1-1.2-1a1.8 1.8 0 0 0-1.5.7l-.3-.5a2.2 2.2 0 0 1 1.9-.8c1 0 1.9.4 1.9 1.6v3.3h-.8zm0-1.4a1.6 1.6 0 0 0-1.3-.6 1.1 1.1 0 0 0-1.2 1.1c0 .6.5 1 1.2 1a1.6 1.6 0 0 0 1.3-.6zm5.8 1.2a2.1 2.1 0 0 1-1.7.8c-1.2 0-2.1-.9-2.1-2.5a2.2 2.2 0 0 1 2.1-2.5 2.1 2.1 0 0 1 1.7.8v-2.5h.7v6.6h-.7zm0-2.8a2 2 0 0 0-1.5-.8c-1 0-1.5.8-1.5 1.9s.5 1.9 1.5 1.9a2 2 0 0 0 1.5-.8zm2 4.5a1.4 1.4 0 0 0 .7-1c0 .1-.1.1-.2.1a.5.5 0 0 1-.4-.5.6.6 0 0 1 .5-.6c.3 0 .6.3.6.8a1.8 1.8 0 0 1-.8 1.5zm8.4-4.1c0-.9-.5-1.2-1.1-1.2a2 2 0 0 0-1.5.8v3.5h-.7v-4.8h.7v.7a2.5 2.5 0 0 1 1.8-.8 1.3 1.3 0 0 1 1.5 1.5v3.4h-.7zm1.9.7a2.4 2.4 0 1 1 2.4 2.5 2.3 2.3 0 0 1-2.4-2.5zm4 0a1.6 1.6 0 1 0-1.6 1.9 1.7 1.7 0 0 0 1.6-1.9zm2.2 1.4v-3.1h-.8v-.7h.8v-1.3h.7v1.3h1v.7h-1v3a.6.6 0 0 0 .5.6l.5-.2.2.5q-.2.3-.9.3c-.7 0-1-.4-1-1.1zm5.1-1.4a2.4 2.4 0 1 1 2.4 2.5 2.3 2.3 0 0 1-2.4-2.5zm4 0a1.7 1.7 0 1 0-1.6 1.9 1.7 1.7 0 0 0 1.6-1.9zm5.2-.7c0-.9-.4-1.2-1.1-1.2a2 2 0 0 0-1.4.8v3.5h-.7v-4.8h.7v.7a2.5 2.5 0 0 1 1.7-.8 1.4 1.4 0 0 1 1.6 1.5v3.4h-.8zm5 2.1v-3.1h-.8v-.7h.8v-1.3h.8v1.3h.9v.7h-.9v3c0 .3.1.6.4.6l.6-.2.2.5a1.2 1.2 0 0 1-.9.3 1 1 0 0 1-1.1-1.1zm6.1-2.2a1 1 0 0 0-1.1-1.1 2 2 0 0 0-1.5.8v3.5h-.7v-6.6h.7v2.5a2.5 2.5 0 0 1 1.8-.8 1.3 1.3 0 0 1 1.5 1.5v3.4h-.7zm4.3-1.7c1.5 0 2.3 1.1 2.3 2.6v.2h-3.9a1.7 1.7 0 0 0 1.8 1.6 1.8 1.8 0 0 0 1.4-.6l.4.5a2.5 2.5 0 0 1-1.9.7 2.5 2.5 0 0 1-.1-5zm-1.6 2.2h3.2a1.6 1.6 0 0 0-1.6-1.6 1.7 1.7 0 0 0-1.6 1.6zm5-3.4a.5.5 0 1 1 .5.5.5.5 0 0 1-.5-.5zm.1 1.3h.8v4.8h-.8zm2.3 0h.7v.8a2.2 2.2 0 0 1 1.7-.9v.8h-.3a2 2 0 0 0-1.4.8v3.4h-.7zM208 286.3a2.1 2.1 0 0 1 1.8.8l-.5.5a1.3 1.3 0 0 0-1.2-.7 1.9 1.9 0 0 0 0 3.8 1.3 1.3 0 0 0 1.2-.7l.5.5a2.1 2.1 0 0 1-1.8.8 2.5 2.5 0 0 1 0-5zm4.9 0a2.4 2.4 0 0 1 2.4 2.6v.2h-3.9a1.6 1.6 0 0 0 1.7 1.6 2.2 2.2 0 0 0 1.5-.6l.3.5a2.5 2.5 0 1 1-2-4.3zm-1.5 2.2h3.1a1.6 1.6 0 0 0-1.6-1.6 1.6 1.6 0 0 0-1.5 1.6zm5.1-3.9h.7v6.6h-.7zm2.2 0h.8v6.6h-.8zm4.9 8.5v-6.7h.7v.7a2.1 2.1 0 0 1 1.6-.8 2.5 2.5 0 0 1 0 5 2.1 2.1 0 0 1-1.6-.8v2.6zm2.1-6.2a2 2 0 0 0-1.4.8v2.2a2 2 0 0 0 1.4.8c1 0 1.6-.8 1.6-1.9s-.6-1.9-1.6-1.9zm6.9 1.1a1 1 0 0 0-1.1-1.1 2 2 0 0 0-1.5.8v3.5h-.7v-6.6h.7v2.5a2.5 2.5 0 0 1 1.8-.8 1.3 1.3 0 0 1 1.5 1.5v3.4h-.7zm1.9.8a2.4 2.4 0 0 1 2.4-2.5 2.5 2.5 0 0 1 0 5 2.4 2.4 0 0 1-2.4-2.5zm4 0c0-1-.5-1.9-1.6-1.9a1.9 1.9 0 0 0 0 3.8c1.1 0 1.6-.9 1.6-1.9zm5.3-.7c0-.9-.4-1.2-1.1-1.2a1.8 1.8 0 0 0-1.4.8v3.5h-.8v-4.8h.8v.7a2.3 2.3 0 0 1 1.7-.8 1.3 1.3 0 0 1 1.5 1.5v3.4h-.7zm4.3-1.8a2.4 2.4 0 0 1 2.4 2.6v.2h-3.9a1.6 1.6 0 0 0 1.7 1.6 2.2 2.2 0 0 0 1.5-.6l.3.5a2.5 2.5 0 1 1-2-4.3zm-1.5 2.2h3.1a1.6 1.6 0 0 0-1.6-1.6 1.6 1.6 0 0 0-1.5 1.6zm5 1.5a2.4 2.4 0 0 0 1.6.7c.8 0 1.2-.3 1.2-.8s-.6-.7-1.3-.8-1.7-.4-1.7-1.4.6-1.4 1.8-1.4a2.5 2.5 0 0 1 1.8.7l-.4.5a1.7 1.7 0 0 0-1.4-.6c-.7 0-1.1.3-1.1.7s.6.6 1.2.8 1.8.4 1.8 1.5-.6 1.4-1.9 1.4a2.4 2.4 0 0 1-1.9-.7zm7-1.2a2.4 2.4 0 1 1 2.4 2.5 2.3 2.3 0 0 1-2.4-2.5zm4 0a1.6 1.6 0 1 0-1.6 1.9 1.7 1.7 0 0 0 1.6-1.9zm2-2.4h.8v.8a2 2 0 0 1 1.6-.9v.8h-.3a1.7 1.7 0 0 0-1.3.8v3.4h-.8zm5.6 2.4a2.4 2.4 0 1 1 2.4 2.5 2.3 2.3 0 0 1-2.4-2.5zm4 0a1.6 1.6 0 1 0-1.6 1.9 1.7 1.7 0 0 0 1.6-1.9zm2.2 1.4v-3.1h-.8v-.7h.8v-1.3h.7v1.3h1v.7h-1v3a.6.6 0 0 0 .5.6l.5-.2.2.5q-.2.3-.9.3c-.7 0-1-.4-1-1.1zm6-2.2a1 1 0 0 0-1.1-1.1 2 2 0 0 0-1.4.8v3.5h-.7v-6.6h.7v2.5a2.5 2.5 0 0 1 1.7-.8c1.1 0 1.6.5 1.6 1.5v3.4h-.8zm4.4-1.7a2.3 2.3 0 0 1 2.3 2.6v.2h-3.9a1.7 1.7 0 0 0 1.7 1.6 2 2 0 0 0 1.5-.6l.4.5a2.5 2.5 0 0 1-1.9.7 2.4 2.4 0 0 1-2.5-2.5 2.4 2.4 0 0 1 2.4-2.5zm-1.6 2.2h3.2a1.6 1.6 0 1 0-3.2 0zm5.1-2.1h.8v.8a2 2 0 0 1 1.6-.9v.8h-.3a1.7 1.7 0 0 0-1.3.8v3.4h-.8zm11.7 1.5c0-.6-.2-1-.9-1a1.5 1.5 0 0 0-1.2.8v3.5h-.8v-3.3c0-.6-.3-1-.9-1a1.8 1.8 0 0 0-1.3.8v3.5h-.7v-4.8h.7v.7a2.2 2.2 0 0 1 1.6-.8 1.2 1.2 0 0 1 1.3.9 1.9 1.9 0 0 1 1.6-.9 1.3 1.3 0 0 1 1.4 1.4v3.5h-.8zm2 .9a2.4 2.4 0 1 1 2.4 2.5 2.3 2.3 0 0 1-2.4-2.5zm4 0a1.6 1.6 0 1 0-1.6 1.9 1.7 1.7 0 0 0 1.6-1.9zm2-4.2h.7v2.5a2.1 2.1 0 0 1 1.7-.8 2.2 2.2 0 0 1 2.1 2.5c0 1.6-.9 2.5-2.1 2.5a2.1 2.1 0 0 1-1.7-.8v.7h-.7zm2.2 6.1c1 0 1.5-.8 1.5-1.9s-.5-1.9-1.5-1.9a2 2 0 0 0-1.5.8v2.2a2 2 0 0 0 1.5.8zm3.4-5.6a.5.5 0 1 1 .5.5.5.5 0 0 1-.5-.5zm.1 1.3h.8v4.8h-.8zm2.3-1.8h.7v6.6h-.7zm4.3 1.7a2.4 2.4 0 0 1 2.4 2.6v.2h-3.9a1.6 1.6 0 0 0 1.7 1.6 2.2 2.2 0 0 0 1.5-.6l.3.5a2.5 2.5 0 1 1-2-4.3zm-1.5 2.2h3.1a1.6 1.6 0 0 0-1.6-1.6 1.6 1.6 0 0 0-1.5 1.6zm39-76a2.1 2.1 0 0 1-1.6.8 2.2 2.2 0 0 1-2.2-2.5 2.2 2.2 0 0 1 2.2-2.5 2.1 2.1 0 0 1 1.6.8v-2.5h.7v6.6h-.7zm0-2.8a2 2 0 0 0-1.5-.8c-.9 0-1.5.8-1.5 1.9s.6 1.9 1.5 1.9a2 2 0 0 0 1.5-.8zm4.3-1.4a2.4 2.4 0 0 1 2.4 2.6v.2h-3.9a1.6 1.6 0 0 0 1.7 1.6 2.2 2.2 0 0 0 1.5-.6l.3.5a2.5 2.5 0 1 1-2-4.3zm-1.5 2.2h3.1a1.6 1.6 0 0 0-1.6-1.6 1.6 1.6 0 0 0-1.5 1.6zm4.4-2.1h.8l1.6 3.9 1.6-3.9h.8l-2 4.8h-.8zm5.4-1.3a.5.5 0 0 1 .5-.5.5.5 0 1 1 0 1 .5.5 0 0 1-.5-.5zm.2 1.3h.7v4.8h-.7zm4.4-.1a1.9 1.9 0 0 1 1.7.8l-.5.5a1.3 1.3 0 0 0-1.2-.7 1.9 1.9 0 0 0 0 3.8 1.3 1.3 0 0 0 1.2-.7l.5.5a1.9 1.9 0 0 1-1.7.8 2.5 2.5 0 0 1 0-5zm4.9 0a2.3 2.3 0 0 1 2.3 2.6v.2h-3.9a1.6 1.6 0 0 0 1.7 1.6 2 2 0 0 0 1.5-.6l.4.5a2.6 2.6 0 0 1-1.9.7 2.4 2.4 0 0 1-2.5-2.5 2.4 2.4 0 0 1 2.4-2.5zm-1.6 2.2h3.2a1.6 1.6 0 0 0-1.6-1.6 1.6 1.6 0 0 0-1.6 1.6zm5.1 1.5a2 2 0 0 0 1.6.7c.7 0 1.1-.3 1.1-.8s-.6-.7-1.2-.8-1.8-.4-1.8-1.4.7-1.4 1.8-1.4a2.5 2.5 0 0 1 1.8.7l-.3.5a1.9 1.9 0 0 0-1.5-.6c-.6 0-1.1.3-1.1.7s.6.6 1.2.8 1.8.4 1.8 1.5-.6 1.4-1.9 1.4a2.5 2.5 0 0 1-1.9-.7zm5.1.2a.6.6 0 0 1 .5.6.5.5 0 0 1-.5.5.6.6 0 0 1-.6-.5.6.6 0 0 1 .6-.6zm8.1-4.4l-1.5 5.4h-.9l-1.9-6.6h.9l1.5 5.5 1.6-5.5h.6l1.6 5.5 1.4-5.5h1l-1.9 6.6h-.9zm6.9.5a2.3 2.3 0 0 1 2.3 2.6v.2h-3.9a1.6 1.6 0 0 0 1.7 1.6 2 2 0 0 0 1.5-.6l.4.5a2.7 2.7 0 0 1-2 .7 2.3 2.3 0 0 1-2.4-2.5 2.4 2.4 0 0 1 2.4-2.5zm-1.6 2.2h3.1a1.5 1.5 0 0 0-1.5-1.6 1.6 1.6 0 0 0-1.6 1.6zm10.9-.5c0-.8-.4-1.1-1-1.1a2 2 0 0 0-1.5.8v3.5h-.7v-6.6h.7v2.5a2.5 2.5 0 0 1 1.8-.8 1.3 1.3 0 0 1 1.5 1.5v3.4h-.8zm5.3 2.7a2.1 2.1 0 0 1-1.6.6 1.6 1.6 0 0 1-1.7-1.6 1.6 1.6 0 0 1 1.7-1.5 2.1 2.1 0 0 1 1.6.6v-.9c0-.6-.5-1-1.2-1a1.8 1.8 0 0 0-1.5.7l-.3-.5a2.2 2.2 0 0 1 1.9-.8c1 0 1.9.4 1.9 1.6v3.3h-.8zm0-1.4a1.6 1.6 0 0 0-1.3-.6 1.1 1.1 0 0 0-1.2 1.1c0 .6.5 1 1.2 1a1.6 1.6 0 0 0 1.3-.6zm1.5-2.9h.9l1.6 3.9 1.6-3.9h.8l-2 4.8h-.8zm7.8-.1a2.3 2.3 0 0 1 2.3 2.6v.2h-3.9a1.6 1.6 0 0 0 1.7 1.6 2 2 0 0 0 1.5-.6l.4.5a2.7 2.7 0 0 1-2 .7 2.3 2.3 0 0 1-2.4-2.5 2.4 2.4 0 0 1 2.4-2.5zm-1.6 2.2h3.1a1.5 1.5 0 0 0-1.5-1.6 1.6 1.6 0 0 0-1.6 1.6zm11.2 2a2.1 2.1 0 0 1-1.7.8c-1.2 0-2.1-.9-2.1-2.5a2.2 2.2 0 0 1 2.1-2.5 2.1 2.1 0 0 1 1.7.8v-2.5h.7v6.6h-.7zm0-2.8a2 2 0 0 0-1.5-.8c-.9 0-1.5.8-1.5 1.9s.6 1.9 1.5 1.9a2 2 0 0 0 1.5-.8zm4.3-1.4c1.5 0 2.3 1.1 2.3 2.6v.2h-3.9a1.7 1.7 0 0 0 1.8 1.6 2.2 2.2 0 0 0 1.5-.6l.3.5a2.5 2.5 0 0 1-1.9.7 2.5 2.5 0 0 1-.1-5zm-1.6 2.2h3.2a1.6 1.6 0 0 0-1.6-1.6 1.7 1.7 0 0 0-1.6 1.6zm4.4-2.1h.8l1.7 3.9 1.6-3.9h.8l-2 4.8h-.9zm7.8-.1a2.3 2.3 0 0 1 2.3 2.6v.2h-3.9a1.6 1.6 0 0 0 1.7 1.6 2 2 0 0 0 1.5-.6l.4.5a2.7 2.7 0 0 1-2 .7 2.3 2.3 0 0 1-2.4-2.5 2.4 2.4 0 0 1 2.4-2.5zm-1.6 2.2h3.1a1.6 1.6 0 0 0-1.6-1.6 1.6 1.6 0 0 0-1.5 1.6zm5.1-3.9h.7v6.6h-.7zm2 4.2a2.4 2.4 0 1 1 2.3 2.5 2.3 2.3 0 0 1-2.3-2.5zm3.9 0c0-1-.5-1.9-1.6-1.9a1.9 1.9 0 0 0 0 3.8c1.1 0 1.6-.9 1.6-1.9zm2.1 4.3v-6.7h.7v.7a2.1 2.1 0 0 1 1.6-.8 2.5 2.5 0 0 1 0 5 2.1 2.1 0 0 1-1.6-.8v2.6zm2.1-6.2a2 2 0 0 0-1.4.8v2.2a2 2 0 0 0 1.4.8c1 0 1.6-.8 1.6-1.9s-.6-1.9-1.6-1.9zm5.7-.6c1.5 0 2.3 1.1 2.3 2.6v.2h-3.9a1.7 1.7 0 0 0 1.7 1.6 1.9 1.9 0 0 0 1.5-.6l.4.5a2.5 2.5 0 0 1-1.9.7 2.4 2.4 0 0 1-2.5-2.5 2.4 2.4 0 0 1 2.4-2.5zm-1.6 2.2h3.2a1.6 1.6 0 0 0-1.6-1.6 1.6 1.6 0 0 0-1.6 1.6zm8.6 2a1.8 1.8 0 0 1-1.6.8 2.2 2.2 0 0 1-2.2-2.5 2.2 2.2 0 0 1 2.2-2.5 2.1 2.1 0 0 1 1.6.8v-2.5h.8v6.6h-.8zm0-2.8a1.7 1.7 0 0 0-1.4-.8c-1 0-1.6.8-1.6 1.9s.6 1.9 1.6 1.9a1.7 1.7 0 0 0 1.4-.8zm-123.8 14.5v-3.1h-.8v-.7h.8v-1.3h.8v1.3h1v.7h-1v3a.6.6 0 0 0 .5.6l.5-.2.2.5a1.1 1.1 0 0 1-.9.3 1 1 0 0 1-1.1-1.1zm6.1-2.2a1 1 0 0 0-1.1-1.1 1.8 1.8 0 0 0-1.4.8v3.5h-.8v-6.6h.8v2.5a2.3 2.3 0 0 1 1.7-.8 1.4 1.4 0 0 1 1.6 1.5v3.4h-.8zm4.4-1.7a2.3 2.3 0 0 1 2.3 2.6v.2h-3.9a1.6 1.6 0 0 0 1.7 1.6 2 2 0 0 0 1.5-.6l.3.5a2.5 2.5 0 0 1-4.3-1.8 2.4 2.4 0 0 1 2.4-2.5zm-1.6 2.2h3.1a1.6 1.6 0 0 0-1.6-1.6 1.6 1.6 0 0 0-1.5 1.6zm11.2 2a2.1 2.1 0 0 1-1.7.8c-1.2 0-2.1-.9-2.1-2.5a2.2 2.2 0 0 1 2.1-2.5 2.1 2.1 0 0 1 1.7.8v-2.5h.7v6.6h-.7zm0-2.8a2 2 0 0 0-1.5-.8c-1 0-1.5.8-1.5 1.9s.5 1.9 1.5 1.9a2 2 0 0 0 1.5-.8zm1.9 1.1a2.4 2.4 0 0 1 2.4-2.5 2.5 2.5 0 0 1 0 5 2.4 2.4 0 0 1-2.4-2.5zm4 0a1.6 1.6 0 1 0-1.6 1.9 1.7 1.7 0 0 0 1.6-1.9zm5.3-.7c0-.9-.4-1.2-1.1-1.2a1.8 1.8 0 0 0-1.4.8v3.5h-.8v-4.8h.8v.7a2.3 2.3 0 0 1 1.7-.8 1.3 1.3 0 0 1 1.5 1.5v3.4h-.7zm2-1.7a2 2 0 0 0 .7-.9h-.2a.5.5 0 0 1-.5-.5.6.6 0 0 1 .6-.5c.3 0 .6.2.6.7a2 2 0 0 1-.8 1.5zm2.6 3.8v-3.1h-.8v-.7h.8v-1.3h.8v1.3h1v.7h-1v3c0 .3.1.6.5.6l.5-.2.2.5a1.2 1.2 0 0 1-.9.3 1 1 0 0 1-1.1-1.1zm5.6 0v-3.1h-.8v-.7h.8v-1.3h.7v1.3h1v.7h-1v3a.6.6 0 0 0 .5.6l.5-.2.2.5a1.1 1.1 0 0 1-.9.3c-.7 0-1-.4-1-1.1zm4.4-1l-1.4 2h-.9l1.9-2.5-1.8-2.3h.9l1.3 1.8 1.4-1.8h.8l-1.7 2.3 1.8 2.5h-.8zm3.4 1v-3.1h-.8v-.7h.8v-1.3h.7v1.3h1v.7h-1v3a.6.6 0 0 0 .5.6l.5-.2.2.5a1.1 1.1 0 0 1-.9.3c-.7 0-1-.4-1-1.1zm7.3 0h-.5v-2.1h-1.9v-.5h1.9v-2.1h.5v2.1h2v.5h-2zm9.1.3a2.1 2.1 0 0 1-1.6.8 2.2 2.2 0 0 1-2.2-2.5 2.2 2.2 0 0 1 2.2-2.5 2.1 2.1 0 0 1 1.6.8v-2.5h.7v6.6h-.7zm0-2.8a2 2 0 0 0-1.5-.8c-.9 0-1.5.8-1.5 1.9s.6 1.9 1.5 1.9a2 2 0 0 0 1.5-.8zm2.2-1.3h.8v.8a2 2 0 0 1 1.6-.9v.8h-.3a1.7 1.7 0 0 0-1.3.8v3.4h-.8zm2.6 0h.8l1.6 3.9 1.6-3.9h.9l-2 4.8h-.9zm10.4-.1a2 2 0 0 1 1.7.8l-.5.5a1.3 1.3 0 0 0-1.2-.7 1.9 1.9 0 0 0 0 3.8 1.3 1.3 0 0 0 1.2-.7l.5.5a2 2 0 0 1-1.7.8 2.5 2.5 0 0 1 0-5zm5.8 4.4a2.3 2.3 0 0 1-1.6.6 1.6 1.6 0 0 1-1.7-1.6 1.6 1.6 0 0 1 1.7-1.5 2.1 2.1 0 0 1 1.6.6v-.9c0-.6-.5-1-1.2-1a1.8 1.8 0 0 0-1.5.7l-.4-.5a2.6 2.6 0 0 1 2-.8c1 0 1.8.4 1.8 1.6v3.3h-.7zm0-1.4a1.6 1.6 0 0 0-1.3-.6 1.1 1.1 0 0 0-1.2 1.1c0 .6.5 1 1.2 1a1.6 1.6 0 0 0 1.3-.6zm8.1-1.4c0-.6-.3-1-.9-1a1.7 1.7 0 0 0-1.3.8v3.5h-.7v-3.3c0-.6-.3-1-.9-1a1.7 1.7 0 0 0-1.3.8v3.5h-.8v-4.8h.8v.7a2 2 0 0 1 1.6-.8 1.1 1.1 0 0 1 1.2.9 2.1 2.1 0 0 1 1.7-.9 1.2 1.2 0 0 1 1.3 1.4v3.5h-.7zm2.2 5.2v-6.7h.8v.7a1.8 1.8 0 0 1 1.6-.8c1.3 0 2.1.9 2.1 2.5s-.8 2.5-2.1 2.5a1.9 1.9 0 0 1-1.6-.8v2.6zm2.2-6.2a1.7 1.7 0 0 0-1.4.8v2.2a1.7 1.7 0 0 0 1.4.8c1 0 1.6-.8 1.6-1.9s-.6-1.9-1.6-1.9zm6.6 3.8a2.3 2.3 0 0 1-1.6.6 1.6 1.6 0 0 1-1.7-1.6 1.6 1.6 0 0 1 1.7-1.5 2.3 2.3 0 0 1 1.6.6v-.9c0-.6-.5-1-1.2-1a1.8 1.8 0 0 0-1.5.7l-.4-.5a2.6 2.6 0 0 1 2-.8c1 0 1.8.4 1.8 1.6v3.3h-.7zm0-1.4a1.7 1.7 0 0 0-1.4-.6 1 1 0 0 0-1.1 1.1 1 1 0 0 0 1.1 1 1.7 1.7 0 0 0 1.4-.6zm2.1-4.2a.5.5 0 1 1 .5.5.5.5 0 0 1-.5-.5zm.1 1.3h.8v4.8h-.8zm2.7 5.5a1.7 1.7 0 0 0 1.5.7 1.4 1.4 0 0 0 1.6-1.5v-.7a2.1 2.1 0 0 1-3.8-1.6c0-1.6.9-2.5 2.1-2.5a2.1 2.1 0 0 1 1.7.8v-.7h.7v4.7c0 1.6-1.1 2.1-2.3 2.1a2.5 2.5 0 0 1-1.9-.7zm3.1-4.2a2 2 0 0 0-1.5-.8c-.9 0-1.5.8-1.5 1.9a1.6 1.6 0 0 0 1.5 1.8 2 2 0 0 0 1.5-.8zm5.5.4c0-.9-.4-1.2-1.1-1.2a1.8 1.8 0 0 0-1.4.8v3.5h-.8v-4.8h.8v.7a2.3 2.3 0 0 1 1.7-.8 1.3 1.3 0 0 1 1.5 1.5v3.4h-.7zm5 2.1v-3.1h-.8v-.7h.8v-1.3h.7v1.3h1v.7h-1v3a.6.6 0 0 0 .5.6l.5-.2.2.5a1.1 1.1 0 0 1-.9.3c-.7 0-1-.4-1-1.1zm2.5-1.4a2.4 2.4 0 1 1 2.4 2.5 2.3 2.3 0 0 1-2.4-2.5zm4 0a1.7 1.7 0 1 0-1.6 1.9 1.7 1.7 0 0 0 1.6-1.9zM359.6 234a1 1 0 0 0-1.1-1.1 2 2 0 0 0-1.5.8v3.5h-.7v-6.6h.7v2.5a2.5 2.5 0 0 1 1.8-.8 1.3 1.3 0 0 1 1.5 1.5v3.4h-.7zm4.3-1.7c1.5 0 2.3 1.1 2.3 2.6v.2h-3.9a1.7 1.7 0 0 0 1.8 1.6 2.2 2.2 0 0 0 1.5-.6l.3.5a2.5 2.5 0 0 1-1.9.7 2.5 2.5 0 0 1-.1-5zm-1.6 2.2h3.2a1.6 1.6 0 0 0-1.6-1.6 1.7 1.7 0 0 0-1.6 1.6zm5.1-3.9h.8v6.6h-.8zm2.3 8.5v-6.7h.7v.7a2.1 2.1 0 0 1 1.7-.8c1.2 0 2.1.9 2.1 2.5s-.9 2.5-2.1 2.5a2.1 2.1 0 0 1-1.7-.8v2.6zm2.2-6.2a2 2 0 0 0-1.5.8v2.2a2 2 0 0 0 1.5.8c1 0 1.5-.8 1.5-1.9s-.5-1.9-1.5-1.9zm8.2-.6c1.5 0 2.3 1.1 2.3 2.6v.2h-3.9a1.7 1.7 0 0 0 1.8 1.6 2.2 2.2 0 0 0 1.5-.6l.3.5a2.5 2.5 0 0 1-1.9.7 2.5 2.5 0 0 1-.1-5zm-1.6 2.2h3.2a1.6 1.6 0 0 0-1.6-1.6 1.7 1.7 0 0 0-1.6 1.6zm8.6 2a1.8 1.8 0 0 1-1.6.8c-1.2 0-2.1-.9-2.1-2.5s.8-2.5 2.1-2.5a1.8 1.8 0 0 1 1.6.8v-2.5h.8v6.6h-.8zm0-2.8a1.7 1.7 0 0 0-1.4-.8c-1 0-1.6.8-1.6 1.9s.6 1.9 1.6 1.9a1.7 1.7 0 0 0 1.4-.8zm5.6 2.8a2.2 2.2 0 0 1-1.8.8 1.3 1.3 0 0 1-1.5-1.5v-3.4h.7v3.2a1 1 0 0 0 1.1 1.1 2 2 0 0 0 1.5-.8v-3.5h.7v4.8h-.7zm4.3-4.2a2.1 2.1 0 0 1 1.8.8l-.5.5a1.3 1.3 0 0 0-1.2-.7 1.9 1.9 0 0 0 0 3.8 1.3 1.3 0 0 0 1.2-.7l.5.5a2.1 2.1 0 0 1-1.8.8 2.5 2.5 0 0 1 0-5zm5.9 4.4a2.3 2.3 0 0 1-1.6.6 1.6 1.6 0 0 1-1.7-1.6 1.6 1.6 0 0 1 1.7-1.5 2.3 2.3 0 0 1 1.6.6v-.9c0-.6-.5-1-1.2-1a1.8 1.8 0 0 0-1.5.7l-.4-.5a2.4 2.4 0 0 1 2-.8c1 0 1.8.4 1.8 1.6v3.3h-.7zm0-1.4a1.7 1.7 0 0 0-1.4-.6 1 1 0 0 0-1.1 1.1 1 1 0 0 0 1.1 1 1.7 1.7 0 0 0 1.4-.6zm2.4.9v-3.1h-.8v-.7h.8v-1.3h.7v1.3h1v.7h-1v3a.6.6 0 0 0 .5.6l.5-.2.2.5q-.1.3-.9.3c-.7 0-1-.4-1-1.1zm4.9-3.9a2.3 2.3 0 0 1 2.3 2.6v.2h-3.9a1.6 1.6 0 0 0 1.7 1.6 2 2 0 0 0 1.5-.6l.4.5a2.7 2.7 0 0 1-2 .7 2.3 2.3 0 0 1-2.4-2.5 2.4 2.4 0 0 1 2.4-2.5zm-1.6 2.2h3.1a1.5 1.5 0 0 0-1.5-1.6 1.6 1.6 0 0 0-1.6 1.6zm9.8-2.2a2.1 2.1 0 0 1 1.8.8l-.5.5a1.6 1.6 0 0 0-1.3-.7c-1 0-1.6.8-1.6 1.9s.6 1.9 1.6 1.9a1.6 1.6 0 0 0 1.3-.7l.5.5a2.1 2.1 0 0 1-1.8.8 2.5 2.5 0 0 1 0-5zm2.5 2.5a2.4 2.4 0 0 1 2.4-2.5 2.5 2.5 0 0 1 0 5 2.4 2.4 0 0 1-2.4-2.5zm4 0c0-1-.5-1.9-1.6-1.9a1.9 1.9 0 0 0 0 3.8c1.1 0 1.6-.9 1.6-1.9zm7.9-.9c0-.6-.3-1-.9-1a1.7 1.7 0 0 0-1.3.8v3.5h-.8v-3.3c0-.6-.2-1-.8-1a1.8 1.8 0 0 0-1.3.8v3.5h-.8v-4.8h.8v.7a2 2 0 0 1 1.6-.8 1.1 1.1 0 0 1 1.2.9 2.1 2.1 0 0 1 1.7-.9 1.2 1.2 0 0 1 1.3 1.4v3.5h-.7zm8 0c0-.6-.2-1-.8-1a1.7 1.7 0 0 0-1.3.8v3.5h-.8v-3.3c0-.6-.2-1-.9-1a1.6 1.6 0 0 0-1.2.8v3.5h-.8v-4.8h.8v.7a2 2 0 0 1 1.5-.8 1.2 1.2 0 0 1 1.3.9 1.9 1.9 0 0 1 1.6-.9 1.3 1.3 0 0 1 1.4 1.4v3.5h-.8zm5.6 2.6a2.2 2.2 0 0 1-1.8.8 1.3 1.3 0 0 1-1.5-1.5v-3.4h.8v3.2c0 .8.4 1.1 1 1.1a2 2 0 0 0 1.5-.8v-3.5h.7v4.8h-.7zm5.5-2.4c0-.9-.5-1.2-1.1-1.2a1.7 1.7 0 0 0-1.4.8v3.5h-.8v-4.8h.8v.7a2.3 2.3 0 0 1 1.7-.8 1.3 1.3 0 0 1 1.5 1.5v3.4h-.7zm2.1-3a.5.5 0 1 1 .5.5.5.5 0 0 1-.5-.5zm.1 1.3h.8v4.8h-.8zm2.4 3.8v-3.1h-.8v-.7h.8v-1.3h.8v1.3h1v.7h-1v3c0 .3.1.6.5.6l.5-.2.2.5a1.2 1.2 0 0 1-.9.3 1 1 0 0 1-1.1-1.1zm2.7-5.1a.5.5 0 1 1 .5.5.5.5 0 0 1-.5-.5zm.1 1.3h.8v4.8h-.8zm4.4-.1a2.3 2.3 0 0 1 2.3 2.6v.2h-3.9a1.6 1.6 0 0 0 1.7 1.6 2 2 0 0 0 1.5-.6l.4.5a2.7 2.7 0 0 1-2 .7 2.3 2.3 0 0 1-2.4-2.5 2.4 2.4 0 0 1 2.4-2.5zm-1.6 2.2h3.1a1.6 1.6 0 0 0-1.5-1.6 1.6 1.6 0 0 0-1.6 1.6zm5.1 1.5a2 2 0 0 0 1.6.7c.7 0 1.1-.3 1.1-.8s-.6-.7-1.2-.8-1.8-.4-1.8-1.4.7-1.4 1.8-1.4a2.5 2.5 0 0 1 1.8.7l-.4.5a1.7 1.7 0 0 0-1.4-.6c-.7 0-1.1.3-1.1.7s.6.6 1.2.8 1.8.4 1.8 1.5-.6 1.4-1.9 1.4a2.5 2.5 0 0 1-1.9-.7zm10.2.7a2.1 2.1 0 0 1-1.6.6 1.5 1.5 0 0 1-1.6-1.6 1.5 1.5 0 0 1 1.6-1.5 2.1 2.1 0 0 1 1.6.6v-.9c0-.6-.5-1-1.2-1a1.9 1.9 0 0 0-1.5.7l-.3-.5a2.2 2.2 0 0 1 1.9-.8c1 0 1.9.4 1.9 1.6v3.3h-.8zm0-1.4a1.5 1.5 0 0 0-1.3-.6 1.1 1.1 0 0 0-1.2 1.1c0 .6.5 1 1.2 1a1.5 1.5 0 0 0 1.3-.6zm5.5-1.2c0-.9-.4-1.2-1-1.2a2 2 0 0 0-1.5.8v3.5h-.7v-4.8h.7v.7a2.5 2.5 0 0 1 1.8-.8 1.3 1.3 0 0 1 1.5 1.5v3.4h-.8zm5.8 2.4a2.1 2.1 0 0 1-1.6.8 2.2 2.2 0 0 1-2.2-2.5 2.2 2.2 0 0 1 2.2-2.5 2.1 2.1 0 0 1 1.6.8v-2.5h.7v6.6h-.7zm0-2.8a2 2 0 0 0-1.4-.8c-1 0-1.6.8-1.6 1.9s.6 1.9 1.6 1.9a2 2 0 0 0 1.4-.8zM356.3 248a2 2 0 0 0 1.6.7c.7 0 1.1-.3 1.1-.8s-.6-.7-1.2-.8-1.8-.4-1.8-1.4.7-1.4 1.8-1.4a2.5 2.5 0 0 1 1.8.7l-.4.5a1.6 1.6 0 0 0-1.4-.6c-.7 0-1.1.3-1.1.7s.6.6 1.2.8 1.8.4 1.8 1.5-.6 1.4-1.9 1.4a2.5 2.5 0 0 1-1.9-.7zm4.8.2v-3.1h-.8v-.7h.8v-1.3h.7v1.3h1v.7h-1v3a.6.6 0 0 0 .5.6l.5-.2.3.5a1.2 1.2 0 0 1-.9.3 1 1 0 0 1-1.1-1.1zm2.5-1.4a2.4 2.4 0 1 1 2.4 2.5 2.3 2.3 0 0 1-2.4-2.5zm4 0a1.6 1.6 0 1 0-1.6 1.9 1.7 1.7 0 0 0 1.6-1.9zm2 4.3v-6.7h.8v.7a1.8 1.8 0 0 1 1.6-.8c1.3 0 2.1.9 2.1 2.5s-.8 2.5-2.1 2.5a1.8 1.8 0 0 1-1.6-.8v2.6zm2.2-6.2a1.7 1.7 0 0 0-1.4.8v2.2a1.7 1.7 0 0 0 1.4.8c1 0 1.5-.8 1.5-1.9s-.5-1.9-1.5-1.9zm6.1 6.2v-6.7h.8v.7a1.8 1.8 0 0 1 1.6-.8 2.5 2.5 0 0 1 0 5 1.9 1.9 0 0 1-1.6-.8v2.6zm2.2-6.2a1.7 1.7 0 0 0-1.4.8v2.2a1.7 1.7 0 0 0 1.4.8c1 0 1.6-.8 1.6-1.9s-.6-1.9-1.6-1.9zm3.6-.5h.7v.8a2.2 2.2 0 0 1 1.6-.9v.8h-.3a1.8 1.8 0 0 0-1.3.8v3.4h-.7zm5.4-.1a2.3 2.3 0 0 1 2.3 2.6v.2h-3.9a1.6 1.6 0 0 0 1.7 1.6 2 2 0 0 0 1.5-.6l.4.5a2.7 2.7 0 0 1-2 .7 2.3 2.3 0 0 1-2.4-2.5 2.4 2.4 0 0 1 2.4-2.5zm-1.6 2.2h3.1a1.5 1.5 0 0 0-1.5-1.6 1.6 1.6 0 0 0-1.6 1.6zm4.4-2.1h.8l1.6 3.9 1.6-3.9h.8l-2 4.8h-.8zm7.7-.1c1.5 0 2.3 1.1 2.3 2.6v.2H398a1.7 1.7 0 0 0 1.7 1.6 1.9 1.9 0 0 0 1.5-.6l.4.5a2.5 2.5 0 0 1-1.9.7 2.4 2.4 0 0 1-2.5-2.5 2.4 2.4 0 0 1 2.4-2.5zm-1.6 2.2h3.2a1.6 1.6 0 0 0-1.6-1.6 1.6 1.6 0 0 0-1.6 1.6zm8.4-.4c0-.9-.4-1.2-1.1-1.2a1.8 1.8 0 0 0-1.4.8v3.5h-.8v-4.8h.8v.7a2.3 2.3 0 0 1 1.7-.8 1.3 1.3 0 0 1 1.5 1.5v3.4h-.7zm2.4 2.1v-3.1h-.8v-.7h.8v-1.3h.7v1.3h1v.7h-1v3a.6.6 0 0 0 .5.6l.5-.2.3.5a1.2 1.2 0 0 1-.9.3 1 1 0 0 1-1.1-1.1zm5.8.5a2.3 2.3 0 0 1-1.6.6 1.6 1.6 0 0 1-1.7-1.6 1.6 1.6 0 0 1 1.7-1.5 2.1 2.1 0 0 1 1.6.6v-.9c0-.6-.5-1-1.2-1a1.8 1.8 0 0 0-1.5.7l-.4-.5a2.6 2.6 0 0 1 2-.8c1 0 1.8.4 1.8 1.6v3.3h-.7zm0-1.4a1.6 1.6 0 0 0-1.3-.6 1.1 1.1 0 0 0-1.2 1.1c0 .6.5 1 1.2 1a1.6 1.6 0 0 0 1.3-.6zm2.2-4.7h.8v2.5a2.1 2.1 0 0 1 1.6-.8 2.2 2.2 0 0 1 2.2 2.5 2.2 2.2 0 0 1-2.2 2.5 1.9 1.9 0 0 1-1.6-.8v.7h-.8zm2.2 6.1c1 0 1.6-.8 1.6-1.9s-.6-1.9-1.6-1.9a1.8 1.8 0 0 0-1.4.8v2.2a1.8 1.8 0 0 0 1.4.8zm3.6-6.1h.7v6.6h-.7zm4.3 1.7a2.4 2.4 0 0 1 2.4 2.6v.2h-3.9a1.6 1.6 0 0 0 1.7 1.6 2.2 2.2 0 0 0 1.5-.6l.3.5a2.5 2.5 0 1 1-2-4.3zm-1.5 2.2h3.1a1.6 1.6 0 0 0-1.6-1.6 1.6 1.6 0 0 0-1.5 1.6zm7.8 1.7v-3.1h-.8v-.7h.8v-1.3h.8v1.3h.9v.7h-.9v3c0 .3.1.6.4.6l.6-.2.2.5a1.2 1.2 0 0 1-.9.3 1 1 0 0 1-1.1-1.1zm2.8-3.8h.7v.8a2.2 2.2 0 0 1 1.6-.9v.8h-.2a2 2 0 0 0-1.4.8v3.4h-.7zm6.3 4.3a2.1 2.1 0 0 1-1.6.6 1.6 1.6 0 0 1-1.7-1.6 1.6 1.6 0 0 1 1.7-1.5 2.1 2.1 0 0 1 1.6.6v-.9c0-.6-.5-1-1.2-1a1.8 1.8 0 0 0-1.5.7l-.3-.5a2.2 2.2 0 0 1 1.9-.8c1 0 1.9.4 1.9 1.6v3.3h-.8zm0-1.4a1.6 1.6 0 0 0-1.3-.6 1.1 1.1 0 0 0-1.2 1.1c0 .6.5 1 1.2 1a1.6 1.6 0 0 0 1.3-.6zm2.6 2.6a1.9 1.9 0 0 0 1.6.7 1.4 1.4 0 0 0 1.5-1.5v-.7a1.9 1.9 0 0 1-1.6.9 2.2 2.2 0 0 1-2.1-2.5c0-1.6.9-2.5 2.1-2.5a1.8 1.8 0 0 1 1.6.8v-.7h.8v4.7c0 1.6-1.1 2.1-2.3 2.1a2.5 2.5 0 0 1-1.9-.7zm3.1-4.2a1.7 1.7 0 0 0-1.4-.8c-1 0-1.5.8-1.5 1.9s.5 1.8 1.5 1.8a1.7 1.7 0 0 0 1.4-.8zm4.4-1.4c1.5 0 2.3 1.1 2.3 2.6v.2h-3.9a1.7 1.7 0 0 0 1.7 1.6 1.9 1.9 0 0 0 1.5-.6l.4.5a2.5 2.5 0 0 1-1.9.7 2.5 2.5 0 0 1-.1-5zm-1.6 2.2h3.2a1.6 1.6 0 0 0-1.6-1.6 1.6 1.6 0 0 0-1.6 1.6zm8.6 2a1.8 1.8 0 0 1-1.6.8c-1.3 0-2.1-.9-2.1-2.5s.8-2.5 2.1-2.5a2.1 2.1 0 0 1 1.6.8v-2.5h.8v6.6h-.8zm0-2.8a1.7 1.7 0 0 0-1.4-.8c-1 0-1.6.8-1.6 1.9s.6 1.9 1.6 1.9a1.7 1.7 0 0 0 1.4-.8zm2.2-2.6a.5.5 0 0 1 .5-.5.5.5 0 0 1 0 1 .5.5 0 0 1-.5-.5zm.1 1.3h.7v4.8h-.7zm4.3-.1c1.5 0 2.3 1.1 2.3 2.6v.2h-3.9a1.7 1.7 0 0 0 1.8 1.6 2.2 2.2 0 0 0 1.5-.6l.3.5a2.5 2.5 0 0 1-1.9.7 2.3 2.3 0 0 1-2.4-2.5 2.4 2.4 0 0 1 2.3-2.5zm-1.6 2.2h3.2a1.6 1.6 0 0 0-1.6-1.6 1.7 1.7 0 0 0-1.6 1.6zm5.1 1.5a2.2 2.2 0 0 0 1.6.7c.8 0 1.2-.3 1.2-.8s-.6-.7-1.3-.8-1.7-.4-1.7-1.4.6-1.4 1.8-1.4a2.5 2.5 0 0 1 1.8.7l-.4.5a1.7 1.7 0 0 0-1.4-.6c-.7 0-1.1.3-1.1.7s.6.6 1.2.8 1.8.4 1.8 1.5-.7 1.4-1.9 1.4a2.7 2.7 0 0 1-2-.7zm5.1.2a.6.6 0 0 1 .6.6.6.6 0 0 1-.6.5.5.5 0 0 1-.5-.5.6.6 0 0 1 .5-.6zm-118.3 12.4h4.4v.7h-3.5v2.1h3.4v.8h-3.4v2.3h3.5v.7h-4.4zm9.2 5.9a2.1 2.1 0 0 1-1.6.8 2.2 2.2 0 0 1-2.2-2.5 2.2 2.2 0 0 1 2.2-2.5 2.1 2.1 0 0 1 1.6.8v-2.5h.7v6.6h-.7zm0-2.8a2 2 0 0 0-1.5-.8c-.9 0-1.5.8-1.5 1.9s.6 1.9 1.5 1.9a2 2 0 0 0 1.5-.8zm5.5 2.8a2.1 2.1 0 0 1-1.7.8 1.4 1.4 0 0 1-1.6-1.5v-3.4h.8v3.2a1 1 0 0 0 1.1 1.1 1.8 1.8 0 0 0 1.4-.8v-3.5h.7v4.8h-.7zm4.4-4.2a1.8 1.8 0 0 1 1.7.8l-.5.5a1.3 1.3 0 0 0-1.2-.7 1.9 1.9 0 0 0 0 3.8 1.3 1.3 0 0 0 1.2-.7l.5.5a1.8 1.8 0 0 1-1.7.8 2.5 2.5 0 0 1 0-5zm5.8 4.4a2.1 2.1 0 0 1-1.6.6 1.6 1.6 0 0 1-1.7-1.6 1.6 1.6 0 0 1 1.7-1.5 2.1 2.1 0 0 1 1.6.6v-.9c0-.6-.5-1-1.2-1a1.8 1.8 0 0 0-1.5.7l-.3-.5a2.2 2.2 0 0 1 1.9-.8c1 0 1.9.4 1.9 1.6v3.3h-.8zm0-1.4a1.6 1.6 0 0 0-1.3-.6 1.1 1.1 0 0 0-1.2 1.1c0 .6.5 1 1.2 1a1.6 1.6 0 0 0 1.3-.6zm2.4.9v-3.1h-.8v-.7h.8v-1.3h.8v1.3h.9v.7h-.9v3c0 .3.1.6.5.6l.5-.2.2.5a1.2 1.2 0 0 1-.9.3 1 1 0 0 1-1.1-1.1zm4.9-3.9c1.5 0 2.3 1.1 2.3 2.6v.2h-3.9a1.7 1.7 0 0 0 1.8 1.6 1.8 1.8 0 0 0 1.4-.6l.4.5a2.5 2.5 0 0 1-1.9.7 2.5 2.5 0 0 1-.1-5zm-1.6 2.2h3.2a1.6 1.6 0 0 0-1.6-1.6 1.7 1.7 0 0 0-1.6 1.6zm8 4c.3 0 .5-.1.7-.5l.3-.7-2-4.9h.8l1.6 3.9 1.6-3.9h.8l-2.4 5.8a1.5 1.5 0 0 1-1.4 1h-.6l.2-.7zm4.3-3.7a2.4 2.4 0 0 1 2.4-2.5 2.5 2.5 0 0 1 0 5 2.4 2.4 0 0 1-2.4-2.5zm4 0a1.6 1.6 0 1 0-1.6 1.9 1.7 1.7 0 0 0 1.6-1.9zm5.3 1.7a2.1 2.1 0 0 1-1.7.8 1.4 1.4 0 0 1-1.6-1.5v-3.4h.8v3.2a1 1 0 0 0 1.1 1.1 2 2 0 0 0 1.4-.8v-3.5h.7v4.8h-.7zm2.2-4.1h.8v.8a2 2 0 0 1 1.6-.9v.8h-.3a1.7 1.7 0 0 0-1.3.8v3.4h-.8zm3.3 3.6a2 2 0 0 0 1.6.7c.7 0 1.1-.3 1.1-.8s-.6-.7-1.2-.8-1.7-.4-1.7-1.4.6-1.4 1.7-1.4a2.3 2.3 0 0 1 1.8.7l-.3.5a1.8 1.8 0 0 0-1.5-.6c-.6 0-1 .3-1 .7s.5.6 1.2.8 1.8.4 1.8 1.5-.7 1.4-1.9 1.4a2.7 2.7 0 0 1-2-.7zm6.8-3.7a2.3 2.3 0 0 1 2.3 2.6v.2h-3.9a1.7 1.7 0 0 0 1.7 1.6 2 2 0 0 0 1.5-.6l.4.5a2.5 2.5 0 0 1-1.9.7 2.4 2.4 0 0 1-2.5-2.5 2.4 2.4 0 0 1 2.4-2.5zm-1.6 2.2h3.2a1.6 1.6 0 0 0-1.6-1.6 1.6 1.6 0 0 0-1.6 1.6zm5.1-3.9h.8v6.6h-.8zm2.5 2.5h-.8v-.7h.8v-.4c0-1 .5-1.5 1.4-1.5h.7l-.2.6h-.4c-.5 0-.8.3-.8.9v.4h1v.7h-1v4.1h-.7zm2.6 3.1a.6.6 0 0 1 .5.6.5.5 0 0 1-.5.5.6.6 0 0 1-.6-.5.6.6 0 0 1 .6-.6zm6.1-4.9h-2.1v-.7h5.1v.7h-2.1v5.9h-.9zm6.1 5.4a2.1 2.1 0 0 1-1.6.6 1.6 1.6 0 0 1-1.7-1.6 1.6 1.6 0 0 1 1.7-1.5 2.1 2.1 0 0 1 1.6.6v-.9c0-.6-.5-1-1.2-1a1.8 1.8 0 0 0-1.5.7l-.3-.5a2.2 2.2 0 0 1 1.9-.8c1 0 1.9.4 1.9 1.6v3.3h-.8zm0-1.4a1.6 1.6 0 0 0-1.3-.6 1.1 1.1 0 0 0-1.2 1.1c0 .6.5 1 1.2 1a1.6 1.6 0 0 0 1.3-.6zm3.8-.2l-.8.7v1.4h-.7v-6.6h.7v4.4l2.6-2.6h.9l-2.1 2.2 2.1 2.6h-.9zm5.5-2.8a2.3 2.3 0 0 1 2.3 2.6v.2h-3.9a1.6 1.6 0 0 0 1.7 1.6 2 2 0 0 0 1.5-.6l.4.5a2.6 2.6 0 0 1-1.9.7 2.4 2.4 0 0 1-2.5-2.5 2.4 2.4 0 0 1 2.4-2.5zm-1.6 2.2h3.2a1.6 1.6 0 0 0-1.6-1.6 1.6 1.6 0 0 0-1.6 1.6zm7.8 1.7v-3.1h-.8v-.7h.8v-1.3h.8v1.3h1v.7h-1v3c0 .3.1.6.5.6l.5-.2.2.5a1.2 1.2 0 0 1-.9.3 1 1 0 0 1-1.1-1.1zm6.1-2.2a1 1 0 0 0-1.1-1.1 1.8 1.8 0 0 0-1.4.8v3.5h-.8v-6.6h.8v2.5a2.3 2.3 0 0 1 1.7-.8 1.3 1.3 0 0 1 1.5 1.5v3.4h-.7zm4.3-1.7a2.4 2.4 0 0 1 2.4 2.6v.2H466a1.6 1.6 0 0 0 1.7 1.6 2.2 2.2 0 0 0 1.5-.6l.3.5a2.5 2.5 0 1 1-2-4.3zm-1.5 2.2h3.1a1.6 1.6 0 0 0-1.6-1.6 1.6 1.6 0 0 0-1.5 1.6zm-109.7 16.6v-6.7h.7v.7a2.1 2.1 0 0 1 1.7-.8c1.2 0 2.1.9 2.1 2.5s-.9 2.5-2.1 2.5a2.1 2.1 0 0 1-1.7-.8v2.6zm2.2-6.2a2 2 0 0 0-1.5.8v2.2a2 2 0 0 0 1.5.8c1 0 1.5-.8 1.5-1.9s-.5-1.9-1.5-1.9zm3.5-2.3h.8v6.6h-.8zm4.4 1.7a2.3 2.3 0 0 1 2.3 2.6v.2h-3.9a1.7 1.7 0 0 0 1.7 1.6 2 2 0 0 0 1.5-.6l.4.5a2.5 2.5 0 0 1-1.9.7 2.4 2.4 0 0 1-2.5-2.5 2.4 2.4 0 0 1 2.4-2.5zm-1.6 2.2h3.2a1.6 1.6 0 0 0-3.2 0zm8.6 2a1.8 1.8 0 0 1-1.6.8 2.2 2.2 0 0 1-2.2-2.5 2.2 2.2 0 0 1 2.2-2.5 2.1 2.1 0 0 1 1.6.8v-2.5h.8v6.6h-.8zm0-2.8a1.8 1.8 0 0 0-1.4-.8c-1 0-1.6.8-1.6 1.9s.6 1.9 1.6 1.9a1.8 1.8 0 0 0 1.4-.8zm2.6 4.2a1.9 1.9 0 0 0 1.6.7 1.4 1.4 0 0 0 1.6-1.5v-.7a2.1 2.1 0 0 1-3.8-1.6c0-1.6.9-2.5 2.1-2.5a2.1 2.1 0 0 1 1.7.8v-.7h.7v4.7c0 1.6-1.1 2.1-2.3 2.1a2.5 2.5 0 0 1-1.9-.7zm3.2-4.2a2 2 0 0 0-1.5-.8c-1 0-1.5.8-1.5 1.9s.5 1.8 1.5 1.8a2 2 0 0 0 1.5-.8zm4.3-1.4c1.5 0 2.3 1.1 2.3 2.6v.2h-3.9a1.7 1.7 0 0 0 1.8 1.6 1.8 1.8 0 0 0 1.4-.6l.4.5a2.5 2.5 0 0 1-1.9.7 2.5 2.5 0 0 1-.1-5zm-1.6 2.2h3.2a1.6 1.6 0 0 0-1.6-1.6 1.7 1.7 0 0 0-1.6 1.6zm5.5 1.7a.6.6 0 0 1 .5.6.5.5 0 0 1-.5.5.6.6 0 0 1-.6-.5.6.6 0 0 1 .6-.6zm4.6-.6a2.6 2.6 0 0 0 2.1 1c1.2 0 1.5-.6 1.5-1.1s-.8-1.1-1.7-1.3-2.2-.6-2.2-1.9 1-1.8 2.3-1.8a2.9 2.9 0 0 1 2.3.9l-.5.6a2.4 2.4 0 0 0-1.9-.8c-.8 0-1.4.4-1.4 1.1s.8.8 1.7 1.1 2.3.6 2.3 2-.7 1.9-2.5 1.9a3.2 3.2 0 0 1-2.5-1zm9-1.6a1 1 0 0 0-1.1-1.1 1.7 1.7 0 0 0-1.4.8v3.5h-.8v-6.6h.8v2.5a2.3 2.3 0 0 1 1.7-.8 1.3 1.3 0 0 1 1.5 1.5v3.4h-.7zm5.2 2.7a2.1 2.1 0 0 1-1.6.6 1.5 1.5 0 0 1-1.6-1.6 1.5 1.5 0 0 1 1.6-1.5 2 2 0 0 1 1.6.6v-.9c0-.6-.5-1-1.2-1a1.9 1.9 0 0 0-1.5.7l-.3-.5a2.2 2.2 0 0 1 1.9-.8c1 0 1.9.4 1.9 1.6v3.3h-.8zm0-1.4a1.5 1.5 0 0 0-1.3-.6 1.1 1.1 0 0 0-1.2 1.1c0 .6.5 1 1.2 1a1.5 1.5 0 0 0 1.3-.6zm2.3-2.9h.7v.8a2.2 2.2 0 0 1 1.7-.9v.8h-.3a2 2 0 0 0-1.4.8v3.4h-.7zm5.4-.1a2.3 2.3 0 0 1 2.3 2.6v.2h-3.9a1.7 1.7 0 0 0 1.7 1.6 1.9 1.9 0 0 0 1.5-.6l.4.5a2.5 2.5 0 0 1-1.9.7 2.4 2.4 0 0 1-2.5-2.5 2.4 2.4 0 0 1 2.4-2.5zm-1.6 2.2h3.2a1.6 1.6 0 0 0-1.6-1.6 1.6 1.6 0 0 0-1.6 1.6zm7.9 1.7v-3.1h-.8v-.7h.8v-1.3h.7v1.3h1v.7h-1v3a.6.6 0 0 0 .5.6l.5-.2.2.5a1.1 1.1 0 0 1-.9.3c-.7 0-1-.4-1-1.1zm6-2.2a1 1 0 0 0-1.1-1.1 1.8 1.8 0 0 0-1.4.8v3.5h-.8v-6.6h.8v2.5a2.3 2.3 0 0 1 1.7-.8 1.4 1.4 0 0 1 1.6 1.5v3.4h-.8zm4.4-1.7a2.3 2.3 0 0 1 2.3 2.6v.2H429a1.6 1.6 0 0 0 1.7 1.6 2 2 0 0 0 1.5-.6l.4.5a2.7 2.7 0 0 1-2 .7 2.3 2.3 0 0 1-2.4-2.5 2.4 2.4 0 0 1 2.4-2.5zm-1.6 2.2h3.1a1.6 1.6 0 0 0-1.5-1.6 1.6 1.6 0 0 0-1.6 1.6zm13.5-.6c0-.6-.3-1-.9-1a1.8 1.8 0 0 0-1.3.8v3.5h-.7v-3.3c0-.6-.3-1-.9-1a1.8 1.8 0 0 0-1.3.8v3.5h-.7v-4.8h.7v.7a2.2 2.2 0 0 1 1.6-.8 1.3 1.3 0 0 1 1.3.9 1.8 1.8 0 0 1 1.6-.9c.9 0 1.3.5 1.3 1.4v3.5h-.7zm4.3-1.6a2.4 2.4 0 0 1 2.4 2.6v.2h-3.9a1.6 1.6 0 0 0 1.7 1.6 2.2 2.2 0 0 0 1.5-.6l.3.5a2.5 2.5 0 1 1-2-4.3zm-1.5 2.2h3.1a1.6 1.6 0 0 0-1.6-1.6 1.6 1.6 0 0 0-1.5 1.6zm5.1 1.5a2 2 0 0 0 1.5.7c.8 0 1.2-.3 1.2-.8s-.6-.7-1.3-.8-1.7-.4-1.7-1.4.6-1.4 1.8-1.4a2.5 2.5 0 0 1 1.8.7l-.4.5a1.7 1.7 0 0 0-1.4-.6c-.7 0-1.1.3-1.1.7s.6.6 1.2.8 1.8.4 1.8 1.5-.6 1.4-1.9 1.4a2.5 2.5 0 0 1-1.9-.7zm4.6 0a2 2 0 0 0 1.6.7c.7 0 1.1-.3 1.1-.8s-.6-.7-1.2-.8-1.8-.4-1.8-1.4.7-1.4 1.8-1.4a2.3 2.3 0 0 1 1.8.7l-.3.5a1.8 1.8 0 0 0-1.5-.6c-.6 0-1 .3-1 .7s.5.6 1.2.8 1.8.4 1.8 1.5-.7 1.4-1.9 1.4a2.7 2.7 0 0 1-2-.7zm7.7.7a2.1 2.1 0 0 1-1.6.6 1.6 1.6 0 0 1-1.7-1.6 1.6 1.6 0 0 1 1.7-1.5 2.1 2.1 0 0 1 1.6.6v-.9c0-.6-.5-1-1.2-1a1.8 1.8 0 0 0-1.5.7l-.3-.5a2.2 2.2 0 0 1 1.9-.8c1 0 1.8.4 1.8 1.6v3.3h-.7zm0-1.4a1.6 1.6 0 0 0-1.3-.6 1.1 1.1 0 0 0-1.2 1.1c0 .6.5 1 1.2 1a1.6 1.6 0 0 0 1.3-.6zm2.6 2.6a1.9 1.9 0 0 0 1.6.7 1.4 1.4 0 0 0 1.5-1.5v-.7a1.9 1.9 0 0 1-1.6.9 2.2 2.2 0 0 1-2.1-2.5c0-1.6.9-2.5 2.1-2.5a1.9 1.9 0 0 1 1.6.8v-.7h.8v4.7c0 1.6-1.1 2.1-2.3 2.1a2.9 2.9 0 0 1-2-.7zm3.1-4.2a1.7 1.7 0 0 0-1.4-.8c-1 0-1.5.8-1.5 1.9s.5 1.8 1.5 1.8a1.7 1.7 0 0 0 1.4-.8zm4.4-1.4c1.5 0 2.3 1.1 2.3 2.6v.2h-3.9a1.7 1.7 0 0 0 1.7 1.6 2 2 0 0 0 1.5-.6l.4.5a2.5 2.5 0 0 1-1.9.7 2.4 2.4 0 0 1-2.5-2.5 2.4 2.4 0 0 1 2.4-2.5zm-1.6 2.2h3.2a1.6 1.6 0 0 0-1.6-1.6 1.6 1.6 0 0 0-1.6 1.6zm5.5 1.7a.6.6 0 0 1 .5.6.5.5 0 0 1-.5.5.6.6 0 0 1-.6-.5.6.6 0 0 1 .6-.6zm-116.9 12.3a2.1 2.1 0 0 1-1.6.8 2.2 2.2 0 0 1-2.2-2.5 2.2 2.2 0 0 1 2.2-2.5 2.1 2.1 0 0 1 1.6.8v-2.5h.7v6.6h-.7zm0-2.8a2 2 0 0 0-1.5-.8c-.9 0-1.5.8-1.5 1.9s.6 1.9 1.5 1.9a2 2 0 0 0 1.5-.8zm2 1.1a2.4 2.4 0 1 1 2.4 2.5 2.3 2.3 0 0 1-2.4-2.5zm4 0a1.7 1.7 0 1 0-1.6 1.9 1.7 1.7 0 0 0 1.6-1.9zm5.2-.7c0-.9-.4-1.2-1.1-1.2a2 2 0 0 0-1.4.8v3.5h-.7v-4.8h.7v.7a2.5 2.5 0 0 1 1.7-.8 1.4 1.4 0 0 1 1.6 1.5v3.4h-.8zm2-1.7a1.5 1.5 0 0 0 .7-.9h-.2a.5.5 0 0 1-.4-.5.5.5 0 0 1 .5-.5c.3 0 .6.2.6.7a1.8 1.8 0 0 1-.8 1.5zm2.7 3.8v-3.1h-.8v-.7h.8v-1.3h.7v1.3h1v.7h-1v3a.6.6 0 0 0 .5.6l.5-.2.2.5a1.1 1.1 0 0 1-.9.3c-.7 0-1-.4-1-1.1zm5.5 0v-3.1h-.8v-.7h.8v-1.3h.7v1.3h1v.7h-1v3a.6.6 0 0 0 .5.6l.5-.2.3.5a1.2 1.2 0 0 1-.9.3 1 1 0 0 1-1.1-1.1zm4.5-1l-1.5 2h-.9l1.9-2.5-1.8-2.3h.9l1.4 1.8 1.3-1.8h.9l-1.8 2.3 1.9 2.5h-.9zm3.3 1v-3.1h-.8v-.7h.8v-1.3h.7v1.3h1v.7h-1v3a.6.6 0 0 0 .5.6l.5-.2.3.5a1.2 1.2 0 0 1-.9.3 1 1 0 0 1-1.1-1.1zm7.4 0h-.6v-2.1h-1.9v-.5h1.9v-2.1h.6v2.1h1.9v.5h-1.9zm9 .3a1.8 1.8 0 0 1-1.6.8 2.2 2.2 0 0 1-2.2-2.5 2.2 2.2 0 0 1 2.2-2.5 2.1 2.1 0 0 1 1.6.8v-2.5h.8v6.6h-.8zm0-2.8a1.7 1.7 0 0 0-1.4-.8c-1 0-1.6.8-1.6 1.9s.6 1.9 1.6 1.9a1.7 1.7 0 0 0 1.4-.8zm2.3-1.3h.7v.8a2.2 2.2 0 0 1 1.6-.9v.8h-.3a1.8 1.8 0 0 0-1.3.8v3.4h-.7zm2.6 0h.8l1.6 3.9 1.6-3.9h.8l-2 4.8h-.8zm5.3 3.8a.6.6 0 0 1 .6.6.6.6 0 0 1-.6.5.5.5 0 0 1-.5-.5.6.6 0 0 1 .5-.6zM210.4 180.1h-3.2v2.8h-1.4v-6.7h1.4v2.6h3.2v-2.6h1.4v6.7h-1.4zm4.9-2.2a2.5 2.5 0 0 1 2.4 2.7v.3h-3.6a1.3 1.3 0 0 0 1.4 1.1 2.1 2.1 0 0 0 1.3-.5l.5.8a2.5 2.5 0 0 1-1.9.7 2.4 2.4 0 0 1-2.6-2.5 2.5 2.5 0 0 1 2.5-2.6zm-1.2 2.1h2.4a1.3 1.3 0 0 0-1.2-1.1 1.1 1.1 0 0 0-1.2 1.1zm4.5-1.9h1.3v.6a2 2 0 0 1 1.5-.8v1.3h-.3a1.7 1.7 0 0 0-1.2.5v3.2h-1.3zm5.8-.2a2.5 2.5 0 0 1 2.4 2.7v.3h-3.6a1.3 1.3 0 0 0 1.4 1.1 1.9 1.9 0 0 0 1.3-.5l.6.8a2.9 2.9 0 0 1-2 .7 2.4 2.4 0 0 1-2.6-2.5 2.5 2.5 0 0 1 2.5-2.6zm-1.2 2.1h2.4a1.2 1.2 0 0 0-2.4 0zm4.4-1.5a1.4 1.4 0 0 0 .8-.9h-.2a.7.7 0 0 1-.7-.7.9.9 0 0 1 .8-.8.9.9 0 0 1 .9 1 2.3 2.3 0 0 1-1 1.9zm2.5 2.9a2.6 2.6 0 0 0 1.6.6c.6 0 .8-.2.8-.5s-.4-.4-.9-.5-1.9-.4-1.9-1.5.7-1.6 1.9-1.6a3 3 0 0 1 2 .7l-.5.9a2.2 2.2 0 0 0-1.4-.6c-.5 0-.8.2-.8.5s.4.4.9.5 2 .4 2 1.6-.8 1.5-2.1 1.5a3.6 3.6 0 0 1-2.2-.7zm10.1 1a2.1 2.1 0 0 1-1.6.6 1.7 1.7 0 0 1-1.7-1.6 1.6 1.6 0 0 1 1.7-1.5 2.1 2.1 0 0 1 1.6.6v-.7c0-.5-.5-.8-1.1-.8a2.4 2.4 0 0 0-1.4.5l-.5-.8a3.4 3.4 0 0 1 2.1-.8c1.1 0 2.1.5 2.1 1.9v3.1h-1.2zm0-1.3a1.5 1.5 0 0 0-1.1-.4.8.8 0 0 0-.9.7c0 .5.4.7.9.7a1.5 1.5 0 0 0 1.1-.4zm5.2.3a2.6 2.6 0 0 0 1.6.6c.6 0 .9-.2.9-.5s-.5-.4-1-.5-1.9-.4-1.9-1.5.7-1.6 2-1.6a2.9 2.9 0 0 1 1.9.7l-.5.9a2 2 0 0 0-1.4-.6c-.5 0-.8.2-.8.5s.4.4.9.5 2 .4 2 1.6-.8 1.5-2.1 1.5a3.6 3.6 0 0 1-2.2-.7zm6.9-3.5a2.3 2.3 0 0 1 1.9.9l-.9.8a1.1 1.1 0 0 0-1-.5 1.3 1.3 0 0 0-1.3 1.4 1.3 1.3 0 0 0 1.3 1.4 1.1 1.1 0 0 0 1-.5l.9.7a2.1 2.1 0 0 1-1.9.9 2.4 2.4 0 0 1-2.6-2.5 2.5 2.5 0 0 1 2.6-2.6zm5.6 4.5a1.9 1.9 0 0 1-1.5.6 1.6 1.6 0 0 1-1.7-1.6 1.5 1.5 0 0 1 1.7-1.5 1.9 1.9 0 0 1 1.5.6v-.7c0-.5-.4-.8-1.1-.8a2.4 2.4 0 0 0-1.4.5l-.4-.8a3 3 0 0 1 2.1-.8c1.1 0 2.1.5 2.1 1.9v3.1h-1.3zm0-1.3a1.2 1.2 0 0 0-1-.4.8.8 0 0 0-.9.7c0 .5.4.7.9.7a1.2 1.2 0 0 0 1-.4zm2.5-3h1.3v.6a2 2 0 0 1 1.5-.8v1.3h-.3a1.7 1.7 0 0 0-1.2.5v3.2h-1.3zm4.1 5.6a.6.6 0 0 0 .6-.3l.2-.4-2-4.9h1.4l1.3 3.3 1.2-3.3h1.4l-2.3 5.6a1.6 1.6 0 0 1-1.8 1.1h-.6l.2-1.2zm7.4-2.3a2.6 2.6 0 0 0 1.6.6c.6 0 .8-.2.8-.5s-.4-.4-.9-.5-1.9-.4-1.9-1.5.7-1.6 1.9-1.6a3 3 0 0 1 2 .7l-.5.9a2.2 2.2 0 0 0-1.4-.6c-.5 0-.8.2-.8.5s.4.4.9.5 2 .4 2 1.6-.8 1.5-2.1 1.5a3.6 3.6 0 0 1-2.2-.7zm4.8.3v-2.5h-.8v-1.1h.8v-1.4h1.3v1.4h1v1.1h-1v2.1a.6.6 0 0 0 .5.6l.4-.2.3 1a1.6 1.6 0 0 1-1.1.3 1.2 1.2 0 0 1-1.4-1.3zm6.1.7a2.1 2.1 0 0 1-1.6.6 1.6 1.6 0 0 1-1.6-1.6 1.5 1.5 0 0 1 1.6-1.5 2 2 0 0 1 1.6.6v-.7c0-.5-.4-.8-1.1-.8a2.4 2.4 0 0 0-1.4.5l-.5-.8a3.4 3.4 0 0 1 2.1-.8c1.1 0 2.1.5 2.1 1.9v3.1h-1.2zm0-1.3a1.2 1.2 0 0 0-1-.4c-.5 0-1 .3-1 .7s.5.7 1 .7a1.2 1.2 0 0 0 1-.4zm2.8.6v-2.5h-.8v-1.1h.8v-1.4h1.2v1.4h1v1.1h-1v2.1a.6.6 0 0 0 .5.6l.4-.2.3 1a1.4 1.4 0 0 1-1.1.3 1.2 1.2 0 0 1-1.3-1.3zm3-5.1a.8.8 0 0 1 .7-.8.9.9 0 0 1 .8.8.8.8 0 0 1-.8.7.7.7 0 0 1-.7-.7zm.1 1.5h1.3v4.8h-1.3zm2.6 3.3a3.2 3.2 0 0 0 1.7.6c.6 0 .8-.2.8-.5s-.4-.4-.9-.5-1.9-.4-1.9-1.5.7-1.6 1.9-1.6a3 3 0 0 1 2 .7l-.5.9a2.3 2.3 0 0 0-1.5-.6c-.4 0-.7.2-.7.5s.4.4.9.5 1.9.4 1.9 1.6-.7 1.5-2 1.5a3.6 3.6 0 0 1-2.2-.7zm4.9.3v-2.5h-.8v-1.1h.8v-1.4h1.3v1.4h1v1.1h-1v2.1a.6.6 0 0 0 .5.6l.4-.2.3 1a1.6 1.6 0 0 1-1.1.3 1.2 1.2 0 0 1-1.4-1.3zm3-5.1a.8.8 0 1 1 1.6 0 .8.8 0 0 1-1.6 0zm.2 1.5h1.2v4.8h-1.2zm4.7-.2a2.7 2.7 0 0 1 2 .9l-.9.8a1.3 1.3 0 0 0-2.3.9 1.3 1.3 0 0 0 1.3 1.4 1.2 1.2 0 0 0 1-.5l.9.7a2.4 2.4 0 0 1-2 .9 2.4 2.4 0 0 1-2.5-2.5 2.5 2.5 0 0 1 2.5-2.6zm3.4 3.5a.7.7 0 0 1 .8.8.8.8 0 0 1-.8.8.9.9 0 0 1-.8-.8.8.8 0 0 1 .8-.8zm4.5-5.2h1.5v6.7H312zm3 3h-.8v-1.1h.8v-.3a1.6 1.6 0 0 1 1.7-1.7l.9.2-.3.9h-.4c-.4 0-.6.3-.6.7v.3h1v1.1h-1v3.7H315zm6 4.5a.9.9 0 0 0 .7-.3v-.4l-1.9-4.9h1.3l1.3 3.3 1.3-3.3h1.3l-2.2 5.6a1.8 1.8 0 0 1-1.9 1.1h-.6l.2-1.2zm4.4-3.2a2.6 2.6 0 1 1 2.5 2.5 2.5 2.5 0 0 1-2.5-2.5zm3.8 0a1.3 1.3 0 0 0-1.3-1.4 1.3 1.3 0 0 0-1.2 1.4 1.3 1.3 0 1 0 2.5 0zm5.5 1.8a2.5 2.5 0 0 1-1.7.7 1.4 1.4 0 0 1-1.6-1.5v-3.4h1.3v2.9a.8.8 0 0 0 .9.9 1.4 1.4 0 0 0 1.1-.6v-3.2h1.3v4.8h-1.3zm5.3-.6v-2.5h-.8v-1.1h.8v-1.4h1.3v1.4h1v1.1h-1v2.1a.6.6 0 0 0 .5.6l.4-.2.3 1a1.6 1.6 0 0 1-1.1.3 1.2 1.2 0 0 1-1.4-1.3zm5.4-3.8a2.5 2.5 0 0 1 2.4 2.7v.3h-3.6a1.3 1.3 0 0 0 1.4 1.1 2.1 2.1 0 0 0 1.3-.5l.5.8a2.7 2.7 0 0 1-2 .7 2.4 2.4 0 0 1-2.5-2.5 2.5 2.5 0 0 1 2.5-2.6zm-1.2 2.1h2.4a1.3 1.3 0 0 0-1.2-1.1 1.1 1.1 0 0 0-1.2 1.1z"/><path fill="#231f20" d="M350.3 181.3l-1.2 1.6h-1.4l1.7-2.5-1.6-2.3h1.5l1 1.4.9-1.4h1.5l-1.7 2.3 1.8 2.5h-1.4zm3.4.4v-2.5h-.8v-1.1h.8v-1.4h1.2v1.4h1v1.1h-1v2.1a.6.6 0 0 0 .5.6.5.5 0 0 0 .4-.2l.3 1a1.4 1.4 0 0 1-1.1.3 1.2 1.2 0 0 1-1.3-1.3zm8.5.7a1.9 1.9 0 0 1-1.5.6 1.6 1.6 0 0 1-1.7-1.6 1.5 1.5 0 0 1 1.7-1.5 1.8 1.8 0 0 1 1.5.6v-.7c0-.5-.4-.8-1-.8a2.4 2.4 0 0 0-1.4.5l-.5-.8a3.2 3.2 0 0 1 2.1-.8c1.1 0 2.1.5 2.1 1.9v3.1h-1.3zm0-1.3a1.2 1.2 0 0 0-1-.4.8.8 0 0 0-.9.7c0 .5.4.7.9.7a1.2 1.2 0 0 0 1-.4zm5.8-1.1c0-.7-.3-.9-.9-.9a1.4 1.4 0 0 0-1.1.5v3.3h-1.2v-4.8h1.2v.6a2.3 2.3 0 0 1 1.7-.8 1.4 1.4 0 0 1 1.6 1.6v3.4H368zm5.9 2.3a2.1 2.1 0 0 1-1.5.7c-1.2 0-2.1-.9-2.1-2.5s.9-2.6 2.1-2.6a1.9 1.9 0 0 1 1.5.8v-2.5h1.3v6.7h-1.3zm0-2.7a1.4 1.4 0 0 0-1.1-.5c-.7 0-1.2.5-1.2 1.4a1.3 1.3 0 0 0 1.2 1.4 1.5 1.5 0 0 0 1.1-.6zm8.4 2.7a2.1 2.1 0 0 1-1.5.7c-1.2 0-2.1-.9-2.1-2.5s.9-2.6 2.1-2.6a1.9 1.9 0 0 1 1.5.8v-2.5h1.3v6.7h-1.3zm0-2.7a1.4 1.4 0 0 0-1.1-.5c-.7 0-1.2.5-1.2 1.4a1.3 1.3 0 0 0 1.2 1.4 1.5 1.5 0 0 0 1.1-.6zm2.5-1.5h1.3v.6a2.5 2.5 0 0 1 1.6-.8v1.3h-.4a1.7 1.7 0 0 0-1.2.5v3.2h-1.3zm3.5-1.5a.9.9 0 0 1 .8-.8.8.8 0 0 1 .7.8.7.7 0 0 1-.7.7.8.8 0 0 1-.8-.7zm.1 1.5h1.3v4.8h-1.3zm1.9 0h1.3l1.3 3.3 1.3-3.3h1.3l-1.9 4.8h-1.4zm8-.2a2.5 2.5 0 0 1 2.4 2.7v.3h-3.6a1.3 1.3 0 0 0 1.4 1.1 1.9 1.9 0 0 0 1.3-.5l.6.8a2.9 2.9 0 0 1-2 .7 2.4 2.4 0 0 1-2.6-2.5 2.5 2.5 0 0 1 2.5-2.6zm-1.2 2.1h2.4a1.3 1.3 0 0 0-1.2-1.1 1.2 1.2 0 0 0-1.2 1.1zm4.4 3.8a1.7 1.7 0 0 0 .8-.9h-.2a.7.7 0 0 1-.7-.7.8.8 0 0 1 .8-.8.9.9 0 0 1 .9 1 2.6 2.6 0 0 1-1 1.9zm5.6-.1c.4 0 .6-.1.7-.3l.2-.4-2-4.9h1.4l1.2 3.3 1.3-3.3h1.4l-2.3 5.6a1.7 1.7 0 0 1-1.8 1.1h-.7l.2-1.2zm4.4-3.2a2.5 2.5 0 0 1 2.6-2.6 2.4 2.4 0 0 1 2.5 2.6 2.4 2.4 0 0 1-2.5 2.5 2.5 2.5 0 0 1-2.6-2.5zm3.8 0c0-.8-.4-1.4-1.2-1.4a1.3 1.3 0 0 0-1.3 1.4 1.3 1.3 0 0 0 1.3 1.4 1.3 1.3 0 0 0 1.2-1.4zm5.5 1.8a2.5 2.5 0 0 1-1.7.7 1.4 1.4 0 0 1-1.5-1.5v-3.4h1.3v2.9c0 .7.3.9.8.9a1.4 1.4 0 0 0 1.1-.6v-3.2h1.3v4.8h-1.3zm2.5-3.8a1.4 1.4 0 0 0 .8-.9h-.2a.7.7 0 0 1-.7-.7.9.9 0 0 1 .8-.8.9.9 0 0 1 .9 1 2.3 2.3 0 0 1-1 1.9zm2.6-.4h1.3v.6a2 2 0 0 1 1.5-.8v1.3h-.3a1.7 1.7 0 0 0-1.2.5v3.2h-1.3zm5.8-.2a2.5 2.5 0 0 1 2.4 2.7v.3h-3.6a1.3 1.3 0 0 0 1.4 1.1 1.9 1.9 0 0 0 1.3-.5l.6.8a2.9 2.9 0 0 1-2 .7 2.4 2.4 0 0 1-2.6-2.5 2.5 2.5 0 0 1 2.5-2.6zm-1.2 2.1h2.4a1.2 1.2 0 0 0-2.4 0zm7 1.8c2.7-2 3.5-2.7 3.5-3.6s-.6-.8-1.1-.8a2.7 2.7 0 0 0-1.8.7l-.8-.9a3.6 3.6 0 0 1 2.6-1.1 2.2 2.2 0 0 1 2.5 2.1c0 1.2-.9 2.2-2.7 3.4h2.8v1.3h-5zm6.4-.8a2.7 2.7 0 0 0 1.9.8c.8 0 1.2-.4 1.2-.9s-.4-.8-1.3-.8h-.9v-1.2h.9c.7 0 1.2-.2 1.2-.7s-.5-.8-1.2-.8a2.1 2.1 0 0 0-1.7.7l-.7-.9a3.1 3.1 0 0 1 2.5-1.1c1.6 0 2.5.7 2.5 1.8a1.5 1.5 0 0 1-1.4 1.5 1.6 1.6 0 0 1 1.5 1.6c0 1.2-1 2-2.6 2a3.3 3.3 0 0 1-2.6-1.1zm8.4.7v-2.5h-.8v-1.1h.8v-1.4h1.3v1.4h.9v1.1h-.9v2.1c0 .3.1.6.4.6s.4-.1.4-.2l.3 1a1.3 1.3 0 0 1-1 .3 1.2 1.2 0 0 1-1.4-1.3zm3-5.1a.8.8 0 0 1 .8-.8.8.8 0 0 1 .7.8.7.7 0 0 1-.7.7.7.7 0 0 1-.8-.7zm.1 1.5h1.3v4.8h-1.3zm8.5 1.7a.6.6 0 0 0-.7-.7 1.6 1.6 0 0 0-1 .5v3.3h-1.3v-3.1a.6.6 0 0 0-.7-.7 1.6 1.6 0 0 0-1 .5v3.3H458v-4.8h1.2v.6a2.2 2.2 0 0 1 1.6-.8 1.2 1.2 0 0 1 1.3.9 2.4 2.4 0 0 1 1.7-.9c.9 0 1.4.5 1.4 1.5v3.5h-1.3zm4.8-1.9a2.5 2.5 0 0 1 2.4 2.7v.3h-3.6a1.3 1.3 0 0 0 1.4 1.1 2.1 2.1 0 0 0 1.3-.5l.5.8a2.7 2.7 0 0 1-2 .7 2.4 2.4 0 0 1-2.5-2.5 2.5 2.5 0 0 1 2.5-2.6zm-1.2 2.1h2.3a1.1 1.1 0 0 0-1.1-1.1 1.1 1.1 0 0 0-1.2 1.1zm4.6 1.4a3.2 3.2 0 0 0 1.7.6c.5 0 .8-.2.8-.5s-.4-.4-1-.5-1.9-.4-1.9-1.5.7-1.6 2-1.6a3.2 3.2 0 0 1 2 .7l-.5.9a2.3 2.3 0 0 0-1.5-.6c-.4 0-.7.2-.7.5s.3.4.9.5 1.9.4 1.9 1.6-.7 1.5-2.1 1.5a3.5 3.5 0 0 1-2.1-.7zm-260.3 10.4c0-.4-.2-.7-.8-.7a1.6 1.6 0 0 0-1 .5v3.3h-1.2v-3.1c0-.4-.2-.7-.8-.7a1.6 1.6 0 0 0-1 .5v3.3h-1.2v-4.8h1.2v.6a2.2 2.2 0 0 1 1.6-.8 1.5 1.5 0 0 1 1.4.9 2 2 0 0 1 1.6-.9c.9 0 1.4.5 1.4 1.5v3.5h-1.2zm2.2.7a2.4 2.4 0 0 1 2.5-2.6 2.6 2.6 0 1 1 0 5.1 2.4 2.4 0 0 1-2.5-2.5zm3.8 0a1.3 1.3 0 0 0-1.3-1.4c-.8 0-1.2.6-1.2 1.4a1.3 1.3 0 0 0 1.2 1.4 1.3 1.3 0 0 0 1.3-1.4zm2.2-2.4h1.3v.6a2 2 0 0 1 1.5-.8v1.3h-.3a1.7 1.7 0 0 0-1.2.5v3.2H220zm5.8-.2a2.4 2.4 0 0 1 2.4 2.7v.3h-3.5a1.2 1.2 0 0 0 1.3 1.1 1.9 1.9 0 0 0 1.3-.5l.6.8a2.7 2.7 0 0 1-2 .7 2.4 2.4 0 0 1-2.6-2.5 2.6 2.6 0 0 1 2.5-2.6zm-1.2 2.1h2.4a1.1 1.1 0 0 0-1.2-1.1 1.2 1.2 0 0 0-1.2 1.1zm7.1-3.8h1.3v6.7h-1.3zm2.4.4a.9.9 0 0 1 .8-.8.8.8 0 0 1 .7.8.7.7 0 0 1-.7.7.8.8 0 0 1-.8-.7zm.2 1.5h1.2v4.8h-1.2zm4.3 2.9l-.5.6v1.3h-1.3v-6.7h1.3v4l1.8-2.1h1.5l-1.9 2.1 2 2.7h-1.6zm5.5-3.1a2.4 2.4 0 0 1 2.4 2.7v.3h-3.6a1.3 1.3 0 0 0 1.4 1.1 1.9 1.9 0 0 0 1.3-.5l.6.8a2.9 2.9 0 0 1-2 .7 2.4 2.4 0 0 1-2.6-2.5 2.5 2.5 0 0 1 2.5-2.6zm-1.2 2.1h2.4a1.1 1.1 0 0 0-1.2-1.1 1.2 1.2 0 0 0-1.2 1.1zm4.6-3.8h1.2v6.7h-1.2zm2.9 7.5a.8.8 0 0 0 .7-.3l.2-.4-2-4.9h1.4l1.2 3.3 1.3-3.3h1.3l-2.2 5.6a1.8 1.8 0 0 1-1.9 1.1h-.6l.2-1.2zm7.5-2v-2.5h-.8v-1.1h.8v-1.4h1.3v1.4h1v1.1h-1v2.1c0 .3.2.6.4.6l.5-.2.3 1a1.6 1.6 0 0 1-1.1.3 1.2 1.2 0 0 1-1.4-1.3zm2.8-1.2a2.6 2.6 0 1 1 2.6 2.5 2.5 2.5 0 0 1-2.6-2.5zm3.8 0c0-.8-.4-1.4-1.2-1.4s-1.2.6-1.2 1.4a1.2 1.2 0 1 0 2.4 0zm8.1-.6c0-.6-.3-.8-.9-.8a1.3 1.3 0 0 0-1.1.5v3.3h-1.2v-6.7h1.2v2.5a2.1 2.1 0 0 1 1.7-.8 1.4 1.4 0 0 1 1.6 1.6v3.4h-1.3zm5.5 2.5a2.1 2.1 0 0 1-1.6.6 1.7 1.7 0 0 1-1.7-1.6 1.6 1.6 0 0 1 1.7-1.5 2.1 2.1 0 0 1 1.6.6v-.7c0-.5-.5-.8-1.1-.8a2.4 2.4 0 0 0-1.4.5l-.5-.8a3.4 3.4 0 0 1 2.1-.8c1.1 0 2.1.5 2.1 1.9v3.1h-1.2zm0-1.3a1.5 1.5 0 0 0-1.1-.4.8.8 0 0 0-.9.7c0 .5.4.7.9.7a1.5 1.5 0 0 0 1.1-.4zm1.8-3h1.4l1.2 3.3 1.3-3.3h1.3l-1.9 4.8h-1.4zm8-.2a2.5 2.5 0 0 1 2.4 2.7v.3h-3.6a1.3 1.3 0 0 0 1.4 1.1 1.9 1.9 0 0 0 1.3-.5l.6.8a2.9 2.9 0 0 1-2 .7 2.4 2.4 0 0 1-2.6-2.5 2.5 2.5 0 0 1 2.5-2.6zm-1.2 2.1h2.4a1.2 1.2 0 0 0-2.4 0zm10 2.4a1.9 1.9 0 0 1-1.5.6 1.6 1.6 0 0 1-1.7-1.6 1.5 1.5 0 0 1 1.7-1.5 1.9 1.9 0 0 1 1.5.6v-.7c0-.5-.4-.8-1.1-.8a2.4 2.4 0 0 0-1.4.5l-.4-.8a3 3 0 0 1 2.1-.8c1.1 0 2.1.5 2.1 1.9v3.1h-1.3zm0-1.3a1.2 1.2 0 0 0-1-.4.8.8 0 0 0-.9.7c0 .5.4.7.9.7a1.2 1.2 0 0 0 1-.4zm7.3-3.2a2.7 2.7 0 0 1 2 .9l-.9.8a1.3 1.3 0 0 0-2.3.9 1.3 1.3 0 0 0 1.3 1.4 1.2 1.2 0 0 0 1-.5l.9.7a2.4 2.4 0 0 1-2 .9 2.4 2.4 0 0 1-2.5-2.5 2.5 2.5 0 0 1 2.5-2.6zm5.7 4.5a1.9 1.9 0 0 1-1.5.6 1.6 1.6 0 0 1-1.7-1.6 1.5 1.5 0 0 1 1.7-1.5 1.9 1.9 0 0 1 1.5.6v-.7c0-.5-.4-.8-1.1-.8a2.4 2.4 0 0 0-1.4.5l-.5-.8a3.4 3.4 0 0 1 2.1-.8c1.1 0 2.2.5 2.2 1.9v3.1h-1.3zm0-1.3a1.2 1.2 0 0 0-1-.4.8.8 0 0 0-.9.7c0 .5.4.7.9.7a1.2 1.2 0 0 0 1-.4zm2.5-3h1.3v.6a2 2 0 0 1 1.5-.8v1.3h-.3a1.7 1.7 0 0 0-1.2.5v3.2h-1.3zm8.4-.2a2.3 2.3 0 0 1 1.9.9l-.8.8a1.3 1.3 0 0 0-2.3.9 1.3 1.3 0 0 0 1.3 1.4 1.2 1.2 0 0 0 1-.5l.8.7a2.1 2.1 0 0 1-1.9.9 2.4 2.4 0 0 1-2.5-2.5 2.4 2.4 0 0 1 2.5-2.6zm2.8.2h1.2v.6a2.5 2.5 0 0 1 1.6-.8v1.3h-.4a1.7 1.7 0 0 0-1.2.5v3.2h-1.2zm6.5 4.3a2.1 2.1 0 0 1-1.6.6 1.6 1.6 0 0 1-1.6-1.6 1.5 1.5 0 0 1 1.6-1.5 2.1 2.1 0 0 1 1.6.6v-.7c0-.5-.5-.8-1.1-.8a2.4 2.4 0 0 0-1.4.5l-.5-.8a3.4 3.4 0 0 1 2.1-.8c1.1 0 2.1.5 2.1 1.9v3.1h-1.2zm0-1.3a1.2 1.2 0 0 0-1.1-.4.8.8 0 0 0-.9.7c0 .5.4.7.9.7a1.2 1.2 0 0 0 1.1-.4zm2.6.3a3.2 3.2 0 0 0 1.7.6c.5 0 .8-.2.8-.5s-.4-.4-1-.5-1.9-.4-1.9-1.5.7-1.6 2-1.6a3.2 3.2 0 0 1 2 .7l-.5.9a2.3 2.3 0 0 0-1.5-.6c-.4 0-.7.2-.7.5s.3.4.9.5 1.9.4 1.9 1.6-.7 1.5-2.1 1.5a3.5 3.5 0 0 1-2.1-.7zm7.9-1.5c0-.6-.3-.8-.9-.8a1.4 1.4 0 0 0-1.1.5v3.3h-1.2v-6.7h1.2v2.5a2.1 2.1 0 0 1 1.7-.8 1.4 1.4 0 0 1 1.6 1.6v3.4h-1.3zm3.2 1.5a.7.7 0 0 1 .8.8.8.8 0 0 1-.8.8.9.9 0 0 1-.8-.8.8.8 0 0 1 .8-.8z"/><path fill="none" stroke="#6dcff6" stroke-miterlimit="10" d="M58.6 144.6h281.7"/><use width="3.9" height="3.88" transform="translate(56.6 142.6)" xlink:href="#a"/><path fill="none" stroke="#6dcff6" stroke-miterlimit="10" d="M352.2 340.6h84.2"/><use width="3.9" height="3.88" transform="translate(350.2 338.6)" xlink:href="#a"/><path fill="none" stroke="#6dcff6" stroke-miterlimit="10" d="M352.2 364.6h131.2M205.1 174.1h284.8v24.45H205.1z"/><use width="3.9" height="3.88" transform="translate(203.3 196.6)" xlink:href="#a"/><use width="3.9" height="3.88" transform="translate(203.3 172.2)" xlink:href="#a"/><use width="3.9" height="3.88" transform="translate(488 196.6)" xlink:href="#a"/><use width="3.9" height="3.88" transform="translate(488 172.2)" xlink:href="#a"/><path fill="none" stroke="#6dcff6" stroke-miterlimit="10" d="M205.1 204h284.5v100.6H205.1z"/><use width="3.9" height="3.88" transform="translate(203.3 202.1)" xlink:href="#a"/><use width="3.9" height="3.88" transform="translate(203.2 302.7)" xlink:href="#a"/><path fill="none" stroke="#6dcff6" stroke-miterlimit="10" d="M343 204v100.6m9-100.6v100.6"/><use width="3.9" height="3.88" transform="translate(345.5 201.9)" xlink:href="#a"/><use width="3.9" height="3.88" transform="translate(345.5 302.7)" xlink:href="#a"/><use width="3.9" height="3.88" transform="translate(488 202.1)" xlink:href="#a"/><use width="3.9" height="3.88" transform="translate(489.2 302.7)" xlink:href="#a"/><path fill="#231f20" d="M355.3 334.6h-2.1v-.7h5.1v.7h-2.2v6h-.8zm6.1 5.4a2.4 2.4 0 0 1-1.6.7 1.7 1.7 0 0 1-1.7-1.6 1.6 1.6 0 0 1 1.7-1.6 2.1 2.1 0 0 1 1.6.6v-.8c0-.7-.5-1-1.2-1a2 2 0 0 0-1.5.6l-.4-.5a3 3 0 0 1 2-.8c1 0 1.8.5 1.8 1.6v3.4h-.7zm0-1.4a1.6 1.6 0 0 0-1.3-.6 1.1 1.1 0 0 0-1.2 1.1c0 .6.5 1 1.2 1a1.6 1.6 0 0 0 1.3-.6zm3.8-.2l-.8.8v1.4h-.8v-6.7h.8v4.4l2.5-2.6h1l-2.2 2.2 2.2 2.7h-1zm5.5-2.8a2.3 2.3 0 0 1 2.3 2.6v.2h-3.9a1.7 1.7 0 0 0 1.7 1.7 2.1 2.1 0 0 0 1.5-.7l.4.5a2.8 2.8 0 0 1-2 .8 2.4 2.4 0 0 1-2.4-2.6 2.4 2.4 0 0 1 2.4-2.5zm-1.6 2.2h3.1a1.6 1.6 0 0 0-1.6-1.6 1.6 1.6 0 0 0-1.5 1.6zm7.8 1.7v-3.1h-.8v-.7h.8v-1.3h.8v1.3h.9v.7h-.9v3c0 .3.1.6.5.6l.5-.2.2.6a1.9 1.9 0 0 1-.9.3c-.7 0-1.1-.4-1.1-1.2zm6.1-2.1c0-.9-.5-1.1-1.1-1.1a1.6 1.6 0 0 0-1.4.7v3.6h-.8v-6.7h.8v2.5a2.3 2.3 0 0 1 1.7-.8 1.3 1.3 0 0 1 1.5 1.5v3.5h-.7zm4.3-1.8c1.5 0 2.3 1.1 2.3 2.6v.2h-3.9a1.8 1.8 0 0 0 1.8 1.7 2.3 2.3 0 0 0 1.5-.7l.3.5a2.6 2.6 0 0 1-1.9.8 2.5 2.5 0 0 1-2.5-2.6 2.4 2.4 0 0 1 2.4-2.5zm-1.6 2.2h3.2a1.6 1.6 0 0 0-1.6-1.6 1.7 1.7 0 0 0-1.6 1.6zm7.7 4.6v-6.7h.8v.7a2.1 2.1 0 0 1 1.6-.8 2.2 2.2 0 0 1 2.2 2.5c0 1.6-.9 2.6-2.2 2.6a1.9 1.9 0 0 1-1.6-.9v2.6zm2.2-6.1a1.6 1.6 0 0 0-1.4.7v2.2a1.7 1.7 0 0 0 1.4.8c1 0 1.6-.8 1.6-1.9a1.6 1.6 0 0 0-1.6-1.8zm3.6-2.4h.7v6.7h-.7zm4.3 1.7c1.5 0 2.3 1.1 2.3 2.6v.2h-3.9a1.8 1.8 0 0 0 1.8 1.7 2.3 2.3 0 0 0 1.5-.7l.3.5a2.6 2.6 0 0 1-1.9.8 2.5 2.5 0 0 1-2.5-2.6 2.4 2.4 0 0 1 2.4-2.5zm-1.6 2.2h3.2a1.6 1.6 0 0 0-1.6-1.6 1.7 1.7 0 0 0-1.6 1.6zm8.7 2a2.2 2.2 0 0 1-1.7.9c-1.2 0-2.1-1-2.1-2.6a2.2 2.2 0 0 1 2.1-2.5 2 2 0 0 1 1.7.9v-2.6h.7v6.7h-.7zm0-2.7a1.8 1.8 0 0 0-1.5-.8c-1 0-1.5.8-1.5 1.8s.5 1.9 1.5 1.9a1.8 1.8 0 0 0 1.5-.8zm2.6 4.1a1.8 1.8 0 0 0 1.5.7 1.4 1.4 0 0 0 1.6-1.5v-.6a2.3 2.3 0 0 1-1.6.8 2.2 2.2 0 0 1-2.2-2.5 2.2 2.2 0 0 1 2.2-2.5 1.9 1.9 0 0 1 1.6.9v-.8h.7v4.7c0 1.6-1.1 2.1-2.3 2.1a2.3 2.3 0 0 1-1.9-.7zm3.1-4.1a1.6 1.6 0 0 0-3 1c0 1.1.6 1.9 1.6 1.9a1.8 1.8 0 0 0 1.4-.8zm4.3-1.5a2.4 2.4 0 0 1 2.4 2.6v.2h-3.9a1.7 1.7 0 0 0 1.7 1.7 2.3 2.3 0 0 0 1.5-.7l.3.5a2.5 2.5 0 0 1-4.3-1.8 2.4 2.4 0 0 1 2.3-2.5zm-1.5 2.2h3.1a1.6 1.6 0 0 0-1.6-1.6 1.6 1.6 0 0 0-1.5 1.6zm10.7 2.2a2.4 2.4 0 0 1-1.6.7 1.7 1.7 0 0 1-1.7-1.6 1.6 1.6 0 0 1 1.7-1.6 2.3 2.3 0 0 1 1.6.6v-.8c0-.7-.5-1-1.2-1a2 2 0 0 0-1.5.6l-.4-.5a2.8 2.8 0 0 1 2-.8c1 0 1.8.5 1.8 1.6v3.4h-.7zm0-1.4a1.7 1.7 0 0 0-1.4-.6 1 1 0 0 0-1.1 1.1 1 1 0 0 0 1.1 1 1.7 1.7 0 0 0 1.4-.6zm2.4.9v-3.1h-.8v-.7h.8v-1.3h.7v1.3h1v.7h-1v3a.6.6 0 0 0 .5.6l.5-.2.2.6a1.3 1.3 0 0 1-.9.3c-.7 0-1-.4-1-1.2zm-78.2 9.9a2.1 2.1 0 0 1 2.1-2.1 2.1 2.1 0 0 1 0 4.2 2.1 2.1 0 0 1-2.1-2.1zm.2 3.6h3.7v11.6h-3.7zm10.1 11.5c0 2.8-1.4 4.8-4.5 4.8h-1.3v-3h.6c.9 0 1.4-.5 1.4-1.7V353h3.7zm-4-15.1a2.1 2.1 0 0 1 2.2-2.1 2.1 2.1 0 1 1 0 4.2 2.1 2.1 0 0 1-2.2-2.1zm14.5 13.8a5.3 5.3 0 0 1-4 1.6c-2.6 0-3.8-1.4-3.8-3.6V353h3.7v6.7c0 1.4.7 1.9 1.9 1.9a2.8 2.8 0 0 0 2.2-1.1V353h3.7v11.6h-3.7zm6.9-2.7a7.4 7.4 0 0 0 4.1 1.6c1.1 0 1.6-.4 1.6-.9s-.8-.8-2-1-4.8-.8-4.8-3.7 1.8-3.8 5-3.8a8.4 8.4 0 0 1 4.9 1.5l-1.5 2.5a5 5 0 0 0-3.4-1.3c-.8 0-1.4.3-1.4.8s.6.7 1.8.9 4.9.8 4.9 3.9-1.9 3.8-5.3 3.8a9.1 9.1 0 0 1-5.4-1.7zm11.9.9v-5.2h-1.9V353h1.9v-3.2h3.7v3.2h2.3v3.2h-2.3v4.2c0 .7.3 1.2 1 1.2a1.6 1.6 0 0 0 .9-.3l.7 2.8a4 4 0 0 1-2.7.7c-2.3 0-3.6-1.1-3.6-3.4zm15.7 1.8a4.6 4.6 0 0 1-3.5 1.6c-2.8 0-5.1-2.1-5.1-6.1s2.2-6 5.1-6a4.6 4.6 0 0 1 3.5 1.6v-5.8h3.6v16.1h-3.6zm0-6.2a3 3 0 0 0-2.3-1.1 2.6 2.6 0 0 0-2.5 2.8 2.6 2.6 0 0 0 2.5 2.9 3.4 3.4 0 0 0 2.3-1.1zm6.3-4h3.7v1.4a5.4 5.4 0 0 1 3.7-1.7v3.6l-1-.2a3.7 3.7 0 0 0-2.7 1.1v7.4h-3.7zm8.8-3.6a2.1 2.1 0 1 1 2.1 2.1 2.1 2.1 0 0 1-2.1-2.1zm.2 3.6h3.7v11.6h-3.7zm4.8 0h3.9l2.6 7.3 2.7-7.3h3.9l-4.6 11.6H434zm19.6-.3c3.4 0 5.9 2.5 5.9 6.4v.8h-8.2a2.7 2.7 0 0 0 2.9 2.1 4.6 4.6 0 0 0 2.9-1l1.5 2.3a7.6 7.6 0 0 1-4.8 1.5c-3.6 0-6.4-2.3-6.4-6.1a6 6 0 0 1 6.2-6zm-2.4 4.8h4.8a2.2 2.2 0 0 0-2.4-2 2.4 2.4 0 0 0-2.4 2zm11.6 4.7a1.3 1.3 0 1 1 0 2.6 1.3 1.3 0 1 1 0-2.6zm9.5-9.5a4.8 4.8 0 0 1 4.2 2l-1.2 1.1a3.3 3.3 0 0 0-2.9-1.5c-2.5 0-4 1.9-4 4.4s1.5 4.5 4 4.5a3.3 3.3 0 0 0 2.9-1.5l1.2 1.1a4.8 4.8 0 0 1-4.2 2c-3.5 0-5.8-2.6-5.8-6.1a5.7 5.7 0 0 1 5.8-6zm14 10.5a5 5 0 0 1-3.9 1.6 3.8 3.8 0 0 1-4-3.8 3.8 3.8 0 0 1 4-3.8 5 5 0 0 1 3.9 1.6v-2.1c0-1.6-1.3-2.5-2.9-2.5a4.6 4.6 0 0 0-3.6 1.6l-.8-1.2a5.9 5.9 0 0 1 4.6-1.9c2.4 0 4.5 1.1 4.5 3.9v8h-1.8zm0-3.3a4 4 0 0 0-3.2-1.4c-1.7 0-2.9 1-2.9 2.5s1.2 2.5 2.9 2.5a3.7 3.7 0 0 0 3.2-1.4z"/><path fill="#939598" d="M451.1 438.2h3.9a2 2 0 0 1 2.3 2 2 2 0 0 0 .2 3.8 2.1 2.1 0 0 1-2.3 2.2h-4.1zm3.7 3.3a1 1 0 0 0 1.1-1 1 1 0 0 0-1.1-1.1h-2.3v2.1zm0 3.5a1.1 1.1 0 0 0 1.2-1.2 1.1 1.1 0 0 0-1.2-1.1h-2.3v2.3zm4.1-6.8h1.2v8h-1.2zm5.4 2.1a2.8 2.8 0 0 1 2.9 3.1v.3h-4.5a1.8 1.8 0 0 0 1.8 1.6 2.5 2.5 0 0 0 1.7-.6l.6.8a3.8 3.8 0 0 1-2.4.8 3 3 0 0 1-.1-6zm-1.6 2.5h3.3a1.6 1.6 0 0 0-1.7-1.5 1.6 1.6 0 0 0-1.6 1.5zm8.3-2.5a2.9 2.9 0 0 1 2.9 3.1v.3h-4.5a1.7 1.7 0 0 0 1.8 1.6 2.5 2.5 0 0 0 1.7-.6l.6.8a3.8 3.8 0 0 1-2.4.8 3 3 0 0 1-.1-6zm-1.6 2.5h3.2a1.6 1.6 0 0 0-3.2 0zm9.8 2.6a2.3 2.3 0 0 1-1.9.9c-1.5 0-2.5-1.1-2.5-3s1-3 2.5-3a2.5 2.5 0 0 1 1.9.9v-3h1.2v8h-1.2zm0-3.3a2 2 0 0 0-1.5-.7c-1 0-1.6.8-1.6 1.9s.6 1.9 1.6 1.9a1.8 1.8 0 0 0 1.5-.8zm3.5-1.8a.9.9 0 0 1 .9.9.9.9 0 0 1-.9.8.9.9 0 0 1-.8-.8.9.9 0 0 1 .8-.9zm0 4.3a.9.9 0 0 1 .9.9.9.9 0 0 1-.9.8.9.9 0 0 1-.8-.8.9.9 0 0 1 .8-.9zm8.3-6.5c2.2 0 3.2 2.1 3.2 4.1s-1 4.1-3.2 4.1-3.2-2.1-3.2-4.1.9-4.1 3.2-4.1zm0 1.2c-1.3 0-1.8 1.4-1.8 2.9s.5 2.9 1.8 2.9 1.8-1.4 1.8-2.9-.5-2.9-1.8-2.9zm4.8 5.3a.9.9 0 0 1 .9.9.9.9 0 0 1-.9.8.9.9 0 0 1-.8-.8.9.9 0 0 1 .8-.9zm2.7-4.6l-1.3 1.4-.8-.9 2.3-2.3h1.2v8h-1.4zm2.9 5.1c3.1-2.4 4.3-3.4 4.3-4.6a1.3 1.3 0 0 0-1.4-1.2 2.7 2.7 0 0 0-2.2 1l-.8-.9a3.6 3.6 0 0 1 2.9-1.3c1.6 0 2.9.8 2.9 2.4s-1.3 2.8-3.5 4.5h3.6v1.2h-5.8zm8-1a3 3 0 0 0 2.2 1 1.4 1.4 0 0 0 1.6-1.4c0-.9-.6-1.4-1.6-1.4a2.2 2.2 0 0 0-1.7.7l-1-.3v-4.5h5.2v1.2h-3.8v2.3a3 3 0 0 1 1.8-.7 2.5 2.5 0 0 1 2.5 2.6c0 1.7-1.2 2.7-3 2.7a3.6 3.6 0 0 1-3-1.2zm6.4-3.4a1.9 1.9 0 0 0 .9-1.1h-.2a.8.8 0 0 1-.7-.8.7.7 0 0 1 .8-.8c.5 0 .9.4.9 1.1a2.7 2.7 0 0 1-1.1 2zm2.2 0a1.9 1.9 0 0 0 .9-1.1h-.2a.8.8 0 0 1-.7-.8.8.8 0 0 1 .8-.8c.5 0 .9.4.9 1.1a2.4 2.4 0 0 1-1.1 2z"/><path fill="none" stroke="#939598" d="M526.4 446.3v-15"/><path fill="#939598" d="M526.4 425.3a28.1 28.1 0 0 0 4.7 8.5l-4.7-1.7-4.8 1.7a30.7 30.7 0 0 0 4.8-8.5zM398.5 25.7a4.2 4.2 0 1 1-4.1 4.1 4 4 0 0 1 4.1-4.1zm0 1.3a2.6 2.6 0 0 0-2.7 2.8 2.7 2.7 0 1 0 5.3 0 2.6 2.6 0 0 0-2.6-2.8zm5.7 2.1h-1V28h1v-.3c0-1.3.7-2 1.8-2l1 .2-.3 1-.5-.2c-.5 0-.8.4-.8 1v.3h1.2v1.1h-1.2v4.7h-1.2zm3.7 0h-1V28h1v-.3c0-1.3.7-2 1.8-2l1 .2-.3 1-.5-.2c-.5 0-.8.4-.8 1v.3h1.2v1.1h-1.2v4.7h-1.2zm3.4 3.1a3.3 3.3 0 0 0 2 .8c.8 0 1.1-.3 1.1-.7s-.6-.7-1.3-.9-2.2-.4-2.2-1.7.9-1.8 2.3-1.8a3.4 3.4 0 0 1 2.3.8l-.6.9a2.1 2.1 0 0 0-1.7-.7c-.6 0-1 .2-1 .7s.5.6 1.2.7 2.3.5 2.3 1.9-.9 1.8-2.5 1.8a3.4 3.4 0 0 1-2.4-.9zm8.2-4.3a2.9 2.9 0 0 1 2.9 3.2v.3h-4.5a1.7 1.7 0 0 0 1.8 1.5 2.5 2.5 0 0 0 1.7-.6l.6.8a3.4 3.4 0 0 1-2.4.9 3.1 3.1 0 0 1-.1-6.1zm-1.6 2.6h3.2a1.6 1.6 0 0 0-3.2 0zm6 2v-3.4h-1V28h1v-1.5h1.2V28h1.2v1.1h-1.2v3.1c0 .4.2.7.6.7l.5-.2.3.9a1.6 1.6 0 0 1-1.1.4 1.3 1.3 0 0 1-1.5-1.5zm6.7-6.7h3.5a2.4 2.4 0 0 1 2.6 2.5 2.5 2.5 0 0 1-2.6 2.6H432v2.9h-1.4zm3.3 1.3H432v2.5h1.9a1.3 1.3 0 0 0 1.4-1.3 1.3 1.3 0 0 0-1.4-1.2zm7.2 6.1a2.4 2.4 0 0 1-1.9.8 2 2 0 0 1-2-1.9 1.9 1.9 0 0 1 2-1.9 2.4 2.4 0 0 1 1.9.7v-.8c0-.7-.5-1.1-1.3-1.1a2.2 2.2 0 0 0-1.7.7l-.6-.9a3.7 3.7 0 0 1 2.5-.9c1.3 0 2.4.5 2.4 2.1v3.8h-1.3zm0-1.6a1.7 1.7 0 0 0-1.4-.6 1.1 1.1 0 0 0-1.2 1.1c0 .6.5 1 1.2 1a1.7 1.7 0 0 0 1.4-.6zm3.2.9v-3.4h-1V28h1v-1.5h1.2V28h1.2v1.1h-1.2v3.1c0 .4.2.7.6.7l.5-.2.3.9a1.6 1.6 0 0 1-1.1.4 1.3 1.3 0 0 1-1.5-1.5zm7.5-2.3a1.1 1.1 0 0 0-1.2-1.2 2 2 0 0 0-1.5.8v4h-1.3v-8h1.3v3a2.9 2.9 0 0 1 2.1-.9 1.6 1.6 0 0 1 1.8 1.8v4.1h-1.2zm3.5-2.2a.8.8 0 1 1-.8.8.7.7 0 0 1 .8-.8zm0 4.3a.8.8 0 0 1 .8.8.8.8 0 1 1-1.6 0 .8.8 0 0 1 .8-.8zm4.9-1.9h2.9v1.1h-2.9zm7-4.7c2.2 0 3.2 2.1 3.2 4.1s-1 4.2-3.2 4.2-3.2-2.1-3.2-4.2.9-4.1 3.2-4.1zm0 1.3c-1.3 0-1.8 1.3-1.8 2.8s.5 2.9 1.8 2.9 1.7-1.3 1.7-2.9-.4-2.8-1.7-2.8zm4.8 5.3a.9.9 0 0 1 .9.8.9.9 0 0 1-.9.9.9.9 0 0 1-.8-.9.9.9 0 0 1 .8-.8zm3-.5a2.6 2.6 0 0 0 2.1.9 1.5 1.5 0 0 0 1.7-1.4 1.4 1.4 0 0 0-1.6-1.4 2.4 2.4 0 0 0-1.8.7l-1-.3v-4.5h5.3v1.3h-3.9v2.3a2.7 2.7 0 0 1 1.8-.7 2.5 2.5 0 0 1 2.6 2.6 2.8 2.8 0 0 1-3.1 2.7 3.5 3.5 0 0 1-2.9-1.3zm6.4-3.4a1.5 1.5 0 0 0 .8-1.1h-.2a.7.7 0 0 1-.7-.8.9.9 0 0 1 .8-.8 1 1 0 0 1 1 1.1 2.7 2.7 0 0 1-1.2 2.1zm2.2 0a1.9 1.9 0 0 0 .9-1.1h-.2a.8.8 0 0 1-.8-.8.9.9 0 0 1 .9-.8 1 1 0 0 1 .9 1.1 2.9 2.9 0 0 1-1.1 2.1z"/><path fill="none" stroke="#939598" d="M490 26.3V83"/><path fill="#939598" d="M490 89.1a31.3 31.3 0 0 0-4.8-8.6l4.8 1.8 4.7-1.8a28.7 28.7 0 0 0-4.7 8.6zM208.7 25.7a3.8 3.8 0 0 1 3.3 1.7l-1.2.6a2.5 2.5 0 0 0-2.1-1 2.7 2.7 0 0 0-2.7 2.8 2.7 2.7 0 0 0 2.7 2.9 2.6 2.6 0 0 0 1.9-.7v-1.2h-2.4v-1.3h3.8v3a4.3 4.3 0 0 1-3.3 1.5 4.1 4.1 0 0 1-4.2-4.2 4 4 0 0 1 4.2-4.1zm8.7 7.4a3.4 3.4 0 0 1-2.1.9 1.7 1.7 0 0 1-1.8-1.9V28h1.2v3.7a1.1 1.1 0 0 0 1.2 1.2 2 2 0 0 0 1.5-.8V28h1.2v5.8h-1.2zm3.1-.6v-3.4h-.9V28h.9v-1.5h1.3V28h1.1v1.1h-1.1v3.1c0 .4.2.7.5.7l.6-.2.3.9a1.7 1.7 0 0 1-1.2.4 1.3 1.3 0 0 1-1.5-1.5zm3.8 0v-3.4h-.9V28h.9v-1.5h1.3V28h1.2v1.1h-1.2v3.1c0 .4.2.7.6.7l.5-.2.3.9a1.7 1.7 0 0 1-1.2.4 1.4 1.4 0 0 1-1.5-1.5zm6.2-4.6c1.7 0 2.8 1.3 2.8 3.2v.3h-4.4a1.7 1.7 0 0 0 1.8 1.5 2.5 2.5 0 0 0 1.7-.6l.5.8a3 3 0 0 1-2.3.9 3.1 3.1 0 0 1-.1-6.1zm-1.6 2.6h3.2a1.6 1.6 0 0 0-3.2 0zm5.7-2.5h1.3v.9a2.2 2.2 0 0 1 1.8-1v1.3h-.4a1.8 1.8 0 0 0-1.4.8v3.9h-1.3zm4.8 0a.8.8 0 1 1 0 1.6.8.8 0 0 1 0-1.6zm0 4.3a.9.9 0 0 1 .9.8.9.9 0 0 1-.9.9.9.9 0 0 1-.8-.9.9.9 0 0 1 .8-.8zm8.3-6.6c2.2 0 3.2 2.1 3.2 4.1s-1 4.2-3.2 4.2-3.2-2.1-3.2-4.2.9-4.1 3.2-4.1zm0 1.3c-1.3 0-1.8 1.3-1.8 2.8s.5 2.9 1.8 2.9 1.7-1.3 1.7-2.9-.4-2.8-1.7-2.8zm4.8 5.3a.9.9 0 0 1 .9.8.9.9 0 0 1-.9.9.9.9 0 0 1-.8-.9.9.9 0 0 1 .8-.8zm2.7-4.6l-1.3 1.3-.8-.8 2.3-2.4h1.2v8h-1.4zm2.9 5c3.1-2.3 4.3-3.4 4.3-4.5s-.7-1.2-1.5-1.2a2.6 2.6 0 0 0-2.1.9l-.8-.9a3.6 3.6 0 0 1 2.9-1.3c1.6 0 2.9.9 2.9 2.5s-1.3 2.8-3.5 4.4h3.6v1.2h-5.8zm8-.9a2.8 2.8 0 0 0 2.2.9 1.4 1.4 0 1 0 0-2.8 2.4 2.4 0 0 0-1.8.7l-1-.3v-4.5h5.3v1.3H267v2.3a2.3 2.3 0 0 1 1.8-.7 2.4 2.4 0 0 1 2.5 2.6 2.7 2.7 0 0 1-3 2.7 3.6 3.6 0 0 1-3-1.3zm6.4-3.4a1.9 1.9 0 0 0 .9-1.1h-.2a.8.8 0 0 1-.8-.8.9.9 0 0 1 .9-.8c.5 0 .9.4.9 1.1a2.9 2.9 0 0 1-1.1 2.1zm2.2 0a1.9 1.9 0 0 0 .9-1.1h-.2a.7.7 0 0 1-.7-.8.8.8 0 0 1 .8-.8c.5 0 .9.4.9 1.1a2.9 2.9 0 0 1-1.1 2.1zm-260.9-17h3a3.9 3.9 0 0 1 4.2 4 3.9 3.9 0 0 1-4.2 4h-3zm3 6.8a2.7 2.7 0 0 0 2.8-2.8 2.6 2.6 0 0 0-2.8-2.7h-1.6v5.5zm5.2-1.7a3 3 0 1 1 5.9 0 3 3 0 1 1-5.9 0zm4.6 0a1.7 1.7 0 1 0-3.3 0c0 1.1.6 2 1.6 2a1.8 1.8 0 0 0 1.7-2zm5.2-3a2.9 2.9 0 0 1 2.3 1l-.9.8a1.4 1.4 0 0 0-1.3-.7 1.8 1.8 0 0 0-1.8 1.9 1.8 1.8 0 0 0 1.8 2 1.6 1.6 0 0 0 1.3-.7l.9.7a2.7 2.7 0 0 1-2.3 1.1 3 3 0 0 1-3-3.1 2.9 2.9 0 0 1 3-3zm7.3 5.2a3.4 3.4 0 0 1-2.1.9 1.7 1.7 0 0 1-1.8-1.9v-4.1h1.2v3.7a1.1 1.1 0 0 0 1.2 1.2 2 2 0 0 0 1.5-.8v-4.1h1.2v5.8h-1.2zm10-3c0-.7-.3-1.1-1-1.1a1.7 1.7 0 0 0-1.3.8v4h-1.3v-3.7c0-.7-.3-1.1-.9-1.1a1.8 1.8 0 0 0-1.4.8v4H42v-5.8h1.2v.8a2.8 2.8 0 0 1 1.9-.9 1.5 1.5 0 0 1 1.6 1.1 2.3 2.3 0 0 1 2-1.1c1 0 1.6.6 1.6 1.8v4.1h-1.2zm5.4-2.2c1.8 0 2.9 1.3 2.9 3.2v.3h-4.5a1.8 1.8 0 0 0 1.9 1.5 2.5 2.5 0 0 0 1.6-.6l.6.8a3.2 3.2 0 0 1-2.4.9 2.9 2.9 0 0 1-3-3.1 2.9 2.9 0 0 1 2.9-3zm-1.6 2.6h3.3a1.7 1.7 0 0 0-1.7-1.6 1.7 1.7 0 0 0-1.6 1.6zm9.7-.3a1.1 1.1 0 0 0-1.2-1.2 1.9 1.9 0 0 0-1.5.8v4h-1.3v-5.8h1.3v.8a2.9 2.9 0 0 1 2-.9 1.7 1.7 0 0 1 1.9 1.9v4h-1.2zm3.1 2.3v-3.4h-1v-1.1h1v-1.5H67v1.5h1.1v1.1H67v3.1c0 .4.1.7.5.7l.6-.2.3.9a1.9 1.9 0 0 1-1.2.4 1.3 1.3 0 0 1-1.5-1.5zm-51.9 7.7h3a3.9 3.9 0 0 1 4.2 4 3.9 3.9 0 0 1-4.2 4h-3zm3 6.8a2.7 2.7 0 0 0 2.8-2.8 2.6 2.6 0 0 0-2.8-2.7h-1.6v5.5zm5.4-6.3a.8.8 0 0 1 .7-.8.8.8 0 0 1 0 1.6.8.8 0 0 1-.7-.8zm.1 1.7h1.3v5.8h-1.3zm10 2.1c0-.7-.3-1.1-.9-1.1a1.8 1.8 0 0 0-1.4.8v4h-1.2v-3.7c0-.7-.3-1.1-1-1.1a1.7 1.7 0 0 0-1.3.8v4h-1.3V28h1.3v.8a2.6 2.6 0 0 1 1.9-.9 1.4 1.4 0 0 1 1.5 1.1 2.4 2.4 0 0 1 2-1.1c1.1 0 1.7.6 1.7 1.8v4.1h-1.3zm5.5-2.2c1.7 0 2.8 1.3 2.8 3.2v.3h-4.4a1.7 1.7 0 0 0 1.8 1.5 2.7 2.7 0 0 0 1.7-.6l.5.8a3 3 0 0 1-2.3.9 2.9 2.9 0 0 1-3.1-3.1 3 3 0 0 1 3-3zm-1.6 2.6h3.2a1.6 1.6 0 1 0-3.2 0zm9.6-.3a1.1 1.1 0 0 0-1.2-1.2 1.7 1.7 0 0 0-1.4.8v4h-1.3V28h1.3v.8a2.7 2.7 0 0 1 2-.9 1.7 1.7 0 0 1 1.9 1.9v4h-1.3zm3 2a3 3 0 0 0 1.9.8c.8 0 1.2-.3 1.2-.7s-.6-.7-1.3-.9-2.2-.4-2.2-1.7.8-1.8 2.2-1.8a3.2 3.2 0 0 1 2.3.8l-.5.9a2.4 2.4 0 0 0-1.7-.7c-.7 0-1.1.2-1.1.7s.6.6 1.2.7 2.3.5 2.3 1.9-.9 1.8-2.4 1.8a3.5 3.5 0 0 1-2.5-.9zm5.4-5.9a.8.8 0 1 1 .8.8.9.9 0 0 1-.8-.8zm.2 1.7h1.2v5.8h-1.2zm2.5 2.9a2.9 2.9 0 0 1 3-3 3.1 3.1 0 0 1 0 6.1 2.9 2.9 0 0 1-3-3.1zm4.6 0a1.7 1.7 0 1 0-3.3 0 1.8 1.8 0 0 0 1.7 2c1 0 1.6-.9 1.6-2zm6.5-.7c0-.9-.4-1.2-1.1-1.2a1.9 1.9 0 0 0-1.5.8v4h-1.3V28h1.3v.8a2.9 2.9 0 0 1 2-.9 1.7 1.7 0 0 1 1.9 1.9v4H68zm3 2a3.1 3.1 0 0 0 2 .8c.7 0 1.1-.3 1.1-.7s-.6-.7-1.3-.9-2.2-.4-2.2-1.7.8-1.8 2.3-1.8a2.9 2.9 0 0 1 2.2.8l-.5.9a2.2 2.2 0 0 0-1.7-.7c-.7 0-1.1.2-1.1.7s.6.6 1.3.7 2.2.5 2.2 1.9-.8 1.8-2.4 1.8a3.5 3.5 0 0 1-2.5-.9zm6.2-4.2a.8.8 0 1 1 0 1.6.8.8 0 1 1 0-1.6zm0 4.3a.9.9 0 0 1 .9.8.9.9 0 0 1-.9.9.9.9 0 0 1-.8-.9.9.9 0 0 1 .8-.8zm6.9-2.6a2.1 2.1 0 0 1-1.7-1.9c0-1.5 1.5-2.1 3-2.1s2.9.6 2.9 2.1a2.1 2.1 0 0 1-1.7 1.9 2.3 2.3 0 0 1 1.8 2.1c0 1.4-1.4 2.2-3 2.2s-3.1-.8-3.1-2.2a2.3 2.3 0 0 1 1.8-2.1zm1.3.6c-.5.1-1.7.5-1.7 1.3s.8 1.1 1.7 1.1 1.6-.4 1.6-1.1-1.1-1.2-1.6-1.3zm0-3.3c-.9 0-1.5.4-1.5 1s1 1.1 1.5 1.2 1.5-.4 1.5-1.2-.7-1-1.5-1zm5 5.3a.8.8 0 0 1 .8.8.8.8 0 0 1-.8.9.9.9 0 0 1-.8-.9.9.9 0 0 1 .8-.8zm3-.5a2.6 2.6 0 0 0 2.1.9 1.5 1.5 0 0 0 1.7-1.4 1.5 1.5 0 0 0-1.6-1.4 2.4 2.4 0 0 0-1.8.7l-1-.3v-4.5H98v1.3h-3.8v2.3a2.7 2.7 0 0 1 1.8-.7 2.5 2.5 0 0 1 2.6 2.6 2.8 2.8 0 0 1-3.1 2.7 3.4 3.4 0 0 1-2.9-1.3zm6.4-3.4a2.3 2.3 0 0 0 .8-1.1h-.2a.7.7 0 0 1-.7-.8.9.9 0 0 1 .8-.8 1 1 0 0 1 1 1.1 2.7 2.7 0 0 1-1.2 2.1zm2.2 0a1.5 1.5 0 0 0 .8-1.1h-.2a.7.7 0 0 1-.7-.8.9.9 0 0 1 .8-.8 1 1 0 0 1 1 1.1 2.7 2.7 0 0 1-1.2 2.1zm8.3 3.3l-1.5 2.1h-1.4l2.1-2.9-2-2.9h1.4l1.4 2 1.4-2h1.4l-2 2.9 2.1 2.9h-1.4zm7.5.1a2.9 2.9 0 0 0 2.2.9 1.4 1.4 0 1 0 0-2.8 2.2 2.2 0 0 0-1.7.7l-1-.3v-4.5h5.2v1.3h-3.8v2.3a2.5 2.5 0 0 1 1.8-.7 2.4 2.4 0 0 1 2.5 2.6 2.7 2.7 0 0 1-3 2.7 3.7 3.7 0 0 1-3-1.3zm7.2.5a.9.9 0 0 1 .9.8.9.9 0 0 1-.9.9.9.9 0 0 1-.8-.9.9.9 0 0 1 .8-.8zm3-.5a2.6 2.6 0 0 0 2.1.9 1.5 1.5 0 0 0 1.7-1.4 1.5 1.5 0 0 0-1.6-1.4 2.4 2.4 0 0 0-1.8.7l-1-.3v-4.5h5.3v1.3h-3.9v2.3a2.7 2.7 0 0 1 1.8-.7 2.5 2.5 0 0 1 2.6 2.6 2.8 2.8 0 0 1-3.1 2.7 3.5 3.5 0 0 1-2.9-1.3zm6.4-3.4a1.5 1.5 0 0 0 .8-1.1h-.2a.7.7 0 0 1-.7-.8.9.9 0 0 1 .8-.8 1 1 0 0 1 1 1.1 2.7 2.7 0 0 1-1.2 2.1zm2.2 0a1.9 1.9 0 0 0 .9-1.1h-.2a.7.7 0 0 1-.8-.8.9.9 0 0 1 .8-.8 1 1 0 0 1 1 1.1 2.9 2.9 0 0 1-1.1 2.1z"/><path fill="none" stroke="#939598" d="M201 26.3V83"/><path fill="#939598" d="M201 89.1a31.3 31.3 0 0 0-4.8-8.6l4.8 1.8 4.8-1.8a26.9 26.9 0 0 0-4.8 8.6zM48.5 438.2a4.1 4.1 0 1 1-4.1 4.1 3.9 3.9 0 0 1 4.1-4.1zm0 1.2a2.7 2.7 0 0 0-2.7 2.9 2.7 2.7 0 0 0 2.7 2.9 2.7 2.7 0 0 0 2.6-2.9 2.6 2.6 0 0 0-2.6-2.9zm5.7 2.2h-.9v-1.1h.9v-.3a1.8 1.8 0 0 1 1.8-2l1.1.2-.3.9h-.5c-.5 0-.8.3-.8 1v.3h1.1v1.1h-1.1v4.7h-1.3zm3.7 0h-1v-1.1h1v-.3a1.8 1.8 0 0 1 1.8-2l1 .2-.2.9H60c-.5 0-.8.3-.8 1v.3h1.1v1.1h-1.1v4.7h-1.3zm3.5 3a3 3 0 0 0 1.9.8c.8 0 1.2-.2 1.2-.7s-.6-.7-1.3-.8-2.2-.5-2.2-1.8.8-1.8 2.3-1.8a3.2 3.2 0 0 1 2.2.9l-.5.9a2.4 2.4 0 0 0-1.7-.7c-.7 0-1.1.2-1.1.6s.6.6 1.2.8 2.3.5 2.3 1.8-.9 1.8-2.4 1.8a3.5 3.5 0 0 1-2.5-.9zm8.1-4.3a2.9 2.9 0 0 1 2.9 3.2v.3h-4.5a1.8 1.8 0 0 0 1.9 1.6 2.5 2.5 0 0 0 1.6-.6l.6.8a3.6 3.6 0 0 1-2.4.8 2.9 2.9 0 0 1-3-3 3 3 0 0 1 2.9-3.1zm-1.6 2.6h3.3a1.5 1.5 0 0 0-1.7-1.5 1.6 1.6 0 0 0-1.6 1.5zm6 2v-3.3h-1v-1.1h1v-1.6h1.3v1.6h1.1v1.1h-1.1v3c0 .4.2.7.5.7l.6-.2.3 1a1.9 1.9 0 0 1-1.2.3 1.3 1.3 0 0 1-1.5-1.5zm6.7-6.6h3.5a2.4 2.4 0 0 1 2.6 2.5 2.4 2.4 0 0 1-2.6 2.5H82v3h-1.4zm3.3 1.2H82v2.6h1.9a1.3 1.3 0 1 0 0-2.6zm7.3 6.2a2.5 2.5 0 0 1-1.9.7 1.9 1.9 0 1 1 0-3.8 2.6 2.6 0 0 1 1.9.8v-.9c0-.7-.6-1.1-1.4-1.1a2.5 2.5 0 0 0-1.7.8l-.5-.9a3.1 3.1 0 0 1 2.4-1c1.3 0 2.4.6 2.4 2.1v3.9h-1.2zm0-1.6a1.8 1.8 0 0 0-1.4-.6c-.7 0-1.3.4-1.3 1a1.2 1.2 0 0 0 1.3 1.1 1.8 1.8 0 0 0 1.4-.6zm3.1.8v-3.3h-1v-1.1h1v-1.6h1.3v1.6h1.1v1.1h-1.1v3c0 .4.2.7.5.7a.8.8 0 0 0 .6-.2l.3 1a1.9 1.9 0 0 1-1.2.3 1.3 1.3 0 0 1-1.5-1.5zm7.5-2.3c0-.9-.5-1.1-1.2-1.1a2 2 0 0 0-1.5.7v4.1h-1.2v-8h1.2v3a2.8 2.8 0 0 1 2.1-1 1.7 1.7 0 0 1 1.9 1.9v4.1h-1.3zm3.5-2.2a.9.9 0 0 1 .9.8.9.9 0 0 1-.9.9.9.9 0 0 1-.8-.9.9.9 0 0 1 .8-.8zm0 4.3a.9.9 0 0 1 .9.9.9.9 0 0 1-.9.8.9.9 0 0 1-.8-.8.9.9 0 0 1 .8-.9zm5-1.9h2.8v1.1h-2.8zm6.9-4.6c2.2 0 3.2 2.1 3.2 4.1s-1 4.1-3.2 4.1-3.2-2.1-3.2-4.1 1-4.1 3.2-4.1zm0 1.2c-1.3 0-1.8 1.4-1.8 2.9s.5 2.9 1.8 2.9 1.8-1.4 1.8-2.9-.5-2.9-1.8-2.9zm4.9 5.3a.9.9 0 0 1 .8.9.9.9 0 0 1-.8.8.9.9 0 0 1-.9-.8.9.9 0 0 1 .9-.9zm2 .5c3.1-2.4 4.3-3.4 4.3-4.6a1.3 1.3 0 0 0-1.4-1.2 2.9 2.9 0 0 0-2.2 1l-.8-1a4.1 4.1 0 0 1 3-1.2c1.5 0 2.9.8 2.9 2.4s-1.4 2.8-3.5 4.5h3.5v1.2h-5.8zm8-1a3 3 0 0 0 2.2 1 1.5 1.5 0 0 0 1.7-1.4c0-.9-.7-1.4-1.7-1.4a2.7 2.7 0 0 0-1.7.6l-1-.2v-4.5h5.2v1.2H133v2.3a3 3 0 0 1 1.8-.7 2.5 2.5 0 0 1 2.6 2.6c0 1.7-1.3 2.7-3.1 2.7a3.6 3.6 0 0 1-3-1.2zm6.5-3.4a2.3 2.3 0 0 0 .8-1.1h-.2a.7.7 0 0 1-.7-.7.8.8 0 0 1 .8-.8c.5 0 .9.4.9 1.1a2.4 2.4 0 0 1-1.1 2zm2.2 0a1.5 1.5 0 0 0 .8-1.1h-.2a.7.7 0 0 1-.7-.7.8.8 0 0 1 .8-.8 1 1 0 0 1 1 1.1 2.5 2.5 0 0 1-1.2 2z"/><path fill="none" stroke="#939598" d="M40 446.3v-36.5"/><path fill="#939598" d="M40 403.8a28.1 28.1 0 0 0 4.7 8.5l-4.7-1.7-4.8 1.7a30.7 30.7 0 0 0 4.8-8.5z"/><path fill="none" stroke="#ed1c24" stroke-width=".5" d="M13 47.3h522v378H13z"/></svg>