<svg xmlns="http://www.w3.org/2000/svg" xmlns:xlink="http://www.w3.org/1999/xlink" viewBox="0 0 630.57 469.99" width="630.57" height="469.99"><defs><style>.cls-1{fill:#fff}.cls-1,.cls-7,.cls-8{stroke:#6dcff6;stroke-miterlimit:10}.cls-2{fill:#fd0}.cls-10,.cls-11,.cls-3,.cls-4,.cls-5,.cls-7,.cls-8{fill:none}.cls-3{stroke:#ed1c24;stroke-width:.57px}.cls-11,.cls-4{stroke:#231f20}.cls-4{stroke-width:6.32px}.cls-5{stroke:#ec008c}.cls-6{fill:#231f20}.cls-8{stroke-width:1px}.cls-9{fill:#939598}.cls-10{stroke:#939598}.cls-11{stroke-width:.5px}</style><symbol id="New_Symbol" viewBox="0 0 3.88 3.88"><path d="M.5.5h2.88v2.88H.5z" class="cls-1"/></symbol></defs><g id="Layer_2"><g id="Layer_2-2"><path d="M.29 35.86h630v414H.29z" class="cls-2"/><path d="M.29 35.86h630v414H.29z" class="cls-3"/><rect width="360" height="576" x="135.29" y="-45.14" class="cls-4" rx="20.25" transform="rotate(90 315.29 242.86)"/><path d="M45.29 80.86h174v324h-174zm183 0h174v324h-174zm183 0h174v324h-174z" class="cls-5"/><path d="M232.66 195.86h-2.11v-.74h5v.74h-2.12v5.92h-.82zm4.97.97a2.34 2.34 0 0 1 2.31 2.59v.19H236a1.7 1.7 0 0 0 1.73 1.67 2.13 2.13 0 0 0 1.5-.61l.35.49a2.6 2.6 0 0 1-1.91.74 2.54 2.54 0 0 1-.08-5.07zm-1.63 2.23h3.16a1.56 1.56 0 0 0-1.58-1.6 1.6 1.6 0 0 0-1.58 1.6zm6.52.74l-1.45 2h-.86l1.85-2.48-1.75-2.32h.87l1.34 1.83 1.34-1.83h.86l-1.72 2.3 1.85 2.48H244zm3.33.97v-3.16h-.8V197h.8v-1.32h.75V197h1v.65h-1v3c0 .36.16.62.49.62a.72.72 0 0 0 .51-.2l.22.56a1.23 1.23 0 0 1-.9.31 1 1 0 0 1-1.07-1.17zm2.66-5.13a.51.51 0 0 1 1 0 .51.51 0 1 1-1 0zm.13 1.32h.75v4.82h-.75zm5.5 1.66c0-.85-.43-1.12-1.07-1.12a1.86 1.86 0 0 0-1.43.75v3.53h-.75V197h.75v.69a2.4 2.4 0 0 1 1.72-.82 1.37 1.37 0 0 1 1.53 1.56v3.39h-.75zm2.63 3.84a1.84 1.84 0 0 0 1.57.66 1.38 1.38 0 0 0 1.54-1.45V201a2 2 0 0 1-1.61.86 2.2 2.2 0 0 1-2.15-2.5c0-1.55.88-2.51 2.15-2.51a2 2 0 0 1 1.61.85v-.7h.75v4.68c0 1.6-1.11 2.1-2.29 2.1a2.47 2.47 0 0 1-1.95-.72zm3.11-4.18a1.78 1.78 0 0 0-1.44-.78c-1 0-1.54.77-1.54 1.84s.58 1.84 1.54 1.84a1.79 1.79 0 0 0 1.44-.79zm7.75-.38l-1.26 3.88h-.74l-1.54-4.78h.78l1.18 3.84 1.27-3.84h.68l1.27 3.84 1.13-3.84h.78l-1.54 4.82h-.75zm7.69.7c0-.85-.44-1.1-1.08-1.1a1.9 1.9 0 0 0-1.43.75v3.53h-.75v-6.66h.75v2.53a2.4 2.4 0 0 1 1.72-.82 1.36 1.36 0 0 1 1.54 1.54v3.41h-.75zm2.13-2.96a.5.5 0 1 1 1 0 .5.5 0 1 1-1 0zm.13 1.32h.75v4.82h-.75zm2.25-1.84h.75v6.66h-.75zm4.35 1.71a2.34 2.34 0 0 1 2.31 2.59v.19h-3.9a1.69 1.69 0 0 0 1.73 1.67 2.11 2.11 0 0 0 1.49-.61l.36.49a2.62 2.62 0 0 1-1.91.74 2.54 2.54 0 0 1-.08-5.07zm-1.59 2.23h3.16a1.56 1.56 0 0 0-1.58-1.6 1.59 1.59 0 0 0-1.58 1.6zm11.19 2a2 2 0 0 1-1.63.84c-1.25 0-2.14-1-2.14-2.53s.88-2.54 2.14-2.54a2 2 0 0 1 1.63.85v-2.56h.75v6.66h-.75zm0-2.78a1.79 1.79 0 0 0-1.44-.78c-1 0-1.56.8-1.56 1.87s.58 1.86 1.56 1.86a1.78 1.78 0 0 0 1.44-.76zM296 197h.74v.77a2.07 2.07 0 0 1 1.61-.88v.77a1.29 1.29 0 0 0-.29 0 1.79 1.79 0 0 0-1.32.77v3.42H296zm3.21-1.36a.5.5 0 1 1 1 0 .5.5 0 1 1-1 0zm.13 1.32h.75v4.82h-.75zm1.53.04h.81l1.6 3.95 1.6-3.95h.82l-2 4.82h-.82zm5.49-1.36a.5.5 0 0 1 1 0 .5.5 0 1 1-1 0zm.13 1.32h.74v4.82h-.74zm5.51 1.66c0-.85-.43-1.12-1.08-1.12a1.88 1.88 0 0 0-1.43.75v3.53h-.74V197h.74v.69a2.4 2.4 0 0 1 1.72-.82 1.37 1.37 0 0 1 1.54 1.56v3.39H312zm2.61 3.84a1.86 1.86 0 0 0 1.57.66 1.38 1.38 0 0 0 1.55-1.45V201a2 2 0 0 1-1.62.86 2.53 2.53 0 0 1 0-5 2 2 0 0 1 1.62.85V197h.75v4.68c0 1.6-1.12 2.1-2.3 2.1a2.47 2.47 0 0 1-1.95-.72zm3.12-4.18a1.78 1.78 0 0 0-1.44-.78c-1 0-1.55.77-1.55 1.84s.58 1.84 1.55 1.84a1.79 1.79 0 0 0 1.44-.79zm8.1.32c0-.85-.44-1.1-1.09-1.1a1.92 1.92 0 0 0-1.43.75v3.53h-.74v-6.66h.74v2.53a2.4 2.4 0 0 1 1.73-.82 1.36 1.36 0 0 1 1.54 1.54v3.41h-.75zm5.27 2.63a2.09 2.09 0 0 1-1.6.67 1.61 1.61 0 0 1-1.69-1.6 1.59 1.59 0 0 1 1.69-1.59 2 2 0 0 1 1.6.66v-.87c0-.65-.52-1-1.22-1a1.92 1.92 0 0 0-1.48.67l-.35-.52a2.53 2.53 0 0 1 1.93-.8c1 0 1.87.46 1.87 1.63v3.32h-.75zm0-1.38a1.62 1.62 0 0 0-1.33-.6 1.06 1.06 0 1 0 0 2.11 1.62 1.62 0 0 0 1.33-.6zm2.22.75a2.19 2.19 0 0 0 1.59.69c.74 0 1.14-.33 1.14-.8s-.59-.7-1.24-.86c-.82-.19-1.75-.41-1.75-1.41 0-.75.65-1.39 1.8-1.39a2.44 2.44 0 0 1 1.79.7l-.35.52a1.88 1.88 0 0 0-1.44-.61c-.66 0-1.07.3-1.07.73s.55.62 1.18.77c.84.19 1.81.43 1.81 1.5 0 .81-.65 1.46-1.9 1.46a2.53 2.53 0 0 1-1.94-.76zm7.27-5.48h.74v2.56a2 2 0 0 1 1.63-.85 2.25 2.25 0 0 1 2.15 2.54c0 1.57-.89 2.53-2.15 2.53a2 2 0 0 1-1.63-.84v.72h-.74zm2.18 6.11c1 0 1.56-.79 1.56-1.86s-.58-1.87-1.56-1.87a1.79 1.79 0 0 0-1.44.78v2.19a1.78 1.78 0 0 0 1.44.76zm5.66-4.4a2.35 2.35 0 0 1 2.32 2.59v.19h-3.9a1.69 1.69 0 0 0 1.73 1.67 2.11 2.11 0 0 0 1.49-.61l.36.49a2.62 2.62 0 0 1-1.92.74 2.54 2.54 0 0 1-.08-5.07zm-1.58 2.23H350a1.56 1.56 0 0 0-1.59-1.6 1.59 1.59 0 0 0-1.56 1.6zm7.24-2.23a2.07 2.07 0 0 1 1.77.84l-.5.46a1.43 1.43 0 0 0-1.23-.63 1.88 1.88 0 0 0 0 3.73 1.46 1.46 0 0 0 1.23-.63l.5.46a2.07 2.07 0 0 1-1.77.84 2.54 2.54 0 0 1 0-5.07zm2.54 2.53a2.39 2.39 0 1 1 2.37 2.54 2.37 2.37 0 0 1-2.37-2.54zm4 0a1.62 1.62 0 1 0-1.6 1.87 1.68 1.68 0 0 0 1.59-1.87zm7.83-.86c0-.61-.27-1-.89-1a1.69 1.69 0 0 0-1.28.74v3.54h-.75v-3.28c0-.61-.26-1-.89-1a1.69 1.69 0 0 0-1.27.75v3.53h-.75V197h.75v.69a2.09 2.09 0 0 1 1.56-.82 1.24 1.24 0 0 1 1.3.9 2 2 0 0 1 1.62-.9c.88 0 1.35.49 1.35 1.46v3.49h-.75zm4.35-1.67a2.35 2.35 0 0 1 2.32 2.59v.19h-3.91a1.7 1.7 0 0 0 1.74 1.67 2.11 2.11 0 0 0 1.49-.61l.36.49a2.62 2.62 0 0 1-1.92.74 2.54 2.54 0 0 1-.08-5.07zm-1.59 2.23h3.17a1.56 1.56 0 0 0-1.59-1.6 1.6 1.6 0 0 0-1.58 1.6zm7.85 1.71v-3.16h-.8V197h.8v-1.32h.75V197h1v.65h-1v3c0 .36.16.62.49.62a.72.72 0 0 0 .51-.2l.22.56a1.23 1.23 0 0 1-.9.31 1 1 0 0 1-1.07-1.17zm6.06-2.17c0-.85-.44-1.1-1.09-1.1a1.9 1.9 0 0 0-1.43.75v3.53h-.75v-6.66h.75v2.53a2.4 2.4 0 0 1 1.73-.82 1.36 1.36 0 0 1 1.54 1.54v3.41h-.75zm4.35-1.77a2.35 2.35 0 0 1 2.32 2.59v.19h-3.91a1.7 1.7 0 0 0 1.74 1.67 2.11 2.11 0 0 0 1.49-.61l.36.49a2.62 2.62 0 0 1-1.92.74 2.54 2.54 0 0 1-.08-5.07zm-1.59 2.23h3.17a1.56 1.56 0 0 0-1.59-1.6 1.6 1.6 0 0 0-1.58 1.6zm-153.66 11.56c0-.85-.43-1.12-1.07-1.12a1.86 1.86 0 0 0-1.43.75v3.53H231V209h.75v.69a2.39 2.39 0 0 1 1.71-.82 1.37 1.37 0 0 1 1.54 1.56v3.39h-.75zm5.51 2.48a2.34 2.34 0 0 1-1.72.8 1.36 1.36 0 0 1-1.53-1.54V209h.75v3.17c0 .85.43 1.1 1.07 1.1a1.85 1.85 0 0 0 1.43-.73V209h.75v4.82h-.75zm8.08-2.6c0-.61-.27-1-.89-1a1.69 1.69 0 0 0-1.28.74v3.54h-.75v-3.28c0-.61-.26-1-.88-1a1.67 1.67 0 0 0-1.27.75v3.53H242V209h.75v.69a2.06 2.06 0 0 1 1.55-.82 1.24 1.24 0 0 1 1.3.9 2 2 0 0 1 1.62-.9c.88 0 1.35.49 1.35 1.46v3.49h-.75zm2.26-3.38h.75v2.56a2 2 0 0 1 1.62-.85 2.25 2.25 0 0 1 2.15 2.54c0 1.57-.89 2.53-2.15 2.53a2 2 0 0 1-1.62-.84v.72h-.75zm2.19 6.11c1 0 1.55-.79 1.55-1.86s-.58-1.87-1.55-1.87a1.79 1.79 0 0 0-1.44.78v2.19a1.78 1.78 0 0 0 1.44.76zm5.66-4.4a2.34 2.34 0 0 1 2.31 2.59v.19h-3.9a1.69 1.69 0 0 0 1.73 1.67 2.11 2.11 0 0 0 1.49-.61l.36.49a2.62 2.62 0 0 1-1.91.74 2.54 2.54 0 0 1-.08-5.07zm-1.59 2.23h3.16a1.56 1.56 0 0 0-1.58-1.6 1.59 1.59 0 0 0-1.58 1.6zm5.12-2.06h.74v.77a2.07 2.07 0 0 1 1.61-.88v.77a1.29 1.29 0 0 0-.29 0 1.79 1.79 0 0 0-1.32.77v3.42h-.74zm5.6 2.36a2.39 2.39 0 1 1 2.38 2.54 2.37 2.37 0 0 1-2.38-2.54zm4 0a1.62 1.62 0 1 0-1.6 1.87 1.68 1.68 0 0 0 1.54-1.87zm5.25-.74c0-.85-.43-1.12-1.08-1.12a1.88 1.88 0 0 0-1.43.75v3.53h-.74V209h.74v.69a2.4 2.4 0 0 1 1.72-.82 1.37 1.37 0 0 1 1.54 1.56v3.39h-.75zm4.35-1.79a2.35 2.35 0 0 1 2.32 2.59v.19h-3.9a1.69 1.69 0 0 0 1.73 1.67 2.11 2.11 0 0 0 1.49-.61l.36.49a2.62 2.62 0 0 1-1.92.74 2.54 2.54 0 0 1-.08-5.07zm-1.58 2.23h3.16a1.56 1.56 0 0 0-1.59-1.6 1.59 1.59 0 0 0-1.57 1.6zm11.19 2a2 2 0 0 1-1.63.84c-1.26 0-2.14-1-2.14-2.53s.87-2.54 2.14-2.54a2 2 0 0 1 1.63.85v-2.56h.73v6.66h-.75zm0-2.78a1.81 1.81 0 0 0-1.45-.78c-1 0-1.55.8-1.55 1.87s.59 1.86 1.55 1.86a1.8 1.8 0 0 0 1.45-.76zm2.25-1.28h.75v.77a2.05 2.05 0 0 1 1.61-.88v.77a1.32 1.32 0 0 0-.3 0 1.77 1.77 0 0 0-1.31.77v3.42h-.75zm3.17-1.36a.51.51 0 1 1 .5.51.52.52 0 0 1-.5-.51zm.14 1.32h.74v4.82h-.74zm1.53.04h.81l1.6 3.95 1.6-3.95h.82l-2 4.82h-.82zm5.49-1.36a.49.49 0 0 1 .49-.5.5.5 0 0 1 .51.5.51.51 0 0 1-.51.51.5.5 0 0 1-.49-.51zM303 209h.75v4.82H303zm5.48 1.62c0-.85-.43-1.12-1.08-1.12a1.86 1.86 0 0 0-1.43.75v3.53h-.75V209h.78v.69a2.4 2.4 0 0 1 1.72-.82 1.37 1.37 0 0 1 1.54 1.56v3.39h-.75zm2.62 3.84a1.84 1.84 0 0 0 1.57.66 1.38 1.38 0 0 0 1.55-1.45V213a2 2 0 0 1-1.62.86 2.2 2.2 0 0 1-2.15-2.5c0-1.55.88-2.51 2.15-2.51a2 2 0 0 1 1.62.85v-.7h.78v4.68c0 1.6-1.12 2.1-2.3 2.1a2.47 2.47 0 0 1-1.95-.72zm3.12-4.18a1.78 1.78 0 0 0-1.44-.78c-1 0-1.55.77-1.55 1.84s.58 1.84 1.55 1.84a1.79 1.79 0 0 0 1.44-.79zm8.33 2.78a2 2 0 0 1-1.63.84c-1.26 0-2.15-1-2.15-2.53s.88-2.54 2.15-2.54a2 2 0 0 1 1.63.85v-2.56h.75v6.66h-.75zm0-2.78a1.81 1.81 0 0 0-1.45-.78c-1 0-1.55.8-1.55 1.87s.58 1.86 1.55 1.86a1.8 1.8 0 0 0 1.45-.76zm2.13-2.64a.49.49 0 0 1 .49-.5.5.5 0 0 1 .51.5.51.51 0 0 1-.51.51.5.5 0 0 1-.49-.51zm.12 1.32h.75v4.82h-.75zm2.2 3.64a2.19 2.19 0 0 0 1.59.69c.74 0 1.14-.33 1.14-.8s-.59-.7-1.24-.86c-.82-.19-1.74-.41-1.74-1.41 0-.75.64-1.39 1.79-1.39a2.44 2.44 0 0 1 1.79.7l-.35.52a1.88 1.88 0 0 0-1.44-.61c-.66 0-1.07.3-1.07.73s.55.62 1.18.77c.84.19 1.81.43 1.81 1.5 0 .81-.65 1.46-1.9 1.46a2.57 2.57 0 0 1-1.95-.76zm4.86.17v-3.16h-.81V209h.81v-1.32h.75V209h1v.65h-1v3c0 .36.15.62.48.62a.72.72 0 0 0 .51-.2l.22.56a1.23 1.23 0 0 1-.9.31c-.71-.04-1.06-.45-1.06-1.17zm2.78-3.77h.75v.77a2.05 2.05 0 0 1 1.61-.88v.77a1.32 1.32 0 0 0-.3 0 1.77 1.77 0 0 0-1.31.77v3.42h-.75zm6.36 4.23a2.09 2.09 0 0 1-1.6.67 1.61 1.61 0 0 1-1.69-1.6 1.58 1.58 0 0 1 1.69-1.59 2 2 0 0 1 1.6.66v-.87c0-.65-.52-1-1.22-1a1.92 1.92 0 0 0-1.48.67l-.35-.52a2.53 2.53 0 0 1 1.93-.8c1 0 1.87.46 1.87 1.63v3.32H341zm0-1.38a1.62 1.62 0 0 0-1.33-.6 1.06 1.06 0 1 0 0 2.11 1.62 1.62 0 0 0 1.33-.6zm4.34-3.02a2.07 2.07 0 0 1 1.77.84l-.5.46a1.43 1.43 0 0 0-1.23-.63 1.88 1.88 0 0 0 0 3.73 1.46 1.46 0 0 0 1.23-.63l.5.46a2.07 2.07 0 0 1-1.77.84 2.54 2.54 0 0 1 0-5.07zm2.97 3.94v-3.16h-.8V209h.8v-1.32h.75V209h1v.65h-1v3c0 .36.16.62.49.62a.72.72 0 0 0 .51-.2l.22.56a1.23 1.23 0 0 1-.9.31 1 1 0 0 1-1.07-1.17zm2.69-5.13a.51.51 0 0 1 1 0 .51.51 0 1 1-1 0zm.13 1.32h.75v4.82h-.75zm1.94 2.4a2.39 2.39 0 1 1 2.39 2.54 2.37 2.37 0 0 1-2.39-2.54zm4 0a1.62 1.62 0 1 0-1.6 1.87 1.68 1.68 0 0 0 1.59-1.87zm5.26-.74c0-.85-.43-1.12-1.08-1.12a1.86 1.86 0 0 0-1.43.75v3.53h-.75V209h.75v.69a2.4 2.4 0 0 1 1.72-.82 1.37 1.37 0 0 1 1.54 1.56v3.39h-.75zm5.04-1.01h-.8V209h.8v-.38a1.45 1.45 0 0 1 2.13-1.39l-.19.56a.83.83 0 0 0-.43-.11c-.49 0-.76.34-.76.94v.38h1v.65h-1v4.17h-.75zm2.34 1.75a2.39 2.39 0 1 1 2.39 2.54 2.37 2.37 0 0 1-2.39-2.54zm4 0a1.62 1.62 0 1 0-1.6 1.87 1.68 1.68 0 0 0 1.59-1.87zm2-2.36h.75v.77a2.05 2.05 0 0 1 1.61-.88v.77a1.32 1.32 0 0 0-.3 0 1.77 1.77 0 0 0-1.31.77v3.42h-.75zM236.8 222.5c0-.61-.27-1-.89-1a1.69 1.69 0 0 0-1.28.74v3.54h-.75v-3.28c0-.61-.26-1-.88-1a1.69 1.69 0 0 0-1.27.75v3.53H231V221h.75v.69a2.08 2.08 0 0 1 1.55-.82 1.24 1.24 0 0 1 1.3.9 2 2 0 0 1 1.62-.9c.88 0 1.35.49 1.35 1.46v3.49h-.75zm5.27 2.73a2.07 2.07 0 0 1-1.59.67 1.61 1.61 0 0 1-1.69-1.6 1.58 1.58 0 0 1 1.69-1.59 2 2 0 0 1 1.59.66v-.87c0-.65-.52-1-1.21-1a1.9 1.9 0 0 0-1.48.67l-.35-.52a2.52 2.52 0 0 1 1.92-.8c1 0 1.87.46 1.87 1.63v3.32h-.75zm0-1.38a1.61 1.61 0 0 0-1.32-.6 1.06 1.06 0 1 0 0 2.11 1.61 1.61 0 0 0 1.32-.6zm5.51-1.23c0-.85-.43-1.12-1.07-1.12a1.86 1.86 0 0 0-1.43.75v3.53h-.75V221h.75v.69a2.39 2.39 0 0 1 1.71-.82 1.37 1.37 0 0 1 1.54 1.56v3.39h-.75zm2.52 4.45a.69.69 0 0 0 .72-.51l.31-.73-2-4.87h.81l1.6 3.95 1.6-3.95h.86l-2.42 5.8a1.42 1.42 0 0 1-1.42 1 2.35 2.35 0 0 1-.54-.07l.12-.68a1.15 1.15 0 0 0 .36.06zm7.22.55V221h.75v.71a2 2 0 0 1 1.62-.84c1.27 0 2.15 1 2.15 2.53s-.88 2.54-2.15 2.54a2 2 0 0 1-1.62-.85v2.57zm2.19-6.12a1.79 1.79 0 0 0-1.44.77v2.18a1.79 1.79 0 0 0 1.44.78c1 0 1.54-.8 1.54-1.87s-.58-1.86-1.54-1.86zm5.65-.67a2.34 2.34 0 0 1 2.31 2.59v.19h-3.9a1.7 1.7 0 0 0 1.73 1.67 2.09 2.09 0 0 0 1.49-.61l.36.49a2.62 2.62 0 0 1-1.91.74 2.54 2.54 0 0 1-.08-5.07zm-1.59 2.23h3.16a1.56 1.56 0 0 0-1.58-1.6 1.6 1.6 0 0 0-1.58 1.6zm4.84.3a2.39 2.39 0 1 1 2.38 2.54 2.37 2.37 0 0 1-2.38-2.54zm4 0a1.62 1.62 0 1 0-1.6 1.87 1.68 1.68 0 0 0 1.58-1.87zm2 4.26V221h.75v.71a2 2 0 0 1 1.62-.84c1.27 0 2.15 1 2.15 2.53s-.88 2.54-2.15 2.54a2 2 0 0 1-1.62-.85v2.57zm2.19-6.12a1.79 1.79 0 0 0-1.44.77v2.18a1.79 1.79 0 0 0 1.44.78c1 0 1.54-.8 1.54-1.87s-.58-1.86-1.54-1.86zm3.55-2.38h.75v6.66h-.75zm4.35 1.71a2.34 2.34 0 0 1 2.31 2.59v.19h-3.9a1.7 1.7 0 0 0 1.73 1.67 2.11 2.11 0 0 0 1.49-.61l.36.49a2.62 2.62 0 0 1-1.91.74 2.54 2.54 0 0 1-.08-5.07zm-1.59 2.23h3.16a1.56 1.56 0 0 0-1.58-1.6 1.59 1.59 0 0 0-1.58 1.6zm5.45 1.72a.55.55 0 1 1-.55.55.55.55 0 0 1 .55-.55zM231 237.12h2.27a3.33 3.33 0 1 1 0 6.66H231zm2.27 5.92a2.59 2.59 0 0 0 0-5.18h-1.44V243zM238 239h.75v.77a2 2 0 0 1 1.61-.88v.77a1.35 1.35 0 0 0-.31 0 1.75 1.75 0 0 0-1.3.77v3.42H238zm3.15-1.36a.51.51 0 0 1 1 0 .51.51 0 1 1-1 0zm.13 1.32h.72v4.82h-.74zm1.53.04h.81l1.6 3.95 1.6-3.95h.82l-2 4.82h-.81zm7.71-.17a2.35 2.35 0 0 1 2.32 2.59v.19h-3.9a1.69 1.69 0 0 0 1.73 1.67 2.11 2.11 0 0 0 1.49-.61l.36.49a2.62 2.62 0 0 1-1.91.74 2.54 2.54 0 0 1-.09-5.07zm-1.58 2.23h3.16a1.56 1.56 0 0 0-1.58-1.6 1.59 1.59 0 0 0-1.58 1.6zm5.12-2.06h.74v.77a2.05 2.05 0 0 1 1.61-.88v.77a1.32 1.32 0 0 0-.3 0 1.77 1.77 0 0 0-1.31.77v3.42h-.74zm3.27 3.6a2.16 2.16 0 0 0 1.58.69c.74 0 1.14-.33 1.14-.8s-.59-.7-1.24-.86c-.81-.19-1.74-.41-1.74-1.41 0-.75.64-1.39 1.79-1.39a2.44 2.44 0 0 1 1.79.7l-.35.52a1.88 1.88 0 0 0-1.44-.61c-.66 0-1.07.3-1.07.73s.56.62 1.18.77c.84.19 1.81.43 1.81 1.5 0 .81-.65 1.46-1.9 1.46a2.56 2.56 0 0 1-1.94-.76zm10.51-1.98c0-.85-.43-1.12-1.07-1.12a1.85 1.85 0 0 0-1.43.75v3.53h-.75V239h.75v.69a2.39 2.39 0 0 1 1.71-.82 1.37 1.37 0 0 1 1.54 1.56v3.39h-.75zm4.35-1.79a2.35 2.35 0 0 1 2.32 2.59v.19h-3.9a1.69 1.69 0 0 0 1.73 1.67 2.11 2.11 0 0 0 1.49-.61l.36.49a2.62 2.62 0 0 1-1.92.74 2.54 2.54 0 0 1-.08-5.07zm-1.58 2.23h3.16a1.56 1.56 0 0 0-1.58-1.6 1.59 1.59 0 0 0-1.58 1.6zm7.21-2.23a2.35 2.35 0 0 1 2.32 2.59v.19h-3.9a1.69 1.69 0 0 0 1.73 1.67 2.11 2.11 0 0 0 1.49-.61l.36.49a2.62 2.62 0 0 1-1.92.74 2.54 2.54 0 0 1-.08-5.07zm-1.58 2.23h3.16a1.56 1.56 0 0 0-1.59-1.6 1.59 1.59 0 0 0-1.57 1.6zm8.61 2a2 2 0 0 1-1.63.84c-1.26 0-2.14-1-2.14-2.53s.87-2.54 2.14-2.54a2 2 0 0 1 1.63.85v-2.56h.75v6.66h-.75zm0-2.78a1.81 1.81 0 0 0-1.45-.78c-1 0-1.54.8-1.54 1.87s.58 1.86 1.54 1.86a1.8 1.8 0 0 0 1.45-.76zm4.99 2.49v-3.16H289V239h.81v-1.32h.75V239h1v.65h-1v3c0 .36.15.62.48.62a.72.72 0 0 0 .51-.2l.22.56a1.23 1.23 0 0 1-.9.31c-.68-.04-1.03-.45-1.03-1.17zm2.51-1.41a2.39 2.39 0 1 1 2.38 2.54 2.37 2.37 0 0 1-2.38-2.54zm4 0a1.62 1.62 0 1 0-1.6 1.87 1.68 1.68 0 0 0 1.58-1.87zm4.58-4.24h.74v2.56a2 2 0 0 1 1.63-.85 2.25 2.25 0 0 1 2.15 2.54c0 1.57-.89 2.53-2.15 2.53a2 2 0 0 1-1.63-.84v.72h-.74zm2.18 6.11c1 0 1.56-.79 1.56-1.86s-.58-1.87-1.56-1.87a1.79 1.79 0 0 0-1.44.78v2.19a1.78 1.78 0 0 0 1.44.76zm5.66-4.4a2.35 2.35 0 0 1 2.32 2.59v.19h-3.9a1.69 1.69 0 0 0 1.73 1.67 2.11 2.11 0 0 0 1.49-.61l.36.49a2.62 2.62 0 0 1-1.92.74 2.54 2.54 0 0 1-.08-5.07zm-1.58 2.23h3.16a1.56 1.56 0 0 0-1.59-1.6 1.59 1.59 0 0 0-1.57 1.6zm10.71 2.17a2.09 2.09 0 0 1-1.6.67 1.61 1.61 0 0 1-1.69-1.6 1.58 1.58 0 0 1 1.69-1.59 2 2 0 0 1 1.6.66v-.87c0-.65-.52-1-1.22-1a1.92 1.92 0 0 0-1.48.67l-.34-.52a2.49 2.49 0 0 1 1.92-.8c1 0 1.87.46 1.87 1.63v3.32h-.75zm0-1.38a1.62 1.62 0 0 0-1.33-.6 1.06 1.06 0 1 0 0 2.11 1.62 1.62 0 0 0 1.33-.6zm5.17-1.95l-1.26 3.88h-.75l-1.54-4.78h.78l1.18 3.84 1.27-3.84h.64l1.27 3.84 1.18-3.84h.78l-1.54 4.82h-.75zm7.44 3.33a2.09 2.09 0 0 1-1.6.67 1.61 1.61 0 0 1-1.69-1.6 1.58 1.58 0 0 1 1.69-1.59 2 2 0 0 1 1.6.66v-.87c0-.65-.52-1-1.22-1a1.92 1.92 0 0 0-1.48.67l-.35-.52a2.53 2.53 0 0 1 1.93-.8c1 0 1.87.46 1.87 1.63v3.32h-.75zm0-1.38a1.62 1.62 0 0 0-1.33-.6 1.06 1.06 0 1 0 0 2.11 1.62 1.62 0 0 0 1.33-.6zm2.25-2.85h.75v.77a2.05 2.05 0 0 1 1.61-.88v.77a1.32 1.32 0 0 0-.3 0 1.77 1.77 0 0 0-1.31.77v3.42h-.75zm5.4-.17a2.35 2.35 0 0 1 2.32 2.59v.19h-3.91a1.7 1.7 0 0 0 1.74 1.67 2.11 2.11 0 0 0 1.49-.61l.36.49a2.62 2.62 0 0 1-1.92.74 2.54 2.54 0 0 1-.08-5.07zm-1.59 2.23h3.17a1.56 1.56 0 0 0-1.59-1.6 1.6 1.6 0 0 0-1.58 1.6zm7.43.3a2.39 2.39 0 1 1 2.39 2.54 2.37 2.37 0 0 1-2.39-2.54zm4 0a1.62 1.62 0 1 0-1.6 1.87 1.68 1.68 0 0 0 1.6-1.87zm2.2-1.75h-.8V239h.8v-.38a1.45 1.45 0 0 1 2.13-1.39l-.19.56a.83.83 0 0 0-.43-.11c-.49 0-.76.34-.76.94v.38h1v.65h-1v4.17h-.75zm5.35 3.16v-3.16h-.8V239h.8v-1.32h.75V239h1v.65h-1v3c0 .36.16.62.49.62a.72.72 0 0 0 .51-.2l.22.56a1.23 1.23 0 0 1-.9.31 1 1 0 0 1-1.07-1.17zm6.06-2.17c0-.85-.44-1.1-1.09-1.1a1.9 1.9 0 0 0-1.43.75v3.53h-.75v-6.66h.75v2.53a2.4 2.4 0 0 1 1.73-.82 1.36 1.36 0 0 1 1.54 1.54v3.41h-.75zm4.39-1.77a2.35 2.35 0 0 1 2.32 2.59v.19h-3.91a1.7 1.7 0 0 0 1.74 1.67 2.11 2.11 0 0 0 1.49-.61l.36.49a2.62 2.62 0 0 1-1.92.74 2.54 2.54 0 0 1-.08-5.07zm-1.59 2.23h3.17a1.56 1.56 0 0 0-1.59-1.6 1.6 1.6 0 0 0-1.62 1.6zm-129.94 14a2 2 0 0 1-1.62.84c-1.26 0-2.15-1-2.15-2.53s.88-2.54 2.15-2.54a2 2 0 0 1 1.62.85v-2.56h.75v6.66h-.75zm0-2.78a1.81 1.81 0 0 0-1.45-.78c-1 0-1.54.8-1.54 1.87s.58 1.86 1.54 1.86a1.8 1.8 0 0 0 1.45-.76zm5.27 2.95a2.07 2.07 0 0 1-1.59.67 1.61 1.61 0 0 1-1.69-1.6 1.58 1.58 0 0 1 1.69-1.59 2 2 0 0 1 1.59.66v-.87c0-.65-.52-1-1.22-1a1.9 1.9 0 0 0-1.47.67l-.35-.52a2.52 2.52 0 0 1 1.92-.8c1 0 1.87.46 1.87 1.63v3.32h-.75zm0-1.38a1.61 1.61 0 0 0-1.32-.6 1.06 1.06 0 1 0 0 2.11 1.61 1.61 0 0 0 1.32-.6zm5.51-1.23c0-.85-.43-1.12-1.07-1.12a1.85 1.85 0 0 0-1.43.75v3.53H242V251h.75v.69a2.39 2.39 0 0 1 1.71-.82 1.37 1.37 0 0 1 1.54 1.56v3.39h-.75zm2.62 3.84a1.86 1.86 0 0 0 1.57.66 1.38 1.38 0 0 0 1.55-1.45V255a2 2 0 0 1-1.62.86c-1.26 0-2.14-.94-2.14-2.5s.88-2.51 2.14-2.51a2 2 0 0 1 1.62.85v-.7h.75v4.68c0 1.6-1.12 2.1-2.3 2.1a2.45 2.45 0 0 1-1.94-.72zm3.12-4.18a1.78 1.78 0 0 0-1.44-.78c-1 0-1.54.77-1.54 1.84s.58 1.84 1.54 1.84a1.79 1.79 0 0 0 1.44-.79zm4.36-1.45a2.34 2.34 0 0 1 2.31 2.59v.19h-3.9a1.69 1.69 0 0 0 1.73 1.67 2.11 2.11 0 0 0 1.49-.61l.36.49a2.62 2.62 0 0 1-1.91.74 2.54 2.54 0 0 1-.08-5.07zm-1.59 2.23h3.16a1.56 1.56 0 0 0-1.58-1.6 1.59 1.59 0 0 0-1.58 1.6zm5.12-2.06h.74v.77a2.07 2.07 0 0 1 1.61-.88v.77a1.29 1.29 0 0 0-.29 0 1.79 1.79 0 0 0-1.32.77v3.42h-.74zm3.27 3.6a2.16 2.16 0 0 0 1.58.69c.74 0 1.14-.33 1.14-.8s-.59-.7-1.24-.86c-.81-.19-1.74-.41-1.74-1.41 0-.75.64-1.39 1.8-1.39a2.44 2.44 0 0 1 1.78.7l-.35.52a1.87 1.87 0 0 0-1.43-.61c-.67 0-1.08.3-1.08.73s.56.62 1.18.77c.84.19 1.81.43 1.81 1.5 0 .81-.65 1.46-1.9 1.46a2.56 2.56 0 0 1-1.94-.76zm10.27.63a2.08 2.08 0 0 1-1.59.67 1.61 1.61 0 0 1-1.69-1.6 1.58 1.58 0 0 1 1.69-1.59 2 2 0 0 1 1.59.66v-.87c0-.65-.52-1-1.22-1a1.9 1.9 0 0 0-1.47.67l-.35-.52a2.52 2.52 0 0 1 1.92-.8c1 0 1.87.46 1.87 1.63v3.32h-.75zm0-1.38a1.61 1.61 0 0 0-1.32-.6 1.06 1.06 0 1 0 0 2.11 1.61 1.61 0 0 0 1.32-.6zm5.51-1.23c0-.85-.43-1.12-1.07-1.12a1.85 1.85 0 0 0-1.43.75v3.53h-.75V251h.75v.69a2.39 2.39 0 0 1 1.71-.82 1.37 1.37 0 0 1 1.54 1.56v3.39h-.75zm5.75 2.44a2 2 0 0 1-1.63.84c-1.26 0-2.14-1-2.14-2.53s.87-2.54 2.14-2.54a2 2 0 0 1 1.63.85v-2.56h.75v6.66h-.75zm0-2.78a1.81 1.81 0 0 0-1.45-.78c-1 0-1.54.8-1.54 1.87s.58 1.86 1.54 1.86a1.8 1.8 0 0 0 1.45-.76zm6.38 1.33l-.79.79v1.38h-.75v-6.66h.75v4.4l2.53-2.52h.95l-2.14 2.18 2.15 2.64h-1zm5.46-2.78a2.35 2.35 0 0 1 2.32 2.59v.19h-3.9a1.69 1.69 0 0 0 1.73 1.67 2.11 2.11 0 0 0 1.49-.61l.36.49a2.62 2.62 0 0 1-1.91.74 2.54 2.54 0 0 1-.09-5.07zm-1.58 2.23h3.16a1.56 1.56 0 0 0-1.58-1.6 1.59 1.59 0 0 0-1.58 1.6zm7.21-2.23a2.35 2.35 0 0 1 2.32 2.59v.19h-3.9a1.69 1.69 0 0 0 1.73 1.67 2.11 2.11 0 0 0 1.49-.61l.36.49a2.62 2.62 0 0 1-1.92.74 2.54 2.54 0 0 1-.08-5.07zm-1.58 2.23h3.16a1.56 1.56 0 0 0-1.59-1.6 1.59 1.59 0 0 0-1.57 1.6zm5.12 4.56V251h.75v.71a2 2 0 0 1 1.62-.84c1.27 0 2.15 1 2.15 2.53s-.88 2.54-2.15 2.54a2 2 0 0 1-1.62-.85v2.57zm2.18-6.12a1.75 1.75 0 0 0-1.43.77v2.18a1.76 1.76 0 0 0 1.43.78c1 0 1.55-.8 1.55-1.87s-.58-1.86-1.55-1.86zm6.29 3.27v-3.16h-.8V251h.8v-1.32h.75V251h1v.65h-1v3c0 .36.15.62.48.62a.71.71 0 0 0 .51-.2l.22.56a1.21 1.21 0 0 1-.9.31 1 1 0 0 1-1.06-1.17zm6.05-2.17c0-.85-.44-1.1-1.09-1.1a1.9 1.9 0 0 0-1.43.75v3.53h-.75v-6.66h.75v2.53a2.4 2.4 0 0 1 1.73-.82 1.36 1.36 0 0 1 1.54 1.54v3.41h-.75zm4.35-1.77a2.35 2.35 0 0 1 2.32 2.59v.19H322a1.7 1.7 0 0 0 1.74 1.67 2.11 2.11 0 0 0 1.49-.61l.36.49a2.62 2.62 0 0 1-1.92.74 2.54 2.54 0 0 1-.08-5.07zm-1.56 2.23h3.17a1.56 1.56 0 0 0-1.59-1.6 1.6 1.6 0 0 0-1.58 1.6zm5-3.42a.51.51 0 0 1 1 0 .51.51 0 1 1-1 0zm.14 1.32h.74v4.82h-.74zm2.21.04h.74v.77a2.05 2.05 0 0 1 1.61-.88v.77a1.32 1.32 0 0 0-.3 0 1.77 1.77 0 0 0-1.31.77v3.42h-.74zm8.89 4.23a2.09 2.09 0 0 1-1.6.67 1.61 1.61 0 0 1-1.69-1.6 1.58 1.58 0 0 1 1.69-1.59 2 2 0 0 1 1.6.66v-.87c0-.65-.52-1-1.22-1a1.92 1.92 0 0 0-1.48.67l-.35-.52a2.53 2.53 0 0 1 1.93-.8c1 0 1.87.46 1.87 1.63v3.32h-.75zm0-1.38a1.62 1.62 0 0 0-1.33-.6 1.06 1.06 0 1 0 0 2.11 1.62 1.62 0 0 0 1.33-.6zm2.4.92v-3.16h-.8V251h.8v-1.32h.75V251h1v.65h-1v3c0 .36.16.62.49.62a.72.72 0 0 0 .51-.2l.22.56a1.23 1.23 0 0 1-.9.31 1 1 0 0 1-1.07-1.17zm2.94 0v-3.16h-.8V251h.8v-1.32h.75V251h1v.65h-1v3c0 .36.16.62.49.62a.72.72 0 0 0 .51-.2l.22.56a1.23 1.23 0 0 1-.9.31 1 1 0 0 1-1.07-1.17zm4.89-3.94a2.35 2.35 0 0 1 2.32 2.59v.19h-3.91a1.7 1.7 0 0 0 1.74 1.67 2.11 2.11 0 0 0 1.49-.61l.36.49a2.62 2.62 0 0 1-1.92.74 2.54 2.54 0 0 1-.08-5.07zm-1.59 2.23h3.17a1.56 1.56 0 0 0-1.59-1.6 1.6 1.6 0 0 0-1.58 1.6zm8.38-.44c0-.85-.43-1.12-1.08-1.12a1.86 1.86 0 0 0-1.43.75v3.53H352V251h.75v.69a2.4 2.4 0 0 1 1.72-.82 1.37 1.37 0 0 1 1.54 1.56v3.39h-.75zm2.4 2.15v-3.16h-.8V251h.8v-1.32h.75V251h1v.65h-1v3c0 .36.16.62.49.62a.72.72 0 0 0 .51-.2l.22.56a1.23 1.23 0 0 1-.9.31 1 1 0 0 1-1.07-1.17zm2.66-5.13a.51.51 0 0 1 1 0 .51.51 0 1 1-1 0zm.13 1.32h.75v4.82h-.75zm1.97 2.4a2.39 2.39 0 1 1 2.39 2.54 2.37 2.37 0 0 1-2.39-2.54zm4 0a1.62 1.62 0 1 0-1.6 1.87 1.68 1.68 0 0 0 1.59-1.87zm5.26-.74c0-.85-.43-1.12-1.08-1.12a1.86 1.86 0 0 0-1.43.75v3.53h-.75V251h.75v.69a2.4 2.4 0 0 1 1.72-.82 1.37 1.37 0 0 1 1.54 1.56v3.39h-.75zm4.55.74a2.39 2.39 0 1 1 2.39 2.54 2.37 2.37 0 0 1-2.39-2.54zm4 0a1.62 1.62 0 1 0-1.6 1.87 1.68 1.68 0 0 0 1.59-1.87zm5.26-.74c0-.85-.43-1.12-1.08-1.12a1.86 1.86 0 0 0-1.43.75v3.53h-.75V251h.77v.69a2.4 2.4 0 0 1 1.72-.82 1.37 1.37 0 0 1 1.54 1.56v3.39h-.75zm-154.36 14.15v-3.16h-.8V263h.8v-1.32h.75V263h1v.65h-1v3c0 .36.15.62.48.62a.71.71 0 0 0 .51-.2l.23.56a1.25 1.25 0 0 1-.91.31 1 1 0 0 1-1.06-1.17zm6.05-2.17c0-.85-.44-1.1-1.08-1.1a1.88 1.88 0 0 0-1.43.75v3.53h-.75v-6.66h.75v2.53a2.4 2.4 0 0 1 1.72-.82 1.36 1.36 0 0 1 1.54 1.54v3.41h-.75zm4.35-1.77a2.35 2.35 0 0 1 2.32 2.59v.19h-3.91a1.71 1.71 0 0 0 1.74 1.67 2.11 2.11 0 0 0 1.49-.61l.36.49a2.62 2.62 0 0 1-1.92.74 2.54 2.54 0 0 1-.08-5.07zm-1.59 2.23h3.17a1.56 1.56 0 0 0-1.59-1.6 1.6 1.6 0 0 0-1.58 1.6zm7.71-2.06h.74v.77a2.05 2.05 0 0 1 1.61-.88v.77a1.32 1.32 0 0 0-.3 0 1.77 1.77 0 0 0-1.31.77v3.42h-.74zm3.02 2.36a2.39 2.39 0 1 1 2.38 2.54 2.37 2.37 0 0 1-2.38-2.54zm4 0a1.62 1.62 0 1 0-1.6 1.87 1.68 1.68 0 0 0 1.58-1.87zm5.01 1.87a2.09 2.09 0 0 1-1.6.67 1.61 1.61 0 0 1-1.69-1.6 1.59 1.59 0 0 1 1.69-1.59 2 2 0 0 1 1.6.66v-.87c0-.65-.52-1-1.22-1a1.92 1.92 0 0 0-1.48.67l-.35-.52a2.53 2.53 0 0 1 1.93-.8c1 0 1.87.46 1.87 1.63v3.32h-.75zm0-1.38a1.62 1.62 0 0 0-1.33-.6 1.06 1.06 0 1 0 0 2.11 1.62 1.62 0 0 0 1.33-.6zm5.75 1.21a2 2 0 0 1-1.63.84c-1.26 0-2.15-1-2.15-2.53s.88-2.54 2.15-2.54a2 2 0 0 1 1.63.85v-2.56h.75v6.66h-.75zm0-2.78a1.81 1.81 0 0 0-1.45-.78c-1 0-1.55.8-1.55 1.87s.58 1.86 1.55 1.86a1.8 1.8 0 0 0 1.45-.76zm2.07 4.46a1.49 1.49 0 0 0 .65-.93h-.14a.48.48 0 0 1-.48-.51.54.54 0 0 1 .53-.54.68.68 0 0 1 .63.76 1.93 1.93 0 0 1-.82 1.51zm8.32-4.12c0-.85-.43-1.12-1.08-1.12a1.86 1.86 0 0 0-1.43.75v3.53h-.75V263h.75v.69a2.4 2.4 0 0 1 1.72-.82 1.37 1.37 0 0 1 1.54 1.56v3.39h-.75zm1.97.74a2.39 2.39 0 1 1 2.39 2.54 2.37 2.37 0 0 1-2.39-2.54zm4 0a1.62 1.62 0 1 0-1.6 1.87 1.68 1.68 0 0 0 1.59-1.87zm2.15 1.41v-3.16h-.8V263h.8v-1.32h.75V263h1v.65h-1v3c0 .36.16.62.49.62a.72.72 0 0 0 .51-.2l.22.56a1.23 1.23 0 0 1-.9.31 1 1 0 0 1-1.07-1.17zm5.06-1.41a2.39 2.39 0 1 1 2.39 2.54 2.37 2.37 0 0 1-2.39-2.54zm4 0a1.62 1.62 0 1 0-1.6 1.87 1.68 1.68 0 0 0 1.6-1.87zm5.29-.74c0-.85-.43-1.12-1.08-1.12a1.86 1.86 0 0 0-1.43.75v3.53H295V263h.75v.69a2.4 2.4 0 0 1 1.72-.82 1.37 1.37 0 0 1 1.54 1.56v3.39h-.75zm4.98 2.15v-3.16h-.8V263h.8v-1.32h.73V263h1v.65h-1v3c0 .36.16.62.49.62a.72.72 0 0 0 .51-.2l.22.56a1.23 1.23 0 0 1-.9.31 1 1 0 0 1-1.05-1.17zm6.06-2.17c0-.85-.44-1.1-1.09-1.1a1.9 1.9 0 0 0-1.43.75v3.53h-.75v-6.66h.75v2.53a2.4 2.4 0 0 1 1.73-.82 1.36 1.36 0 0 1 1.54 1.54v3.41h-.75zm4.35-1.77a2.35 2.35 0 0 1 2.32 2.59v.19h-3.91a1.7 1.7 0 0 0 1.74 1.67 2.11 2.11 0 0 0 1.49-.61l.36.49a2.62 2.62 0 0 1-1.92.74 2.54 2.54 0 0 1-.08-5.07zm-1.59 2.23h3.17a1.56 1.56 0 0 0-1.59-1.6 1.6 1.6 0 0 0-1.58 1.6zm4.99-3.42a.51.51 0 0 1 1 0 .51.51 0 1 1-1 0zm.13 1.32h.79v4.82h-.75zm2.25.04h.75v.77a2.05 2.05 0 0 1 1.61-.88v.77a1.32 1.32 0 0 0-.3 0 1.77 1.77 0 0 0-1.31.77v3.42h-.75zm8.01-.17a2.07 2.07 0 0 1 1.77.84l-.5.46a1.43 1.43 0 0 0-1.23-.63 1.88 1.88 0 0 0 0 3.73 1.46 1.46 0 0 0 1.23-.63l.5.46a2.07 2.07 0 0 1-1.77.84 2.54 2.54 0 0 1 0-5.07zm4.92 0a2.35 2.35 0 0 1 2.32 2.59v.19h-3.91a1.7 1.7 0 0 0 1.74 1.67 2.11 2.11 0 0 0 1.49-.61l.36.49a2.62 2.62 0 0 1-1.92.74 2.54 2.54 0 0 1-.08-5.07zm-1.59 2.23h3.2a1.56 1.56 0 0 0-1.59-1.6 1.6 1.6 0 0 0-1.61 1.6zm5.12-3.94h.75v6.66h-.75zm2.25 0h.75v6.66h-.75zm4.83 8.5V263h.75v.71a2 2 0 0 1 1.63-.84c1.27 0 2.15 1 2.15 2.53s-.88 2.54-2.15 2.54a2 2 0 0 1-1.63-.85v2.57zm2.19-6.12a1.79 1.79 0 0 0-1.44.77v2.18a1.79 1.79 0 0 0 1.44.78c1 0 1.55-.8 1.55-1.87s-.58-1.86-1.55-1.86zm6.81 1.1c0-.85-.44-1.1-1.09-1.1a1.9 1.9 0 0 0-1.43.75v3.53h-.75v-6.66h.75v2.53a2.4 2.4 0 0 1 1.73-.82 1.36 1.36 0 0 1 1.54 1.54v3.41H352zm2 .76a2.39 2.39 0 1 1 2.39 2.54 2.37 2.37 0 0 1-2.39-2.54zm4 0a1.62 1.62 0 1 0-1.6 1.87 1.68 1.68 0 0 0 1.6-1.87zm5.24-.74c0-.85-.43-1.12-1.08-1.12a1.86 1.86 0 0 0-1.43.75v3.53H360V263h.75v.69a2.4 2.4 0 0 1 1.72-.82 1.37 1.37 0 0 1 1.54 1.56v3.39h-.75zm4.35-1.79a2.35 2.35 0 0 1 2.32 2.59v.19H366a1.7 1.7 0 0 0 1.74 1.67 2.11 2.11 0 0 0 1.49-.61l.36.49a2.62 2.62 0 0 1-1.92.74 2.54 2.54 0 0 1-.08-5.07zm-1.59 2.23h3.17a1.56 1.56 0 0 0-1.59-1.6 1.6 1.6 0 0 0-1.58 1.6zm5.09 1.54a2.19 2.19 0 0 0 1.59.69c.74 0 1.14-.33 1.14-.8s-.59-.7-1.24-.86c-.82-.19-1.75-.41-1.75-1.41 0-.75.65-1.39 1.8-1.39a2.44 2.44 0 0 1 1.79.7l-.35.52a1.88 1.88 0 0 0-1.44-.61c-.66 0-1.07.3-1.07.73s.55.62 1.18.77c.84.19 1.81.43 1.81 1.5 0 .81-.65 1.46-1.9 1.46a2.57 2.57 0 0 1-1.95-.76zm6.98-1.24a2.39 2.39 0 1 1 2.39 2.54 2.37 2.37 0 0 1-2.39-2.54zm4 0a1.62 1.62 0 1 0-1.6 1.87 1.68 1.68 0 0 0 1.59-1.87zm2-2.36h.75v.77a2.05 2.05 0 0 1 1.61-.88v.77a1.32 1.32 0 0 0-.3 0 1.77 1.77 0 0 0-1.31.77v3.42h-.75zM230.7 277.36a2.39 2.39 0 1 1 2.39 2.54 2.37 2.37 0 0 1-2.39-2.54zm4 0a1.62 1.62 0 1 0-1.6 1.87 1.68 1.68 0 0 0 1.59-1.87zm2.15 1.41v-3.16h-.8V275h.8v-1.32h.75V275h1v.65h-1v3c0 .36.16.62.49.62a.74.74 0 0 0 .51-.2l.21.56a1.2 1.2 0 0 1-.89.31 1 1 0 0 1-1.07-1.17zm6.05-2.17c0-.85-.44-1.1-1.09-1.1a1.92 1.92 0 0 0-1.43.75v3.53h-.74v-6.66h.74v2.53a2.4 2.4 0 0 1 1.73-.82 1.36 1.36 0 0 1 1.54 1.54v3.41h-.75zm4.35-1.77a2.35 2.35 0 0 1 2.32 2.59v.19h-3.9a1.69 1.69 0 0 0 1.73 1.67 2.11 2.11 0 0 0 1.49-.61l.36.49a2.62 2.62 0 0 1-1.92.74 2.54 2.54 0 0 1-.08-5.07zm-1.58 2.23h3.16a1.56 1.56 0 0 0-1.59-1.6 1.59 1.59 0 0 0-1.57 1.6zm5.11-2.06h.75v.77a2.05 2.05 0 0 1 1.61-.88v.77a1.32 1.32 0 0 0-.3 0 1.77 1.77 0 0 0-1.31.77v3.42h-.75zm11.71 1.5c0-.61-.27-1-.89-1a1.69 1.69 0 0 0-1.28.74v3.54h-.75v-3.28c0-.61-.26-1-.89-1a1.69 1.69 0 0 0-1.27.75v3.53h-.74V275h.74v.69a2.09 2.09 0 0 1 1.56-.82 1.24 1.24 0 0 1 1.3.9 2 2 0 0 1 1.62-.9c.88 0 1.35.49 1.35 1.46v3.49h-.75zm1.97.86a2.39 2.39 0 1 1 2.39 2.54 2.37 2.37 0 0 1-2.39-2.54zm4 0a1.62 1.62 0 1 0-1.6 1.87 1.68 1.68 0 0 0 1.59-1.87zm2-4.24h.75v2.56a2 2 0 0 1 1.63-.85 2.25 2.25 0 0 1 2.15 2.54c0 1.57-.89 2.53-2.15 2.53a2 2 0 0 1-1.63-.84v.72h-.75zm2.19 6.11c1 0 1.56-.79 1.56-1.86s-.58-1.87-1.56-1.87a1.79 1.79 0 0 0-1.44.78v2.19a1.78 1.78 0 0 0 1.44.76zm3.44-5.59a.49.49 0 0 1 .49-.5.5.5 0 0 1 .51.5.51.51 0 0 1-.51.51.5.5 0 0 1-.49-.51zm.12 1.32h.79v4.82h-.75zm2.25-1.84h.75v6.66h-.75zm4.35 1.71a2.35 2.35 0 0 1 2.32 2.59v.19h-3.91a1.7 1.7 0 0 0 1.74 1.67 2.11 2.11 0 0 0 1.49-.61l.36.49a2.62 2.62 0 0 1-1.92.74 2.54 2.54 0 0 1-.08-5.07zm-1.59 2.23h3.17a1.56 1.56 0 0 0-1.59-1.6 1.6 1.6 0 0 0-1.58 1.6zm11.2 2a2 2 0 0 1-1.63.84c-1.26 0-2.15-1-2.15-2.53s.88-2.54 2.15-2.54a2 2 0 0 1 1.63.85v-2.56h.75v6.66h-.75zm0-2.78a1.81 1.81 0 0 0-1.45-.78c-1 0-1.55.8-1.55 1.87s.58 1.86 1.55 1.86a1.8 1.8 0 0 0 1.45-.76zm4.35-1.45a2.35 2.35 0 0 1 2.32 2.59v.19h-3.9a1.69 1.69 0 0 0 1.73 1.67 2.11 2.11 0 0 0 1.49-.61l.36.49a2.62 2.62 0 0 1-1.92.74 2.54 2.54 0 0 1-.08-5.07zm-1.58 2.23h3.16a1.56 1.56 0 0 0-1.59-1.6 1.59 1.59 0 0 0-1.57 1.6zm4.4-2.06h.8l1.61 4 1.6-4h.82l-2 4.82h-.82zm5.49-1.36a.5.5 0 1 1 1 0 .5.5 0 1 1-1 0zm.12 1.32h.8v4.82h-.75zm4.38-.13a2.07 2.07 0 0 1 1.77.84l-.5.46a1.43 1.43 0 0 0-1.23-.63 1.88 1.88 0 0 0 0 3.73 1.46 1.46 0 0 0 1.23-.63l.5.46a2.07 2.07 0 0 1-1.77.84 2.54 2.54 0 0 1 0-5.07zm4.92 0a2.35 2.35 0 0 1 2.32 2.59v.19h-3.9a1.69 1.69 0 0 0 1.73 1.67 2.11 2.11 0 0 0 1.49-.61l.36.49a2.62 2.62 0 0 1-1.92.74 2.54 2.54 0 0 1-.08-5.07zm-1.58 2.23h3.16a1.56 1.56 0 0 0-1.59-1.6 1.59 1.59 0 0 0-1.57 1.6zm5.08 1.54a2.16 2.16 0 0 0 1.58.69c.74 0 1.14-.33 1.14-.8s-.59-.7-1.24-.86c-.81-.19-1.74-.41-1.74-1.41 0-.75.64-1.39 1.79-1.39a2.44 2.44 0 0 1 1.79.7l-.35.52a1.88 1.88 0 0 0-1.44-.61c-.66 0-1.07.3-1.07.73s.55.62 1.18.77c.84.19 1.81.43 1.81 1.5 0 .81-.65 1.46-1.9 1.46a2.58 2.58 0 0 1-1.95-.76zm5.09.18a.55.55 0 1 1-.56.55.55.55 0 0 1 .56-.55zm8.13-4.37l-1.47 5.37h-.89l-1.86-6.66h.92l1.49 5.55 1.52-5.55h.69l1.53 5.55 1.47-5.55h.92l-1.9 6.66h-.9zm6.87.42a2.35 2.35 0 0 1 2.32 2.59v.19h-3.9a1.69 1.69 0 0 0 1.73 1.67 2.11 2.11 0 0 0 1.49-.61l.36.49a2.62 2.62 0 0 1-1.92.74 2.54 2.54 0 0 1-.08-5.07zm-1.58 2.23h3.16a1.56 1.56 0 0 0-1.59-1.6 1.59 1.59 0 0 0-1.57 1.6zm10.96-.46c0-.85-.44-1.1-1.09-1.1a1.9 1.9 0 0 0-1.43.75v3.53h-.75v-6.66h.8v2.53a2.4 2.4 0 0 1 1.73-.82 1.36 1.36 0 0 1 1.54 1.54v3.41h-.75zm5.27 2.63a2.09 2.09 0 0 1-1.6.67 1.61 1.61 0 0 1-1.69-1.6 1.58 1.58 0 0 1 1.69-1.59 2 2 0 0 1 1.6.66v-.87c0-.65-.52-1-1.22-1a1.92 1.92 0 0 0-1.48.67l-.35-.52a2.53 2.53 0 0 1 1.93-.8c1 0 1.87.46 1.87 1.63v3.32h-.75zm0-1.38a1.62 1.62 0 0 0-1.33-.6 1.06 1.06 0 1 0 0 2.11 1.62 1.62 0 0 0 1.33-.6zm1.53-2.85h.81l1.61 4 1.6-4h.82l-2 4.82h-.82zm7.73-.17a2.35 2.35 0 0 1 2.32 2.59v.19h-3.92a1.7 1.7 0 0 0 1.74 1.67 2.11 2.11 0 0 0 1.49-.61l.36.49a2.62 2.62 0 0 1-1.92.74 2.54 2.54 0 0 1-.08-5.07zm-1.59 2.23h3.17a1.56 1.56 0 0 0-1.59-1.6 1.6 1.6 0 0 0-1.59 1.6zm56.1-76a2.07 2.07 0 0 1-1.64.84c-1.25 0-2.14-1-2.14-2.53s.88-2.54 2.14-2.54a2.05 2.05 0 0 1 1.64.85v-2.56h.74v6.66h-.74zm0-2.78a1.83 1.83 0 0 0-1.45-.78c-1 0-1.55.8-1.55 1.87s.58 1.86 1.55 1.86a1.81 1.81 0 0 0 1.45-.76zm4.35-1.45a2.34 2.34 0 0 1 2.31 2.59v.19h-3.9a1.7 1.7 0 0 0 1.74 1.67 2.11 2.11 0 0 0 1.48-.61l.37.49a2.66 2.66 0 0 1-1.92.74 2.54 2.54 0 0 1-.08-5.07zm-1.59 2.23h3.17a1.56 1.56 0 0 0-1.59-1.6 1.6 1.6 0 0 0-1.58 1.6zm4.4-2.06h.81l1.61 3.95 1.6-3.95h.81l-2 4.82h-.82zm7.72-.17a2.34 2.34 0 0 1 2.31 2.59v.19h-3.9a1.7 1.7 0 0 0 1.73 1.67 2.09 2.09 0 0 0 1.49-.61l.36.49a2.6 2.6 0 0 1-1.91.74 2.54 2.54 0 0 1-.08-5.07zm-1.59 2.23h3.2a1.56 1.56 0 0 0-1.58-1.6 1.6 1.6 0 0 0-1.62 1.6zm5.12-3.94h.75v6.66h-.75zm1.97 4.24a2.39 2.39 0 1 1 2.38 2.54 2.37 2.37 0 0 1-2.38-2.54zm4 0a1.62 1.62 0 1 0-1.6 1.87 1.68 1.68 0 0 0 1.58-1.87zm2 4.26V197h.75v.71a2 2 0 0 1 1.63-.84c1.26 0 2.14 1 2.14 2.53s-.88 2.54-2.14 2.54a2 2 0 0 1-1.63-.85v2.57zm2.19-6.12a1.79 1.79 0 0 0-1.44.77v2.18a1.79 1.79 0 0 0 1.44.78c1 0 1.54-.8 1.54-1.87s-.62-1.86-1.54-1.86zm5.65-.67a2.34 2.34 0 0 1 2.31 2.59v.19h-3.9a1.7 1.7 0 0 0 1.73 1.67 2.09 2.09 0 0 0 1.49-.61l.36.49a2.6 2.6 0 0 1-1.91.74 2.54 2.54 0 0 1-.08-5.07zm-1.59 2.23h3.16a1.56 1.56 0 0 0-1.58-1.6 1.6 1.6 0 0 0-1.58 1.6zm8.62 2a2.07 2.07 0 0 1-1.64.84c-1.25 0-2.14-1-2.14-2.53s.88-2.54 2.14-2.54a2.05 2.05 0 0 1 1.64.85v-2.56h.74v6.66h-.74zm0-2.78a1.83 1.83 0 0 0-1.45-.78c-1 0-1.55.8-1.55 1.87s.58 1.86 1.55 1.86a1.81 1.81 0 0 0 1.45-.76zm4.98 2.49v-3.16h-.8V197h.8v-1.32h.75V197h1v.65h-1v3c0 .36.16.62.49.62a.72.72 0 0 0 .51-.2l.21.56a1.18 1.18 0 0 1-.89.31 1 1 0 0 1-1.07-1.17zm6.05-2.17c0-.85-.43-1.1-1.09-1.1a1.92 1.92 0 0 0-1.43.75v3.53h-.74v-6.66h.74v2.53a2.4 2.4 0 0 1 1.74-.82 1.36 1.36 0 0 1 1.53 1.54v3.41h-.75zm4.35-1.77a2.35 2.35 0 0 1 2.32 2.59v.19h-3.9a1.69 1.69 0 0 0 1.73 1.67 2.11 2.11 0 0 0 1.49-.61l.36.49a2.62 2.62 0 0 1-1.92.74 2.39 2.39 0 0 1-2.45-2.54 2.41 2.41 0 0 1 2.37-2.53zm-1.58 2.23h3.16a1.56 1.56 0 0 0-1.59-1.6 1.6 1.6 0 0 0-1.57 1.6zm11.19 2a2 2 0 0 1-1.63.84c-1.26 0-2.14-1-2.14-2.53s.88-2.54 2.14-2.54a2 2 0 0 1 1.63.85v-2.56h.75v6.66h-.75zm0-2.78a1.81 1.81 0 0 0-1.45-.78c-1 0-1.54.8-1.54 1.87s.58 1.86 1.54 1.86a1.8 1.8 0 0 0 1.45-.76zm1.98 1.08a2.39 2.39 0 1 1 2.38 2.54 2.37 2.37 0 0 1-2.38-2.54zm4 0a1.62 1.62 0 1 0-1.6 1.87 1.68 1.68 0 0 0 1.58-1.87zm5.27-.74c0-.85-.43-1.12-1.08-1.12a1.88 1.88 0 0 0-1.43.75v3.53h-.74V197h.74v.69a2.4 2.4 0 0 1 1.72-.82 1.37 1.37 0 0 1 1.54 1.56v3.39H494zm2-1.62a1.49 1.49 0 0 0 .65-.93.32.32 0 0 1-.14 0 .48.48 0 0 1-.49-.51.54.54 0 0 1 .53-.54.68.68 0 0 1 .64.76 1.93 1.93 0 0 1-.83 1.51zm2.62 3.77v-3.16h-.79V197h.79v-1.32h.75V197h1v.65h-1v3c0 .36.16.62.49.62a.72.72 0 0 0 .51-.2l.22.56a1.23 1.23 0 0 1-.9.31 1 1 0 0 1-1.07-1.17zm5.52 0v-3.16h-.79V197h.79v-1.32h.75V197h1v.65h-1v3c0 .36.16.62.49.62a.72.72 0 0 0 .51-.2l.22.56a1.23 1.23 0 0 1-.9.31 1 1 0 0 1-1.07-1.17zm4.47-.97l-1.45 2h-.86l1.85-2.48-1.75-2.32h.87l1.34 1.83L510 197h.87l-1.75 2.34 1.86 2.48h-.87zm3.33.97v-3.16h-.8V197h.8v-1.32h.75V197h1v.65h-1v3c0 .36.16.62.49.62a.72.72 0 0 0 .51-.2l.22.56a1.23 1.23 0 0 1-.9.31 1 1 0 0 1-1.07-1.17zm7.4.03h-.57v-2.13h-1.91v-.52h1.91v-2.07h.57v2.07h1.92v.52h-1.92zm9.04.26a2 2 0 0 1-1.63.84c-1.26 0-2.14-1-2.14-2.53s.87-2.54 2.14-2.54a2 2 0 0 1 1.63.85v-2.56h.75v6.66h-.75zm0-2.78a1.81 1.81 0 0 0-1.45-.78c-1 0-1.55.8-1.55 1.87s.58 1.86 1.55 1.86a1.8 1.8 0 0 0 1.45-.76zm2.25-1.28h.75v.77a2.05 2.05 0 0 1 1.61-.88v.77a1.32 1.32 0 0 0-.3 0 1.77 1.77 0 0 0-1.31.77v3.42h-.75zm2.58 0h.79l1.61 3.95 1.6-3.95h.82l-2 4.82h-.82zm10.33-.17a2.07 2.07 0 0 1 1.77.84l-.5.46a1.43 1.43 0 0 0-1.23-.63 1.88 1.88 0 0 0 0 3.73 1.46 1.46 0 0 0 1.23-.63l.5.46a2.07 2.07 0 0 1-1.77.84 2.54 2.54 0 0 1 0-5.07zm5.84 4.4a2.09 2.09 0 0 1-1.6.67 1.6 1.6 0 0 1-1.68-1.6 1.57 1.57 0 0 1 1.68-1.59 2 2 0 0 1 1.6.66v-.87c0-.65-.52-1-1.22-1a1.88 1.88 0 0 0-1.47.67l-.35-.52a2.51 2.51 0 0 1 1.92-.8c1 0 1.87.46 1.87 1.63v3.32h-.75zm0-1.38a1.62 1.62 0 0 0-1.33-.6 1.06 1.06 0 1 0 0 2.11 1.62 1.62 0 0 0 1.33-.6zm8.08-1.35c0-.61-.27-1-.89-1a1.69 1.69 0 0 0-1.28.74v3.54h-.75v-3.28c0-.61-.26-1-.89-1a1.69 1.69 0 0 0-1.27.75v3.53h-.75V197h.75v.69a2.09 2.09 0 0 1 1.56-.82 1.24 1.24 0 0 1 1.3.9 2 2 0 0 1 1.62-.9c.88 0 1.35.49 1.35 1.46v3.49h-.75zm2.25 5.12V197h.75v.71a2 2 0 0 1 1.63-.84c1.27 0 2.15 1 2.15 2.53s-.88 2.54-2.15 2.54a2 2 0 0 1-1.63-.85v2.57zm2.19-6.12a1.79 1.79 0 0 0-1.44.77v2.18a1.79 1.79 0 0 0 1.44.78c1 0 1.55-.8 1.55-1.87s-.58-1.86-1.55-1.86zm6.57 3.73a2.09 2.09 0 0 1-1.6.67 1.6 1.6 0 0 1-1.68-1.6 1.57 1.57 0 0 1 1.68-1.59 2 2 0 0 1 1.6.66v-.87c0-.65-.52-1-1.22-1a1.92 1.92 0 0 0-1.48.67l-.34-.52a2.49 2.49 0 0 1 1.92-.8c1 0 1.87.46 1.87 1.63v3.32h-.75zm0-1.38a1.62 1.62 0 0 0-1.33-.6 1.06 1.06 0 1 0 0 2.11 1.62 1.62 0 0 0 1.33-.6zm2.13-4.21a.49.49 0 0 1 .49-.5.5.5 0 0 1 .51.5.51.51 0 0 1-.51.51.5.5 0 0 1-.49-.51zm.12 1.32h.75v4.82h-.75zm2.62 5.5a1.84 1.84 0 0 0 1.57.66 1.38 1.38 0 0 0 1.55-1.45V201a2 2 0 0 1-1.62.86 2.2 2.2 0 0 1-2.15-2.5c0-1.55.88-2.51 2.15-2.51a2 2 0 0 1 1.62.85v-.7h.75v4.68c0 1.6-1.12 2.1-2.3 2.1A2.47 2.47 0 0 1 573 203zm3.12-4.18a1.78 1.78 0 0 0-1.44-.78c-1 0-1.55.77-1.55 1.84s.58 1.84 1.55 1.84a1.79 1.79 0 0 0 1.44-.79zm5.54.34c0-.85-.43-1.12-1.08-1.12a1.86 1.86 0 0 0-1.43.75v3.53h-.75V197h.75v.69a2.4 2.4 0 0 1 1.72-.82 1.37 1.37 0 0 1 1.54 1.56v3.39H582zm-168.84 14.15v-3.16h-.8V209h.8v-1.32h.75V209h1v.65h-1v3c0 .36.16.62.49.62a.72.72 0 0 0 .51-.2l.21.56a1.18 1.18 0 0 1-.89.31 1 1 0 0 1-1.07-1.17zm2.51-1.41a2.39 2.39 0 1 1 2.38 2.54 2.37 2.37 0 0 1-2.38-2.54zm4 0a1.62 1.62 0 1 0-1.6 1.87 1.68 1.68 0 0 0 1.58-1.87zm7.84-.76c0-.85-.44-1.1-1.08-1.1a1.88 1.88 0 0 0-1.43.75v3.53h-.75v-6.66h.75v2.53a2.4 2.4 0 0 1 1.72-.82 1.36 1.36 0 0 1 1.54 1.54v3.41h-.75zm4.35-1.77a2.35 2.35 0 0 1 2.32 2.59v.19h-3.91a1.71 1.71 0 0 0 1.74 1.67 2.11 2.11 0 0 0 1.49-.61l.36.49a2.62 2.62 0 0 1-1.92.74 2.54 2.54 0 0 1-.08-5.07zm-1.59 2.23h3.17a1.56 1.56 0 0 0-1.58-1.6 1.61 1.61 0 0 0-1.59 1.6zm5.13-3.94h.74v6.66h-.74zm2.25 8.5V209h.74v.71a2 2 0 0 1 1.63-.84c1.27 0 2.15 1 2.15 2.53s-.88 2.54-2.15 2.54a2 2 0 0 1-1.63-.85v2.57zm2.18-6.12a1.79 1.79 0 0 0-1.44.77v2.18a1.79 1.79 0 0 0 1.44.78c1 0 1.55-.8 1.55-1.87s-.58-1.86-1.55-1.86zm8.23-.67a2.35 2.35 0 0 1 2.32 2.59v.19h-3.9a1.69 1.69 0 0 0 1.73 1.67 2.11 2.11 0 0 0 1.49-.61l.36.49a2.62 2.62 0 0 1-1.92.74 2.39 2.39 0 0 1-2.45-2.54 2.41 2.41 0 0 1 2.37-2.53zm-1.58 2.23h3.16a1.56 1.56 0 0 0-1.59-1.6 1.59 1.59 0 0 0-1.57 1.6zm8.61 2a2 2 0 0 1-1.63.84c-1.26 0-2.14-1-2.14-2.53s.87-2.54 2.14-2.54a2 2 0 0 1 1.63.85v-2.56h.75v6.66h-.75zm0-2.78a1.81 1.81 0 0 0-1.45-.78c-1 0-1.54.8-1.54 1.87s.58 1.86 1.54 1.86a1.8 1.8 0 0 0 1.45-.76zm5.51 2.82a2.34 2.34 0 0 1-1.72.8 1.35 1.35 0 0 1-1.53-1.54V209h.75v3.17c0 .85.42 1.1 1.07 1.1a1.85 1.85 0 0 0 1.43-.73V209h.75v4.82h-.75zm4.4-4.27a2.07 2.07 0 0 1 1.77.84l-.5.46a1.43 1.43 0 0 0-1.23-.63 1.88 1.88 0 0 0 0 3.73 1.46 1.46 0 0 0 1.23-.63l.5.46a2.07 2.07 0 0 1-1.77.84 2.54 2.54 0 0 1 0-5.07zm5.82 4.4a2.09 2.09 0 0 1-1.6.67 1.61 1.61 0 0 1-1.69-1.6 1.59 1.59 0 0 1 1.69-1.59 2 2 0 0 1 1.6.66v-.87c0-.65-.52-1-1.21-1a1.92 1.92 0 0 0-1.49.67l-.35-.52a2.54 2.54 0 0 1 1.93-.8c1 0 1.87.46 1.87 1.63v3.32h-.75zm0-1.38a1.62 1.62 0 0 0-1.33-.6 1.06 1.06 0 1 0 0 2.11 1.62 1.62 0 0 0 1.33-.6zm2.4.92v-3.16h-.79V209h.79v-1.32h.78V209h1v.65h-1v3c0 .36.16.62.49.62a.72.72 0 0 0 .51-.2l.22.56a1.23 1.23 0 0 1-.9.31 1 1 0 0 1-1.1-1.17zm4.89-3.94a2.35 2.35 0 0 1 2.32 2.59v.19h-3.91a1.7 1.7 0 0 0 1.74 1.67 2.11 2.11 0 0 0 1.49-.61l.36.49a2.62 2.62 0 0 1-1.92.74 2.54 2.54 0 0 1-.08-5.07zm-1.59 2.23h3.17a1.56 1.56 0 0 0-1.59-1.6 1.6 1.6 0 0 0-1.58 1.6zm9.83-2.23a2.07 2.07 0 0 1 1.77.84l-.5.46a1.43 1.43 0 0 0-1.23-.63 1.88 1.88 0 0 0 0 3.73 1.46 1.46 0 0 0 1.23-.63l.5.46a2.07 2.07 0 0 1-1.77.84 2.54 2.54 0 0 1 0-5.07zm2.54 2.53a2.39 2.39 0 1 1 2.39 2.54 2.37 2.37 0 0 1-2.39-2.54zm4 0a1.62 1.62 0 1 0-1.6 1.87 1.68 1.68 0 0 0 1.59-1.87zm7.83-.86c0-.61-.27-1-.89-1a1.69 1.69 0 0 0-1.28.74v3.54h-.75v-3.28c0-.61-.26-1-.89-1a1.69 1.69 0 0 0-1.27.75v3.53h-.75V209h.75v.69a2.09 2.09 0 0 1 1.56-.82 1.24 1.24 0 0 1 1.3.9 2 2 0 0 1 1.62-.9c.88 0 1.35.49 1.35 1.46v3.49h-.75zm8.08 0c0-.61-.27-1-.89-1a1.69 1.69 0 0 0-1.28.74v3.54h-.75v-3.28c0-.61-.26-1-.89-1a1.69 1.69 0 0 0-1.27.75v3.53H503V209h.75v.69a2.09 2.09 0 0 1 1.56-.82 1.24 1.24 0 0 1 1.3.9 2 2 0 0 1 1.62-.9c.88 0 1.35.49 1.35 1.46v3.49h-.75zm5.51 2.6a2.36 2.36 0 0 1-1.72.8 1.36 1.36 0 0 1-1.54-1.54V209h.75v3.17c0 .85.43 1.1 1.08 1.1a1.85 1.85 0 0 0 1.43-.73V209h.75v4.82h-.75zm5.51-2.48c0-.85-.43-1.12-1.08-1.12a1.86 1.86 0 0 0-1.43.75v3.53h-.75V209h.75v.69a2.4 2.4 0 0 1 1.72-.82 1.37 1.37 0 0 1 1.54 1.56v3.39h-.75zm2.12-2.98a.51.51 0 0 1 1 0 .51.51 0 1 1-1 0zm.13 1.32h.75v4.82h-.75zm2.4 3.81v-3.16h-.8V209h.8v-1.32h.75V209h1v.65h-1v3c0 .36.16.62.49.62a.72.72 0 0 0 .51-.2l.22.56a1.23 1.23 0 0 1-.9.31 1 1 0 0 1-1.07-1.17zm2.66-5.13a.51.51 0 0 1 1 0 .51.51 0 1 1-1 0zm.13 1.32h.74v4.82h-.75zm4.35-.13a2.35 2.35 0 0 1 2.32 2.59v.19H530a1.7 1.7 0 0 0 1.74 1.67 2.11 2.11 0 0 0 1.49-.61l.36.49a2.62 2.62 0 0 1-1.92.74 2.54 2.54 0 0 1-.08-5.07zm-1.61 2.23h3.17a1.56 1.56 0 0 0-1.59-1.6 1.6 1.6 0 0 0-1.58 1.6zm5.11 1.54a2.19 2.19 0 0 0 1.59.69c.74 0 1.14-.33 1.14-.8s-.59-.7-1.24-.86c-.82-.19-1.75-.41-1.75-1.41 0-.75.65-1.39 1.8-1.39a2.44 2.44 0 0 1 1.79.7l-.35.52a1.88 1.88 0 0 0-1.44-.61c-.66 0-1.07.3-1.07.73s.55.62 1.18.77c.84.19 1.81.43 1.81 1.5 0 .81-.65 1.46-1.9 1.46a2.57 2.57 0 0 1-1.95-.76zm10.28.63a2.09 2.09 0 0 1-1.6.67 1.61 1.61 0 0 1-1.69-1.6 1.58 1.58 0 0 1 1.69-1.59 2 2 0 0 1 1.6.66v-.87c0-.65-.52-1-1.22-1a1.92 1.92 0 0 0-1.48.67l-.35-.52a2.53 2.53 0 0 1 1.93-.8c1 0 1.87.46 1.87 1.63v3.32h-.75zm0-1.38a1.62 1.62 0 0 0-1.33-.6 1.06 1.06 0 1 0 0 2.11 1.62 1.62 0 0 0 1.33-.6zm5.51-1.23c0-.85-.43-1.12-1.08-1.12a1.86 1.86 0 0 0-1.43.75v3.53h-.75V209h.75v.69a2.4 2.4 0 0 1 1.72-.82 1.37 1.37 0 0 1 1.54 1.56v3.39h-.75zm5.75 2.44a2 2 0 0 1-1.63.84c-1.26 0-2.15-1-2.15-2.53s.88-2.54 2.15-2.54a2 2 0 0 1 1.63.85v-2.56h.75v6.66h-.75zm0-2.78a1.81 1.81 0 0 0-1.45-.78c-1 0-1.55.8-1.55 1.87s.58 1.86 1.55 1.86a1.8 1.8 0 0 0 1.45-.76zm4.8 2.32a2.19 2.19 0 0 0 1.59.69c.74 0 1.14-.33 1.14-.8s-.59-.7-1.24-.86c-.82-.19-1.75-.41-1.75-1.41 0-.75.65-1.39 1.8-1.39a2.44 2.44 0 0 1 1.79.7l-.35.52a1.88 1.88 0 0 0-1.44-.61c-.66 0-1.07.3-1.07.73s.55.62 1.18.77c.84.19 1.81.43 1.81 1.5 0 .81-.65 1.46-1.9 1.46a2.57 2.57 0 0 1-2-.76zm4.83.17v-3.16h-.8V209h.8v-1.32h.72V209h1v.65h-1v3c0 .36.16.62.49.62a.72.72 0 0 0 .51-.2l.22.56a1.23 1.23 0 0 1-.9.31 1 1 0 0 1-1.04-1.17zm2.51-1.41a2.39 2.39 0 1 1 2.39 2.54 2.37 2.37 0 0 1-2.39-2.54zm4 0a1.62 1.62 0 1 0-1.6 1.87 1.68 1.68 0 0 0 1.59-1.87zm2 4.26V209h.75v.71a2 2 0 0 1 1.63-.84c1.27 0 2.15 1 2.15 2.53s-.88 2.54-2.15 2.54a2 2 0 0 1-1.63-.85v2.57zm2.21-6.12a1.79 1.79 0 0 0-1.44.77v2.18a1.79 1.79 0 0 0 1.44.78c1 0 1.55-.8 1.55-1.87s-.55-1.86-1.55-1.86zm-164 18.12V221h.75v.71a2 2 0 0 1 1.62-.84c1.27 0 2.15 1 2.15 2.53s-.88 2.54-2.15 2.54a2 2 0 0 1-1.62-.85v2.57zm2.18-6.12a1.78 1.78 0 0 0-1.43.77v2.18a1.79 1.79 0 0 0 1.43.78c1 0 1.55-.8 1.55-1.87s-.56-1.86-1.54-1.86zm3.57-.5h.75v.77a2 2 0 0 1 1.61-.88v.77a1.32 1.32 0 0 0-.3 0 1.77 1.77 0 0 0-1.31.77v3.42h-.75zm5.4-.17a2.34 2.34 0 0 1 2.31 2.59v.19h-3.9a1.7 1.7 0 0 0 1.73 1.67 2.09 2.09 0 0 0 1.49-.61l.36.49a2.6 2.6 0 0 1-1.91.74 2.54 2.54 0 0 1-.08-5.07zm-1.59 2.23h3.16a1.56 1.56 0 0 0-1.58-1.6 1.6 1.6 0 0 0-1.58 1.6zM427 221h.81l1.6 3.95L431 221h.82l-2 4.82H429zm7.68-.17a2.34 2.34 0 0 1 2.31 2.59v.19h-3.9a1.69 1.69 0 0 0 1.73 1.67 2.11 2.11 0 0 0 1.49-.61l.36.49a2.62 2.62 0 0 1-1.91.74 2.54 2.54 0 0 1-.08-5.07zm-1.59 2.23h3.16a1.56 1.56 0 0 0-1.58-1.6 1.59 1.59 0 0 0-1.58 1.6zm8.37-.44c0-.85-.43-1.12-1.08-1.12a1.88 1.88 0 0 0-1.43.75v3.53h-.74V221h.79v.69a2.4 2.4 0 0 1 1.72-.82 1.37 1.37 0 0 1 1.54 1.56v3.39h-.75zm2.4 2.15v-3.16h-.79V221h.79v-1.32h.75V221h1v.65h-1v3c0 .36.16.62.5.62a.7.7 0 0 0 .5-.2l.22.56a1.22 1.22 0 0 1-.89.31 1 1 0 0 1-1.08-1.17zm5.81.46a2.09 2.09 0 0 1-1.6.67 1.61 1.61 0 0 1-1.69-1.6 1.59 1.59 0 0 1 1.69-1.59 2 2 0 0 1 1.6.66v-.87c0-.65-.52-1-1.22-1a1.92 1.92 0 0 0-1.48.67l-.35-.52a2.54 2.54 0 0 1 1.93-.8c1 0 1.87.46 1.87 1.63v3.32h-.75zm0-1.38a1.62 1.62 0 0 0-1.33-.6 1.06 1.06 0 1 0 0 2.11 1.62 1.62 0 0 0 1.33-.6zm2.26-4.73h.74v2.56a2 2 0 0 1 1.63-.85 2.25 2.25 0 0 1 2.15 2.54c0 1.57-.89 2.53-2.15 2.53a2 2 0 0 1-1.63-.84v.72h-.74zm2.18 6.11c1 0 1.56-.79 1.56-1.86s-.58-1.87-1.56-1.87a1.79 1.79 0 0 0-1.44.78v2.19a1.78 1.78 0 0 0 1.44.76zm3.57-6.11h.74v6.66h-.74zm4.32 1.71a2.35 2.35 0 0 1 2.32 2.59v.19h-3.9a1.69 1.69 0 0 0 1.73 1.67 2.11 2.11 0 0 0 1.49-.61l.36.49a2.62 2.62 0 0 1-1.92.74 2.54 2.54 0 0 1-.08-5.07zm-1.58 2.23h3.16a1.56 1.56 0 0 0-1.59-1.6 1.59 1.59 0 0 0-1.55 1.6zm7.86 1.71v-3.16h-.8V221h.8v-1.32h.72V221h1v.65h-1v3c0 .36.16.62.49.62a.72.72 0 0 0 .51-.2l.22.56a1.23 1.23 0 0 1-.9.31 1 1 0 0 1-1.04-1.17zm2.79-3.77h.75v.77a2.05 2.05 0 0 1 1.61-.88v.77a1.32 1.32 0 0 0-.3 0 1.77 1.77 0 0 0-1.31.77v3.42h-.75zm6.32 4.23a2.09 2.09 0 0 1-1.6.67 1.61 1.61 0 0 1-1.69-1.6 1.58 1.58 0 0 1 1.69-1.59 2 2 0 0 1 1.6.66v-.87c0-.65-.52-1-1.22-1a1.92 1.92 0 0 0-1.48.67l-.35-.52a2.53 2.53 0 0 1 1.93-.8c1 0 1.87.46 1.87 1.63v3.32h-.75zm0-1.38a1.62 1.62 0 0 0-1.33-.6 1.06 1.06 0 1 0 0 2.11 1.62 1.62 0 0 0 1.33-.6zm2.61 2.61a1.84 1.84 0 0 0 1.57.66 1.38 1.38 0 0 0 1.55-1.45V225a2 2 0 0 1-1.62.86 2.2 2.2 0 0 1-2.15-2.5c0-1.55.88-2.51 2.15-2.51a2 2 0 0 1 1.62.85v-.7h.75v4.68c0 1.6-1.12 2.1-2.3 2.1a2.47 2.47 0 0 1-1.95-.72zm3.12-4.18a1.78 1.78 0 0 0-1.44-.78c-1 0-1.55.77-1.55 1.84s.58 1.84 1.55 1.84a1.79 1.79 0 0 0 1.44-.79zm4.36-1.45a2.35 2.35 0 0 1 2.32 2.59v.19h-3.91a1.7 1.7 0 0 0 1.74 1.67 2.11 2.11 0 0 0 1.49-.61l.36.49a2.62 2.62 0 0 1-1.92.74 2.54 2.54 0 0 1-.08-5.07zm-1.59 2.23h3.17a1.56 1.56 0 0 0-1.59-1.6 1.6 1.6 0 0 0-1.58 1.6zm8.62 2a2 2 0 0 1-1.63.84c-1.26 0-2.15-1-2.15-2.53s.88-2.54 2.15-2.54a2 2 0 0 1 1.63.85v-2.56h.75v6.66h-.75zm0-2.78a1.81 1.81 0 0 0-1.45-.78c-1 0-1.55.8-1.55 1.87s.58 1.86 1.55 1.86a1.8 1.8 0 0 0 1.45-.76zm2.12-2.64a.51.51 0 0 1 1 0 .51.51 0 1 1-1 0zm.13 1.32h.75v4.82h-.75zm4.35-.13a2.35 2.35 0 0 1 2.32 2.59v.19h-3.91a1.7 1.7 0 0 0 1.74 1.67 2.11 2.11 0 0 0 1.49-.61l.36.49a2.62 2.62 0 0 1-1.92.74 2.54 2.54 0 0 1-.08-5.07zm-1.59 2.23h3.17a1.56 1.56 0 0 0-1.59-1.6 1.6 1.6 0 0 0-1.58 1.6zm5.09 1.54a2.19 2.19 0 0 0 1.59.69c.74 0 1.14-.33 1.14-.8s-.59-.7-1.24-.86c-.82-.19-1.75-.41-1.75-1.41 0-.75.65-1.39 1.8-1.39a2.44 2.44 0 0 1 1.79.7l-.35.52a1.88 1.88 0 0 0-1.44-.61c-.66 0-1.07.3-1.07.73s.55.62 1.18.77c.84.19 1.81.43 1.81 1.5 0 .81-.65 1.46-1.9 1.46a2.57 2.57 0 0 1-1.95-.76zm5.08.18a.55.55 0 1 1-.55.55.55.55 0 0 1 .55-.55zM413 237.12h4.36v.74h-3.53V240h3.46v.74h-3.46V243h3.53v.74H413zm9.19 5.94a2 2 0 0 1-1.63.84c-1.25 0-2.14-1-2.14-2.53s.88-2.54 2.14-2.54a2 2 0 0 1 1.63.85v-2.56h.75v6.66h-.75zm0-2.78a1.79 1.79 0 0 0-1.44-.78c-1 0-1.56.8-1.56 1.87s.58 1.86 1.56 1.86a1.78 1.78 0 0 0 1.44-.76zm5.51 2.82a2.36 2.36 0 0 1-1.71.8 1.36 1.36 0 0 1-1.54-1.54V239h.74v3.17c0 .85.43 1.1 1.08 1.1a1.85 1.85 0 0 0 1.43-.73V239h.75v4.82h-.75zm4.38-4.27a2.07 2.07 0 0 1 1.77.84l-.5.46a1.43 1.43 0 0 0-1.23-.63 1.88 1.88 0 0 0 0 3.73 1.46 1.46 0 0 0 1.23-.63l.5.46a2.07 2.07 0 0 1-1.77.84 2.54 2.54 0 0 1 0-5.07zm5.84 4.4a2.08 2.08 0 0 1-1.59.67 1.61 1.61 0 0 1-1.69-1.6 1.58 1.58 0 0 1 1.69-1.59 2 2 0 0 1 1.59.66v-.87c0-.65-.52-1-1.22-1a1.9 1.9 0 0 0-1.47.67l-.35-.52a2.52 2.52 0 0 1 1.92-.8c1 0 1.87.46 1.87 1.63v3.32h-.75zm0-1.38a1.61 1.61 0 0 0-1.32-.6 1.06 1.06 0 1 0 0 2.11 1.61 1.61 0 0 0 1.32-.6zm2.41.92v-3.16h-.81V239h.81v-1.32h.75V239h1v.65h-1v3c0 .36.15.62.48.62a.72.72 0 0 0 .51-.2l.22.56a1.21 1.21 0 0 1-.9.31 1 1 0 0 1-1.06-1.17zm4.88-3.94a2.35 2.35 0 0 1 2.32 2.59v.19h-3.91a1.71 1.71 0 0 0 1.74 1.67 2.11 2.11 0 0 0 1.49-.61l.36.49a2.62 2.62 0 0 1-1.92.74 2.54 2.54 0 0 1-.08-5.07zm-1.59 2.23h3.17a1.56 1.56 0 0 0-1.59-1.6 1.6 1.6 0 0 0-1.58 1.6zm7.97 4.01a.69.69 0 0 0 .71-.51l.32-.73-2-4.87h.81l1.6 3.95 1.6-3.95h.82l-2.42 5.8a1.43 1.43 0 0 1-1.41 1 2.45 2.45 0 0 1-.56-.07l.13-.68a1.07 1.07 0 0 0 .4.06zm4.35-3.71a2.39 2.39 0 1 1 2.39 2.54 2.37 2.37 0 0 1-2.39-2.54zm4 0a1.62 1.62 0 1 0-1.6 1.87 1.68 1.68 0 0 0 1.59-1.87zm5.26 1.74a2.36 2.36 0 0 1-1.72.8 1.36 1.36 0 0 1-1.54-1.54V239h.75v3.17c0 .85.43 1.1 1.08 1.1a1.85 1.85 0 0 0 1.43-.73V239h.8v4.82h-.75zm2.25-4.1h.75v.77a2.05 2.05 0 0 1 1.61-.88v.77a1.32 1.32 0 0 0-.3 0 1.77 1.77 0 0 0-1.31.77v3.42h-.75zm3.27 3.6a2.19 2.19 0 0 0 1.59.69c.74 0 1.14-.33 1.14-.8s-.59-.7-1.24-.86c-.82-.19-1.75-.41-1.75-1.41 0-.75.65-1.39 1.8-1.39a2.44 2.44 0 0 1 1.79.7l-.35.52a1.88 1.88 0 0 0-1.44-.61c-.66 0-1.07.3-1.07.73s.55.62 1.18.77c.84.19 1.81.43 1.81 1.5 0 .81-.65 1.46-1.9 1.46a2.57 2.57 0 0 1-1.95-.76zm6.78-3.77a2.35 2.35 0 0 1 2.32 2.59v.19h-3.91a1.7 1.7 0 0 0 1.74 1.67 2.11 2.11 0 0 0 1.49-.61l.36.49a2.62 2.62 0 0 1-1.92.74 2.54 2.54 0 0 1-.08-5.07zm-1.59 2.23h3.17a1.56 1.56 0 0 0-1.59-1.6 1.6 1.6 0 0 0-1.58 1.6zm5.09-3.94h.75v6.66H481zm2.49 2.49h-.8V239h.8v-.38a1.45 1.45 0 0 1 2.13-1.39l-.19.56a.83.83 0 0 0-.43-.11c-.49 0-.76.34-.76.94v.38h1v.65h-1v4.17h-.75zm2.59 3.17a.55.55 0 1 1-.55.55.55.55 0 0 1 .55-.55zm6.16-4.92h-2.11v-.74h5.06v.74h-2.12v5.92h-.83zm6.09 5.37a2.09 2.09 0 0 1-1.6.67 1.61 1.61 0 0 1-1.69-1.6 1.58 1.58 0 0 1 1.69-1.59 2 2 0 0 1 1.6.66v-.87c0-.65-.52-1-1.22-1a1.92 1.92 0 0 0-1.48.67l-.35-.52a2.53 2.53 0 0 1 1.93-.8c1 0 1.87.46 1.87 1.63v3.32h-.75zm0-1.38a1.62 1.62 0 0 0-1.33-.6 1.06 1.06 0 1 0 0 2.11 1.62 1.62 0 0 0 1.33-.6zm3.8-.24l-.8.79v1.38h-.75v-6.66h.75v4.4l2.54-2.56h.95l-2.14 2.18 2.15 2.64h-1zm5.46-2.78a2.35 2.35 0 0 1 2.32 2.59v.19H506a1.7 1.7 0 0 0 1.74 1.67 2.11 2.11 0 0 0 1.49-.61l.36.49a2.62 2.62 0 0 1-1.92.74 2.54 2.54 0 0 1-.08-5.07zm-1.59 2.23h3.17a1.56 1.56 0 0 0-1.59-1.6 1.6 1.6 0 0 0-1.58 1.6zm7.85 1.71v-3.16h-.8V239h.8v-1.32h.75V239h1v.65h-1v3c0 .36.16.62.49.62a.72.72 0 0 0 .51-.2l.22.56a1.23 1.23 0 0 1-.9.31 1 1 0 0 1-1.07-1.17zm6.06-2.17c0-.85-.44-1.1-1.09-1.1a1.9 1.9 0 0 0-1.43.75v3.53h-.75v-6.66h.75v2.53a2.4 2.4 0 0 1 1.73-.82 1.36 1.36 0 0 1 1.54 1.54v3.41h-.75zm4.35-1.77a2.35 2.35 0 0 1 2.32 2.59v.19h-3.91a1.7 1.7 0 0 0 1.74 1.67 2.11 2.11 0 0 0 1.49-.61l.36.49a2.62 2.62 0 0 1-1.92.74 2.54 2.54 0 0 1-.08-5.07zm-1.59 2.23h3.17a1.56 1.56 0 0 0-1.59-1.6 1.6 1.6 0 0 0-1.58 1.6zm7.7 4.56V239h.75v.71a2 2 0 0 1 1.63-.84c1.27 0 2.15 1 2.15 2.53s-.88 2.54-2.15 2.54a2 2 0 0 1-1.63-.85v2.57zm2.19-6.12a1.79 1.79 0 0 0-1.44.77v2.18a1.79 1.79 0 0 0 1.44.78c1 0 1.55-.8 1.55-1.87s-.58-1.86-1.55-1.86zm3.55-2.38h.75v6.66h-.75zm4.35 1.71a2.35 2.35 0 0 1 2.32 2.59v.19h-3.91a1.7 1.7 0 0 0 1.74 1.67 2.11 2.11 0 0 0 1.49-.61l.36.49a2.62 2.62 0 0 1-1.92.74 2.54 2.54 0 0 1-.08-5.07zm-1.59 2.23H542a1.56 1.56 0 0 0-1.59-1.6 1.6 1.6 0 0 0-1.54 1.6zm8.62 2a2 2 0 0 1-1.63.84c-1.26 0-2.15-1-2.15-2.53s.88-2.54 2.15-2.54a2 2 0 0 1 1.63.85v-2.56h.75v6.66h-.75zm0-2.78a1.81 1.81 0 0 0-1.45-.78c-1 0-1.55.8-1.55 1.87s.58 1.86 1.55 1.86a1.8 1.8 0 0 0 1.45-.76zm2.62 4.18a1.84 1.84 0 0 0 1.57.66 1.38 1.38 0 0 0 1.55-1.45V243a2 2 0 0 1-1.62.86 2.2 2.2 0 0 1-2.15-2.5c0-1.55.88-2.51 2.15-2.51a2 2 0 0 1 1.62.85v-.7h.77v4.68c0 1.6-1.12 2.1-2.3 2.1a2.47 2.47 0 0 1-1.95-.72zm3.12-4.18a1.78 1.78 0 0 0-1.44-.78c-1 0-1.55.77-1.55 1.84s.58 1.84 1.55 1.84a1.79 1.79 0 0 0 1.44-.79zm4.35-1.45a2.35 2.35 0 0 1 2.32 2.59v.19H556a1.7 1.7 0 0 0 1.74 1.67 2.11 2.11 0 0 0 1.49-.61l.36.49a2.62 2.62 0 0 1-1.92.74 2.54 2.54 0 0 1-.08-5.07zm-1.58 2.23h3.17a1.56 1.56 0 0 0-1.59-1.6 1.6 1.6 0 0 0-1.58 1.6zm5.44 1.72a.55.55 0 1 1-.55.55.55.55 0 0 1 .55-.55zm-148.31 11.43a2.82 2.82 0 0 0 2.1.95c1.18 0 1.56-.64 1.56-1.15 0-.8-.81-1-1.68-1.26-1.07-.28-2.26-.58-2.26-1.88 0-1.1 1-1.85 2.28-1.85a3.14 3.14 0 0 1 2.37.93l-.5.6a2.56 2.56 0 0 0-1.92-.79c-.81 0-1.37.43-1.37 1.06s.77.86 1.62 1.09c1.08.29 2.32.63 2.32 2 0 1-.66 2-2.46 2a3.3 3.3 0 0 1-2.55-1.06zm9-1.61c0-.85-.44-1.1-1.08-1.1a1.9 1.9 0 0 0-1.43.75v3.53h-.75v-6.66h.75v2.53a2.4 2.4 0 0 1 1.73-.82 1.35 1.35 0 0 1 1.53 1.54v3.41h-.75zm5.27 2.63a2.07 2.07 0 0 1-1.59.67 1.61 1.61 0 0 1-1.69-1.6 1.58 1.58 0 0 1 1.69-1.59 2 2 0 0 1 1.59.66v-.87c0-.65-.52-1-1.21-1a1.92 1.92 0 0 0-1.48.67l-.35-.52a2.52 2.52 0 0 1 1.92-.8c1 0 1.87.46 1.87 1.63v3.32h-.75zm0-1.38a1.6 1.6 0 0 0-1.32-.6 1.06 1.06 0 1 0 0 2.11 1.6 1.6 0 0 0 1.32-.6zm2.26-2.85h.75v.77a2 2 0 0 1 1.61-.88v.77a1.35 1.35 0 0 0-.31 0 1.75 1.75 0 0 0-1.3.77v3.42h-.75zm5.39-.17a2.35 2.35 0 0 1 2.32 2.59v.19h-3.9a1.69 1.69 0 0 0 1.73 1.67 2.11 2.11 0 0 0 1.49-.61l.36.49a2.62 2.62 0 0 1-1.92.74 2.39 2.39 0 0 1-2.45-2.54 2.41 2.41 0 0 1 2.37-2.53zm-1.58 2.23h3.16a1.56 1.56 0 0 0-1.59-1.6 1.6 1.6 0 0 0-1.57 1.6zm7.85 1.71v-3.16h-.8V251h.8v-1.32h.75V251h1v.65h-1v3c0 .36.15.62.48.62a.71.71 0 0 0 .51-.2l.22.56a1.21 1.21 0 0 1-.9.31 1 1 0 0 1-1.06-1.17zm6.05-2.17c0-.85-.44-1.1-1.09-1.1a1.86 1.86 0 0 0-1.42.75v3.53h-.75v-6.66h.75v2.53a2.38 2.38 0 0 1 1.72-.82 1.36 1.36 0 0 1 1.54 1.54v3.41h-.75zm4.35-1.77a2.35 2.35 0 0 1 2.32 2.59v.19h-3.91a1.7 1.7 0 0 0 1.74 1.67 2.11 2.11 0 0 0 1.49-.61l.36.49a2.62 2.62 0 0 1-1.92.74 2.54 2.54 0 0 1-.08-5.07zm-1.59 2.23h3.17a1.56 1.56 0 0 0-1.59-1.6 1.6 1.6 0 0 0-1.58 1.6zm13.53-.56c0-.61-.27-1-.89-1a1.69 1.69 0 0 0-1.28.74v3.54h-.75v-3.28c0-.61-.26-1-.89-1a1.69 1.69 0 0 0-1.27.75v3.53h-.74V251h.74v.69a2.09 2.09 0 0 1 1.56-.82 1.24 1.24 0 0 1 1.3.9 2 2 0 0 1 1.62-.9c.88 0 1.35.49 1.35 1.46v3.49h-.75zm4.34-1.67a2.35 2.35 0 0 1 2.32 2.59v.19h-3.9a1.69 1.69 0 0 0 1.73 1.67 2.11 2.11 0 0 0 1.49-.61l.36.49a2.62 2.62 0 0 1-1.92.74 2.54 2.54 0 0 1-.08-5.07zm-1.58 2.23h3.16a1.56 1.56 0 0 0-1.59-1.6 1.59 1.59 0 0 0-1.56 1.6zm5.1 1.54a2.15 2.15 0 0 0 1.58.69c.74 0 1.14-.33 1.14-.8s-.59-.7-1.24-.86c-.81-.19-1.74-.41-1.74-1.41 0-.75.64-1.39 1.79-1.39a2.44 2.44 0 0 1 1.79.7l-.35.52a1.88 1.88 0 0 0-1.44-.61c-.66 0-1.07.3-1.07.73s.55.62 1.18.77c.84.19 1.81.43 1.81 1.5 0 .81-.65 1.46-1.9 1.46a2.57 2.57 0 0 1-1.95-.76zm4.65 0a2.16 2.16 0 0 0 1.58.69c.74 0 1.14-.33 1.14-.8s-.59-.7-1.24-.86c-.81-.19-1.74-.41-1.74-1.41 0-.75.64-1.39 1.79-1.39a2.44 2.44 0 0 1 1.79.7l-.35.52a1.88 1.88 0 0 0-1.44-.61c-.66 0-1.07.3-1.07.73s.56.62 1.18.77c.84.19 1.81.43 1.81 1.5 0 .81-.65 1.46-1.9 1.46a2.6 2.6 0 0 1-2-.76zm7.69.63a2.08 2.08 0 0 1-1.59.67 1.6 1.6 0 0 1-1.69-1.6 1.58 1.58 0 0 1 1.69-1.59 2 2 0 0 1 1.59.66v-.87c0-.65-.52-1-1.22-1a1.9 1.9 0 0 0-1.47.67l-.35-.52a2.51 2.51 0 0 1 1.92-.8c1 0 1.87.46 1.87 1.63v3.32h-.75zm0-1.38a1.62 1.62 0 0 0-1.33-.6 1.06 1.06 0 1 0 0 2.11 1.62 1.62 0 0 0 1.33-.6zm2.62 2.61a1.84 1.84 0 0 0 1.57.66 1.38 1.38 0 0 0 1.55-1.45V255a2 2 0 0 1-1.62.86c-1.26 0-2.14-.94-2.14-2.5s.87-2.51 2.14-2.51a2 2 0 0 1 1.62.85v-.7h.75v4.68c0 1.6-1.12 2.1-2.3 2.1a2.45 2.45 0 0 1-1.94-.72zm3.12-4.18a1.78 1.78 0 0 0-1.44-.78c-1 0-1.55.77-1.55 1.84s.58 1.84 1.55 1.84a1.79 1.79 0 0 0 1.44-.79zm4.4-1.45a2.35 2.35 0 0 1 2.32 2.59v.19h-3.91a1.71 1.71 0 0 0 1.74 1.67 2.11 2.11 0 0 0 1.49-.61l.36.49a2.62 2.62 0 0 1-1.92.74 2.54 2.54 0 0 1-.08-5.07zm-1.59 2.23h3.17a1.56 1.56 0 0 0-1.59-1.6 1.6 1.6 0 0 0-1.63 1.6zm5.4 1.72a.55.55 0 1 1-.54.55.55.55 0 0 1 .54-.55zm7.98.28a2 2 0 0 1-1.63.84c-1.26 0-2.14-1-2.14-2.53s.87-2.54 2.14-2.54a2 2 0 0 1 1.63.85v-2.56h.75v6.66h-.75zm0-2.78a1.81 1.81 0 0 0-1.45-.78c-1 0-1.55.8-1.55 1.87s.58 1.86 1.55 1.86a1.8 1.8 0 0 0 1.45-.76zm1.98 1.08a2.39 2.39 0 1 1 2.38 2.54 2.37 2.37 0 0 1-2.38-2.54zm4 0a1.62 1.62 0 1 0-1.6 1.87 1.68 1.68 0 0 0 1.58-1.87zm5.23-.74c0-.85-.43-1.12-1.08-1.12a1.86 1.86 0 0 0-1.43.75v3.53h-.74V251h.74v.69a2.4 2.4 0 0 1 1.72-.82 1.37 1.37 0 0 1 1.54 1.56v3.39H517zm2-1.62a1.51 1.51 0 0 0 .66-.93.33.33 0 0 1-.15 0 .48.48 0 0 1-.48-.51.54.54 0 0 1 .53-.54.67.67 0 0 1 .63.76 2 2 0 0 1-.82 1.51zm2.66 3.77v-3.16h-.8V251h.8v-1.32h.75V251h1v.65h-1v3c0 .36.16.62.49.62a.72.72 0 0 0 .51-.2l.22.56a1.23 1.23 0 0 1-.9.31 1 1 0 0 1-1.07-1.17zm5.52 0v-3.16h-.8V251h.8v-1.32h.75V251h1v.65h-1v3c0 .36.16.62.49.62a.72.72 0 0 0 .51-.2l.22.56a1.23 1.23 0 0 1-.9.31 1 1 0 0 1-1.07-1.17zm4.47-.97l-1.45 2h-.86l1.85-2.48-1.75-2.32h.87l1.34 1.83L533 251h.87l-1.75 2.34 1.86 2.48h-.87zm3.35.97v-3.16h-.8V251h.8v-1.32h.75V251h1v.65h-1v3c0 .36.16.62.49.62a.72.72 0 0 0 .51-.2l.22.56a1.23 1.23 0 0 1-.9.31 1 1 0 0 1-1.07-1.17zm7.38.03h-.57v-2.13h-1.92v-.52h1.92v-2.07h.57v2.07h1.92v.52h-1.92zm9.04.26a2 2 0 0 1-1.63.84c-1.26 0-2.15-1-2.15-2.53s.88-2.54 2.15-2.54a2 2 0 0 1 1.63.85v-2.56h.75v6.66h-.75zm0-2.78a1.81 1.81 0 0 0-1.45-.78c-1 0-1.55.8-1.55 1.87s.58 1.86 1.55 1.86a1.8 1.8 0 0 0 1.45-.76zm2.25-1.28h.75v.77a2.05 2.05 0 0 1 1.61-.88v.77a1.32 1.32 0 0 0-.3 0 1.77 1.77 0 0 0-1.31.77v3.42h-.75zm2.58 0h.81l1.61 3.95 1.6-3.95h.82l-2 4.82h-.82zm5.35 3.78a.55.55 0 1 1-.55.55.55.55 0 0 1 .55-.55zm-326.15-86.13h-3.14v2.8h-1.42v-6.67h1.42v2.62h3.14v-2.62h1.43v6.67h-1.43zm4.91-2.15a2.42 2.42 0 0 1 2.41 2.66v.28h-3.58a1.3 1.3 0 0 0 1.38 1.12 2 2 0 0 0 1.29-.48l.56.82a3 3 0 0 1-2 .67 2.54 2.54 0 1 1-.08-5.07zm-1.19 2.08h2.37a1.12 1.12 0 0 0-1.18-1.07 1.16 1.16 0 0 0-1.19 1.07zm4.53-1.96h1.3v.66a2.07 2.07 0 0 1 1.54-.77v1.24a1.63 1.63 0 0 0-.36 0 1.61 1.61 0 0 0-1.18.55v3.19h-1.3zm5.78-.12a2.42 2.42 0 0 1 2.42 2.66v.28h-3.58a1.3 1.3 0 0 0 1.38 1.12 2 2 0 0 0 1.29-.48l.56.82a3 3 0 0 1-2 .67 2.54 2.54 0 0 1-.09-5.07zm-1.18 2.08h2.37a1.12 1.12 0 0 0-1.19-1.07 1.16 1.16 0 0 0-1.18 1.07zm4.4-1.47a1.69 1.69 0 0 0 .77-1 .45.45 0 0 1-.19 0 .68.68 0 0 1-.68-.72.8.8 0 0 1 .78-.8.92.92 0 0 1 .89 1 2.32 2.32 0 0 1-1 1.86zm2.44 2.82a2.76 2.76 0 0 0 1.67.66c.55 0 .8-.19.8-.49s-.42-.46-1-.57c-.83-.16-1.9-.36-1.9-1.51 0-.81.71-1.52 2-1.52a3.08 3.08 0 0 1 1.94.66l-.51.87a2 2 0 0 0-1.43-.56c-.45 0-.75.17-.75.45s.38.41.92.52c.83.16 1.93.38 1.93 1.58 0 .88-.75 1.55-2.08 1.55a3.25 3.25 0 0 1-2.16-.75zm10.09 1.07a2 2 0 0 1-1.53.62A1.61 1.61 0 0 1 262 170a1.53 1.53 0 0 1 1.67-1.54 2 2 0 0 1 1.53.59v-.67c0-.49-.42-.81-1.06-.81a2 2 0 0 0-1.4.57l-.48-.85a3.12 3.12 0 0 1 2.1-.76c1.1 0 2.11.44 2.11 1.83v3.12h-1.27zm0-1.26a1.27 1.27 0 0 0-1-.42c-.5 0-.9.26-.9.73s.4.71.9.71a1.27 1.27 0 0 0 1-.42zm5.22.19a2.76 2.76 0 0 0 1.67.66c.55 0 .81-.19.81-.49s-.42-.46-1-.57c-.83-.16-1.89-.36-1.89-1.51 0-.81.7-1.52 2-1.52a3.09 3.09 0 0 1 1.95.66l-.51.87a2 2 0 0 0-1.43-.56c-.46 0-.76.17-.76.45s.38.41.92.52c.83.16 1.94.38 1.94 1.58 0 .88-.75 1.55-2.09 1.55a3.25 3.25 0 0 1-2.16-.75zm6.89-3.43a2.25 2.25 0 0 1 1.91.87l-.83.78a1.17 1.17 0 0 0-1-.52 1.41 1.41 0 0 0 0 2.81 1.22 1.22 0 0 0 1-.52l.83.77a2.23 2.23 0 0 1-1.91.88 2.54 2.54 0 1 1 0-5.07zM283 171a2 2 0 0 1-1.53.62 1.61 1.61 0 0 1-1.68-1.6 1.53 1.53 0 0 1 1.68-1.54 2 2 0 0 1 1.53.52v-.67c0-.49-.42-.81-1.06-.81a2 2 0 0 0-1.41.57l-.48-.85a3.17 3.17 0 0 1 2.11-.76c1.1 0 2.11.44 2.11 1.83v3.12H283zm0-1.26a1.27 1.27 0 0 0-1-.42c-.5 0-.91.26-.91.73s.41.71.91.71a1.27 1.27 0 0 0 1-.42zm2.51-3.12h1.27v.66a2.07 2.07 0 0 1 1.54-.77v1.24a1.56 1.56 0 0 0-1.54.51v3.19h-1.27zm4.02 5.66a.64.64 0 0 0 .67-.35l.18-.41-2-4.9h1.36L291 170l1.26-3.36h1.37l-2.27 5.62a1.75 1.75 0 0 1-1.83 1.17 3.47 3.47 0 0 1-.63-.07l.19-1.14a1.1 1.1 0 0 0 .44.06zm7.4-2.35a2.76 2.76 0 0 0 1.67.66c.55 0 .81-.19.81-.49s-.42-.46-1-.57c-.83-.16-1.9-.36-1.9-1.51 0-.81.71-1.52 2-1.52a3.09 3.09 0 0 1 2 .66l-.51.84a2 2 0 0 0-1.43-.56c-.46 0-.76.17-.76.45s.38.41.92.52c.83.16 1.94.38 1.94 1.58 0 .88-.75 1.55-2.09 1.55a3.25 3.25 0 0 1-2.16-.75zm4.89.32v-2.52H301v-1.11h.8v-1.32h1.28v1.32h1v1.11h-1v2.18c0 .3.16.53.44.53a.69.69 0 0 0 .44-.14l.27 1a1.57 1.57 0 0 1-1.06.31 1.21 1.21 0 0 1-1.35-1.36zm6.03.75a2 2 0 0 1-1.53.62 1.61 1.61 0 0 1-1.68-1.6 1.53 1.53 0 0 1 1.68-1.54 2 2 0 0 1 1.53.59v-.67c0-.49-.42-.81-1.06-.81a2 2 0 0 0-1.41.57l-.48-.85a3.17 3.17 0 0 1 2.11-.76c1.1 0 2.11.44 2.11 1.83v3.12h-1.27zm0-1.26a1.27 1.27 0 0 0-1-.42c-.5 0-.91.26-.91.73s.41.71.91.71a1.27 1.27 0 0 0 1-.42zm2.78.51v-2.52h-.8v-1.11h.8v-1.32h1.28v1.32h1v1.11h-1v2.18c0 .3.16.53.44.53a.69.69 0 0 0 .44-.14l.27 1a1.57 1.57 0 0 1-1.06.31 1.21 1.21 0 0 1-1.37-1.36zm3-5.1a.76.76 0 1 1 .76.76.77.77 0 0 1-.76-.76zm.13 1.47H315v4.83h-1.27zm2.66 3.31a2.76 2.76 0 0 0 1.67.66c.55 0 .81-.19.81-.49s-.42-.46-1-.57c-.83-.16-1.9-.36-1.9-1.51 0-.81.71-1.52 2-1.52a3.09 3.09 0 0 1 1.95.66l-.51.87a2 2 0 0 0-1.43-.56c-.46 0-.76.17-.76.45s.38.41.92.52c.83.16 1.94.38 1.94 1.58 0 .88-.75 1.55-2.09 1.55a3.25 3.25 0 0 1-2.16-.75zm4.89.32v-2.52h-.8v-1.11h.8v-1.32h1.28v1.32h1v1.11h-1v2.18c0 .3.16.53.44.53a.69.69 0 0 0 .44-.14l.27 1a1.57 1.57 0 0 1-1.06.31 1.21 1.21 0 0 1-1.37-1.36zm3-5.1a.76.76 0 1 1 .76.76.77.77 0 0 1-.76-.76zm.13 1.47h1.27v4.83h-1.27zm4.78-.12a2.25 2.25 0 0 1 1.91.87l-.83.78a1.17 1.17 0 0 0-1-.52 1.41 1.41 0 0 0 0 2.81 1.22 1.22 0 0 0 1-.52l.83.77a2.23 2.23 0 0 1-1.91.88 2.54 2.54 0 1 1 0-5.07zm3.39 3.44a.81.81 0 1 1-.81.81.82.82 0 0 1 .81-.81zm4.5-5.16h1.42v6.67h-1.42zm2.99 2.95h-.8v-1.11h.8v-.26a1.56 1.56 0 0 1 1.63-1.68 2.05 2.05 0 0 1 .92.2l-.26.9a.78.78 0 0 0-.41-.1c-.36 0-.6.24-.6.7v.24h1v1.11h-1v3.72h-1.28zm5.97 4.55a.64.64 0 0 0 .67-.35l.18-.41-2-4.9h1.36l1.26 3.36 1.26-3.36h1.37l-2.27 5.62a1.75 1.75 0 0 1-1.83 1.17 3.47 3.47 0 0 1-.63-.07l.19-1.14a1.1 1.1 0 0 0 .44.08zm4.4-3.28a2.56 2.56 0 1 1 2.55 2.54 2.45 2.45 0 0 1-2.55-2.54zm3.79 0a1.25 1.25 0 1 0-1.24 1.41 1.27 1.27 0 0 0 1.24-1.41zm5.52 1.84a2.26 2.26 0 0 1-1.7.73 1.38 1.38 0 0 1-1.56-1.52v-3.43h1.27v2.93a.78.78 0 0 0 .89.89 1.42 1.42 0 0 0 1.1-.55v-3.27h1.27v4.83h-1.27zm5.34-.59v-2.52h-.8v-1.11h.8v-1.32h1.28v1.32h1v1.11h-1v2.18c0 .3.16.53.44.53a.69.69 0 0 0 .44-.14l.27 1a1.57 1.57 0 0 1-1.06.31 1.21 1.21 0 0 1-1.37-1.36zm5.32-3.75a2.42 2.42 0 0 1 2.42 2.66v.28h-3.59a1.3 1.3 0 0 0 1.39 1.12 2 2 0 0 0 1.29-.48l.56.82a3 3 0 0 1-2 .67 2.54 2.54 0 1 1-.08-5.07zm-1.19 2.08h2.38a1.12 1.12 0 0 0-1.19-1.07 1.16 1.16 0 0 0-1.19 1.07z" class="cls-6"/><path d="M375.33 169.82l-1.11 1.63h-1.41l1.71-2.48-1.61-2.35h1.42l1 1.49 1-1.49h1.42l-1.63 2.38 1.73 2.48h-1.42zm3.4.43v-2.52h-.8v-1.11h.8v-1.32H380v1.32h1v1.11h-1v2.18c0 .3.16.53.44.53a.69.69 0 0 0 .44-.14l.27 1a1.57 1.57 0 0 1-1.06.31 1.21 1.21 0 0 1-1.36-1.36zm8.59.75a2 2 0 0 1-1.53.62 1.61 1.61 0 0 1-1.68-1.6 1.53 1.53 0 0 1 1.68-1.54 2 2 0 0 1 1.53.59v-.67c0-.49-.42-.81-1.06-.81a2 2 0 0 0-1.41.57l-.48-.85a3.17 3.17 0 0 1 2.11-.76c1.1 0 2.11.44 2.11 1.83v3.12h-1.27zm0-1.26a1.27 1.27 0 0 0-1-.42c-.5 0-.91.26-.91.73s.41.71.91.71a1.27 1.27 0 0 0 1-.42zm5.79-1.21a.78.78 0 0 0-.89-.9 1.38 1.38 0 0 0-1.1.57v3.25h-1.27v-4.83h1.27v.63a2.21 2.21 0 0 1 1.69-.75 1.4 1.4 0 0 1 1.57 1.54v3.41h-1.27zm5.89 2.3a1.87 1.87 0 0 1-1.49.74c-1.22 0-2.14-.92-2.14-2.53s.91-2.54 2.14-2.54a1.86 1.86 0 0 1 1.49.74v-2.46h1.28v6.67H399zm0-2.65a1.38 1.38 0 0 0-1.1-.55 1.42 1.42 0 0 0 0 2.81 1.38 1.38 0 0 0 1.1-.55zm8.38 2.65a1.87 1.87 0 0 1-1.49.74c-1.22 0-2.14-.92-2.14-2.53s.91-2.54 2.14-2.54a1.86 1.86 0 0 1 1.49.74v-2.46h1.28v6.67h-1.28zm0-2.65a1.38 1.38 0 0 0-1.1-.55 1.42 1.42 0 0 0 0 2.81 1.38 1.38 0 0 0 1.1-.55zm2.54-1.56h1.27v.66a2.07 2.07 0 0 1 1.54-.77v1.24a1.56 1.56 0 0 0-1.54.51v3.19h-1.27zm3.47-1.47a.76.76 0 1 1 .76.76.77.77 0 0 1-.76-.76zm.13 1.47h1.27v4.83h-1.27zm1.84 0h1.36L418 170l1.26-3.36h1.37l-1.94 4.83h-1.39zm8.01-.12a2.42 2.42 0 0 1 2.42 2.66v.28h-3.59a1.3 1.3 0 0 0 1.39 1.12 2 2 0 0 0 1.29-.48l.56.82a3 3 0 0 1-2 .67 2.54 2.54 0 1 1-.08-5.07zm-1.19 2.08h2.38a1.12 1.12 0 0 0-1.19-1.07 1.16 1.16 0 0 0-1.19 1.07zm4.43 3.79a1.68 1.68 0 0 0 .77-.93.75.75 0 0 1-.19 0 .69.69 0 0 1-.68-.73.8.8 0 0 1 .78-.8.93.93 0 0 1 .9 1 2.33 2.33 0 0 1-1 1.86zm5.6-.09a.64.64 0 0 0 .67-.35l.18-.41-2-4.9h1.36l1.26 3.36 1.26-3.36h1.37l-2.27 5.62a1.75 1.75 0 0 1-1.83 1.17 3.47 3.47 0 0 1-.63-.07l.19-1.14a1.1 1.1 0 0 0 .44.08zm4.4-3.28a2.56 2.56 0 1 1 2.55 2.54 2.45 2.45 0 0 1-2.55-2.54zm3.79 0a1.25 1.25 0 1 0-1.24 1.41 1.27 1.27 0 0 0 1.24-1.41zm5.52 1.84a2.26 2.26 0 0 1-1.7.73 1.38 1.38 0 0 1-1.56-1.52v-3.43h1.27v2.93a.78.78 0 0 0 .89.89 1.42 1.42 0 0 0 1.1-.55v-3.27h1.27v4.83h-1.27zm2.47-3.73a1.69 1.69 0 0 0 .77-1 .45.45 0 0 1-.19 0 .68.68 0 0 1-.68-.72.8.8 0 0 1 .78-.8.93.93 0 0 1 .9 1 2.33 2.33 0 0 1-1 1.86zm2.61-.49h1.27v.66a2.07 2.07 0 0 1 1.54-.77v1.24a1.56 1.56 0 0 0-1.54.51v3.19H451zm5.79-.12a2.42 2.42 0 0 1 2.42 2.66v.28h-3.59a1.3 1.3 0 0 0 1.39 1.12 2 2 0 0 0 1.29-.48l.56.82a3 3 0 0 1-2 .67 2.54 2.54 0 1 1-.08-5.07zm-1.19 2.08h2.4a1.12 1.12 0 0 0-1.19-1.07 1.16 1.16 0 0 0-1.21 1.07zm6.93 1.75c2.73-2 3.53-2.7 3.53-3.52 0-.58-.53-.87-1.09-.87a2.38 2.38 0 0 0-1.78.77l-.81-.94a3.4 3.4 0 0 1 2.57-1.09c1.42 0 2.55.8 2.55 2.13 0 1.14-.94 2.13-2.73 3.39h2.78v1.25h-5zm6.47-.76a2.66 2.66 0 0 0 1.84.76c.81 0 1.26-.35 1.26-.86s-.41-.79-1.34-.79h-.83v-1.24h.83c.74 0 1.23-.24 1.23-.74s-.54-.8-1.24-.8a2.43 2.43 0 0 0-1.7.7l-.7-.88a3.28 3.28 0 0 1 2.55-1.06c1.56 0 2.52.7 2.52 1.81A1.64 1.64 0 0 1 472 168a1.67 1.67 0 0 1 1.56 1.6c0 1.15-1 2-2.63 2a3.33 3.33 0 0 1-2.63-1.07zm8.37.68v-2.52h-.8v-1.11h.8v-1.32h1.28v1.32h1v1.11h-1v2.18c0 .3.16.53.44.53a.69.69 0 0 0 .44-.14l.27 1a1.57 1.57 0 0 1-1.06.31 1.21 1.21 0 0 1-1.37-1.36zm3-5.1a.76.76 0 1 1 .76.76.77.77 0 0 1-.76-.76zm.13 1.47h1.27v4.83h-1.27zm8.5 1.78c0-.45-.2-.77-.72-.77a1.28 1.28 0 0 0-1 .56v3.26H486v-3c0-.45-.2-.77-.72-.77a1.3 1.3 0 0 0-1 .57v3.25H483v-4.83h1.27v.63a2.11 2.11 0 0 1 1.58-.75 1.28 1.28 0 0 1 1.34.88 2 2 0 0 1 1.66-.88 1.28 1.28 0 0 1 1.41 1.46v3.49H489zm4.74-1.9a2.42 2.42 0 0 1 2.42 2.66v.28h-3.59a1.3 1.3 0 0 0 1.39 1.12 2 2 0 0 0 1.29-.48l.56.82a3 3 0 0 1-2 .67 2.54 2.54 0 1 1-.08-5.07zm-1.19 2.08h2.38a1.12 1.12 0 0 0-1.19-1.07 1.16 1.16 0 0 0-1.19 1.07zm4.66 1.35a2.76 2.76 0 0 0 1.67.66c.55 0 .81-.19.81-.49s-.42-.46-1-.57c-.83-.16-1.9-.36-1.9-1.51 0-.81.71-1.52 2-1.52a3.09 3.09 0 0 1 1.95.66l-.51.87a2 2 0 0 0-1.43-.56c-.46 0-.76.17-.76.45s.38.41.92.52c.83.16 1.94.38 1.94 1.58 0 .88-.75 1.55-2.09 1.55a3.25 3.25 0 0 1-2.16-.75zm13.18-1.53c0-.45-.2-.77-.72-.77a1.28 1.28 0 0 0-1 .56v3.26h-1.27v-3c0-.45-.2-.77-.72-.77a1.3 1.3 0 0 0-1 .57v3.25h-1.27v-4.83h1.27v.63a2.11 2.11 0 0 1 1.58-.75 1.28 1.28 0 0 1 1.34.88 2 2 0 0 1 1.65-.88 1.29 1.29 0 0 1 1.42 1.46v3.49h-1.28zm2.23.6a2.55 2.55 0 1 1 2.55 2.54 2.45 2.45 0 0 1-2.55-2.54zm3.78 0a1.24 1.24 0 1 0-1.23 1.41 1.27 1.27 0 0 0 1.23-1.41zm2.27-2.38h1.27v.66a2.07 2.07 0 0 1 1.54-.77v1.24a1.56 1.56 0 0 0-1.54.51v3.19h-1.27zm5.79-.12a2.41 2.41 0 0 1 2.41 2.66v.28h-3.58a1.3 1.3 0 0 0 1.39 1.12 2 2 0 0 0 1.28-.48l.56.82a3 3 0 0 1-2 .67 2.54 2.54 0 1 1-.08-5.07zm-1.19 2.08h2.38a1.13 1.13 0 0 0-1.19-1.07 1.16 1.16 0 0 0-1.19 1.07zm7.09-3.8h1.27v6.67h-1.27zm2.4.37a.76.76 0 1 1 .76.76.77.77 0 0 1-.76-.76zm.13 1.47h1.27v4.83h-1.27zm4.38 2.97l-.58.62v1.24h-1.27v-6.67h1.27v4l1.83-2.15h1.55l-1.9 2.19 2 2.64h-1.58z" class="cls-6"/><path d="M542.75 166.5a2.41 2.41 0 0 1 2.41 2.66v.28h-3.58a1.3 1.3 0 0 0 1.39 1.12 2 2 0 0 0 1.28-.48l.57.82a3 3 0 0 1-2 .67 2.54 2.54 0 1 1-.08-5.07zm-1.19 2.08h2.38a1.13 1.13 0 0 0-1.19-1.07 1.16 1.16 0 0 0-1.19 1.07zm4.53-3.8h1.27v6.67h-1.27zm2.91 7.5a.64.64 0 0 0 .67-.35l.18-.41-2-4.9h1.36l1.26 3.36 1.26-3.36h1.37l-2.27 5.62a1.75 1.75 0 0 1-1.83 1.17 3.47 3.47 0 0 1-.63-.07l.19-1.14a1.1 1.1 0 0 0 .44.08zm7.56-2.03v-2.52h-.8v-1.11h.8v-1.32h1.28v1.32h1v1.11h-1v2.18c0 .3.16.53.44.53a.69.69 0 0 0 .44-.14l.27 1a1.57 1.57 0 0 1-1.06.31 1.21 1.21 0 0 1-1.37-1.36zm2.82-1.25a2.55 2.55 0 1 1 2.55 2.54 2.45 2.45 0 0 1-2.55-2.54zm3.78 0a1.24 1.24 0 1 0-1.23 1.41 1.27 1.27 0 0 0 1.23-1.41zm-329.04 11.51c0-.67-.35-.88-.89-.88a1.41 1.41 0 0 0-1.1.57v3.25h-1.27v-6.67h1.27v2.47a2.23 2.23 0 0 1 1.69-.75 1.39 1.39 0 0 1 1.57 1.52v3.43h-1.27zm5.44 2.49a2 2 0 0 1-1.53.62 1.61 1.61 0 0 1-1.68-1.6 1.53 1.53 0 0 1 1.68-1.54 2 2 0 0 1 1.53.59v-.67c0-.49-.42-.81-1.06-.81a2 2 0 0 0-1.41.57l-.48-.85a3.17 3.17 0 0 1 2.11-.76c1.1 0 2.1.44 2.1 1.83v3.12h-1.26zm0-1.26a1.28 1.28 0 0 0-1-.42c-.5 0-.91.26-.91.73s.41.71.91.71a1.28 1.28 0 0 0 1-.42zm1.84-3.12h1.36L244 182l1.25-3.36h1.37l-1.94 4.83h-1.36zm8-.12a2.42 2.42 0 0 1 2.42 2.66v.28h-3.58a1.3 1.3 0 0 0 1.38 1.12 2 2 0 0 0 1.29-.48l.56.82a3 3 0 0 1-2 .67 2.54 2.54 0 0 1-.08-5.07zm-1.18 2.08h2.37a1.12 1.12 0 0 0-1.19-1.07 1.16 1.16 0 0 0-1.18 1.07zm9.98 2.42a2 2 0 0 1-1.52.62A1.61 1.61 0 0 1 255 182a1.53 1.53 0 0 1 1.68-1.54 1.93 1.93 0 0 1 1.52.59v-.67c0-.49-.42-.81-1.05-.81a2 2 0 0 0-1.41.57l-.48-.85a3.16 3.16 0 0 1 2.1-.76c1.1 0 2.11.44 2.11 1.83v3.12h-1.27zm0-1.26a1.26 1.26 0 0 0-1-.42c-.5 0-.91.26-.91.73s.41.71.91.71a1.26 1.26 0 0 0 1-.42zm7.34-3.24a2.25 2.25 0 0 1 1.91.87l-.83.78a1.17 1.17 0 0 0-1-.52 1.41 1.41 0 0 0 0 2.81 1.22 1.22 0 0 0 1-.52l.83.77a2.23 2.23 0 0 1-1.91.88 2.54 2.54 0 1 1 0-5.07zm5.64 4.5a2 2 0 0 1-1.53.62A1.61 1.61 0 0 1 268 182a1.53 1.53 0 0 1 1.67-1.54 2 2 0 0 1 1.53.59v-.67c0-.49-.42-.81-1.06-.81a2 2 0 0 0-1.4.57l-.48-.85a3.12 3.12 0 0 1 2.1-.76c1.1 0 2.11.44 2.11 1.83v3.12h-1.27zm0-1.26a1.27 1.27 0 0 0-1-.42c-.5 0-.91.26-.91.73s.41.71.91.71a1.27 1.27 0 0 0 1-.42zm2.54-3.12H275v.66a2.07 2.07 0 0 1 1.54-.77v1.24a1.56 1.56 0 0 0-1.54.51v3.19h-1.26zm8.4-.12a2.25 2.25 0 0 1 1.91.87l-.83.78a1.17 1.17 0 0 0-1-.52 1.41 1.41 0 0 0 0 2.81 1.22 1.22 0 0 0 1-.52l.83.77a2.23 2.23 0 0 1-1.91.88 2.54 2.54 0 1 1 0-5.07zm2.74.12h1.27v.66a2.07 2.07 0 0 1 1.54-.77v1.24a1.56 1.56 0 0 0-1.54.51v3.19h-1.27zm6.5 4.38a2 2 0 0 1-1.53.62 1.61 1.61 0 0 1-1.68-1.6 1.53 1.53 0 0 1 1.68-1.54 2 2 0 0 1 1.53.59v-.67c0-.49-.42-.81-1.06-.81a2 2 0 0 0-1.41.57l-.48-.85a3.17 3.17 0 0 1 2.11-.76c1.1 0 2.11.44 2.11 1.83v3.12h-1.27zm0-1.26a1.27 1.27 0 0 0-1-.42c-.5 0-.91.26-.91.73s.41.71.91.71a1.27 1.27 0 0 0 1-.42zm2.64.19a2.76 2.76 0 0 0 1.67.66c.55 0 .81-.19.81-.49s-.42-.46-1-.57c-.83-.16-1.9-.36-1.9-1.51 0-.81.71-1.52 2-1.52a3.09 3.09 0 0 1 1.95.66l-.51.87a2 2 0 0 0-1.43-.56c-.46 0-.76.17-.76.45s.38.41.92.52c.83.16 1.94.38 1.94 1.58 0 .88-.75 1.55-2.09 1.55a3.25 3.25 0 0 1-2.16-.75zm7.93-1.42c0-.67-.35-.88-.9-.88a1.41 1.41 0 0 0-1.1.57v3.25h-1.27v-6.67h1.27v2.47a2.23 2.23 0 0 1 1.7-.75 1.39 1.39 0 0 1 1.57 1.5v3.43h-1.27zm3.18 1.43a.81.81 0 1 1-.81.81.82.82 0 0 1 .81-.81z" class="cls-6"/><path d="M228.29 162.66h357v24.45h-357z" class="cls-7"/><path d="M228.29 192.6h356.79v100.6H228.29z" class="cls-8"/><path d="M402.21 192.6v100.6m9-100.6v100.6" class="cls-7"/><use width="3.88" height="3.88" transform="matrix(1.25 0 0 1.25 404.29 189.97)" xlink:href="#New_Symbol"/><use width="3.88" height="3.88" transform="matrix(1.25 0 0 1.25 404.29 290.78)" xlink:href="#New_Symbol"/><path d="M492.41 461.85h3.94a2.05 2.05 0 0 1 2.28 2 1.79 1.79 0 0 1-1.39 1.83 2 2 0 0 1 1.54 2 2.09 2.09 0 0 1-2.32 2.16h-4zm3.65 3.31a1 1 0 0 0 1.13-1 1 1 0 0 0-1.13-1.05h-2.24v2.08zm.06 3.45a1.07 1.07 0 0 0 1.22-1.11 1.1 1.1 0 0 0-1.22-1.1h-2.3v2.21zm4.03-6.76h1.26v8h-1.26zm5.48 2.06a2.87 2.87 0 0 1 2.85 3.16v.3H504a1.74 1.74 0 0 0 1.84 1.59 2.49 2.49 0 0 0 1.65-.63l.57.82a3.33 3.33 0 0 1-2.35.84 3 3 0 0 1-.09-6.08zm-1.63 2.57h3.27a1.56 1.56 0 0 0-1.63-1.54 1.61 1.61 0 0 0-1.64 1.54zm8.31-2.57a2.87 2.87 0 0 1 2.85 3.16v.3h-4.47a1.75 1.75 0 0 0 1.85 1.59 2.49 2.49 0 0 0 1.64-.63l.58.82a3.36 3.36 0 0 1-2.36.84 3 3 0 0 1-.09-6.08zm-1.63 2.57h3.26a1.55 1.55 0 0 0-1.63-1.54 1.6 1.6 0 0 0-1.63 1.54zm9.81 2.58a2.34 2.34 0 0 1-1.86.93c-1.48 0-2.58-1.12-2.58-3s1.08-3 2.58-3a2.34 2.34 0 0 1 1.86.95v-3h1.26v8h-1.26zm0-3.25A1.91 1.91 0 0 0 519 465a2 2 0 0 0 0 3.85 1.9 1.9 0 0 0 1.5-.77zM524 464a.84.84 0 1 1-.84.84.85.85 0 0 1 .84-.84zm0 4.33a.84.84 0 1 1-.84.84.85.85 0 0 1 .84-.87zm8.29-6.6c2.24 0 3.2 2.11 3.2 4.13s-1 4.13-3.2 4.13-3.2-2.12-3.2-4.13.91-4.13 3.2-4.13zm0 1.25c-1.31 0-1.78 1.35-1.78 2.88s.47 2.89 1.78 2.89 1.77-1.37 1.77-2.89-.47-2.86-1.77-2.86zm4.86 5.32a.84.84 0 0 1 0 1.68.84.84 0 1 1 0-1.68zm2.7-4.63l-1.31 1.33-.81-.85 2.3-2.33h1.22v8h-1.4zm2.85 5.08c3.11-2.35 4.32-3.4 4.32-4.55a1.28 1.28 0 0 0-1.45-1.22 2.78 2.78 0 0 0-2.16 1l-.81-.93a3.82 3.82 0 0 1 2.95-1.28c1.54 0 2.9.88 2.9 2.47s-1.36 2.8-3.5 4.41h3.55v1.24h-5.8zm8.02-.95a2.77 2.77 0 0 0 2.16.95 1.48 1.48 0 0 0 1.64-1.41 1.42 1.42 0 0 0-1.61-1.42 2.41 2.41 0 0 0-1.75.69l-1-.29v-4.47h5.24v1.23h-3.84v2.32a2.63 2.63 0 0 1 1.81-.7 2.48 2.48 0 0 1 2.56 2.58c0 1.67-1.26 2.71-3.05 2.71a3.62 3.62 0 0 1-3-1.23zm6.41-3.4a2 2 0 0 0 .86-1.12.85.85 0 0 1-.2 0 .71.71 0 0 1-.72-.75.82.82 0 0 1 .81-.83 1 1 0 0 1 .94 1.09 2.57 2.57 0 0 1-1.13 2.05zm2.22 0a2 2 0 0 0 .86-1.12.94.94 0 0 1-.2 0 .71.71 0 0 1-.72-.75.82.82 0 0 1 .81-.83 1 1 0 0 1 .94 1.09 2.57 2.57 0 0 1-1.13 2.05z" class="cls-9"/><path d="M567.69 469.75V456.8" class="cls-10"/><path d="M567.69 450.76a30.59 30.59 0 0 0 4.76 8.55l-4.76-1.72-4.75 1.72a30.31 30.31 0 0 0 4.75-8.55zM420.76 14.27a4 4 0 0 1 4.09 4.14 4.09 4.09 0 1 1-8.17 0 4 4 0 0 1 4.08-4.14zm0 1.25a2.65 2.65 0 0 0-2.65 2.89 2.66 2.66 0 1 0 5.31 0 2.66 2.66 0 0 0-2.66-2.89zm5.72 2.19h-1v-1.1h1v-.33a1.79 1.79 0 0 1 1.83-2 2.12 2.12 0 0 1 1 .23l-.28.92a1 1 0 0 0-.5-.12c-.49 0-.8.33-.8 1v.33h1.17v1.1h-1.17v4.66h-1.26zm3.69 0h-1v-1.1h1v-.33a1.79 1.79 0 0 1 1.84-2 2.11 2.11 0 0 1 1 .23l-.27.92a1.07 1.07 0 0 0-.51-.12c-.49 0-.8.33-.8 1v.33h1.18v1.1h-1.18v4.66h-1.26zm3.47 3.02a3 3 0 0 0 2 .82c.75 0 1.14-.28 1.14-.71s-.61-.68-1.32-.84c-1-.21-2.18-.48-2.18-1.77 0-.95.81-1.77 2.27-1.77a3.31 3.31 0 0 1 2.26.82l-.53.89a2.31 2.31 0 0 0-1.71-.7c-.66 0-1.08.24-1.08.65s.57.6 1.26.75c1 .22 2.24.51 2.24 1.88 0 1-.85 1.79-2.41 1.79a3.51 3.51 0 0 1-2.48-.9zm8.17-4.27a2.87 2.87 0 0 1 2.86 3.16v.3h-4.48a1.76 1.76 0 0 0 1.81 1.59 2.42 2.42 0 0 0 1.64-.63l.58.83a3.39 3.39 0 0 1-2.35.83 2.91 2.91 0 0 1-3-3 2.94 2.94 0 0 1 2.94-3.08zM440.18 19h3.26a1.54 1.54 0 0 0-1.63-1.53 1.59 1.59 0 0 0-1.63 1.53zm5.99 2.06v-3.35h-1v-1.1h1V15h1.26v1.59h1.17v1.1h-1.17v3c0 .39.19.68.55.68a.78.78 0 0 0 .56-.21l.3 1a1.62 1.62 0 0 1-1.18.37 1.33 1.33 0 0 1-1.49-1.47zm6.7-6.66h3.51a2.51 2.51 0 1 1 0 5h-2.11v3h-1.4zm3.32 1.24h-1.92v2.54h1.92a1.27 1.27 0 1 0 0-2.54zm7.23 6.14a2.44 2.44 0 0 1-1.87.76 1.92 1.92 0 0 1-2-1.92 1.86 1.86 0 0 1 2-1.88 2.37 2.37 0 0 1 1.87.75v-.87c0-.67-.55-1.08-1.35-1.08a2.39 2.39 0 0 0-1.72.73l-.51-.87a3.42 3.42 0 0 1 2.43-.94c1.29 0 2.41.54 2.41 2.1v3.84h-1.26zm0-1.57a1.66 1.66 0 0 0-1.38-.6 1.05 1.05 0 1 0 0 2.07 1.66 1.66 0 0 0 1.38-.6zm3.15.85v-3.35h-1v-1.1h1V15h1.26v1.59H469v1.1h-1.17v3c0 .39.19.68.55.68a.78.78 0 0 0 .56-.21l.3 1a1.62 1.62 0 0 1-1.18.37 1.33 1.33 0 0 1-1.49-1.47zm7.5-2.31c0-.9-.47-1.17-1.18-1.17a2 2 0 0 0-1.49.78v4h-1.25v-8h1.25v3a2.77 2.77 0 0 1 2.06-.94 1.66 1.66 0 0 1 1.87 1.84v4.1h-1.26zm3.54-2.23a.84.84 0 1 1 0 1.68.84.84 0 1 1 0-1.68zm0 4.33a.84.84 0 1 1 0 1.68.84.84 0 1 1 0-1.68zm4.92-1.85h2.88v1h-2.88zm6.93-4.72c2.24 0 3.2 2.11 3.2 4.13s-1 4.13-3.2 4.13-3.2-2.12-3.2-4.13.96-4.13 3.2-4.13zm0 1.25c-1.31 0-1.77 1.35-1.77 2.88s.46 2.89 1.77 2.89 1.78-1.37 1.78-2.89-.47-2.88-1.78-2.88zm4.86 5.32a.84.84 0 1 1-.84.84.85.85 0 0 1 .84-.84zm2.96-.5a2.75 2.75 0 0 0 2.15.95 1.48 1.48 0 0 0 1.65-1.41 1.43 1.43 0 0 0-1.61-1.42 2.4 2.4 0 0 0-1.75.69l-1-.29V14.4H502v1.24h-3.84V18a2.61 2.61 0 0 1 1.81-.7 2.48 2.48 0 0 1 2.55 2.58 2.73 2.73 0 0 1-3 2.71 3.66 3.66 0 0 1-3-1.23zm6.4-3.35a2 2 0 0 0 .87-1.13 1 1 0 0 1-.21 0 .72.72 0 0 1-.72-.75.83.83 0 0 1 .82-.83 1 1 0 0 1 .94 1.09 2.56 2.56 0 0 1-1.13 2.05zm2.22 0a2 2 0 0 0 .87-1.13h-.21a.71.71 0 0 1-.72-.75.83.83 0 0 1 .82-.83 1 1 0 0 1 .93 1.09 2.55 2.55 0 0 1-1.12 2.05z" class="cls-9"/><path d="M512.29 14.87v56.74" class="cls-10"/><path d="M512.29 77.65a30.2 30.2 0 0 0-4.76-8.55l4.76 1.72L517 69.1a30.18 30.18 0 0 0-4.71 8.55zM231 14.27a3.76 3.76 0 0 1 3.23 1.67l-1.15.64a2.55 2.55 0 0 0-2.08-1.06 2.74 2.74 0 0 0-2.76 2.89 2.75 2.75 0 0 0 2.76 2.9 2.92 2.92 0 0 0 1.89-.72v-1.25h-2.38v-1.23h3.79v3a4.36 4.36 0 0 1-3.3 1.45 4.05 4.05 0 0 1-4.2-4.15 4 4 0 0 1 4.2-4.14zm8.67 7.36a2.77 2.77 0 0 1-2 .91 1.64 1.64 0 0 1-1.86-1.83v-4.1H237v3.64c0 .9.45 1.18 1.16 1.18a1.92 1.92 0 0 0 1.49-.76v-4.06h1.26v5.79h-1.26zm3.15-.57v-3.35h-1v-1.1h1V15h1.25v1.59h1.18v1.1h-1.18v3c0 .39.2.68.56.68a.8.8 0 0 0 .56-.21l.3 1a1.65 1.65 0 0 1-1.19.37 1.33 1.33 0 0 1-1.48-1.47zm3.82 0v-3.35h-1v-1.1h1V15h1.26v1.59h1.18v1.1h-1.18v3c0 .39.19.68.55.68a.83.83 0 0 0 .57-.21l.3 1a1.65 1.65 0 0 1-1.19.37 1.33 1.33 0 0 1-1.49-1.47zm6.16-4.6a2.87 2.87 0 0 1 2.85 3.16v.3h-4.47a1.75 1.75 0 0 0 1.82 1.59 2.44 2.44 0 0 0 1.64-.63l.57.83a3.36 3.36 0 0 1-2.35.83 2.91 2.91 0 0 1-3-3 2.93 2.93 0 0 1 2.94-3.08zM251.17 19h3.26a1.55 1.55 0 0 0-1.63-1.53 1.59 1.59 0 0 0-1.63 1.53zm5.73-2.39h1.26v.85a2.48 2.48 0 0 1 1.89-1v1.24a2.25 2.25 0 0 0-.4 0 2 2 0 0 0-1.49.76v3.94h-1.26zm4.81-.09a.84.84 0 0 1 0 1.68.84.84 0 0 1 0-1.68zm0 4.33a.84.84 0 0 1 0 1.68.84.84 0 0 1 0-1.68zm8.29-6.57c2.24 0 3.2 2.11 3.2 4.13s-1 4.13-3.2 4.13-3.2-2.12-3.2-4.13.93-4.13 3.2-4.13zm0 1.25c-1.31 0-1.78 1.35-1.78 2.88s.47 2.89 1.78 2.89 1.77-1.37 1.77-2.89-.49-2.88-1.77-2.88zm4.83 5.32a.84.84 0 1 1-.84.84.85.85 0 0 1 .84-.84zm2.7-4.63l-1.31 1.36-.81-.85 2.3-2.33h1.22v8h-1.4zm2.86 5.08c3.1-2.35 4.31-3.4 4.31-4.55a1.28 1.28 0 0 0-1.45-1.22 2.78 2.78 0 0 0-2.16 1l-.81-.93a3.83 3.83 0 0 1 3-1.28c1.55 0 2.9.88 2.9 2.47s-1.35 2.8-3.5 4.42h3.55v1.19h-5.79zm8.01-.95a2.77 2.77 0 0 0 2.16.95 1.48 1.48 0 0 0 1.64-1.41 1.42 1.42 0 0 0-1.6-1.42 2.38 2.38 0 0 0-1.75.69l-1-.29V14.4h5.24v1.24h-3.84V18a2.65 2.65 0 0 1 1.81-.7 2.48 2.48 0 0 1 2.56 2.58c0 1.67-1.26 2.71-3.05 2.71a3.64 3.64 0 0 1-3-1.23zm6.41-3.35a2 2 0 0 0 .86-1.13.85.85 0 0 1-.2 0 .71.71 0 0 1-.72-.75.83.83 0 0 1 .82-.83 1 1 0 0 1 .93 1.09 2.56 2.56 0 0 1-1.13 2.05zm2.19 0a2 2 0 0 0 .86-1.13.85.85 0 0 1-.2 0 .71.71 0 0 1-.72-.75.82.82 0 0 1 .81-.83 1 1 0 0 1 .94 1.09 2.56 2.56 0 0 1-1.13 2.05zM36.14 0h3a3.91 3.91 0 0 1 4.16 4 3.9 3.9 0 0 1-4.19 4h-3zm3 6.76A2.62 2.62 0 0 0 41.86 4a2.59 2.59 0 0 0-2.75-2.77h-1.57v5.53zm5.12-1.66a3 3 0 1 1 6 0 3 3 0 1 1-6 0zm4.66 0a1.69 1.69 0 1 0-3.35 0 1.69 1.69 0 1 0 3.35 0zm5.22-3.04a2.62 2.62 0 0 1 2.22 1l-.83.77a1.57 1.57 0 0 0-1.33-.68 1.74 1.74 0 0 0-1.75 1.95A1.76 1.76 0 0 0 54.2 7a1.58 1.58 0 0 0 1.33-.69l.83.77a2.62 2.62 0 0 1-2.22 1 2.9 2.9 0 0 1-3-3 2.91 2.91 0 0 1 3-3.02zm7.23 5.17a2.77 2.77 0 0 1-2 .91 1.64 1.64 0 0 1-1.86-1.83v-4.1h1.26v3.64c0 .9.46 1.18 1.17 1.18a1.91 1.91 0 0 0 1.48-.76V2.21h1.26V8h-1.31zm10-3.01c0-.62-.28-1-1-1a1.73 1.73 0 0 0-1.29.78v4h-1.26V4.22c0-.62-.28-1-1-1a1.73 1.73 0 0 0-1.29.78v4h-1.26V2.21h1.26V3a2.49 2.49 0 0 1 1.88-.94A1.51 1.51 0 0 1 69 3.13a2.47 2.47 0 0 1 2-1.07 1.53 1.53 0 0 1 1.67 1.75V8h-1.3zm5.47-2.16a2.87 2.87 0 0 1 2.86 3.16v.3h-4.48a1.76 1.76 0 0 0 1.85 1.59 2.49 2.49 0 0 0 1.64-.63l.58.82a3.35 3.35 0 0 1-2.35.84 2.91 2.91 0 0 1-3-3 2.94 2.94 0 0 1 2.9-3.08zm-1.63 2.57h3.26a1.55 1.55 0 0 0-1.63-1.54 1.6 1.6 0 0 0-1.63 1.54zm9.65-.25c0-.9-.46-1.2-1.17-1.2a1.86 1.86 0 0 0-1.48.82v4H81V2.21h1.26V3a2.7 2.7 0 0 1 2-.94 1.67 1.67 0 0 1 1.87 1.86V8h-1.27zM88 6.66V3.31h-1v-1.1h1V.62h1.26v1.59h1.18v1.1h-1.18v3c0 .4.19.69.55.69a.83.83 0 0 0 .57-.21l.3.95a1.65 1.65 0 0 1-1.19.37A1.33 1.33 0 0 1 88 6.66zM36.14 14.4h3a3.91 3.91 0 0 1 4.19 4 3.9 3.9 0 0 1-4.19 4h-3zm3 6.77a2.63 2.63 0 0 0 2.75-2.76 2.59 2.59 0 0 0-2.75-2.77h-1.6v5.53zm5.33-6.3a.78.78 0 1 1 .78.78.79.79 0 0 1-.78-.78zm.15 1.74h1.26v5.79h-1.26zm9.99 2.01c0-.62-.27-1-.94-1a1.75 1.75 0 0 0-1.35.77v4h-1.26v-3.77c0-.62-.27-1-1-1a1.75 1.75 0 0 0-1.34.78v4h-1.21v-5.79h1.26v.79a2.51 2.51 0 0 1 1.89-.94 1.51 1.51 0 0 1 1.58 1.07 2.46 2.46 0 0 1 2-1.07 1.53 1.53 0 0 1 1.66 1.75v4.19h-1.29zm5.48-2.16a2.87 2.87 0 0 1 2.85 3.16v.3h-4.47a1.76 1.76 0 0 0 1.85 1.59 2.44 2.44 0 0 0 1.68-.63l.58.83a3.39 3.39 0 0 1-2.35.83 2.91 2.91 0 0 1-3-3 2.93 2.93 0 0 1 2.86-3.08zM58.46 19h3.26a1.54 1.54 0 0 0-1.63-1.53A1.59 1.59 0 0 0 58.46 19zm9.64-.22c0-.9-.45-1.2-1.16-1.2a1.9 1.9 0 0 0-1.49.78v4h-1.26v-5.75h1.26v.79a2.74 2.74 0 0 1 2-.94 1.67 1.67 0 0 1 1.87 1.86v4.08H68.1zm2.97 1.95a3 3 0 0 0 2 .82c.75 0 1.14-.28 1.14-.71s-.62-.68-1.32-.84c-1-.21-2.19-.48-2.19-1.77 0-.95.82-1.77 2.28-1.77a3.31 3.31 0 0 1 2.26.82l-.53.89a2.34 2.34 0 0 0-1.72-.7c-.65 0-1.07.24-1.07.65s.57.6 1.25.75c1 .22 2.25.51 2.25 1.88 0 1-.85 1.79-2.41 1.79a3.52 3.52 0 0 1-2.49-.9zm5.44-5.86a.78.78 0 1 1 .78.78.79.79 0 0 1-.78-.78zm.15 1.74h1.26v5.79h-1.26zm2.53 2.89a3 3 0 1 1 6 0 3 3 0 1 1-6 0zm4.66 0a1.69 1.69 0 1 0-3.35 0 1.69 1.69 0 1 0 3.35 0zm6.49-.72c0-.9-.46-1.2-1.16-1.2a1.9 1.9 0 0 0-1.49.78v4h-1.26v-5.75h1.26v.79a2.73 2.73 0 0 1 2-.94 1.67 1.67 0 0 1 1.87 1.86v4.08h-1.22zm2.97 1.95a3 3 0 0 0 2 .82c.76 0 1.14-.28 1.14-.71s-.61-.68-1.32-.84c-1-.21-2.18-.48-2.18-1.77 0-.95.82-1.77 2.28-1.77a3.3 3.3 0 0 1 2.25.82l-.53.89a2.3 2.3 0 0 0-1.71-.7c-.66 0-1.08.24-1.08.65s.58.6 1.26.75c1 .22 2.24.51 2.24 1.88 0 1-.85 1.79-2.41 1.79a3.51 3.51 0 0 1-2.48-.9zm6.23-4.21a.84.84 0 1 1 0 1.68.84.84 0 0 1 0-1.68zm0 4.33a.84.84 0 1 1 0 1.68.84.84 0 0 1 0-1.68zm6.87-2.58a2 2 0 0 1-1.67-1.89c0-1.48 1.51-2.1 2.94-2.1s2.94.62 2.94 2.1a2 2 0 0 1-1.68 1.89 2.35 2.35 0 0 1 1.8 2.08c0 1.43-1.43 2.19-3.06 2.19s-3.07-.75-3.07-2.19a2.35 2.35 0 0 1 1.8-2.08zm1.27.64c-.5.06-1.66.43-1.66 1.26s.75 1.13 1.66 1.13 1.64-.43 1.64-1.13-1.15-1.17-1.64-1.26zm0-3.38c-.88 0-1.52.39-1.52 1.07s1 1 1.52 1.12c.49-.08 1.51-.37 1.51-1.12s-.66-1.07-1.51-1.07zm5.03 5.32a.84.84 0 1 1 0 1.68.84.84 0 1 1 0-1.68zm2.95-.5a2.77 2.77 0 0 0 2.16.95 1.48 1.48 0 0 0 1.64-1.41 1.42 1.42 0 0 0-1.6-1.42 2.42 2.42 0 0 0-1.76.69l-1-.29V14.4h5.24v1.24h-3.84V18a2.65 2.65 0 0 1 1.81-.7 2.48 2.48 0 0 1 2.56 2.58c0 1.67-1.26 2.71-3 2.71a3.62 3.62 0 0 1-3-1.23zm6.41-3.35a2 2 0 0 0 .86-1.13.85.85 0 0 1-.2 0 .71.71 0 0 1-.72-.75.82.82 0 0 1 .81-.83 1 1 0 0 1 .94 1.09 2.56 2.56 0 0 1-1.13 2.05zm2.22 0a2 2 0 0 0 .86-1.13.94.94 0 0 1-.2 0 .71.71 0 0 1-.72-.75.82.82 0 0 1 .81-.83 1 1 0 0 1 .94 1.09 2.56 2.56 0 0 1-1.13 2.05zm8.3 3.27l-1.51 2.13h-1.4l2.12-3-2-2.82h1.41l1.38 2 1.37-2h1.41l-2 2.82 2.14 3h-1.42zm7.54.08a2.77 2.77 0 0 0 2.16.95 1.48 1.48 0 0 0 1.64-1.41 1.42 1.42 0 0 0-1.61-1.42 2.41 2.41 0 0 0-1.75.69l-1-.29V14.4h5.24v1.24H141V18a2.61 2.61 0 0 1 1.81-.7 2.49 2.49 0 0 1 2.56 2.58c0 1.67-1.26 2.71-3 2.71a3.66 3.66 0 0 1-3-1.23zm7.19.5a.84.84 0 1 1 0 1.68.84.84 0 0 1 0-1.68zm2.95-.5a2.77 2.77 0 0 0 2.16.95 1.48 1.48 0 0 0 1.64-1.41 1.42 1.42 0 0 0-1.61-1.42 2.41 2.41 0 0 0-1.75.69l-1-.29V14.4H155v1.24h-3.84V18a2.61 2.61 0 0 1 1.81-.7 2.48 2.48 0 0 1 2.55 2.58c0 1.67-1.25 2.71-3 2.71a3.66 3.66 0 0 1-3-1.23zm6.41-3.35a2 2 0 0 0 .86-1.13.94.94 0 0 1-.2 0 .71.71 0 0 1-.72-.75.82.82 0 0 1 .81-.83 1 1 0 0 1 .94 1.09 2.56 2.56 0 0 1-1.13 2.05zm2.22 0a2 2 0 0 0 .86-1.13.94.94 0 0 1-.2 0 .71.71 0 0 1-.72-.75.82.82 0 0 1 .81-.83 1 1 0 0 1 .94 1.09 2.56 2.56 0 0 1-1.13 2.05z" class="cls-9"/><path d="M223.3 14.87v56.74" class="cls-10"/><path d="M223.3 77.65a30 30 0 0 0-4.76-8.55l4.76 1.72 4.76-1.72a30 30 0 0 0-4.76 8.55zM89.8 461.72a4.14 4.14 0 1 1-4.09 4.14 4 4 0 0 1 4.09-4.14zm0 1.25a2.9 2.9 0 1 0 2.65 2.89A2.65 2.65 0 0 0 89.8 463zm5.71 2.19h-1v-1.1h1v-.33a1.79 1.79 0 0 1 1.84-2 2.07 2.07 0 0 1 1 .23l-.28.92a1 1 0 0 0-.5-.12c-.5 0-.81.32-.81 1v.33H98v1.1h-1.23v4.69h-1.26zm3.7 0h-1v-1.1h1v-.33a1.79 1.79 0 0 1 1.83-2 2 2 0 0 1 1 .23l-.28.92a1 1 0 0 0-.5-.12c-.49 0-.8.32-.8 1v.33h1.17v1.1h-1.17v4.69h-1.25zm3.47 3.02a3 3 0 0 0 2 .82c.76 0 1.14-.28 1.14-.71s-.61-.68-1.32-.84c-1-.21-2.18-.48-2.18-1.77 0-.95.82-1.77 2.28-1.77a3.33 3.33 0 0 1 2.26.82l-.53.89a2.34 2.34 0 0 0-1.72-.7c-.66 0-1.08.24-1.08.65s.58.6 1.26.75c1 .22 2.24.51 2.24 1.87 0 1-.85 1.8-2.41 1.8a3.51 3.51 0 0 1-2.48-.9zm8.17-4.27a2.87 2.87 0 0 1 2.85 3.16v.3h-4.47a1.75 1.75 0 0 0 1.85 1.59 2.49 2.49 0 0 0 1.64-.63l.57.82a3.32 3.32 0 0 1-2.35.84 3 3 0 0 1-.09-6.08zm-1.63 2.57h3.26a1.56 1.56 0 0 0-1.63-1.54 1.6 1.6 0 0 0-1.63 1.54zm5.98 2.03v-3.35h-1v-1.1h1v-1.59h1.26v1.59h1.18v1.1h-1.18v3c0 .4.2.69.56.69a.8.8 0 0 0 .56-.21l.3.95a1.65 1.65 0 0 1-1.19.37 1.33 1.33 0 0 1-1.49-1.45zm6.7-6.66h3.51a2.51 2.51 0 1 1 0 5h-2.11v3h-1.4zm3.32 1.23h-1.92v2.55h1.92a1.28 1.28 0 1 0 0-2.55zm7.24 6.15a2.44 2.44 0 0 1-1.87.76 1.92 1.92 0 0 1-2-1.92 1.87 1.87 0 0 1 2-1.88 2.37 2.37 0 0 1 1.87.75v-.87c0-.67-.55-1.08-1.36-1.08a2.37 2.37 0 0 0-1.71.73l-.52-.87a3.43 3.43 0 0 1 2.44-.94c1.28 0 2.41.54 2.41 2.1v3.84h-1.26zm0-1.57a1.7 1.7 0 0 0-1.38-.61 1.06 1.06 0 1 0 0 2.08 1.69 1.69 0 0 0 1.38-.6zm3.14.85v-3.35h-.95v-1.1h.95v-1.59h1.26v1.59H138v1.1h-1.18v3c0 .4.2.69.55.69a.83.83 0 0 0 .57-.21l.3.95a1.65 1.65 0 0 1-1.19.37 1.33 1.33 0 0 1-1.45-1.45zm7.5-2.31c0-.9-.47-1.17-1.17-1.17a1.93 1.93 0 0 0-1.49.78v4h-1.26v-8h1.26v3a2.75 2.75 0 0 1 2.05-.94 1.65 1.65 0 0 1 1.87 1.84v4.1h-1.26zm3.54-2.2a.84.84 0 1 1-.84.84.85.85 0 0 1 .84-.84zm0 4.33a.84.84 0 1 1-.84.84.85.85 0 0 1 .84-.87zm4.92-1.92h2.88v1.08h-2.88zm6.94-4.68c2.24 0 3.2 2.11 3.2 4.13s-1 4.13-3.2 4.13-3.2-2.12-3.2-4.13.95-4.13 3.2-4.13zm0 1.25c-1.31 0-1.78 1.35-1.78 2.88s.47 2.89 1.78 2.89 1.77-1.37 1.77-2.89-.47-2.86-1.77-2.86zm4.86 5.32a.84.84 0 0 1 0 1.68.84.84 0 1 1 0-1.68zm2.08.45c3.1-2.35 4.31-3.4 4.31-4.55a1.28 1.28 0 0 0-1.45-1.2 2.78 2.78 0 0 0-2.16 1l-.81-.93a3.82 3.82 0 0 1 2.95-1.28c1.54 0 2.9.88 2.9 2.47s-1.36 2.8-3.5 4.41h3.55v1.24h-5.79zm8.01-.95a2.77 2.77 0 0 0 2.16.95 1.48 1.48 0 0 0 1.64-1.41 1.42 1.42 0 0 0-1.6-1.42 2.42 2.42 0 0 0-1.76.69l-1-.29v-4.47h5.24v1.23h-3.83v2.32a2.65 2.65 0 0 1 1.81-.7 2.48 2.48 0 0 1 2.56 2.58c0 1.67-1.26 2.71-3 2.71a3.62 3.62 0 0 1-3-1.23zm6.41-3.4a2 2 0 0 0 .86-1.12.85.85 0 0 1-.2 0 .71.71 0 0 1-.72-.75.82.82 0 0 1 .81-.83 1 1 0 0 1 .94 1.09 2.57 2.57 0 0 1-1.13 2.05zm2.22 0a2 2 0 0 0 .86-1.12.94.94 0 0 1-.2 0 .71.71 0 0 1-.72-.75.82.82 0 0 1 .81-.83 1 1 0 0 1 .94 1.09 2.57 2.57 0 0 1-1.13 2.05z" class="cls-9"/><path d="M81.29 469.85v-36.46" class="cls-10"/><path d="M81.29 427.35A30.31 30.31 0 0 0 86 435.9l-4.75-1.72-4.76 1.72a30.34 30.34 0 0 0 4.8-8.55z" class="cls-9"/><path d="M62.13 130.67a8.12 8.12 0 0 1-6.29 3c-5.24 0-9.42-4-9.42-11.18 0-7 4.1-11.13 9.42-11.13a7.87 7.87 0 0 1 6.29 3v-10.58h6.74v29.35h-6.74zm0-11.44a5.52 5.52 0 0 0-4.09-1.9c-2.68 0-4.66 2-4.66 5.15s2 5.2 4.66 5.2a5.6 5.6 0 0 0 4.09-1.94zm9.42 3.25c0-6 4.35-11.13 11.57-11.13s11.62 5.15 11.62 11.13-4.31 11.18-11.62 11.18-11.57-5.19-11.57-11.18zm16.24 0c0-2.81-1.68-5.15-4.67-5.15s-4.58 2.34-4.58 5.15 1.63 5.2 4.58 5.2 4.67-2.34 4.67-5.2zm24.9-1.62c0-2.6-1.36-3.53-3.48-3.53a5.23 5.23 0 0 0-4.13 2.07v13.73H98.3v-21.25h6.78v2.59a9.61 9.61 0 0 1 7.35-3.12c4.84 0 7 2.82 7 6.73v15h-6.78zm10.95-5.77a8.36 8.36 0 0 0 3.74-4.22 3.19 3.19 0 0 1-1 .17 3.44 3.44 0 0 1-3.43-3.65 4.07 4.07 0 0 1 4-4c2.37 0 4.49 1.85 4.49 5.11a11.06 11.06 0 0 1-5 8.93zm13.2 12.32v-9.64h-3.52v-5.89h3.52v-5.81h6.74v5.81h4.31v5.89h-4.31v7.75a1.93 1.93 0 0 0 1.89 2.16 2.66 2.66 0 0 0 1.72-.53l1.32 5.1c-.84.79-2.51 1.41-5 1.41-4.33 0-6.67-2.16-6.67-6.25zm27.16 0v-9.64h-3.52v-5.89H164v-5.81h6.73v5.81H175v5.89h-4.31v7.75a1.93 1.93 0 0 0 1.89 2.16 2.66 2.66 0 0 0 1.72-.53l1.32 5.1c-.84.79-2.51 1.41-5 1.41-4.34 0-6.62-2.16-6.62-6.25zm23.18-.7l-4.18 6.42h-7.39l7.26-10.91-6.82-10.34h7.44l3.65 5.76 3.61-5.76h7.44l-6.78 10.34 7.26 10.91h-7.44zm15.13.7v-9.64h-3.52v-5.89h3.52v-5.81h6.74v5.81h4.31v5.89h-4.31v7.75a1.93 1.93 0 0 0 1.89 2.16 2.61 2.61 0 0 0 1.71-.53l1.33 5.1c-.84.79-2.51 1.41-5 1.41-4.33 0-6.67-2.16-6.67-6.25zm36.61 1.59h-4.44v-8.71h-7.66v-4h7.66v-8.41h4.44v8.41h7.66v4h-7.66zm36.96 1.67a8.12 8.12 0 0 1-6.29 3c-5.24 0-9.42-4-9.42-11.18 0-7 4.09-11.13 9.42-11.13a7.87 7.87 0 0 1 6.29 3v-10.58h6.73v29.35h-6.73zm0-11.44a5.52 5.52 0 0 0-4.09-1.9c-2.68 0-4.67 2-4.67 5.15s2 5.2 4.67 5.2a5.6 5.6 0 0 0 4.09-1.94zm11.7-7.35h6.78v2.68a9.29 9.29 0 0 1 6.65-3.21v6.56a5.29 5.29 0 0 0-1.68-.22c-1.76 0-4.09.74-5 2v13.46h-6.78zm13.6 0h7.13l4.8 13.46 4.89-13.46h7.17l-8.36 21.25h-7.22z" class="cls-6"/><path d="M45.37 133.13H327.1" class="cls-7"/><use width="3.88" height="3.88" transform="matrix(1.25 0 0 1.25 42.94 130.71)" xlink:href="#New_Symbol"/><path d="M411.14 359.12h84.21" class="cls-7"/><use width="3.88" height="3.88" transform="matrix(1.25 0 0 1.25 408.72 356.69)" xlink:href="#New_Symbol"/><path d="M411.14 383.17h131.25" class="cls-7"/><path d="M414.29 353.19h-2.11v-.74h5.06v.74h-2.12v5.93h-.83zm6.09 5.38a2.09 2.09 0 0 1-1.6.67 1.61 1.61 0 0 1-1.69-1.6 1.58 1.58 0 0 1 1.69-1.59 2 2 0 0 1 1.6.66v-.87c0-.65-.52-1-1.22-1a1.92 1.92 0 0 0-1.48.67l-.35-.52a2.53 2.53 0 0 1 1.93-.8c1 0 1.87.46 1.87 1.63v3.32h-.75zm0-1.38a1.62 1.62 0 0 0-1.33-.6 1.06 1.06 0 1 0 0 2.11 1.62 1.62 0 0 0 1.33-.6zm3.8-.19l-.8.79v1.38h-.75v-6.67h.75v4.41l2.54-2.57h.95l-2.14 2.19 2.15 2.64h-1zm5.46-2.83a2.35 2.35 0 0 1 2.32 2.59v.24h-3.91a1.7 1.7 0 0 0 1.74 1.67 2.11 2.11 0 0 0 1.49-.61l.36.49a2.62 2.62 0 0 1-1.92.74 2.54 2.54 0 0 1-.08-5.07zm-1.59 2.23h3.17a1.57 1.57 0 0 0-1.59-1.61 1.61 1.61 0 0 0-1.58 1.61zm7.85 1.71V355h-.8v-.66h.8V353h.75v1.32h1v.68h-1v3c0 .36.16.62.49.62a.72.72 0 0 0 .51-.2l.22.56a1.23 1.23 0 0 1-.9.31 1 1 0 0 1-1.07-1.18zm6.1-2.17c0-.85-.44-1.1-1.09-1.1a1.9 1.9 0 0 0-1.43.75v3.53h-.75v-6.67h.75V355a2.4 2.4 0 0 1 1.73-.82 1.36 1.36 0 0 1 1.54 1.54v3.41H442zm4.31-1.77a2.35 2.35 0 0 1 2.32 2.59v.24h-3.91a1.7 1.7 0 0 0 1.74 1.67A2.11 2.11 0 0 0 448 358l.36.49a2.62 2.62 0 0 1-1.92.74 2.54 2.54 0 0 1-.08-5.07zm-1.59 2.23h3.17a1.57 1.57 0 0 0-1.59-1.61 1.61 1.61 0 0 0-1.58 1.61zm7.7 4.6v-6.67h.75v.67a2 2 0 0 1 1.63-.84c1.27 0 2.15 1 2.15 2.53s-.88 2.54-2.15 2.54a2 2 0 0 1-1.63-.85V361zm2.19-6.12a1.79 1.79 0 0 0-1.44.77v2.18a1.79 1.79 0 0 0 1.44.78c1 0 1.55-.8 1.55-1.87s-.58-1.9-1.55-1.9zm3.55-2.43h.75v6.67h-.75zm4.35 1.72a2.35 2.35 0 0 1 2.32 2.59v.24h-3.91a1.7 1.7 0 0 0 1.74 1.67 2.11 2.11 0 0 0 1.49-.61l.36.49a2.62 2.62 0 0 1-1.92.74 2.54 2.54 0 0 1-.08-5.07zm-1.59 2.23h3.17a1.57 1.57 0 0 0-1.59-1.61 1.61 1.61 0 0 0-1.58 1.61zm8.62 2a2 2 0 0 1-1.63.84c-1.26 0-2.15-1-2.15-2.53s.88-2.54 2.15-2.54a2 2 0 0 1 1.63.85v-2.57h.75v6.67h-.75zm0-2.78a1.81 1.81 0 0 0-1.45-.78c-1 0-1.55.8-1.55 1.87s.58 1.86 1.55 1.86a1.8 1.8 0 0 0 1.45-.76zm2.62 4.18a1.84 1.84 0 0 0 1.57.66 1.38 1.38 0 0 0 1.55-1.45v-.69a2 2 0 0 1-1.62.86 2.2 2.2 0 0 1-2.15-2.5c0-1.55.88-2.51 2.15-2.51a2 2 0 0 1 1.62.85v-.73h.72V359c0 1.6-1.12 2.1-2.3 2.1a2.47 2.47 0 0 1-2-.72zm3.12-4.18a1.78 1.78 0 0 0-1.44-.78c-1 0-1.55.77-1.55 1.84s.58 1.84 1.55 1.84a1.79 1.79 0 0 0 1.44-.79zm4.35-1.45a2.35 2.35 0 0 1 2.32 2.59v.24H478a1.7 1.7 0 0 0 1.74 1.67 2.11 2.11 0 0 0 1.49-.61l.36.49a2.62 2.62 0 0 1-1.92.74 2.54 2.54 0 0 1-.08-5.07zM478 356.4h3.17a1.57 1.57 0 0 0-1.59-1.61 1.61 1.61 0 0 0-1.58 1.61zm10.76 2.17a2.09 2.09 0 0 1-1.6.67 1.61 1.61 0 0 1-1.69-1.6 1.58 1.58 0 0 1 1.69-1.59 2 2 0 0 1 1.6.66v-.87c0-.65-.52-1-1.22-1a1.92 1.92 0 0 0-1.48.67l-.35-.52a2.53 2.53 0 0 1 1.93-.8c1 0 1.87.46 1.87 1.63v3.32h-.75zm0-1.38a1.62 1.62 0 0 0-1.33-.6 1.06 1.06 0 1 0 0 2.11 1.62 1.62 0 0 0 1.33-.6zm2.4.92V355h-.8v-.66h.8V353h.75v1.32h1v.68h-1v3c0 .36.16.62.49.62a.72.72 0 0 0 .51-.2l.22.56a1.23 1.23 0 0 1-.9.31 1 1 0 0 1-1.07-1.18zM412.94 368a2.12 2.12 0 1 1 2.12 2.11 2.1 2.1 0 0 1-2.12-2.11zm.27 3.58h3.69v11.59h-3.69zM423.29 383c0 2.81-1.39 4.8-4.49 4.8a7.12 7.12 0 0 1-1.32-.09l.1-3a2.77 2.77 0 0 0 .62 0c.84 0 1.39-.56 1.39-1.76v-11.42h3.7zm-4-15.07a2.11 2.11 0 1 1 2.11 2.11 2.09 2.09 0 0 1-2.07-2.04zm14.51 13.8a5.29 5.29 0 0 1-4 1.68c-2.64 0-3.81-1.49-3.81-3.63v-8.25h3.69v6.74c0 1.39.72 1.87 1.92 1.87a2.74 2.74 0 0 0 2.2-1.14v-7.48h3.7v11.59h-3.7zm6.94-2.64a7.26 7.26 0 0 0 4.08 1.53c1.1 0 1.56-.36 1.56-.86s-.8-.82-2-1c-2-.33-4.75-.74-4.75-3.7 0-2 1.75-3.81 5-3.81a8.19 8.19 0 0 1 4.85 1.53l-1.48 2.44a5.17 5.17 0 0 0-3.41-1.27c-.86 0-1.46.29-1.46.79s.62.72 1.85.94c2 .33 4.89.81 4.89 3.89 0 2.21-1.94 3.84-5.28 3.84a8.63 8.63 0 0 1-5.42-1.78zm11.83.91v-5.26h-1.92v-3.21h1.92v-3.17h3.67v3.17h2.35v3.21h-2.35V379a1 1 0 0 0 1 1.17 1.41 1.41 0 0 0 .94-.29l.72 2.79a4.06 4.06 0 0 1-2.74.77c-2.32-.03-3.59-1.21-3.59-3.44zm15.67 1.78a4.44 4.44 0 0 1-3.43 1.63c-2.86 0-5.14-2.16-5.14-6.1s2.23-6.07 5.14-6.07a4.31 4.31 0 0 1 3.43 1.65v-5.78h3.67v16h-3.67zm0-6.25a3 3 0 0 0-2.23-1 2.83 2.83 0 0 0 0 5.64 3.05 3.05 0 0 0 2.23-1.05zm6.38-4h3.7V373a5 5 0 0 1 3.62-1.75v3.57a3 3 0 0 0-.91-.12 3.69 3.69 0 0 0-2.71 1.08v7.35h-3.7zm8.74-3.53a2.11 2.11 0 1 1 2.11 2.11 2.1 2.1 0 0 1-2.11-2.11zm.26 3.58h3.7v11.59h-3.7zm4.8-.05h3.89l2.62 7.34 2.64-7.34h3.91l-4.56 11.59H493zm19.58-.29c3.43 0 5.93 2.52 5.93 6.45v.8h-8.26a2.77 2.77 0 0 0 3 2.06 4.63 4.63 0 0 0 2.83-1l1.56 2.3a7.57 7.57 0 0 1-4.85 1.54c-3.58 0-6.34-2.33-6.34-6.1a6 6 0 0 1 6.13-6.05zm-2.37 4.85h4.77a2.22 2.22 0 0 0-2.4-2 2.28 2.28 0 0 0-2.39 2zm11.52 4.63a1.32 1.32 0 1 1-1.32 1.32 1.33 1.33 0 0 1 1.32-1.32zm9.5-9.48a5 5 0 0 1 4.25 2l-1.2 1.11a3.42 3.42 0 0 0-3-1.51c-2.47 0-4 1.89-4 4.46s1.54 4.49 4 4.49a3.5 3.5 0 0 0 3-1.51l1.2 1.1a5 5 0 0 1-4.25 2c-3.45 0-5.78-2.64-5.78-6.1a5.73 5.73 0 0 1 5.78-6.04zm14.02 10.56a5 5 0 0 1-3.84 1.61 3.86 3.86 0 0 1-4.06-3.84 3.8 3.8 0 0 1 4.06-3.82 4.85 4.85 0 0 1 3.84 1.58v-2.08c0-1.56-1.25-2.45-2.93-2.45a4.58 4.58 0 0 0-3.55 1.61l-.84-1.25a6.06 6.06 0 0 1 4.63-1.92c2.45 0 4.49 1.1 4.49 3.91v8h-1.8zm0-3.31a3.89 3.89 0 0 0-3.19-1.44 2.55 2.55 0 1 0 0 5.06 3.89 3.89 0 0 0 3.19-1.44z" class="cls-6"/><use width="3.88" height="3.88" transform="matrix(1.25 0 0 1.25 225.86 290.78)" xlink:href="#New_Symbol"/><use width="3.88" height="3.88" transform="matrix(1.25 0 0 1.25 582.86 184.69)" xlink:href="#New_Symbol"/><use width="3.88" height="3.88" transform="matrix(1.25 0 0 1.25 582.86 160.24)" xlink:href="#New_Symbol"/><use width="3.88" height="3.88" transform="matrix(1.25 0 0 1.25 582.86 190.17)" xlink:href="#New_Symbol"/><use width="3.88" height="3.88" transform="matrix(1.25 0 0 1.25 582.86 290.78)" xlink:href="#New_Symbol"/><use width="3.88" height="3.88" transform="matrix(1.25 0 0 1.25 226.05 184.72)" xlink:href="#New_Symbol"/><use width="3.88" height="3.88" transform="matrix(1.25 0 0 1.25 226.05 160.27)" xlink:href="#New_Symbol"/><use width="3.88" height="3.88" transform="matrix(1.25 0 0 1.25 226.05 190.2)" xlink:href="#New_Symbol"/><path d="M9.29 44.86h612v396h-612z" class="cls-11"/></g></g></svg>