<svg xmlns="http://www.w3.org/2000/svg" xmlns:xlink="http://www.w3.org/1999/xlink" width="9in" height="6.9in" viewBox="0 0 647.4 493.4"><defs><symbol id="a" viewBox="0 0 3.9 3.9"><path fill="#fff" stroke="#6dcff6" stroke-miterlimit="10" d="M.5.5h2.9v2.88H.5z"/></symbol></defs><path fill="#fd0" d="M6.5 44.4h630v414H6.5z"/><path fill="none" stroke="#ed1c24" stroke-width=".57" d="M6.5 44.4h630v414H6.5z"/><rect width="360" height="576" x="141.5" y="-36.6" fill="none" stroke="#231f20" stroke-width="6.32" rx="20.3" transform="rotate(90 321.45 251.35)"/><path fill="none" stroke="#ec008c" d="M51.5 89.4h174v324h-174zm183 0h174v324h-174zm183 0h174v324h-174z"/><path fill="#231f20" d="M238.8 204.3h-2.1v-.7h5.1v.7h-2.1v6h-.9zm5 1a2.3 2.3 0 0 1 2.3 2.6v.2h-3.9a1.8 1.8 0 0 0 1.8 1.7 1.8 1.8 0 0 0 1.4-.6l.4.5a2.9 2.9 0 0 1-1.9.7 2.4 2.4 0 0 1-2.5-2.5 2.5 2.5 0 0 1 2.4-2.6zm-1.6 2.3h3.2a1.6 1.6 0 0 0-1.6-1.7 1.7 1.7 0 0 0-1.6 1.7zm6.5.7l-1.5 2h-.8l1.8-2.5-1.7-2.4h.9l1.3 1.9 1.3-1.9h.9l-1.7 2.4 1.8 2.5h-.9zm3.3 1v-3.2h-.8v-.7h.8v-1.3h.8v1.3h1v.7h-1v3c0 .4.1.6.5.6l.5-.2.2.6a1.2 1.2 0 0 1-.9.3 1 1 0 0 1-1.1-1.1zm2.7-5.2a.5.5 0 1 1 .5.5.5.5 0 0 1-.5-.5zm.1 1.3h.8v4.9h-.8zm5.5 1.7a1 1 0 0 0-1.1-1.1 2.3 2.3 0 0 0-1.4.7v3.6h-.7v-4.9h.7v.7a2.5 2.5 0 0 1 1.7-.8 1.4 1.4 0 0 1 1.6 1.6v3.4h-.8zm2.6 3.9a2.1 2.1 0 0 0 1.6.6 1.4 1.4 0 0 0 1.6-1.4v-.7a2.1 2.1 0 0 1-1.7.8c-1.2 0-2.1-.9-2.1-2.5a2.2 2.2 0 0 1 2.1-2.5 2 2 0 0 1 1.7.9v-.8h.7v4.7c0 1.6-1.1 2.1-2.3 2.1a2.2 2.2 0 0 1-1.9-.7zm3.2-4.2a2 2 0 0 0-1.5-.8 1.6 1.6 0 0 0-1.5 1.8c0 1.1.6 1.9 1.5 1.9a2 2 0 0 0 1.5-.8zm7.7-.4l-1.2 3.9h-.8l-1.5-4.9h.7l1.2 3.9 1.3-3.9h.6l1.3 3.9 1.2-3.9h.8l-1.6 4.9h-.7zm7.7.7c0-.9-.4-1.1-1.1-1.1a2.1 2.1 0 0 0-1.4.7v3.6h-.8v-6.7h.8v2.5a2.3 2.3 0 0 1 1.7-.8 1.4 1.4 0 0 1 1.6 1.6v3.4h-.8zm2.1-3a.5.5 0 0 1 .5-.5.5.5 0 0 1 0 1 .5.5 0 0 1-.5-.5zm.2 1.3h.7v4.9h-.7zm2.2-1.8h.8v6.7h-.8zm4.4 1.7a2.4 2.4 0 0 1 2.3 2.6v.2h-3.9a1.7 1.7 0 0 0 1.7 1.7 2 2 0 0 0 1.5-.6l.4.5a3.2 3.2 0 0 1-2 .7 2.3 2.3 0 0 1-2.4-2.5 2.5 2.5 0 0 1 2.4-2.6zm-1.6 2.3h3.1a1.6 1.6 0 0 0-1.6-1.7 1.6 1.6 0 0 0-1.5 1.7zm11.2 2a2.5 2.5 0 0 1-1.7.8 2.2 2.2 0 0 1-2.1-2.5c0-1.6.9-2.6 2.1-2.6a2 2 0 0 1 1.7.9v-2.6h.7v6.7h-.7zm0-2.8a2 2 0 0 0-1.5-.8c-1 0-1.5.8-1.5 1.9s.5 1.8 1.5 1.8a2 2 0 0 0 1.5-.7zm2.2-1.4h.8v.8a2 2 0 0 1 1.6-.9v.8h-.3a1.7 1.7 0 0 0-1.3.8v3.4h-.8zm3.2-1.3a.5.5 0 1 1 .5.5.5.5 0 0 1-.5-.5zm.1 1.3h.8v4.9h-.8zm1.5 0h.9l1.6 4 1.6-4h.8l-2 4.9h-.8zm5.5-1.3a.5.5 0 0 1 .5-.5.5.5 0 0 1 0 1 .5.5 0 0 1-.5-.5zm.2 1.3h.7v4.9h-.7zm5.5 1.7a1 1 0 0 0-1.1-1.1 1.9 1.9 0 0 0-1.4.7v3.6h-.8v-4.9h.8v.7a2.3 2.3 0 0 1 1.7-.8c1 0 1.5.5 1.5 1.6v3.4h-.7zm2.6 3.9a2.1 2.1 0 0 0 1.6.6 1.3 1.3 0 0 0 1.5-1.4v-.7a1.8 1.8 0 0 1-1.6.8 2.2 2.2 0 0 1-2.2-2.5 2.2 2.2 0 0 1 2.2-2.5 1.9 1.9 0 0 1 1.6.9v-.8h.8v4.7a2 2 0 0 1-2.3 2.1 2.4 2.4 0 0 1-2-.7zm3.1-4.2a1.7 1.7 0 0 0-1.4-.8 1.6 1.6 0 0 0-1.6 1.8c0 1.1.6 1.9 1.6 1.9a1.7 1.7 0 0 0 1.4-.8zm8.1.3c0-.9-.4-1.1-1.1-1.1a2.1 2.1 0 0 0-1.4.7v3.6h-.8v-6.7h.8v2.5a2.3 2.3 0 0 1 1.7-.8 1.4 1.4 0 0 1 1.6 1.6v3.4h-.8zm5.3 2.6a2 2 0 0 1-1.6.7 1.7 1.7 0 0 1-1.7-1.6 1.6 1.6 0 0 1 1.7-1.6 2 2 0 0 1 1.6.7v-.9c0-.7-.5-1-1.2-1a2 2 0 0 0-1.5.6l-.4-.5a3 3 0 0 1 2-.8 1.6 1.6 0 0 1 1.8 1.7v3.3h-.7zm0-1.4a1.6 1.6 0 0 0-1.3-.6 1.1 1.1 0 1 0 0 2.2 1.6 1.6 0 0 0 1.3-.6zm2.2.8a2 2 0 0 0 1.6.7c.7 0 1.1-.3 1.1-.8s-.6-.7-1.2-.9-1.8-.4-1.8-1.4a1.6 1.6 0 0 1 1.8-1.4 2.3 2.3 0 0 1 1.8.7l-.3.5a2.1 2.1 0 0 0-1.5-.6c-.6 0-1 .3-1 .8s.5.6 1.2.7 1.8.5 1.8 1.5-.7 1.5-1.9 1.5a2.4 2.4 0 0 1-2-.8zm7.3-5.5h.7v2.6a1.9 1.9 0 0 1 1.6-.9c1.3 0 2.2 1 2.2 2.6a2.2 2.2 0 0 1-2.2 2.5 2.5 2.5 0 0 1-1.6-.8v.7h-.7zm2.2 6.1a1.6 1.6 0 0 0 1.5-1.8c0-1.1-.6-1.9-1.5-1.9a2 2 0 0 0-1.5.8v2.2a2 2 0 0 0 1.5.7zm5.6-4.4a2.3 2.3 0 0 1 2.3 2.6v.2H353a1.8 1.8 0 0 0 1.8 1.7 2.2 2.2 0 0 0 1.5-.6l.3.5a2.9 2.9 0 0 1-1.9.7 2.4 2.4 0 0 1-2.5-2.5 2.5 2.5 0 0 1 2.4-2.6zm-1.6 2.3h3.2a1.6 1.6 0 0 0-1.6-1.7 1.7 1.7 0 0 0-1.6 1.7zm7.3-2.3a1.8 1.8 0 0 1 1.7.9l-.5.4a1.4 1.4 0 0 0-1.2-.6 1.7 1.7 0 0 0-1.7 1.9 1.7 1.7 0 0 0 1.7 1.8 1.4 1.4 0 0 0 1.2-.6l.5.5a2 2 0 0 1-1.7.8 2.3 2.3 0 0 1-2.4-2.5 2.4 2.4 0 0 1 2.4-2.6zm2.5 2.6a2.4 2.4 0 1 1 4.8 0 2.4 2.4 0 1 1-4.8 0zm4 0a1.6 1.6 0 1 0-3.2 0 1.6 1.6 0 1 0 3.2 0zm7.8-.9c0-.6-.2-1-.8-1a1.9 1.9 0 0 0-1.3.7v3.6h-.8V207c0-.6-.2-1-.9-1a1.6 1.6 0 0 0-1.2.7v3.6h-.8v-4.9h.8v.7a2 2 0 0 1 1.5-.8 1.2 1.2 0 0 1 1.3.9 2.2 2.2 0 0 1 1.6-.9c.9 0 1.4.5 1.4 1.5v3.5h-.8zm4.4-1.7a2.3 2.3 0 0 1 2.3 2.6v.2h-3.9a1.8 1.8 0 0 0 1.7 1.7 1.9 1.9 0 0 0 1.5-.6l.4.5a2.9 2.9 0 0 1-1.9.7 2.4 2.4 0 0 1-2.5-2.5 2.5 2.5 0 0 1 2.4-2.6zm-1.6 2.3h3.2a1.6 1.6 0 0 0-1.6-1.7 1.7 1.7 0 0 0-1.6 1.7zm7.9 1.7v-3.2h-.8v-.7h.8v-1.3h.7v1.3h1v.7h-1v3c0 .4.2.6.5.6l.5-.2.2.6a1.1 1.1 0 0 1-.9.3c-.7 0-1-.4-1-1.1zm6-2.2c0-.9-.4-1.1-1.1-1.1a2.1 2.1 0 0 0-1.4.7v3.6h-.8v-6.7h.8v2.5a2.3 2.3 0 0 1 1.7-.8 1.4 1.4 0 0 1 1.6 1.6v3.4h-.8zm4.4-1.8a2.4 2.4 0 0 1 2.3 2.6v.2h-3.9a1.7 1.7 0 0 0 1.7 1.7 2 2 0 0 0 1.5-.6l.4.5a3.2 3.2 0 0 1-2 .7 2.3 2.3 0 0 1-2.4-2.5 2.5 2.5 0 0 1 2.4-2.6zm-1.6 2.3h3.1a1.5 1.5 0 0 0-1.5-1.7 1.6 1.6 0 0 0-1.6 1.7zm-153.7 11.5a1 1 0 0 0-1.1-1.1 2.1 2.1 0 0 0-1.4.7v3.6h-.7v-4.9h.7v.7a2.3 2.3 0 0 1 1.7-.8 1.4 1.4 0 0 1 1.6 1.6v3.4h-.8zm5.5 2.5a2.3 2.3 0 0 1-1.7.8 1.3 1.3 0 0 1-1.5-1.5v-3.5h.7v3.2c0 .9.4 1.1 1.1 1.1a1.7 1.7 0 0 0 1.4-.7v-3.6h.8v4.9h-.8zm8.1-2.6c0-.6-.3-1-.9-1a2.1 2.1 0 0 0-1.3.7v3.6h-.7V219c0-.6-.3-1-.9-1a2.1 2.1 0 0 0-1.3.7v3.6h-.7v-4.9h.7v.7a2.2 2.2 0 0 1 1.6-.8 1.3 1.3 0 0 1 1.3.9 2.2 2.2 0 0 1 1.6-.9c.9 0 1.4.5 1.4 1.5v3.5h-.8zm2.3-3.4h.7v2.6a1.9 1.9 0 0 1 1.6-.9c1.3 0 2.2 1 2.2 2.6a2.2 2.2 0 0 1-2.2 2.5 2.5 2.5 0 0 1-1.6-.8v.7h-.7zm2.1 6.1a1.6 1.6 0 0 0 1.6-1.8c0-1.1-.6-1.9-1.6-1.9a2 2 0 0 0-1.4.8v2.2a1.9 1.9 0 0 0 1.4.7zm5.7-4.4a2.3 2.3 0 0 1 2.3 2.6v.2h-3.9a1.8 1.8 0 0 0 1.8 1.7 1.8 1.8 0 0 0 1.4-.6l.4.5a2.9 2.9 0 0 1-1.9.7 2.4 2.4 0 0 1-2.5-2.5 2.5 2.5 0 0 1 2.4-2.6zm-1.6 2.3h3.2a1.6 1.6 0 0 0-1.6-1.7 1.7 1.7 0 0 0-1.6 1.7zm5.1-2.2h.8v.8a2 2 0 0 1 1.6-.9v.8h-.3a1.7 1.7 0 0 0-1.3.8v3.4h-.8zm5.6 2.5a2.5 2.5 0 0 1 2.4-2.6 2.4 2.4 0 0 1 2.4 2.6 2.3 2.3 0 0 1-2.4 2.5 2.4 2.4 0 0 1-2.4-2.5zm4 0c0-1-.5-1.9-1.6-1.9a1.7 1.7 0 0 0-1.6 1.9 1.7 1.7 0 0 0 1.6 1.8 1.6 1.6 0 0 0 1.6-1.8zm5.3-.8a1 1 0 0 0-1.1-1.1 2.1 2.1 0 0 0-1.4.7v3.6h-.8v-4.9h.8v.7a2.3 2.3 0 0 1 1.7-.8c1 0 1.5.5 1.5 1.6v3.4h-.7zm4.3-1.8a2.4 2.4 0 0 1 2.4 2.6v.2h-3.9a1.7 1.7 0 0 0 1.7 1.7 2.2 2.2 0 0 0 1.5-.6l.3.5a2.7 2.7 0 0 1-1.9.7 2.3 2.3 0 0 1-2.4-2.5 2.5 2.5 0 0 1 2.3-2.6zm-1.5 2.3h3.1a1.6 1.6 0 0 0-1.6-1.7 1.6 1.6 0 0 0-1.5 1.7zm11.2 2a2.5 2.5 0 0 1-1.7.8 2.2 2.2 0 0 1-2.1-2.5c0-1.6.9-2.6 2.1-2.6a2 2 0 0 1 1.7.9v-2.6h.7v6.7h-.7zm0-2.8a2 2 0 0 0-1.5-.8c-1 0-1.5.8-1.5 1.9s.5 1.8 1.5 1.8a2 2 0 0 0 1.5-.7zm2.2-1.4h.8v.8a1.9 1.9 0 0 1 1.6-.9v.8h-.3a1.7 1.7 0 0 0-1.3.8v3.4h-.8zm3.2-1.3a.5.5 0 1 1 .5.5.5.5 0 0 1-.5-.5zm.1 1.3h.8v4.9h-.8zm1.5 0h.8l1.7 4 1.6-4h.8l-2 4.9h-.9zm5.5-1.3a.5.5 0 0 1 .5-.5.5.5 0 0 1 0 1 .5.5 0 0 1-.5-.5zm.2 1.3h.7v4.9h-.7zm5.5 1.7a1 1 0 0 0-1.1-1.1 1.9 1.9 0 0 0-1.4.7v3.6h-.8v-4.9h.8v.7a2.3 2.3 0 0 1 1.7-.8c1 0 1.5.5 1.5 1.6v3.4h-.7zm2.6 3.9a2.1 2.1 0 0 0 1.6.6 1.3 1.3 0 0 0 1.5-1.4v-.7a1.8 1.8 0 0 1-1.6.8 2.2 2.2 0 0 1-2.2-2.5 2.2 2.2 0 0 1 2.2-2.5 1.9 1.9 0 0 1 1.6.9v-.8h.8v4.7a2 2 0 0 1-2.3 2.1 2.4 2.4 0 0 1-2-.7zm3.1-4.2a1.8 1.8 0 0 0-1.4-.8 1.6 1.6 0 0 0-1.6 1.8c0 1.1.6 1.9 1.6 1.9a1.8 1.8 0 0 0 1.4-.8zm8.3 2.8a2.1 2.1 0 0 1-1.6.8c-1.3 0-2.1-1-2.1-2.5s.8-2.6 2.1-2.6a1.8 1.8 0 0 1 1.6.9v-2.6h.8v6.7h-.8zm0-2.8a1.7 1.7 0 0 0-1.4-.8c-1 0-1.6.8-1.6 1.9a1.6 1.6 0 0 0 1.6 1.8 1.6 1.6 0 0 0 1.4-.7zm2.2-2.7a.5.5 0 0 1 .5-.5.5.5 0 0 1 0 1 .5.5 0 0 1-.5-.5zm.1 1.3h.7v4.9h-.7zm2.2 3.7a2 2 0 0 0 1.6.7c.7 0 1.1-.3 1.1-.8s-.6-.7-1.2-.9-1.8-.4-1.8-1.4a1.6 1.6 0 0 1 1.8-1.4 2.3 2.3 0 0 1 1.8.7l-.3.5a2.1 2.1 0 0 0-1.5-.6c-.6 0-1 .3-1 .8s.5.6 1.2.7 1.8.5 1.8 1.5-.7 1.5-1.9 1.5a2.4 2.4 0 0 1-2-.8zm4.8.2v-3.2h-.8v-.7h.8v-1.3h.8v1.3h1v.7h-1v3c0 .4.1.6.5.6l.5-.2.2.6a1.2 1.2 0 0 1-.9.3 1 1 0 0 1-1.1-1.1zm2.8-3.9h.8v.8a2 2 0 0 1 1.6-.9v.8h-.3a1.7 1.7 0 0 0-1.3.8v3.4h-.8zm6.3 4.3a1.9 1.9 0 0 1-1.6.7 1.6 1.6 0 0 1-1.6-1.6 1.5 1.5 0 0 1 1.6-1.6 1.8 1.8 0 0 1 1.6.7v-.9c0-.7-.5-1-1.2-1a2.2 2.2 0 0 0-1.5.6l-.3-.5a2.6 2.6 0 0 1 1.9-.8 1.7 1.7 0 0 1 1.9 1.7v3.3h-.8zm0-1.4a1.5 1.5 0 0 0-1.3-.6 1.1 1.1 0 1 0 0 2.2 1.5 1.5 0 0 0 1.3-.6zm4.4-3a2.1 2.1 0 0 1 1.8.9l-.5.4a1.4 1.4 0 0 0-1.2-.6 1.7 1.7 0 0 0-1.7 1.9 1.7 1.7 0 0 0 1.7 1.8 1.4 1.4 0 0 0 1.2-.6l.5.5a2.4 2.4 0 0 1-1.8.8 2.4 2.4 0 0 1-2.4-2.5 2.4 2.4 0 0 1 2.4-2.6zm3 4v-3.2h-.8v-.7h.8v-1.3h.7v1.3h1v.7h-1v3c0 .4.2.6.5.6l.5-.2.3.6a1.2 1.2 0 0 1-.9.3 1 1 0 0 1-1.1-1.1zm2.7-5.2a.5.5 0 0 1 .5-.5.5.5 0 0 1 0 1 .5.5 0 0 1-.5-.5zm.1 1.3h.7v4.9h-.7zm2 2.5a2.4 2.4 0 1 1 4.7 0 2.4 2.4 0 1 1-4.7 0zm3.9 0c0-1-.5-1.9-1.6-1.9a1.7 1.7 0 0 0-1.6 1.9 1.7 1.7 0 0 0 1.6 1.8 1.6 1.6 0 0 0 1.6-1.8zm5.3-.8a1 1 0 0 0-1.1-1.1 2.1 2.1 0 0 0-1.4.7v3.6h-.7v-4.9h.7v.7a2.3 2.3 0 0 1 1.7-.8 1.4 1.4 0 0 1 1.6 1.6v3.4h-.8zm5.1-1h-.8v-.7h.8v-.3c0-1 .5-1.6 1.4-1.6l.7.2-.2.5h-.4c-.5 0-.8.4-.8 1v.3h1v.7h-1v4.2h-.7zm2.3 1.8a2.4 2.4 0 1 1 4.8 0 2.4 2.4 0 1 1-4.8 0zm4 0a1.6 1.6 0 1 0-3.2 0 1.6 1.6 0 1 0 3.2 0zm2-2.5h.7v.8a2.2 2.2 0 0 1 1.7-.9v.8h-.3a2 2 0 0 0-1.4.8v3.4h-.7zM243 231c0-.6-.3-1-.9-1a2.1 2.1 0 0 0-1.3.7v3.6h-.7V231c0-.6-.3-1-.9-1a2.1 2.1 0 0 0-1.3.7v3.6h-.7v-4.9h.7v.7a2.2 2.2 0 0 1 1.6-.8 1.3 1.3 0 0 1 1.3.9 2 2 0 0 1 1.6-.9c.9 0 1.3.5 1.3 1.5v3.5h-.7zm5.3 2.7a2 2 0 0 1-1.6.7 1.6 1.6 0 0 1-1.7-1.6 1.5 1.5 0 0 1 1.7-1.6 2 2 0 0 1 1.6.7v-.9c0-.7-.6-1-1.3-1a2 2 0 0 0-1.4.6l-.4-.5a2.6 2.6 0 0 1 1.9-.8c1.1 0 1.9.5 1.9 1.7v3.3h-.7zm0-1.4a1.7 1.7 0 0 0-1.4-.6 1.1 1.1 0 1 0 0 2.2 1.7 1.7 0 0 0 1.4-.6zm5.5-1.2a1 1 0 0 0-1.1-1.1 1.9 1.9 0 0 0-1.4.7v3.6h-.8v-4.9h.8v.7a2.3 2.3 0 0 1 1.7-.8c1 0 1.5.5 1.5 1.6v3.4h-.7zm2.5 4.5c.3 0 .5-.1.7-.5l.3-.8-2-4.9h.8l1.6 4 1.6-4h.8l-2.4 5.9a1.4 1.4 0 0 1-1.4.9h-.6l.2-.7zm7.2.5v-6.7h.7v.8a2.2 2.2 0 0 1 1.7-.9c1.2 0 2.1 1 2.1 2.6a2.2 2.2 0 0 1-2.1 2.5 2 2 0 0 1-1.7-.9v2.6zm2.2-6.1a1.8 1.8 0 0 0-1.5.8v2.1a1.8 1.8 0 0 0 1.5.8c1 0 1.5-.8 1.5-1.8s-.5-1.9-1.5-1.9zm5.6-.7a2.4 2.4 0 0 1 2.4 2.6v.2h-4a1.8 1.8 0 0 0 1.8 1.7 2.2 2.2 0 0 0 1.5-.6l.3.5a2.7 2.7 0 0 1-1.9.7 2.3 2.3 0 0 1-2.4-2.5 2.5 2.5 0 0 1 2.3-2.6zm-1.6 2.3h3.2a1.6 1.6 0 0 0-1.6-1.7 1.7 1.7 0 0 0-1.6 1.7zm4.9.3a2.4 2.4 0 0 1 2.4-2.6 2.5 2.5 0 0 1 2.4 2.6 2.4 2.4 0 0 1-2.4 2.5 2.3 2.3 0 0 1-2.4-2.5zm4 0a1.7 1.7 0 0 0-1.6-1.9c-1.1 0-1.6.9-1.6 1.9a1.6 1.6 0 0 0 1.6 1.8 1.7 1.7 0 0 0 1.6-1.8zm2 4.2v-6.7h.7v.8a2.2 2.2 0 0 1 1.7-.9c1.2 0 2.1 1 2.1 2.6a2.2 2.2 0 0 1-2.1 2.5 2 2 0 0 1-1.7-.9v2.6zm2.2-6.1a1.8 1.8 0 0 0-1.5.8v2.1a1.8 1.8 0 0 0 1.5.8 1.6 1.6 0 0 0 1.5-1.8c0-1.1-.6-1.9-1.5-1.9zm3.5-2.4h.8v6.7h-.8zm4.4 1.7a2.4 2.4 0 0 1 2.3 2.6v.2h-3.9a1.7 1.7 0 0 0 1.7 1.7 2 2 0 0 0 1.5-.6l.4.5a3.2 3.2 0 0 1-1.9.7 2.4 2.4 0 0 1-2.5-2.5 2.5 2.5 0 0 1 2.4-2.6zm-1.6 2.3h3.2c-.1-.8-.5-1.7-1.6-1.7a1.6 1.6 0 0 0-1.6 1.7zm5.4 1.7a.6.6 0 0 1 .6.5.6.6 0 0 1-.6.6.6.6 0 0 1-.5-.6.5.5 0 0 1 .5-.5zm-57.3 12.3h2.3a3.4 3.4 0 1 1 0 6.7h-2.3zm2.3 5.9a2.4 2.4 0 0 0 2.5-2.6 2.4 2.4 0 0 0-2.5-2.6H238v5.2zm4.7-4.1h.7v.8a2.2 2.2 0 0 1 1.6-.9v.8h-.3a1.8 1.8 0 0 0-1.3.8v3.4h-.7zm3.1-1.3a.5.5 0 0 1 .5-.5.5.5 0 0 1 0 1 .5.5 0 0 1-.5-.5zm.2 1.3h.7v4.9h-.7zm1.5 0h.8l1.6 4 1.6-4h.8l-2 4.9h-.8zm7.7-.1a2.3 2.3 0 0 1 2.3 2.6v.2h-3.9a1.8 1.8 0 0 0 1.8 1.7 1.8 1.8 0 0 0 1.4-.6l.4.5a2.9 2.9 0 0 1-1.9.7 2.4 2.4 0 0 1-2.5-2.5 2.5 2.5 0 0 1 2.4-2.6zm-1.6 2.3h3.2a1.6 1.6 0 0 0-1.6-1.7 1.7 1.7 0 0 0-1.6 1.7zm5.1-2.2h.8v.8a2 2 0 0 1 1.6-.9v.8h-.3a1.7 1.7 0 0 0-1.3.8v3.4h-.8zm3.3 3.7a2 2 0 0 0 1.6.7c.7 0 1.1-.3 1.1-.8s-.6-.7-1.2-.9-1.8-.4-1.8-1.4a1.6 1.6 0 0 1 1.8-1.4 2.3 2.3 0 0 1 1.8.7l-.3.5a2.1 2.1 0 0 0-1.5-.6c-.6 0-1 .3-1 .8s.5.6 1.2.7 1.8.5 1.8 1.5-.7 1.5-1.9 1.5a2.4 2.4 0 0 1-2-.8zm10.5-2a1 1 0 0 0-1.1-1.1 2.3 2.3 0 0 0-1.4.7v3.6h-.7v-4.9h.7v.7a2.5 2.5 0 0 1 1.7-.8 1.4 1.4 0 0 1 1.6 1.6v3.4h-.8zm4.4-1.8a2.4 2.4 0 0 1 2.3 2.6v.2h-3.9a1.7 1.7 0 0 0 1.7 1.7 2 2 0 0 0 1.5-.6l.4.5a3.2 3.2 0 0 1-1.9.7 2.4 2.4 0 0 1-2.5-2.5 2.5 2.5 0 0 1 2.4-2.6zm-1.6 2.3h3.2c-.1-.8-.5-1.7-1.6-1.7a1.6 1.6 0 0 0-1.6 1.7zm7.2-2.3a2.3 2.3 0 0 1 2.3 2.6v.2h-3.9a1.8 1.8 0 0 0 1.8 1.7 1.8 1.8 0 0 0 1.4-.6l.4.5a2.9 2.9 0 0 1-1.9.7 2.4 2.4 0 0 1-2.5-2.5 2.5 2.5 0 0 1 2.4-2.6zm-1.6 2.3h3.2a1.6 1.6 0 0 0-1.6-1.7 1.7 1.7 0 0 0-1.6 1.7zm8.6 2a2.1 2.1 0 0 1-1.6.8c-1.3 0-2.1-1-2.1-2.5s.8-2.6 2.1-2.6a1.8 1.8 0 0 1 1.6.9v-2.6h.8v6.7h-.8zm0-2.8a1.7 1.7 0 0 0-1.4-.8c-1 0-1.6.8-1.6 1.9a1.6 1.6 0 0 0 1.6 1.8 1.6 1.6 0 0 0 1.4-.7zm5 2.5v-3.2h-.8v-.7h.8v-1.3h.8v1.3h.9v.7h-.9v3c0 .4.1.6.5.6l.5-.2.2.6a1.2 1.2 0 0 1-.9.3 1 1 0 0 1-1.1-1.1zm2.5-1.4a2.4 2.4 0 1 1 4.8 0 2.4 2.4 0 1 1-4.8 0zm4 0a1.6 1.6 0 1 0-3.2 0 1.6 1.6 0 1 0 3.2 0zm4.6-4.3h.8v2.6a1.7 1.7 0 0 1 1.6-.9c1.2 0 2.1 1 2.1 2.6a2.2 2.2 0 0 1-2.1 2.5 2.1 2.1 0 0 1-1.6-.8v.7h-.8zm2.2 6.1a1.6 1.6 0 0 0 1.6-1.8c0-1.1-.6-1.9-1.6-1.9a1.7 1.7 0 0 0-1.4.8v2.2a1.6 1.6 0 0 0 1.4.7zm5.7-4.4a2.4 2.4 0 0 1 2.3 2.6v.2h-3.9a1.7 1.7 0 0 0 1.7 1.7 2 2 0 0 0 1.5-.6l.4.5a3.2 3.2 0 0 1-2 .7 2.3 2.3 0 0 1-2.4-2.5 2.5 2.5 0 0 1 2.4-2.6zm-1.6 2.3h3.1a1.6 1.6 0 0 0-1.6-1.7 1.6 1.6 0 0 0-1.5 1.7zm10.7 2.1a2 2 0 0 1-1.6.7 1.7 1.7 0 0 1-1.7-1.6 1.6 1.6 0 0 1 1.7-1.6 2 2 0 0 1 1.6.7v-.9c0-.7-.5-1-1.2-1a2 2 0 0 0-1.5.6l-.4-.5a3 3 0 0 1 2-.8 1.6 1.6 0 0 1 1.8 1.7v3.3h-.7zm0-1.4a1.6 1.6 0 0 0-1.3-.6 1.1 1.1 0 1 0 0 2.2 1.6 1.6 0 0 0 1.3-.6zm5.2-1.9l-1.3 3.9h-.8l-1.5-4.9h.8l1.2 3.9 1.2-3.9h.7l1.2 3.9 1.2-3.9h.8l-1.5 4.9h-.8zm7.4 3.3a2 2 0 0 1-1.6.7 1.7 1.7 0 0 1-1.7-1.6 1.6 1.6 0 0 1 1.7-1.6 1.9 1.9 0 0 1 1.6.7v-.9c0-.7-.5-1-1.2-1a2 2 0 0 0-1.5.6l-.4-.5a3 3 0 0 1 2-.8 1.6 1.6 0 0 1 1.8 1.7v3.3h-.7zm0-1.4a1.6 1.6 0 0 0-1.3-.6 1.1 1.1 0 1 0 0 2.2 1.6 1.6 0 0 0 1.3-.6zm2.2-2.9h.8v.8a2 2 0 0 1 1.6-.9v.8h-.3a1.7 1.7 0 0 0-1.3.8v3.4h-.8zm5.4-.1a2.4 2.4 0 0 1 2.4 2.6v.2h-3.9a1.7 1.7 0 0 0 1.7 1.7 2.2 2.2 0 0 0 1.5-.6l.3.5a2.7 2.7 0 0 1-1.9.7 2.3 2.3 0 0 1-2.4-2.5 2.5 2.5 0 0 1 2.3-2.6zm-1.5 2.3h3.1a1.6 1.6 0 0 0-1.6-1.7 1.6 1.6 0 0 0-1.5 1.7zm7.4.3a2.4 2.4 0 0 1 2.4-2.6 2.5 2.5 0 0 1 2.4 2.6 2.4 2.4 0 0 1-2.4 2.5 2.3 2.3 0 0 1-2.4-2.5zm4 0a1.7 1.7 0 0 0-1.6-1.9c-1.1 0-1.6.9-1.6 1.9a1.6 1.6 0 0 0 1.6 1.8 1.7 1.7 0 0 0 1.6-1.8zm2.2-1.8h-.8v-.7h.8v-.3c0-1 .5-1.6 1.4-1.6l.7.2-.2.5h-.4c-.5 0-.8.4-.8 1v.3h1v.7h-1v4.2h-.7zm5.3 3.2v-3.2h-.8v-.7h.8v-1.3h.8v1.3h1v.7h-1v3c0 .4.1.6.5.6l.5-.2.2.6a1.2 1.2 0 0 1-.9.3 1 1 0 0 1-1.1-1.1zm6.1-2.2c0-.9-.4-1.1-1.1-1.1a2.1 2.1 0 0 0-1.4.7v3.6h-.8v-6.7h.8v2.5a2.3 2.3 0 0 1 1.7-.8c1 0 1.5.5 1.5 1.6v3.4h-.7zm4.3-1.8a2.4 2.4 0 0 1 2.4 2.6v.2h-3.9a1.7 1.7 0 0 0 1.7 1.7 2.2 2.2 0 0 0 1.5-.6l.3.5a2.7 2.7 0 0 1-1.9.7 2.3 2.3 0 0 1-2.4-2.5 2.5 2.5 0 0 1 2.3-2.6zm-1.5 2.3h3.1a1.6 1.6 0 0 0-1.6-1.7 1.6 1.6 0 0 0-1.5 1.7zm-129.9 14a2.5 2.5 0 0 1-1.7.8 2.2 2.2 0 0 1-2.1-2.5c0-1.6.9-2.6 2.1-2.6a2 2 0 0 1 1.7.9v-2.6h.7v6.7h-.7zm0-2.8a2 2 0 0 0-1.5-.8c-1 0-1.5.8-1.5 1.9s.5 1.8 1.5 1.8a2 2 0 0 0 1.5-.7zm5.2 2.9a1.9 1.9 0 0 1-1.6.7 1.7 1.7 0 0 1-1.7-1.6 1.6 1.6 0 0 1 1.7-1.6 1.9 1.9 0 0 1 1.6.7v-.9c0-.7-.5-1-1.2-1a2.2 2.2 0 0 0-1.5.6l-.3-.5a2.6 2.6 0 0 1 1.9-.8 1.7 1.7 0 0 1 1.9 1.7v3.3h-.8zm0-1.4a1.6 1.6 0 0 0-1.3-.6 1.1 1.1 0 1 0 0 2.2 1.6 1.6 0 0 0 1.3-.6zm5.5-1.2c0-.8-.4-1.1-1-1.1a2.4 2.4 0 0 0-1.5.7v3.6h-.7v-4.9h.7v.7a2.5 2.5 0 0 1 1.7-.8 1.4 1.4 0 0 1 1.6 1.6v3.4h-.8zm2.7 3.9a1.9 1.9 0 0 0 1.5.6 1.4 1.4 0 0 0 1.6-1.4v-.7a2.1 2.1 0 0 1-1.6.8 2.2 2.2 0 0 1-2.2-2.5 2.2 2.2 0 0 1 2.2-2.5 1.9 1.9 0 0 1 1.6.9v-.8h.7v4.7c0 1.6-1.1 2.1-2.3 2.1a2.2 2.2 0 0 1-1.9-.7zm3.1-4.2a2 2 0 0 0-1.5-.8 1.6 1.6 0 0 0-1.5 1.8c0 1.1.6 1.9 1.5 1.9a2 2 0 0 0 1.5-.8zm4.3-1.5a2.3 2.3 0 0 1 2.3 2.6v.2h-3.9a1.8 1.8 0 0 0 1.8 1.7 2.2 2.2 0 0 0 1.5-.6l.3.5a2.9 2.9 0 0 1-1.9.7 2.4 2.4 0 0 1-2.5-2.5 2.5 2.5 0 0 1 2.4-2.6zm-1.6 2.3h3.2a1.6 1.6 0 0 0-1.6-1.7 1.7 1.7 0 0 0-1.6 1.7zm5.2-2.2h.7v.8a2.2 2.2 0 0 1 1.6-.9v.8h-.3a1.8 1.8 0 0 0-1.3.8v3.4h-.7zm3.2 3.7a2.2 2.2 0 0 0 1.6.7c.8 0 1.2-.3 1.2-.8s-.6-.7-1.3-.9-1.7-.4-1.7-1.4.6-1.4 1.8-1.4a2.5 2.5 0 0 1 1.8.7l-.4.5a2 2 0 0 0-1.4-.6c-.7 0-1.1.3-1.1.8s.5.6 1.2.7 1.8.5 1.8 1.5-.7 1.5-1.9 1.5a2.4 2.4 0 0 1-2-.8zm10.3.6a1.9 1.9 0 0 1-1.6.7 1.7 1.7 0 0 1-1.7-1.6 1.6 1.6 0 0 1 1.7-1.6 1.9 1.9 0 0 1 1.6.7v-.9c0-.7-.5-1-1.2-1a2 2 0 0 0-1.5.6l-.3-.5a2.6 2.6 0 0 1 1.9-.8 1.7 1.7 0 0 1 1.9 1.7v3.3h-.8zm0-1.4a1.6 1.6 0 0 0-1.3-.6 1.1 1.1 0 1 0 0 2.2 1.6 1.6 0 0 0 1.3-.6zm5.5-1.2a1 1 0 0 0-1.1-1.1 2.1 2.1 0 0 0-1.4.7v3.6h-.7v-4.9h.7v.7a2.3 2.3 0 0 1 1.7-.8 1.4 1.4 0 0 1 1.6 1.6v3.4h-.8zm5.8 2.5a2.5 2.5 0 0 1-1.7.8 2.2 2.2 0 0 1-2.1-2.5c0-1.6.9-2.6 2.1-2.6a2 2 0 0 1 1.7.9v-2.6h.7v6.7h-.7zm0-2.8a2 2 0 0 0-1.5-.8c-1 0-1.5.8-1.5 1.9s.5 1.8 1.5 1.8a2 2 0 0 0 1.5-.7zm6.3 1.3l-.8.8v1.4h-.7v-6.7h.7v4.4l2.6-2.6h.9l-2.1 2.2 2.1 2.7h-.9zm5.5-2.8a2.3 2.3 0 0 1 2.3 2.6v.2h-3.9a1.8 1.8 0 0 0 1.8 1.7 1.8 1.8 0 0 0 1.4-.6l.4.5a2.9 2.9 0 0 1-1.9.7 2.4 2.4 0 0 1-2.5-2.5 2.5 2.5 0 0 1 2.4-2.6zm-1.6 2.3h3.2a1.6 1.6 0 0 0-1.6-1.7 1.7 1.7 0 0 0-1.6 1.7zm7.2-2.3a2.4 2.4 0 0 1 2.4 2.6v.2h-4a1.8 1.8 0 0 0 1.8 1.7 2.2 2.2 0 0 0 1.5-.6l.3.5a2.7 2.7 0 0 1-1.9.7 2.3 2.3 0 0 1-2.4-2.5 2.5 2.5 0 0 1 2.3-2.6zm-1.6 2.3h3.2a1.6 1.6 0 0 0-1.6-1.7 1.7 1.7 0 0 0-1.6 1.7zm5.2 4.5v-6.7h.7v.8a2.2 2.2 0 0 1 1.6-.9c1.3 0 2.2 1 2.2 2.6a2.2 2.2 0 0 1-2.2 2.5 1.9 1.9 0 0 1-1.6-.9v2.6zm2.2-6.1a1.8 1.8 0 0 0-1.5.8v2.1a1.8 1.8 0 0 0 1.5.8 1.6 1.6 0 0 0 1.5-1.8c0-1.1-.6-1.9-1.5-1.9zm6.2 3.3v-3.2h-.8v-.7h.8v-1.3h.8v1.3h1v.7h-1v3c0 .4.1.6.5.6l.5-.2.2.6a1.2 1.2 0 0 1-.9.3 1 1 0 0 1-1.1-1.1zm6.1-2.2c0-.9-.4-1.1-1.1-1.1a2.1 2.1 0 0 0-1.4.7v3.6h-.8v-6.7h.8v2.5a2.3 2.3 0 0 1 1.7-.8c1 0 1.5.5 1.5 1.6v3.4h-.7zm4.3-1.8a2.4 2.4 0 0 1 2.4 2.6v.2h-3.9a1.7 1.7 0 0 0 1.7 1.7 2.2 2.2 0 0 0 1.5-.6l.3.5a2.7 2.7 0 0 1-1.9.7 2.3 2.3 0 0 1-2.4-2.5 2.5 2.5 0 0 1 2.3-2.6zm-1.5 2.3h3.1a1.6 1.6 0 0 0-1.6-1.7 1.6 1.6 0 0 0-1.5 1.7zm4.9-3.5a.5.5 0 0 1 .5-.5.5.5 0 1 1 0 1 .5.5 0 0 1-.5-.5zm.2 1.3h.7v4.9h-.7zm2.2 0h.8v.8a2 2 0 0 1 1.6-.9v.8h-.3a1.7 1.7 0 0 0-1.3.8v3.4h-.8zm8.9 4.3a1.9 1.9 0 0 1-1.6.7 1.7 1.7 0 0 1-1.7-1.6 1.6 1.6 0 0 1 1.7-1.6 1.9 1.9 0 0 1 1.6.7v-.9c0-.7-.5-1-1.2-1a2.2 2.2 0 0 0-1.5.6l-.3-.5a2.6 2.6 0 0 1 1.9-.8 1.7 1.7 0 0 1 1.9 1.7v3.3h-.8zm0-1.4a1.6 1.6 0 0 0-1.3-.6 1.1 1.1 0 1 0 0 2.2 1.6 1.6 0 0 0 1.3-.6zm2.4 1v-3.2h-.8v-.7h.8v-1.3h.8v1.3h1v.7h-1v3c0 .4.1.6.5.6l.5-.2.2.6a1.2 1.2 0 0 1-.9.3 1 1 0 0 1-1.1-1.1zm3 0v-3.2h-.8v-.7h.8v-1.3h.7v1.3h1v.7h-1v3c0 .4.2.6.5.6l.5-.2.2.6a1.1 1.1 0 0 1-.9.3c-.7 0-1-.4-1-1.1zm4.9-4a2.4 2.4 0 0 1 2.3 2.6v.2h-3.9a1.7 1.7 0 0 0 1.7 1.7 2 2 0 0 0 1.5-.6l.4.5a3.2 3.2 0 0 1-2 .7 2.3 2.3 0 0 1-2.4-2.5 2.5 2.5 0 0 1 2.4-2.6zm-1.6 2.3h3.1a1.6 1.6 0 0 0-1.6-1.7 1.6 1.6 0 0 0-1.5 1.7zm8.3-.5c0-.8-.4-1.1-1-1.1a2.4 2.4 0 0 0-1.5.7v3.6h-.7v-4.9h.7v.7a2.5 2.5 0 0 1 1.8-.8c1 0 1.5.5 1.5 1.6v3.4h-.8zm2.4 2.2v-3.2h-.8v-.7h.8v-1.3h.8v1.3h1v.7h-1v3c0 .4.2.6.5.6l.5-.2.2.6a1.1 1.1 0 0 1-.9.3 1 1 0 0 1-1.1-1.1zm2.7-5.2a.5.5 0 1 1 .5.5.5.5 0 0 1-.5-.5zm.1 1.3h.8v4.9h-.8zm2 2.5a2.4 2.4 0 1 1 4.8 0 2.4 2.4 0 1 1-4.8 0zm4 0a1.6 1.6 0 1 0-3.2 0 1.6 1.6 0 1 0 3.2 0zm5.3-.8a1 1 0 0 0-1.1-1.1 1.9 1.9 0 0 0-1.4.7v3.6h-.8v-4.9h.8v.7a2.3 2.3 0 0 1 1.7-.8c1 0 1.5.5 1.5 1.6v3.4h-.7zm4.5.8a2.4 2.4 0 1 1 4.8 0 2.4 2.4 0 1 1-4.8 0zm4 0a1.6 1.6 0 1 0-3.2 0 1.6 1.6 0 1 0 3.2 0zm5.3-.8a1 1 0 0 0-1.1-1.1 1.9 1.9 0 0 0-1.4.7v3.6h-.8v-4.9h.8v.7a2.3 2.3 0 0 1 1.7-.8c1 0 1.5.5 1.5 1.6v3.4h-.7zm-154.4 14.2v-3.2h-.8v-.7h.8v-1.3h.8v1.3h.9v.7h-.9v3c0 .4.1.6.4.6a.8.8 0 0 0 .6-.2l.2.6a1.2 1.2 0 0 1-.9.3 1 1 0 0 1-1.1-1.1zm6.1-2.2c0-.9-.5-1.1-1.1-1.1a2.4 2.4 0 0 0-1.5.7v3.6h-.7v-6.7h.7v2.5a2.5 2.5 0 0 1 1.8-.8c1 0 1.5.5 1.5 1.6v3.4h-.7zm4.3-1.8a2.3 2.3 0 0 1 2.3 2.6v.2h-3.9a1.8 1.8 0 0 0 1.8 1.7 2.2 2.2 0 0 0 1.5-.6l.3.5a2.9 2.9 0 0 1-1.9.7 2.4 2.4 0 0 1-2.5-2.5 2.5 2.5 0 0 1 2.4-2.6zm-1.6 2.3h3.2a1.6 1.6 0 0 0-1.6-1.7 1.7 1.7 0 0 0-1.6 1.7zm7.7-2.2h.8v.8a2 2 0 0 1 1.6-.9v.8h-.3a1.7 1.7 0 0 0-1.3.8v3.4h-.8zm3 2.5a2.5 2.5 0 0 1 2.4-2.6 2.4 2.4 0 0 1 2.4 2.6 2.3 2.3 0 0 1-2.4 2.5 2.4 2.4 0 0 1-2.4-2.5zm4 0c0-1-.5-1.9-1.6-1.9a1.7 1.7 0 0 0-1.6 1.9 1.7 1.7 0 0 0 1.6 1.8 1.6 1.6 0 0 0 1.6-1.8zm5.1 1.8a2 2 0 0 1-1.6.7 1.6 1.6 0 0 1-1.7-1.6 1.5 1.5 0 0 1 1.7-1.6 2 2 0 0 1 1.6.7v-.9c0-.7-.6-1-1.3-1a2 2 0 0 0-1.4.6l-.4-.5a2.7 2.7 0 0 1 1.9-.8c1.1 0 1.9.5 1.9 1.7v3.3h-.7zm0-1.4a1.7 1.7 0 0 0-1.4-.6 1.1 1.1 0 1 0 0 2.2 1.7 1.7 0 0 0 1.4-.6zm5.7 1.3a2.1 2.1 0 0 1-1.6.8 2.2 2.2 0 0 1-2.2-2.5c0-1.6.9-2.6 2.2-2.6a1.9 1.9 0 0 1 1.6.9v-2.6h.8v6.7h-.8zm0-2.8a1.8 1.8 0 0 0-1.4-.8c-1 0-1.6.8-1.6 1.9a1.6 1.6 0 0 0 1.6 1.8 1.7 1.7 0 0 0 1.4-.7zm2.1 4.4a1.3 1.3 0 0 0 .6-.9h-.1a.5.5 0 0 1 0-1 .7.7 0 0 1 .7.7 2 2 0 0 1-.8 1.5zm8.3-4.1a1 1 0 0 0-1.1-1.1 2.1 2.1 0 0 0-1.4.7v3.6h-.8v-4.9h.8v.7a2.3 2.3 0 0 1 1.7-.8 1.4 1.4 0 0 1 1.6 1.6v3.4h-.8zm2 .8a2.4 2.4 0 0 1 2.4-2.6 2.5 2.5 0 0 1 2.4 2.6 2.4 2.4 0 0 1-2.4 2.5 2.3 2.3 0 0 1-2.4-2.5zm4 0a1.7 1.7 0 0 0-1.6-1.9c-1.1 0-1.6.9-1.6 1.9a1.6 1.6 0 0 0 1.6 1.8 1.7 1.7 0 0 0 1.6-1.8zm2.1 1.4v-3.2h-.8v-.7h.8v-1.3h.8v1.3h1v.7h-1v3c0 .4.1.6.5.6l.5-.2.2.6a1.2 1.2 0 0 1-.9.3 1 1 0 0 1-1.1-1.1zm5.1-1.4a2.4 2.4 0 1 1 4.8 0 2.4 2.4 0 1 1-4.8 0zm4 0a1.6 1.6 0 1 0-3.2 0 1.6 1.6 0 1 0 3.2 0zm5.3-.8a1 1 0 0 0-1.1-1.1 1.9 1.9 0 0 0-1.4.7v3.6h-.8v-4.9h.8v.7a2.3 2.3 0 0 1 1.7-.8c1 0 1.5.5 1.5 1.6v3.4h-.7zm5 2.2v-3.2h-.8v-.7h.8v-1.3h.7v1.3h1v.7h-1v3c0 .4.2.6.5.6l.5-.2.2.6a1.1 1.1 0 0 1-.9.3c-.7 0-1-.4-1-1.1zm6-2.2c0-.9-.4-1.1-1.1-1.1a2.1 2.1 0 0 0-1.4.7v3.6h-.8v-6.7h.8v2.5a2.3 2.3 0 0 1 1.7-.8 1.4 1.4 0 0 1 1.6 1.6v3.4h-.8zm4.4-1.8a2.4 2.4 0 0 1 2.3 2.6v.2h-3.9a1.7 1.7 0 0 0 1.7 1.7 2 2 0 0 0 1.5-.6l.4.5a3.2 3.2 0 0 1-2 .7 2.3 2.3 0 0 1-2.4-2.5 2.5 2.5 0 0 1 2.4-2.6zm-1.6 2.3h3.1a1.5 1.5 0 0 0-1.5-1.7 1.6 1.6 0 0 0-1.6 1.7zm5-3.5a.5.5 0 0 1 .5-.5.5.5 0 1 1 0 1 .5.5 0 0 1-.5-.5zm.1 1.3h.7v4.9h-.7zm2.2 0h.8v.8a2 2 0 0 1 1.6-.9v.8h-.3a1.7 1.7 0 0 0-1.3.8v3.4h-.8zm8.1-.1a1.9 1.9 0 0 1 1.7.9l-.5.4a1.4 1.4 0 0 0-1.2-.6 1.7 1.7 0 0 0-1.7 1.9 1.7 1.7 0 0 0 1.7 1.8 1.4 1.4 0 0 0 1.2-.6l.5.5a2.1 2.1 0 0 1-1.7.8 2.4 2.4 0 0 1-2.5-2.5 2.4 2.4 0 0 1 2.5-2.6zm4.9 0a2.4 2.4 0 0 1 2.3 2.6v.2H337a1.7 1.7 0 0 0 1.7 1.7 2 2 0 0 0 1.5-.6l.4.5a3.2 3.2 0 0 1-1.9.7 2.4 2.4 0 0 1-2.5-2.5 2.5 2.5 0 0 1 2.4-2.6zm-1.6 2.3h3.2c-.1-.8-.5-1.7-1.6-1.7a1.6 1.6 0 0 0-1.6 1.7zm5.1-4h.8v6.7h-.8zm2.3 0h.7v6.7h-.7zm4.8 8.5v-6.7h.7v.8a2.2 2.2 0 0 1 1.7-.9c1.2 0 2.1 1 2.1 2.6a2.2 2.2 0 0 1-2.1 2.5 2 2 0 0 1-1.7-.9v2.6zm2.2-6.1a1.8 1.8 0 0 0-1.5.8v2.1a1.8 1.8 0 0 0 1.5.8 1.6 1.6 0 0 0 1.5-1.8c0-1.1-.6-1.9-1.5-1.9zm6.8 1.1c0-.9-.4-1.1-1.1-1.1a2.1 2.1 0 0 0-1.4.7v3.6h-.8v-6.7h.8v2.5a2.3 2.3 0 0 1 1.7-.8c1 0 1.5.5 1.5 1.6v3.4h-.7zm2 .8a2.4 2.4 0 1 1 4.7 0 2.4 2.4 0 1 1-4.7 0zm4 0a1.7 1.7 0 1 0-1.6 1.8 1.7 1.7 0 0 0 1.6-1.8zm5.2-.8a1 1 0 0 0-1.1-1.1 2.3 2.3 0 0 0-1.4.7v3.6h-.7v-4.9h.7v.7a2.5 2.5 0 0 1 1.7-.8 1.4 1.4 0 0 1 1.6 1.6v3.4h-.8zm4.4-1.8a2.4 2.4 0 0 1 2.3 2.6v.2h-3.9a1.7 1.7 0 0 0 1.7 1.7 2 2 0 0 0 1.5-.6l.4.5a3.2 3.2 0 0 1-1.9.7 2.4 2.4 0 0 1-2.5-2.5 2.5 2.5 0 0 1 2.4-2.6zm-1.6 2.3h3.2c-.1-.8-.5-1.7-1.6-1.7a1.6 1.6 0 0 0-1.6 1.7zm5.1 1.5a2 2 0 0 0 1.6.7c.7 0 1.1-.3 1.1-.8s-.6-.7-1.2-.9-1.8-.4-1.8-1.4a1.6 1.6 0 0 1 1.8-1.4 2.5 2.5 0 0 1 1.8.7l-.3.5a2.3 2.3 0 0 0-1.5-.6c-.6 0-1.1.3-1.1.8s.6.6 1.2.7 1.8.5 1.8 1.5-.6 1.5-1.9 1.5a2.2 2.2 0 0 1-1.9-.8zm7-1.2a2.4 2.4 0 1 1 4.7 0 2.4 2.4 0 1 1-4.7 0zm3.9 0c0-1-.5-1.9-1.6-1.9a1.7 1.7 0 0 0-1.6 1.9 1.7 1.7 0 0 0 1.6 1.8 1.6 1.6 0 0 0 1.6-1.8zm2.1-2.5h.7v.8a2.2 2.2 0 0 1 1.6-.9v.8h-.3a1.8 1.8 0 0 0-1.3.8v3.4h-.7zm-153.4 14.5a2.4 2.4 0 0 1 2.4-2.6 2.5 2.5 0 0 1 2.4 2.6 2.4 2.4 0 0 1-2.4 2.5 2.3 2.3 0 0 1-2.4-2.5zm4 0a1.7 1.7 0 0 0-1.6-1.9c-1.1 0-1.6.9-1.6 1.9a1.6 1.6 0 0 0 1.6 1.8 1.7 1.7 0 0 0 1.6-1.8zm2.1 1.4v-3.2h-.8v-.7h.8v-1.3h.8v1.3h1v.7h-1v3c0 .4.1.6.5.6l.5-.2.2.6a1.2 1.2 0 0 1-.9.3 1 1 0 0 1-1.1-1.1zm6.1-2.2c0-.9-.5-1.1-1.1-1.1a2.1 2.1 0 0 0-1.4.7v3.6h-.8v-6.7h.8v2.5a2.3 2.3 0 0 1 1.7-.8c1 0 1.5.5 1.5 1.6v3.4h-.7zm4.3-1.8a2.4 2.4 0 0 1 2.4 2.6v.2h-4a1.8 1.8 0 0 0 1.8 1.7 2.2 2.2 0 0 0 1.5-.6l.3.5a2.7 2.7 0 0 1-1.9.7 2.3 2.3 0 0 1-2.4-2.5 2.5 2.5 0 0 1 2.3-2.6zm-1.6 2.3h3.2a1.6 1.6 0 0 0-1.6-1.7 1.7 1.7 0 0 0-1.6 1.7zm5.2-2.2h.7v.8a2.2 2.2 0 0 1 1.6-.9v.8h-.3a1.8 1.8 0 0 0-1.3.8v3.4h-.7zm11.7 1.6c0-.6-.3-1-.9-1a2.1 2.1 0 0 0-1.3.7v3.6h-.7V285c0-.6-.3-1-.9-1a2.1 2.1 0 0 0-1.3.7v3.6h-.8v-4.9h.8v.7a2 2 0 0 1 1.6-.8 1.3 1.3 0 0 1 1.3.9 2 2 0 0 1 1.6-.9c.9 0 1.3.5 1.3 1.5v3.5h-.7zm1.9.9a2.5 2.5 0 0 1 2.4-2.6 2.4 2.4 0 0 1 2.4 2.6 2.3 2.3 0 0 1-2.4 2.5 2.4 2.4 0 0 1-2.4-2.5zm4 0c0-1-.5-1.9-1.6-1.9a1.7 1.7 0 0 0-1.6 1.9 1.7 1.7 0 0 0 1.6 1.8 1.6 1.6 0 0 0 1.6-1.8zm2-4.3h.8v2.6a1.9 1.9 0 0 1 1.6-.9c1.3 0 2.2 1 2.2 2.6a2.2 2.2 0 0 1-3.8 1.7v.7h-.8zm2.2 6.1a1.6 1.6 0 0 0 1.6-1.8c0-1.1-.6-1.9-1.6-1.9a1.8 1.8 0 0 0-1.4.8v2.2a1.7 1.7 0 0 0 1.4.7zm3.5-5.6a.5.5 0 0 1 .5-.5.5.5 0 1 1 0 1 .5.5 0 0 1-.5-.5zm.1 1.3h.7v4.9h-.7zm2.2-1.8h.8v6.7h-.8zm4.4 1.7a2.3 2.3 0 0 1 2.3 2.6v.2h-3.9a1.8 1.8 0 0 0 1.7 1.7 1.9 1.9 0 0 0 1.5-.6l.4.5a2.9 2.9 0 0 1-1.9.7 2.4 2.4 0 0 1-2.5-2.5 2.5 2.5 0 0 1 2.4-2.6zm-1.6 2.3h3.2a1.6 1.6 0 0 0-1.6-1.7 1.7 1.7 0 0 0-1.6 1.7zm11.2 2a2.2 2.2 0 0 1-3.8-1.7c0-1.6.9-2.6 2.2-2.6a1.9 1.9 0 0 1 1.6.9v-2.6h.8v6.7h-.8zm0-2.8a1.8 1.8 0 0 0-1.4-.8c-1 0-1.6.8-1.6 1.9a1.6 1.6 0 0 0 1.6 1.8 1.7 1.7 0 0 0 1.4-.7zm4.4-1.5a2.4 2.4 0 0 1 2.3 2.6v.2h-3.9a1.7 1.7 0 0 0 1.7 1.7 2 2 0 0 0 1.5-.6l.4.5a3.2 3.2 0 0 1-2 .7 2.3 2.3 0 0 1-2.4-2.5 2.5 2.5 0 0 1 2.4-2.6zm-1.6 2.3h3.1a1.6 1.6 0 0 0-1.6-1.7 1.6 1.6 0 0 0-1.5 1.7zm4.4-2.2h.8l1.6 4 1.6-4h.8l-2 4.9h-.8zm5.5-1.3a.5.5 0 0 1 .5-.5.5.5 0 1 1 0 1 .5.5 0 0 1-.5-.5zm.1 1.3h.7v4.9h-.7zm4.4-.1a1.9 1.9 0 0 1 1.7.9l-.5.4a1.4 1.4 0 0 0-1.2-.6 1.7 1.7 0 0 0-1.7 1.9 1.7 1.7 0 0 0 1.7 1.8 1.4 1.4 0 0 0 1.2-.6l.5.5a2.1 2.1 0 0 1-1.7.8 2.3 2.3 0 0 1-2.4-2.5 2.4 2.4 0 0 1 2.4-2.6zm4.9 0a2.4 2.4 0 0 1 2.3 2.6v.2h-3.9a1.8 1.8 0 0 0 1.7 1.7 2 2 0 0 0 1.5-.6l.4.5a2.9 2.9 0 0 1-1.9.7 2.4 2.4 0 0 1-2.5-2.5 2.5 2.5 0 0 1 2.4-2.6zm-1.6 2.3h3.2a1.6 1.6 0 1 0-3.2 0zm5.1 1.5a2 2 0 0 0 1.6.7c.7 0 1.1-.3 1.1-.8s-.6-.7-1.2-.9-1.8-.4-1.8-1.4a1.6 1.6 0 0 1 1.8-1.4 2.5 2.5 0 0 1 1.8.7l-.3.5a2.3 2.3 0 0 0-1.5-.6c-.6 0-1 .3-1 .8s.5.6 1.1.7 1.8.5 1.8 1.5-.6 1.5-1.9 1.5a2.4 2.4 0 0 1-1.9-.8zm5.1.2a.5.5 0 0 1 .5.5.6.6 0 0 1-.5.6.6.6 0 0 1-.6-.6.6.6 0 0 1 .6-.5zm8.1-4.4l-1.5 5.4h-.9l-1.9-6.7h1l1.4 5.6 1.6-5.6h.7l1.5 5.6 1.5-5.6h.9l-1.9 6.7h-.9zm6.9.4a2.4 2.4 0 0 1 2.3 2.6v.2h-3.9a1.7 1.7 0 0 0 1.7 1.7 2 2 0 0 0 1.5-.6l.4.5a3.2 3.2 0 0 1-1.9.7 2.4 2.4 0 0 1-2.5-2.5 2.5 2.5 0 0 1 2.4-2.6zm-1.6 2.3h3.2c-.1-.8-.5-1.7-1.6-1.7a1.6 1.6 0 0 0-1.6 1.7zm11-.5c0-.9-.5-1.1-1.1-1.1a2.4 2.4 0 0 0-1.5.7v3.6h-.7v-6.7h.7v2.5a2.5 2.5 0 0 1 1.8-.8c1 0 1.5.5 1.5 1.6v3.4h-.7zm5.2 2.6a1.9 1.9 0 0 1-1.6.7 1.7 1.7 0 0 1-1.7-1.6 1.6 1.6 0 0 1 1.7-1.6 1.9 1.9 0 0 1 1.6.7v-.9c0-.7-.5-1-1.2-1a2.2 2.2 0 0 0-1.5.6l-.3-.5a2.6 2.6 0 0 1 1.9-.8 1.7 1.7 0 0 1 1.9 1.7v3.3h-.8zm0-1.4a1.6 1.6 0 0 0-1.3-.6 1.1 1.1 0 1 0 0 2.2 1.6 1.6 0 0 0 1.3-.6zm1.6-2.9h.8l1.6 4 1.6-4h.8l-2 4.9h-.8zm7.7-.1a2.4 2.4 0 0 1 2.3 2.6v.2h-3.9a1.7 1.7 0 0 0 1.7 1.7 2 2 0 0 0 1.5-.6l.4.5a3.2 3.2 0 0 1-1.9.7 2.4 2.4 0 0 1-2.5-2.5 2.5 2.5 0 0 1 2.4-2.6zm-1.6 2.3h3.2c-.1-.8-.5-1.7-1.6-1.7a1.6 1.6 0 0 0-1.6 1.7zm11.2 2a2.5 2.5 0 0 1-1.6.8 2.2 2.2 0 0 1-2.2-2.5c0-1.6.9-2.6 2.2-2.6a1.9 1.9 0 0 1 1.6.9v-2.6h.7v6.7h-.7zm0-2.8a2 2 0 0 0-1.5-.8c-.9 0-1.5.8-1.5 1.9a1.6 1.6 0 0 0 1.5 1.8 2 2 0 0 0 1.5-.7zm4.3-1.5a2.4 2.4 0 0 1 2.4 2.6v.2h-4a1.8 1.8 0 0 0 1.8 1.7 2.2 2.2 0 0 0 1.5-.6l.3.5a2.7 2.7 0 0 1-1.9.7 2.3 2.3 0 0 1-2.4-2.5 2.5 2.5 0 0 1 2.3-2.6zm-1.6 2.3h3.2a1.6 1.6 0 0 0-1.6-1.7 1.7 1.7 0 0 0-1.6 1.7zm4.4-2.2h.9l1.6 4 1.6-4h.8l-2 4.9h-.8zm7.8-.1a2.4 2.4 0 0 1 2.3 2.6v.2h-3.9a1.7 1.7 0 0 0 1.7 1.7 2 2 0 0 0 1.5-.6l.4.5a3.2 3.2 0 0 1-2 .7 2.3 2.3 0 0 1-2.4-2.5 2.5 2.5 0 0 1 2.4-2.6zm-1.6 2.3h3.1a1.5 1.5 0 0 0-1.5-1.7 1.6 1.6 0 0 0-1.6 1.7zm5.1-4h.7v6.7h-.7zm1.8 3.9h2.4v.7H398zm20.9-77.6a2.4 2.4 0 1 1 4.8 0 2.4 2.4 0 1 1-4.8 0zm4 0a1.6 1.6 0 1 0-3.2 0 1.6 1.6 0 1 0 3.2 0zm2 4.2v-6.7h.8v.8a1.9 1.9 0 0 1 1.6-.9c1.3 0 2.1 1 2.1 2.6s-.8 2.5-2.1 2.5a1.7 1.7 0 0 1-1.6-.9v2.6zm2.2-6.1a1.5 1.5 0 0 0-1.4.8v2.1a1.5 1.5 0 0 0 1.4.8c1 0 1.5-.8 1.5-1.8s-.5-1.9-1.5-1.9zm5.6-.7a2.4 2.4 0 0 1 2.4 2.6v.2h-3.9a1.7 1.7 0 0 0 1.7 1.7 2.2 2.2 0 0 0 1.5-.6l.3.5a2.7 2.7 0 0 1-1.9.7 2.3 2.3 0 0 1-2.4-2.5 2.5 2.5 0 0 1 2.3-2.6zm-1.5 2.3h3.1a1.6 1.6 0 0 0-1.6-1.7 1.6 1.6 0 0 0-1.5 1.7zm8.6 2a2.5 2.5 0 0 1-1.7.8 2.2 2.2 0 0 1-2.1-2.5c0-1.6.9-2.6 2.1-2.6a2 2 0 0 1 1.7.9v-2.6h.7v6.7h-.7zm0-2.8a2 2 0 0 0-1.5-.8c-.9 0-1.5.8-1.5 1.9a1.6 1.6 0 0 0 1.5 1.8 2 2 0 0 0 1.5-.7zm5 2.5v-3.2h-.8v-.7h.8v-1.3h.7v1.3h1v.7h-1v3c0 .4.2.6.5.6l.5-.2.2.6a1.1 1.1 0 0 1-.9.3c-.7 0-1-.4-1-1.1zm6-2.2c0-.9-.4-1.1-1.1-1.1a2.1 2.1 0 0 0-1.4.7v3.6h-.8v-6.7h.8v2.5a2.3 2.3 0 0 1 1.7-.8 1.4 1.4 0 0 1 1.6 1.6v3.4h-.8zm4.4-1.8a2.4 2.4 0 0 1 2.3 2.6v.2h-3.9a1.7 1.7 0 0 0 1.7 1.7 2 2 0 0 0 1.5-.6l.4.5a3.2 3.2 0 0 1-2 .7 2.3 2.3 0 0 1-2.4-2.5 2.5 2.5 0 0 1 2.4-2.6zm-1.6 2.3h3.1a1.5 1.5 0 0 0-1.5-1.7 1.6 1.6 0 0 0-1.6 1.7zm11.2 2a2.5 2.5 0 0 1-1.7.8 2.2 2.2 0 0 1-2.1-2.5c0-1.6.9-2.6 2.1-2.6a2 2 0 0 1 1.7.9v-2.6h.7v6.7h-.7zm0-2.8a2 2 0 0 0-1.5-.8c-.9 0-1.5.8-1.5 1.9a1.6 1.6 0 0 0 1.5 1.8 2 2 0 0 0 1.5-.7zm1.9 1.1a2.5 2.5 0 0 1 2.4-2.6 2.4 2.4 0 0 1 2.4 2.6 2.3 2.3 0 0 1-2.4 2.5 2.4 2.4 0 0 1-2.4-2.5zm4 0c0-1-.5-1.9-1.6-1.9a1.7 1.7 0 0 0-1.6 1.9 1.7 1.7 0 0 0 1.6 1.8 1.6 1.6 0 0 0 1.6-1.8zm5.3-.8a1 1 0 0 0-1.1-1.1 2.1 2.1 0 0 0-1.4.7v3.6h-.8v-4.9h.8v.7a2.3 2.3 0 0 1 1.7-.8 1.4 1.4 0 0 1 1.6 1.6v3.4h-.8zm2-1.6a1.8 1.8 0 0 0 .7-1h-.2a.6.6 0 0 1-.5-.6.6.6 0 0 1 .6-.5c.3 0 .6.3.6.8a2.2 2.2 0 0 1-.8 1.5zm2.6 3.8v-3.2h-.8v-.7h.8v-1.3h.8v1.3h1v.7h-1v3c0 .4.2.6.5.6l.5-.2.2.6a1.1 1.1 0 0 1-.9.3 1 1 0 0 1-1.1-1.1zm5.6 0v-3.2h-.8v-.7h.8v-1.3h.7v1.3h1v.7h-1v3c0 .4.2.6.5.6l.5-.2.2.6a1.1 1.1 0 0 1-.9.3c-.7 0-1-.4-1-1.1zm4.4-1l-1.4 2h-.9l1.9-2.5-1.8-2.4h.9l1.3 1.9 1.4-1.9h.8l-1.7 2.4 1.9 2.5h-.9zm3.4 1v-3.2h-.8v-.7h.8v-1.3h.7v1.3h1v.7h-1v3c0 .4.2.6.5.6l.5-.2.2.6a1.1 1.1 0 0 1-.9.3c-.7 0-1-.4-1-1.1zm7.4 0h-.6v-2.1h-1.9v-.6h1.9v-2h.6v2h1.9v.6h-1.9zm9 .3a2.2 2.2 0 0 1-3.8-1.7c0-1.6.9-2.6 2.2-2.6a1.9 1.9 0 0 1 1.6.9v-2.6h.8v6.7h-.8zm0-2.8a1.8 1.8 0 0 0-1.4-.8c-1 0-1.6.8-1.6 1.9a1.6 1.6 0 0 0 1.6 1.8 1.7 1.7 0 0 0 1.4-.7zm2.3-1.4h.7v.8a2.2 2.2 0 0 1 1.6-.9v.8h-.3a1.8 1.8 0 0 0-1.3.8v3.4h-.7zm2.5 0h.8l1.7 4 1.6-4h.8l-2 4.9h-.9zm10.4-.1a1.9 1.9 0 0 1 1.7.9l-.5.4a1.4 1.4 0 0 0-1.2-.6 1.7 1.7 0 0 0-1.7 1.9 1.7 1.7 0 0 0 1.7 1.8 1.4 1.4 0 0 0 1.2-.6l.5.5a2.1 2.1 0 0 1-1.7.8 2.3 2.3 0 0 1-2.4-2.5 2.4 2.4 0 0 1 2.4-2.6zm5.8 4.4a1.9 1.9 0 0 1-1.6.7 1.7 1.7 0 0 1-1.7-1.6 1.6 1.6 0 0 1 1.7-1.6 1.9 1.9 0 0 1 1.6.7v-.9c0-.7-.5-1-1.2-1a2 2 0 0 0-1.5.6l-.3-.5a2.6 2.6 0 0 1 1.9-.8 1.7 1.7 0 0 1 1.9 1.7v3.3h-.8zm0-1.4a1.6 1.6 0 0 0-1.3-.6 1.1 1.1 0 1 0 0 2.2 1.6 1.6 0 0 0 1.3-.6zm8.1-1.3c0-.6-.3-1-.9-1a2.1 2.1 0 0 0-1.3.7v3.6h-.7V207c0-.6-.3-1-.9-1a2.1 2.1 0 0 0-1.3.7v3.6h-.7v-4.9h.7v.7a2.2 2.2 0 0 1 1.6-.8 1.3 1.3 0 0 1 1.3.9 2 2 0 0 1 1.6-.9c.9 0 1.3.5 1.3 1.5v3.5h-.7zm2.2 5.1v-6.7h.8v.8a1.9 1.9 0 0 1 1.6-.9c1.3 0 2.2 1 2.2 2.6a2.2 2.2 0 0 1-2.2 2.5 1.9 1.9 0 0 1-1.6-.9v2.6zm2.2-6.1a1.5 1.5 0 0 0-1.4.8v2.1a1.5 1.5 0 0 0 1.4.8 1.6 1.6 0 0 0 1.6-1.8c0-1.1-.6-1.9-1.6-1.9zm6.6 3.7a2 2 0 0 1-1.6.7 1.7 1.7 0 0 1-1.7-1.6 1.6 1.6 0 0 1 1.7-1.6 1.9 1.9 0 0 1 1.6.7v-.9c0-.7-.5-1-1.2-1a2 2 0 0 0-1.5.6l-.4-.5a3 3 0 0 1 2-.8 1.6 1.6 0 0 1 1.8 1.7v3.3h-.7zm0-1.4a1.6 1.6 0 0 0-1.3-.6 1.1 1.1 0 1 0 0 2.2 1.6 1.6 0 0 0 1.3-.6zm2.1-4.2a.5.5 0 1 1 .5.5.5.5 0 0 1-.5-.5zm.1 1.3h.8v4.9h-.8zm2.7 5.6a1.9 1.9 0 0 0 1.5.6 1.4 1.4 0 0 0 1.6-1.4v-.7a2.1 2.1 0 0 1-1.6.8 2.2 2.2 0 0 1-2.2-2.5 2.2 2.2 0 0 1 2.2-2.5 1.9 1.9 0 0 1 1.6.9v-.8h.7v4.7c0 1.6-1.1 2.1-2.3 2.1a2.3 2.3 0 0 1-1.9-.7zm3.1-4.2a2 2 0 0 0-1.5-.8 1.6 1.6 0 0 0-1.5 1.8c0 1.1.6 1.9 1.5 1.9a2 2 0 0 0 1.5-.8zm5.5.3a1 1 0 0 0-1.1-1.1 2.1 2.1 0 0 0-1.4.7v3.6h-.8v-4.9h.8v.7a2.3 2.3 0 0 1 1.7-.8c1 0 1.5.5 1.5 1.6v3.4h-.7zm5 2.2v-3.2h-.8v-.7h.8v-1.3h.7v1.3h1v.7h-1v3c0 .4.2.6.5.6l.5-.2.2.6q-.1.3-.9.3c-.7 0-1-.4-1-1.1zm2.5-1.4a2.4 2.4 0 0 1 2.4-2.6 2.5 2.5 0 0 1 2.4 2.6 2.4 2.4 0 0 1-2.4 2.5 2.3 2.3 0 0 1-2.4-2.5zm4 0a1.7 1.7 0 0 0-1.6-1.9c-1.1 0-1.6.9-1.6 1.9a1.6 1.6 0 0 0 1.6 1.8 1.7 1.7 0 0 0 1.6-1.8zm-153 11.2c0-.9-.5-1.1-1.1-1.1a2.4 2.4 0 0 0-1.5.7v3.6h-.7v-6.7h.7v2.5a2.5 2.5 0 0 1 1.8-.8c1 0 1.5.5 1.5 1.6v3.4h-.7zm4.3-1.8a2.3 2.3 0 0 1 2.3 2.6v.2h-3.9a1.8 1.8 0 0 0 1.8 1.7 1.8 1.8 0 0 0 1.4-.6l.4.5a2.9 2.9 0 0 1-1.9.7 2.4 2.4 0 0 1-2.5-2.5 2.5 2.5 0 0 1 2.4-2.6zm-1.6 2.3h3.2a1.6 1.6 0 0 0-1.6-1.7 1.7 1.7 0 0 0-1.6 1.7zm5.1-4h.8v6.7h-.8zm2.3 8.5v-6.7h.7v.8a2.2 2.2 0 0 1 1.7-.9c1.2 0 2.1 1 2.1 2.6a2.2 2.2 0 0 1-2.1 2.5 2 2 0 0 1-1.7-.9v2.6zm2.2-6.1a1.8 1.8 0 0 0-1.5.8v2.1a1.8 1.8 0 0 0 1.5.8 1.6 1.6 0 0 0 1.5-1.8c0-1.1-.6-1.9-1.5-1.9zm8.2-.7a2.3 2.3 0 0 1 2.3 2.6v.2h-3.9a1.8 1.8 0 0 0 1.8 1.7 1.8 1.8 0 0 0 1.4-.6l.4.5a2.9 2.9 0 0 1-1.9.7 2.4 2.4 0 0 1-2.5-2.5 2.5 2.5 0 0 1 2.4-2.6zm-1.6 2.3h3.2a1.6 1.6 0 0 0-1.6-1.7 1.7 1.7 0 0 0-1.6 1.7zm8.6 2a2.1 2.1 0 0 1-1.6.8c-1.3 0-2.1-1-2.1-2.5s.8-2.6 2.1-2.6a1.8 1.8 0 0 1 1.6.9v-2.6h.8v6.7h-.8zm0-2.8a1.7 1.7 0 0 0-1.4-.8c-1 0-1.6.8-1.6 1.9a1.6 1.6 0 0 0 1.6 1.8 1.6 1.6 0 0 0 1.4-.7zm5.5 2.8a2.3 2.3 0 0 1-1.7.8 1.3 1.3 0 0 1-1.5-1.5v-3.5h.7v3.2c0 .9.5 1.1 1.1 1.1a1.6 1.6 0 0 0 1.4-.7v-3.6h.8v4.9h-.8zm4.4-4.3a2.1 2.1 0 0 1 1.8.9l-.5.4a1.4 1.4 0 0 0-1.2-.6 1.7 1.7 0 0 0-1.7 1.9 1.7 1.7 0 0 0 1.7 1.8 1.4 1.4 0 0 0 1.2-.6l.5.5a2.4 2.4 0 0 1-1.8.8 2.4 2.4 0 0 1-2.4-2.5 2.4 2.4 0 0 1 2.4-2.6zm5.9 4.4a2 2 0 0 1-1.6.7 1.6 1.6 0 0 1-1.7-1.6 1.5 1.5 0 0 1 1.7-1.6 2 2 0 0 1 1.6.7v-.9c0-.7-.6-1-1.3-1a2 2 0 0 0-1.4.6l-.4-.5a2.7 2.7 0 0 1 1.9-.8c1.1 0 1.9.5 1.9 1.7v3.3h-.7zm0-1.4a1.7 1.7 0 0 0-1.4-.6 1.1 1.1 0 1 0 0 2.2 1.7 1.7 0 0 0 1.4-.6zm2.4 1v-3.2h-.8v-.7h.8v-1.3h.7v1.3h1v.7h-1v3c0 .4.2.6.5.6l.5-.2.2.6a1.1 1.1 0 0 1-.9.3c-.7 0-1-.4-1-1.1zm4.9-4a2.4 2.4 0 0 1 2.3 2.6v.2h-3.9a1.7 1.7 0 0 0 1.7 1.7 2 2 0 0 0 1.5-.6l.4.5a3.2 3.2 0 0 1-2 .7 2.3 2.3 0 0 1-2.4-2.5 2.5 2.5 0 0 1 2.4-2.6zm-1.6 2.3h3.1a1.6 1.6 0 0 0-1.6-1.7 1.6 1.6 0 0 0-1.5 1.7zm9.8-2.3a2.1 2.1 0 0 1 1.8.9l-.5.4a1.8 1.8 0 0 0-1.3-.6c-1 0-1.6.8-1.6 1.9a1.6 1.6 0 0 0 1.6 1.8 1.8 1.8 0 0 0 1.3-.6l.5.5a2.4 2.4 0 0 1-1.8.8 2.4 2.4 0 0 1-2.4-2.5 2.4 2.4 0 0 1 2.4-2.6zm2.5 2.6a2.5 2.5 0 0 1 2.4-2.6 2.4 2.4 0 0 1 2.4 2.6 2.3 2.3 0 0 1-2.4 2.5 2.4 2.4 0 0 1-2.4-2.5zm4 0c0-1-.5-1.9-1.6-1.9a1.7 1.7 0 0 0-1.6 1.9 1.7 1.7 0 0 0 1.6 1.8 1.6 1.6 0 0 0 1.6-1.8zm7.9-.9c0-.6-.3-1-.9-1a1.9 1.9 0 0 0-1.3.7v3.6h-.8V219c0-.6-.2-1-.8-1a1.9 1.9 0 0 0-1.3.7v3.6h-.8v-4.9h.8v.7a2 2 0 0 1 1.5-.8 1.2 1.2 0 0 1 1.3.9 2.4 2.4 0 0 1 1.7-.9c.8 0 1.3.5 1.3 1.5v3.5h-.7zm8 0c0-.6-.2-1-.8-1a1.9 1.9 0 0 0-1.3.7v3.6h-.8V219c0-.6-.2-1-.9-1a1.6 1.6 0 0 0-1.2.7v3.6h-.8v-4.9h.8v.7a2 2 0 0 1 1.5-.8 1.2 1.2 0 0 1 1.3.9 2.2 2.2 0 0 1 1.6-.9c.9 0 1.4.5 1.4 1.5v3.5h-.8zm5.6 2.6a2.5 2.5 0 0 1-1.8.8 1.3 1.3 0 0 1-1.5-1.5v-3.5h.7v3.2c0 .9.5 1.1 1.1 1.1a2 2 0 0 0 1.5-.7v-3.6h.7v4.9h-.7zm5.5-2.5a1 1 0 0 0-1.1-1.1 1.9 1.9 0 0 0-1.4.7v3.6h-.8v-4.9h.8v.7a2.3 2.3 0 0 1 1.7-.8c1 0 1.5.5 1.5 1.6v3.4h-.7zm2.1-3a.5.5 0 1 1 .5.5.5.5 0 0 1-.5-.5zm.1 1.3h.8v4.9h-.8zm2.4 3.9v-3.2h-.8v-.7h.8v-1.3h.8v1.3h.9v.7h-.9v3c0 .4.1.6.5.6l.5-.2.2.6a1.2 1.2 0 0 1-.9.3 1 1 0 0 1-1.1-1.1zm2.7-5.2a.5.5 0 1 1 .5.5.5.5 0 0 1-.5-.5zm.1 1.3h.8v4.9h-.8zm4.4-.1a2.4 2.4 0 0 1 2.3 2.6v.2H525a1.7 1.7 0 0 0 1.7 1.7 2 2 0 0 0 1.5-.6l.4.5a3.2 3.2 0 0 1-2 .7 2.3 2.3 0 0 1-2.4-2.5 2.5 2.5 0 0 1 2.4-2.6zm-1.6 2.3h3.1a1.6 1.6 0 0 0-1.6-1.7 1.6 1.6 0 0 0-1.5 1.7zm5.1 1.5a2 2 0 0 0 1.5.7c.8 0 1.2-.3 1.2-.8s-.6-.7-1.3-.9-1.7-.4-1.7-1.4.6-1.4 1.8-1.4a2.5 2.5 0 0 1 1.8.7l-.4.5a2 2 0 0 0-1.4-.6c-.7 0-1.1.3-1.1.8s.6.6 1.2.7 1.8.5 1.8 1.5-.6 1.5-1.9 1.5a2.2 2.2 0 0 1-1.9-.8zm10.2.6a1.9 1.9 0 0 1-1.6.7 1.7 1.7 0 0 1-1.7-1.6 1.6 1.6 0 0 1 1.7-1.6 1.9 1.9 0 0 1 1.6.7v-.9c0-.7-.5-1-1.2-1a2.2 2.2 0 0 0-1.5.6l-.3-.5a2.6 2.6 0 0 1 1.9-.8 1.7 1.7 0 0 1 1.9 1.7v3.3h-.8zm0-1.4a1.6 1.6 0 0 0-1.3-.6 1.1 1.1 0 1 0 0 2.2 1.6 1.6 0 0 0 1.3-.6zm5.5-1.2c0-.8-.4-1.1-1-1.1a2.4 2.4 0 0 0-1.5.7v3.6h-.7v-4.9h.7v.7a2.5 2.5 0 0 1 1.8-.8c1 0 1.5.5 1.5 1.6v3.4h-.8zm5.8 2.5a2.5 2.5 0 0 1-1.6.8 2.2 2.2 0 0 1-2.2-2.5c0-1.6.9-2.6 2.2-2.6a1.9 1.9 0 0 1 1.6.9v-2.6h.7v6.7h-.7zm0-2.8a2 2 0 0 0-1.5-.8c-.9 0-1.5.8-1.5 1.9a1.6 1.6 0 0 0 1.5 1.8 2 2 0 0 0 1.5-.7zm4.8 2.3a2 2 0 0 0 1.6.7c.7 0 1.1-.3 1.1-.8s-.6-.7-1.2-.9-1.8-.4-1.8-1.4a1.6 1.6 0 0 1 1.8-1.4 2.3 2.3 0 0 1 1.8.7l-.3.5a2.1 2.1 0 0 0-1.5-.6c-.6 0-1 .3-1 .8s.5.6 1.1.7 1.9.5 1.9 1.5-.7 1.5-1.9 1.5a2.4 2.4 0 0 1-2-.8zm4.8.2v-3.2h-.8v-.7h.8v-1.3h.8v1.3h1v.7h-1v3c0 .4.1.6.5.6l.5-.2.2.6a1.2 1.2 0 0 1-.9.3 1 1 0 0 1-1.1-1.1zm2.5-1.4a2.5 2.5 0 0 1 2.4-2.6 2.4 2.4 0 0 1 2.4 2.6 2.3 2.3 0 0 1-2.4 2.5 2.4 2.4 0 0 1-2.4-2.5zm4 0c0-1-.5-1.9-1.6-1.9a1.7 1.7 0 0 0-1.6 1.9 1.7 1.7 0 0 0 1.6 1.8 1.6 1.6 0 0 0 1.6-1.8zm2 4.2v-6.7h.8v.8a1.9 1.9 0 0 1 1.6-.9c1.3 0 2.2 1 2.2 2.6a2.2 2.2 0 0 1-2.2 2.5 1.9 1.9 0 0 1-1.6-.9v2.6zm2.2-6.1a1.5 1.5 0 0 0-1.4.8v2.1a1.5 1.5 0 0 0 1.4.8 1.6 1.6 0 0 0 1.6-1.8c0-1.1-.6-1.9-1.6-1.9zm-152.7 18.1v-6.7h.7v.8a2.2 2.2 0 0 1 1.7-.9c1.2 0 2.1 1 2.1 2.6a2.2 2.2 0 0 1-2.1 2.5 2 2 0 0 1-1.7-.9v2.6zm2.2-6.1a1.8 1.8 0 0 0-1.5.8v2.1a1.8 1.8 0 0 0 1.5.8 1.6 1.6 0 0 0 1.5-1.8c0-1.1-.6-1.9-1.5-1.9zm3.5-.6h.8v.8a2 2 0 0 1 1.6-.9v.8h-.3a1.7 1.7 0 0 0-1.3.8v3.4h-.8zm5.4-.1a2.3 2.3 0 0 1 2.3 2.6v.2h-3.9a1.8 1.8 0 0 0 1.8 1.7 2.2 2.2 0 0 0 1.5-.6l.3.5a2.9 2.9 0 0 1-1.9.7 2.4 2.4 0 0 1-2.5-2.5 2.5 2.5 0 0 1 2.4-2.6zm-1.6 2.3h3.2a1.6 1.6 0 0 0-1.6-1.7 1.7 1.7 0 0 0-1.6 1.7zm4.4-2.2h.8l1.7 4 1.6-4h.8l-2 4.9h-.9zm7.8-.1a2.4 2.4 0 0 1 2.3 2.6v.2h-3.9a1.7 1.7 0 0 0 1.7 1.7 2 2 0 0 0 1.5-.6l.4.5a3.2 3.2 0 0 1-2 .7 2.3 2.3 0 0 1-2.4-2.5 2.5 2.5 0 0 1 2.4-2.6zm-1.6 2.3h3.1a1.6 1.6 0 0 0-1.6-1.7 1.6 1.6 0 0 0-1.5 1.7zm8.3-.5c0-.8-.4-1.1-1-1.1a2.4 2.4 0 0 0-1.5.7v3.6h-.7v-4.9h.7v.7a2.5 2.5 0 0 1 1.8-.8c1 0 1.5.5 1.5 1.6v3.4h-.8zm2.4 2.2v-3.2h-.8v-.7h.8v-1.3h.8v1.3h1v.7h-1v3c0 .4.2.6.5.6l.5-.2.2.6a1.1 1.1 0 0 1-.9.3 1 1 0 0 1-1.1-1.1zm5.9.4a2 2 0 0 1-1.6.7 1.6 1.6 0 0 1-1.7-1.6 1.5 1.5 0 0 1 1.7-1.6 2 2 0 0 1 1.6.7v-.9c0-.7-.6-1-1.3-1a2 2 0 0 0-1.4.6l-.4-.5a2.6 2.6 0 0 1 1.9-.8c1.1 0 1.9.5 1.9 1.7v3.3h-.7zm0-1.4a1.7 1.7 0 0 0-1.4-.6 1.1 1.1 0 1 0 0 2.2 1.7 1.7 0 0 0 1.4-.6zm2.2-4.7h.8v2.6a1.7 1.7 0 0 1 1.6-.9c1.2 0 2.1 1 2.1 2.6a2.2 2.2 0 0 1-2.1 2.5 2.1 2.1 0 0 1-1.6-.8v.7h-.8zm2.2 6.1a1.6 1.6 0 0 0 1.6-1.8c0-1.1-.6-1.9-1.6-1.9a1.7 1.7 0 0 0-1.4.8v2.2a1.6 1.6 0 0 0 1.4.7zm3.6-6.1h.7v6.7h-.7zm4.3 1.7a2.3 2.3 0 0 1 2.3 2.6v.2h-3.9a1.8 1.8 0 0 0 1.8 1.7 1.8 1.8 0 0 0 1.4-.6l.4.5a2.9 2.9 0 0 1-1.9.7 2.4 2.4 0 0 1-2.5-2.5 2.5 2.5 0 0 1 2.4-2.6zm-1.6 2.3h3.2a1.6 1.6 0 0 0-1.6-1.7 1.7 1.7 0 0 0-1.6 1.7zm7.9 1.7v-3.2h-.8v-.7h.8v-1.3h.7v1.3h1v.7h-1v3c0 .4.2.6.5.6l.5-.2.2.6a1.1 1.1 0 0 1-.9.3c-.7 0-1-.4-1-1.1zm2.8-3.9h.7v.8a2.2 2.2 0 0 1 1.6-.9v.8h-.3a1.8 1.8 0 0 0-1.3.8v3.4h-.7zm6.3 4.3a2 2 0 0 1-1.6.7 1.7 1.7 0 0 1-1.7-1.6 1.6 1.6 0 0 1 1.7-1.6 2 2 0 0 1 1.6.7v-.9c0-.7-.5-1-1.2-1a2 2 0 0 0-1.5.6l-.4-.5a2.8 2.8 0 0 1 2-.8 1.6 1.6 0 0 1 1.8 1.7v3.3h-.7zm0-1.4a1.7 1.7 0 0 0-1.4-.6 1.1 1.1 0 1 0 0 2.2 1.7 1.7 0 0 0 1.4-.6zm2.6 2.7a2.1 2.1 0 0 0 1.6.6 1.3 1.3 0 0 0 1.5-1.4v-.7a1.8 1.8 0 0 1-1.6.8 2.2 2.2 0 0 1-2.2-2.5 2.2 2.2 0 0 1 2.2-2.5 1.9 1.9 0 0 1 1.6.9v-.8h.8v4.7a2 2 0 0 1-2.3 2.1 2.4 2.4 0 0 1-2-.7zm3.1-4.2a1.7 1.7 0 0 0-1.4-.8 1.6 1.6 0 0 0-1.6 1.8c0 1.1.6 1.9 1.6 1.9a1.7 1.7 0 0 0 1.4-.8zm4.4-1.5a2.4 2.4 0 0 1 2.3 2.6v.2h-3.9a1.7 1.7 0 0 0 1.7 1.7 2 2 0 0 0 1.5-.6l.4.5a3.2 3.2 0 0 1-2 .7 2.3 2.3 0 0 1-2.4-2.5 2.5 2.5 0 0 1 2.4-2.6zm-1.6 2.3h3.1a1.5 1.5 0 0 0-1.5-1.7 1.6 1.6 0 0 0-1.6 1.7zm8.6 2a2.5 2.5 0 0 1-1.6.8 2.2 2.2 0 0 1-2.2-2.5c0-1.6.9-2.6 2.2-2.6a1.9 1.9 0 0 1 1.6.9v-2.6h.7v6.7h-.7zm0-2.8a2 2 0 0 0-1.5-.8c-.9 0-1.5.8-1.5 1.9a1.6 1.6 0 0 0 1.5 1.8 2 2 0 0 0 1.5-.7zm2.1-2.7a.5.5 0 1 1 .5.5.5.5 0 0 1-.5-.5zm.1 1.3h.8v4.9h-.8zm4.4-.1a2.3 2.3 0 0 1 2.3 2.6v.2h-3.9a1.8 1.8 0 0 0 1.7 1.7 1.9 1.9 0 0 0 1.5-.6l.4.5a2.9 2.9 0 0 1-1.9.7 2.4 2.4 0 0 1-2.5-2.5 2.5 2.5 0 0 1 2.4-2.6zm-1.6 2.3h3.2a1.6 1.6 0 0 0-1.6-1.7 1.7 1.7 0 0 0-1.6 1.7zm5.1 1.5a2 2 0 0 0 1.6.7c.7 0 1.1-.3 1.1-.8s-.6-.7-1.2-.9-1.8-.4-1.8-1.4a1.6 1.6 0 0 1 1.8-1.4 2.3 2.3 0 0 1 1.8.7l-.3.5a2.1 2.1 0 0 0-1.5-.6c-.6 0-1 .3-1 .8s.5.6 1.1.7 1.9.5 1.9 1.5-.7 1.5-1.9 1.5a2.4 2.4 0 0 1-2-.8zm5.1.2a.5.5 0 0 1 .5.5.6.6 0 0 1-.5.6.6.6 0 0 1-.6-.6.6.6 0 0 1 .6-.5zm-96.7 12.3h4.4v.7H420v2.2h3.5v.7H420v2.3h3.6v.8h-4.4zm9.2 6a2.5 2.5 0 0 1-1.7.8 2.2 2.2 0 0 1-2.1-2.5c0-1.6.9-2.6 2.1-2.6a2 2 0 0 1 1.7.9v-2.6h.7v6.7h-.7zm0-2.8a2 2 0 0 0-1.5-.8c-.9 0-1.5.8-1.5 1.9a1.6 1.6 0 0 0 1.5 1.8 2 2 0 0 0 1.5-.7zm5.5 2.8a2.5 2.5 0 0 1-1.7.8 1.4 1.4 0 0 1-1.6-1.5v-3.5h.8v3.2c0 .9.4 1.1 1.1 1.1a1.9 1.9 0 0 0 1.4-.7v-3.6h.7v4.9h-.7zm4.4-4.3a1.9 1.9 0 0 1 1.7.9l-.5.4a1.4 1.4 0 0 0-1.2-.6 1.7 1.7 0 0 0-1.7 1.9 1.7 1.7 0 0 0 1.7 1.8 1.4 1.4 0 0 0 1.2-.6l.5.5a2.1 2.1 0 0 1-1.7.8 2.3 2.3 0 0 1-2.4-2.5 2.4 2.4 0 0 1 2.4-2.6zm5.8 4.4a1.9 1.9 0 0 1-1.6.7 1.7 1.7 0 0 1-1.7-1.6 1.6 1.6 0 0 1 1.7-1.6 1.9 1.9 0 0 1 1.6.7v-.9c0-.7-.5-1-1.2-1a2 2 0 0 0-1.5.6l-.3-.5a2.6 2.6 0 0 1 1.9-.8 1.7 1.7 0 0 1 1.9 1.7v3.3h-.8zm0-1.4a1.6 1.6 0 0 0-1.3-.6 1.1 1.1 0 1 0 0 2.2 1.6 1.6 0 0 0 1.3-.6zm2.4 1v-3.2h-.8v-.7h.8v-1.3h.8v1.3h.9v.7h-.9v3c0 .4.1.6.4.6l.6-.2.2.6a1.2 1.2 0 0 1-.9.3 1 1 0 0 1-1.1-1.1zm4.9-4a2.3 2.3 0 0 1 2.3 2.6v.2h-3.9a1.8 1.8 0 0 0 1.7 1.7 1.9 1.9 0 0 0 1.5-.6l.4.5a2.9 2.9 0 0 1-1.9.7 2.4 2.4 0 0 1-2.5-2.5 2.5 2.5 0 0 1 2.4-2.6zm-1.6 2.3h3.2a1.6 1.6 0 0 0-1.6-1.7 1.7 1.7 0 0 0-1.6 1.7zm8 4c.3 0 .5-.1.7-.5l.3-.8-2-4.9h.8l1.6 4 1.6-4h.8l-2.4 5.9a1.4 1.4 0 0 1-1.4.9h-.6l.2-.7zm4.3-3.7a2.4 2.4 0 1 1 4.8 0 2.4 2.4 0 1 1-4.8 0zm4 0a1.6 1.6 0 1 0-3.2 0 1.6 1.6 0 1 0 3.2 0zm5.3 1.7a2.5 2.5 0 0 1-1.7.8 1.4 1.4 0 0 1-1.6-1.5v-3.5h.8v3.2c0 .9.4 1.1 1.1 1.1a1.9 1.9 0 0 0 1.4-.7v-3.6h.7v4.9h-.7zm2.2-4.2h.8v.8a2 2 0 0 1 1.6-.9v.8h-.3a1.7 1.7 0 0 0-1.3.8v3.4h-.8zm3.3 3.7a2 2 0 0 0 1.6.7c.7 0 1.1-.3 1.1-.8s-.6-.7-1.2-.9-1.8-.4-1.8-1.4a1.6 1.6 0 0 1 1.8-1.4 2.3 2.3 0 0 1 1.8.7l-.3.5a2.1 2.1 0 0 0-1.5-.6c-.6 0-1 .3-1 .8s.5.6 1.2.7 1.8.5 1.8 1.5-.7 1.5-1.9 1.5a2.4 2.4 0 0 1-2-.8zm6.8-3.8a2.4 2.4 0 0 1 2.3 2.6v.2h-3.9a1.8 1.8 0 0 0 1.7 1.7 2 2 0 0 0 1.5-.6l.4.5a2.9 2.9 0 0 1-1.9.7 2.4 2.4 0 0 1-2.5-2.5 2.5 2.5 0 0 1 2.4-2.6zm-1.6 2.3h3.2a1.6 1.6 0 1 0-3.2 0zm5.1-4h.8v6.7h-.8zm2.5 2.5h-.8v-.7h.8v-.3c0-1 .5-1.6 1.4-1.6l.7.2-.2.5h-.4c-.5 0-.8.4-.8 1v.3h1v.7h-1v4.2h-.7zm2.6 3.2a.5.5 0 0 1 .5.5.6.6 0 0 1-.5.6.6.6 0 0 1-.6-.6.6.6 0 0 1 .6-.5zm6.1-5h-2.1v-.7h5.1v.7h-2.1v6h-.9zm6.1 5.4a1.9 1.9 0 0 1-1.6.7 1.7 1.7 0 0 1-1.7-1.6 1.6 1.6 0 0 1 1.7-1.6 1.9 1.9 0 0 1 1.6.7v-.9c0-.7-.5-1-1.2-1a2 2 0 0 0-1.5.6l-.3-.5a2.6 2.6 0 0 1 1.9-.8 1.7 1.7 0 0 1 1.9 1.7v3.3h-.8zm0-1.4a1.6 1.6 0 0 0-1.3-.6 1.1 1.1 0 1 0 0 2.2 1.6 1.6 0 0 0 1.3-.6zm3.8-.2l-.8.8v1.4h-.7v-6.7h.7v4.4l2.6-2.6h.9l-2.1 2.2 2.1 2.7h-.9zm5.5-2.8a2.4 2.4 0 0 1 2.3 2.6v.2h-3.9a1.7 1.7 0 0 0 1.7 1.7 2 2 0 0 0 1.5-.6l.4.5a3.2 3.2 0 0 1-1.9.7 2.4 2.4 0 0 1-2.5-2.5 2.5 2.5 0 0 1 2.4-2.6zm-1.6 2.3h3.2c-.1-.8-.5-1.7-1.6-1.7a1.6 1.6 0 0 0-1.6 1.7zm7.8 1.7v-3.2h-.8v-.7h.8v-1.3h.8v1.3h1v.7h-1v3c0 .4.1.6.5.6l.5-.2.2.6a1.2 1.2 0 0 1-.9.3 1 1 0 0 1-1.1-1.1zm6.1-2.2c0-.9-.4-1.1-1.1-1.1a2.1 2.1 0 0 0-1.4.7v3.6h-.8v-6.7h.8v2.5a2.3 2.3 0 0 1 1.7-.8c1 0 1.5.5 1.5 1.6v3.4h-.7zm4.3-1.8a2.4 2.4 0 0 1 2.4 2.6v.2h-3.9a1.7 1.7 0 0 0 1.7 1.7 2.2 2.2 0 0 0 1.5-.6l.3.5a2.7 2.7 0 0 1-1.9.7 2.3 2.3 0 0 1-2.4-2.5 2.5 2.5 0 0 1 2.3-2.6zm-1.5 2.3h3.1a1.6 1.6 0 0 0-1.6-1.7 1.6 1.6 0 0 0-1.5 1.7zm7.7 4.5v-6.7h.7v.8a2.2 2.2 0 0 1 1.6-.9c1.3 0 2.2 1 2.2 2.6a2.2 2.2 0 0 1-2.2 2.5 1.9 1.9 0 0 1-1.6-.9v2.6zm2.1-6.1a1.7 1.7 0 0 0-1.4.8v2.1a1.7 1.7 0 0 0 1.4.8 1.6 1.6 0 0 0 1.6-1.8c0-1.1-.6-1.9-1.6-1.9zm3.6-2.4h.7v6.7h-.7zm4.3 1.7a2.4 2.4 0 0 1 2.4 2.6v.2h-3.9a1.7 1.7 0 0 0 1.7 1.7 2.2 2.2 0 0 0 1.5-.6l.3.5a2.7 2.7 0 0 1-1.9.7 2.3 2.3 0 0 1-2.4-2.5 2.5 2.5 0 0 1 2.3-2.6zm-1.5 2.3h3.1a1.6 1.6 0 0 0-1.6-1.7 1.6 1.6 0 0 0-1.5 1.7zm8.6 2a2.5 2.5 0 0 1-1.7.8 2.2 2.2 0 0 1-2.1-2.5c0-1.6.9-2.6 2.1-2.6a2 2 0 0 1 1.7.9v-2.6h.7v6.7h-.7zm0-2.8a2 2 0 0 0-1.5-.8c-.9 0-1.5.8-1.5 1.9a1.6 1.6 0 0 0 1.5 1.8 2 2 0 0 0 1.5-.7zm2.6 4.2a2.1 2.1 0 0 0 1.6.6 1.3 1.3 0 0 0 1.5-1.4v-.7a1.8 1.8 0 0 1-1.6.8 2.2 2.2 0 0 1-2.2-2.5 2.2 2.2 0 0 1 2.2-2.5 1.9 1.9 0 0 1 1.6.9v-.8h.8v4.7a2 2 0 0 1-2.3 2.1 2.4 2.4 0 0 1-2-.7zm3.1-4.2a1.7 1.7 0 0 0-1.4-.8 1.6 1.6 0 0 0-1.6 1.8c0 1.1.6 1.9 1.6 1.9a1.7 1.7 0 0 0 1.4-.8zm4.4-1.5a2.4 2.4 0 0 1 2.3 2.6v.2h-3.9a1.7 1.7 0 0 0 1.7 1.7 2 2 0 0 0 1.5-.6l.4.5a3.2 3.2 0 0 1-2 .7 2.3 2.3 0 0 1-2.4-2.5 2.5 2.5 0 0 1 2.4-2.6zm-1.6 2.3h3.1a1.5 1.5 0 0 0-1.5-1.7 1.6 1.6 0 0 0-1.6 1.7zm5.4 1.7a.6.6 0 0 1 .6.5.6.6 0 0 1-.6.6.6.6 0 0 1-.5-.6.5.5 0 0 1 .5-.5zm-148.3 11.4a2.8 2.8 0 0 0 2.1 1c1.2 0 1.6-.7 1.6-1.2s-.8-1-1.7-1.3-2.3-.5-2.3-1.8a2.1 2.1 0 0 1 2.3-1.9 3.2 3.2 0 0 1 2.4.9l-.5.6a2.7 2.7 0 0 0-1.9-.8 1.3 1.3 0 0 0-1.4 1.1c0 .7.8.9 1.6 1.1s2.3.6 2.3 2-.6 2-2.4 2a3.2 3.2 0 0 1-2.6-1.1zm9-1.6c0-.9-.4-1.1-1.1-1.1a2.1 2.1 0 0 0-1.4.7v3.6h-.8v-6.7h.8v2.5a2.3 2.3 0 0 1 1.7-.8 1.4 1.4 0 0 1 1.6 1.6v3.4h-.8zm5.3 2.6a2 2 0 0 1-1.6.7 1.7 1.7 0 0 1-1.7-1.6 1.6 1.6 0 0 1 1.7-1.6 2 2 0 0 1 1.6.7v-.9c0-.7-.5-1-1.2-1a2 2 0 0 0-1.5.6l-.4-.5a3 3 0 0 1 2-.8 1.6 1.6 0 0 1 1.8 1.7v3.3h-.7zm0-1.4a1.6 1.6 0 0 0-1.3-.6 1.1 1.1 0 1 0 0 2.2 1.6 1.6 0 0 0 1.3-.6zm2.2-2.9h.8v.8a2 2 0 0 1 1.6-.9v.8h-.3a1.7 1.7 0 0 0-1.3.8v3.4h-.8zm5.4-.1a2.4 2.4 0 0 1 2.4 2.6v.2h-4a1.8 1.8 0 0 0 1.8 1.7 2.2 2.2 0 0 0 1.5-.6l.3.5a2.7 2.7 0 0 1-1.9.7 2.3 2.3 0 0 1-2.4-2.5 2.5 2.5 0 0 1 2.3-2.6zm-1.6 2.3h3.2a1.6 1.6 0 0 0-1.6-1.7 1.7 1.7 0 0 0-1.6 1.7zm7.9 1.7v-3.2h-.8v-.7h.8v-1.3h.7v1.3h1v.7h-1v3c0 .4.2.6.5.6l.5-.2.3.6a1.2 1.2 0 0 1-.9.3 1 1 0 0 1-1.1-1.1zm6.1-2.2c0-.9-.5-1.1-1.1-1.1a2.4 2.4 0 0 0-1.5.7v3.6h-.7v-6.7h.7v2.5a2.5 2.5 0 0 1 1.8-.8c1 0 1.5.5 1.5 1.6v3.4h-.7zm4.3-1.8a2.3 2.3 0 0 1 2.3 2.6v.2h-3.9a1.8 1.8 0 0 0 1.8 1.7 1.8 1.8 0 0 0 1.4-.6l.4.5a2.9 2.9 0 0 1-1.9.7 2.4 2.4 0 0 1-2.5-2.5 2.5 2.5 0 0 1 2.4-2.6zm-1.6 2.3h3.2a1.6 1.6 0 0 0-1.6-1.7 1.7 1.7 0 0 0-1.6 1.7zm13.5-.6c0-.6-.2-1-.8-1a1.9 1.9 0 0 0-1.3.7v3.6h-.8V261c0-.6-.2-1-.9-1a1.6 1.6 0 0 0-1.2.7v3.6h-.8v-4.9h.8v.7a2 2 0 0 1 1.5-.8 1.2 1.2 0 0 1 1.3.9 2.2 2.2 0 0 1 1.6-.9c.9 0 1.4.5 1.4 1.5v3.5h-.8zm4.4-1.7a2.3 2.3 0 0 1 2.3 2.6v.2h-3.9a1.8 1.8 0 0 0 1.7 1.7 1.9 1.9 0 0 0 1.5-.6l.4.5a2.9 2.9 0 0 1-1.9.7 2.4 2.4 0 0 1-2.5-2.5 2.5 2.5 0 0 1 2.4-2.6zm-1.6 2.3h3.2a1.6 1.6 0 0 0-1.6-1.7 1.7 1.7 0 0 0-1.6 1.7zm5.1 1.5a2 2 0 0 0 1.6.7c.7 0 1.1-.3 1.1-.8s-.6-.7-1.2-.9-1.8-.4-1.8-1.4a1.6 1.6 0 0 1 1.8-1.4 2.3 2.3 0 0 1 1.8.7l-.3.5a2.1 2.1 0 0 0-1.5-.6c-.6 0-1 .3-1 .8s.5.6 1.1.7 1.9.5 1.9 1.5-.7 1.5-1.9 1.5a2.4 2.4 0 0 1-2-.8zm4.6 0a2.4 2.4 0 0 0 1.6.7c.8 0 1.2-.3 1.2-.8s-.6-.7-1.3-.9-1.7-.4-1.7-1.4.6-1.4 1.8-1.4a2.5 2.5 0 0 1 1.8.7l-.4.5a2 2 0 0 0-1.4-.6c-.7 0-1.1.3-1.1.8s.6.6 1.2.7 1.8.5 1.8 1.5-.6 1.5-1.9 1.5a2.1 2.1 0 0 1-1.9-.8zm7.7.6a1.9 1.9 0 0 1-1.6.7 1.6 1.6 0 0 1-1.6-1.6 1.5 1.5 0 0 1 1.6-1.6 1.8 1.8 0 0 1 1.6.7v-.9c0-.7-.5-1-1.2-1a2.2 2.2 0 0 0-1.5.6l-.3-.5a2.6 2.6 0 0 1 1.9-.8 1.7 1.7 0 0 1 1.9 1.7v3.3h-.8zm0-1.4a1.5 1.5 0 0 0-1.3-.6 1.1 1.1 0 1 0 0 2.2 1.5 1.5 0 0 0 1.3-.6zm2.7 2.7a1.9 1.9 0 0 0 1.5.6 1.4 1.4 0 0 0 1.6-1.4v-.7a2.1 2.1 0 0 1-1.6.8 2.2 2.2 0 0 1-2.2-2.5 2.2 2.2 0 0 1 2.2-2.5 1.9 1.9 0 0 1 1.6.9v-.8h.7v4.7c0 1.6-1.1 2.1-2.3 2.1a2.3 2.3 0 0 1-1.9-.7zm3.1-4.2a2 2 0 0 0-1.5-.8 1.6 1.6 0 0 0-1.5 1.8c0 1.1.6 1.9 1.5 1.9a2 2 0 0 0 1.5-.8zm4.3-1.5a2.4 2.4 0 0 1 2.4 2.6v.2h-4a1.8 1.8 0 0 0 1.8 1.7 2.2 2.2 0 0 0 1.5-.6l.3.5a2.7 2.7 0 0 1-1.9.7 2.3 2.3 0 0 1-2.4-2.5 2.5 2.5 0 0 1 2.3-2.6zm-1.6 2.3h3.2a1.6 1.6 0 0 0-1.6-1.7 1.7 1.7 0 0 0-1.6 1.7zm5.5 1.7a.5.5 0 0 1 .5.5.6.6 0 0 1-.5.6.6.6 0 0 1-.6-.6.6.6 0 0 1 .6-.5zm8 .3a2.5 2.5 0 0 1-1.7.8 2.2 2.2 0 0 1-2.1-2.5c0-1.6.9-2.6 2.1-2.6a2 2 0 0 1 1.7.9v-2.6h.7v6.7h-.7zm0-2.8a2 2 0 0 0-1.5-.8c-.9 0-1.5.8-1.5 1.9a1.6 1.6 0 0 0 1.5 1.8 2 2 0 0 0 1.5-.7zm1.9 1.1a2.5 2.5 0 0 1 2.4-2.6 2.4 2.4 0 0 1 2.4 2.6 2.3 2.3 0 0 1-2.4 2.5 2.4 2.4 0 0 1-2.4-2.5zm4 0c0-1-.5-1.9-1.6-1.9a1.7 1.7 0 0 0-1.6 1.9 1.7 1.7 0 0 0 1.6 1.8 1.6 1.6 0 0 0 1.6-1.8zm5.3-.8a1 1 0 0 0-1.1-1.1 2.1 2.1 0 0 0-1.4.7v3.6h-.8v-4.9h.8v.7a2.3 2.3 0 0 1 1.7-.8 1.4 1.4 0 0 1 1.6 1.6v3.4h-.8zm2-1.6a1.8 1.8 0 0 0 .7-1h-.2a.6.6 0 0 1-.5-.6.6.6 0 0 1 .6-.5c.3 0 .6.3.6.8a2.2 2.2 0 0 1-.8 1.5zm2.6 3.8v-3.2h-.8v-.7h.8v-1.3h.8v1.3h1v.7h-1v3c0 .4.2.6.5.6l.5-.2.2.6a1.1 1.1 0 0 1-.9.3 1 1 0 0 1-1.1-1.1zm5.6 0v-3.2h-.8v-.7h.8v-1.3h.7v1.3h1v.7h-1v3c0 .4.2.6.5.6l.5-.2.2.6a1.1 1.1 0 0 1-.9.3c-.7 0-1-.4-1-1.1zm4.4-1l-1.4 2h-.9l1.9-2.5-1.8-2.4h.9l1.3 1.9 1.4-1.9h.8l-1.7 2.4 1.9 2.5h-.9zm3.4 1v-3.2h-.8v-.7h.8v-1.3h.7v1.3h1v.7h-1v3c0 .4.2.6.5.6l.5-.2.2.6a1.1 1.1 0 0 1-.9.3c-.7 0-1-.4-1-1.1zm7.4 0h-.6v-2.1h-1.9v-.6h1.9v-2h.6v2h1.9v.6h-1.9zm9 .3a2.2 2.2 0 0 1-3.8-1.7c0-1.6.9-2.6 2.2-2.6a1.9 1.9 0 0 1 1.6.9v-2.6h.8v6.7h-.8zm0-2.8a1.8 1.8 0 0 0-1.4-.8c-1 0-1.6.8-1.6 1.9a1.6 1.6 0 0 0 1.6 1.8 1.7 1.7 0 0 0 1.4-.7zm2.3-1.4h.7v.8a2.2 2.2 0 0 1 1.6-.9v.8h-.3a1.8 1.8 0 0 0-1.3.8v3.4h-.7zm2.5 0h.8l1.7 4 1.6-4h.8l-2 4.9h-.9zm5.4 3.9a.5.5 0 0 1 .5.5.6.6 0 0 1-.5.6.6.6 0 0 1-.6-.6.6.6 0 0 1 .6-.5zm-326.2-86.2h-3.1v2.8h-1.4v-6.6h1.4v2.6h3.1v-2.6h1.5v6.6h-1.5zm4.9-2.1a2.5 2.5 0 0 1 2.5 2.7v.2h-3.6a1.3 1.3 0 0 0 1.4 1.2 1.8 1.8 0 0 0 1.2-.5l.6.8a3.2 3.2 0 0 1-2 .7 2.6 2.6 0 0 1-.1-5.1zm-1.2 2.1h2.4a1.1 1.1 0 0 0-1.2-1.1 1.2 1.2 0 0 0-1.2 1.1zm4.6-2h1.2v.7a2.1 2.1 0 0 1 1.6-.8v1.2h-.4a1.6 1.6 0 0 0-1.2.6v3.1h-1.2zm5.8-.1a2.5 2.5 0 0 1 2.4 2.7v.2h-3.6a1.4 1.4 0 0 0 1.4 1.2 2.1 2.1 0 0 0 1.3-.5l.5.8a3.2 3.2 0 0 1-2 .7 2.4 2.4 0 0 1-2.5-2.6 2.4 2.4 0 0 1 2.5-2.5zm-1.2 2.1h2.4a1.2 1.2 0 0 0-1.2-1.1 1.1 1.1 0 0 0-1.2 1.1zm4.4-1.5c.3-.2.7-.6.7-.9h-.1a.7.7 0 0 1-.7-.7.7.7 0 0 1 .8-.8.9.9 0 0 1 .9 1 2.7 2.7 0 0 1-1.1 1.9zm2.4 2.8a2.6 2.6 0 0 0 1.7.7c.5 0 .8-.2.8-.5s-.4-.5-1-.6-1.9-.3-1.9-1.5.7-1.5 2-1.5a2.7 2.7 0 0 1 1.9.7l-.5.8a1.8 1.8 0 0 0-1.4-.5c-.4 0-.7.1-.7.4s.3.4.9.5 1.9.4 1.9 1.6-.7 1.6-2.1 1.6a3 3 0 0 1-2.1-.8zm10.1 1a2 2 0 0 1-1.5.7 1.7 1.7 0 0 1-1.7-1.6 1.5 1.5 0 0 1 1.7-1.6 1.9 1.9 0 0 1 1.5.6v-.7a.9.9 0 0 0-1-.8 2.2 2.2 0 0 0-1.5.6l-.4-.8a2.8 2.8 0 0 1 2.1-.8c1.1 0 2.1.4 2.1 1.8v3.1h-1.3zm0-1.2a1.2 1.2 0 0 0-1-.4c-.5 0-.9.2-.9.7a.8.8 0 0 0 .9.7 1.2 1.2 0 0 0 1-.4zm5.2.2a2.6 2.6 0 0 0 1.7.7c.6 0 .8-.2.8-.5s-.4-.5-1-.6-1.9-.3-1.9-1.5.8-1.5 2-1.5a3.2 3.2 0 0 1 2 .7l-.5.8a2.3 2.3 0 0 0-1.5-.5c-.4 0-.7.1-.7.4s.4.4.9.5 1.9.4 1.9 1.6-.7 1.6-2.1 1.6a3 3 0 0 1-2.1-.8zm6.9-3.4a2.1 2.1 0 0 1 1.9.9l-.8.7a1.2 1.2 0 0 0-1-.5 1.3 1.3 0 0 0-1.3 1.4 1.3 1.3 0 0 0 2.3.9l.8.8a2.3 2.3 0 0 1-1.9.9 2.4 2.4 0 0 1-2.5-2.6 2.4 2.4 0 0 1 2.5-2.5zm5.7 4.4a2.2 2.2 0 0 1-1.6.7 1.6 1.6 0 0 1-1.6-1.6 1.5 1.5 0 0 1 1.6-1.6 2.1 2.1 0 0 1 1.6.6v-.7c0-.4-.5-.8-1.1-.8a2 2 0 0 0-1.4.6l-.5-.8a2.9 2.9 0 0 1 2.1-.8c1.1 0 2.1.4 2.1 1.8v3.1h-1.2zm0-1.2a1.2 1.2 0 0 0-1.1-.4c-.5 0-.9.2-.9.7a.8.8 0 0 0 .9.7 1.2 1.2 0 0 0 1.1-.4zm2.5-3.1h1.3v.7a1.8 1.8 0 0 1 1.5-.8v1.2h-.3a1.3 1.3 0 0 0-1.2.6v3.1h-1.3zm4 5.7a.7.7 0 0 0 .7-.4l.2-.4-2-4.9h1.4l1.2 3.4 1.3-3.4h1.4l-2.3 5.6a1.8 1.8 0 0 1-1.8 1.2h-.7l.2-1.1zm7.4-2.4a2.6 2.6 0 0 0 1.7.7c.5 0 .8-.2.8-.5s-.4-.5-1-.6-1.9-.3-1.9-1.5.7-1.5 2-1.5a2.7 2.7 0 0 1 1.9.7l-.5.8a1.8 1.8 0 0 0-1.4-.5c-.4 0-.7.1-.7.4s.3.4.9.5 1.9.4 1.9 1.6-.7 1.6-2.1 1.6a3 3 0 0 1-2.1-.8zm4.9.3v-2.5h-.8v-1.1h.8v-1.3h1.3v1.3h1v1.1h-1v2.2c0 .3.1.5.4.5h.5l.2 1a2 2 0 0 1-1 .3 1.3 1.3 0 0 1-1.4-1.5zm6 .7a2 2 0 0 1-1.5.7 1.7 1.7 0 0 1-1.7-1.6 1.5 1.5 0 0 1 1.7-1.6 1.9 1.9 0 0 1 1.5.6v-.7a.9.9 0 0 0-1-.8 2 2 0 0 0-1.4.6l-.5-.8a2.8 2.8 0 0 1 2.1-.8c1.1 0 2.1.4 2.1 1.8v3.1H314zm0-1.2a1.2 1.2 0 0 0-1-.4c-.5 0-.9.2-.9.7a.8.8 0 0 0 .9.7 1.2 1.2 0 0 0 1-.4zm2.8.5v-2.5h-.8v-1.1h.8v-1.3h1.3v1.3h1v1.1h-1v2.2a.5.5 0 0 0 .4.5h.5l.2 1a1.7 1.7 0 0 1-1 .3 1.3 1.3 0 0 1-1.4-1.5zm3-5.1a.8.8 0 0 1 .8-.7.7.7 0 0 1 .7.7.7.7 0 0 1-.7.8.8.8 0 0 1-.8-.8zm.1 1.5h1.3v4.8h-1.3zm2.7 3.3a2.6 2.6 0 0 0 1.7.7c.5 0 .8-.2.8-.5s-.4-.5-1-.6-1.9-.3-1.9-1.5.7-1.5 2-1.5a2.7 2.7 0 0 1 1.9.7l-.5.8a2 2 0 0 0-1.4-.5c-.5 0-.8.1-.8.4s.4.4 1 .5 1.9.4 1.9 1.6-.7 1.6-2.1 1.6a3 3 0 0 1-2.1-.8zm4.9.3v-2.5h-.8v-1.1h.8v-1.3h1.3v1.3h1v1.1h-1v2.2c0 .3.1.5.4.5h.5l.2 1a2 2 0 0 1-1 .3 1.3 1.3 0 0 1-1.4-1.5zm3-5.1a.7.7 0 0 1 .8-.7.7.7 0 0 1 .7.7.7.7 0 0 1-.7.8.7.7 0 0 1-.8-.8zm.1 1.5h1.3v4.8h-1.3zm4.8-.1a2.1 2.1 0 0 1 1.9.9l-.8.7a1.2 1.2 0 0 0-1-.5 1.3 1.3 0 0 0-1.3 1.4 1.3 1.3 0 0 0 2.3.9l.8.8a2.3 2.3 0 0 1-1.9.9 2.5 2.5 0 0 1-2.6-2.6 2.4 2.4 0 0 1 2.6-2.5zm3.4 3.4a.9.9 0 0 1 .8.8.8.8 0 1 1-1.6 0 .9.9 0 0 1 .8-.8zm4.5-5.1h1.4v6.6h-1.4zm3 2.9h-.8v-1.1h.8v-.2a1.6 1.6 0 0 1 1.6-1.7l.9.2-.2.9h-.4c-.4 0-.6.2-.6.7v.2h.9v1.1h-.9v3.7h-1.3zm6 4.6a.5.5 0 0 0 .6-.4l.2-.4-2-4.9h1.4l1.3 3.4 1.2-3.4h1.4l-2.3 5.6a1.7 1.7 0 0 1-1.8 1.2h-.6l.2-1.1zm4.4-3.3a2.4 2.4 0 0 1 2.5-2.5 2.6 2.6 0 1 1 0 5.1 2.4 2.4 0 0 1-2.5-2.6zm3.7 0a1.2 1.2 0 1 0-2.4 0c0 .8.4 1.4 1.2 1.4s1.2-.6 1.2-1.4zm5.6 1.8a2.3 2.3 0 0 1-1.7.8 1.4 1.4 0 0 1-1.6-1.6v-3.4h1.3v2.9c0 .7.3.9.9.9a1.4 1.4 0 0 0 1.1-.5v-3.3h1.2v4.8H366zm5.3-.6v-2.5h-.8v-1.1h.8v-1.3h1.3v1.3h1v1.1h-1v2.2c0 .3.1.5.4.5h.5l.2 1a2 2 0 0 1-1 .3 1.3 1.3 0 0 1-1.4-1.5z"/><path fill="#231f20" d="M376.6 175a2.4 2.4 0 0 1 2.4 2.7v.2h-3.5a1.2 1.2 0 0 0 1.3 1.2 1.9 1.9 0 0 0 1.3-.5l.6.8a3.2 3.2 0 0 1-2 .7 2.6 2.6 0 1 1-.1-5.1zm-1.2 2.1h2.4a1.1 1.1 0 0 0-1.2-1.1 1.2 1.2 0 0 0-1.2 1.1z"/><path fill="#231f20" d="M381.5 178.3l-1.1 1.6H379l1.7-2.4-1.6-2.4h1.4l1 1.5 1-1.5h1.4l-1.6 2.4 1.7 2.4h-1.4zm3.4.4v-2.5h-.8v-1.1h.8v-1.3h1.3v1.3h1v1.1h-1v2.2a.5.5 0 0 0 .4.5h.5l.2 1a1.7 1.7 0 0 1-1 .3 1.3 1.3 0 0 1-1.4-1.5zm8.6.7a2 2 0 0 1-1.5.7 1.7 1.7 0 0 1-1.7-1.6 1.5 1.5 0 0 1 1.7-1.6 1.9 1.9 0 0 1 1.5.6v-.7c0-.4-.4-.8-1.1-.8a2 2 0 0 0-1.4.6l-.4-.8a2.6 2.6 0 0 1 2.1-.8c1.1 0 2.1.4 2.1 1.8v3.1h-1.3zm0-1.2a1.2 1.2 0 0 0-1-.4c-.5 0-.9.2-.9.7a.8.8 0 0 0 .9.7 1.2 1.2 0 0 0 1-.4zm5.8-1.2a.8.8 0 0 0-.9-.9 1.4 1.4 0 0 0-1.1.6v3.2H396v-4.8h1.3v.6a2.5 2.5 0 0 1 1.7-.7 1.4 1.4 0 0 1 1.6 1.5v3.4h-1.3zm5.8 2.3a1.7 1.7 0 0 1-1.4.8c-1.3 0-2.2-1-2.2-2.6a2.2 2.2 0 0 1 2.2-2.5 1.6 1.6 0 0 1 1.4.7v-2.4h1.3v6.6h-1.3zm0-2.6a1.4 1.4 0 0 0-1.1-.6 1.3 1.3 0 0 0-1.2 1.4c0 .9.5 1.4 1.2 1.4a1.3 1.3 0 0 0 1.1-.5zm8.5 2.6a1.9 1.9 0 0 1-1.5.8 2.3 2.3 0 0 1-2.2-2.6 2.2 2.2 0 0 1 2.2-2.5 1.9 1.9 0 0 1 1.5.7v-2.4h1.2v6.6h-1.2zm0-2.6a1.7 1.7 0 0 0-1.1-.6 1.3 1.3 0 0 0-1.3 1.4 1.2 1.2 0 0 0 1.3 1.4 1.6 1.6 0 0 0 1.1-.5zm2.5-1.6h1.3v.7a1.8 1.8 0 0 1 1.5-.8v1.2h-.3a1.3 1.3 0 0 0-1.2.6v3.1h-1.3zm3.5-1.5a.7.7 0 0 1 .7-.7.7.7 0 0 1 .8.7.7.7 0 0 1-.8.8.7.7 0 0 1-.7-.8zm.1 1.5h1.3v4.8h-1.3zm1.8 0h1.4l1.3 3.4 1.2-3.4h1.4l-1.9 4.8h-1.4zm8.1-.1a2.5 2.5 0 0 1 2.4 2.7v.2h-3.6a1.4 1.4 0 0 0 1.4 1.2 2.4 2.4 0 0 0 1.3-.5l.5.8a3.2 3.2 0 0 1-2 .7 2.4 2.4 0 0 1-2.5-2.6 2.4 2.4 0 0 1 2.5-2.5zm-1.2 2.1h2.3a1 1 0 0 0-1.1-1.1 1.1 1.1 0 0 0-1.2 1.1zm4.4 3.8a2 2 0 0 0 .8-1h-.2a.7.7 0 0 1-.7-.8.9.9 0 0 1 .8-.8 1 1 0 0 1 .9 1.1 2.1 2.1 0 0 1-1.1 1.8zm5.6-.1a.8.8 0 0 0 .7-.4v-.4l-1.9-4.9h1.3l1.3 3.4 1.3-3.4h1.3l-2.2 5.6a1.8 1.8 0 0 1-1.9 1.2h-.6l.2-1.1zm4.4-3.3a2.6 2.6 0 0 1 5.1 0 2.6 2.6 0 1 1-5.1 0zm3.8 0a1.3 1.3 0 1 0-2.5 0 1.3 1.3 0 0 0 1.2 1.4 1.3 1.3 0 0 0 1.3-1.4zm5.5 1.8a2.1 2.1 0 0 1-1.7.8 1.4 1.4 0 0 1-1.6-1.6v-3.4h1.3v2.9a.8.8 0 0 0 .9.9 1.3 1.3 0 0 0 1.1-.5v-3.3h1.3v4.8h-1.3zm2.5-3.7c.3-.2.7-.6.7-.9h-.1a.7.7 0 0 1-.7-.7.7.7 0 0 1 .8-.8.9.9 0 0 1 .9 1 2.7 2.7 0 0 1-1.1 1.9zm2.6-.5h1.3v.7a1.8 1.8 0 0 1 1.5-.8v1.2h-.4a1.3 1.3 0 0 0-1.1.6v3.1h-1.3zm5.8-.1a2.5 2.5 0 0 1 2.4 2.7v.2h-3.6a1.4 1.4 0 0 0 1.4 1.2 2.1 2.1 0 0 0 1.3-.5l.5.8a3.2 3.2 0 0 1-2 .7 2.4 2.4 0 0 1-2.5-2.6 2.4 2.4 0 0 1 2.5-2.5zm-1.2 2.1h2.4a1.2 1.2 0 0 0-1.2-1.1 1.1 1.1 0 0 0-1.2 1.1zm6.9 1.7c2.7-2 3.5-2.7 3.5-3.5s-.5-.9-1.1-.9a2.1 2.1 0 0 0-1.7.8l-.8-.9a3.1 3.1 0 0 1 2.5-1.1c1.4 0 2.6.8 2.6 2.1s-1 2.1-2.7 3.4h2.7v1.2h-5zm6.5-.7a2.9 2.9 0 0 0 1.8.7c.8 0 1.3-.3 1.3-.8s-.4-.8-1.4-.8h-.8v-1.3h.8c.8 0 1.3-.3 1.3-.8s-.6-.8-1.3-.8a2.8 2.8 0 0 0-1.7.7l-.7-.9a3.5 3.5 0 0 1 2.6-1c1.5 0 2.5.7 2.5 1.8a1.6 1.6 0 0 1-1.5 1.5 1.7 1.7 0 0 1 1.6 1.6c0 1.2-1 2-2.6 2a3.4 3.4 0 0 1-2.7-1.1zm8.4.6v-2.5h-.8v-1.1h.8v-1.3h1.2v1.3h1v1.1h-1v2.2a.5.5 0 0 0 .5.5h.4l.3 1a2.4 2.4 0 0 1-1.1.3c-.9-.1-1.3-.6-1.3-1.5zm3-5.1a.7.7 0 0 1 .7-.7.8.8 0 0 1 .8.7.8.8 0 0 1-.8.8.7.7 0 0 1-.7-.8zm.1 1.5h1.3v4.8h-1.3zm8.5 1.8c0-.5-.2-.8-.7-.8a1.2 1.2 0 0 0-1 .6v3.2h-1.3v-3c0-.5-.2-.8-.7-.8a1.2 1.2 0 0 0-1 .6v3.2h-1.3v-4.8h1.3v.6a2.4 2.4 0 0 1 1.6-.7 1.2 1.2 0 0 1 1.3.9 1.9 1.9 0 0 1 1.7-.9 1.3 1.3 0 0 1 1.4 1.5v3.4h-1.3zm4.7-1.9a2.4 2.4 0 0 1 2.4 2.7v.2h-3.6a1.4 1.4 0 0 0 1.4 1.2 1.9 1.9 0 0 0 1.3-.5l.6.8a3.5 3.5 0 0 1-2 .7 2.6 2.6 0 0 1-.1-5.1zm-1.2 2.1h2.4a1.1 1.1 0 0 0-1.2-1.1 1.2 1.2 0 0 0-1.2 1.1zm4.7 1.3a2.4 2.4 0 0 0 1.7.7c.5 0 .8-.2.8-.5s-.5-.5-1-.6-1.9-.3-1.9-1.5.7-1.5 2-1.5a2.9 2.9 0 0 1 1.9.7l-.5.8a2 2 0 0 0-1.4-.5c-.5 0-.8.1-.8.4s.4.4.9.5 2 .4 2 1.6-.8 1.6-2.1 1.6a3.5 3.5 0 0 1-2.2-.8zm13.2-1.5c0-.5-.2-.8-.7-.8a1.1 1.1 0 0 0-1 .6v3.2h-1.3v-3c0-.5-.2-.8-.7-.8a1.1 1.1 0 0 0-1 .6v3.2h-1.3v-4.8h1.3v.6a2.3 2.3 0 0 1 1.5-.7 1.3 1.3 0 0 1 1.4.9 1.9 1.9 0 0 1 1.6-.9 1.4 1.4 0 0 1 1.5 1.5v3.4h-1.3zm2.2.6a2.6 2.6 0 0 1 5.1 0 2.6 2.6 0 1 1-5.1 0zm3.8 0a1.3 1.3 0 1 0-2.5 0 1.3 1.3 0 0 0 1.2 1.4 1.3 1.3 0 0 0 1.3-1.4zm2.2-2.4h1.3v.7a2.1 2.1 0 0 1 1.6-.8v1.2h-.4a1.4 1.4 0 0 0-1.2.6v3.1h-1.3zm5.8-.1a2.5 2.5 0 0 1 2.5 2.7v.2h-3.6a1.3 1.3 0 0 0 1.4 1.2 1.8 1.8 0 0 0 1.2-.5l.6.8a3.2 3.2 0 0 1-2 .7 2.6 2.6 0 0 1-.1-5.1zm-1.2 2.1h2.4a1.1 1.1 0 0 0-1.2-1.1 1.2 1.2 0 0 0-1.2 1.1zm7.1-3.8h1.3v6.6h-1.3zm2.4.3a.8.8 0 0 1 1.6 0 .8.8 0 0 1-1.6 0zm.2 1.5h1.2v4.8h-1.2zm4.3 3l-.5.6v1.2h-1.3v-6.6h1.3v4l1.8-2.2h1.6l-2 2.2 2 2.6h-1.6zm5.5-3.1a2.4 2.4 0 0 1 2.4 2.7v.2h-3.5a1.2 1.2 0 0 0 1.3 1.2 1.9 1.9 0 0 0 1.3-.5l.6.8a3.2 3.2 0 0 1-2 .7 2.6 2.6 0 0 1-.1-5.1zm-1.2 2.1h2.4a1.1 1.1 0 0 0-1.2-1.1 1.2 1.2 0 0 0-1.2 1.1zm4.6-3.8h1.2v6.6h-1.2zm2.9 7.5a.7.7 0 0 0 .7-.4l.2-.4-2-4.9h1.4l1.2 3.4 1.3-3.4h1.4l-2.3 5.6a1.8 1.8 0 0 1-1.8 1.2h-.7l.2-1.1zm7.5-2.1v-2.5h-.8v-1.1h.8v-1.3h1.3v1.3h1v1.1h-1v2.2a.5.5 0 0 0 .5.5h.4l.3 1a2.4 2.4 0 0 1-1.1.3 1.3 1.3 0 0 1-1.4-1.5zm2.9-1.2a2.4 2.4 0 0 1 2.5-2.5 2.6 2.6 0 1 1 0 5.1 2.4 2.4 0 0 1-2.5-2.6zm3.7 0a1.2 1.2 0 1 0-2.4 0c0 .8.4 1.4 1.2 1.4s1.2-.6 1.2-1.4zm-329 11.5c0-.7-.3-.9-.9-.9a1.4 1.4 0 0 0-1.1.6v3.2H237v-6.6h1.3v2.4a2.5 2.5 0 0 1 1.7-.7 1.4 1.4 0 0 1 1.6 1.5v3.4h-1.3zm5.4 2.4a2 2 0 0 1-1.5.7 1.7 1.7 0 0 1-1.7-1.6 1.5 1.5 0 0 1 1.7-1.6 1.9 1.9 0 0 1 1.5.6v-.7a.9.9 0 0 0-1-.8 2 2 0 0 0-1.4.6l-.5-.8a2.8 2.8 0 0 1 2.1-.8c1.1 0 2.1.4 2.1 1.8v3.1h-1.3zm0-1.2a1.2 1.2 0 0 0-1-.4c-.5 0-.9.2-.9.7a.8.8 0 0 0 .9.7 1.2 1.2 0 0 0 1-.4zm1.9-3.1h1.3l1.3 3.4 1.3-3.4h1.3l-1.9 4.8h-1.4zm8-.1a2.5 2.5 0 0 1 2.4 2.7v.2h-3.6a1.4 1.4 0 0 0 1.4 1.2 1.9 1.9 0 0 0 1.3-.5l.6.8a3.5 3.5 0 0 1-2 .7 2.5 2.5 0 0 1-2.6-2.6 2.4 2.4 0 0 1 2.5-2.5zm-1.2 2.1h2.4a1.2 1.2 0 0 0-2.4 0zm10 2.3a2 2 0 0 1-1.5.7 1.7 1.7 0 0 1-1.7-1.6 1.5 1.5 0 0 1 1.7-1.6 1.9 1.9 0 0 1 1.5.6v-.7c0-.4-.4-.8-1.1-.8a2 2 0 0 0-1.4.6l-.5-.8a2.9 2.9 0 0 1 2.1-.8c1.1 0 2.2.4 2.2 1.8v3.1h-1.3zm0-1.2a1.2 1.2 0 0 0-1-.4c-.5 0-.9.2-.9.7a.8.8 0 0 0 .9.7 1.2 1.2 0 0 0 1-.4zm7.3-3.2a2.1 2.1 0 0 1 1.9.9l-.8.7a1.2 1.2 0 0 0-1-.5 1.3 1.3 0 0 0-1.3 1.4 1.3 1.3 0 0 0 2.3.9l.8.8a2.3 2.3 0 0 1-1.9.9 2.4 2.4 0 0 1-2.5-2.6 2.4 2.4 0 0 1 2.5-2.5zm5.7 4.4a2.2 2.2 0 0 1-1.6.7 1.6 1.6 0 0 1-1.6-1.6 1.5 1.5 0 0 1 1.6-1.6 2.1 2.1 0 0 1 1.6.6v-.7c0-.4-.5-.8-1.1-.8a2 2 0 0 0-1.4.6l-.5-.8a2.9 2.9 0 0 1 2.1-.8c1.1 0 2.1.4 2.1 1.8v3.1h-1.2zm0-1.2a1.2 1.2 0 0 0-1.1-.4c-.5 0-.9.2-.9.7a.8.8 0 0 0 .9.7 1.2 1.2 0 0 0 1.1-.4zm2.5-3.1h1.3v.7a1.8 1.8 0 0 1 1.5-.8v1.2h-.3a1.3 1.3 0 0 0-1.2.6v3.1h-1.3zm8.4-.1a2.1 2.1 0 0 1 1.9.9l-.8.7a1.2 1.2 0 0 0-1-.5 1.3 1.3 0 0 0-1.3 1.4 1.3 1.3 0 0 0 2.3.9l.8.8a2.3 2.3 0 0 1-1.9.9 2.5 2.5 0 0 1-2.6-2.6 2.4 2.4 0 0 1 2.6-2.5zm2.7.1h1.3v.7a2.1 2.1 0 0 1 1.6-.8v1.2h-.4a1.4 1.4 0 0 0-1.2.6v3.1H291zm6.5 4.3a2 2 0 0 1-1.5.7 1.7 1.7 0 0 1-1.7-1.6 1.5 1.5 0 0 1 1.7-1.6 1.8 1.8 0 0 1 1.5.6v-.7a.9.9 0 0 0-1-.8 2 2 0 0 0-1.4.6l-.5-.8a2.8 2.8 0 0 1 2.1-.8c1.1 0 2.1.4 2.1 1.8v3.1h-1.3zm0-1.2a1.2 1.2 0 0 0-1-.4c-.5 0-.9.2-.9.7a.8.8 0 0 0 .9.7 1.2 1.2 0 0 0 1-.4zm2.7.2a2.6 2.6 0 0 0 1.7.7c.5 0 .8-.2.8-.5s-.4-.5-1-.6-1.9-.3-1.9-1.5.7-1.5 2-1.5a2.7 2.7 0 0 1 1.9.7l-.5.8a2 2 0 0 0-1.4-.5c-.5 0-.8.1-.8.4s.4.4 1 .5 1.9.4 1.9 1.6-.7 1.6-2.1 1.6a3 3 0 0 1-2.1-.8zm7.9-1.4c0-.7-.3-.9-.9-.9a1.4 1.4 0 0 0-1.1.6v3.2h-1.3v-6.6h1.3v2.4a2.5 2.5 0 0 1 1.7-.7 1.4 1.4 0 0 1 1.6 1.5v3.4h-1.3zm3.2 1.4a.9.9 0 0 1 .8.8.8.8 0 1 1-1.6 0 .9.9 0 0 1 .8-.8z"/><path fill="none" stroke="#6dcff6" stroke-miterlimit="10" d="M234.5 171.2h357v24.45h-357zm0 29.9h356.8v100.6H234.5zm173.9 0v100.6m9-100.6v100.6"/><use width="3.9" height="3.88" transform="translate(411 198.9)" xlink:href="#a"/><use width="3.9" height="3.88" transform="translate(411 299.8)" xlink:href="#a"/><path fill="#939598" d="M498.6 470.3h3.9a2.1 2.1 0 0 1 2.3 2.1 1.7 1.7 0 0 1-1.4 1.8 2 2 0 0 1 1.6 2 2.1 2.1 0 0 1-2.4 2.1h-4zm3.6 3.4a1.1 1.1 0 0 0 1.2-1.1c0-.6-.4-1-1.2-1H500v2.1zm.1 3.4c.8 0 1.2-.4 1.2-1.1a1.1 1.1 0 0 0-1.2-1.1H500v2.2zm4-6.8h1.3v8h-1.3zm5.5 2.1a2.9 2.9 0 0 1 2.9 3.2v.3h-4.5a1.8 1.8 0 0 0 1.8 1.6 2.6 2.6 0 0 0 1.7-.7l.6.8a3.4 3.4 0 0 1-2.4.9 3.1 3.1 0 0 1-.1-6.1zm-1.6 2.6h3.2a1.6 1.6 0 1 0-3.2 0zm8.3-2.6c1.7 0 2.8 1.3 2.8 3.2v.3h-4.4a1.8 1.8 0 0 0 1.8 1.6 2.6 2.6 0 0 0 1.7-.7l.5.8a3 3 0 0 1-2.3.9 2.9 2.9 0 0 1-3-3.1 2.9 2.9 0 0 1 2.9-3zm-1.6 2.6h3.2a1.6 1.6 0 0 0-3.2 0zm9.8 2.6a2.6 2.6 0 0 1-1.9.9c-1.5 0-2.6-1.1-2.6-3s1.1-3.1 2.6-3.1a2.3 2.3 0 0 1 1.9 1v-3.1h1.2v8h-1.2zm0-3.3a2 2 0 0 0-1.5-.8 1.8 1.8 0 0 0-1.7 2 1.7 1.7 0 0 0 1.7 1.9 2 2 0 0 0 1.5-.8zm3.5-1.8a.9.9 0 0 1 .9.8.8.8 0 0 1-.9.8.8.8 0 0 1-.8-.8.9.9 0 0 1 .8-.8zm0 4.3a.9.9 0 0 1 .9.8.9.9 0 0 1-.9.9.9.9 0 0 1-.8-.9.9.9 0 0 1 .8-.8zm8.3-6.6c2.2 0 3.2 2.1 3.2 4.1s-1 4.2-3.2 4.2-3.2-2.1-3.2-4.2.9-4.1 3.2-4.1zm0 1.3c-1.3 0-1.8 1.3-1.8 2.8s.5 2.9 1.8 2.9 1.7-1.3 1.7-2.9-.4-2.8-1.7-2.8zm4.8 5.3a.9.9 0 0 1 .9.8.9.9 0 0 1-.9.9.9.9 0 0 1-.8-.9.9.9 0 0 1 .8-.8zm2.7-4.6l-1.3 1.3-.8-.8 2.3-2.4h1.2v8H546zm2.9 5c3.1-2.3 4.3-3.4 4.3-4.5a1.3 1.3 0 0 0-1.4-1.2 3 3 0 0 0-2.2.9l-.8-.9a3.9 3.9 0 0 1 2.9-1.3c1.6 0 2.9.9 2.9 2.5s-1.3 2.8-3.5 4.4h3.6v1.2h-5.8zm8-.9a2.8 2.8 0 0 0 2.2.9 1.4 1.4 0 1 0 0-2.8 2.6 2.6 0 0 0-1.8.7l-.9-.3v-4.5h5.2v1.3h-3.8v2.3a2.3 2.3 0 0 1 1.8-.7 2.4 2.4 0 0 1 2.5 2.6 2.7 2.7 0 0 1-3 2.7 3.8 3.8 0 0 1-3-1.2zm6.4-3.4a1.9 1.9 0 0 0 .9-1.1h-.2a.7.7 0 0 1-.7-.7.8.8 0 0 1 .8-.9c.5 0 .9.4.9 1.1a2.9 2.9 0 0 1-1.1 2.1zm2.2 0a1.9 1.9 0 0 0 .9-1.1h-.2a.7.7 0 0 1-.7-.7.8.8 0 0 1 .8-.9c.5 0 .9.4.9 1.1a2.6 2.6 0 0 1-1.1 2.1z"/><path fill="none" stroke="#939598" d="M573.9 478.2v-12.9"/><path fill="#939598" d="M573.9 459.3a29.4 29.4 0 0 0 4.7 8.5l-4.7-1.7-4.8 1.7a32.2 32.2 0 0 0 4.8-8.5zm-147-436.5a3.9 3.9 0 0 1 4.1 4.1 3.9 3.9 0 0 1-4.1 4.1 3.9 3.9 0 0 1-4-4.1 3.9 3.9 0 0 1 4-4.1zm0 1.2a2.6 2.6 0 0 0-2.6 2.9 2.7 2.7 0 1 0 5.3 0 2.6 2.6 0 0 0-2.7-2.9zm5.8 2.2h-1v-1.1h1v-.3c0-1.3.7-2 1.8-2l1 .2-.3.9h-.5c-.5 0-.8.3-.8 1v.3h1.2v1.1h-1.2V31h-1.2zm3.7 0h-1v-1.1h1v-.3c0-1.3.7-2 1.8-2l1 .2-.3.9h-.5c-.5 0-.8.3-.8 1v.3h1.2v1.1h-1.2V31h-1.2zm3.4 3a3.1 3.1 0 0 0 2 .8c.7 0 1.1-.2 1.1-.7s-.6-.6-1.3-.8-2.2-.5-2.2-1.8.8-1.7 2.3-1.7a3.4 3.4 0 0 1 2.3.8l-.6.9a2.2 2.2 0 0 0-1.7-.7c-.6 0-1.1.2-1.1.6s.6.6 1.3.8 2.2.5 2.2 1.8-.8 1.8-2.4 1.8a3.5 3.5 0 0 1-2.5-.9zM448 25a2.8 2.8 0 0 1 2.8 3.1v.3h-4.4a1.7 1.7 0 0 0 1.8 1.6 2.5 2.5 0 0 0 1.7-.6l.5.8a3 3 0 0 1-2.3.8 3 3 0 0 1-.1-6zm-1.6 2.5h3.2a1.6 1.6 0 0 0-3.2 0zm6 2.1v-3.4h-1v-1.1h1v-1.6h1.2v1.6h1.2v1.1h-1.2v3c0 .4.2.7.6.7l.5-.2.3 1a1.7 1.7 0 0 1-1.2.3 1.3 1.3 0 0 1-1.4-1.4zm6.6-6.7h3.6a2.5 2.5 0 1 1 0 5h-2.1v3H459zm3.4 1.2h-1.9v2.6h1.9a1.3 1.3 0 1 0 0-2.6zm7.2 6.2a2.4 2.4 0 0 1-1.9.7 1.9 1.9 0 1 1 0-3.8 2.4 2.4 0 0 1 1.9.8v-.9c0-.7-.5-1.1-1.3-1.1a2.5 2.5 0 0 0-1.8.8l-.5-.9a3.7 3.7 0 0 1 2.5-.9c1.2 0 2.4.5 2.4 2.1v3.8h-1.3zm0-1.6a1.7 1.7 0 0 0-1.4-.6c-.7 0-1.2.4-1.2 1a1.1 1.1 0 0 0 1.2 1.1 1.7 1.7 0 0 0 1.4-.6zm3.2.9v-3.4h-1v-1.1h1v-1.6h1.2v1.6h1.2v1.1H474v3c0 .4.2.7.6.7l.5-.2.3 1a1.7 1.7 0 0 1-1.2.3 1.3 1.3 0 0 1-1.4-1.4zm7.4-2.4c0-.9-.4-1.1-1.1-1.1a1.9 1.9 0 0 0-1.5.8v4h-1.3v-8h1.3v3a2.5 2.5 0 0 1 2-.9c1.3 0 1.9.6 1.9 1.8v4.1h-1.3zm3.6-2.2a.9.9 0 0 1 .8.9.9.9 0 0 1-.8.8.8.8 0 0 1-.8-.8.8.8 0 0 1 .8-.9zm0 4.3a.9.9 0 0 1 .8.9.9.9 0 0 1-.8.8.8.8 0 0 1-.8-.8.8.8 0 0 1 .8-.9zm4.9-1.8h2.9v1h-2.9zm6.9-4.7c2.3 0 3.2 2.1 3.2 4.1s-.9 4.1-3.2 4.1-3.2-2.1-3.2-4.1 1-4.1 3.2-4.1zm0 1.2c-1.3 0-1.7 1.4-1.7 2.9s.4 2.9 1.7 2.9 1.8-1.4 1.8-2.9-.4-2.9-1.8-2.9zm4.9 5.3a.8.8 0 0 1 .8.9.8.8 0 0 1-.8.8.9.9 0 0 1-.8-.8.9.9 0 0 1 .8-.9zm3-.5a2.4 2.4 0 0 0 2.1 1 1.5 1.5 0 0 0 1.7-1.4 1.4 1.4 0 0 0-1.6-1.4 2.4 2.4 0 0 0-1.8.7l-1-.3v-4.5h5.2v1.2h-3.8v2.3a3.3 3.3 0 0 1 1.8-.7 2.5 2.5 0 0 1 2.6 2.6c0 1.7-1.3 2.7-3.1 2.7a3.3 3.3 0 0 1-2.9-1.2zm6.4-3.4a1.8 1.8 0 0 0 .8-1.1h-.2a.8.8 0 0 1-.7-.8.8.8 0 0 1 .8-.8 1 1 0 0 1 1 1.1 2.5 2.5 0 0 1-1.2 2zm2.2 0a1.5 1.5 0 0 0 .8-1.1h-.2a.8.8 0 0 1-.7-.8.8.8 0 0 1 .8-.8 1 1 0 0 1 1 1.1 2.5 2.5 0 0 1-1.2 2z"/><path fill="none" stroke="#939598" d="M518.5 23.4v56.7"/><path fill="#939598" d="M518.5 86.1a32.2 32.2 0 0 0-4.8-8.5l4.8 1.7 4.7-1.7a29.4 29.4 0 0 0-4.7 8.5zM237.2 22.8a3.6 3.6 0 0 1 3.2 1.6l-1.1.7a2.6 2.6 0 0 0-2.1-1.1 2.7 2.7 0 0 0-2.7 2.9 2.7 2.7 0 0 0 2.7 2.9 3.3 3.3 0 0 0 1.9-.7v-1.3h-2.4v-1.2h3.8v3a4.3 4.3 0 0 1-3.3 1.5 4.1 4.1 0 0 1-4.2-4.2 4 4 0 0 1 4.2-4.1zm8.7 7.3a2.9 2.9 0 0 1-2.1.9 1.7 1.7 0 0 1-1.9-1.8v-4.1h1.3v3.6a1.1 1.1 0 0 0 1.2 1.2 2 2 0 0 0 1.5-.7v-4.1h1.2v5.8h-1.2zm3.1-.5v-3.4h-1v-1.1h1v-1.6h1.3v1.6h1.1v1.1h-1.1v3c0 .4.1.7.5.7l.6-.2.3 1a1.9 1.9 0 0 1-1.2.3c-1 0-1.5-.5-1.5-1.4zm3.8 0v-3.4h-.9v-1.1h.9v-1.6h1.3v1.6h1.2v1.1h-1.2v3c0 .4.2.7.5.7a.8.8 0 0 0 .6-.2l.3 1a1.7 1.7 0 0 1-1.2.3c-1 0-1.5-.5-1.5-1.4zM259 25a2.8 2.8 0 0 1 2.8 3.1v.3h-4.4a1.7 1.7 0 0 0 1.8 1.6 2.7 2.7 0 0 0 1.7-.6l.5.8a3 3 0 0 1-2.3.8 2.9 2.9 0 0 1-3.1-3 2.9 2.9 0 0 1 3-3zm-1.7 2.5h3.3A1.5 1.5 0 0 0 259 26a1.7 1.7 0 0 0-1.7 1.5zm5.8-2.4h1.2v.9a2.6 2.6 0 0 1 1.9-1v1.2h-.4a2.1 2.1 0 0 0-1.5.7v4h-1.2zm4.8-.1a.8.8 0 0 1 .8.9.8.8 0 0 1-1.6 0 .8.8 0 0 1 .8-.9zm0 4.3a.8.8 0 0 1 .8.9.8.8 0 0 1-1.6 0 .8.8 0 0 1 .8-.9zm8.3-6.5c2.2 0 3.2 2.1 3.2 4.1s-1 4.1-3.2 4.1-3.3-2.1-3.3-4.1 1-4.1 3.3-4.1zm0 1.2c-1.4 0-1.8 1.4-1.8 2.9s.4 2.9 1.8 2.9 1.7-1.4 1.7-2.9-.4-2.9-1.7-2.9zm4.8 5.3a.9.9 0 0 1 .9.9.9.9 0 0 1-.9.8.9.9 0 0 1-.8-.8.9.9 0 0 1 .8-.9zm2.7-4.6l-1.3 1.4-.8-.9 2.3-2.3h1.2v8h-1.4zm2.9 5.1c3.1-2.4 4.3-3.4 4.3-4.6s-.7-1.2-1.5-1.2a2.7 2.7 0 0 0-2.1 1l-.8-.9a3.6 3.6 0 0 1 2.9-1.3c1.6 0 2.9.9 2.9 2.4s-1.3 2.8-3.5 4.5h3.6v1.2h-5.8zm8-1a2.4 2.4 0 0 0 2.1 1c1.1 0 1.7-.6 1.7-1.4s-.6-1.4-1.6-1.4a2.4 2.4 0 0 0-1.8.7l-1-.3v-4.5h5.3v1.2h-3.9v2.3a3.3 3.3 0 0 1 1.8-.7 2.5 2.5 0 0 1 2.6 2.6 2.7 2.7 0 0 1-3 2.7 3.5 3.5 0 0 1-3-1.2zm6.4-3.4a1.9 1.9 0 0 0 .9-1.1h-.2a.8.8 0 0 1 0-1.6 1 1 0 0 1 1 1.1 2.7 2.7 0 0 1-1.1 2zm2.2 0a1.9 1.9 0 0 0 .9-1.1h-.2a.8.8 0 0 1-.7-.8.7.7 0 0 1 .8-.8c.5 0 .9.4.9 1.1a2.7 2.7 0 0 1-1.1 2zM42.3 8.5h3a3.9 3.9 0 0 1 4.2 4 3.9 3.9 0 0 1-4.2 4h-3zm3 6.8a2.7 2.7 0 0 0 2.7-2.8 2.6 2.6 0 0 0-2.7-2.8h-1.6v5.6zm5.1-1.7a2.9 2.9 0 0 1 3-3 2.8 2.8 0 0 1 3 3 2.8 2.8 0 0 1-3 3 2.9 2.9 0 0 1-3-3zm4.7 0a1.7 1.7 0 1 0-3.3 0 1.7 1.7 0 1 0 3.3 0zm5.2-3a2.5 2.5 0 0 1 2.2 1l-.8.8a1.5 1.5 0 0 0-1.3-.7 1.8 1.8 0 0 0-1.8 1.9 1.8 1.8 0 0 0 1.8 1.9 1.5 1.5 0 0 0 1.3-.7l.8.8a2.5 2.5 0 0 1-2.2 1 2.9 2.9 0 0 1-3-3 2.9 2.9 0 0 1 3-3zm7.3 5.1a2.9 2.9 0 0 1-2.1.9 1.7 1.7 0 0 1-1.9-1.8v-4.1h1.3v3.6a1.1 1.1 0 0 0 1.2 1.2 2 2 0 0 0 1.5-.7v-4.1h1.2v5.8h-1.2zm9.9-3c0-.6-.2-1-.9-1a1.7 1.7 0 0 0-1.3.7v4.1H74v-3.8a.9.9 0 0 0-1-1 1.8 1.8 0 0 0-1.3.8v4h-1.3v-5.8h1.3v.8a2.3 2.3 0 0 1 1.9-.9 1.5 1.5 0 0 1 1.6 1 2.4 2.4 0 0 1 1.9-1 1.5 1.5 0 0 1 1.7 1.7v4.2h-1.3zm5.5-2.1a2.8 2.8 0 0 1 2.9 3.1v.3h-4.5a1.8 1.8 0 0 0 1.9 1.6 2.5 2.5 0 0 0 1.6-.6l.6.8a3.3 3.3 0 0 1-2.4.8 2.9 2.9 0 0 1-3-3 2.9 2.9 0 0 1 2.9-3zm-1.6 2.5h3.3a1.6 1.6 0 0 0-1.7-1.5 1.6 1.6 0 0 0-1.6 1.5zm9.6-.2c0-.9-.4-1.2-1.1-1.2a1.9 1.9 0 0 0-1.5.8v4h-1.3v-5.8h1.3v.8a2.5 2.5 0 0 1 2-.9c1.3 0 1.9.6 1.9 1.8v4.1H91zm3.2 2.3v-3.4h-1v-1.1h1V9.1h1.2v1.6h1.2v1.1h-1.2v3c0 .4.2.7.6.7l.6-.2.3 1a1.9 1.9 0 0 1-1.2.3c-1 0-1.5-.5-1.5-1.4zm-51.9 7.7h3a4 4 0 1 1 0 8h-3zm3 6.8a2.7 2.7 0 0 0 2.7-2.8 2.6 2.6 0 0 0-2.7-2.8h-1.6v5.6zm5.3-6.3a.8.8 0 0 1 .8-.8.7.7 0 0 1 .8.8.7.7 0 0 1-.8.7.8.8 0 0 1-.8-.7zm.2 1.7h1.3v5.8h-1.3zm10 2a.9.9 0 0 0-1-1 2.1 2.1 0 0 0-1.3.7v4.1h-1.3v-3.8c0-.6-.2-1-.9-1a1.5 1.5 0 0 0-1.3.8v4h-1.3v-5.8H55v.8a2.2 2.2 0 0 1 1.8-.9 1.5 1.5 0 0 1 1.6 1 2.6 2.6 0 0 1 2-1 1.5 1.5 0 0 1 1.7 1.7v4.2h-1.3zm5.5-2.1a2.8 2.8 0 0 1 2.8 3.1v.3h-4.4a1.6 1.6 0 0 0 1.8 1.6 2.3 2.3 0 0 0 1.6-.6l.6.8a3.1 3.1 0 0 1-2.3.8 2.9 2.9 0 0 1-3.1-3 2.9 2.9 0 0 1 3-3zm-1.7 2.5h3.3a1.5 1.5 0 0 0-1.6-1.5 1.7 1.7 0 0 0-1.7 1.5zm9.7-.2a1.1 1.1 0 0 0-1.2-1.2 2 2 0 0 0-1.5.8v4h-1.2v-5.8h1.2v.8a2.8 2.8 0 0 1 2.1-.9 1.6 1.6 0 0 1 1.8 1.8v4.1h-1.2zm3 1.9a3 3 0 0 0 1.9.8c.8 0 1.2-.2 1.2-.7s-.7-.6-1.4-.8-2.1-.5-2.1-1.8.8-1.7 2.2-1.7a3.2 3.2 0 0 1 2.3.8l-.5.9a2.5 2.5 0 0 0-1.8-.7c-.6 0-1 .2-1 .6s.5.6 1.2.8 2.3.5 2.3 1.8-.9 1.8-2.4 1.8a3.5 3.5 0 0 1-2.5-.9zm5.4-5.8a.7.7 0 0 1 .8-.8.7.7 0 0 1 .7.8.7.7 0 0 1-.7.7.7.7 0 0 1-.8-.7zm.1 1.7h1.3v5.8h-1.3zm2.6 2.9a3 3 0 1 1 5.9 0 3 3 0 1 1-5.9 0zm4.6 0a1.7 1.7 0 1 0-3.3 0 1.7 1.7 0 1 0 3.3 0zm6.5-.7c0-.9-.4-1.2-1.1-1.2a1.9 1.9 0 0 0-1.5.8v4h-1.3v-5.8h1.3v.8a2.5 2.5 0 0 1 2-.9c1.3 0 1.9.6 1.9 1.8v4.1h-1.3zm3 1.9a3.1 3.1 0 0 0 2 .8c.7 0 1.1-.2 1.1-.7s-.6-.6-1.3-.8-2.2-.5-2.2-1.8.8-1.7 2.3-1.7a2.9 2.9 0 0 1 2.2.8l-.5.9a2.4 2.4 0 0 0-1.7-.7c-.7 0-1.1.2-1.1.6s.6.6 1.3.8 2.2.5 2.2 1.8-.8 1.8-2.4 1.8a3.5 3.5 0 0 1-2.5-.9zm6.2-4.2a.9.9 0 0 1 .9.9.9.9 0 0 1-.9.8.9.9 0 0 1-.8-.8.9.9 0 0 1 .8-.9zm0 4.3a.9.9 0 0 1 .9.9.9.9 0 0 1-.9.8.9.9 0 0 1-.8-.8.9.9 0 0 1 .8-.9zm6.9-2.5a2.1 2.1 0 0 1-1.7-1.9c0-1.5 1.5-2.1 3-2.1s2.9.6 2.9 2.1a2.1 2.1 0 0 1-1.7 1.9 2.2 2.2 0 0 1 1.8 2c0 1.5-1.4 2.2-3 2.2s-3.1-.7-3.1-2.2a2.2 2.2 0 0 1 1.8-2zm1.3.6c-.5.1-1.7.4-1.7 1.3s.8 1.1 1.7 1.1 1.6-.4 1.6-1.1-1.1-1.2-1.6-1.3zm0-3.4c-.9 0-1.6.4-1.6 1.1s1.1 1 1.6 1.1 1.5-.4 1.5-1.1-.7-1.1-1.5-1.1zm5 5.3a.9.9 0 0 1 .8.9.9.9 0 0 1-.8.8.8.8 0 0 1-.8-.8.8.8 0 0 1 .8-.9zm2.9-.5a2.7 2.7 0 0 0 2.2 1 1.4 1.4 0 0 0 1.6-1.4c0-.9-.6-1.4-1.6-1.4a2.3 2.3 0 0 0-1.7.7l-1-.3v-4.5h5.2v1.2h-3.8v2.3a3 3 0 0 1 1.8-.7 2.6 2.6 0 0 1 2.6 2.6c0 1.7-1.3 2.7-3.1 2.7a3.6 3.6 0 0 1-3-1.2zm6.5-3.4a2.3 2.3 0 0 0 .8-1.1h-.2a.8.8 0 0 1-.7-.8.8.8 0 0 1 .8-.8c.5 0 .9.4.9 1.1a2.4 2.4 0 0 1-1.1 2zm2.2 0a1.8 1.8 0 0 0 .8-1.1h-.2a.8.8 0 0 1-.7-.8.8.8 0 0 1 .8-.8 1 1 0 0 1 1 1.1 2.5 2.5 0 0 1-1.2 2zm8.3 3.4l-1.5 2.1h-1.4l2.1-3-2-2.8h1.4l1.4 2 1.3-2h1.5l-2 2.8 2.1 3h-1.4zm7.5 0a2.7 2.7 0 0 0 2.2 1 1.4 1.4 0 0 0 1.6-1.4c0-.9-.6-1.4-1.6-1.4a2.2 2.2 0 0 0-1.7.7l-1-.3v-4.5h5.2v1.2h-3.8v2.3a2.7 2.7 0 0 1 1.8-.7 2.5 2.5 0 0 1 2.5 2.6c0 1.7-1.2 2.7-3 2.7a3.6 3.6 0 0 1-3-1.2zm7.2.5a.8.8 0 0 1 .8.9.8.8 0 1 1-1.6 0 .8.8 0 0 1 .8-.9zm3-.5a2.4 2.4 0 0 0 2.1 1 1.5 1.5 0 0 0 1.7-1.4c0-.9-.7-1.4-1.7-1.4a2.3 2.3 0 0 0-1.7.7l-1-.3v-4.5h5.2v1.2h-3.8v2.3a3 3 0 0 1 1.8-.7 2.5 2.5 0 0 1 2.6 2.6c0 1.7-1.3 2.7-3.1 2.7a3.6 3.6 0 0 1-3-1.2zm6.4-3.4a2.3 2.3 0 0 0 .8-1.1h-.2a.8.8 0 0 1-.7-.8.8.8 0 0 1 .8-.8c.5 0 .9.4.9 1.1a2.4 2.4 0 0 1-1.1 2zm2.2 0a1.5 1.5 0 0 0 .8-1.1h-.2a.8.8 0 0 1-.7-.8.8.8 0 0 1 .8-.8 1 1 0 0 1 1 1.1 2.5 2.5 0 0 1-1.2 2z"/><path fill="none" stroke="#939598" d="M229.5 23.4v56.7"/><path fill="#939598" d="M229.5 86.1a32.2 32.2 0 0 0-4.8-8.5l4.8 1.7 4.7-1.7a29.4 29.4 0 0 0-4.7 8.5zM96 470.2a4.2 4.2 0 1 1-4.1 4.1 4 4 0 0 1 4.1-4.1zm0 1.3a2.7 2.7 0 0 0-2.7 2.8 2.7 2.7 0 0 0 2.7 2.9 2.6 2.6 0 0 0 2.6-2.9 2.6 2.6 0 0 0-2.6-2.8zm5.7 2.2h-1v-1.1h1v-.4a1.8 1.8 0 0 1 1.8-2 1.5 1.5 0 0 1 1 .3l-.2.9h-.5c-.5 0-.8.3-.8.9v.4h1.1v1.1H103v4.6h-1.3zm3.7 0h-1v-1.1h1v-.4a1.8 1.8 0 0 1 1.8-2 1.5 1.5 0 0 1 1 .3l-.2.9h-.5a.8.8 0 0 0-.9.9v.4h1.2v1.1h-1.2v4.6h-1.2zm3.5 3a3 3 0 0 0 1.9.8c.8 0 1.2-.3 1.2-.7s-.6-.7-1.4-.9-2.1-.4-2.1-1.7.8-1.8 2.2-1.8a3.7 3.7 0 0 1 2.3.8l-.5.9a2.4 2.4 0 0 0-1.7-.7c-.7 0-1.1.3-1.1.7s.6.6 1.2.7 2.3.5 2.3 1.9-.9 1.8-2.4 1.8a3.5 3.5 0 0 1-2.5-.9zm8.1-4.3c1.8 0 2.9 1.3 2.9 3.2v.3h-4.5a1.9 1.9 0 0 0 1.9 1.6 2.6 2.6 0 0 0 1.6-.7l.6.8a3.4 3.4 0 0 1-2.4.9 3.1 3.1 0 0 1-.1-6.1zm-1.6 2.6h3.3a1.7 1.7 0 0 0-1.7-1.6 1.7 1.7 0 0 0-1.6 1.6zm6 2v-3.3h-1v-1.1h1V471h1.2v1.6h1.2v1.1h-1.2v3c0 .4.2.7.6.7l.6-.2.3.9a1.9 1.9 0 0 1-1.2.4 1.3 1.3 0 0 1-1.5-1.5zm6.7-6.7h3.5a2.6 2.6 0 1 1 0 5.1h-2.1v2.9h-1.4zm3.3 1.3h-1.9v2.5h1.9a1.3 1.3 0 0 0 1.4-1.2 1.3 1.3 0 0 0-1.4-1.3zm7.2 6.1a2.3 2.3 0 0 1-1.8.8 1.9 1.9 0 0 1-2-1.9 1.8 1.8 0 0 1 2-1.9 2.3 2.3 0 0 1 1.8.7v-.8c0-.7-.5-1.1-1.3-1.1a2.2 2.2 0 0 0-1.7.7l-.5-.9a3.4 3.4 0 0 1 2.4-.9c1.3 0 2.4.5 2.4 2.1v3.8h-1.3zm0-1.6a1.8 1.8 0 0 0-1.3-.6 1.2 1.2 0 0 0-1.3 1.1c0 .6.6 1 1.3 1a1.5 1.5 0 0 0 1.3-.6zm3.2.9v-3.3h-1v-1.1h1V471h1.2v1.6h1.2v1.1H143v3c0 .4.2.7.6.7l.6-.2.3.9a1.9 1.9 0 0 1-1.2.4 1.3 1.3 0 0 1-1.5-1.5zm7.5-2.3a1.1 1.1 0 0 0-1.2-1.2 2 2 0 0 0-1.5.8v4h-1.2v-8h1.2v3a3.2 3.2 0 0 1 2.1-.9 1.6 1.6 0 0 1 1.8 1.8v4.1h-1.2zm3.5-2.2a.9.9 0 0 1 .9.8.8.8 0 0 1-.9.8.8.8 0 0 1-.8-.8.9.9 0 0 1 .8-.8zm0 4.3a.9.9 0 0 1 .9.8.9.9 0 0 1-.9.9.9.9 0 0 1-.8-.9.9.9 0 0 1 .8-.8zm4.9-1.9h2.9v1.1h-2.9zm7-4.7c2.2 0 3.2 2.1 3.2 4.1s-1 4.2-3.2 4.2-3.2-2.1-3.2-4.2.9-4.1 3.2-4.1zm0 1.3c-1.3 0-1.8 1.3-1.8 2.8s.5 2.9 1.8 2.9 1.8-1.3 1.8-2.9-.5-2.8-1.8-2.8zm4.8 5.3a.9.9 0 0 1 .9.8.9.9 0 0 1-.9.9.9.9 0 0 1-.8-.9.9.9 0 0 1 .8-.8zm2.1.4c3.1-2.3 4.3-3.4 4.3-4.5a1.3 1.3 0 0 0-1.4-1.2 3 3 0 0 0-2.2.9l-.8-.9a4 4 0 0 1 3-1.3 2.6 2.6 0 0 1 2.9 2.5c0 1.5-1.4 2.8-3.5 4.4h3.5v1.2h-5.8zm8-.9a2.9 2.9 0 0 0 2.2.9 1.4 1.4 0 1 0 0-2.8 2.2 2.2 0 0 0-1.7.7l-1-.3v-4.5h5.2v1.3h-3.8v2.3a2.5 2.5 0 0 1 1.8-.7 2.5 2.5 0 0 1 2.6 2.6 2.8 2.8 0 0 1-3.1 2.7 4 4 0 0 1-3-1.2zm6.4-3.4a1.9 1.9 0 0 0 .9-1.1h-.2a.7.7 0 0 1-.7-.7.9.9 0 0 1 .8-.9c.5 0 .9.4.9 1.1a2.6 2.6 0 0 1-1.1 2.1zm2.3 0a2.3 2.3 0 0 0 .8-1.1h-.2a.7.7 0 0 1-.7-.7.9.9 0 0 1 .8-.9 1 1 0 0 1 1 1.1 2.7 2.7 0 0 1-1.2 2.1z"/><path fill="none" stroke="#939598" d="M87.5 478.3v-36.4"/><path fill="#939598" d="M87.5 435.8a28.7 28.7 0 0 0 4.7 8.6l-4.7-1.7-4.8 1.7a31.3 31.3 0 0 0 4.8-8.6z"/><path fill="#231f20" d="M68.3 139.2a8.1 8.1 0 0 1-6.3 3c-5.2 0-9.4-4-9.4-11.2s4.1-11.2 9.4-11.2a7.9 7.9 0 0 1 6.3 3.1v-10.6H75v29.3h-6.7zm0-11.5a5.7 5.7 0 0 0-4.1-1.9c-2.7 0-4.6 2-4.6 5.2s1.9 5.2 4.6 5.2a5.4 5.4 0 0 0 4.1-2zm9.4 3.3c0-6 4.4-11.2 11.6-11.2s11.6 5.2 11.6 11.2-4.3 11.2-11.6 11.2S77.7 137 77.7 131zm16.3 0c0-2.8-1.7-5.2-4.7-5.2s-4.6 2.4-4.6 5.2 1.7 5.2 4.6 5.2 4.7-2.4 4.7-5.2zm24.9-1.7c0-2.5-1.4-3.5-3.5-3.5a5 5 0 0 0-4.1 2.1v13.7h-6.8v-21.2h6.8v2.6a9.3 9.3 0 0 1 7.3-3.2c4.8 0 7 2.9 7 6.8v15h-6.7zm10.9-5.7a8.6 8.6 0 0 0 3.8-4.2h-1a3.4 3.4 0 0 1-3.5-3.6 4.1 4.1 0 0 1 4.1-4.1c2.3 0 4.5 1.9 4.5 5.1a11.2 11.2 0 0 1-5.1 9zm13.2 12.3v-9.6h-3.5v-5.9h3.5v-5.8h6.8v5.8h4.3v5.9h-4.3v7.7a2 2 0 0 0 1.9 2.2 2.6 2.6 0 0 0 1.7-.6l1.3 5.1c-.8.8-2.5 1.5-5 1.5-4.3 0-6.7-2.2-6.7-6.3zm27.1 0v-9.6h-3.5v-5.9h3.5v-5.8h6.8v5.8h4.3v5.9h-4.3v7.7a2 2 0 0 0 1.9 2.2 2.6 2.6 0 0 0 1.7-.6l1.3 5.1c-.8.8-2.5 1.5-5 1.5-4.3 0-6.7-2.2-6.7-6.3zm23.3-.7l-4.2 6.4h-7.4l7.3-10.9-6.8-10.3h7.4l3.7 5.7 3.6-5.7h7.4l-6.8 10.3 7.3 10.9h-7.4zm15.1.7v-9.6H205v-5.9h3.5v-5.8h6.7v5.8h4.3v5.9h-4.3v7.7a2 2 0 0 0 1.9 2.2 2.3 2.3 0 0 0 1.7-.6l1.4 5.1a7.7 7.7 0 0 1-5.1 1.5c-4.3 0-6.6-2.2-6.6-6.3zm36.6 1.6h-4.4v-8.7H233v-4h7.7v-8.4h4.4v8.4h7.7v4h-7.7zm37 1.7a8.4 8.4 0 0 1-6.3 3c-5.3 0-9.4-4-9.4-11.2s4-11.2 9.4-11.2a8.2 8.2 0 0 1 6.3 3.1v-10.6h6.7v29.3h-6.7zm0-11.5a5.9 5.9 0 0 0-4.1-1.9c-2.7 0-4.7 2-4.7 5.2s2 5.2 4.7 5.2a5.6 5.6 0 0 0 4.1-2zm11.7-7.3h6.7v2.7a9.1 9.1 0 0 1 6.7-3.3v6.6l-1.7-.2c-1.7 0-4.1.7-5 2v13.4h-6.7zm13.6 0h7.1l4.8 13.4 4.8-13.4h7.2l-8.4 21.2h-7.2z"/><path fill="none" stroke="#6dcff6" stroke-miterlimit="10" d="M51.5 141.6h281.8"/><use width="3.9" height="3.88" transform="translate(49.6 139.7)" xlink:href="#a"/><path fill="none" stroke="#6dcff6" stroke-miterlimit="10" d="M417.3 367.6h84.2"/><use width="3.9" height="3.88" transform="translate(415.4 365.7)" xlink:href="#a"/><path fill="none" stroke="#6dcff6" stroke-miterlimit="10" d="M417.3 391.7h131.3"/><path fill="#231f20" d="M420.5 361.7h-2.1v-.8h5v.8h-2.1v5.9h-.8zm6.1 5.4a2.3 2.3 0 0 1-1.6.6 1.5 1.5 0 0 1-1.7-1.6 1.6 1.6 0 0 1 1.7-1.6 2.4 2.4 0 0 1 1.6.7v-.9c0-.6-.6-1-1.3-1a1.7 1.7 0 0 0-1.4.7l-.4-.5a2.4 2.4 0 0 1 1.9-.8c1.1 0 1.9.4 1.9 1.6v3.3h-.7zm0-1.4a1.7 1.7 0 0 0-1.4-.6c-.7 0-1.2.4-1.2 1a1.1 1.1 0 0 0 1.2 1.1 1.7 1.7 0 0 0 1.4-.6zm3.8-.3l-.8.8v1.4h-.8v-6.7h.8v4.5l2.5-2.6h1l-2.2 2.2 2.2 2.6h-1zm5.4-2.7c1.5 0 2.3 1.1 2.3 2.6h-3.9a1.7 1.7 0 0 0 1.8 1.7 2.2 2.2 0 0 0 1.5-.6l.3.5a2.5 2.5 0 0 1-1.9.7 2.5 2.5 0 0 1-.1-5zm-1.6 2.2h3.2a1.6 1.6 0 0 0-1.6-1.6 1.7 1.7 0 0 0-1.6 1.6zm7.9 1.7v-3.2h-.8v-.6h.8v-1.3h.7v1.3h1v.6h-1v3c0 .4.2.7.5.7l.5-.2.3.5a1.2 1.2 0 0 1-.9.3 1 1 0 0 1-1.1-1.1zm6-2.2c0-.8-.4-1.1-1-1.1a2 2 0 0 0-1.5.8v3.5h-.7v-6.7h.7v2.6a2.5 2.5 0 0 1 1.8-.8 1.3 1.3 0 0 1 1.5 1.5v3.4h-.8zm4.4-1.7c1.5 0 2.3 1.1 2.3 2.6h-3.9a1.7 1.7 0 0 0 1.7 1.7 1.9 1.9 0 0 0 1.5-.6l.4.5a2.5 2.5 0 0 1-1.9.7 2.4 2.4 0 0 1-2.5-2.5 2.4 2.4 0 0 1 2.4-2.4zm-1.6 2.2h3.2a1.6 1.6 0 0 0-1.6-1.6 1.6 1.6 0 0 0-1.6 1.6zm7.7 4.6v-6.7h.8v.7a1.8 1.8 0 0 1 1.6-.8c1.3 0 2.1.9 2.1 2.5s-.8 2.5-2.1 2.5a1.8 1.8 0 0 1-1.6-.8v2.6zm2.2-6.2a1.7 1.7 0 0 0-1.4.8v2.2a1.7 1.7 0 0 0 1.4.8c1 0 1.5-.8 1.5-1.9s-.5-1.9-1.5-1.9zm3.5-2.4h.8v6.7h-.8zm4.4 1.8c1.5 0 2.3 1.1 2.3 2.6h-3.9a1.7 1.7 0 0 0 1.7 1.7 1.9 1.9 0 0 0 1.5-.6l.4.5a2.5 2.5 0 0 1-1.9.7 2.4 2.4 0 0 1-2.5-2.5 2.4 2.4 0 0 1 2.4-2.4zm-1.6 2.2h3.2a1.6 1.6 0 0 0-1.6-1.6 1.6 1.6 0 0 0-1.6 1.6zm8.6 2a1.8 1.8 0 0 1-1.6.8 2.2 2.2 0 0 1-2.2-2.5 2.2 2.2 0 0 1 2.2-2.5 2.1 2.1 0 0 1 1.6.8v-2.6h.8v6.7h-.8zm0-2.8a1.7 1.7 0 0 0-1.4-.8c-1 0-1.6.8-1.6 1.9s.6 1.9 1.6 1.9a1.7 1.7 0 0 0 1.4-.8zm2.6 4.2a1.9 1.9 0 0 0 1.6.7 1.4 1.4 0 0 0 1.6-1.5v-.7a2.1 2.1 0 0 1-3.8-1.6c0-1.6.9-2.5 2.1-2.5a2.1 2.1 0 0 1 1.7.8v-.7h.7v4.7c0 1.6-1.1 2.1-2.3 2.1a2.5 2.5 0 0 1-1.9-.7zm3.2-4.2a2 2 0 0 0-1.5-.8c-.9 0-1.5.8-1.5 1.9a1.6 1.6 0 0 0 1.5 1.8 2 2 0 0 0 1.5-.8zm4.3-1.4c1.5 0 2.3 1.1 2.3 2.6h-3.9a1.7 1.7 0 0 0 1.8 1.7 2.2 2.2 0 0 0 1.5-.6l.3.5a2.5 2.5 0 0 1-1.9.7 2.5 2.5 0 0 1-.1-5zm-1.6 2.2h3.2a1.6 1.6 0 0 0-1.6-1.6 1.7 1.7 0 0 0-1.6 1.6zm10.7 2.2a2.1 2.1 0 0 1-1.6.6 1.5 1.5 0 0 1-1.6-1.6 1.6 1.6 0 0 1 1.6-1.6 2 2 0 0 1 1.6.7v-.9c0-.6-.5-1-1.2-1a1.9 1.9 0 0 0-1.5.7l-.3-.5a2.2 2.2 0 0 1 1.9-.8c1 0 1.9.4 1.9 1.6v3.3h-.8zm0-1.4a1.5 1.5 0 0 0-1.3-.6c-.7 0-1.2.4-1.2 1a1.1 1.1 0 0 0 1.2 1.1 1.5 1.5 0 0 0 1.3-.6zm2.4.9v-3.2h-.8v-.6h.8v-1.3h.8v1.3h1v.6h-1v3c0 .4.2.7.5.7l.5-.2.2.5a1.1 1.1 0 0 1-.9.3 1 1 0 0 1-1.1-1.1zm-78.2 9.8a2.2 2.2 0 0 1 4.3 0 2.2 2.2 0 1 1-4.3 0zm.3 3.6h3.7v11.6h-3.7zm10.1 11.5c0 2.8-1.4 4.8-4.5 4.8h-1.3v-3h.6c.8 0 1.4-.6 1.4-1.8V380h3.7zm-4-15.1a2.1 2.1 0 0 1 4.2 0 2.1 2.1 0 1 1-4.2 0zm14.5 13.8a5.4 5.4 0 0 1-4 1.7c-2.7 0-3.8-1.5-3.8-3.6V380h3.7v6.8c0 1.4.7 1.8 1.9 1.8a2.8 2.8 0 0 0 2.2-1.1V380h3.7v11.6H440zm6.9-2.6a7.8 7.8 0 0 0 4.1 1.5c1.1 0 1.6-.3 1.6-.8s-.8-.9-2-1.1-4.8-.7-4.8-3.7 1.8-3.8 5-3.8a8.1 8.1 0 0 1 4.8 1.6l-1.4 2.4a5 5 0 0 0-3.4-1.3c-.9 0-1.5.3-1.5.8s.7.8 1.9 1 4.9.8 4.9 3.9-2 3.8-5.3 3.8a8.3 8.3 0 0 1-5.4-1.8zm11.8.9v-5.3h-1.9V380h1.9v-3.1h3.7v3.1h2.4v3.2h-2.4v4.3a1 1 0 0 0 1.1 1.1c.4 0 .8-.1.9-.3l.7 2.8a3.6 3.6 0 0 1-2.7.8c-2.4 0-3.7-1.2-3.7-3.4zm15.7 1.8a4.3 4.3 0 0 1-3.4 1.6c-2.9 0-5.1-2.2-5.1-6.1s2.2-6.1 5.1-6.1a4.1 4.1 0 0 1 3.4 1.7v-5.8h3.7v16h-3.7zm0-6.3a3 3 0 0 0-2.2-1 2.8 2.8 0 0 0 0 5.6 3 3 0 0 0 2.2-1zm6.4-4h3.7v1.5a4.9 4.9 0 0 1 3.6-1.8v3.6h-.9a3.7 3.7 0 0 0-2.7 1.1v7.3h-3.7zm8.7-3.6a2.2 2.2 0 1 1 2.2 2.2 2.2 2.2 0 0 1-2.2-2.2zm.3 3.6h3.7v11.6h-3.7zm4.8 0h3.9l2.6 7.4 2.6-7.4h4l-4.6 11.6h-3.9zm19.6-.3c3.4 0 5.9 2.6 5.9 6.5v.8h-8.3a2.9 2.9 0 0 0 3 2 4.9 4.9 0 0 0 2.8-.9l1.6 2.3a7.9 7.9 0 0 1-4.9 1.5c-3.5 0-6.3-2.3-6.3-6.1a6 6 0 0 1 6.2-6.1zm-2.4 4.9h4.8a2.4 2.4 0 0 0-4.8 0zm11.5 4.6a1.3 1.3 0 0 1 1.4 1.3 1.4 1.4 0 0 1-1.4 1.4 1.3 1.3 0 0 1-1.3-1.4 1.3 1.3 0 0 1 1.3-1.3zm9.5-9.5a5.2 5.2 0 0 1 4.3 2l-1.2 1.2a3.5 3.5 0 0 0-3-1.6c-2.4 0-4 1.9-4 4.5s1.6 4.5 4 4.5a3.7 3.7 0 0 0 3-1.5l1.2 1.1a5.2 5.2 0 0 1-4.3 2c-3.4 0-5.7-2.6-5.7-6.1s2.3-6.1 5.7-6.1zm14.1 10.6a5.3 5.3 0 0 1-3.9 1.6 3.9 3.9 0 1 1 0-7.7 5 5 0 0 1 3.9 1.6v-2.1c0-1.5-1.3-2.4-3-2.4a4.4 4.4 0 0 0-3.5 1.6l-.9-1.2a6.3 6.3 0 0 1 4.7-2c2.4 0 4.5 1.1 4.5 3.9v8h-1.8zm0-3.3a3.9 3.9 0 0 0-3.2-1.5 2.6 2.6 0 1 0 0 5.1 4.2 4.2 0 0 0 3.2-1.4z"/><use width="3.9" height="3.88" transform="translate(232.5 299.8)" xlink:href="#a"/><use width="3.9" height="3.88" transform="translate(589.5 193.7)" xlink:href="#a"/><use width="3.9" height="3.88" transform="translate(589.5 169.2)" xlink:href="#a"/><use width="3.9" height="3.88" transform="translate(589.5 199.2)" xlink:href="#a"/><use width="3.9" height="3.88" transform="translate(589.5 299.8)" xlink:href="#a"/><use width="3.9" height="3.88" transform="translate(232.7 193.7)" xlink:href="#a"/><use width="3.9" height="3.88" transform="translate(232.7 169.2)" xlink:href="#a"/><use width="3.9" height="3.88" transform="translate(232.7 199.2)" xlink:href="#a"/></svg>