<svg xmlns="http://www.w3.org/2000/svg" width="720" height="264" viewBox="0 0 720 264"><title>illustrator-colour-swatches-summative</title><g id="Layer_2" data-name="Layer 2"><g id="Layer_1-2" data-name="Layer 1"><path d="M0,92.4a92.5,92.5,0,1,1,92.4,92.5A92.4,92.4,0,0,1,0,92.4Z"/><path d="M93,182.3v-4.6h.7v4.5Zm-1.5-.1h-.8v-4.5h.7Zm3.9,0-.2-4.5H96v4.6Zm-6.2,0h-.8l.2-4.6h.7Zm8.5-.1-.3-4.5h.8l.3,4.6Zm-10.9,0h-.7l.3-4.5h.7Zm13.2-.2-.4-4.5h.8l.4,4.6Zm-15.5,0h-.8l.5-4.5h.7Zm17.8-.2-.5-4.5h.8l.5,4.5Zm-20.1,0h-.8l.6-4.5h.7Zm22.4-.3-.6-4.5h.8l.6,4.5Zm-24.7,0h-.8l.7-4.5h.7Zm27.1-.3-.8-4.5h.8l.7,4.5ZM77.6,181h-.8l.8-4.5h.7Zm31.6-.3-.8-4.5h.7l.9,4.4Zm-33.9-.1h-.8l.9-4.5h.7Zm36.2-.4-.9-4.4.7-.2,1,4.5ZM73,180.1h-.8l1.1-4.5.7.2Zm40.8-.4-1.1-4.4.7-.2,1.2,4.4Zm-43.1-.1-.7-.2,1.1-4.4.7.2Zm45.4-.5-1.2-4.4.7-.2,1.2,4.4ZM68.5,179l-.8-.2,1.3-4.4.7.2Zm49.8-.5-1.3-4.4.7-.2,1.3,4.3Zm-52.1-.1-.7-.3,1.3-4.3.7.2Zm54.3-.6-1.4-4.3.7-.3,1.5,4.3ZM64,177.7l-.7-.3,1.4-4.3.7.2Zm58.7-.7-1.5-4.3.7-.2,1.6,4.2Zm-60.9-.1-.7-.3,1.5-4.2.7.2Zm63.1-.7-1.6-4.2.7-.3,1.6,4.2Zm-65.3-.1-.7-.3,1.7-4.2.7.2Zm67.5-.8-1.8-4.2.7-.2,1.8,4.1Zm-69.7-.1-.7-.3,1.8-4.2.7.3Zm71.8-.8-1.9-4.1.7-.3,1.9,4.1Zm-73.9-.2-.7-.3,1.9-4.1.7.3Zm76-.8-2-4.1.7-.3,2,4.1Zm-78.1-.2-.7-.3,2-4.1.7.3Zm80.2-.8-2.1-4.1.7-.3,2.1,4Zm-82.3-.2-.7-.4,2.1-4,.7.4Zm84.3-.9-2.1-4,.6-.3,2.2,3.9ZM49,171.1l-.6-.4,2.2-4,.6.4Zm88.5-.9-2.3-4,.6-.3,2.3,3.9ZM47,169.9l-.7-.4,2.4-3.9.6.4Zm92.5-.9-2.4-3.9.6-.4,2.4,3.9ZM45,168.7l-.7-.4,2.5-3.8.6.4Zm96.4-1-2.4-3.8.6-.4,2.5,3.8ZM43,167.5l-.6-.5,2.5-3.8.6.5Zm100.4-1.1-2.6-3.7.6-.4L144,166Zm-102.3-.3-.6-.4,2.6-3.7.6.4Zm104.2-1-2.7-3.7.6-.4,2.7,3.6Zm-106.1-.3-.6-.5,2.7-3.6.6.4Zm107.9-1.1-2.7-3.6.5-.5,2.8,3.6Zm-109.7-.3-.7-.5,2.9-3.6.6.5ZM149,162.3l-2.9-3.6.6-.4,2.9,3.5Zm-113.5-.4-.6-.5,3-3.5.5.5Zm115.2-1.1-2.9-3.5.5-.5,3,3.5Zm-117-.4-.5-.5,3-3.4.5.5Zm118.8-1.2-3.1-3.4.6-.5,3.1,3.4ZM32,158.9l-.6-.5,3.1-3.4.6.5Zm122.2-1.3-3.1-3.3.5-.5,3.2,3.3Zm-123.9-.3-.6-.6,3.2-3.2.5.5ZM155.9,156l-3.2-3.2.5-.5,3.2,3.2Zm-127.3-.4-.5-.5,3.3-3.2.5.6Zm128.9-1.2-3.3-3.2.5-.5,3.3,3.1ZM27,154l-.5-.6,3.3-3.1.5.6Zm132.1-1.4-3.4-3,.5-.6,3.4,3.1Zm-133.7-.3-.5-.6,3.4-3,.5.5Zm135.2-1.4-3.4-3,.5-.5,3.4,2.9Zm-136.7-.4-.5-.6,3.5-2.9.5.6Zm138.2-1.4-3.5-2.9.5-.5,3.5,2.8Zm-139.7-.4-.5-.6,3.6-2.8.5.6Zm141.2-1.4-3.6-2.8.4-.6,3.6,2.8ZM21,146.9l-.5-.6,3.7-2.8.4.6Zm144-1.5-3.7-2.7.4-.6,3.7,2.7ZM19.6,145l-.4-.6,3.7-2.7.4.6Zm146.7-1.5-3.7-2.6.4-.6,3.8,2.6Zm-148-.4-.5-.6,3.8-2.6.4.6Zm149.3-1.5-3.8-2.5.4-.6,3.9,2.4ZM17,141.2l-.4-.7,3.8-2.4.4.6Zm151.9-1.6-3.9-2.4.4-.6,3.9,2.3Zm-153.2-.4-.4-.7,3.9-2.3.4.6Zm154.4-1.6-3.9-2.3.3-.6,4,2.2Zm-155.5-.4-.4-.7,3.9-2.2.4.6Zm156.6-1.6-4-2.2.4-.7,4,2.2Zm-157.8-.4-.3-.7,4-2.1.3.6Zm158.9-1.7-4-2.1.3-.6,4.1,2Zm-160-.4-.3-.7,4.1-2,.3.6Zm161.1-1.7-4.1-2,.3-.6,4.1,1.9ZM11.3,131l-.3-.7,4.1-1.9.3.7Zm163.1-1.7-4.2-1.9.3-.6,4.2,1.8Zm-164.1-.4-.3-.7,4.2-1.8.3.7Zm165-1.7-4.2-1.8.3-.7,4.2,1.7ZM9.4,126.8l-.3-.7,4.3-1.7.2.6ZM176.2,125l-4.3-1.7.3-.7,4.3,1.7ZM8.6,124.6l-.3-.7,4.3-1.6.2.7ZM177,122.8l-4.3-1.5.3-.7,4.3,1.5ZM7.8,122.4l-.3-.7,4.3-1.5.3.7Zm170-1.8-4.4-1.4.3-.7,4.3,1.3ZM7,120.2l-.2-.7,4.3-1.4.2.7Zm171.5-1.8-4.4-1.4.2-.7,4.4,1.3ZM6.3,118l-.2-.7,4.4-1.3.2.7Zm172.8-1.9-4.4-1.2.2-.7,4.4,1.2ZM5.7,115.8l-.2-.8,4.4-1.1.2.7Zm174-1.9-4.4-1.1v-.7l4.5,1ZM5.1,113.5l-.2-.8,4.5-1v.7Zm175.1-1.9-4.4-1v-.7l4.5.9ZM4.6,111.2l-.2-.7,4.5-1,.2.8Zm176.1-1.9-4.5-.8v-.8l4.5.8ZM4.1,108.9v-.7l4.5-.8v.7Zm177-1.9-4.5-.7v-.8l4.5.7ZM3.7,106.6v-.7l4.5-.7v.7Zm177.7-1.9-4.5-.6v-.8l4.5.6Zm-178-.4v-.7l4.5-.6v.7Zm178.3-1.9-4.5-.5v-.7l4.5.4ZM3.1,102v-.8l4.5-.4v.7Zm178.8-1.9-4.5-.4v-.8l4.5.4Zm-179-.4v-.8l4.5-.3v.7Zm179.2-2-4.5-.2v-.8l4.5.3ZM2.8,97.4v-.8l4.6-.2v.7Zm179.4-2h-4.5v-.8h4.5ZM2.7,95v-.7H7.2v.7Zm179.6-1.9h-4.6v-.7h4.6ZM7.2,92.7H2.6v-1H7.2Zm170.5-1.9v-.7h4.5v.8ZM7.2,90.2H2.7v-.8l4.5.2Zm170.4-1.6v-.7l4.5-.2v.7ZM7.3,88l-4.5-.2V87l4.5.3Zm170.2-1.6v-.7l4.6-.4v.8ZM7.4,85.8l-4.5-.3v-.8l4.5.4Zm169.9-1.6v-.7l4.6-.5v.8ZM7.6,83.6l-4.5-.5v-.7l4.5.5ZM177.1,82v-.7l4.5-.6v.8ZM7.9,81.4l-4.5-.6v-.7l4.5.6Zm168.9-1.6v-.7l4.5-.7v.8ZM8.2,79.2l-4.5-.7v-.7l4.5.7Zm168.2-1.6v-.7l4.5-.8v.8ZM8.6,77l-4.5-.8v-.7l4.5.8ZM176,75.5v-.8l4.4-.9.2.8ZM9,74.9l-4.5-1,.2-.7,4.5.9Zm166.5-1.6v-.7l4.4-1.1.2.8Zm-166-.6-4.4-1v-.8L9.7,72ZM175,71.2l-.2-.8,4.4-1.1.2.7ZM10,70.6,5.6,69.4l.2-.8,4.4,1.2ZM174.4,69l-.2-.7,4.4-1.3.2.8ZM10.6,68.4,6.2,67.1l.3-.7,4.3,1.3Zm163.2-1.5-.2-.7,4.3-1.4.3.7ZM11.3,66.3,6.9,64.9l.3-.7,4.3,1.4Zm161.8-1.5-.2-.7,4.3-1.5.2.7ZM12,64.2,7.7,62.7l.2-.7,4.3,1.5Zm160.4-1.5-.3-.7,4.3-1.6.2.7ZM12.7,62.1,8.5,60.5l.3-.7L13,61.4Zm158.9-1.5-.3-.6,4.2-1.8.3.7Zm-158-.5L9.3,58.3l.3-.7,4.2,1.8Zm157.1-1.5-.3-.7,4.2-1.8.3.7ZM14.4,58l-4.1-1.8.3-.7,4.1,1.8Zm155.4-1.4-.3-.7,4.1-1.9.4.7ZM15.3,56l-4.1-2,.4-.7,4.1,2Zm153.6-1.4-.4-.6,4.1-2.1.3.7ZM16.3,54l-4-2.1.3-.6,4.1,2Zm151.6-1.3-.4-.7,4-2.2.4.7ZM17.3,52l-4-2.1.4-.7,4,2.2Zm149.5-1.3-.4-.6,4-2.3.4.7ZM18.4,50.1l-3.9-2.3.4-.6,3.9,2.3Zm147.3-1.3-.4-.6,3.9-2.4.4.7ZM19.6,48.2l-3.9-2.4.4-.6,3.8,2.4Zm144.9-1.3-.4-.6,3.9-2.5.4.7ZM20.7,46.3l-3.8-2.5.4-.6,3.8,2.5Zm142.6-1.2-.4-.6,3.8-2.6.4.6ZM22,44.5l-3.8-2.6.4-.6,3.8,2.6Zm140.1-1.3-.4-.5,3.7-2.7.4.6ZM23.2,42.7,19.5,40l.5-.6,3.7,2.7Zm137.6-1.2-.5-.6,3.7-2.8.4.6ZM24.5,40.9l-3.6-2.8.5-.6L25,40.3Zm134.9-1.2-.4-.6,3.5-2.8.5.6ZM25.9,39.1l-3.5-2.8.4-.6,3.6,2.9ZM158.1,38l-.5-.6,3.5-2.9.5.6ZM27.3,37.4l-3.5-2.9.5-.6,3.5,3Zm129.3-1.1-.5-.5,3.4-3.1.5.6ZM28.8,35.7l-3.4-3,.5-.6,3.4,3.1Zm126.3-1-.5-.6L158,31l.5.6ZM30.3,34.1,26.9,31l.6-.6,3.3,3.2Zm123.3-1-.5-.6,3.2-3.2.6.6ZM31.8,32.5l-3.2-3.2.5-.5L32.3,32Zm120.3-1-.6-.5,3.2-3.3.5.5ZM33.4,31l-3.2-3.3.6-.6,3.1,3.4Zm117.1-1-.6-.5,3.1-3.4.6.5ZM35,29.5l-3.1-3.4.6-.5,3,3.4Zm113.8-1-.5-.5,2.9-3.4.6.5ZM36.6,28l-2.9-3.5.5-.5,3,3.5Zm110.5-1-.5-.4,2.9-3.5.6.4ZM38.3,26.6,35.4,23l.6-.5,2.9,3.6Zm107.1-1-.6-.4,2.8-3.6.6.5ZM40.1,25.2l-2.8-3.6.6-.5,2.7,3.6Zm103.6-.9-.6-.5,2.7-3.6.6.4ZM41.8,23.8l-2.7-3.6.6-.5,2.7,3.7ZM141.9,23l-.6-.5,2.6-3.7.6.5Zm-98.3-.5L41,18.8l.6-.4,2.6,3.7Zm96.5-.8-.7-.4,2.6-3.8.6.4Zm-94.7-.4-2.5-3.8.7-.4L46,20.9Zm92.8-.8-.6-.4,2.4-3.9.7.5Zm-90.9-.4-2.4-3.8.6-.5,2.4,3.9Zm89-.8-.6-.4L138,15l.7.4ZM49.2,19l-2.3-4,.6-.3,2.3,3.9Zm85.2-.8-.6-.4,2.2-3.9.7.3Zm-83.3-.3-2.2-4,.7-.4,2.1,4Zm81.4-.8-.7-.3,2.1-4,.7.3ZM53,16.8l-2.1-4,.7-.4,2.1,4.1Zm77.5-.7-.7-.3,2-4.1.7.4ZM55,15.8l-2-4.1.7-.3,2,4.1Zm73.5-.6-.7-.4,1.9-4.1.7.3ZM57,14.9l-1.9-4.2.7-.3,1.9,4.2Zm69.5-.7-.7-.2,1.8-4.2.7.3ZM59,14,57.2,9.8l.7-.3,1.8,4.2Zm65.4-.6-.7-.3,1.7-4.2.7.3ZM61,13.1,59.4,8.9l.7-.3,1.6,4.3Zm61.4-.5-.7-.3,1.5-4.2.8.2Zm-59.3-.2L61.5,8.1l.8-.3,1.5,4.3Zm57.2-.6-.7-.2L121,7.3l.8.2Zm-55.1-.2L63.7,7.3l.8-.2,1.4,4.3Zm53-.5-.7-.2,1.3-4.3.7.2Zm-50.9-.2L66,6.6l.7-.2L68,10.7Zm48.7-.4-.7-.2,1.2-4.4.8.2Zm-46.6-.2L68.2,5.9l.8-.2,1.1,4.4Zm44.5-.4-.7-.2,1.1-4.4.7.2ZM71.6,9.8,70.5,5.3h.7l1.1,4.4Zm40.2-.4-.8-.2,1-4.4h.8ZM73.7,9.2l-1-4.4.8-.2.9,4.5Zm35.9-.3h-.7l.8-4.5.8.2ZM75.9,8.8,75,4.3h.8l.8,4.5Zm31.5-.3h-.7l.8-4.5h.7ZM78.1,8.4l-.8-4.5h.8l.7,4.5Zm27.1-.3h-.7l.6-4.5h.8Zm-25,0-.6-4.6h.8L81,7.9ZM103,7.8h-.7l.5-4.6h.8Zm-20.6,0-.5-4.6h.8l.5,4.5Zm18.5-.2h-.8l.4-4.5h.8ZM84.6,7.5,84.2,3H85l.4,4.6Zm14-.1h-.7l.3-4.6H99Zm-11.8,0-.2-4.6h.7l.3,4.5Zm9.6-.1h-.7l.2-4.5h.7Zm-7.3,0-.2-4.6h.8V7.2Zm5.1-.1h-.7V2.6h.8Zm-2.9,0V2.6H92V7.2Z" fill="#fff"/><path d="M29.6,53l5.7-7.4c1.9-2.6,4.5-2.4,5.9-1.3a3.5,3.5,0,0,1,1.2,4.3,3.6,3.6,0,0,1,4.8-.1c1.7,1.3,2.4,3.7.5,6.2l-5.8,7.6Zm9.6-3.1a.9.9,0,0,0-.2-1.3.9.9,0,0,0-1.3.1l-2.2,2.9L37,52.8ZM44,53.4a1.1,1.1,0,0,0-.2-1.5,1,1,0,0,0-1.5.2l-2.3,3,1.7,1.2Z" fill="#fff"/><path d="M41.7,38.5l9.1-7.3,2.4,3-5.5,4.4L48.9,40l5.3-4.3,2.4,3L51.3,43l1.2,1.5L58,40.1l2.4,3-9,7.4Z" fill="#fff"/><path d="M69.5,36.4l-5.3,2.5.3,2.1-4.6,2.1L58.5,26.8l5.3-2.5L75.5,35.8,70.9,38Zm-5.9-1.5,3.2-1.5-3.9-4.2Z" fill="#fff"/><path d="M80.9,30.1l-1.7.3.9,4.9-4.6.8L72.8,20.9l8-1.4a5.1,5.1,0,0,1,6.4,4.2,4.9,4.9,0,0,1-1.9,5.1L89,33.6l-5.2,1Zm-.1-6.7-2.8.5.5,2.7,2.8-.5a1.5,1.5,0,0,0,1.3-1.6A1.6,1.6,0,0,0,80.8,23.4Z" fill="#fff"/><path d="M96,26c.8-4.7,5-7.3,9.6-6.5a7.4,7.4,0,0,1,6.3,5.6l-4.3,1.2a3.4,3.4,0,0,0-2.7-2.8,3.7,3.7,0,0,0-4.2,3.2,3.5,3.5,0,0,0,2.9,4.4,3.3,3.3,0,0,0,3.5-1.6l3.6,2.4a7.3,7.3,0,0,1-7.8,3.3C98.3,34.4,95.3,30.6,96,26Z" fill="#fff"/><path d="M117,22.4l4.3,2-3.8,8a2.5,2.5,0,0,0,1.3,3.6,2.4,2.4,0,0,0,3.5-1.3l3.8-8.1,4.3,2-3.8,8.2c-1.7,3.5-4.8,5.1-9.5,2.9s-5.6-5.7-3.9-9.1Z" fill="#fff"/><path d="M135.1,31.8l7.1,6c2.4,2.1,2.1,4.6.9,6a3.2,3.2,0,0,1-4.2.9,3.8,3.8,0,0,1-.2,4.8,4.2,4.2,0,0,1-6.2.2l-7.4-6.2ZM134,46a1,1,0,0,0,1.5,0,1.2,1.2,0,0,0-.2-1.6L132.5,42l-1.4,1.6Zm3.7-4.5a1,1,0,0,0,1.3-.2.9.9,0,0,0-.1-1.3l-2.7-2.3-1.3,1.4Z" fill="#fff"/><path d="M141.8,51.3a7.4,7.4,0,0,0,1.3,5.2c.5.7,1.2,1.2,1.7.8s.4-1-.3-2.4-2.9-5.8.2-8.1,5.3-1.2,7.8,2.3a10.1,10.1,0,0,1,2.1,6.5h-4.1a7.6,7.6,0,0,0-1.3-4.3c-.7-1-1.2-.9-1.5-.7s-.3,1,.4,2.5,2.8,5.7-.1,7.8-5.8,1.1-8.2-2.2a9.7,9.7,0,0,1-2.2-7.3Z" fill="#fff"/><path d="M32,127.9c6.9,2.5,7.6,2.7,8.4,2.1s.5-1.1-.1-1.8a4.5,4.5,0,0,0-3-2l.9-3.3a7.5,7.5,0,0,1,5,3.3c1.9,2.8,1.7,5.6-.5,7.1s-3.3,1.1-7-.7l2.7,3.9-2.8,1.9-6.1-8.8Z" fill="#fff"/><path d="M41.4,139.2a4,4,0,0,0,1.2,2.2,2.6,2.6,0,0,0,3.8.2h.1a4.1,4.1,0,0,1-3.1-1.2,4.3,4.3,0,0,1-.3-6.3c2-2,4.9-1.7,7.1.5s2.4,6.4-.3,9.2-6.7,2.8-9.6,0a7.4,7.4,0,0,1-2.1-3.7Zm6.6-2.1c-.7-.7-1.5-.7-1.9-.3s-.3,1.6.4,2.2a2.8,2.8,0,0,0,1.7.9A1.9,1.9,0,0,0,48,137.1Z" fill="#fff"/><path d="M49.7,148.1l2.1-2.9-1.3-.9,1.8-2.5,1.3.9,1.5-2.1,2.9,2.1-1.5,2.1,1.5,1.1-1.8,2.5-1.5-1.2-1.6,2.2a.9.9,0,0,0,.1,1.2l.7.2-1,2.6a4,4,0,0,1-2.3-.9C48.9,151.2,48.5,149.7,49.7,148.1Z" fill="#fff"/><path d="M62.7,153.3c.5-.9.2-1.4-.6-1.8a2.1,2.1,0,0,0-1.7-.1l-2.7,5.2L54.6,155l6-11.6,3.1,1.6-2.1,4.2a4.1,4.1,0,0,1,3.5.3,2.8,2.8,0,0,1,1.4,4.1l-3.1,6L60.3,158Z" fill="#fff"/><path d="M74.8,150l5.7,1.1c4.1.8,6.6,3.7,5.8,7.8S82,164.8,78,164l-5.7-1.2Zm3.9,10.6a3.1,3.1,0,0,0,3.7-2.5,2.9,2.9,0,0,0-2.5-3.6l-1.9-.4-1.2,6.1Z" fill="#fff"/><path d="M88.3,152.2h3.9l-.4,13.1h-4Z" fill="#fff"/><path d="M92.2,152.8l4.5-.6,3.8,8.4,1.8-9,4.5-.6-3.3,13.6-4.9.6Z" fill="#fff"/><path d="M106.7,150.6l3.8-1,3.5,12.6-3.8,1Z" fill="#fff"/><path d="M116.2,156.5a6.4,6.4,0,0,0,4.5-.2c.7-.3,1.3-.8,1.1-1.3s-.8-.4-2.1-.1-5.4,1.3-6.7-1.7,0-4.6,3.3-6a8.4,8.4,0,0,1,5.8-.6l-.8,3.4a7.1,7.1,0,0,0-3.9.3c-.9.4-.9.8-.8,1.1s.8.4,2.1.1,5.3-1.2,6.6,1.5-.2,5-3.4,6.4a8.2,8.2,0,0,1-6.4.6Z" fill="#fff"/><path d="M122.2,144.5l3.3-2.1,6.9,11.1-3.4,2.1Z" fill="#fff"/><path d="M131.6,137.5a6.7,6.7,0,0,1,9.8.4c2.6,3,2.1,7.1-1,9.8s-7.2,2.6-9.8-.4A6.7,6.7,0,0,1,131.6,137.5Zm2.3,2.6a3,3,0,0,0-.3,4.5,3.1,3.1,0,0,0,4.6.4,3.3,3.3,0,0,0-4.3-4.9Z" fill="#fff"/><path d="M144.5,132.9l5.7,4.2-2.3,3.2-10.6-7.7,2.4-3.3,8,.2-5.4-3.9,2.4-3.2,10.6,7.7-2.3,3.1Z" fill="#fff"/><polygon points="26.5 85.5 28.2 90.8 33.7 90.8 29.3 94.1 31 99.3 26.5 96.1 22 99.3 23.7 94.1 19.2 90.8 24.8 90.8 26.5 85.5" fill="#fff" fill-rule="evenodd"/><polygon points="158.4 85.5 160.1 90.8 165.7 90.8 161.2 94.1 162.9 99.3 158.4 96.1 153.9 99.3 155.6 94.1 151.1 90.8 156.7 90.8 158.4 85.5" fill="#fff" fill-rule="evenodd"/><path d="M93.3,89.2C77.2,89.2,75.4,99.4,74,102c-3.6,6.4-4.9,8.7-10.6,11.7C50,121,63.1,133,67.9,133s12-4,25.4-4,20.7,4,25.4,4,17.9-12,4.5-19.3c-5.7-3-7-5.3-10.6-11.7-1.4-2.6-3.2-12.8-19.3-12.8Z" fill="#fff"/><ellipse cx="93" cy="72.5" rx="7.6" ry="11.9" fill="#fff"/><ellipse cx="75.5" cy="79.2" rx="7.6" ry="11.9" transform="translate(-16.9 20.6) rotate(-14)" fill="#fff"/><ellipse cx="61.6" cy="94" rx="7.6" ry="11.9" transform="translate(-37.8 41.6) rotate(-29)" fill="#fff"/><path d="M93.1,39.1c4.3,7.4,5,13.2,5,20.9-1.3-1-2.5-2.3-5-2.3s-3.6,1.3-5,2.3c0-7.7.8-13.5,5-20.9" fill="#fff"/><path d="M74.2,46.5c0,9,1.3,13.5,5,20.9-1.4-1.1-2.5-2.3-5-2.3s-3.6,1.2-5,2.3c0-7.7.8-13.6,5-20.9" fill="#fff"/><path d="M58.7,62c0,9.1,1.3,13.6,5,20.9-1.4-1-2.5-2.3-5-2.3s-3.6,1.3-5,2.3c0-7.6.8-13.5,5-20.9" fill="#fff"/><ellipse cx="110.7" cy="79.2" rx="11.9" ry="7.6" transform="translate(7.1 167.5) rotate(-76)" fill="#fff"/><ellipse cx="124.6" cy="94" rx="11.9" ry="7.6" transform="translate(-17.9 157.5) rotate(-61)" fill="#fff"/><path d="M112,46.5c0,9-1.3,13.5-5,20.9,1.4-1.1,2.5-2.3,5-2.3s3.7,1.2,5,2.3c0-7.7-.7-13.6-5-20.9" fill="#fff"/><path d="M128.2,62.4c0,9-1.3,13.5-5,20.9,1.4-1,2.5-2.3,5-2.3s3.6,1.3,5,2.3c0-7.7-.8-13.5-5-20.9" fill="#fff"/><path d="M92.4,175.6a83.2,83.2,0,1,1,83.2-83.2A83.2,83.2,0,0,1,92.4,175.6Zm0-164.8a81.7,81.7,0,1,0,81.7,81.6A81.7,81.7,0,0,0,92.4,10.8Z" fill="#fff"/><path d="M267.6,92.4A92.4,92.4,0,1,1,360,184.9,92.4,92.4,0,0,1,267.6,92.4Z" fill="#2a7050"/><path d="M360.6,182.3v-4.6h.7v4.5Zm-1.6-.1h-.7v-4.5h.8Zm3.9,0v-4.5h.7l.2,4.6Zm-6.2,0h-.8l.2-4.6h.8Zm8.5-.1-.2-4.5h.7l.3,4.6Zm-10.8,0h-.8l.3-4.5h.8Zm13.2-.2-.4-4.5h.7l.4,4.6Zm-15.5,0h-.8l.4-4.5h.8Zm17.8-.2-.5-4.5h.7l.6,4.5Zm-20.2,0H349l.5-4.5h.7Zm22.5-.3-.6-4.5h.7l.7,4.5Zm-24.8,0h-.7l.6-4.5h.8Zm27.1-.3-.7-4.5h.7l.8,4.5Zm-29.4-.1h-.7l.7-4.5h.8Zm31.7-.3-.8-4.5h.7l.9,4.4Zm-34-.1h-.7l.9-4.5h.7Zm36.3-.4-1-4.4.7-.2,1.1,4.5Zm-38.5-.1h-.8l1-4.5.7.2Zm40.8-.4-1.1-4.4.7-.2,1.1,4.4Zm-43.1-.1-.8-.2,1.2-4.4.7.2Zm45.3-.5-1.2-4.4.7-.2,1.3,4.4ZM336,179l-.7-.2,1.2-4.4.7.2Zm49.9-.5-1.4-4.4.8-.2,1.3,4.3Zm-52.1-.1-.8-.3,1.4-4.3.7.2Zm54.3-.6-1.4-4.3.7-.3,1.4,4.3Zm-56.5-.1-.8-.3,1.5-4.3.7.2Zm58.7-.7-1.5-4.3.6-.2,1.6,4.2Zm-61-.1-.7-.3,1.6-4.2.7.2Zm63.2-.7-1.7-4.2.7-.3,1.7,4.2Zm-65.3-.1-.8-.3,1.7-4.2.7.2Zm67.4-.8-1.7-4.2.6-.2,1.8,4.1Zm-69.6-.1-.7-.3,1.8-4.2.7.3Zm71.8-.8-1.9-4.1.7-.3,1.9,4.1Zm-74-.2-.7-.3,2-4.1.6.3Zm76.1-.8-2-4.1.7-.3,2,4.1Zm-78.2-.2-.7-.3,2.1-4.1.6.3Zm80.2-.8-2-4.1.6-.3,2.1,4Zm-82.3-.2-.6-.4,2.1-4,.6.4Zm84.4-.9-2.2-4,.7-.3,2.2,3.9Zm-86.4-.2-.7-.4,2.2-4,.7.4Zm88.4-.9-2.3-4,.7-.3,2.3,3.9Zm-90.4-.3-.7-.4,2.3-3.9.7.4ZM407,169l-2.4-3.9.7-.4,2.4,3.9Zm-94.4-.3-.7-.4,2.5-3.8.6.4Zm96.4-1-2.5-3.8.6-.4,2.5,3.8Zm-98.4-.2-.6-.5,2.5-3.8.6.5Zm100.3-1.1-2.6-3.7.6-.4,2.7,3.7Zm-102.2-.3-.7-.4,2.7-3.7.6.4Zm104.1-1-2.7-3.7.6-.4,2.7,3.6Zm-106-.3-.7-.5,2.8-3.6.6.4Zm107.9-1.1-2.8-3.6.6-.5,2.8,3.6Zm-109.8-.3-.6-.5,2.8-3.6.6.5Zm111.6-1.1-2.9-3.6.6-.4,2.9,3.5Zm-113.4-.4-.6-.5,2.9-3.5.6.5Zm115.2-1.1-3-3.5.6-.5,3,3.5Zm-117-.4-.5-.5,2.9-3.4.6.5Zm118.8-1.2-3.1-3.4.6-.5,3,3.4Zm-120.5-.3-.6-.5,3.1-3.4.5.5Zm122.2-1.3-3.2-3.3.6-.5,3.1,3.3Zm-123.9-.3-.6-.6,3.2-3.2.5.5ZM423.4,156l-3.2-3.2.5-.5,3.3,3.2Zm-127.2-.4-.5-.5,3.2-3.2.5.6Zm128.9-1.2-3.3-3.2.5-.5,3.3,3.1ZM294.6,154l-.6-.6,3.4-3.1.5.6Zm132-1.4-3.3-3,.5-.6,3.4,3.1ZM293,152.3l-.5-.6,3.4-3,.5.5Zm135.2-1.4-3.5-3,.5-.5,3.5,2.9Zm-136.7-.4-.5-.6,3.5-2.9.4.6Zm138.2-1.4-3.5-2.9.4-.5,3.6,2.8ZM290,148.7l-.5-.6,3.6-2.8.4.6Zm141.1-1.4-3.6-2.8.5-.6,3.6,2.8Zm-142.5-.4-.5-.6,3.6-2.8.5.6Zm143.9-1.5-3.6-2.7.4-.6,3.7,2.7ZM287.2,145l-.5-.6,3.7-2.7.5.6Zm146.7-1.5-3.8-2.6.5-.6,3.7,2.6Zm-148.1-.4-.4-.6,3.8-2.6.4.6Zm149.4-1.5-3.8-2.5.4-.6,3.8,2.4Zm-150.7-.4-.4-.7,3.9-2.4.4.6Zm151.9-1.6-3.8-2.4.4-.6,3.8,2.3Zm-153.1-.4-.4-.7,3.9-2.3.4.6Zm154.3-1.6-3.9-2.3.4-.6,3.9,2.2Zm-155.5-.4-.4-.7,4-2.2.4.6Zm156.7-1.6-4-2.2.4-.7,4,2.2ZM281,135.2l-.4-.7,4-2.1.4.6Zm158.9-1.7-4.1-2.1.4-.6,4,2Zm-160-.4-.3-.7,4-2,.4.6Zm161-1.7-4.1-2,.4-.6,4.1,1.9Zm-162-.4-.4-.7,4.2-1.9.3.7Zm163-1.7-4.1-1.9.3-.6,4.1,1.8Zm-164-.4-.3-.7,4.2-1.8.3.7Zm165-1.7-4.2-1.8.2-.7,4.3,1.7ZM277,126.8l-.3-.7,4.2-1.7.3.6ZM443.7,125l-4.2-1.7.3-.7,4.2,1.7Zm-167.6-.4-.2-.7,4.2-1.6.3.7Zm168.5-1.8-4.3-1.5.2-.7,4.3,1.5Zm-169.3-.4-.2-.7,4.3-1.5.2.7Zm170-1.8-4.3-1.4.2-.7,4.4,1.3Zm-170.7-.4-.3-.7,4.4-1.4.2.7ZM446,118.4l-4.3-1.4.2-.7,4.3,1.3ZM273.9,118l-.2-.7L278,116l.2.7Zm172.8-1.9-4.4-1.2.2-.7,4.4,1.2Zm-173.5-.3-.2-.8,4.5-1.1v.7Zm174-1.9-4.4-1.1.2-.7,4.4,1Zm-174.5-.4-.2-.8,4.4-1,.2.7Zm175.1-1.9-4.5-1,.2-.7,4.4.9Zm-175.6-.4-.2-.7,4.5-1v.8Zm176-1.9-4.4-.8v-.8l4.5.8Zm-176.5-.4v-.7l4.4-.8.2.7ZM448.6,107l-4.5-.7.2-.8,4.5.7Zm-177.3-.4v-.7l4.5-.7v.7ZM449,104.7l-4.5-.6v-.8l4.5.6Zm-178-.4v-.7l4.5-.6v.7Zm178.3-1.9-4.6-.5v-.7l4.5.4ZM270.7,102v-.8l4.5-.4v.7Zm178.8-1.9-4.5-.4v-.8l4.6.4Zm-179-.4v-.8l4.6-.3v.7Zm179.2-2-4.6-.2v-.8l4.5.3Zm-179.4-.3v-.8l4.5-.2v.7Zm179.5-2h-4.6v-.8h4.6ZM270.2,95v-.7h4.6v.7Zm179.6-1.9h-4.5v-.7h4.5Zm-175.1-.4h-4.5v-1h4.5Zm170.5-1.9v-.7h4.6v.8Zm-170.4-.6h-4.6v-.8l4.6.2Zm170.4-1.6v-.7l4.6-.2v.7ZM274.9,88l-4.6-.2V87l4.5.3Zm170.2-1.6v-.7l4.5-.4v.8ZM275,85.8l-4.5-.3v-.8l4.6.4Zm169.9-1.6v-.7l4.5-.5v.8Zm-169.7-.6-4.5-.5v-.7l4.6.5ZM444.6,82v-.7l4.5-.6v.8Zm-169.2-.6-4.5-.6v-.7l4.5.6Zm168.9-1.6v-.7l4.5-.7v.8Zm-168.5-.6-4.5-.7v-.7l4.5.7ZM444,77.6l-.2-.7,4.5-.8.2.8ZM276.1,77l-4.4-.8v-.7l4.5.8Zm167.5-1.5-.2-.8,4.5-.9v.8Zm-167-.6-4.5-1,.2-.7,4.4.9Zm166.5-1.6-.2-.7,4.5-1.1v.8ZM277,72.7l-4.4-1,.2-.8,4.4,1.1Zm165.6-1.5-.2-.8,4.4-1.1.2.7Zm-165-.6-4.4-1.2.2-.8,4.4,1.2ZM442,69l-.2-.7,4.4-1.3.2.8Zm-163.8-.6-4.4-1.3.2-.7,4.4,1.3Zm163.2-1.5-.3-.7,4.4-1.4.2.7Zm-162.6-.6-4.3-1.4.2-.7,4.3,1.4Zm161.9-1.5-.3-.7,4.3-1.5.3.7Zm-161.2-.6-4.3-1.5.3-.7,4.3,1.5Zm160.4-1.5-.2-.7,4.2-1.6.3.7Zm-159.6-.6L276,60.5l.3-.7,4.3,1.6Zm158.8-1.5-.2-.6,4.2-1.8.3.7Zm-158-.5-4.2-1.8.3-.7,4.2,1.8Zm157.2-1.5-.3-.7,4.1-1.8.4.7ZM282,58l-4.2-1.8.3-.7,4.2,1.8Zm155.4-1.4-.3-.7,4.1-1.9.3.7ZM282.9,56l-4.1-2,.3-.7,4.1,2Zm153.5-1.4-.3-.6,4.1-2.1.3.7ZM283.9,54l-4.1-2.1.4-.6,4,2Zm151.5-1.3-.3-.7,4-2.2.3.7ZM284.9,52l-4-2.1.4-.7,4,2.2Zm149.5-1.3-.4-.6,3.9-2.3.4.7ZM286,50.1l-4-2.3.4-.6,4,2.3Zm147.3-1.3-.4-.6,3.9-2.4.4.7Zm-146.2-.6-3.9-2.4.4-.6,3.9,2.4Zm145-1.3-.4-.6,3.8-2.5.4.7Zm-143.8-.6-3.8-2.5.4-.6,3.8,2.5Zm142.6-1.2-.4-.6,3.7-2.6.5.6Zm-141.4-.6-3.7-2.6.4-.6,3.7,2.6Zm140.1-1.3-.4-.5,3.7-2.7.5.6Zm-138.8-.5L287.1,40l.4-.6,3.7,2.7Zm137.5-1.2-.4-.6,3.6-2.8.5.6Zm-136.2-.6-3.6-2.8.5-.6,3.5,2.8ZM427,39.7l-.5-.6,3.6-2.8.5.6Zm-133.5-.6-3.6-2.8.5-.6,3.5,2.9ZM425.6,38l-.5-.6,3.5-2.9.5.6Zm-130.7-.6-3.5-2.9.5-.6,3.5,3Zm129.3-1.1-.5-.5,3.4-3.1.5.6Zm-127.9-.6-3.4-3,.5-.6,3.4,3.1Zm126.4-1-.5-.6,3.3-3.1.5.6Zm-124.9-.6L294.5,31l.5-.6,3.3,3.2Zm123.4-1-.5-.6,3.2-3.2.5.6Zm-121.8-.6-3.3-3.2.6-.5,3.2,3.2Zm120.2-1-.5-.5,3.1-3.3.6.5ZM300.9,31l-3.1-3.3.5-.6,3.2,3.4ZM418,30l-.5-.5,3-3.4.6.5Zm-115.5-.5-3-3.4.5-.5,3.1,3.4Zm113.9-1-.6-.5,3-3.4.6.5ZM304.2,28l-3-3.5.6-.5,3,3.5Zm110.5-1-.6-.4,2.9-3.5.6.4Zm-108.8-.4L303,23l.6-.5,2.9,3.6Zm107.1-1-.6-.4,2.8-3.6.6.5Zm-105.4-.4-2.8-3.6.6-.5,2.8,3.6Zm103.6-.9-.6-.5,2.7-3.6.7.4Zm-101.8-.5-2.7-3.6.6-.5,2.7,3.7Zm100-.8-.6-.5,2.6-3.7.7.5Zm-98.2-.5-2.6-3.7.6-.4,2.6,3.7Zm96.4-.8-.6-.4,2.5-3.8.7.4ZM313,21.3l-2.5-3.8.6-.4,2.5,3.8Zm92.8-.8-.7-.4,2.5-3.9.6.5Zm-91-.4-2.4-3.8.7-.5,2.4,3.9Zm89.1-.8-.7-.4,2.4-3.9.6.4ZM316.7,19l-2.3-4,.7-.3,2.3,3.9Zm85.3-.8-.7-.4,2.2-3.9.7.3Zm-83.4-.3-2.2-4,.7-.4,2.2,4Zm81.4-.8-.6-.3,2.1-4,.7.3Zm-79.4-.3-2.1-4,.7-.4,2,4.1Zm77.5-.7-.7-.3,2-4.1.7.4Zm-75.5-.3-2-4.1.7-.3,1.9,4.1Zm73.5-.6-.7-.4,1.9-4.1.7.3Zm-71.5-.3-1.9-4.2.7-.3,1.8,4.2Zm69.4-.7-.6-.2,1.7-4.2.7.3ZM326.6,14l-1.8-4.2.7-.3,1.7,4.2Zm65.4-.6-.7-.3L393,8.9l.7.3Zm-63.4-.3-1.7-4.2.8-.3,1.6,4.3Zm61.3-.5-.7-.3,1.6-4.2.7.2Zm-59.2-.2-1.6-4.3.7-.3,1.6,4.3Zm57.1-.6-.7-.2,1.5-4.3.7.2Zm-55-.2-1.5-4.3.7-.2,1.5,4.3Zm52.9-.5-.7-.2,1.3-4.3.8.2Zm-50.8-.2-1.4-4.3.8-.2,1.3,4.3Zm48.7-.4-.7-.2,1.2-4.4.8.2ZM337,10.3l-1.2-4.4.7-.2,1.2,4.4Zm44.5-.4-.8-.2,1.2-4.4.7.2Zm-42.4-.1L338,5.3h.8l1,4.4Zm40.2-.4-.7-.2,1-4.4h.7Zm-38-.2-1-4.4.7-.2,1,4.5Zm35.9-.3h-.8l.9-4.5.8.2Zm-33.8-.1-.8-4.5h.7l.9,4.5ZM375,8.5h-.7l.7-4.5h.8Zm-29.4-.1-.7-4.5h.7l.7,4.5Zm27.2-.3h-.7l.6-4.5h.8Zm-25,0-.6-4.6h.7l.6,4.5Zm22.8-.3h-.7l.5-4.6h.8ZM350,7.8l-.5-4.6h.7l.5,4.5Zm18.4-.2h-.7l.4-4.5h.7Zm-16.2-.1L351.8,3h.8l.3,4.6Zm14-.1h-.7l.3-4.6h.7Zm-11.8,0-.3-4.6h.8l.2,4.5Zm9.6-.1h-.7V2.7h.8Zm-7.4,0-.2-4.6h.8l.2,4.5Zm5.2-.1H361V2.6h.8Zm-3,0V2.6h.7V7.2Z" fill="#fefefe"/><path d="M297.2,53l5.7-7.4c1.9-2.6,4.4-2.4,5.9-1.3a3.6,3.6,0,0,1,1.2,4.3,3.5,3.5,0,0,1,4.7-.1c1.7,1.3,2.5,3.7.6,6.2l-5.9,7.6Zm9.6-3.1a1,1,0,0,0-.3-1.3.9.9,0,0,0-1.3.1L303,51.6l1.6,1.2Zm4.7,3.5a1,1,0,0,0-.2-1.5,1,1,0,0,0-1.5.2l-2.2,3,1.6,1.2Z" fill="#fefefe"/><path d="M309.2,38.5l9.1-7.3,2.5,3-5.5,4.4,1.1,1.4,5.4-4.3,2.4,3L318.9,43l1.2,1.5,5.5-4.4,2.4,3-9.1,7.4Z" fill="#fefefe"/><path d="M337.1,36.4l-5.4,2.5L332,41l-4.5,2.1-1.4-16.3,5.3-2.5L343,35.8,338.5,38Zm-5.9-1.5,3.1-1.5-3.8-4.2Z" fill="#fefefe"/><path d="M348.4,30.1l-1.6.3.8,4.9-4.6.8-2.7-15.2,8.1-1.4a5.1,5.1,0,0,1,6.4,4.2,5.1,5.1,0,0,1-1.9,5.1l3.7,4.8-5.2,1Zm0-6.7-2.8.5.5,2.7,2.8-.5c.7-.2,1.4-.8,1.2-1.6A1.5,1.5,0,0,0,348.4,23.4Z" fill="#fefefe"/><path d="M363.6,26c.8-4.7,4.9-7.3,9.6-6.5a7.1,7.1,0,0,1,6.2,5.6l-4.3,1.2a3.2,3.2,0,0,0-2.6-2.8,3.7,3.7,0,0,0-4.2,3.2,3.5,3.5,0,0,0,2.9,4.4,3.2,3.2,0,0,0,3.4-1.6l3.7,2.4a7.4,7.4,0,0,1-7.8,3.3C365.9,34.4,362.8,30.6,363.6,26Z" fill="#fefefe"/><path d="M384.5,22.4l4.3,2-3.7,8a2.4,2.4,0,0,0,1.3,3.6,2.4,2.4,0,0,0,3.5-1.3l3.8-8.1,4.2,2-3.8,8.2c-1.6,3.5-4.8,5.1-9.5,2.9s-5.5-5.7-3.9-9.1Z" fill="#fefefe"/><path d="M402.6,31.8l7.2,6c2.4,2.1,2.1,4.6.9,6a3.3,3.3,0,0,1-4.3.9,3.7,3.7,0,0,1-.2,4.8c-1.4,1.6-3.8,2.2-6.2.2l-7.3-6.2ZM401.5,46a1,1,0,0,0,1.5,0,1.1,1.1,0,0,0-.1-1.6L400,42l-1.3,1.6Zm3.7-4.5a1.1,1.1,0,0,0,1.4-.2.9.9,0,0,0-.1-1.3l-2.8-2.3-1.2,1.4Z" fill="#fefefe"/><path d="M409.3,51.3a7.4,7.4,0,0,0,1.3,5.2c.5.7,1.3,1.2,1.8.8s.3-1-.3-2.4-2.9-5.8.2-8.1,5.3-1.2,7.8,2.3a10,10,0,0,1,2,6.5H418a7.6,7.6,0,0,0-1.3-4.3c-.6-1-1.1-.9-1.4-.7s-.3,1,.4,2.5,2.7,5.7-.2,7.8-5.8,1.1-8.2-2.2a10.6,10.6,0,0,1-2.2-7.3Z" fill="#fefefe"/><path d="M299.6,127.9c6.8,2.5,7.6,2.7,8.4,2.1s.4-1.1-.1-1.8a5,5,0,0,0-3-2l.9-3.3a7.7,7.7,0,0,1,5,3.3c1.9,2.8,1.6,5.6-.5,7.1s-3.3,1.1-7-.7l2.7,3.9-2.9,1.9-6.1-8.8Z" fill="#fefefe"/><path d="M309,139.2a3.5,3.5,0,0,0,1.2,2.2,2.6,2.6,0,0,0,3.8.2h0a4.2,4.2,0,0,1-3.1-1.2,4.3,4.3,0,0,1-.3-6.3c2-2,5-1.7,7.2.5s2.4,6.4-.3,9.2-6.8,2.8-9.6,0a8.5,8.5,0,0,1-2.2-3.7Zm6.6-2.1a1.5,1.5,0,0,0-2-.3c-.6.7-.2,1.6.4,2.2a3.2,3.2,0,0,0,1.7.9A1.9,1.9,0,0,0,315.6,137.1Z" fill="#fefefe"/><path d="M317.2,148.1l2.2-2.9-1.3-.9,1.8-2.5,1.3.9,1.5-2.1,2.8,2.1-1.5,2.1,1.6,1.1-1.8,2.5-1.6-1.2-1.5,2.2a.8.8,0,0,0,.1,1.2l.7.2-1.1,2.6a4.2,4.2,0,0,1-2.3-.9C316.4,151.2,316.1,149.7,317.2,148.1Z" fill="#fefefe"/><path d="M330.3,153.3a1.2,1.2,0,0,0-.6-1.8,2.1,2.1,0,0,0-1.7-.1l-2.7,5.2-3.1-1.6,6-11.6,3.1,1.6-2.2,4.2a4.1,4.1,0,0,1,3.5.3c2,1,2.3,2.6,1.5,4.1l-3.1,6-3.1-1.6Z" fill="#fefefe"/><path d="M342.3,150l5.8,1.1c4,.8,6.6,3.7,5.8,7.8s-4.3,5.9-8.3,5.1l-5.8-1.2Zm3.9,10.6a3,3,0,0,0,3.7-2.5,2.8,2.8,0,0,0-2.5-3.6l-1.8-.4-1.2,6.1Z" fill="#fefefe"/><path d="M355.8,152.2h4l-.5,13.1h-3.9Z" fill="#fefefe"/><path d="M359.8,152.8l4.5-.6,3.8,8.4,1.8-9,4.4-.6-3.2,13.6-5,.6Z" fill="#fefefe"/><path d="M374.2,150.6l3.8-1,3.5,12.6-3.8,1Z" fill="#fefefe"/><path d="M383.8,156.5a6.4,6.4,0,0,0,4.5-.2c.7-.3,1.2-.8,1-1.3s-.8-.4-2.1-.1-5.3,1.3-6.6-1.7,0-4.6,3.2-6a8.7,8.7,0,0,1,5.9-.6l-.9,3.4a6.7,6.7,0,0,0-3.8.3c-.9.4-1,.8-.8,1.1s.7.4,2.1.1,5.3-1.2,6.5,1.5-.1,5-3.3,6.4a8.3,8.3,0,0,1-6.4.6Z" fill="#fefefe"/><path d="M389.7,144.5l3.4-2.1,6.9,11.1-3.4,2.1Z" fill="#fefefe"/><path d="M399.1,137.5c3.1-2.7,7.2-2.6,9.9.4s2,7.1-1,9.8-7.2,2.6-9.8-.4S396.1,140.1,399.1,137.5Zm2.3,2.6a3.1,3.1,0,0,0-.2,4.5,3,3,0,0,0,4.5.4,3.3,3.3,0,0,0-4.3-4.9Z" fill="#fefefe"/><path d="M412.1,132.9l5.7,4.2-2.4,3.2-10.6-7.7,2.4-3.3,8,.2-5.3-3.9,2.3-3.2,10.6,7.7-2.2,3.1Z" fill="#fefefe"/><polygon points="294 85.5 295.8 90.8 301.3 90.8 296.8 94.1 298.5 99.3 294 96.1 289.6 99.3 291.3 94.1 286.8 90.8 292.3 90.8 294 85.5" fill="#c3c6a7" fill-rule="evenodd"/><polygon points="426 85.5 427.7 90.8 433.2 90.8 428.7 94.1 430.4 99.3 426 96.1 421.5 99.3 423.2 94.1 418.7 90.8 424.2 90.8 426 85.5" fill="#c3c6a7" fill-rule="evenodd"/><path d="M360.9,89.2c-16.1,0-17.9,10.2-19.4,12.8-3.6,6.4-4.9,8.7-10.5,11.7-13.5,7.3-.3,19.3,4.4,19.3s12-4,25.5-4,20.6,4,25.4,4,17.9-12,4.4-19.3c-5.6-3-6.9-5.3-10.5-11.7-1.4-2.6-3.3-12.8-19.3-12.8Z" fill="#c3c6a7"/><ellipse cx="360.6" cy="72.5" rx="7.6" ry="11.9" fill="#c3c6a7"/><ellipse cx="343.1" cy="79.2" rx="7.6" ry="11.9" transform="translate(-9 85.2) rotate(-14)" fill="#c3c6a7"/><ellipse cx="329.1" cy="94" rx="7.6" ry="11.9" transform="translate(-4.3 171.1) rotate(-29)" fill="#c3c6a7"/><path d="M360.7,39.1c4.2,7.4,5,13.2,5,20.9-1.4-1-2.5-2.3-5-2.3s-3.7,1.3-5,2.3c0-7.7.7-13.5,5-20.9" fill="#c3c6a7"/><path d="M341.8,46.5c0,9,1.3,13.5,5,20.9-1.4-1.1-2.5-2.3-5-2.3s-3.7,1.2-5,2.3c0-7.7.7-13.6,5-20.9" fill="#c3c6a7"/><path d="M326.3,62c0,9.1,1.3,13.6,4.9,20.9-1.3-1-2.4-2.3-4.9-2.3s-3.7,1.3-5,2.3c0-7.6.7-13.5,5-20.9" fill="#c3c6a7"/><ellipse cx="378.3" cy="79.2" rx="11.9" ry="7.6" transform="translate(210.1 427.1) rotate(-76)" fill="#c3c6a7"/><ellipse cx="392.2" cy="94" rx="11.9" ry="7.6" transform="translate(120.1 391.6) rotate(-61)" fill="#c3c6a7"/><path d="M379.6,46.5c0,9-1.3,13.5-5,20.9,1.4-1.1,2.5-2.3,5-2.3s3.6,1.2,5,2.3c0-7.7-.8-13.6-5-20.9" fill="#c3c6a7"/><path d="M395.8,62.4c0,9-1.4,13.5-5,20.9,1.3-1,2.4-2.3,5-2.3s3.6,1.3,5,2.3c0-7.7-.8-13.5-5-20.9" fill="#c3c6a7"/><path d="M360,175.6a83.2,83.2,0,1,1,83.1-83.2A83.2,83.2,0,0,1,360,175.6Zm0-164.8a81.7,81.7,0,1,0,81.7,81.6A81.8,81.8,0,0,0,360,10.8Z" fill="#c3c6a7"/><path d="M535.1,92.4a92.5,92.5,0,1,1,92.5,92.5A92.5,92.5,0,0,1,535.1,92.4Z" fill="#297151"/><path d="M628.1,182.3v-4.6h.8v4.5Zm-1.5-.1h-.8v-4.5h.7Zm3.9,0-.2-4.5h.8l.2,4.6Zm-6.2,0h-.8l.2-4.6h.7Zm8.5-.1-.3-4.5h.8l.3,4.6Zm-10.9,0h-.7l.3-4.5h.7Zm13.2-.2-.3-4.5h.7l.4,4.6Zm-15.5,0h-.8l.5-4.5h.7Zm17.9-.2-.6-4.5h.8l.5,4.5Zm-20.2,0h-.8l.6-4.5h.7Zm22.5-.3-.6-4.5h.7l.6,4.5Zm-24.8,0h-.8l.7-4.5h.7Zm27.1-.3-.8-4.5h.8l.7,4.5Zm-29.4-.1h-.8l.8-4.5h.7Zm31.7-.3-.9-4.5h.7l.9,4.4Zm-34-.1h-.8l.9-4.5h.8Zm36.3-.4-1-4.4.7-.2,1,4.5Zm-38.6-.1h-.8l1.1-4.5.7.2Zm40.8-.4-1.1-4.4.8-.2,1.1,4.4Zm-43.1-.1-.7-.2,1.1-4.4.7.2Zm45.4-.5-1.2-4.4.7-.2,1.2,4.4Zm-47.6-.1-.8-.2,1.3-4.4.7.2Zm49.8-.5-1.3-4.4.7-.2,1.4,4.3Zm-52.1-.1-.7-.3,1.4-4.3.7.2Zm54.3-.6-1.4-4.3.7-.3,1.5,4.3Zm-56.5-.1-.7-.3,1.4-4.3.8.2Zm58.7-.7-1.5-4.3.7-.2,1.6,4.2Zm-60.9-.1-.7-.3,1.6-4.2.7.2Zm63.1-.7-1.6-4.2.7-.3,1.7,4.2Zm-65.3-.1-.7-.3,1.7-4.2.7.2Zm67.5-.8-1.8-4.2.7-.2,1.8,4.1Zm-69.6-.1-.8-.3,1.8-4.2.7.3Zm71.7-.8-1.8-4.1.6-.3,1.9,4.1Zm-73.9-.2-.7-.3,1.9-4.1.7.3Zm76-.8-1.9-4.1.6-.3,2,4.1Zm-78.1-.2-.7-.3,2-4.1.7.3Zm80.2-.8-2.1-4.1.7-.3,2.1,4Zm-82.3-.2-.7-.4,2.1-4,.7.4Zm84.4-.9-2.2-4,.6-.3,2.2,3.9Zm-86.5-.2-.6-.4,2.2-4,.7.4Zm88.5-.9-2.3-4,.6-.3,2.4,3.9Zm-90.5-.3-.7-.4,2.4-3.9.6.4Zm92.5-.9-2.4-3.9.6-.4,2.4,3.9Zm-94.5-.3-.6-.4,2.4-3.8.6.4Zm96.4-1-2.4-3.8.6-.4,2.5,3.8Zm-98.3-.2-.7-.5,2.5-3.8.7.5Zm100.3-1.1-2.6-3.7.6-.4,2.6,3.7Zm-102.3-.3-.6-.4,2.6-3.7.6.4Zm104.2-1-2.7-3.7.6-.4,2.7,3.6Zm-106.1-.3-.6-.5,2.7-3.6.6.4Zm107.9-1.1-2.7-3.6.5-.5,2.9,3.6Zm-109.7-.3-.6-.5,2.8-3.6.6.5Zm111.6-1.1-2.9-3.6.6-.4,2.9,3.5Zm-113.5-.4-.6-.5,3-3.5.5.5Zm115.3-1.1-3-3.5.6-.5,2.9,3.5Zm-117-.4-.6-.5,3-3.4.5.5Zm118.7-1.2-3-3.4.5-.5,3.1,3.4Zm-120.5-.3-.6-.5,3.1-3.4.6.5Zm122.2-1.3-3.1-3.3.5-.5,3.2,3.3Zm-123.9-.3-.5-.6,3.1-3.2.6.5ZM691,156l-3.2-3.2.5-.5,3.2,3.2Zm-127.2-.4-.6-.5,3.3-3.2.5.6Zm128.8-1.2-3.3-3.2.5-.5,3.4,3.1ZM562.1,154l-.5-.6,3.3-3.1.6.6Zm132.1-1.4-3.4-3,.5-.6,3.4,3.1Zm-133.6-.3-.5-.6,3.4-3,.5.5Zm135.1-1.4-3.4-3,.5-.5,3.4,2.9ZM559,150.5l-.5-.6L562,147l.5.6Zm138.2-1.4-3.5-2.9.5-.5,3.5,2.8Zm-139.6-.4-.5-.6,3.5-2.8.5.6Zm141.1-1.4-3.6-2.8.4-.6,3.7,2.8Zm-142.6-.4-.5-.6,3.7-2.8.4.6Zm144-1.5-3.7-2.7.4-.6,3.7,2.7ZM554.7,145l-.4-.6,3.7-2.7.4.6Zm146.7-1.5-3.7-2.6.4-.6,3.8,2.6Zm-148-.4-.4-.6,3.7-2.6.4.6Zm149.3-1.5-3.8-2.5.4-.6,3.9,2.4Zm-150.6-.4-.4-.7,3.8-2.4.4.6ZM704,139.6l-3.9-2.4.4-.6,3.9,2.3Zm-153.1-.4-.4-.7,3.9-2.3.3.6Zm154.3-1.6-3.9-2.3.3-.6,4,2.2Zm-155.5-.4-.4-.7,4-2.2.3.6Zm156.6-1.6-3.9-2.2.3-.7,4,2.2Zm-157.8-.4-.3-.7,4-2.1.3.6Zm158.9-1.7-4-2.1.3-.6,4.1,2Zm-159.9-.4-.4-.7,4.1-2,.3.6Zm161-1.7-4.1-2,.3-.6,4.1,1.9ZM546.4,131l-.3-.7,4.1-1.9.3.7Zm163.1-1.7-4.2-1.9.3-.6,4.2,1.8Zm-164-.4-.4-.7,4.2-1.8.3.7Zm164.9-1.7-4.2-1.8.3-.7,4.2,1.7Zm-165.9-.4-.2-.7,4.2-1.7.2.6ZM711.3,125l-4.3-1.7.3-.7,4.3,1.7Zm-167.6-.4-.3-.7,4.3-1.6.2.7Zm168.4-1.8-4.3-1.5.3-.7,4.3,1.5Zm-169.2-.4-.3-.7,4.3-1.5.3.7Zm170-1.8-4.4-1.4.3-.7,4.3,1.3Zm-170.8-.4-.2-.7,4.3-1.4.3.7Zm171.5-1.8-4.4-1.4.2-.7,4.4,1.3ZM541.4,118l-.2-.7,4.4-1.3.2.7Zm172.8-1.9-4.4-1.2.2-.7,4.4,1.2Zm-173.4-.3-.2-.8,4.4-1.1.2.7Zm174-1.9-4.4-1.1v-.7l4.5,1Zm-174.6-.4-.2-.8,4.5-1,.2.7Zm175.1-1.9-4.4-1v-.7l4.5.9Zm-175.6-.4v-.7l4.4-1,.2.8Zm176.1-1.9-4.5-.8.2-.8,4.4.8Zm-176.5-.4-.2-.7,4.5-.8v.7ZM716.2,107l-4.5-.7v-.8l4.5.7Zm-177.3-.4-.2-.7,4.5-.7.2.7Zm177.6-1.9-4.5-.6v-.8l4.5.6Zm-178-.4v-.7l4.5-.6v.7Zm178.3-1.9-4.5-.5v-.7l4.5.4ZM538.3,102v-.8l4.5-.4v.7ZM717,100.1l-4.5-.4v-.8l4.5.4Zm-179-.4v-.8l4.5-.3v.7Zm179.2-2-4.5-.2v-.8l4.6.3Zm-179.3-.3v-.8l4.6-.2v.7Zm179.4-2h-4.5v-.8h4.5ZM537.8,95v-.7h4.5v.7Zm179.6-1.9h-4.6v-.7h4.6Zm-175.1-.4h-4.6v-1h4.6Zm170.5-1.9v-.7h4.5v.8Zm-170.5-.6h-4.5v-.8l4.5.2Zm170.4-1.6v-.7l4.5-.2v.7ZM542.4,88l-4.5-.2V87l4.6.3Zm170.2-1.6v-.7l4.5-.4v.8Zm-170-.6-4.6-.3v-.8l4.5.4Zm169.8-1.6v-.7l4.6-.5v.8Zm-169.7-.6-4.5-.5v-.7l4.5.5ZM712.2,82v-.7l4.5-.6v.8ZM543,81.4l-4.5-.6v-.7l4.5.6Zm168.9-1.6v-.7l4.5-.7v.8Zm-168.6-.6-4.5-.7v-.7l4.5.7Zm168.2-1.6v-.7l4.5-.8v.8ZM543.7,77l-4.5-.8.2-.7,4.4.8Zm167.4-1.5v-.8l4.4-.9.2.8Zm-167-.6-4.4-1v-.7l4.5.9Zm166.6-1.6-.2-.7,4.4-1.1.2.8Zm-166.1-.6-4.4-1v-.8l4.5,1.1Zm165.5-1.5-.2-.8,4.4-1.1.2.7Zm-165-.6-4.4-1.2.2-.8,4.4,1.2ZM709.6,69l-.2-.7,4.3-1.3.2.8Zm-163.9-.6-4.3-1.3.2-.7,4.3,1.3Zm163.2-1.5-.2-.7,4.3-1.4.3.7Zm-162.5-.6L542,64.9l.3-.7,4.3,1.4Zm161.8-1.5-.2-.7,4.3-1.5.2.7Zm-161.1-.6-4.3-1.5.3-.7,4.2,1.5Zm160.4-1.5-.3-.7,4.3-1.6.3.7Zm-159.7-.6-4.2-1.6.3-.7,4.2,1.6Zm158.9-1.5-.3-.6,4.2-1.8.3.7Zm-158-.5-4.2-1.8.3-.7,4.2,1.8Zm157.1-1.5-.3-.7,4.2-1.8.3.7ZM549.5,58l-4.1-1.8.3-.7,4.1,1.8Zm155.4-1.4-.3-.7,4.1-1.9.4.7ZM550.5,56l-4.2-2,.4-.7,4.1,2ZM704,54.6l-.3-.6,4-2.1.4.7ZM551.4,54l-4-2.1.3-.6,4.1,2ZM703,52.7l-.4-.7,4-2.2.4.7ZM552.5,52l-4-2.1.3-.7,4,2.2Zm149.4-1.3-.3-.6,3.9-2.3.4.7Zm-148.4-.6-3.9-2.3.4-.6,3.9,2.3Zm147.3-1.3-.4-.6,3.9-2.4.4.7Zm-146.1-.6-3.9-2.4.4-.6,3.9,2.4Zm145-1.3-.4-.6,3.8-2.5.4.7Zm-143.9-.6L552,43.8l.4-.6,3.8,2.5Zm142.6-1.2-.4-.6,3.8-2.6.4.6Zm-141.3-.6-3.8-2.6.4-.6,3.8,2.6Zm140.1-1.3-.4-.5,3.7-2.7.4.6Zm-138.9-.5L554.6,40l.5-.6,3.7,2.7Zm137.6-1.2-.4-.6,3.6-2.8.4.6Zm-136.2-.6L556,38.1l.5-.6,3.6,2.8Zm134.9-1.2-.5-.6,3.5-2.8.5.6ZM561,39.1l-3.5-2.8.5-.6,3.5,2.9ZM693.2,38l-.5-.6,3.5-2.9.5.6Zm-130.8-.6L559,34.5l.5-.6,3.4,3Zm129.3-1.1-.5-.5,3.4-3.1.6.6Zm-127.8-.6-3.4-3,.5-.6,3.4,3.1Zm126.3-1-.4-.6,3.3-3.1.5.6Zm-124.8-.6L562.1,31l.5-.6,3.3,3.2Zm123.3-1-.5-.6,3.3-3.2.5.6Zm-121.8-.6-3.2-3.2.5-.5,3.2,3.2Zm120.3-1-.6-.5,3.2-3.3.5.5ZM568.5,31l-3.2-3.3.6-.6,3.1,3.4Zm117.1-1-.6-.5,3.1-3.4.6.5Zm-115.5-.5L567,26.1l.6-.5,3,3.4Zm113.8-1-.5-.5,3-3.4.5.5ZM571.7,28l-2.9-3.5.6-.5,2.9,3.5Zm110.6-1-.6-.4,2.9-3.5.6.4Zm-108.9-.4L570.5,23l.7-.5,2.8,3.6Zm107.1-1-.5-.4,2.7-3.6.7.5Zm-105.3-.4-2.8-3.6.6-.5,2.7,3.6Zm103.6-.9-.6-.5,2.7-3.6.6.4Zm-101.9-.5-2.7-3.6.6-.5,2.7,3.7ZM677,23l-.6-.5,2.6-3.7.6.5Zm-98.3-.5-2.6-3.7.6-.4,2.6,3.7Zm96.5-.8-.6-.4,2.5-3.8.6.4Zm-94.7-.4L578,17.5l.7-.4,2.5,3.8Zm92.8-.8-.6-.4,2.4-3.9.7.5Zm-90.9-.4L580,16.3l.7-.5,2.3,3.9Zm89-.8-.6-.4,2.3-3.9.7.4ZM584.3,19,582,15l.6-.3,2.3,3.9Zm85.2-.8-.6-.4,2.2-3.9.7.3Zm-83.3-.3-2.2-4,.7-.4,2.1,4Zm81.4-.8-.7-.3,2.1-4,.7.3Zm-79.5-.3-2.1-4,.7-.4,2.1,4.1Zm77.5-.7-.7-.3,2-4.1.7.4Zm-75.5-.3-2-4.1.7-.3,2,4.1Zm73.5-.6-.7-.4,1.9-4.1.7.3Zm-71.5-.3-1.9-4.2.7-.3,1.9,4.2Zm69.5-.7-.7-.2,1.8-4.2.7.3ZM594.1,14l-1.8-4.2.8-.3,1.7,4.2Zm65.4-.6-.6-.3,1.6-4.2.8.3Zm-63.3-.3-1.7-4.2.7-.3,1.6,4.3Zm61.3-.5-.7-.3,1.5-4.2.8.2Zm-59.3-.2-1.5-4.3.7-.3,1.5,4.3Zm57.2-.6-.7-.2,1.4-4.3.8.2Zm-55.1-.2-1.4-4.3.7-.2,1.4,4.3Zm53-.5-.7-.2,1.3-4.3.7.2Zm-50.9-.2-1.3-4.3.7-.2,1.3,4.3Zm48.8-.4-.8-.2,1.3-4.4.7.2Zm-46.7-.2-1.2-4.4.8-.2,1.2,4.4ZM649,9.9l-.7-.2,1.1-4.4.8.2Zm-42.3-.1-1.1-4.5h.7l1.1,4.4Zm40.2-.4-.7-.2.9-4.4h.8Zm-38.1-.2-1-4.4.8-.2,1,4.5Zm35.9-.3H644l.9-4.5.7.2ZM611,8.8l-.9-4.5h.8l.8,4.5Zm31.5-.3h-.7l.8-4.5h.7Zm-29.3-.1-.8-4.5h.8l.7,4.5Zm27.2-.3h-.8l.7-4.5h.7Zm-25,0-.7-4.6h.8l.6,4.5Zm22.8-.3h-.8l.5-4.6h.8Zm-20.6,0L617,3.2h.8l.5,4.5ZM636,7.6h-.8l.4-4.5h.8Zm-16.2-.1L619.3,3h.8l.4,4.6Zm14-.1H633l.3-4.6h.8ZM622,7.4l-.3-4.6h.7l.3,4.5Zm9.5-.1h-.7l.2-4.5h.8Zm-7.3,0L624,2.7h.8V7.2Zm5.1-.1h-.7V2.6h.8Zm-2.9,0V2.6h.8V7.2Z" fill="#fff"/><path d="M564.7,53l5.7-7.4c2-2.6,4.5-2.4,5.9-1.3a3.5,3.5,0,0,1,1.2,4.3,3.6,3.6,0,0,1,4.8-.1c1.7,1.3,2.4,3.7.5,6.2L577,62.3Zm9.6-3.1a.9.9,0,0,0-.2-1.3.9.9,0,0,0-1.3.1l-2.2,2.9,1.5,1.2Zm4.8,3.5a1,1,0,0,0-.2-1.5,1,1,0,0,0-1.5.2l-2.3,3,1.7,1.2Z" fill="#fff"/><path d="M576.8,38.5l9.1-7.3,2.4,3-5.4,4.4L584,40l5.3-4.3,2.4,3L586.4,43l1.3,1.5,5.4-4.4,2.4,3-9,7.4Z" fill="#fff"/><path d="M604.6,36.4l-5.3,2.5.3,2.1L595,43.1l-1.4-16.3,5.3-2.5,11.7,11.5L606,38Zm-5.9-1.5,3.2-1.5L598,29.2Z" fill="#fff"/><path d="M616,30.1l-1.7.3.9,4.9-4.6.8-2.7-15.2,8-1.4a5.1,5.1,0,0,1,6.4,4.2,4.9,4.9,0,0,1-1.9,5.1l3.8,4.8-5.3,1Zm-.1-6.7-2.8.5.5,2.7,2.8-.5a1.5,1.5,0,0,0,1.3-1.6A1.6,1.6,0,0,0,615.9,23.4Z" fill="#fff"/><path d="M631.2,26c.7-4.7,4.9-7.3,9.5-6.5a7.4,7.4,0,0,1,6.3,5.6l-4.3,1.2a3.4,3.4,0,0,0-2.7-2.8,3.7,3.7,0,0,0-4.2,3.2,3.7,3.7,0,0,0,2.9,4.4,3.3,3.3,0,0,0,3.5-1.6l3.6,2.4a7.2,7.2,0,0,1-7.7,3.3C633.4,34.4,630.4,30.6,631.2,26Z" fill="#fff"/><path d="M652.1,22.4l4.3,2-3.8,8a2.5,2.5,0,0,0,1.3,3.6,2.4,2.4,0,0,0,3.5-1.3l3.8-8.1,4.3,2-3.8,8.2c-1.7,3.5-4.8,5.1-9.5,2.9s-5.5-5.7-3.9-9.1Z" fill="#fff"/><path d="M670.2,31.8l7.1,6c2.4,2.1,2.1,4.6,1,6a3.4,3.4,0,0,1-4.3.9,3.8,3.8,0,0,1-.2,4.8c-1.4,1.6-3.8,2.2-6.2.2l-7.4-6.2ZM669.1,46a1,1,0,0,0,1.5,0,1.1,1.1,0,0,0-.2-1.6L667.6,42l-1.4,1.6Zm3.7-4.5a.9.9,0,0,0,1.3-.2A.9.9,0,0,0,674,40l-2.7-2.3L670,39.1Z" fill="#fff"/><path d="M676.9,51.3a7.4,7.4,0,0,0,1.3,5.2c.5.7,1.2,1.2,1.7.8s.4-1-.3-2.4-2.9-5.8.2-8.1,5.4-1.2,7.8,2.3a10.1,10.1,0,0,1,2.1,6.5h-4.1a7.6,7.6,0,0,0-1.3-4.3c-.7-1-1.2-.9-1.5-.7s-.3,1,.5,2.5,2.7,5.7-.2,7.8-5.8,1.1-8.2-2.2-2.5-5.1-2.2-7.3Z" fill="#fff"/><path d="M567.1,127.9c6.9,2.5,7.6,2.7,8.4,2.1s.5-1.1,0-1.8a5,5,0,0,0-3.1-2l1-3.3a7.5,7.5,0,0,1,4.9,3.3c2,2.8,1.7,5.6-.5,7.1s-3.2,1.1-6.9-.7l2.6,3.9-2.8,1.9-6.1-8.8Z" fill="#fff"/><path d="M576.5,139.2a4.8,4.8,0,0,0,1.2,2.2,2.7,2.7,0,0,0,3.9.2h0a4.1,4.1,0,0,1-3.1-1.2,4.3,4.3,0,0,1-.3-6.3c2-2,4.9-1.7,7.1.5s2.4,6.4-.3,9.2-6.7,2.8-9.6,0a7.4,7.4,0,0,1-2.1-3.7Zm6.6-2.1c-.7-.7-1.5-.7-1.9-.3s-.2,1.6.4,2.2a2.8,2.8,0,0,0,1.7.9A1.9,1.9,0,0,0,583.1,137.1Z" fill="#fff"/><path d="M584.8,148.1l2.1-2.9-1.2-.9,1.7-2.5,1.3.9,1.5-2.1,2.9,2.1-1.5,2.1,1.5,1.1-1.8,2.5-1.5-1.2-1.6,2.2a.9.9,0,0,0,.1,1.2l.7.2-1,2.6a4,4,0,0,1-2.3-.9C584,151.2,583.6,149.7,584.8,148.1Z" fill="#fff"/><path d="M597.8,153.3c.5-.9.2-1.4-.6-1.8a2.1,2.1,0,0,0-1.7-.1l-2.6,5.2-3.2-1.6,6-11.6,3.2,1.6-2.2,4.2a4.1,4.1,0,0,1,3.5.3,2.8,2.8,0,0,1,1.5,4.1l-3.1,6-3.2-1.6Z" fill="#fff"/><path d="M609.9,150l5.7,1.1c4.1.8,6.6,3.7,5.8,7.8s-4.2,5.9-8.3,5.1l-5.7-1.2Zm3.9,10.6a3,3,0,0,0,3.7-2.5,2.9,2.9,0,0,0-2.5-3.6l-1.9-.4-1.2,6.1Z" fill="#fff"/><path d="M623.4,152.2h3.9l-.4,13.1h-4Z" fill="#fff"/><path d="M627.4,152.8l4.4-.6,3.8,8.4,1.8-9,4.5-.6-3.3,13.6-4.9.6Z" fill="#fff"/><path d="M641.8,150.6l3.8-1,3.5,12.6-3.8,1Z" fill="#fff"/><path d="M651.3,156.5a6.7,6.7,0,0,0,4.6-.2c.6-.3,1.2-.8,1-1.3s-.8-.4-2.1-.1-5.4,1.3-6.7-1.7,0-4.6,3.3-6a8.5,8.5,0,0,1,5.8-.6l-.8,3.4a7.1,7.1,0,0,0-3.9.3c-.9.4-.9.8-.8,1.1s.8.4,2.1.1,5.4-1.2,6.6,1.5-.2,5-3.4,6.4a8.2,8.2,0,0,1-6.4.6Z" fill="#fff"/><path d="M657.3,144.5l3.3-2.1,6.9,11.1-3.3,2.1Z" fill="#fff"/><path d="M666.7,137.5a6.7,6.7,0,0,1,9.8.4c2.7,3,2.1,7.1-.9,9.8s-7.2,2.6-9.9-.4A6.7,6.7,0,0,1,666.7,137.5Zm2.3,2.6a3.3,3.3,0,1,0,4.5.4A3.1,3.1,0,0,0,669,140.1Z" fill="#fff"/><path d="M679.6,132.9l5.7,4.2-2.3,3.2-10.6-7.7,2.4-3.3,8,.2-5.3-3.9,2.3-3.2,10.6,7.7-2.3,3.1Z" fill="#fff"/><polygon points="561.6 85.5 563.3 90.8 568.9 90.8 564.4 94.1 566.1 99.3 561.6 96.1 557.1 99.3 558.8 94.1 554.3 90.8 559.9 90.8 561.6 85.5" fill="#c2c6a7" fill-rule="evenodd"/><polygon points="693.5 85.5 695.2 90.8 700.8 90.8 696.3 94.1 698 99.3 693.5 96.1 689 99.3 690.7 94.1 686.3 90.8 691.8 90.8 693.5 85.5" fill="#c2c6a7" fill-rule="evenodd"/><path d="M628.4,89.2c-16.1,0-17.9,10.2-19.3,12.8-3.6,6.4-4.9,8.7-10.6,11.7-13.4,7.3-.3,19.3,4.5,19.3s12-4,25.4-4,20.7,4,25.4,4,17.9-12,4.5-19.3c-5.7-3-6.9-5.3-10.6-11.7-1.4-2.6-3.2-12.8-19.3-12.8Z" fill="#c2c6a7"/><ellipse cx="628.1" cy="72.5" rx="7.6" ry="11.9" fill="#c2c6a7"/><ellipse cx="610.6" cy="79.2" rx="7.6" ry="11.9" transform="translate(-1 149.8) rotate(-14)" fill="#c2c6a7"/><ellipse cx="596.7" cy="94" rx="7.6" ry="11.9" transform="translate(29.1 300.7) rotate(-29)" fill="#c2c6a7"/><path d="M628.2,39.1c4.3,7.4,5,13.2,5,20.9-1.3-1-2.4-2.3-5-2.3s-3.6,1.3-5,2.3c0-7.7.8-13.5,5-20.9" fill="#c2c6a7"/><path d="M609.3,46.5c0,9,1.3,13.5,5,20.9-1.3-1.1-2.5-2.3-5-2.3s-3.6,1.2-5,2.3c0-7.7.8-13.6,5-20.9" fill="#c2c6a7"/><path d="M593.8,62c0,9.1,1.3,13.6,5,20.9-1.4-1-2.5-2.3-5-2.3s-3.6,1.3-5,2.3c0-7.6.8-13.5,5-20.9" fill="#c2c6a7"/><ellipse cx="645.8" cy="79.2" rx="11.9" ry="7.6" transform="translate(413 686.8) rotate(-76)" fill="#c2c6a7"/><ellipse cx="659.8" cy="94" rx="11.9" ry="7.6" transform="translate(258.1 625.7) rotate(-61)" fill="#c2c6a7"/><path d="M647.1,46.5c0,9-1.3,13.5-4.9,20.9,1.3-1.1,2.4-2.3,4.9-2.3s3.7,1.2,5,2.3c0-7.7-.7-13.6-5-20.9" fill="#c2c6a7"/><path d="M663.3,62.4c0,9-1.3,13.5-5,20.9,1.4-1,2.5-2.3,5-2.3s3.7,1.3,5,2.3c0-7.7-.7-13.5-5-20.9" fill="#c2c6a7"/><path d="M627.6,175.6a83.2,83.2,0,1,1,83.1-83.2A83.3,83.3,0,0,1,627.6,175.6Zm0-164.8a81.7,81.7,0,1,0,81.6,81.6A81.7,81.7,0,0,0,627.6,10.8Z" fill="#c2c6a7"/><rect x="87.4" y="253.5" width="10" height="10" fill="#231f20"/><path d="M70.3,216.6a3.9,3.9,0,0,1,3.3,1.7l-1.4.8a2.6,2.6,0,0,0-1.9-1,2.4,2.4,0,0,0-2.5,2.6,2.5,2.5,0,0,0,2.5,2.7,2.6,2.6,0,0,0,1.7-.6v-1H69.9v-1.5h3.8v3.1a4.5,4.5,0,0,1-3.4,1.5,4.2,4.2,0,1,1,0-8.3Z" fill="#231f20"/><path d="M75,218.9h1.5v.8a2.6,2.6,0,0,1,1.9-.9v1.5H78a2,2,0,0,0-1.5.6v3.8H75Z" fill="#231f20"/><path d="M82,218.8a2.9,2.9,0,0,1,2.9,3.2v.3H80.6a1.5,1.5,0,0,0,1.6,1.4,2.8,2.8,0,0,0,1.6-.6l.6,1a3.4,3.4,0,0,1-2.3.8,2.9,2.9,0,0,1-3.1-3.1A2.9,2.9,0,0,1,82,218.8Zm-1.5,2.5h2.9A1.3,1.3,0,0,0,82,220,1.4,1.4,0,0,0,80.5,221.3Z" fill="#231f20"/><path d="M86.5,225.7a.8.8,0,0,0,.8-.4l.2-.5-2.4-5.9h1.7l1.5,4.1,1.5-4.1h1.6l-2.7,6.8a2,2,0,0,1-2.2,1.4h-.7l.2-1.4Z" fill="#231f20"/><path d="M92.3,222.9a3.3,3.3,0,0,0,2,.8c.6,0,1-.2,1-.6s-.5-.5-1.2-.7-2.3-.4-2.3-1.8.9-1.8,2.4-1.8a3.2,3.2,0,0,1,2.3.8l-.6,1a2.6,2.6,0,0,0-1.7-.6c-.6,0-.9.2-.9.5s.4.5,1.1.6,2.3.5,2.3,1.9-.9,1.9-2.5,1.9a4.3,4.3,0,0,1-2.6-.9Z" fill="#231f20"/><path d="M100.5,218.8a2.6,2.6,0,0,1,2.3,1l-1,1a1.4,1.4,0,0,0-1.2-.7,1.7,1.7,0,0,0,0,3.4,1.3,1.3,0,0,0,1.2-.6l1,.9a2.5,2.5,0,0,1-2.3,1.1,3.1,3.1,0,0,1,0-6.1Z" fill="#231f20"/><path d="M107.3,224.1a2.3,2.3,0,0,1-1.8.8,1.9,1.9,0,0,1-2-1.9,1.9,1.9,0,0,1,2-1.9,2.3,2.3,0,0,1,1.8.7V221c0-.6-.5-1-1.3-1a2.4,2.4,0,0,0-1.6.7l-.6-1a3.8,3.8,0,0,1,2.5-.9c1.3,0,2.5.5,2.5,2.2v3.7h-1.5Zm0-1.5a1.5,1.5,0,0,0-1.2-.5c-.6,0-1.1.3-1.1.9s.5.8,1.1.8a1.2,1.2,0,0,0,1.2-.5Z" fill="#231f20"/><path d="M110.4,216.7h1.5v8h-1.5Z" fill="#231f20"/><path d="M116,218.8a2.9,2.9,0,0,1,2.9,3.2v.3h-4.3a1.6,1.6,0,0,0,1.7,1.4,2.5,2.5,0,0,0,1.5-.6l.7,1a3.8,3.8,0,0,1-2.4.8,3.1,3.1,0,0,1-.1-6.1Zm-1.4,2.5h2.8A1.3,1.3,0,0,0,116,220,1.4,1.4,0,0,0,114.6,221.3Z" fill="#231f20"/><rect x="347.6" y="253.5" width="10" height="10" fill="#2d7150" stroke="#2d7150" stroke-miterlimit="10"/><polygon points="353 263.5 357.6 259 357.6 263.5 353 263.5" fill="#fff" stroke="#231f20" stroke-miterlimit="10" stroke-width="0.25"/><circle cx="356.2" cy="262.1" r="0.5" fill="#231f20"/><rect x="362.4" y="253.5" width="10" height="10" fill="#c4c6a7" stroke="#c4c6a7" stroke-miterlimit="10"/><polygon points="367.9 263.5 372.4 259 372.4 263.5 367.9 263.5" fill="#fff" stroke="#231f20" stroke-miterlimit="10" stroke-width="0.25"/><circle cx="371.1" cy="262.1" r="0.5" fill="#231f20"/><path d="M326,222.3a3.7,3.7,0,0,0,2.6,1.1c.9,0,1.4-.5,1.4-.9s-.7-.8-1.7-1-2.9-.7-2.9-2.5,1.1-2.4,3-2.4a4.5,4.5,0,0,1,3.1,1.1l-.9,1.3a3.5,3.5,0,0,0-2.3-.9c-.8,0-1.2.3-1.2.8s.7.7,1.6.9,3,.7,3,2.5-1,2.6-3.2,2.6a4.6,4.6,0,0,1-3.4-1.3Z" fill="#231f20"/><path d="M332.8,226.9v-8h1.5v.8a2.3,2.3,0,0,1,1.8-.9c1.5,0,2.6,1.1,2.6,3s-1.1,3.1-2.6,3.1a2.3,2.3,0,0,1-1.8-.9v2.9Zm2.8-6.8a1.9,1.9,0,0,0-1.3.7v2.1a2.2,2.2,0,0,0,1.3.6,1.7,1.7,0,0,0,0-3.4Z" fill="#231f20"/><path d="M339.5,221.8a2.9,2.9,0,0,1,3-3,3.1,3.1,0,1,1,0,6.1A2.9,2.9,0,0,1,339.5,221.8Zm4.5,0a1.5,1.5,0,0,0-1.5-1.7,1.7,1.7,0,0,0,0,3.4A1.5,1.5,0,0,0,344,221.8Z" fill="#231f20"/><path d="M347,223.3v-3h-.9v-1.4h.9v-1.5h1.6v1.5h1.1v1.4h-1.1v2.6c0,.3.1.6.5.6h.5l.3,1.1a1.7,1.7,0,0,1-1.2.4A1.5,1.5,0,0,1,347,223.3Z" fill="#231f20"/><path d="M353.5,220.7a4.1,4.1,0,0,1,4.2-4.1,3.8,3.8,0,0,1,3.4,2l-1.5.7a2,2,0,0,0-1.9-1.2,2.4,2.4,0,0,0-2.4,2.6,2.5,2.5,0,0,0,2.4,2.7,2,2,0,0,0,1.9-1.2l1.5.7a3.8,3.8,0,0,1-3.4,2A4.1,4.1,0,0,1,353.5,220.7Z" fill="#231f20"/><path d="M361.7,221.8a3.1,3.1,0,1,1,3.1,3.1A3,3,0,0,1,361.7,221.8Zm4.6,0a1.6,1.6,0,0,0-1.5-1.7,1.7,1.7,0,0,0,0,3.4A1.6,1.6,0,0,0,366.3,221.8Z" fill="#231f20"/><path d="M369,216.7h1.5v8H369Z" fill="#231f20"/><path d="M371.6,221.8a3.1,3.1,0,1,1,3.1,3.1A3,3,0,0,1,371.6,221.8Zm4.6,0a1.5,1.5,0,0,0-1.5-1.7,1.7,1.7,0,0,0,0,3.4A1.5,1.5,0,0,0,376.2,221.8Z" fill="#231f20"/><path d="M382.8,224a2.9,2.9,0,0,1-2,.9,1.7,1.7,0,0,1-1.9-1.8v-4.2h1.5v3.6c0,.8.4,1,1.1,1a1.6,1.6,0,0,0,1.3-.6v-4h1.5v5.8h-1.5Z" fill="#231f20"/><path d="M385.9,218.9h1.5v.8a2.4,2.4,0,0,1,1.8-.9v1.5h-.4a1.7,1.7,0,0,0-1.4.6v3.8h-1.5Z" fill="#231f20"/><path d="M390.3,222.9a3.3,3.3,0,0,0,2,.8c.7,0,1-.2,1-.6s-.5-.5-1.2-.7-2.2-.4-2.2-1.8.8-1.8,2.3-1.8a3.6,3.6,0,0,1,2.4.8l-.6,1a3,3,0,0,0-1.8-.6c-.5,0-.9.2-.9.5s.5.5,1.1.6,2.4.5,2.4,1.9-.9,1.9-2.5,1.9a4.3,4.3,0,0,1-2.6-.9Z" fill="#231f20"/><path d="M331.9,229.5h2.6a1.8,1.8,0,0,1,1.9,1.9,1.8,1.8,0,0,1-1.9,1.8h-1.7v2.3h-.9Zm2.4.8h-1.5v2.1h1.5a1,1,0,0,0,1.1-1A1,1,0,0,0,334.3,230.3Z" fill="#2d7150"/><path d="M339.8,235.1a2.4,2.4,0,0,1-1.4.5,1.4,1.4,0,1,1,0-2.8,1.8,1.8,0,0,1,1.4.6v-.8c0-.5-.5-.8-1.1-.8a2.1,2.1,0,0,0-1.3.5l-.3-.5a2.2,2.2,0,0,1,1.7-.7c1,0,1.8.4,1.8,1.5v2.9h-.8Zm0-1.3a1.6,1.6,0,0,0-1.1-.5.9.9,0,1,0,0,1.8,1.6,1.6,0,0,0,1.1-.5Z" fill="#2d7150"/><path d="M344.8,232.7c0-.7-.3-.9-.9-.9a1.6,1.6,0,0,0-1.2.6v3.1h-.8v-4.3h.8v.6a2,2,0,0,1,1.5-.7,1.2,1.2,0,0,1,1.4,1.4v3h-.8Z" fill="#2d7150"/><path d="M347.1,234.6v-2.7h-.7v-.7h.7V230h.8v1.2h.9v.7h-.9v2.5c0,.3.1.5.4.5l.5-.2.2.7-.9.2C347.4,235.6,347.1,235.3,347.1,234.6Z" fill="#2d7150"/><path d="M349.4,233.4a2.2,2.2,0,1,1,4.4,0,2.2,2.2,0,1,1-4.4,0Zm3.6,0a1.4,1.4,0,1,0-2.8,0,1.4,1.4,0,1,0,2.8,0Z" fill="#2d7150"/><path d="M357.8,232.7c0-.7-.4-.9-1-.9a1.7,1.7,0,0,0-1.2.6v3.1h-.8v-4.3h.8v.6a2,2,0,0,1,1.6-.7,1.3,1.3,0,0,1,1.4,1.4v3h-.8Z" fill="#2d7150"/><path d="M361.8,231.1a2.1,2.1,0,0,1,2.1,2.3v.2h-3.5a1.5,1.5,0,0,0,1.5,1.4,1.9,1.9,0,0,0,1.3-.5l.4.5a2.8,2.8,0,0,1-1.8.6,2.1,2.1,0,0,1-2.2-2.2A2.2,2.2,0,0,1,361.8,231.1Zm-1.4,1.9h2.7a1.3,1.3,0,0,0-1.3-1.3A1.4,1.4,0,0,0,360.4,233Z" fill="#2d7150"/><path d="M367.6,234.1a2.1,2.1,0,0,0,1.7.7,1.2,1.2,0,0,0,1.3-1.1c0-.8-.5-1.2-1.3-1.2a1.5,1.5,0,0,0-1.3.5l-.7-.2v-3.3h3.8v.8h-2.9v1.9a2,2,0,0,1,1.4-.5,1.8,1.8,0,0,1,1.9,1.9,1.9,1.9,0,0,1-2.2,2,2.7,2.7,0,0,1-2.2-.9Z" fill="#2d7150"/><path d="M373,234.1a1.9,1.9,0,0,0,1.6.7,1.2,1.2,0,0,0,1.3-1.1,1.1,1.1,0,0,0-1.2-1.2,1.7,1.7,0,0,0-1.4.5l-.6-.2v-3.3h3.8v.8h-2.9v1.9a1.7,1.7,0,0,1,1.3-.5,1.9,1.9,0,0,1,2,1.9,2,2,0,0,1-2.3,2,2.3,2.3,0,0,1-2.1-.9Z" fill="#2d7150"/><path d="M378.4,234.1a1.9,1.9,0,0,0,1.6.7,1.2,1.2,0,0,0,1.3-1.1c0-.8-.5-1.2-1.3-1.2a1.7,1.7,0,0,0-1.3.5l-.7-.2v-3.3h3.8v.8h-2.9v1.9a2,2,0,0,1,1.4-.5,1.8,1.8,0,0,1,1.9,1.9,1.9,1.9,0,0,1-2.2,2,2.7,2.7,0,0,1-2.2-.9Z" fill="#2d7150"/><path d="M383,232.5a3.1,3.1,0,0,1,3.1-3.1,2.8,2.8,0,0,1,2.4,1.3l-.8.4a1.9,1.9,0,0,0-1.6-.9,2.2,2.2,0,0,0-2.1,2.3,2.1,2.1,0,0,0,2.1,2.3,1.8,1.8,0,0,0,1.6-.8l.8.4a2.7,2.7,0,0,1-2.4,1.2A3,3,0,0,1,383,232.5Z" fill="#2d7150"/><path d="M329.3,240.3h2.6a1.8,1.8,0,0,1,1.9,1.9,1.8,1.8,0,0,1-1.9,1.8h-1.7v2.3h-.9Zm2.4.8h-1.5v2.1h1.5a1,1,0,0,0,1.1-1A1,1,0,0,0,331.7,241.1Z" fill="#c4c6a7"/><path d="M337.2,245.9a2.4,2.4,0,0,1-1.4.5,1.4,1.4,0,1,1,0-2.8,1.8,1.8,0,0,1,1.4.6v-.8c0-.5-.5-.8-1.1-.8a2.1,2.1,0,0,0-1.3.5l-.3-.5a2.3,2.3,0,0,1,1.8-.7c.9,0,1.7.4,1.7,1.5v2.9h-.8Zm0-1.3a1.6,1.6,0,0,0-1.1-.5.9.9,0,1,0,0,1.8,1.6,1.6,0,0,0,1.1-.5Z" fill="#c4c6a7"/><path d="M342.2,243.5c0-.7-.3-.9-.9-.9a1.6,1.6,0,0,0-1.2.6v3.1h-.8V242h.8v.6a2,2,0,0,1,1.5-.7,1.2,1.2,0,0,1,1.4,1.4v3h-.8Z" fill="#c4c6a7"/><path d="M344.5,245.4v-2.7h-.7V242h.7v-1.2h.8V242h.9v.7h-.9v2.5c0,.3.1.5.4.5l.5-.2.2.7-.9.2C344.8,246.4,344.5,246.1,344.5,245.4Z" fill="#c4c6a7"/><path d="M346.8,244.2a2.2,2.2,0,0,1,2.2-2.3,2.1,2.1,0,0,1,2.2,2.3,2.1,2.1,0,0,1-2.2,2.2A2.2,2.2,0,0,1,346.8,244.2Zm3.6,0a1.4,1.4,0,0,0-1.4-1.6c-.9,0-1.3.7-1.3,1.6s.4,1.5,1.3,1.5A1.4,1.4,0,0,0,350.4,244.2Z" fill="#c4c6a7"/><path d="M355.2,243.5c0-.7-.4-.9-1-.9a1.7,1.7,0,0,0-1.2.6v3.1h-.8V242h.8v.6a2,2,0,0,1,1.6-.7,1.3,1.3,0,0,1,1.4,1.4v3h-.8Z" fill="#c4c6a7"/><path d="M359.2,241.9a2.1,2.1,0,0,1,2.1,2.3v.2h-3.5a1.5,1.5,0,0,0,1.5,1.4,1.9,1.9,0,0,0,1.3-.5l.4.5a2.6,2.6,0,0,1-1.8.6,2.1,2.1,0,0,1-2.2-2.2A2.2,2.2,0,0,1,359.2,241.9Zm-1.4,1.9h2.7a1.3,1.3,0,0,0-1.3-1.3A1.4,1.4,0,0,0,357.8,243.8Z" fill="#c4c6a7"/><path d="M365,244.9a2.1,2.1,0,0,0,1.7.7,1.2,1.2,0,0,0,1.3-1.1c0-.8-.5-1.2-1.3-1.2a1.7,1.7,0,0,0-1.3.5l-.7-.2v-3.3h3.8v.8h-2.9V243a2,2,0,0,1,1.4-.5,1.8,1.8,0,0,1,1.9,1.9,1.9,1.9,0,0,1-2.2,2,2.7,2.7,0,0,1-2.2-.9Z" fill="#c4c6a7"/><path d="M371.1,243.2c-.6-.2-1.3-.6-1.3-1.4s1.1-1.6,2.2-1.6,2.1.5,2.1,1.6-.6,1.2-1.3,1.4,1.4.8,1.4,1.6-1,1.6-2.2,1.6-2.3-.5-2.3-1.6S370.4,243.5,371.1,243.2Zm.9.4c-.4.1-1.3.4-1.3,1.1s.6.9,1.3.9,1.3-.3,1.3-.9S372.3,243.7,372,243.6Zm0-2.6c-.7,0-1.2.4-1.2.9s.8.9,1.2,1,1.2-.3,1.2-1S372.7,241,372,241Z" fill="#c4c6a7"/><path d="M377.4,240.2c1.6,0,2.3,1.6,2.3,3.1s-.7,3.1-2.3,3.1-2.4-1.6-2.4-3.1S375.7,240.2,377.4,240.2Zm0,.8c-1.1,0-1.5,1.2-1.5,2.3s.4,2.3,1.5,2.3,1.4-1.1,1.4-2.3S378.4,241,377.4,241Z" fill="#c4c6a7"/><path d="M380.9,244.9a2.4,2.4,0,0,0,1.7.7c.8,0,1.3-.4,1.3-1s-.6-.9-1.4-.9h-.7v-.8h.7c.7,0,1.3-.3,1.3-.9s-.6-1-1.3-1a2.6,2.6,0,0,0-1.6.7l-.4-.5a2.4,2.4,0,0,1,2.1-1c1.2,0,2.1.6,2.1,1.6a1.4,1.4,0,0,1-1.3,1.4,1.6,1.6,0,0,1,1.4,1.5c0,1-.9,1.7-2.2,1.7a2.7,2.7,0,0,1-2.2-.9Z" fill="#c4c6a7"/><path d="M385.6,243.3a3.1,3.1,0,0,1,3.1-3.1,2.8,2.8,0,0,1,2.4,1.3l-.8.4a1.9,1.9,0,0,0-1.6-.9,2.2,2.2,0,0,0-2.1,2.3,2.1,2.1,0,0,0,2.1,2.3,1.8,1.8,0,0,0,1.6-.8l.8.4a2.7,2.7,0,0,1-2.4,1.2A3,3,0,0,1,385.6,243.3Z" fill="#c4c6a7"/><path d="M588.5,220.7a4,4,0,0,1,4.2-4.1,3.8,3.8,0,0,1,3.4,2l-1.5.7a2,2,0,0,0-1.9-1.2,2.5,2.5,0,0,0-2.5,2.6,2.6,2.6,0,0,0,2.5,2.7,2,2,0,0,0,1.9-1.2l1.5.7a3.8,3.8,0,0,1-3.4,2A4,4,0,0,1,588.5,220.7Z" fill="#231f20"/><path d="M604.1,219l-2.3,5.7h-.7l-2.3-5.7v5.7h-1.7v-8h2.4l1.9,5,2-5h2.4v8h-1.7Z" fill="#231f20"/><path d="M609.6,221.5l-3.1-4.8h1.9l2,3.2,2-3.2h1.9l-3,4.8v3.2h-1.7Z" fill="#231f20"/><path d="M617.4,221.5l-.6.8v2.4h-1.7v-8h1.7v3.6l2.8-3.6h2.1l-3.2,3.8,3.4,4.2h-2.1Z" fill="#231f20"/><path d="M625.4,220.7a4.1,4.1,0,0,1,4.2-4.1,3.7,3.7,0,0,1,3.4,2l-1.4.7a2.3,2.3,0,0,0-2-1.2,2.4,2.4,0,0,0-2.4,2.6,2.5,2.5,0,0,0,2.4,2.7,2.3,2.3,0,0,0,2-1.2l1.4.7a3.8,3.8,0,0,1-3.4,2A4.1,4.1,0,0,1,625.4,220.7Z" fill="#231f20"/><path d="M633.6,221.8a3.1,3.1,0,1,1,3.1,3.1A3,3,0,0,1,633.6,221.8Zm4.6,0a1.6,1.6,0,0,0-1.5-1.7,1.7,1.7,0,0,0,0,3.4A1.6,1.6,0,0,0,638.2,221.8Z" fill="#231f20"/><path d="M640.9,216.7h1.5v8h-1.5Z" fill="#231f20"/><path d="M643.6,221.8a2.9,2.9,0,0,1,3-3,3.1,3.1,0,1,1,0,6.1A2.9,2.9,0,0,1,643.6,221.8Zm4.5,0a1.5,1.5,0,0,0-1.5-1.7,1.7,1.7,0,0,0,0,3.4A1.5,1.5,0,0,0,648.1,221.8Z" fill="#231f20"/><path d="M654.7,224a2.9,2.9,0,0,1-2,.9,1.7,1.7,0,0,1-1.9-1.8v-4.2h1.5v3.6c0,.8.5,1,1.1,1a1.6,1.6,0,0,0,1.3-.6v-4h1.6v5.8h-1.6Z" fill="#231f20"/><path d="M657.8,218.9h1.5v.8a2.4,2.4,0,0,1,1.8-.9v1.5h-.4a1.7,1.7,0,0,0-1.4.6v3.8h-1.5Z" fill="#231f20"/><path d="M662.2,222.9a3.6,3.6,0,0,0,2,.8c.7,0,1-.2,1-.6s-.5-.5-1.1-.7-2.3-.4-2.3-1.8.8-1.8,2.3-1.8a3.6,3.6,0,0,1,2.4.8l-.6,1a2.9,2.9,0,0,0-1.7-.6c-.6,0-1,.2-1,.5s.5.5,1.2.6,2.3.5,2.3,1.9-.9,1.9-2.5,1.9a4.3,4.3,0,0,1-2.6-.9Z" fill="#231f20"/><path d="M593.4,233.2h-1.1v2.3h-.9v-6h2.5a1.8,1.8,0,0,1,1.9,1.9,1.6,1.6,0,0,1-1.5,1.7l1.6,2.4h-1.1Zm.4-2.9h-1.5v2.1h1.5a1,1,0,0,0,1.1-1A1,1,0,0,0,593.8,230.3Z" fill="#231f20"/><path d="M596.4,233.4a2.1,2.1,0,0,1,2.2-2.3,2.2,2.2,0,0,1,2.2,2.3,2.2,2.2,0,0,1-2.2,2.2A2.1,2.1,0,0,1,596.4,233.4Zm3.5,0c0-.9-.4-1.6-1.3-1.6a1.4,1.4,0,0,0-1.4,1.6,1.4,1.4,0,0,0,1.4,1.5C599.5,234.9,599.9,234.2,599.9,233.4Z" fill="#231f20"/><path d="M604.7,234.9a1.8,1.8,0,0,1-1.5.7c-.9,0-1.4-.4-1.4-1.3v-3.1h.8V234a.8.8,0,0,0,.9.9,1.6,1.6,0,0,0,1.2-.6v-3.1h.8v4.3h-.8Z" fill="#231f20"/><path d="M609.8,232.7c0-.7-.4-.9-1-.9a1.7,1.7,0,0,0-1.2.6v3.1h-.8v-4.3h.8v.6a2,2,0,0,1,1.6-.7,1.3,1.3,0,0,1,1.4,1.4v3h-.8Z" fill="#231f20"/><path d="M615,234.9a2.1,2.1,0,0,1-1.5.7c-1.1,0-1.9-.8-1.9-2.2s.8-2.3,1.9-2.3a1.8,1.8,0,0,1,1.5.7v-2.3h.8v6H615Zm0-2.5a1.7,1.7,0,0,0-1.2-.6,1.4,1.4,0,0,0-1.4,1.6,1.3,1.3,0,0,0,1.4,1.5,1.7,1.7,0,0,0,1.2-.6Z" fill="#231f20"/><path d="M619.7,236.6a.5.5,0,0,0,.6-.4l.2-.6-1.7-4.4h.8l1.4,3.4,1.3-3.4h.9l-2.1,5.2a1.5,1.5,0,0,1-1.4.9h-.5v-.7Z" fill="#231f20"/><path d="M623.6,233.4a2.1,2.1,0,0,1,2.2-2.3,2.2,2.2,0,0,1,2.2,2.3,2.2,2.2,0,0,1-2.2,2.2A2.1,2.1,0,0,1,623.6,233.4Zm3.5,0c0-.9-.4-1.6-1.3-1.6a1.4,1.4,0,0,0-1.4,1.6,1.4,1.4,0,0,0,1.4,1.5C626.7,234.9,627.1,234.2,627.1,233.4Z" fill="#231f20"/><path d="M631.9,234.9a1.8,1.8,0,0,1-1.5.7c-.9,0-1.4-.4-1.4-1.3v-3.1h.8V234a.8.8,0,0,0,.9.9,1.6,1.6,0,0,0,1.2-.6v-3.1h.9v4.3h-.9Z" fill="#231f20"/><path d="M634,231.2h.9v.6a1.7,1.7,0,0,1,1.4-.7v.8H636a1.4,1.4,0,0,0-1.1.6v3H634Z" fill="#231f20"/><path d="M638.8,231.2h.8l1.4,3.4,1.3-3.4h.9l-1.8,4.3h-.8Z" fill="#231f20"/><path d="M646.6,235.1a2.5,2.5,0,0,1-1.5.5,1.4,1.4,0,1,1,0-2.8,2,2,0,0,1,1.5.6v-.8c0-.5-.5-.8-1.1-.8a2.1,2.1,0,0,0-1.3.5l-.4-.5a2.4,2.4,0,0,1,1.8-.7c1,0,1.8.4,1.8,1.5v2.9h-.8Zm0-1.3a1.7,1.7,0,0,0-1.2-.5.9.9,0,1,0,0,1.8,1.7,1.7,0,0,0,1.2-.5Z" fill="#231f20"/><path d="M648.7,229.5h.8v6h-.8Z" fill="#231f20"/><path d="M653.7,234.9a2,2,0,0,1-1.6.7c-.9,0-1.3-.4-1.3-1.3v-3.1h.8V234c0,.7.3.9.9.9a1.6,1.6,0,0,0,1.2-.6v-3.1h.8v4.3h-.8Z" fill="#231f20"/><path d="M657.7,231.1a2.1,2.1,0,0,1,2.1,2.3v.2h-3.4a1.4,1.4,0,0,0,1.5,1.4,1.8,1.8,0,0,0,1.2-.5l.4.5a2.4,2.4,0,0,1-1.7.6,2.3,2.3,0,0,1-.1-4.5Zm-1.3,1.9H659a1.3,1.3,0,0,0-1.3-1.3A1.3,1.3,0,0,0,656.4,233Z" fill="#231f20"/><path d="M660.8,234.4a2.3,2.3,0,0,0,1.5.6c.6,0,.9-.3.9-.6s-.5-.6-1-.7-1.6-.4-1.6-1.3.6-1.3,1.6-1.3a2.2,2.2,0,0,1,1.7.6l-.4.6a1.6,1.6,0,0,0-1.3-.6c-.5,0-.8.2-.8.6s.4.5,1,.6,1.6.4,1.6,1.4-.6,1.3-1.7,1.3a2.4,2.4,0,0,1-1.8-.6Z" fill="#231f20"/><path d="M591.5,245.4v-2.7h-.7V242h.7v-1.2h.9V242h.8v.7h-.8v2.5c0,.3.1.5.4.5l.4-.2.2.7-.8.2C591.9,246.4,591.5,246.1,591.5,245.4Z" fill="#231f20"/><path d="M593.9,244.2a2.1,2.1,0,0,1,2.2-2.3,2.2,2.2,0,0,1,2.2,2.3,2.2,2.2,0,0,1-2.2,2.2A2.1,2.1,0,0,1,593.9,244.2Zm3.5,0c0-.9-.5-1.6-1.3-1.6a1.4,1.4,0,0,0-1.4,1.6,1.4,1.4,0,0,0,1.4,1.5A1.4,1.4,0,0,0,597.4,244.2Z" fill="#231f20"/><path d="M604.3,243l-1.1,3.3h-.8L601,242h.9l1,3.3L604,242h.7l1,3.3,1-3.3h.9l-1.4,4.3h-.8Z" fill="#231f20"/><path d="M611.2,243.5c0-.7-.3-.9-.9-.9a1.6,1.6,0,0,0-1.2.6v3.1h-.8v-6h.8v2.3a2,2,0,0,1,1.6-.7c.9,0,1.3.4,1.3,1.4v3h-.8Z" fill="#231f20"/><path d="M613.1,244.2a2.1,2.1,0,0,1,2.2-2.3,2.2,2.2,0,0,1,2.2,2.3,2.2,2.2,0,0,1-2.2,2.2A2.1,2.1,0,0,1,613.1,244.2Zm3.5,0c0-.9-.5-1.6-1.3-1.6a1.4,1.4,0,0,0-1.4,1.6,1.4,1.4,0,0,0,1.4,1.5A1.4,1.4,0,0,0,616.6,244.2Z" fill="#231f20"/><path d="M618.5,240.3h.8v6h-.8Z" fill="#231f20"/><path d="M622.5,241.9a2.1,2.1,0,0,1,2.1,2.3v.2h-3.4a1.4,1.4,0,0,0,1.4,1.4,1.9,1.9,0,0,0,1.3-.5l.4.5a2.4,2.4,0,0,1-1.7.6,2.3,2.3,0,1,1-.1-4.5Zm-1.3,1.9h2.6a1.3,1.3,0,0,0-1.3-1.3A1.3,1.3,0,0,0,621.2,243.8Z" fill="#231f20"/><path d="M630.9,243.5a.8.8,0,0,0-.9-.9,1.6,1.6,0,0,0-1.2.6v3.1h-.9V242h.9v.6a1.7,1.7,0,0,1,1.5-.7,1.3,1.3,0,0,1,1.4,1.4v3h-.8Z" fill="#231f20"/><path d="M635.9,245.7a2,2,0,0,1-1.5.7c-1,0-1.4-.4-1.4-1.3V242h.8v2.8c0,.7.3.9.9.9a1.6,1.6,0,0,0,1.2-.6V242h.8v4.3h-.8Z" fill="#231f20"/><path d="M643.3,243.4c0-.5-.2-.8-.8-.8a1.3,1.3,0,0,0-1,.6v3.1h-.9v-2.9c0-.5-.2-.8-.7-.8a1.5,1.5,0,0,0-1.1.6v3.1H638V242h.8v.6a1.9,1.9,0,0,1,1.4-.7c.7,0,1.1.3,1.2.8a1.9,1.9,0,0,1,1.5-.8c.8,0,1.2.4,1.2,1.3v3.1h-.8Z" fill="#231f20"/><path d="M645.4,240.3h.8v2.3a1.6,1.6,0,0,1,1.4-.7,2,2,0,0,1,2,2.3,2,2,0,0,1-2,2.2,1.7,1.7,0,0,1-1.4-.7v.6h-.8Zm2,5.4a1.3,1.3,0,0,0,1.3-1.5c0-.9-.5-1.6-1.3-1.6a1.6,1.6,0,0,0-1.2.6v1.9A1.6,1.6,0,0,0,647.4,245.7Z" fill="#231f20"/><path d="M652.5,241.9a2.1,2.1,0,0,1,2.1,2.3v.2h-3.4a1.4,1.4,0,0,0,1.5,1.4,1.8,1.8,0,0,0,1.2-.5l.4.5a2.4,2.4,0,0,1-1.7.6,2.3,2.3,0,1,1-.1-4.5Zm-1.3,1.9h2.6a1.3,1.3,0,0,0-1.3-1.3A1.3,1.3,0,0,0,651.2,243.8Z" fill="#231f20"/><path d="M655.6,242h.8v.6a2.1,2.1,0,0,1,1.5-.7v.8h-.3a1.7,1.7,0,0,0-1.2.6v3h-.8Z" fill="#231f20"/><path d="M658.7,245.2a2.2,2.2,0,0,0,1.4.6c.7,0,1-.3,1-.6s-.5-.6-1.1-.7-1.6-.4-1.6-1.3.6-1.3,1.7-1.3a2,2,0,0,1,1.6.6l-.3.6a2,2,0,0,0-1.3-.6q-.9,0-.9.6c0,.4.5.5,1,.6s1.7.4,1.7,1.4-.7,1.3-1.8,1.3a2.6,2.6,0,0,1-1.8-.6Z" fill="#231f20"/><path d="M663.3,245.3a.6.6,0,0,1,.6.6.6.6,0,0,1-1.2,0A.6.6,0,0,1,663.3,245.3Z" fill="#231f20"/><rect x="615.4" y="253.5" width="10" height="10" fill="#2d7150" stroke="#2d7150" stroke-miterlimit="10"/><polygon points="620.9 263.5 625.4 259 625.4 263.5 620.9 263.5" fill="#fff" stroke="#231f20" stroke-miterlimit="10" stroke-width="0.25"/><rect x="630.3" y="253.5" width="10" height="10" fill="#c4c6a7" stroke="#c4c6a7" stroke-miterlimit="10"/><polygon points="635.8 263.5 640.3 259 640.3 263.5 635.8 263.5" fill="#fff" stroke="#231f20" stroke-miterlimit="10" stroke-width="0.25"/></g></g></svg>