<svg xmlns="http://www.w3.org/2000/svg" id="Layer_1" viewBox="0 0 670 170" width="670" height="170"><style>.st0,.st1{fill:#fff;stroke:#000;stroke-width:.5;stroke-miterlimit:10}.st1{fill:none;stroke:#231f20}.st2{enable-background:new}</style><path d="M0 0h670v170H0z" class="st0"/><path d="M71.5 13.8v68.7m-9-68.7v68.7m-9-68.7v68.7m-9-68.7v68.7m-9-68.7v68.7m-9-68.7v68.7m-9-68.7v68.7m223.6-68.7l59.5 34.4m-64-26.7L296.1 56m-64-26.7l59.5 34.5m-64-26.6l59.5 34.3m-64-26.5l59.5 34.3m-64-26.5l59.5 34.4m-64-26.7L273.6 95m176-81.2L390 48.2m64.1-26.7L394.5 56m64.1-26.7L399 63.8m64.1-26.6l-59.6 34.3M467.6 45L408 79.3m64.1-26.5l-59.6 34.4m64.1-26.7L417 95m219.2-75v68.8m-9-68.8v68.8m-9-68.8v68.8m-9-68.8v68.8m-9-68.8v68.8m-9-68.8v68.8m-9-68.8v68.8m10.7-75l59.6 34.4m-64.1-26.7L648 56m-64.1-26.7l59.6 34.5m-64.1-26.6L639 71.5M574.9 45l59.6 34.3m-64.1-26.5L630 87.2m-64.1-26.7L625.5 95m0-81.2l-59.6 34.4M630 21.5L570.4 56m64.1-26.7l-59.6 34.5M639 37.2l-59.6 34.3M643.5 45l-59.6 34.3M648 52.8l-59.6 34.4m64.1-26.7L592.9 95" class="st1"/><path d="M21.5 109.9c2.4 0 3.3 2.4 3.3 4.5s-.9 4.5-3.3 4.5-3.3-2.4-3.3-4.5.9-4.5 3.3-4.5zm0 1c-1.7 0-2.2 1.8-2.2 3.5s.6 3.5 2.2 3.5c1.7 0 2.2-1.8 2.2-3.5s-.6-3.5-2.2-3.5zm5 6.5c.4 0 .7.3.7.7s-.3.7-.7.7-.7-.3-.7-.7.4-.7.7-.7zm3.1-.6c.6.7 1.3 1.1 2.4 1.1 1.2 0 2-.8 2-1.9s-.8-1.9-2-1.9c-.8 0-1.4.2-2 .8l-.8-.3V110h5.3v1h-4.2v3c.4-.4 1.2-.8 2-.8 1.4 0 2.8 1 2.8 2.8s-1.3 2.9-3.1 2.9c-1.5 0-2.4-.5-3.1-1.4l.7-.7zm7.1 4.3v-8.7h1v.9c.5-.6 1.2-1.1 2.1-1.1 1.7 0 2.8 1.2 2.8 3.3 0 2-1.1 3.3-2.8 3.3-.9 0-1.6-.4-2.1-1.1v3.3l-1 .1zm2.8-8c-.8 0-1.5.5-1.9 1v2.8c.3.5 1.1 1 1.9 1 1.3 0 2-1 2-2.4.1-1.3-.7-2.4-2-2.4zm4.8 4.3v-4.1h-1v-.9h1v-1.7h1v1.7h1.3v.9h-1.3v3.9c0 .5.2.8.6.8.3 0 .5-.1.7-.3l.3.7c-.2.2-.6.4-1.2.4-.9.1-1.4-.5-1.4-1.4zm7-.2c.4.5 1.2.9 2.1.9 1 0 1.5-.4 1.5-1 0-.7-.8-.9-1.6-1.1-1.1-.2-2.3-.5-2.3-1.8 0-1 .8-1.8 2.3-1.8 1.1 0 1.8.4 2.3.9l-.5.7c-.4-.5-1.1-.8-1.9-.8-.9 0-1.4.4-1.4.9 0 .6.7.8 1.5 1 1.1.2 2.4.6 2.4 2 0 1.1-.8 1.9-2.5 1.9-1 0-1.9-.3-2.5-1l.6-.8zm6.3.2v-4.1h-1v-.9h1v-1.7h1v1.7h1.3v.9h-1.3v3.9c0 .5.2.8.6.8.3 0 .5-.1.7-.3l.3.7c-.2.2-.6.4-1.2.4-1 .1-1.4-.5-1.4-1.4zm3.6-5h1v1c.5-.7 1.2-1.1 2.1-1.1v1h-.4c-.6 0-1.4.5-1.7 1v4.4h-1v-6.3zm3.9 3.2c0-1.8 1.2-3.3 3.1-3.3s3.1 1.5 3.1 3.3-1.2 3.3-3.1 3.3-3.1-1.5-3.1-3.3zm5.2 0c0-1.3-.7-2.4-2.1-2.4-1.3 0-2.1 1.1-2.1 2.4s.8 2.4 2.1 2.4c1.4 0 2.1-1.2 2.1-2.4zm4.6.3l-1 1v1.8h-1V110h1v5.7l3.3-3.3h1.2l-2.8 2.8 2.8 3.4h-1.2l-2.3-2.7zm7.1-3.6c1.9 0 3 1.5 3 3.4v.2h-5c.1 1.2.9 2.2 2.3 2.2.7 0 1.4-.3 1.9-.8l.5.6c-.6.6-1.5 1-2.5 1-1.9 0-3.2-1.3-3.2-3.3-.1-1.9 1.2-3.3 3-3.3zm-2 2.9h4.1c0-.9-.6-2.1-2.1-2.1-1.3 0-2 1.1-2 2.1zm-61.5 10.4h5.7v1h-4.6v2.8h4.5v1h-4.5v3h4.6v1h-5.7v-8.8zm7.6 3.3h-1v-.9h1v-.5c0-1.3.7-2 1.8-2 .4 0 .7.1.9.2l-.2.7c-.2-.1-.3-.1-.6-.1-.6 0-1 .4-1 1.2v.5h1.3v.9H27v5.4h-1v-5.4h.1zm3.7 0h-1v-.9h1v-.5c0-1.3.7-2 1.8-2 .4 0 .7.1.9.2l-.2.7c-.2-.1-.3-.1-.6-.1-.6 0-1 .4-1 1.2v.5H32v.9h-1.3v5.4h-1v-5.4h.1zm6.2-1c1.9 0 3 1.5 3 3.4v.2h-5.1c.1 1.2.9 2.2 2.3 2.2.7 0 1.4-.3 1.9-.8l.5.6c-.6.6-1.5 1-2.5 1-1.9 0-3.2-1.3-3.2-3.3 0-1.9 1.3-3.3 3.1-3.3zm-2.1 2.9H38c0-.9-.6-2.1-2.1-2.1-1.3 0-2 1.1-2 2.1zm9.4-2.9c1.1 0 1.8.5 2.3 1.1l-.7.6c-.4-.6-.9-.8-1.6-.8-1.3 0-2.2 1-2.2 2.4s.8 2.4 2.2 2.4c.6 0 1.2-.3 1.6-.8l.7.6c-.5.6-1.2 1.1-2.3 1.1-1.9 0-3.1-1.4-3.1-3.3s1.2-3.3 3.1-3.3zm3.9 5.1v-4.1h-1v-.9h1v-1.7h1v1.7h1.3v.9h-1.3v3.9c0 .5.2.8.6.8.3 0 .5-.1.7-.3l.3.7c-.2.2-.6.4-1.2.4-1 .1-1.4-.5-1.4-1.4zm6.4-.7l4.9-2.4-4.9-2.4v-.8l5.7 2.8v.7l-5.7 2.8v-.7zm12.6-5.7h-2.7v-1H70v1h-2.8v7.7h-1.1l.1-7.7zm4.1 1.4h1v1c.5-.7 1.2-1.1 2.1-1.1v1H73c-.6 0-1.4.5-1.7 1v4.4h-1V128zm8.2 5.6c-.5.6-1.2.9-2.1.9-1.1 0-2.2-.7-2.2-2.1 0-1.4 1.1-2.1 2.2-2.1.9 0 1.6.3 2.1.9V130c0-.8-.7-1.3-1.6-1.3-.8 0-1.4.3-1.9.9l-.5-.7c.7-.7 1.5-1 2.5-1 1.3 0 2.4.6 2.4 2.1v4.3h-1l.1-.7zm0-1.8c-.4-.5-1-.8-1.7-.8-.9 0-1.5.6-1.5 1.4 0 .8.6 1.4 1.5 1.4.7 0 1.4-.3 1.7-.8v-1.2zm7.2-1.6c0-1.1-.6-1.5-1.4-1.5s-1.5.5-1.9 1v4.6h-1V128h1v.9c.4-.5 1.3-1.1 2.2-1.1 1.3 0 2 .7 2 2v4.4h-1v-4h.1zm2.9 2.6c.4.5 1.2.9 2.1.9 1 0 1.5-.4 1.5-1 0-.7-.8-.9-1.6-1.1-1.1-.2-2.3-.5-2.3-1.8 0-1 .8-1.8 2.3-1.8 1.1 0 1.8.4 2.3.9l-.5.7c-.4-.5-1.1-.8-1.9-.8-.9 0-1.4.4-1.4.9 0 .6.7.8 1.5 1 1.1.2 2.4.6 2.4 2 0 1.1-.8 1.9-2.5 1.9-1 0-1.9-.3-2.5-1l.6-.8zm6.3-3.9h-1v-.9h1v-.5c0-1.3.7-2 1.8-2 .4 0 .7.1.9.2l-.2.7c-.2-.1-.3-.1-.6-.1-.6 0-1 .4-1 1.2v.5h1.3v.9h-1.3v5.4h-1l.1-5.4zm3.1 2.3c0-1.8 1.2-3.3 3.1-3.3s3.1 1.5 3.1 3.3-1.2 3.3-3.1 3.3-3.1-1.5-3.1-3.3zm5.2 0c0-1.3-.7-2.4-2.1-2.4-1.3 0-2.1 1.1-2.1 2.4 0 1.3.8 2.4 2.1 2.4s2.1-1.2 2.1-2.4zm2.6-3.2h1v1c.5-.7 1.2-1.1 2.1-1.1v1h-.4c-.6 0-1.4.5-1.7 1v4.4h-1V128zm11.8 2c0-.8-.4-1.3-1.2-1.3-.7 0-1.3.5-1.7 1v4.6h-1V130c0-.8-.3-1.3-1.2-1.3-.6 0-1.3.5-1.7 1v4.6h-1V128h1v.9c.3-.4 1.1-1.1 2-1.1 1 0 1.5.5 1.7 1.2.4-.6 1.2-1.2 2.1-1.2 1.1 0 1.8.6 1.8 1.9v4.5h-1V130h.2zm-95.1 11.1c2.6 0 4.3 1.9 4.3 4.5s-1.7 4.5-4.3 4.5-4.3-1.9-4.3-4.5 1.7-4.5 4.3-4.5zm0 .9c-2 0-3.2 1.5-3.2 3.5s1.2 3.5 3.2 3.5c1.9 0 3.2-1.5 3.2-3.5s-1.3-3.5-3.2-3.5zm5.9-.8h1v3.3c.5-.7 1.3-1.1 2.1-1.1 1.6 0 2.8 1.3 2.8 3.3s-1.2 3.3-2.8 3.3c-.9 0-1.7-.5-2.1-1.1v.9h-1v-8.6zm2.9 8c1.3 0 2-1 2-2.4s-.8-2.4-2-2.4c-.8 0-1.5.5-1.9 1v2.8c.3.5 1.1 1 1.9 1zm5.6 1.3c0 1.2-.7 1.9-1.8 1.9-.3 0-.5 0-.7-.1l.1-.8c.1.1.3.1.5.1.6 0 1-.3 1-1.1v-6.9h1l-.1 6.9zm-1.2-8.5c0-.4.3-.7.6-.7.4 0 .7.3.7.7s-.3.7-.7.7c-.3-.1-.6-.4-.6-.7zm5.8 1.5c1.9 0 3 1.5 3 3.4v.2h-5.1c.1 1.2.9 2.2 2.3 2.2.7 0 1.4-.3 1.9-.8l.5.6c-.6.6-1.5 1-2.5 1-1.9 0-3.2-1.3-3.2-3.3.1-1.9 1.4-3.3 3.1-3.3zm-2 2.9h4.1c0-.9-.6-2.1-2.1-2.1-1.3 0-2 1.1-2 2.1zm9.4-2.9c1.1 0 1.8.5 2.3 1.1l-.7.6c-.4-.6-.9-.8-1.6-.8-1.3 0-2.2 1-2.2 2.4s.8 2.4 2.2 2.4c.6 0 1.2-.3 1.6-.8l.7.6c-.5.6-1.2 1.1-2.3 1.1-1.9 0-3.1-1.4-3.1-3.3s1.2-3.3 3.1-3.3zm3.9 5.1v-4.1h-1v-.9h1v-1.7h1v1.7H55v.9h-1.3v3.9c0 .5.2.8.6.8.3 0 .5-.1.7-.3l.3.7c-.2.2-.6.4-1.2.4-.9.1-1.3-.5-1.3-1.4zm6.4-.7l4.9-2.4-4.9-2.4v-.8l5.7 2.8v.7l-5.7 2.8v-.7zm10.4-6.7h5.7v1h-4.6v2.8h4.5v1h-4.5v3h4.6v1h-5.7v-8.8zm9.6 6.1l-1.9 2.6h-1.1l2.4-3.2-2.3-3.1h1.1l1.7 2.4 1.7-2.4H82l-2.3 3.1 2.4 3.2H81l-1.8-2.6zm4.1 5v-8.7h1v.9c.5-.6 1.2-1.1 2.1-1.1 1.7 0 2.8 1.2 2.8 3.3 0 2-1.1 3.3-2.8 3.3-.9 0-1.6-.4-2.1-1.1v3.3h-1v.1zm2.9-8c-.8 0-1.5.5-1.9 1v2.8c.3.5 1.1 1 1.9 1 1.3 0 2-1 2-2.4 0-1.3-.8-2.4-2-2.4zm8.5 4.9c-.5.6-1.2.9-2.1.9-1.1 0-2.2-.7-2.2-2.1 0-1.4 1.1-2.1 2.2-2.1.9 0 1.6.3 2.1.9v-1.1c0-.8-.7-1.3-1.6-1.3-.8 0-1.4.3-1.9.9l-.5-.7c.7-.7 1.5-1 2.5-1 1.3 0 2.4.6 2.4 2.1v4.3h-1l.1-.8zm0-1.8c-.4-.5-1-.8-1.7-.8-.9 0-1.5.6-1.5 1.4 0 .8.6 1.4 1.5 1.4.7 0 1.4-.3 1.7-.8v-1.2zm7.2-1.6c0-1.1-.6-1.5-1.4-1.5s-1.5.5-1.9 1v4.6h-1v-6.3h1v.9c.4-.5 1.3-1.1 2.2-1.1 1.3 0 2 .7 2 2v4.4h-1v-4h.1zm7.4 3.2c-.5.6-1.2 1.1-2.1 1.1-1.6 0-2.8-1.2-2.8-3.3 0-2 1.1-3.3 2.8-3.3.8 0 1.6.4 2.1 1.1v-3.3h1v8.7h-1v-1zm0-3.6c-.4-.5-1.1-1-1.9-1-1.3 0-2 1-2 2.4s.8 2.4 2 2.4c.8 0 1.5-.4 1.9-1v-2.8zm11.8 2.6h-4.4l-.8 1.9h-1.2l3.5-8.7h1.3l3.5 8.7h-1.2l-.7-1.9zm-4.1-1h3.8l-1.9-4.8-1.9 4.8zm7.2 5.3v-8.7h1v.9c.5-.6 1.2-1.1 2.1-1.1 1.7 0 2.8 1.2 2.8 3.3 0 2-1.1 3.3-2.8 3.3-.9 0-1.6-.4-2.1-1.1v3.3h-1v.1zm2.8-8c-.8 0-1.5.5-1.9 1v2.8c.3.5 1.1 1 1.9 1 1.3 0 2-1 2-2.4 0-1.3-.7-2.4-2-2.4zm4.6 8v-8.7h1v.9c.5-.6 1.2-1.1 2.1-1.1 1.7 0 2.8 1.2 2.8 3.3 0 2-1.1 3.3-2.8 3.3-.9 0-1.6-.4-2.1-1.1v3.3h-1v.1zm2.9-8c-.8 0-1.5.5-1.9 1v2.8c.3.5 1.1 1 1.9 1 1.3 0 2-1 2-2.4 0-1.3-.8-2.4-2-2.4zm7.3-.8c1.9 0 3 1.5 3 3.4v.2h-5.1c.1 1.2.9 2.2 2.3 2.2.7 0 1.4-.3 1.9-.8l.5.6c-.6.6-1.5 1-2.5 1-1.9 0-3.2-1.3-3.2-3.3 0-1.9 1.3-3.3 3.1-3.3zm-2 2.9h4.1c0-.9-.6-2.1-2.1-2.1-1.3 0-2 1.1-2 2.1zm10.5 2.8c-.5.6-1.2.9-2.1.9-1.1 0-2.2-.7-2.2-2.1 0-1.4 1.1-2.1 2.2-2.1.9 0 1.6.3 2.1.9v-1.1c0-.8-.7-1.3-1.6-1.3-.8 0-1.4.3-1.9.9l-.5-.7c.7-.7 1.5-1 2.5-1 1.3 0 2.4.6 2.4 2.1v4.3h-1v-.8h.1zm0-1.8c-.4-.5-1-.8-1.7-.8-.9 0-1.5.6-1.5 1.4 0 .8.6 1.4 1.5 1.4.7 0 1.4-.3 1.7-.8v-1.2zm3-3.8h1v1c.5-.7 1.2-1.1 2.1-1.1v1h-.4c-.6 0-1.4.5-1.7 1v4.4h-1v-6.3zm8.2 5.6c-.5.6-1.2.9-2.1.9-1.1 0-2.2-.7-2.2-2.1 0-1.4 1.1-2.1 2.2-2.1.9 0 1.6.3 2.1.9v-1.1c0-.8-.7-1.3-1.6-1.3-.8 0-1.4.3-1.9.9l-.5-.7c.7-.7 1.5-1 2.5-1 1.3 0 2.4.6 2.4 2.1v4.3h-1v-.8h.1zm0-1.8c-.4-.5-1-.8-1.7-.8-.9 0-1.5.6-1.5 1.4 0 .8.6 1.4 1.5 1.4.7 0 1.4-.3 1.7-.8v-1.2zm7.1-1.6c0-1.1-.6-1.5-1.4-1.5-.8 0-1.5.5-1.9 1v4.6h-1v-6.3h1v.9c.4-.5 1.3-1.1 2.2-1.1 1.3 0 2 .7 2 2v4.4h-1l.1-4zm5.7-2.3c1.1 0 1.8.5 2.3 1.1l-.7.6c-.4-.6-.9-.8-1.6-.8-1.3 0-2.2 1-2.2 2.4s.8 2.4 2.2 2.4c.6 0 1.2-.3 1.6-.8l.7.6c-.5.6-1.2 1.1-2.3 1.1-1.9 0-3.1-1.4-3.1-3.3s1.3-3.3 3.1-3.3zm6.4 0c1.9 0 3 1.5 3 3.4v.2h-5.1c.1 1.2.9 2.2 2.3 2.2.7 0 1.4-.3 1.9-.8l.5.6c-.6.6-1.5 1-2.5 1-1.9 0-3.2-1.3-3.2-3.3 0-1.9 1.3-3.3 3.1-3.3zm-2 2.9h4.1c0-.9-.6-2.1-2.1-2.1-1.3 0-2 1.1-2 2.1zm51.7-31.1h-1.7v3.4h-1.1V110h3.5c1.6 0 2.7 1 2.7 2.6s-1.1 2.4-2.2 2.5l2.3 3.5h-1.3l-2.2-3.3zm.6-4.3h-2.3v3.3h2.3c1 0 1.7-.7 1.7-1.7 0-.9-.7-1.6-1.7-1.6zm3.7 4.6c0-1.8 1.2-3.3 3.1-3.3 1.9 0 3.1 1.5 3.1 3.3s-1.2 3.3-3.1 3.3c-1.9 0-3.1-1.5-3.1-3.3zm5.2 0c0-1.3-.7-2.4-2.1-2.4-1.3 0-2.1 1.1-2.1 2.4s.8 2.4 2.1 2.4c1.4 0 2.1-1.2 2.1-2.4zm2.8 1.8v-4.1h-1v-.9h1v-1.7h1v1.7h1.3v.9h-1.3v3.9c0 .5.2.8.6.8.3 0 .5-.1.7-.3l.3.7c-.2.2-.6.4-1.2.4-.9.1-1.4-.5-1.4-1.4zm7.6.6c-.5.6-1.2.9-2.1.9-1.1 0-2.2-.7-2.2-2.1s1.1-2.1 2.2-2.1c.9 0 1.6.3 2.1.9v-1.1c0-.8-.7-1.3-1.6-1.3-.8 0-1.4.3-1.9.9l-.5-.7c.7-.7 1.5-1 2.5-1 1.3 0 2.4.6 2.4 2.1v4.3h-1v-.8h.1zm0-1.8c-.4-.5-1-.8-1.7-.8-.9 0-1.5.6-1.5 1.4s.6 1.4 1.5 1.4c.7 0 1.4-.3 1.7-.8v-1.2zm3.1 1.2v-4.1h-1v-.9h1v-1.7h1v1.7h1.3v.9h-1.3v3.9c0 .5.2.8.6.8.3 0 .5-.1.7-.3l.3.7c-.2.2-.6.4-1.2.4-.9.1-1.4-.5-1.4-1.4zm6.3-5.1c1.9 0 3 1.5 3 3.4v.2h-5.1c.1 1.2.9 2.2 2.3 2.2.7 0 1.4-.3 1.9-.8l.5.6c-.6.6-1.5 1-2.5 1-1.9 0-3.2-1.3-3.2-3.3.1-1.9 1.4-3.3 3.1-3.3zm-2 2.9h4.1c0-.9-.6-2.1-2.1-2.1-1.3 0-2 1.1-2 2.1zm13.2-5.3c1.1 0 1.9.4 2.4 1l-.5.8c-.4-.5-.9-.9-1.9-.9-1.7 0-2.4 1.7-2.4 3.4v.3c.4-.6 1.3-1.4 2.5-1.4 1.6 0 2.8.9 2.8 2.8 0 1.5-1.1 2.8-3 2.8-2.4 0-3.3-2.1-3.3-4.5-.1-2.2 1-4.3 3.4-4.3zm-.2 4.3c-.9 0-1.7.5-2.2 1.3.1 1.1.7 2.4 2.2 2.4 1.3 0 2-1 2-1.8 0-1.3-.9-1.9-2-1.9zm7.7-4.3c2.4 0 3.3 2.4 3.3 4.5s-.9 4.5-3.3 4.5-3.3-2.4-3.3-4.5.9-4.5 3.3-4.5zm0 1c-1.7 0-2.2 1.8-2.2 3.5s.6 3.5 2.2 3.5c1.7 0 2.2-1.8 2.2-3.5s-.6-3.5-2.2-3.5zm6.6-.6c1.3 0 2.1 1 2.1 2.1 0 1.2-.8 2.1-2.1 2.1s-2.1-1-2.1-2.1c0-1.2.8-2.1 2.1-2.1zm0 .6c-.8 0-1.3.7-1.3 1.5 0 .9.5 1.5 1.3 1.5.9 0 1.4-.7 1.4-1.5-.1-.8-.6-1.5-1.4-1.5zm109.7 4.4H393v3.4h-1.1V110h3.5c1.6 0 2.7 1 2.7 2.6s-1.1 2.4-2.2 2.5l2.3 3.5h-1.3l-2.2-3.3zm.6-4.3H393v3.3h2.3c1 0 1.7-.7 1.7-1.7 0-.9-.7-1.6-1.7-1.6zm6.8 1.3c1.9 0 3 1.5 3 3.4v.2H400c.1 1.2.9 2.2 2.3 2.2.7 0 1.4-.3 1.9-.8l.5.6c-.6.6-1.5 1-2.5 1-1.9 0-3.2-1.3-3.2-3.3 0-1.9 1.3-3.3 3.1-3.3zm-2 2.9h4.1c0-.9-.6-2.1-2.1-2.1-1.3 0-2 1.1-2 2.1zm6.9-1.9h-1v-.9h1v-.5c0-1.3.7-2 1.8-2 .4 0 .7.1.9.2l-.2.7c-.1-.1-.3-.2-.6-.2-.6 0-1 .4-1 1.2v.5h1.3v.9h-1.3v5.4h-1v-5.3h.1zm3.4-3.3h1v8.7h-1V110zm5.7 2.3c1.9 0 3 1.5 3 3.4v.2H414c.1 1.2.9 2.2 2.3 2.2.7 0 1.4-.3 1.9-.8l.5.6c-.6.6-1.5 1-2.5 1-1.9 0-3.2-1.3-3.2-3.3 0-1.9 1.3-3.3 3.1-3.3zm-2.1 2.9h4.1c0-.9-.6-2.1-2.1-2.1-1.3 0-2 1.1-2 2.1zm9.4-2.9c1.1 0 1.8.5 2.3 1.1l-.7.6c-.4-.6-.9-.8-1.6-.8-1.3 0-2.2 1-2.2 2.4s.8 2.4 2.2 2.4c.7 0 1.2-.3 1.6-.8l.7.6c-.5.6-1.2 1.1-2.3 1.1-1.9 0-3.1-1.4-3.1-3.3s1.2-3.3 3.1-3.3zm3.9 5.1v-4.1h-1v-.9h1v-1.7h1v1.7h1.3v.9h-1.3v3.9c0 .5.2.8.6.8.3 0 .5-.1.7-.3l.3.7c-.2.2-.6.4-1.2.4-1 .1-1.4-.5-1.4-1.4zm6.1-7.4h1.2l2.9 7.5 2.9-7.5h1.2l-3.5 8.7h-1.2l-3.5-8.7zm11.4 2.3c1.9 0 3 1.5 3 3.4v.2h-5.1c.1 1.2.9 2.2 2.3 2.2.7 0 1.4-.3 1.9-.8l.5.6c-.6.6-1.5 1-2.5 1-1.9 0-3.2-1.3-3.2-3.3 0-1.9 1.3-3.3 3.1-3.3zm-2.1 2.9h4.1c0-.9-.6-2.1-2.1-2.1-1.3 0-2 1.1-2 2.1zm6.6-2.8h1v1c.5-.7 1.2-1.1 2.1-1.1v1h-.4c-.6 0-1.4.5-1.7 1v4.4h-1v-6.3zm4.5 5v-4.1h-1v-.9h1v-1.7h1v1.7h1.3v.9h-1.3v3.9c0 .5.2.8.6.8.3 0 .5-.1.7-.3l.3.7c-.2.2-.6.4-1.2.4-.9.1-1.4-.5-1.4-1.4zm3.5-6.6c0-.4.3-.7.6-.7.4 0 .7.3.7.7s-.3.7-.7.7c-.3-.1-.6-.4-.6-.7zm.2 1.6h1v6.3h-1v-6.3zm5.7-.1c1.1 0 1.8.5 2.3 1.1l-.7.6c-.4-.6-.9-.8-1.6-.8-1.3 0-2.2 1-2.2 2.4s.8 2.4 2.2 2.4c.6 0 1.2-.3 1.6-.8l.7.6c-.5.6-1.2 1.1-2.3 1.1-1.9 0-3.1-1.4-3.1-3.3-.1-1.9 1.2-3.3 3.1-3.3zm7.5 5.7c-.5.6-1.2.9-2.1.9-1.1 0-2.2-.7-2.2-2.1s1.1-2.1 2.2-2.1c.9 0 1.6.3 2.1.9v-1.1c0-.8-.7-1.3-1.6-1.3-.8 0-1.4.3-1.9.9l-.5-.7c.7-.7 1.5-1 2.5-1 1.3 0 2.4.6 2.4 2.1v4.3h-1v-.8h.1zm0-1.8c-.4-.5-1-.8-1.7-.8-.9 0-1.5.6-1.5 1.4s.6 1.4 1.5 1.4c.7 0 1.4-.3 1.7-.8v-1.2zm3-6.2h1v8.7h-1V110z"/><path d="M582.1 114.4c0-2.7 2-4.5 4.4-4.5 1.6 0 2.6.7 3.3 1.7l-.9.5c-.5-.7-1.4-1.3-2.4-1.3-1.9 0-3.3 1.5-3.3 3.5 0 2.1 1.4 3.5 3.3 3.5 1 0 1.9-.5 2.4-1.3l.9.5c-.7 1-1.8 1.7-3.3 1.7-2.5.2-4.4-1.7-4.4-4.3zm8.7 1.2c0-1.8 1.2-3.3 3.1-3.3s3.1 1.5 3.1 3.3c0 1.8-1.2 3.3-3.1 3.3s-3.1-1.5-3.1-3.3zm5.2 0c0-1.3-.7-2.4-2.1-2.4-1.3 0-2.1 1.1-2.1 2.4 0 1.3.8 2.4 2.1 2.4 1.4 0 2.1-1.2 2.1-2.4zm10.2-1.2c0-.8-.4-1.3-1.2-1.3-.7 0-1.3.5-1.7 1v4.6h-1v-4.3c0-.8-.3-1.3-1.2-1.3-.6 0-1.3.5-1.7 1v4.6h-1v-6.3h1v.9c.3-.4 1.1-1.1 2-1.1 1 0 1.5.5 1.7 1.2.4-.6 1.2-1.2 2.1-1.2 1.1 0 1.8.6 1.8 1.9v4.5h-1v-4.2zm2.9 6.7v-8.7h1v.9c.5-.6 1.2-1.1 2.1-1.1 1.7 0 2.8 1.2 2.8 3.3 0 2-1.1 3.3-2.8 3.3-.9 0-1.6-.4-2.1-1.1v3.3h-1zm2.9-8c-.8 0-1.5.5-1.9 1v2.8c.3.5 1.1 1 1.9 1 1.3 0 2-1 2-2.4 0-1.3-.8-2.4-2-2.4zm4.6-3.1h1v8.7h-1V110zm5.6 2.3c1.9 0 3 1.5 3 3.4v.2h-5.1c.1 1.2.9 2.2 2.3 2.2.7 0 1.4-.3 1.9-.8l.5.6c-.6.6-1.5 1-2.5 1-1.9 0-3.2-1.3-3.2-3.3 0-1.9 1.3-3.3 3.1-3.3zm-2 2.9h4.1c0-.9-.6-2.1-2.1-2.1-1.3 0-2 1.1-2 2.1zm6.8 2.2v-4.1h-1v-.9h1v-1.7h1v1.7h1.3v.9H628v3.9c0 .5.2.8.6.8.3 0 .5-.1.7-.3l.3.7c-.2.2-.6.4-1.2.4-.9.1-1.4-.5-1.4-1.4zm6.4-5.1c1.9 0 3 1.5 3 3.4v.2h-5.1c.1 1.2.9 2.2 2.3 2.2.7 0 1.4-.3 1.9-.8l.5.6c-.6.6-1.5 1-2.5 1-1.9 0-3.2-1.3-3.2-3.3 0-1.9 1.3-3.3 3.1-3.3zm-2.1 2.9h4.1c0-.9-.6-2.1-2.1-2.1-1.3 0-1.9 1.1-2 2.1z" class="st2"/></svg>