<svg xmlns="http://www.w3.org/2000/svg" viewBox="0 0 481.96 106.12" width="481.96" height="106.12"><defs><style>.cls-1{fill:#79b6e4}.cls-2{fill:#427398}.cls-3{fill:url(#linear-gradient)}.cls-4{fill:#c7ddf3}.cls-5{fill:#94c2e8}.cls-6{fill:#7b9dbb}.cls-7{fill:url(#radial-gradient)}.cls-8{fill:none;stroke:#00bdf2;stroke-linecap:round;stroke-linejoin:round;stroke-width:.25px}</style><linearGradient id="linear-gradient" x1="143.29" x2="208.44" y1="57.3" y2="57.3" gradientUnits="userSpaceOnUse"><stop offset="0" stop-color="#79b6e4"/><stop offset="1" stop-color="#0072bc"/></linearGradient><radialGradient id="radial-gradient" cx="415.26" cy="52.37" r="52.75" gradientUnits="userSpaceOnUse"><stop offset="0" stop-color="#b2d2ee"/><stop offset="1" stop-color="#007bc1"/></radialGradient></defs><g id="_4_-_Other_Geometric_Shapes"><path d="M46.4 27.07L2.79 77.54l43.61 25.18V27.07z" class="cls-1"/><path d="M46.4 27.07l43.62 50.47-43.62 25.18V27.07z" class="cls-2"/><path d="M208.437 76.105v-.001h-.001L175.86 19.682l-32.575 56.423c0 4.813 3.18 9.626 9.54 13.298 12.723 7.344 33.348 7.344 46.07 0 6.36-3.673 9.54-8.485 9.54-13.298z" class="cls-3"/><path d="M343.98 39.33l-10.25 22.08-38.24 5.91-28-16.16 10.25-22.08 38.24-5.92 28 16.17z" class="cls-4"/><path d="M295.49 91.46l-28-16.16V51.16l28 16.16v24.14z" class="cls-5"/><path d="M333.73 85.55l-38.24 5.91V67.32l38.24-5.91v24.14z" class="cls-1"/><path d="M343.98 63.47l-10.25 22.08V61.41l10.25-22.08v24.14z" class="cls-6"/><circle cx="434.78" cy="64.9" r="32.74" class="cls-7"/><path d="M46.4 1.86l43.68 25.21M46.4 1.86L2.72 27.07m87.01.2L46.05 52.49M2.57 26.98L46.25 52.2m43.48 25.59l-43.68 25.22M2.57 77.5l43.68 25.22m43.83-75.65v50.44M46.4 52.29v50.43M2.72 27.07v50.44M175.94 1.86l43.67 25.21M175.94 1.86l-43.68 25.21m87 .2l-43.67 25.22m-43.48-25.51l43.68 25.22m43.47 25.59l-43.67 25.22M132.11 77.5l43.68 25.22m43.82-75.65v50.44m-43.67-25.22v50.43m-43.68-75.65v50.44M305.47 1.86l43.68 25.21M305.47 1.86L261.8 27.07m87 .2l-43.68 25.22m-43.47-25.51l43.67 25.22m43.48 25.59l-43.68 25.22M261.65 77.5l43.67 25.22m43.83-75.65v50.44m-43.68-25.22v50.43M261.8 27.07v50.44M435.01 1.86l43.68 25.21M435.01 1.86l-43.68 25.21m87.01.2l-43.68 25.22m-43.48-25.51l43.68 25.22m43.48 25.59l-43.68 25.22M391.18 77.5l43.68 25.22m43.83-75.65v50.44m-43.68-25.22v50.43m-43.68-75.65v50.44" class="cls-8"/></g></svg>