<svg xmlns="http://www.w3.org/2000/svg" viewBox="-183 309.8 655.2 151.2"><path fill="#FFF" stroke="#000" stroke-miterlimit="10" stroke-width=".5" d="M-183 309.8h655.2V461H-183z"/><path fill="#6D6E71" d="M287.2 322.8v-8.2c0-.2.1-.3.4-.3s.4.1.4.3v8.2c0 .1 0 .2-.1.2-.1.1-.2.1-.3.1s-.2 0-.3-.1l-.1-.2zm2.1-.6c0-.1 0-.2.1-.2.1-.1.1-.1.2-.1s.1 0 .3.1c.2.1.3.2.5.3s.5.1.8.1c.4 0 .7-.1.9-.2.2-.1.3-.4.3-.6 0-.3-.1-.5-.3-.7s-.5-.3-.7-.4-.6-.2-.9-.3c-.3-.1-.5-.2-.7-.5-.2-.3-.3-.5-.3-.9s.2-.8.5-1.1c.3-.3.8-.5 1.4-.5.4 0 .8.1 1.1.2.3.1.5.3.5.4s0 .2-.1.3c-.1.1-.1.1-.2.1l-.4-.2c-.3-.1-.5-.2-.8-.2-.4 0-.7.1-.9.3s-.3.4-.3.6c0 .2.1.4.3.6.2.1.5.3.7.3l.9.3c.3.1.5.3.7.5.2.3.3.6.3 1 0 .5-.2.9-.5 1.1s-.8.4-1.4.4c-.5 0-1-.1-1.3-.3-.5 0-.7-.1-.7-.4zm4.9-1.4v-1.3c0-.6.2-1.1.7-1.6s1-.7 1.6-.7 1.2.2 1.6.7.7 1 .7 1.6v1.3c0 .6-.2 1.1-.7 1.6s-1 .7-1.6.7-1.1-.2-1.6-.7-.7-.9-.7-1.6zm.8 0c0 .4.1.8.4 1.1.3.3.6.5 1 .5s.8-.2 1.1-.5c.3-.3.4-.7.4-1.1v-1.3c0-.4-.2-.7-.5-1s-.7-.5-1.1-.5c-.4 0-.8.2-1 .5-.3.3-.4.7-.4 1l.1 1.3zm5 2v-5.1c0-.1 0-.1.1-.2s.2-.1.3-.1.2 0 .3.1c.1.1.1.1.1.2v.6c.1-.3.4-.5.6-.7.3-.2.6-.3 1-.3s.7.1 1 .3c.3.2.5.5.7.9.2-.4.5-.7.8-.9.3-.2.7-.3 1-.3.5 0 1 .2 1.4.6s.6 1 .6 1.6v3.2c0 .1 0 .2-.1.2-.1.1-.2.1-.3.1s-.2 0-.3-.1-.1-.1-.1-.2v-3.2c0-.5-.1-.8-.4-1.1-.3-.3-.6-.4-1-.4s-.7.1-1 .4-.4.6-.4 1.1v3.2c0 .2-.1.3-.4.3-.3 0-.4-.1-.4-.3v-3.2c0-.4-.1-.8-.4-1.1-.3-.3-.6-.4-1-.4s-.7.1-1 .4-.4.6-.4 1.1v3.2c0 .1 0 .2-.1.2s-.2.1-.3.1-.2 0-.3-.1v-.1zm9.2-2v-1.3c0-.6.2-1.1.7-1.6.4-.4 1-.7 1.6-.7s1.1.2 1.6.6c.4.4.7.9.7 1.6 0 .2 0 .4-.1.5-.1.1-.1.2-.3.3-.1.1-.2.1-.3.1H310v.4c0 .5.2.9.5 1.1s.8.4 1.3.4c.3 0 .5 0 .7-.1s.4-.2.5-.2.2-.1.3-.1.2 0 .2.1c.1.1.1.2.1.2 0 .2-.2.3-.5.5s-.8.3-1.3.3c-.8 0-1.4-.2-1.9-.6-.6-.3-.7-.8-.7-1.5zm.8-1h2.4c.2 0 .4 0 .5-.1.1-.1.1-.2.1-.3 0-.4-.1-.7-.4-1-.3-.3-.6-.5-1.1-.5-.4 0-.8.1-1.1.4s-.4.6-.4 1v.5zm4.8 1.4V315c0-.1 0-.1.1-.2s.2-.1.3-.1.2 0 .3.1.1.1.1.2v2.4h1.5c.1 0 .1 0 .2.1s.1.1.1.2 0 .2-.1.2c-.1.1-.1.1-.2.1h-1.5v3.2c0 .4.1.7.2.8.1.1.5.2.9.2h.3c.1 0 .2 0 .3.1s.1.2.1.3c0 .1 0 .2-.1.3s-.2.1-.3.1h-.3c-1.2 0-1.9-.5-1.9-1.8zm3.7 1.6v-5.1c0-.1 0-.1.1-.2s.2-.1.3-.1.2 0 .3.1c.1.1.1.1.1.2v.6c.1-.3.4-.5.6-.7.3-.2.6-.3 1-.3h.4c.1 0 .2 0 .2.1.1.1.1.2.1.3 0 .1 0 .2-.1.3s-.1.1-.2.1h-.4c-.4 0-.8.2-1.1.5s-.5.7-.5 1.3v3c0 .1 0 .2-.1.2s-.2.1-.3.1-.2 0-.3-.1l-.1-.3zm3.8-7.3c-.1-.1-.2-.2-.2-.4s.1-.3.2-.3c.1-.1.2-.1.4-.1.1 0 .3 0 .4.1.1.1.2.2.2.3s0 .3-.2.4c-.1.1-.2.1-.4.1 0 0-.2 0-.4-.1zm0 7.3v-5.1c0-.1 0-.1.1-.2s.2-.1.3-.1.2 0 .3.1c.1.1.1.1.1.2v5.1c0 .1 0 .2-.1.2-.1.1-.2.1-.3.1s-.2 0-.3-.1c.1-.2-.1-.2-.1-.2zm2.2-2v-1.3c0-.7.2-1.2.6-1.6s1-.6 1.7-.6c.5 0 .9.1 1.2.3.3.2.5.3.5.5 0 .1 0 .2-.1.3s-.2.1-.2.1-.1 0-.2-.1-.2-.1-.4-.2-.4-.1-.7-.1c-.5 0-.9.1-1.2.4s-.4.6-.4 1.1v1.3c0 .5.1.9.4 1.1.3.3.7.4 1.2.4.3 0 .5 0 .7-.1s.3-.1.4-.2c.1-.1.2-.1.2-.1.1 0 .2 0 .3.1.1.1.1.2.1.3 0 .2-.2.4-.5.5s-.8.3-1.2.3c-.8 0-1.3-.2-1.7-.6-.5-.4-.7-1.1-.7-1.8zm7.7 2v-8.2c0-.2.1-.3.4-.3s.4.1.4.3v8.2c0 .1 0 .2-.1.2-.1.1-.2.1-.3.1s-.2 0-.3-.1c-.1 0-.1-.2-.1-.2zm2.5 0v-8.6c0-.1 0-.1.1-.2s.2-.1.3-.1.2 0 .3.1c.1.1.1.1.1.2v8.6c0 .1 0 .2-.1.2-.1.1-.2.1-.3.1s-.2 0-.3-.1l-.1-.2zm2.5 0v-8.6c0-.1 0-.1.1-.2s.2-.1.3-.1.2 0 .3.1c.1.1.1.1.1.2v8.6c0 .1 0 .2-.1.2-.1.1-.2.1-.3.1s-.2 0-.3-.1l-.1-.2zm2.3-2v-3.2c0-.1 0-.1.1-.2s.2-.1.3-.1.2 0 .3.1c.1.1.1.1.1.2v3.2c0 .4.1.8.4 1.1.3.3.6.5 1.1.5.4 0 .8-.2 1.1-.5.3-.3.4-.7.4-1.1v-3.2c0-.1 0-.1.1-.2s.2-.1.3-.1.2 0 .3.1c.1.1.1.1.1.2v3.2c0 .6-.2 1.1-.7 1.6s-1 .7-1.6.7-1.2-.2-1.6-.7c-.5-.4-.7-.9-.7-1.6zm5.7 1.4c0-.1 0-.2.1-.2s.1-.1.2-.1.1 0 .3.1c.2.1.3.2.5.3s.5.1.8.1c.4 0 .7-.1.9-.2.2-.1.3-.4.3-.6 0-.3-.1-.5-.3-.7s-.5-.3-.7-.4-.6-.2-.9-.3c-.3-.1-.5-.2-.7-.5-.2-.3-.3-.5-.3-.9s.2-.8.5-1.1c.3-.3.8-.5 1.4-.5.4 0 .8.1 1.1.2s.5.3.5.4 0 .2-.1.3c-.1.1-.1.1-.2.1l-.4-.2c-.3-.1-.5-.2-.8-.2-.4 0-.7.1-.9.3s-.3.4-.3.6c0 .2.1.4.3.6.2.1.5.3.7.3l.9.3c.3.1.5.3.7.5s.3.6.3 1c0 .5-.2.9-.5 1.1-.3.3-.8.4-1.4.4-.5 0-1-.1-1.3-.3-.7 0-.7-.1-.7-.4zm4.8-1V315c0-.1 0-.1.1-.2s.2-.1.3-.1.2 0 .3.1.1.1.1.2v2.4h1.5c.1 0 .1 0 .2.1s.1.1.1.2 0 .2-.1.2c-.1.1-.1.1-.2.1h-1.5v3.2c0 .4.1.7.2.8.1.1.5.2.9.2h.3c.1 0 .2 0 .3.1s.1.2.1.3c0 .1 0 .2-.1.3s-.2.1-.3.1h-.3c-1.1 0-1.9-.5-1.9-1.8zm3.7 1.6v-5.1c0-.1 0-.1.1-.2s.2-.1.3-.1.2 0 .3.1c.1.1.1.1.1.2v.6c.1-.3.4-.5.6-.7.3-.2.6-.3 1-.3h.4c.1 0 .2 0 .2.1.1.1.1.2.1.3 0 .1 0 .2-.1.3s-.1.1-.2.1h-.5c-.4 0-.8.2-1.1.5s-.5.7-.5 1.3v3c0 .1 0 .2-.1.2s-.2.1-.3.1-.2 0-.3-.1v-.3zm3.5-1.3c0-.6.2-1.1.7-1.3.5-.2 1.2-.4 2.1-.4h.6v-.3c0-.4-.1-.8-.3-1.1s-.6-.5-1.1-.5c-.3 0-.6.1-.9.2-.3.1-.4.2-.4.2-.1 0-.2 0-.2-.1-.1-.1-.1-.2-.1-.3 0-.2.2-.3.5-.4.3-.1.7-.2 1.1-.2.8 0 1.3.2 1.7.7.3.4.5 1 .5 1.7v3.1c0 .1 0 .2-.1.2s-.2.1-.3.1-.2 0-.3-.1c-.1-.1-.1-.1-.1-.2v-.5c-.5.6-1.1.9-1.8.9-.5 0-.9-.1-1.2-.4-.3-.3-.4-.8-.4-1.3zm.8 0c0 .3.1.6.3.8s.4.2.8.2.7-.1 1.1-.4c.3-.3.5-.6.5-.8v-.8h-1.3c-.2 0-.4.1-.7.1-.2.1-.4.2-.5.3-.2.1-.2.3-.2.6zm4.8-.3V315c0-.1 0-.1.1-.2s.2-.1.3-.1.2 0 .3.1.1.1.1.2v2.4h1.5c.1 0 .1 0 .2.1s.1.1.1.2 0 .2-.1.2c-.1.1-.1.1-.2.1h-1.5v3.2c0 .4.1.7.2.8.1.1.5.2.9.2h.3c.1 0 .2 0 .3.1s.1.2.1.3c0 .1 0 .2-.1.3s-.2.1-.3.1h-.3c-1.2 0-1.9-.5-1.9-1.8zm3.7-5.7c-.1-.1-.2-.2-.2-.4s.1-.3.2-.3c.1-.1.2-.1.4-.1.1 0 .3 0 .4.1.1.1.1.2.1.3s0 .3-.1.4c-.1.1-.2.1-.4.1s-.4 0-.4-.1zm0 7.3v-5.1c0-.1 0-.1.1-.2s.2-.1.3-.1.2 0 .3.1c.1.1.1.1.1.2v5.1c0 .1 0 .2-.1.2-.1.1-.2.1-.3.1s-.2 0-.3-.1l-.1-.2zm2-2v-1.3c0-.6.2-1.1.7-1.6.4-.4 1-.7 1.6-.7s1.2.2 1.6.7c.5.4.7 1 .7 1.6v1.3c0 .6-.2 1.1-.7 1.6s-1 .7-1.6.7-1.1-.2-1.6-.7-.7-.9-.7-1.6zm.7 0c0 .4.1.8.4 1.1.3.3.6.5 1 .5s.8-.2 1.1-.5c.3-.3.4-.7.4-1.1v-1.3c0-.4-.1-.7-.4-1-.3-.3-.7-.5-1.1-.5-.4 0-.8.2-1 .5-.3.3-.4.7-.4 1v1.3zm5.1 2v-5.1c0-.1 0-.2.1-.2.1-.1.2-.1.3-.1s.2 0 .3.1c.1.1.1.1.1.2v.6c.1-.3.3-.5.6-.7.3-.2.6-.3 1-.3.6 0 1.1.2 1.5.7.4.4.6 1 .6 1.6v3.2c0 .1 0 .2-.1.2-.1.1-.2.1-.3.1s-.2 0-.3-.1c-.1-.1-.1-.1-.1-.2v-3.2c0-.4-.1-.7-.4-1.1-.3-.3-.6-.5-1.1-.5-.4 0-.7.1-1 .4-.3.3-.4.6-.4 1.1v3.2c0 .1 0 .2-.1.2s-.2.1-.3.1-.2 0-.4-.2zm66.4 35.7v-5.4c0-.1.1-.2.3-.2.1 0 .3.1.4.4l2.2 4.3v-4.4c0-.1.1-.2.3-.2s.3.1.3.2v5.4c0 .1 0 .1-.1.2-.1 0-.1.1-.2.1s-.3-.1-.4-.3l-2.2-4.3v4.4c0 .1 0 .1-.1.2-.1 0-.1.1-.2.1s-.1 0-.2-.1c-.1-.3-.1-.4-.1-.4zm4.1-1.3v-.9c0-.4.1-.8.4-1.1.3-.3.7-.4 1.1-.4.4 0 .8.1 1.1.4s.5.6.5 1.1v.9c0 .4-.2.8-.5 1.1s-.7.5-1.1.5c-.4 0-.8-.2-1.1-.5s-.4-.7-.4-1.1zm.7 0c0 .3.1.5.3.7s.4.3.7.3.5-.1.7-.3c.2-.2.3-.4.3-.7v-.9c0-.3-.1-.5-.3-.7-.2-.2-.4-.3-.7-.3s-.5.1-.7.3c-.2.2-.3.4-.3.7v.9zm-5.3 5.4c0-.1 0-.1.1-.2.1 0 .1-.1.2-.1s.2 0 .2.1l1.5 4.9 1.5-4.9c0-.1.1-.1.2-.1s.1 0 .2.1.1.1.1.2l-1.7 5.4c0 .1-.1.2-.3.2s-.3-.1-.3-.2l-1.7-5.4c0 .2 0 .2 0 0zm4 4.8c0-.4.2-.7.5-.9.3-.2.8-.2 1.4-.2h.4v-.3c0-.3-.1-.5-.2-.7s-.4-.3-.7-.3c-.2 0-.4 0-.6.1-.2.1-.3.1-.3.1-.1 0-.1 0-.2-.1 0-.1-.1-.1-.1-.2s.1-.2.3-.3c.2-.1.5-.1.7-.1.5 0 .9.1 1.1.4.2.3.3.7.3 1.1v2.1c0 .1 0 .1-.1.1s-.1.1-.2.1-.1 0-.2-.1l-.1-.1v-.4c-.4.4-.8.6-1.2.6-.3 0-.6-.1-.8-.3v-.6zm.5-.2c0 .2.1.4.2.5s.3.2.5.2c.3 0 .5-.1.7-.3.2-.2.3-.4.3-.6v-.5h-.8c-.1 0-.3 0-.4.1-.1 0-.3.1-.3.2-.2.1-.2.3-.2.4zm3.3.9v-3.4c0-.1 0-.1.1-.1s.1-.1.2-.1.1 0 .2.1l.1.1v.4c.1-.2.2-.3.4-.4s.4-.2.7-.2c.4 0 .7.1 1 .4s.4.6.4 1.1v2.1c0 .1 0 .1-.1.2-.1 0-.1.1-.2.1s-.1 0-.2-.1c-.1 0-.1-.1-.1-.2V366c0-.3-.1-.5-.3-.7s-.4-.3-.7-.3-.5.1-.7.3c-.2.2-.3.4-.3.7v2.1c0 .1 0 .1-.1.1s-.1.1-.2.1-.1 0-.2-.1 0-.1 0-.1zm3.8-4.7c-.1-.1-.1-.1-.1-.2s0-.2.1-.2.2-.1.3-.1.2 0 .2.1c.1.1.1.1.1.2s0 .2-.1.2c-.1.1-.1.1-.2.1-.1-.1-.1-.1-.3-.1zm0 4.7v-3.4c0-.1 0-.1.1-.1 0 0 .1-.1.2-.1s.1 0 .2.1l.1.1v3.4c0 .1 0 .1-.1.1s-.1.1-.2.1-.1 0-.2-.1l-.1-.1zm1.4-.3c0-.1 0-.1.1-.2 0-.1.1-.1.1-.1s.1 0 .2.1.2.1.3.2.3.1.5.1c.3 0 .5-.1.6-.2s.2-.2.2-.4-.1-.3-.2-.5-.3-.2-.5-.3c-.2-.1-.4-.1-.6-.2-.2-.1-.4-.2-.5-.3-.1-.1-.2-.3-.2-.6s.1-.5.3-.8c.2-.2.5-.3.9-.3.3 0 .5 0 .7.1s.3.2.3.3c0 .1 0 .1-.1.2s-.1.1-.2.1c0 0-.1 0-.3-.1s-.4-.1-.6-.1c-.3 0-.5.1-.6.2s-.2.3-.2.4c0 .2.1.3.2.4.1.1.3.2.5.2.2.1.4.1.6.2s.4.2.5.3.2.4.2.7c0 .3-.1.6-.3.8-.2.2-.5.3-.9.3s-.6-.1-.9-.2c-.1-.1-.1-.2-.1-.3zm3.3.3v-5.7c0-.1 0-.1.1-.1s.1-.1.2-.1.1 0 .2.1c.1 0 .1.1.1.1v2.7c.1-.2.2-.3.4-.4s.4-.2.6-.2c.4 0 .7.1 1 .4s.4.6.4 1.1v2.1c0 .1 0 .1-.1.2-.1 0-.1.1-.2.1s-.1 0-.2-.1c-.1 0-.1-.1-.1-.2V366c0-.3-.1-.5-.3-.7s-.4-.3-.7-.3-.5.1-.7.3c-.2.2-.3.4-.3.7v2.1c0 .1 0 .1-.1.1s-.1.1-.2.1-.1 0-.2-.1.1-.1.1-.1zm4-4.7c-.1-.1-.1-.1-.1-.2s0-.2.1-.2.2-.1.3-.1.2 0 .2.1c.1.1.1.1.1.2s0 .2-.1.2c-.1.1-.1.1-.2.1-.1-.1-.3-.1-.3-.1zm0 4.7v-3.4c0-.1 0-.1.1-.1 0 0 .1-.1.2-.1s.1 0 .2.1c.1 0 .1.1.1.1v3.4c0 .1 0 .1-.1.1s-.1.1-.2.1-.1 0-.2-.1l-.1-.1zm1.5 0v-3.4c0-.1 0-.1.1-.1 0 0 .1-.1.2-.1s.1 0 .2.1l.1.1v.4c.1-.2.2-.3.4-.4s.4-.2.7-.2c.4 0 .7.1 1 .4s.4.6.4 1.1v2.1c0 .1 0 .1-.1.2-.1 0-.1.1-.2.1s-.1 0-.2-.1c-.1 0-.1-.1-.1-.2V366c0-.3-.1-.5-.3-.7s-.4-.3-.7-.3-.5.1-.7.3c-.2.2-.3.4-.3.7v2.1c0 .1 0 .1-.1.1s-.1.1-.2.1-.1 0-.2-.1v-.1zm3.7 1c0-.4.2-.7.7-.9-.3-.1-.4-.3-.4-.5s.1-.4.4-.6c-.3-.2-.4-.6-.4-1v-.3c0-.4.1-.7.4-1 .3-.2.6-.4 1-.4s.7.1.9.3c.1-.2.2-.3.3-.4s.2-.1.3-.1.1 0 .2.1l.1.1c0 .1 0 .2-.1.2-.2 0-.3.1-.4.3.1.2.2.4.2.8v.3c0 .4-.1.7-.4 1-.3.3-.6.4-1 .4-.2 0-.4 0-.6-.1-.2.1-.2.2-.2.3 0 .1.1.2.2.3.1.1.3.1.5.1s.4 0 .6.1c.2 0 .4.1.6.1.2.1.3.2.5.3.1.1.2.3.2.6 0 .4-.1.6-.4.8s-.7.3-1.1.3c-.5 0-.9-.1-1.2-.3-.8-.3-.9-.5-.9-.8zm.5-.1c0 .2.1.4.3.5s.5.2.8.2.6-.1.8-.2.3-.3.3-.5c0-.1 0-.2-.1-.3l-.2-.2c-.1 0-.2-.1-.3-.1s-.2-.1-.3-.1h-.6c-.6.1-.7.5-.7.7zm.1-3c0 .3.1.5.2.7.2.2.4.3.6.3.3 0 .5-.1.6-.3s.2-.4.2-.7v-.3c0-.3-.1-.5-.2-.7s-.4-.3-.6-.3-.5.1-.6.3c-.2.2-.2.4-.2.7v.3zm-25.6 11.8v-5.4c0-.1.1-.2.2-.2h1.5c.5 0 .9.1 1.2.4s.4.7.4 1.3v.1c0 .6-.2 1-.5 1.3s-.7.4-1.2.4h-1.2v2.2c0 .1 0 .1-.1.2-.1 0-.1.1-.2.1s-.1 0-.2-.1c.1-.2.1-.3.1-.3zm.5-2.8h1.2c.4 0 .6-.1.8-.3s.3-.5.3-.9v-.1c0-.8-.4-1.2-1.1-1.2h-1.2v2.5zm3.1 1.4v-.9c0-.4.1-.8.4-1.1.3-.3.7-.4 1.1-.4.4 0 .8.1 1.1.4s.5.6.5 1.1v.9c0 .4-.2.8-.5 1.1s-.7.5-1.1.5c-.4 0-.8-.2-1.1-.5-.2-.3-.4-.6-.4-1.1zm.5 0c0 .3.1.5.3.7s.4.3.7.3.5-.1.7-.3.3-.4.3-.7v-.9c0-.3-.1-.5-.3-.7s-.4-.3-.7-.3-.5.1-.7.3-.3.4-.3.7v.9zm3.4-3.5c-.1-.1-.1-.1-.1-.2s0-.2.1-.2.2-.1.3-.1.2 0 .2.1c.1.1.1.1.1.2s0 .2-.1.2c-.1.1-.1.1-.2.1 0 0-.2-.1-.3-.1zm0 4.9v-3.4c0-.1 0-.1.1-.1 0 0 .1-.1.2-.1s.1 0 .2.1l.1.1v3.4c0 .1 0 .1-.1.1s-.1.1-.2.1-.1 0-.2-.1l-.1-.1zm1.6 0v-3.4c0-.1 0-.1.1-.1s.1-.1.2-.1.1 0 .2.1l.1.1v.4c.1-.2.2-.3.4-.4s.4-.2.7-.2c.4 0 .7.1 1 .4s.4.6.4 1.1v2.1c0 .1 0 .1-.1.2-.1 0-.1.1-.2.1s-.1 0-.2-.1c-.1 0-.1-.1-.1-.2v-2.1c0-.3-.1-.5-.3-.7s-.4-.3-.7-.3-.5.1-.7.3c-.2.2-.3.4-.3.7v2.1c0 .1 0 .1-.1.1s-.1.1-.2.1-.1 0-.2-.1 0-.1 0-.1zm4-1v-4.2c0-.1 0-.1.1-.1s.1-.1.2-.1.1 0 .2.1c.1 0 .1.1.1.1v1.6h1c.1 0 .1 0 .1.1 0 0 .1.1.1.2s0 .1-.1.2l-.1.1h-1v2.2c0 .3.1.4.2.5s.3.2.6.2h.2c.1 0 .1 0 .2.1 0 0 .1.1.1.2s0 .1-.1.2c0 0-.1.1-.2.1h-.2c-1-.4-1.4-.8-1.4-1.5zm2 .6c0-.1 0-.1.1-.2 0-.1.1-.1.1-.1s.1 0 .2.1.2.1.3.2.3.1.5.1c.3 0 .5-.1.6-.2s.2-.2.2-.4-.1-.3-.2-.5c-.1-.1-.3-.2-.5-.3-.2-.1-.4-.1-.6-.2s-.4-.2-.5-.3c-.1-.1-.2-.3-.2-.6s.1-.5.3-.8c.2-.2.5-.3.9-.3.3 0 .5 0 .7.1s.3.2.3.3c0 .1 0 .1-.1.2 0 .1-.1.1-.2.1 0 0-.1 0-.3-.1s-.4-.1-.6-.1c-.3 0-.5.1-.6.2s-.2.3-.2.4c0 .2.1.3.2.4.1.1.3.2.5.2.2.1.4.1.6.2.2.1.4.2.5.3.1.2.2.4.2.7 0 .3-.1.6-.3.8-.2.2-.5.3-.9.3s-.6-.1-.9-.2c.1-.1-.1-.2-.1-.3zm-237.6-18.9v-5.4c0-.1.1-.2.3-.2.1 0 .3.1.4.4l2.2 4.3v-4.4c0-.1.1-.2.3-.2.2 0 .3.1.3.2v5.4c0 .1 0 .1-.1.2-.1 0-.1.1-.2.1s-.2-.1-.4-.3l-2.2-4.3v4.4c0 .1 0 .1-.1.2-.1 0-.1.1-.2.1s-.1 0-.2-.1c-.1-.3-.1-.4-.1-.4zm4.3-1.3v-.9c0-.4.1-.8.4-1.1s.7-.4 1.1-.4.8.1 1.1.4c.3.3.5.6.5 1.1v.9c0 .4-.2.8-.5 1.1s-.7.5-1.1.5-.8-.2-1.1-.5c-.3-.3-.4-.7-.4-1.1zm.5 0c0 .3.1.5.3.7s.4.3.7.3c.3 0 .5-.1.7-.3s.3-.4.3-.7v-.9c0-.3-.1-.5-.3-.7s-.4-.3-.7-.3-.5.1-.7.3c-.2.2-.3.4-.3.7v.9zm-26 5.4c0-.1 0-.1.1-.2.1 0 .1-.1.2-.1s.2 0 .2.1l1.5 4.9 1.5-4.9c0-.1.1-.1.2-.1s.1 0 .2.1.1.1.1.2l-1.7 5.4c0 .1-.1.2-.3.2-.2 0-.3-.1-.3-.2l-1.7-5.4c0 .2 0 .2 0 0zm4 4.8c0-.4.2-.7.5-.9.3-.2.8-.2 1.4-.2h.4v-.3c0-.3-.1-.5-.2-.7-.2-.2-.4-.3-.7-.3-.2 0-.4 0-.6.1s-.3.1-.3.1c-.1 0-.1 0-.2-.1 0-.1-.1-.1-.1-.2s.1-.2.3-.3c.2-.1.5-.1.7-.1.5 0 .9.1 1.1.4s.3.7.3 1.1v2.1c0 .1 0 .1-.1.1s-.1.1-.2.1-.1 0-.2-.1l-.1-.1v-.4c-.4.4-.8.6-1.2.6-.3 0-.6-.1-.8-.3.1-.1 0-.4 0-.6zm.5-.2c0 .2.1.4.2.5s.3.2.5.2.5-.1.7-.3c.2-.2.3-.4.3-.6v-.5h-.7c-.1 0-.3 0-.4.1-.1 0-.3.1-.3.2-.3.1-.3.3-.3.4zm3.3.9v-3.4c0-.1 0-.1.1-.1 0 0 .1-.1.2-.1s.1 0 .2.1l.1.1v.4c.1-.2.2-.3.4-.4.2-.1.4-.2.7-.2.4 0 .7.1 1 .4s.4.6.4 1.1v2.1c0 .1 0 .1-.1.2-.1 0-.1.1-.2.1s-.1 0-.2-.1c-.1 0-.1-.1-.1-.2V366c0-.3-.1-.5-.3-.7s-.4-.3-.7-.3c-.3 0-.5.1-.7.3-.2.2-.3.4-.3.7v2.1c0 .1 0 .1-.1.1s-.1.1-.2.1-.1 0-.2-.1c.1 0 0-.1 0-.1zm4-4.7c-.1-.1-.1-.1-.1-.2s0-.2.1-.2.2-.1.3-.1c.1 0 .2 0 .2.1.1.1.1.1.1.2s0 .2-.1.2c-.1.1-.1.1-.2.1-.1-.1-.2-.1-.3-.1zm0 4.7v-3.4c0-.1 0-.1.1-.1 0 0 .1-.1.2-.1s.1 0 .2.1c.1 0 .1.1.1.1v3.4c0 .1 0 .1-.1.1s-.1.1-.2.1-.1 0-.2-.1l-.1-.1zm1.2-.3c0-.1 0-.1.1-.2 0-.1.1-.1.1-.1s.1 0 .2.1.2.1.3.2.3.1.5.1c.3 0 .5-.1.6-.2s.2-.2.2-.4-.1-.3-.2-.5c-.1-.1-.3-.2-.5-.3-.2-.1-.4-.1-.6-.2s-.4-.2-.5-.3c-.1-.1-.2-.3-.2-.6s.1-.5.3-.8c.2-.2.5-.3.9-.3.3 0 .5 0 .7.1s.3.2.3.3c0 .1 0 .1-.1.2 0 .1-.1.1-.2.1 0 0-.1 0-.3-.1s-.4-.1-.6-.1c-.3 0-.5.1-.6.2s-.2.3-.2.4c0 .2.1.3.2.4s.3.2.5.2c.2.1.4.1.6.2s.4.2.5.3c.1.2.2.4.2.7 0 .3-.1.6-.3.8-.2.2-.5.3-.9.3s-.6-.1-.9-.2c0-.1-.1-.2-.1-.3zm3.4.3v-5.7c0-.1 0-.1.1-.1 0 0 .1-.1.2-.1s.1 0 .2.1l.1.1v2.7c.1-.2.2-.3.4-.4.2-.1.4-.2.6-.2.4 0 .7.1 1 .4s.4.6.4 1.1v2.1c0 .1 0 .1-.1.2-.1 0-.1.1-.2.1s-.1 0-.2-.1c-.1 0-.1-.1-.1-.2V366c0-.3-.1-.5-.3-.7s-.4-.3-.7-.3c-.2 0-.5.1-.7.3-.2.2-.3.4-.3.7v2.1c0 .1 0 .1-.1.1s-.1.1-.2.1-.1 0-.2-.1.1-.1.1-.1zm4-4.7c-.1-.1-.1-.1-.1-.2s0-.2.1-.2.2-.1.3-.1c.1 0 .2 0 .2.1.1.1.1.1.1.2s0 .2-.1.2c-.1.1-.1.1-.2.1-.2-.1-.3-.1-.3-.1zm0 4.7v-3.4c0-.1 0-.1.1-.1 0 0 .1-.1.2-.1s.1 0 .2.1l.1.1v3.4c0 .1 0 .1-.1.1s-.1.1-.2.1-.1 0-.2-.1l-.1-.1zm1.5 0v-3.4c0-.1 0-.1.1-.1s.1-.1.2-.1.1 0 .2.1l.1.1v.4c.1-.2.2-.3.4-.4.2-.1.4-.2.7-.2.4 0 .7.1 1 .4s.4.6.4 1.1v2.1c0 .1 0 .1-.1.2-.1 0-.1.1-.2.1s-.1 0-.2-.1c-.1 0-.1-.1-.1-.2V366c0-.3-.1-.5-.3-.7-.2-.2-.4-.3-.7-.3-.3 0-.5.1-.7.3-.2.2-.3.4-.3.7v2.1c0 .1 0 .1-.1.1s-.1.1-.2.1-.1 0-.2-.1 0-.1 0-.1zm3.6 1c0-.4.2-.7.7-.9-.3-.1-.4-.3-.4-.5s.1-.4.4-.6c-.3-.2-.4-.6-.4-1v-.3c0-.4.1-.7.4-1 .3-.2.6-.4 1-.4s.7.1.9.3c.1-.2.2-.3.3-.4.1-.1.2-.1.3-.1.1 0 .1 0 .2.1l.1.1c0 .1 0 .2-.1.2-.2 0-.3.1-.4.3.1.2.2.4.2.8v.3c0 .4-.1.7-.4 1s-.6.4-1 .4c-.2 0-.4 0-.6-.1-.2.1-.2.2-.2.3 0 .1.1.2.2.3s.3.1.5.1.4 0 .6.1.4.1.6.1c.2.1.3.2.5.3.1.1.2.3.2.6 0 .4-.1.6-.4.8s-.7.3-1.1.3c-.5 0-.9-.1-1.2-.3-.8-.3-.9-.5-.9-.8zm.5-.1c0 .2.1.4.3.5s.5.2.8.2.6-.1.8-.2.3-.3.3-.5c0-.1 0-.2-.1-.3l-.2-.2c-.1 0-.2-.1-.3-.1s-.2-.1-.3-.1h-.6c-.5.1-.7.5-.7.7zm.2-3c0 .3.1.5.2.7s.4.3.6.3c.3 0 .5-.1.6-.3.2-.2.2-.4.2-.7v-.3c0-.3-.1-.5-.2-.7-.2-.2-.4-.3-.6-.3s-.5.1-.6.3-.2.4-.2.7v.3zm-15.3 11.8v-5.4c0-.1.1-.2.2-.2h1.5c.5 0 .9.1 1.2.4s.4.7.4 1.3v.1c0 .6-.2 1-.5 1.3s-.7.4-1.2.4h-1.2v2.2c0 .1 0 .1-.1.2-.1 0-.1.1-.2.1s-.1 0-.2-.1c.1-.2.1-.3.1-.3zm.5-2.8h1.2c.4 0 .6-.1.8-.3s.3-.5.3-.9v-.1c0-.8-.4-1.2-1.1-1.2h-1.2v2.5zm3.1 1.4v-.9c0-.4.1-.8.4-1.1.3-.3.7-.4 1.1-.4s.8.1 1.1.4c.3.3.5.6.5 1.1v.9c0 .4-.2.8-.5 1.1s-.7.5-1.1.5-.8-.2-1.1-.5c-.1-.3-.4-.6-.4-1.1zm.6 0c0 .3.1.5.3.7s.4.3.7.3c.3 0 .5-.1.7-.3s.3-.4.3-.7v-.9c0-.3-.1-.5-.3-.7s-.4-.3-.7-.3-.5.1-.7.3-.3.4-.3.7v.9zm3.4-3.5c-.1-.1-.1-.1-.1-.2s0-.2.1-.2.2-.1.3-.1c.1 0 .2 0 .2.1.1.1.1.1.1.2s0 .2-.1.2c-.1.1-.1.1-.2.1s-.3-.1-.3-.1zm0 4.9v-3.4c0-.1 0-.1.1-.1 0 0 .1-.1.2-.1s.1 0 .2.1l.1.1v3.4c0 .1 0 .1-.1.1s-.1.1-.2.1-.1 0-.2-.1l-.1-.1zm1.5 0v-3.4c0-.1 0-.1.1-.1 0 0 .1-.1.2-.1s.1 0 .2.1l.1.1v.4c.1-.2.2-.3.4-.4.2-.1.4-.2.7-.2.4 0 .7.1 1 .4s.4.6.4 1.1v2.1c0 .1 0 .1-.1.2-.1 0-.1.1-.2.1s-.1 0-.2-.1c-.1 0-.1-.1-.1-.2v-2.1c0-.3-.1-.5-.3-.7s-.4-.3-.7-.3c-.3 0-.5.1-.7.3-.2.2-.3.4-.3.7v2.1c0 .1 0 .1-.1.1s-.1.1-.2.1-.1 0-.2-.1v-.1zm4-1v-4.2c0-.1 0-.1.1-.1s.1-.1.2-.1.1 0 .2.1c.1 0 .1.1.1.1v1.6h1c.1 0 .1 0 .1.1 0 0 .1.1.1.2s0 .1-.1.2l-.1.1h-1v2.2c0 .3.1.4.2.5s.3.2.6.2h.2c.1 0 .1 0 .2.1 0 0 .1.1.1.2s0 .1-.1.2c0 0-.1.1-.2.1h-.3c-.9-.4-1.3-.8-1.3-1.5zm2.1.6c0-.1 0-.1.1-.2 0-.1.1-.1.1-.1s.1 0 .2.1.2.1.3.2.3.1.5.1c.3 0 .5-.1.6-.2s.2-.2.2-.4-.1-.3-.2-.5c-.1-.1-.3-.2-.5-.3-.2-.1-.4-.1-.6-.2s-.4-.2-.5-.3c-.1-.1-.2-.3-.2-.6s.1-.5.3-.8c.2-.2.5-.3.9-.3.3 0 .5 0 .7.1s.3.2.3.3c0 .1 0 .1-.1.2 0 .1-.1.1-.2.1 0 0-.1 0-.3-.1s-.4-.1-.6-.1c-.3 0-.5.1-.6.2s-.2.3-.2.4c0 .2.1.3.2.4s.3.2.5.2c.2.1.4.1.6.2s.4.2.5.3c.1.2.2.4.2.7 0 .3-.1.6-.3.8-.2.2-.5.3-.9.3s-.6-.1-.9-.2c0-.1-.1-.2-.1-.3zM131 394.8c0-.2.1-.4.3-.5.2-.1.4-.2.7-.2.4 0 .6.1.7.4l4.8 16.1 4.8-16.1c.1-.3.3-.4.7-.4.2 0 .5.1.7.2s.3.3.3.5v.2l-5.4 17.7c-.1.4-.5.6-1 .6-.6 0-.9-.2-1-.6l-5.5-17.7c-.1-.1-.1-.1-.1-.2zm13.2 16.6c0-.2.1-.3.2-.5s.3-.3.4-.3.3.1.6.3c.3.2.6.4 1.1.6s1.1.3 1.8.3c.9 0 1.6-.2 2-.5s.7-.8.7-1.3c0-.6-.2-1.1-.7-1.5-.4-.4-1-.7-1.6-.8s-1.3-.4-1.9-.6-1.2-.5-1.6-1-.7-1.1-.7-1.9c0-1 .3-1.8 1-2.5s1.7-1.1 3.1-1.1c.9 0 1.7.1 2.4.4s1.1.6 1.1.9c0 .2-.1.4-.2.6s-.3.3-.5.3c-.1 0-.4-.1-1-.4s-1.2-.4-1.8-.4c-.9 0-1.5.2-2 .6-.4.4-.7.9-.7 1.4s.2.9.7 1.3c.5.3 1 .6 1.6.7s1.3.4 1.9.6 1.2.6 1.6 1.1c.4.6.7 1.3.7 2.2 0 1-.4 1.9-1.1 2.5s-1.8.9-3.1.9c-1.2 0-2.1-.2-2.9-.6s-1.1-.8-1.1-1.3zm10.3.6c0-.4.1-.7.3-.9s.5-.4.8-.4.6.1.8.4c.2.3.3.6.3.9s-.1.6-.3.9c-.2.3-.5.4-.8.4s-.6-.1-.8-.4-.3-.5-.3-.9z"/><path fill="#D7E6F6" d="M365 390.5l-32 18.4v37l32-18.5z"/><path fill="#FFF" d="M338.8 427.6v-8.2c0-.1 0-.2.1-.4l.3-.3 2-1.2c1.6-.9 2.5-.6 2.5 1.1 0 .7-.1 1.3-.4 1.9-.3.6-.6 1-1.1 1.4l1.5 2.4v.2c0 .2-.1.4-.2.6-.1.2-.3.4-.5.5s-.3.1-.4-.1l-1.6-2.6-1.1.6v3.4c0 .1-.1.3-.2.4-.1.1-.2.3-.4.3-.1.2-.3.2-.5 0 0 .3 0 .2 0 0zm1-5.1l1.3-.7c.9-.5 1.3-1.3 1.3-2.2s-.4-1.2-1.3-.7l-1.3.7v2.9zm4.7-5.7c0-.2.1-.4.2-.6.1-.2.3-.4.5-.5s.3-.1.5-.1c.1.1.2.2.2.4s-.1.4-.2.6c-.1.2-.3.4-.5.5s-.3.1-.5.1c-.2-.2-.2-.3-.2-.4zm0 7.4v-5c0-.1.1-.3.2-.4.1-.1.2-.3.4-.3.2-.1.3-.1.4-.1s.2.1.2.2v5c0 .1-.1.2-.2.4s-.2.3-.4.4-.3.1-.4.1c0-.1-.2-.1-.2-.3zm2 .6c0-.6.3-1.2.8-1.8-.3 0-.5-.2-.5-.5 0-.4.2-.8.5-1.2-.4-.1-.6-.5-.6-1.2v-.3c0-.6.2-1.2.5-1.8.4-.6.8-1.1 1.4-1.4.5-.3.9-.4 1.2-.3.2-.7.4-1.1.7-1.2.1-.1.2-.1.3 0 .1 0 .1.1.1.2s-.1.3-.2.4c-.2.2-.4.5-.5.8.2.2.3.5.3 1v.3c0 .6-.2 1.2-.6 1.8s-.9 1.1-1.5 1.4c-.3.2-.5.3-.7.3-.1.2-.2.3-.2.5s.1.2.3.2c.2-.1.5-.2.8-.3.3-.1.6-.3 1-.4.3-.1.6-.1.8 0s.3.4.3.8c0 .6-.2 1.2-.6 1.7s-1 1-1.6 1.4-1.2.5-1.6.5c-.2-.2-.4-.5-.4-.9zm1-.9c0 .3.1.5.3.5s.5 0 .9-.2c.3-.2.6-.5.8-.7.2-.3.3-.6.3-.9 0-.2-.1-.3-.1-.4-.1-.1-.2-.1-.4 0s-.4.1-.5.2-.3.1-.6.3c-.4.4-.7.8-.7 1.2zm.3-4.7c0 .4.1.6.2.7s.4.1.7 0c.3-.2.5-.4.7-.7.2-.3.2-.7.2-1v-.2c0-.3-.1-.6-.2-.7-.2-.1-.4-.1-.7 0-.3.2-.5.4-.7.7-.2.3-.2.7-.2 1v.2zm4 .9v-8.5c0-.1.1-.3.2-.4.1-.1.2-.3.4-.3.2-.1.3-.1.4-.1.1 0 .2.1.2.2v3.9c.1-.3.3-.7.5-1s.5-.6.8-.8c.5-.3.9-.3 1.3 0s.5.7.5 1.4v3.1c0 .1-.1.3-.2.4-.1.1-.2.3-.4.3-.1.1-.3.1-.4.1-.1 0-.2-.1-.2-.2v-3c0-.3-.1-.6-.3-.7s-.5-.1-.8 0c-.3.2-.5.4-.7.8s-.3.7-.3 1.1v3c0 .1-.1.2-.2.4s-.2.3-.4.4-.3.1-.4.1v-.2zm5.4-4.7v-6.2c0-.1.1-.2.2-.4.1-.1.2-.3.4-.3.1-.1.3-.1.4-.1.1 0 .2.1.2.2v2.3l1.3-.8c.1-.1.2 0 .2 0 .1.1.1.2.1.3 0 .1 0 .3-.1.4s-.1.2-.2.3l-1.3.8v3c0 .3.1.5.2.5s.3 0 .6-.2l.4-.2c.1-.1.3-.1.4 0 .1.1.1.2.1.3 0 .2 0 .3-.1.5s-.2.3-.4.4l-.4.2c-1.4.6-2 .4-2-1z"/><path fill="#78B6E4" d="M333 408.9l-32-18.4v36.9l32 18.5z"/><path fill="#FFF" d="M309.2 417.1v-8.2c0-.1.1-.2.2-.2s.2 0 .4.1.3.2.4.3c.1.1.2.3.2.4v7.4l2.8 1.6c.1.1.2.2.2.3.1.2.1.3.1.5s0 .3-.1.4-.1.1-.2 0l-3.4-2c-.1-.1-.3-.2-.4-.3-.1 0-.2-.2-.2-.3zm4.8.8v-1.2c0-.6.2-1.1.7-1.3s1-.2 1.6.2c.6.3 1.1.8 1.5 1.5s.6 1.3.6 2c0 .3 0 .4-.1.6 0 .1-.1.2-.2.2s-.2 0-.3-.1c-.1 0-.2-.1-.4-.2l-2.2-1.3v.3c0 .4.1.8.4 1.2.3.4.6.7 1 .9.3.2.6.2.8.2h.5c.1.1.2.2.3.4.1.2.1.3.1.5s-.2.3-.5.3-.8-.1-1.3-.4c-.7-.4-1.3-1-1.8-1.7-.5-.6-.7-1.4-.7-2.1zm1-.4l1.8 1c.2.1.3.1.3.1.1 0 .1-.1.1-.2 0-.3-.1-.7-.3-1s-.5-.6-.8-.8c-.3-.2-.6-.2-.8-.1s-.3.3-.3.6v.4zm4.2 5.4v-6.5c0-.7.2-1.1.6-1.3.4-.2.8-.2 1.3.1l.5.3c.1.1.2.2.3.4s.1.3.1.5c0 .1 0 .3-.1.3-.1.1-.2.1-.3 0l-.3-.2c-.3-.2-.5-.2-.7-.1s-.3.3-.3.6v1.2l1.4.8c.1.1.2.1.2.3s.1.3.1.4 0 .2-.1.3-.1.1-.2 0l-1.4-.8v4.5c0 .1-.1.2-.2.2s-.2 0-.4-.1-.3-.2-.4-.3c-.1-.4-.1-.5-.1-.6zm3.5.5v-6.2c0-.1.1-.2.2-.2s.2 0 .4.1c.1.1.3.2.4.3.1.2.2.3.2.4v2.3l1.3.8c.1.1.2.1.2.3s.1.3.1.4 0 .2-.1.3c-.1.1-.1.1-.2 0l-1.3-.8v3c0 .3.1.5.2.7.1.2.3.4.6.5l.4.2c.1.1.3.2.4.4.1.2.1.3.1.5s0 .3-.1.3c-.1.1-.2 0-.4 0l-.4-.2c-1.4-.9-2-1.9-2-3.1z"/><path fill="#D7E6F6" d="M365 390.5L333 372l-32 18.5 32 18.4z"/><path fill="#FFF" d="M329.7 383.9c.1-.1.3-.1.5-.2.2 0 .3 0 .4.1l4.4 2.6c.1.1.2.2.1.2 0 .1-.1.2-.3.3-.2.1-.3.1-.5.2-.2 0-.3 0-.4-.1l-1.6-.9-6.4 3.7c-.1.1-.3.1-.4.1-.2 0-.3-.1-.5-.2s-.3-.2-.3-.3c0-.1 0-.2.1-.3l6.4-3.7-1.7-1c-.1-.1-.2-.1-.1-.2s.1-.2.3-.3zm-.5 5.9l1-.6c.6-.3 1.3-.5 2.1-.5.9 0 1.6.2 2.2.5.6.3.9.8.9 1.3s-.2.9-.8 1.2l-1 .6c-.6.3-1.3.5-2.1.5-.9 0-1.6-.2-2.2-.5-.6-.3-.9-.8-.9-1.3-.2-.6.1-1 .8-1.2zm1 .6c-.3.2-.4.4-.5.6 0 .3.1.5.4.6.3.2.7.2 1.1.2.4 0 .8-.1 1.1-.3l1-.6c.3-.2.4-.4.4-.6 0-.3-.1-.5-.4-.6-.3-.2-.7-.3-1.1-.2-.4 0-.8.1-1.1.3l-.9.6zm.3 4.7l6.7-3.9c.1-.1.2-.1.4-.1s.3.1.5.2.2.2.3.3c0 .1 0 .2-.1.2l-.4.2c.4-.1.7-.1 1.2 0 .4.1.8.2 1.1.4.5.3.8.7.7 1.1s-.3.8-.9 1.2l-1 .6c-.6.3-1.2.5-2 .5s-1.5-.1-2-.4c-.3-.2-.5-.4-.6-.6s-.1-.5 0-.7l-2.8 1.6c-.1.1-.2.1-.4.1s-.4-.1-.5-.2c-.2-.1-.2-.2-.3-.3-.1.1-.1-.1.1-.2zm4.8-1.5c-.2.1-.2.3-.2.5s.1.5.4.6c.3.2.7.2 1.1.2s.8-.1 1.1-.3l1-.6c.3-.2.4-.4.4-.6 0-.3-.1-.5-.4-.6-.3-.2-.6-.2-1-.3-.4 0-.8.1-1.1.3l-1.3.8z"/><path fill="none" stroke="#78B6E4" stroke-linecap="round" stroke-miterlimit="10" stroke-width=".5" d="M333 445.9l106.2-61.4"/><circle cx="439.2" cy="384.6" r=".9" fill="#78B6E4"/><path fill="none" stroke="#78B6E4" stroke-linecap="round" stroke-miterlimit="10" stroke-width=".5" d="M333 408.9l106.2-61.3"/><circle cx="439.2" cy="347.6" r=".9" fill="#78B6E4"/><path fill="none" stroke="#78B6E4" stroke-linecap="round" stroke-miterlimit="10" stroke-width=".5" d="M333 445.9l-106.2-61.4"/><circle cx="226.8" cy="384.6" r=".9" fill="#78B6E4"/><path fill="none" stroke="#78B6E4" stroke-linecap="round" stroke-miterlimit="10" stroke-width=".5" d="M333 408.9l-106.2-61.3"/><circle cx="226.8" cy="347.6" r=".9" fill="#78B6E4"/><g fill="none" stroke="#78B6E4" stroke-linecap="round" stroke-miterlimit="10" stroke-width=".5"><path d="M226 445.9h1"/><path stroke-dasharray="1.98 1.98" d="M229 445.9h209"/><path d="M439 445.9h1"/></g><path fill="none" stroke="#78B6E4" stroke-linecap="round" stroke-miterlimit="10" stroke-width=".5" d="M333 350.5c-33.3 0-62.6 17.1-79.7 42.9"/><path fill="#78B6E4" d="M251.6 396c.3-1.5.6-3.4.4-4.9l1.5 2 2.5.6c-1.4.4-3 1.4-4.4 2.3z"/><path fill="none" stroke="#78B6E4" stroke-linecap="round" stroke-miterlimit="10" stroke-width=".5" d="M415.2 397.5c-15.6-26.5-43.6-44.7-76-46.8"/><path fill="#78B6E4" d="M336.2 350.6c1.5-.4 3.3-1.2 4.4-2.1l-1 2.3.7 2.4c-1.1-1-2.8-2-4.1-2.6z"/><path fill="none" stroke="#78B6E4" stroke-linecap="round" stroke-miterlimit="10" stroke-width=".5" d="M428.3 445.9c0-15-3.5-29.2-9.6-41.8"/><path fill="#78B6E4" d="M417.3 401.4c1.1 1 2.7 2.2 4 2.8l-2.5.3-1.8 1.8c.5-1.4.5-3.4.3-4.9zm-13.5 29c0-.2.1-.4.2-.5.1-.1.3-.1.6-.1s.5 0 .6.1.2.2.2.4c0 .3.1.5.3.6.2.2.5.2.9.2s.8-.1 1-.3.3-.5.3-1v-.1c0-.8-.4-1.1-1.3-1.1-.3 0-.5-.2-.5-.6s.2-.6.5-.6.6-.1.8-.2.3-.5.3-.9c0-.7-.4-1-1.1-1-.7 0-1.1.3-1.1.8 0 .4-.2.6-.7.6-.3 0-.6 0-.7-.1-.1-.1-.2-.3-.2-.5s0-.5.1-.7.2-.5.4-.7.5-.4.8-.5c.4-.1.8-.2 1.3-.2 1.7 0 2.5.7 2.5 2.2 0 .5-.1.9-.2 1.2-.2.4-.4.6-.7.7.8.3 1.2.9 1.2 1.8v.2c0 .9-.3 1.6-.8 2s-1.2.6-2.1.6c-.9 0-1.6-.2-2.1-.7-.3-.6-.5-1.1-.5-1.6zm6.7-.5v-3.3c0-1 .3-1.6.8-2.1.5-.4 1.2-.7 2-.7.9 0 1.5.2 2.1.7.5.4.8 1.1.8 2.1v3.3c0 1-.3 1.6-.8 2.1-.5.4-1.2.7-2.1.7-.9 0-1.5-.2-2-.7-.6-.6-.8-1.2-.8-2.1zm1.5 0c0 .9.4 1.4 1.2 1.4s1.3-.5 1.3-1.4v-3.3c0-.9-.4-1.4-1.3-1.4-.8 0-1.2.5-1.2 1.4v3.3zm.8-1.3c-.1-.1-.2-.3-.2-.4 0-.2 0-.3.2-.4.1-.1.2-.2.4-.2s.3.1.4.2c.1.1.1.3.1.4 0 .2 0 .3-.1.4s-.2.2-.4.2-.2 0-.4-.2zm4.2-3v-.7c0-.4.2-.8.5-1.1s.7-.5 1.2-.5.9.2 1.2.5.5.7.5 1.2v.7c0 .4-.2.8-.5 1.1s-.7.5-1.2.5c-.4 0-.8-.2-1.2-.5s-.5-.7-.5-1.2zm1 0c0 .2.1.4.2.5.1.1.3.2.5.2s.4-.1.5-.2.2-.3.2-.5v-.7c0-.2-.1-.4-.2-.5-.1-.1-.3-.2-.5-.2s-.4.1-.5.2-.2.3-.2.5v.7zm-80.8-83.5c0-.2.1-.4.2-.5.1-.1.3-.1.6-.1.5 0 .8.2.8.6 0 .3.1.5.4.6.2.2.5.2.9.2.9 0 1.3-.5 1.3-1.4v-1.3c-.3.4-.9.6-1.6.6-.8 0-1.4-.2-1.8-.6-.5-.4-.7-1-.7-1.9v-.2c0-1 .3-1.6.8-2.1s1.2-.7 2-.7c.9 0 1.5.2 2.1.7.5.4.8 1.1.8 2.1v3.3c0 1-.3 1.6-.8 2.1s-1.2.7-2.1.7c-.9 0-1.6-.2-2-.7-.6-.3-.9-.7-.9-1.4zm1.6-3.8c0 .9.4 1.4 1.3 1.4.8 0 1.3-.4 1.3-1.3v-.3c0-.9-.4-1.4-1.3-1.4-.8 0-1.2.5-1.2 1.4l-.1.2zm5.2 3.3v-3.3c0-1 .3-1.6.8-2.1.5-.4 1.2-.7 2-.7.9 0 1.5.2 2.1.7s.8 1.1.8 2.1v3.3c0 1-.3 1.6-.8 2.1s-1.2.7-2.1.7c-.9 0-1.5-.2-2-.7-.6-.5-.8-1.2-.8-2.1zm1.5 0c0 .9.4 1.4 1.2 1.4s1.3-.5 1.3-1.4v-3.3c0-.9-.4-1.4-1.3-1.4-.8 0-1.2.5-1.2 1.4v3.3zm1-1.1c-.1-.1-.2-.3-.2-.4 0-.1 0-.3.2-.4.1-.1.2-.2.4-.2s.3.1.4.2c.1.1.1.3.1.4 0 .1 0 .3-.1.4-.1.1-.2.2-.4.2s-.4-.2-.4-.2zm4-3v-.7c0-.4.2-.8.5-1.1s.7-.5 1.2-.5.9.2 1.2.5.5.7.5 1.2v.7c0 .4-.2.8-.5 1.1s-.7.5-1.2.5c-.4 0-.8-.2-1.2-.5-.3-.5-.5-.7-.5-1.2zm1 0c0 .2.1.4.2.5.1.1.3.2.5.2s.4-.1.5-.2c.1-.1.2-.3.2-.5v-.7c0-.2-.1-.4-.2-.5-.1-.1-.3-.2-.5-.2s-.4.1-.5.2c-.1.1-.2.3-.2.5v.7zM260 394.4c0-.2.1-.4.3-.6l1.4-1.1c.1-.1.2-.1.3-.1.2 0 .3 0 .5.1.1.1.2.2.2.4v7.8c0 .2-.1.3-.2.4s-.3.1-.5.1-.4 0-.6-.1-.2-.2-.2-.4v-6.4l-.4.4c-.1.1-.2.1-.3.1-.1 0-.3-.1-.4-.2-.1-.2-.1-.3-.1-.4zm3.5 5c0-.3.1-.4.2-.6s.3-.2.6-.2.5.1.6.2.2.3.2.4c0 .3.1.5.3.7s.5.2.9.2c.8 0 1.3-.4 1.3-1.3v-.2c0-.4-.1-.8-.3-1s-.5-.3-.9-.3h-1.8c-.2 0-.4-.1-.5-.2s-.1-.3-.1-.5v-.3l.2-3.2c0-.3.1-.5.3-.5h3.7c.1 0 .3.1.3.2s.1.3.1.5 0 .3-.1.5c-.1.1-.2.2-.3.2h-2.7l-.2 2h.9c.9 0 1.5.2 2.1.6.5.4.8 1.1.8 2v.2c0 .9-.3 1.6-.8 2s-1.2.7-2 .7c-.9 0-1.6-.2-2.1-.6-.4-.5-.7-1-.7-1.5zm6.5-.6v-3.3c0-1 .3-1.6.8-2.1.5-.4 1.2-.7 2-.7.9 0 1.5.2 2.1.7s.8 1.1.8 2.1v3.3c0 1-.3 1.6-.8 2.1s-1.2.7-2.1.7c-.9 0-1.5-.2-2-.7-.6-.5-.8-1.3-.8-2.1zm1.7 0c0 .9.4 1.4 1.2 1.4s1.3-.5 1.3-1.4v-3.3c0-.9-.4-1.4-1.3-1.4-.8 0-1.2.5-1.2 1.4v3.3zm.8-1.3c-.1-.1-.2-.3-.2-.4s0-.3.2-.4c.1-.1.2-.2.4-.2s.3.1.4.2c.1.1.1.3.1.4s0 .3-.1.4-.2.2-.4.2-.4-.1-.4-.2zm4-3v-.7c0-.4.2-.8.5-1.1.3-.3.7-.5 1.2-.5s.9.2 1.2.5.5.7.5 1.2v.7c0 .4-.2.8-.5 1.1-.3.3-.7.5-1.2.5-.4 0-.8-.2-1.2-.5-.2-.3-.5-.7-.5-1.2zm1 0c0 .2.1.4.2.5.1.1.3.2.5.2s.4-.1.5-.2.2-.3.2-.5v-.7c0-.2-.1-.4-.2-.5-.1-.1-.3-.2-.5-.2s-.4.1-.5.2-.2.3-.2.5v.7z"/><path fill="none" stroke="#78B6E4" stroke-linecap="round" stroke-miterlimit="10" stroke-width=".5" d="M333 445.9V334.1"/><circle cx="333" cy="334.2" r=".9" fill="#78B6E4"/><path fill="#6D6E71" d="M29.7 351c0-.1 0-.1.1-.2.1 0 .1-.1.2-.1s.2 0 .2.1l1.5 4.9 1.5-4.9c0-.1.1-.1.2-.1s.1 0 .2.1.1.1.1.2l-1.7 5.4c0 .1-.1.2-.3.2-.2 0-.3-.1-.3-.2l-1.7-5.4c0 .1 0 .1 0 0zm4 4.8c0-.4.2-.7.5-.9s.8-.2 1.4-.2h.4v-.2c0-.3-.1-.5-.2-.7-.2-.2-.4-.3-.7-.3-.2 0-.4 0-.6.1s-.3.1-.3.1c-.1 0-.1 0-.2-.1 0-.1-.1-.1-.1-.2s.1-.2.3-.3c.2-.1.5-.1.7-.1.5 0 .9.1 1.1.4s.3.7.3 1.1v2.1c0 .1 0 .1-.1.1s-.1.1-.2.1-.1 0-.2-.1l-.1-.1v-.4c-.4.4-.8.6-1.2.6-.3 0-.6-.1-.8-.3s0-.5 0-.7zm.5-.2c0 .2.1.4.2.5s.3.2.5.2c.3 0 .5-.1.7-.3.2-.2.3-.4.3-.6v-.4h-.8c-.1 0-.3 0-.4.1-.1 0-.3.1-.3.2s-.2.2-.2.3zm3.3.9v-3.4c0-.1 0-.1.1-.1 0 0 .1-.1.2-.1s.1 0 .2.1l.1.1v.4c.1-.2.2-.3.4-.4.2-.1.4-.2.7-.2.4 0 .7.1 1 .4.3.3.4.6.4 1.1v2.1c0 .1 0 .1-.1.2-.1 0-.1.1-.2.1s-.1 0-.2-.1c-.1 0-.1-.1-.1-.2v-2.1c0-.3-.1-.5-.3-.7-.2-.2-.4-.3-.7-.3-.3 0-.5.1-.7.3-.2.2-.3.4-.3.7v2.1c0 .1 0 .1-.1.1s-.1.1-.2.1-.1 0-.2-.1v-.1zm4-4.7c-.1-.1-.1-.1-.1-.2s0-.2.1-.2.2-.1.3-.1c.1 0 .2 0 .2.1s.1.1.1.2 0 .2-.1.2-.1.1-.2.1l-.3-.1zm0 4.7v-3.4c0-.1 0-.1.1-.1 0 0 .1-.1.2-.1s.1 0 .2.1c.1 0 .1.1.1.1v3.4c0 .1 0 .1-.1.1s-.1.1-.2.1-.1 0-.2-.1l-.1-.1zm1.2-.4c0-.1 0-.1.1-.2 0-.1.1-.1.1-.1s.1 0 .2.1.2.1.3.2c.1.1.3.1.5.1.3 0 .5-.1.6-.2s.2-.2.2-.4-.1-.3-.2-.5c-.1-.1-.3-.2-.5-.3-.2-.1-.4-.1-.6-.2s-.4-.2-.5-.3c-.1-.1-.2-.3-.2-.6s.1-.5.3-.8c.2-.2.5-.3.9-.3.3 0 .5 0 .7.1.2.1.3.2.3.3s0 .1-.1.2c0 .1-.1.1-.2.1 0 0-.1 0-.3-.1-.2-.1-.4-.1-.6-.1-.3 0-.5.1-.6.2-.1.1-.2.3-.2.4 0 .2.1.3.2.4.1.1.3.2.5.2.2.1.4.1.6.2s.4.2.5.3c.1.2.2.4.2.7 0 .3-.1.6-.3.8-.2.2-.5.3-.9.3s-.6-.1-.9-.2c.1 0-.1 0-.1-.3zm3.3.4v-5.7c0-.1 0-.1.1-.1 0 0 .1-.1.2-.1s.1 0 .2.1c.1 0 .1.1.1.1v2.7c.1-.2.2-.3.4-.4.2-.1.4-.2.6-.2.4 0 .7.1 1 .4.3.3.4.6.4 1.1v2.1c0 .1 0 .1-.1.2-.1 0-.1.1-.2.1s-.1 0-.2-.1c-.1 0-.1-.1-.1-.2v-2.1c0-.3-.1-.5-.3-.7-.2-.2-.4-.3-.7-.3-.3 0-.5.1-.7.3-.2.2-.3.4-.3.7v2.1c0 .1 0 .1-.1.1s-.1.1-.2.1-.1 0-.2-.1.1-.1.1-.1zm4-4.7c-.1-.1-.1-.1-.1-.2s0-.2.1-.2.2-.1.3-.1c.1 0 .2 0 .2.1s.1.1.1.2 0 .2-.1.2-.1.1-.2.1c-.1-.1-.3-.1-.3-.1zm0 4.7v-3.4c0-.1 0-.1.1-.1 0 0 .1-.1.2-.1s.1 0 .2.1c.1 0 .1.1.1.1v3.4c0 .1 0 .1-.1.1s-.1.1-.2.1-.1 0-.2-.1l-.1-.1zm1.5 0v-3.4c0-.1 0-.1.1-.1 0 0 .1-.1.2-.1s.1 0 .2.1l.1.1v.4c.1-.2.2-.3.4-.4.2-.1.4-.2.7-.2.4 0 .7.1 1 .4.3.3.4.6.4 1.1v2.1c0 .1 0 .1-.1.2-.1 0-.1.1-.2.1s-.1 0-.2-.1c-.1 0-.1-.1-.1-.2v-2.1c0-.3-.1-.5-.3-.7-.2-.2-.4-.3-.7-.3-.3 0-.5.1-.7.3-.2.2-.3.4-.3.7v2.1c0 .1 0 .1-.1.1s-.1.1-.2.1-.1 0-.2-.1v-.1zm3.7 1c0-.4.2-.7.7-.9-.3-.1-.4-.3-.4-.5s.1-.4.4-.6c-.3-.2-.4-.6-.4-1v-.3c0-.4.1-.7.4-1 .3-.2.6-.4 1-.4s.7.1.9.3c.1-.2.2-.3.3-.4.1-.1.2-.1.3-.1.1 0 .1 0 .2.1l.1.1c0 .1 0 .2-.1.2-.2 0-.3.1-.4.3.1.2.2.4.2.8v.3c0 .4-.1.7-.4 1s-.6.4-1 .4c-.2 0-.4 0-.6-.1-.2.1-.2.2-.2.3 0 .1.1.2.2.3.1.1.3.1.5.1s.4 0 .6.1c.2 0 .4.1.6.1.2.1.3.2.5.3.1.1.2.3.2.6 0 .4-.1.6-.4.8s-.7.3-1.1.3c-.5 0-.9-.1-1.2-.3s-.9-.4-.9-.8zm.5-.1c0 .2.1.4.3.5.2.1.5.2.8.2s.6-.1.8-.2.3-.3.3-.5c0-.1 0-.2-.1-.3l-.2-.2c-.1 0-.2-.1-.3-.1s-.2-.1-.3-.1h-.6c-.4.2-.7.4-.7.7zm.2-2.9c0 .3.1.5.2.7.2.2.4.3.6.3.3 0 .5-.1.6-.3.2-.2.2-.4.2-.7v-.3c0-.3-.1-.5-.2-.7-.2-.2-.4-.3-.6-.3s-.5.1-.6.3c-.2.2-.2.4-.2.7v.3zm5 2v-5.4c0-.1.1-.2.2-.2h1.5c.5 0 .9.1 1.2.4s.4.7.4 1.3v.1c0 .6-.2 1-.5 1.3-.3.3-.7.4-1.2.4h-1.2v2.2c0 .1 0 .1-.1.2-.1 0-.1.1-.2.1s-.1 0-.2-.1c.1-.2.1-.3.1-.3zm.5-2.7h1.2c.4 0 .6-.1.8-.3s.3-.5.3-.9v-.1c0-.8-.4-1.2-1.1-1.2h-1.2v2.5zm3.1 1.4v-.9c0-.4.1-.8.4-1.1s.7-.4 1.1-.4.8.1 1.1.4c.3.3.5.6.5 1.1v.9c0 .4-.2.8-.5 1.1s-.7.5-1.1.5-.8-.2-1.1-.5c-.1-.3-.4-.7-.4-1.1zm.5 0c0 .3.1.5.3.7.2.2.4.3.7.3.3 0 .5-.1.7-.3.2-.2.3-.4.3-.7v-.9c0-.3-.1-.5-.3-.7-.2-.2-.4-.3-.7-.3-.3 0-.5.1-.7.3s-.3.4-.3.7v.9zm3.5-3.4c-.1-.1-.1-.1-.1-.2s0-.2.1-.2.2-.1.3-.1c.1 0 .2 0 .2.1s.1.1.1.2 0 .2-.1.2-.1.1-.2.1c-.1-.1-.3-.1-.3-.1zm0 4.7v-3.4c0-.1 0-.1.1-.1 0 0 .1-.1.2-.1s.1 0 .2.1c.1 0 .1.1.1.1v3.4c0 .1 0 .1-.1.1s-.1.1-.2.1-.1 0-.2-.1l-.1-.1zm1.5 0v-3.4c0-.1 0-.1.1-.1 0 0 .1-.1.2-.1s.1 0 .2.1l.1.1v.4c.1-.2.2-.3.4-.4.2-.1.4-.2.7-.2.4 0 .7.1 1 .4.3.3.4.6.4 1.1v2.1c0 .1 0 .1-.1.2-.1 0-.1.1-.2.1s-.1 0-.2-.1c-.1 0-.1-.1-.1-.2v-2.1c0-.3-.1-.5-.3-.7-.2-.2-.4-.3-.7-.3-.3 0-.5.1-.7.3-.2.2-.3.4-.3.7v2.1c0 .1 0 .1-.1.1s-.1.1-.2.1-.1 0-.2-.1v-.1zm4-1v-4.2c0-.1 0-.1.1-.1s.1-.1.2-.1.1 0 .2.1c.1 0 .1.1.1.1v1.6h1c.1 0 .1 0 .1.1s.1.1.1.2 0 .1-.1.2l-.1.1h-1v2.2c0 .3.1.4.2.5s.3.2.6.2h.2c.1 0 .1 0 .2.1s.1.1.1.2 0 .1-.1.2c0 0-.1.1-.2.1h-.3c-.9-.2-1.3-.6-1.3-1.5zm-254-4.5c0-.1 0-.1.1-.2.1 0 .1-.1.2-.1s.2 0 .2.1l1.5 4.9 1.5-4.9c0-.1.1-.1.2-.1s.1 0 .2.1.1.1.1.2l-1.7 5.4c0 .1-.1.2-.3.2-.2 0-.3-.1-.3-.2l-1.7-5.4c0 .1 0 .1 0 0zm3.9 4.8c0-.4.2-.7.5-.9s.8-.2 1.4-.2h.4v-.2c0-.3-.1-.5-.2-.7-.2-.2-.4-.3-.7-.3-.2 0-.4 0-.6.1-.2.1-.3.1-.3.1-.1 0-.1 0-.2-.1 0-.1-.1-.1-.1-.2s.1-.2.3-.3.5-.1.7-.1c.5 0 .9.1 1.1.4.2.3.3.7.3 1.1v2.1c0 .1 0 .1-.1.1s-.1.1-.2.1-.1 0-.2-.1l-.1-.1v-.4c-.4.4-.8.6-1.2.6-.3 0-.6-.1-.8-.3-.2-.2 0-.5 0-.7zm.6-.2c0 .2.1.4.2.5.1.1.3.2.5.2.3 0 .5-.1.7-.3.2-.2.3-.4.3-.6v-.4h-.8c-.1 0-.3 0-.4.1-.1 0-.3.1-.3.2-.1.1-.2.2-.2.3zm3.2.9v-3.4c0-.1 0-.1.1-.1 0 0 .1-.1.2-.1s.1 0 .2.1l.1.1v.4c.1-.2.2-.3.4-.4.2-.1.4-.2.7-.2.4 0 .7.1 1 .4.3.3.4.6.4 1.1v2.1c0 .1 0 .1-.1.2-.1 0-.1.1-.2.1s-.1 0-.2-.1c-.1 0-.1-.1-.1-.2v-2.1c0-.3-.1-.5-.3-.7-.2-.2-.4-.3-.7-.3s-.5.1-.7.3c-.2.2-.3.4-.3.7v2.1c0 .1 0 .1-.1.1s-.1.1-.2.1-.1 0-.2-.1v-.1zm4-4.7c-.1-.1-.1-.1-.1-.2s0-.2.1-.2.2-.1.3-.1.2 0 .2.1.1.1.1.2 0 .2-.1.2-.1.1-.2.1c-.2-.1-.3-.1-.3-.1zm0 4.7v-3.4c0-.1 0-.1.1-.1 0 0 .1-.1.2-.1s.1 0 .2.1c.1 0 .1.1.1.1v3.4c0 .1 0 .1-.1.1s-.1.1-.2.1-.1 0-.2-.1l-.1-.1zm1.3-.4c0-.1 0-.1.1-.2 0-.1.1-.1.1-.1s.1 0 .2.1.2.1.3.2.3.1.5.1c.3 0 .5-.1.6-.2s.2-.2.2-.4-.1-.3-.2-.5c-.1-.1-.3-.2-.5-.3-.2-.1-.4-.1-.6-.2-.2-.1-.4-.2-.5-.3-.1-.1-.2-.3-.2-.6s.1-.5.3-.8c.2-.2.5-.3.9-.3.3 0 .5 0 .7.1.2.1.3.2.3.3s0 .1-.1.2c0 .1-.1.1-.2.1 0 0-.1 0-.3-.1-.2-.1-.4-.1-.6-.1-.3 0-.5.1-.6.2-.1.1-.2.3-.2.4 0 .2.1.3.2.4.1.1.3.2.5.2.2.1.4.1.6.2s.4.2.5.3c.1.2.2.4.2.7 0 .3-.1.6-.3.8-.2.2-.5.3-.9.3s-.6-.1-.9-.2c0 0-.1 0-.1-.3zm3.2.4v-5.7c0-.1 0-.1.1-.1 0 0 .1-.1.2-.1s.1 0 .2.1c.1 0 .1.1.1.1v2.7c.1-.2.2-.3.4-.4.2-.1.4-.2.6-.2.4 0 .7.1 1 .4.3.3.4.6.4 1.1v2.1c0 .1 0 .1-.1.2-.1 0-.1.1-.2.1s-.1 0-.2-.1c-.1 0-.1-.1-.1-.2v-2.1c0-.3-.1-.5-.3-.7-.2-.2-.4-.3-.7-.3s-.5.1-.7.3c-.2.2-.3.4-.3.7v2.1c0 .1 0 .1-.1.1s-.1.1-.2.1-.1 0-.2-.1c0-.1.1-.1.1-.1zm4-4.7c-.1-.1-.1-.1-.1-.2s0-.2.1-.2.2-.1.3-.1c.1 0 .2 0 .2.1s.1.1.1.2 0 .2-.1.2-.1.1-.2.1c-.1-.1-.3-.1-.3-.1zm0 4.7v-3.4c0-.1 0-.1.1-.1 0 0 .1-.1.2-.1s.1 0 .2.1c.1 0 .1.1.1.1v3.4c0 .1 0 .1-.1.1s-.1.1-.2.1-.1 0-.2-.1l-.1-.1zm1.6 0v-3.4c0-.1 0-.1.1-.1 0 0 .1-.1.2-.1s.1 0 .2.1l.1.1v.4c.1-.2.2-.3.4-.4.2-.1.4-.2.7-.2.4 0 .7.1 1 .4.3.3.4.6.4 1.1v2.1c0 .1 0 .1-.1.2-.1 0-.1.1-.2.1s-.1 0-.2-.1c-.1 0-.1-.1-.1-.2v-2.1c0-.3-.1-.5-.3-.7-.2-.2-.4-.3-.7-.3-.3 0-.5.1-.7.3-.2.2-.3.4-.3.7v2.1c0 .1 0 .1-.1.1s-.1.1-.2.1-.1 0-.2-.1v-.1zm3.6 1c0-.4.2-.7.7-.9-.3-.1-.4-.3-.4-.5s.1-.4.4-.6c-.3-.2-.4-.6-.4-1v-.3c0-.4.1-.7.4-1 .3-.2.6-.4 1-.4s.7.1.9.3c.1-.2.2-.3.3-.4.1-.1.2-.1.3-.1.1 0 .1 0 .2.1l.1.1c0 .1 0 .2-.1.2-.2 0-.3.1-.4.3.1.2.2.4.2.8v.3c0 .4-.1.7-.4 1-.3.3-.6.4-1 .4-.2 0-.4 0-.6-.1-.2.1-.2.2-.2.3 0 .1.1.2.2.3.1.1.3.1.5.1s.4 0 .6.1c.2 0 .4.1.6.1.2.1.3.2.5.3.1.1.2.3.2.6 0 .4-.1.6-.4.8-.3.2-.7.3-1.1.3-.5 0-.9-.1-1.2-.3s-.9-.4-.9-.8zm.5-.1c0 .2.1.4.3.5s.5.2.8.2.6-.1.8-.2.3-.3.3-.5c0-.1 0-.2-.1-.3l-.2-.2c-.1 0-.2-.1-.3-.1s-.2-.1-.3-.1h-.6c-.4.2-.7.4-.7.7zm.2-2.9c0 .3.1.5.2.7.2.2.4.3.6.3.3 0 .5-.1.6-.3.2-.2.2-.4.2-.7v-.3c0-.3-.1-.5-.2-.7-.2-.2-.4-.3-.6-.3s-.5.1-.6.3c-.2.2-.2.4-.2.7v.3zm5 2v-5.4c0-.1.1-.2.2-.2h1.5c.5 0 .9.1 1.2.4.3.3.4.7.4 1.3v.1c0 .6-.2 1-.5 1.3-.3.3-.7.4-1.2.4h-1.2v2.2c0 .1 0 .1-.1.2-.1 0-.1.1-.2.1s-.1 0-.2-.1c.1-.2.1-.3.1-.3zm.5-2.7h1.2c.4 0 .6-.1.8-.3.2-.2.3-.5.3-.9v-.1c0-.8-.4-1.2-1.1-1.2h-1.2v2.5zm3.2 1.4v-.9c0-.4.1-.8.4-1.1s.7-.4 1.1-.4c.4 0 .8.1 1.1.4.3.3.5.6.5 1.1v.9c0 .4-.2.8-.5 1.1s-.7.5-1.1.5c-.4 0-.8-.2-1.1-.5-.2-.3-.4-.7-.4-1.1zm.4 0c0 .3.1.5.3.7.2.2.4.3.7.3.3 0 .5-.1.7-.3.2-.2.3-.4.3-.7v-.9c0-.3-.1-.5-.3-.7-.2-.2-.4-.3-.7-.3-.3 0-.5.1-.7.3-.2.2-.3.4-.3.7v.9zm3.5-3.4c-.1-.1-.1-.1-.1-.2s0-.2.1-.2.2-.1.3-.1.2 0 .2.1.1.1.1.2 0 .2-.1.2-.1.1-.2.1c-.1-.1-.2-.1-.3-.1zm0 4.7v-3.4c0-.1 0-.1.1-.1 0 0 .1-.1.2-.1s.1 0 .2.1c.1 0 .1.1.1.1v3.4c0 .1 0 .1-.1.1s-.1.1-.2.1-.1 0-.2-.1l-.1-.1zm1.5 0v-3.4c0-.1 0-.1.1-.1 0 0 .1-.1.2-.1s.1 0 .2.1l.1.1v.4c.1-.2.2-.3.4-.4.2-.1.4-.2.7-.2.4 0 .7.1 1 .4.3.3.4.6.4 1.1v2.1c0 .1 0 .1-.1.2-.1 0-.1.1-.2.1s-.1 0-.2-.1c-.1 0-.1-.1-.1-.2v-2.1c0-.3-.1-.5-.3-.7-.2-.2-.4-.3-.7-.3-.3 0-.5.1-.7.3-.2.2-.3.4-.3.7v2.1c0 .1 0 .1-.1.1s-.1.1-.2.1-.1 0-.2-.1v-.1zm4-1v-4.2c0-.1 0-.1.1-.1s.1-.1.2-.1.1 0 .2.1c.1 0 .1.1.1.1v1.6h1c.1 0 .1 0 .1.1s.1.1.1.2 0 .1-.1.2l-.1.1h-1v2.2c0 .3.1.4.2.5s.3.2.6.2h.2c.1 0 .1 0 .2.1s.1.1.1.2 0 .1-.1.2c0 0-.1.1-.2.1h-.2c-1-.2-1.4-.6-1.4-1.5zm40.7-32.7v-1.2c0-.4.1-.7.4-1.1.3-.3.6-.7 1-.9l1.2-.9c.4-.3.7-.6 1-1 .3-.4.4-.7.4-1.1 0-.4-.1-.8-.4-1.1-.3-.3-.7-.5-1.2-.5-.4 0-.8.1-1.1.4s-.4.6-.4 1.1c0 .1 0 .2-.1.2-.1.1-.2.1-.3.1-.2 0-.4-.2-.4-.5 0-.6.2-1.1.6-1.4s1-.6 1.6-.6c.7 0 1.3.2 1.7.7.5.4.7 1 .7 1.6 0 .4-.1.8-.3 1.2s-.4.7-.7.9c-.3.3-.6.5-1 .8l-1 .7c-.3.2-.5.4-.7.7-.2.3-.3.5-.3.8v.7h3.8c.1 0 .1 0 .2.1s.1.2.1.3 0 .2-.1.3c-.1.1-.1.1-.2.1h-4.1c-.1 0-.2 0-.3-.1 0-.3-.1-.3-.1-.3zm8.6 0v-8.2c0-.2.1-.3.3-.3h2.2c.8 0 1.4.2 1.8.6.4.4.7 1.1.7 1.9v.1c0 .9-.2 1.5-.7 1.9s-1.1.6-1.8.6h-1.7v3.2c0 .1 0 .2-.1.2-.1.1-.2.1-.3.1s-.2-.1-.4-.1c.1.2 0 0 0 0zm.8-4h1.7c.5 0 1-.2 1.3-.5.3-.3.4-.8.4-1.4v-.1c0-1.2-.6-1.8-1.7-1.8h-1.7v3.8zm4.9 2v-1.3c0-.6.2-1.1.7-1.6.4-.4 1-.7 1.6-.7s1.2.2 1.6.7c.5.4.7 1 .7 1.6v1.3c0 .6-.2 1.1-.7 1.6s-1 .7-1.6.7-1.1-.2-1.6-.7-.7-.9-.7-1.6zm.7 0c0 .4.1.8.4 1.1.3.3.6.5 1 .5s.8-.2 1.1-.5c.3-.3.4-.7.4-1.1v-1.3c0-.4-.1-.7-.5-1-.3-.3-.7-.5-1.1-.5-.4 0-.8.2-1 .5-.3.3-.4.7-.4 1v1.3h.1zm5.1-5.3c-.1-.1-.2-.2-.2-.4s.1-.3.2-.3.2-.1.4-.1c.1 0 .3 0 .4.1.1.1.1.2.1.3s0 .3-.1.4-.2.1-.4.1-.3 0-.4-.1zm0 7.3v-5.1c0-.1 0-.1.1-.2s.2-.1.3-.1.2 0 .3.1c.1.1.1.1.1.2v5.1c0 .1 0 .2-.1.2-.1.1-.2.1-.3.1s-.2 0-.3-.1c0-.2-.1-.2-.1-.2zm2.3 0v-5.1c0-.1 0-.2.1-.2.1-.1.2-.1.3-.1s.2 0 .3.1c.1.1.1.1.1.2v.6c.1-.3.3-.5.6-.7.3-.2.6-.3 1-.3.6 0 1.1.2 1.5.7s.6 1 .6 1.6v3.2c0 .1 0 .2-.1.2-.1.1-.2.1-.3.1s-.2 0-.3-.1c-.1-.1-.1-.1-.1-.2v-3.2c0-.4-.1-.7-.4-1.1-.3-.3-.6-.5-1.1-.5-.4 0-.7.1-1 .4-.3.3-.4.6-.4 1.1v3.2c0 .1 0 .2-.1.2s-.2.1-.3.1-.2 0-.3-.1l-.1-.1zm5.9-1.6V315c0-.1 0-.1.1-.2s.2-.1.3-.1.2 0 .3.1.1.1.1.2v2.4h1.5c.1 0 .1 0 .2.1s.1.1.1.2 0 .2-.1.2c-.1.1-.1.1-.2.1H-66v3.2c0 .4.1.7.2.8.1.1.5.2.9.2h.3c.1 0 .2 0 .3.1s.1.2.1.3c0 .1 0 .2-.1.3s-.2.1-.3.1h-.3c-1.2 0-1.9-.5-1.9-1.8zm6.2 1.6v-8.2c0-.2.1-.3.3-.3h2.2c.8 0 1.4.2 1.8.6.4.4.7 1.1.7 1.9v.1c0 .9-.2 1.5-.7 1.9s-1.1.6-1.8.6h-1.7v3.2c0 .1 0 .2-.1.2-.1.1-.2.1-.3.1s-.2-.1-.4-.1c0 .2 0 0 0 0zm.8-4h1.7c.5 0 1-.2 1.3-.5.3-.3.4-.8.4-1.4v-.1c0-1.2-.6-1.8-1.7-1.8h-1.7v3.8zm4.8 2v-1.3c0-.6.2-1.1.7-1.6.4-.4 1-.7 1.6-.7s1.1.2 1.6.6c.4.4.7.9.7 1.6 0 .2 0 .4-.1.5-.1.1-.1.2-.3.3-.1.1-.2.1-.3.1h-3.1v.4c0 .5.2.9.5 1.1.3.3.8.4 1.3.4.3 0 .5 0 .7-.1s.4-.2.5-.2c.1-.1.2-.1.3-.1s.2 0 .2.1.1.2.1.2c0 .2-.2.3-.5.5s-.8.3-1.3.3c-.8 0-1.4-.2-1.9-.6-.4-.3-.7-.8-.7-1.5zm.8-1h2.4c.2 0 .4 0 .5-.1.1-.1.1-.2.1-.3 0-.4-.1-.7-.4-1-.3-.3-.6-.5-1.1-.5-.4 0-.8.1-1.1.4s-.4.6-.4 1v.5zm4.9 3v-5.1c0-.1 0-.1.1-.2s.2-.1.3-.1.2 0 .3.1c.1.1.1.1.1.2v.6c.1-.3.4-.5.6-.7.3-.2.6-.3 1-.3h.4c.1 0 .2 0 .2.1s.1.2.1.3c0 .1 0 .2-.1.3s-.1.1-.2.1h-.4c-.4 0-.8.2-1.1.5s-.5.7-.5 1.3v3c0 .1 0 .2-.1.2s-.2.1-.3.1-.2 0-.3-.1c0-.3-.1-.3-.1-.3zm3.6-.6c0-.1 0-.2.1-.2.1-.1.1-.1.2-.1s.1 0 .3.1c.2.1.3.2.5.3s.5.1.8.1c.4 0 .7-.1.9-.2.2-.1.3-.4.3-.6 0-.3-.1-.5-.3-.7s-.5-.3-.7-.4-.6-.2-.9-.3c-.3-.1-.5-.2-.7-.5-.2-.3-.3-.5-.3-.9s.2-.8.5-1.1c.3-.3.8-.5 1.4-.5.4 0 .8.1 1.1.2.3.1.5.3.5.4s0 .2-.1.3c-.1.1-.1.1-.2.1l-.4-.2c-.3-.1-.5-.2-.8-.2-.4 0-.7.1-.9.3s-.3.4-.3.6c0 .2.1.4.3.6.2.1.5.3.7.3s.6.2.9.3c.3.1.5.3.7.5.2.3.3.6.3 1 0 .5-.2.9-.5 1.1-.3.3-.8.4-1.4.4-.5 0-1-.1-1.3-.3-.5 0-.7-.1-.7-.4zm5 3.3v-7.9c0-.1 0-.1.1-.2s.2-.1.3-.1.2 0 .3.1c.1.1.1.1.1.2v.6c.1-.3.4-.5.6-.7.3-.2.6-.3 1-.3.6 0 1.1.2 1.5.7.4.4.6 1 .6 1.6v1.3c0 .6-.2 1.1-.6 1.6-.4.5-.9.7-1.5.7-.4 0-.7-.1-1-.3s-.5-.4-.6-.7v3.3c0 .1 0 .1-.1.2s-.2.1-.3.1-.2 0-.3-.1c-.1 0-.1 0-.1-.1zm.8-4.3c0 .2.1.5.4.8.3.3.6.4 1 .4s.7-.2 1-.5c.3-.3.5-.7.5-1.1v-1.3c0-.4-.1-.7-.5-1-.3-.3-.7-.5-1.1-.5-.4 0-.7.1-1 .4-.3.3-.4.6-.4 1.1v1.7h.1zm4.8-.4v-1.3c0-.6.2-1.1.7-1.6.4-.4 1-.7 1.6-.7s1.1.2 1.6.6c.4.4.7.9.7 1.6 0 .2 0 .4-.1.5-.1.1-.1.2-.3.3-.1.1-.2.1-.3.1h-3.1v.4c0 .5.2.9.5 1.1.3.3.8.4 1.3.4.3 0 .5 0 .7-.1s.4-.2.5-.2c.1-.1.2-.1.3-.1s.2 0 .2.1.1.2.1.2c0 .2-.2.3-.5.5s-.8.3-1.3.3c-.8 0-1.4-.2-1.9-.6-.5-.3-.7-.8-.7-1.5zm.8-1h2.4c.2 0 .4 0 .5-.1.1-.1.1-.2.1-.3 0-.4-.1-.7-.4-1-.3-.3-.6-.5-1.1-.5-.4 0-.8.1-1.1.4s-.4.6-.4 1v.5zm4.7 1v-1.3c0-.7.2-1.2.6-1.6.4-.4 1-.6 1.7-.6.5 0 .9.1 1.2.3.3.2.5.3.5.5 0 .1 0 .2-.1.3s-.2.1-.2.1-.1 0-.2-.1-.2-.1-.4-.2-.4-.1-.7-.1c-.5 0-.9.1-1.2.4s-.4.6-.4 1.1v1.3c0 .5.1.9.4 1.1s.7.4 1.2.4c.3 0 .5 0 .7-.1s.3-.1.4-.2c.1-.1.2-.1.2-.1.1 0 .2 0 .3.1.1.1.1.2.1.3 0 .2-.2.4-.5.5s-.8.3-1.2.3c-.8 0-1.3-.2-1.7-.6-.5-.6-.7-1.1-.7-1.8zm5.1.4V315c0-.1 0-.1.1-.2s.2-.1.3-.1.2 0 .3.1.1.1.1.2v2.4h1.5c.1 0 .1 0 .2.1s.1.1.1.2 0 .2-.1.2c-.1.1-.1.1-.2.1h-1.5v3.2c0 .4.1.7.2.8.1.1.5.2.9.2h.3c.1 0 .2 0 .3.1s.1.2.1.3c0 .1 0 .2-.1.3s-.2.1-.3.1h-.3c-1.3 0-1.9-.5-1.9-1.8zm3.6-5.7c-.1-.1-.2-.2-.2-.4s.1-.3.2-.3.2-.1.4-.1c.1 0 .3 0 .4.1.1.1.1.2.1.3s0 .3-.1.4-.2.1-.4.1-.3 0-.4-.1zm0 7.3v-5.1c0-.1 0-.1.1-.2s.2-.1.3-.1.2 0 .3.1c.1.1.1.1.1.2v5.1c0 .1 0 .2-.1.2-.1.1-.2.1-.3.1s-.2 0-.3-.1l-.1-.2zm1.7-5c0-.1 0-.2.1-.3.1-.1.2-.1.3-.1s.2.1.3.2l1.6 4.3 1.6-4.3c.1-.2.2-.2.3-.2s.2 0 .3.1l.2.2v.2l-1.9 5.1c0 .1-.2.2-.4.2s-.3-.1-.4-.2l-1.9-5.1-.1-.1zm5.4 3v-1.3c0-.6.2-1.1.7-1.6.4-.4 1-.7 1.6-.7s1.1.2 1.6.6c.4.4.7.9.7 1.6 0 .2 0 .4-.1.5-.1.1-.1.2-.3.3-.1.1-.2.1-.3.1H-13v.4c0 .5.2.9.5 1.1s.8.4 1.3.4c.3 0 .5 0 .7-.1s.4-.2.5-.2c.1-.1.2-.1.3-.1s.2 0 .2.1c.1.1.1.2.1.2 0 .2-.2.3-.5.5s-.8.3-1.3.3c-.8 0-1.4-.2-1.9-.6-.5-.3-.7-.8-.7-1.5zm.8-1h2.4c.2 0 .4 0 .5-.1.1-.1.1-.2.1-.3 0-.4-.1-.7-.4-1-.3-.3-.6-.5-1.1-.5-.4 0-.8.1-1.1.4s-.4.6-.4 1v.5zm-62.4 17.3V329c0-.2.1-.3.4-.3.3 0 .4.1.4.3v8.2c0 .1 0 .2-.1.2-.1.1-.2.1-.3.1s-.2 0-.3-.1c-.1-.1-.1-.2-.1-.3zm2.5 0v-8.6c0-.1 0-.1.1-.2s.2-.1.3-.1.2 0 .3.1c.1.1.1.1.1.2v8.6c0 .1 0 .2-.1.2-.1.1-.2.1-.3.1s-.2 0-.3-.1c-.1-.1-.1-.1-.1-.2zm2.5 0v-8.6c0-.1 0-.1.1-.2s.2-.1.3-.1.2 0 .3.1c.1.1.1.1.1.2v8.6c0 .1 0 .2-.1.2-.1.1-.2.1-.3.1s-.2 0-.3-.1c-.1-.1-.1-.1-.1-.2zm2.3-1.9V332c0-.1 0-.1.1-.2s.2-.1.3-.1.2 0 .3.1.1.1.1.2v3.2c0 .4.1.8.4 1.1.3.3.6.5 1.1.5.4 0 .8-.2 1.1-.5s.4-.7.4-1.1V332c0-.1 0-.1.1-.2s.2-.1.3-.1.2 0 .3.1.1.1.1.2v3.2c0 .6-.2 1.1-.7 1.6s-1 .7-1.6.7-1.2-.2-1.6-.7c-.5-.5-.7-1-.7-1.6zm5.7 1.4c0-.1 0-.2.1-.2.1-.1.1-.1.2-.1s.1 0 .3.1c.2.1.3.2.5.3s.5.1.8.1c.4 0 .7-.1.9-.2.2-.1.3-.4.3-.6 0-.3-.1-.5-.3-.7s-.5-.3-.7-.4-.6-.2-.9-.3c-.3-.1-.5-.2-.7-.5-.2-.3-.3-.5-.3-.9s.2-.8.5-1.1c.3-.3.8-.5 1.4-.5.4 0 .8.1 1.1.2s.5.3.5.4c0 .1 0 .2-.1.3-.1.1-.1.1-.2.1l-.4-.2c-.3-.1-.5-.2-.8-.2-.4 0-.7.1-.9.3s-.3.4-.3.6.1.4.3.6c.2.1.5.3.7.3s.6.2.9.3c.3.1.5.3.7.5.2.3.3.6.3 1 0 .5-.2.9-.5 1.1-.3.3-.8.4-1.4.4-.5 0-1-.1-1.3-.3-.6 0-.7-.2-.7-.4zm4.9-1v-6.3c0-.1 0-.1.1-.2s.2-.1.3-.1.2 0 .3.1.1.1.1.2v2.4h1.5c.1 0 .1 0 .2.1s.1.1.1.2 0 .2-.1.2c-.1.1-.1.1-.2.1h-1.5v3.2c0 .4.1.7.2.8.1.1.5.2.9.2h.3c.1 0 .2 0 .3.1s.1.2.1.3c0 .1 0 .2-.1.3s-.2.1-.3.1h-.3c-1.3.2-1.9-.5-1.9-1.7zm3.6 1.5V332c0-.1 0-.1.1-.2s.2-.1.3-.1.2 0 .3.1c.1.1.1.1.1.2v.6c.1-.3.4-.5.6-.7.3-.2.6-.3 1-.3h.4c.1 0 .2 0 .2.1s.1.2.1.3c0 .1 0 .2-.1.3s-.1.1-.2.1h-.4c-.4 0-.8.2-1.1.5s-.5.7-.5 1.3v3c0 .1 0 .2-.1.2s-.2.1-.3.1-.2 0-.3-.1c-.1-.2-.1-.2-.1-.3zm3.6-1.1c0-.6.2-1.1.7-1.3s1.2-.4 2.1-.4h.6v-.3c0-.4-.1-.8-.3-1.1-.2-.3-.6-.5-1.1-.5-.3 0-.6.1-.9.2s-.4.2-.4.2c-.1 0-.2 0-.2-.1-.1-.1-.1-.2-.1-.3 0-.2.2-.3.5-.4s.7-.2 1.1-.2c.8 0 1.3.2 1.6.7.3.4.5 1 .5 1.7v3.1c0 .1 0 .2-.1.2-.1.1-.2.1-.3.1s-.2 0-.3-.1-.1-.1-.1-.2v-.6c-.5.6-1.1.9-1.8.9-.5 0-.9-.1-1.2-.4s-.3-.7-.3-1.2zm.8-.2c0 .3.1.6.3.8s.4.2.8.2.7-.1 1.1-.4c.3-.3.5-.6.5-.8v-.8h-1.3c-.2 0-.4.1-.7.1-.2.1-.4.2-.5.3-.2.3-.2.4-.2.6zm4.8-.2v-6.3c0-.1 0-.1.1-.2s.2-.1.3-.1.2 0 .3.1.1.1.1.2v2.4h1.5c.1 0 .1 0 .2.1s.1.1.1.2 0 .2-.1.2c-.1.1-.1.1-.2.1h-1.5v3.2c0 .4.1.7.2.8.1.1.5.2.9.2h.3c.1 0 .2 0 .3.1s.1.2.1.3c0 .1 0 .2-.1.3s-.2.1-.3.1h-.3c-1.3.2-1.9-.5-1.9-1.7zm3.6-5.6c-.1-.1-.2-.2-.2-.4s.1-.3.2-.3.2-.1.4-.1c.1 0 .3 0 .4.1s.1.2.1.3c0 .1 0 .3-.1.4-.1.1-.2.1-.4.1s-.3-.1-.4-.1zm0 7.1V332c0-.1 0-.1.1-.2s.2-.1.3-.1.2 0 .3.1c.1.1.1.1.1.2v5.1c0 .1 0 .2-.1.2-.1.1-.2.1-.3.1s-.2 0-.3-.1c-.1-.1-.1-.1-.1-.2zm2.1-1.9V334c0-.6.2-1.1.7-1.6.4-.4 1-.7 1.6-.7s1.2.2 1.6.7c.5.4.7 1 .7 1.6v1.3c0 .6-.2 1.1-.7 1.6s-1 .7-1.6.7-1.1-.2-1.6-.7-.7-1.1-.7-1.7zm.7 0c0 .4.1.8.4 1.1.3.3.6.5 1 .5s.8-.2 1.1-.5.4-.7.4-1.1V334c0-.4-.1-.7-.5-1-.3-.3-.7-.5-1.1-.5-.4 0-.8.2-1 .5-.3.3-.4.7-.4 1v1.3h.1zm5.1 1.9V332c0-.1 0-.2.1-.2.1-.1.2-.1.3-.1s.2 0 .3.1c.1.1.1.1.1.2v.6c.1-.3.3-.5.6-.7.3-.2.6-.3 1-.3.6 0 1.1.2 1.5.7s.6 1 .6 1.6v3.2c0 .1 0 .2-.1.2-.1.1-.2.1-.3.1s-.2 0-.3-.1c-.1-.1-.1-.1-.1-.2V334c0-.4-.1-.7-.4-1.1-.3-.3-.6-.5-1.1-.5-.4 0-.7.1-1 .4s-.4.6-.4 1.1v3.2c0 .1 0 .2-.1.2s-.2.1-.3.1-.2 0-.3-.1c-.1-.1-.1-.1-.1-.2z"/><path fill="#C4DCF2" d="M-26.8 397.9l-25.4 11.9v47.1l25.4-23.3z"/><path fill="#78B6E4" d="M-77.5 433.6l25.3 23.3v-47.1l-25.3-11.9z"/><path fill="#D7E6F6" d="M-52.2 390.2l25.9 7.3-25.9 12.3-25.3-11.9z"/><path fill="none" stroke="#78B6E4" stroke-linecap="round" stroke-miterlimit="10" stroke-width=".5" d="M-52.2 456.9l105-96.4m-105 49.3l104.9-49.3m-104.9 96.4l-104.9-96.4m104.9 49.3l-104.9-49.3"/><g fill="none" stroke="#78B6E4" stroke-linecap="round" stroke-miterlimit="10" stroke-width=".5"><path d="M-178.3 360.5h1"/><path stroke-dasharray="2 2" d="M-175.3 360.5H71.8"/><path d="M72.8 360.5h1"/></g></svg>