<?xml version="1.0" encoding="utf-8"?>
<!-- Generator: Adobe Illustrator 24.0.2, SVG Export Plug-In . SVG Version: 6.00 Build 0)  -->
<svg version="1.1" id="Layer_1" xmlns="http://www.w3.org/2000/svg" xmlns:xlink="http://www.w3.org/1999/xlink" x="0px" y="0px"
	 viewBox="0 0 602.1 354.7" style="enable-background:new 0 0 602.1 354.7;" xml:space="preserve">
<style type="text/css">
	.st0{fill:#231F20;}
	.st1{fill:#E6E7E8;}
	.st2{fill:#FFFFFF;}
	.st3{fill:#00683F;}
</style>
<path class="st0" d="M484.5,188.1H301V4.5h183.5V188.1z"/>
<path class="st0" d="M489.1,192.1H296.7V0h192.4L489.1,192.1z M305.5,183.2h174.7V8.9H305.5L305.5,183.2z"/>
<path class="st1" d="M305.5,192.1H113.1V0h192.4L305.5,192.1z M122,183.2h174.7V8.9H122L122,183.2z"/>
<path class="st2" d="M117.5,4.4h183.5V188H117.5V4.4z"/>
<path class="st3" d="M0,264.1h35.5c10-1.1,19,6,20.1,16c0.1,0.6,0.1,1.1,0.1,1.7c0.5,8-4.9,15.1-12.8,16.7c8.2,1.9,14,9.3,13.8,17.7
	c0.4,10.3-7.7,18.9-18,19.3c-0.9,0-1.8,0-2.7-0.1H0V264.1z M32.4,293.5c5.1,0,9.2-4.1,9.2-9.2c0-5.1-4.1-9.2-9.2-9.2H12.6v18.5H32.4
	z M32.9,324.2c5.2,1,10.2-2.3,11.3-7.5c0.2-0.8,0.2-1.6,0.2-2.4c0-5.4-4.3-9.8-9.7-9.8c-0.4,0-0.8,0-1.1,0.1H12.6v19.7L32.9,324.2z
	 M65.3,268.2c0-3.8,3.1-6.9,6.9-6.9c3.8,0,6.9,3.1,6.9,6.9c0,3.8-3.1,6.9-6.9,6.9h0C68.4,275,65.3,272,65.3,268.2z M66.7,283.6h11.2
	v51.5H66.7V283.6z M92.4,323.2v-29.7h-8.9v-9.8h8.9v-14.1h11.2v14h10.5v9.8h-10.5V320c0,3.5,1.7,6,4.9,6c1.8,0.1,3.6-0.6,5-1.8
	l2.7,8.4c-3,2.4-6.7,3.6-10.6,3.3c-6.5,0.7-12.4-4-13.1-10.5C92.4,324.7,92.4,323.9,92.4,323.2z M185.1,301.5c0-5.5-2.5-8.9-8.4-8.9
	c-4.8,0.3-9.2,2.8-11.9,6.8v36h-11.2v-34c0-5.5-2.5-8.9-8.9-8.9c-4.8,0.4-9.1,2.9-11.8,6.9v35.5h-10.8v-51.5h11v7
	c4.1-5.1,10.2-8.1,16.7-8.3c6.3-0.6,12.2,3.4,14,9.5c4-5.9,10.6-9.4,17.7-9.5c7.5-0.8,14.1,4.7,14.9,12.1c0.1,1.1,0.1,2.3-0.1,3.4
	V335h-11.3L185.1,301.5z M240.1,329.6c-4.3,4.6-10.3,7-16.6,6.8c-9.4,0.3-17.4-7-17.7-16.5c0-0.2,0-0.4,0-0.5
	c-0.1-9.2,7.3-16.6,16.5-16.7c0.4,0,0.9,0,1.3,0c6.2-0.3,12.3,2.1,16.6,6.6v-7.6c0-5.9-4.9-9.6-12.1-9.6c-5.7,0-11.1,2.4-15.1,6.5
	l-4.6-7.8c5.8-5.5,13.6-8.5,21.6-8.3c11.4,0,21.4,4.8,21.4,18.6v34.1h-11.3V329.6z M240.1,315.6c-3-3.6-7.6-5.5-12.2-5.3
	c-5.1-0.7-9.8,2.8-10.5,7.9c-0.7,5.1,2.8,9.8,7.9,10.5c0.9,0.1,1.7,0.1,2.6,0c4.7,0.2,9.2-1.7,12.2-5.3V315.6z M263.6,354.7v-71H275
	v7c3.9-5.2,10-8.3,16.5-8.3c13.3,0,22.8,10,22.8,26.6c0,16.6-9.5,26.6-22.8,26.6c-6.4,0.2-12.5-2.6-16.5-7.6v26.6L263.6,354.7z
	 M288,292.6c-5.2,0.1-10.1,2.7-13.2,6.9v20.3c3.1,4.2,8,6.8,13.2,6.9c8.4-0.3,14.9-7.4,14.6-15.7c0-0.5-0.1-0.9-0.1-1.4
	c1.2-8.2-4.5-15.9-12.7-17.1c-0.6-0.1-1.2-0.1-1.8-0.2V292.6z M410,281.3l-21.8,53.8h-5.3l-21.7-53.8v53.8h-12.4v-71h17.7l19.3,47.8
	l19.3-47.8h17.7v71h-12.4L410,281.3z M431.9,309.3c0-14.7,11.9-26.6,26.6-26.6c14.7,0,26.6,11.9,26.6,26.6s-11.9,26.6-26.6,26.6
	c-14.2,0.5-26.1-10.6-26.6-24.8C431.9,310.5,431.9,309.9,431.9,309.3z M473.3,307.3c-1.2-8.2-8.8-13.9-17-12.7s-13.9,8.8-12.7,17
	c1.1,7.4,7.3,12.8,14.8,12.9c8.5-0.2,15.2-7.3,15-15.9C473.3,308.2,473.3,307.8,473.3,307.3z M530.2,328.1c-3.9,5.2-10,8.3-16.5,8.3
	c-13.2,0-22.9-10-22.9-26.6c0-16.6,9.6-26.6,22.9-26.6c6.5,0,12.6,3.2,16.5,8.4V265h10.9v71h-10.9L530.2,328.1z M530.2,299.2
	c-3.1-4.3-8-6.8-13.3-6.9c-8.4,0.3-14.9,7.4-14.6,15.7c0,0.5,0.1,0.9,0.1,1.4c-1.1,8.3,4.7,15.8,13,16.9c0.5,0.1,1,0.1,1.5,0.1
	c5.3-0.1,10.2-2.6,13.3-6.8V299.2z M576.6,282.4c14.1,0,25.5,11.4,25.5,25.4c0,0.9,0,1.7-0.1,2.6v2.7h-39.7
	c0.8,8.4,8,14.7,16.4,14.2c5.4,0,10.6-2,14.5-5.7l5.1,7.4c-5.7,5.1-13.2,7.7-20.8,7.5c-14.9,0.2-27.2-11.6-27.4-26.5
	C549.9,295,561.7,282.7,576.6,282.4L576.6,282.4z M562.2,305.2h28.9c0-7.6-6.2-13.7-13.8-13.7c-0.2,0-0.4,0-0.6,0
	C568.9,291.4,562.5,297.4,562.2,305.2z"/>
</svg>
