<?xml version="1.0" encoding="utf-8"?>
<!-- Generator: Adobe Illustrator 24.0.2, SVG Export Plug-In . SVG Version: 6.00 Build 0)  -->
<svg version="1.1" id="Layer_1" xmlns="http://www.w3.org/2000/svg" xmlns:xlink="http://www.w3.org/1999/xlink" x="0px" y="0px"
	 viewBox="0 0 719.5 168.6" style="enable-background:new 0 0 719.5 168.6;" xml:space="preserve">
<style type="text/css">
	.st0{fill:#00683F;}
	.st1{fill:#231F20;}
	.st2{fill:#636466;}
</style>
<path class="st0" d="M21.6,154.7c1.7,0,3.3,0.8,4.3,2.2l-1.5,0.9c-0.6-0.9-1.7-1.4-2.8-1.4c-2.1,0-3.9,1.7-3.9,3.9s1.7,3.9,3.9,3.9
	c0.9,0,1.8-0.4,2.5-1v-1.7h-3.2v-1.6H26v4c-1.1,1.3-2.7,2-4.4,2c-3.1,0-5.5-2.5-5.5-5.5S18.5,154.6,21.6,154.7L21.6,154.7
	L21.6,154.7z M27.6,157.8h1.7v1.2c0.6-0.8,1.5-1.3,2.5-1.3v1.7h-0.5c-0.8,0-1.5,0.4-2,1v5.3h-1.7V157.8z M36.2,157.6
	c2.1,0,3.8,1.7,3.8,3.8c0,0.1,0,0.3,0,0.4v0.4h-6c0.1,1.3,1.2,2.2,2.5,2.1c0.8,0,1.6-0.3,2.2-0.8l0.8,1.1c-0.9,0.8-2,1.2-3.1,1.1
	c-2.2,0-4.1-1.8-4.1-4C32.2,159.5,34,157.6,36.2,157.6L36.2,157.6z M34.1,161h4.3c0-1.1-0.9-2-2-2c-0.1,0-0.1,0-0.2,0
	C35.1,159,34.1,159.9,34.1,161z M42,167.1c0.5,0.1,0.9-0.2,1.1-0.7l0.4-0.9l-3.2-7.8h1.8l2.3,5.8l2.3-5.8h1.8l-3.7,9.1
	c-0.4,1.1-1.5,1.8-2.7,1.7c-0.3,0-0.6,0-0.9-0.1l0.3-1.5C41.5,167.1,41.7,167.1,42,167.1z M49.2,163.3c0.7,0.7,1.6,1.1,2.6,1.1
	c1,0,1.5-0.4,1.5-0.9s-0.8-0.9-1.8-1.1c-1.3-0.3-2.9-0.6-2.9-2.4c0-1.3,1.1-2.4,3-2.4c1.1,0,2.2,0.4,3,1.1l-0.7,1.2
	c-0.6-0.6-1.4-0.9-2.3-0.8c-0.9,0-1.4,0.3-1.4,0.9s0.8,0.8,1.7,1c1.3,0.3,3,0.7,3,2.5c0,1.4-1.1,2.4-3.2,2.4c-1.2,0-2.4-0.4-3.3-1.2
	L49.2,163.3z M59.9,157.6c1.1,0,2.2,0.5,2.9,1.4l-1.1,1c-0.4-0.6-1.1-1-1.8-0.9c-1.4,0.1-2.5,1.4-2.3,2.8c0.1,1.2,1.1,2.2,2.3,2.3
	c0.7,0,1.4-0.3,1.8-0.9l1.1,1c-0.7,0.9-1.8,1.4-3,1.4c-2.2,0-4.1-1.8-4.1-4.1S57.6,157.6,59.9,157.6L59.9,157.6z M68.8,164.7
	c-0.6,0.7-1.6,1.1-2.5,1c-1.4,0.1-2.6-1-2.7-2.4c0,0,0-0.1,0-0.1c0-1.4,1.1-2.5,2.4-2.5c0.1,0,0.2,0,0.2,0c0.9-0.1,1.9,0.3,2.5,1
	v-1.2c0-0.9-0.7-1.4-1.8-1.4c-0.9,0-1.7,0.4-2.3,1l-0.7-1.2c0.9-0.8,2-1.3,3.2-1.2c1.7,0,3.2,0.7,3.2,2.8v5.1h-1.7V164.7z
	 M68.8,162.7c-0.5-0.5-1.1-0.8-1.8-0.8c-0.8-0.1-1.5,0.4-1.6,1.1c-0.1,0.8,0.4,1.5,1.1,1.6c0.2,0,0.3,0,0.5,0c0.7,0,1.4-0.3,1.8-0.8
	V162.7z M72.2,154.8h1.7v10.7h-1.7V154.8z M79.2,157.6c2.1,0,3.8,1.7,3.8,3.8c0,0.1,0,0.3,0,0.4v0.4h-6c0.1,1.3,1.2,2.2,2.5,2.1
	c0.8,0,1.6-0.3,2.2-0.8l0.8,1.1c-0.9,0.8-2,1.2-3.1,1.1c-2.2,0-4.1-1.8-4.1-4C75.2,159.5,76.9,157.6,79.2,157.6L79.2,157.6z M77,161
	h4.3c0-1.1-0.9-2-2-2c-0.1,0-0.1,0-0.2,0C78.1,159,77.1,159.9,77,161z M84.1,167c0.6-0.3,1-0.9,1.2-1.5H85c-0.5,0-1-0.4-1-1
	c0,0,0,0,0,0c0-0.6,0.5-1.1,1.1-1.1c0.7,0,1.3,0.6,1.2,1.3c0,0,0,0.1,0,0.1c0,1.1-0.6,2.2-1.6,2.8L84.1,167z M96.6,156.5H91v-1.6
	h7.8v1.3l-4.2,9.4h-2L96.6,156.5z M99.6,164c4.1-3.1,5.8-4.5,5.8-6c0-0.9-0.8-1.7-1.8-1.7c-0.1,0-0.1,0-0.2,0
	c-1.1,0-2.2,0.4-2.9,1.3l-1.1-1.2c1-1.1,2.5-1.8,4-1.7c1.9-0.2,3.6,1.1,3.8,3c0,0.1,0,0.2,0,0.3c0,2-1.8,3.7-4.7,5.9h4.7v1.6h-7.7
	V164z M109.1,168.4v-10.7h1.7v1.1c0.6-0.8,1.5-1.2,2.5-1.2c2,0,3.4,1.5,3.4,4s-1.4,4-3.4,4c-1,0-1.9-0.4-2.5-1.2v4L109.1,168.4z
	 M112.8,159c-0.8,0-1.5,0.4-2,1v3.1c0.5,0.6,1.2,1,2,1c1.4-0.2,2.4-1.5,2.2-3C114.8,160.1,113.9,159.2,112.8,159z M118,168.4v-10.7
	h1.7v1.1c0.6-0.8,1.5-1.2,2.5-1.2c2,0,3.4,1.5,3.4,4s-1.4,4-3.4,4c-1,0-1.9-0.5-2.5-1.3v4L118,168.4z M121.7,159c-0.8,0-1.5,0.4-2,1
	v3.1c0.5,0.6,1.2,1,2,1c1.4-0.2,2.4-1.5,2.2-3C123.7,160.1,122.8,159.2,121.7,159z M126.8,155.5c0-0.6,0.5-1,1-1s1,0.5,1,1
	s-0.5,1-1,1S126.8,156,126.8,155.5L126.8,155.5z M127,157.8h1.7v7.7H127V157.8z M201.7,154.8h5.2c1.5-0.2,2.9,0.9,3,2.4
	c0,0.1,0,0.2,0,0.3c0,1.2-0.7,2.2-1.9,2.4c1.2,0.3,2,1.4,2,2.6c0.1,1.5-1.2,2.8-2.7,2.9c-0.1,0-0.3,0-0.4,0h-5.4L201.7,154.8z
	 M206.5,159.3c0.8,0,1.4-0.6,1.4-1.4c0-0.8-0.6-1.4-1.4-1.4c0,0,0,0,0,0h-3v2.8H206.5z M206.5,163.9c0.8,0.1,1.5-0.4,1.6-1.2
	c0-0.1,0-0.2,0-0.3c0-0.8-0.6-1.5-1.4-1.5c-0.1,0-0.1,0-0.2,0h-3.1v3L206.5,163.9z M211.5,155.5c0-0.6,0.5-1,1-1s1,0.5,1,1
	s-0.5,1-1,1S211.5,156,211.5,155.5L211.5,155.5z M211.7,157.8h1.7v7.7h-1.7V157.8z M215.5,163.7v-4.5h-1.3v-1.5h1.3v-2.1h1.7v2.1
	h1.6v1.5h-1.6v4c0,0.5,0.3,0.9,0.7,0.9c0.3,0,0.6-0.1,0.8-0.3l0.4,1.3c-0.4,0.4-1,0.5-1.6,0.5c-1,0.1-1.9-0.6-2-1.5
	C215.5,164,215.5,163.8,215.5,163.7L215.5,163.7z M229.4,160.5c0-0.8-0.4-1.4-1.3-1.4c-0.7,0-1.4,0.4-1.8,1v5.4h-1.6v-5
	c0-0.8-0.4-1.4-1.3-1.4c-0.7,0.1-1.4,0.4-1.8,1v5.4H220v-7.7h1.7v1.1c0.6-0.8,1.5-1.2,2.5-1.2c1-0.1,1.8,0.5,2.1,1.4
	c0.6-0.9,1.6-1.4,2.6-1.4c1.1-0.1,2.1,0.6,2.2,1.7c0,0.2,0,0.4,0,0.6v5.6h-1.7L229.4,160.5z M237.7,164.7c-0.6,0.7-1.6,1.1-2.5,1
	c-1.4,0.1-2.6-1-2.7-2.4c0,0,0-0.1,0-0.1c0-1.4,1.1-2.5,2.4-2.5c0.1,0,0.2,0,0.2,0c0.9-0.1,1.9,0.3,2.5,1v-1.2
	c0-0.9-0.7-1.4-1.8-1.4c-0.9,0-1.7,0.4-2.3,1l-0.7-1.2c0.9-0.8,2-1.3,3.2-1.2c1.7,0,3.2,0.7,3.2,2.8v5.1h-1.7L237.7,164.7z
	 M237.7,162.7c-0.5-0.5-1.1-0.8-1.8-0.8c-0.8-0.1-1.5,0.4-1.6,1.1c-0.1,0.8,0.4,1.5,1.1,1.6c0.2,0,0.3,0,0.5,0
	c0.7,0,1.4-0.3,1.8-0.8V162.7z M241.2,168.4v-10.7h1.7v1.1c0.6-0.8,1.5-1.2,2.5-1.2c2,0,3.4,1.5,3.4,4s-1.4,4-3.4,4
	c-1,0-1.9-0.5-2.5-1.3v4L241.2,168.4z M244.9,159c-0.8,0-1.5,0.4-2,1v3.1c0.5,0.6,1.2,1,2,1c1.4-0.2,2.4-1.5,2.2-3
	C246.9,160.1,246,159.2,244.9,159z M263.3,157.4l-3.3,8h-0.8l-3.3-8v8H254v-10.6h2.7l2.9,7.2l2.9-7.2h2.6v10.7h-1.9L263.3,157.4z
	 M266.6,161.6c0-2.2,1.8-4,4-4s4,1.8,4,4s-1.8,4-4,4c-2.1,0.1-3.9-1.6-4-3.7C266.6,161.8,266.6,161.7,266.6,161.6z M272.8,161.6
	c-0.2-1.2-1.3-2.1-2.6-1.9c-1.2,0.2-2.1,1.3-1.9,2.6c0.2,1.1,1.1,1.9,2.2,1.9c1.3,0,2.3-1.1,2.3-2.4
	C272.8,161.8,272.8,161.7,272.8,161.6L272.8,161.6z M281.3,164.4c-0.6,0.8-1.5,1.2-2.5,1.2c-2,0-3.4-1.5-3.4-4c-0.2-2,1.2-3.7,3.1-4
	c0.1,0,0.2,0,0.3,0c1,0,1.9,0.5,2.5,1.3v-4h1.7v10.7h-1.7V164.4z M281.3,160.1c-0.5-0.6-1.2-1-2-1c-1.4,0.2-2.4,1.5-2.2,3
	c0.2,1.1,1.1,2,2.2,2.2c0.8,0,1.5-0.4,2-1V160.1z M288.3,157.6c2.1,0,3.8,1.7,3.8,3.8c0,0.1,0,0.3,0,0.4v0.4h-6
	c0.1,1.3,1.2,2.2,2.5,2.1c0.8,0,1.6-0.3,2.2-0.8l0.8,1.1c-0.9,0.8-2,1.2-3.1,1.1c-2.2,0-4.1-1.8-4.1-4
	C284.2,159.5,286,157.6,288.3,157.6L288.3,157.6z M286.1,161h4.3c0-1.1-0.9-2-2-2c-0.1,0-0.1,0-0.2,0
	C287.1,159,286.2,159.9,286.1,161z M293.2,167c0.6-0.3,1-0.9,1.2-1.5h-0.3c-0.5,0-1-0.4-1-1c0,0,0,0,0,0c0-0.6,0.5-1.1,1.1-1.1
	c0.7,0,1.3,0.6,1.2,1.3c0,0,0,0.1,0,0.1c0,1.1-0.6,2.1-1.5,2.7L293.2,167z M305.6,156.5h-5.5v-1.6h7.7v1.3l-4.1,9.4h-2L305.6,156.5z
	 M308.7,164c4.1-3.1,5.8-4.5,5.8-6c0-0.9-0.8-1.7-1.8-1.7c-0.1,0-0.1,0-0.2,0c-1.1,0-2.2,0.4-2.9,1.3l-1.1-1.2c1-1.1,2.5-1.8,4-1.7
	c1.9-0.2,3.6,1.1,3.8,3c0,0.1,0,0.2,0,0.3c0,2-1.8,3.7-4.7,5.9h4.7v1.6h-7.7L308.7,164z M318.2,168.4v-10.7h1.7v1.1
	c0.6-0.8,1.5-1.2,2.5-1.2c2,0,3.4,1.5,3.4,4s-1.4,4-3.4,4c-1,0-1.9-0.5-2.5-1.3v4L318.2,168.4z M321.8,159c-0.8,0-1.5,0.4-2,1v3.1
	c0.5,0.6,1.2,1,2,1c1.4-0.2,2.4-1.5,2.2-3C323.8,160.1,322.9,159.2,321.8,159z M327.1,168.4v-10.7h1.7v1.1c0.6-0.8,1.5-1.2,2.5-1.2
	c2,0,3.4,1.5,3.4,4s-1.4,4-3.4,4c-1,0-1.9-0.5-2.5-1.3v4L327.1,168.4z M330.8,159c-0.8,0-1.5,0.4-2,1v3.1c0.5,0.6,1.2,1,2,1
	c1.4-0.2,2.4-1.5,2.2-3C332.8,160.1,331.9,159.2,330.8,159z M335.9,155.5c0-0.6,0.5-1,1-1l0,0c0.6,0,1,0.5,1,1c0,0.6-0.5,1-1,1
	C336.3,156.5,335.9,156,335.9,155.5z M336.1,157.8h1.7v7.7h-1.7V157.8z M386.8,154.8h5.2c1.5-0.2,2.9,0.9,3,2.4c0,0.1,0,0.2,0,0.3
	c0,1.2-0.7,2.2-1.9,2.4c1.2,0.3,2,1.4,2,2.6c0.1,1.5-1.2,2.8-2.7,2.9c-0.1,0-0.3,0-0.4,0h-5.3V154.8z M391.6,159.3
	c0.8,0,1.4-0.6,1.4-1.4c0-0.8-0.6-1.4-1.4-1.4c0,0,0,0,0,0h-3v2.8H391.6z M391.6,163.9c0.8,0.1,1.5-0.4,1.6-1.2c0-0.1,0-0.2,0-0.3
	c0-0.8-0.6-1.5-1.4-1.5c-0.1,0-0.1,0-0.2,0h-3.1v3L391.6,163.9z M396.6,155.5c-0.2-0.6,0.2-1.1,0.7-1.3c0.6-0.2,1.1,0.2,1.3,0.7
	c0.1,0.2,0.1,0.4,0,0.6c0.2,0.6-0.2,1.1-0.7,1.3c-0.6,0.2-1.1-0.2-1.3-0.7C396.5,155.8,396.5,155.6,396.6,155.5z M396.8,157.8h1.7
	v7.7h-1.7L396.8,157.8z M400.6,163.7v-4.5h-1.3v-1.5h1.3v-2.1h1.7v2.1h1.6v1.5h-1.6v4c0,0.5,0.3,0.9,0.7,0.9c0.3,0,0.6-0.1,0.8-0.3
	l0.4,1.3c-0.4,0.4-1,0.5-1.6,0.5c-1,0.1-1.9-0.6-2-1.5C400.6,164,400.6,163.8,400.6,163.7L400.6,163.7z M414.5,160.5
	c0-0.8-0.4-1.4-1.3-1.4c-0.7,0-1.4,0.4-1.8,1v5.4h-1.7v-5c0-0.8-0.4-1.4-1.3-1.4c-0.7,0.1-1.4,0.4-1.8,1v5.4h-1.7v-7.7h1.7v1.1
	c0.6-0.8,1.5-1.2,2.5-1.2c1-0.1,1.8,0.5,2.1,1.4c0.6-0.9,1.6-1.4,2.6-1.4c1.1-0.1,2.1,0.6,2.2,1.7c0,0.2,0,0.4,0,0.6v5.6h-1.7
	L414.5,160.5z M422.8,164.7c-0.6,0.7-1.6,1.1-2.5,1c-1.4,0.1-2.6-1-2.7-2.4c0,0,0-0.1,0-0.1c0-1.4,1.1-2.5,2.4-2.5
	c0.1,0,0.2,0,0.2,0c0.9-0.1,1.9,0.3,2.5,1v-1.2c0-0.9-0.7-1.4-1.8-1.4c-0.9,0-1.7,0.4-2.3,1l-0.7-1.2c0.9-0.8,2-1.3,3.2-1.2
	c1.7,0,3.2,0.7,3.2,2.8v5.1h-1.7V164.7z M422.8,162.7c-0.5-0.5-1.1-0.8-1.8-0.8c-0.8-0.1-1.5,0.4-1.6,1.1c-0.1,0.8,0.4,1.5,1.1,1.6
	c0.2,0,0.3,0,0.5,0c0.7,0,1.4-0.3,1.8-0.8V162.7z M426.3,168.4v-10.7h1.7v1.1c0.6-0.8,1.5-1.2,2.5-1.2c2,0,3.4,1.5,3.4,4
	s-1.4,4-3.4,4c-1,0-1.9-0.5-2.5-1.3v4L426.3,168.4z M430,159c-0.8,0-1.5,0.4-2,1v3.1c0.5,0.6,1.2,1,2,1c1.4-0.2,2.4-1.5,2.2-3
	C432,160.1,431.1,159.2,430,159z M448.4,157.4l-3.3,8h-0.8l-3.3-8v8h-1.9v-10.6h2.6l2.9,7.2l2.9-7.2h2.6v10.7h-1.9L448.4,157.4z
	 M451.7,161.6c0-2.2,1.8-4,4-4s4,1.8,4,4s-1.8,4-4,4c-2.1,0.1-3.9-1.6-4-3.7C451.7,161.8,451.7,161.7,451.7,161.6z M457.9,161.6
	c-0.2-1.2-1.3-2.1-2.6-1.9c-1.2,0.2-2.1,1.3-1.9,2.6c0.2,1.1,1.1,1.9,2.2,1.9c1.3,0,2.3-1.1,2.3-2.4
	C457.9,161.8,457.9,161.7,457.9,161.6z M466.4,164.4c-0.6,0.8-1.5,1.2-2.5,1.2c-2,0-3.4-1.5-3.4-4c-0.2-2,1.2-3.7,3.1-4
	c0.1,0,0.2,0,0.3,0c1,0,1.9,0.5,2.5,1.3v-4h1.7v10.7h-1.7V164.4z M466.4,160.1c-0.5-0.6-1.2-1-2-1c-1.4,0.2-2.4,1.5-2.2,3
	c0.2,1.1,1.1,2,2.2,2.2c0.8,0,1.5-0.4,2-1V160.1z M473.4,157.6c2.1,0,3.8,1.7,3.8,3.8c0,0.1,0,0.3,0,0.4v0.4h-6
	c0.1,1.3,1.2,2.2,2.5,2.1c0.8,0,1.6-0.3,2.2-0.8l0.8,1.1c-0.9,0.8-2,1.2-3.1,1.1c-2.2,0-4.1-1.8-4.1-4
	C469.3,159.5,471.1,157.6,473.4,157.6L473.4,157.6z M471.2,161h4.3c0-1.1-0.9-2-2-2c-0.1,0-0.1,0-0.2,0
	C472.2,159,471.3,159.9,471.2,161z M478.3,167c0.6-0.3,1-0.9,1.2-1.5h-0.3c-0.5,0-1-0.4-1-1c0,0,0,0,0,0c0-0.6,0.5-1.1,1.1-1.1
	c0.7,0,1.3,0.6,1.2,1.3c0,0,0,0.1,0,0.1c0,1.1-0.6,2.1-1.5,2.7L478.3,167z M487.8,157.3l-1.7,1.8l-1.1-1.1l3.1-3.1h1.6v10.7h-1.9
	L487.8,157.3z M496.1,163H491v-1.5l4.4-6.7h2.6v6.6h1.4v1.6h-1.4v2.4h-1.9V163z M492.8,161.4h3.2v-4.9L492.8,161.4z M505,163h-5.1
	v-1.5l4.4-6.7h2.6v6.6h1.4v1.6h-1.4v2.4H505V163z M501.8,161.4h3.2v-4.9L501.8,161.4z M509.5,168.4v-10.7h1.7v1.1
	c0.6-0.8,1.5-1.2,2.5-1.2c2,0,3.4,1.5,3.4,4s-1.4,4-3.4,4c-1,0-1.9-0.5-2.5-1.3v4L509.5,168.4z M513.2,159c-0.8,0-1.5,0.4-2,1v3.1
	c0.5,0.6,1.2,1,2,1c1.4-0.2,2.4-1.5,2.2-3C515.2,160.1,514.3,159.2,513.2,159z M518.5,168.4v-10.7h1.7v1.1c0.6-0.8,1.5-1.2,2.5-1.2
	c2,0,3.4,1.5,3.4,4s-1.4,4-3.4,4c-1,0-1.9-0.5-2.5-1.3v4L518.5,168.4z M522.2,159c-0.8,0-1.5,0.4-2,1v3.1c0.5,0.6,1.2,1,2,1
	c1.4-0.2,2.4-1.5,2.2-3C524.2,160.1,523.3,159.2,522.2,159z M527.3,155.5c0-0.6,0.5-1,1-1c0.6,0,1,0.5,1,1s-0.5,1-1,1
	C527.7,156.5,527.3,156,527.3,155.5C527.3,155.5,527.3,155.5,527.3,155.5z M527.5,157.8h1.7v7.7h-1.7V157.8z M573,154.8h5.2
	c1.5-0.2,2.9,0.9,3,2.4c0,0.1,0,0.2,0,0.3c0,1.2-0.7,2.2-1.9,2.4c1.2,0.3,2,1.4,2,2.6c0.1,1.5-1.2,2.8-2.7,2.9c-0.1,0-0.3,0-0.4,0
	H573L573,154.8z M577.9,159.3c0.8,0,1.4-0.6,1.4-1.4c0-0.8-0.6-1.4-1.4-1.4c0,0,0,0,0,0h-3v2.8H577.9z M577.9,163.9
	c0.8,0.1,1.5-0.4,1.6-1.2c0-0.1,0-0.2,0-0.3c0-0.8-0.6-1.5-1.4-1.5c-0.1,0-0.1,0-0.2,0h-3.1v3L577.9,163.9z M582.8,155.5
	c0-0.6,0.5-1,1-1c0.6,0.2,0.9,0.7,0.7,1.3c-0.1,0.3-0.4,0.6-0.7,0.7C583.3,156.4,582.8,156,582.8,155.5z M583,157.8h1.8v7.7h-1.7
	L583,157.8z M586.9,163.7v-4.5h-1.3v-1.5h1.3v-2.1h1.7v2.1h1.6v1.5h-1.6v4c0,0.5,0.3,0.9,0.7,0.9c0.3,0,0.6-0.1,0.8-0.3l0.4,1.3
	c-0.4,0.4-1,0.5-1.6,0.5c-1,0.1-1.9-0.6-2-1.5C586.9,164,586.9,163.8,586.9,163.7L586.9,163.7z M600.8,160.5c0-0.8-0.4-1.4-1.3-1.4
	c-0.7,0-1.4,0.4-1.8,1v5.4H596v-5c0-0.8-0.4-1.4-1.3-1.4c-0.7,0.1-1.4,0.4-1.8,1v5.4h-1.7v-7.7h1.7v1.1c0.6-0.8,1.5-1.2,2.5-1.2
	c1-0.1,1.8,0.5,2.1,1.4c0.6-0.9,1.6-1.4,2.6-1.4c1.1-0.1,2.1,0.6,2.2,1.7c0,0.2,0,0.4,0,0.6v5.6h-1.7L600.8,160.5z M609.1,164.7
	c-0.6,0.7-1.6,1.1-2.5,1c-1.4,0.1-2.6-1-2.7-2.4c0,0,0-0.1,0-0.1c0-1.4,1.1-2.5,2.4-2.5c0.1,0,0.2,0,0.2,0c0.9-0.1,1.9,0.3,2.5,1
	v-1.2c0-0.9-0.7-1.4-1.8-1.4c-0.9,0-1.7,0.4-2.3,1l-0.7-1.2c0.9-0.8,2-1.3,3.2-1.2c1.7,0,3.2,0.7,3.2,2.8v5.1h-1.7L609.1,164.7z
	 M609.1,162.7c-0.5-0.5-1.1-0.8-1.8-0.8c-0.8-0.1-1.5,0.4-1.6,1.1c-0.1,0.8,0.4,1.5,1.1,1.6c0.2,0,0.3,0,0.5,0
	c0.7,0,1.4-0.3,1.8-0.8V162.7z M612.6,168.4v-10.7h1.7v1.1c0.6-0.8,1.5-1.2,2.5-1.2c2,0,3.4,1.5,3.4,4s-1.4,4-3.4,4
	c-1,0-1.9-0.5-2.5-1.3v4L612.6,168.4z M616.3,159c-0.8,0-1.5,0.4-2,1v3.1c0.5,0.6,1.2,1,2,1c1.4-0.2,2.4-1.5,2.2-3
	C618.3,160.1,617.4,159.2,616.3,159z M634.6,157.4l-3.3,8h-0.8l-3.3-8v8h-1.9v-10.6h2.6l2.9,7.2l2.9-7.2h2.6v10.7h-1.9L634.6,157.4z
	 M637.9,161.6c0-2.2,1.8-4,4-4s4,1.8,4,4s-1.8,4-4,4c-2.1,0.1-3.9-1.6-4-3.7C637.9,161.8,637.9,161.7,637.9,161.6z M644.1,161.6
	c-0.2-1.2-1.3-2.1-2.6-1.9c-1.2,0.2-2.1,1.3-1.9,2.6c0.2,1.1,1.1,1.9,2.2,1.9c1.3,0,2.3-1.1,2.3-2.4
	C644.2,161.8,644.1,161.7,644.1,161.6z M652.8,164.4c-0.6,0.8-1.5,1.2-2.5,1.2c-2,0-3.4-1.5-3.4-4c-0.2-2,1.2-3.7,3.1-4
	c0.1,0,0.2,0,0.3,0c1,0,1.9,0.5,2.5,1.3v-4h1.7v10.7h-1.7L652.8,164.4z M652.8,160.1c-0.5-0.6-1.2-1-2-1c-1.4,0.2-2.4,1.5-2.2,3
	c0.2,1.1,1.1,2,2.2,2.2c0.8,0,1.5-0.4,2-1V160.1z M659.7,157.6c2.1,0,3.8,1.7,3.8,3.8c0,0.1,0,0.3,0,0.4v0.4h-6
	c0.1,1.3,1.2,2.2,2.5,2.1c0.8,0,1.6-0.3,2.2-0.8l0.8,1.1c-0.9,0.8-2,1.2-3.1,1.1c-2.2,0-4.1-1.8-4.1-4S657.4,157.6,659.7,157.6
	L659.7,157.6z M657.5,161h4.3c0-1.1-0.9-2-2-2c-0.1,0-0.1,0-0.2,0C658.5,159,657.6,159.9,657.5,161L657.5,161z M664.6,167
	c0.6-0.3,1-0.9,1.2-1.5h-0.3c-0.5,0-1-0.4-1-1c0,0,0,0,0,0c0-0.6,0.5-1.1,1.1-1.1c0.7,0,1.3,0.6,1.2,1.3c0,0,0,0.1,0,0.1
	c0,1.1-0.6,2.1-1.5,2.7L664.6,167z M671.9,164c4.1-3.1,5.8-4.5,5.8-6c0-0.9-0.8-1.7-1.8-1.7c-0.1,0-0.1,0-0.2,0
	c-1.1,0-2.2,0.4-2.9,1.3l-1.1-1.2c1-1.1,2.5-1.8,4-1.7c1.9-0.2,3.6,1.1,3.8,3c0,0.1,0,0.2,0,0.3c0,2-1.8,3.7-4.7,5.9h4.7v1.6h-7.7
	L671.9,164z M683.3,160c-1.2-0.2-2.1-1.3-2.2-2.5c0-2,2-2.8,4-2.8s4,0.8,4,2.8c-0.1,1.3-1.1,2.3-2.3,2.5c1.3,0.3,2.3,1.4,2.4,2.8
	c0,2-2,2.9-4,2.9s-4-1-4-2.9C681.3,161.5,682.1,160.4,683.3,160z M685,160.8c-0.7,0-2.2,0.6-2.2,1.7s1,1.5,2.2,1.5s2.2-0.6,2.2-1.5
	S685.7,161,685,160.8z M685,156.3c-1.2,0-2,0.5-2,1.4s1.4,1.4,2,1.5s2-0.5,2-1.5S686.2,156.3,685,156.3z M692.5,160
	c-1.2-0.2-2.1-1.3-2.2-2.5c0-2,2-2.8,4-2.8s4,0.8,4,2.8c-0.1,1.3-1,2.3-2.2,2.5c1.3,0.3,2.3,1.4,2.4,2.8c0,2-2,2.9-4,2.9s-4-1-4-2.9
	C690.5,161.5,691.3,160.4,692.5,160L692.5,160z M694.2,160.8c-0.7,0-2.2,0.6-2.2,1.7s1,1.5,2.2,1.5s2.2-0.6,2.2-1.5
	S694.8,161,694.2,160.8z M694.2,156.3c-1.2,0-2,0.5-2,1.4s1.4,1.4,2,1.5s2-0.5,2-1.5S695.4,156.3,694.2,156.3z M699.7,168.4v-10.7
	h1.7v1.1c0.6-0.8,1.5-1.2,2.5-1.2c2,0,3.4,1.5,3.4,4s-1.4,4-3.4,4c-1,0-1.9-0.5-2.5-1.3v4L699.7,168.4z M703.4,159
	c-0.8,0-1.5,0.4-2,1v3.1c0.5,0.6,1.2,1,2,1c1.4-0.2,2.4-1.5,2.2-3C705.4,160.1,704.5,159.2,703.4,159z M708.8,168.4v-10.7h1.7v1.1
	c0.6-0.8,1.5-1.2,2.5-1.2c2,0,3.4,1.5,3.4,4s-1.4,4-3.4,4c-1,0-1.9-0.5-2.5-1.3v4L708.8,168.4z M712.4,159c-0.8,0-1.5,0.4-2,1v3.1
	c0.5,0.6,1.2,1,2,1c1.4-0.2,2.4-1.5,2.2-3C714.4,160.1,713.5,159.2,712.4,159z M717.5,155.5c0-0.6,0.5-1,1-1c0.6,0,1,0.5,1,1
	s-0.5,1-1,1l0,0C717.9,156.5,717.5,156,717.5,155.5z M717.7,157.8h1.7v7.7h-1.7V157.8z"/>
<path class="st1" d="M197.1,0h71.4v71.4h-71.4L197.1,0z M270.5,0h71.4v71.4h-71.4V0z M197.1,73.4h71.4v71.4h-71.4V73.4z M270.5,73.4
	h71.4v71.4h-71.4V73.4z M385.4,0h34.7v34.7h-34.7V0z M422.1,0h34.7v34.7h-34.7L422.1,0z M458.8,0h34.7v34.7h-34.7V0z M495.5,0h34.7
	v34.7h-34.7L495.5,0z M385.4,36.7h34.7v34.7h-34.7V36.7z M422.1,36.7h34.7v34.7h-34.7L422.1,36.7z M458.8,36.7h34.7v34.7h-34.7V36.7
	z M495.5,36.7h34.7v34.7h-34.7L495.5,36.7z M385.4,73.4h34.7v34.7h-34.7V73.4z M422.1,73.4h34.7v34.7h-34.7L422.1,73.4z M458.8,73.4
	h34.7v34.7h-34.7V73.4z M495.5,73.4h34.7v34.7h-34.7L495.5,73.4z M385.4,110.1h34.7v34.7h-34.7V110.1z M422.1,110.1h34.7v34.7h-34.7
	L422.1,110.1z M458.8,110.1h34.7v34.7h-34.7V110.1z M495.5,110.1h34.7v34.7h-34.7L495.5,110.1z M573.6,0H590v16.3h-16.3V0z M592,0
	h16.3v16.3H592V0z M610.3,0h16.3v16.3h-16.3V0z M628.7,0H645v16.3h-16.3V0z M647,0h16.3v16.3H647V0z M665.4,0h16.3v16.3h-16.3V0z
	 M683.7,0H700v16.3h-16.3V0z M702.1,0h16.3v16.3h-16.3V0z M573.6,18.3H590v16.3h-16.3V18.3z M592,18.3h16.3v16.3H592V18.3z
	 M610.3,18.3h16.3v16.3h-16.3V18.3z M628.7,18.3H645v16.3h-16.3V18.3z M647,18.3h16.3v16.3H647V18.3z M665.4,18.3h16.3v16.3h-16.3
	V18.3z M683.7,18.3H700v16.3h-16.3V18.3z M702.1,18.3h16.3v16.3h-16.3V18.3z M573.6,36.7H590V53h-16.3V36.7z M592,36.7h16.3V53H592
	V36.7z M610.3,36.7h16.3V53h-16.3V36.7z M628.7,36.7H645V53h-16.3V36.7z M647,36.7h16.3V53H647V36.7z M665.4,36.7h16.3V53h-16.3
	V36.7z M683.7,36.7H700V53h-16.3V36.7z M702.1,36.7h16.3V53h-16.3V36.7z M573.6,55H590v16.3h-16.3V55z M592,55h16.3v16.3H592V55z
	 M610.3,55h16.3v16.3h-16.3V55z M628.7,55H645v16.3h-16.3V55z M647,55h16.3v16.3H647V55z M665.4,55h16.3v16.3h-16.3V55z M683.7,55
	H700v16.3h-16.3V55z M702.1,55h16.3v16.3h-16.3V55z M573.6,73.4H590v16.3h-16.3V73.4z M592,73.4h16.3v16.3H592V73.4z M610.3,73.4
	h16.3v16.3h-16.3V73.4z M628.7,73.4H645v16.3h-16.3V73.4z M647,73.4h16.3v16.3H647V73.4z M665.4,73.4h16.3v16.3h-16.3V73.4z
	 M683.7,73.4H700v16.3h-16.3V73.4z M702.1,73.4h16.3v16.3h-16.3V73.4z M573.6,91.7H590v16.3h-16.3V91.7z M592,91.7h16.3v16.3H592
	V91.7z M610.3,91.7h16.3v16.3h-16.3V91.7z M628.7,91.7H645v16.3h-16.3V91.7z M647,91.7h16.3v16.3H647V91.7z M665.4,91.7h16.3v16.3
	h-16.3V91.7z M683.7,91.7H700v16.3h-16.3V91.7z M702.1,91.7h16.3v16.3h-16.3V91.7z M573.6,110.1H590v16.3h-16.3V110.1z M592,110.1
	h16.3v16.3H592V110.1z M610.3,110.1h16.3v16.3h-16.3V110.1z M628.7,110.1H645v16.3h-16.3V110.1z M647,110.1h16.3v16.3H647V110.1z
	 M665.4,110.1h16.3v16.3h-16.3V110.1z M683.7,110.1H700v16.3h-16.3V110.1z M702.1,110.1h16.3v16.3h-16.3V110.1z M573.6,128.4H590
	v16.3h-16.3V128.4z M592,128.4h16.3v16.3H592V128.4z M610.3,128.4h16.3v16.3h-16.3V128.4z M628.7,128.4H645v16.3h-16.3V128.4z
	 M647,128.4h16.3v16.3H647V128.4z M665.4,128.4h16.3v16.3h-16.3V128.4z M683.7,128.4H700v16.3h-16.3V128.4z M702.1,128.4h16.3v16.3
	h-16.3V128.4z"/>
<path class="st2" d="M0,0h71.4v71.4H0V0z M73.4,0h71.4v71.4H73.4V0z M0,73.4h71.4v71.4H0V73.4z M73.4,73.4h71.4v71.4H73.4V73.4z"/>
</svg>
