<svg xmlns="http://www.w3.org/2000/svg" id="Layer_1" viewBox="0 0 2070 870.1" width="2070" height="870.1"><defs><style>.cls-1,.cls-2{fill:#666;stroke:#ccc;stroke-miterlimit:10;stroke-width:20px}.cls-2{fill:none}.cls-3{fill:#00673e}</style></defs><path d="M70 64h845v616H70zm1080 0h845v616h-845z" class="cls-1"/><path d="M70.5 63.5l844 616m0-616l-844 616" class="cls-2"/><path d="M166.63 775h-8.35v17.93h-8.42v-48H171c9.5 0 15.7 6.19 15.7 15 0 8.57-5.62 13.18-11.38 14.11L187 792.89h-9.72zm3.17-22.68h-11.52v15.26h11.52c4.75 0 8.21-3 8.21-7.63s-3.45-7.68-8.21-7.68zm38.38 4.92c10.44 0 17.14 8 17.14 18.94V778h-26.86c.58 5.26 4.54 9.58 11.09 9.58a14.72 14.72 0 0 0 9.87-3.82l3.46 5c-3.46 3.31-8.57 5-14.11 5-10.44 0-18.22-7.27-18.22-18.29-.01-10.09 7.33-18.23 17.63-18.23zm-9.79 15.41H218a9.3 9.3 0 0 0-9.79-9.22c-6.51.01-9.46 4.97-9.82 9.22zm50.25-15.41c6.77 0 10.87 2.88 13.32 6.19L257 768a9.28 9.28 0 0 0-8-4.1c-6.34 0-10.51 4.75-10.51 11.52s4.18 11.59 10.51 11.59a9.45 9.45 0 0 0 8-4.1l5 4.61c-2.45 3.31-6.55 6.19-13.32 6.19-10.58 0-18-7.71-18-18.29s7.38-18.18 17.96-18.18zm21.46 27.58v-20.09h-5.76v-6.62h5.76v-9.5h7.56v9.5h7.06v6.63h-7.06v18.22c0 2.38 1.15 4.1 3.31 4.1a4.88 4.88 0 0 0 3.38-1.22l1.8 5.69c-1.37 1.3-3.6 2.23-7.13 2.23-5.83-.01-8.92-3.18-8.92-8.94zm42.69 4.32a14.68 14.68 0 0 1-11.23 4.61c-5.69 0-12.1-3.82-12.1-11.52 0-8 6.41-11.3 12.1-11.3 4.68 0 8.71 1.51 11.23 4.46v-5.19c0-4-3.31-6.48-8.14-6.48a14.24 14.24 0 0 0-10.3 4.39l-3.1-5.26a20.68 20.68 0 0 1 14.62-5.62c7.71 0 14.47 3.24 14.47 12.6v23h-7.56zm0-9.43c-1.73-2.38-5-3.6-8.28-3.6-4.25 0-7.42 2.45-7.42 6.26s3.17 6.19 7.42 6.19c3.31 0 6.55-1.22 8.28-3.6zm40.83-8.57c0-5.4-2.74-7.2-7-7.2a11.45 11.45 0 0 0-8.93 4.68v24.27h-7.56v-34.78h7.56v4.75a16.46 16.46 0 0 1 12.24-5.62c7.49 0 11.23 4 11.23 11.16v24.48h-7.56zm20.44 25.2c2.81 3.24 6.41 4.46 11 4.46 5 0 10.3-2.3 10.3-9.43v-4.17a14.12 14.12 0 0 1-11.15 5.8c-8.86 0-15.41-6.41-15.41-17.86 0-11.23 6.48-17.86 15.41-17.86a13.85 13.85 0 0 1 11.16 5.69v-4.83h7.56v33c0 12.53-9.29 15.91-17.86 15.91-5.9 0-10.3-1.3-14.54-5.18zm21.31-27.72a11.28 11.28 0 0 0-8.93-4.68c-6 0-9.79 4.46-9.79 11.16s3.82 11.16 9.79 11.16a11.29 11.29 0 0 0 8.93-4.68zm17.35-23.76h7.56v48h-7.56zm32.84 12.38c10.44 0 17.14 8 17.14 18.94V778h-26.86c.58 5.26 4.54 9.58 11.09 9.58a14.72 14.72 0 0 0 9.87-3.82l3.46 5c-3.46 3.31-8.57 5-14.11 5-10.44 0-18.22-7.27-18.22-18.29-.01-10.09 7.33-18.23 17.63-18.23zm-9.79 15.41h19.59a9.3 9.3 0 0 0-9.79-9.22c-6.49.01-9.44 4.97-9.81 9.22zm53.13-27.79h32.91v7.42h-24.49v12.46h24v7.42h-24v20.74h-8.42zm40.25 13.25h7.56v5.11a14.86 14.86 0 0 1 11.31-5.9v7.49a11.11 11.11 0 0 0-2.38-.22c-3.17 0-7.42 2.16-8.93 4.61v23.69h-7.56zm46.22 31.03a14.68 14.68 0 0 1-11.23 4.61c-5.69 0-12.1-3.82-12.1-11.52 0-8 6.41-11.3 12.1-11.3 4.68 0 8.71 1.51 11.23 4.46v-5.19c0-4-3.31-6.48-8.14-6.48a14.24 14.24 0 0 0-10.3 4.39l-3.1-5.26a20.68 20.68 0 0 1 14.62-5.62c7.71 0 14.47 3.24 14.47 12.6v23h-7.56zm0-9.43c-1.73-2.38-5-3.6-8.28-3.6-4.25 0-7.42 2.45-7.42 6.26s3.17 6.19 7.42 6.19c3.31 0 6.55-1.22 8.28-3.6zm59.98-9.51c0-3.75-1.66-6.26-5.69-6.26-3.38 0-6.55 2.38-8.06 4.61v24.34H614V770.2c0-3.75-1.66-6.26-5.76-6.26-3.31 0-6.41 2.38-8 4.68v24.27h-7.56v-34.78h7.56v4.75a15 15 0 0 1 11.3-5.62c5.18 0 8.35 2.59 9.5 6.41a14.75 14.75 0 0 1 11.81-6.41c6.41 0 10 3.46 10 10.51v25.13h-7.56zm32.83-12.96c10.44 0 17.14 8 17.14 18.94V778h-26.86c.58 5.26 4.54 9.58 11.09 9.58a14.72 14.72 0 0 0 9.86-3.82l3.46 5c-3.46 3.31-8.57 5-14.11 5-10.44 0-18.22-7.27-18.22-18.29 0-10.09 7.34-18.23 17.64-18.23zm-9.79 15.41H678a9.3 9.3 0 0 0-9.79-9.22c-6.51.01-9.46 4.97-9.82 9.22zM723 752.27h-14.58v-7.42h37.52v7.42h-14.55v40.61H723zm20.13 23.19c0-9.94 6.84-18.22 17.86-18.22s17.93 8.28 17.93 18.22-6.77 18.29-17.93 18.29-17.86-8.28-17.86-18.29zm27.94 0c0-6.12-3.6-11.52-10.08-11.52s-10 5.4-10 11.52 3.6 11.59 10 11.59 10.08-5.4 10.08-11.59zm13.31 0c0-9.94 6.84-18.22 17.86-18.22s17.93 8.28 17.93 18.22-6.77 18.29-17.93 18.29-17.86-8.28-17.86-18.29zm27.94 0c0-6.12-3.6-11.52-10.08-11.52s-10 5.4-10 11.52 3.6 11.59 10 11.59 10.08-5.4 10.08-11.59zm15.48-30.6h7.56v48h-7.56zM1357.95 775h-8.35v17.93h-8.42v-48h21.1c9.5 0 15.7 6.19 15.7 15 0 8.57-5.62 13.18-11.38 14.11l11.74 18.87h-9.72zm3.17-22.68h-11.52v15.26h11.52c4.75 0 8.21-3 8.21-7.63s-3.46-7.68-8.22-7.68zm38.37 4.92c10.44 0 17.14 8 17.14 18.94V778h-26.86c.58 5.26 4.54 9.58 11.09 9.58a14.72 14.72 0 0 0 9.87-3.82l3.46 5c-3.46 3.31-8.57 5-14.11 5-10.44 0-18.22-7.27-18.22-18.29-.01-10.09 7.33-18.23 17.63-18.23zm-9.79 15.41h19.59a9.3 9.3 0 0 0-9.79-9.22c-6.5.01-9.44 4.97-9.8 9.22zm50.3-15.41c6.77 0 10.87 2.88 13.32 6.19l-5 4.61a9.28 9.28 0 0 0-8-4.1c-6.34 0-10.51 4.75-10.51 11.52s4.18 11.59 10.51 11.59a9.46 9.46 0 0 0 8-4.1l5 4.61c-2.45 3.31-6.55 6.19-13.32 6.19-10.58 0-18-7.71-18-18.29s7.37-18.22 18-18.22zm21.41 27.58v-20.09h-5.76v-6.62h5.76v-9.5h7.59v9.5h7v6.63h-7v18.22c0 2.38 1.15 4.1 3.31 4.1a4.88 4.88 0 0 0 3.38-1.22l1.8 5.69c-1.37 1.3-3.6 2.23-7.13 2.23-5.86-.01-8.95-3.18-8.95-8.94zm42.69 4.32a14.68 14.68 0 0 1-11.23 4.61c-5.69 0-12.1-3.82-12.1-11.52 0-8 6.41-11.3 12.1-11.3 4.68 0 8.71 1.51 11.23 4.46v-5.19c0-4-3.31-6.48-8.14-6.48a14.24 14.24 0 0 0-10.3 4.39l-3.1-5.26a20.68 20.68 0 0 1 14.62-5.62c7.7 0 14.47 3.24 14.47 12.6v23h-7.56zm0-9.43c-1.73-2.38-5-3.6-8.28-3.6-4.25 0-7.42 2.45-7.42 6.26s3.17 6.19 7.42 6.19c3.31 0 6.55-1.22 8.28-3.6zm40.83-8.57c0-5.4-2.74-7.2-7-7.2a11.44 11.44 0 0 0-8.93 4.68v24.27h-7.56v-34.78h7.56v4.75a16.45 16.45 0 0 1 12.24-5.62c7.49 0 11.23 4 11.23 11.16v24.48h-7.56zm20.44 25.2c2.81 3.24 6.41 4.46 11 4.46 5 0 10.3-2.3 10.3-9.43v-4.17a14.12 14.12 0 0 1-11.16 5.76c-8.86 0-15.41-6.41-15.41-17.86 0-11.23 6.48-17.86 15.41-17.86a13.85 13.85 0 0 1 11.16 5.69v-4.83h7.56v33c0 12.53-9.29 15.91-17.86 15.91-5.9 0-10.3-1.3-14.54-5.18zm21.31-27.72a11.28 11.28 0 0 0-8.93-4.68c-6 0-9.79 4.46-9.79 11.16s3.82 11.16 9.79 11.16a11.29 11.29 0 0 0 8.93-4.68zm17.32-23.76h7.56v48H1604zm32.87 12.38c10.44 0 17.14 8 17.14 18.94V778h-26.86c.58 5.26 4.54 9.58 11.09 9.58a14.72 14.72 0 0 0 9.87-3.82l3.46 5c-3.46 3.31-8.57 5-14.11 5-10.44 0-18.22-7.27-18.22-18.29-.01-10.09 7.33-18.23 17.63-18.23zm-9.79 15.41h19.59a9.3 9.3 0 0 0-9.79-9.22c-6.49.01-9.44 4.97-9.8 9.22zm64.58-20.38h-14.54v-7.42h37.51v7.42h-14.54v40.61h-8.42zm20.16 23.19c0-9.94 6.84-18.22 17.86-18.22s17.93 8.28 17.93 18.22-6.77 18.29-17.93 18.29-17.86-8.28-17.86-18.29zm27.94 0c0-6.12-3.6-11.52-10.08-11.52s-10 5.4-10 11.52 3.6 11.59 10 11.59 10.08-5.4 10.08-11.59zm13.31 0c0-9.94 6.84-18.22 17.86-18.22s17.93 8.28 17.93 18.22-6.77 18.29-17.93 18.29-17.86-8.28-17.86-18.29zm27.94 0c0-6.12-3.6-11.52-10.08-11.52s-10 5.4-10 11.52 3.6 11.59 10 11.59 10.07-5.4 10.07-11.59zm15.48-30.6h7.51v48h-7.56z" class="cls-3"/></svg>