<svg xmlns="http://www.w3.org/2000/svg" id="Layer_1" viewBox="0 0 1538.2 540" width="1538.2" height="540"><style>.st0{fill:#e6e7e8}.st1{fill:#006840}.st2{fill:#808285}</style><path d="M0 0h432v432H0V0z" class="st0"/><path d="M165.7 191.6c-2.7-.9-5-2.6-5-5.7 0-4.4 4.5-6.3 8.8-6.3s8.8 1.9 8.8 6.3c0 3.1-2.3 4.8-5 5.7 2.9 1 5.4 3.2 5.4 6.2 0 4.3-4.3 6.6-9.2 6.6s-9.2-2.3-9.2-6.6c0-3 2.5-5.2 5.4-6.2zm3.8 1.9c-1.5.2-5 1.3-5 3.8 0 2.1 2.2 3.4 5 3.4s4.9-1.3 4.9-3.4c.1-2.5-3.4-3.6-4.9-3.8zm0-10.1c-2.6 0-4.6 1.2-4.6 3.2 0 2.3 3.1 3.1 4.6 3.4 1.5-.2 4.5-1.1 4.5-3.4.1-2-1.9-3.2-4.5-3.2zm12.4 4.3c1.2-.8 2.2-2 2.6-3.4-.2.1-.4.1-.6.1-1.2 0-2.2-.9-2.2-2.1v-.1c0-1.4 1.1-2.5 2.4-2.5 1.5 0 2.8 1.2 2.8 3.3-.1 2.5-1.3 4.8-3.4 6.2l-1.6-1.5zm6.7 0c1.2-.8 2.2-2 2.6-3.4-.2.1-.4.1-.6.1-1.2 0-2.2-.9-2.2-2.1v-.1c0-1.4 1.1-2.5 2.4-2.5 1.5 0 2.8 1.2 2.8 3.3-.1 2.5-1.3 4.8-3.4 6.2l-1.6-1.5zm24.9 9.9L209 204h-4.2l6.4-8.9-6-8.5h4.2l4.1 5.9 4.1-5.9h4.2l-6 8.5 6.4 8.9H218l-4.5-6.4zm30.1-6c-2.7-.9-5-2.6-5-5.7 0-4.4 4.5-6.3 8.8-6.3s8.8 1.9 8.8 6.3c0 3.1-2.3 4.8-5 5.7 2.9 1 5.4 3.2 5.4 6.2 0 4.3-4.3 6.6-9.2 6.6s-9.2-2.3-9.2-6.6c0-3 2.5-5.2 5.4-6.2zm3.8 1.9c-1.5.2-5 1.3-5 3.8 0 2.1 2.2 3.4 5 3.4s4.9-1.3 4.9-3.4c.1-2.5-3.4-3.6-4.9-3.8zm0-10.1c-2.6 0-4.6 1.2-4.6 3.2 0 2.3 3.1 3.1 4.6 3.4 1.5-.2 4.5-1.1 4.5-3.4.1-2-1.9-3.2-4.5-3.2zm12.4 4.3c1.2-.8 2.2-2 2.6-3.4-.2.1-.4.1-.6.1-1.2 0-2.2-.9-2.2-2.1v-.1c0-1.4 1.1-2.5 2.5-2.5 1.5 0 2.8 1.2 2.8 3.3-.1 2.5-1.3 4.8-3.4 6.2l-1.7-1.5zm6.7 0c1.2-.8 2.2-2 2.6-3.4-.2.1-.4.1-.6.1-1.2 0-2.2-.9-2.2-2.1v-.1c0-1.4 1.1-2.5 2.5-2.5 1.5 0 2.8 1.2 2.8 3.3-.1 2.5-1.3 4.8-3.4 6.2l-1.7-1.5zm-136.2 44c1.3 1.4 3.1 2.2 5 2.2 2.4 0 3.8-1.1 3.8-2.8s-1.4-2.5-4-2.5H133v-2.8h2.1c2.1 0 3.7-.7 3.7-2.4s-1.6-2.5-3.6-2.5c-1.8 0-3.4.7-4.6 2l-1.6-2c1.7-1.9 4.1-2.9 6.6-2.8 3.9 0 6.5 1.8 6.5 4.9-.1 2.1-1.8 3.9-3.9 4.1 2.3.2 4.1 2.1 4.2 4.4 0 3.1-2.6 5.2-6.8 5.2-2.6.1-5.1-.9-6.8-2.9l1.5-2.1zm21.5-13.6c5 0 7.2 4.8 7.2 9.3s-2.2 9.3-7.2 9.3-7.2-4.8-7.2-9.3 2.1-9.3 7.2-9.3zm0 2.8c-2.9 0-4 3.1-4 6.5s1.1 6.5 4 6.5 4-3.1 4-6.5-1.1-6.5-4-6.5zm16.6-2.8c5 0 7.2 4.8 7.2 9.3s-2.2 9.3-7.2 9.3-7.2-4.8-7.2-9.3 2.1-9.3 7.2-9.3zm0 2.8c-2.9 0-4 3.1-4 6.5s1.1 6.5 4 6.5 4-3.1 4-6.5-1.1-6.5-4-6.5zm19.3 13.7c-1 1.3-2.5 2.1-4.2 2.1-3.4 0-5.8-2.5-5.8-6.8s2.4-6.9 5.8-6.9c1.7 0 3.2.8 4.2 2.1v-6.8h2.8v18h-2.8v-1.7zm0-7.3c-.8-1.1-2-1.7-3.4-1.8-2.2 0-3.7 1.8-3.7 4.4s1.4 4.3 3.7 4.3c1.3 0 2.6-.7 3.4-1.7v-5.2zm6.5 14.1v-18h2.8v1.8c1-1.3 2.5-2.1 4.2-2.1 3.4 0 5.8 2.5 5.8 6.8s-2.4 6.9-5.8 6.9c-1.7 0-3.2-.8-4.2-2.1v6.8l-2.8-.1zm6.2-15.8c-1.3 0-2.6.7-3.4 1.8v5.2c.8 1.1 2 1.7 3.4 1.8 2.2 0 3.7-1.8 3.7-4.4s-1.4-4.4-3.7-4.4zm9.1-6.1c0-1 .8-1.7 1.8-1.8 1 0 1.8.8 1.8 1.8s-.8 1.8-1.8 1.8c-1-.1-1.8-.9-1.8-1.8zm.4 3.9h2.8v13h-2.8v-13zm13.1-3.9c0-1 .8-1.7 1.8-1.8 1 0 1.8.8 1.8 1.8s-.8 1.8-1.8 1.8c-1-.1-1.8-.9-1.8-1.8zm.4 3.9h2.8v13h-2.8v-13zm15.2 4.9c0-2-1-2.7-2.6-2.7-1.3 0-2.6.7-3.4 1.8v9.1h-2.8v-13h2.8v1.8c1.2-1.3 2.8-2.1 4.6-2.1 2.8 0 4.2 1.5 4.2 4.2v9.2h-2.8v-8.3zm19.9 1.4h-3.1v6.7h-3.2v-18h7.9c3.6 0 5.9 2.3 5.9 5.6.2 2.6-1.7 4.9-4.3 5.3l4.4 7.1h-3.6l-4-6.7zm1.1-8.5h-4.3v5.7h4.3c1.6.1 3-1 3.1-2.6s-1-3-2.6-3.1h-.5zm18.2-3.1c2.9-.1 5.6 1.3 7.3 3.8l-2.6 1.5c-1.1-1.5-2.8-2.4-4.7-2.4-3.6.3-6.2 3.5-5.9 7.1.3 3.1 2.8 5.6 5.9 5.9 1.6 0 3.1-.6 4.3-1.6v-2.8h-5.4v-2.8h8.5v6.8c-1.9 2.1-4.6 3.3-7.4 3.3-5.2.2-9.5-3.9-9.6-9s3.9-9.5 9-9.6c.2-.2.4-.2.6-.2zm10.7.3h8.9c3.3 0 5.1 2.1 5.1 4.6.1 2-1.2 3.7-3.1 4.1 2.1.5 3.5 2.3 3.5 4.4 0 2.8-1.9 4.9-5.2 4.9h-9.1l-.1-18zm8.2 7.5c1.3.1 2.4-.9 2.5-2.2.1-1.3-.9-2.4-2.2-2.5h-5.3v4.7h5zm.1 7.7c1.7 0 2.8-.9 2.8-2.5 0-1.4-1.1-2.5-2.4-2.5h-5.5v5h5.1z" class="st1"/><path d="M497.1 0h432v540h-432V0zm501.1 432V0h540v432h-540z" class="st0"/><path d="M655.4 191.6c-2.7-.9-5-2.6-5-5.7 0-4.4 4.5-6.3 8.8-6.3s8.8 1.9 8.8 6.3c0 3.1-2.3 4.8-5 5.7 2.9 1 5.4 3.2 5.4 6.2 0 4.3-4.3 6.6-9.2 6.6s-9.2-2.3-9.2-6.6c0-3 2.5-5.2 5.4-6.2zm3.8 1.9c-1.5.2-5 1.3-5 3.8 0 2.1 2.2 3.4 5 3.4s4.9-1.3 4.9-3.4c.1-2.5-3.4-3.6-4.9-3.8zm0-10.1c-2.6 0-4.6 1.2-4.6 3.2 0 2.3 3.1 3.1 4.6 3.4 1.5-.2 4.5-1.1 4.5-3.4.1-2-1.9-3.2-4.5-3.2zm12.4 4.3c1.2-.8 2.2-2 2.6-3.4-.2.1-.4.1-.6.1-1.2 0-2.2-.9-2.2-2.1v-.1c0-1.4 1.1-2.5 2.5-2.5 1.5 0 2.8 1.2 2.8 3.3-.1 2.5-1.3 4.8-3.4 6.2l-1.7-1.5zm6.7 0c1.2-.8 2.2-2 2.6-3.4-.2.1-.4.1-.6.1-1.2 0-2.2-.9-2.2-2.1v-.1c0-1.4 1.1-2.5 2.5-2.5 1.5 0 2.8 1.2 2.8 3.3-.1 2.5-1.3 4.8-3.4 6.2l-1.7-1.5zm24.9 9.9l-4.5 6.4h-4.2l6.4-8.9-6-8.5h4.2l4.1 5.9 4.1-5.9h4.2l-6 8.5 6.4 8.9h-4.3l-4.4-6.4zm30.1-12.1l-3.9 4.1-2.4-2.6 6.9-7h3.7v24h-4.2l-.1-18.5zm17.9-5.9c6.7 0 9.6 6.3 9.6 12.4s-2.9 12.4-9.6 12.4-9.6-6.4-9.6-12.4 2.9-12.4 9.6-12.4zm0 3.8c-3.9 0-5.3 4.1-5.3 8.6s1.4 8.7 5.3 8.7 5.3-4.1 5.3-8.7-1.4-8.6-5.3-8.6zm13.1 4.3c1.2-.8 2.2-2 2.6-3.4-.2.1-.4.1-.6.1-1.2 0-2.2-.9-2.2-2.1v-.1c0-1.4 1.1-2.5 2.5-2.5 1.5 0 2.8 1.2 2.8 3.3-.1 2.5-1.3 4.8-3.4 6.2l-1.7-1.5zm6.7 0c1.2-.8 2.2-2 2.6-3.4-.2.1-.4.1-.6.1-1.2 0-2.2-.9-2.2-2.1v-.1c0-1.4 1.1-2.5 2.5-2.5 1.5 0 2.8 1.2 2.8 3.3-.1 2.5-1.3 4.8-3.4 6.2l-1.7-1.5zm-143.6 44c1.3 1.4 3.1 2.2 5 2.2 2.4 0 3.8-1.1 3.8-2.8s-1.4-2.5-4-2.5h-2.1v-2.8h2.1c2.1 0 3.7-.7 3.7-2.4s-1.6-2.5-3.6-2.5c-1.8 0-3.4.7-4.6 2L626 221c1.7-1.9 4.1-2.9 6.6-2.8 3.9 0 6.5 1.8 6.5 4.9-.1 2.1-1.8 3.9-3.9 4.1 2.3.2 4.1 2.1 4.2 4.4 0 3.1-2.6 5.2-6.8 5.2-2.6.1-5.1-.9-6.8-2.9l1.6-2.2zm21.5-13.6c5 0 7.2 4.8 7.2 9.3s-2.2 9.3-7.2 9.3-7.2-4.8-7.2-9.3 2.1-9.3 7.2-9.3zm0 2.8c-2.9 0-4 3.1-4 6.5s1 6.5 4 6.5 4-3.1 4-6.5-1.1-6.5-4-6.5zm16.6-2.8c5 0 7.2 4.8 7.2 9.3s-2.2 9.3-7.2 9.3-7.2-4.8-7.2-9.3 2.2-9.3 7.2-9.3zm0 2.8c-2.9 0-4 3.1-4 6.5s1 6.5 4 6.5 4-3.1 4-6.5-1.1-6.5-4-6.5zm19.3 13.7c-1 1.3-2.5 2.1-4.2 2.1-3.3 0-5.8-2.5-5.8-6.8s2.4-6.9 5.8-6.9c1.7 0 3.2.8 4.2 2.1v-6.8h2.8v18h-2.8v-1.7zm0-7.3c-.8-1.1-2-1.7-3.4-1.8-2.2 0-3.7 1.8-3.7 4.4s1.4 4.3 3.7 4.3c1.3 0 2.6-.7 3.4-1.7v-5.2zm6.5 14.1v-18h2.8v1.8c1-1.3 2.5-2.1 4.2-2.1 3.4 0 5.8 2.5 5.8 6.8s-2.4 6.9-5.8 6.9c-1.7 0-3.2-.8-4.2-2.1v6.8l-2.8-.1zm6.2-15.8c-1.3 0-2.6.7-3.3 1.8v5.2c.8 1.1 2 1.7 3.3 1.8 2.2 0 3.7-1.8 3.7-4.4s-1.4-4.4-3.7-4.4zm9.1-6.1c0-1 .8-1.7 1.8-1.8 1 0 1.8.8 1.8 1.8s-.8 1.8-1.8 1.8c-1-.1-1.7-.9-1.8-1.8zm.4 3.9h2.8v13H707v-13zm13.1-3.9c0-1 .8-1.7 1.8-1.8 1 0 1.8.8 1.8 1.8s-.8 1.8-1.8 1.8c-1-.1-1.8-.9-1.8-1.8zm.3 3.9h2.8v13h-2.8v-13zm15.4 4.9c0-2-1-2.7-2.6-2.7-1.3 0-2.6.7-3.3 1.8v9.1H727v-13h2.8v1.8c1.2-1.3 2.8-2.1 4.6-2.1 2.8 0 4.2 1.5 4.2 4.2v9.2h-2.8v-8.3zm19.8 1.4h-3.1v6.7h-3.2v-18h7.9c3.6 0 5.9 2.3 5.9 5.6.2 2.6-1.7 4.9-4.3 5.3l4.4 7.1h-3.6l-4-6.7zm1.2-8.5h-4.3v5.7h4.3c1.6.1 3-1 3.1-2.6s-1-3-2.6-3.1h-.5zm18.1-3.1c2.9-.1 5.6 1.3 7.3 3.8l-2.6 1.5c-1.1-1.5-2.8-2.4-4.7-2.4-3.6.3-6.2 3.5-5.9 7.1.3 3.1 2.8 5.6 5.9 5.9 1.6 0 3.1-.6 4.3-1.6v-2.8h-5.4v-2.8h8.5v6.8c-1.9 2.1-4.6 3.3-7.4 3.3-5.2.2-9.5-3.9-9.6-9s3.9-9.5 9-9.6c.2-.2.4-.2.6-.2zm10.7.3h8.8c3.3 0 5.1 2.1 5.1 4.6.1 2-1.2 3.7-3.1 4.1 2.1.5 3.5 2.3 3.5 4.4 0 2.8-1.9 4.9-5.2 4.9h-9.1v-18zm8.2 7.5c1.3.1 2.4-.9 2.5-2.2.1-1.3-.9-2.4-2.2-2.5h-5.3v4.7h5zm.1 7.7c1.7 0 2.8-.9 2.8-2.5 0-1.4-1.1-2.5-2.4-2.5h-5.5v5h5.1zm420.5-60.5l-3.7 3.8-2.3-2.4 6.4-6.5h3.4v22.4h-3.9l.1-17.3zm16.7-5.4c6.3 0 9 5.9 9 11.6s-2.7 11.6-9 11.6-9-5.9-9-11.6 2.7-11.6 9-11.6zm0 3.5c-3.7 0-5 3.8-5 8.1s1.3 8.1 5 8.1 5-3.8 5-8.1-1.4-8.1-5-8.1zm12.2 4c1.2-.7 2-1.8 2.4-3.2-.2.1-.4.1-.6.1-1.1 0-2-.9-2-2v-.1c0-1.3 1-2.3 2.3-2.3 1.5.1 2.7 1.3 2.6 2.9v.2c-.1 2.3-1.2 4.5-3.2 5.8l-1.5-1.4zm6.2 0c1.2-.7 2.1-1.8 2.5-3.2-.2.1-.4.1-.6.1-1.1 0-2-.9-2-2v-.1c0-1.3 1-2.3 2.3-2.3 1.5.1 2.7 1.3 2.6 2.9v.2c-.1 2.3-1.2 4.5-3.2 5.8l-1.6-1.4zm23.3 9.2l-4.2 6h-3.9l5.9-8.3-5.6-7.9h4l3.9 5.5 3.8-5.5h4l-5.6 7.9 6 8.3h-4l-4.3-6zm28.1-5.6c-2.5-.8-4.7-2.4-4.7-5.3 0-4.1 4.2-5.9 8.2-5.9s8.2 1.8 8.2 5.9c0 2.9-2.2 4.5-4.7 5.3 2.7.9 5 3 5 5.8 0 4-4 6.1-8.6 6.1s-8.6-2.1-8.6-6.1c.2-2.8 2.5-4.8 5.2-5.8zm3.6 1.8c-1.4.2-4.6 1.2-4.6 3.5 0 1.9 2.1 3.2 4.6 3.2s4.6-1.2 4.6-3.2c0-2.3-3.2-3.3-4.6-3.5zm0-9.5c-2.4 0-4.3 1.1-4.3 3 0 2.1 2.9 2.9 4.3 3.2 1.4-.2 4.2-1 4.2-3.2 0-1.8-1.8-2.9-4.2-3zm11.5 4.1c1.2-.7 2-1.8 2.4-3.2-.2.1-.4.1-.6.1-1.1 0-2-.9-2-2v-.1c0-1.3 1-2.3 2.3-2.3 1.5.1 2.7 1.3 2.6 2.9v.2c-.1 2.3-1.2 4.5-3.2 5.8l-1.5-1.4zm6.2 0c1.2-.7 2-1.8 2.4-3.2-.2.1-.4.1-.6.1-1.1 0-2-.9-2-2v-.1c0-1.3 1-2.3 2.3-2.3 1.5.1 2.7 1.3 2.6 2.9v.2c-.1 2.3-1.2 4.5-3.2 5.8l-1.5-1.4zm-134 41.1c1.2 1.3 2.9 2 4.7 2 2.2 0 3.5-1 3.5-2.6s-1.3-2.4-3.7-2.4h-1.9v-2.6h1.9c2 0 3.4-.7 3.4-2.2s-1.5-2.4-3.4-2.4c-1.6 0-3.2.7-4.3 1.9l-1.5-1.8c1.5-1.8 3.8-2.7 6.1-2.6 3.6 0 6.1 1.7 6.1 4.5-.1 2-1.7 3.6-3.7 3.9 2.2.2 3.8 1.9 3.9 4.1 0 2.9-2.4 4.9-6.3 4.9-2.4.1-4.8-.9-6.3-2.7l1.5-2zm20.1-12.7c4.7 0 6.7 4.4 6.7 8.7s-2 8.7-6.7 8.7-6.7-4.5-6.7-8.7 2-8.7 6.7-8.7zm0 2.6c-2.8 0-3.7 2.9-3.7 6s1 6.1 3.7 6.1 3.7-2.9 3.7-6.1-1-6-3.7-6zm15.5-2.6c4.7 0 6.7 4.4 6.7 8.7s-2 8.7-6.7 8.7-6.7-4.5-6.7-8.7 2-8.7 6.7-8.7zm0 2.6c-2.8 0-3.7 2.9-3.7 6s1 6.1 3.7 6.1 3.7-2.9 3.7-6.1-.9-6-3.7-6zm18 12.8c-.9 1.2-2.4 2-3.9 2-3.1 0-5.4-2.4-5.4-6.4s2.3-6.4 5.4-6.4c1.5 0 3 .8 3.9 2v-6.3h2.7v16.8h-2.7V219zm0-6.8c-.7-1-1.9-1.6-3.2-1.6-2.1 0-3.4 1.7-3.4 4.1s1.3 4 3.4 4c1.2 0 2.4-.6 3.2-1.6v-4.9zm6.1 13.1v-16.8h2.7v1.7c.9-1.3 2.4-2 3.9-2 3.2 0 5.4 2.4 5.4 6.4s-2.2 6.4-5.4 6.4c-1.6 0-3-.7-3.9-2v6.3h-2.7zm5.8-14.8c-1.2 0-2.4.6-3.1 1.6v4.8c.7 1 1.9 1.6 3.1 1.6 2.1 0 3.4-1.7 3.4-4.1s-1.3-3.9-3.4-3.9zm8.5-5.7c0-.9.7-1.6 1.6-1.6s1.6.7 1.6 1.6-.7 1.6-1.6 1.6c-.9 0-1.6-.7-1.6-1.6zm.3 3.7h2.7v12.2h-2.7v-12.2zm12.3-3.7c0-.9.7-1.6 1.6-1.6s1.6.7 1.6 1.6-.7 1.6-1.6 1.6c-.9 0-1.6-.7-1.6-1.6zm.3 3.7h2.7v12.2h-2.7v-12.2zm14.3 4.5c0-1.9-1-2.5-2.4-2.5-1.2 0-2.4.6-3.1 1.6v8.5h-2.7v-12.1h2.7v1.7c1.1-1.3 2.6-2 4.3-2 2.6 0 3.9 1.4 3.9 3.9v8.6h-2.7V213zm18.5 1.4h-2.9v6.3h-3v-16.8h7.4c3.3 0 5.5 2.2 5.5 5.3.1 2.4-1.6 4.6-4 4.9l4.1 6.6h-3.4l-3.7-6.3zm1.1-8h-4v5.3h4c1.5.1 2.8-1 2.9-2.4.1-1.5-1-2.8-2.4-2.9h-.5zm16.9-2.8c2.7-.1 5.3 1.2 6.8 3.5l-2.4 1.4c-1-1.4-2.6-2.2-4.4-2.2-3.4 0-6.1 2.7-6.1 6.1 0 3.4 2.7 6.1 6.1 6.1 1.5 0 2.9-.5 4-1.5v-2.6h-5v-2.6h8v6.3c-1.8 2-4.3 3.1-6.9 3.1-4.8 0-8.7-3.9-8.7-8.7-.1-5 3.8-8.9 8.6-8.9zm10 .2h8.3c3.1 0 4.8 1.9 4.8 4.3.1 1.8-1.2 3.5-3 3.9 1.9.4 3.3 2.2 3.2 4.1 0 2.6-1.7 4.5-4.9 4.5h-8.5l.1-16.8zm7.7 7c1.2.1 2.3-.8 2.4-2s-.8-2.3-2-2.4h-5.1v4.4h4.7zm.1 7.3c1.2.2 2.4-.7 2.6-1.9v-.4c0-1.3-1-2.3-2.3-2.3h-5.1v4.6h4.8z" class="st1"/><path d="M454.5 194.3c6.4 0 10.9 4.7 10.9 11s-4.5 11-10.9 11-10.9-4.7-10.9-11 4.5-11 10.9-11zm0 3.3c-4.3 0-7.1 3.3-7.1 7.7s2.8 7.7 7.1 7.7 7.1-3.3 7.1-7.7-2.8-7.7-7.1-7.7zm22 10.4h-3.7v8H469v-21.3h9.4c4.2 0 7 2.8 7 6.7.2 3.1-2 5.8-5.1 6.3l5.2 8.4h-4.3l-4.7-8.1zm1.4-10h-5.1v6.8h5.1c1.9.1 3.5-1.3 3.7-3.1.1-1.9-1.3-3.5-3.1-3.7h-.6zm473.7-3.7c6.4 0 10.9 4.7 10.9 11s-4.5 11-10.9 11-10.9-4.7-10.9-11 4.5-11 10.9-11zm0 3.3c-4.3 0-7.1 3.3-7.1 7.7s2.8 7.7 7.1 7.7 7.1-3.3 7.1-7.7-2.8-7.7-7.1-7.7zm22 10.4h-3.7v8h-3.7v-21.3h9.4c4.2 0 7 2.8 7 6.7.2 3.1-2 5.8-5.1 6.3l5.2 8.4h-4.3l-4.8-8.1zm1.4-10h-5.1v6.8h5.1c1.9.1 3.5-1.3 3.7-3.1.1-1.9-1.3-3.5-3.1-3.7h-.6z" class="st2"/></svg>