<svg xmlns="http://www.w3.org/2000/svg" width="1019.4" height="2382.5" viewBox="0 0 1019.4 2382.5"><title>dimension-summative</title><g id="Layer_2" data-name="Layer 2"><g id="Layer_1-2" data-name="Layer 1"><path d="M154,2206h11.1v37.5c0,10,5.5,16.5,16,16.5s16-6.5,16-16.5V2206h11.1v37.8c0,15.6-8.9,26-27.1,26s-27.1-10.5-27.1-25.9Z" fill="#00673e"/><path d="M248.1,2240.3c0-7.1-3.5-9.4-9.1-9.4a14.7,14.7,0,0,0-11.6,6.1v31.6h-9.9v-45.3h9.9v6.2a21.3,21.3,0,0,1,15.9-7.4c9.8,0,14.7,5.3,14.7,14.6v31.9h-9.9Z" fill="#00673e"/><path d="M287.7,2222.1c8.8,0,14.2,3.8,17.4,8.1l-6.5,6a12.3,12.3,0,0,0-10.5-5.3c-8.2,0-13.7,6.2-13.7,15s5.5,15.1,13.7,15.1a12.6,12.6,0,0,0,10.5-5.3l6.5,6c-3.2,4.3-8.6,8.1-17.4,8.1-13.8,0-23.5-10.1-23.5-23.9S273.9,2222.1,287.7,2222.1Z" fill="#00673e"/><path d="M307.1,2245.9c0-13,9-23.8,23.3-23.8s23.4,10.8,23.4,23.8-8.8,23.9-23.4,23.9S307.1,2259,307.1,2245.9Zm36.5,0c0-8-4.7-15-13.2-15s-13,7-13,15,4.7,15.1,13,15.1S343.6,2254,343.6,2245.9Z" fill="#00673e"/><path d="M415.6,2239c0-4.8-2.1-8.1-7.4-8.1s-8.5,3.1-10.5,6v31.7h-9.9V2239c0-4.8-2.1-8.1-7.5-8.1s-8.3,3.1-10.4,6.1v31.6H360v-45.3h9.9v6.2c1.9-2.9,7.9-7.4,14.7-7.4s10.9,3.4,12.4,8.4c2.7-4.1,8.7-8.4,15.4-8.4,8.4,0,13.1,4.5,13.1,13.7v32.8h-9.9Z" fill="#00673e"/><path d="M434.5,2285.9v-62.6h9.9v6.2a17.9,17.9,0,0,1,14.6-7.4c11.7,0,20.1,8.9,20.1,23.8s-8.4,23.9-20.1,23.9a17.9,17.9,0,0,1-14.6-7.5v23.6Zm21.5-55a14.6,14.6,0,0,0-11.6,6.1v17.9A14.9,14.9,0,0,0,456,2261c7.8,0,12.8-6.3,12.8-15.1S463.8,2230.9,456,2230.9Z" fill="#00673e"/><path d="M485.3,2223.3h9.8v6.6c3.4-4.3,8.9-7.7,14.8-7.7v9.8a14.2,14.2,0,0,0-3.1-.3c-4.2,0-9.7,2.8-11.7,6v30.9h-9.8Z" fill="#00673e"/><path d="M534.3,2222.1c13.6,0,22.4,10.5,22.4,24.7v2.4H521.6c.8,6.8,5.9,12.5,14.5,12.5,4.4,0,9.7-1.8,12.9-5l4.5,6.5c-4.5,4.3-11.2,6.6-18.4,6.6-13.7,0-23.8-9.5-23.8-23.9S520.9,2222.1,534.3,2222.1Zm-12.8,20.1h25.6c-.2-5.3-3.9-12-12.8-12S522,2236.7,521.5,2242.2Z" fill="#00673e"/><path d="M563.2,2255.6a23.5,23.5,0,0,0,15.5,6.4c5.9,0,8.9-2.2,8.9-5.6s-4.8-5.3-10.4-6.6c-7.8-1.6-17.1-3.7-17.1-13.9,0-7.4,6.4-13.8,17.9-13.8a26.5,26.5,0,0,1,17.7,6.4l-4.2,7c-2.7-3.1-7.8-5.5-13.4-5.5s-8.5,1.9-8.5,5.1,4.5,4.7,9.9,5.9c7.9,1.7,17.6,4,17.6,14.7,0,8-6.7,14.1-18.9,14.1-7.7,0-14.8-2.5-19.5-7.1Z" fill="#00673e"/><path d="M603.8,2255.6a23.4,23.4,0,0,0,15.4,6.4c6,0,9-2.2,9-5.6s-4.8-5.3-10.4-6.6c-7.8-1.6-17.1-3.7-17.1-13.9,0-7.4,6.4-13.8,17.9-13.8a26,26,0,0,1,17.6,6.4l-4.1,7c-2.7-3.1-7.8-5.5-13.4-5.5s-8.5,1.9-8.5,5.1,4.5,4.7,9.9,5.9c7.9,1.7,17.6,4,17.6,14.7,0,8-6.7,14.1-18.9,14.1-7.7,0-14.8-2.5-19.5-7.1Z" fill="#00673e"/><path d="M664.1,2222.1c13.6,0,22.3,10.5,22.3,24.7v2.4h-35c.7,6.8,5.9,12.5,14.4,12.5a19.1,19.1,0,0,0,12.9-5l4.5,6.5c-4.5,4.3-11.2,6.6-18.4,6.6-13.6,0-23.8-9.5-23.8-23.9S650.6,2222.1,664.1,2222.1Zm-12.8,20.1h25.5c-.2-5.3-3.8-12-12.7-12S651.7,2236.7,651.3,2242.2Z" fill="#00673e"/><path d="M724.4,2262.4a18.6,18.6,0,0,1-14.6,7.4c-11.6,0-20.2-8.9-20.2-23.8s8.5-23.9,20.2-23.9a18.4,18.4,0,0,1,14.6,7.5V2206h9.8v62.6h-9.8Zm0-25.4a15,15,0,0,0-11.8-6.1c-7.8,0-12.7,6.3-12.7,15.1s4.9,15,12.7,15a14.9,14.9,0,0,0,11.8-6Z" fill="#00673e"/><path d="M298.2,2318.7h27.6c13.1,0,20.5,9,20.5,19.7s-7.5,19.6-20.5,19.6H309.2v23.4h-11Zm26.1,9.7H309.2v19.9h15.1c6.2,0,10.7-3.9,10.7-9.9S330.5,2328.4,324.3,2328.4Z" fill="#00673e"/><path d="M351.6,2318.7h23.3c19.6,0,32.8,13,32.8,31.4s-13.2,31.3-32.8,31.3H351.6Zm23.3,53c13.6,0,21.5-9.8,21.5-21.6s-7.5-21.7-21.5-21.7H362.6v43.3Z" fill="#00673e"/><path d="M414.6,2318.7h42.9v9.7H425.6v16.2h31.2v9.7H425.6v27.1h-11Z" fill="#00673e"/><path d="M486.1,2344.6h-7.6V2336h7.6v-2.5c0-10.2,6-15.7,14.3-15.7a15.4,15.4,0,0,1,7.9,1.8l-2.1,7.3a6.8,6.8,0,0,0-4-1c-3.8,0-6.3,2.5-6.3,7.6v2.5h9.2v8.6h-9.2v36.8h-9.8Zm25.3-22.2a6.1,6.1,0,0,1,6.1-6.1,6.1,6.1,0,1,1,0,12.2A6.1,6.1,0,0,1,511.4,2322.4Zm1.2,13.6h9.9v45.4h-9.9Z" fill="#00673e"/><path d="M531.5,2318.7h9.9v62.7h-9.9Z" fill="#00673e"/><path d="M570.6,2334.9c13.6,0,22.4,10.4,22.4,24.7v2.3H557.9c.8,6.9,6,12.5,14.5,12.5,4.4,0,9.7-1.8,12.9-5l4.5,6.5c-4.5,4.4-11.2,6.6-18.4,6.6-13.7,0-23.8-9.5-23.8-23.9S557.2,2334.9,570.6,2334.9ZM557.8,2355h25.6c-.2-5.4-3.9-12-12.8-12S558.3,2349.4,557.8,2355Z" fill="#00673e"/><path d="M633,1486.1H357.5a6.8,6.8,0,0,0-2.8.4h0c-.9.3-1.8.3-2.4.6a1,1,0,0,0-.6.3l-1.8.9c-.4,0-.4.3-.7.3l-2.1,1.8L209.3,1628.8a13,13,0,0,0-1.8,2.1c0,.3-.3.3-.3.6l-.9,1.9a1,1,0,0,1-.3.6,7.1,7.1,0,0,0-.6,2.4h0a8.3,8.3,0,0,0-.3,2.7v477.6a49.6,49.6,0,0,0,49.4,49.7H633.3a49.4,49.4,0,0,0,49.4-49.7V1535.8A49.8,49.8,0,0,0,633,1486.1Zm-290.5,52.2v56.4c0,25.9-3.9,29.5-29.8,29.5H256.9Zm309.7,578.4a19,19,0,0,1-18.9,19.2H254.5a19,19,0,0,1-18.9-19.2v-462h77.7c42.6,0,60.3-17.4,60.3-60v-78.1h260a19.1,19.1,0,0,1,18.9,19.2v580.9Z" fill="#94c947"/><rect x="320.6" y="1840.1" width="493.8" height="228.84" rx="39.7" fill="#fff" stroke="#94c947" stroke-miterlimit="10" stroke-width="32"/><path d="M426.1,1889.2a193.1,193.1,0,0,1,35.2-2.9c17.5,0,30.7,3.6,39.4,11.3s13,17.8,13,30.7-4.1,24.1-11.5,31.6c-9.7,10.1-24.8,14.9-41.1,14.9a66.4,66.4,0,0,1-10.6-.7v53.4H426.1Zm24.4,65.3a42.5,42.5,0,0,0,10.4,1c17.7,0,28.3-9.7,28.3-26.1,0-14.7-9.1-23.9-26-23.9a56.4,56.4,0,0,0-12.7,1.2Z" fill="#94c947"/><path d="M525.9,1889.3a208.4,208.4,0,0,1,36.1-3c23.3,0,39.3,5.1,50.8,14.9,13,10.8,20.9,28,20.9,53.1,0,26.6-8.2,45.2-20.7,56.8s-32.3,17.6-56.7,17.6a233.9,233.9,0,0,1-30.4-1.7Zm24.5,119.2a82.9,82.9,0,0,0,11.7.6c27.8.1,45.8-16.6,45.8-54.3.1-31.2-15-49.1-43.3-49.1a69,69,0,0,0-14.2,1.2Z" fill="#94c947"/><path d="M646.3,1887.3h74v20.5H670.9v39.7h46v20.2h-46v59.8H646.3Z" fill="#94c947"/><path d="M115.7,952l40.1-55H115.7V884.9h57.9V896l-40,55.1h40.9v12.1H115.7Z" fill="#00673e"/><path d="M181.5,889.4a7.7,7.7,0,1,1,7.6,7.7A7.7,7.7,0,0,1,181.5,889.4Zm1.5,17.1h12.4v56.7H183Z" fill="#00673e"/><path d="M206.6,984.8V906.5H219v7.7a22.6,22.6,0,0,1,18.2-9.1c14.7,0,25.1,11,25.1,29.7s-10.4,29.8-25.1,29.8a22.3,22.3,0,0,1-18.2-9.3v29.5ZM233.5,916c-5.7,0-11.8,3.4-14.5,7.6V946c2.7,4.2,8.8,7.7,14.5,7.7,9.8,0,16-7.9,16-18.9S243.3,916,233.5,916Z" fill="#00673e"/><path d="M265.6,929.5h28.2v10.6H265.6Z" fill="#00673e"/><path d="M326.4,905.1c11.1,0,17.8,4.7,21.8,10.1l-8.1,7.5A15.2,15.2,0,0,0,327,916c-10.3,0-17.1,7.7-17.1,18.8s6.8,18.9,17.1,18.9a15.7,15.7,0,0,0,13.1-6.7l8.1,7.5c-4,5.4-10.7,10.1-21.8,10.1-17.2,0-29.3-12.6-29.3-29.8S309.2,905.1,326.4,905.1Z" fill="#00673e"/><path d="M350.7,934.8c0-16.2,11.2-29.7,29.2-29.7s29.2,13.5,29.2,29.7-11,29.8-29.2,29.8S350.7,951.1,350.7,934.8Zm45.6,0c0-10-5.9-18.8-16.4-18.8s-16.4,8.8-16.4,18.8,5.9,18.9,16.4,18.9S396.3,944.9,396.3,934.8Z" fill="#00673e"/><path d="M486.4,926.2c0-6.1-2.7-10.2-9.3-10.2s-10.7,3.9-13.1,7.5v39.7H451.6v-37c0-6.1-2.7-10.2-9.4-10.2s-10.4,3.9-13,7.6v39.6H416.9V906.5h12.3v7.7c2.3-3.5,9.9-9.1,18.4-9.1s13.7,4.2,15.5,10.4a24,24,0,0,1,19.3-10.4c10.5,0,16.3,5.6,16.3,17.1v41H486.4Z" fill="#00673e"/><path d="M510,984.8V906.5h12.3v7.7a22.8,22.8,0,0,1,18.2-9.1c14.7,0,25.2,11,25.2,29.7s-10.5,29.8-25.2,29.8a22.4,22.4,0,0,1-18.2-9.3v29.5ZM536.9,916c-5.8,0-11.9,3.4-14.6,7.6V946c2.7,4.2,8.8,7.7,14.6,7.7,9.7,0,16-7.9,16-18.9S546.6,916,536.9,916Z" fill="#00673e"/><path d="M573.4,906.5h12.4v8.3c4.2-5.4,11-9.6,18.4-9.6v12.2a21.3,21.3,0,0,0-3.9-.4c-5.2,0-12.1,3.6-14.5,7.6v38.6H573.4Z" fill="#00673e"/><path d="M634.7,905.1c17.1,0,28,13,28,30.8v3H618.9c.9,8.6,7.4,15.6,18.1,15.6,5.5,0,12.1-2.2,16-6.2l5.7,8.1c-5.7,5.4-14,8.2-23,8.2-17.1,0-29.7-11.9-29.7-29.8S617.9,905.1,634.7,905.1Zm-15.9,25.1h31.9c-.2-6.7-4.8-15-16-15S619.3,923.3,618.8,930.2Z" fill="#00673e"/><path d="M670.9,946.9a29.5,29.5,0,0,0,19.3,8c7.4,0,11.1-2.7,11.1-7s-6-6.7-12.9-8.2c-9.8-2.1-21.4-4.7-21.4-17.4,0-9.3,8-17.2,22.3-17.2a32.8,32.8,0,0,1,22.1,7.9l-5.2,8.7c-3.4-3.8-9.7-6.8-16.7-6.8s-10.6,2.4-10.6,6.4,5.6,5.8,12.3,7.4c9.9,2.1,22,4.9,22,18.3,0,10-8.4,17.6-23.6,17.6-9.7,0-18.5-3.1-24.3-8.8Z" fill="#00673e"/><path d="M721.6,946.9a29.5,29.5,0,0,0,19.3,8c7.4,0,11.1-2.7,11.1-7s-5.9-6.7-12.9-8.2c-9.7-2.1-21.3-4.7-21.3-17.4,0-9.3,7.9-17.2,22.3-17.2,9.6,0,16.9,3.4,22,7.9l-5.1,8.7c-3.4-3.8-9.8-6.8-16.8-6.8s-10.6,2.4-10.6,6.4,5.7,5.8,12.3,7.4c9.9,2.1,22,4.9,22,18.3,0,10-8.3,17.6-23.6,17.6-9.6,0-18.4-3.1-24.3-8.8Z" fill="#00673e"/><path d="M796.9,905.1c17,0,28,13,28,30.8v3H781.1c.9,8.6,7.4,15.6,18,15.6,5.6,0,12.1-2.2,16.1-6.2l5.7,8.1c-5.7,5.4-14,8.2-23,8.2-17.1,0-29.8-11.9-29.8-29.8S780.1,905.1,796.9,905.1Zm-16,25.1h32c-.3-6.7-4.8-15-16-15S781.5,923.3,780.9,930.2Z" fill="#00673e"/><path d="M872.3,955.4a22.7,22.7,0,0,1-18.2,9.2c-14.6,0-25.2-11-25.2-29.7s10.5-29.8,25.2-29.8a22.6,22.6,0,0,1,18.2,9.2V884.9h12.3v78.3H872.3Zm0-31.8a18.7,18.7,0,0,0-14.7-7.6c-9.7,0-15.9,7.8-15.9,18.9s6.2,18.8,15.9,18.8c5.9,0,11.9-3.3,14.7-7.5Z" fill="#00673e"/><path d="M353.7,1025.8h53.7v12.1h-40v20.3h39.1v12.1H367.4v33.8H353.7Z" fill="#00673e"/><path d="M411.1,1075.7c0-16.2,11.2-29.7,29.1-29.7s29.3,13.5,29.3,29.7-11.1,29.8-29.3,29.8S411.1,1092,411.1,1075.7Zm45.6,0c0-10-5.9-18.8-16.5-18.8s-16.3,8.8-16.3,18.8,5.9,18.9,16.3,18.9S456.7,1085.8,456.7,1075.7Z" fill="#00673e"/><path d="M477.2,1025.8h12.4v78.3H477.2Z" fill="#00673e"/><path d="M540.8,1096.4a23.2,23.2,0,0,1-18.2,9.1c-14.6,0-25.3-11-25.3-29.7s10.6-29.8,25.3-29.8a22.8,22.8,0,0,1,18.2,9.3v-29.5h12.3v78.3H540.8Zm0-31.9a18.7,18.7,0,0,0-14.7-7.6c-9.8,0-16,7.9-16,18.9s6.2,18.8,16,18.8c5.9,0,11.9-3.3,14.7-7.5Z" fill="#00673e"/><path d="M589.6,1046c17.1,0,28,13,28,30.9v2.9H573.8c.9,8.6,7.4,15.6,18.1,15.6,5.5,0,12.1-2.2,16-6.2l5.7,8.1c-5.7,5.4-14,8.2-23,8.2-17.1,0-29.7-11.8-29.7-29.8C560.9,1059.3,572.8,1046,589.6,1046Zm-15.9,25.1h31.9c-.2-6.7-4.8-15-16-15S574.2,1064.2,573.7,1071.1Z" fill="#00673e"/><path d="M625.1,1047.4h12.3v8.3c4.3-5.4,11.1-9.6,18.5-9.6v12.2a22.1,22.1,0,0,0-3.9-.3c-5.2,0-12.1,3.5-14.6,7.5v38.6H625.1Z" fill="#00673e"/><path d="M428.9,113.5V73.3A53.3,53.3,0,0,0,375.6,20H93.8C53,20,20,30,20,70.8v656a73.7,73.7,0,0,0,73.8,73.7H925.6a73.7,73.7,0,0,0,73.8-73.7V240.6a73.7,73.7,0,0,0-73.8-73.8H482.3A53.4,53.4,0,0,1,428.9,113.5Z" fill="#fff" stroke="#94c947" stroke-miterlimit="10" stroke-width="40"/><path d="M829.9,267.7H768.6v40.9h61.3Zm0,81.6H768.6v40.9h61.3Zm-61.3-40.9H707.4v40.9h61.2Zm61.3-122.3H768.6V227h61.3Zm-61.3,40.7H707.4v40.9h61.2Zm98,342.9L829.9,430.9H707.4L670.7,569.7c-16.3,65.2,32.6,101.9,97.9,101.9S882.9,635,866.6,569.7ZM707.4,594.1c0-53,122.5-53,122.5,0S707.4,647.1,707.4,594.1Z" fill="#94c947"/><path d="M518.4,1367.2H485v-77.9H415.9v-30.4H485V1184h33.4v74.9h68.7v30.4H518.4Z" fill="#e3280a"/></g></g></svg>