<svg xmlns="http://www.w3.org/2000/svg" xmlns:xlink="http://www.w3.org/1999/xlink" width="994.2" height="804" viewBox="0 0 994.2 804"><defs><linearGradient id="a" x1="664.7" x2="916.14" y1="319.78" y2="466.88" gradientUnits="userSpaceOnUse"><stop offset="0" stop-color="#b2d235"/><stop offset="1" stop-color="#68bd45"/></linearGradient><linearGradient id="b" x1="371.17" x2="496.89" y1="358.05" y2="431.6" xlink:href="#a"/><linearGradient id="c" x1="41.3" x2="104.16" y1="377.19" y2="413.97" xlink:href="#a"/><linearGradient id="d" x1="773.73" x2="836.59" y1="712.96" y2="749.73" xlink:href="#a"/><linearGradient id="e" x1="407.52" x2="470.38" y1="712.96" y2="749.73" xlink:href="#a"/><linearGradient id="f" x1="41.3" x2="104.16" y1="712.96" y2="749.73" xlink:href="#a"/></defs><path fill="#00683f" d="M885.2 34.6v150h-150v-150h150m2.5-2.5h-155v155h155v-155zm-368.8 2.5v150h-150v-150h150m2.5-2.5h-155v155h155v-155z"/><path fill="#94c948" d="M1.2 33.3h152.5v152.5H1.2z"/><path fill="#00683f" d="M152.5 34.6v150H2.5v-150h150m2.5-2.5H0v155h155v-155z"/><path fill="#94c948" d="M368.9 34.6h72v72h-72zm78 0h72v72h-72zm-78 78h72v72h-72zm78 0h72v72h-72zm288.3-78h46v46h-46zm52 0h46v46h-46zm52 0h46v46h-46zm-104 52h46v46h-46zm52 0h46v46h-46zm52 0h46v46h-46zm-104 52h46v46h-46zm52 0h46v46h-46zm52 0h46v46h-46z"/><path fill="none" stroke="#d1d3d4" stroke-miterlimit="10" d="M31.1 12.5h-30V30m152.5 0V12.5h-29.5"/><path fill="#d1d3d4" d="M52.2 7.4L50 9.6l-1.4-1.4 3.9-3.9h2v13.4h-2.3zm10.2 13.9V8h2.1v1.3a4.2 4.2 0 0 1 3.1-1.5c2.5 0 4.3 1.8 4.3 5s-1.8 5.1-4.3 5.1a3.7 3.7 0 0 1-3.1-1.6v5zM67 9.6a3.3 3.3 0 0 0-2.5 1.3v3.8A3.3 3.3 0 0 0 67 16c1.7 0 2.7-1.3 2.7-3.2s-1-3.2-2.7-3.2zm6.4 3.2a5 5 0 1 1 10 0 5 5 0 1 1-10 0zm7.8 0c0-1.7-1-3.2-2.8-3.2s-2.8 1.5-2.8 3.2 1 3.2 2.8 3.2 2.8-1.5 2.8-3.2zm4-7.7a1.3 1.3 0 0 1 1.3-1.3 1.3 1.3 0 0 1 1.3 1.3 1.3 1.3 0 0 1-1.3 1.3 1.3 1.3 0 0 1-1.3-1.3zm.3 2.9h2.1v9.7h-2.1zm11.3 3.6c0-1.5-.7-2-1.9-2a3.4 3.4 0 0 0-2.5 1.3v6.8h-2.1V8h2.1v1.3a4.9 4.9 0 0 1 3.4-1.5 2.8 2.8 0 0 1 3.1 3.1v6.8h-2.1zm5.3 3.8V9.8h-1.6V8h1.6V5.4h2.1V8h1.9v1.8h-1.9v5.1c0 .7.3 1.1.9 1.1s.8-.1.9-.3l.5 1.6a2.8 2.8 0 0 1-1.9.6 2.2 2.2 0 0 1-2.5-2.5z"/><path fill="none" stroke="#fff" stroke-width="2" d="M52.2 7.4L50 9.6l-1.4-1.4 3.9-3.9h2v13.4h-2.3zm10.2 13.9V8h2.1v1.3a4.2 4.2 0 0 1 3.1-1.5c2.5 0 4.3 1.8 4.3 5s-1.8 5.1-4.3 5.1a3.7 3.7 0 0 1-3.1-1.6v5zM67 9.6a3.3 3.3 0 0 0-2.5 1.3v3.8A3.3 3.3 0 0 0 67 16c1.7 0 2.7-1.3 2.7-3.2s-1-3.2-2.7-3.2zm6.4 3.2a5 5 0 1 1 10 0 5 5 0 1 1-10 0zm7.8 0c0-1.7-1-3.2-2.8-3.2s-2.8 1.5-2.8 3.2 1 3.2 2.8 3.2 2.8-1.5 2.8-3.2zm4-7.7a1.3 1.3 0 0 1 1.3-1.3 1.3 1.3 0 0 1 1.3 1.3 1.3 1.3 0 0 1-1.3 1.3 1.3 1.3 0 0 1-1.3-1.3zm.3 2.9h2.1v9.7h-2.1zm11.3 3.6c0-1.5-.7-2-1.9-2a3.4 3.4 0 0 0-2.5 1.3v6.8h-2.1V8h2.1v1.3a4.9 4.9 0 0 1 3.4-1.5 2.8 2.8 0 0 1 3.1 3.1v6.8h-2.1zm5.3 3.8V9.8h-1.6V8h1.6V5.4h2.1V8h1.9v1.8h-1.9v5.1c0 .7.3 1.1.9 1.1s.8-.1.9-.3l.5 1.6a2.8 2.8 0 0 1-1.9.6 2.2 2.2 0 0 1-2.5-2.5z"/><path fill="#d1d3d4" d="M52.2 7.4L50 9.6l-1.4-1.4 3.9-3.9h2v13.4h-2.3zm10.2 13.9V8h2.1v1.3a4.2 4.2 0 0 1 3.1-1.5c2.5 0 4.3 1.8 4.3 5s-1.8 5.1-4.3 5.1a3.7 3.7 0 0 1-3.1-1.6v5zM67 9.6a3.3 3.3 0 0 0-2.5 1.3v3.8A3.3 3.3 0 0 0 67 16c1.7 0 2.7-1.3 2.7-3.2s-1-3.2-2.7-3.2zm6.4 3.2a5 5 0 1 1 10 0 5 5 0 1 1-10 0zm7.8 0c0-1.7-1-3.2-2.8-3.2s-2.8 1.5-2.8 3.2 1 3.2 2.8 3.2 2.8-1.5 2.8-3.2zm4-7.7a1.3 1.3 0 0 1 1.3-1.3 1.3 1.3 0 0 1 1.3 1.3 1.3 1.3 0 0 1-1.3 1.3 1.3 1.3 0 0 1-1.3-1.3zm.3 2.9h2.1v9.7h-2.1zm11.3 3.6c0-1.5-.7-2-1.9-2a3.4 3.4 0 0 0-2.5 1.3v6.8h-2.1V8h2.1v1.3a4.9 4.9 0 0 1 3.4-1.5 2.8 2.8 0 0 1 3.1 3.1v6.8h-2.1zm5.3 3.8V9.8h-1.6V8h1.6V5.4h2.1V8h1.9v1.8h-1.9v5.1c0 .7.3 1.1.9 1.1s.8-.1.9-.3l.5 1.6a2.8 2.8 0 0 1-1.9.6 2.2 2.2 0 0 1-2.5-2.5z"/><path fill="none" stroke="#d1d3d4" stroke-miterlimit="10" d="M123.6 204.8h30v-17.4m-152.5 0v17.4h29.5"/><path fill="#d1d3d4" d="M54.1 199.6l-2.2 2.3-1.4-1.4 3.9-3.9h2V210h-2.3zm10.2 14v-13.3h2.1v1.3a4 4 0 0 1 3.1-1.6c2.5 0 4.3 1.9 4.3 5.1s-1.8 5.1-4.3 5.1a3.7 3.7 0 0 1-3.1-1.6v5zm4.6-11.7a3.3 3.3 0 0 0-2.5 1.3v3.8a3.3 3.3 0 0 0 2.5 1.3c1.7 0 2.7-1.3 2.7-3.2s-1-3.2-2.7-3.2zm6.8-4.5a1.3 1.3 0 1 1 1.3 1.3 1.3 1.3 0 0 1-1.3-1.3zm.2 2.9H78v9.7h-2.1zm8.5 6.1l-2.6 3.6h-2.3l3.5-5-3.3-4.7h2.4l2.3 3.3 2.2-3.3H89l-3.3 4.7 3.5 5h-2.3zm10.1-6.4c2.9 0 4.7 2.3 4.7 5.3v.5h-7.4a2.9 2.9 0 0 0 3.1 2.7 4 4 0 0 0 2.7-1.1l1 1.4a5.9 5.9 0 0 1-4 1.4 4.8 4.8 0 0 1-5-5.1 4.9 4.9 0 0 1 4.9-5.1zm-2.7 4.3h5.4a2.5 2.5 0 0 0-2.7-2.5 2.6 2.6 0 0 0-2.7 2.5zm9.5-7.7h2.1V210h-2.1z"/><path fill="none" stroke="#fff" stroke-width="2" d="M54.1 199.6l-2.2 2.3-1.4-1.4 3.9-3.9h2V210h-2.3zm10.2 14v-13.3h2.1v1.3a4 4 0 0 1 3.1-1.6c2.5 0 4.3 1.9 4.3 5.1s-1.8 5.1-4.3 5.1a3.7 3.7 0 0 1-3.1-1.6v5zm4.6-11.7a3.3 3.3 0 0 0-2.5 1.3v3.8a3.3 3.3 0 0 0 2.5 1.3c1.7 0 2.7-1.3 2.7-3.2s-1-3.2-2.7-3.2zm6.8-4.5a1.3 1.3 0 1 1 1.3 1.3 1.3 1.3 0 0 1-1.3-1.3zm.2 2.9H78v9.7h-2.1zm8.5 6.1l-2.6 3.6h-2.3l3.5-5-3.3-4.7h2.4l2.3 3.3 2.2-3.3H89l-3.3 4.7 3.5 5h-2.3zm10.1-6.4c2.9 0 4.7 2.3 4.7 5.3v.5h-7.4a2.9 2.9 0 0 0 3.1 2.7 4 4 0 0 0 2.7-1.1l1 1.4a5.9 5.9 0 0 1-4 1.4 4.8 4.8 0 0 1-5-5.1 4.9 4.9 0 0 1 4.9-5.1zm-2.7 4.3h5.4a2.5 2.5 0 0 0-2.7-2.5 2.6 2.6 0 0 0-2.7 2.5zm9.5-7.7h2.1V210h-2.1z"/><path fill="#d1d3d4" d="M54.1 199.6l-2.2 2.3-1.4-1.4 3.9-3.9h2V210h-2.3zm10.2 14v-13.3h2.1v1.3a4 4 0 0 1 3.1-1.6c2.5 0 4.3 1.9 4.3 5.1s-1.8 5.1-4.3 5.1a3.7 3.7 0 0 1-3.1-1.6v5zm4.6-11.7a3.3 3.3 0 0 0-2.5 1.3v3.8a3.3 3.3 0 0 0 2.5 1.3c1.7 0 2.7-1.3 2.7-3.2s-1-3.2-2.7-3.2zm6.8-4.5a1.3 1.3 0 1 1 1.3 1.3 1.3 1.3 0 0 1-1.3-1.3zm.2 2.9H78v9.7h-2.1zm8.5 6.1l-2.6 3.6h-2.3l3.5-5-3.3-4.7h2.4l2.3 3.3 2.2-3.3H89l-3.3 4.7 3.5 5h-2.3zm10.1-6.4c2.9 0 4.7 2.3 4.7 5.3v.5h-7.4a2.9 2.9 0 0 0 3.1 2.7 4 4 0 0 0 2.7-1.1l1 1.4a5.9 5.9 0 0 1-4 1.4 4.8 4.8 0 0 1-5-5.1 4.9 4.9 0 0 1 4.9-5.1zm-2.7 4.3h5.4a2.5 2.5 0 0 0-2.7-2.5 2.6 2.6 0 0 0-2.7 2.5zm9.5-7.7h2.1V210h-2.1z"/><path fill="none" stroke="#d1d3d4" stroke-miterlimit="10" d="M490.3 204.8h30v-17.4m-152.5 0v17.4h29.5"/><path fill="#d1d3d4" d="M411 208.1c5.2-3.9 7.2-5.7 7.2-7.6s-1.2-2-2.4-2a4.4 4.4 0 0 0-3.6 1.6l-1.4-1.6a6.6 6.6 0 0 1 5-2.1c2.5 0 4.8 1.5 4.8 4.1s-2.3 4.7-5.8 7.4h5.9v2.1H411zm17.4 5.5v-13.3h2.1v1.3a3.8 3.8 0 0 1 3.1-1.6c2.5 0 4.3 1.9 4.3 5.1s-1.8 5.1-4.3 5.1a3.7 3.7 0 0 1-3.1-1.6v5zm4.6-11.7a3.3 3.3 0 0 0-2.5 1.3v3.8a3.3 3.3 0 0 0 2.5 1.3c1.7 0 2.7-1.3 2.7-3.2s-1-3.2-2.7-3.2zm6.8-4.5a1.3 1.3 0 1 1 1.3 1.3 1.3 1.3 0 0 1-1.3-1.3zm.2 2.9h2.1v9.7H440zm8.4 6.1l-2.5 3.6h-2.3l3.5-5-3.3-4.7h2.3l2.3 3.3 2.3-3.3h2.4l-3.4 4.7 3.6 5h-2.4zm10.2-6.4c2.9 0 4.7 2.3 4.7 5.3v.5h-7.4a2.8 2.8 0 0 0 3 2.7 4.1 4.1 0 0 0 2.8-1.1l.9 1.4a5.5 5.5 0 0 1-3.9 1.4 4.8 4.8 0 0 1-5-5.1 4.9 4.9 0 0 1 4.9-5.1zm-2.8 4.3h5.5a2.6 2.6 0 0 0-2.7-2.5 2.7 2.7 0 0 0-2.8 2.5zm9.6-7.7h2.1V210h-2.1zm4.9 10.6a5.2 5.2 0 0 0 3.3 1.3c1.3 0 1.9-.4 1.9-1.1s-1-1.2-2.2-1.4-3.6-.8-3.6-3 1.3-3 3.8-3a5.2 5.2 0 0 1 3.7 1.4l-.8 1.5a3.9 3.9 0 0 0-2.9-1.2c-1.1 0-1.8.4-1.8 1.1s1 1 2.1 1.3 3.7.8 3.7 3.1-1.4 3-4 3a5.8 5.8 0 0 1-4.1-1.5z"/><path fill="none" stroke="#fff" stroke-width="2" d="M411 208.1c5.2-3.9 7.2-5.7 7.2-7.6s-1.2-2-2.4-2a4.4 4.4 0 0 0-3.6 1.6l-1.4-1.6a6.6 6.6 0 0 1 5-2.1c2.5 0 4.8 1.5 4.8 4.1s-2.3 4.7-5.8 7.4h5.9v2.1H411zm17.4 5.5v-13.3h2.1v1.3a3.8 3.8 0 0 1 3.1-1.6c2.5 0 4.3 1.9 4.3 5.1s-1.8 5.1-4.3 5.1a3.7 3.7 0 0 1-3.1-1.6v5zm4.6-11.7a3.3 3.3 0 0 0-2.5 1.3v3.8a3.3 3.3 0 0 0 2.5 1.3c1.7 0 2.7-1.3 2.7-3.2s-1-3.2-2.7-3.2zm6.8-4.5a1.3 1.3 0 1 1 1.3 1.3 1.3 1.3 0 0 1-1.3-1.3zm.2 2.9h2.1v9.7H440zm8.4 6.1l-2.5 3.6h-2.3l3.5-5-3.3-4.7h2.3l2.3 3.3 2.3-3.3h2.4l-3.4 4.7 3.6 5h-2.4zm10.2-6.4c2.9 0 4.7 2.3 4.7 5.3v.5h-7.4a2.8 2.8 0 0 0 3 2.7 4.1 4.1 0 0 0 2.8-1.1l.9 1.4a5.5 5.5 0 0 1-3.9 1.4 4.8 4.8 0 0 1-5-5.1 4.9 4.9 0 0 1 4.9-5.1zm-2.8 4.3h5.5a2.6 2.6 0 0 0-2.7-2.5 2.7 2.7 0 0 0-2.8 2.5zm9.6-7.7h2.1V210h-2.1zm4.9 10.6a5.2 5.2 0 0 0 3.3 1.3c1.3 0 1.9-.4 1.9-1.1s-1-1.2-2.2-1.4-3.6-.8-3.6-3 1.3-3 3.8-3a5.2 5.2 0 0 1 3.7 1.4l-.8 1.5a3.9 3.9 0 0 0-2.9-1.2c-1.1 0-1.8.4-1.8 1.1s1 1 2.1 1.3 3.7.8 3.7 3.1-1.4 3-4 3a5.8 5.8 0 0 1-4.1-1.5z"/><path fill="#d1d3d4" d="M411 208.1c5.2-3.9 7.2-5.7 7.2-7.6s-1.2-2-2.4-2a4.4 4.4 0 0 0-3.6 1.6l-1.4-1.6a6.6 6.6 0 0 1 5-2.1c2.5 0 4.8 1.5 4.8 4.1s-2.3 4.7-5.8 7.4h5.9v2.1H411zm17.4 5.5v-13.3h2.1v1.3a3.8 3.8 0 0 1 3.1-1.6c2.5 0 4.3 1.9 4.3 5.1s-1.8 5.1-4.3 5.1a3.7 3.7 0 0 1-3.1-1.6v5zm4.6-11.7a3.3 3.3 0 0 0-2.5 1.3v3.8a3.3 3.3 0 0 0 2.5 1.3c1.7 0 2.7-1.3 2.7-3.2s-1-3.2-2.7-3.2zm6.8-4.5a1.3 1.3 0 1 1 1.3 1.3 1.3 1.3 0 0 1-1.3-1.3zm.2 2.9h2.1v9.7H440zm8.4 6.1l-2.5 3.6h-2.3l3.5-5-3.3-4.7h2.3l2.3 3.3 2.3-3.3h2.4l-3.4 4.7 3.6 5h-2.4zm10.2-6.4c2.9 0 4.7 2.3 4.7 5.3v.5h-7.4a2.8 2.8 0 0 0 3 2.7 4.1 4.1 0 0 0 2.8-1.1l.9 1.4a5.5 5.5 0 0 1-3.9 1.4 4.8 4.8 0 0 1-5-5.1 4.9 4.9 0 0 1 4.9-5.1zm-2.8 4.3h5.5a2.6 2.6 0 0 0-2.7-2.5 2.7 2.7 0 0 0-2.8 2.5zm9.6-7.7h2.1V210h-2.1zm4.9 10.6a5.2 5.2 0 0 0 3.3 1.3c1.3 0 1.9-.4 1.9-1.1s-1-1.2-2.2-1.4-3.6-.8-3.6-3 1.3-3 3.8-3a5.2 5.2 0 0 1 3.7 1.4l-.8 1.5a3.9 3.9 0 0 0-2.9-1.2c-1.1 0-1.8.4-1.8 1.1s1 1 2.1 1.3 3.7.8 3.7 3.1-1.4 3-4 3a5.8 5.8 0 0 1-4.1-1.5z"/><path fill="none" stroke="#d1d3d4" stroke-miterlimit="10" d="M856.9 204.8h30v-17.4m-152.5 0v17.4h29.5"/><path fill="#d1d3d4" d="M778.6 206.5a5.1 5.1 0 0 0 3.7 1.6c1.8 0 2.8-.8 2.8-2s-1.1-1.9-3-1.9h-1.5v-2.1h1.5c1.6 0 2.8-.5 2.8-1.7s-1.2-1.9-2.7-1.9a4.7 4.7 0 0 0-3.5 1.5l-1.2-1.5a6.4 6.4 0 0 1 4.9-2.1c2.9 0 4.8 1.4 4.8 3.6a3.3 3.3 0 0 1-2.9 3.1 3.3 3.3 0 0 1 3.1 3.2c0 2.3-1.9 3.9-5 3.9a6.1 6.1 0 0 1-5-2.2zm16.3 7.1v-13.3h2.1v1.3a3.7 3.7 0 0 1 3.1-1.6c2.5 0 4.2 1.9 4.2 5.1s-1.7 5.1-4.2 5.1a3.5 3.5 0 0 1-3.1-1.6v5zm4.5-11.7a3.1 3.1 0 0 0-2.4 1.3v3.8a3.1 3.1 0 0 0 2.4 1.3c1.7 0 2.8-1.3 2.8-3.2s-1.1-3.2-2.8-3.2zm6.8-4.5a1.3 1.3 0 1 1 1.3 1.3 1.3 1.3 0 0 1-1.3-1.3zm.3 2.9h2.1v9.7h-2.1zm8.4 6.1l-2.5 3.6H810l3.6-5-3.4-4.7h2.4l2.3 3.3 2.3-3.3h2.3l-3.3 4.7 3.5 5h-2.3zM825 200c2.9 0 4.8 2.3 4.8 5.3v.5h-7.5a3 3 0 0 0 3.1 2.7 4 4 0 0 0 2.7-1.1l1 1.4a5.8 5.8 0 0 1-3.9 1.4 5.1 5.1 0 0 1-.2-10.2zm-2.7 4.3h5.4a2.5 2.5 0 0 0-2.7-2.5 2.6 2.6 0 0 0-2.7 2.5zm9.5-7.7h2.1V210h-2.1zm5 10.6a5 5 0 0 0 3.3 1.3c1.2 0 1.9-.4 1.9-1.1s-1.1-1.2-2.2-1.4-3.7-.8-3.7-3 1.4-3 3.8-3a5.5 5.5 0 0 1 3.8 1.4l-.9 1.5a3.9 3.9 0 0 0-2.9-1.2c-1.1 0-1.8.4-1.8 1.1s1 1 2.1 1.3 3.8.8 3.8 3.1-1.4 3-4 3a5.8 5.8 0 0 1-4.2-1.5z"/><path fill="none" stroke="#fff" stroke-width="2" d="M778.6 206.5a5.1 5.1 0 0 0 3.7 1.6c1.8 0 2.8-.8 2.8-2s-1.1-1.9-3-1.9h-1.5v-2.1h1.5c1.6 0 2.8-.5 2.8-1.7s-1.2-1.9-2.7-1.9a4.7 4.7 0 0 0-3.5 1.5l-1.2-1.5a6.4 6.4 0 0 1 4.9-2.1c2.9 0 4.8 1.4 4.8 3.6a3.3 3.3 0 0 1-2.9 3.1 3.3 3.3 0 0 1 3.1 3.2c0 2.3-1.9 3.9-5 3.9a6.1 6.1 0 0 1-5-2.2zm16.3 7.1v-13.3h2.1v1.3a3.7 3.7 0 0 1 3.1-1.6c2.5 0 4.2 1.9 4.2 5.1s-1.7 5.1-4.2 5.1a3.5 3.5 0 0 1-3.1-1.6v5zm4.5-11.7a3.1 3.1 0 0 0-2.4 1.3v3.8a3.1 3.1 0 0 0 2.4 1.3c1.7 0 2.8-1.3 2.8-3.2s-1.1-3.2-2.8-3.2zm6.8-4.5a1.3 1.3 0 1 1 1.3 1.3 1.3 1.3 0 0 1-1.3-1.3zm.3 2.9h2.1v9.7h-2.1zm8.4 6.1l-2.5 3.6H810l3.6-5-3.4-4.7h2.4l2.3 3.3 2.3-3.3h2.3l-3.3 4.7 3.5 5h-2.3zM825 200c2.9 0 4.8 2.3 4.8 5.3v.5h-7.5a3 3 0 0 0 3.1 2.7 4 4 0 0 0 2.7-1.1l1 1.4a5.8 5.8 0 0 1-3.9 1.4 5.1 5.1 0 0 1-.2-10.2zm-2.7 4.3h5.4a2.5 2.5 0 0 0-2.7-2.5 2.6 2.6 0 0 0-2.7 2.5zm9.5-7.7h2.1V210h-2.1zm5 10.6a5 5 0 0 0 3.3 1.3c1.2 0 1.9-.4 1.9-1.1s-1.1-1.2-2.2-1.4-3.7-.8-3.7-3 1.4-3 3.8-3a5.5 5.5 0 0 1 3.8 1.4l-.9 1.5a3.9 3.9 0 0 0-2.9-1.2c-1.1 0-1.8.4-1.8 1.1s1 1 2.1 1.3 3.8.8 3.8 3.1-1.4 3-4 3a5.8 5.8 0 0 1-4.2-1.5z"/><path fill="#d1d3d4" d="M778.6 206.5a5.1 5.1 0 0 0 3.7 1.6c1.8 0 2.8-.8 2.8-2s-1.1-1.9-3-1.9h-1.5v-2.1h1.5c1.6 0 2.8-.5 2.8-1.7s-1.2-1.9-2.7-1.9a4.7 4.7 0 0 0-3.5 1.5l-1.2-1.5a6.4 6.4 0 0 1 4.9-2.1c2.9 0 4.8 1.4 4.8 3.6a3.3 3.3 0 0 1-2.9 3.1 3.3 3.3 0 0 1 3.1 3.2c0 2.3-1.9 3.9-5 3.9a6.1 6.1 0 0 1-5-2.2zm16.3 7.1v-13.3h2.1v1.3a3.7 3.7 0 0 1 3.1-1.6c2.5 0 4.2 1.9 4.2 5.1s-1.7 5.1-4.2 5.1a3.5 3.5 0 0 1-3.1-1.6v5zm4.5-11.7a3.1 3.1 0 0 0-2.4 1.3v3.8a3.1 3.1 0 0 0 2.4 1.3c1.7 0 2.8-1.3 2.8-3.2s-1.1-3.2-2.8-3.2zm6.8-4.5a1.3 1.3 0 1 1 1.3 1.3 1.3 1.3 0 0 1-1.3-1.3zm.3 2.9h2.1v9.7h-2.1zm8.4 6.1l-2.5 3.6H810l3.6-5-3.4-4.7h2.4l2.3 3.3 2.3-3.3h2.3l-3.3 4.7 3.5 5h-2.3zM825 200c2.9 0 4.8 2.3 4.8 5.3v.5h-7.5a3 3 0 0 0 3.1 2.7 4 4 0 0 0 2.7-1.1l1 1.4a5.8 5.8 0 0 1-3.9 1.4 5.1 5.1 0 0 1-.2-10.2zm-2.7 4.3h5.4a2.5 2.5 0 0 0-2.7-2.5 2.6 2.6 0 0 0-2.7 2.5zm9.5-7.7h2.1V210h-2.1zm5 10.6a5 5 0 0 0 3.3 1.3c1.2 0 1.9-.4 1.9-1.1s-1.1-1.2-2.2-1.4-3.7-.8-3.7-3 1.4-3 3.8-3a5.5 5.5 0 0 1 3.8 1.4l-.9 1.5a3.9 3.9 0 0 0-2.9-1.2c-1.1 0-1.8.4-1.8 1.1s1 1 2.1 1.3 3.8.8 3.8 3.1-1.4 3-4 3a5.8 5.8 0 0 1-4.2-1.5z"/><path fill="none" stroke="#d1d3d4" stroke-miterlimit="10" d="M397.6 12.5h-30V30m152.5 0V12.5h-29.5"/><path fill="#d1d3d4" d="M418.7 7.4l-2.2 2.2-1.4-1.4 3.9-3.9h2v13.4h-2.3zm10.2 13.9V8h2.1v1.3a4.2 4.2 0 0 1 3.1-1.5c2.5 0 4.3 1.8 4.3 5s-1.8 5.1-4.3 5.1a3.7 3.7 0 0 1-3.1-1.6v5zm4.6-11.7a3.3 3.3 0 0 0-2.5 1.3v3.8a3.3 3.3 0 0 0 2.5 1.3c1.7 0 2.7-1.3 2.7-3.2s-1-3.2-2.7-3.2zm6.4 3.2a5 5 0 0 1 10 0 5 5 0 1 1-10 0zm7.8 0c0-1.7-1-3.2-2.8-3.2s-2.8 1.5-2.8 3.2 1 3.2 2.8 3.2 2.8-1.5 2.8-3.2zm4-7.7a1.3 1.3 0 0 1 1.3-1.3 1.3 1.3 0 0 1 1.3 1.3 1.3 1.3 0 0 1-1.3 1.3 1.3 1.3 0 0 1-1.3-1.3zM452 8h2.1v9.7H452zm11.3 3.6c0-1.5-.7-2-1.9-2a3.4 3.4 0 0 0-2.5 1.3v6.8h-2.1V8h2.1v1.3a4.9 4.9 0 0 1 3.4-1.5 2.8 2.8 0 0 1 3.1 3.1v6.8h-2.1zm5.3 3.8V9.8H467V8h1.6V5.4h2.1V8h1.9v1.8h-1.9v5.1c0 .7.3 1.1.9 1.1s.8-.1.9-.3l.5 1.6a2.8 2.8 0 0 1-1.9.6 2.2 2.2 0 0 1-2.5-2.5z"/><path fill="none" stroke="#fff" stroke-width="2" d="M418.7 7.4l-2.2 2.2-1.4-1.4 3.9-3.9h2v13.4h-2.3zm10.2 13.9V8h2.1v1.3a4.2 4.2 0 0 1 3.1-1.5c2.5 0 4.3 1.8 4.3 5s-1.8 5.1-4.3 5.1a3.7 3.7 0 0 1-3.1-1.6v5zm4.6-11.7a3.3 3.3 0 0 0-2.5 1.3v3.8a3.3 3.3 0 0 0 2.5 1.3c1.7 0 2.7-1.3 2.7-3.2s-1-3.2-2.7-3.2zm6.4 3.2a5 5 0 0 1 10 0 5 5 0 1 1-10 0zm7.8 0c0-1.7-1-3.2-2.8-3.2s-2.8 1.5-2.8 3.2 1 3.2 2.8 3.2 2.8-1.5 2.8-3.2zm4-7.7a1.3 1.3 0 0 1 1.3-1.3 1.3 1.3 0 0 1 1.3 1.3 1.3 1.3 0 0 1-1.3 1.3 1.3 1.3 0 0 1-1.3-1.3zM452 8h2.1v9.7H452zm11.3 3.6c0-1.5-.7-2-1.9-2a3.4 3.4 0 0 0-2.5 1.3v6.8h-2.1V8h2.1v1.3a4.9 4.9 0 0 1 3.4-1.5 2.8 2.8 0 0 1 3.1 3.1v6.8h-2.1zm5.3 3.8V9.8H467V8h1.6V5.4h2.1V8h1.9v1.8h-1.9v5.1c0 .7.3 1.1.9 1.1s.8-.1.9-.3l.5 1.6a2.8 2.8 0 0 1-1.9.6 2.2 2.2 0 0 1-2.5-2.5z"/><path fill="#d1d3d4" d="M418.7 7.4l-2.2 2.2-1.4-1.4 3.9-3.9h2v13.4h-2.3zm10.2 13.9V8h2.1v1.3a4.2 4.2 0 0 1 3.1-1.5c2.5 0 4.3 1.8 4.3 5s-1.8 5.1-4.3 5.1a3.7 3.7 0 0 1-3.1-1.6v5zm4.6-11.7a3.3 3.3 0 0 0-2.5 1.3v3.8a3.3 3.3 0 0 0 2.5 1.3c1.7 0 2.7-1.3 2.7-3.2s-1-3.2-2.7-3.2zm6.4 3.2a5 5 0 0 1 10 0 5 5 0 1 1-10 0zm7.8 0c0-1.7-1-3.2-2.8-3.2s-2.8 1.5-2.8 3.2 1 3.2 2.8 3.2 2.8-1.5 2.8-3.2zm4-7.7a1.3 1.3 0 0 1 1.3-1.3 1.3 1.3 0 0 1 1.3 1.3 1.3 1.3 0 0 1-1.3 1.3 1.3 1.3 0 0 1-1.3-1.3zM452 8h2.1v9.7H452zm11.3 3.6c0-1.5-.7-2-1.9-2a3.4 3.4 0 0 0-2.5 1.3v6.8h-2.1V8h2.1v1.3a4.9 4.9 0 0 1 3.4-1.5 2.8 2.8 0 0 1 3.1 3.1v6.8h-2.1zm5.3 3.8V9.8H467V8h1.6V5.4h2.1V8h1.9v1.8h-1.9v5.1c0 .7.3 1.1.9 1.1s.8-.1.9-.3l.5 1.6a2.8 2.8 0 0 1-1.9.6 2.2 2.2 0 0 1-2.5-2.5z"/><path fill="none" stroke="#d1d3d4" stroke-miterlimit="10" d="M764.1 12.5h-30V30m152.5 0V12.5h-29.5"/><path fill="#d1d3d4" d="M785.2 7.4L783 9.6l-1.4-1.4 3.9-3.9h2v13.4h-2.3zm10.2 13.9V8h2.1v1.3a4.2 4.2 0 0 1 3.1-1.5c2.5 0 4.3 1.8 4.3 5s-1.8 5.1-4.3 5.1a3.7 3.7 0 0 1-3.1-1.6v5zM800 9.6a3.3 3.3 0 0 0-2.5 1.3v3.8A3.3 3.3 0 0 0 800 16c1.7 0 2.7-1.3 2.7-3.2s-1-3.2-2.7-3.2zm6.4 3.2a5 5 0 1 1 10 0 5 5 0 1 1-10 0zm7.8 0c0-1.7-1-3.2-2.8-3.2s-2.8 1.5-2.8 3.2 1 3.2 2.8 3.2 2.8-1.5 2.8-3.2zm4-7.7a1.3 1.3 0 0 1 1.3-1.3 1.3 1.3 0 0 1 1.3 1.3 1.3 1.3 0 0 1-1.3 1.3 1.3 1.3 0 0 1-1.3-1.3zm.3 2.9h2.1v9.7h-2.1zm11.3 3.6c0-1.5-.7-2-1.9-2a3.4 3.4 0 0 0-2.5 1.3v6.8h-2.1V8h2.1v1.3a4.9 4.9 0 0 1 3.4-1.5 2.8 2.8 0 0 1 3.1 3.1v6.8h-2.1zm5.3 3.8V9.8h-1.6V8h1.6V5.4h2.1V8h1.9v1.8h-1.9v5.1c0 .7.3 1.1.9 1.1s.8-.1.9-.3l.5 1.6a2.8 2.8 0 0 1-1.9.6 2.2 2.2 0 0 1-2.5-2.5z"/><path fill="none" stroke="#fff" stroke-width="2" d="M785.2 7.4L783 9.6l-1.4-1.4 3.9-3.9h2v13.4h-2.3zm10.2 13.9V8h2.1v1.3a4.2 4.2 0 0 1 3.1-1.5c2.5 0 4.3 1.8 4.3 5s-1.8 5.1-4.3 5.1a3.7 3.7 0 0 1-3.1-1.6v5zM800 9.6a3.3 3.3 0 0 0-2.5 1.3v3.8A3.3 3.3 0 0 0 800 16c1.7 0 2.7-1.3 2.7-3.2s-1-3.2-2.7-3.2zm6.4 3.2a5 5 0 1 1 10 0 5 5 0 1 1-10 0zm7.8 0c0-1.7-1-3.2-2.8-3.2s-2.8 1.5-2.8 3.2 1 3.2 2.8 3.2 2.8-1.5 2.8-3.2zm4-7.7a1.3 1.3 0 0 1 1.3-1.3 1.3 1.3 0 0 1 1.3 1.3 1.3 1.3 0 0 1-1.3 1.3 1.3 1.3 0 0 1-1.3-1.3zm.3 2.9h2.1v9.7h-2.1zm11.3 3.6c0-1.5-.7-2-1.9-2a3.4 3.4 0 0 0-2.5 1.3v6.8h-2.1V8h2.1v1.3a4.9 4.9 0 0 1 3.4-1.5 2.8 2.8 0 0 1 3.1 3.1v6.8h-2.1zm5.3 3.8V9.8h-1.6V8h1.6V5.4h2.1V8h1.9v1.8h-1.9v5.1c0 .7.3 1.1.9 1.1s.8-.1.9-.3l.5 1.6a2.8 2.8 0 0 1-1.9.6 2.2 2.2 0 0 1-2.5-2.5z"/><path fill="#d1d3d4" d="M785.2 7.4L783 9.6l-1.4-1.4 3.9-3.9h2v13.4h-2.3zm10.2 13.9V8h2.1v1.3a4.2 4.2 0 0 1 3.1-1.5c2.5 0 4.3 1.8 4.3 5s-1.8 5.1-4.3 5.1a3.7 3.7 0 0 1-3.1-1.6v5zM800 9.6a3.3 3.3 0 0 0-2.5 1.3v3.8A3.3 3.3 0 0 0 800 16c1.7 0 2.7-1.3 2.7-3.2s-1-3.2-2.7-3.2zm6.4 3.2a5 5 0 1 1 10 0 5 5 0 1 1-10 0zm7.8 0c0-1.7-1-3.2-2.8-3.2s-2.8 1.5-2.8 3.2 1 3.2 2.8 3.2 2.8-1.5 2.8-3.2zm4-7.7a1.3 1.3 0 0 1 1.3-1.3 1.3 1.3 0 0 1 1.3 1.3 1.3 1.3 0 0 1-1.3 1.3 1.3 1.3 0 0 1-1.3-1.3zm.3 2.9h2.1v9.7h-2.1zm11.3 3.6c0-1.5-.7-2-1.9-2a3.4 3.4 0 0 0-2.5 1.3v6.8h-2.1V8h2.1v1.3a4.9 4.9 0 0 1 3.4-1.5 2.8 2.8 0 0 1 3.1 3.1v6.8h-2.1zm5.3 3.8V9.8h-1.6V8h1.6V5.4h2.1V8h1.9v1.8h-1.9v5.1c0 .7.3 1.1.9 1.1s.8-.1.9-.3l.5 1.6a2.8 2.8 0 0 1-1.9.6 2.2 2.2 0 0 1-2.5-2.5z"/><path fill="url(#a)" d="M965.1 295.5h-6.4l-2.9-12.9c-2.4-8.2-7-15.4-15.5-15.4H802.1c-8.5 0-13.1 7.2-15.4 15.4l-3 12.9h-58.8v-6.8a12.8 12.8 0 0 0-12.8-12.8h-20.9a12.8 12.8 0 0 0-12.8 12.8v6.8h-23.3a29.1 29.1 0 0 0-29.1 29.1v171.8a29.1 29.1 0 0 0 29.1 29.1h310a29.1 29.1 0 0 0 29.1-29.1V324.6a29.1 29.1 0 0 0-29.1-29.1zm-264.2 72.8a16 16 0 1 1 16-16 16 16 0 0 1-16 16zm176.1 131a87.2 87.2 0 1 1 87.2-87.2 87.3 87.3 0 0 1-87.2 87.2zm63.9-87.2a63.9 63.9 0 1 1-63.9-63.9 64 64 0 0 1 63.9 63.9z"/><path fill="url(#b)" d="M521.4 345.9h-3.2l-1.5-6.4c-1.2-4.1-3.5-7.8-7.7-7.8h-69.1c-4.3 0-6.6 3.7-7.7 7.8l-1.5 6.4h-29.4v-3.4a6.4 6.4 0 0 0-6.4-6.4h-10.5a6.4 6.4 0 0 0-6.4 6.4v3.4h-11.6a14.6 14.6 0 0 0-14.6 14.6v85.9a14.5 14.5 0 0 0 14.6 14.5h155a14.5 14.5 0 0 0 14.5-14.5v-85.9a14.5 14.5 0 0 0-14.5-14.6zm-132.1 36.4a8 8 0 1 1 8-8 8 8 0 0 1-8 8zm88 65.5a43.6 43.6 0 1 1 43.6-43.6 43.6 43.6 0 0 1-43.6 43.6zm32-43.6a32 32 0 1 1-32-31.9 32 32 0 0 1 32 31.9z"/><path fill="url(#c)" d="M116.4 371.1h-1.6l-.7-3.2c-.6-2-1.8-3.9-3.9-3.9H75.6c-2.1 0-3.2 1.9-3.8 3.9l-.7 3.2H56.4v-1.7a3.3 3.3 0 0 0-3.2-3.2h-5.3a3.3 3.3 0 0 0-3.2 3.2v1.7h-5.8a7.3 7.3 0 0 0-7.3 7.3v42.9a7.3 7.3 0 0 0 7.3 7.3h77.5a7.3 7.3 0 0 0 7.3-7.3v-42.9a7.3 7.3 0 0 0-7.3-7.3zm-66 18.2a4 4 0 1 1 0-8 4 4 0 0 1 0 8zm44 32.8a21.8 21.8 0 1 1 21.8-21.8 21.9 21.9 0 0 1-21.8 21.8zm16-21.8a16 16 0 1 1-16-16 16 16 0 0 1 16 16z"/><path fill="#00683f" d="M784.7 597.5a14.8 14.8 0 0 0 10.3 4.3c4.6 0 7.1-2 7.1-4.9s-2.3-4.4-7.5-4.4h-4.7v-7h4.7c4.1 0 6.9-1.3 6.9-4.1s-3-4.5-7-4.5a13.8 13.8 0 0 0-9.6 3.9l-3.9-5c3-3.4 7.8-5.9 14.4-5.9 8.7 0 14.1 3.9 14.1 10.2 0 4.7-4 7.8-8.2 8.5 3.9.4 8.8 3.4 8.8 9s-5.8 11.1-14.8 11.1c-6.9 0-12.1-2.7-14.8-6.1zm41.9 1.4l-6.2 9.2h-8l9.6-14-9-13.2h8l5.6 8.4 5.6-8.4h8l-9.1 13.2 9.7 14h-8zm-411.2 2.9c15.4-11.3 19.9-15.2 19.9-19.8s-3-4.9-6.1-4.9a13.7 13.7 0 0 0-10.1 4.3l-4.5-5.3c3.6-4.2 9.2-6.1 14.5-6.1 7.9 0 14.3 4.5 14.3 12s-5.3 12-15.4 19.1h15.7v7h-28.3zm45.4-2.9l-6.3 9.2h-7.9l9.6-14-9.1-13.2h8l5.7 8.4 5.5-8.4h8l-9.1 13.2 9.7 14H467zM63.3 580.8l-6.2 6.4-4.6-4.8 11.8-11.9h7v37.6h-8zm25.9 18.1l-6.2 9.2h-8l9.7-14-9.1-13.2h8l5.6 8.4 5.6-8.4h8l-9.1 13.2 9.7 14h-8z"/><path fill="none" stroke="#a7a9ac" stroke-miterlimit="10" stroke-width=".75" d="M738.5 660.5h14.3v14.34h-14.3zm16.1 0h14.3v14.34h-14.3zm16.1 0H785v14.34h-14.3zm16.1 0h14.3v14.34h-14.3zm16.1 0h14.3v14.34h-14.3zm16.1 0h14.3v14.34H819zm16.1 0h14.3v14.34h-14.3zm16.1 0h14.3v14.34h-14.3zm16.1 0h14.3v14.34h-14.3zm-128.8 16.1h14.3v14.34h-14.3zm16.1 0h14.3v14.34h-14.3zm16.1 0H785v14.34h-14.3zm16.1 0h14.3v14.34h-14.3zm16.1 0h14.3v14.34h-14.3zm16.1 0h14.3v14.34H819zm16.1 0h14.3v14.34h-14.3zm16.1 0h14.3v14.34h-14.3zm16.1 0h14.3v14.34h-14.3zm-128.8 16.1h14.3v14.34h-14.3zm16.1 0h14.3v14.34h-14.3zm16.1 0H785v14.34h-14.3zm16.1 0h14.3v14.34h-14.3zm16.1 0h14.3v14.34h-14.3zm16.1 0h14.3v14.34H819zm16.1 0h14.3v14.34h-14.3zm16.1 0h14.3v14.34h-14.3zm16.1 0h14.3v14.34h-14.3zm-128.8 16.1h14.3v14.34h-14.3zm16.1 0h14.3v14.34h-14.3zm16.1 0H785v14.34h-14.3zm16.1 0h14.3v14.34h-14.3zm16.1 0h14.3v14.34h-14.3zm16.1 0h14.3v14.34H819zm16.1 0h14.3v14.34h-14.3zm16.1 0h14.3v14.34h-14.3zm16.1 0h14.3v14.34h-14.3zm-128.8 16.1h14.3v14.34h-14.3zm16.1 0h14.3v14.34h-14.3zm16.1 0H785v14.34h-14.3zm16.1 0h14.3v14.34h-14.3zm16.1 0h14.3v14.34h-14.3zm16.1 0h14.3v14.34H819zm16.1 0h14.3v14.34h-14.3zm16.1 0h14.3v14.34h-14.3zm16.1 0h14.3v14.34h-14.3zM738.5 741h14.3v14.34h-14.3zm16.1 0h14.3v14.34h-14.3zm16.1 0H785v14.34h-14.3zm16.1 0h14.3v14.34h-14.3zm16.1 0h14.3v14.34h-14.3zm16.1 0h14.3v14.34H819zm16.1 0h14.3v14.34h-14.3zm16.1 0h14.3v14.34h-14.3zm16.1 0h14.3v14.34h-14.3zm-128.8 16.1h14.3v14.34h-14.3zm16.1 0h14.3v14.34h-14.3zm16.1 0H785v14.34h-14.3zm16.1 0h14.3v14.34h-14.3zm16.1 0h14.3v14.34h-14.3zm16.1 0h14.3v14.34H819zm16.1 0h14.3v14.34h-14.3zm16.1 0h14.3v14.34h-14.3zm16.1 0h14.3v14.34h-14.3zm-128.8 16.1h14.3v14.34h-14.3zm16.1 0h14.3v14.34h-14.3zm16.1 0H785v14.34h-14.3zm16.1 0h14.3v14.34h-14.3zm16.1 0h14.3v14.34h-14.3zm16.1 0h14.3v14.34H819zm16.1 0h14.3v14.34h-14.3zm16.1 0h14.3v14.34h-14.3zm16.1 0h14.3v14.34h-14.3zm-128.8 16.1h14.3v14.34h-14.3zm16.1 0h14.3v14.34h-14.3zm16.1 0H785v14.34h-14.3zm16.1 0h14.3v14.34h-14.3zm16.1 0h14.3v14.34h-14.3zm16.1 0h14.3v14.34H819zm16.1 0h14.3v14.34h-14.3zm16.1 0h14.3v14.34h-14.3zm16.1 0h14.3v14.34h-14.3z"/><path fill="url(#d)" d="M848.8 706.9h-1.6l-.7-3.2c-.6-2.1-1.7-3.9-3.9-3.9h-34.5c-2.1 0-3.3 1.8-3.9 3.9l-.7 3.2h-14.7v-1.7a3.2 3.2 0 0 0-3.2-3.2h-5.2a3.2 3.2 0 0 0-3.3 3.2v1.7h-5.8a7.3 7.3 0 0 0-7.2 7.3v42.9a7.3 7.3 0 0 0 7.2 7.3h77.5a7.3 7.3 0 0 0 7.3-7.3v-42.9a7.3 7.3 0 0 0-7.3-7.3zm-66 18.2a4 4 0 1 1 4-4 4 4 0 0 1-4 4zm44 32.7a21.8 21.8 0 1 1 21.8-21.8 21.8 21.8 0 0 1-21.8 21.8zm16-21.8a16 16 0 1 1-16-15.9 16 16 0 0 1 16 15.9z"/><path fill="#fff" d="M826.8 714.2a21.8 21.8 0 1 0 21.8 21.8 21.9 21.9 0 0 0-21.8-21.8zm0 37.8a16 16 0 1 1 16-16 16 16 0 0 1-16 16zm-44-26.9a4 4 0 1 1 4-4 4 4 0 0 1-4 4z"/><path fill="none" stroke="#a7a9ac" stroke-miterlimit="10" stroke-width=".75" d="M372.3 660.5h22.4v22.39h-22.4zm24.1 0h22.4v22.39h-22.4zm24.2 0H443v22.39h-22.4zm24.1 0h22.4v22.39h-22.4zm24.2 0h22.4v22.39h-22.4zm24.1 0h22.4v22.39H493zm-120.7 24.2h22.4v22.39h-22.4zm24.1 0h22.4v22.39h-22.4zm24.2 0H443v22.39h-22.4zm24.1 0h22.4v22.39h-22.4zm24.2 0h22.4v22.39h-22.4zm24.1 0h22.4v22.39H493zm-120.7 24.1h22.4v22.39h-22.4zm24.1 0h22.4v22.39h-22.4zm24.2 0H443v22.39h-22.4zm24.1 0h22.4v22.39h-22.4zm24.2 0h22.4v22.39h-22.4zm24.1 0h22.4v22.39H493zM372.3 733h22.4v22.39h-22.4zm24.1 0h22.4v22.39h-22.4zm24.2 0H443v22.39h-22.4zm24.1 0h22.4v22.39h-22.4zm24.2 0h22.4v22.39h-22.4zm24.1 0h22.4v22.39H493zm-120.7 24.1h22.4v22.39h-22.4zm24.1 0h22.4v22.39h-22.4zm24.2 0H443v22.39h-22.4zm24.1 0h22.4v22.39h-22.4zm24.2 0h22.4v22.39h-22.4zm24.1 0h22.4v22.39H493zm-120.7 24.2h22.4v22.39h-22.4zm24.1 0h22.4v22.39h-22.4zm24.2 0H443v22.39h-22.4zm24.1 0h22.4v22.39h-22.4zm24.2 0h22.4v22.39h-22.4zm24.1 0h22.4v22.39H493z"/><path fill="url(#e)" d="M482.6 706.9H481l-.7-3.2c-.6-2.1-1.7-3.9-3.9-3.9h-34.5c-2.2 0-3.3 1.8-3.9 3.9l-.7 3.2h-14.7v-1.7a3.2 3.2 0 0 0-3.2-3.2h-5.3a3.2 3.2 0 0 0-3.2 3.2v1.7h-5.8a7.3 7.3 0 0 0-7.3 7.3v42.9a7.3 7.3 0 0 0 7.3 7.3h77.5a7.3 7.3 0 0 0 7.3-7.3v-42.9a7.3 7.3 0 0 0-7.3-7.3zm-66 18.2a4 4 0 1 1 4-4 4 4 0 0 1-4 4zm44 32.7a21.8 21.8 0 1 1 21.8-21.8 21.8 21.8 0 0 1-21.8 21.8zm16-21.8a16 16 0 1 1-16-15.9 16 16 0 0 1 16 15.9z"/><path fill="#fff" d="M460.6 714.2a21.8 21.8 0 1 0 21.8 21.8 21.9 21.9 0 0 0-21.8-21.8zm0 37.8a16 16 0 1 1 16-16 16 16 0 0 1-16 16zm-44-26.9a4 4 0 1 1 4-4 4 4 0 0 1-4 4z"/><path fill="none" stroke="#a7a9ac" stroke-miterlimit="10" stroke-width=".75" d="M6.1 660.5h46.5v46.54H6.1zm48.3 0h46.5v46.54H54.4zm48.3 0h46.5v46.54h-46.5zM6.1 708.8h46.5v46.54H6.1zm48.3 0h46.5v46.54H54.4zm48.3 0h46.5v46.54h-46.5zM6.1 757.1h46.5v46.54H6.1zm48.3 0h46.5v46.54H54.4zm48.3 0h46.5v46.54h-46.5z"/><path fill="url(#f)" d="M116.4 706.9h-1.6l-.7-3.2c-.6-2.1-1.8-3.9-3.9-3.9H75.6c-2.1 0-3.2 1.8-3.8 3.9l-.7 3.2H56.4v-1.7a3.2 3.2 0 0 0-3.2-3.2h-5.3a3.2 3.2 0 0 0-3.2 3.2v1.7h-5.8a7.3 7.3 0 0 0-7.3 7.3v42.9a7.3 7.3 0 0 0 7.3 7.3h77.5a7.3 7.3 0 0 0 7.3-7.3v-42.9a7.3 7.3 0 0 0-7.3-7.3zm-66 18.2a4 4 0 1 1 0-8 4 4 0 0 1 0 8zm44 32.7a21.8 21.8 0 1 1 21.8-21.8 21.8 21.8 0 0 1-21.8 21.8zm16-21.8a16 16 0 1 1-16-15.9 16 16 0 0 1 16 15.9z"/><path fill="#fff" d="M94.4 714.2a21.8 21.8 0 1 0 21.8 21.8 21.9 21.9 0 0 0-21.8-21.8zm0 37.8a16 16 0 1 1 16-16 16 16 0 0 1-16 16zm-44-26.9a4 4 0 1 1 0-8 4 4 0 0 1 0 8z"/></svg>