<svg xmlns="http://www.w3.org/2000/svg" width="4in" height="4in" viewBox="0 0 288 288"><circle cx="144" cy="144" r="57" fill="#464646"/><path fill="#464646" d="M143 80a9 9 0 0 0 9-9V13a9 9 0 0 0-18 0v58a9 9 0 0 0 9 9zM85.3 99.5a9.3 9.3 0 0 0 6.4 2.6A9 9 0 0 0 98 86.7l-41-41a9 9 0 1 0-12.7 12.7zM80 145a9 9 0 0 0-9-9H13a9 9 0 0 0 0 18h58a9 9 0 0 0 9-9zm6.7 45l-41 41a9 9 0 0 0 6.4 15.3 8.5 8.5 0 0 0 6.3-2.6l41.1-41A9 9 0 0 0 86.7 190zm58.3 18a9 9 0 0 0-9 9v58a9 9 0 0 0 18 0v-58a9 9 0 0 0-9-9zm57.7-19.5a9 9 0 0 0-12.7 12.8l41 41a8.9 8.9 0 0 0 6.3 2.6 9.3 9.3 0 0 0 6.4-2.6 9 9 0 0 0 0-12.7zM275 134h-58a9 9 0 0 0 0 18h58a9 9 0 0 0 0-18zm-80.1-33.3a9 9 0 0 0 6.4-2.7l41-41a9 9 0 0 0-12.7-12.7l-41.1 41a9.1 9.1 0 0 0 6.4 15.4z"/></svg>