<svg xmlns="http://www.w3.org/2000/svg" width="4in" height="4in" viewBox="0 0 288 288"><path fill="#464646" d="M42.4 163.5l1-.3.9-.5.8-.6.7-.8a3.6 3.6 0 0 0 .4-.9 1.9 1.9 0 0 0 .3-1 3.8 3.8 0 0 0 .1-1 4.1 4.1 0 0 0-.1-1.1 1.6 1.6 0 0 0-.3-.9 3.6 3.6 0 0 0-.4-.9 2.7 2.7 0 0 0-.7-.8 2.7 2.7 0 0 0-.8-.7l-.9-.5-1-.3h-2l-1 .3-.9.5-.8.7a5.4 5.4 0 0 0-1.5 3.7 3.8 3.8 0 0 0 .1 1l.3 1a4.1 4.1 0 0 0 .5.9l.6.8.8.6.9.5 1 .3h2zm73.1 81.3a5.4 5.4 0 0 0-6.8 3.1 5.2 5.2 0 0 0 3.1 6.7 5.7 5.7 0 0 0 1.8.3 5.2 5.2 0 0 0 1.9-10.1z"/><circle cx="153.5" cy="257" r="5.2" fill="#464646"/><path fill="#464646" d="M98 236.4a5.3 5.3 0 0 0-7.2 1.7 5.4 5.4 0 0 0 1.8 7.2 5.6 5.6 0 0 0 2.7.8 5.4 5.4 0 0 0 4.5-2.6 5.1 5.1 0 0 0-1.8-7.1zm36.2 13.6a5.2 5.2 0 0 0-6.1 4.2 5.3 5.3 0 0 0 4.2 6.1h1a5.3 5.3 0 0 0 5.1-4.3 5.2 5.2 0 0 0-4.2-6zm-82.9-57.6a5.3 5.3 0 0 0-2.2 7.1 5.3 5.3 0 0 0 7.1 2.1 5.2 5.2 0 0 0-4.9-9.2zm-.5-15.7a5.2 5.2 0 0 0-6.6-3.4 5.2 5.2 0 0 0 1.6 10.2 4.5 4.5 0 0 0 1.6-.3 5.2 5.2 0 0 0 3.4-6.5zM75 225.4a5.2 5.2 0 0 0 .4 7.3 5.3 5.3 0 0 0 3.5 1.3 5.4 5.4 0 0 0 3.9-1.7 5.3 5.3 0 0 0-.4-7.4 5.2 5.2 0 0 0-7.4.5zm-6-14.6a5.2 5.2 0 0 0-8.2 6.5 5.1 5.1 0 0 0 4.1 2 4.9 4.9 0 0 0 3.2-1.2 5.1 5.1 0 0 0 .9-7.3zM172.9 250a5.1 5.1 0 0 0-4.2 6.1 5.2 5.2 0 0 0 5.1 4.3h.9a5.2 5.2 0 0 0-1.8-10.3zm82.9-57.5a5.2 5.2 0 1 0-4.9 9.2 5.3 5.3 0 0 0 7.1-2.2 5.2 5.2 0 0 0-2.2-7zM245.4 210a5.2 5.2 0 0 0-7.3.8 5.3 5.3 0 0 0 .8 7.4 5.9 5.9 0 0 0 3.3 1.1 5.3 5.3 0 0 0 4.1-2 5.2 5.2 0 0 0-.9-7.3zm17.5-36.7a5.4 5.4 0 0 0-6.6 3.4 5.2 5.2 0 0 0 3.4 6.6 4.1 4.1 0 0 0 1.6.2 5.3 5.3 0 0 0 5-3.6 5.4 5.4 0 0 0-3.4-6.6zm-38.2 51.6a5.2 5.2 0 0 0-.5 7.4 5.3 5.3 0 0 0 4 1.8 5.5 5.5 0 0 0 3.4-1.3 5.2 5.2 0 0 0-6.9-7.9zm-33.1 19.9a5.4 5.4 0 0 0-3.1 6.8 5.3 5.3 0 0 0 4.9 3.4 6.5 6.5 0 0 0 1.9-.4 5.2 5.2 0 0 0-3.7-9.8zm17.4-8.4a5.3 5.3 0 0 0-1.7 7.2 5.1 5.1 0 0 0 4.4 2.5 5 5 0 0 0 2.7-.8 5.1 5.1 0 0 0 1.8-7.1 5.2 5.2 0 0 0-7.2-1.8zm60.4-81.7l-.8-.7-.9-.5-1-.3h-2l-1 .3-.9.5a2.7 2.7 0 0 0-.8.7l-.7.8-.4.9a1.6 1.6 0 0 0-.3.9 4.1 4.1 0 0 0-.1 1.1 3.8 3.8 0 0 0 .1 1 1.9 1.9 0 0 0 .3 1l.4.9.7.8a5.3 5.3 0 0 0 7.4 0l.6-.8a4.1 4.1 0 0 0 .5-.9l.3-1a3.8 3.8 0 0 0 .1-1 5 5 0 0 0-1.5-3.7zm-73.9-108a105.9 105.9 0 0 1 15.9 7.7A112.4 112.4 0 0 1 226 64.6a107.9 107.9 0 0 1 12.7 12.6 111.6 111.6 0 0 1 26.8 66.7 1 1 0 0 0 1 1 1.1 1.1 0 0 0 1.2-1 114.1 114.1 0 0 0-21.4-72.7 120 120 0 0 0-12.7-15 122.5 122.5 0 0 0-15.2-12.6 109.2 109.2 0 0 0-17.2-10.1 135.4 135.4 0 0 0-18.7-7 121.2 121.2 0 0 0-19.8-3.7l-2.5-.3-2.5-.2-5.1-.2H145l-2.5.2-5.1.3h-1.2l-1.3.2-2.5.3-5.1.7-5 1-2.5.5-2.5.7-5 1.3-2.4.8-2.4.8-2.5.9-2.4.9a104.7 104.7 0 0 0-34.1 22.9 109.6 109.6 0 0 0-19.2 26.3l-30-21c11.4 23.3 18.7 58 21.2 85 15.7-22.1 39.5-48.4 61.1-62.8l-31.7 2.6a129.4 129.4 0 0 1 13.7-14 146.4 146.4 0 0 1 28-18.9 104.6 104.6 0 0 1 32.5-10.3l2.2-.3 2.1-.2 4.4-.3a30.5 30.5 0 0 1 4.3-.1 16.1 16.1 0 0 1 2.2 0h2.1a103.9 103.9 0 0 1 34.1 7.1z"/></svg>