<svg xmlns="http://www.w3.org/2000/svg" width="4in" height="4in" viewBox="0 0 288 288"><path fill="#464646" d="M225.5 70.3a26.5 26.5 0 0 0-15.5 1.3l-.7.2c.3-2.1.7-4.2 1-6.2a26.9 26.9 0 0 0-46.9-21.9l-1 1.1c-.2-1.6-.3-3-.6-4.4a27 27 0 0 0-23.1-21.7l-.7-.2h-5a47.4 47.4 0 0 0-6.5 1.6 26.9 26.9 0 0 0-18 26 5.7 5.7 0 0 1 .1 1.4l-2.8-2.4c-8.1-6.4-17.2-8-26.9-4.2s-15 11-16.8 21.1a25.7 25.7 0 0 0 1.1 12.3L82.4 137c.8 2.6 1.4 5.3 2.2 8.3l-1.2-.8-10.7-8.4c-16-12.6-40.1-3.3-43.1 16.9-1.5 9.7 1.5 18.1 9.1 24.6 11.7 10.1 23.6 20 35.4 30.1a9.3 9.3 0 0 1 2.1 2.3 95.8 95.8 0 0 0 19.5 23.5 1.7 1.7 0 0 1 .7 1.3c.1 9.5.1 19 .2 28.5a.3.3 0 0 0-.1.2h97.8v-12.7l.3-18.7a6.5 6.5 0 0 1 .4-1.9 186.7 186.7 0 0 0 15.5-47.2 46.8 46.8 0 0 1 3.9-12l28.5-60.2a34.6 34.6 0 0 0 3.7-10.8c1.9-13.7-7.6-27.1-21.1-29.7zm4.9 31.3q-11.4 23.9-22.6 47.7c-2.9 6-5.6 12-8.6 18a41.7 41.7 0 0 0-3.2 9.8c-3.1 17.2-8.1 33.9-16.2 49.5a3.3 3.3 0 0 0-.4 1.7l-.3 18.4v1.5h-67.3c0-.4-.1-.8-.1-1.3 0-6.5-.1-13.1-.2-19.6a1.5 1.5 0 0 0-.6-1.3c-9.2-6.2-16.1-14.6-21.8-24.1a20.6 20.6 0 0 0-4.9-5.7l-35.4-29.9a11.6 11.6 0 0 1 2.1-19.5 11.2 11.2 0 0 1 12.5 1.4l21.8 17a21.3 21.3 0 0 0 5.3 3c4.6 1.8 8.2-.1 9.8-4.8a25 25 0 0 0 .8-9.8c-.6-9.3-3.2-18.1-5.9-27-5.8-18.8-11.5-37.7-17.4-56.5-2.5-7.8 2.4-14.5 8.8-15.7a11.6 11.6 0 0 1 13.2 7.9l6.2 20.3c4 13 8 26.1 12.1 39.1a28.2 28.2 0 0 0 4.7 9.3 12.9 12.9 0 0 0 1.6 1.7c2.2 1.8 3.9 1.4 4.6-1.2a21.1 21.1 0 0 0 1-6.1c-.1-3.8-.3-7.7-.6-11.6-.6-7.5-1.2-15.1-1.9-22.6l-2.1-25.8c-.6-6.3-1.2-12.6-1.6-18.9s3.7-11.6 9.5-12.5 11.8 2.4 13.3 8.3a44 44 0 0 1 .9 7.4l2.7 32.6c.9 10.5 1.7 21.1 2.6 31.6a81 81 0 0 0 1.3 8.6 8.5 8.5 0 0 0 1.5 3 1.8 1.8 0 0 0 2.8.3c1.2-1.3 2.5-2.8 2.8-4.4 3.3-17.8 6.4-35.7 9.6-53.5.6-3.2 1-6.4 1.7-9.5a11.7 11.7 0 0 1 13.5-8.6 11.4 11.4 0 0 1 9.3 12.8c-1.3 8-2.7 15.9-4.2 23.8-2.2 12.7-4.5 25.3-6.7 38a13.9 13.9 0 0 0 1.5 8.2c.7 1.6 2 1.8 3.3.5a12.1 12.1 0 0 0 2.8-3.9c5.9-12.5 11.7-25 17.5-37.5a11.4 11.4 0 0 1 15.4-5.7 11.7 11.7 0 0 1 5.5 15.6z"/></svg>