<svg xmlns="http://www.w3.org/2000/svg" width="4in" height="4in" viewBox="0 0 288 288"><path fill="#464646" d="M120 220a100.2 100.2 0 0 1 100-100 98.7 98.7 0 0 1 47.4 12A124 124 0 1 0 132 267.4a98.7 98.7 0 0 1-12-47.4z"/><path fill="#464646" d="M266.4 163.7a72.9 72.9 0 0 0-102.7 102.7 124 124 0 0 0 102.7-102.7z"/><circle cx="144" cy="144" r="124" fill="none"/><path fill="#b2b2b2" d="M147 220a72.9 72.9 0 0 1 119.4-56.3A116.4 116.4 0 0 0 268 144a117.6 117.6 0 0 0-.6-12 98.7 98.7 0 0 0-47.4-12 100.2 100.2 0 0 0-100 100 98.7 98.7 0 0 0 12 47.4 117.6 117.6 0 0 0 12 .6 116.4 116.4 0 0 0 19.7-1.6A72.7 72.7 0 0 1 147 220z"/></svg>