<svg xmlns="http://www.w3.org/2000/svg" id="Layer_1" viewBox="0 0 670 180" width="670" height="180"><style>.st0{fill:#fff;stroke:#000;stroke-width:.5;stroke-miterlimit:10}.st1{fill:#79b6e4}.st2{fill:#fff}.st3{fill:#d6e5f6}.st4{enable-background:new}.st5{fill:#79b5e2}</style><path d="M0 0h670v180H0z" class="st0"/><path d="M54 15.9h36v36H54z" class="st1"/><path d="M63.2 37.2v-7.9c0-.1.1-.2.2-.3s.3-.1.5-.1.3 0 .4.1.2.2.2.3v7.2h3.1c.1 0 .2.1.3.2.1.1.1.2.1.4s0 .3-.1.4-.2.2-.3.2h-3.8c-.2 0-.3 0-.4-.1-.2-.1-.2-.2-.2-.4zm5.2-1.8v-1.1c0-.6.2-1.2.7-1.6.5-.5 1.1-.7 1.8-.7s1.2.2 1.7.6.7.9.7 1.6c0 .2 0 .4-.1.6s-.1.3-.3.3c-.1.1-.2.1-.3.1h-2.9v.3c0 .4.1.7.4 1 .3.2.7.4 1.1.4.3 0 .6-.1.9-.2s.5-.2.5-.2c.1 0 .3.1.3.2.1.1.1.3.1.4 0 .2-.2.4-.6.6s-.9.3-1.4.3c-.8 0-1.5-.2-2-.7s-.6-1.2-.6-1.9zm1.3-1.1h2c.2 0 .3 0 .4-.1.1 0 .1-.1.1-.3 0-.3-.1-.6-.3-.8s-.5-.3-.9-.3c-.3 0-.6.1-.9.3-.2.2-.4.5-.4.8v.4zm4.6 2.9v-6.3c0-.6.2-1.2.6-1.6s.9-.7 1.5-.7h.6c.2 0 .3.1.4.2s.1.2.1.4c0 .1 0 .3-.1.4s-.2.2-.4.2h-.3c-.3 0-.6.1-.8.3s-.3.5-.3.8v1.2h1.6c.1 0 .2 0 .3.1s.1.2.1.3 0 .2-.1.3-.1.1-.3.1h-1.6v4.3c0 .1-.1.2-.2.3s-.3.1-.5.1-.3 0-.4-.1c-.1 0-.2-.1-.2-.3zm4-1.4v-6c0-.1.1-.2.2-.3.1-.1.3-.1.4-.1s.3 0 .4.1.2.2.2.3V32H81c.1 0 .2 0 .3.1.1.1.1.2.1.3s0 .2-.1.3-.1.1-.3.1h-1.5v2.9c0 .3.1.5.2.6s.3.2.7.2h.4c.2 0 .3.1.4.2s.1.2.1.4 0 .3-.1.4-.2.2-.4.2h-.4c-1.4-.1-2.1-.7-2.1-1.9z" class="st2"/><path d="M85.1 77.8L54 59.8v36l31.1 18z" class="st1"/><path d="M62 85.7v-7.9c0-.1.1-.2.2-.2s.2 0 .4.1.3.2.4.3.2.3.2.4v7.2l2.7 1.6c.1.1.2.2.2.3s.1.3.1.4c0 .2 0 .3-.1.3s-.1.1-.2 0l-3.3-1.9-.3-.3c-.3 0-.3-.1-.3-.3zm4.5.8v-1.1c0-.6.2-1.1.6-1.3.4-.2.9-.2 1.5.2.6.3 1.1.8 1.5 1.5s.6 1.3.6 1.9c0 .2 0 .4-.1.6 0 .1-.1.2-.2.2s-.2 0-.3-.1c-.1 0-.2-.1-.4-.2l-2.2-1.3v.3c0 .4.1.8.4 1.2.2.4.6.7 1 .9.3.2.6.2.8.2h.5c.1.1.2.2.3.4.1.2.1.3.1.4 0 .2-.2.3-.5.3s-.7-.1-1.2-.4c-.7-.4-1.3-1-1.7-1.7-.5-.6-.7-1.3-.7-2zm1.1-.4l1.7 1c.2.1.3.1.3.1.1 0 .1-.1.1-.2 0-.3-.1-.6-.3-1-.2-.3-.5-.6-.7-.8-.3-.2-.5-.2-.7-.1s-.3.3-.3.6l-.1.4zm4 5.2v-6.4c0-.6.2-1.1.5-1.3s.8-.2 1.3.1l.5.3.3.3c.1.2.1.3.1.4s0 .2-.1.3c-.1.1-.2.1-.3 0l-.3-.2c-.3-.2-.5-.2-.7-.1s-.3.3-.3.6v1.2l1.4.8c.1.1.2.1.2.3.1.1.1.2.1.4s0 .2-.1.3c-.1.1-.1.1-.2 0l-1.4-.8v4.3c0 .1-.1.2-.2.2s-.2 0-.4-.1-.3-.2-.4-.3c.1 0 0-.2 0-.3zm3.4.5v-6c0-.1.1-.2.2-.2s.2 0 .4.1.3.2.4.3c.1.1.2.3.2.4v2.2l1.3.7c.1.1.2.1.2.3.1.1.1.2.1.4s0 .2-.1.3c-.1.1-.1.1-.2 0l-1.3-.7v2.9c0 .3.1.5.2.7s.3.4.6.5l.4.2c.1.1.3.2.3.4.1.2.1.3.1.5s0 .3-.1.3c-.1.1-.2 0-.3 0l-.4-.2c-1.4-.9-2-1.8-2-3.1z" class="st2"/><path d="M32.4 22.1l-10.7 6.2v12.4l10.7-6.2z" class="st3"/><path d="M23.6 34.6v-2.8l.1-.1.7-.4c.6-.3.8-.2.8.4 0 .2 0 .4-.1.6s-.2.3-.4.5l.5.8v.1c0 .1 0 .1-.1.2 0 .1-.1.1-.2.2h-.2l-.5-.9-.4.2v1.2s0 .1-.2 0v.2c.1-.1.1-.1 0-.2 0 .1 0 0 0 0zm.4-1.7l.4-.2c.3-.2.4-.4.4-.8 0-.3-.1-.4-.4-.2l-.4.2v1zm1.5-2c0-.1 0-.1.1-.2 0-.1.1-.1.2-.2s.1 0 .2 0l.1.1c0 .1 0 .1-.1.2 0 .1-.1.1-.2.2s-.1 0-.2 0c0 0-.1 0-.1-.1zm.1 2.6v-1.7s0-.1.1-.1.1-.1.1-.1h.1s.1 0 .1.1v1.7s0 .1-.1.1c0 .1-.1.1-.1.1-.1-.1-.1-.1-.2-.1zm.6.1c0-.2.1-.4.3-.6-.1 0-.2-.1-.2-.2s.1-.3.2-.4c-.1 0-.2-.2-.2-.4v-.1c0-.2.1-.4.2-.6s.3-.4.5-.5.3-.1.4-.1c.1-.2.1-.4.2-.4h.1v.1s0 .1-.1.1c-.1.1-.1.2-.2.3.1.1.1.2.1.3v.1c0 .2-.1.4-.2.6s-.3.4-.5.5c-.1.1-.2.1-.2.1 0 .1-.1.1-.1.2s0 .1.1.1.2-.1.3-.1.2-.1.3-.1h.3c.1 0 .1.1.1.3s-.1.4-.2.6c-.1.2-.3.3-.5.5-.2.1-.4.2-.5.2-.1-.2-.2-.3-.2-.5zm.4-.3c0 .1 0 .2.1.2s.2 0 .3-.1l.3-.3c.1-.1.1-.2.1-.3s0-.1-.1-.1h-.1c-.1 0-.1 0-.2.1s-.1.1-.2.1c-.2.2-.2.3-.2.4zm0-1.5c0 .1 0 .2.1.3h.2c.1-.1.2-.1.2-.2.1-.1.1-.2.1-.3v-.1c0-.1 0-.2-.1-.2h-.2c-.1.1-.2.1-.2.2-.1.1-.1.2-.1.3zm1.4.2v-2.8s0-.1.1-.1.1-.1.1-.1h.1s.1 0 .1.1v1.3c0-.1.1-.2.2-.3l.3-.3c.2-.1.3-.1.4 0s.2.2.2.5v1s0 .1-.1.1-.1.1-.1.1h-.1s-.1 0-.1-.1v-1c0-.1 0-.2-.1-.2h-.3c-.1.1-.2.1-.2.3-.1.1-.1.2-.1.4v1s0 .1-.1.1c0 .1-.1.1-.1.1-.1 0-.1 0-.2-.1 0 .1 0 .1 0 0zm1.8-1.5v-2.1s0-.1.1-.1.1-.1.1-.1h.1s.1 0 .1.1v.8l.4-.3h.1v.2s0 .1-.1.1l-.4.3v1c0 .1 0 .2.1.2 0 0 .1 0 .2-.1l.1-.1h.1v.3c0 .1-.1.1-.1.1l-.1.1c-.5.1-.7 0-.7-.4z" class="st2"/><path d="M21.7 28.3l-10.8-6.2v12.4l10.8 6.2z" class="st1"/><path d="M13.7 31.1v-2.7s0-.1.1-.1h.1c.1 0 .1.1.1.1l.1.1V31l.9.5.1.1v.3H15l-1.1-.7-.2-.1zm1.6.2v-.4c0-.2.1-.4.2-.4.1-.1.3-.1.5.1.2.1.4.3.5.5s.2.4.2.7v.2s0 .1-.1.1h-.1s-.1 0-.1-.1l-.8-.4v.1c0 .1 0 .3.1.4l.3.3c.1.1.2.1.3.1h.2l.1.1v.2c0 .1-.1.1-.2.1s-.3 0-.4-.1c-.2-.1-.4-.3-.6-.6-.1-.4-.1-.6-.1-.9zm.3-.1l.6.3h.1v-.1c0-.1 0-.2-.1-.3l-.3-.3c-.1-.1-.2-.1-.3 0-.1 0-.1.1-.1.2v.2h.1zM17 33v-2.2c0-.2.1-.4.2-.5s.3-.1.4 0l.2.1.1.1v.3h-.1l-.1-.1c-.1-.1-.2-.1-.2 0-.1 0-.1.1-.1.2v.4l.5.3s.1 0 .1.1v.2h-.1l-.5-.3v1.5s0 .1-.1.1h-.1l-.1-.1-.1-.1zm1.2.2v-2.1s0-.1.1-.1h.1l.1.1.1.1v.8l.4.3s.1 0 .1.1v.2H19l-.4-.3v1c0 .1 0 .2.1.2 0 .1.1.1.2.2l.1.1c.1 0 .1.1.1.1v.3H19l-.1-.1c-.5-.2-.7-.5-.7-.9z" class="st2"/><path d="M32.4 22.1l-10.7-6.2-10.8 6.2 10.8 6.2z" class="st3"/><path d="M20.5 19.9s.1 0 .2-.1h.1l1.5.9s.1.1 0 .1c0 0 0 .1-.1.1s-.1 0-.2.1h-.1l-.6-.3-2.1 1.2h-.1c-.1 0-.1 0-.2-.1-.1 0-.1-.1-.1-.1v-.1l2.1-1.2-.6-.3c.2-.1.1-.1.2-.2zm-.1 1.9l.3-.2c.2-.1.4-.2.7-.2s.5.1.7.2.3.3.3.4c0 .2-.1.3-.3.4l-.3.2c-.2.1-.4.2-.7.2s-.5-.1-.7-.2-.3-.3-.3-.4.1-.3.3-.4zm.3.2l-.2.2c0 .1 0 .2.1.2.1.1.2.1.4.1.1 0 .3 0 .4-.1l.3-.2c.1-.1.1-.1.1-.2s0-.2-.1-.2c-.1-.1-.2-.1-.4-.1-.1 0-.3 0-.4.1l-.2.2zm.1 1.7l2.3-1.3h.1c.1 0 .1 0 .2.1l.1.1v.1l-.1.1h.4c.1 0 .3.1.4.1.2.1.3.2.2.4 0 .2-.1.3-.3.4l-.3.2c-.2.1-.4.2-.7.2s-.5 0-.7-.1c-.1-.1-.2-.1-.2-.2v-.2l-.9.5h-.1c-.1 0-.1 0-.2-.1s-.2-.2-.2-.3zm1.7-.6c-.1 0-.1.1-.1.2s0 .2.1.2.2.1.4.1.3 0 .4-.1l.3-.2c.1-.1.1-.1.1-.2s0-.2-.1-.2c-.1-.1-.2-.1-.3-.1s-.3 0-.4.1l-.4.2z" class="st2"/><path d="M295 12.8h36v36h-36z" class="st1"/><path d="M304.7 26.3c0-.2 0-.3.1-.4s.2-.2.3-.2h5c.1 0 .2.1.3.2s.1.2.1.4 0 .3-.1.4-.2.2-.3.2h-1.8v7.2c0 .1-.1.2-.2.3s-.3.1-.4.1c-.2 0-.3 0-.5-.1s-.2-.2-.2-.3v-7.2h-1.9c-.1 0-.2-.1-.3-.2-.1-.1-.1-.2-.1-.4zm5.3 5.9v-1.1c0-.6.2-1.2.7-1.7s1.1-.7 1.8-.7 1.2.2 1.7.7.7 1 .7 1.7v1.1c0 .6-.2 1.2-.8 1.7s-1.1.7-1.7.7c-.7 0-1.2-.2-1.7-.7s-.7-1-.7-1.7zm1.2 0c0 .3.1.6.4.9.2.3.5.4.9.4.3 0 .6-.1.9-.4s.4-.6.4-.9v-1.1c0-.3-.1-.6-.4-.9s-.5-.4-.9-.4c-.3 0-.6.1-.9.4-.2.3-.4.5-.4.9v1.1zm4.9 4.6v-7.6c0-.1.1-.2.2-.3.1-.1.3-.1.4-.1s.3 0 .4.1.2.2.2.3v.4c.1-.3.4-.5.6-.7.3-.2.6-.3 1-.3.6 0 1.1.2 1.5.7s.6 1 .6 1.7v1.1c0 .6-.2 1.2-.6 1.7s-.9.7-1.5.7c-.3 0-.7-.1-1-.3s-.5-.4-.6-.7v3.1c0 .1-.1.2-.2.3s-.3.1-.5.1-.3 0-.4-.1c-.1.1-.1 0-.1-.1zm1.2-4.3c0 .2.1.4.4.6s.5.4.8.4.6-.1.9-.4c.2-.3.4-.6.4-.9v-1.1c0-.3-.1-.6-.4-.9-.2-.3-.5-.4-.9-.4-.3 0-.6.1-.8.3-.2.2-.4.5-.4.9v1.5z" class="st2"/><path d="M357.3 86.8l-31.2-18-31.1 18 31.1 18z" class="st1"/><path d="M322.8 80.4c.1-.1.3-.1.4-.1.2 0 .3 0 .4.1l4.3 2.5c.1.1.2.1.1.2 0 .1-.1.2-.3.3-.1.1-.3.1-.5.2-.2 0-.3 0-.4-.1l-1.6-.9-6.2 3.6c-.1.1-.3.1-.4.1-.2 0-.3-.1-.5-.2s-.2-.2-.3-.3c0-.1 0-.2.1-.2l6.2-3.6-1.6-.9c-.1-.1-.1-.1-.1-.2.2-.3.2-.4.4-.5zm-.5 5.6l1-.6c.5-.3 1.2-.5 2.1-.5.8 0 1.5.2 2.1.5s.9.7.9 1.2-.2.9-.8 1.2l-1 .6c-.5.3-1.2.5-2.1.5s-1.6-.2-2.1-.5c-.6-.3-.9-.7-.9-1.2s.2-.9.8-1.2zm1.1.6c-.3.2-.4.4-.4.6s.1.5.4.6c.3.2.6.2 1.1.2.4 0 .8-.1 1.1-.3l.9-.5c.3-.2.4-.4.4-.6s-.1-.5-.4-.6c-.3-.2-.7-.2-1.1-.2s-.8.1-1.1.2l-.9.6zm.2 4.7l6.5-3.8c.1-.1.2-.1.4-.1s.3.1.5.2l.3.3c0 .1 0 .2-.1.2l-.4.2c.3-.1.7-.1 1.1 0s.8.2 1.1.3c.5.3.8.7.7 1.1 0 .4-.3.8-.9 1.1l-1 .6c-.5.3-1.2.5-2 .5s-1.4-.1-1.9-.4c-.3-.2-.5-.4-.6-.6s-.1-.5 0-.6l-2.7 1.6c-.1.1-.2.1-.4.1s-.4-.1-.5-.2l-.3-.3c.1 0 .1-.1.2-.2zm4.8-1.5c-.2.1-.2.3-.2.5s.1.4.4.6.6.2 1.1.2c.4 0 .8-.1 1.1-.3l.9-.5c.3-.2.4-.4.4-.6 0-.3-.1-.5-.4-.6-.3-.2-.6-.2-1-.2s-.8.1-1.1.3l-1.2.6z" class="st2"/><path d="M273.4 19l-10.7 6.2v12.4l10.7-6.2z" class="st3"/><path d="M264.6 31.5v-2.8l.1-.1.7-.4c.6-.3.8-.2.8.4 0 .2 0 .4-.1.6s-.2.3-.4.5l.5.8v.1c0 .1 0 .1-.1.2 0 .1-.1.1-.2.2h-.2l-.5-.9-.4.2v1.2s0 .1-.1.1l-.1.1c.1-.2.1-.1 0-.2 0 .1 0 0 0 0zm.4-1.7l.4-.2c.3-.2.4-.4.4-.8 0-.3-.1-.4-.4-.2l-.4.2v1zm1.5-2c0-.1 0-.1.1-.2 0-.1.1-.1.2-.2s.1 0 .2 0l.1.1c0 .1 0 .1-.1.2 0 .1-.1.1-.2.2s-.1 0-.2 0c0 0-.1 0-.1-.1zm.1 2.5v-1.7s0-.1.1-.1.1-.1.1-.1h.1s.1 0 .1.1v1.7s0 .1-.1.1c0 .1-.1.1-.1.1-.1 0-.1 0-.2-.1 0 .1 0 .1 0 0zm.6.2c0-.2.1-.4.3-.6-.1 0-.2-.1-.2-.2s.1-.3.2-.4c-.1 0-.2-.2-.2-.4v-.1c0-.2.1-.4.2-.6s.3-.4.5-.5.3-.1.4-.1c.1-.2.1-.4.2-.4h.1v.1s0 .1-.1.1c-.1.1-.1.2-.2.3.1.1.1.2.1.3v.1c0 .2-.1.4-.2.6s-.3.4-.5.5c-.1.1-.2.1-.2.1 0 .1-.1.1-.1.2s0 .1.1.1.2-.1.3-.1c.1 0 .2-.1.3-.1h.3c.1 0 .1.1.1.3 0 .2-.1.4-.2.6s-.3.3-.5.5c-.2.1-.4.2-.5.2-.1-.2-.2-.3-.2-.5zm.4-.3c0 .1 0 .2.1.2s.2 0 .3-.1l.3-.3c.1-.1.1-.2.1-.3s0-.1-.1-.1h-.1c-.1 0-.1 0-.2.1s-.1.1-.2.1c-.2.1-.2.3-.2.4zm0-1.5c0 .1 0 .2.1.3h.2c.1-.1.2-.1.2-.2.1-.1.1-.2.1-.3v-.1c0-.1 0-.2-.1-.2h-.2c-.1.1-.2.1-.2.2-.1.1-.1.2-.1.3zm1.4.2v-2.8s0-.1.1-.1.1-.1.1-.1h.1s.1 0 .1.1v1.3c0-.1.1-.2.2-.3l.3-.3c.2-.1.3-.1.4 0s.2.2.2.5v1s0 .1-.1.1-.1.1-.1.1h-.1s-.1 0-.1-.1v-1c0-.1 0-.2-.1-.2h-.3c-.1.1-.2.1-.2.3-.1.1-.1.2-.1.4v1s0 .1-.1.1c0 .1-.1.1-.1.1-.1 0-.1 0-.2-.1 0 .1 0 .1 0 0zm1.8-1.5v-2.1s0-.1.1-.1.1-.1.1-.1h.1s.1 0 .1.1v.8l.4-.3h.1v.2s0 .1-.1.1l-.4.3v1c0 .1 0 .2.1.2 0 0 .1 0 .2-.1l.1-.1h.1v.3c0 .1-.1.1-.1.1l-.1.1c-.5.1-.7 0-.7-.4z" class="st2"/><path d="M262.7 25.2L251.9 19v12.4l10.8 6.2z" class="st3"/><path d="M254.7 27.9v-2.7s0-.1.1-.1h.1c.1 0 .1.1.1.1l.1.1v2.5l.9.5.1.1v.3h-.1l-1.1-.7-.2-.1c0 .1 0 .1 0 0zm1.6.3v-.4c0-.2.1-.4.2-.4.1-.1.3-.1.5.1.2.1.4.3.5.5s.2.4.2.7v.2s0 .1-.1.1h-.1s-.1 0-.1-.1l-.8-.4v.1c0 .1 0 .3.1.4l.3.3c.1.1.2.1.3.1h.2l.1.1v.2c0 .1-.1.1-.2.1s-.3 0-.4-.1c-.2-.1-.4-.3-.6-.6-.1-.4-.1-.6-.1-.9zm.3-.1l.6.3h.1v-.1c0-.1 0-.2-.1-.3l-.3-.3c-.1-.1-.2-.1-.3 0-.1 0-.1.1-.1.2l.1.2zm1.4 1.8v-2.2c0-.2.1-.4.2-.5s.3-.1.4 0l.2.1.1.1v.3h-.1l-.1-.1c-.1-.1-.2-.1-.2 0-.1 0-.1.1-.1.2v.4l.5.3s.1 0 .1.1v.2h-.1l-.5-.3V30s0 .1-.1.1h-.1l-.1-.1-.1-.1zm1.2.1v-2.1s0-.1.1-.1h.1l.1.1.1.1v.8l.4.3s.1 0 .1.1v.2h-.1l-.4-.3v1c0 .1 0 .2.1.2 0 .1.1.1.2.2l.1.1c.1 0 .1.1.1.1v.3h-.1l-.1-.1c-.5-.1-.7-.4-.7-.9z" class="st2"/><path d="M273.4 19l-10.7-6.2-10.8 6.2 10.8 6.2z" class="st1"/><path d="M261.5 16.8s.1 0 .2-.1h.1l1.5.9s.1.1 0 .1c0 0 0 .1-.1.1s-.1 0-.2.1h-.1l-.6-.3-2.1 1.2h-.1c-.1 0-.1 0-.2-.1-.1 0-.1-.1-.1-.1v-.1l2.1-1.2-.6-.3c.2-.1.1-.1.2-.2zm-.1 1.9l.3-.2c.2-.1.4-.2.7-.2.3 0 .5.1.7.2s.3.3.3.4c0 .2-.1.3-.3.4l-.3.2c-.2.1-.4.2-.7.2-.3 0-.5-.1-.7-.2s-.3-.3-.3-.4.1-.3.3-.4zm.3.2l-.2.2c0 .1 0 .2.1.2.1.1.2.1.4.1.1 0 .3 0 .4-.1l.3-.2c.1-.1.1-.1.1-.2s0-.2-.1-.2c-.1-.1-.2-.1-.4-.1-.1 0-.3 0-.4.1l-.2.2zm.1 1.7l2.3-1.3h.1c.1 0 .1 0 .2.1l.1.1v.1l-.1.1h.4c.1 0 .3.1.4.1.2.1.3.2.2.4 0 .2-.1.3-.3.4l-.3.2c-.2.1-.4.2-.7.2-.3 0-.5 0-.7-.1-.1-.1-.2-.1-.2-.2v-.2l-.9.5h-.1c-.1 0-.1 0-.2-.1s-.2-.2-.2-.3zm1.7-.6c-.1 0-.1.1-.1.2s0 .2.1.2.2.1.4.1.3 0 .4-.1l.3-.2c.1-.1.1-.1.1-.2s0-.2-.1-.2c-.1-.1-.2-.1-.3-.1-.1 0-.3 0-.4.1l-.4.2z" class="st2"/><path d="M536 15.9h36v36h-36z" class="st1"/><path d="M542.3 37.2v-7.9c0-.1 0-.2.1-.3.1-.1.2-.1.3-.1h2.3c1.8 0 2.8.8 2.8 2.4 0 .7-.2 1.2-.5 1.6s-.7.6-1.2.8l1.7 3.2v.2c0 .2-.1.3-.2.4-.2.1-.3.2-.5.2s-.4-.1-.5-.4l-1.8-3.4h-1.2v3.4c0 .1-.1.2-.2.3-.1.1-.3.1-.5.1s-.3 0-.4-.1c-.2-.2-.2-.3-.2-.4zm1.2-4.4h1.4c1 0 1.5-.5 1.5-1.4s-.5-1.4-1.5-1.4h-1.4v2.8zm5.2-2.9c0-.2.1-.3.2-.5.1-.1.3-.2.5-.2s.4.1.5.2.2.3.2.5-.1.3-.2.5c-.1.1-.3.2-.5.2s-.4-.1-.5-.2c-.1-.2-.2-.4-.2-.5zm.2 7.3v-4.9c0-.1.1-.2.2-.3.1-.1.3-.1.5-.1s.3 0 .5.1c.1.1.2.2.2.3v4.9c0 .1-.1.2-.2.3-.1.1-.3.1-.4.1-.2 0-.3 0-.4-.1-.1-.1-.4-.2-.4-.3zm2.1 1.5c0-.6.3-1 .9-1.3-.4-.2-.5-.4-.5-.8s.2-.7.6-.9c-.5-.4-.7-.9-.7-1.5v-.3c0-.6.2-1 .6-1.4.4-.4 1-.6 1.6-.6s1 .1 1.4.4c.2-.5.5-.8.8-.8.2 0 .3 0 .4.1.1.1.1.2.1.3s-.1.2-.2.3c-.3.1-.5.3-.6.5.3.3.4.7.4 1.2v.3c0 .6-.2 1.1-.6 1.4-.4.3-1 .6-1.6.6-.3 0-.6 0-.8-.1-.2.1-.2.2-.2.3 0 .2.1.3.4.4s.6.1.9.2c.4 0 .7.1 1.1.2.4.1.7.2.9.5s.4.6.4 1c0 .6-.2 1-.7 1.3s-1.1.4-1.8.4-1.3-.1-1.8-.4c-.8-.4-1-.8-1-1.3zm1.2-.1c0 .3.1.5.4.7s.6.3 1 .3.7-.1.9-.3.4-.4.4-.7c0-.2-.1-.3-.2-.5-.1-.1-.3-.2-.5-.3s-.4-.1-.6-.1-.4 0-.6-.1c-.5.3-.8.6-.8 1zm.3-4.4c0 .4.1.6.3.9.2.2.4.3.8.3.3 0 .6-.1.7-.3.2-.2.3-.5.3-.9v-.3c0-.3-.1-.6-.3-.8s-.4-.3-.8-.3c-.3 0-.6.1-.7.3-.2.2-.3.5-.3.8v.3zm4.5 3V29c0-.1.1-.2.2-.3.1-.1.3-.1.5-.1s.3 0 .5.1c.1.1.2.2.2.3v3.8c.1-.3.3-.5.6-.7s.6-.3.9-.3c.6 0 1.1.2 1.5.7s.6 1 .6 1.7v3c0 .1-.1.2-.2.3-.1.1-.3.1-.4.1-.2 0-.3 0-.4-.1-.1-.1-.2-.2-.2-.3v-3c0-.3-.1-.6-.4-.9s-.5-.4-.9-.4c-.3 0-.6.1-.8.3s-.3.5-.3.9v3c0 .1-.1.2-.2.3-.1.1-.3.1-.4.1-.2 0-.3 0-.4-.1-.1-.1-.4-.1-.4-.2zm6.1-1.4v-6c0-.1.1-.2.2-.3.1-.1.3-.1.4-.1.1 0 .3 0 .4.1.1.1.2.2.2.3V32h1.5c.1 0 .2 0 .3.1s.1.2.1.3 0 .2-.1.3-.1.1-.3.1h-1.5v2.9c0 .3.1.5.2.6.1.1.3.2.7.2h.4c.2 0 .3.1.4.2.1.1.1.2.1.4s0 .3-.1.4c-.1.1-.2.2-.4.2h-.4c-1.4-.1-2.1-.7-2.1-1.9z" class="st2"/><path d="M567.1 59.8l-31.1 18v36l31.1-18z" class="st1"/><path d="M541.5 96v-7.9c0-.1 0-.2.1-.3l.3-.3 2-1.1c1.6-.9 2.4-.6 2.4 1.1 0 .7-.1 1.3-.4 1.8s-.6 1-1.1 1.4l1.5 2.3v.2c0 .2-.1.4-.2.6-.1.2-.3.4-.5.5s-.3.1-.4-.1l-1.5-2.6-1 .6v3.4c0 .1-.1.3-.2.4-.1.1-.2.3-.4.3-.1.1-.3.1-.4.1-.1 0-.2-.3-.2-.4zm1.1-5l1.2-.7c.9-.5 1.3-1.2 1.3-2.2s-.4-1.2-1.3-.7l-1.2.7V91zm4.5-5.6c0-.2.1-.4.2-.6.1-.2.3-.3.4-.4.2-.1.3-.1.4-.1.1.1.2.2.2.4s-.1.4-.2.6c-.1.2-.3.4-.4.5-.2.1-.3.1-.4.1-.1-.2-.2-.4-.2-.5zm.1 7.3v-4.9c0-.1 0-.2.2-.4s.2-.2.4-.3c.2-.1.3-.1.4-.1.1 0 .2.1.2.2v4.9c0 .1-.1.2-.2.4s-.2.3-.4.4-.3.1-.4.1c-.2-.2-.2-.2-.2-.3zm1.8.4c0-.6.3-1.2.8-1.8-.3 0-.5-.2-.5-.5 0-.4.2-.8.5-1.2-.4-.1-.6-.5-.6-1.2v-.3c0-.6.2-1.2.5-1.7.4-.6.8-1 1.4-1.4.5-.3.9-.4 1.2-.3.2-.7.4-1.1.7-1.2.1-.1.2-.1.3 0s.1.1.1.2-.1.3-.2.4c-.2.2-.4.5-.5.8.2.2.3.5.3 1v.3c0 .6-.2 1.2-.6 1.7-.4.5-.8 1-1.4 1.4-.3.2-.5.2-.7.3-.1.2-.2.3-.2.5s.1.2.3.2c.2-.1.5-.1.8-.3.3-.1.6-.3.9-.4s.6-.1.8 0 .3.4.3.8c0 .6-.2 1.2-.6 1.7-.4.5-.9 1-1.6 1.4-.6.4-1.2.5-1.6.5-.4 0-.4-.4-.4-.9zm1.1-.7c0 .3.1.5.3.5s.5 0 .8-.2.6-.4.8-.7c.2-.3.3-.6.3-.9 0-.2 0-.3-.1-.4s-.2-.1-.4 0c-.2 0-.4.1-.5.2s-.3.1-.5.3c-.5.3-.7.8-.7 1.2zm.2-4.6c0 .4.1.6.2.7.2.1.4.1.7 0 .3-.2.5-.4.6-.7.2-.3.2-.6.2-1v-.3c0-.3-.1-.6-.2-.7-.2-.1-.4-.1-.7 0-.3.2-.5.4-.6.7-.2.3-.2.6-.2 1v.3zm3.9.8v-8.2c0-.1 0-.2.2-.4.1-.1.2-.2.4-.3.2-.1.3-.1.4-.1.1 0 .2.1.2.2v3.8c.1-.3.3-.6.5-1 .2-.3.5-.6.8-.7.5-.3.9-.3 1.3 0s.5.7.5 1.4v3c0 .1-.1.3-.2.4-.1.1-.2.3-.4.3-.1.1-.3.1-.4.1-.1 0-.2-.1-.2-.2v-3c0-.3-.1-.5-.3-.7-.2-.1-.5-.1-.7 0-.3.2-.5.4-.7.7-.2.3-.3.7-.3 1.1v3c0 .1-.1.2-.2.4s-.2.3-.4.4-.3.1-.4.1c0-.1-.1-.2-.1-.3zm5.4-4.5v-6c0-.1.1-.2.2-.4.1-.1.2-.3.4-.3.1-.1.3-.1.4-.1.1 0 .2.1.2.2v2.2l1.3-.7c.1-.1.2 0 .2 0 .1.1.1.2.1.3s0 .3-.1.4-.1.2-.2.3l-1.3.7v2.9c0 .3.1.5.2.5s.3 0 .6-.1l.4-.2c.1-.1.3-.1.3 0 .1.1.1.2.1.3 0 .2 0 .3-.1.5s-.2.3-.3.4l-.4.2c-1.4.4-2 .1-2-1.1z" class="st2"/><path d="M514.4 22.1l-10.7 6.2v12.4l10.7-6.2z" class="st1"/><path d="M505.6 34.6v-2.8l.1-.1.7-.4c.6-.3.8-.2.8.4 0 .2 0 .4-.1.6s-.2.3-.4.5l.5.8v.1c0 .1 0 .1-.1.2 0 .1-.1.1-.2.2h-.2l-.5-.9-.4.2v1.2s0 .1-.2 0v.2c.1-.2.1-.1 0-.2zm.4-1.7l.4-.2c.3-.2.4-.4.4-.8 0-.3-.1-.4-.4-.2l-.4.2v1zm1.5-2c0-.1 0-.1.1-.2 0-.1.1-.1.2-.2h.2l.1.1c0 .1 0 .1-.1.2 0 .1-.1.1-.2.2h-.2s-.1 0-.1-.1zm.1 2.5v-1.7s0-.1.1-.1l.1-.1h.1s.1 0 .1.1v1.7s0 .1-.1.1-.1.1-.1.1c-.1 0-.1 0-.2-.1 0 .1 0 .1 0 0zm.6.2c0-.2.1-.4.3-.6-.1 0-.2-.1-.2-.2s.1-.3.2-.4c-.1 0-.2-.2-.2-.4v-.1c0-.2.1-.4.2-.6s.3-.4.5-.5.3-.1.4-.1c.1-.2.1-.4.2-.4h.1v.1s0 .1-.1.1c-.1.1-.1.2-.2.3.1.1.1.2.1.3v.1c0 .2-.1.4-.2.6s-.3.4-.5.5c-.1.1-.2.1-.2.1 0 .1-.1.1-.1.2s0 .1.1.1.2-.1.3-.1.2-.1.3-.1h.3c.1 0 .1.1.1.3s-.1.4-.2.6-.3.3-.5.5c-.2.1-.4.2-.5.2-.1-.2-.2-.3-.2-.5zm.4-.3c0 .1 0 .2.1.2s.2 0 .3-.1l.3-.3c.1-.1.1-.2.1-.3s0-.1-.1-.1h-.1c-.1 0-.1 0-.2.1 0 0-.1.1-.2.1-.2.1-.2.3-.2.4zm0-1.5c0 .1 0 .2.1.3s.1 0 .2 0c.1-.1.2-.1.2-.2s.1-.2.1-.3v-.1c0-.1 0-.2-.1-.2h-.2c-.1.1-.2.1-.2.2s-.1.2-.1.3zm1.4.2v-2.8s0-.1.1-.1l.1-.1h.1s.1 0 .1.1v1.3c0-.1.1-.2.2-.3l.3-.3c.2-.1.3-.1.4 0s.2.2.2.5v1s0 .1-.1.1-.1.1-.1.1h-.1s-.1 0-.1-.1v-1c0-.1 0-.2-.1-.2h-.3c-.1.1-.2.1-.2.3-.1.1-.1.2-.1.4v1s0 .1-.1.1c0 .1-.1.1-.1.1-.1 0-.1 0-.2-.1 0 .1 0 .1 0 0zm1.8-1.5v-2.1s0-.1.1-.1.1-.1.1-.1h.1s.1 0 .1.1v.8l.4-.3h.1v.2s0 .1-.1.1l-.4.3v1c0 .1 0 .2.1.2 0 0 .1 0 .2-.1l.1-.1h.1v.3c0 .1-.1.1-.1.1l-.1.1c-.5.1-.7 0-.7-.4z" class="st2"/><path d="M503.7 28.3l-10.8-6.2v12.4l10.8 6.2z" class="st3"/><path d="M495.7 31v-2.7s0-.1.1-.1h.1c.1 0 .1.1.1.1l.1.1v2.5l.9.5.1.1v.3h-.1l-1.1-.7-.2-.1c0 .1 0 .1 0 0zm1.6.3v-.4c0-.2.1-.4.2-.4.1-.1.3-.1.5.1.2.1.4.3.5.5s.2.4.2.7v.2s0 .1-.1.1h-.1s-.1 0-.1-.1l-.8-.4v.1c0 .1 0 .3.1.4l.3.3c.1.1.2.1.3.1h.2l.1.1v.2c0 .1-.1.1-.2.1s-.3 0-.4-.1c-.2-.1-.4-.3-.6-.6-.1-.4-.1-.7-.1-.9zm.3-.1l.6.3h.1v-.1c0-.1 0-.2-.1-.3l-.3-.3c-.1-.1-.2-.1-.3 0-.1 0-.1.1-.1.2l.1.2zM499 33v-2.2c0-.2.1-.4.2-.5s.3-.1.4 0l.2.1.1.1v.3h-.1l-.1-.1c-.1-.1-.2-.1-.2 0-.1 0-.1.1-.1.2v.4l.5.3s.1 0 .1.1v.2h-.1l-.5-.3v1.5s0 .1-.1.1h-.1c-.1 0-.1-.1-.1-.1l-.1-.1zm1.2.1V31s0-.1.1-.1h.1l.1.1.1.1v.8l.4.3s.1 0 .1.1v.2h-.1l-.4-.3v1c0 .1 0 .2.1.2 0 .1.1.1.2.2l.1.1c.1 0 .1.1.1.1v.3h-.1l-.1-.1c-.5-.1-.7-.4-.7-.9z" class="st2"/><path d="M514.4 22.1l-10.7-6.2-10.8 6.2 10.8 6.2z" class="st3"/><path d="M502.5 19.9s.1 0 .2-.1h.1l1.5.9s.1.1 0 .1c0 0 0 .1-.1.1s-.1 0-.2.1h-.1l-.6-.3-2.1 1.2h-.1c-.1 0-.1 0-.2-.1-.1 0-.1-.1-.1-.1v-.1l2.1-1.2-.6-.3c.2-.1.1-.1.2-.2zm-.1 1.9l.3-.2c.2-.1.4-.2.7-.2s.5.1.7.2.3.3.3.4c0 .2-.1.3-.3.4l-.3.2c-.2.1-.4.2-.7.2s-.5-.1-.7-.2-.3-.3-.3-.4.1-.3.3-.4zm.3.2l-.2.2c0 .1 0 .2.1.2.1.1.2.1.4.1.1 0 .3 0 .4-.1l.3-.2c.1-.1.1-.1.1-.2s0-.2-.1-.2c-.1-.1-.2-.1-.4-.1-.1 0-.3 0-.4.1l-.2.2zm.1 1.7l2.3-1.3h.1s.1 0 .2.1l.1.1v.1l-.1.1h.4c.1 0 .3.1.4.1.2.1.3.2.2.4 0 .2-.1.3-.3.4l-.3.2c-.2.1-.4.2-.7.2s-.5 0-.7-.1c-.1-.1-.2-.1-.2-.2v-.2l-.9.5h-.1c-.1 0-.1 0-.2-.1s-.2-.2-.2-.3zm1.7-.6c-.1 0-.1.1-.1.2s0 .2.1.2.2.1.4.1.3 0 .4-.1l.3-.2c.1-.1.1-.1.1-.2s0-.2-.1-.2c-.1-.1-.2-.1-.3-.1s-.3 0-.4.1l-.4.2z" class="st2"/><g class="st4"><path d="M33.6 136.7c.6.7 1.6 1.3 2.9 1.3 1.7 0 2.2-.9 2.2-1.6 0-1.1-1.1-1.4-2.4-1.8-1.5-.4-3.2-.8-3.2-2.6 0-1.5 1.4-2.6 3.2-2.6 1.4 0 2.5.5 3.3 1.3l-.7.9c-.7-.8-1.7-1.1-2.7-1.1-1.1 0-1.9.6-1.9 1.5s1.1 1.2 2.3 1.5c1.5.4 3.3.9 3.3 2.8 0 1.4-.9 2.7-3.4 2.7-1.6 0-2.8-.6-3.6-1.5l.7-.8zm11-4.8c1.2 0 2 .5 2.5 1.2l-.7.6c-.4-.6-1-.9-1.7-.9-1.4 0-2.3 1.1-2.3 2.6s.9 2.6 2.3 2.6c.7 0 1.3-.3 1.7-.9l.7.6c-.5.7-1.2 1.2-2.5 1.2-2 0-3.4-1.5-3.4-3.6.1-1.8 1.4-3.4 3.4-3.4zm8.2 6.2c-.6.6-1.3.9-2.2.9-1.1 0-2.4-.8-2.4-2.2 0-1.5 1.2-2.2 2.4-2.2.9 0 1.7.3 2.2.9v-1.2c0-.9-.7-1.4-1.7-1.4-.8 0-1.5.3-2.1.9l-.5-.7c.7-.8 1.6-1.1 2.7-1.1 1.4 0 2.6.6 2.6 2.3v4.7h-1.1v-.9zm0-1.9c-.4-.6-1.1-.8-1.9-.8-1 0-1.7.6-1.7 1.5s.7 1.5 1.7 1.5c.7 0 1.5-.3 1.9-.8v-1.4zm3.2-6.7h1v9.3h-1v-9.3zm6.1 2.4c2 0 3.2 1.6 3.2 3.6v.3h-5.5c.1 1.3 1 2.3 2.4 2.3.8 0 1.6-.3 2.1-.9l.5.7c-.7.7-1.6 1-2.7 1-2 0-3.4-1.4-3.4-3.6 0-1.8 1.4-3.4 3.4-3.4zm-2.3 3.2h4.4c0-1-.7-2.3-2.2-2.3-1.4 0-2.1 1.2-2.2 2.3zm9.9-5.6H71l3.2 8.1 3.2-8.1h1.3l-3.8 9.3h-1.4l-3.8-9.3zm12.2 2.4c2 0 3.2 1.6 3.2 3.6v.3h-5.5c.1 1.3 1 2.3 2.4 2.3.8 0 1.6-.3 2.1-.9l.5.7c-.7.7-1.6 1-2.7 1-2 0-3.4-1.4-3.4-3.6.1-1.8 1.5-3.4 3.4-3.4zm-2.2 3.2h4.4c0-1-.7-2.3-2.2-2.3-1.4 0-2.1 1.2-2.2 2.3zm7.2-3H88v1.1c.5-.7 1.3-1.2 2.3-1.2v1.1h-.4c-.6 0-1.5.5-1.8 1.1v4.8H87v-6.9zm4.8 5.3V133h-1.1v-.9h1.1v-1.8h1.1v1.8h1.4v.9h-1.4v4.2c0 .5.2.9.7.9.3 0 .6-.1.7-.3l.3.8c-.3.3-.6.4-1.3.4-1 0-1.5-.5-1.5-1.6zm3.7-7.1c0-.4.3-.7.7-.7.4 0 .7.3.7.7s-.3.7-.7.7c-.4 0-.7-.3-.7-.7zm.2 1.8h1.1v6.8h-1.1v-6.8zm6.1-.2c1.2 0 2 .5 2.5 1.2l-.7.6c-.4-.6-1-.9-1.7-.9-1.4 0-2.3 1.1-2.3 2.6s.9 2.6 2.3 2.6c.7 0 1.3-.3 1.7-.9l.7.6c-.5.7-1.2 1.2-2.5 1.2-2 0-3.4-1.5-3.4-3.6.1-1.8 1.4-3.4 3.4-3.4zm8.2 6.2c-.6.6-1.3.9-2.2.9-1.1 0-2.4-.8-2.4-2.2 0-1.5 1.2-2.2 2.4-2.2.9 0 1.7.3 2.2.9v-1.2c0-.9-.7-1.4-1.7-1.4-.8 0-1.5.3-2.1.9l-.5-.7c.7-.8 1.6-1.1 2.7-1.1 1.4 0 2.6.6 2.6 2.3v4.7h-1.1v-.9zm0-1.9c-.4-.6-1.1-.8-1.9-.8-1 0-1.7.6-1.7 1.5s.7 1.5 1.7 1.5c.7 0 1.5-.3 1.9-.8v-1.4zm3.2-6.7h1.1v9.3h-1.1v-9.3zm3.7 2.5c.4 0 .8.3.8.8 0 .4-.4.8-.8.8s-.8-.3-.8-.8.3-.8.8-.8zm0 5.5c.4 0 .8.3.8.8 0 .4-.4.8-.8.8s-.8-.3-.8-.8.3-.8.8-.8zm8.1-3.5c-1.1-.3-2.1-1-2.1-2.2 0-1.7 1.6-2.4 3.2-2.4 1.5 0 3.2.7 3.2 2.4 0 1.2-1 1.9-2.1 2.2 1.2.3 2.2 1.2 2.2 2.5 0 1.6-1.5 2.5-3.3 2.5-1.8 0-3.3-.9-3.3-2.5 0-1.3 1.1-2.1 2.2-2.5zm1.2.6c-.6.1-2.2.6-2.2 1.8 0 1 1 1.6 2.2 1.6 1.1 0 2.2-.6 2.2-1.6-.1-1.2-1.7-1.8-2.2-1.8zm0-4.2c-1.1 0-2 .6-2 1.5 0 1.1 1.5 1.5 2 1.6.6-.1 2-.5 2-1.6 0-.9-.9-1.5-2-1.5zm8.5-1c1.2 0 2 .5 2.6 1.1l-.6.9c-.5-.6-1-1-2-1-1.8 0-2.6 1.8-2.6 3.7v.4c.4-.6 1.4-1.5 2.6-1.5 1.7 0 3.1 1 3.1 3 0 1.6-1.2 3.1-3.3 3.1-2.6 0-3.6-2.3-3.6-4.8s1.2-4.9 3.8-4.9zm-.2 4.6c-.9 0-1.8.6-2.3 1.4.1 1.2.7 2.6 2.4 2.6 1.4 0 2.1-1.1 2.1-2-.1-1.4-1-2-2.2-2zm5.6 3.5c.4 0 .8.3.8.8 0 .4-.4.8-.8.8s-.8-.3-.8-.8.4-.8.8-.8zm6.1-8.1c1.2 0 2 .5 2.6 1.1l-.6.9c-.5-.6-1-1-2-1-1.8 0-2.6 1.8-2.6 3.7v.4c.4-.6 1.4-1.5 2.6-1.5 1.7 0 3.1 1 3.1 3 0 1.6-1.2 3.1-3.3 3.1-2.6 0-3.6-2.3-3.6-4.8s1.2-4.9 3.8-4.9zm-.2 4.6c-.9 0-1.8.6-2.3 1.4.1 1.2.7 2.6 2.4 2.6 1.4 0 2.1-1.1 2.1-2-.1-1.4-1-2-2.2-2zm8.3-4.6c2.5 0 3.6 2.5 3.6 4.8s-1 4.8-3.6 4.8-3.6-2.6-3.6-4.8c0-2.3 1-4.8 3.6-4.8zm0 1c-1.8 0-2.4 1.9-2.4 3.8s.6 3.8 2.4 3.8c1.8 0 2.4-1.9 2.4-3.8s-.6-3.8-2.4-3.8zm5 7.5c3.4-2.6 5.2-4.2 5.2-5.8 0-1.2-1-1.7-1.9-1.7-1.1 0-2 .5-2.5 1.2l-.7-.7c.7-.9 1.9-1.5 3.2-1.5 1.6 0 3.1.9 3.1 2.7 0 1.9-1.9 3.6-4.5 5.7h4.6v1h-6.4v-.9zm10.2-8.5c1.3 0 2.3 1 2.3 2.3 0 1.3-.9 2.3-2.3 2.3-1.3 0-2.2-1-2.2-2.3-.1-1.3.8-2.3 2.2-2.3zm0 .7c-.8 0-1.4.7-1.4 1.6 0 .9.6 1.6 1.4 1.6.8 0 1.4-.7 1.4-1.6 0-.9-.6-1.6-1.4-1.6zm5.1-.6h.8l-6 9.3h-.8l6-9.3zm-.3 4.9c1.3 0 2.3 1 2.3 2.3 0 1.3-.9 2.3-2.3 2.3-1.3 0-2.2-1-2.2-2.3 0-1.3.9-2.3 2.2-2.3zm0 .7c-.8 0-1.4.7-1.4 1.6 0 .9.6 1.6 1.4 1.6.8 0 1.4-.7 1.4-1.6.1-.9-.5-1.6-1.4-1.6z" class="st5"/></g><g class="st4"><path d="M33.6 153.5c.6.7 1.6 1.3 2.9 1.3 1.7 0 2.2-.9 2.2-1.6 0-1.1-1.1-1.4-2.4-1.8-1.5-.4-3.2-.8-3.2-2.6 0-1.5 1.4-2.6 3.2-2.6 1.4 0 2.5.5 3.3 1.3l-.7.9c-.7-.8-1.7-1.1-2.7-1.1-1.1 0-1.9.6-1.9 1.5s1.1 1.2 2.3 1.5c1.5.4 3.3.9 3.3 2.8 0 1.4-.9 2.7-3.4 2.7-1.6 0-2.8-.6-3.6-1.5l.7-.8zm12.6-2.3c0-1.2-.6-1.5-1.5-1.5-.8 0-1.6.5-2 1.1v4.9h-1.1v-9.3h1.1v3.6c.5-.6 1.4-1.1 2.4-1.1 1.4 0 2.2.7 2.2 2.2v4.8h-1.1v-4.7zm6.1-2.5c2 0 3.2 1.6 3.2 3.6v.3H50c.1 1.3 1 2.3 2.4 2.3.8 0 1.6-.3 2.1-.9l.5.7c-.7.7-1.6 1-2.7 1-2 0-3.4-1.4-3.4-3.6.1-1.8 1.5-3.4 3.4-3.4zm-2.2 3.2h4.4c0-1-.7-2.3-2.2-2.3-1.4 0-2.1 1.2-2.2 2.3zm11.4 3c-.6.6-1.3.9-2.2.9-1.1 0-2.4-.8-2.4-2.2 0-1.5 1.2-2.2 2.4-2.2.9 0 1.7.3 2.2.9v-1.2c0-.9-.7-1.4-1.7-1.4-.8 0-1.5.3-2.1.9l-.5-.7c.7-.8 1.6-1.1 2.7-1.1 1.4 0 2.6.6 2.6 2.3v4.7h-1.1v-.9zm0-1.9c-.4-.6-1.1-.8-1.9-.8-1 0-1.7.6-1.7 1.5s.7 1.5 1.7 1.5c.7 0 1.5-.3 1.9-.8V153zm3.1-4.1h1.1v1.1c.5-.7 1.3-1.2 2.3-1.2v1.1h-.4c-.6 0-1.5.5-1.8 1.1v4.8h-1.1v-6.9zm5.2-.1c.4 0 .8.3.8.8 0 .4-.4.8-.8.8s-.8-.3-.8-.8c.1-.5.4-.8.8-.8zm0 5.5c.4 0 .8.3.8.8 0 .4-.4.8-.8.8s-.8-.3-.8-.8c.1-.5.4-.8.8-.8zm5.7-2.5h3.4v.9h-3.4v-.9zm4.8 1.8c.5.7 1.5 1.2 2.6 1.2 1.4 0 2.2-.7 2.2-1.8 0-1.2-1-1.7-2.3-1.7h-1v-1.1h1c1.2 0 2.2-.5 2.2-1.5s-1-1.6-2.1-1.6c-1 0-1.8.4-2.5 1.1l-.6-.7c.7-.8 1.8-1.4 3.2-1.4 1.8 0 3.2.9 3.2 2.5 0 1.3-1.1 2-2 2.2.9.1 2.2.8 2.2 2.3 0 1.6-1.2 2.7-3.3 2.7-1.6 0-2.7-.7-3.3-1.5l.5-.7zm11-7.4c2.5 0 3.6 2.5 3.6 4.8s-1 4.8-3.6 4.8-3.6-2.6-3.6-4.8c.1-2.3 1.1-4.8 3.6-4.8zm0 1c-1.8 0-2.4 1.9-2.4 3.8s.6 3.8 2.4 3.8c1.8 0 2.4-1.9 2.4-3.8s-.6-3.8-2.4-3.8zm7.1-.6c1.4 0 2.3 1 2.3 2.3s-.9 2.3-2.3 2.3-2.3-1-2.3-2.3 1-2.3 2.3-2.3zm0 .7c-.9 0-1.4.7-1.4 1.6 0 .9.5 1.6 1.4 1.6.9 0 1.5-.7 1.5-1.6 0-.9-.5-1.6-1.5-1.6z" class="st5"/></g><g class="st4"><path d="M36.5 168.8h-1.9v3.7h-1.2v-9.3h3.8c1.7 0 2.9 1.1 2.9 2.8 0 1.7-1.1 2.6-2.4 2.7l2.5 3.8h-1.4l-2.3-3.7zm.6-4.6h-2.5v3.6h2.5c1.1 0 1.9-.7 1.9-1.8s-.8-1.8-1.9-1.8zm4.1 4.9c0-2 1.3-3.5 3.3-3.5s3.3 1.6 3.3 3.5-1.3 3.6-3.3 3.6-3.3-1.7-3.3-3.6zm5.5 0c0-1.4-.8-2.6-2.2-2.6-1.4 0-2.3 1.2-2.3 2.6 0 1.4.8 2.6 2.3 2.6 1.4 0 2.2-1.2 2.2-2.6zm3.1 1.9v-4.4h-1.1v-.9h1.1v-1.8h1.1v1.8h1.4v.9h-1.4v4.2c0 .5.2.9.7.9.3 0 .6-.1.7-.3l.3.8c-.3.3-.6.4-1.3.4-1 0-1.5-.5-1.5-1.6zm8.1.7c-.6.6-1.3.9-2.2.9-1.1 0-2.4-.8-2.4-2.2 0-1.5 1.2-2.2 2.4-2.2.9 0 1.7.3 2.2.9v-1.2c0-.9-.7-1.4-1.7-1.4-.8 0-1.5.3-2.1.9l-.5-.7c.7-.8 1.6-1.1 2.7-1.1 1.4 0 2.6.6 2.6 2.3v4.7h-1.1v-.9zm0-1.9c-.4-.6-1.1-.8-1.9-.8-1 0-1.7.6-1.7 1.5S55 172 56 172c.7 0 1.5-.3 1.9-.8v-1.4zm3.4 1.2v-4.4h-1.1v-.9h1.1v-1.8h1.1v1.8h1.4v.9h-1.4v4.2c0 .5.2.9.7.9.3 0 .6-.1.7-.3l.3.8c-.3.3-.6.4-1.3.4-1 0-1.5-.5-1.5-1.6zm6.8-5.5c2 0 3.2 1.6 3.2 3.6v.3h-5.5c.1 1.3 1 2.3 2.4 2.3.8 0 1.6-.3 2.1-.9l.5.7c-.7.7-1.6 1-2.7 1-2 0-3.4-1.4-3.4-3.6.1-1.8 1.5-3.4 3.4-3.4zm-2.2 3.2h4.4c0-1-.7-2.3-2.2-2.3-1.5 0-2.2 1.2-2.2 2.3zm7.7-3.1c.4 0 .8.3.8.8 0 .4-.4.8-.8.8s-.8-.3-.8-.8.4-.8.8-.8zm0 5.5c.4 0 .8.3.8.8 0 .4-.4.8-.8.8s-.8-.3-.8-.8.4-.8.8-.8zm5.6-2.5h3.4v.9h-3.4v-.9zm4.9 1.8c.5.7 1.5 1.2 2.6 1.2 1.4 0 2.2-.7 2.2-1.8 0-1.2-1-1.7-2.3-1.7h-1V167h1c1.2 0 2.2-.5 2.2-1.5s-1-1.6-2.1-1.6c-1 0-1.8.4-2.5 1.1l-.6-.7c.7-.8 1.8-1.4 3.2-1.4 1.8 0 3.2.9 3.2 2.5 0 1.3-1.1 2-2 2.2.9.1 2.2.8 2.2 2.3 0 1.6-1.2 2.7-3.3 2.7-1.6 0-2.7-.7-3.3-1.5l.5-.7zm11-7.4c2.5 0 3.6 2.5 3.6 4.8s-1 4.8-3.6 4.8-3.6-2.6-3.6-4.8c0-2.3 1-4.8 3.6-4.8zm0 1c-1.8 0-2.4 1.9-2.4 3.8s.6 3.8 2.4 3.8c1.8 0 2.4-1.9 2.4-3.8s-.6-3.8-2.4-3.8zm7.1-.6c1.4 0 2.3 1 2.3 2.3s-.9 2.3-2.3 2.3-2.3-1-2.3-2.3.9-2.3 2.3-2.3zm0 .7c-.9 0-1.4.7-1.4 1.6 0 .9.5 1.6 1.4 1.6.9 0 1.5-.7 1.5-1.6 0-.9-.6-1.6-1.5-1.6z" class="st5"/></g><g class="st4"><path d="M274.6 136.7c.6.7 1.6 1.3 2.9 1.3 1.7 0 2.2-.9 2.2-1.6 0-1.1-1.1-1.4-2.4-1.8-1.5-.4-3.2-.8-3.2-2.6 0-1.5 1.4-2.6 3.2-2.6 1.4 0 2.5.5 3.3 1.3l-.7.9c-.7-.8-1.7-1.1-2.7-1.1-1.1 0-1.9.6-1.9 1.5s1.1 1.2 2.3 1.5c1.5.4 3.3.9 3.3 2.8 0 1.4-.9 2.7-3.4 2.7-1.6 0-2.8-.6-3.6-1.5l.7-.8zm11-4.8c1.2 0 2 .5 2.5 1.2l-.7.6c-.4-.6-1-.9-1.7-.9-1.4 0-2.3 1.1-2.3 2.6s.9 2.6 2.3 2.6c.7 0 1.3-.3 1.7-.9l.7.6c-.5.7-1.2 1.2-2.5 1.2-2 0-3.4-1.5-3.4-3.6.1-1.8 1.4-3.4 3.4-3.4zm8.2 6.2c-.6.6-1.3.9-2.2.9-1.1 0-2.4-.8-2.4-2.2 0-1.5 1.2-2.2 2.4-2.2.9 0 1.7.3 2.2.9v-1.2c0-.9-.7-1.4-1.7-1.4-.8 0-1.5.3-2.1.9l-.5-.7c.7-.8 1.6-1.1 2.7-1.1 1.4 0 2.6.6 2.6 2.3v4.7h-1.1v-.9zm0-1.9c-.4-.6-1.1-.8-1.9-.8-1 0-1.7.6-1.7 1.5s.7 1.5 1.7 1.5c.7 0 1.5-.3 1.9-.8v-1.4zm3.2-6.7h1.1v9.3H297v-9.3zm6.1 2.4c2 0 3.2 1.6 3.2 3.6v.3h-5.5c.1 1.3 1 2.3 2.4 2.3.8 0 1.6-.3 2.1-.9l.5.7c-.7.7-1.6 1-2.7 1-2 0-3.4-1.4-3.4-3.6 0-1.8 1.4-3.4 3.4-3.4zm-2.3 3.2h4.4c0-1-.7-2.3-2.2-2.3-1.4 0-2.1 1.2-2.2 2.3zm9.9-5.6h1.3l3.2 8.1 3.2-8.1h1.3l-3.8 9.3h-1.4l-3.8-9.3zm12.2 2.4c2 0 3.2 1.6 3.2 3.6v.3h-5.5c.1 1.3 1 2.3 2.4 2.3.8 0 1.6-.3 2.1-.9l.5.7c-.7.7-1.6 1-2.7 1-2 0-3.4-1.4-3.4-3.6.1-1.8 1.5-3.4 3.4-3.4zm-2.2 3.2h4.4c0-1-.7-2.3-2.2-2.3-1.4 0-2.1 1.2-2.2 2.3zm7.2-3h1.1v1.1c.5-.7 1.3-1.2 2.3-1.2v1.1h-.4c-.6 0-1.5.5-1.8 1.1v4.8H328v-6.9zm4.8 5.3V133h-1.1v-.9h1.1v-1.8h1.1v1.8h1.4v.9h-1.4v4.2c0 .5.2.9.7.9.3 0 .6-.1.7-.3l.3.8c-.3.3-.6.4-1.3.4-1 0-1.5-.5-1.5-1.6zm3.7-7.1c0-.4.3-.7.7-.7.4 0 .7.3.7.7s-.3.7-.7.7c-.4 0-.7-.3-.7-.7zm.2 1.8h1.1v6.8h-1.1v-6.8zm6.1-.2c1.2 0 2 .5 2.5 1.2l-.7.6c-.4-.6-1-.9-1.7-.9-1.4 0-2.3 1.1-2.3 2.6s.9 2.6 2.3 2.6c.7 0 1.3-.3 1.7-.9l.7.6c-.5.7-1.2 1.2-2.5 1.2-2 0-3.4-1.5-3.4-3.6.1-1.8 1.4-3.4 3.4-3.4zm8.2 6.2c-.6.6-1.3.9-2.2.9-1.1 0-2.4-.8-2.4-2.2 0-1.5 1.2-2.2 2.4-2.2.9 0 1.7.3 2.2.9v-1.2c0-.9-.7-1.4-1.7-1.4-.8 0-1.5.3-2.1.9l-.5-.7c.7-.8 1.6-1.1 2.7-1.1 1.4 0 2.6.6 2.6 2.3v4.7h-1.1v-.9zm0-1.9c-.4-.6-1.1-.8-1.9-.8-1 0-1.7.6-1.7 1.5s.7 1.5 1.7 1.5c.7 0 1.5-.3 1.9-.8v-1.4zm3.2-6.7h1v9.3h-1v-9.3zm3.7 2.5c.4 0 .8.3.8.8 0 .4-.4.8-.8.8s-.8-.3-.8-.8.3-.8.8-.8zm0 5.5c.4 0 .8.3.8.8 0 .4-.4.8-.8.8s-.8-.3-.8-.8.3-.8.8-.8zm8.1-3.5c-1.1-.3-2.1-1-2.1-2.2 0-1.7 1.6-2.4 3.2-2.4 1.5 0 3.2.7 3.2 2.4 0 1.2-1 1.9-2.1 2.2 1.2.3 2.2 1.2 2.2 2.5 0 1.6-1.5 2.5-3.3 2.5-1.8 0-3.3-.9-3.3-2.5 0-1.3 1.1-2.1 2.2-2.5zm1.2.6c-.6.1-2.2.6-2.2 1.8 0 1 1 1.6 2.2 1.6 1.1 0 2.2-.6 2.2-1.6-.1-1.2-1.7-1.8-2.2-1.8zm0-4.2c-1.1 0-2 .6-2 1.5 0 1.1 1.5 1.5 2 1.6.6-.1 2-.5 2-1.6 0-.9-.9-1.5-2-1.5zm8.5-1c1.2 0 2 .5 2.6 1.1l-.6.9c-.5-.6-1-1-2-1-1.8 0-2.6 1.8-2.6 3.7v.4c.4-.6 1.4-1.5 2.6-1.5 1.7 0 3.1 1 3.1 3 0 1.6-1.2 3.1-3.3 3.1-2.6 0-3.6-2.3-3.6-4.8s1.2-4.9 3.8-4.9zm-.2 4.6c-.9 0-1.8.6-2.3 1.4.1 1.2.7 2.6 2.4 2.6 1.4 0 2.1-1.1 2.1-2-.1-1.4-1-2-2.2-2zm5.6 3.5c.4 0 .8.3.8.8 0 .4-.3.8-.8.8-.4 0-.8-.3-.8-.8s.4-.8.8-.8zm6.1-8.1c1.2 0 2 .5 2.6 1.1l-.6.9c-.5-.6-1-1-2-1-1.8 0-2.6 1.8-2.6 3.7v.4c.4-.6 1.4-1.5 2.6-1.5 1.7 0 3.1 1 3.1 3 0 1.6-1.2 3.1-3.3 3.1-2.6 0-3.6-2.3-3.6-4.8s1.2-4.9 3.8-4.9zm-.2 4.6c-.9 0-1.8.6-2.3 1.4.1 1.2.7 2.6 2.4 2.6 1.4 0 2.1-1.1 2.1-2-.1-1.4-1-2-2.2-2zm8.3-4.6c2.5 0 3.6 2.5 3.6 4.8s-1 4.8-3.6 4.8-3.6-2.6-3.6-4.8c0-2.3 1-4.8 3.6-4.8zm0 1c-1.8 0-2.4 1.9-2.4 3.8s.6 3.8 2.4 3.8c1.8 0 2.4-1.9 2.4-3.8s-.6-3.8-2.4-3.8zm5 7.5c3.4-2.6 5.2-4.2 5.2-5.8 0-1.2-1-1.7-1.9-1.7-1.1 0-2 .5-2.5 1.2l-.7-.7c.7-.9 1.9-1.5 3.2-1.5 1.6 0 3.1.9 3.1 2.7 0 1.9-1.9 3.6-4.5 5.7h4.6v1h-6.4v-.9zm10.2-8.5c1.3 0 2.3 1 2.3 2.3 0 1.3-.9 2.3-2.3 2.3-1.3 0-2.2-1-2.2-2.3-.1-1.3.8-2.3 2.2-2.3zm0 .7c-.8 0-1.4.7-1.4 1.6 0 .9.6 1.6 1.4 1.6.8 0 1.4-.7 1.4-1.6 0-.9-.6-1.6-1.4-1.6zm5.1-.6h.8l-6 9.3h-.8l6-9.3zm-.3 4.9c1.3 0 2.3 1 2.3 2.3 0 1.3-.9 2.3-2.3 2.3-1.3 0-2.2-1-2.2-2.3 0-1.3.9-2.3 2.2-2.3zm0 .7c-.8 0-1.4.7-1.4 1.6 0 .9.6 1.6 1.4 1.6.8 0 1.4-.7 1.4-1.6.1-.9-.5-1.6-1.4-1.6z" class="st5"/></g><g class="st4"><path d="M274.6 153.5c.6.7 1.6 1.3 2.9 1.3 1.7 0 2.2-.9 2.2-1.6 0-1.1-1.1-1.4-2.4-1.8-1.5-.4-3.2-.8-3.2-2.6 0-1.5 1.4-2.6 3.2-2.6 1.4 0 2.5.5 3.3 1.3l-.7.9c-.7-.8-1.7-1.1-2.7-1.1-1.1 0-1.9.6-1.9 1.5s1.1 1.2 2.3 1.5c1.5.4 3.3.9 3.3 2.8 0 1.4-.9 2.7-3.4 2.7-1.6 0-2.8-.6-3.6-1.5l.7-.8zm12.6-2.3c0-1.2-.6-1.5-1.5-1.5-.8 0-1.6.5-2 1.1v4.9h-1.1v-9.3h1.1v3.6c.5-.6 1.4-1.1 2.4-1.1 1.4 0 2.2.7 2.2 2.2v4.8h-1.1v-4.7zm6.1-2.5c2 0 3.2 1.6 3.2 3.6v.3H291c.1 1.3 1 2.3 2.4 2.3.8 0 1.6-.3 2.1-.9l.5.7c-.7.7-1.6 1-2.7 1-2 0-3.4-1.4-3.4-3.6.1-1.8 1.5-3.4 3.4-3.4zm-2.2 3.2h4.4c0-1-.7-2.3-2.2-2.3-1.4 0-2.1 1.2-2.2 2.3zm11.4 3c-.6.6-1.3.9-2.2.9-1.1 0-2.4-.8-2.4-2.2 0-1.5 1.2-2.2 2.4-2.2.9 0 1.7.3 2.2.9v-1.2c0-.9-.7-1.4-1.7-1.4-.8 0-1.5.3-2.1.9l-.5-.7c.7-.8 1.6-1.1 2.7-1.1 1.4 0 2.6.6 2.6 2.3v4.7h-1.1v-.9zm0-1.9c-.4-.6-1.1-.8-1.9-.8-1 0-1.7.6-1.7 1.5s.7 1.5 1.7 1.5c.7 0 1.5-.3 1.9-.8V153zm3.1-4.1h1.1v1.1c.5-.7 1.3-1.2 2.3-1.2v1.1h-.4c-.6 0-1.5.5-1.8 1.1v4.8h-1.1v-6.9zm5.2-.1c.4 0 .8.3.8.8 0 .4-.4.8-.8.8s-.8-.3-.8-.8c.1-.5.4-.8.8-.8zm0 5.5c.4 0 .8.3.8.8 0 .4-.4.8-.8.8s-.8-.3-.8-.8c.1-.5.4-.8.8-.8zm6.3-.7c.5.7 1.5 1.2 2.6 1.2 1.4 0 2.2-.7 2.2-1.8 0-1.2-1-1.7-2.3-1.7h-1v-1.1h1c1.2 0 2.2-.5 2.2-1.5s-1-1.6-2.1-1.6c-1 0-1.8.4-2.5 1.1l-.6-.7c.7-.8 1.8-1.4 3.2-1.4 1.8 0 3.2.9 3.2 2.5 0 1.3-1.1 2-2 2.2.9.1 2.2.8 2.2 2.3 0 1.6-1.2 2.7-3.3 2.7-1.6 0-2.7-.7-3.3-1.5l.5-.7zm11-7.4c2.5 0 3.6 2.5 3.6 4.8s-1 4.8-3.6 4.8-3.6-2.6-3.6-4.8c.1-2.3 1.1-4.8 3.6-4.8zm0 1c-1.8 0-2.4 1.9-2.4 3.8s.6 3.8 2.4 3.8c1.8 0 2.4-1.9 2.4-3.8s-.6-3.8-2.4-3.8zm7.1-.6c1.4 0 2.3 1 2.3 2.3s-.9 2.3-2.3 2.3-2.3-1-2.3-2.3 1-2.3 2.3-2.3zm0 .7c-.9 0-1.4.7-1.4 1.6 0 .9.5 1.6 1.4 1.6.9 0 1.5-.7 1.5-1.6 0-.9-.5-1.6-1.5-1.6z" class="st5"/></g><g class="st4"><path d="M277.5 168.8h-1.9v3.7h-1.2v-9.3h3.8c1.7 0 2.9 1.1 2.9 2.8 0 1.7-1.1 2.6-2.4 2.7l2.5 3.8h-1.4l-2.3-3.7zm.6-4.6h-2.5v3.6h2.5c1.1 0 1.9-.7 1.9-1.8s-.8-1.8-1.9-1.8zm4.1 4.9c0-2 1.3-3.5 3.3-3.5s3.3 1.6 3.3 3.5-1.3 3.6-3.3 3.6-3.3-1.7-3.3-3.6zm5.5 0c0-1.4-.8-2.6-2.2-2.6-1.4 0-2.3 1.2-2.3 2.6 0 1.4.8 2.6 2.3 2.6 1.4 0 2.2-1.2 2.2-2.6zm3.1 1.9v-4.4h-1.1v-.9h1.1v-1.8h1.1v1.8h1.4v.9h-1.4v4.2c0 .5.2.9.7.9.3 0 .6-.1.7-.3l.3.8c-.3.3-.6.4-1.3.4-1 0-1.5-.5-1.5-1.6zm8.1.7c-.6.6-1.3.9-2.2.9-1.1 0-2.4-.8-2.4-2.2 0-1.5 1.2-2.2 2.4-2.2.9 0 1.7.3 2.2.9v-1.2c0-.9-.7-1.4-1.7-1.4-.8 0-1.5.3-2.1.9l-.5-.7c.7-.8 1.6-1.1 2.7-1.1 1.4 0 2.6.6 2.6 2.3v4.7h-1.1v-.9zm0-1.9c-.4-.6-1.1-.8-1.9-.8-1 0-1.7.6-1.7 1.5s.7 1.5 1.7 1.5c.7 0 1.5-.3 1.9-.8v-1.4zm3.4 1.2v-4.4h-1.1v-.9h1.1v-1.8h1.1v1.8h1.4v.9h-1.4v4.2c0 .5.2.9.7.9.3 0 .6-.1.7-.3l.3.8c-.3.3-.6.4-1.3.4-1 0-1.5-.5-1.5-1.6zm6.8-5.5c2 0 3.2 1.6 3.2 3.6v.3h-5.5c.1 1.3 1 2.3 2.4 2.3.8 0 1.6-.3 2.1-.9l.5.7c-.7.7-1.6 1-2.7 1-2 0-3.4-1.4-3.4-3.6.1-1.8 1.5-3.4 3.4-3.4zm-2.2 3.2h4.4c0-1-.7-2.3-2.2-2.3-1.5 0-2.2 1.2-2.2 2.3zm7.7-3.1c.4 0 .8.3.8.8 0 .4-.4.8-.8.8s-.8-.3-.8-.8.4-.8.8-.8zm0 5.5c.4 0 .8.3.8.8 0 .4-.4.8-.8.8s-.8-.3-.8-.8.4-.8.8-.8zm5.6-2.5h3.4v.9h-3.4v-.9zm4.9 1.8c.5.7 1.5 1.2 2.6 1.2 1.4 0 2.2-.7 2.2-1.8 0-1.2-1-1.7-2.3-1.7h-1V167h1c1.2 0 2.2-.5 2.2-1.5s-1-1.6-2.1-1.6c-1 0-1.8.4-2.5 1.1l-.6-.7c.7-.8 1.8-1.4 3.2-1.4 1.8 0 3.2.9 3.2 2.5 0 1.3-1.1 2-2 2.2.9.1 2.2.8 2.2 2.3 0 1.6-1.2 2.7-3.3 2.7-1.6 0-2.7-.7-3.3-1.5l.5-.7zm11-7.4c2.5 0 3.6 2.5 3.6 4.8s-1 4.8-3.6 4.8-3.6-2.6-3.6-4.8c0-2.3 1-4.8 3.6-4.8zm0 1c-1.8 0-2.4 1.9-2.4 3.8s.6 3.8 2.4 3.8c1.8 0 2.4-1.9 2.4-3.8s-.6-3.8-2.4-3.8zm7.1-.6c1.4 0 2.3 1 2.3 2.3s-.9 2.3-2.3 2.3-2.3-1-2.3-2.3.9-2.3 2.3-2.3zm0 .7c-.9 0-1.4.7-1.4 1.6 0 .9.5 1.6 1.4 1.6.9 0 1.5-.7 1.5-1.6 0-.9-.6-1.6-1.5-1.6z" class="st5"/></g><g class="st4"><path d="M515.6 136.7c.6.7 1.6 1.3 2.9 1.3 1.7 0 2.2-.9 2.2-1.6 0-1.1-1.1-1.4-2.4-1.8-1.5-.4-3.2-.8-3.2-2.6 0-1.5 1.4-2.6 3.2-2.6 1.4 0 2.5.5 3.3 1.3l-.7.9c-.7-.8-1.7-1.1-2.7-1.1-1.1 0-1.9.6-1.9 1.5s1.1 1.2 2.3 1.5c1.5.4 3.3.9 3.3 2.8 0 1.4-.9 2.7-3.4 2.7-1.6 0-2.8-.6-3.6-1.5l.7-.8zm11-4.8c1.2 0 2 .5 2.5 1.2l-.7.6c-.4-.6-1-.9-1.7-.9-1.4 0-2.3 1.1-2.3 2.6s.9 2.6 2.3 2.6c.7 0 1.3-.3 1.7-.9l.7.6c-.5.7-1.2 1.2-2.5 1.2-2 0-3.4-1.5-3.4-3.6.1-1.8 1.4-3.4 3.4-3.4zm8.2 6.2c-.6.6-1.3.9-2.2.9-1.1 0-2.4-.8-2.4-2.2 0-1.5 1.2-2.2 2.4-2.2.9 0 1.7.3 2.2.9v-1.2c0-.9-.7-1.4-1.7-1.4-.8 0-1.5.3-2.1.9l-.5-.7c.7-.8 1.6-1.1 2.7-1.1 1.4 0 2.6.6 2.6 2.3v4.7h-1.1v-.9zm0-1.9c-.4-.6-1.1-.8-1.9-.8-1 0-1.7.6-1.7 1.5s.7 1.5 1.7 1.5c.7 0 1.5-.3 1.9-.8v-1.4zm3.2-6.7h1.1v9.3H538v-9.3zm6 2.4c2 0 3.2 1.6 3.2 3.6v.3h-5.5c.1 1.3 1 2.3 2.4 2.3.8 0 1.6-.3 2.1-.9l.5.7c-.7.7-1.6 1-2.7 1-2 0-3.4-1.4-3.4-3.6.1-1.8 1.5-3.4 3.4-3.4zm-2.2 3.2h4.4c0-1-.7-2.3-2.2-2.3-1.4 0-2.1 1.2-2.2 2.3zm9.9-5.6h1.3l3.2 8.1 3.2-8.1h1.3l-3.8 9.3h-1.4l-3.8-9.3zm12.2 2.4c2 0 3.2 1.6 3.2 3.6v.3h-5.5c.1 1.3 1 2.3 2.4 2.3.8 0 1.6-.3 2.1-.9l.5.7c-.7.7-1.6 1-2.7 1-2 0-3.4-1.4-3.4-3.6.1-1.8 1.5-3.4 3.4-3.4zm-2.2 3.2h4.4c0-1-.7-2.3-2.2-2.3-1.4 0-2.2 1.2-2.2 2.3zm7.2-3h1.1v1.1c.5-.7 1.3-1.2 2.3-1.2v1.1h-.4c-.6 0-1.5.5-1.8 1.1v4.8H569v-6.9zm4.8 5.3V133h-1.1v-.9h1.1v-1.8h1v1.8h1.4v.9h-1.4v4.2c0 .5.2.9.7.9.3 0 .6-.1.7-.3l.3.8c-.3.3-.6.4-1.3.4-.9 0-1.4-.5-1.4-1.6zm3.7-7.1c0-.4.3-.7.7-.7.4 0 .7.3.7.7s-.3.7-.7.7c-.4 0-.7-.3-.7-.7zm.2 1.8h1v6.8h-1v-6.8zm6.1-.2c1.2 0 2 .5 2.5 1.2l-.7.6c-.4-.6-1-.9-1.7-.9-1.4 0-2.3 1.1-2.3 2.6s.9 2.6 2.3 2.6c.7 0 1.3-.3 1.7-.9l.7.6c-.5.7-1.2 1.2-2.5 1.2-2 0-3.4-1.5-3.4-3.6 0-1.8 1.4-3.4 3.4-3.4zm8.2 6.2c-.6.6-1.3.9-2.2.9-1.1 0-2.4-.8-2.4-2.2 0-1.5 1.2-2.2 2.4-2.2.9 0 1.7.3 2.2.9v-1.2c0-.9-.7-1.4-1.7-1.4-.8 0-1.5.3-2.1.9l-.5-.7c.7-.8 1.6-1.1 2.7-1.1 1.4 0 2.6.6 2.6 2.3v4.7h-1.1v-.9zm0-1.9c-.4-.6-1.1-.8-1.9-.8-1 0-1.7.6-1.7 1.5s.7 1.5 1.7 1.5c.7 0 1.5-.3 1.9-.8v-1.4zm3.1-6.7h1.1v9.3H595v-9.3zm3.8 2.5c.4 0 .8.3.8.8 0 .4-.3.8-.8.8-.4 0-.8-.3-.8-.8s.3-.8.8-.8zm0 5.5c.4 0 .8.3.8.8 0 .4-.3.8-.8.8-.4 0-.8-.3-.8-.8s.3-.8.8-.8zm8.1-3.5c-1.1-.3-2.1-1-2.1-2.2 0-1.7 1.6-2.4 3.2-2.4 1.5 0 3.2.7 3.2 2.4 0 1.2-1 1.9-2.1 2.2 1.2.3 2.2 1.2 2.2 2.5 0 1.6-1.5 2.5-3.3 2.5-1.8 0-3.3-.9-3.3-2.5 0-1.3 1.1-2.1 2.2-2.5zm1.2.6c-.6.1-2.2.6-2.2 1.8 0 1 1 1.6 2.2 1.6 1.1 0 2.2-.6 2.2-1.6-.1-1.2-1.7-1.8-2.2-1.8zm0-4.2c-1.1 0-2 .6-2 1.5 0 1.1 1.5 1.5 2 1.6.6-.1 2-.5 2-1.6 0-.9-.9-1.5-2-1.5zm8.5-1c1.2 0 2 .5 2.6 1.1l-.6.9c-.5-.6-1-1-2-1-1.8 0-2.6 1.8-2.6 3.7v.4c.4-.6 1.4-1.5 2.6-1.5 1.7 0 3.1 1 3.1 3 0 1.6-1.2 3.1-3.3 3.1-2.6 0-3.6-2.3-3.6-4.8s1.2-4.9 3.8-4.9zm-.2 4.6c-.9 0-1.8.6-2.3 1.4.1 1.2.7 2.6 2.4 2.6 1.4 0 2.1-1.1 2.1-2-.1-1.4-1-2-2.2-2zm5.6 3.5c.4 0 .8.3.8.8 0 .4-.4.8-.8.8s-.8-.3-.8-.8.4-.8.8-.8zm6.1-8.1c1.2 0 2 .5 2.6 1.1l-.6.9c-.5-.6-1-1-2-1-1.8 0-2.6 1.8-2.6 3.7v.4c.4-.6 1.4-1.5 2.6-1.5 1.7 0 3.1 1 3.1 3 0 1.6-1.2 3.1-3.3 3.1-2.6 0-3.6-2.3-3.6-4.8s1.2-4.9 3.8-4.9zm-.2 4.6c-.9 0-1.8.6-2.3 1.4.1 1.2.7 2.6 2.4 2.6 1.4 0 2.1-1.1 2.1-2-.1-1.4-1-2-2.2-2zm8.3-4.6c2.5 0 3.6 2.5 3.6 4.8s-1 4.8-3.6 4.8-3.6-2.6-3.6-4.8c0-2.3 1-4.8 3.6-4.8zm0 1c-1.8 0-2.4 1.9-2.4 3.8s.6 3.8 2.4 3.8 2.4-1.9 2.4-3.8c-.1-1.9-.7-3.8-2.4-3.8zm5 7.5c3.4-2.6 5.2-4.2 5.2-5.8 0-1.2-1-1.7-1.9-1.7-1.1 0-2 .5-2.5 1.2l-.7-.7c.7-.9 1.9-1.5 3.2-1.5 1.6 0 3.1.9 3.1 2.7 0 1.9-1.9 3.6-4.5 5.7h4.6v1h-6.4v-.9zm10.2-8.5c1.3 0 2.3 1 2.3 2.3 0 1.3-.9 2.3-2.3 2.3-1.3 0-2.2-1-2.2-2.3-.1-1.3.8-2.3 2.2-2.3zm0 .7c-.8 0-1.4.7-1.4 1.6 0 .9.6 1.6 1.4 1.6.8 0 1.4-.7 1.4-1.6 0-.9-.6-1.6-1.4-1.6zm5-.6h.8l-6 9.3h-.8l6-9.3zm-.2 4.9c1.3 0 2.3 1 2.3 2.3 0 1.3-.9 2.3-2.3 2.3s-2.2-1-2.2-2.3c0-1.3.9-2.3 2.2-2.3zm0 .7c-.8 0-1.4.7-1.4 1.6 0 .9.6 1.6 1.4 1.6s1.4-.7 1.4-1.6c.1-.9-.5-1.6-1.4-1.6z" class="st5"/></g><g class="st4"><path d="M515.6 153.5c.6.7 1.6 1.3 2.9 1.3 1.7 0 2.2-.9 2.2-1.6 0-1.1-1.1-1.4-2.4-1.8-1.5-.4-3.2-.8-3.2-2.6 0-1.5 1.4-2.6 3.2-2.6 1.4 0 2.5.5 3.3 1.3l-.7.9c-.7-.8-1.7-1.1-2.7-1.1-1.1 0-1.9.6-1.9 1.5s1.1 1.2 2.3 1.5c1.5.4 3.3.9 3.3 2.8 0 1.4-.9 2.7-3.4 2.7-1.6 0-2.8-.6-3.6-1.5l.7-.8zm12.6-2.3c0-1.2-.6-1.5-1.5-1.5-.8 0-1.6.5-2 1.1v4.9h-1.1v-9.3h1.1v3.6c.5-.6 1.4-1.1 2.4-1.1 1.4 0 2.2.7 2.2 2.2v4.8h-1.1v-4.7zm6.1-2.5c2 0 3.2 1.6 3.2 3.6v.3H532c.1 1.3 1 2.3 2.4 2.3.8 0 1.6-.3 2.1-.9l.5.7c-.7.7-1.6 1-2.7 1-2 0-3.4-1.4-3.4-3.6.1-1.8 1.5-3.4 3.4-3.4zm-2.2 3.2h4.4c0-1-.7-2.3-2.2-2.3-1.4 0-2.2 1.2-2.2 2.3zm11.4 3c-.6.6-1.3.9-2.2.9-1.1 0-2.4-.8-2.4-2.2 0-1.5 1.2-2.2 2.4-2.2.9 0 1.7.3 2.2.9v-1.2c0-.9-.7-1.4-1.7-1.4-.8 0-1.5.3-2.1.9l-.5-.7c.7-.8 1.6-1.1 2.7-1.1 1.4 0 2.6.6 2.6 2.3v4.7h-1.1v-.9zm0-1.9c-.4-.6-1.1-.8-1.9-.8-1 0-1.7.6-1.7 1.5s.7 1.5 1.7 1.5c.7 0 1.5-.3 1.9-.8V153zm3.1-4.1h1.1v1.1c.5-.7 1.3-1.2 2.3-1.2v1.1h-.4c-.6 0-1.5.5-1.8 1.1v4.8h-1.1v-6.9zm5.2-.1c.4 0 .8.3.8.8 0 .4-.4.8-.8.8s-.8-.3-.8-.8.4-.8.8-.8zm0 5.5c.4 0 .8.3.8.8 0 .4-.4.8-.8.8s-.8-.3-.8-.8.4-.8.8-.8zm6.3-.7c.5.7 1.5 1.2 2.6 1.2 1.4 0 2.2-.7 2.2-1.8 0-1.2-1-1.7-2.3-1.7h-1v-1.1h1c1.2 0 2.2-.5 2.2-1.5s-1-1.6-2.1-1.6c-1 0-1.8.4-2.5 1.1l-.6-.7c.7-.8 1.8-1.4 3.2-1.4 1.8 0 3.2.9 3.2 2.5 0 1.3-1.1 2-2 2.2.9.1 2.2.8 2.2 2.3 0 1.6-1.2 2.7-3.3 2.7-1.6 0-2.7-.7-3.3-1.5l.5-.7zm11-7.4c2.5 0 3.6 2.5 3.6 4.8s-1 4.8-3.6 4.8-3.6-2.6-3.6-4.8c.1-2.3 1.1-4.8 3.6-4.8zm0 1c-1.8 0-2.4 1.9-2.4 3.8s.6 3.8 2.4 3.8 2.4-1.9 2.4-3.8-.6-3.8-2.4-3.8zm7.1-.6c1.4 0 2.3 1 2.3 2.3s-.9 2.3-2.3 2.3-2.3-1-2.3-2.3.9-2.3 2.3-2.3zm0 .7c-.9 0-1.4.7-1.4 1.6 0 .9.5 1.6 1.4 1.6.9 0 1.5-.7 1.5-1.6 0-.9-.5-1.6-1.5-1.6z" class="st5"/></g><g class="st4"><path d="M518.5 168.8h-1.9v3.7h-1.2v-9.3h3.8c1.7 0 2.9 1.1 2.9 2.8 0 1.7-1.1 2.6-2.4 2.7l2.5 3.8h-1.4l-2.3-3.7zm.6-4.6h-2.5v3.6h2.5c1.1 0 1.9-.7 1.9-1.8s-.8-1.8-1.9-1.8zm4 4.9c0-2 1.3-3.5 3.3-3.5 2.1 0 3.3 1.6 3.3 3.5s-1.3 3.6-3.3 3.6c-2-.1-3.3-1.7-3.3-3.6zm5.6 0c0-1.4-.8-2.6-2.2-2.6-1.4 0-2.3 1.2-2.3 2.6 0 1.4.8 2.6 2.3 2.6 1.4 0 2.2-1.2 2.2-2.6zm3.1 1.9v-4.4h-1.1v-.9h1.1v-1.8h1.1v1.8h1.4v.9h-1.4v4.2c0 .5.2.9.7.9.3 0 .6-.1.7-.3l.3.8c-.3.3-.6.4-1.3.4-1 0-1.5-.5-1.5-1.6zm8.1.7c-.6.6-1.3.9-2.2.9-1.1 0-2.4-.8-2.4-2.2 0-1.5 1.2-2.2 2.4-2.2.9 0 1.7.3 2.2.9v-1.2c0-.9-.7-1.4-1.7-1.4-.8 0-1.5.3-2.1.9l-.5-.7c.7-.8 1.6-1.1 2.7-1.1 1.4 0 2.6.6 2.6 2.3v4.7h-1.1v-.9zm0-1.9c-.4-.6-1.1-.8-1.9-.8-1 0-1.7.6-1.7 1.5s.7 1.5 1.7 1.5c.7 0 1.5-.3 1.9-.8v-1.4zm3.3 1.2v-4.4h-1.1v-.9h1.1v-1.8h1v1.8h1.4v.9h-1.4v4.2c0 .5.2.9.7.9.3 0 .6-.1.7-.3l.3.8c-.3.3-.6.4-1.3.4-.8 0-1.4-.5-1.4-1.6zm6.9-5.5c2 0 3.2 1.6 3.2 3.6v.3h-5.5c.1 1.3 1 2.3 2.4 2.3.8 0 1.6-.3 2.1-.9l.5.7c-.7.7-1.6 1-2.7 1-2 0-3.4-1.4-3.4-3.6.1-1.8 1.5-3.4 3.4-3.4zm-2.2 3.2h4.4c0-1-.7-2.3-2.2-2.3-1.5 0-2.2 1.2-2.2 2.3zm7.7-3.1c.4 0 .8.3.8.8 0 .4-.3.8-.8.8-.4 0-.8-.3-.8-.8s.4-.8.8-.8zm0 5.5c.4 0 .8.3.8.8 0 .4-.3.8-.8.8-.4 0-.8-.3-.8-.8s.4-.8.8-.8zm6.3-.7c.5.7 1.5 1.2 2.6 1.2 1.4 0 2.2-.7 2.2-1.8 0-1.2-1-1.7-2.3-1.7h-1V167h1c1.2 0 2.2-.5 2.2-1.5s-1-1.6-2.1-1.6c-1 0-1.8.4-2.5 1.1l-.6-.7c.7-.8 1.8-1.4 3.2-1.4 1.8 0 3.2.9 3.2 2.5 0 1.3-1.1 2-2 2.2.9.1 2.2.8 2.2 2.3 0 1.6-1.2 2.7-3.3 2.7-1.6 0-2.7-.7-3.3-1.5l.5-.7zm11-7.4c2.5 0 3.6 2.5 3.6 4.8s-1 4.8-3.6 4.8-3.6-2.6-3.6-4.8c0-2.3 1-4.8 3.6-4.8zm0 1c-1.8 0-2.4 1.9-2.4 3.8s.6 3.8 2.4 3.8c1.8 0 2.4-1.9 2.4-3.8s-.6-3.8-2.4-3.8zm7.1-.6c1.4 0 2.3 1 2.3 2.3s-.9 2.3-2.3 2.3-2.3-1-2.3-2.3.9-2.3 2.3-2.3zm0 .7c-.9 0-1.4.7-1.4 1.6 0 .9.5 1.6 1.4 1.6.9 0 1.5-.7 1.5-1.6 0-.9-.6-1.6-1.5-1.6z" class="st5"/></g></svg>