<svg xmlns="http://www.w3.org/2000/svg" viewBox="0 0 667.87 154.21" width="667.87" height="154.21"><defs><style>.cls-1{fill:#adcfed}.cls-2{fill:#6792cc}.cls-3,.cls-4{fill:none;stroke-miterlimit:10}.cls-3{stroke:#adcfed}.cls-4{stroke:#ec008c;stroke-width:.5px}.cls-5{fill:#ec008c}.cls-6{fill:#79b6e4}</style></defs><g id="_3_-_My_First_Cylinder"><circle cx="31.7" cy="68.83" r="31.7" class="cls-1"/><path d="M141.088 52.985c0-17.505-12.29-24.6-27.45-15.848s-27.45 30.039-27.45 47.544 12.29 24.6 27.45 15.848 27.45-30.039 27.45-47.544z" class="cls-1"/><path d="M224.976 44.594c0-17.506-12.29-24.6-27.45-15.848s-27.45 30.039-27.45 47.544 12.29 24.6 27.45 15.848 27.45-30.04 27.45-47.544z" class="cls-2"/><path d="M239.68 53.059c0-17.506-12.29-24.6-27.45-15.848s-27.45 30.038-27.45 47.544 12.29 24.6 27.45 15.848 27.45-30.04 27.45-47.544z" class="cls-1"/><path d="M171.3.43l81.27 46.93" class="cls-3"/><path d="M338.274 44.594c0-8.761-3.078-14.915-8.054-17.78-4.966-2.858-11.823-2.44-19.396 1.932-15.16 8.752-27.45 30.039-27.45 47.544 0 8.76 3.079 14.914 8.054 17.779 4.967 2.859 11.823 2.44 19.396-1.931 15.16-8.753 27.45-30.04 27.45-47.544z" class="cls-2"/><path d="M291.43 94.07l14.7 8.46m24.09-75.72l14.7 8.47" class="cls-4"/><path d="M352.978 53.059c0-8.761-3.078-14.915-8.054-17.78-4.966-2.858-11.822-2.44-19.395 1.932-15.16 8.752-27.45 30.039-27.45 47.544 0 8.76 3.078 14.914 8.054 17.779 4.966 2.858 11.823 2.44 19.396-1.932 15.16-8.752 27.45-30.038 27.45-47.544z" class="cls-1"/><path d="M436.867 44.594c0-8.761-3.078-14.915-8.054-17.78-4.966-2.858-11.823-2.44-19.396 1.932-15.16 8.752-27.45 30.039-27.45 47.544 0 8.76 3.079 14.914 8.054 17.779 4.967 2.859 11.823 2.44 19.396-1.931 15.16-8.753 27.45-30.04 27.45-47.544z" class="cls-2"/><path d="M404.73 102.53l-14.71-8.46v-7.05l13.08 1.29 4.09 9.99-2.46 4.23m38.79-67.25l-14.71-8.46-4.69 2.7 5.22 11.04 14.18 1.93v-7.21" class="cls-5"/><path d="M451.572 53.059c0-8.761-3.079-14.915-8.054-17.78-4.967-2.858-11.823-2.44-19.396 1.932-15.16 8.752-27.45 30.039-27.45 47.544 0 8.76 3.078 14.914 8.054 17.779 4.966 2.858 11.823 2.44 19.396-1.932 15.16-8.752 27.45-30.038 27.45-47.544z" class="cls-1"/><path d="M542.11 35.28l-14.705-8.465c-4.965-2.859-11.822-2.441-19.395 1.93-15.16 8.753-27.45 30.04-27.45 47.545 0 8.76 3.078 14.914 8.054 17.779l14.705 8.464 2.46-4.232-1.724-4.212a32.924 32.924 0 0 0 3.955-1.951c15.16-8.753 27.45-30.04 27.45-47.544 0-1.047-.047-2.054-.133-3.025l6.783.926z" class="cls-5"/><path d="M562.63 62.092c0-8.76-3.079-14.914-8.055-17.779-4.966-2.859-11.823-2.44-19.395 1.931-15.16 8.753-27.45 30.04-27.45 47.544 0 8.761 3.078 14.915 8.054 17.78 4.966 2.858 11.823 2.44 19.395-1.932 15.161-8.752 27.45-30.039 27.45-47.544z" class="cls-1"/><path d="M600.509 84.755c0-17.506 12.29-38.792 27.45-47.544 7.573-4.372 14.43-4.79 19.396-1.931l-14.705-8.465c-4.966-2.859-11.823-2.441-19.396 1.93-15.16 8.753-27.45 30.04-27.45 47.545 0 8.76 3.079 14.914 8.054 17.779l14.705 8.464c-4.976-2.864-8.054-9.017-8.054-17.778z" class="cls-5"/><path d="M659.819 44.313c-4.966-2.859-11.823-2.44-19.396 1.931-15.16 8.753-27.45 30.04-27.45 47.544 0 8.761 3.078 14.915 8.054 17.78 4.967 2.858 11.823 2.44 19.396-1.932 15.16-8.752 27.45-30.039 27.45-47.544 0-8.76-3.078-14.914-8.054-17.779z" class="cls-1"/><path d="M17.224 131.92a3.993 3.993 0 0 1 4.078-4.138 3.597 3.597 0 0 1 3.07 1.583l-.84.467a2.715 2.715 0 0 0-2.23-1.163 3.257 3.257 0 0 0 0 6.5 2.686 2.686 0 0 0 2.23-1.163l.852.468a3.64 3.64 0 0 1-3.082 1.583 3.993 3.993 0 0 1-4.078-4.138zm8.244-3.383a.606.606 0 0 1 1.212 0 .606.606 0 1 1-1.212 0zm.156 1.583h.9v5.793h-.9zm2.7 0h.9v.935a2.464 2.464 0 0 1 1.93-1.055v.924a1.56 1.56 0 0 0-.36-.036 2.12 2.12 0 0 0-1.57.923v4.102h-.9zm6.514-.143a2.481 2.481 0 0 1 2.123 1.007l-.6.551a1.719 1.719 0 0 0-1.475-.755 2.25 2.25 0 0 0 0 4.473 1.746 1.746 0 0 0 1.475-.755l.6.552a2.481 2.481 0 0 1-2.123 1.007 3.044 3.044 0 0 1 0-6.08zm3.386-2.064h.899v8h-.9zm5.218 2.064a2.813 2.813 0 0 1 2.783 3.105v.229h-4.69a2.041 2.041 0 0 0 2.088 2.003 2.533 2.533 0 0 0 1.787-.732l.431.587a3.145 3.145 0 0 1-2.302.888 3.044 3.044 0 0 1-.097-6.08zm-1.906 2.674h3.801a1.877 1.877 0 0 0-1.906-1.931 1.932 1.932 0 0 0-1.895 1.93zm47.584 1.487h-4.054l-.708 1.775h-1.103l3.214-8h1.236l3.226 8h-1.104zm-3.766-.888h3.466l-1.727-4.449zm10.499-1.127c0-1.02-.517-1.343-1.296-1.343a2.24 2.24 0 0 0-1.715.9v4.233h-.9v-5.793h.9v.84a2.871 2.871 0 0 1 2.063-.983 1.646 1.646 0 0 1 1.847 1.87v4.066h-.9zm3.145 4.606a2.213 2.213 0 0 0 1.883.79 1.658 1.658 0 0 0 1.859-1.737v-.829a2.418 2.418 0 0 1-1.943 1.032c-1.511 0-2.579-1.127-2.579-2.998 0-1.859 1.056-3.01 2.579-3.01a2.4 2.4 0 0 1 1.943 1.018v-.875h.9v5.625c0 1.92-1.344 2.519-2.76 2.519a2.962 2.962 0 0 1-2.337-.863zm3.742-5.014a2.135 2.135 0 0 0-1.727-.935c-1.164 0-1.86.924-1.86 2.207 0 1.271.696 2.207 1.86 2.207a2.145 2.145 0 0 0 1.727-.948zm2.702-3.802h.9v8h-.9zm5.218 2.064a2.813 2.813 0 0 1 2.783 3.105v.229h-4.69a2.041 2.041 0 0 0 2.088 2.003 2.533 2.533 0 0 0 1.787-.732l.431.587a3.145 3.145 0 0 1-2.302.888 3.044 3.044 0 0 1-.096-6.08zm-1.906 2.674h3.802a1.877 1.877 0 0 0-1.907-1.931 1.932 1.932 0 0 0-1.895 1.93zm11.866.084h-1.595v3.178h-.995v-8h3.214a2.33 2.33 0 0 1 2.507 2.411 2.21 2.21 0 0 1-2.075 2.327l2.159 3.262h-1.176zm.504-3.934h-2.099v3.059h2.099a1.53 1.53 0 1 0 0-3.059zm4.01-.264a.606.606 0 0 1 1.211 0 .606.606 0 1 1-1.211 0zm.156 1.583h.899v5.793h-.9zm3.144 6.609a2.213 2.213 0 0 0 1.882.79 1.658 1.658 0 0 0 1.86-1.737v-.829a2.418 2.418 0 0 1-1.944 1.032c-1.51 0-2.578-1.127-2.578-2.998 0-1.859 1.055-3.01 2.578-3.01a2.4 2.4 0 0 1 1.943 1.018v-.875h.9v5.625c0 1.92-1.343 2.519-2.759 2.519a2.962 2.962 0 0 1-2.338-.863zm3.741-5.014a2.135 2.135 0 0 0-1.726-.935c-1.164 0-1.86.924-1.86 2.207 0 1.271.696 2.207 1.86 2.207a2.145 2.145 0 0 0 1.726-.948zm6.625.384c0-1.02-.529-1.32-1.308-1.32a2.28 2.28 0 0 0-1.715.9v4.235h-.9v-8h.9v3.046a2.878 2.878 0 0 1 2.075-.983 1.629 1.629 0 0 1 1.847 1.846v4.09h-.9zm2.882 2.603v-3.79h-.96v-.791h.96v-1.583h.899v1.583h1.175v.79h-1.175v3.599c0 .432.192.743.587.743a.869.869 0 0 0 .612-.24l.264.672a1.469 1.469 0 0 1-1.08.372 1.185 1.185 0 0 1-1.282-1.355zm40.753-2.782a3.993 3.993 0 0 1 4.078-4.138 3.597 3.597 0 0 1 3.07 1.583l-.84.467a2.715 2.715 0 0 0-2.23-1.163 3.257 3.257 0 0 0 0 6.5 2.686 2.686 0 0 0 2.23-1.163l.851.468a3.638 3.638 0 0 1-3.082 1.583 3.993 3.993 0 0 1-4.077-4.138zm8.064 1.091a2.872 2.872 0 1 1 2.866 3.046 2.842 2.842 0 0 1-2.867-3.046zm4.785 0a1.948 1.948 0 1 0-1.919 2.242 2.014 2.014 0 0 0 1.92-2.242zm2.414 5.109v-8h.9v.863a2.421 2.421 0 0 1 1.955-1.006c1.523 0 2.578 1.15 2.578 3.034 0 1.87-1.055 3.046-2.578 3.046a2.375 2.375 0 0 1-1.955-1.02v3.083zm2.627-7.34a2.142 2.142 0 0 0-1.727.923v2.614a2.152 2.152 0 0 0 1.727.936c1.163 0 1.86-.96 1.86-2.242s-.697-2.231-1.86-2.231zm4.573 6.68a.833.833 0 0 0 .864-.611l.384-.876-2.423-5.853h.971l1.932 4.75 1.918-4.75h.984l-2.902 6.968a1.722 1.722 0 0 1-1.704 1.176 2.928 2.928 0 0 1-.66-.084l.144-.816a1.387 1.387 0 0 0 .492.096zm12.286-2.207a2.503 2.503 0 0 1-1.919.804 1.929 1.929 0 0 1-2.027-1.919 1.898 1.898 0 0 1 2.027-1.907 2.421 2.421 0 0 1 1.919.792v-1.043c0-.78-.624-1.224-1.463-1.224a2.301 2.301 0 0 0-1.775.804l-.42-.624a3.032 3.032 0 0 1 2.315-.959c1.223 0 2.242.55 2.242 1.954v3.983h-.899zm0-1.655a1.94 1.94 0 0 0-1.595-.719 1.274 1.274 0 1 0 0 2.53 1.94 1.94 0 0 0 1.595-.72zm2.702-5.685h.9v8h-.9zm2.364 5.098a2.872 2.872 0 1 1 2.867 3.046 2.842 2.842 0 0 1-2.867-3.046zm4.786 0a1.948 1.948 0 1 0-1.92 2.242 2.014 2.014 0 0 0 1.92-2.242zm6.324-.888c0-1.02-.516-1.343-1.295-1.343a2.24 2.24 0 0 0-1.716.9v4.233h-.899v-5.793h.9v.84a2.871 2.871 0 0 1 2.062-.983 1.646 1.646 0 0 1 1.848 1.87v4.066h-.9zm3.146 4.606a2.213 2.213 0 0 0 1.883.79 1.659 1.659 0 0 0 1.859-1.737v-.829a2.42 2.42 0 0 1-1.943 1.032c-1.511 0-2.579-1.127-2.579-2.998 0-1.859 1.056-3.01 2.579-3.01a2.402 2.402 0 0 1 1.943 1.018v-.875h.9v5.625c0 1.92-1.344 2.519-2.76 2.519a2.962 2.962 0 0 1-2.338-.863zm3.742-5.014a2.137 2.137 0 0 0-1.728-.935c-1.163 0-1.858.924-1.858 2.207 0 1.271.695 2.207 1.858 2.207a2.147 2.147 0 0 0 1.728-.948zm-50.295 17.387v-3.79h-.96v-.792h.96v-1.583h.899v1.583h1.175v.792h-1.175v3.598c0 .432.192.744.587.744a.87.87 0 0 0 .612-.24l.264.672a1.469 1.469 0 0 1-1.08.372 1.185 1.185 0 0 1-1.282-1.356zm7.269-2.602c0-1.02-.528-1.32-1.307-1.32a2.277 2.277 0 0 0-1.715.9v4.233h-.9v-8h.9v3.047a2.88 2.88 0 0 1 2.075-.983 1.629 1.629 0 0 1 1.847 1.846v4.09h-.9zm5.221-2.124a2.814 2.814 0 0 1 2.782 3.107v.227h-4.689a2.04 2.04 0 0 0 2.087 2.003 2.533 2.533 0 0 0 1.787-.731l.432.588a3.15 3.15 0 0 1-2.303.887 3.044 3.044 0 0 1-.096-6.08zm-1.907 2.675h3.802a1.878 1.878 0 0 0-1.907-1.931 1.933 1.933 0 0 0-1.895 1.931zm9.24 5.469v-8h.9v.864a2.422 2.422 0 0 1 1.954-1.007c1.523 0 2.579 1.15 2.579 3.034 0 1.87-1.056 3.047-2.579 3.047a2.375 2.375 0 0 1-1.955-1.02v3.082zm2.626-7.34a2.142 2.142 0 0 0-1.727.924v2.614a2.152 2.152 0 0 0 1.727.936c1.164 0 1.86-.96 1.86-2.244s-.696-2.23-1.86-2.23zm7.884 4.474a2.506 2.506 0 0 1-1.919.803 1.93 1.93 0 0 1-2.027-1.919 1.897 1.897 0 0 1 2.027-1.907 2.424 2.424 0 0 1 1.92.791v-1.043c0-.779-.624-1.223-1.464-1.223a2.301 2.301 0 0 0-1.775.803l-.42-.623a3.031 3.031 0 0 1 2.315-.96c1.223 0 2.242.552 2.242 1.955v3.982h-.899zm0-1.656a1.94 1.94 0 0 0-1.595-.72 1.274 1.274 0 1 0 0 2.53 1.94 1.94 0 0 0 1.595-.718zm2.882 1.104v-3.79h-.96v-.792h.96v-1.583h.9v1.583h1.175v.792h-1.176v3.598c0 .432.192.744.588.744a.87.87 0 0 0 .611-.24l.264.672a1.469 1.469 0 0 1-1.079.372 1.185 1.185 0 0 1-1.283-1.356zm7.269-2.602c0-1.02-.527-1.32-1.307-1.32a2.277 2.277 0 0 0-1.715.9v4.233h-.9v-8h.9v3.047a2.881 2.881 0 0 1 2.075-.983 1.63 1.63 0 0 1 1.847 1.846v4.09h-.9zm3.183 2.614a.66.66 0 1 1-.66.66.666.666 0 0 1 .66-.66zm47.284-21.201h2.735a4.001 4.001 0 1 1 0 8h-2.735zm2.735 7.113a3.113 3.113 0 0 0 0-6.225H281.9v6.225zm5.629-4.906h.9v.935a2.464 2.464 0 0 1 1.93-1.055v.924a1.56 1.56 0 0 0-.36-.036 2.12 2.12 0 0 0-1.57.923v4.102h-.9zm7.582 5.133a2.503 2.503 0 0 1-1.919.804 1.929 1.929 0 0 1-2.027-1.919 1.898 1.898 0 0 1 2.027-1.907 2.421 2.421 0 0 1 1.919.792v-1.043c0-.78-.624-1.224-1.463-1.224a2.301 2.301 0 0 0-1.775.804l-.42-.624a3.034 3.034 0 0 1 2.315-.959c1.223 0 2.242.55 2.242 1.954v3.983h-.899zm0-1.655a1.94 1.94 0 0 0-1.595-.719 1.274 1.274 0 1 0 0 2.53 1.94 1.94 0 0 0 1.595-.72zm6.204-2.338l-1.511 4.653h-.9l-1.847-5.793h.936l1.415 4.617 1.523-4.617h.768l1.523 4.617 1.415-4.617h.936l-1.848 5.793h-.9zm8.582 3.442v-3.79h-.96v-.791h.96v-1.583h.9v1.583h1.174v.79h-1.175v3.599c0 .432.192.743.587.743a.869.869 0 0 0 .612-.24l.264.672a1.469 1.469 0 0 1-1.08.372 1.185 1.185 0 0 1-1.282-1.355zm6.97.551a2.503 2.503 0 0 1-1.919.804 1.929 1.929 0 0 1-2.027-1.919 1.898 1.898 0 0 1 2.027-1.907 2.421 2.421 0 0 1 1.919.792v-1.043c0-.78-.624-1.224-1.463-1.224a2.301 2.301 0 0 0-1.775.804l-.42-.624a3.034 3.034 0 0 1 2.315-.959c1.223 0 2.242.55 2.242 1.954v3.983h-.9zm0-1.655a1.94 1.94 0 0 0-1.595-.719 1.274 1.274 0 1 0 0 2.53 1.94 1.94 0 0 0 1.595-.72zm6.612-1.475c0-1.02-.516-1.343-1.296-1.343a2.24 2.24 0 0 0-1.715.9v4.233h-.9v-5.793h.9v.84a2.871 2.871 0 0 1 2.063-.983 1.646 1.646 0 0 1 1.847 1.87v4.066h-.9zm3.145 4.606a2.213 2.213 0 0 0 1.883.79 1.658 1.658 0 0 0 1.859-1.737v-.829a2.418 2.418 0 0 1-1.943 1.032c-1.511 0-2.579-1.127-2.579-2.998 0-1.859 1.056-3.01 2.579-3.01a2.4 2.4 0 0 1 1.943 1.018v-.875h.9v5.625c0 1.92-1.343 2.519-2.759 2.519a2.962 2.962 0 0 1-2.338-.863zm3.742-5.014a2.135 2.135 0 0 0-1.727-.935c-1.163 0-1.86.924-1.86 2.207 0 1.271.697 2.207 1.86 2.207a2.145 2.145 0 0 0 1.727-.948zm5.221-1.738a2.813 2.813 0 0 1 2.782 3.105v.229h-4.69a2.041 2.041 0 0 0 2.088 2.003 2.533 2.533 0 0 0 1.787-.732l.431.587a3.145 3.145 0 0 1-2.302.888 3.044 3.044 0 0 1-.097-6.08zm-1.907 2.674h3.802a1.877 1.877 0 0 0-1.907-1.931 1.932 1.932 0 0 0-1.895 1.93zm10.054-.528c0-1.02-.516-1.343-1.295-1.343a2.24 2.24 0 0 0-1.716.9v4.233h-.899v-5.793h.9v.84a2.872 2.872 0 0 1 2.062-.983 1.646 1.646 0 0 1 1.848 1.87v4.066h-.9zm2.882 2.579v-3.79h-.96v-.791h.96v-1.583h.9v1.583h1.175v.79h-1.175v3.599c0 .432.192.743.587.743a.869.869 0 0 0 .612-.24l.264.672a1.469 1.469 0 0 1-1.08.372 1.185 1.185 0 0 1-1.283-1.355zm3.312-.204a2.626 2.626 0 0 0 1.907.828c.888 0 1.367-.396 1.367-.96 0-.635-.707-.84-1.487-1.032-.983-.227-2.099-.49-2.099-1.69 0-.9.78-1.667 2.16-1.667a2.932 2.932 0 0 1 2.146.84l-.42.623a2.256 2.256 0 0 0-1.727-.731c-.791 0-1.283.36-1.283.875 0 .563.66.744 1.415.924 1.008.227 2.17.515 2.17 1.798 0 .972-.779 1.751-2.278 1.751a3.082 3.082 0 0 1-2.338-.91zm-69.721 11.162l-1.51 4.653h-.9l-1.847-5.793h.935l1.415 4.618 1.523-4.618h.768l1.523 4.618 1.415-4.618h.936l-1.847 5.793h-.9zm5.151-2.723a.606.606 0 0 1 1.211 0 .606.606 0 1 1-1.211 0zm.155 1.583h.9v5.793h-.9zm2.88 4.582v-3.79h-.96v-.792h.96v-1.583h.9v1.583h1.175v.792h-1.175v3.598c0 .432.192.744.587.744a.87.87 0 0 0 .612-.24l.264.672a1.469 1.469 0 0 1-1.08.372 1.185 1.185 0 0 1-1.283-1.356zm7.27-2.602c0-1.02-.528-1.32-1.307-1.32a2.277 2.277 0 0 0-1.716.9v4.233h-.899v-8h.9v3.047a2.881 2.881 0 0 1 2.075-.983 1.63 1.63 0 0 1 1.846 1.846v4.09h-.9zm5.942 1.93a3.38 3.38 0 0 0 2.518 1.14c1.427 0 1.883-.768 1.883-1.38 0-.959-.971-1.223-2.027-1.51-1.283-.337-2.71-.696-2.71-2.267 0-1.32 1.176-2.219 2.747-2.219a3.76 3.76 0 0 1 2.842 1.115l-.6.732a3.062 3.062 0 0 0-2.314-.96c-.96 0-1.644.516-1.644 1.271 0 .804.924 1.044 1.943 1.32 1.307.348 2.795.755 2.795 2.435 0 1.163-.792 2.35-2.95 2.35a3.963 3.963 0 0 1-3.07-1.271zm10.798 1.067a2.834 2.834 0 0 1-2.063.96 1.63 1.63 0 0 1-1.847-1.847v-4.09h.9v3.814c0 1.02.515 1.32 1.295 1.32a2.217 2.217 0 0 0 1.715-.876v-4.258h.9v5.793h-.9zm2.702-7.183h.9v3.082a2.405 2.405 0 0 1 1.954-1.02c1.511 0 2.579 1.199 2.579 3.046 0 1.883-1.068 3.035-2.579 3.035a2.44 2.44 0 0 1-1.955-1.008v.863h-.9zm2.626 7.34c1.176 0 1.871-.948 1.871-2.232s-.695-2.242-1.87-2.242a2.152 2.152 0 0 0-1.728.936v2.626a2.132 2.132 0 0 0 1.727.912zm4.418-1.224a3.38 3.38 0 0 0 2.518 1.14c1.427 0 1.883-.768 1.883-1.38 0-.959-.971-1.223-2.027-1.51-1.283-.337-2.71-.696-2.71-2.267 0-1.32 1.175-2.219 2.747-2.219a3.76 3.76 0 0 1 2.842 1.115l-.6.732a3.062 3.062 0 0 0-2.314-.96c-.96 0-1.644.516-1.644 1.271 0 .804.924 1.044 1.943 1.32 1.307.348 2.795.755 2.795 2.435 0 1.163-.792 2.35-2.951 2.35a3.963 3.963 0 0 1-3.07-1.271zm9.442-4.054a2.479 2.479 0 0 1 2.123 1.008l-.6.552a1.716 1.716 0 0 0-1.475-.756 2.25 2.25 0 0 0 0 4.474 1.747 1.747 0 0 0 1.475-.756l.6.551a2.479 2.479 0 0 1-2.123 1.008 3.044 3.044 0 0 1 0-6.08zm3.386.144h.9v.935a2.463 2.463 0 0 1 1.93-1.054v.923a1.616 1.616 0 0 0-.36-.036 2.12 2.12 0 0 0-1.57.923v4.102h-.9zm3.804-1.583a.606.606 0 0 1 1.21 0 .606.606 0 1 1-1.21 0zm.155 1.583h.9v5.793h-.9zm2.7-2.206h.9v3.082a2.405 2.405 0 0 1 1.955-1.02c1.511 0 2.579 1.199 2.579 3.046 0 1.883-1.068 3.035-2.58 3.035a2.44 2.44 0 0 1-1.954-1.008v.863h-.9zm2.627 7.34c1.175 0 1.871-.948 1.871-2.232s-.696-2.242-1.871-2.242a2.152 2.152 0 0 0-1.727.936v2.626a2.132 2.132 0 0 0 1.727.912zm6.792-5.278a2.814 2.814 0 0 1 2.783 3.107v.227h-4.69a2.04 2.04 0 0 0 2.087 2.003 2.533 2.533 0 0 0 1.787-.731l.432.588a3.15 3.15 0 0 1-2.303.887 3.044 3.044 0 0 1-.096-6.08zm-1.907 2.675h3.802a1.878 1.878 0 0 0-1.907-1.931 1.933 1.933 0 0 0-1.895 1.931zm6.54 2.063a.66.66 0 1 1-.66.66.666.666 0 0 1 .66-.66zm36.936-17.194a3.993 3.993 0 0 1 4.077-4.138 3.597 3.597 0 0 1 3.07 1.583l-.84.467a2.715 2.715 0 0 0-2.23-1.163 3.257 3.257 0 0 0 0 6.5 2.686 2.686 0 0 0 2.23-1.163l.852.468a3.638 3.638 0 0 1-3.082 1.583 3.993 3.993 0 0 1-4.077-4.138zm8.399-1.8h.9v.935a2.464 2.464 0 0 1 1.93-1.055v.924a1.56 1.56 0 0 0-.36-.036 2.12 2.12 0 0 0-1.57.923v4.102h-.9zm6.478-.143a2.813 2.813 0 0 1 2.783 3.105v.229h-4.69a2.041 2.041 0 0 0 2.088 2.003 2.533 2.533 0 0 0 1.787-.732l.431.587a3.145 3.145 0 0 1-2.302.888 3.044 3.044 0 0 1-.096-6.08zm-1.906 2.674h3.802a1.877 1.877 0 0 0-1.907-1.931 1.932 1.932 0 0 0-1.895 1.93zm9.766 2.602a2.503 2.503 0 0 1-1.919.804 1.929 1.929 0 0 1-2.027-1.919 1.898 1.898 0 0 1 2.027-1.907 2.421 2.421 0 0 1 1.919.792v-1.043c0-.78-.624-1.224-1.463-1.224a2.301 2.301 0 0 0-1.775.804l-.42-.624a3.032 3.032 0 0 1 2.315-.959c1.223 0 2.243.55 2.243 1.954v3.983h-.9zm0-1.655a1.94 1.94 0 0 0-1.595-.719 1.274 1.274 0 1 0 0 2.53 1.94 1.94 0 0 0 1.595-.72zm2.882 1.104v-3.79h-.96v-.791h.96v-1.583h.9v1.583h1.175v.79h-1.176v3.599c0 .432.192.743.588.743a.869.869 0 0 0 .612-.24l.263.672a1.469 1.469 0 0 1-1.079.372 1.185 1.185 0 0 1-1.283-1.355zm5.867-4.725a2.813 2.813 0 0 1 2.782 3.105v.229h-4.69a2.041 2.041 0 0 0 2.088 2.003 2.533 2.533 0 0 0 1.787-.732l.431.587a3.145 3.145 0 0 1-2.302.888 3.044 3.044 0 0 1-.097-6.08zm-1.907 2.674h3.802a1.877 1.877 0 0 0-1.907-1.931 1.932 1.932 0 0 0-1.895 1.93zm9.491-1.74h-.959v-.79h.96v-.444a1.741 1.741 0 0 1 2.554-1.68l-.228.684a.907.907 0 0 0-.515-.144c-.588 0-.912.407-.912 1.14v.444h1.175v.79h-1.175v5.002h-.9zm2.987-2.374a.606.606 0 0 1 1.211 0 .606.606 0 1 1-1.211 0zm.156 1.583h.9v5.793h-.9zm2.701-2.207h.9v8h-.9zm2.701 0h.899v8h-.9zm5.218 2.064a2.813 2.813 0 0 1 2.782 3.105v.229h-4.689a2.041 2.041 0 0 0 2.087 2.003 2.533 2.533 0 0 0 1.787-.732l.432.587a3.145 3.145 0 0 1-2.303.888 3.044 3.044 0 0 1-.096-6.08zm-1.907 2.674h3.802a1.877 1.877 0 0 0-1.907-1.931 1.932 1.932 0 0 0-1.895 1.93zm6.144-2.531h.9v.935a2.464 2.464 0 0 1 1.93-1.055v.924a1.56 1.56 0 0 0-.36-.036 2.12 2.12 0 0 0-1.57.923v4.102h-.9zm-46.703 18.778a2.627 2.627 0 0 0 1.907.827c.887 0 1.367-.396 1.367-.96 0-.635-.708-.84-1.488-1.03-.983-.229-2.098-.493-2.098-1.692 0-.9.78-1.667 2.159-1.667a2.932 2.932 0 0 1 2.147.84l-.42.623a2.26 2.26 0 0 0-1.727-.731c-.792 0-1.284.36-1.284.876 0 .563.66.743 1.415.923 1.008.228 2.171.515 2.171 1.8 0 .97-.78 1.75-2.279 1.75a3.08 3.08 0 0 1-2.338-.911zm9.537-2.398c0-1.02-.527-1.32-1.307-1.32a2.277 2.277 0 0 0-1.715.9v4.233h-.9v-8h.9v3.047a2.881 2.881 0 0 1 2.075-.983 1.63 1.63 0 0 1 1.847 1.846v4.09h-.9zm6.324 3.154a2.506 2.506 0 0 1-1.919.803 1.93 1.93 0 0 1-2.027-1.919 1.897 1.897 0 0 1 2.027-1.907 2.424 2.424 0 0 1 1.92.791v-1.043c0-.779-.624-1.223-1.464-1.223a2.301 2.301 0 0 0-1.775.803l-.42-.623a3.03 3.03 0 0 1 2.315-.96c1.223 0 2.243.552 2.243 1.955v3.982h-.9zm0-1.656a1.94 1.94 0 0 0-1.595-.72 1.274 1.274 0 1 0 0 2.53 1.94 1.94 0 0 0 1.595-.718zm2.702 4.522v-8h.9v.864a2.422 2.422 0 0 1 1.955-1.007c1.523 0 2.579 1.15 2.579 3.034 0 1.87-1.056 3.047-2.58 3.047a2.375 2.375 0 0 1-1.954-1.02v3.082zm2.627-7.34a2.142 2.142 0 0 0-1.727.924v2.614a2.152 2.152 0 0 0 1.727.936c1.164 0 1.86-.96 1.86-2.244s-.697-2.23-1.86-2.23zm6.78-.804a2.814 2.814 0 0 1 2.783 3.107v.227h-4.69a2.04 2.04 0 0 0 2.087 2.003 2.533 2.533 0 0 0 1.787-.731l.432.588a3.15 3.15 0 0 1-2.303.887 3.044 3.044 0 0 1-.096-6.08zm-1.907 2.675h3.802a1.878 1.878 0 0 0-1.907-1.931 1.933 1.933 0 0 0-1.895 1.931zm6.108 1.847a2.626 2.626 0 0 0 1.907.827c.888 0 1.367-.396 1.367-.96 0-.635-.707-.84-1.487-1.03-.983-.229-2.099-.493-2.099-1.692 0-.9.78-1.667 2.159-1.667a2.932 2.932 0 0 1 2.147.84l-.42.623a2.26 2.26 0 0 0-1.727-.731c-.792 0-1.283.36-1.283.876 0 .563.66.743 1.415.923 1.008.228 2.17.515 2.17 1.8 0 .97-.779 1.75-2.278 1.75a3.08 3.08 0 0 1-2.339-.911zm6.096.216a.66.66 0 1 1-.66.66.666.666 0 0 1 .66-.66zm51.353-21.201h3.213a2.413 2.413 0 1 1 0 4.822h-2.218v3.178h-.996zm3.093.888h-2.098v3.046h2.098a1.525 1.525 0 1 0 0-3.046zm7.297 6.452a2.503 2.503 0 0 1-1.92.804 1.929 1.929 0 0 1-2.027-1.919 1.898 1.898 0 0 1 2.027-1.907 2.421 2.421 0 0 1 1.92.792v-1.043c0-.78-.624-1.224-1.464-1.224a2.301 2.301 0 0 0-1.775.804l-.42-.624a3.032 3.032 0 0 1 2.315-.959c1.223 0 2.243.55 2.243 1.954v3.983h-.9zm0-1.655a1.94 1.94 0 0 0-1.596-.719 1.274 1.274 0 1 0 0 2.53 1.94 1.94 0 0 0 1.595-.72zm2.881 1.104v-3.79h-.96v-.791h.96v-1.583h.9v1.583h1.175v.79h-1.176v3.599c0 .432.192.743.587.743a.869.869 0 0 0 .612-.24l.264.672a1.469 1.469 0 0 1-1.08.372 1.185 1.185 0 0 1-1.282-1.355zm7.269-2.603c0-1.02-.527-1.32-1.307-1.32a2.28 2.28 0 0 0-1.715.9v4.235h-.9v-8h.9v3.046a2.877 2.877 0 0 1 2.075-.983 1.629 1.629 0 0 1 1.847 1.846v4.09h-.9zm2.955-1.188h-.96v-.79h.96v-.444a1.741 1.741 0 0 1 2.554-1.68l-.228.684a.907.907 0 0 0-.515-.144c-.588 0-.912.407-.912 1.14v.444h1.176v.79h-1.176v5.002h-.9zm2.986-2.374a.606.606 0 0 1 1.211 0 .606.606 0 1 1-1.211 0zm.156 1.583h.9v5.793h-.9zm6.612 2.003c0-1.02-.517-1.343-1.296-1.343a2.24 2.24 0 0 0-1.715.9v4.233h-.9v-5.793h.9v.84a2.871 2.871 0 0 1 2.063-.983 1.646 1.646 0 0 1 1.847 1.87v4.066h-.9zm6.899 2.927a2.44 2.44 0 0 1-1.955 1.007c-1.511 0-2.579-1.152-2.579-3.034 0-1.847 1.056-3.046 2.579-3.046a2.423 2.423 0 0 1 1.955 1.018v-3.082h.9v8h-.9zm0-3.335a2.177 2.177 0 0 0-1.739-.935c-1.163 0-1.86.96-1.86 2.243s.697 2.23 1.86 2.23a2.154 2.154 0 0 0 1.739-.911zm5.222-1.738a2.813 2.813 0 0 1 2.782 3.105v.229h-4.69a2.041 2.041 0 0 0 2.087 2.003 2.533 2.533 0 0 0 1.787-.732l.432.587a3.145 3.145 0 0 1-2.303.888 3.044 3.044 0 0 1-.096-6.08zm-1.908 2.674h3.802a1.877 1.877 0 0 0-1.906-1.931 1.932 1.932 0 0 0-1.896 1.93zm6.145-2.531h.899v.935a2.464 2.464 0 0 1 1.931-1.055v.924a1.56 1.56 0 0 0-.36-.036 2.12 2.12 0 0 0-1.571.923v4.102h-.9zm4.439-.084a.66.66 0 1 1-.66.66.665.665 0 0 1 .66-.66zm0 4.678a.66.66 0 1 1-.66.66.665.665 0 0 1 .66-.66zm-39.863 7.6h.996v4.869a2.27 2.27 0 1 0 4.533 0v-4.87h.996v4.882a3.262 3.262 0 0 1-6.525.011zm12.274 4.209c0-1.02-.516-1.343-1.295-1.343a2.237 2.237 0 0 0-1.716.9v4.233h-.899v-5.793h.9v.84a2.876 2.876 0 0 1 2.062-.983 1.646 1.646 0 0 1 1.848 1.87v4.066h-.9zm2.546-3.586a.606.606 0 0 1 1.211 0 .606.606 0 1 1-1.211 0zm.156 1.583h.9v5.793h-.9zm2.881 4.582v-3.79h-.96v-.792h.96v-1.583h.899v1.583h1.175v.792h-1.175v3.598c0 .432.192.744.587.744a.87.87 0 0 0 .612-.24l.264.672a1.469 1.469 0 0 1-1.08.372 1.185 1.185 0 0 1-1.283-1.356zm5.865-4.726a2.814 2.814 0 0 1 2.783 3.107v.227h-4.69a2.04 2.04 0 0 0 2.087 2.003 2.533 2.533 0 0 0 1.788-.731l.431.588a3.15 3.15 0 0 1-2.303.887 3.044 3.044 0 0 1-.096-6.08zm-1.906 2.675h3.801a1.878 1.878 0 0 0-1.907-1.931 1.933 1.933 0 0 0-1.894 1.931zm75.016-19.138h.995v4.87a2.27 2.27 0 1 0 4.533 0v-4.87h.996v4.882a3.262 3.262 0 0 1-6.524.012zm12.274 4.21c0-1.02-.517-1.343-1.296-1.343a2.24 2.24 0 0 0-1.715.9v4.233h-.9v-5.793h.9v.84a2.872 2.872 0 0 1 2.063-.983 1.646 1.646 0 0 1 1.847 1.87v4.066h-.9zm3.145 4.606a2.213 2.213 0 0 0 1.883.79 1.659 1.659 0 0 0 1.86-1.737v-.829a2.42 2.42 0 0 1-1.944 1.032c-1.51 0-2.579-1.127-2.579-2.998 0-1.859 1.056-3.01 2.579-3.01a2.402 2.402 0 0 1 1.943 1.018v-.875h.9v5.625c0 1.92-1.344 2.519-2.76 2.519a2.962 2.962 0 0 1-2.337-.863zm3.742-5.014a2.137 2.137 0 0 0-1.727-.935c-1.163 0-1.86.924-1.86 2.207 0 1.271.697 2.207 1.86 2.207a2.147 2.147 0 0 0 1.727-.948zm2.702-1.595h.9v.935a2.464 2.464 0 0 1 1.931-1.055v.924a1.56 1.56 0 0 0-.36-.036 2.12 2.12 0 0 0-1.571.923v4.102h-.9zm3.624 2.891a2.872 2.872 0 1 1 2.867 3.046 2.842 2.842 0 0 1-2.867-3.046zm4.786 0a1.948 1.948 0 1 0-1.919 2.242 2.014 2.014 0 0 0 1.92-2.242zm6.324 2.087a2.837 2.837 0 0 1-2.063.959 1.63 1.63 0 0 1-1.847-1.847v-4.09h.9v3.814c0 1.02.516 1.32 1.295 1.32a2.217 2.217 0 0 0 1.715-.876v-4.258h.9v5.793h-.9zm2.702 3.022v-8h.9v.863a2.421 2.421 0 0 1 1.955-1.006c1.523 0 2.578 1.15 2.578 3.034 0 1.87-1.055 3.046-2.578 3.046a2.375 2.375 0 0 1-1.956-1.02v3.083zm2.626-7.34a2.142 2.142 0 0 0-1.727.924v2.614a2.152 2.152 0 0 0 1.727.936c1.164 0 1.86-.96 1.86-2.243s-.696-2.231-1.86-2.231zm-43.437 16.619a9.085 9.085 0 0 1 1.691-5.301l.54.407a10.2 10.2 0 0 0 0 9.775l-.54.42a9.059 9.059 0 0 1-1.69-5.301zm3.012.011a2.872 2.872 0 1 1 2.867 3.047 2.842 2.842 0 0 1-2.867-3.047zm4.786 0a1.948 1.948 0 1 0-1.92 2.243 2.014 2.014 0 0 0 1.92-2.243zm2.414 5.11v-8h.9v.864a2.422 2.422 0 0 1 1.954-1.007c1.523 0 2.579 1.15 2.579 3.034 0 1.87-1.056 3.047-2.579 3.047a2.375 2.375 0 0 1-1.955-1.02v3.082zm2.626-7.34a2.142 2.142 0 0 0-1.727.924v2.614a2.152 2.152 0 0 0 1.727.936c1.164 0 1.86-.96 1.86-2.244s-.696-2.23-1.86-2.23zm4.442 3.922v-3.79h-.96v-.792h.96v-1.583h.9v1.583h1.174v.792h-1.175v3.598c0 .432.192.744.587.744a.87.87 0 0 0 .612-.24l.264.672a1.469 1.469 0 0 1-1.08.372 1.185 1.185 0 0 1-1.282-1.356zm3.192-6.165a.606.606 0 0 1 1.211 0 .606.606 0 1 1-1.211 0zm.155 1.583h.9v5.793h-.9zm2.365 2.89a2.872 2.872 0 1 1 2.866 3.047 2.842 2.842 0 0 1-2.866-3.047zm4.785 0a1.948 1.948 0 1 0-1.919 2.243 2.014 2.014 0 0 0 1.919-2.243zm6.325-.887c0-1.02-.517-1.343-1.296-1.343a2.237 2.237 0 0 0-1.715.9v4.233h-.9v-5.793h.9v.84a2.875 2.875 0 0 1 2.063-.983 1.646 1.646 0 0 1 1.847 1.87v4.066h-.9zm6.323 3.131a2.506 2.506 0 0 1-1.919.803 1.93 1.93 0 0 1-2.027-1.919 1.897 1.897 0 0 1 2.027-1.907 2.424 2.424 0 0 1 1.92.791v-1.043c0-.779-.624-1.223-1.464-1.223a2.301 2.301 0 0 0-1.775.803l-.42-.623a3.031 3.031 0 0 1 2.315-.96c1.223 0 2.243.552 2.243 1.955v3.982h-.9zm0-1.656a1.94 1.94 0 0 0-1.595-.72 1.274 1.274 0 1 0 0 2.53 1.94 1.94 0 0 0 1.595-.718zm2.702-5.684h.9v7.999h-.9zm2.005.191l.54-.407a9.1 9.1 0 0 1 0 10.602l-.54-.42a10.113 10.113 0 0 0 0-9.775z" class="cls-6"/></g></svg>