<svg xmlns="http://www.w3.org/2000/svg" width="3.4in" height="3.3in" viewBox="0 0 244.6 237.8"><path fill="#464646" d="M73.1 164.5a4.5 4.5 0 0 1-4.2-4.6 4.4 4.4 0 0 1 4.6-4.2 4.3 4.3 0 0 1 4.2 4.6 4.4 4.4 0 0 1-4.4 4.2h-.2zm8.9-4.4a4.3 4.3 0 0 1 3.8-4.9 4.2 4.2 0 0 1 4.9 3.7 4.5 4.5 0 0 1-3.8 5h-.6a4.4 4.4 0 0 1-4.3-3.8zm-22.5 2.5a4.3 4.3 0 0 1-3.3-5.3 4.4 4.4 0 0 1 5.2-3.3 4.4 4.4 0 0 1 3.3 5.3 4.3 4.3 0 0 1-4.3 3.4h-.9zm35.3-4.6a4.4 4.4 0 0 1 2.9-5.5 4.3 4.3 0 0 1 5.5 2.8 4.3 4.3 0 0 1-2.8 5.5 3.5 3.5 0 0 1-1.4.3 4.5 4.5 0 0 1-4.2-3.1zm-48.5.3a4.5 4.5 0 0 1-2.3-5.8 4.5 4.5 0 0 1 5.8-2.3 4.4 4.4 0 0 1 2.3 5.8 4.3 4.3 0 0 1-4 2.7 3.9 3.9 0 0 1-1.8-.4zm60.8-4.7a4.4 4.4 0 0 1 1.8-5.9 4.4 4.4 0 0 1 6 1.8 4.4 4.4 0 0 1-1.8 5.9 4.1 4.1 0 0 1-2.1.5 4.3 4.3 0 0 1-3.9-2.3zm-72.9-1.9a4.2 4.2 0 0 1-1.2-6 4.4 4.4 0 0 1 6.1-1.3 4.5 4.5 0 0 1 1.2 6.1 4.4 4.4 0 0 1-3.7 2 4.3 4.3 0 0 1-2.4-.8zm84.2-4.6a4.4 4.4 0 0 1 .7-6.2 4.4 4.4 0 0 1 6.2.8 4.3 4.3 0 0 1-.7 6.1 4.1 4.1 0 0 1-2.7 1 4.6 4.6 0 0 1-3.5-1.7zm-95-4a4.4 4.4 0 0 1-.1-6.2 4.4 4.4 0 0 1 6.2-.1 4.3 4.3 0 0 1 .1 6.2 4.2 4.2 0 0 1-3.1 1.3 4.7 4.7 0 0 1-3.1-1.2zm105-4.4a4.4 4.4 0 0 1-.4-6.2 4.4 4.4 0 0 1 6.2-.4 4.4 4.4 0 0 1 .4 6.2 4.4 4.4 0 0 1-3.3 1.5 4.6 4.6 0 0 1-2.9-1.1zm-114-6a4.3 4.3 0 0 1 .9-6.1 4.5 4.5 0 0 1 6.2 1 4.4 4.4 0 0 1-1 6.1 4.2 4.2 0 0 1-2.6.8 4.2 4.2 0 0 1-3.5-1.8zm122.3-4a4.5 4.5 0 0 1-1.5-6.1 4.5 4.5 0 0 1 6-1.5 4.4 4.4 0 0 1 1.5 6.1 4.2 4.2 0 0 1-3.7 2.1 4.6 4.6 0 0 1-2.3-.6zM7.3 120.9a4.5 4.5 0 0 1 2-5.9 4.4 4.4 0 0 1 5.9 2.1 4.3 4.3 0 0 1-2 5.8 4.9 4.9 0 0 1-1.9.5 4.5 4.5 0 0 1-4-2.5zm135.8-3.6a4.4 4.4 0 0 1-2.6-5.6 4.4 4.4 0 0 1 5.7-2.6 4.4 4.4 0 0 1 2.6 5.7 4.6 4.6 0 0 1-4.2 2.8 4 4 0 0 1-1.5-.3zM2.4 107.9a4.5 4.5 0 0 1 3.1-5.4 4.4 4.4 0 0 1 5.4 3.1 4.3 4.3 0 0 1-3 5.4l-1.2.2a4.6 4.6 0 0 1-4.3-3.3zm144.9-2.9a4.4 4.4 0 0 1-3.5-5.1 4.4 4.4 0 0 1 5.1-3.6 4.5 4.5 0 0 1 3.6 5.1 4.5 4.5 0 0 1-4.4 3.7h-.8zM0 94.4a4.4 4.4 0 0 1 4-4.8 4.5 4.5 0 0 1 4.8 4 4.4 4.4 0 0 1-4 4.7h-.4A4.4 4.4 0 0 1 0 94.4zm149.3-2.3a4.4 4.4 0 0 1-4.4-4.4 4.4 4.4 0 0 1 4.4-4.4 4.4 4.4 0 0 1 4.4 4.4v.2a4.4 4.4 0 0 1-4.4 4.4zM4 85.3a4.4 4.4 0 0 1-4-4.7 4.4 4.4 0 0 1 4.8-4 4.4 4.4 0 0 1 4 4.7 4.5 4.5 0 0 1-4.4 4.1H4zm139.8-9.9a4.6 4.6 0 0 1 3.6-5.2 4.4 4.4 0 0 1 5.1 3.6 4.4 4.4 0 0 1-3.6 5.1h-.7a4.5 4.5 0 0 1-4.4-3.5zm-138.2-3A4.4 4.4 0 0 1 2.5 67a4.4 4.4 0 0 1 5.4-3.1 4.5 4.5 0 0 1 3.1 5.4 4.5 4.5 0 0 1-4.3 3.3zm135-8.8a4.4 4.4 0 0 1 2.6-5.7 4.4 4.4 0 0 1 5.6 2.6 4.4 4.4 0 0 1-2.5 5.7 4.7 4.7 0 0 1-1.6.2 4.3 4.3 0 0 1-4.1-2.8zM9.4 59.9a4.3 4.3 0 0 1-2-5.8 4.3 4.3 0 0 1 5.8-2.1 4.5 4.5 0 0 1 2.1 5.9 4.6 4.6 0 0 1-4 2.5 4.5 4.5 0 0 1-1.9-.5zm125.9-7.3a4.4 4.4 0 0 1 1.5-6.1 4.4 4.4 0 0 1 6 1.6 4.3 4.3 0 0 1-1.5 6 4.6 4.6 0 0 1-2.2.6 4.5 4.5 0 0 1-3.8-2.1zM15.4 48.4a4.5 4.5 0 0 1-.9-6.2 4.3 4.3 0 0 1 6.1-.9 4.3 4.3 0 0 1 1 6.1 4.4 4.4 0 0 1-3.6 1.8 5 5 0 0 1-2.6-.8zm112.7-5.7a4.4 4.4 0 0 1 .4-6.2 4.4 4.4 0 0 1 6.2.4 4.4 4.4 0 0 1-.4 6.2 4.6 4.6 0 0 1-2.9 1.1 4.4 4.4 0 0 1-3.3-1.5zM23.4 38.1a4.5 4.5 0 0 1 .1-6.3 4.5 4.5 0 0 1 6.3.2 4.4 4.4 0 0 1-.2 6.2 4.2 4.2 0 0 1-3 1.2 4.4 4.4 0 0 1-3.2-1.3zm95.9-3.9a4.3 4.3 0 0 1-.7-6.2 4.2 4.2 0 0 1 6.1-.6 4.2 4.2 0 0 1 .7 6.1 4.2 4.2 0 0 1-3.4 1.7 3.9 3.9 0 0 1-2.7-1zm-86.2-4.9a4.5 4.5 0 0 1 1.2-6.1 4.5 4.5 0 0 1 6.1 1.3 4.4 4.4 0 0 1-1.2 6.1 4.4 4.4 0 0 1-2.4.7 4.3 4.3 0 0 1-3.7-2zm76-1.8a4.4 4.4 0 0 1-1.8-6 4.4 4.4 0 0 1 5.9-1.8 4.4 4.4 0 0 1 1.8 6 4.3 4.3 0 0 1-3.9 2.3 4.6 4.6 0 0 1-2-.5zm-64.9-5a4.4 4.4 0 0 1 2.3-5.8 4.4 4.4 0 0 1 5.8 2.3 4.5 4.5 0 0 1-2.3 5.8l-1.8.3a4.4 4.4 0 0 1-4-2.6zm53.6.2a4.5 4.5 0 0 1-2.8-5.6 4.5 4.5 0 0 1 5.6-2.8 4.5 4.5 0 0 1 2.8 5.6 4.5 4.5 0 0 1-4.2 3zm-41.5-5a4.5 4.5 0 0 1 3.3-5.3 4.5 4.5 0 0 1 5.3 3.4 4.3 4.3 0 0 1-3.3 5.2h-1a4.5 4.5 0 0 1-4.3-3.3zm29.6 2.2a4.4 4.4 0 0 1-3.8-4.9 4.5 4.5 0 0 1 5-3.8 4.5 4.5 0 0 1 3.8 5 4.4 4.4 0 0 1-4.4 3.8h-.6zm-16.8-4.7a4.4 4.4 0 0 1 4.2-4.6 4.4 4.4 0 0 1 4.6 4.2 4.4 4.4 0 0 1-4.2 4.6h-.2a4.4 4.4 0 0 1-4.4-4.2z"/><path fill="#464646" d="M187.3 3.9l53.3 53.4a13.3 13.3 0 0 1 0 19L83 233.8a13.2 13.2 0 0 1-18.9 0l-53.4-53.3a13.5 13.5 0 0 1 0-19L168.3 3.9a13.5 13.5 0 0 1 19 0zm-67.9 48.9l72.4 72.3 5.4-5.4-72.3-72.4zm-64.5 64.5l72.3 72.4 5.5-5.5-72.4-72.3zm70.8 30.4a8.8 8.8 0 1 0 12.4 0 8.6 8.6 0 0 0-12.4 0zm-20.3-20.3a8.8 8.8 0 1 0 12.5 0 8.9 8.9 0 0 0-12.5 0zm-20.2-20.2a8.8 8.8 0 1 0 12.5 0 8.9 8.9 0 0 0-12.5 0zm66.9 14a8.8 8.8 0 1 0 12.5 0 8.9 8.9 0 0 0-12.5 0zM131.9 101a8.8 8.8 0 0 0 0 12.4 8.8 8.8 0 1 0 12.4-12.4 8.8 8.8 0 0 0-12.4 0zm-20.2-20.2a8.8 8.8 0 1 0 12.4 0 8.6 8.6 0 0 0-12.4 0z"/><path fill="#fff" d="M119.4 52.8l72.4 72.3 5.4-5.4-72.3-72.4zm-64.5 64.5l72.3 72.4 5.5-5.5-72.4-72.3zm70.8 30.4a8.8 8.8 0 1 0 12.4 0 8.6 8.6 0 0 0-12.4 0zm-20.3-20.3a8.8 8.8 0 1 0 12.5 0 8.9 8.9 0 0 0-12.5 0zm-20.2-20.2a8.8 8.8 0 1 0 12.5 0 8.9 8.9 0 0 0-12.5 0zm66.9 14a8.8 8.8 0 1 0 12.5 0 8.9 8.9 0 0 0-12.5 0zM131.9 101a8.8 8.8 0 0 0 0 12.4 8.8 8.8 0 1 0 12.4-12.4 8.8 8.8 0 0 0-12.4 0zm-20.2-20.2a8.8 8.8 0 1 0 12.4 0 8.6 8.6 0 0 0-12.4 0z"/></svg>