<svg xmlns="http://www.w3.org/2000/svg" width="3.3in" height="3.3in" viewBox="0 0 237.8 237.8"><path fill="#464646" d="M180.5 3.9l53.3 53.4a13.3 13.3 0 0 1 0 19L76.3 233.8a13.3 13.3 0 0 1-19 0L3.9 180.5a13.5 13.5 0 0 1 0-19L161.5 3.9a13.5 13.5 0 0 1 19 0zm-67.8 48.9l72.3 72.3 5.4-5.4-72.3-72.4zm-64.6 64.5l72.3 72.4 5.5-5.5-72.3-72.3zm70.8 30.4a8.8 8.8 0 0 0 0 12.4 8.8 8.8 0 1 0 0-12.4zm-20.2-20.3a8.8 8.8 0 0 0 12.4 12.5 8.9 8.9 0 0 0 0-12.5 8.8 8.8 0 0 0-12.4 0zm-20.3-20.2a8.8 8.8 0 1 0 12.5 0 8.9 8.9 0 0 0-12.5 0zm66.9 14a8.8 8.8 0 1 0 12.5 0 8.9 8.9 0 0 0-12.5 0zM125.1 101a8.8 8.8 0 1 0 12.5 0 8.9 8.9 0 0 0-12.5 0zm-20.2-20.2a8.8 8.8 0 0 0 0 12.4 8.8 8.8 0 1 0 0-12.4z"/><path fill="#fff" d="M112.7 52.8l72.3 72.3 5.4-5.4-72.3-72.4zm-64.6 64.5l72.3 72.4 5.5-5.5-72.3-72.3zm70.8 30.4a8.8 8.8 0 0 0 0 12.4 8.8 8.8 0 1 0 0-12.4zm-20.2-20.3a8.8 8.8 0 0 0 12.4 12.5 8.9 8.9 0 0 0 0-12.5 8.8 8.8 0 0 0-12.4 0zm-20.3-20.2a8.8 8.8 0 1 0 12.5 0 8.9 8.9 0 0 0-12.5 0zm66.9 14a8.8 8.8 0 1 0 12.5 0 8.9 8.9 0 0 0-12.5 0zM125.1 101a8.8 8.8 0 1 0 12.5 0 8.9 8.9 0 0 0-12.5 0zm-20.2-20.2a8.8 8.8 0 0 0 0 12.4 8.8 8.8 0 1 0 0-12.4z"/></svg>