<svg xmlns="http://www.w3.org/2000/svg" id="Layer_1" viewBox="0 0 500 500" width="500" height="500"><defs><style>.cls-1{fill:#f6f6f6}</style></defs><path d="M79.19 331.18c38.8 33.58 97 49.25 135.06 49.25 49.25 0 72.38-17.91 72.38-38.06 0-17.91-10.45-32.09-76.86-32.09-21.64 0-64.92.75-72.38 1.49v-127.6c9.7.75 54.47.75 72.38.75 47.76 0 68.65-11.94 68.65-29.85 0-23.13-30.59-35.82-73.87-35.82-42.53 0-89.54 17.91-123.87 46.26L12 74.48C56.06 26 124-7.6 221-7.6c137.3 0 207.44 56 207.44 138 0 53-46.26 100-109.69 110.44 55.22 6 117.9 47.76 117.9 116.41 0 88.8-87.31 149.24-216.4 149.24-98.5 0-173.12-32.83-214.91-77.6z" class="cls-1"/></svg>