<svg xmlns="http://www.w3.org/2000/svg" viewBox="0 0 30 30" width="30" height="30"><path d="M29.6 4.1l-2.9-.3c-.2-.1-.3-.2-.4-.4L26 .5c-.1-.4-.7-.5-1-.2l-4 3.8c-.2.2-.2.4-.1.6l.4 2.9-.4.4c-2.2-2-5.1-3.2-8.3-3.2C5.6 4.9 0 10.5 0 17.4S5.6 30 12.6 30c6.9 0 12.6-5.6 12.6-12.6 0-2.6-.8-5.1-2.2-7.1L20.2 13c.7 1.3 1.2 2.8 1.2 4.4 0 4.9-3.9 8.8-8.8 8.8s-8.8-3.9-8.8-8.8 3.9-8.8 8.8-8.8c2.2 0 4.1.8 5.7 2.1l-1.4 1.4c-1.2-.9-2.6-1.5-4.3-1.5-3.7 0-6.8 3-6.8 6.8s3 6.8 6.8 6.8c3.7 0 6.8-3 6.8-6.8 0-1-.2-2-.7-2.9l-2.3 2.3v.6c0 2.1-1.7 3.9-3.8 3.9-2.1 0-3.8-1.7-3.8-3.9 0-2.1 1.7-3.9 3.8-3.9.8 0 1.5.2 2.1.7l-1.3 1.3c-.2-.1-.5-.2-.8-.2-1.1 0-2 .9-2 2s.9 2 2 2 2-.9 2-2c0-.3-.1-.5-.2-.8l1.4-1.4 2.1-2.1 1.4-1.4L22 9.1l.4-.4.2-.2.2.2 2.5.4c.2.1.4 0 .6-.1l3.9-4c.3-.3.2-.8-.2-.9z"/></svg>