<svg xmlns="http://www.w3.org/2000/svg" id="Layer_1" viewBox="0 0 272 55" width="272" height="55"><style>.st0{fill:#fff}.st1{fill:#ccc}.st2{fill:#d4e7b7;stroke:#d94f2c;stroke-width:2;stroke-miterlimit:10}.st3{fill:#00673e}.st4{fill:#666}.st5{fill:#d94f2c}</style><path d="M.5.5h271v54H.5z" class="st0"/><path d="M271 1v53H1V1h270m1-1H0v55h272V0z" class="st1"/><path d="M7.5 45.8V9.5c0-1.1.9-2 2-2H64c1.1 0 2 .9 2 2v36.4c0 1.1-.9 2-2 2H9.6c-1.1-.1-2.1-1-2.1-2.1z" class="st2"/><path d="M23.1 42l6.3-8.5h-6.3v-2.4h10v2.3l-6.3 8.5h6.4v2.5H23.1V42zm12.1-10.9H38v13.3h-2.8V31.1zm5.2 0h6.2c2.4 0 4.3 1.9 4.3 4.3s-1.9 4.3-4.3 4.3h-3.4v4.8h-2.8V31.1zm5.8 2.4h-3v3.7h3c1 0 1.8-.8 1.8-1.8.1-1.1-.7-1.9-1.8-1.9.1 0 .1 0 0 0zm-9.3-8.6h4.5v2.4h-4.5zm-4.7-2.4h4.5v2.4h-4.5zm4.7-2.4h4.5v2.4h-4.5zm-4.7-2.4h4.5v2.4h-4.5zm4.7-2.3h4.5v2.4h-4.5zM32.2 13h4.5v2.4h-4.5z" class="st3"/><path d="M87 25.1h13.6v3.5h-9.5v4.2h9.3v3.5h-9.3v4.5h9.5v3.5H87V25.1zm22.1 14.5l-3.2 4.7h-4l4.9-7.1-4.6-6.7h4.1l2.9 4.3 2.8-4.3h4.1l-4.7 6.7 5 7.1h-4.1l-3.2-4.7zm14.7-9.6c4.1 0 6.9 3.1 6.9 7.6v.8h-10.3c.2 1.8 1.6 3.2 4 3.2 1.3 0 2.8-.5 3.7-1.4l1.6 2.4c-1.4 1.3-3.6 1.9-5.7 1.9-4.2 0-7.4-2.8-7.4-7.3 0-3.9 3-7.2 7.2-7.2zm-3.4 6h6.8c-.1-1.3-1-3.1-3.4-3.1-2.3 0-3.3 1.7-3.4 3.1zm13-5.6h3.6v1.9c1-1.2 2.7-2.2 4.4-2.2v3.6c-.3-.1-.6-.1-1-.1-1.2 0-2.8.7-3.4 1.6v9.2h-3.6v-14zm16.8-.4c2.8 0 4.6 1.2 5.5 2.5l-2.4 2.2c-.7-1-1.7-1.5-2.9-1.5-2.2 0-3.8 1.6-3.8 4s1.6 4 3.8 4c1.3 0 2.3-.6 2.9-1.5l2.4 2.2c-.9 1.3-2.6 2.5-5.5 2.5-4.3 0-7.4-3-7.4-7.3 0-4 3.1-7.1 7.4-7.1zm7.5-3.6c0-1.2 1-2.2 2.2-2.2s2.2 1 2.2 2.2-1 2.2-2.2 2.2-2.2-1-2.2-2.2zm.3 4h3.6v13.9H158V30.4zm7.7 9.5c1 .9 3.1 1.9 4.8 1.9 1.6 0 2.3-.5 2.3-1.4 0-1-1.2-1.3-2.8-1.6-2.4-.5-5.5-1-5.5-4.3 0-2.3 2-4.4 5.7-4.4 2.4 0 4.2.8 5.6 1.9l-1.5 2.5c-.8-.9-2.4-1.6-4.1-1.6-1.3 0-2.2.5-2.2 1.3 0 .9 1.1 1.2 2.6 1.5 2.4.5 5.6 1.1 5.6 4.5 0 2.5-2.2 4.5-6 4.5-2.4 0-4.7-.8-6.2-2.2l1.7-2.6zm19.6-9.9c4.1 0 6.9 3.1 6.9 7.6v.8h-10.3c.2 1.8 1.6 3.2 4 3.2 1.3 0 2.8-.5 3.7-1.4l1.6 2.4c-1.4 1.3-3.6 1.9-5.7 1.9-4.2 0-7.4-2.8-7.4-7.3 0-3.9 3-7.2 7.2-7.2zm-3.4 6h6.8c-.1-1.3-1-3.1-3.4-3.1-2.3 0-3.2 1.7-3.4 3.1zm20.4-10.9h13.6v3.5h-9.5v4.2h9.3v3.5h-9.3v8h-4.1V25.1zm16 1.3c0-1.2 1-2.2 2.2-2.2s2.2 1 2.2 2.2-1 2.2-2.2 2.2-2.2-1-2.2-2.2zm.3 4h3.6v13.9h-3.6V30.4zm7.3-5.3h3.6v19.2h-3.6V25.1zm13.6 4.9c4.1 0 6.9 3.1 6.9 7.6v.8h-10.3c.2 1.8 1.6 3.2 4 3.2 1.3 0 2.8-.5 3.7-1.4l1.6 2.4c-1.4 1.3-3.6 1.9-5.7 1.9-4.2 0-7.4-2.8-7.4-7.3 0-3.9 2.9-7.2 7.2-7.2zm-3.4 6h6.8c-.1-1.3-1-3.1-3.4-3.1-2.3 0-3.3 1.7-3.4 3.1zm13.3 3.9c1 .9 3.1 1.9 4.8 1.9 1.6 0 2.3-.5 2.3-1.4 0-1-1.2-1.3-2.8-1.6-2.4-.5-5.5-1-5.5-4.3 0-2.3 2-4.4 5.7-4.4 2.4 0 4.2.8 5.6 1.9l-1.5 2.5c-.8-.9-2.4-1.6-4.1-1.6-1.3 0-2.2.5-2.2 1.3 0 .9 1.1 1.2 2.6 1.5 2.4.5 5.6 1.1 5.6 4.5 0 2.5-2.2 4.5-6 4.5-2.4 0-4.7-.8-6.2-2.2l1.7-2.6z" class="st4"/><path d="M87 25.1h13.6v3.5h-9.5v4.2h9.3v3.5h-9.3v4.5h9.5v3.5H87V25.1zm22.1 14.5l-3.2 4.7h-4l4.9-7.1-4.6-6.7h4.1l2.9 4.3 2.8-4.3h4.1l-4.7 6.7 5 7.1h-4.1l-3.2-4.7zm14.7-9.6c4.1 0 6.9 3.1 6.9 7.6v.8h-10.3c.2 1.8 1.6 3.2 4 3.2 1.3 0 2.8-.5 3.7-1.4l1.6 2.4c-1.4 1.3-3.6 1.9-5.7 1.9-4.2 0-7.4-2.8-7.4-7.3 0-3.9 3-7.2 7.2-7.2zm-3.4 6h6.8c-.1-1.3-1-3.1-3.4-3.1-2.3 0-3.3 1.7-3.4 3.1zm13-5.6h3.6v1.9c1-1.2 2.7-2.2 4.4-2.2v3.6c-.3-.1-.6-.1-1-.1-1.2 0-2.8.7-3.4 1.6v9.2h-3.6v-14zm16.8-.4c2.8 0 4.6 1.2 5.5 2.5l-2.4 2.2c-.7-1-1.7-1.5-2.9-1.5-2.2 0-3.8 1.6-3.8 4s1.6 4 3.8 4c1.3 0 2.3-.6 2.9-1.5l2.4 2.2c-.9 1.3-2.6 2.5-5.5 2.5-4.3 0-7.4-3-7.4-7.3 0-4 3.1-7.1 7.4-7.1zm7.5-3.6c0-1.2 1-2.2 2.2-2.2s2.2 1 2.2 2.2-1 2.2-2.2 2.2-2.2-1-2.2-2.2zm.3 4h3.6v13.9H158V30.4zm7.7 9.5c1 .9 3.1 1.9 4.8 1.9 1.6 0 2.3-.5 2.3-1.4 0-1-1.2-1.3-2.8-1.6-2.4-.5-5.5-1-5.5-4.3 0-2.3 2-4.4 5.7-4.4 2.4 0 4.2.8 5.6 1.9l-1.5 2.5c-.8-.9-2.4-1.6-4.1-1.6-1.3 0-2.2.5-2.2 1.3 0 .9 1.1 1.2 2.6 1.5 2.4.5 5.6 1.1 5.6 4.5 0 2.5-2.2 4.5-6 4.5-2.4 0-4.7-.8-6.2-2.2l1.7-2.6zm19.6-9.9c4.1 0 6.9 3.1 6.9 7.6v.8h-10.3c.2 1.8 1.6 3.2 4 3.2 1.3 0 2.8-.5 3.7-1.4l1.6 2.4c-1.4 1.3-3.6 1.9-5.7 1.9-4.2 0-7.4-2.8-7.4-7.3 0-3.9 3-7.2 7.2-7.2zm-3.4 6h6.8c-.1-1.3-1-3.1-3.4-3.1-2.3 0-3.2 1.7-3.4 3.1zm20.4-10.9h13.6v3.5h-9.5v4.2h9.3v3.5h-9.3v8h-4.1V25.1zm16 1.3c0-1.2 1-2.2 2.2-2.2s2.2 1 2.2 2.2-1 2.2-2.2 2.2-2.2-1-2.2-2.2zm.3 4h3.6v13.9h-3.6V30.4zm7.3-5.3h3.6v19.2h-3.6V25.1zm13.6 4.9c4.1 0 6.9 3.1 6.9 7.6v.8h-10.3c.2 1.8 1.6 3.2 4 3.2 1.3 0 2.8-.5 3.7-1.4l1.6 2.4c-1.4 1.3-3.6 1.9-5.7 1.9-4.2 0-7.4-2.8-7.4-7.3 0-3.9 2.9-7.2 7.2-7.2zm-3.4 6h6.8c-.1-1.3-1-3.1-3.4-3.1-2.3 0-3.3 1.7-3.4 3.1zm13.3 3.9c1 .9 3.1 1.9 4.8 1.9 1.6 0 2.3-.5 2.3-1.4 0-1-1.2-1.3-2.8-1.6-2.4-.5-5.5-1-5.5-4.3 0-2.3 2-4.4 5.7-4.4 2.4 0 4.2.8 5.6 1.9l-1.5 2.5c-.8-.9-2.4-1.6-4.1-1.6-1.3 0-2.2.5-2.2 1.3 0 .9 1.1 1.2 2.6 1.5 2.4.5 5.6 1.1 5.6 4.5 0 2.5-2.2 4.5-6 4.5-2.4 0-4.7-.8-6.2-2.2l1.7-2.6zM87.2 8h4.5c3.8 0 6.3 2.5 6.3 6 0 3.6-2.6 6.1-6.4 6.1h-4.5L87.2 8zm4.5 10.2c2.6 0 4.2-1.9 4.2-4.2s-1.5-4.2-4.2-4.2h-2.4v8.4h2.4zm24.6-10.4c3.6 0 6.2 2.7 6.2 6.3s-2.6 6.3-6.2 6.3-6.2-2.7-6.2-6.3c0-3.7 2.6-6.3 6.2-6.3zm0 1.8c-2.5 0-4 1.9-4 4.4s1.6 4.4 4 4.4 4-1.9 4-4.4-1.6-4.4-4-4.4zm25.4 1.5l-2.3 9H137L133.6 8h2.4l2.4 9.4 2.5-9.4h1.7l2.5 9.4 2.3-9.4h2.4l-3.5 12.1H144l-2.3-9zm22.2.1V20h-2.1V8h2.2l6.2 8.6V8h2.1v12.1h-2.1l-6.3-8.9zM185.4 8h2.1v10.3h5.4v1.9h-7.5V8zm25.1-.2c3.6 0 6.2 2.7 6.2 6.3s-2.6 6.3-6.2 6.3-6.2-2.7-6.2-6.3c0-3.7 2.5-6.3 6.2-6.3zm0 1.8c-2.5 0-4 1.9-4 4.4s1.6 4.4 4 4.4 4-1.9 4-4.4-1.6-4.4-4-4.4zm25.9 8.2h-5.8l-.9 2.3h-2.3L232.1 8h2.7l4.8 12.1h-2.3l-.9-2.3zm-5.2-1.9h4.6l-2.3-6.1-2.3 6.1zM251.5 8h4.5c3.8 0 6.4 2.5 6.4 6.1s-2.6 6.1-6.4 6.1h-4.5V8zm4.5 10.2c2.6 0 4.2-1.9 4.2-4.2s-1.5-4.2-4.2-4.2h-2.4v8.4h2.4z" class="st4"/><path d="M87.2 8h4.5c3.8 0 6.3 2.5 6.3 6 0 3.6-2.6 6.1-6.4 6.1h-4.5L87.2 8zm4.5 10.2c2.6 0 4.2-1.9 4.2-4.2s-1.5-4.2-4.2-4.2h-2.4v8.4h2.4zm24.6-10.4c3.6 0 6.2 2.7 6.2 6.3s-2.6 6.3-6.2 6.3-6.2-2.7-6.2-6.3c0-3.7 2.6-6.3 6.2-6.3zm0 1.8c-2.5 0-4 1.9-4 4.4s1.6 4.4 4 4.4 4-1.9 4-4.4-1.6-4.4-4-4.4zm25.4 1.5l-2.3 9H137L133.6 8h2.4l2.4 9.4 2.5-9.4h1.7l2.5 9.4 2.3-9.4h2.4l-3.5 12.1H144l-2.3-9zm22.2.1V20h-2.1V8h2.2l6.2 8.6V8h2.1v12.1h-2.1l-6.3-8.9zM185.4 8h2.1v10.3h5.4v1.9h-7.5V8zm25.1-.2c3.6 0 6.2 2.7 6.2 6.3s-2.6 6.3-6.2 6.3-6.2-2.7-6.2-6.3c0-3.7 2.5-6.3 6.2-6.3zm0 1.8c-2.5 0-4 1.9-4 4.4s1.6 4.4 4 4.4 4-1.9 4-4.4-1.6-4.4-4-4.4zm25.9 8.2h-5.8l-.9 2.3h-2.3L232.1 8h2.7l4.8 12.1h-2.3l-.9-2.3zm-5.2-1.9h4.6l-2.3-6.1-2.3 6.1zM251.5 8h4.5c3.8 0 6.4 2.5 6.4 6.1s-2.6 6.1-6.4 6.1h-4.5V8zm4.5 10.2c2.6 0 4.2-1.9 4.2-4.2s-1.5-4.2-4.2-4.2h-2.4v8.4h2.4z" class="st4"/><path d="M66 9.5c0-1.1-.9-2-2-2H9.6c-1.1 0-2 .9-2 2v.3H66v-.3z" class="st5"/></svg>