<svg xmlns="http://www.w3.org/2000/svg" id="Layer_1" width="160.1" height="134" viewBox="0 0 160.1 134"><style>.st0{fill:#00673e}.st1{fill:#94c947}</style><path d="M131 47.5C127.9 20.8 105.1 0 77.6 0c-25 0-46.8 17.7-52.4 41.7C9.9 48.5 0 63.8 0 80.6c0 23.5 19.1 42.6 42.6 42.6h12.9l-14-14c-15.3-.7-27.6-13.2-27.6-28.6 0-12.3 7.9-23.3 19.6-27.1l4.1-1.3.6-4.2C41.1 28.7 58 14.1 77.5 14.1c21.8 0 39.7 17.7 39.8 39.5l.1 6.4 6.3.5c12.5 1.1 22.3 11.8 22.3 24.3 0 13.5-11 24.4-24.5 24.5h-3.1l-14 14h17.1c21.2 0 38.4-17.2 38.4-38.4.2-17.9-12.1-33.2-28.9-37.4z" class="st0"/><path d="M99.5 93.7V62.5c0-.7-.6-1.3-1.3-1.3H61.9c-.7 0-1.3.6-1.3 1.3v31.3c0 .7-.6 1.3-1.3 1.3H43.6c-.7 0-1.3.6-1.3 1.3 0 .3.1.7.4.9l17.6 17.5 18.9 18.8c.5.5 1.3.5 1.8 0l18.9-18.8 17.5-17.5c.5-.5.5-1.3 0-1.8-.2-.2-.6-.4-.9-.4h-15.6c-.8-.1-1.4-.6-1.4-1.4z" class="st1"/></svg>