<?xml version="1.0" encoding="utf-8"?>
<!-- Generator: Adobe Illustrator 23.0.3, SVG Export Plug-In . SVG Version: 6.00 Build 0)  -->
<svg version="1.1" xmlns="http://www.w3.org/2000/svg" xmlns:xlink="http://www.w3.org/1999/xlink" x="0px" y="0px"
	 viewBox="0 0 576 561.6" style="enable-background:new 0 0 576 561.6;" xml:space="preserve">
<style type="text/css">
	.st0{fill:#FFFFFF;}
</style>
<g id="Adobe_Creative_Cloud_Turd">
	<path class="st0" d="M223.7,422l-16.9-16.3H188c-23.6,0-45.8-9.2-62.5-25.9c-16.7-16.7-25.9-38.8-25.9-62.3s9.2-45.5,25.9-62.1
		c16.1-16,37.3-25.1,60-25.8l2.6-0.1c5.6,0,10.9,0.5,16.4,1.5c15.1,2.8,29.5,9.7,41.4,20l0.1,0.1c1.2,1,2.5,2.2,3.9,3.6l9.1,9
		l43.8,43.8c4.5,4.4,10.5,6.8,16.7,6.8c6.1,0,12.2-2.5,16.7-6.9c9.2-9.2,9.2-24.2,0-33.5l-52.3-52.3c-1.4-1.4-2.8-2.7-4.2-4
		c-4.5-4.3-9.5-8.3-14.9-12c-11-7.7-23.1-13.6-36-17.7c-7.5-2.3-14.3-3.8-20.7-4.7c-6.3-1-13.1-1.5-20.1-1.5h-0.6
		c-36.1,0.2-69.9,14.3-95.4,39.8c-52.7,52.7-52.7,138.6,0,191.4c25.6,25.5,59.6,39.7,95.9,40.1h73.7l-13.7-10
		C240.2,437.6,232.3,430.7,223.7,422L223.7,422z"/>
	<path class="st0" d="M475.2,171.2c-31.1-31.1-72.6-48.3-116.7-48.3c-38.8,0-76.4,13.6-105.9,38.4l-6.8,5.7l8.1,3.6
		c11.5,5.1,22.4,11.6,32.3,19.4l3.2,2.5l3.3-2.2c19.4-13.1,42.1-20,65.7-20c31.4,0,61,12.2,83.3,34.5c22.2,22.2,34.5,51.7,34.5,83.3
		c0,31.5-12.2,61.1-34.5,83.3c-10.6,10.6-23.2,19.1-37.2,25.1c-5.9,2.4-11.6,4.4-17.2,5.8c-9.3,2.4-19,3.6-29,3.6
		c-21.9,0-43.2-6-61.6-17.4c-7.8-4.8-15.1-10.6-21.7-17.2l-74.7-74.7c-4.5-4.4-10.5-6.8-16.7-6.8c-6.3,0-12.4,2.5-16.7,6.9
		c-4.5,4.5-7,10.4-7,16.7c0,6.3,2.5,12.3,7,16.7l74.6,74.6c3.7,3.8,7.7,7.4,11.9,10.9c29.8,24.6,66.1,37.6,105,37.6h0.1l2.9-0.1
		c11.3-0.2,22.4-1.5,33.1-3.9c6.9-1.5,14.1-3.6,21.2-6.2c22.5-8.3,42.5-21.1,59.6-38.2C539.6,340.3,539.6,235.6,475.2,171.2
		L475.2,171.2z"/>
</g>
<g id="mnemonic">
	<path class="st0" d="M474,0H102C45.6,0,0,45.6,0,102v357.6c0,56.4,45.6,102,102,102h372c56.4,0,102-45.6,102-102V102
		C576,45.6,530.4,0,474,0z M551.8,450.2c0.2,48.2-38.9,87.4-86.9,87.4H111.1c-48,0-87.1-39.1-87.1-87.4V111.4
		C24,63.1,63.1,24,111.1,24h353.5c48.2,0,87.1,39.1,87.1,87.1V450.2L551.8,450.2z"/>
</g>
</svg>
