<svg xmlns="http://www.w3.org/2000/svg" id="Layer_1" viewBox="0 0 576 576" width="576" height="576"><style>.st0{fill:#fff}</style><path d="M0 0v576h576V0H0zm540 540H36V36h504v504z" class="st0"/><path d="M479.6 362.4c3.7-7.9 2.6-15.4-3.1-21.2-13.4-13.5-54-17.8-108.8-11.6-11.4-6.5-22.6-13.9-32.8-22-13.8-11.3-38.7-37.9-56.9-92.4 4.7-26.8 5.1-50 5.5-73.9.1-3.8.1-7.6.2-11.4h-.3l1.2-6.4c2.2-11.5 1.3-19.5-2.8-24.4-4.1-4.9-9.9-4.8-12.1-4.8h-.3l-7.8-.1c-6.6 0-11.9 5.1-14.2 13.6-6.4 24-3.3 65.1 8 104.7.5 1.6.9 3.2 1.4 4.8-8.1 27.9-20.4 61.6-40.1 101.3-27.6 55.7-50.7 94.8-70.4 119.5-13.3 16.6-24.7 26.2-34.1 28.9 1.4-5.4 5.9-14.5 15.3-26.7 11.6-15 26.8-29.9 42.9-41.9l-4.8-7.6c-46.7 24.8-67.4 53.7-70.9 70.8-1.1 5.2-.5 9.4 1.7 12l.6.7.9.4 9.5 4.9c3 1.6 6.3 2.3 9.7 2.3 22.2 0 52.3-33 91.1-100 40.4-14.4 95.1-26.1 148.8-31.9 1.1-.1 2.2-.2 3.2-.3 32.9 17.4 69.4 28.1 92.9 28.1 6 0 11.1-.7 15.1-2.1.7-.3 1.4-.5 2-.8l-.6 8.9 6.2-13.2c1.3-1.7 2-3.4 2.3-4.9l1.5-3.3zm-8.6-2.2v.5c-10.3 4-37.4-1.3-67.8-13.7 32.6-.9 56.1 2 65 8.5 3 2.2 2.9 4 2.8 4.7zm-235.2-28.8c16-31 26.6-57.1 33.6-80.2 13.1 29.8 30.4 54.5 50.2 71.6 4.7 4.1 9.8 8 15.2 11.7-40.9 7.2-82.3 18.9-118.8 33.8 6.4-11.5 13-23.8 19.8-36.9zm39-202.5c-.9 4.4-1.7 9.8-2.6 16.1-1.2 8-2.7 17.8-4.9 29.3-5.1-26.7-5.8-50.8-1.4-63.8.5-1.4 1.4-3.1 2.2-4.4 2.9 2.5 6.6 7.4 7.6 17l.6 6-1.5-.2z" class="st0"/></svg>