<svg xmlns="http://www.w3.org/2000/svg" id="mnemonic" viewBox="0 0 240 234" width="240" height="234"><style>.st0{fill:#00261a}.st1{fill:#3cf2a6}.st2{fill:#d4fcef}</style><path d="M0 0h240v234H0z" class="st0"/><path d="M226 14v206H14V14h212m14-14H0v234h240V0z" class="st1"/><path d="M42.2 54.1c0-.8.2-1.2 1.2-1.3 3.8-.2 14.8-.5 26.1-.5 33.7 0 50.5 21.8 50.5 53.7 0 44.4-29.1 57.8-51.5 57.8-8.5 0-20.8-.2-25.3-.3-.7 0-1-.5-1-1.3V54.1zm18.3 93.4c2.8.2 5.1.3 8.3.3 18.6 0 32.4-13.1 32.6-41.4.2-27.6-14.1-38.2-31.9-38.2-3.5 0-6.1.2-9 .3v79zm75.7-49.2c0-1 0-4.5-.5-10.3 0-.7.2-.8.8-1.2 8.5-3.2 19.9-6.6 31.4-6.6 14.1 0 29.9 5.5 29.9 29.8v52.2c0 1-.3 1.3-1.2 1.3h-15.8c-1 0-1.3-.5-1.3-1.3v-50.9c0-9.6-4-15-13.9-15-4.3 0-8.1.8-11.1 1.8v64.2c0 .7-.3 1.2-1 1.2h-16.1c-.8 0-1.2-.3-1.2-1.2v-64z" class="st2"/></svg>