<?xml version="1.0" encoding="utf-8"?>
<!-- Generator: Adobe Illustrator 23.0.1, SVG Export Plug-In . SVG Version: 6.00 Build 0)  -->
<svg version="1.1" id="Layer_1" xmlns="http://www.w3.org/2000/svg" xmlns:xlink="http://www.w3.org/1999/xlink" x="0px" y="0px"
	 viewBox="0 0 24 24" style="enable-background:new 0 0 24 24;" xml:space="preserve">
<style type="text/css">
	.st0{fill-rule:evenodd;clip-rule:evenodd;fill:#94C947;}
</style>
<path class="st0" d="M12,1c7.4,0,12,5.3,12,9.5c0,2.7-2.1,4.6-5,4.6c-0.8,2-3.1,3.4-5.8,2.6c-1.8,1.5-2.4,4.1-2.8,5.3l-3.7-1.2
	c0.3-1,0.5-2.2,0.4-3.6C3.8,18.3,0,15.9,0,11.4C0,6.4,4.5,1,12,1z M11.9,3C5.7,3.1,2.2,7.3,2,11.1c-0.2,3.7,2.8,5.5,6.7,4.8
	c0.4,1.2,0.6,2.9,0.4,4.5l0.1,0l0,0c1-2.6,2.2-4.2,3.7-5c1.8,0.9,4.3,0,4.7-2.4c2.3,0.2,4.6-0.5,4.4-2.8C21.8,7.3,18.2,3,11.9,3z
	 M14.2,10c1,0.1,1.8,1,1.8,2c0,1.1-0.9,2-2,2c-1,0-1.8-0.7-2-1.6c-1.2-0.1-2.4-0.2-3.6-0.3C8.2,13.2,7.2,14,6,14
	c-1.4,0-2.5-1.1-2.5-2.5S4.6,9,6,9c0.6,0,1.1,0.2,1.5,0.5c1.2-0.9,2.4-1.9,3.6-2.8C11.1,6.5,11,6.3,11,6c0-1.1,0.9-2,2-2s2,0.9,2,2
	c0,0.8-0.5,1.5-1.2,1.8C14,8.6,14.1,9.3,14.2,10z M8.2,10.3c0.1,0.2,0.2,0.5,0.3,0.7l3.6,0.3c0.2-0.5,0.6-1,1.1-1.2L12.8,8
	c-0.4,0-0.8-0.2-1.1-0.4C11.8,7.6,8.2,10.3,8.2,10.3z"/>
</svg>
