<svg xmlns="http://www.w3.org/2000/svg" id="Adobe_Creative_Cloud_Turd" viewBox="0 0 576 576" width="576" height="576"><style>.st0{fill:#ed1f24}.st1{fill:#fff}</style><path d="M0 0h576v576H0z" class="st0"/><path d="M223.7 422l-16.9-16.3H188c-23.6 0-45.8-9.2-62.5-25.9-16.7-16.7-25.9-38.8-25.9-62.3s9.2-45.5 25.9-62.1c16.1-16 37.3-25.1 60-25.8l2.6-.1c5.6 0 10.9.5 16.4 1.5 15.1 2.8 29.5 9.7 41.4 20l.1.1c1.2 1 2.5 2.2 3.9 3.6l9.1 9 43.8 43.8c4.5 4.4 10.5 6.8 16.7 6.8 6.1 0 12.2-2.5 16.7-6.9 9.2-9.2 9.2-24.2 0-33.5l-52.3-52.3c-1.4-1.4-2.8-2.7-4.2-4-4.5-4.3-9.5-8.3-14.9-12-11-7.7-23.1-13.6-36-17.7-7.5-2.3-14.3-3.8-20.7-4.7-6.3-1-13.1-1.5-20.1-1.5h-.6c-36.1.2-69.9 14.3-95.4 39.8-52.7 52.7-52.7 138.6 0 191.4 25.6 25.5 59.6 39.7 95.9 40.1h73.7l-13.7-10c-7.7-5.4-15.6-12.3-24.2-21z" class="st1"/><path d="M475.2 171.2c-31.1-31.1-72.6-48.3-116.7-48.3-38.8 0-76.4 13.6-105.9 38.4l-6.8 5.7 8.1 3.6c11.5 5.1 22.4 11.6 32.3 19.4l3.2 2.5 3.3-2.2c19.4-13.1 42.1-20 65.7-20 31.4 0 61 12.2 83.3 34.5 22.2 22.2 34.5 51.7 34.5 83.3 0 31.5-12.2 61.1-34.5 83.3-10.6 10.6-23.2 19.1-37.2 25.1-5.9 2.4-11.6 4.4-17.2 5.8-9.3 2.4-19 3.6-29 3.6-21.9 0-43.2-6-61.6-17.4-7.8-4.8-15.1-10.6-21.7-17.2l-74.7-74.7c-4.5-4.4-10.5-6.8-16.7-6.8-6.3 0-12.4 2.5-16.7 6.9-4.5 4.5-7 10.4-7 16.7 0 6.3 2.5 12.3 7 16.7l74.6 74.6c3.7 3.8 7.7 7.4 11.9 10.9 29.8 24.6 66.1 37.6 105 37.6h.1l2.9-.1c11.3-.2 22.4-1.5 33.1-3.9 6.9-1.5 14.1-3.6 21.2-6.2 22.5-8.3 42.5-21.1 59.6-38.2 64.3-64.5 64.3-169.2-.1-233.6z" class="st1"/></svg>