<svg xmlns="http://www.w3.org/2000/svg" viewBox="0 0 240 235" width="240" height="235"><path fill="#261300" fill-rule="evenodd" d="M42.91 8.879c-27.765 0-34.172 16.527-34.172 44.312l.112 134.858c0 27.796 8.665 37.071 36.42 37.071h148.802c27.755 0 37.08-9.275 37.08-37.06V48.085c0-27.785-10.363-39.206-38.118-39.206H42.91z" clip-rule="evenodd"/><path fill="#ff7c00" fill-rule="evenodd" d="M0 43.05v148.17C0 214.85 18.21 234 41.88 234h155.26c23.67 0 42.86-19.15 42.86-42.78V42.78C240 19.15 220.81 0 197.14 0H41.88C18.21 0 0 19.15 0 42.78v.27zm194.04-32.916c19.115-.03 35.85 15.687 35.85 34.772v142.302c0 19.055-15.475 36.657-34.57 36.657H44.68c-19.094 0-34.57-16.231-34.57-35.286l-.02-141.657c0-19.034 15.465-36.758 34.53-36.788h149.42z" clip-rule="evenodd"/><path fill="#ff7c00" fill-rule="evenodd" d="M135.774 62h-21.51c0 10-15.282 28.723-20.317 32.983L121.622 147H122v-35.242c-3-1.123-5.064-4.063-5.064-7.515 0-4.417 3.55-8 7.968-8s8.236 3.583 8.236 8c0 3.453-2.14 6.392-5.14 7.515V147h.622l27.497-51.885C150.077 91.615 135.774 74 135.774 62z" clip-rule="evenodd"/><path fill="#fee4ca" fill-rule="evenodd" d="M190.514 61.803a2.05 2.05 0 0 0-2.795.8l-62.777 113.09L65.07 67.615c-2.255-3.828-4.423-6.065-8.057-6.07-4.643-.008-8.405 3.8-8.405 8.485 0 2.3.552 3.382 2.327 5.865 1.778 2.482 72.25 105.219 72.25 105.219l.03.042.01.013a2.01 2.01 0 0 0 1.677.89c.72 0 1.42-.38 1.798-1.058l64.609-116.394a2.067 2.067 0 0 0-.795-2.805z" clip-rule="evenodd"/></svg>