<svg xmlns="http://www.w3.org/2000/svg" id="Layer_1" viewBox="0 0 576 576" width="576" height="576"><style>.st0{fill:#ec2824}.st1{fill:#270e0c}.st2{fill-rule:evenodd;clip-rule:evenodd;fill:#fff}</style><path d="M0 0h576v576H0z" class="st0"/><path d="M36 36h504v504H36z" class="st1"/><path d="M167.7 394.8c-41 30.6-69.2 74.1-58.1 80.9l-9.7-4.9c-5.6-6.9 7.2-43.8 67.8-76zm307.8-34.3c21-44.7-151.7-38-277.8 20.6 98.2-37.9 279.9-54.1 277.8-20.6z" class="st2"/><path d="M280.2 122.6c4.7-24.8-7.4-23.9-10.8-23.9l-7.7-.1c-4.2 0-8 3.4-9.9 10.3-12 44.7 9.7 158 70.7 210.4 53.8 46.3 147.4 67.5 151.2 45.1-19.5 9.3-92.6-14.2-141.7-53.3-58.1-47.7-82.9-165.3-70.4-202 1.2-3.7 4.3-7.9 5.6-8.9 5.3 2.5 11.6 9 13 22.4z" class="st2"/><path d="M279.2 129.8c-5.3 26.3-7.7 88.5-58.4 190.8-54.5 109.8-94.4 161-120.9 150.2l9.5 4.9c20.8 10.6 59-24.3 122.4-146.4 48.8-94.2 46.2-142.7 47.4-199.5z" class="st2"/></svg>