<svg xmlns="http://www.w3.org/2000/svg" id="Layer_1" viewBox="0 0 576 633" width="576" height="633"><style>.st0,.st1{fill-rule:evenodd;clip-rule:evenodd;fill:#c8deec}.st1{fill:#64a4e3}</style><path d="M232.6 352.9h108.6c-16.7 65.4-12.6 130.6-.6 195.7H576V78.5H324.1c-46 76.8-87.7 157.8-91.5 274.4z" class="st0"/><path d="M0 78.5v470.1h339.7c-16.7-66.5-17-133-.2-199.5-11.4 8.6-93.7-6.5-105.4 2.1 3.6-103.8 43.2-189.7 88.4-272.8H0z" class="st1"/><path d="M139.7 150.3h30.1v71.1h-30.1zm247.4 0h30.1v71.1h-30.1z"/><path d="M492.3 420.2L476 397.7c-2.8 1.9-19.4 10.1-31.3 14.6-21.9 8.4-55 18.9-105.4 23.7 1.1-27.6 5.2-55.6 12.3-84.4l4.3-17.2H247.8c8.2-109.6 54.9-216 139-316.6L365.5 0c-91.8 109.8-141 226.8-146.3 347.7l-.6 14.5h102c-5.4 25.7-8.4 50.9-9.3 75.8-7.4.3-15 .6-23 .7h-.5c-80.5-.8-127.9-15.4-156.5-26.3-12-4.6-28.6-12.7-31.3-14.6l-16.3 22.5c6.1 4.4 27.1 14 37.7 18.1 30.6 11.7 81.1 27.3 166.3 28.1h.7c8-.1 15.5-.3 22.9-.6 2 57.3 16.5 112.7 43.6 167.1l24.9-12.4c-25.3-51-38.8-102.9-40.6-156.6 55.2-5 91.4-16.5 115.4-25.6 10.6-4.1 31.6-13.8 37.7-18.2z"/></svg>