<svg xmlns="http://www.w3.org/2000/svg" id="Layer_1" viewBox="0 0 1200 1200" width="1200" height="1200"><style>.st0{fill:#94c947}.st1{fill:#00673e}</style><path d="M679.6 302.1H557.1V343h122.5v-40.9zm0 81.6H557.1v40.9h122.5v-40.9zM618.3 706c-65.3 0-114.2-36.7-97.9-101.9l36.7-138.8h122.5l36.7 138.8c16.3 65.3-32.7 101.9-98 101.9zm61.3-77.5c0-53-122.5-53-122.5 0s122.5 53.1 122.5 0zM357.1 138.8c57.2 65.3 106.1 122.5 200 122.5h448.8v530.4h-816V138.8h167.2zm36.8-81.6H108.3v816h979.4V179.7H557.3c-69.5 0-94.1-44.9-163.4-122.5z" class="st0"/><path d="M142.1 920h14.3v81.5h-14.3V920zm28.8 0h12.8v81.5h-12.8V920zm27 0h12.8v81.5h-12.8V920zm66.9 73.7c-4.3 4.8-11.6 9.3-20.9 9.3-12.7 0-18.9-6.6-18.9-18.7v-41.8h12.8v37.1c0 9.2 4.6 12 11.9 12 6.5 0 12.1-3.7 15.1-7.7v-41.4h12.8v59h-12.8v-7.8zm27.7-9.2c4.2 4.3 12.3 8.3 20 8.3s11.6-2.8 11.6-7.2c0-5.1-6.2-7-13.4-8.6-10.1-2.2-22.2-4.9-22.2-18.1 0-9.7 8.3-18 23.2-18 10 0 17.6 3.5 23 8.3l-5.4 9c-3.5-4-10.1-7.1-17.5-7.1-6.7 0-11 2.4-11 6.6 0 4.5 5.9 6.1 12.8 7.7 10.3 2.2 22.8 5.1 22.8 19.1 0 10.4-8.7 18.3-24.6 18.3-10 0-19.2-3.2-25.3-9.2l6-9.1zm57.1 3.3v-34.1h-9.8v-11.2h9.8v-16.1h12.8v16.1h12v11.2h-12v30.9c0 4 2 7 5.6 7 2.4 0 4.8-1 5.7-2.1l3.1 9.7c-2.3 2.2-6.1 3.8-12.1 3.8-9.9 0-15.1-5.4-15.1-15.2zm33.9-45.3h12.8v8.7c4.4-5.6 11.5-10 19.2-10v12.7c-1.1-.2-2.4-.4-4-.4-5.4 0-12.6 3.7-15.1 7.8v40.2h-12.8v-59h-.1zm76 52.6c-4.4 5-11.2 7.8-19.1 7.8-9.7 0-20.5-6.5-20.5-19.5 0-13.6 10.9-19.2 20.5-19.2 7.9 0 14.8 2.6 19.1 7.6V963c0-6.8-5.6-11-13.8-11-6.6 0-12.3 2.4-17.5 7.5l-5.3-8.9c6.8-6.5 15.4-9.5 24.8-9.5 13.1 0 24.6 5.5 24.6 21.4v39.1h-12.8v-6.5zm0-16c-2.9-4-8.4-6.1-14.1-6.1-7.2 0-12.6 4.2-12.6 10.6 0 6.4 5.4 10.5 12.6 10.5 5.6 0 11.1-2.1 14.1-6.1v-8.9zm29.6 8.7v-34.1h-9.8v-11.2h9.8v-16.1h12.8v16.1h12v11.2h-12v30.9c0 4 2 7 5.6 7 2.4 0 4.8-1 5.7-2.1l3.1 9.7c-2.3 2.2-6.1 3.8-12.1 3.8-9.9 0-15.1-5.4-15.1-15.2zm30.3-15.9c0-16.9 11.6-30.9 30.3-30.9 18.9 0 30.4 14.1 30.4 30.9 0 17-11.5 31-30.4 31-18.7.1-30.3-14-30.3-31zm47.4 0c0-10.4-6.1-19.5-17.1-19.5-10.9 0-17 9.2-17 19.5 0 10.5 6.1 19.7 17 19.7 11 0 17.1-9.2 17.1-19.7zm23.8-29.4h12.8v8.7c4.4-5.6 11.5-10 19.2-10v12.7c-1.1-.2-2.4-.4-4-.4-5.4 0-12.6 3.7-15.1 7.8v40.2h-12.8v-59h-.1zm69.3-22.5h35.8c17.1 0 26.6 11.7 26.6 25.5s-9.7 25.5-26.6 25.5h-21.5v30.4h-14.3V920zm33.8 12.6h-19.5v25.9h19.5c8.1 0 13.9-5.1 13.9-13s-5.8-12.9-13.9-12.9zm71.2 62.5c-4.4 5-11.2 7.8-19.1 7.8-9.7 0-20.5-6.5-20.5-19.5 0-13.6 10.9-19.2 20.5-19.2 7.9 0 14.8 2.6 19.1 7.6V963c0-6.8-5.6-11-13.8-11-6.6 0-12.3 2.4-17.5 7.5l-5.3-8.9c6.8-6.5 15.4-9.5 24.8-9.5 13.1 0 24.6 5.5 24.6 21.4v39.1h-12.8v-6.5zm0-16c-2.9-4-8.4-6.1-14.1-6.1-7.2 0-12.6 4.2-12.6 10.6 0 6.4 5.4 10.5 12.6 10.5 5.6 0 11.1-2.1 14.1-6.1v-8.9zm53.9-38.1c11.5 0 18.4 4.9 22.6 10.5l-8.4 7.8c-3.3-4.6-7.8-7-13.6-7-10.8 0-17.8 8.1-17.8 19.5 0 11.5 7.1 19.7 17.8 19.7 5.7 0 10.3-2.4 13.6-7l8.4 7.8c-4.2 5.6-11.1 10.5-22.6 10.5-18 0-30.5-13.1-30.5-31 0-17.7 12.6-30.8 30.5-30.8zm52.4 36.2l-8.2 8.4v15.9h-12.8V920H863v50.9l26-28.5h16l-24.6 26.8 25 32.3h-16.1l-18.1-24.3zm76.9 17.9c-4.4 5-11.2 7.8-19.1 7.8-9.7 0-20.5-6.5-20.5-19.5 0-13.6 10.9-19.2 20.5-19.2 7.9 0 14.8 2.6 19.1 7.6V963c0-6.8-5.6-11-13.8-11-6.6 0-12.3 2.4-17.5 7.5l-5.3-8.9c6.8-6.5 15.4-9.5 24.8-9.5 13.1 0 24.6 5.5 24.6 21.4v39.1h-12.8v-6.5zm0-16c-2.9-4-8.4-6.1-14.1-6.1-7.2 0-12.6 4.2-12.6 10.6 0 6.4 5.4 10.5 12.6 10.5 5.6 0 11.1-2.1 14.1-6.1v-8.9zm32.2 28.3c4.8 5.5 10.9 7.6 18.7 7.6 8.4 0 17.5-3.9 17.5-16v-7.1c-4.5 5.9-11.2 9.8-18.9 9.8-15 0-26.1-10.9-26.1-30.3 0-19.1 11-30.3 26.1-30.3 7.5 0 14.2 3.4 18.9 9.7v-8.2h12.8v56c0 21.3-15.8 27-30.3 27-10 0-17.5-2.2-24.7-8.8l6-9.4zm36.2-47.1c-2.8-4.4-9.2-7.9-15.2-7.9-10.1 0-16.6 7.6-16.6 18.9s6.5 18.9 16.6 18.9c6 0 12.3-3.5 15.2-7.9v-22zm53.3-19.3c17.7 0 29.1 13.6 29.1 32.1v3.1h-45.6c1 8.9 7.7 16.2 18.8 16.2 5.7 0 12.6-2.3 16.7-6.5l5.9 8.4c-5.9 5.6-14.5 8.6-23.9 8.6-17.7 0-30.9-12.3-30.9-31-.1-17.1 12.4-30.9 29.9-30.9zm-16.6 26.2h33.2c-.2-7-5-15.6-16.6-15.6-11-.1-16 8.4-16.6 15.6zm-796.4 170.6l41.7-57.3h-41.7v-12.6H317v11.6l-41.7 57.3h42.5v12.6h-61.1v-11.6h.1zm70.9-65.1c0-4.4 3.7-7.9 7.9-7.9 4.4 0 7.9 3.5 7.9 7.9s-3.5 7.9-7.9 7.9c-4.3 0-7.9-3.5-7.9-7.9zm1.6 17.7h12.8v59h-12.8v-59zm27 81.5v-81.5h12.8v8.1c4.4-5.9 11.2-9.5 18.9-9.5 15.3 0 26.1 11.5 26.1 30.9s-10.9 31-26.1 31c-7.5 0-14.2-3.3-18.9-9.7v30.7h-12.8zm28-71.6c-6 0-12.3 3.5-15.1 7.9v23.3c2.8 4.3 9.2 7.9 15.1 7.9 10.1 0 16.6-8.2 16.6-19.7 0-11.2-6.5-19.4-16.6-19.4zm40.4 71.6v-81.5h12.8v8.1c4.4-5.9 11.2-9.5 18.9-9.5 15.3 0 26.1 11.5 26.1 30.9s-10.9 31-26.1 31c-7.5 0-14.2-3.3-18.9-9.7v30.7h-12.8zm28-71.6c-6 0-12.3 3.5-15.1 7.9v23.3c2.8 4.3 9.2 7.9 15.1 7.9 10.1 0 16.6-8.2 16.6-19.7 0-11.2-6.5-19.4-16.6-19.4zm66.7-11.4c17.7 0 29.1 13.6 29.1 32.1v3.1h-45.6c1 8.9 7.7 16.2 18.8 16.2 5.7 0 12.6-2.3 16.7-6.5l5.9 8.4c-5.9 5.6-14.5 8.6-23.9 8.6-17.7 0-30.9-12.3-30.9-31-.1-17 12.4-30.9 29.9-30.9zm-16.6 26.2H536c-.2-7-5-15.6-16.6-15.6-11 0-16 8.4-16.6 15.6zm97.5 26.3c-4.5 5.9-11.4 9.5-18.9 9.5-15.2 0-26.3-11.5-26.3-30.9 0-19.1 11-31 26.3-31 7.3 0 14.2 3.4 18.9 9.7V1068h12.8v81.5h-12.8v-8.1zm0-33.1c-2.9-4.4-9.2-7.9-15.3-7.9-10.1 0-16.6 8.2-16.6 19.7 0 11.4 6.5 19.5 16.6 19.5 6.1 0 12.3-3.4 15.3-7.8v-23.5zm56.3-40.4h55.8v12.6h-41.5v21.1h40.7v12.6h-40.7v35.2h-14.3v-81.5zm62.2 52c0-16.9 11.6-30.9 30.3-30.9 18.9 0 30.4 14 30.4 30.9 0 17-11.5 31-30.4 31-18.7 0-30.3-14.1-30.3-31zm47.4 0c0-10.4-6.1-19.5-17.1-19.5-10.9 0-17 9.2-17 19.5 0 10.5 6.1 19.7 17 19.7 11-.1 17.1-9.2 17.1-19.7zm23.8-52h12.8v81.5H790v-81.5zm68.5 73.5c-4.5 5.9-11.4 9.5-18.9 9.5-15.2 0-26.3-11.5-26.3-30.9 0-19.1 11-31 26.3-31 7.3 0 14.2 3.4 18.9 9.7V1068h12.8v81.5h-12.8v-8.1zm0-33.1c-2.9-4.4-9.2-7.9-15.3-7.9-10.1 0-16.6 8.2-16.6 19.7 0 11.4 6.5 19.5 16.6 19.5 6.1 0 12.3-3.4 15.3-7.8v-23.5zm53.3-19.4c17.7 0 29.1 13.6 29.1 32.1v3.1h-45.6c1 8.9 7.7 16.2 18.8 16.2 5.7 0 12.6-2.3 16.7-6.5l5.9 8.4c-5.9 5.6-14.5 8.6-23.9 8.6-17.7 0-30.9-12.3-30.9-31 0-17 12.4-30.9 29.9-30.9zm-16.6 26.2h33.2c-.2-7-5-15.6-16.6-15.6-11 0-16 8.4-16.6 15.6zm55.9-24.7H964v8.7c4.4-5.6 11.5-10 19.2-10v12.7c-1.1-.2-2.4-.4-4-.4-5.4 0-12.6 3.7-15.1 7.8v40.2h-12.8v-59h-.2z" class="st1"/></svg>