<?xml version="1.0" encoding="utf-8"?>
<!-- Generator: Adobe Illustrator 23.0.3, SVG Export Plug-In . SVG Version: 6.00 Build 0)  -->
<svg version="1.1" id="Layer_1" xmlns="http://www.w3.org/2000/svg" xmlns:xlink="http://www.w3.org/1999/xlink" x="0px" y="0px"
	 viewBox="0 0 2066.2 570" style="enable-background:new 0 0 2066.2 570;" xml:space="preserve">
<style type="text/css">
	.st0{fill:#00673E;}
	.st1{fill:#94C947;}
</style>
<path class="st0" d="M1774.9,172h-84.8v28.3h84.8V172z M1774.9,228.5h-84.8v28.3h84.8V228.5z M1732.5,451.7
	c-45.2,0-79.1-25.4-67.8-70.6l25.4-96.1h84.8l25.4,96.1C1811.6,426.3,1777.7,451.7,1732.5,451.7z M1774.9,398
	c0-36.7-84.8-36.7-84.8,0S1774.9,434.8,1774.9,398z M1551.6,58.9c39.6,45.2,73.5,84.8,138.5,84.8h310.8v367.3h-565.1V58.9H1551.6z
	 M1577.1,2.4h-197.8v565.1h678.2V87.2h-367.3C1642.1,87.2,1625.1,56.1,1577.1,2.4z M181.2,58.9c39.6,45.2,73.5,84.8,138.5,84.8
	h310.8v367.3H65.3V58.9H181.2z M206.6,2.4H8.8v565.1H687V87.2H319.6C274.4,87.2,254.6,56.1,206.6,2.4z"/>
<path class="st1" d="M1048.7,149.4l-39.6,39.6l87.6,87.6H865V333h231.7l-87.6,87.6l39.6,39.6l155.4-155.4
	C1204.1,304.8,1048.7,149.4,1048.7,149.4z"/>
</svg>
