<?xml version="1.0" encoding="utf-8"?>
<!-- Generator: Adobe Illustrator 23.0.3, SVG Export Plug-In . SVG Version: 6.00 Build 0)  -->
<svg version="1.1" id="Layer_1" xmlns="http://www.w3.org/2000/svg" xmlns:xlink="http://www.w3.org/1999/xlink" x="0px" y="0px"
	 viewBox="0 0 576 576" style="enable-background:new 0 0 576 576;" xml:space="preserve">
<style type="text/css">
	.st0{fill:#FFFFFF;}
</style>
<path class="st0" d="M0,0v576h576V0H0z M542.6,535.5H33.4v-495h509.2V535.5z"/>
<path class="st0" d="M395.4,253.4c-20.9,0-28,10.6-28,19.3c0,9.5,4.8,16.1,32.7,30.6c41.4,20.1,54.4,39.3,54.4,67.6
	c0,42.2-32.2,64.9-75.8,64.9c-23,0-42.8-4.8-54.1-11.4c-1.8-0.8-2.1-2.1-2.1-4.2v-38.8c0-2.6,1.3-3.4,3.2-2.1
	c16.6,10.8,35.6,15.6,53.1,15.6c20.9,0,29.6-8.7,29.6-20.6c0-9.5-6.1-18-32.7-31.7c-37.5-18-53.1-36.2-53.1-66.5
	c0-34.1,26.7-62.3,72.9-62.3c22.7,0,38.5,3.4,47.3,7.4c2.1,1.3,2.6,3.4,2.6,5.3v36.2c0,2.1-1.3,3.4-4,2.6
	C429.8,257.9,412.6,253.4,395.4,253.4z M168.4,284.8c6.1,0.5,10.8,0.5,21.4,0.5c30.9,0,59.9-10.8,59.9-52.8
	c0-33.5-20.9-50.4-56-50.4c-10.6,0-20.6,0.5-25.3,0.8L168.4,284.8L168.4,284.8z M121.4,144.6c0-1.8,3.7-3.2,5.8-3.2
	c16.9-0.8,42-1.3,68.1-1.3c73.1,0,101.6,40.1,101.6,91.3c0,67.1-48.6,95.8-108.2,95.8c-10,0-13.5-0.5-20.6-0.5v101.4
	c0,2.1-0.8,3.2-3.2,3.2h-40.4c-2.1,0-3.2-0.8-3.2-3.2L121.4,144.6L121.4,144.6z"/>
</svg>
