<?xml version="1.0" encoding="utf-8"?>
<!-- Generator: Adobe Illustrator 23.0.3, SVG Export Plug-In . SVG Version: 6.00 Build 0)  -->
<svg version="1.1" id="Indesign_1_" xmlns="http://www.w3.org/2000/svg" xmlns:xlink="http://www.w3.org/1999/xlink" x="0px"
	 y="0px" viewBox="0 0 576 576" style="enable-background:new 0 0 576 576;" xml:space="preserve">
<style type="text/css">
	.st0{fill:#FFFFFF;}
</style>
<path class="st0" d="M0,0v576h576V0H0z M540,540H36V36h504V540z"/>
<path class="st0" d="M207.9,428.1c0,2.5-1.1,3.7-3.3,3.7h-43c-2.2,0-3.3-1.2-3.3-3.7V165.9c0-2.2,1.1-3.3,3.3-3.3h43
	c2.2,0,3.3,1.1,3.3,3.3V428.1z M337.8,435.9c-14.7,0-28.5-2.1-41.4-6.3c-12.8-4.2-24-10.7-33.4-19.3c-9.4-8.6-16.8-19.4-22.1-32.4
	s-8-28.1-8-45.3c0-14.7,2.7-28.7,8-41.8c5.3-13.1,13-24.4,23.1-34s22.3-17.1,36.7-22.7c14.3-5.6,30.5-8.4,48.5-8.4
	c3,0,5.8,0.1,8.4,0.2c2.6,0.1,5.7,0.5,9.2,1v-84c0-1.9,0.8-2.9,2.5-2.9H414c1.4,0,2,0.8,2,2.5V390c0,4.1,0.1,8.5,0.4,13.3
	s0.7,9.1,1.2,12.9c0,1.9-0.8,3.1-2.5,3.7c-13.4,5.7-26.6,9.8-39.5,12.3S350.1,435.9,337.8,435.9L337.8,435.9z M366.9,270
	c-4.9-1.9-11.3-2.9-19.3-2.9c-9,0-17.4,1.4-25.2,4.3c-7.8,2.9-14.5,7-20.3,12.3c-5.7,5.3-10.2,12-13.5,19.9s-4.9,16.8-4.9,26.6
	c0,11.2,1.6,20.8,4.7,28.7c3.1,7.9,7.4,14.5,12.7,19.7c5.3,5.2,11.6,8.9,18.8,11.3c7.2,2.3,15,3.5,23.1,3.5c4.1,0,8.1-0.2,12.1-0.6
	s7.8-1.3,11.7-2.7L366.9,270L366.9,270z"/>
</svg>
