<svg xmlns="http://www.w3.org/2000/svg" id="mnemonic" viewBox="0 0 240 234" width="240" height="234"><style>.st0{fill:#3cf2a6}.st1{fill:#00261a}.st2{fill:#d4fcef}</style><path d="M197.5 234h-155C19 234 0 215 0 191.5v-149C0 19 19 0 42.5 0h155C221 0 240 19 240 42.5v149c0 23.5-19 42.5-42.5 42.5z" class="st0"/><path d="M193.7 224H46.3c-20 0-36.3-16.3-36.3-36.4V46.4C10 26.3 26.3 10 46.3 10h147.3c20.1 0 36.3 16.3 36.3 36.3v141.3c.1 20.1-16.2 36.4-36.2 36.4z" class="st1"/><path d="M42.2 54.1c0-.8.2-1.2 1.2-1.3 3.8-.2 14.8-.5 26.1-.5 33.7 0 50.5 21.8 50.5 53.7 0 44.4-29.1 57.8-51.5 57.8-8.5 0-20.8-.2-25.3-.3-.7 0-1-.5-1-1.3V54.1zm18.3 93.4c2.8.2 5.1.3 8.3.3 18.6 0 32.4-13.1 32.6-41.4.2-27.6-14.1-38.2-31.9-38.2-3.5 0-6.1.2-9 .3v79zm75.7-49.2c0-1 0-4.5-.5-10.3 0-.7.2-.8.8-1.2 8.5-3.2 19.9-6.6 31.4-6.6 14.1 0 29.9 5.5 29.9 29.8v52.2c0 1-.3 1.3-1.2 1.3h-15.8c-1 0-1.3-.5-1.3-1.3v-50.9c0-9.6-4-15-13.9-15-4.3 0-8.1.8-11.1 1.8v64.2c0 .7-.3 1.2-1 1.2h-16.1c-.8 0-1.2-.3-1.2-1.2v-64z" class="st2"/></svg>