<svg xmlns="http://www.w3.org/2000/svg" id="Layer_1" viewBox="0 0 200 200" width="200" height="200"><style>.st0{fill:#f64f2c}</style><path d="M100.4 193.8c-52 0-94.2-42.2-94.2-94.2 0-25 9.9-48.9 27.6-66.6C70.3-4 129.9-4.5 167 32s37.5 96.1 1 133.2l-1 1c-17.7 17.7-41.7 27.7-66.6 27.6zm0-172.4c-43.2 0-78.3 35.1-78.3 78.3S57.2 178 100.4 178s78.3-35.1 78.3-78.3-35.2-78.3-78.3-78.3z" class="st0"/><path d="M100.4 134c8.5 0 15.5 7.2 15.5 15.7 0 8.3-7 15.5-15.5 15.5s-15.5-7.2-15.5-15.5c0-8.5 6.9-15.7 15.5-15.7zM85.3 34.1h29.8l-3.9 87.1H89.5l-4.2-87.1z" class="st0"/></svg>