<svg xmlns="http://www.w3.org/2000/svg" id="Layer_1" viewBox="0 0 567 567" width="567" height="567"><style>.st0{fill:#fff}</style><path d="M426.5 531.9h-348v-91.5h22.8c9.4 0 17-7.6 17-17s-7.6-17-17-17H78.5v-63.2h22.8c9.4 0 17-7.6 17-17s-7.6-17-17-17H78.5v-63.3h22.8c9.4 0 17-7.6 17-17s-7.6-17-17-17H78.5v-63.3h22.8c9.4 0 17-7.6 17-17s-7.6-17-17-17H78.5V34.2h347.9v231.1l34-14.6v-223c0-15.2-12.3-27.5-27.5-27.5H72.7C57.4.2 45.1 12.5 45.1 27.7v87H22.3c-9.4 0-17 7.6-17 17s7.6 17 17 17h22.8V212H22.3c-9.4 0-17 7.6-17 17s7.6 17 17 17h22.8v63.2H22.3c-9.4 0-17 7.6-17 17s7.6 17 17 17h22.8v63.3H22.3c-9.4 0-17 7.6-17 17s7.6 17 17 17h22.8v98c0 15.2 12.3 27.5 27.5 27.5h360.8c15.2 0 27.5-12.3 27.5-27.5V408.2l-34 14.6-.4 109.1z" class="st0"/><path d="M302.5 355.8l162.9-70.4 30.7 71-162.9 70.4-30.7-71zm-50.6 23.7l-28.7 41.6c-4.7 7-.6 16.4 7.6 18.2l49.8 7.6c2.3.6 4.1 0 6.4-.6l17.6-7.6-30.5-70.9-17.6 7.6c-1.7.6-3.4 2.3-4.6 4.1zM560.6 315l-21.1-49.2c-2.3-5.9-9.4-8.8-15.2-5.9l-31.6 13.5 30.5 70.9 31.6-13.5c5.8-2.9 8.7-9.9 5.8-15.8zM383.1 168.6c0-41-104.9-51.5-192.7-53.3-7.6-.6-13.5 5.9-13.5 12.9s5.9 13.5 12.9 13.5c78.5 1.8 152.3 13.5 165.8 25.2-12.9 5.3-55.1 6.4-80.8 7-60.9 1.2-104.9 2.3-104.9 30.5 0 26.9 41.6 34.6 94.3 43.9 16.4 2.9 39.8 7 52.1 11.1-12.3 5.3-37.5 11.7-53.9 15.2-30.5 7-56.8 13.5-69.7 24-22.8 18.7-5.3 59.2-2.9 63.8s7 7.6 11.7 7.6c1.8 0 3.5-.6 5.3-1.2 6.4-2.9 9.4-11.1 6.4-17.6-5.3-11.7-8.8-29.3-4.7-32.2 8.2-6.4 36.3-13.5 59.2-18.7 46.3-11.1 79.7-18.7 79.7-42.2 0-21.7-31.6-27.5-79.1-35.7-21.1-3.5-58.6-10.5-69.7-15.8 14.1-4.7 52.1-5.3 76.1-5.9 62.7-2.2 108.4-3.4 108.4-32.1z" class="st0"/></svg>