<svg xmlns="http://www.w3.org/2000/svg" viewBox="0 0 240 234" width="240" height="234"><path fill="#2E0013" fill-rule="evenodd" d="M41.894 7.454C13.763 7.454 7.27 24.198 7.27 52.35l.113 136.637c0 28.162 8.78 37.56 36.9 37.56h150.764c28.121 0 37.57-9.398 37.57-37.55V47.177c0-28.152-10.5-39.723-38.62-39.723H41.893z" clip-rule="evenodd"/><path fill="#FF3F94" fill-rule="evenodd" d="M0 43.05v148.17C0 214.85 18.21 234 41.88 234h155.26c23.67 0 42.86-19.15 42.86-42.78V42.78C240 19.15 220.81 0 197.14 0H41.88C18.21 0 0 19.15 0 42.78v.27zm194.04-32.916c19.115-.03 35.85 15.687 35.85 34.772v142.303c0 19.054-15.475 36.657-34.57 36.657H44.68c-19.095 0-34.57-16.232-34.57-35.286l-.02-141.658c0-19.034 15.465-36.757 34.53-36.788h149.42z" clip-rule="evenodd"/><path fill="#FECAE0" d="M120 184c-17.482 0-34.413-7.028-50.325-20.89C57.12 152.174 45.15 136.956 34.1 117.877a1.748 1.748 0 0 1 0-1.754C45.151 97.044 57.12 81.825 69.675 70.89 85.586 57.028 102.518 50 120 50c17.473 0 34.403 7.028 50.318 20.889 12.562 10.942 24.534 26.16 35.583 45.234a1.753 1.753 0 0 1 0 1.754c-11.049 19.073-23.02 34.292-35.583 45.233C154.403 176.972 137.473 184 120 184zm-82.361-67c17.063 29.184 45.064 63.5 82.36 63.5s65.3-34.316 82.363-63.5C185.299 87.816 157.298 53.5 120 53.5c-37.298 0-65.3 34.316-82.361 63.5z"/><path fill="#FF3F94" d="M91.948 150.164c7.571 6.407 17.357 10.276 28.052 10.276 1.954 0 3.873-.141 5.758-.391L106 125.826l-14.052 24.338zm13.328-74.09c-11.543 4.156-20.815 13.058-25.47 24.352h39.53l-14.06-24.352zM77.23 109.276a43.67 43.67 0 0 0-.694 7.7 43.263 43.263 0 0 0 9.041 26.523l19.759-34.223H77.228zm70.822-25.489c-7.571-6.406-17.357-10.276-28.052-10.276-1.954 0-3.873.142-5.758.392L134 108.126l14.052-24.339zm14.718 40.888c.448-2.5.694-5.07.694-7.7a43.263 43.263 0 0 0-9.041-26.522l-19.759 34.222h28.107zm-28.046 33.202c11.543-4.156 20.815-13.057 25.47-24.352h-39.53l14.06 24.352z"/></svg>