<?xml version="1.0" encoding="utf-8"?>
<!-- Generator: Adobe Illustrator 23.0.3, SVG Export Plug-In . SVG Version: 6.00 Build 0)  -->
<svg version="1.1" id="Layer_1" xmlns="http://www.w3.org/2000/svg" xmlns:xlink="http://www.w3.org/1999/xlink" x="0px" y="0px"
	 viewBox="0 0 576 576" style="enable-background:new 0 0 576 576;" xml:space="preserve">
<style type="text/css">
	.st0{fill:#FFFFFF;}
</style>
<path class="st0" d="M0,0v576h576V0H0z M540,540H36V36h504V540z"/>
<path class="st0" d="M227.2,272.6l74.1,120.3c1.5,2,1,3.2-1.5,3.7h-45.1c-2.7,0-4.5-1-5.5-2.9c-8.8-15.2-17.7-30.3-26.6-45.5
	c-8.9-15.2-17.9-30.7-27-46.6h-0.4c-8.3,15.4-16.8,30.8-25.3,46.2c-8.6,15.4-17.1,30.7-25.7,45.9c-1,2-2.4,2.9-4.4,2.9H97
	c-1.2,0-1.9-0.4-2-1.3s0.1-1.7,0.5-2.4l71.9-117.4L97,158.9c-1.2-2.2-0.6-3.3,1.8-3.3h44.8c2,0,3.4,0.9,4.4,2.6
	c8.1,15.4,16.5,30.6,25.3,45.5s17.4,30.1,25.7,45.5h0.4c8.1-15.4,16.3-30.6,24.8-45.5c8.4-14.9,16.9-30,25.5-45.1
	c0.7-2,2.2-2.9,4.4-2.9h41.1c2.2,0,2.7,1.2,1.5,3.7L227.2,272.6L227.2,272.6z"/>
<path class="st0" d="M394.9,400.3c-13.2,0-25.6-1.9-37.1-5.7c-11.5-3.8-21.5-9.5-29.9-17.2s-15-17.4-19.8-29s-7.2-25.1-7.2-40.5
	c0-13.2,2.4-25.7,7.2-37.4c4.8-11.7,11.7-21.9,20.7-30.4c9-8.6,20-15.3,32.8-20.4c12.8-5,27.3-7.5,43.5-7.5c2.7,0,5.2,0.1,7.5,0.2
	s5.1,0.4,8.3,0.9V138c0-1.7,0.7-2.6,2.2-2.6h40c1.2,0,1.8,0.7,1.8,2.2v221.6c0,3.7,0.1,7.6,0.4,11.9c0.2,4.3,0.6,8.1,1.1,11.6
	c0,1.7-0.7,2.8-2.2,3.3c-12,5.1-23.8,8.8-35.4,11S405.9,400.3,394.9,400.3z M420.9,251.7c-4.4-1.7-10.2-2.6-17.2-2.6
	c-8.1,0-15.6,1.3-22.6,3.9c-7,2.6-13,6.2-18.2,11c-5.1,4.8-9.2,10.7-12.1,17.8c-2.9,7.1-4.4,15-4.4,23.8c0,10,1.4,18.6,4.2,25.7
	c2.8,7.1,6.6,13,11.4,17.6s10.4,8,16.9,10.1s13.4,3.1,20.7,3.1c3.7,0,7.3-0.2,10.8-0.5c3.5-0.4,7-1.2,10.5-2.4L420.9,251.7
	L420.9,251.7z"/>
<path class="st0" d="M227.2,272.6l74.1,120.3c1.5,2,1,3.2-1.5,3.7h-45.1c-2.7,0-4.5-1-5.5-2.9c-8.8-15.2-17.7-30.3-26.6-45.5
	c-8.9-15.2-17.9-30.7-27-46.6h-0.4c-8.3,15.4-16.8,30.8-25.3,46.2c-8.6,15.4-17.1,30.7-25.7,45.9c-1,2-2.4,2.9-4.4,2.9H97
	c-1.2,0-1.9-0.4-2-1.3s0.1-1.7,0.5-2.4l71.9-117.4L97,158.9c-1.2-2.2-0.6-3.3,1.8-3.3h44.8c2,0,3.4,0.9,4.4,2.6
	c8.1,15.4,16.5,30.6,25.3,45.5s17.4,30.1,25.7,45.5h0.4c8.1-15.4,16.3-30.6,24.8-45.5c8.4-14.9,16.9-30,25.5-45.1
	c0.7-2,2.2-2.9,4.4-2.9h41.1c2.2,0,2.7,1.2,1.5,3.7L227.2,272.6L227.2,272.6z"/>
<path class="st0" d="M394.9,400.3c-13.2,0-25.6-1.9-37.1-5.7c-11.5-3.8-21.5-9.5-29.9-17.2s-15-17.4-19.8-29s-7.2-25.1-7.2-40.5
	c0-13.2,2.4-25.7,7.2-37.4c4.8-11.7,11.7-21.9,20.7-30.4c9-8.6,20-15.3,32.8-20.4c12.8-5,27.3-7.5,43.5-7.5c2.7,0,5.2,0.1,7.5,0.2
	s5.1,0.4,8.3,0.9V138c0-1.7,0.7-2.6,2.2-2.6h40c1.2,0,1.8,0.7,1.8,2.2v221.6c0,3.7,0.1,7.6,0.4,11.9c0.2,4.3,0.6,8.1,1.1,11.6
	c0,1.7-0.7,2.8-2.2,3.3c-12,5.1-23.8,8.8-35.4,11S405.9,400.3,394.9,400.3z M420.9,251.7c-4.4-1.7-10.2-2.6-17.2-2.6
	c-8.1,0-15.6,1.3-22.6,3.9c-7,2.6-13,6.2-18.2,11c-5.1,4.8-9.2,10.7-12.1,17.8c-2.9,7.1-4.4,15-4.4,23.8c0,10,1.4,18.6,4.2,25.7
	c2.8,7.1,6.6,13,11.4,17.6s10.4,8,16.9,10.1s13.4,3.1,20.7,3.1c3.7,0,7.3-0.2,10.8-0.5c3.5-0.4,7-1.2,10.5-2.4L420.9,251.7
	L420.9,251.7z"/>
</svg>
