<svg xmlns="http://www.w3.org/2000/svg" id="Layer_1" viewBox="0 0 930.2 134" width="930.2" height="134"><style>.st0{fill:#00673e}.st1{fill:#94c947}</style><path d="M131 47.5C127.9 20.8 105.1 0 77.6 0c-25 0-46.8 17.7-52.4 41.7C9.9 48.5 0 63.8 0 80.6c0 23.5 19.1 42.6 42.6 42.6h12.9l-14-14c-15.3-.7-27.6-13.2-27.6-28.6 0-12.3 7.9-23.3 19.6-27.1l4.1-1.3.6-4.2C41.1 28.7 58 14.1 77.5 14.1c21.8 0 39.7 17.7 39.8 39.5l.1 6.4 6.3.5c12.5 1.1 22.3 11.8 22.3 24.3 0 13.5-11 24.4-24.5 24.5h-3.1l-14 14h17.1c21.2 0 38.4-17.2 38.4-38.4.2-17.9-12.1-33.2-28.9-37.4z" class="st0"/><path d="M99.5 93.7V62.5c0-.7-.6-1.3-1.3-1.3H61.9c-.7 0-1.3.6-1.3 1.3v31.3c0 .7-.6 1.3-1.3 1.3H43.6c-.7 0-1.3.6-1.3 1.3 0 .3.1.7.4.9l17.6 17.5 18.9 18.8c.5.5 1.3.5 1.8 0l18.9-18.8 17.5-17.5c.5-.5.5-1.3 0-1.8-.2-.2-.6-.4-.9-.4h-15.6c-.8-.1-1.4-.6-1.4-1.4z" class="st1"/><path d="M189.9 30.8h29.3c23.3 0 39.4 14.8 39.4 37.2s-16.2 37.1-39.4 37.1h-29.3V30.8zm29.3 60.4c14.7 0 23.3-10.6 23.3-23.2 0-13.1-8-23.3-23.3-23.3h-13.5v46.5h13.5zm44.7-13.1c0-15.3 10.7-28.2 28.4-28.2 17.8 0 28.5 12.9 28.5 28.2 0 15.4-10.7 28.3-28.5 28.3-17.7 0-28.4-12.9-28.4-28.3zm42.2 0c0-8.4-5-15.6-13.8-15.6s-13.7 7.2-13.7 15.6c0 8.5 4.9 15.7 13.7 15.7 8.8 0 13.8-7.2 13.8-15.7zm58.8-9.7l-11.4 36.7h-15.2L322 51.3h14.7l10 36.2 11.8-36.2h12.6L383 87.5l10-36.2h14.7l-16.4 53.8h-15l-11.4-36.7zm83.9 4.2c0-7.5-3.9-10-9.9-10-5.6 0-9.9 3.1-12.3 6.4v36.2h-14.2V51.3h14.2v7c3.5-4.1 10-8.4 18.8-8.4 11.8 0 17.5 6.7 17.5 17.2v38h-14.2V72.6h.1zm26-41.8H489v74.3h-14.2V30.8zm22.5 47.3c0-15.3 10.7-28.2 28.4-28.2 17.8 0 28.5 12.9 28.5 28.2 0 15.4-10.7 28.3-28.5 28.3-17.7 0-28.4-12.9-28.4-28.3zm42.3 0c0-8.4-5-15.6-13.8-15.6s-13.7 7.2-13.7 15.6c0 8.5 4.9 15.7 13.7 15.7 8.7 0 13.8-7.2 13.8-15.7zm55.2 21.4c-3.7 4.3-10 6.9-17 6.9-8.6 0-18.7-5.8-18.7-17.8 0-12.6 10.1-17.2 18.7-17.2 7.1 0 13.5 2.2 17 6.6v-7.5c0-5.5-4.7-9-11.8-9-5.8 0-11.1 2.1-15.7 6.4l-5.3-9.5c6.6-5.8 15-8.5 23.5-8.5 12.3 0 23.5 4.9 23.5 20.4v34.8h-14.2v-5.6zm0-14c-2.3-3.1-6.8-4.7-11.4-4.7-5.6 0-10.1 3-10.1 8.1 0 5 4.6 7.9 10.1 7.9 4.6 0 9-1.6 11.4-4.7v-6.6zm63 12.8c-4.2 5.2-10.1 8.1-16.6 8.1-13.6 0-23.8-10.3-23.8-28.2 0-17.6 10.1-28.3 23.8-28.3 6.4 0 12.4 2.8 16.6 8.2V30.8h14.3v74.3h-14.3v-6.8zm0-29.6c-2.5-3.6-7.5-6.1-12.3-6.1-8 0-13.6 6.4-13.6 15.7 0 9.2 5.6 15.6 13.6 15.6 4.8 0 9.8-2.6 12.3-6.1V68.7zm52.7-37.9h52.6v13.6h-36.8v16.2h36v13.6h-36v31h-15.8V30.8zm59.6 4.1c0-4.7 3.9-8.5 8.5-8.5 4.7 0 8.5 3.8 8.5 8.5s-3.8 8.5-8.5 8.5c-4.6 0-8.5-3.8-8.5-8.5zm1.5 16.4h14.2v53.8h-14.2V51.3zm25.9-20.5h14.2v74.3h-14.2V30.8zm50.4 19.1c16 0 27 12 27 29.6v3.1h-40c.9 6.8 6.4 12.5 15.5 12.5 5 0 10.9-2 14.4-5.3L871 99c-5.5 5-13.8 7.5-22.2 7.5-16.4 0-28.8-11-28.8-28.3 0-15.7 11.5-28.3 27.9-28.3zm-13.3 23.2h26.5c-.3-5.1-3.9-11.9-13.3-11.9-8.7 0-12.5 6.6-13.2 11.9zm49.7 15.1c3.9 3.7 11.9 7.4 18.6 7.4 6.1 0 9-2.1 9-5.5 0-3.8-4.7-5.1-10.8-6.4-9.2-1.8-21.2-4-21.2-16.8 0-9 7.9-16.9 22.1-16.9 9.1 0 16.4 3.1 21.6 7.4l-5.6 9.7c-3.2-3.5-9.4-6.2-15.9-6.2-5.1 0-8.5 1.9-8.5 5 0 3.3 4.2 4.6 10.3 5.8 9.2 1.8 21.6 4.2 21.6 17.6 0 9.9-8.4 17.3-23.3 17.3-9.4 0-18.4-3.1-24.1-8.4l6.2-10z"/></svg>