<svg xmlns="http://www.w3.org/2000/svg" width="1019.4" height="1120.8" viewBox="0 0 1019.4 1120.8"><title>illustrator-package</title><g id="Layer_2" data-name="Layer 2"><g id="Layer_1-2" data-name="Layer 1"><path d="M73.1,884.9H86.8v78.3H73.1Z" fill="#00673e"/><path d="M98.4,884.9h12.3v78.3H98.4Z" fill="#00673e"/><path d="M122,884.9h12.4v78.3H122Z" fill="#00673e"/><path d="M183.9,955.7a27,27,0,0,1-20.1,8.9c-12.2,0-18.2-6.3-18.2-18V906.5H158v35.7c0,8.8,4.4,11.5,11.4,11.5a18.6,18.6,0,0,0,14.5-7.4V906.5h12.3v56.7H183.9Z" fill="#00673e"/><path d="M208.2,946.9a29.5,29.5,0,0,0,19.3,8c7.4,0,11.1-2.7,11.1-7s-5.9-6.7-12.9-8.2c-9.7-2.1-21.3-4.7-21.3-17.4,0-9.3,7.9-17.2,22.3-17.2,9.6,0,16.9,3.4,22,7.9l-5.1,8.7c-3.4-3.8-9.8-6.8-16.8-6.8s-10.6,2.4-10.6,6.4,5.6,5.8,12.3,7.4c9.9,2.1,22,4.9,22,18.3,0,10-8.3,17.6-23.6,17.6-9.6,0-18.4-3.1-24.3-8.8Z" fill="#00673e"/><path d="M260.7,950V917.3h-9.4V906.5h9.4V891h12.4v15.5h11.5v10.8H273.1V947c0,3.9,1.8,6.7,5.4,6.7a8.4,8.4,0,0,0,5.5-2l2.9,9.3c-2.2,2.1-5.9,3.6-11.6,3.6C265.8,964.6,260.7,959.4,260.7,950Z" fill="#00673e"/><path d="M291,906.5h12.4v8.3c4.2-5.4,11-9.6,18.4-9.6v12.2a21.3,21.3,0,0,0-3.9-.4c-5.2,0-12.1,3.6-14.5,7.6v38.6H291Z" fill="#00673e"/><path d="M361.7,957.1c-4.2,4.8-10.8,7.5-18.3,7.5-9.3,0-19.7-6.2-19.7-18.8s10.4-18.4,19.7-18.4c7.6,0,14.2,2.4,18.3,7.3v-8.5c0-6.6-5.4-10.6-13.2-10.6s-11.9,2.4-16.8,7.2l-5.1-8.6a33.8,33.8,0,0,1,23.8-9.1c12.6,0,23.7,5.2,23.7,20.5v37.6H361.7Zm0-15.4c-2.8-3.9-8.1-5.9-13.5-5.9s-12.1,4-12.1,10.2,5.2,10.1,12.1,10.1,10.7-1.9,13.5-5.8Z" fill="#00673e"/><path d="M387.8,950V917.3h-9.4V906.5h9.4V891h12.3v15.5h11.5v10.8H400.1V947c0,3.9,1.9,6.7,5.4,6.7a8,8,0,0,0,5.5-2l3,9.3c-2.2,2.1-5.9,3.6-11.6,3.6C392.8,964.6,387.8,959.4,387.8,950Z" fill="#00673e"/><path d="M414.6,934.8c0-16.2,11.1-29.7,29.1-29.7s29.2,13.5,29.2,29.7-11,29.8-29.2,29.8S414.6,951.1,414.6,934.8Zm45.5,0c0-10-5.8-18.8-16.4-18.8s-16.3,8.8-16.3,18.8,5.8,18.9,16.3,18.9S460.1,944.9,460.1,934.8Z" fill="#00673e"/><path d="M480.7,906.5H493v8.3c4.3-5.4,11.1-9.6,18.5-9.6v12.2a21.3,21.3,0,0,0-3.9-.4c-5.2,0-12.1,3.6-14.6,7.6v38.6H480.7Z" fill="#00673e"/><path d="M542.6,884.9H577c16.4,0,25.6,11.2,25.6,24.5S593.3,934,577,934H556.3v29.2H542.6ZM575.1,897H556.3v24.9h18.8c7.8,0,13.4-5,13.4-12.5S582.9,897,575.1,897Z" fill="#00673e"/><path d="M641.2,957.1c-4.2,4.8-10.8,7.5-18.3,7.5-9.3,0-19.7-6.2-19.7-18.8s10.4-18.4,19.7-18.4c7.6,0,14.2,2.4,18.3,7.3v-8.5c0-6.6-5.4-10.6-13.2-10.6s-11.9,2.4-16.8,7.2l-5.1-8.6c6.6-6.2,14.8-9.1,23.9-9.1,12.5,0,23.6,5.2,23.6,20.5v37.6H641.2Zm0-15.4c-2.8-3.9-8.1-5.9-13.5-5.9-6.9,0-12.1,4-12.1,10.2s5.2,10.1,12.1,10.1c5.4,0,10.7-1.9,13.5-5.8Z" fill="#00673e"/><path d="M690.7,905.1c11,0,17.7,4.7,21.7,10.1l-8.1,7.5a15.1,15.1,0,0,0-13-6.7c-10.4,0-17.2,7.7-17.2,18.8s6.8,18.9,17.2,18.9a15.5,15.5,0,0,0,13-6.7l8.1,7.5c-4,5.4-10.7,10.1-21.7,10.1-17.3,0-29.4-12.6-29.4-29.8S673.4,905.1,690.7,905.1Z" fill="#00673e"/><path d="M738.7,939.8l-7.9,8.1v15.3H718.5V884.9h12.3v48.9l25.1-27.3h15.2l-23.6,25.7,24.1,31H756.1Z" fill="#00673e"/><path d="M810.2,957.1c-4.2,4.8-10.8,7.5-18.3,7.5-9.3,0-19.7-6.2-19.7-18.8s10.4-18.4,19.7-18.4c7.6,0,14.2,2.4,18.3,7.3v-8.5c0-6.6-5.4-10.6-13.2-10.6s-11.9,2.4-16.8,7.2l-5.1-8.6c6.6-6.2,14.8-9.1,23.9-9.1,12.5,0,23.6,5.2,23.6,20.5v37.6H810.2Zm0-15.4c-2.8-3.9-8.1-5.9-13.5-5.9-6.9,0-12.1,4-12.1,10.2s5.2,10.1,12.1,10.1c5.4,0,10.7-1.9,13.5-5.8Z" fill="#00673e"/><path d="M838.9,968.8c4.6,5.3,10.4,7.3,18,7.3s16.8-3.7,16.8-15.4v-6.8a23.1,23.1,0,0,1-18.2,9.4c-14.5,0-25.2-10.4-25.2-29.1s10.6-29.1,25.2-29.1a22.6,22.6,0,0,1,18.2,9.2v-7.8H886v53.8c0,20.4-15.2,25.9-29.1,25.9-9.7,0-16.8-2.1-23.8-8.4Zm34.8-45.2c-2.7-4.2-8.9-7.6-14.6-7.6-9.8,0-16,7.3-16,18.2s6.2,18.2,16,18.2c5.7,0,11.9-3.4,14.6-7.6Z" fill="#00673e"/><path d="M922.5,905.1c17,0,28,13,28,30.8v3H906.7c.9,8.6,7.4,15.6,18,15.6,5.6,0,12.1-2.2,16.1-6.2l5.7,8.1c-5.7,5.4-14,8.2-23,8.2-17.1,0-29.8-11.9-29.8-29.8S905.7,905.1,922.5,905.1Zm-16,25.1h32c-.3-6.7-4.8-15-16-15S907.1,923.3,906.5,930.2Z" fill="#00673e"/><path d="M176.3,1088l40-55h-40v-12.1h57.9V1032l-40.1,55.1H235v12.1H176.3Z" fill="#00673e"/><path d="M242,1025.4a7.7,7.7,0,0,1,7.7-7.6,7.7,7.7,0,0,1,0,15.3A7.8,7.8,0,0,1,242,1025.4Zm1.6,17.1h12.3v56.7H243.6Z" fill="#00673e"/><path d="M267.2,1120.8v-78.3h12.3v7.7a22.6,22.6,0,0,1,18.2-9.1c14.7,0,25.2,11,25.2,29.7s-10.5,29.8-25.2,29.8a22.4,22.4,0,0,1-18.2-9.3v29.5Zm26.9-68.8c-5.8,0-11.9,3.4-14.6,7.6V1082c2.7,4.2,8.8,7.7,14.6,7.7,9.7,0,15.9-7.9,15.9-18.9S303.8,1052,294.1,1052Z" fill="#00673e"/><path d="M330.6,1120.8v-78.3h12.3v7.7a22.8,22.8,0,0,1,18.2-9.1c14.7,0,25.2,11,25.2,29.7s-10.5,29.8-25.2,29.8a22.4,22.4,0,0,1-18.2-9.3v29.5Zm26.9-68.8c-5.8,0-11.9,3.4-14.6,7.6V1082c2.7,4.2,8.8,7.7,14.6,7.7,9.7,0,16-7.9,16-18.9S367.2,1052,357.5,1052Z" fill="#00673e"/><path d="M419.3,1041.1c17,0,27.9,13,27.9,30.8v3H403.4c1,8.6,7.4,15.6,18.1,15.6,5.5,0,12.1-2.2,16.1-6.2l5.6,8.1c-5.6,5.4-13.9,8.2-23,8.2-17,0-29.7-11.9-29.7-29.8S402.5,1041.1,419.3,1041.1Zm-16,25.1h31.9c-.2-6.7-4.8-15-15.9-15S403.9,1059.3,403.3,1066.2Z" fill="#00673e"/><path d="M494.7,1091.4a23,23,0,0,1-18.2,9.2c-14.6,0-25.3-11-25.3-29.7s10.6-29.8,25.3-29.8a22.7,22.7,0,0,1,18.2,9.2v-29.4H507v78.3H494.7Zm0-31.8A18.8,18.8,0,0,0,480,1052c-9.8,0-16,7.8-16,18.9s6.2,18.8,16,18.8a18.7,18.7,0,0,0,14.7-7.5Z" fill="#00673e"/><path d="M544.1,1020.9h53.7V1033H557.9v20.3H597v12.1H557.9v33.8H544.1Z" fill="#00673e"/><path d="M601.5,1070.8c0-16.2,11.2-29.7,29.2-29.7s29.2,13.5,29.2,29.7-11,29.8-29.2,29.8S601.5,1087.1,601.5,1070.8Zm45.6,0c0-10-5.9-18.8-16.4-18.8s-16.4,8.8-16.4,18.8,5.9,18.9,16.4,18.9S647.1,1080.9,647.1,1070.8Z" fill="#00673e"/><path d="M667.7,1020.9H680v78.3H667.7Z" fill="#00673e"/><path d="M731.2,1091.4a22.7,22.7,0,0,1-18.2,9.2c-14.6,0-25.3-11-25.3-29.7s10.6-29.8,25.3-29.8a22.7,22.7,0,0,1,18.2,9.2v-29.4h12.3v78.3H731.2Zm0-31.8a18.7,18.7,0,0,0-14.7-7.6c-9.7,0-16,7.8-16,18.9s6.3,18.8,16,18.8c5.9,0,11.9-3.3,14.7-7.5Z" fill="#00673e"/><path d="M780.1,1041.1c17,0,27.9,13,27.9,30.8v3H764.2c.9,8.6,7.4,15.6,18.1,15.6,5.5,0,12.1-2.2,16.1-6.2l5.6,8.1c-5.6,5.4-14,8.2-23,8.2-17,0-29.7-11.9-29.7-29.8S763.3,1041.1,780.1,1041.1Zm-16,25.1H796c-.2-6.7-4.8-15-15.9-15S764.7,1059.3,764.1,1066.2Z" fill="#00673e"/><path d="M815.5,1042.5h12.4v8.3c4.2-5.4,11-9.6,18.4-9.6v12.2a21.3,21.3,0,0,0-3.9-.4c-5.1,0-12.1,3.6-14.5,7.6v38.6H815.5Z" fill="#00673e"/><path d="M428.9,113.5V73.3A53.3,53.3,0,0,0,375.6,20H93.8C53,20,20,30,20,70.8v656a73.7,73.7,0,0,0,73.8,73.7H925.6a73.7,73.7,0,0,0,73.8-73.7V240.6a73.7,73.7,0,0,0-73.8-73.8H482.3A53.4,53.4,0,0,1,428.9,113.5Z" fill="#fff" stroke="#94c947" stroke-miterlimit="10" stroke-width="40"/><path d="M829.9,267.7H768.6v40.9h61.3Zm0,81.6H768.6v40.9h61.3Zm-61.3-40.9H707.4v40.9h61.2Zm61.3-122.3H768.6V227h61.3Zm-61.3,40.7H707.4v40.9h61.2Zm98,342.9L829.9,430.9H707.4L670.7,569.7c-16.3,65.2,32.6,101.9,97.9,101.9S882.9,635,866.6,569.7ZM707.4,594.1c0-53,122.5-53,122.5,0S707.4,647.1,707.4,594.1Z" fill="#94c947"/></g></g></svg>