<svg xmlns="http://www.w3.org/2000/svg" width="979.4" height="1101.4" viewBox="0 0 979.4 1101.4"><path fill="#94c947" d="M571.3 244.9H448.8v40.9h122.5zm0 81.6H448.8v40.9h122.5zM510 648.8c-65.3 0-114.2-36.7-97.9-101.9l36.7-138.8h122.5L608 546.9c16.3 65.3-32.7 101.9-98 101.9zm61.3-77.5c0-53-122.5-53-122.5 0s122.5 53.1 122.5 0zM248.8 81.6c57.2 65.3 106.1 122.5 200 122.5h448.8v530.4h-816V81.6zM285.6 0H0v816h979.4V122.5H449c-69.5 0-94.1-44.9-163.4-122.5z"/><path fill="#00673e" d="M63.9 865.4h13.7v78.4H63.9zm63.6 42.9c0-8.8-4.5-11.7-11.4-11.7a18.5 18.5 0 0 0-14.5 7.6v39.6H89.2V887h12.4v7.8a26.5 26.5 0 0 1 19.9-9.2c12.2 0 18.3 6.6 18.3 18.2v40h-12.3zm24-42.9h29.1c24.4 0 41 16.2 41 39.3s-16.6 39.1-41 39.1h-29.1zm29.1 66.3c17 0 26.9-12.2 26.9-27s-9.4-27.2-26.9-27.2h-15.4v54.2zm74.4-46.1c17.1 0 28 13.1 28 30.9v3h-43.8c.9 8.5 7.4 15.6 18.1 15.6 5.5 0 12.1-2.3 16.1-6.3l5.6 8.2c-5.6 5.4-14 8.2-23 8.2-17 0-29.7-11.9-29.7-29.9 0-16.4 12-29.7 28.7-29.7zm-15.9 25.2H271c-.2-6.7-4.8-15.1-16-15.1s-15.3 8.1-15.9 15.1zm52.1 16.6a29.5 29.5 0 0 0 19.3 8c7.4 0 11.1-2.7 11.1-6.9s-5.9-6.7-12.9-8.2c-9.7-2.1-21.4-4.7-21.4-17.4 0-9.3 8-17.3 22.4-17.3 9.6 0 16.9 3.4 22 8l-5.1 8.7c-3.4-3.9-9.8-6.8-16.8-6.8s-10.6 2.3-10.6 6.3 5.6 5.9 12.3 7.4c9.9 2.1 22 5 22 18.4 0 9.9-8.3 17.6-23.6 17.6-9.6 0-18.4-3.1-24.3-8.8zm48.5-57.4a7.7 7.7 0 0 1 7.7-7.6 7.6 7.6 0 1 1 0 15.2 7.7 7.7 0 0 1-7.7-7.6zm1.6 17h12.3v56.8h-12.3zm28.6 62.4c4.6 5.3 10.5 7.3 18 7.3s16.8-3.8 16.8-15.4v-6.8c-4.4 5.6-10.8 9.4-18.2 9.4-14.5 0-25.2-10.5-25.2-29.1s10.6-29.2 25.2-29.2a22.7 22.7 0 0 1 18.2 9.3V887H417v53.8c0 20.5-15.1 26-29.1 26-9.7 0-16.8-2.1-23.7-8.5zm34.8-45.2c-2.7-4.2-8.8-7.6-14.6-7.6-9.7 0-16 7.2-16 18.2s6.3 18.2 16 18.2c5.8 0 11.9-3.4 14.6-7.7zm61.9 4.1c0-8.8-4.5-11.7-11.4-11.7a18.5 18.5 0 0 0-14.6 7.6v39.6h-12.3V887h12.3v7.8a26.8 26.8 0 0 1 20-9.2c12.2 0 18.3 6.6 18.3 18.2v40h-12.3zm49.4-42.9h34.4c16.5 0 25.6 11.3 25.6 24.6s-9.3 24.5-25.6 24.5h-20.7v29.3H516zm32.5 12.1h-18.8v24.9h18.8c7.8 0 13.4-4.9 13.4-12.4s-5.6-12.5-13.4-12.5zm66.2 60.2c-4.3 4.8-10.8 7.5-18.4 7.5-9.2 0-19.7-6.3-19.7-18.8s10.5-18.5 19.7-18.5 14.2 2.5 18.4 7.3v-8.4c0-6.6-5.4-10.6-13.3-10.6a22.8 22.8 0 0 0-16.8 7.2l-5.1-8.6a34 34 0 0 1 23.9-9.2c12.6 0 23.6 5.3 23.6 20.6v37.6h-12.3zm0-15.4c-2.9-3.9-8.1-5.9-13.5-5.9-7 0-12.1 4-12.1 10.2s5.1 10.1 12.1 10.1c5.4 0 10.6-2 13.5-5.9zm49.4-36.7c11 0 17.7 4.7 21.7 10.1l-8.1 7.5a15.1 15.1 0 0 0-13-6.6c-10.3 0-17.2 7.7-17.2 18.7s6.9 19 17.2 19a15.4 15.4 0 0 0 13-6.7l8.1 7.5c-4 5.4-10.7 10.1-21.7 10.1-17.3 0-29.4-12.6-29.4-29.9s12.1-29.7 29.4-29.7zm48 34.8l-7.8 8.1v15.3h-12.4v-78.4h12.4v49l25-27.4h15.3l-23.7 25.8 24.1 31h-15.5zm71.6 17.3c-4.3 4.8-10.8 7.5-18.4 7.5-9.2 0-19.7-6.3-19.7-18.8s10.5-18.5 19.7-18.5 14.2 2.5 18.4 7.3v-8.4c0-6.6-5.4-10.6-13.3-10.6a22.8 22.8 0 0 0-16.8 7.2l-5.1-8.6a34 34 0 0 1 23.9-9.2c12.6 0 23.6 5.3 23.6 20.6v37.6h-12.3zm0-15.4c-2.9-3.9-8.1-5.9-13.5-5.9-7 0-12.1 4-12.1 10.2s5.1 10.1 12.1 10.1c5.4 0 10.6-2 13.5-5.9zm28.6 27.1c4.6 5.3 10.5 7.3 18 7.3s16.8-3.8 16.8-15.4v-6.8c-4.4 5.6-10.8 9.4-18.2 9.4-14.5 0-25.2-10.5-25.2-29.1s10.6-29.2 25.2-29.2a22.7 22.7 0 0 1 18.2 9.3V887h12.3v53.8c0 20.5-15.1 26-29.1 26-9.6 0-16.8-2.1-23.7-8.5zm34.8-45.2c-2.7-4.2-8.8-7.6-14.6-7.6-9.7 0-16 7.2-16 18.2s6.3 18.2 16 18.2c5.8 0 11.9-3.4 14.6-7.7zm48.8-18.6c17.1 0 28 13.1 28 30.9v3h-43.8c.9 8.5 7.4 15.6 18.1 15.6 5.5 0 12.1-2.3 16.1-6.3l5.6 8.2c-5.6 5.4-14 8.2-23 8.2-17.1 0-29.7-11.9-29.7-29.9 0-16.4 11.9-29.7 28.7-29.7zM880 910.8h31.9c-.2-6.7-4.8-15.1-16-15.1s-15.4 8.1-15.9 15.1zm-721.6 157.8l40-55.1h-40v-12.1h57.9v11.2l-40.1 55.1h40.9v12.1h-58.7zm65.8-62.6a7.6 7.6 0 1 1 7.6 7.6 7.7 7.7 0 0 1-7.6-7.6zm1.5 17H238v56.8h-12.3zm23.6 78.4V1023h12.3v7.8a22.9 22.9 0 0 1 18.2-9.2c14.7 0 25.2 11.1 25.2 29.7s-10.5 29.9-25.2 29.9a22.4 22.4 0 0 1-18.2-9.3v29.5zm26.9-68.8c-5.8 0-11.9 3.4-14.6 7.6v22.4a18.8 18.8 0 0 0 14.6 7.7c9.7 0 16-7.9 16-19s-6.3-18.7-16-18.7zm36.5 68.8V1023H325v7.8a23 23 0 0 1 18.2-9.2c14.7 0 25.2 11.1 25.2 29.7s-10.5 29.9-25.2 29.9a22.4 22.4 0 0 1-18.2-9.3v29.5zm26.9-68.8c-5.7 0-11.9 3.4-14.6 7.6v22.4a19 19 0 0 0 14.6 7.7c9.8 0 16-7.9 16-19s-6.2-18.7-16-18.7zm61.8-11c17 0 27.9 13.1 27.9 30.9v3h-43.8c1 8.5 7.4 15.6 18.1 15.6 5.5 0 12.1-2.3 16.1-6.3l5.6 8.2c-5.6 5.4-13.9 8.2-23 8.2-17 0-29.7-11.9-29.7-29.9 0-16.4 12-29.7 28.8-29.7zm-16 25.2h32c-.3-6.7-4.9-15.1-16-15.1s-15.4 8.1-16 15.1zm91.4 25.2a22.9 22.9 0 0 1-18.2 9.2c-14.6 0-25.3-11.1-25.3-29.7s10.6-29.9 25.3-29.9a22.8 22.8 0 0 1 18.2 9.3v-29.5h12.3v78.4h-12.3zm0-31.8a18.7 18.7 0 0 0-14.7-7.6c-9.7 0-16 7.8-16 18.9s6.3 18.8 16 18.8c5.9 0 11.9-3.3 14.7-7.6zm49.4-38.8h53.7v12.1H540v20.3h39.1v12.1H540v33.9h-13.8zm57.5 49.9c0-16.2 11.1-29.7 29.1-29.7s29.2 13.5 29.2 29.7-11 29.9-29.2 29.9-29.1-13.5-29.1-29.9zm45.5 0c0-9.9-5.8-18.7-16.4-18.7s-16.3 8.8-16.3 18.7 5.8 19 16.3 19 16.4-8.9 16.4-19zm20.6-49.9h12.3v78.4h-12.3zm63.5 70.6a22.7 22.7 0 0 1-18.2 9.2c-14.6 0-25.2-11.1-25.2-29.7s10.5-29.9 25.2-29.9a22.7 22.7 0 0 1 18.2 9.3v-29.5h12.3v78.4h-12.3zm0-31.8a18.7 18.7 0 0 0-14.7-7.6c-9.7 0-15.9 7.8-15.9 18.9s6.2 18.8 15.9 18.8c5.9 0 11.9-3.3 14.7-7.6zm48.9-18.6c17 0 27.9 13.1 27.9 30.9v3h-43.8c1 8.5 7.4 15.6 18.1 15.6 5.5 0 12.1-2.3 16.1-6.3l5.6 8.2c-5.6 5.4-13.9 8.2-23 8.2-17 0-29.7-11.9-29.7-29.9 0-16.4 12-29.7 28.8-29.7zm-16 25.2h31.9c-.2-6.7-4.8-15.1-15.9-15.1s-15.4 8.1-16 15.1zm51.4-23.8H810v8.4c4.2-5.4 11-9.7 18.4-9.7v12.3a14.1 14.1 0 0 0-3.9-.4c-5.1 0-12.1 3.5-14.5 7.5v38.7h-12.4z"/></svg>