<svg xmlns="http://www.w3.org/2000/svg" width="1019.4" height="1120.8" viewBox="0 0 1019.4 1120.8"><title>indesign-package</title><g id="Layer_2" data-name="Layer 2"><g id="Layer_1-2" data-name="Layer 1"><path d="M81.9,884.9H95.6v78.3H81.9Z" fill="#00673e"/><path d="M145.5,927.7c0-8.8-4.5-11.7-11.4-11.7a18.5,18.5,0,0,0-14.5,7.6v39.6H107.2V906.5h12.4v7.7a26.8,26.8,0,0,1,19.9-9.1c12.2,0,18.3,6.5,18.3,18.2v39.9H145.5Z" fill="#00673e"/><path d="M169.5,884.9h29.1c24.4,0,41,16.2,41,39.2s-16.6,39.1-41,39.1H169.5Zm29.1,66.2c17,0,26.9-12.2,26.9-27S216.1,897,198.6,897H183.2v54.1Z" fill="#00673e"/><path d="M273,905.1c17.1,0,28,13,28,30.8v3H257.2c.9,8.6,7.4,15.6,18.1,15.6,5.5,0,12.1-2.2,16.1-6.2l5.6,8.1c-5.6,5.4-14,8.2-23,8.2-17,0-29.7-11.9-29.7-29.8S256.3,905.1,273,905.1Zm-15.9,25.1H289c-.2-6.7-4.8-15-16-15S257.7,923.3,257.1,930.2Z" fill="#00673e"/><path d="M309.2,946.9a29.5,29.5,0,0,0,19.3,8c7.4,0,11.1-2.7,11.1-7s-5.9-6.7-12.9-8.2c-9.7-2.1-21.4-4.7-21.4-17.4,0-9.3,8-17.2,22.4-17.2,9.6,0,16.9,3.4,22,7.9l-5.1,8.7c-3.4-3.8-9.8-6.8-16.8-6.8s-10.6,2.4-10.6,6.4,5.6,5.8,12.3,7.4c9.9,2.1,22,4.9,22,18.3,0,10-8.3,17.6-23.6,17.6-9.6,0-18.4-3.1-24.3-8.8Z" fill="#00673e"/><path d="M357.7,889.4a7.7,7.7,0,0,1,7.7-7.6,7.7,7.7,0,0,1,0,15.3A7.7,7.7,0,0,1,357.7,889.4Zm1.6,17.1h12.3v56.7H359.3Z" fill="#00673e"/><path d="M387.9,968.8c4.6,5.3,10.5,7.3,18,7.3s16.8-3.7,16.8-15.4v-6.8c-4.4,5.7-10.8,9.4-18.2,9.4-14.5,0-25.2-10.4-25.2-29.1s10.6-29.1,25.2-29.1a22.6,22.6,0,0,1,18.2,9.2v-7.8H435v53.8c0,20.4-15.1,25.9-29.1,25.9-9.7,0-16.8-2.1-23.7-8.4Zm34.8-45.2c-2.7-4.2-8.8-7.6-14.6-7.6-9.7,0-16,7.3-16,18.2s6.3,18.2,16,18.2c5.8,0,11.9-3.4,14.6-7.6Z" fill="#00673e"/><path d="M484.6,927.7c0-8.8-4.5-11.7-11.4-11.7a18.5,18.5,0,0,0-14.6,7.6v39.6H446.3V906.5h12.3v7.7a27.1,27.1,0,0,1,20-9.1c12.2,0,18.3,6.5,18.3,18.2v39.9H484.6Z" fill="#00673e"/><path d="M534,884.9h34.4c16.5,0,25.6,11.2,25.6,24.5S584.7,934,568.4,934H547.7v29.2H534ZM566.5,897H547.7v24.9h18.8c7.8,0,13.4-5,13.4-12.5S574.3,897,566.5,897Z" fill="#00673e"/><path d="M632.7,957.1c-4.3,4.8-10.8,7.5-18.4,7.5-9.2,0-19.7-6.2-19.7-18.8s10.5-18.4,19.7-18.4,14.2,2.4,18.4,7.3v-8.5c0-6.6-5.4-10.6-13.3-10.6-6.4,0-11.9,2.4-16.8,7.2l-5.1-8.6c6.6-6.2,14.8-9.1,23.9-9.1,12.6,0,23.6,5.2,23.6,20.5v37.6H632.7Zm0-15.4c-2.9-3.9-8.1-5.9-13.5-5.9-7,0-12.1,4-12.1,10.2s5.1,10.1,12.1,10.1c5.4,0,10.6-1.9,13.5-5.8Z" fill="#00673e"/><path d="M682.1,905.1c11,0,17.7,4.7,21.7,10.1l-8.1,7.5a14.9,14.9,0,0,0-13-6.7c-10.3,0-17.2,7.7-17.2,18.8s6.9,18.9,17.2,18.9a15.4,15.4,0,0,0,13-6.7l8.1,7.5c-4,5.4-10.7,10.1-21.7,10.1-17.3,0-29.4-12.6-29.4-29.8S664.8,905.1,682.1,905.1Z" fill="#00673e"/><path d="M730.1,939.8l-7.8,8.1v15.3H709.9V884.9h12.4v48.9l25-27.3h15.3l-23.7,25.7,24.1,31H747.5Z" fill="#00673e"/><path d="M801.7,957.1c-4.3,4.8-10.8,7.5-18.4,7.5-9.2,0-19.7-6.2-19.7-18.8s10.5-18.4,19.7-18.4,14.2,2.4,18.4,7.3v-8.5c0-6.6-5.4-10.6-13.3-10.6-6.4,0-11.9,2.4-16.8,7.2l-5.1-8.6c6.6-6.2,14.8-9.1,23.9-9.1,12.6,0,23.6,5.2,23.6,20.5v37.6H801.7Zm0-15.4c-2.9-3.9-8.1-5.9-13.5-5.9-7,0-12.1,4-12.1,10.2s5.1,10.1,12.1,10.1c5.4,0,10.6-1.9,13.5-5.8Z" fill="#00673e"/><path d="M830.3,968.8c4.6,5.3,10.5,7.3,18,7.3s16.8-3.7,16.8-15.4v-6.8c-4.4,5.7-10.8,9.4-18.2,9.4-14.5,0-25.2-10.4-25.2-29.1s10.6-29.1,25.2-29.1a22.6,22.6,0,0,1,18.2,9.2v-7.8h12.3v53.8c0,20.4-15.1,25.9-29.1,25.9-9.6,0-16.8-2.1-23.7-8.4Zm34.8-45.2c-2.7-4.2-8.8-7.6-14.6-7.6-9.7,0-16,7.3-16,18.2s6.3,18.2,16,18.2c5.8,0,11.9-3.4,14.6-7.6Z" fill="#00673e"/><path d="M913.9,905.1c17.1,0,28,13,28,30.8v3H898.1c.9,8.6,7.4,15.6,18.1,15.6,5.5,0,12.1-2.2,16.1-6.2l5.6,8.1c-5.6,5.4-14,8.2-23,8.2-17.1,0-29.7-11.9-29.7-29.8S897.1,905.1,913.9,905.1ZM898,930.2h31.9c-.2-6.7-4.8-15-16-15S898.5,923.3,898,930.2Z" fill="#00673e"/><path d="M176.4,1088l40-55h-40v-12.1h57.9V1032l-40.1,55.1h40.9v12.1H176.4Z" fill="#00673e"/><path d="M242.2,1025.4a7.6,7.6,0,1,1,7.6,7.7A7.7,7.7,0,0,1,242.2,1025.4Zm1.5,17.1H256v56.7H243.7Z" fill="#00673e"/><path d="M267.3,1120.8v-78.3h12.3v7.7a22.8,22.8,0,0,1,18.2-9.1c14.7,0,25.2,11,25.2,29.7s-10.5,29.8-25.2,29.8a22.4,22.4,0,0,1-18.2-9.3v29.5Zm26.9-68.8c-5.8,0-11.9,3.4-14.6,7.6V1082c2.7,4.2,8.8,7.7,14.6,7.7,9.7,0,16-7.9,16-18.9S303.9,1052,294.2,1052Z" fill="#00673e"/><path d="M330.7,1120.8v-78.3H343v7.7a22.9,22.9,0,0,1,18.2-9.1c14.7,0,25.2,11,25.2,29.7s-10.5,29.8-25.2,29.8a22.4,22.4,0,0,1-18.2-9.3v29.5Zm26.9-68.8c-5.7,0-11.9,3.4-14.6,7.6V1082c2.7,4.2,8.9,7.7,14.6,7.7,9.8,0,16-7.9,16-18.9S367.4,1052,357.6,1052Z" fill="#00673e"/><path d="M419.4,1041.1c17,0,27.9,13,27.9,30.8v3H403.5c1,8.6,7.4,15.6,18.1,15.6,5.5,0,12.1-2.2,16.1-6.2l5.6,8.1c-5.6,5.4-13.9,8.2-23,8.2-17,0-29.7-11.9-29.7-29.8S402.6,1041.1,419.4,1041.1Zm-16,25.1h32c-.3-6.7-4.9-15-16-15S404,1059.3,403.4,1066.2Z" fill="#00673e"/><path d="M494.8,1091.4a22.9,22.9,0,0,1-18.2,9.2c-14.6,0-25.3-11-25.3-29.7s10.6-29.8,25.3-29.8a22.7,22.7,0,0,1,18.2,9.2v-29.4h12.3v78.3H494.8Zm0-31.8a18.7,18.7,0,0,0-14.7-7.6c-9.7,0-16,7.8-16,18.9s6.3,18.8,16,18.8c5.9,0,11.9-3.3,14.7-7.5Z" fill="#00673e"/><path d="M544.2,1020.9h53.7V1033H558v20.3h39.1v12.1H558v33.8H544.2Z" fill="#00673e"/><path d="M601.7,1070.8c0-16.2,11.1-29.7,29.1-29.7s29.2,13.5,29.2,29.7-11,29.8-29.2,29.8S601.7,1087.1,601.7,1070.8Zm45.5,0c0-10-5.8-18.8-16.4-18.8s-16.3,8.8-16.3,18.8,5.8,18.9,16.3,18.9S647.2,1080.9,647.2,1070.8Z" fill="#00673e"/><path d="M667.8,1020.9h12.3v78.3H667.8Z" fill="#00673e"/><path d="M731.3,1091.4a22.7,22.7,0,0,1-18.2,9.2c-14.6,0-25.2-11-25.2-29.7s10.5-29.8,25.2-29.8a22.6,22.6,0,0,1,18.2,9.2v-29.4h12.3v78.3H731.3Zm0-31.8a18.7,18.7,0,0,0-14.7-7.6c-9.7,0-15.9,7.8-15.9,18.9s6.2,18.8,15.9,18.8c5.9,0,11.9-3.3,14.7-7.5Z" fill="#00673e"/><path d="M780.2,1041.1c17,0,27.9,13,27.9,30.8v3H764.3c1,8.6,7.4,15.6,18.1,15.6,5.5,0,12.1-2.2,16.1-6.2l5.6,8.1c-5.6,5.4-13.9,8.2-23,8.2-17,0-29.7-11.9-29.7-29.8S763.4,1041.1,780.2,1041.1Zm-16,25.1h31.9c-.2-6.7-4.8-15-15.9-15S764.8,1059.3,764.2,1066.2Z" fill="#00673e"/><path d="M815.6,1042.5H828v8.3c4.2-5.4,11-9.6,18.4-9.6v12.2a19.5,19.5,0,0,0-3.9-.4c-5.1,0-12.1,3.6-14.5,7.6v38.6H815.6Z" fill="#00673e"/><path d="M428.9,113.5V73.3A53.3,53.3,0,0,0,375.6,20H93.8C53,20,20,30,20,70.8v656a73.7,73.7,0,0,0,73.8,73.7H925.6a73.7,73.7,0,0,0,73.8-73.7V240.6a73.7,73.7,0,0,0-73.8-73.8H482.3A53.4,53.4,0,0,1,428.9,113.5Z" fill="#fff" stroke="#94c947" stroke-miterlimit="10" stroke-width="40"/><path d="M829.9,267.7H768.6v40.9h61.3Zm0,81.6H768.6v40.9h61.3Zm-61.3-40.9H707.4v40.9h61.2Zm61.3-122.3H768.6V227h61.3Zm-61.3,40.7H707.4v40.9h61.2Zm98,342.9L829.9,430.9H707.4L670.7,569.7c-16.3,65.2,32.6,101.9,97.9,101.9S882.9,635,866.6,569.7ZM707.4,594.1c0-53,122.5-53,122.5,0S707.4,647.1,707.4,594.1Z" fill="#94c947"/></g></g></svg>