<svg xmlns="http://www.w3.org/2000/svg" id="Layer_1" viewBox="0 0 190 44.4" width="190" height="44.4"><style>.st0{fill:#a7a9ac}</style><path d="M28.5.9C28 4 25.4 6.3 22.2 6.3 19 6.3 16.3 4 15.8.9" class="st0"/><path d="M22.2 6.3c3.2 0 5.9-2.3 6.4-5.4-2-.6-4.2-.9-6.4-.9s-4.4.3-6.4.9c.5 3.1 3.2 5.4 6.4 5.4zm0 31.7c-3.2 0-5.9 2.3-6.4 5.4 2 .6 4.2.9 6.4.9s4.4-.3 6.4-.9c-.6-3.1-3.2-5.4-6.4-5.4zM11 11c2.3-2.3 2.5-5.8.7-8.3-3.8 2.1-6.9 5.2-9 9 2.5 1.8 6 1.6 8.3-.7zm22.4 22.4c-2.3 2.3-2.5 5.8-.7 8.3 3.8-2.1 6.9-5.2 9-9-2.5-1.8-6.1-1.6-8.3.7zM6.3 22.2C6.3 19 4 16.3.9 15.8c-.6 2-.9 4.2-.9 6.4s.3 4.3.9 6.4c3.1-.6 5.4-3.2 5.4-6.4zm37.1-6.4c-3.1.5-5.4 3.2-5.4 6.4s2.3 5.9 5.4 6.4c.6-2 .9-4.2.9-6.4s-.3-4.4-.9-6.4zM11 33.4c-2.3-2.3-5.8-2.5-8.3-.7 2.1 3.8 5.2 6.9 9 9 1.8-2.5 1.6-6.1-.7-8.3zM33.4 11c2.3 2.3 5.8 2.5 8.3.7-2.1-3.8-5.2-7-9-9-1.8 2.5-1.6 6 .7 8.3z" class="st0"/><circle cx="22.2" cy="10.3" r="2" class="st0"/><circle cx="22.2" cy="34.2" r="2" class="st0"/><ellipse cx="13.7" cy="13.8" class="st0" rx="2" ry="2" transform="rotate(-45.009 13.722 13.772)"/><ellipse cx="30.6" cy="30.7" class="st0" rx="2" ry="2" transform="rotate(-45.001 30.622 30.671)"/><circle cx="10.2" cy="22.2" r="2" class="st0"/><circle cx="34.1" cy="22.2" r="2" class="st0"/><ellipse cx="13.7" cy="30.7" class="st0" rx="2" ry="2" transform="rotate(-45.001 13.721 30.671)"/><ellipse cx="30.6" cy="13.8" class="st0" rx="2" ry="2" transform="rotate(-44.992 30.62 13.772)"/><path d="M69.5 32.4c-5 0-9.9-3-9.9-11.3s4.9-11.3 9.9-11.3c3.1 0 5.2.9 7.3 3.1l-3.1 3c-1.4-1.5-2.5-2.1-4.2-2.1-1.7 0-3.1.7-4.1 2-1 1.2-1.3 2.8-1.3 5.3 0 2.6.3 4.2 1.3 5.4 1 1.3 2.4 2 4.1 2 1.7 0 2.8-.6 4.2-2.1l3.1 2.9c-2.1 2.2-4.2 3.1-7.3 3.1zm24.4-.3v-2c-1.6 1.6-3.1 2.3-5.9 2.3s-4.6-.7-5.9-2c-1.1-1.2-1.7-2.9-1.7-4.7 0-3.7 2.6-6.3 7.6-6.3h5.9v-1.6c0-2.8-1.4-4.1-4.8-4.1-2.4 0-3.6.6-4.8 2.1L81.2 13c2.1-2.4 4.3-3.2 7.9-3.2 6.1 0 9.1 2.6 9.1 7.6v14.7h-4.3zm-.1-9.7h-5.2c-2.6 0-4 1.2-4 3.2s1.3 3.1 4.1 3.1c1.7 0 3-.1 4.1-1.3.7-.7 1-1.7 1-3.3v-1.7zm24.8 9.7V18.7c0-3.4-2-4.9-4.5-4.9s-4.6 1.5-4.6 4.9v13.4H105v-22h4.4v2.2c1.5-1.7 3.7-2.5 5.9-2.5 2.3 0 4.1.7 5.5 2 1.7 1.7 2.2 3.7 2.2 6.2v14.1h-4.4zm19.9 0h-3.6l-8.1-22h4.7l5.2 15.5 5.2-15.5h4.7l-8.1 22zm23.9 0v-2c-1.6 1.6-3.1 2.3-5.9 2.3-2.8 0-4.6-.7-5.9-2-1.1-1.2-1.7-2.9-1.7-4.7 0-3.7 2.6-6.3 7.6-6.3h5.9v-1.6c0-2.8-1.4-4.1-4.8-4.1-2.4 0-3.6.6-4.8 2.1l-2.9-2.7c2.1-2.4 4.3-3.2 7.9-3.2 6.1 0 9.1 2.6 9.1 7.6v14.7h-4.5zm-.1-9.7h-5.2c-2.6 0-4 1.2-4 3.2s1.3 3.1 4.1 3.1c1.7 0 3-.1 4.1-1.3.7-.7 1-1.7 1-3.3v-1.7zm18.5 10c-3.6 0-6.7-.6-9.3-3.2l2.9-2.9c1.8 1.8 4.2 2.3 6.4 2.3 2.7 0 4.8-1 4.8-3 0-1.5-.8-2.4-3-2.6l-3.5-.3c-4.1-.3-6.5-2.2-6.5-6.1 0-4.3 3.7-6.7 8.3-6.7 3.3 0 6.2.7 8.2 2.5l-2.8 2.8c-1.4-1.2-3.4-1.6-5.5-1.6-2.7 0-4 1.2-4 2.8 0 1.3.7 2.3 3.1 2.5l3.5.3c4.1.3 6.6 2.3 6.6 6.2 0 4.6-3.9 7-9.2 7zM63.7 44.3h-2.2v-5.4h2.1c1 0 1.6.6 1.6 1.5 0 .6-.4 1-.7 1.1.4.2.8.6.8 1.3 0 1-.7 1.5-1.6 1.5zm-.2-4.6h-1.2v1.6h1.2c.5 0 .9-.3.9-.8 0-.6-.3-.8-.9-.8zm.1 2.3h-1.3v1.7h1.3c.6 0 .9-.4.9-.8 0-.6-.3-.9-.9-.9zm5.7.1v2.2h-.8v-2.2l-1.6-3.2h.9l1.1 2.4 1.1-2.4h1l-1.7 3.2zm6.2 2.2v-5.4h.8v5.4h-.8zm6.6 0l-2.5-3.8v3.8h-.8v-5.4h.8l2.5 3.8v-3.8h.8v5.4h-.8zm4.6.1c-.8 0-1.4-.2-1.9-.7l.6-.5c.4.4.8.5 1.4.5.7 0 1.1-.3 1.1-.8 0-.2-.1-.4-.2-.6-.1-.1-.3-.2-.6-.2l-.6-.1c-.4-.1-.8-.2-1-.4-.3-.3-.4-.6-.4-1 0-.9.7-1.6 1.8-1.6.7 0 1.2.2 1.7.6l-.6.4c-.3-.3-.7-.4-1.2-.4-.6 0-1 .4-1 .8 0 .2.1.4.2.5.1.1.4.2.6.3l.6.1c.5.1.8.2 1 .4.3.3.4.6.4 1.1.1 1-.7 1.6-1.9 1.6zm5.9-4.7v4.7h-.8v-4.7h-1.5V39h3.8v.7h-1.5zm6.5 4.6L98 42h-1v2.3h-.8v-5.4h2.1c1 0 1.7.7 1.7 1.6 0 .8-.5 1.3-1.1 1.4l1.3 2.4h-1.1zm-1-4.6h-1.2v1.7h1.2c.6 0 .9-.3.9-.8 0-.6-.3-.9-.9-.9zm5.8 4.7c-1.1 0-2-.8-2-1.9v-3.6h.8v3.6c0 .7.4 1.2 1.1 1.2.7 0 1.1-.4 1.1-1.2v-3.6h.8v3.6c.2 1.1-.7 1.9-1.8 1.9zm6.1 0c-.6 0-1.1-.2-1.4-.6-.5-.5-.5-1.1-.5-2.2 0-1 0-1.6.5-2.2.4-.4.9-.6 1.4-.6 1 0 1.8.6 1.9 1.7h-.8c-.1-.5-.5-.9-1.1-.9-.3 0-.6.1-.8.3-.3.3-.3.6-.3 1.7s.1 1.4.3 1.7c.2.2.5.3.8.3.6 0 1-.4 1.1-.9h.8c-.2 1.1-.9 1.7-1.9 1.7zm5.9-4.7v4.7h-.9v-4.7h-1.5V39h3.8v.7h-1.4zm5.3 4.7c-1.1 0-2-.8-2-1.9v-3.6h.8v3.6c0 .7.4 1.2 1.1 1.2.7 0 1.1-.4 1.1-1.2v-3.6h.8v3.6c.1 1.1-.7 1.9-1.8 1.9zm7.3-.1l-1.1-2.3h-1v2.3h-.8v-5.4h2.1c1 0 1.7.7 1.7 1.6 0 .8-.5 1.3-1.1 1.4l1.3 2.4h-1.1zm-1-4.6h-1.2v1.7h1.2c.6 0 .9-.3.9-.8 0-.6-.3-.9-.9-.9zm4 4.6v-5.4h3.5v.7h-2.7v1.6h2.3v.8h-2.3v1.6h2.7v.7h-3.5z" class="st0"/></svg>