<svg xmlns="http://www.w3.org/2000/svg" id="Layer_1" viewBox="0 0 306.1 69.9" width="306.1" height="69.9"><style>.st0{fill:#a6a8ab}</style><path d="M39 34.2c0 5.6 4.1 10.2 9.9 10.2v7.1c-5.4 0-10-2.2-13.1-5.8l2.2 5.2h-8l-2.6-6.8H13.7l-2.6 6.8H3.3L6.2 44c7.6-3.4 16.1-6.3 25.3-8.5v-1.1c0-9.3 7.3-16.9 17.4-16.9v6.6c-5.8.1-9.9 4.6-9.9 10.1zM30.4 33c-2.2.3-4.5.6-6.9 1l-3-7.7-3.4 8.8c-2.6.5-5.3 1-7.8 1.6l8-18.8H24L30.4 33zM61 50.8V18.1h1.5v32.8l-1.5-.1zm27-28.5c4.7 0 7.7 2.3 9.5 5l-4.1 2.2c-1.1-1.6-3-2.9-5.4-2.9-4.2 0-7.2 3.2-7.2 7.5s3 7.5 7.2 7.5c2.1 0 4-.9 5-1.8V37h-6.1v-4h10.9v8.8c-2.3 2.6-5.6 4.3-9.8 4.3-6.7 0-12.2-4.7-12.2-11.9 0-7.3 5.5-11.9 12.2-11.9zm12.8 6.7h4.4v2.3c1.2-1.5 3.2-2.6 5.3-2.6V33c-.3-.1-.7-.1-1.2-.1-1.4 0-3.4.8-4.1 1.9v11h-4.4V29zm21.7 14.9c-1.1 1.3-3.1 2.1-5.3 2.1-2.6 0-5.8-1.8-5.8-5.5 0-3.9 3.1-5.3 5.8-5.3 2.2 0 4.2.7 5.3 2V35c0-1.7-1.4-2.8-3.6-2.8-1.8 0-3.4.7-4.8 2l-1.7-2.9c2-1.8 4.6-2.6 7.3-2.6 3.8 0 7.3 1.5 7.3 6.3v10.7h-4.4v-1.8zm0-4.3c-.7-1-2.1-1.4-3.5-1.4-1.7 0-3.1.9-3.1 2.5 0 1.5 1.4 2.4 3.1 2.4 1.4 0 2.8-.5 3.5-1.4v-2.1zm8 12.3V29h4.4v2.1c1.3-1.6 3.1-2.5 5.1-2.5 4.3 0 7.4 3.2 7.4 8.7S144.2 46 140 46c-2 0-3.8-.8-5.1-2.5V52h-4.4zm8.1-19.4c-1.4 0-3 .8-3.7 1.9v5.9c.7 1 2.3 1.9 3.7 1.9 2.5 0 4.2-2 4.2-4.8 0-3-1.7-4.9-4.2-4.9zm22.6 3c0-2.3-1.2-3-3.1-3-1.7 0-3 1-3.8 2v11.2h-4.4v-23h4.4v8.5c1.1-1.3 3.1-2.6 5.8-2.6 3.6 0 5.4 2 5.4 5.2v11.8h-4.4V35.5zm7.5-11.2c0-1.4 1.2-2.6 2.6-2.6 1.4 0 2.6 1.2 2.6 2.6 0 1.4-1.2 2.6-2.6 2.6-1.4 0-2.6-1.2-2.6-2.6zm.5 4.7h4.4v16.6h-4.4V29zm15.7-.4c3.4 0 5.5 1.5 6.6 3l-2.9 2.7c-.8-1.2-2-1.8-3.5-1.8-2.6 0-4.5 1.9-4.5 4.8s1.9 4.8 4.5 4.8c1.5 0 2.7-.7 3.5-1.8l2.9 2.6c-1.1 1.5-3.2 3-6.6 3-5.1 0-8.8-3.6-8.8-8.7 0-5 3.7-8.6 8.8-8.6zm17-5.9h9c7.2 0 12.2 4.6 12.2 11.5s-5 11.4-12.2 11.4h-9V22.7zm9 18.6c4.5 0 7.2-3.3 7.2-7.2 0-4.1-2.5-7.2-7.2-7.2h-4.2v14.3h4.2zm22.4-12.7c5 0 8.3 3.7 8.3 9.1v1h-12.3c.3 2.1 2 3.9 4.8 3.9 1.5 0 3.4-.6 4.4-1.7l1.9 2.8c-1.7 1.5-4.3 2.3-6.8 2.3-5.1 0-8.9-3.4-8.9-8.7 0-4.8 3.6-8.7 8.6-8.7zm-4.1 7.1h8.2c-.1-1.6-1.2-3.7-4.1-3.7-2.7.1-3.9 2.1-4.1 3.7zm15.3 4.7c1.2 1.1 3.7 2.3 5.7 2.3 1.9 0 2.8-.7 2.8-1.7 0-1.2-1.4-1.6-3.3-2-2.9-.6-6.5-1.2-6.5-5.2 0-2.8 2.4-5.2 6.8-5.2 2.8 0 5.1 1 6.7 2.3l-1.8 3c-1-1.1-2.9-1.9-4.9-1.9-1.6 0-2.6.6-2.6 1.5 0 1 1.3 1.4 3.2 1.8 2.9.6 6.7 1.3 6.7 5.4 0 3-2.6 5.3-7.2 5.3-2.9 0-5.7-1-7.4-2.6l1.8-3zm14.9-16.1c0-1.4 1.2-2.6 2.6-2.6 1.4 0 2.6 1.2 2.6 2.6 0 1.4-1.2 2.6-2.6 2.6-1.4 0-2.6-1.2-2.6-2.6zm.4 4.7h4.4v16.6h-4.4V29zm9.6 17.7c1.3 1.5 3.1 2.1 5.2 2.1s4.6-.9 4.6-4.2v-1.7c-1.3 1.7-3.1 2.6-5.1 2.6-4.2 0-7.3-2.9-7.3-8.5 0-5.4 3.1-8.5 7.3-8.5 2 0 3.8.9 5.1 2.5v-2h4.4v15.5c0 6.3-4.9 7.9-9 7.9-2.9 0-5.1-.7-7.2-2.5l2-3.2zm9.8-12.3c-.7-1.1-2.3-1.9-3.7-1.9-2.5 0-4.2 1.7-4.2 4.6 0 2.9 1.7 4.6 4.2 4.6 1.4 0 3-.8 3.7-1.9v-5.4zm19.3 1.2c0-2.3-1.2-3.1-3.1-3.1-1.7 0-3.1 1-3.8 2v11.2h-4.4V29h4.4v2.2c1.1-1.3 3.1-2.6 5.8-2.6 3.6 0 5.4 2.1 5.4 5.3v11.7h-4.4v-10z" class="st0"/></svg>