<svg xmlns="http://www.w3.org/2000/svg" id="Layer_1" viewBox="0 0 306.1 69.9" width="306.1" height="69.9"><style>.st0{fill:#999}</style><path d="M6.5 2.5v49.6h8.1V2.5H6.5zm15.2 65h9.1L54 23.4h-9.2l-7.9 16.3L28 23.4h-9.5l13.7 24.4-10.5 19.7zm36.2-15.4H66V37.5c0-1.7.1-3.7 1.3-5.6 1.2-1.8 2.9-2.5 5-2.5.8 0 2.5.1 3.8 1.5 1.5 1.5 1.5 4 1.5 5.6v15.7h8.1v-18c0-2.8-.3-5.6-2.3-8.1-2.3-2.8-6-3.5-8.5-3.5-4.6 0-7.4 2.5-8.9 4.6v-3.7h-8.1v28.6zm57.5-25c-2.7-4.2-7-4.6-9.2-4.6-8.5 0-14.3 6.8-14.3 15.3 0 8.4 5.8 15.3 14.7 15.3 2.1 0 5.9-.5 8.8-4.7v3.7h8.1V2.5h-8.1v24.6zm-7.2 18.8c-4.6 0-8-3.6-8-8.2s3.3-8.1 8-8.1c4.6 0 8 3.5 8 8.1s-3.3 8.2-8 8.2zm45-18.8c-2.7-4.2-7-4.6-9.2-4.6-8.5 0-14.3 6.8-14.3 15.3 0 8.4 5.8 15.3 14.7 15.3 2.1 0 5.9-.5 8.8-4.7v3.7h8.1V23.4h-8.1v3.7zM146 45.9c-4.6 0-8-3.6-8-8.2s3.3-8.1 8-8.1c4.6 0 8 3.5 8 8.1s-3.3 8.2-8 8.2zm22.3 1.9c0 2.9 2.3 5.2 5.2 5.2 2.9 0 5.2-2.3 5.2-5.2s-2.3-5.2-5.2-5.2c-2.9 0-5.2 2.3-5.2 5.2zm45.8-26.1c-1.5-1-4.7-3-9.6-3-9.5 0-16.5 6.9-16.5 16.3 0 9.3 6.9 16.1 16.5 16.1 2.9 0 6.5-.7 9.8-3.2v-6.4c-2.8 3.4-6.8 4.8-10 4.8-5.5 0-10.9-3.9-10.9-11.4s5.2-11.5 10.9-11.5c2.7 0 6.8 1 9.7 4.6v-6.3h.1zm22.8 29.5c9.4 0 16.4-6.9 16.4-16.2 0-9.4-6.9-16.3-16.4-16.3-9.4 0-16.4 6.9-16.4 16.3.1 9.3 7.1 16.2 16.4 16.2zm0-27.8c5.6 0 10.9 3.9 10.9 11.5 0 7.5-5.3 11.4-10.9 11.4-5.5 0-10.9-3.9-10.9-11.4.1-7.5 5.3-11.5 10.9-11.5zm24.6 26.9h5.4V33.5c0-3.7.7-10 6.7-10 5.6 0 5.6 6.4 5.6 8.5v18.3h5.4V33.1c0-3.7.7-9.7 6.8-9.7 5.1 0 5.5 4.6 5.5 8.1v18.7h5.4V30.7c0-2.5-.1-5.2-1.7-7.9-.9-1.4-3.1-4.2-8.3-4.2-2.1 0-6.3.3-9.3 5-.6-1-2.9-5-8.5-5-3.2 0-5.9 1.5-7.6 4v-3.3h-5.4v31z" class="st0"/></svg>