<svg xmlns="http://www.w3.org/2000/svg" id="Layer_1" viewBox="0 0 1000 231" width="1000" height="231"><style>.st0{fill:#026937}.st1{fill:#fff}</style><path d="M225 104.7v.6c-1 34 25.8 62.4 59.8 63.5h2.4v44.4c-31.5.4-61.6-12.8-82.5-36.3l14 32.8h-50.3L151.9 167H65.5l-16.2 43H0l18.2-42.8c51.3-22.8 104.7-40.8 159.4-53.6v-6.9C177.7 47.9 223.7 0 287.3 0v41.9c-33.8-.6-61.7 26.2-62.4 60-.1.9-.1 1.9.1 2.8zm-54.3-7.6c-13.6 1.9-28.2 4-43.3 6.3l-18.7-48.2-21.3 55.2c-16.5 3-33.2 6.3-49.5 10L88.4 2.1h41.9l40.4 95z" class="st0"/><path d="M363.5 209.6V3.5h9.5v206.3h-9.7l.2-.2z" class="st1"/><path d="M449.2 46c-.5-23.6 18.2-43.2 41.8-43.8h2.5c14.9-.6 28.9 7.4 36 20.6L514 30.5c-4-7.6-12-12.4-20.6-12.4-14.5.2-26.1 12.1-25.9 26.6v1.2c-.8 14.5 10.3 27 24.8 27.8h1.1c8.7.1 16.7-4.7 20.6-12.4l15.5 7.5c-7 13.4-20.9 21.6-36 21.1-23.6.9-43.5-17.6-44.4-41.2v-.1c.1-.9.1-1.7.1-2.6zm84.5 11.6c0-17.9 14.5-32.4 32.4-32.4s32.4 14.5 32.4 32.4S584 90 566.1 90s-32.4-14.5-32.4-32.4zm48.1 0c1.2-8.6-4.9-16.5-13.5-17.7-8.6-1.2-16.5 4.9-17.7 13.5v.2c-.2 1.3-.2 2.7 0 4-1.2 8.6 4.9 16.5 13.5 17.7 8.6 1.2 16.5-4.9 17.7-13.5v-.2c.1-1.3.1-2.7 0-4zM684 49.5c0-5.7-2.5-9.8-9.2-9.8-5.1.3-9.8 2.9-12.7 7.1v41.4h-16.2V49.5c0-5.7-2.5-9.8-9.2-9.8-5.1.3-9.8 3-12.7 7.3v41.3h-16.2V27H624v7.9c5-5.9 12.3-9.3 20-9.5 7.6-.7 14.6 3.9 17 11.1 4.8-7 12.7-11.1 21.1-11.1 9-1 17 5.5 18.1 14.4.2 1.4.2 2.7 0 4.1v44.4H684V49.5zm29.6 62.2V27h16.2v7.8c4.5-5.9 11.6-9.3 19-9.2 15.7 0 27.1 11.7 27.1 32s-11.4 32.5-27.3 32.5c-7.5.2-14.6-3.3-19-9.4V112l-16-.3zm29.9-71.9c-5.4.2-10.5 2.7-13.8 7v21.7c3.3 4.3 8.4 6.8 13.8 7 9.2 0 15.5-7.3 15.5-17.9 1-8.7-5.1-16.5-13.8-17.6h-.2c-.5-.2-1-.2-1.5-.2zm83.2 40.8c-5.5 6-13.4 9.4-21.6 9.2-9.6 1.3-18.4-5.5-19.7-15.1-.2-1.3-.2-2.7 0-4V27h16.2v37.1c-1 5.2 2.5 10.3 7.7 11.2.1 0 .2 0 .4.1 1.1.2 2.1.2 3.2 0 5.5-.2 10.6-2.7 14-7V27h15.9v61.2h-16.2l.1-7.6zm32.7-7.6V41.3H849V27h10.2V10.2h16.2V27H888v14.1h-12.7v27.6c0 3.8 2.1 6.7 5.6 6.7 2 0 4-.6 5.6-1.7l3.5 12.2c-3.9 2.9-8.7 4.3-13.5 4-8.4 1.1-16-4.9-17.1-13.3-.1-1.2-.1-2.4 0-3.6zm64.9-47.6c18.2 0 30.8 13.6 30.8 33.8v3.5h-45.5c1.2 8.7 8.9 14.9 17.6 14.3 6-.2 11.8-2.4 16.3-6.3l7 10.6c-7.1 5.9-16.1 9-25.4 8.9-17.1 1-31.7-12.1-32.7-29.2v-3c-.7-17.2 12.7-31.7 30-32.4.6-.2 1.3-.2 1.9-.2zM909.2 52h30.1c-.3-7.8-6.9-13.9-14.8-13.6h-.3c-7.8-.1-14.3 5.8-15 13.6zm55.1-25h16.2v8.4c4.8-5.9 11.9-9.5 19.5-9.8v15.7c-7.2-1.7-14.7.8-19.5 6.3v40.5h-16.2V27zm-469.9 94.8c14.2-.5 27.5 6.6 35.1 18.6l-14.9 8.1c-4.5-6.7-12-10.6-20-10.6-14.4-.2-26.3 11.4-26.5 25.8v2c-.8 14.5 10.4 27 24.9 27.8h1.6c6.6.1 13-2.2 18.2-6.3v-10.8h-22.5v-15.5h40.3v32.4c-9.1 10.4-22.2 16.2-36 16-24.2 0-43.8-19.6-43.8-43.8 0-24.2 19.6-43.8 43.8-43.8v.3h-.2v-.2zm47.4 24.5H558v8.4c4.8-5.9 11.9-9.5 19.5-9.8v15.7c-7.2-1.7-14.7.8-19.5 6.3v40.5h-16.2v-61.1zm80.1 54.9c-5.1 5.2-12.1 8.1-19.4 7.9-11.3.5-20.8-8.2-21.3-19.5v-.8c-.2-10.7 8.4-19.5 19.1-19.7h.1c.7 0 1.4 0 2.1.2 7.3-.5 14.4 2.2 19.4 7.5v-8.6c0-6.3-5.4-10.3-13.5-10.3-6.7-.1-13.2 2.6-17.9 7.3l-6.3-10.8c7.5-6.3 17-9.8 26.8-9.7 14 0 26.8 5.6 26.8 23.2v39.7h-15.9v-6.4zm0-15.9c-3.2-3.6-7.9-5.6-12.7-5.4-6.3 0-11.6 3.3-11.6 9.2s4.9 8.9 11.3 8.9c4.8.2 9.5-1.8 12.7-5.4l.3-7.3zm29.5 45.7v-84.7h16.2v7.8c4.5-5.9 11.6-9.3 19-9.2 15.7 0 27.1 11.7 27.1 32s-11.4 32.2-27.1 32.2c-7.5.2-14.6-3.3-19-9.4V231h-16.2zm29.9-71.9c-5.4.2-10.5 2.8-13.8 7.1V188c3.3 4.3 8.4 6.8 13.8 7 9.2 0 15.5-7.3 15.5-17.9 1.1-8.7-5.1-16.7-13.8-17.8-.5-.2-1.1-.2-1.7-.2zm83.4 11.1c0-8.6-4.4-11.1-11.4-11.1-5.5.1-10.7 2.7-14 7.1v41.3h-16.2V123h16.2v31.4c5.4-6.2 13.3-9.7 21.6-9.5 13.5 0 20 7.3 20 19v43.5h-16.2v-37.2zm27.8-41.4c0-5.4 4.3-9.7 9.7-9.7 5.4 0 9.7 4.3 9.7 9.7 0 5.4-4.3 9.7-9.7 9.7-5.3-.1-9.6-4.4-9.7-9.7zm1.7 17.5h16.2v61.2h-16.2v-61.2zm58.1-1.6c9.4-.5 18.5 3.7 24.3 11.1l-10.5 9.8c-2.9-4.1-7.7-6.5-12.7-6.3-9-.2-16.5 7-16.7 16v1.7c-.8 9.1 6 17 15 17.8h1.7c5 0 9.7-2.3 12.7-6.3l10.6 9.4c-5.7 7.6-14.8 11.7-24.3 11.1-17.2.7-31.8-12.6-32.5-29.8v-2.5c-.6-17.2 12.8-31.5 30-32.2.8.2 1.6.2 2.4.2zm33.9 43.6c5.9 5.2 13.4 8.1 21.3 8.4 7 0 10.3-2.4 10.3-6.3 0-4-5.4-5.9-12.4-7.3-10.5-2.1-24.1-4.6-24.1-19 0-10.3 9-19 25.4-19 9-.1 17.7 2.8 24.8 8.4l-6.3 11.1c-4.9-4.6-11.4-7.1-18.1-7.1-5.9 0-9.7 2.2-9.7 5.7s4.8 5.2 11.7 6.3c10.5 2.1 24.6 4.8 24.6 20 0 11.1-9.5 19.7-26.5 19.7-10 .2-19.7-3.1-27.4-9.5l6.4-11.4z" class="st0"/></svg>