<svg xmlns="http://www.w3.org/2000/svg" id="Layer_1" viewBox="0 0 306.1 69.9" width="306.1" height="69.9"><style>.st0{fill-rule:evenodd;clip-rule:evenodd}.st0,.st1{fill:#999}</style><path id="YouTube__x28_alt_x29_" d="M95 17c0-7.4-6-13.5-13.5-13.5h-63C11 3.5 5 9.5 5 17v36c0 7.4 6 13.5 13.5 13.5h63.1C89 66.5 95 60.5 95 53V17zM41 50.2V16.3l25.7 16.9-25.7 17z" class="st0"/><path d="M103 35c0-11.4 8.6-19.2 19.5-19.2 8.4 0 13.2 4.4 15.8 9.1l-6.8 3.3c-1.6-3-4.9-5.4-9-5.4-6.4 0-11.3 5.2-11.3 12.2s4.9 12.2 11.3 12.2c4.1 0 7.4-2.3 9-5.4l6.8 3.3c-2.7 4.6-7.3 9.1-15.8 9.1-10.9 0-19.5-7.8-19.5-19.2zm56.8 2.2c0-3.7-1.9-4.9-5-4.9-2.7 0-4.9 1.6-6.1 3.2v18.1h-7.1V16.4h7.1v13.7c1.7-2.1 5.1-4.2 9.5-4.2 5.9 0 8.7 3.2 8.7 8.4v19.1h-7.1V37.2zm29.1 13.5c-1.8 2.2-5 3.4-8.5 3.4-4.3 0-9.3-2.9-9.3-8.9 0-6.3 5.1-8.6 9.3-8.6 3.6 0 6.7 1.1 8.5 3.3v-3.7c0-2.7-2.3-4.5-5.9-4.5-2.9 0-5.6 1.1-7.8 3.2l-2.7-4.7c3.3-2.9 7.5-4.2 11.7-4.2 6.1 0 11.7 2.4 11.7 10.2v17.3h-7.1v-2.8zm0-7c-1.2-1.6-3.4-2.3-5.7-2.3-2.8 0-5.1 1.4-5.1 4.1 0 2.5 2.3 3.9 5.1 3.9 2.3 0 4.5-.8 5.7-2.3v-3.4zm31.1-6.4c0-3.7-1.9-5-4.9-5-2.8 0-4.9 1.6-6.1 3.2v18.1h-7.1V26.7h7.1v3.5c1.7-2.1 5-4.2 9.4-4.2 5.9 0 8.7 3.3 8.7 8.6v19H220V37.3zm31 0c0-3.7-1.9-5-4.9-5-2.8 0-4.9 1.6-6.1 3.2v18.1h-7.1V26.7h7.1v3.5c1.7-2.1 5-4.2 9.4-4.2 5.9 0 8.7 3.3 8.7 8.6v19H251V37.3zM276.2 26c8 0 13.5 6 13.5 14.8v1.6h-20c.4 3.4 3.2 6.2 7.7 6.2 2.5 0 5.4-1 7.2-2.7l3.1 4.6c-2.7 2.4-6.9 3.7-11.1 3.7-8.2 0-14.3-5.5-14.3-14.1 0-7.8 5.7-14.1 13.9-14.1zm-6.7 11.6h13.2c-.2-2.6-1.9-5.9-6.6-5.9-4.3-.1-6.2 3.2-6.6 5.9zm24.1-21.2h7.1v37.1h-7.1V16.4z" class="st0"/><path d="M103 35c0-11.4 8.6-19.2 19.5-19.2 8.4 0 13.2 4.4 15.8 9.1l-6.8 3.3c-1.6-3-4.9-5.4-9-5.4-6.4 0-11.3 5.2-11.3 12.2s4.9 12.2 11.3 12.2c4.1 0 7.4-2.3 9-5.4l6.8 3.3c-2.7 4.6-7.3 9.1-15.8 9.1-10.9 0-19.5-7.8-19.5-19.2zm56.8 2.2c0-3.7-1.9-4.9-5-4.9-2.7 0-4.9 1.6-6.1 3.2v18.1h-7.1V16.4h7.1v13.7c1.7-2.1 5.1-4.2 9.5-4.2 5.9 0 8.7 3.2 8.7 8.4v19.1h-7.1V37.2zm29.1 13.5c-1.8 2.2-5 3.4-8.5 3.4-4.3 0-9.3-2.9-9.3-8.9 0-6.3 5.1-8.6 9.3-8.6 3.6 0 6.7 1.1 8.5 3.3v-3.7c0-2.7-2.3-4.5-5.9-4.5-2.9 0-5.6 1.1-7.8 3.2l-2.7-4.7c3.3-2.9 7.5-4.2 11.7-4.2 6.1 0 11.7 2.4 11.7 10.2v17.3h-7.1v-2.8zm0-7c-1.2-1.6-3.4-2.3-5.7-2.3-2.8 0-5.1 1.4-5.1 4.1 0 2.5 2.3 3.9 5.1 3.9 2.3 0 4.5-.8 5.7-2.3v-3.4zm31.1-6.4c0-3.7-1.9-5-4.9-5-2.8 0-4.9 1.6-6.1 3.2v18.1h-7.1V26.7h7.1v3.5c1.7-2.1 5-4.2 9.4-4.2 5.9 0 8.7 3.3 8.7 8.6v19H220V37.3zm31 0c0-3.7-1.9-5-4.9-5-2.8 0-4.9 1.6-6.1 3.2v18.1h-7.1V26.7h7.1v3.5c1.7-2.1 5-4.2 9.4-4.2 5.9 0 8.7 3.3 8.7 8.6v19H251V37.3zM276.2 26c8 0 13.5 6 13.5 14.8v1.6h-20c.4 3.4 3.2 6.2 7.7 6.2 2.5 0 5.4-1 7.2-2.7l3.1 4.6c-2.7 2.4-6.9 3.7-11.1 3.7-8.2 0-14.3-5.5-14.3-14.1 0-7.8 5.7-14.1 13.9-14.1zm-6.7 11.6h13.2c-.2-2.6-1.9-5.9-6.6-5.9-4.3-.1-6.2 3.2-6.6 5.9zm24.1-21.2h7.1v37.1h-7.1V16.4z" class="st1"/></svg>