<svg xmlns="http://www.w3.org/2000/svg" id="Layer_1" width="1000" height="231" viewBox="0 0 1000 231"><defs><style>.cls-1{fill:#026937}.cls-2{fill:#77bc1f}</style></defs><path d="M225 104.7v.6a61.744 61.744 0 0 0 59.8 63.5h2.4v44.4a108.63 108.63 0 0 1-82.5-36.3l14 32.8h-50.3L151.9 167H65.5l-16.2 43H0l18.2-42.8a897.213 897.213 0 0 1 159.4-53.6v-6.9C177.7 47.9 223.7 0 287.3 0v41.9a61.276 61.276 0 0 0-62.4 60 8.784 8.784 0 0 0 .1 2.8zm-54.3-7.6c-13.6 1.9-28.2 4-43.3 6.3l-18.7-48.2-21.3 55.2c-16.5 3-33.2 6.3-49.5 10L88.4 2.1h41.9z" class="cls-1"/><path d="M363.5 209.6V3.5h9.5v206.3h-9.7z" class="cls-2"/><path d="M449.2 46A42.862 42.862 0 0 1 491 2.2h2.5a39.227 39.227 0 0 1 36 20.6L514 30.5a23.242 23.242 0 0 0-20.6-12.4 26.273 26.273 0 0 0-25.9 26.7v1.1a26.37 26.37 0 0 0 24.8 27.8h1.1A22.723 22.723 0 0 0 514 61.3l15.5 7.5a39.272 39.272 0 0 1-36 21.1 42.827 42.827 0 0 1-44.4-41.3 20.12 20.12 0 0 0 .1-2.6zm84.5 11.6A32.4 32.4 0 1 1 566.1 90a32.456 32.456 0 0 1-32.4-32.4zm48.1 0a15.728 15.728 0 1 0-31.2-4 13.408 13.408 0 0 0 0 4 15.728 15.728 0 1 0 31.2 4 26.694 26.694 0 0 0 0-4zM684 49.5c0-5.7-2.5-9.8-9.2-9.8a16.6 16.6 0 0 0-12.7 7.1v41.4h-16.2V49.5c0-5.7-2.5-9.8-9.2-9.8A16.527 16.527 0 0 0 624 47v41.3h-16.2V27H624v7.9a27.073 27.073 0 0 1 20-9.5 16.302 16.302 0 0 1 17 11.1 25.548 25.548 0 0 1 21.1-11.1 16.469 16.469 0 0 1 18.1 14.4 14.082 14.082 0 0 1 0 4.1v44.4H684zm29.6 62.2V27h16.2v7.8a23.394 23.394 0 0 1 19-9.2c15.7 0 27.1 11.7 27.1 32s-11.4 32.5-27.3 32.5a22.65 22.65 0 0 1-19-9.4V112zm29.9-71.9a18.19 18.19 0 0 0-13.8 7v21.7a18.19 18.19 0 0 0 13.8 7c9.2 0 15.5-7.3 15.5-17.9A15.808 15.808 0 0 0 745 40a3.416 3.416 0 0 0-1.5-.2zm83.2 40.8a28.439 28.439 0 0 1-21.6 9.2 17.576 17.576 0 0 1-19.7-15.1 13.389 13.389 0 0 1 0-4V27h16.2v37.1a9.653 9.653 0 0 0 8.1 11.3 8.608 8.608 0 0 0 3.2 0 18.758 18.758 0 0 0 14-7V27h15.9v61.2h-16.2zm32.7-7.6V41.3H849V27h10.2V10.2h16.2V27H888v14.1h-12.7v27.6c0 3.8 2.1 6.7 5.6 6.7a9.752 9.752 0 0 0 5.6-1.7l3.5 12.2a20.18 20.18 0 0 1-13.5 4 15.303 15.303 0 0 1-17.1-13.3 21.627 21.627 0 0 1 0-3.6zm64.9-47.6c18.2 0 30.8 13.6 30.8 33.8v3.5h-45.5A16.524 16.524 0 0 0 927.2 77a26.025 26.025 0 0 0 16.3-6.3l7 10.6a39.175 39.175 0 0 1-25.4 8.9A30.988 30.988 0 0 1 892.4 61v-3a31.2 31.2 0 0 1 30-32.4 6.479 6.479 0 0 1 1.9-.2zM909.2 52h30.1a14.202 14.202 0 0 0-14.8-13.6h-.3a14.926 14.926 0 0 0-15 13.6zm55.1-25h16.2v8.4a26.532 26.532 0 0 1 19.5-9.8v15.7a19.868 19.868 0 0 0-19.5 6.3v40.5h-16.2zm-469.9 94.8a39.873 39.873 0 0 1 35.1 18.6l-14.9 8.1a24.011 24.011 0 0 0-20-10.6 26.164 26.164 0 0 0-26.5 26.2v1.6a26.465 26.465 0 0 0 24.9 27.8h1.6a28.735 28.735 0 0 0 18.2-6.3v-10.8h-22.5v-15.5h40.3v32.4a46.977 46.977 0 0 1-36 16 43.8 43.8 0 0 1 0-87.6v.3h-.2zm47.4 24.5H558v8.4a26.532 26.532 0 0 1 19.5-9.8v15.7a19.868 19.868 0 0 0-19.5 6.3v40.5h-16.2zm80.1 54.9a26.176 26.176 0 0 1-19.4 7.9 20.444 20.444 0 0 1-21.3-19.5v-.8a19.377 19.377 0 0 1 19.2-19.7 7.844 7.844 0 0 1 2.1.2 24.282 24.282 0 0 1 19.4 7.5v-8.6c0-6.3-5.4-10.3-13.5-10.3a24.93 24.93 0 0 0-17.9 7.3l-6.3-10.8a41.091 41.091 0 0 1 26.8-9.7c14 0 26.8 5.6 26.8 23.2v39.7h-15.9v-6.4zm0-15.9a16.17 16.17 0 0 0-12.7-5.4c-6.3 0-11.6 3.3-11.6 9.2s4.9 8.9 11.3 8.9a15.851 15.851 0 0 0 12.7-5.4zm29.5 45.7v-84.7h16.2v7.8a23.394 23.394 0 0 1 19-9.2c15.7 0 27.1 11.7 27.1 32s-11.4 32.2-27.1 32.2a22.65 22.65 0 0 1-19-9.4V231zm29.9-71.9a18.618 18.618 0 0 0-13.8 7.1V188a18.19 18.19 0 0 0 13.8 7c9.2 0 15.5-7.3 15.5-17.9a15.96 15.96 0 0 0-13.8-17.8 4.678 4.678 0 0 0-1.7-.2zm83.4 11.1c0-8.6-4.4-11.1-11.4-11.1a17.905 17.905 0 0 0-14 7.1v41.3h-16.2V123h16.2v31.4a27.734 27.734 0 0 1 21.6-9.5c13.5 0 20 7.3 20 19v43.5h-16.2v-37.2zm27.8-41.4a9.7 9.7 0 1 1 9.7 9.7 9.908 9.908 0 0 1-9.7-9.7zm1.7 17.5h16.2v61.2h-16.2zm58.1-1.6a28.884 28.884 0 0 1 24.3 11.1l-10.5 9.8a14.777 14.777 0 0 0-12.7-6.3 16.392 16.392 0 0 0-16.7 16v1.7a16.48 16.48 0 0 0 15.1 17.8h1.6a15.962 15.962 0 0 0 12.7-6.3l10.6 9.4a28.018 28.018 0 0 1-24.3 11.1 31.175 31.175 0 0 1-32.5-29.8v-2.5a31.218 31.218 0 0 1 30-32.2 9.739 9.739 0 0 0 2.4.2zm33.9 43.6a34.357 34.357 0 0 0 21.3 8.4c7 0 10.3-2.4 10.3-6.3 0-4-5.4-5.9-12.4-7.3-10.5-2.1-24.1-4.6-24.1-19 0-10.3 9-19 25.4-19a38.967 38.967 0 0 1 24.8 8.4l-6.3 11.1a26.436 26.436 0 0 0-18.1-7.1c-5.9 0-9.7 2.2-9.7 5.7s4.8 5.2 11.7 6.3c10.5 2.1 24.6 4.8 24.6 20 0 11.1-9.5 19.7-26.5 19.7a41.42 41.42 0 0 1-27.4-9.5z" class="cls-1"/></svg>