<svg xmlns="http://www.w3.org/2000/svg" fill-rule="evenodd" stroke-linejoin="round" stroke-miterlimit="1.41" clip-rule="evenodd" viewBox="0 0 1000 96" width="1000" height="96"><path fill="#00673f" fill-rule="nonzero" d="M98.9 46.1c-.014.354-.021.708-.021 1.063 0 14.581 11.747 26.692 26.321 27.137h1.1v19.6A47.198 47.198 0 0 1 90 78l6.1 14.5H74l-7.3-18.7h-38l-7.3 19H0l7.8-19a387.616 387.616 0 0 1 70.1-23.5v-3.1C78.2 21.2 98.3 0 126.3 0v18.4c-14.77-.106-27.068 11.833-27.4 26.6v1.1zm-23.8-3.4c-5.9.8-12.3 1.7-19 2.8L48 24.3l-9.5 24.3C31.3 50 24 51.4 16.8 53.1l22.3-52h18.4l17.6 41.6z"/><path fill="#fff" fill-rule="nonzero" d="M160.1 1.7h4.2v90.8h-4.2z"/><path fill="#00673f" fill-rule="nonzero" d="M200.8 46.4c0-19.6 14.8-32.7 33.2-32.7 11.158-.557 21.663 5.479 26.8 15.4l-11.5 5.6a17.624 17.624 0 0 0-15.4-9.2c-11.2 0-19.6 8.9-19.6 20.7 0 11.8 8.4 20.7 19.6 20.7a17.74 17.74 0 0 0 15.4-9.2l11.5 5.6c-5.243 9.991-15.828 16.084-27.1 15.6-18.1.2-32.9-13.3-32.9-32.5zM264 55c.426-13.031 11.262-23.518 24.3-23.518S312.174 41.969 312.6 55c-.426 13.031-11.262 23.518-24.3 23.518S264.426 68.031 264 55zm36 0c0-7-4.2-13.4-11.7-13.4-7.5 0-11.7 6.1-11.7 13.4 0 7.3 4.2 13.4 11.7 13.4 7.2 0 11.7-6.4 11.7-13.4zm76.5-6.1c0-4.2-2-7.3-6.7-7.3a12.672 12.672 0 0 0-9.5 5.3v31H348v-29c0-4.2-2-7.3-6.7-7.3a12.672 12.672 0 0 0-9.5 5.3v30.7h-12V32.1h12V38a19.24 19.24 0 0 1 15.1-7c6.7 0 10.9 3.1 12.8 8.4a19.788 19.788 0 0 1 15.6-8.4c8.4 0 13.4 4.5 13.4 14v33h-12.3l.1-29.1zm22.1 46.6V32.1h12V38a17.772 17.772 0 0 1 14.2-7c11.7 0 20.4 8.7 20.4 24s-8.7 24-20.4 24a17.492 17.492 0 0 1-14.2-7v23.5h-12zm22.3-53.9a12.754 12.754 0 0 0-10.3 5.3v16.2a14.877 14.877 0 0 0 10.3 5.3c7 0 11.5-5.3 11.5-13.4 0-8.1-4.5-13.4-11.5-13.4zm62.3 30.5a22.179 22.179 0 0 1-16.2 7c-10.1 0-14.8-5.6-14.8-14.5V32.1h12V60c0 6.4 3.4 8.4 8.4 8.4a12.754 12.754 0 0 0 10.3-5.3v-31h12v45.8h-11.7v-5.8zm24.6-5.6v-24H500V31.8h7.5V19.6h12.3v12.6h9.2v10.6h-9.2v20.7c0 2.8 1.4 5 4.2 5a7.812 7.812 0 0 0 4.2-1.4l2.5 9.2a14.32 14.32 0 0 1-10.1 2.8c-8.3 0-12.8-4.5-12.8-12.6zM556.4 31c13.7 0 22.9 10.3 22.9 25.1v2.8h-34.1c.847 6.418 6.647 11.111 13.1 10.6a19.58 19.58 0 0 0 12.3-4.5l5.3 7.8a28.778 28.778 0 0 1-19 6.4c-14 0-24.6-9.5-24.6-24-.334-12.765 9.838-23.567 22.6-24 .485-.152.992-.22 1.5-.2zm-11.1 19.6h22.6c-.326-5.832-5.366-10.377-11.2-10.1a10.399 10.399 0 0 0-.769-.028c-5.645 0-10.358 4.49-10.631 10.128zM586 32.1h12v6.1a18.79 18.79 0 0 1 14.5-7.3v11.7c-5.3-1.1-11.2.6-14.5 4.7v30.4h-12V32.1zm85.8-18.4a30.036 30.036 0 0 1 26.3 14l-11.2 5.9a18.172 18.172 0 0 0-15.1-8.1c-11.5 0-19.8 8.9-19.8 20.7 0 11.8 8.4 20.7 19.8 20.7a22.494 22.494 0 0 0 13.7-4.7v-7.8h-16.8V42.5h30.2V67a35.715 35.715 0 0 1-27.1 12C653.4 79 638 66.2 638 46s15.1-32.3 33.8-32.3zm35.5 18.4h12v6.1a18.79 18.79 0 0 1 14.5-7.3v11.7c-5.3-1.1-11.2.6-14.5 4.7v30.4h-12V32.1zM767 73.2a18.808 18.808 0 0 1-14.5 5.9c-.234.011-.468.016-.702.016-8.083 0-14.827-6.441-15.198-14.516V64c0-10.6 8.7-14.5 15.9-14.5a19.047 19.047 0 0 1 14.5 5.6v-6.4c0-4.7-3.9-7.8-10.1-7.8a19.994 19.994 0 0 0-13.4 5.3l-4.5-8.1a31.044 31.044 0 0 1 20.1-7.3c10.3 0 20.1 4.2 20.1 17.3v29.6h-12v-4.5h-.2zm0-12a11.788 11.788 0 0 0-9.8-3.9c-4.7 0-8.7 2.5-8.7 7s3.9 6.7 8.7 6.7a11.906 11.906 0 0 0 9.8-3.9v-5.9zm22.4 34.3V32.1h12V38a17.772 17.772 0 0 1 14.2-7c11.7 0 20.4 8.7 20.4 24s-8.7 24-20.4 24a17.492 17.492 0 0 1-14.2-7v23.5h-12zm22.3-53.9a12.754 12.754 0 0 0-10.3 5.3v16.2a14.877 14.877 0 0 0 10.3 5.3c7 0 11.5-5.3 11.5-13.4 0-8.1-4.5-13.4-11.5-13.4zm62 8.4c0-6.4-3.4-8.4-8.7-8.4a12.347 12.347 0 0 0-10.3 5.3v30.7h-12V14.5h12V38a20.439 20.439 0 0 1 16.2-7c10.1 0 14.8 5.6 14.8 14.5v32.4h-12V50zM895 19c0-4.005 3.295-7.3 7.3-7.3s7.3 3.295 7.3 7.3c-.092 3.969-3.331 7.208-7.3 7.3-4.3-.3-7.3-3.4-7.3-7.3zm1.1 13.1h12v45.8h-12V32.1zm43.6-1.1a22.734 22.734 0 0 1 18.2 8.1l-7.8 7.3a11.338 11.338 0 0 0-9.8-5c-7.3 0-12.6 5.3-12.6 13.4 0 8.1 5 13.4 12.6 13.4a11.698 11.698 0 0 0 9.8-5l7.8 7.3a21.75 21.75 0 0 1-18.2 8.4c-12.766.501-23.706-9.538-24.3-22.3v-2a22.913 22.913 0 0 1-.024-1.049c0-12.355 9.973-22.609 22.324-22.951a3.605 3.605 0 0 0 2 .4zm25.4 32.4a26.318 26.318 0 0 0 15.9 6.4c5.3 0 7.8-1.7 7.8-4.7 0-3.1-3.9-4.5-9.2-5.3-7.8-1.4-18.2-3.4-18.2-14.2 0-7.8 6.7-14.5 18.7-14.5a31.022 31.022 0 0 1 18.4 6.1l-4.7 8.4a20.258 20.258 0 0 0-13.7-5.3c-4.5 0-7.3 1.7-7.3 4.2s3.6 3.9 8.7 5c7.8 1.4 18.4 3.6 18.4 15.1 0 8.4-7 14.8-19.8 14.8a29.53 29.53 0 0 1-20.4-7l5.4-9z"/></svg>