<svg xmlns="http://www.w3.org/2000/svg" width="979.4" height="1107.7" viewBox="0 0 979.4 1107.7"><path fill="#94c947" d="M571.3 244.9H448.8v40.9h122.5zm0 81.6H448.8v40.9h122.5zM510 648.8c-65.3 0-114.2-36.7-97.9-101.9l36.7-138.8h122.5L608 546.9c16.3 65.3-32.7 101.9-98 101.9zm61.3-77.5c0-53-122.5-53-122.5 0s122.5 53.1 122.5 0zM248.8 81.6c57.2 65.3 106.1 122.5 200 122.5h448.8v530.4h-816V81.6zM285.6 0H0v816h979.4V122.5H449c-69.5 0-94.1-44.9-163.4-122.5z"/><path fill="#00673e" d="M77.6 932.6l40-55.1h-40v-12.1h57.9v11.2l-40.1 55.1h40.9v12.1H77.6zm65.8-62.6a7.6 7.6 0 1 1 7.6 7.6 7.7 7.7 0 0 1-7.6-7.6zm1.5 17h12.3v56.8h-12.3zm23.6 78.4V887h12.3v7.8a22.9 22.9 0 0 1 18.2-9.2c14.7 0 25.2 11.1 25.2 29.7s-10.5 29.9-25.2 29.9a22.4 22.4 0 0 1-18.2-9.3v29.5zm26.9-68.8c-5.8 0-11.9 3.4-14.6 7.6v22.4a18.8 18.8 0 0 0 14.6 7.7c9.7 0 16-7.9 16-19s-6.3-18.7-16-18.7zm32.1 13.5h28.1v10.5h-28.1zm60.8-24.5c11 0 17.7 4.7 21.7 10.1l-8.1 7.5a15.2 15.2 0 0 0-13-6.6c-10.4 0-17.2 7.7-17.2 18.7s6.8 19 17.2 19a15.5 15.5 0 0 0 13-6.7l8.1 7.5c-4 5.4-10.7 10.1-21.7 10.1-17.3 0-29.4-12.6-29.4-29.9s12.1-29.7 29.4-29.7zm24.3 29.7c0-16.2 11.2-29.7 29.1-29.7s29.3 13.5 29.3 29.7-11.1 29.9-29.3 29.9-29.1-13.5-29.1-29.9zm45.6 0c0-9.9-5.9-18.7-16.5-18.7s-16.3 8.8-16.3 18.7 5.9 19 16.3 19 16.5-8.9 16.5-19zm90-8.5c0-6.1-2.7-10.2-9.2-10.2s-10.7 3.8-13.2 7.5v39.7h-12.3v-37c0-6.1-2.7-10.2-9.4-10.2s-10.5 3.8-13 7.6v39.6h-12.4V887h12.4v7.8c2.3-3.5 9.8-9.2 18.4-9.2s13.6 4.3 15.5 10.5a24 24 0 0 1 19.3-10.5c10.4 0 16.3 5.7 16.3 17.2v41h-12.4zm23.7 58.6V887h12.3v7.8a22.7 22.7 0 0 1 18.2-9.2c14.7 0 25.1 11.1 25.1 29.7s-10.4 29.9-25.1 29.9a22.3 22.3 0 0 1-18.2-9.3v29.5zm26.8-68.8c-5.7 0-11.8 3.4-14.5 7.6v22.4a18.8 18.8 0 0 0 14.5 7.7c9.8 0 16-7.9 16-19s-6.2-18.7-16-18.7zm36.6-9.6h12.3v8.4c4.2-5.4 11-9.7 18.4-9.7V898a13.8 13.8 0 0 0-3.8-.4c-5.2 0-12.1 3.5-14.6 7.5v38.7h-12.3zm61.3-1.4c17 0 27.9 13.1 27.9 30.9v3h-43.8c1 8.5 7.4 15.6 18.1 15.6 5.5 0 12.1-2.3 16.1-6.3l5.6 8.2c-5.6 5.4-13.9 8.2-23 8.2-17 0-29.7-11.9-29.7-29.9 0-16.4 12-29.7 28.8-29.7zm-16 25.2h31.9c-.2-6.7-4.8-15.1-15.9-15.1s-15.4 8.1-16 15.1zm52.1 16.6a29.5 29.5 0 0 0 19.3 8c7.4 0 11.2-2.7 11.2-6.9s-6-6.7-13-8.2c-9.7-2.1-21.3-4.7-21.3-17.4 0-9.3 8-17.3 22.3-17.3a32.5 32.5 0 0 1 22.1 8l-5.2 8.7c-3.4-3.9-9.7-6.8-16.8-6.8s-10.6 2.3-10.6 6.3 5.7 5.9 12.4 7.4c9.8 2.1 21.9 5 21.9 18.4 0 9.9-8.3 17.6-23.6 17.6-9.6 0-18.4-3.1-24.3-8.8zm50.8 0a29.2 29.2 0 0 0 19.2 8c7.4 0 11.2-2.7 11.2-6.9s-6-6.7-12.9-8.2c-9.8-2.1-21.4-4.7-21.4-17.4 0-9.3 8-17.3 22.3-17.3 9.7 0 16.9 3.4 22.1 8l-5.2 8.7c-3.4-3.9-9.7-6.8-16.8-6.8s-10.5 2.3-10.5 6.3 5.6 5.9 12.3 7.4c9.9 2.1 22 5 22 18.4 0 9.9-8.4 17.6-23.6 17.6-9.7 0-18.5-3.1-24.4-8.8zm78 3.2v-32.8h-9.4V887h9.4v-15.5h12.3V887h11.5v10.8h-11.5v29.8c0 3.8 1.9 6.7 5.4 6.7a8.2 8.2 0 0 0 5.5-2l3 9.2c-2.3 2.1-5.9 3.7-11.7 3.7-9.5 0-14.5-5.2-14.5-14.6zm68.7-22.5c0-8.8-4.6-11.5-11.5-11.5a18.8 18.8 0 0 0-14.6 7.6v39.6h-12.3v-78.4h12.3v29.4a27.2 27.2 0 0 1 20.1-9.2c12.2 0 18.3 6.4 18.3 18v40.2h-12.3zm48.8-22.5c17.1 0 28 13.1 28 30.9v3h-43.8c.9 8.5 7.4 15.6 18.1 15.6 5.5 0 12.1-2.3 16-6.3l5.7 8.2c-5.7 5.4-14 8.2-23 8.2-17.1 0-29.8-11.9-29.8-29.9 0-16.4 12-29.7 28.8-29.7zm-16 25.2h32c-.2-6.7-4.8-15.1-16-15.1s-15.4 8.1-16 15.1zM94.2 1069.7H57.1l-5.8 15h-15l30.8-78.3h17.1l30.8 78.3h-15zM61 1057.6h29.3L75.7 1018zm58.2 10.8a29.5 29.5 0 0 0 19.3 8c7.4 0 11.1-2.7 11.1-7s-5.9-6.7-12.9-8.2c-9.7-2.1-21.3-4.7-21.3-17.4 0-9.3 7.9-17.2 22.3-17.2 9.6 0 16.9 3.4 22 7.9l-5.1 8.7c-3.4-3.8-9.8-6.8-16.8-6.8s-10.6 2.4-10.6 6.4 5.7 5.8 12.3 7.4c9.9 2.1 22 4.9 22 18.3 0 10-8.3 17.6-23.6 17.6-9.6 0-18.4-3-24.3-8.8zm50.8 0a29.2 29.2 0 0 0 19.2 8c7.4 0 11.2-2.7 11.2-7s-6-6.7-12.9-8.2c-9.8-2.1-21.4-4.7-21.4-17.4 0-9.3 8-17.2 22.3-17.2a33 33 0 0 1 22.1 7.9l-5.2 8.7c-3.4-3.8-9.7-6.8-16.8-6.8s-10.5 2.4-10.5 6.4 5.6 5.8 12.3 7.4c9.8 2.1 21.9 4.9 21.9 18.3 0 10-8.3 17.6-23.6 17.6-9.6 0-18.4-3-24.3-8.8zm48.5-57.5a7.6 7.6 0 1 1 7.6 7.7 7.7 7.7 0 0 1-7.6-7.7zm1.5 17.1h12.3v56.7H220zm28.7 62.3c4.5 5.3 10.4 7.3 17.9 7.3s16.8-3.7 16.8-15.4v-6.8a22.8 22.8 0 0 1-18.2 9.4c-14.4 0-25.1-10.4-25.1-29.1s10.5-29.1 25.1-29.1a22.7 22.7 0 0 1 18.2 9.2v-7.8h12.3v53.8c0 20.4-15.1 25.9-29.1 25.9-9.6 0-16.8-2.1-23.7-8.4zm34.7-45.2c-2.7-4.2-8.8-7.6-14.5-7.6-9.8 0-16 7.3-16 18.2s6.2 18.2 16 18.2c5.7 0 11.8-3.4 14.5-7.6zm61.9 4.1c0-8.8-4.5-11.7-11.4-11.7a18.5 18.5 0 0 0-14.5 7.6v39.6H307V1028h12.4v7.7a26.8 26.8 0 0 1 19.9-9.1c12.2 0 18.3 6.5 18.3 18.2v39.9h-12.3zm93.1-1.5c0-6.1-2.7-10.2-9.2-10.2s-10.7 3.9-13.2 7.5v39.7h-12.3v-37c0-6.1-2.7-10.2-9.4-10.2s-10.5 3.9-13.1 7.6v39.6h-12.3V1028h12.3v7.7c2.4-3.5 9.9-9.1 18.5-9.1s13.6 4.2 15.5 10.4a23.9 23.9 0 0 1 19.2-10.4c10.5 0 16.4 5.6 16.4 17.1v41h-12.4zm48.9-21.1c17 0 27.9 13 27.9 30.9v2.9h-43.8c1 8.6 7.4 15.6 18.1 15.6 5.5 0 12.1-2.2 16.1-6.2l5.7 8.1c-5.7 5.4-14 8.2-23.1 8.2-17 0-29.7-11.9-29.7-29.8s12-29.7 28.8-29.7zm-16 25.1h32c-.3-6.7-4.8-15-16-15s-15.4 8.1-16 15zm89.7-2.5c0-8.8-4.4-11.7-11.3-11.7a18.5 18.5 0 0 0-14.6 7.6v39.6h-12.3V1028h12.3v7.7a27.1 27.1 0 0 1 20-9.1c12.2 0 18.3 6.5 18.3 18.2v39.9H561zm26.1 22.3v-32.7h-9.4V1028h9.4v-15.5h12.4v15.5H611v10.8h-11.5v29.7c0 3.9 1.8 6.7 5.4 6.7a8.4 8.4 0 0 0 5.5-2l2.9 9.3c-2.2 2.1-5.9 3.6-11.6 3.6-9.5 0-14.6-5.2-14.6-14.6zm56.2-65.1h53.6v12.1H657v20.3h39.1v12.1H657v33.8h-13.7zm57.4 49.9c0-16.2 11.1-29.7 29.1-29.7s29.3 13.5 29.3 29.7-11.1 29.8-29.3 29.8-29.1-13.5-29.1-29.8zm45.6 0c0-10-5.9-18.8-16.5-18.8s-16.3 8.8-16.3 18.8 5.9 18.9 16.3 18.9 16.5-8.8 16.5-18.9zm20.5-49.9h12.3v78.3h-12.3zm63.5 70.5a22.7 22.7 0 0 1-18.2 9.2c-14.5 0-25.2-11-25.2-29.7s10.6-29.8 25.2-29.8a22.7 22.7 0 0 1 18.2 9.2v-29.4h12.4v78.3h-12.4zm0-31.8a18.6 18.6 0 0 0-14.6-7.6c-9.8 0-16 7.9-16 18.9s6.2 18.8 16 18.8c5.8 0 11.8-3.3 14.6-7.5zm48.9-18.5c17 0 28 13 28 30.9v2.9h-43.9c1 8.6 7.4 15.6 18.1 15.6 5.6 0 12.1-2.2 16.1-6.2l5.7 8.1c-5.7 5.4-14 8.2-23.1 8.2-17 0-29.7-11.9-29.7-29.8s12-29.7 28.8-29.7zm-16 25.1h32c-.3-6.7-4.8-15-16-15s-15.4 8.1-16 15zm51.5-23.7H927v8.3c4.2-5.4 11-9.6 18.4-9.6v12.2a19.2 19.2 0 0 0-3.8-.4c-5.2 0-12.1 3.6-14.6 7.6v38.6h-12.3z"/></svg>