<svg xmlns="http://www.w3.org/2000/svg" width="970.4" height="1120.4" viewBox="0 0 970.4 1120.4"><title>photoshop-document</title><g id="Layer_2" data-name="Layer 2"><g id="Layer_1-2" data-name="Layer 1"><path d="M103.9,966.9l40.1-55H103.9V899.8h57.9v11.1l-40,55.1h40.9v12.1H103.9Z" transform="translate(-8.3)" fill="#00673e"/><path d="M169.7,904.3a7.7,7.7,0,1,1,7.6,7.7A7.7,7.7,0,0,1,169.7,904.3Zm1.5,17.1h12.4v56.7H171.2Z" transform="translate(-8.3)" fill="#00673e"/><path d="M194.8,999.7V921.4h12.4v7.7a22.6,22.6,0,0,1,18.2-9.1c14.7,0,25.1,11,25.1,29.7s-10.4,29.8-25.1,29.8a22.2,22.2,0,0,1-18.2-9.3v29.5Zm26.9-68.8c-5.7,0-11.8,3.4-14.5,7.6V961c2.7,4.1,8.8,7.6,14.5,7.6,9.8,0,16-7.9,16-18.9S231.5,930.9,221.7,930.9Z" transform="translate(-8.3)" fill="#00673e"/><path d="M253.8,944.4H282V955H253.8Z" transform="translate(-8.3)" fill="#00673e"/><path d="M314.6,920c11.1,0,17.8,4.7,21.8,10.1l-8.1,7.5a15.2,15.2,0,0,0-13.1-6.7c-10.3,0-17.1,7.7-17.1,18.8s6.8,18.9,17.1,18.9a15.7,15.7,0,0,0,13.1-6.7l8.1,7.5c-4,5.4-10.7,10.1-21.8,10.1-17.2,0-29.3-12.6-29.3-29.8S297.4,920,314.6,920Z" transform="translate(-8.3)" fill="#00673e"/><path d="M338.9,949.7c0-16.2,11.2-29.7,29.2-29.7s29.2,13.5,29.2,29.7-11,29.8-29.2,29.8S338.9,966,338.9,949.7Zm45.6,0c0-10-5.9-18.8-16.4-18.8s-16.4,8.8-16.4,18.8,5.9,18.9,16.4,18.9S384.5,959.8,384.5,949.7Z" transform="translate(-8.3)" fill="#00673e"/><path d="M474.6,941.1c0-6.1-2.7-10.2-9.3-10.2s-10.7,3.9-13.1,7.5v39.7H439.8v-37c0-6.1-2.7-10.2-9.4-10.2s-10.4,3.9-13,7.6v39.6H405.1V921.4h12.3v7.7c2.3-3.5,9.9-9.1,18.4-9.1s13.7,4.2,15.5,10.4A24.2,24.2,0,0,1,470.6,920c10.4,0,16.3,5.6,16.3,17.1v41H474.6Z" transform="translate(-8.3)" fill="#00673e"/><path d="M498.2,999.7V921.4h12.3v7.7a22.8,22.8,0,0,1,18.2-9.1c14.7,0,25.2,11,25.2,29.7s-10.5,29.8-25.2,29.8a22.4,22.4,0,0,1-18.2-9.3v29.5Zm26.9-68.8c-5.8,0-11.9,3.4-14.6,7.6V961c2.7,4.1,8.8,7.6,14.6,7.6,9.7,0,16-7.9,16-18.9S534.8,930.9,525.1,930.9Z" transform="translate(-8.3)" fill="#00673e"/><path d="M561.6,921.4h12.3v8.3c4.3-5.4,11.1-9.6,18.5-9.6v12.2a21.3,21.3,0,0,0-3.9-.4c-5.2,0-12.1,3.6-14.6,7.6v38.6H561.6Z" transform="translate(-8.3)" fill="#00673e"/><path d="M622.9,920c17,0,28,13,28,30.9v2.9H607.1c.9,8.6,7.4,15.6,18,15.6,5.6,0,12.1-2.2,16.1-6.2l5.7,8.1c-5.7,5.4-14,8.2-23,8.2-17.1,0-29.8-11.8-29.8-29.8C594.1,933.2,606.1,920,622.9,920Zm-16,25.1h32c-.2-6.7-4.8-15-16-15S607.5,938.2,606.9,945.1Z" transform="translate(-8.3)" fill="#00673e"/><path d="M659.1,961.8a29.2,29.2,0,0,0,19.2,8c7.4,0,11.2-2.7,11.2-7s-6-6.7-12.9-8.2c-9.8-2.1-21.4-4.7-21.4-17.4,0-9.2,8-17.2,22.3-17.2,9.7,0,16.9,3.4,22.1,8l-5.2,8.6c-3.4-3.8-9.7-6.8-16.8-6.8s-10.5,2.4-10.5,6.4,5.6,5.8,12.3,7.4c9.9,2.1,22,4.9,22,18.3,0,10-8.4,17.6-23.6,17.6-9.7,0-18.5-3-24.4-8.8Z" transform="translate(-8.3)" fill="#00673e"/><path d="M709.8,961.8a29.5,29.5,0,0,0,19.3,8c7.4,0,11.1-2.7,11.1-7s-6-6.7-12.9-8.2c-9.7-2.1-21.4-4.7-21.4-17.4,0-9.2,8-17.2,22.4-17.2,9.6,0,16.9,3.4,22,8l-5.1,8.6c-3.4-3.8-9.8-6.8-16.8-6.8s-10.6,2.4-10.6,6.4,5.6,5.8,12.3,7.4c9.9,2.1,22,4.9,22,18.3,0,10-8.3,17.6-23.6,17.6-9.6,0-18.4-3-24.3-8.8Z" transform="translate(-8.3)" fill="#00673e"/><path d="M785.1,920c17,0,28,13,28,30.9v2.9H769.2c1,8.6,7.4,15.6,18.1,15.6,5.6,0,12.1-2.2,16.1-6.2l5.7,8.1c-5.7,5.4-14,8.2-23.1,8.2-17,0-29.7-11.8-29.7-29.8C756.3,933.2,768.3,920,785.1,920Zm-16,25.1h32c-.3-6.7-4.8-15-16-15S769.7,938.2,769.1,945.1Z" transform="translate(-8.3)" fill="#00673e"/><path d="M860.5,970.4a22.9,22.9,0,0,1-18.2,9.1c-14.6,0-25.3-11-25.3-29.7S827.6,920,842.3,920a23,23,0,0,1,18.2,9.2V899.8h12.3v78.3H860.5Zm0-31.9a18.7,18.7,0,0,0-14.7-7.6c-9.7,0-16,7.9-16,18.9s6.3,18.8,16,18.8c5.9,0,11.9-3.3,14.7-7.5Z" transform="translate(-8.3)" fill="#00673e"/><path d="M8.3,1040.7H22.1V1119H8.3Z" transform="translate(-8.3)" fill="#00673e"/><path d="M33.7,1040.7H46V1119H33.7Z" transform="translate(-8.3)" fill="#00673e"/><path d="M57.3,1040.7H69.6V1119H57.3Z" transform="translate(-8.3)" fill="#00673e"/><path d="M119.2,1111.5a27.2,27.2,0,0,1-20.1,8.9c-12.2,0-18.2-6.3-18.2-17.9v-40.2H93.2V1098c0,8.8,4.5,11.5,11.4,11.5a18.7,18.7,0,0,0,14.6-7.4v-39.8h12.3V1119H119.2Z" transform="translate(-8.3)" fill="#00673e"/><path d="M143.5,1102.7a29.5,29.5,0,0,0,19.3,8c7.4,0,11.1-2.7,11.1-6.9s-6-6.7-12.9-8.3c-9.7-2.1-21.4-4.6-21.4-17.3,0-9.3,8-17.3,22.4-17.3,9.6,0,16.9,3.4,22,8l-5.1,8.7c-3.4-3.9-9.8-6.8-16.8-6.8s-10.6,2.3-10.6,6.3,5.6,5.9,12.3,7.4c9.9,2.1,22,4.9,22,18.3,0,10-8.3,17.6-23.6,17.6-9.6,0-18.4-3-24.3-8.8Z" transform="translate(-8.3)" fill="#00673e"/><path d="M196,1105.9v-32.8h-9.4v-10.8H196v-15.5h12.3v15.5h11.6v10.8H208.3v29.7c0,3.9,1.9,6.7,5.4,6.7a8,8,0,0,0,5.6-2l2.9,9.3c-2.2,2.1-5.9,3.6-11.6,3.6C201.1,1120.4,196,1115.3,196,1105.9Z" transform="translate(-8.3)" fill="#00673e"/><path d="M226.3,1062.3h12.3v8.4c4.3-5.5,11.1-9.7,18.5-9.7v12.2a22.1,22.1,0,0,0-3.9-.3c-5.2,0-12.1,3.5-14.6,7.5V1119H226.3Z" transform="translate(-8.3)" fill="#00673e"/><path d="M297,1112.9c-4.2,4.8-10.8,7.5-18.3,7.5-9.3,0-19.7-6.2-19.7-18.7s10.4-18.5,19.7-18.5c7.6,0,14.2,2.5,18.3,7.3V1082c0-6.5-5.4-10.5-13.3-10.5-6.3,0-11.8,2.3-16.8,7.1l-5-8.5a33.5,33.5,0,0,1,23.8-9.2c12.6,0,23.6,5.3,23.6,20.6V1119H297Zm0-15.4c-2.8-3.8-8.1-5.8-13.5-5.8s-12.1,4-12.1,10.2,5.2,10.1,12.1,10.1,10.7-2,13.5-5.9Z" transform="translate(-8.3)" fill="#00673e"/><path d="M323.1,1105.9v-32.8h-9.4v-10.8h9.4v-15.5h12.3v15.5h11.5v10.8H335.4v29.7c0,3.9,1.9,6.7,5.4,6.7s4.6-.9,5.5-2l3,9.3c-2.3,2.1-5.9,3.6-11.7,3.6C328.1,1120.4,323.1,1115.3,323.1,1105.9Z" transform="translate(-8.3)" fill="#00673e"/><path d="M349.9,1090.6c0-16.2,11.1-29.7,29.1-29.7s29.2,13.5,29.2,29.7-11,29.8-29.2,29.8S349.9,1106.9,349.9,1090.6Zm45.5,0c0-10-5.8-18.8-16.4-18.8s-16.3,8.8-16.3,18.8,5.8,18.9,16.3,18.9S395.4,1100.7,395.4,1090.6Z" transform="translate(-8.3)" fill="#00673e"/><path d="M416,1062.3h12.3v8.4c4.2-5.5,11.1-9.7,18.5-9.7v12.2a22.1,22.1,0,0,0-3.9-.3c-5.2,0-12.1,3.5-14.6,7.5V1119H416Z" transform="translate(-8.3)" fill="#00673e"/><path d="M477.9,1040.7H507c24.4,0,41,16.2,41,39.2s-16.6,39.1-41,39.1H477.9Zm29.1,66.2c17,0,26.9-12.2,26.9-27s-9.4-27.1-26.9-27.1H491.6v54.1Z" transform="translate(-8.3)" fill="#00673e"/><path d="M552.7,1090.6c0-16.2,11.1-29.7,29.1-29.7s29.3,13.5,29.3,29.7-11.1,29.8-29.3,29.8S552.7,1106.9,552.7,1090.6Zm45.5,0c0-10-5.8-18.8-16.4-18.8s-16.3,8.8-16.3,18.8,5.9,18.9,16.3,18.9S598.2,1100.7,598.2,1090.6Z" transform="translate(-8.3)" fill="#00673e"/><path d="M644.6,1060.9c11.1,0,17.8,4.7,21.8,10.1l-8.1,7.5a15.5,15.5,0,0,0-13.1-6.7c-10.3,0-17.1,7.8-17.1,18.8s6.8,18.9,17.1,18.9a15.5,15.5,0,0,0,13.1-6.7l8.1,7.5c-4,5.5-10.7,10.1-21.8,10.1-17.2,0-29.3-12.5-29.3-29.8S627.4,1060.9,644.6,1060.9Z" transform="translate(-8.3)" fill="#00673e"/><path d="M710.8,1111.5a27.2,27.2,0,0,1-20.1,8.9c-12.2,0-18.2-6.3-18.2-17.9v-40.2h12.3V1098c0,8.8,4.5,11.5,11.4,11.5a19,19,0,0,0,14.6-7.4v-39.8h12.3V1119H710.8Z" transform="translate(-8.3)" fill="#00673e"/><path d="M803.9,1082c0-6.1-2.7-10.2-9.3-10.2s-10.7,3.9-13.1,7.5V1119H769.1v-37c0-6.1-2.7-10.2-9.4-10.2s-10.4,3.9-13,7.7V1119H734.4v-56.7h12.3v7.8c2.3-3.6,9.9-9.2,18.4-9.2s13.7,4.2,15.5,10.5a24,24,0,0,1,19.3-10.5c10.5,0,16.3,5.6,16.3,17.1v41H803.9Z" transform="translate(-8.3)" fill="#00673e"/><path d="M852.7,1060.9c17.1,0,28,13,28,30.9v2.9H836.9c.9,8.6,7.4,15.6,18.1,15.6,5.5,0,12.1-2.2,16.1-6.2l5.6,8.1c-5.6,5.4-14,8.2-23,8.2-17,0-29.7-11.8-29.7-29.8C824,1074.2,836,1060.9,852.7,1060.9ZM836.8,1086h31.9c-.2-6.7-4.8-15-16-15S837.4,1079.1,836.8,1086Z" transform="translate(-8.3)" fill="#00673e"/><path d="M926.5,1083.6c0-8.8-4.5-11.8-11.4-11.8s-11.7,3.8-14.6,7.7V1119H888.2v-56.7h12.3v7.8a26.9,26.9,0,0,1,20-9.2c12.2,0,18.3,6.6,18.3,18.2V1119H926.5Z" transform="translate(-8.3)" fill="#00673e"/><path d="M952.6,1105.9v-32.8h-9.4v-10.8h9.4v-15.5h12.3v15.5h11.5v10.8H964.9v29.7c0,3.9,1.9,6.7,5.4,6.7s4.6-.9,5.5-2l3,9.3c-2.3,2.1-5.9,3.6-11.7,3.6C957.6,1120.4,952.6,1115.3,952.6,1105.9Z" transform="translate(-8.3)" fill="#00673e"/><path d="M603.9,112.2H566.8V137h37.1Zm0,49.4H566.8v24.8h37.1Zm-37.1-24.8H529.7v24.8h37.1Zm37.1-74H566.8V87.5h37.1ZM566.8,87.4H529.7v24.8h37.1Zm59.3,207.7-22.2-84H529.7l-22.2,84c-9.9,39.5,19.7,61.8,59.3,61.8S636,334.7,626.1,295.1Zm-96.4,14.8c0-32.1,74.2-32.1,74.2,0S529.7,342,529.7,309.9Z" transform="translate(-8.3)" fill="#94c947"/><path d="M726.1,0H381.7a10.5,10.5,0,0,0-3.5.4h0c-1.1.4-2.2.4-3,.7a1.4,1.4,0,0,0-.8.4l-2.3,1.2c-.3,0-.3.3-.7.3s-1.9,1.6-2.7,2.3l-172.2,173a22.8,22.8,0,0,0-2.3,2.7c0,.3-.3.3-.3.7l-1.2,2.3a1.4,1.4,0,0,1-.4.8,8.2,8.2,0,0,0-.7,3h0a10.5,10.5,0,0,0-.4,3.5V788.2c0,34.3,27.8,62.1,61.7,62.1H726.5a61.8,61.8,0,0,0,61.7-62.1V62.1A62.1,62.1,0,0,0,726.1,0ZM363,65.1v70.5c0,32.4-4.9,37-37.3,37H255.9ZM750.1,788.2a23.8,23.8,0,0,1-23.6,24H252.9a23.7,23.7,0,0,1-23.6-24V210.7h97.1c53.4,0,75.5-21.7,75.5-75.1V38.1H726.8a23.9,23.9,0,0,1,23.7,24V788.2Z" transform="translate(-8.3)" fill="#94c947"/><rect x="327.2" y="442.4" width="617.2" height="286.05" rx="39.7" fill="#fff" stroke="#94c947" stroke-miterlimit="10" stroke-width="40"/><path d="M596.8,628.3l-13.3,48.4H552.2l51.1-175.3h38.2l50.8,175.3H660.1l-13.9-48.4Zm44.8-23.5-11.9-42.3c-2.9-11-5.7-24.2-8.1-35H621c-2.4,10.9-5,24.4-7.8,35l-11.8,42.3Z" transform="translate(-8.3)" fill="#94c947"/><path d="M734.9,515.4c.1,9.5-6.7,16.8-17.4,16.8s-16.6-7.3-16.6-16.8,7-17,17-17S734.8,505.5,734.9,515.4ZM702.6,676.7V550.1h30.7V676.7Z" transform="translate(-8.3)" fill="#94c947"/></g></g></svg>