<svg xmlns="http://www.w3.org/2000/svg" id="Layer_1" viewBox="0 0 272 55" width="272" height="55"><style>.st0{fill:#fff}.st1{fill:#ccc}.st2{fill:url(#SVGID_1_)}.st3{fill:#e6dfdf}.st4{fill:#666}</style><path d="M.5.5h271v54H.5z" class="st0"/><path d="M271 1v53H1V1h270m1-1H0v55h272V0z" class="st1"/><linearGradient id="SVGID_1_" x1="37.01" x2="37.01" y1="49.82" y2="7.18" gradientTransform="matrix(1 0 0 -1 0 56)" gradientUnits="userSpaceOnUse"><stop offset="0" stop-color="#ec1c24"/><stop offset="1" stop-color="#be1e2d"/></linearGradient><path d="M51.7 48.8H22.3c-13.7 0-16-5.1-16-15.8V22c0-11.2 0-15.8 16.1-15.8h29.3c15.5 0 16.1 4 16.1 15.8v11c-.1 12.8-3.7 15.8-16.1 15.8z" class="st2"/><path d="M30.7 18.6l16.6 8.6-16.6 8.7z" class="st0"/><path d="M45.3 28.3l-14.6-9.7 16.6 8.6z" class="st3"/><path d="M85 10.4h4.2L94 23.6l4.8-13.3h4.2l-6.7 17.3h-4.6L85 10.4zm19.1 1.1c0-1.1.9-2 2-2s2 .9 2 2-.9 2-2 2-2-.9-2-2zm.4 3.6h3.3v12.5h-3.3V15.1zM119.6 26c-.9 1.2-2.3 2-3.9 2-3.2 0-5.6-2.4-5.6-6.6s2.4-6.6 5.6-6.6c1.5 0 2.9.7 3.9 1.9v-6.4h3.3v17.3h-3.3V26zm0-6.9c-.7-.9-1.7-1.4-2.8-1.4-1.9 0-3.2 1.5-3.2 3.7s1.3 3.6 3.2 3.6c1.1 0 2.2-.5 2.8-1.4v-4.5zm12.3-4.3c3.7 0 6.3 2.8 6.3 6.9v.7h-9.3c.2 1.8 1.8 3 3.6 2.9 1.2 0 2.4-.4 3.3-1.2l1.4 2.1c-1.4 1.2-3.3 1.8-5.1 1.8-3.5.2-6.5-2.5-6.7-6v-.6c-.1-3.5 2.6-6.5 6.1-6.6h.4zm-3.1 5.4h6.2c-.1-1.6-1.4-2.8-3-2.8h-.1c-1.6 0-3 1.2-3.1 2.8zm11 1.2c0-3.7 3-6.6 6.6-6.6s6.6 3 6.6 6.6-3 6.6-6.6 6.6-6.6-3-6.6-6.6zm9.8 0c0-1.9-1.2-3.6-3.2-3.6s-3.2 1.7-3.2 3.6 1.1 3.6 3.2 3.6 3.2-1.7 3.2-3.6zm16.5-7.8h-5v-3.2h13.8v3.2h-5v14h-3.7l-.1-14zm17.8 12.5c-1.1 1.2-2.7 2-4.4 1.9-2.8 0-4-1.5-4-3.9v-8.9h3.3v7.6c-.2 1.1.6 2.1 1.7 2.3h.6c1.1 0 2.2-.5 2.9-1.4v-8.4h3.3v12.5H184l-.1-1.7zm7.2-1.6V18H189v-2.9h2.1v-3.4h3.3v3.4h2.5V18h-2.5v5.6c0 .8.4 1.4 1.1 1.4.4 0 .8-.1 1.1-.4l.7 2.5c-.8.6-1.8.9-2.8.8-2.2.1-3.4-1.1-3.4-3.4zm7.3-3.1c0-3.7 3-6.6 6.6-6.6s6.6 3 6.6 6.6-3 6.6-6.6 6.6-6.6-3-6.6-6.6zm9.8 0c0-1.9-1.2-3.6-3.2-3.6s-3.2 1.7-3.2 3.6 1.1 3.6 3.2 3.6 3.2-1.7 3.2-3.6zm5.9-6.3h3.3v1.7c1-1.2 2.4-1.9 4-2V18c-1.5-.4-3 .2-4 1.3v8.3h-3.3V15.1zm9-3.6c0-1.1.9-2 2-2s2 .9 2 2-.9 2-2 2-2-.9-2-2zm.3 3.6h3.3v12.5h-3.3V15.1zm14.1 11.3c-1 1.1-2.5 1.7-4 1.6-2.3.1-4.3-1.7-4.4-4v-.2c0-2.9 2.4-4 4.4-4 1.5-.1 3 .5 4 1.5v-1.7c0-1.3-1.1-2.1-2.8-2.1-1.4 0-2.7.5-3.7 1.5l-1.2-2.2c1.5-1.3 3.5-2 5.5-2 2.9 0 5.5 1.1 5.5 4.7v8.1h-3.3v-1.2zm0-3.3c-.7-.7-1.6-1.1-2.7-1.1-1.3 0-2.4.7-2.4 1.9s1.1 1.8 2.4 1.8c1 .1 2-.3 2.6-1.1l.1-1.5zm6.6-12.7h3.3v17.3h-3.3V10.4zm6.8 13.3c1.2 1 2.7 1.6 4.3 1.7 1.4 0 2.1-.5 2.1-1.3s-1.1-1.2-2.5-1.5c-2.1-.4-4.9-.9-4.9-3.9 0-2.1 1.8-3.9 5.1-3.9 1.8 0 3.6.6 5.1 1.7l-1.3 2.3c-1-.9-2.3-1.5-3.7-1.4-1.2 0-2 .4-2 1.2s1 1.1 2.4 1.4c2.1.4 5 1 5 4.1 0 2.3-1.9 4-5.4 4-2 .1-4-.6-5.6-1.9l1.4-2.5zM88.1 33h7.4v1.7H90v2.8h5.4v1.7H90v4.7h-1.9V33zm16.8-.1c3-.1 5.4 2.2 5.5 5.2v.4c.1 3.1-2.2 5.6-5.3 5.8-3.1.1-5.6-2.2-5.8-5.3v-.5c-.1-3 2.2-5.5 5.1-5.6h.5zm0 1.7c-2 0-3.6 1.6-3.6 3.6v.3c-.1 2 1.3 3.7 3.3 3.8 2 .1 3.7-1.3 3.8-3.3v-.5c.2-2-1.3-3.7-3.3-3.9 0 0-.1-.1-.2 0zm13.4 5.2h-1.9v4h-1.9V33h4.8c1.8-.1 3.4 1.2 3.5 3v.4c.1 1.6-1 3-2.6 3.2l2.6 4.2h-2.2l-2.3-4zm.7-5.1h-2.6v3.4h2.6c.9 0 1.7-.8 1.7-1.7 0-.9-.8-1.7-1.7-1.7zm17 0h-3.3V33h8.4v1.7h-3.3v9.1H136v-9.1zm16.5 4.4h-5.6v4.7H145V33h1.9v4.4h5.6V33h1.9v10.8h-1.9v-4.7zM159 33h1.9v10.8H159V33zm6.8 7.9c.9 1 2.1 1.5 3.4 1.5 1.6 0 2.2-.8 2.2-1.5 0-1-1.1-1.3-2.5-1.6-1.8-.4-3.8-1-3.8-3.2 0-1.8 1.6-3.2 3.9-3.2 1.5-.1 3 .5 4.1 1.5l-1.1 1.4c-.8-.8-2-1.3-3.1-1.2-1.1 0-1.8.5-1.8 1.3s1.1 1.1 2.4 1.4c1.8.5 3.9 1 3.9 3.3 0 1.8-1.3 3.3-4.2 3.3-1.6.1-3.2-.5-4.4-1.7l1-1.3zm27.3-5.2l-3.3 8.2h-.8l-3.3-8.2v8.2h-1.9V33h2.7l2.9 7.3 3-7.3h2.6v10.8h-1.9v-8.1zm11.5-2.8c3-.1 5.4 2.2 5.5 5.2v.4c.1 3.1-2.2 5.6-5.3 5.8-3.1.1-5.6-2.2-5.8-5.3v-.5c-.1-3 2.2-5.5 5.1-5.6h.5zm0 1.7c-2 0-3.6 1.6-3.6 3.6v.3c-.1 2 1.3 3.7 3.3 3.8 2 .1 3.7-1.3 3.8-3.3v-.5c.2-2-1.3-3.7-3.3-3.9.1 0-.1-.1-.2 0zm9.7-1.6h4c2.9-.2 5.4 2 5.6 4.9v.5c0 3.2-2.3 5.4-5.7 5.4h-4V33zm4 9.1c2 .1 3.6-1.4 3.7-3.4v-.3c.1-1.9-1.3-3.6-3.2-3.7h-2.6v7.5l2.1-.1zM228 33h2v6.5c0 1.5 1.2 2.8 2.8 2.8s2.8-1.2 2.8-2.8V33h1.9v6.5c0 2.7-1.5 4.5-4.7 4.5s-4.8-1.8-4.8-4.4V33zm14 0h1.9v9.1h4.8v1.7H242V33zm10.6 0h7.4v1.7h-5.5v2.8h5.4v1.7h-5.4v3h5.5v1.7h-7.4V33z" class="st4"/></svg>