<svg xmlns="http://www.w3.org/2000/svg" width="336" height="336" viewBox="0 0 251 251"><rect width="190.8" height="190.8" x="30.5" y="30.1" fill="#464646" rx="27.6" ry="27.6"/><path fill="#b2b2b2" d="M193.7 224.9H58.2a31.7 31.7 0 0 1-31.7-31.6V57.7a31.7 31.7 0 0 1 31.7-31.6h135.5a31.6 31.6 0 0 1 31.6 31.6v135.6a31.6 31.6 0 0 1-31.6 31.6zM58.2 34.1a23.7 23.7 0 0 0-23.7 23.6v135.6a23.7 23.7 0 0 0 23.7 23.6h135.5a23.6 23.6 0 0 0 23.6-23.6V57.7a23.6 23.6 0 0 0-23.6-23.6z"/><path fill="#b2b2b2" d="M126 60.2a3.9 3.9 0 0 1-4-4V4a3.9 3.9 0 0 1 4-4 4 4 0 0 1 4 4v52.2a4 4 0 0 1-4 4zm-42.3 0a3.9 3.9 0 0 1-4-4V4a3.9 3.9 0 0 1 4-4 4 4 0 0 1 4 4v52.2a4 4 0 0 1-4 4zm83.6 0a4 4 0 0 1-4-4V4a4 4 0 0 1 4-4 3.9 3.9 0 0 1 4 4v52.2a3.9 3.9 0 0 1-4 4zM126 251a3.9 3.9 0 0 1-4-4v-52.2a3.9 3.9 0 0 1 4-4 4 4 0 0 1 4 4V247a4 4 0 0 1-4 4zm-42.3 0a3.9 3.9 0 0 1-4-4v-52.2a3.9 3.9 0 0 1 4-4 4 4 0 0 1 4 4V247a4 4 0 0 1-4 4zm83.6 0a4 4 0 0 1-4-4v-52.2a4 4 0 0 1 4-4 3.9 3.9 0 0 1 4 4V247a3.9 3.9 0 0 1-4 4zM56.2 129H4a3.9 3.9 0 0 1-4-4 4 4 0 0 1 4-4h52.2a4 4 0 0 1 4 4 3.9 3.9 0 0 1-4 4zm0 42.3H4a3.9 3.9 0 0 1-4-4 4 4 0 0 1 4-4h52.2a4 4 0 0 1 4 4 3.9 3.9 0 0 1-4 4zm0-83.6H4a4 4 0 0 1-4-4 3.9 3.9 0 0 1 4-4h52.2a3.9 3.9 0 0 1 4 4 4 4 0 0 1-4 4zM247 129h-52.2a3.9 3.9 0 0 1-4-4 4 4 0 0 1 4-4H247a4 4 0 0 1 4 4 3.9 3.9 0 0 1-4 4zm0 42.3h-52.2a3.9 3.9 0 0 1-4-4 4 4 0 0 1 4-4H247a4 4 0 0 1 4 4 3.9 3.9 0 0 1-4 4zm0-83.6h-52.2a4 4 0 0 1-4-4 3.9 3.9 0 0 1 4-4H247a3.9 3.9 0 0 1 4 4 4 4 0 0 1-4 4z"/></svg>