<svg xmlns="http://www.w3.org/2000/svg" id="Layer_1" viewBox="0 0 500.7 330.8" width="500.7" height="330.8"><style>.st0{fill:#6d6e71;stroke:#231f20;stroke-width:2;stroke-miterlimit:10}.st1{fill:#d6eef0}.st2{fill:none;stroke:#fff;stroke-width:3.335;stroke-miterlimit:10}.st2,.st3,.st4,.st5,.st6,.st7,.st8{stroke-linecap:round;stroke-linejoin:round}.st3{fill:#939598}.st3,.st4,.st5,.st6,.st7,.st8{stroke:#231f20;stroke-width:.8;stroke-miterlimit:3}.st4{fill:#f1f2f2}.st5{fill:#d1d3d4}.st6{fill:#009444}.st7{fill:#f15a29}.st8{fill:#1b75bc}</style><path d="M249.5 5.4h-70.2v70.2c0 38.8 31.4 70.2 70.2 70.2 38.8 0 70.2-31.4 70.2-70.2S288.3 5.4 249.5 5.4z" class="st0"/><circle cx="249.5" cy="75.6" r="63.4" class="st1"/><path d="M200.2 12.7l-13 13.1m0-13.1l13 13.1" class="st2"/><path d="M249.5 75.6L288 97.8V53.4l-38.5-22.2z" class="st3"/><path d="M211.1 97.8l38.4 22.2L288 97.8l-38.5-22.2z" class="st4"/><path d="M211.1 97.8l38.4-22.2V31.2l-38.4 22.2z" class="st5"/><path d="M249.5 184.1h-70.2v70.2c0 38.8 31.4 70.2 70.2 70.2 38.8 0 70.2-31.4 70.2-70.2s-31.4-70.2-70.2-70.2z" class="st0"/><circle cx="249.5" cy="254.3" r="63.4" class="st1"/><path d="M200.2 191.4l-13 13m0-13l13 13" class="st2"/><path d="M249.5 254.3l38.5 22.2v-44.4l-38.5-22.2z" class="st3"/><path d="M211.1 276.5l38.4 22.2 38.5-22.2-38.5-22.2z" class="st6"/><path d="M211.1 276.5l38.4-22.2v-44.4l-38.4 22.2z" class="st5"/><path d="M420.9 184.1h-70.2v70.2c0 38.8 31.4 70.2 70.2 70.2 38.8 0 70.2-31.4 70.2-70.2s-31.5-70.2-70.2-70.2z" class="st0"/><circle cx="420.9" cy="254.3" r="63.4" class="st1"/><path d="M371.6 191.4l-13.1 13m0-13l13.1 13" class="st2"/><path d="M420.9 254.3l38.4 22.2v-44.4l-38.4-22.2z" class="st7"/><path d="M382.4 276.5l38.5 22.2 38.4-22.2-38.4-22.2z" class="st4"/><path d="M382.4 276.5l38.5-22.2v-44.4l-38.5 22.2z" class="st5"/><path d="M78.2 184.1H8v70.2c0 38.8 31.4 70.2 70.2 70.2 38.8 0 70.2-31.4 70.2-70.2s-31.4-70.2-70.2-70.2z" class="st0"/><circle cx="78.2" cy="254.3" r="63.4" class="st1"/><path d="M28.9 191.4l-13 13m0-13l13 13" class="st2"/><path d="M78.2 254.3l38.5 22.2v-44.4l-38.5-22.2z" class="st3"/><path d="M39.8 276.5l38.4 22.2 38.5-22.2-38.5-22.2z" class="st4"/><path d="M39.8 276.5l38.4-22.2v-44.4l-38.4 22.2z" class="st8"/></svg>