<svg xmlns="http://www.w3.org/2000/svg" id="Layer_1" viewBox="0 0 500.7 330.8" width="500.7" height="330.8"><style>.st0{fill:#6d6e71;stroke:#231f20;stroke-width:2;stroke-miterlimit:10}.st1{fill:#d6eef0}.st2{fill:none;stroke:#fff;stroke-width:3.335;stroke-miterlimit:10}.st2,.st3,.st4,.st5,.st6,.st7,.st8,.st9{stroke-linecap:round;stroke-linejoin:round}.st3{fill:#939598}.st3,.st4,.st5,.st6,.st7,.st8{stroke:#231f20;stroke-width:.8;stroke-miterlimit:3}.st9{stroke-miterlimit:3}.st4{fill:#f1f2f2}.st5{fill:#d1d3d4}.st6{fill:#009444}.st7{fill:#f15a29}.st8{fill:#1b75bc}.st9{fill:#a7a9ac;stroke:#fff;stroke-width:2.2597}.st10{fill:#939598}.st11,.st12{fill:none;stroke:#a7a9ac;stroke-width:7.0228;stroke-linecap:round;stroke-linejoin:round;stroke-miterlimit:3}.st12{stroke:#d1d3d4}</style><path d="M396.7 178.7l-43.5-25.1v50.1l43.5 25.1zm43.4-25.1l-43.4-25.1-43.5 25.1 43.5 25.1zm0 0l-43.4 25.1v50.1l43.4-25.1z" class="st9"/><path d="M303 65.6l.3 100.1 26.8-29.8L370 140z" class="st10"/><path d="M233.7 214.1H48m161.9-32.7H71.2" class="st11"/><path d="M71.2 82.8v98.6" class="st12"/><path d="M182.9 148.7H94.4" class="st11"/><path d="M94.4 85.2v63.5" class="st12"/><path d="M164 116.1h-46.4" class="st11"/><path d="M48 80.4l69.6 7.2v28.5l-69.6 98zm69.6 19.6L48 147.2" class="st12"/></svg>