<svg xmlns="http://www.w3.org/2000/svg" id="Layer_1" viewBox="0 0 432 216" width="432" height="216"><style>.st0{fill:#6d6e71;stroke:#231f20;stroke-width:2;stroke-miterlimit:10}.st1{fill:#d6eef0}.st2{fill:none;stroke:#fff;stroke-width:3.335;stroke-miterlimit:10}.st2,.st3,.st4,.st5,.st6,.st7,.st8,.st9{stroke-linecap:round;stroke-linejoin:round}.st3{fill:#939598}.st3,.st4,.st5,.st6,.st7,.st8{stroke:#231f20;stroke-width:.8;stroke-miterlimit:3}.st9{stroke-miterlimit:3}.st4{fill:#f1f2f2}.st5{fill:#d1d3d4}.st6{fill:#009444}.st7{fill:#f15a29}.st8{fill:#1b75bc}.st9{fill:#a7a9ac;stroke:#fff;stroke-width:2.2597}.st10{fill:#939598}.st11,.st12{fill:none;stroke:#a7a9ac;stroke-width:7.0228;stroke-linecap:round;stroke-linejoin:round;stroke-miterlimit:3}.st12{stroke:#d1d3d4}</style><path d="M222.7-400.3h-70.2v70.2c0 38.8 31.4 70.2 70.2 70.2 38.8 0 70.2-31.4 70.2-70.2s-31.4-70.2-70.2-70.2z" class="st0"/><circle cx="222.7" cy="-330.2" r="63.4" class="st1"/><path d="M173.4-393l-13 13m0-13l13 13" class="st2"/><path d="M222.7-330.2l38.5 22.2v-44.4l-38.5-22.2z" class="st3"/><path d="M184.3-308l38.4 22.2 38.5-22.2-38.5-22.2z" class="st4"/><path d="M184.3-308l38.4-22.2v-44.4l-38.4 22.2z" class="st5"/><path d="M222.7-221.7h-70.2v70.2c0 38.8 31.4 70.2 70.2 70.2 38.8 0 70.2-31.4 70.2-70.2s-31.4-70.2-70.2-70.2z" class="st0"/><circle cx="222.7" cy="-151.5" r="63.4" class="st1"/><path d="M173.4-214.4l-13 13.1m0-13.1l13 13.1" class="st2"/><path d="M222.7-151.5l38.5 22.2v-44.4l-38.5-22.2z" class="st3"/><path d="M184.3-129.3l38.4 22.2 38.5-22.2-38.5-22.2z" class="st6"/><path d="M184.3-129.3l38.4-22.2v-44.4l-38.4 22.2z" class="st5"/><path d="M394-221.7h-70.2v70.2c0 38.8 31.4 70.2 70.2 70.2 38.8 0 70.2-31.4 70.2-70.2s-31.4-70.2-70.2-70.2z" class="st0"/><circle cx="394" cy="-151.5" r="63.4" class="st1"/><path d="M344.7-214.4l-13 13.1m0-13.1l13 13.1" class="st2"/><path d="M394-151.5l38.5 22.2v-44.4L394-195.9z" class="st7"/><path d="M355.6-129.3l38.4 22.2 38.5-22.2-38.5-22.2z" class="st4"/><path d="M355.6-129.3l38.4-22.2v-44.4l-38.4 22.2z" class="st5"/><path d="M51.4-221.7h-70.2v70.2c0 38.8 31.4 70.2 70.2 70.2 38.8 0 70.2-31.4 70.2-70.2s-31.5-70.2-70.2-70.2z" class="st0"/><circle cx="51.4" cy="-151.5" r="63.4" class="st1"/><path d="M2.1-214.4L-11-201.3m0-13.1l13.1 13.1" class="st2"/><path d="M51.4-151.5l38.4 22.2v-44.4l-38.4-22.2z" class="st3"/><path d="M12.9-129.3l38.5 22.2 38.4-22.2-38.4-22.2z" class="st4"/><path d="M12.9-129.3l38.5-22.2v-44.4l-38.5 22.2z" class="st8"/><path d="M369.8 138.9l-43.4-25.1V164l43.4 25zm43.5-25.1l-43.5-25.1-43.4 25.1 43.4 25.1zm0 0l-43.5 25.1V189l43.5-25z" class="st9"/><path d="M276.2 25.8l.3 100.1 26.8-29.8 39.8 4.1z" class="st10"/><path d="M206.8 174.3H21.1m162-32.7H44.3" class="st11"/><path d="M44.3 43v98.6" class="st12"/><path d="M156.1 108.9H67.6" class="st11"/><path d="M67.6 45.4v63.5" class="st12"/><path d="M137.2 76.3H90.8" class="st11"/><path d="M21.1 40.6l69.7 7.2v28.5l-69.7 98zm69.7 19.6l-69.7 47.2" class="st12"/></svg>