<svg xmlns="http://www.w3.org/2000/svg" width="893.2" height="383.9" viewBox="0 0 893.2 383.9"><path fill="#a4ca97" d="M.5.5h174.7v46H.5zm174.7 0h144v46h-144zm144 0h144v46h-144zm144 0h144v46h-144zm144 0h144v46h-144z"/><path fill="#fffbea" d="M.5 46.5h174.7V89H.5zm174.7 0h144V89h-144zm144 0h144V89h-144zm144 0h144V89h-144zm144 0h144V89h-144zM.5 131.4h174.7v42H.5zm174.7 0h144v42h-144zm144 0h144v42h-144zm144 0h144v42h-144zm144 0h144v42h-144zM.5 215.4h174.7v42H.5zm174.7 0h144v42h-144zm144 0h144v42h-144zm144 0h144v42h-144zm144 0h144v42h-144zM.5 299.4h174.7v42H.5zm174.7 0h144v42h-144zm144 0h144v42h-144zm144 0h144v42h-144zm144 0h144v42h-144z"/><path fill="#fdea9b" d="M.5 89h174.7v42.4H.5zm174.7 0h144v42.4h-144zm144 0h144v42.4h-144zm144 0h144v42.4h-144zm144 0h144v42.4h-144zM.5 173.4h174.7v42H.5zm174.7 0h144v42h-144zm144 0h144v42h-144zm144 0h144v42h-144zm144 0h144v42h-144zM.5 257.4h174.7v42H.5zm174.7 0h144v42h-144zm144 0h144v42h-144zm144 0h144v42h-144zm144 0h144v42h-144zM.5 341.4h174.7v42H.5zm174.7 0h144v42h-144zm144 0h144v42h-144zm144 0h144v42h-144zm144 0h144v42h-144z"/><path fill="none" stroke="#797742" stroke-miterlimit="10" d="M1 89h174.2m0 0h144m0 0h144m0 0h144m0 0h143.5M1 131.4h174.2m0 0h144m0 0h144m0 0h144m0 0h143.5M1 173.4h174.2m0 0h144m0 0h144m0 0h144m0 0h143.5M1 215.4h174.2m0 0h144m0 0h144m0 0h144m0 0h143.5M1 257.4h174.2m0 0h144m0 0h144m0 0h144m0 0h143.5M1 299.4h174.2m0 0h144m0 0h144m0 0h144m0 0h143.5"/><path fill="none" stroke="#a4ca97" stroke-miterlimit="10" d="M1 341.4h174.2m0 0h144m0 0h144m0 0h144m0 0h143.5"/><path fill="none" stroke="#797742" stroke-miterlimit="10" d="M0 .5h175.2M.5 46V1M175.2.5h144m0 0h144m0 0h144m0 0h144.5m-.5 45.5V1M0 383.4h175.2m0 0h144m0 0h144m0 0h144m0 0h144.5"/><path fill="none" stroke="#9f9b6c" stroke-miterlimit="10" d="M.5 89V47m750.7 42V47M.5 131.4V89m750.7 42.4V89M.5 173.4v-42m750.7 42v-42M.5 215.4v-42m750.7 42v-42M.5 257.4v-42m750.7 42v-42M.5 299.4v-42m750.7 42v-42M.5 341.4v-42m750.7 42v-42M.5 382.9v-41.5m750.7 41.5v-41.5"/><path fill="none" stroke="#797742" stroke-miterlimit="10" d="M0 46.5h175.2m0 0h144m0 0h144m0 0h144m0 0h144.5"/><path d="M9.6 18.6h3.1v9.3h4.8v2.7H9.6zm17.2 10.2h-5l-.6 1.8h-3.4l4.6-12h3.8l4.6 12h-3.4zm-4.2-2.6H26l-1.7-4.9zm12.2-2.8v7.2h-3.1v-12h3.1l4.9 6.9v-6.9h3.1v12h-3zm16.1-5a5.6 5.6 0 0 1 5.1 2.8l-2.6 1.4a3 3 0 0 0-2.5-1.5 3.4 3.4 0 0 0-3.4 3.5 3.3 3.3 0 0 0 3.4 3.5 3.6 3.6 0 0 0 2.2-.7v-1h-2.7v-2.6h5.8v4.7a7.1 7.1 0 0 1-5.3 2.3c-3.6 0-6.5-2.4-6.5-6.2s2.9-6.2 6.5-6.2zm7.1.2h3.1v7a2.3 2.3 0 0 0 2.5 2.5 2.2 2.2 0 0 0 2.4-2.5v-7h3.1v7.1c0 3-1.7 5.1-5.5 5.1s-5.6-2.1-5.6-5zm19.6 10.2h-5l-.6 1.8h-3.4l4.5-12H77l4.6 12h-3.4zm-4.2-2.6h3.4l-1.7-4.9zm14.3-7.8a5.7 5.7 0 0 1 5.2 2.8l-2.6 1.4a3.1 3.1 0 0 0-2.6-1.5 3.4 3.4 0 0 0-3.3 3.5 3.3 3.3 0 0 0 3.3 3.5 3.7 3.7 0 0 0 2.3-.7v-1h-2.8v-2.6H93v4.7a6.9 6.9 0 0 1-5.3 2.3c-3.6 0-6.5-2.4-6.5-6.2s2.9-6.2 6.5-6.2zm7 .2h8.5v2.2h-6v2.6h5.8v2.2h-5.8v2.8h6v2.2h-8.5zm131.2 9.6c5.2-3.8 6.1-4.6 6.1-5.8s-.7-1.2-1.7-1.2a4.4 4.4 0 0 0-3.1 1.3l-1.7-2.1a6.5 6.5 0 0 1 4.8-2c2.9 0 4.9 1.6 4.9 4s-1.3 3.4-4.5 5.5h4.6v2.7h-9.4zm15.7-9.8c3.5 0 5.2 3 5.2 6.2s-1.7 6.2-5.2 6.2-5.1-3-5.1-6.2 1.6-6.2 5.1-6.2zm0 2.8c-1.4 0-2 1.3-2 3.4s.6 3.5 2 3.5 2-1.4 2-3.5-.5-3.4-2-3.4zm11.2-2.8c3.6 0 5.2 3 5.2 6.2s-1.6 6.2-5.2 6.2-5.1-3-5.1-6.2 1.6-6.2 5.1-6.2zm0 2.8c-1.4 0-2 1.3-2 3.4s.6 3.5 2 3.5 2.1-1.4 2.1-3.5-.6-3.4-2.1-3.4zm11.3-2.8c3.5 0 5.1 3 5.1 6.2s-1.6 6.2-5.1 6.2-5.2-3-5.2-6.2 1.7-6.2 5.2-6.2zm0 2.8c-1.5 0-2 1.3-2 3.4s.5 3.5 2 3.5 2-1.4 2-3.5-.6-3.4-2-3.4zm105.9 7c5.2-3.8 6.1-4.6 6.1-5.8s-.7-1.2-1.7-1.2a4.2 4.2 0 0 0-3.1 1.3l-1.7-2.1a6.3 6.3 0 0 1 4.8-2c2.9 0 4.9 1.6 4.9 4s-1.3 3.4-4.6 5.5h4.7v2.7H370zm15.7-9.8c3.5 0 5.2 3 5.2 6.2s-1.7 6.2-5.2 6.2-5.1-3-5.1-6.2 1.6-6.2 5.1-6.2zm0 2.8c-1.4 0-2 1.3-2 3.4s.6 3.5 2 3.5 2-1.4 2-3.5-.6-3.4-2-3.4zm11.2-2.8c3.6 0 5.2 3 5.2 6.2s-1.6 6.2-5.2 6.2-5.1-3-5.1-6.2 1.6-6.2 5.1-6.2zm0 2.8c-1.4 0-2 1.3-2 3.4s.6 3.5 2 3.5 2.1-1.4 2.1-3.5-.6-3.4-2.1-3.4zm8 5.8a4.7 4.7 0 0 0 3.2 1.2c1.3 0 1.9-.7 1.9-1.5s-.6-1.4-1.8-1.4a3.4 3.4 0 0 0-2.4.9l-2.1-.6v-7h8.7v2.6h-5.8v2.5a4.3 4.3 0 0 1 2.7-1 3.8 3.8 0 0 1 3.9 3.9c0 2.6-2 4.2-5.1 4.2a6.5 6.5 0 0 1-4.8-1.7zm110.8 1.2c5.2-3.8 6.2-4.6 6.2-5.8s-.8-1.2-1.7-1.2a4.2 4.2 0 0 0-3.1 1.3l-1.8-2.1a6.7 6.7 0 0 1 4.9-2c2.8 0 4.9 1.6 4.9 4s-1.3 3.4-4.6 5.5h4.7v2.7h-9.5zm15.8-9.8c3.5 0 5.1 3 5.1 6.2s-1.6 6.2-5.1 6.2-5.2-3-5.2-6.2 1.7-6.2 5.2-6.2zm0 2.8c-1.4 0-2 1.3-2 3.4s.6 3.5 2 3.5 2-1.4 2-3.5-.6-3.4-2-3.4zm9.5 1.4l-2 2-1.8-1.9 4.2-4.1h2.7v12H541zm9.8-4.2c3.5 0 5.1 3 5.1 6.2s-1.6 6.2-5.1 6.2-5.2-3-5.2-6.2 1.7-6.2 5.2-6.2zm0 2.8c-1.5 0-2 1.3-2 3.4s.5 3.5 2 3.5 2-1.4 2-3.5-.6-3.4-2-3.4zm109 7c5.3-3.8 6.2-4.6 6.2-5.8s-.7-1.2-1.7-1.2a4.2 4.2 0 0 0-3.1 1.3l-1.7-2.1a6.3 6.3 0 0 1 4.8-2c2.8 0 4.9 1.6 4.9 4s-1.3 3.4-4.6 5.5h4.7v2.7h-9.5zm15.8-9.8c3.5 0 5.2 3 5.2 6.2s-1.7 6.2-5.2 6.2-5.1-3-5.1-6.2 1.6-6.2 5.1-6.2zm0 2.8c-1.4 0-2 1.3-2 3.4s.6 3.5 2 3.5 2-1.4 2-3.5-.6-3.4-2-3.4zm9.5 1.4l-2 2-1.8-1.9 4.2-4.1h2.7v12h-3.1zm6.5 4.4a4.7 4.7 0 0 0 3.2 1.2c1.3 0 2-.7 2-1.5s-.7-1.4-1.9-1.4a3.4 3.4 0 0 0-2.4.9l-2.1-.6v-7h8.7v2.6h-5.8v2.5a4.3 4.3 0 0 1 2.7-1 3.8 3.8 0 0 1 3.9 3.9c0 2.6-2 4.2-5.1 4.2a6.5 6.5 0 0 1-4.8-1.7zM10.1 72a5.1 5.1 0 0 0 3.8 1.7c2 0 2.6-1 2.6-1.8s-1.3-1.6-2.9-2-4.1-1.1-4.1-3.6 1.7-3.4 4.2-3.4a5.9 5.9 0 0 1 4.4 1.7l-1 1.3a5.2 5.2 0 0 0-3.5-1.4c-1.3 0-2.3.7-2.3 1.7s1.3 1.4 2.8 1.8 4.3 1.2 4.3 3.7-1.3 3.6-4.6 3.6a5.9 5.9 0 0 1-4.7-1.9zm10.3 6.4v-12H22v1.3a3.6 3.6 0 0 1 2.9-1.5c2.3 0 3.9 1.7 3.9 4.6s-1.6 4.5-3.9 4.5a3.7 3.7 0 0 1-2.9-1.4v4.5zm4.1-10.8a3.3 3.3 0 0 0-2.5 1.3v3.7a3.3 3.3 0 0 0 2.5 1.3c1.6 0 2.6-1.3 2.6-3.1s-1-3.2-2.6-3.2zm11.7 6.6a4 4 0 0 1-2.9 1.1 2.9 2.9 0 1 1 0-5.7 3.7 3.7 0 0 1 2.9 1.2v-1.5c0-1.1-.9-1.7-2.1-1.7a4 4 0 0 0-2.7 1.1l-.7-1.1a5.2 5.2 0 0 1 3.6-1.4c1.9 0 3.5.8 3.5 3v5.9h-1.6zm0-2.5a3.1 3.1 0 0 0-2.3-1 1.8 1.8 0 1 0 0 3.5 2.8 2.8 0 0 0 2.3-1zm10.1-2.2a1.7 1.7 0 0 0-1.9-1.9 3.4 3.4 0 0 0-2.4 1.3v6.2h-1.6v-8.7H42v1.2a4.1 4.1 0 0 1 3.1-1.4 2.5 2.5 0 0 1 2.8 2.8v6.1h-1.6zm3.9-5.6a1.1 1.1 0 0 1 1-1 1.1 1.1 0 0 1 1.1 1 1.1 1.1 0 0 1-1.1 1.1 1.1 1.1 0 0 1-1-1.1zm.2 2.5h1.7v8.7h-1.7zm4.3 6.4a4.3 4.3 0 0 0 2.9 1.2c1.2 0 1.9-.5 1.9-1.2s-1-1.2-2.2-1.4-3.2-.8-3.2-2.6 1.2-2.6 3.4-2.6a4.9 4.9 0 0 1 3.3 1.2l-.8 1.2a3.3 3.3 0 0 0-2.5-1.1c-1.1 0-1.8.4-1.8 1.1s.9 1.1 2 1.3 3.3.8 3.3 2.8-1.2 2.6-3.5 2.6a4.8 4.8 0 0 1-3.6-1.3zm14.2-3.3c0-1.4-.7-1.9-1.8-1.9a3.4 3.4 0 0 0-2.4 1.3v6.2h-1.6v-12h1.6v4.5a4.1 4.1 0 0 1 3.1-1.4 2.5 2.5 0 0 1 2.8 2.8v6.1h-1.7zm156.8-4l-1.9 2-1.1-1.1 3.2-3.3h1.6v12h-1.8zm5.4 7.1a3.3 3.3 0 0 0 2.6 1.1c2.3 0 3.2-2.2 3.2-4.3V69a4.2 4.2 0 0 1-3.3 1.8 3.8 3.8 0 0 1-4-3.9c0-2.2 1.7-4 4.4-4s4.8 2.9 4.8 6.2-1.7 6.2-5.1 6.2a4.3 4.3 0 0 1-3.4-1.4zm2.9-8.1a2.4 2.4 0 1 0 .1 4.7 3.3 3.3 0 0 0 2.8-1.6c-.1-1.4-.9-3.1-2.9-3.1zm6.1 12.3a2.6 2.6 0 0 0 1.2-1.7h-.2a.9.9 0 0 1-1-1 1 1 0 0 1 1.1-1.1 1.3 1.3 0 0 1 1.3 1.5 3.9 3.9 0 0 1-1.6 2.9zm5.1-11.3l-1.9 2-1.1-1.1 3.2-3.3h1.6v12h-1.8zm4.6 6.7a4.5 4.5 0 0 0 3.4 1.5c1.6 0 2.6-.8 2.6-2s-1.1-1.9-2.8-1.9h-1.3v-1.6h1.3c1.4 0 2.6-.6 2.6-1.8s-1.1-1.9-2.6-1.9a4.3 4.3 0 0 0-3.1 1.4l-.9-1.1a5.2 5.2 0 0 1 4.2-1.9c2.5 0 4.2 1.2 4.2 3.2a2.9 2.9 0 0 1-2.6 2.8 3.1 3.1 0 0 1 2.8 3c0 2-1.7 3.4-4.4 3.4a5.5 5.5 0 0 1-4.4-1.9zm10.9 0a3.8 3.8 0 0 0 3.2 1.5 2.3 2.3 0 0 0 2.6-2.3A2.3 2.3 0 0 0 264 69a3.9 3.9 0 0 0-2.7 1.1l-1.3-.4v-6.6h7.6v1.6h-5.8v3.8a3.9 3.9 0 0 1 2.7-1 3.7 3.7 0 0 1 3.9 3.8c0 2.5-1.9 4-4.4 4a5.1 5.1 0 0 1-4.4-1.9zm95.9 1.5c4.5-3.5 6.6-5.3 6.6-7.2a2.1 2.1 0 0 0-2.3-2 4 4 0 0 0-3.3 1.5l-1.1-1.2a5.7 5.7 0 0 1 4.3-1.9c2.2 0 4.2 1.2 4.2 3.6s-2.2 4.5-5.5 7h5.6v1.6h-8.5zm15.3-10.8c3.3 0 4.7 3.2 4.7 6.2s-1.4 6.2-4.7 6.2-4.7-3.2-4.7-6.2 1.3-6.2 4.7-6.2zm0 1.6c-2.2 0-2.9 2.3-2.9 4.6s.7 4.6 2.9 4.6 2.8-2.2 2.8-4.6-.7-4.6-2.8-4.6zm6 12.3a2.6 2.6 0 0 0 1.2-1.7h-.2a.9.9 0 0 1-1-1A1 1 0 0 1 379 73a1.3 1.3 0 0 1 1.3 1.5 3.9 3.9 0 0 1-1.6 2.9zm9.2-13.9a4.6 4.6 0 0 1 3.4 1.4l-.9 1.4a3 3 0 0 0-2.5-1.2c-2.2 0-3.3 2.1-3.3 4.4v.4a4.5 4.5 0 0 1 3.3-1.8 3.7 3.7 0 0 1 4 3.8 4 4 0 0 1-4.3 4c-3.5 0-4.8-2.9-4.8-6.2s1.7-6.2 5.1-6.2zm-.4 6.1a3.6 3.6 0 0 0-2.8 1.6c.1 1.5.8 3.1 2.8 3.1a2.4 2.4 0 0 0 2.6-2.3 2.4 2.4 0 0 0-2.6-2.4zm8.8-.1c-1.4-.4-2.6-1.3-2.6-2.8s2.2-3.2 4.3-3.2 4.3 1 4.3 3.2-1.3 2.4-2.6 2.8a3.6 3.6 0 0 1 2.7 3.2c0 2-2 3.2-4.4 3.2s-4.5-1.1-4.5-3.2a3.6 3.6 0 0 1 2.8-3.2zm1.7.8c-.7.1-2.6.7-2.6 2.1s1.2 1.9 2.6 1.9 2.6-.7 2.6-1.9-1.9-2-2.6-2.1zm0-5.2c-1.4 0-2.4.7-2.4 1.8s1.7 1.8 2.4 1.9 2.4-.6 2.4-1.9-1-1.8-2.4-1.8zm11.2-1.6a4.6 4.6 0 0 1 3.4 1.4l-.9 1.4a3 3 0 0 0-2.5-1.2c-2.2 0-3.3 2.1-3.3 4.4v.4a4.5 4.5 0 0 1 3.3-1.8 3.7 3.7 0 0 1 4 3.8 4 4 0 0 1-4.3 4c-3.4 0-4.8-2.9-4.8-6.2s1.7-6.2 5.1-6.2zM408 69a3.6 3.6 0 0 0-2.8 1.6c.1 1.5.8 3.1 2.8 3.1a2.4 2.4 0 0 0 2.6-2.3A2.4 2.4 0 0 0 408 69zm92.2 4.7c4.5-3.5 6.5-5.3 6.5-7.2s-1.1-2-2.3-2a4.3 4.3 0 0 0-3.3 1.5l-1-1.2a5.6 5.6 0 0 1 4.3-1.9c2.1 0 4.2 1.2 4.2 3.6s-2.3 4.5-5.6 7h5.6v1.6h-8.4zm15.9-1.5h-5.7v-1.4l5-7.7h2.5v7.5h1.7v1.6h-1.7v2.9h-1.8zm-3.9-1.6h3.9v-5.9zm8.9 6.2a2.7 2.7 0 0 0 1.3-1.7h-.3a.9.9 0 0 1-1-1 1 1 0 0 1 1.1-1.1 1.3 1.3 0 0 1 1.3 1.5 3.9 3.9 0 0 1-1.6 2.9zm8.8-13.9c3.4 0 4.7 3.2 4.7 6.2s-1.3 6.2-4.7 6.2-4.7-3.2-4.7-6.2 1.4-6.2 4.7-6.2zm0 1.6c-2.1 0-2.8 2.3-2.8 4.6s.7 4.6 2.8 4.6 2.9-2.2 2.9-4.6-.8-4.6-2.9-4.6zm7.7 7.7a4 4 0 0 0 3.3 1.5 2.4 2.4 0 0 0 2.6-2.3 2.3 2.3 0 0 0-2.6-2.4 4 4 0 0 0-2.7 1.1l-1.3-.4v-6.6h7.6v1.6h-5.8v3.8a4 4 0 0 1 2.8-1 3.6 3.6 0 0 1 3.8 3.8c0 2.5-1.9 4-4.4 4a5.2 5.2 0 0 1-4.4-1.9zm14.1-9.3c3.3 0 4.7 3.2 4.7 6.2s-1.4 6.2-4.7 6.2-4.7-3.2-4.7-6.2 1.3-6.2 4.7-6.2zm0 1.6c-2.1 0-2.9 2.3-2.9 4.6s.8 4.6 2.9 4.6 2.8-2.2 2.8-4.6-.7-4.6-2.8-4.6zM654 68.9c-1.4-.4-2.6-1.3-2.6-2.8s2.2-3.2 4.3-3.2 4.2 1 4.2 3.2a3.1 3.1 0 0 1-2.5 2.8 3.6 3.6 0 0 1 2.7 3.2c0 2-2 3.2-4.4 3.2s-4.5-1.1-4.5-3.2a3.6 3.6 0 0 1 2.8-3.2zm1.7.8c-.8.1-2.6.7-2.6 2.1s1.2 1.9 2.6 1.9 2.6-.7 2.6-1.9-1.9-2-2.6-2.1zm0-5.2c-1.4 0-2.5.7-2.5 1.8s1.8 1.8 2.5 1.9 2.4-.6 2.4-1.9-1.1-1.8-2.4-1.8zm11.5 7.7h-5.7v-1.4l5.1-7.7h2.4v7.5h1.7v1.6H669v2.9h-1.8zm-3.9-1.6h3.9v-5.9zm8.9 6.2a2.7 2.7 0 0 0 1.3-1.7h-.3a.9.9 0 0 1-1-1 1 1 0 0 1 1.1-1.1 1.3 1.3 0 0 1 1.3 1.5 3.9 3.9 0 0 1-1.6 2.9zm5.1-11.3l-1.9 2-1.1-1.1 3.2-3.3h1.6v12h-1.8zm4.6 6.7a4.5 4.5 0 0 0 3.4 1.5c1.6 0 2.6-.8 2.6-2s-1.1-1.9-2.8-1.9h-1.3v-1.6h1.3c1.5 0 2.6-.6 2.6-1.8s-1.1-1.9-2.5-1.9a4.3 4.3 0 0 0-3.2 1.4l-.9-1.1a5.2 5.2 0 0 1 4.2-1.9c2.5 0 4.2 1.2 4.2 3.2a2.9 2.9 0 0 1-2.6 2.8 3 3 0 0 1 2.8 3c0 2-1.6 3.4-4.4 3.4a5.5 5.5 0 0 1-4.4-1.9zm12.3-3.3a3.1 3.1 0 0 1-2.5-2.8c0-2.2 2.1-3.2 4.2-3.2s4.3 1 4.3 3.2-1.2 2.4-2.6 2.8a3.6 3.6 0 0 1 2.8 3.2c0 2-2.1 3.2-4.5 3.2s-4.4-1.1-4.4-3.2a3.6 3.6 0 0 1 2.7-3.2zm1.7.8c-.7.1-2.6.7-2.6 2.1s1.2 1.9 2.6 1.9 2.7-.7 2.7-1.9-1.9-2-2.7-2.1zm0-5.2c-1.4 0-2.4.7-2.4 1.8s1.7 1.8 2.4 1.9 2.5-.6 2.5-1.9-1.1-1.8-2.5-1.8zM9.8 105.3h8.1v1.6h-6.3v3.5h6.2v1.6h-6.2v5.3H9.8zm10 3.3h1.6v1.4a3.7 3.7 0 0 1 2.9-1.6v1.7h-.6a3 3 0 0 0-2.3 1.3v6h-1.6zm9.9-.2c2.6 0 4.2 2 4.2 4.7v.4h-6.8a2.8 2.8 0 0 0 2.9 2.7 4.2 4.2 0 0 0 2.6-1l.8 1a4.8 4.8 0 0 1-3.5 1.3 4.6 4.6 0 0 1-.2-9.1zm-2.6 3.9h5.3a2.7 2.7 0 0 0-2.7-2.6 2.6 2.6 0 0 0-2.6 2.6zm14.7-.5c0-1.5-.7-2-1.8-2a3.4 3.4 0 0 0-2.4 1.3v6.2H36v-8.7h1.6v1.2a4.1 4.1 0 0 1 3.1-1.4 2.5 2.5 0 0 1 2.8 2.8v6.1h-1.7zm8.1-3.4a3.9 3.9 0 0 1 3.3 1.5l-1.1 1a2.5 2.5 0 0 0-2.1-1.1 2.9 2.9 0 0 0-2.8 3.2 2.8 2.8 0 0 0 2.8 3.1 2.5 2.5 0 0 0 2.1-1.1l1.1 1a3.9 3.9 0 0 1-3.3 1.5 4.6 4.6 0 0 1 0-9.1zm10.9 3.3c0-1.4-.7-1.9-1.8-1.9a3.4 3.4 0 0 0-2.4 1.3v6.2H55v-12h1.6v4.5a4.1 4.1 0 0 1 3.1-1.4 2.5 2.5 0 0 1 2.8 2.8v6.1h-1.7zm171.8-4.8h-6.3v-1.6h8.4v1.2l-4.8 10.8H228zm1.9 12.1a2.7 2.7 0 0 0 1.2-1.6h-.3a.9.9 0 0 1-.9-1 1 1 0 0 1 1.1-1.1c.6 0 1.2.5 1.2 1.5a3.6 3.6 0 0 1-1.6 2.9zm4.7-4.6a4.5 4.5 0 0 0 3.4 1.5c1.6 0 2.6-.8 2.6-2s-1.1-1.9-2.8-1.9h-1.3v-1.6h1.3c1.5 0 2.6-.6 2.6-1.8s-1.1-1.9-2.5-1.9a4.3 4.3 0 0 0-3.2 1.4l-.9-1.1a5.2 5.2 0 0 1 4.2-1.9c2.5 0 4.2 1.2 4.2 3.2a2.9 2.9 0 0 1-2.6 2.8 3 3 0 0 1 2.8 3c0 2-1.7 3.4-4.4 3.4a5.5 5.5 0 0 1-4.4-1.9zm14.2-9.3c3.4 0 4.7 3.2 4.7 6.2s-1.3 6.2-4.7 6.2-4.7-3.2-4.7-6.2 1.4-6.2 4.7-6.2zm0 1.6c-2.1 0-2.8 2.3-2.8 4.6s.7 4.6 2.8 4.6 2.9-2.2 2.9-4.6-.7-4.6-2.9-4.6zm11.8 7.7h-5.7V113l5-7.7h2.5v7.6h1.7v1.5H267v2.9h-1.8zm-3.9-1.5h3.9v-6zm121.8-6h-6.3v-1.6h8.4v1.2l-4.8 10.8h-2zm1.8 12.1a2.8 2.8 0 0 0 1.3-1.6h-.3a.9.9 0 0 1-1-1 1 1 0 0 1 1.1-1.1 1.3 1.3 0 0 1 1.3 1.5 3.9 3.9 0 0 1-1.6 2.9zm5.1-11.3l-1.9 2-1.1-1.1 3.2-3.3h1.6v12H390zm4.1 8.2c4.5-3.5 6.6-5.3 6.6-7.2s-1.2-2-2.4-2a3.9 3.9 0 0 0-3.2 1.5L394 107a5.6 5.6 0 0 1 4.3-1.9c2.2 0 4.2 1.3 4.2 3.6s-2.3 4.5-5.6 7h5.6v1.6h-8.4zm16.5-9h-6.3v-1.6h8.4v1.2l-4.8 10.8H406zm105.5-1.8a4.6 4.6 0 0 1 3.4 1.4l-.9 1.4a3 3 0 0 0-2.5-1.2c-2.2 0-3.3 2.1-3.3 4.4v.4a4.2 4.2 0 0 1 3.3-1.8 3.7 3.7 0 0 1 4 3.9 4 4 0 0 1-4.3 3.9c-3.5 0-4.8-2.9-4.8-6.2s1.6-6.2 5.1-6.2zm-.4 6.1a3.6 3.6 0 0 0-2.9 1.7c.2 1.4.9 3 2.9 3a2.4 2.4 0 0 0 2.6-2.3 2.4 2.4 0 0 0-2.6-2.4zm6.2 7.8a2.7 2.7 0 0 0 1.2-1.6h-.2a.9.9 0 0 1-1-1 1 1 0 0 1 1.1-1.1c.7 0 1.2.5 1.2 1.5a3.8 3.8 0 0 1-1.5 2.9zm6.9-7.9c-1.4-.4-2.6-1.3-2.6-2.8s2.2-3.2 4.3-3.2 4.2 1 4.2 3.2-1.2 2.4-2.6 2.8a3.6 3.6 0 0 1 2.8 3.2c0 2-2 3.2-4.4 3.2s-4.5-1.1-4.5-3.2a3.6 3.6 0 0 1 2.8-3.2zm1.7.8c-.8.1-2.7.7-2.7 2.1s1.2 1.9 2.7 1.9 2.6-.7 2.6-1.9-1.9-2-2.6-2.1zm0-5.2c-1.4 0-2.5.7-2.5 1.8s1.7 1.8 2.5 1.9 2.4-.6 2.4-1.9-1.1-1.8-2.4-1.8zm7.5 8.1a3.2 3.2 0 0 0 2.6 1.1c2.3 0 3.2-2.2 3.2-4.3v-.4a4.2 4.2 0 0 1-3.3 1.8 3.8 3.8 0 0 1-4-3.9 4 4 0 0 1 4.3-4c3.5 0 4.8 2.9 4.8 6.2s-1.6 6.2-5 6.2a4 4 0 0 1-3.4-1.4zm2.9-8.1a2.4 2.4 0 0 0-2.5 2.3 2.3 2.3 0 0 0 2.6 2.4 3.3 3.3 0 0 0 2.8-1.6c-.1-1.4-.9-3.1-2.9-3.1zm7.9 8.1a3 3 0 0 0 2.5 1.1c2.3 0 3.3-2.2 3.3-4.3v-.4a4.6 4.6 0 0 1-3.4 1.8 3.8 3.8 0 0 1-4-3.9c0-2.2 1.7-4 4.4-4s4.8 2.9 4.8 6.2-1.7 6.2-5.1 6.2a4.3 4.3 0 0 1-3.4-1.4zm2.9-8.1a2.4 2.4 0 0 0-2.6 2.3 2.4 2.4 0 0 0 2.6 2.4 3.3 3.3 0 0 0 2.8-1.6c-.1-1.4-.9-3.1-2.8-3.1zm98.4 7.7a4.5 4.5 0 0 0 3.4 1.5c1.6 0 2.6-.8 2.6-2s-1-1.9-2.8-1.9H652v-1.6h1.3c1.5 0 2.7-.6 2.7-1.8s-1.2-1.9-2.6-1.9a4 4 0 0 0-3.1 1.4l-1-1.1a5.2 5.2 0 0 1 4.2-1.9c2.5 0 4.3 1.2 4.3 3.2a3 3 0 0 1-2.7 2.8 3 3 0 0 1 2.8 3c0 2-1.6 3.4-4.4 3.4a5.7 5.7 0 0 1-4.4-1.9zm14.7-9.3a4.3 4.3 0 0 1 3.3 1.4l-.8 1.4a3.2 3.2 0 0 0-2.5-1.2c-2.2 0-3.3 2.1-3.3 4.4v.4a4.2 4.2 0 0 1 3.3-1.8 3.7 3.7 0 0 1 4 3.9 4 4 0 0 1-4.3 3.9c-3.5 0-4.8-2.9-4.8-6.2s1.6-6.2 5.1-6.2zm-.5 6.1a3.4 3.4 0 0 0-2.8 1.7c.2 1.4.9 3 2.9 3a2.4 2.4 0 1 0-.1-4.7zm6.3 7.8a2.7 2.7 0 0 0 1.2-1.6h-.3a.9.9 0 0 1-.9-1 1 1 0 0 1 1.1-1.1c.6 0 1.2.5 1.2 1.5a3.6 3.6 0 0 1-1.6 2.9zm5.5-4.2a3.2 3.2 0 0 0 2.6 1.1c2.3 0 3.2-2.2 3.2-4.3v-.4a4.2 4.2 0 0 1-3.3 1.8 3.8 3.8 0 0 1-4-3.9 4 4 0 0 1 4.3-4c3.5 0 4.9 2.9 4.9 6.2s-1.7 6.2-5.1 6.2a4 4 0 0 1-3.4-1.4zm2.9-8.1a2.4 2.4 0 0 0-2.5 2.3 2.3 2.3 0 0 0 2.6 2.4 3.3 3.3 0 0 0 2.8-1.6c-.1-1.4-.9-3.1-2.9-3.1zm7.1 7.7a4.3 4.3 0 0 0 3.3 1.5c1.7 0 2.6-.8 2.6-2s-1-1.9-2.8-1.9h-1.3v-1.6h1.3c1.5 0 2.7-.6 2.7-1.8s-1.2-1.9-2.6-1.9a4 4 0 0 0-3.1 1.4l-1-1.1a5.3 5.3 0 0 1 4.3-1.9c2.4 0 4.2 1.2 4.2 3.2a3 3 0 0 1-2.6 2.8 3 3 0 0 1 2.7 3c0 2-1.6 3.4-4.3 3.4a5.8 5.8 0 0 1-4.5-1.9zm12-6.7l-2 2-1-1.1 3.2-3.3h1.6v12h-1.8zM9.8 147.5h1.8v12H9.8zm4.8 10.1v-5.4h-1.4v-1.4h1.4v-2.4h1.6v2.4H18v1.4h-1.8v5c0 .6.3 1.1.9 1.1a1.9 1.9 0 0 0 .9-.3l.4 1.2a2.6 2.6 0 0 1-1.7.5 1.9 1.9 0 0 1-2.1-2.1zm10.6 1a4 4 0 0 1-2.9 1.1 2.9 2.9 0 1 1 0-5.7 3.7 3.7 0 0 1 2.9 1.2v-1.5c0-1.1-.9-1.7-2.2-1.7a3.8 3.8 0 0 0-2.6 1.1l-.7-1.1a5.2 5.2 0 0 1 3.6-1.4c1.9 0 3.5.8 3.5 3v5.9h-1.6zm0-2.5a3.1 3.1 0 0 0-2.3-1 1.8 1.8 0 1 0 0 3.5 2.8 2.8 0 0 0 2.3-1zm4.2-8.6H31v12h-1.6zm3.9.8a1.1 1.1 0 0 1 1.1-1 1.1 1.1 0 0 1 1 1 1.1 1.1 0 0 1-1 1.1 1.1 1.1 0 0 1-1.1-1.1zm.3 2.5h1.6v8.7h-1.6zm9.5 7.8a3.9 3.9 0 0 1-2.8 1.1 2.9 2.9 0 1 1 0-5.7 3.5 3.5 0 0 1 2.8 1.2v-1.5c0-1.1-.9-1.7-2.1-1.7a3.8 3.8 0 0 0-2.6 1.1l-.7-1.1a5.1 5.1 0 0 1 3.6-1.4c1.8 0 3.4.8 3.4 3v5.9h-1.6zm0-2.5a2.9 2.9 0 0 0-2.2-1 1.8 1.8 0 1 0 0 3.5 2.6 2.6 0 0 0 2.2-1zm10.1-2.1c0-1.5-.7-2-1.8-2a3 3 0 0 0-2.4 1.3v6.2h-1.7v-8.7H49v1.2a3.9 3.9 0 0 1 3-1.4 2.5 2.5 0 0 1 2.8 2.8v6.1h-1.6zm178.9-4.9h-6.4v-1.6h8.5v1.3l-4.8 10.7h-2zm1.8 12.1a2.8 2.8 0 0 0 1.3-1.6h-.3a.9.9 0 0 1-1-1 1.1 1.1 0 0 1 1.1-1.1 1.3 1.3 0 0 1 1.3 1.5 3.9 3.9 0 0 1-1.6 2.9zm9.5-4.6h-5.7v-1.4l5.1-7.7h2.4v7.6h1.7v1.5h-1.7v2.9h-1.8zm-3.9-1.5h3.9v-6zm13.8-7.8a4.3 4.3 0 0 1 3.4 1.4l-.8 1.4a3.4 3.4 0 0 0-2.6-1.2c-2.1 0-3.2 2.1-3.2 4.4v.4a4.2 4.2 0 0 1 3.3-1.8 3.7 3.7 0 0 1 4 3.9c0 2.1-1.7 3.9-4.4 3.9s-4.7-2.9-4.7-6.2 1.6-6.2 5-6.2zm-.4 6.2a3.3 3.3 0 0 0-2.8 1.6c.2 1.4.9 3 2.9 3a2.3 2.3 0 0 0 2.5-2.3c0-1.6-1.1-2.3-2.6-2.3zm10.8-6.2c3.3 0 4.7 3.3 4.7 6.2s-1.4 6.2-4.7 6.2-4.7-3.2-4.7-6.2 1.4-6.2 4.7-6.2zm0 1.6c-2.1 0-2.9 2.3-2.9 4.6s.8 4.6 2.9 4.6 2.8-2.2 2.8-4.6-.7-4.6-2.8-4.6zm106 7.7a3.7 3.7 0 0 0 3.2 1.5 2.4 2.4 0 1 0 .1-4.7 3.9 3.9 0 0 0-2.7 1.1l-1.3-.4v-6.6h7.6v1.6h-5.8v3.8a4.2 4.2 0 0 1 2.7-1 3.8 3.8 0 0 1 3.9 3.8c0 2.5-1.9 4-4.5 4a5 5 0 0 1-4.3-1.9zm9.5 4.6a2.8 2.8 0 0 0 1.3-1.6h-.3a.9.9 0 0 1-1-1 1.1 1.1 0 0 1 1.1-1.1 1.3 1.3 0 0 1 1.3 1.5 3.9 3.9 0 0 1-1.6 2.9zm6.9-7.9c-1.4-.4-2.6-1.3-2.6-2.8s2.2-3.2 4.3-3.2 4.2 1 4.2 3.2a3.1 3.1 0 0 1-2.5 2.8 3.6 3.6 0 0 1 2.7 3.2c0 2-2 3.2-4.4 3.2s-4.5-1.1-4.5-3.2a3.6 3.6 0 0 1 2.8-3.2zm1.7.8c-.8.1-2.6.7-2.6 2.1s1.2 1.9 2.6 1.9 2.6-.7 2.6-1.9-1.9-2-2.6-2.1zm0-5.2c-1.4 0-2.4.7-2.4 1.8s1.7 1.8 2.4 1.9 2.4-.6 2.4-1.9-1.1-1.8-2.4-1.8zm12.1.2h-6.3v-1.6h8.4v1.3l-4.8 10.7h-1.9zm4.7 7.5a4 4 0 0 0 3.3 1.5 2.4 2.4 0 1 0 .1-4.7 3.9 3.9 0 0 0-2.7 1.1l-1.3-.4v-6.6h7.6v1.6h-5.8v3.8a4 4 0 0 1 2.7-1 3.8 3.8 0 0 1 3.9 3.8c0 2.5-1.9 4-4.5 4a5 5 0 0 1-4.3-1.9zm115.2 0h-5.7v-1.4l5.1-7.7h2.4v7.6h1.7v1.5h-1.7v2.9h-1.8zm-3.9-1.5h3.9v-6zm9 6.1a3.1 3.1 0 0 0 1.2-1.6h-.3a1 1 0 0 1-1-1 1.1 1.1 0 0 1 1.1-1.1 1.3 1.3 0 0 1 1.3 1.5 3.9 3.9 0 0 1-1.6 2.9zm8.9-12.1h-6.4v-1.6h8.4v1.3l-4.7 10.7h-2zm4.8 7.9a3 3 0 0 0 2.5 1.1c2.3 0 3.3-2.2 3.3-4.3v-.4a4.5 4.5 0 0 1-3.3 1.8 3.8 3.8 0 0 1-4-3.9 4 4 0 0 1 4.3-4c3.5 0 4.8 2.9 4.8 6.2s-1.7 6.2-5.1 6.2a4.3 4.3 0 0 1-3.4-1.4zm2.9-8.1a2.5 2.5 0 0 0-2.6 2.3 2.4 2.4 0 0 0 2.6 2.4 3.3 3.3 0 0 0 2.8-1.6c-.1-1.4-.8-3.1-2.8-3.1zm7 7.7a4.5 4.5 0 0 0 3.4 1.5c1.6 0 2.6-.8 2.6-2s-1.1-1.9-2.8-1.9h-1.3v-1.6h1.3c1.4 0 2.6-.6 2.6-1.8s-1.1-1.9-2.5-1.9a4.3 4.3 0 0 0-3.2 1.4l-.9-1.1a5.2 5.2 0 0 1 4.2-1.9c2.5 0 4.2 1.2 4.2 3.3a2.9 2.9 0 0 1-2.6 2.7 3 3 0 0 1 2.8 3c0 2-1.7 3.4-4.4 3.4a5.2 5.2 0 0 1-4.4-1.9zm107.7-6.7l-1.9 2-1.1-1.1 3.2-3.3h1.6v12h-1.8zm10-.8h-6.3v-1.6h8.4v1.3l-4.8 10.7h-2zm1.9 12.1a3.1 3.1 0 0 0 1.2-1.6h-.3a1 1 0 0 1-1-1 1.1 1.1 0 0 1 1.1-1.1 1.3 1.3 0 0 1 1.3 1.5 3.9 3.9 0 0 1-1.6 2.9zm8.8-12.1h-6.3v-1.6h8.4v1.3l-4.8 10.7h-1.9zm8.1-1.8c3.4 0 4.7 3.3 4.7 6.2s-1.3 6.2-4.7 6.2-4.7-3.2-4.7-6.2 1.4-6.2 4.7-6.2zm0 1.6c-2.1 0-2.8 2.3-2.8 4.6s.7 4.6 2.8 4.6 2.9-2.2 2.9-4.6-.7-4.6-2.9-4.6zm6.5 9.2c4.5-3.5 6.6-5.3 6.6-7.2s-1.2-2-2.4-2a3.9 3.9 0 0 0-3.2 1.5l-1.1-1.2a5.6 5.6 0 0 1 4.3-1.9c2.2 0 4.2 1.3 4.2 3.6s-2.3 4.5-5.5 7h5.6v1.6h-8.5zM9.8 189.5h5.1a3.7 3.7 0 1 1 0 7.4h-3.3v4.6H9.8zm4.9 1.6h-3.1v4.2h3.1a2.1 2.1 0 1 0 0-4.2zm5.1 6.1a4.4 4.4 0 1 1 8.7 0 4.2 4.2 0 0 1-4.4 4.5 4.2 4.2 0 0 1-4.3-4.5zm7 0c0-1.7-.9-3.2-2.7-3.2s-2.7 1.5-2.7 3.2a2.9 2.9 0 0 0 2.7 3.1c1.8 0 2.7-1.5 2.7-3.1zm3.8-4.4h1.6v1.4a3.7 3.7 0 0 1 2.9-1.6v1.7h-.6a3 3 0 0 0-2.3 1.3v6h-1.6zm6.4 6.8v-5.4h-1.4v-1.4H37v-2.4h1.6v2.4h1.8v1.4h-1.8v5c0 .6.3 1.1.9 1.1a1.5 1.5 0 0 0 .8-.3l.5 1.2a2.6 2.6 0 0 1-1.7.5 1.9 1.9 0 0 1-2.1-2.1zm11 .7a3.8 3.8 0 0 1-3 1.4c-1.9 0-2.8-.9-2.8-2.7v-6.2h1.6v5.6c0 1.5.7 1.9 1.8 1.9a3.1 3.1 0 0 0 2.4-1.2v-6.3h1.7v8.7H48zm4.9 2.3a3.6 3.6 0 0 0 2.8 1.1c1.4 0 2.7-.6 2.7-2.5v-1.1a3.5 3.5 0 0 1-2.8 1.5c-2.3 0-3.9-1.7-3.9-4.5s1.6-4.5 3.9-4.5a3.3 3.3 0 0 1 2.8 1.5v-1.3h1.7v8.4c0 3-2.2 3.8-4.4 3.8a4.8 4.8 0 0 1-3.5-1.2zm5.5-7.3A2.9 2.9 0 0 0 56 194c-1.6 0-2.6 1.3-2.6 3.1s1 3.1 2.6 3.1a2.9 2.9 0 0 0 2.4-1.3zm10.1 5a4.1 4.1 0 0 1-3.1 1.4c-1.9 0-2.8-.9-2.8-2.7v-6.2h1.6v5.6c0 1.5.8 1.9 1.9 1.9a3.3 3.3 0 0 0 2.4-1.2v-6.3h1.6v8.7h-1.6zm8-7.7c2.6 0 4.2 2 4.2 4.7v.4h-6.8a2.8 2.8 0 0 0 2.9 2.7 4.2 4.2 0 0 0 2.6-1l.7 1a4.5 4.5 0 0 1-3.5 1.3 4.4 4.4 0 0 1-4.5-4.5 4.4 4.4 0 0 1 4.4-4.6zm-2.7 3.9h5.4a2.7 2.7 0 0 0-5.4 0zm9 2.7a4.3 4.3 0 0 0 2.9 1.2c1.2 0 1.9-.5 1.9-1.2s-1-1.2-2.1-1.4-3.2-.7-3.2-2.6 1.2-2.6 3.3-2.6a4.5 4.5 0 0 1 3.3 1.2l-.7 1.2a3.5 3.5 0 0 0-2.6-1.1c-1.1 0-1.8.5-1.8 1.2s.9 1 2 1.2 3.3.8 3.3 2.8-1.2 2.6-3.5 2.6a5 5 0 0 1-3.6-1.3zm12.2-6.6c2.6 0 4.2 2 4.2 4.7v.4h-6.8a2.8 2.8 0 0 0 2.9 2.7 4.2 4.2 0 0 0 2.6-1l.7 1a4.4 4.4 0 0 1-3.4 1.3 4.6 4.6 0 0 1-.2-9.1zm-2.7 3.9h5.4a2.7 2.7 0 0 0-5.4 0zm132.5 2.1a4.5 4.5 0 0 0 3.4 1.5c1.6 0 2.6-.8 2.6-2s-1.1-1.9-2.8-1.9h-1.3v-1.6h1.3c1.4 0 2.6-.6 2.6-1.8s-1.1-1.9-2.5-1.9a4.3 4.3 0 0 0-3.2 1.4l-.9-1.1a5.2 5.2 0 0 1 4.2-1.9c2.5 0 4.2 1.2 4.2 3.3a2.9 2.9 0 0 1-2.6 2.7 3 3 0 0 1 2.8 3c0 2-1.7 3.4-4.4 3.4a5.2 5.2 0 0 1-4.4-1.9zm9.7 4.6a2.8 2.8 0 0 0 1.3-1.6h-.3a.9.9 0 0 1-1-1 1.1 1.1 0 0 1 1.1-1.1 1.3 1.3 0 0 1 1.3 1.5 3.9 3.9 0 0 1-1.6 2.9zm9.5-4.6h-5.7v-1.4l5.1-7.7h2.4v7.6h1.7v1.5h-1.7v2.9H244zm-3.9-1.5h3.9v-6zm11.6-1.8c-1.4-.4-2.6-1.3-2.6-2.8s2.2-3.2 4.2-3.2 4.3 1 4.3 3.2-1.2 2.4-2.6 2.8a3.6 3.6 0 0 1 2.8 3.2c0 2-2.1 3.2-4.5 3.2s-4.4-1.1-4.4-3.2a3.6 3.6 0 0 1 2.8-3.2zm1.6.8c-.7.1-2.6.7-2.6 2.1s1.2 1.9 2.6 1.9 2.7-.7 2.7-1.9-1.9-2-2.7-2.1zm0-5.2c-1.4 0-2.4.7-2.4 1.8s1.7 1.8 2.4 1.9 2.5-.6 2.5-1.9-1.1-1.8-2.5-1.8zm8.9 4.4a3.1 3.1 0 0 1-2.5-2.8c0-2.2 2.1-3.2 4.2-3.2s4.3 1 4.3 3.2-1.2 2.4-2.6 2.8a3.6 3.6 0 0 1 2.8 3.2c0 2-2.1 3.2-4.5 3.2s-4.4-1.1-4.4-3.2a3.6 3.6 0 0 1 2.7-3.2zm1.7.8c-.7.1-2.6.7-2.6 2.1s1.2 1.9 2.6 1.9 2.7-.7 2.7-1.9-2-2-2.7-2.1zm0-5.2c-1.4 0-2.4.7-2.4 1.8s1.7 1.8 2.4 1.9 2.5-.6 2.5-1.9-1.1-1.8-2.5-1.8zm106 7.7a4.5 4.5 0 0 0 3.4 1.5c1.6 0 2.6-.8 2.6-2s-1.1-1.9-2.8-1.9h-1.3v-1.6h1.3c1.4 0 2.6-.6 2.6-1.8s-1.1-1.9-2.6-1.9a4.3 4.3 0 0 0-3.1 1.4l-.9-1.1a5.2 5.2 0 0 1 4.2-1.9c2.5 0 4.2 1.2 4.2 3.3a2.9 2.9 0 0 1-2.6 2.7 3.1 3.1 0 0 1 2.8 3c0 2-1.7 3.4-4.4 3.4a5.2 5.2 0 0 1-4.4-1.9zm9.7 4.6a2.8 2.8 0 0 0 1.3-1.6h-.3a.9.9 0 0 1-1-1 1.1 1.1 0 0 1 1.1-1.1 1.3 1.3 0 0 1 1.3 1.5 3.9 3.9 0 0 1-1.6 2.9zm4.8-4.6a4.3 4.3 0 0 0 3.3 1.5c1.7 0 2.7-.8 2.7-2s-1.1-1.9-2.9-1.9h-1.3v-1.6h1.3c1.5 0 2.7-.6 2.7-1.8s-1.2-1.9-2.6-1.9a4.1 4.1 0 0 0-3.1 1.4l-1-1.1a5.3 5.3 0 0 1 4.3-1.9c2.4 0 4.2 1.2 4.2 3.3a2.9 2.9 0 0 1-2.6 2.7 3.1 3.1 0 0 1 2.8 3c0 2-1.7 3.4-4.4 3.4a5.1 5.1 0 0 1-4.4-1.9zm15.5-7.5h-6.3v-1.6h8.4v1.3l-4.8 10.7h-2zm8.5-1.8a4.6 4.6 0 0 1 3.4 1.4l-.9 1.4a3 3 0 0 0-2.5-1.2c-2.2 0-3.3 2.1-3.3 4.4v.4a4.5 4.5 0 0 1 3.3-1.8 3.7 3.7 0 0 1 4 3.9 4 4 0 0 1-4.3 3.9c-3.5 0-4.8-2.9-4.8-6.2s1.7-6.2 5.1-6.2zm-.4 6.2a3.3 3.3 0 0 0-2.8 1.6c.1 1.4.8 3 2.8 3a2.4 2.4 0 0 0 2.6-2.3c0-1.6-1.2-2.3-2.6-2.3zm103.7 3.1a4.5 4.5 0 0 0 3.4 1.5c1.6 0 2.6-.8 2.6-2s-1-1.9-2.8-1.9h-1.3v-1.6h1.3c1.5 0 2.7-.6 2.7-1.8s-1.2-1.9-2.6-1.9a4.3 4.3 0 0 0-3.2 1.4l-.9-1.1a5.2 5.2 0 0 1 4.2-1.9c2.5 0 4.3 1.2 4.3 3.3a3 3 0 0 1-2.7 2.7 3 3 0 0 1 2.8 3c0 2-1.6 3.4-4.4 3.4a5.4 5.4 0 0 1-4.4-1.9zm9.8 4.6a3.1 3.1 0 0 0 1.2-1.6h-.3a1 1 0 0 1-1-1 1.1 1.1 0 0 1 1.1-1.1 1.3 1.3 0 0 1 1.3 1.5 3.9 3.9 0 0 1-1.6 2.9zm5.4-4.6a3.9 3.9 0 0 0 3.3 1.5 2.4 2.4 0 1 0 0-4.7 3.9 3.9 0 0 0-2.7 1.1l-1.3-.4v-6.6h7.6v1.6H528v3.8a4.4 4.4 0 0 1 2.7-1 3.7 3.7 0 0 1 3.9 3.8c0 2.5-1.9 4-4.4 4a5.1 5.1 0 0 1-4.4-1.9zm10.8.4a3 3 0 0 0 2.5 1.1c2.3 0 3.3-2.2 3.3-4.3v-.4a4.3 4.3 0 0 1-3.3 1.8 3.8 3.8 0 0 1-4-3.9 4 4 0 0 1 4.3-4c3.5 0 4.8 2.9 4.8 6.2s-1.6 6.2-5.1 6.2a4.3 4.3 0 0 1-3.4-1.4zm2.9-8.1a2.5 2.5 0 0 0-2.6 2.3 2.4 2.4 0 0 0 2.6 2.4 3.6 3.6 0 0 0 2.9-1.6c-.2-1.4-.9-3.1-2.9-3.1zm11.1-1.6c3.3 0 4.7 3.3 4.7 6.2s-1.4 6.2-4.7 6.2-4.7-3.2-4.7-6.2 1.3-6.2 4.7-6.2zm0 1.6c-2.1 0-2.9 2.3-2.9 4.6s.8 4.6 2.9 4.6 2.8-2.2 2.8-4.6-.7-4.6-2.8-4.6zm96.7 9.2c4.5-3.5 6.6-5.3 6.6-7.2s-1.2-2-2.4-2a3.9 3.9 0 0 0-3.2 1.5l-1.1-1.2a5.6 5.6 0 0 1 4.3-1.9c2.2 0 4.2 1.3 4.2 3.6s-2.2 4.5-5.5 7h5.6v1.6h-8.5zm13-8.2l-1.9 2-1.1-1.1 3.2-3.3h1.6v12h-1.8zm4.2 11.3a2.7 2.7 0 0 0 1.2-1.6h-.3a.9.9 0 0 1-.9-1 1.1 1.1 0 0 1 1.1-1.1c.6 0 1.2.5 1.2 1.5a3.6 3.6 0 0 1-1.6 2.9zm5.4-4.6a4 4 0 0 0 3.3 1.5 2.4 2.4 0 1 0 0-4.7 4 4 0 0 0-2.7 1.1l-1.3-.4v-6.6h7.6v1.6h-5.8v3.8a4.5 4.5 0 0 1 2.8-1 3.7 3.7 0 0 1 3.8 3.8c0 2.5-1.9 4-4.4 4a5.4 5.4 0 0 1-4.4-1.9zm14.1-9.3c3.3 0 4.7 3.3 4.7 6.2s-1.4 6.2-4.7 6.2-4.7-3.2-4.7-6.2 1.4-6.2 4.7-6.2zm0 1.6c-2.1 0-2.9 2.3-2.9 4.6s.8 4.6 2.9 4.6 2.8-2.2 2.8-4.6-.7-4.6-2.8-4.6zm9.1 4.4a3.1 3.1 0 0 1-2.5-2.8c0-2.2 2.1-3.2 4.2-3.2s4.3 1 4.3 3.2-1.3 2.4-2.6 2.8a3.5 3.5 0 0 1 2.7 3.2c0 2-2 3.2-4.4 3.2s-4.4-1.1-4.4-3.2a3.6 3.6 0 0 1 2.7-3.2zm1.7.8c-.7.1-2.6.7-2.6 2.1s1.2 1.9 2.6 1.9 2.6-.7 2.6-1.9-1.9-2-2.6-2.1zm0-5.2c-1.4 0-2.4.7-2.4 1.8s1.7 1.8 2.4 1.9 2.5-.6 2.5-1.9-1.1-1.8-2.5-1.8zM15.6 231.3a5.5 5.5 0 0 1 4.7 2.4l-1.4.8a4.2 4.2 0 0 0-3.3-1.6 4.6 4.6 0 1 0 3 8v-2.1h-3.8v-1.6h5.6v4.4a6.2 6.2 0 0 1-4.8 2.1 6.2 6.2 0 1 1 0-12.4zm10.9 3.3c2.6 0 4.2 2 4.2 4.7v.4h-6.9a3 3 0 0 0 3 2.7 4.2 4.2 0 0 0 2.6-1l.7 1a4.6 4.6 0 0 1-3.5 1.3 4.3 4.3 0 0 1-4.5-4.6 4.4 4.4 0 0 1 4.4-4.5zm-2.7 3.9h5.3a2.6 2.6 0 0 0-2.6-2.6 2.7 2.7 0 0 0-2.7 2.6zm9-3.7h1.6v1.3a3.7 3.7 0 0 1 2.8-1.5v1.6h-.5a3 3 0 0 0-2.3 1.3v6h-1.6zm16.6 2.9c0-1-.4-1.7-1.5-1.7a2.7 2.7 0 0 0-2.2 1.3v6.2h-1.6v-5.8c0-1-.4-1.7-1.5-1.7a2.8 2.8 0 0 0-2.1 1.3v6.2h-1.7v-8.7h1.7v1.2a3.7 3.7 0 0 1 2.8-1.4 2.2 2.2 0 0 1 2.3 1.6 3.7 3.7 0 0 1 3-1.6c1.6 0 2.4.9 2.4 2.6v6.3h-1.6zm9.6 4.8a3.7 3.7 0 0 1-2.9 1.2 2.9 2.9 0 0 1-3-2.9 2.8 2.8 0 0 1 3-2.8 4 4 0 0 1 2.9 1.1v-1.4c0-1.1-.9-1.7-2.2-1.7a3.8 3.8 0 0 0-2.6 1.1l-.7-1.1a5.2 5.2 0 0 1 3.6-1.4c1.9 0 3.5.8 3.5 3v5.9H59zm0-2.4a3.1 3.1 0 0 0-2.3-1 1.8 1.8 0 1 0 0 3.5 3.1 3.1 0 0 0 2.3-1zm10-2.2c0-1.4-.7-1.9-1.8-1.9a3.1 3.1 0 0 0-2.4 1.3v6.2h-1.6v-8.7h1.6v1.2a4.1 4.1 0 0 1 3.1-1.4 2.5 2.5 0 0 1 2.8 2.8v6.1H69zm164.9-4.8h-6.3v-1.6h8.4v1.2l-4.8 10.8h-1.9zm1.9 12.1a2.6 2.6 0 0 0 1.2-1.7h-.3a1.1 1.1 0 0 1 .2-2.1 1.3 1.3 0 0 1 1.2 1.4 3.4 3.4 0 0 1-1.6 2.9zm4.7-4.6a4.5 4.5 0 0 0 3.4 1.5c1.6 0 2.6-.8 2.6-2s-1.1-1.9-2.8-1.9h-1.3v-1.6h1.3c1.4 0 2.6-.6 2.6-1.8s-1.1-1.9-2.5-1.9a4.3 4.3 0 0 0-3.2 1.4l-.9-1.1a5.2 5.2 0 0 1 4.2-1.9c2.5 0 4.2 1.2 4.2 3.2a2.9 2.9 0 0 1-2.6 2.8 3 3 0 0 1 2.8 2.9c0 2.1-1.7 3.5-4.4 3.5a5.5 5.5 0 0 1-4.4-1.9zm12.3-3.3a3.1 3.1 0 0 1-2.5-2.9c0-2.1 2.1-3.1 4.2-3.1s4.3 1 4.3 3.1a3.2 3.2 0 0 1-2.6 2.9c1.5.5 2.8 1.6 2.8 3.1s-2.1 3.3-4.5 3.3-4.4-1.2-4.4-3.3 1.3-2.6 2.7-3.1zm1.7.8c-.7.1-2.6.7-2.6 2.1s1.2 1.9 2.6 1.9 2.7-.7 2.7-1.9-2-2-2.7-2.1zm0-5.2c-1.4 0-2.4.7-2.4 1.8s1.7 1.8 2.4 1.9 2.5-.6 2.5-1.9-1.1-1.8-2.5-1.8zm12.2.2h-6.4v-1.6h8.4v1.2l-4.7 10.8h-2zm107.2-1.8a4.3 4.3 0 0 1 3.4 1.4l-.8 1.4a3.4 3.4 0 0 0-2.6-1.2c-2.1 0-3.2 2.1-3.2 4.4v.4a3.9 3.9 0 0 1 3.3-1.8 3.7 3.7 0 0 1 4 3.8c0 2.2-1.7 4-4.4 4s-4.7-2.9-4.7-6.2 1.6-6.2 5-6.2zm-.4 6.1a3.6 3.6 0 0 0-2.8 1.6c.2 1.4.9 3.1 2.9 3.1a2.4 2.4 0 1 0-.1-4.7zm6.3 7.8a2.6 2.6 0 0 0 1.2-1.7h-.3a1 1 0 0 1-.9-1.1 1 1 0 0 1 1.1-1 1.3 1.3 0 0 1 1.2 1.4 3.4 3.4 0 0 1-1.6 2.9zm4.7-4.6a4.5 4.5 0 0 0 3.4 1.5c1.6 0 2.6-.8 2.6-2s-1.1-1.9-2.8-1.9h-1.3v-1.6h1.3c1.4 0 2.6-.6 2.6-1.8s-1.1-1.9-2.5-1.9a4.3 4.3 0 0 0-3.2 1.4l-.9-1.1a5.2 5.2 0 0 1 4.2-1.9c2.5 0 4.2 1.2 4.2 3.2a2.9 2.9 0 0 1-2.6 2.8 3 3 0 0 1 2.8 2.9c0 2.1-1.7 3.5-4.4 3.5a5.5 5.5 0 0 1-4.4-1.9zm12.3-3.3a3.1 3.1 0 0 1-2.5-2.9c0-2.1 2.1-3.1 4.2-3.1s4.3 1 4.3 3.1a3.2 3.2 0 0 1-2.6 2.9 3.5 3.5 0 0 1 2.7 3.1c0 2.1-2 3.3-4.4 3.3s-4.4-1.2-4.4-3.3a3.5 3.5 0 0 1 2.7-3.1zm1.7.8c-.7.1-2.6.7-2.6 2.1s1.2 1.9 2.6 1.9 2.6-.7 2.6-1.9-1.9-2-2.6-2.1zm0-5.2c-1.4 0-2.4.7-2.4 1.8s1.7 1.8 2.4 1.9 2.4-.6 2.4-1.9-1-1.8-2.4-1.8zm12.2.2h-6.4v-1.6h8.4v1.2l-4.8 10.8H406zm110 7.5a4 4 0 0 0 3.3 1.5 2.3 2.3 0 0 0 2.6-2.3 2.3 2.3 0 0 0-2.6-2.4 3.6 3.6 0 0 0-2.7 1.1l-1.3-.4v-6.6h7.6v1.6h-5.8v3.8a4 4 0 0 1 2.8-1 3.6 3.6 0 0 1 3.8 3.8c0 2.5-1.8 4-4.4 4a5 5 0 0 1-4.3-1.9zm9.6 4.6a2.6 2.6 0 0 0 1.2-1.7h-.3a1.1 1.1 0 0 1 .2-2.1 1.3 1.3 0 0 1 1.2 1.4 3.4 3.4 0 0 1-1.6 2.9zm9.2-13.9a4.6 4.6 0 0 1 3.4 1.4l-.9 1.4a3 3 0 0 0-2.5-1.2c-2.2 0-3.3 2.1-3.3 4.4v.4a3.9 3.9 0 0 1 3.3-1.8 3.7 3.7 0 0 1 4 3.8 4 4 0 0 1-4.3 4c-3.5 0-4.8-2.9-4.8-6.2s1.6-6.2 5.1-6.2zm-.4 6.1a3.7 3.7 0 0 0-2.9 1.6c.2 1.4.9 3.1 2.9 3.1a2.4 2.4 0 0 0 2.6-2.3 2.4 2.4 0 0 0-2.6-2.4zm8.5-3.5l-1.9 2-1.1-1.1 3.2-3.3h1.6v12h-1.8zm6.5 0l-2 2-1-1.1 3.2-3.3h1.6v12h-1.8zm99.9 8.2c4.5-3.5 6.6-5.3 6.6-7.2a2.1 2.1 0 0 0-2.3-2 4.1 4.1 0 0 0-3.3 1.5l-1-1.2a5.4 5.4 0 0 1 4.3-1.9c2.1 0 4.1 1.2 4.1 3.6s-2.2 4.5-5.5 7h5.6v1.6H654zm13.1-8.2l-2 2-1-1.1 3.2-3.3h1.6v12h-1.8zm4.1 11.3a2.7 2.7 0 0 0 1.3-1.7h-.3a1.1 1.1 0 0 1 .1-2.1 1.3 1.3 0 0 1 1.3 1.4 3.6 3.6 0 0 1-1.6 2.9zm5.1-11.3l-1.9 2-1.1-1.1 3.2-3.3h1.6v12h-1.8zm8.7-2.6c3.3 0 4.7 3.2 4.7 6.2s-1.4 6.2-4.7 6.2-4.7-3.2-4.7-6.2 1.3-6.2 4.7-6.2zm0 1.6c-2.2 0-2.9 2.3-2.9 4.6s.7 4.6 2.9 4.6 2.8-2.3 2.8-4.6-.7-4.6-2.8-4.6zm7.7 7.7a3.7 3.7 0 0 0 3.2 1.5 2.3 2.3 0 0 0 2.6-2.3 2.3 2.3 0 0 0-2.5-2.4 3.5 3.5 0 0 0-2.7 1.1l-1.3-.4v-6.6h7.6v1.6h-5.8v3.8a4 4 0 0 1 6.6 2.8c0 2.5-1.9 4-4.5 4a5 5 0 0 1-4.3-1.9zM13.3 280.5l-4.7-7h2.1l3.5 5.4 3.5-5.4h2.1l-4.7 7v5h-1.8zm7.6-6.2a1.1 1.1 0 0 1 1.1-1 1 1 0 0 1 1 1 1 1 0 0 1-1 1.1 1.1 1.1 0 0 1-1.1-1.1zm.3 2.5h1.6v8.7h-1.6zm10.4 7.5a3.9 3.9 0 0 1-2.9 1.4c-2.2 0-3.9-1.7-3.9-4.5s1.7-4.6 3.9-4.6a3.5 3.5 0 0 1 2.9 1.5v-4.6h1.6v12h-1.6zm0-5a3.2 3.2 0 0 0-2.4-1.3c-1.7 0-2.7 1.4-2.7 3.2s1 3.1 2.7 3.1a3.2 3.2 0 0 0 2.4-1.3zm10.4 5a3.9 3.9 0 0 1-2.9 1.4c-2.2 0-3.9-1.7-3.9-4.5s1.7-4.6 3.9-4.6a3.5 3.5 0 0 1 2.9 1.5v-4.6h1.6v12H42zm0-5a3.1 3.1 0 0 0-2.4-1.3c-1.7 0-2.7 1.4-2.7 3.2s1 3.1 2.7 3.1A3.1 3.1 0 0 0 42 283zm3.9-5a1.1 1.1 0 0 1 1.1-1 1 1 0 0 1 1 1 1 1 0 0 1-1 1.1 1.1 1.1 0 0 1-1.1-1.1zm.3 2.5h1.6v8.7h-1.6zm4.2 6.4a4.3 4.3 0 0 0 2.9 1.2c1.2 0 1.9-.5 1.9-1.2s-1-1.2-2.1-1.4-3.2-.7-3.2-2.6 1.2-2.6 3.3-2.6a4.5 4.5 0 0 1 3.3 1.2l-.7 1.2a3.5 3.5 0 0 0-2.6-1.1c-1.1 0-1.8.5-1.8 1.2s1 1 2 1.2 3.4.8 3.4 2.8-1.3 2.6-3.6 2.6a5 5 0 0 1-3.6-1.3zm14.3-3.3a1.7 1.7 0 0 0-1.9-1.9 3.4 3.4 0 0 0-2.4 1.3v6.2h-1.6v-12h1.6v4.5a4.3 4.3 0 0 1 3.1-1.4c1.9 0 2.8.9 2.8 2.8v6.1h-1.6zm159.6 2.7a4.3 4.3 0 0 0 3.3 1.5c1.7 0 2.7-.8 2.7-2s-1.1-1.9-2.8-1.9h-1.3v-1.6h1.3c1.4 0 2.6-.6 2.6-1.8s-1.2-1.9-2.6-1.9a4.3 4.3 0 0 0-3.1 1.4l-1-1.1a5.5 5.5 0 0 1 4.3-1.9c2.4 0 4.2 1.2 4.2 3.3a2.9 2.9 0 0 1-2.6 2.7 3.1 3.1 0 0 1 2.8 3c0 2-1.7 3.4-4.4 3.4a5.1 5.1 0 0 1-4.4-1.9zm9.7 4.6a2.7 2.7 0 0 0 1.2-1.6h-.2a.9.9 0 0 1-1-1 1.1 1.1 0 0 1 1.1-1.1c.6 0 1.2.5 1.2 1.5a3.8 3.8 0 0 1-1.5 2.9zm4.7-4.6a4.5 4.5 0 0 0 3.4 1.5c1.6 0 2.6-.8 2.6-2s-1-1.9-2.8-1.9h-1.3v-1.6h1.3c1.5 0 2.7-.6 2.7-1.8s-1.2-1.9-2.6-1.9a4.3 4.3 0 0 0-3.2 1.4l-.9-1.1a5.2 5.2 0 0 1 4.2-1.9c2.5 0 4.3 1.2 4.3 3.3a3 3 0 0 1-2.7 2.7 3 3 0 0 1 2.8 3c0 2-1.6 3.4-4.4 3.4a5.4 5.4 0 0 1-4.4-1.9zm14.3-9.3c3.3 0 4.7 3.3 4.7 6.2s-1.4 6.2-4.7 6.2-4.7-3.2-4.7-6.2 1.3-6.2 4.7-6.2zm0 1.6c-2.2 0-2.9 2.3-2.9 4.6s.7 4.6 2.9 4.6 2.8-2.2 2.8-4.6-.7-4.6-2.8-4.6zm11.4-1.6a4.6 4.6 0 0 1 3.4 1.4l-.9 1.4a3 3 0 0 0-2.5-1.2c-2.2 0-3.3 2.1-3.3 4.4v.4a4.5 4.5 0 0 1 3.3-1.8 3.7 3.7 0 0 1 4 3.9 4 4 0 0 1-4.3 3.9c-3.4 0-4.8-2.9-4.8-6.2s1.7-6.2 5.1-6.2zm-.4 6.2a3.3 3.3 0 0 0-2.8 1.6c.1 1.4.8 3 2.8 3a2.4 2.4 0 0 0 2.6-2.3c0-1.6-1.2-2.3-2.6-2.3zm104.9 4.6c4.5-3.5 6.6-5.3 6.6-7.2s-1.2-2-2.4-2a3.9 3.9 0 0 0-3.2 1.5l-1.1-1.2a5.6 5.6 0 0 1 4.3-1.9c2.2 0 4.2 1.3 4.2 3.6s-2.2 4.5-5.5 7h5.6v1.6h-8.5zm10.7 3.1a2.8 2.8 0 0 0 1.3-1.6h-.3a.9.9 0 0 1-1-1 1.1 1.1 0 0 1 1.1-1.1 1.3 1.3 0 0 1 1.3 1.5 3.9 3.9 0 0 1-1.6 2.9zm4.8-4.6a4.3 4.3 0 0 0 3.3 1.5c1.7 0 2.7-.8 2.7-2s-1.1-1.9-2.9-1.9h-1.3v-1.6h1.3c1.5 0 2.7-.6 2.7-1.8s-1.2-1.9-2.6-1.9a4.1 4.1 0 0 0-3.1 1.4l-1-1.1a5.3 5.3 0 0 1 4.3-1.9c2.4 0 4.2 1.2 4.2 3.3a2.9 2.9 0 0 1-2.6 2.7 3.1 3.1 0 0 1 2.8 3c0 2-1.7 3.4-4.4 3.4a5.1 5.1 0 0 1-4.4-1.9zm15.5-7.5h-6.3v-1.6h8.4v1.3l-4.8 10.7h-2zm8.5-1.8a4.6 4.6 0 0 1 3.4 1.4l-.9 1.4a3 3 0 0 0-2.5-1.2c-2.2 0-3.3 2.1-3.3 4.4v.4a4.5 4.5 0 0 1 3.3-1.8 3.7 3.7 0 0 1 4 3.9 4 4 0 0 1-4.3 3.9c-3.5 0-4.8-2.9-4.8-6.2s1.7-6.2 5.1-6.2zm-.4 6.2a3.3 3.3 0 0 0-2.8 1.6c.1 1.4.8 3 2.8 3a2.4 2.4 0 0 0 2.6-2.3c0-1.6-1.2-2.3-2.6-2.3zm102.9 4.6c4.5-3.5 6.6-5.3 6.6-7.2s-1.2-2-2.4-2a3.9 3.9 0 0 0-3.2 1.5l-1.1-1.2a5.6 5.6 0 0 1 4.3-1.9c2.2 0 4.2 1.3 4.2 3.6s-2.3 4.5-5.6 7h5.6v1.6h-8.4zm10.7 3.1a2.7 2.7 0 0 0 1.2-1.6h-.2a.9.9 0 0 1-1-1 1.1 1.1 0 0 1 1.1-1.1 1.3 1.3 0 0 1 1.3 1.5 3.9 3.9 0 0 1-1.6 2.9zm8.8-13.9c3.3 0 4.7 3.3 4.7 6.2s-1.4 6.2-4.7 6.2-4.7-3.2-4.7-6.2 1.4-6.2 4.7-6.2zm0 1.6c-2.1 0-2.9 2.3-2.9 4.6s.8 4.6 2.9 4.6 2.9-2.2 2.9-4.6-.8-4.6-2.9-4.6zm6.5 9.2c4.5-3.5 6.5-5.3 6.5-7.2s-1.1-2-2.3-2a4.3 4.3 0 0 0-3.3 1.5l-1-1.2a5.6 5.6 0 0 1 4.3-1.9c2.1 0 4.2 1.3 4.2 3.6s-2.3 4.5-5.6 7h5.6v1.6h-8.4zm10.6 0c4.5-3.5 6.6-5.3 6.6-7.2s-1.2-2-2.4-2a3.9 3.9 0 0 0-3.2 1.5l-1.1-1.2a5.6 5.6 0 0 1 4.3-1.9c2.2 0 4.2 1.3 4.2 3.6s-2.2 4.5-5.5 7h5.6v1.6h-8.5zM658 283a3 3 0 0 0 2.5 1.1c2.3 0 3.3-2.2 3.3-4.3v-.4a4.5 4.5 0 0 1-3.3 1.8 3.8 3.8 0 0 1-4-3.9 4 4 0 0 1 4.3-4c3.5 0 4.8 2.9 4.8 6.2s-1.7 6.2-5.1 6.2a4.3 4.3 0 0 1-3.4-1.4zm2.9-8.1a2.5 2.5 0 0 0-2.6 2.3 2.4 2.4 0 0 0 2.6 2.4 3.3 3.3 0 0 0 2.8-1.6c-.1-1.4-.8-3.1-2.8-3.1zm6.1 12.3a2.7 2.7 0 0 0 1.2-1.6h-.3a.9.9 0 0 1-.9-1 1 1 0 0 1 1.1-1.1c.6 0 1.2.5 1.2 1.5a3.9 3.9 0 0 1-1.6 2.9zm4.7-4.6a4.5 4.5 0 0 0 3.4 1.5c1.6 0 2.6-.8 2.6-2s-1.1-1.9-2.8-1.9h-1.3v-1.6h1.3c1.4 0 2.6-.6 2.6-1.8s-1.1-1.9-2.6-1.9a4.3 4.3 0 0 0-3.1 1.4l-.9-1.1a5.2 5.2 0 0 1 4.2-1.9c2.5 0 4.2 1.2 4.2 3.3a2.9 2.9 0 0 1-2.6 2.7 3.1 3.1 0 0 1 2.8 3c0 2-1.7 3.4-4.4 3.4a5.2 5.2 0 0 1-4.4-1.9zm9.6 1.5c4.5-3.5 6.6-5.3 6.6-7.2a2.1 2.1 0 0 0-2.3-2 4 4 0 0 0-3.3 1.5l-1.1-1.2a5.8 5.8 0 0 1 4.4-1.9c2.1 0 4.1 1.3 4.1 3.6s-2.2 4.5-5.5 7h5.6v1.6h-8.5zm11.2-1.5a4.5 4.5 0 0 0 3.4 1.5c1.6 0 2.6-.8 2.6-2s-1.1-1.9-2.8-1.9h-1.3v-1.6h1.3c1.4 0 2.6-.6 2.6-1.8s-1.1-1.9-2.5-1.9a4.3 4.3 0 0 0-3.2 1.4l-.9-1.1a5.2 5.2 0 0 1 4.2-1.9c2.5 0 4.2 1.2 4.2 3.3a2.9 2.9 0 0 1-2.6 2.7 3 3 0 0 1 2.8 3c0 2-1.7 3.4-4.4 3.4a5.2 5.2 0 0 1-4.4-1.9zM15.6 315.3a5.5 5.5 0 0 1 4.7 2.4l-1.4.8a4.2 4.2 0 0 0-3.3-1.6 4.6 4.6 0 1 0 3 8v-2.1h-3.8v-1.6h5.6v4.4a6.2 6.2 0 0 1-4.8 2.1 6.2 6.2 0 1 1 0-12.4zm7.1 3.5h1.6v1.3a3.9 3.9 0 0 1 2.8-1.5v1.6h-.5a3 3 0 0 0-2.3 1.3v6h-1.6zm9.9-.2c2.6 0 4.2 2 4.2 4.7v.4h-6.9a2.9 2.9 0 0 0 3 2.7 4.2 4.2 0 0 0 2.6-1l.7 1a4.8 4.8 0 0 1-3.5 1.3 4.6 4.6 0 0 1-.1-9.1zm-2.7 3.9h5.3a2.6 2.6 0 0 0-2.6-2.6 2.7 2.7 0 0 0-2.7 2.6zm12.8-3.9c2.6 0 4.2 2 4.2 4.7v.4H40a2.8 2.8 0 0 0 3 2.7 3.7 3.7 0 0 0 2.5-1l.8 1a4.8 4.8 0 0 1-3.5 1.3 4.6 4.6 0 0 1-.1-9.1zm-2.7 3.9h5.3a2.6 2.6 0 0 0-2.6-2.6 2.7 2.7 0 0 0-2.7 2.6zm11.9 1.3l-1.4 1.3v2.4h-1.6v-12h1.6v7.7l4.2-4.4h2.1l-3.8 4 3.8 4.7h-2zm174.8.8a4.3 4.3 0 0 0 3.3 1.5c1.7 0 2.7-.8 2.7-2s-1.1-1.9-2.9-1.9h-1.3v-1.6h1.3c1.5 0 2.7-.6 2.7-1.8s-1.2-1.9-2.6-1.9a4.3 4.3 0 0 0-3.1 1.4l-1-1.1a5.3 5.3 0 0 1 4.3-1.9c2.4 0 4.2 1.2 4.2 3.2a2.9 2.9 0 0 1-2.6 2.8 3.1 3.1 0 0 1 2.8 2.9c0 2.1-1.7 3.5-4.4 3.5a5.4 5.4 0 0 1-4.4-1.9zm9.7 4.6a2.6 2.6 0 0 0 1.2-1.7h-.3a1.1 1.1 0 0 1 .2-2.1 1.3 1.3 0 0 1 1.2 1.4 3.4 3.4 0 0 1-1.6 2.9zm8.9-12.1H239v-1.6h8.4v1.2l-4.8 10.8h-2zm3.5 9c4.5-3.5 6.6-5.3 6.6-7.2s-1.2-2-2.4-2a3.9 3.9 0 0 0-3.2 1.5l-1.1-1.2a5.6 5.6 0 0 1 4.3-1.9c2.2 0 4.2 1.2 4.2 3.6s-2.3 4.5-5.6 7h5.6v1.6h-8.4zm15.6-10.8a4.6 4.6 0 0 1 3.4 1.4l-.9 1.4a3 3 0 0 0-2.5-1.2c-2.2 0-3.3 2.1-3.3 4.4v.4a4.2 4.2 0 0 1 3.3-1.8 3.7 3.7 0 0 1 4 3.8 4 4 0 0 1-4.3 4c-3.4 0-4.8-2.9-4.8-6.2s1.7-6.2 5.1-6.2zm-.4 6.1a3.6 3.6 0 0 0-2.8 1.6c.1 1.4.8 3.1 2.8 3.1a2.4 2.4 0 0 0 2.6-2.3 2.4 2.4 0 0 0-2.6-2.4zm103.8 3.2a4.5 4.5 0 0 0 3.4 1.5c1.6 0 2.6-.8 2.6-2s-1.1-1.9-2.8-1.9h-1.3v-1.6h1.3c1.4 0 2.6-.6 2.6-1.8s-1.1-1.9-2.5-1.9a4.3 4.3 0 0 0-3.2 1.4l-.9-1.1a5.2 5.2 0 0 1 4.2-1.9c2.5 0 4.2 1.2 4.2 3.2a2.9 2.9 0 0 1-2.6 2.8 3 3 0 0 1 2.8 2.9c0 2.1-1.7 3.5-4.4 3.5a5.5 5.5 0 0 1-4.4-1.9zm9.7 4.6a2.7 2.7 0 0 0 1.3-1.7h-.3a1.1 1.1 0 0 1 .1-2.1 1.3 1.3 0 0 1 1.3 1.4 3.6 3.6 0 0 1-1.6 2.9zm4.2-3.1c4.5-3.5 6.6-5.3 6.6-7.2a2.1 2.1 0 0 0-2.3-2 4 4 0 0 0-3.3 1.5l-1.1-1.2a5.7 5.7 0 0 1 4.3-1.9c2.2 0 4.2 1.2 4.2 3.6s-2.2 4.5-5.5 7h5.6v1.6h-8.5zm15.3-10.8c3.3 0 4.7 3.2 4.7 6.2s-1.4 6.2-4.7 6.2-4.7-3.2-4.7-6.2 1.3-6.2 4.7-6.2zm0 1.6c-2.2 0-2.9 2.3-2.9 4.6s.7 4.6 2.9 4.6 2.8-2.3 2.8-4.6-.7-4.6-2.8-4.6zm11.4-1.6a4.6 4.6 0 0 1 3.4 1.4l-.9 1.4a3 3 0 0 0-2.5-1.2c-2.2 0-3.3 2.1-3.3 4.4v.4a4.2 4.2 0 0 1 3.3-1.8 3.7 3.7 0 0 1 4 3.8 4 4 0 0 1-4.3 4c-3.4 0-4.8-2.9-4.8-6.2s1.7-6.2 5.1-6.2zm-.4 6.1a3.6 3.6 0 0 0-2.8 1.6c.1 1.4.8 3.1 2.8 3.1a2.4 2.4 0 0 0 2.6-2.3 2.4 2.4 0 0 0-2.6-2.4zm103.3 4.7c4.5-3.5 6.6-5.3 6.6-7.2a2.1 2.1 0 0 0-2.3-2 4 4 0 0 0-3.3 1.5l-1.1-1.2a5.7 5.7 0 0 1 4.3-1.9c2.2 0 4.2 1.2 4.2 3.6s-2.2 4.5-5.5 7h5.6v1.6h-8.5zm10.7 3.1a2.7 2.7 0 0 0 1.3-1.7h-.3a1.1 1.1 0 0 1 .1-2.1 1.3 1.3 0 0 1 1.3 1.4 3.6 3.6 0 0 1-1.6 2.9zm6.9-7.9a3.1 3.1 0 0 1-2.5-2.9c0-2.1 2.1-3.1 4.2-3.1s4.3 1 4.3 3.1a3.2 3.2 0 0 1-2.6 2.9 3.5 3.5 0 0 1 2.7 3.1c0 2.1-2 3.3-4.4 3.3s-4.4-1.2-4.4-3.3a3.5 3.5 0 0 1 2.7-3.1zm1.7.8c-.7.1-2.6.7-2.6 2.1s1.2 1.9 2.6 1.9 2.6-.7 2.6-1.9-1.9-2-2.6-2.1zm0-5.2c-1.4 0-2.4.7-2.4 1.8s1.7 1.8 2.4 1.9 2.4-.6 2.4-1.9-1-1.8-2.4-1.8zm8.9 4.4c-1.4-.4-2.6-1.3-2.6-2.9s2.2-3.1 4.3-3.1 4.3 1 4.3 3.1a3.2 3.2 0 0 1-2.6 2.9c1.4.5 2.7 1.6 2.7 3.1s-2 3.3-4.4 3.3-4.5-1.2-4.5-3.3 1.3-2.6 2.8-3.1zm1.7.8c-.8.1-2.6.7-2.6 2.1s1.2 1.9 2.6 1.9 2.6-.7 2.6-1.9-1.9-2-2.6-2.1zm0-5.2c-1.4 0-2.4.7-2.4 1.8s1.7 1.8 2.4 1.9 2.4-.6 2.4-1.9-1-1.8-2.4-1.8zm7.6 8.1a3.3 3.3 0 0 0 2.5 1.1c2.3 0 3.3-2.2 3.3-4.3v-.4a4.5 4.5 0 0 1-3.4 1.7 3.7 3.7 0 0 1-4-3.8c0-2.2 1.7-4 4.4-4s4.8 2.9 4.8 6.2-1.7 6.2-5.1 6.2a4.6 4.6 0 0 1-3.4-1.4zm2.9-8.1a2.4 2.4 0 0 0-2.6 2.3 2.4 2.4 0 0 0 2.6 2.4 3.6 3.6 0 0 0 2.8-1.6c-.1-1.4-.9-3.1-2.8-3.1zm100.4 1l-1.9 2-1.1-1.1 3.3-3.3h1.5v12h-1.8zm4.6 6.7a4.5 4.5 0 0 0 3.4 1.5c1.7 0 2.6-.8 2.6-2s-1-1.9-2.8-1.9h-1.3v-1.6h1.3c1.5 0 2.7-.6 2.7-1.8s-1.2-1.9-2.6-1.9a4 4 0 0 0-3.1 1.4l-1-1.1a5.2 5.2 0 0 1 4.2-1.9c2.5 0 4.3 1.2 4.3 3.2a3 3 0 0 1-2.6 2.8 3 3 0 0 1 2.7 2.9c0 2.1-1.6 3.5-4.4 3.5a5.7 5.7 0 0 1-4.4-1.9zm9.8 4.6a3 3 0 0 0 1.2-1.7h-.3a1.1 1.1 0 0 1-1-1.1 1 1 0 0 1 1.1-1 1.3 1.3 0 0 1 1.3 1.4 3.6 3.6 0 0 1-1.6 2.9zm5.5-4.2a3.3 3.3 0 0 0 2.5 1.1c2.3 0 3.3-2.2 3.3-4.3v-.4a4.3 4.3 0 0 1-3.3 1.7 3.7 3.7 0 0 1-4-3.8 4 4 0 0 1 4.3-4c3.5 0 4.8 2.9 4.8 6.2s-1.6 6.2-5.1 6.2a4.6 4.6 0 0 1-3.4-1.4zm2.9-8.1a2.5 2.5 0 0 0-2.6 2.3 2.4 2.4 0 0 0 2.6 2.4 3.9 3.9 0 0 0 2.9-1.6c-.2-1.4-.9-3.1-2.9-3.1zm7 7.7a4.5 4.5 0 0 0 3.4 1.5c1.6 0 2.6-.8 2.6-2s-1.1-1.9-2.8-1.9h-1.3v-1.6h1.3c1.5 0 2.6-.6 2.6-1.8s-1.1-1.9-2.5-1.9a4.3 4.3 0 0 0-3.2 1.4l-.9-1.1a5.2 5.2 0 0 1 4.2-1.9c2.5 0 4.2 1.2 4.2 3.2a2.9 2.9 0 0 1-2.6 2.8 3 3 0 0 1 2.8 2.9c0 2.1-1.7 3.5-4.4 3.5a5.5 5.5 0 0 1-4.4-1.9zm12.3-3.3a3.1 3.1 0 0 1-2.5-2.9c0-2.1 2.1-3.1 4.2-3.1s4.3 1 4.3 3.1-1.2 2.5-2.6 2.9c1.5.5 2.8 1.6 2.8 3.1s-2.1 3.3-4.5 3.3-4.4-1.2-4.4-3.3 1.3-2.6 2.7-3.1zm1.7.8c-.7.1-2.6.7-2.6 2.1s1.2 1.9 2.6 1.9 2.7-.7 2.7-1.9-1.9-2-2.7-2.1zm0-5.2c-1.4 0-2.4.7-2.4 1.8s1.7 1.8 2.4 1.9 2.5-.6 2.5-1.9-1.1-1.8-2.5-1.8zM12.5 359.8H9v-2.3h9.5v2.3H15v9.7h-2.5zm12.9-2.5a6.2 6.2 0 1 1 0 12.4 6.2 6.2 0 0 1 0-12.4zm0 2.3a3.6 3.6 0 0 0-3.6 3.9c0 2.3 1.4 4 3.6 4a4 4 0 0 0 0-7.9zm10.5.2h-3.6v-2.3h9.6v2.3h-3.5v9.7h-2.5zm14.2 7.6h-5.4l-.8 2.1h-2.8l4.7-12H49l4.6 12h-2.8zm-4.7-2.2h4l-2-5.5zm9.3-7.7h2.6v9.8h5v2.2h-7.6zm10 8.4a5.2 5.2 0 0 0 3.8 1.6c1.4 0 2.1-.7 2.1-1.3s-1-1.3-2.4-1.6-4.5-1-4.5-3.7 1.7-3.6 4.5-3.6a6.6 6.6 0 0 1 4.7 1.7l-1.4 1.9a5.2 5.2 0 0 0-3.4-1.3c-1.2 0-1.8.5-1.8 1.2s1 1 2.4 1.4 4.5 1 4.5 3.7-1.6 3.8-4.8 3.8a6.6 6.6 0 0 1-5.1-1.9zm156.8.3a4.2 4.2 0 0 0 3.2 1.3c1.4 0 2.3-.8 2.3-1.8s-.8-1.8-2.2-1.8a3.3 3.3 0 0 0-2.5 1l-1.8-.5v-6.9h8.2v2.2H223v3a4.4 4.4 0 0 1 2.7-1 3.8 3.8 0 0 1 3.8 3.9c0 2.5-1.9 4.1-4.8 4.1a5.6 5.6 0 0 1-4.6-1.8zm12.3-5.4l-2 2-1.4-1.5 3.8-3.8h2.2v12h-2.6zm4.8 10.4a3.3 3.3 0 0 0 1.4-1.7h-.4a1.3 1.3 0 0 1-1.2-1.4 1.4 1.4 0 0 1 1.4-1.4 1.6 1.6 0 0 1 1.6 1.8 4.2 4.2 0 0 1-1.8 3.4zm6.8-7.9a3 3 0 0 1-2.4-2.8c0-2.3 2.4-3.2 4.6-3.2s4.7.9 4.7 3.2a3 3 0 0 1-2.4 2.8 3.5 3.5 0 0 1 2.6 3.1c0 2.2-2.3 3.3-4.9 3.3s-4.8-1-4.8-3.3a3.4 3.4 0 0 1 2.6-3.1zm2.2 1.2c-.7 0-2.2.6-2.2 1.6s1 1.4 2.2 1.4 2.3-.5 2.3-1.4-1.5-1.6-2.3-1.6zm0-5c-1.2 0-2 .5-2 1.4s1.3 1.3 2 1.5 2.1-.6 2.1-1.5-.9-1.4-2.1-1.4zm11.1-2.2c3.4 0 4.9 3.1 4.9 6.2s-1.5 6.2-4.9 6.2-5-3.1-5-6.2 1.5-6.2 5-6.2zm0 2.3c-1.8 0-2.4 1.7-2.4 3.9s.6 4 2.4 4 2.3-1.8 2.3-4-.6-3.9-2.3-3.9zm11.8-2.3a5.2 5.2 0 0 1 3.5 1.3l-1.1 1.9a3.5 3.5 0 0 0-2.4-1c-1.9 0-3 1.6-3 3.5v.3a3.7 3.7 0 0 1 3-1.6 3.8 3.8 0 0 1 4.1 3.9c0 2.4-1.8 4.1-4.6 4.1s-5.1-2.8-5.1-6.2 2-6.2 5.6-6.2zm-.7 6.6a2.8 2.8 0 0 0-2.3 1.1 2.4 2.4 0 0 0 2.4 2.5 1.9 1.9 0 0 0 2.1-1.8c0-1.3-1-1.8-2.2-1.8zm98.5 3.1h-5.7v-2l4.7-7.5h3.6v7.3h1.5v2.2h-1.5v2.5h-2.6zm-3.2-2.2h3.2v-5zm10.1 1.8a3.1 3.1 0 0 0 2.4.9c1.9 0 3-1.7 3-3.5v-.2a4 4 0 0 1-3.1 1.5 3.8 3.8 0 0 1-4.1-3.9c0-2.3 1.9-4.1 4.6-4.1s5.2 2.8 5.2 6.2-2.1 6.2-5.6 6.2a5.3 5.3 0 0 1-3.5-1.2zm2.9-7.1a1.9 1.9 0 0 0-2.1 1.8 2 2 0 0 0 2.2 1.9 3.3 3.3 0 0 0 2.4-1.2 2.5 2.5 0 0 0-2.5-2.5zm6.3 11.7a2.9 2.9 0 0 0 1.4-1.7h-.3a1.3 1.3 0 0 1-1.3-1.4 1.5 1.5 0 0 1 1.5-1.4 1.7 1.7 0 0 1 1.6 1.8 4.3 4.3 0 0 1-1.9 3.4zm9.2-13.9c3.4 0 5 3.1 5 6.2s-1.6 6.2-5 6.2-5-3.1-5-6.2 1.6-6.2 5-6.2zm0 2.3c-1.7 0-2.4 1.7-2.4 3.9s.7 4 2.4 4 2.3-1.8 2.3-4-.6-3.9-2.3-3.9zm7.3 6.5a4.5 4.5 0 0 0 3.3 1.4c1.4 0 2.2-.6 2.2-1.5s-.7-1.5-2.4-1.5h-1.5v-2.2h1.5c1.4 0 2.2-.4 2.2-1.3s-.9-1.4-2.2-1.4a4.1 4.1 0 0 0-3 1.2l-1.3-1.6a6 6 0 0 1 4.6-1.9c2.8 0 4.5 1.3 4.5 3.3a2.9 2.9 0 0 1-2.6 2.7 3.1 3.1 0 0 1 2.8 2.9c0 2.1-1.9 3.5-4.7 3.5a6 6 0 0 1-4.8-1.9zm10.5 0a4.9 4.9 0 0 0 3.3 1.4c1.5 0 2.3-.6 2.3-1.5s-.7-1.5-2.4-1.5h-1.5v-2.2h1.5c1.3 0 2.2-.4 2.2-1.3s-1-1.4-2.2-1.4a4.5 4.5 0 0 0-3.1 1.2l-1.2-1.6a5.6 5.6 0 0 1 4.5-1.9c2.9 0 4.6 1.3 4.6 3.3a2.9 2.9 0 0 1-2.6 2.7 3.1 3.1 0 0 1 2.8 2.9c0 2.1-1.9 3.5-4.8 3.5a5.9 5.9 0 0 1-4.7-1.9zm100.7.9h-5.7v-2l4.8-7.5h3.5v7.3h1.5v2.2h-1.5v2.5h-2.6zm-3.2-2.2h3.2v-5zm10.1 1.8a3.4 3.4 0 0 0 2.4.9c2 0 3-1.7 3-3.5v-.2a3.7 3.7 0 0 1-3.1 1.5 3.8 3.8 0 0 1-4.1-3.9c0-2.3 1.9-4.1 4.6-4.1s5.2 2.8 5.2 6.2-2 6.2-5.6 6.2a5.5 5.5 0 0 1-3.5-1.2zm3-7.1a2 2 0 0 0-2.2 1.8c0 1.3 1.1 1.9 2.3 1.9a3.1 3.1 0 0 0 2.3-1.2 2.4 2.4 0 0 0-2.4-2.5zm6.3 11.7a3.3 3.3 0 0 0 1.4-1.7h-.4a1.3 1.3 0 0 1-1.2-1.4 1.4 1.4 0 0 1 1.4-1.4 1.6 1.6 0 0 1 1.6 1.8 4.2 4.2 0 0 1-1.8 3.4zm6.8-7.9a2.9 2.9 0 0 1-2.4-2.8c0-2.3 2.4-3.2 4.6-3.2s4.7.9 4.7 3.2a3 3 0 0 1-2.4 2.8 3.4 3.4 0 0 1 2.5 3.1c0 2.2-2.3 3.3-4.8 3.3s-4.8-1-4.8-3.3a3.4 3.4 0 0 1 2.6-3.1zm2.2 1.2c-.7 0-2.2.6-2.2 1.6s1 1.4 2.2 1.4 2.3-.5 2.3-1.4-1.5-1.6-2.3-1.6zm0-5c-1.2 0-2 .5-2 1.4s1.3 1.3 2 1.5 2-.6 2-1.5-.8-1.4-2-1.4zm7.8 7.1a3.2 3.2 0 0 0 2.4.9c1.9 0 3-1.7 3-3.5v-.2a4 4 0 0 1-3.1 1.5 3.8 3.8 0 0 1-4.1-3.9c0-2.3 1.9-4.1 4.6-4.1s5.2 2.8 5.2 6.2-2 6.2-5.6 6.2a5.5 5.5 0 0 1-3.5-1.2zm2.9-7.1a2 2 0 0 0-2.1 1.8 2 2 0 0 0 2.2 1.9 3.3 3.3 0 0 0 2.4-1.2 2.5 2.5 0 0 0-2.5-2.5zm11.9 7.5h-5.7v-2l4.7-7.5h3.6v7.3h1.5v2.2h-1.5v2.5h-2.6zm-3.2-2.2h3.2v-5zm88.4 2.7c4.9-3.6 6.3-4.9 6.3-6.3s-.9-1.6-1.9-1.6a4 4 0 0 0-3.2 1.4l-1.5-1.7a6.1 6.1 0 0 1 4.6-2c2.6 0 4.6 1.5 4.6 3.9s-1.7 3.8-4.9 6.1h5v2.2h-9zm15.5-10.2c3.4 0 5 3.1 5 6.2s-1.6 6.2-5 6.2-5-3.1-5-6.2 1.6-6.2 5-6.2zm0 2.3c-1.7 0-2.4 1.7-2.4 3.9s.7 4 2.4 4 2.4-1.8 2.4-4-.7-3.9-2.4-3.9zm11.8 7.4h-5.8v-2l4.8-7.5h3.5v7.3h1.6v2.2h-1.6v2.5h-2.5zm-3.3-2.2h3.3v-5zm8.9 6.4a3.1 3.1 0 0 0 1.3-1.7h-.3a1.3 1.3 0 0 1-1.2-1.4 1.4 1.4 0 0 1 1.4-1.4 1.7 1.7 0 0 1 1.6 1.8 4.5 4.5 0 0 1-1.8 3.5zm9.8-13.9a5.2 5.2 0 0 1 3.5 1.3l-1.2 1.9a3.1 3.1 0 0 0-2.3-1 3.2 3.2 0 0 0-3.1 3.5.4.4 0 0 0 .1.3 3.7 3.7 0 0 1 3-1.6 3.8 3.8 0 0 1 4.1 3.9c0 2.4-1.8 4.1-4.6 4.1s-5.1-2.8-5.1-6.2 2-6.2 5.6-6.2zm-.7 6.6a2.8 2.8 0 0 0-2.3 1.1 2.4 2.4 0 0 0 2.4 2.5 1.9 1.9 0 0 0 2.1-1.8c0-1.3-1-1.8-2.2-1.8zm11.6 3.1h-5.8v-2l4.8-7.5h3.5v7.3h1.6v2.2h-1.6v2.5h-2.5zm-3.3-2.2h3.3v-5zm10.1 1.4a4.2 4.2 0 0 0 3.2 1.3c1.4 0 2.3-.8 2.3-1.8s-.8-1.8-2.2-1.8a3.3 3.3 0 0 0-2.5 1l-1.8-.5v-6.9h8.2v2.2H707v3a4.4 4.4 0 0 1 2.7-1 3.8 3.8 0 0 1 3.8 3.9c0 2.5-1.9 4.1-4.8 4.1a5.7 5.7 0 0 1-4.6-1.8z"/><path fill="#134923" d="M780.6 24.4h-8.3v7h-2.9v-16h2.9V22h8.3v-6.6h2.8v16h-2.8zm11.3-4.9c3.5 0 5.7 2.7 5.7 6.4v.6h-9a3.6 3.6 0 0 0 3.7 3.2 4.9 4.9 0 0 0 3.3-1.3l1.2 1.6a7 7 0 0 1-4.7 1.7 5.8 5.8 0 0 1-6.1-6.1 6 6 0 0 1 5.9-6.1zm-3.3 5.2h6.5a3 3 0 0 0-3.2-3.1 3.2 3.2 0 0 0-3.3 3.1zm18.6 5.5a4.9 4.9 0 0 1-3.8 1.5 3.8 3.8 0 0 1-4-3.8 3.7 3.7 0 0 1 4-3.8 4.9 4.9 0 0 1 3.8 1.5v-1.7c0-1.4-1.1-2.2-2.7-2.2a4.9 4.9 0 0 0-3.5 1.5l-1-1.8a6.7 6.7 0 0 1 4.9-1.9c2.5 0 4.8 1.1 4.8 4.2v7.7h-2.5zm0-3.2a3.5 3.5 0 0 0-2.8-1.2 2.3 2.3 0 0 0-2.5 2.1 2.2 2.2 0 0 0 2.5 2.1 3.5 3.5 0 0 0 2.8-1.2zm13.9 2.8a4.5 4.5 0 0 1-3.7 1.9c-3 0-5.2-2.2-5.2-6.1s2.2-6.1 5.2-6.1a4.7 4.7 0 0 1 3.7 1.9v-6h2.5v16h-2.5zm0-6.5a4 4 0 0 0-3-1.5c-2 0-3.2 1.6-3.2 3.8s1.2 3.9 3.2 3.9a3.8 3.8 0 0 0 3-1.6zm11-3.8c3.4 0 5.7 2.7 5.7 6.4v.6h-9a3.6 3.6 0 0 0 3.7 3.2 5.1 5.1 0 0 0 3.3-1.3L837 30a7 7 0 0 1-4.7 1.7 5.8 5.8 0 0 1-6.1-6.1 5.9 5.9 0 0 1 5.9-6.1zm-3.3 5.2h6.5a3.1 3.1 0 0 0-3.2-3.1 3.2 3.2 0 0 0-3.3 3.1zm11.5-4.9h2.5v1.7a4.9 4.9 0 0 1 3.8-1.9v2.5h-.8a4 4 0 0 0-3 1.5v7.9h-2.5zm14.5 0h2.5v1.7a4.7 4.7 0 0 1 3.8-1.9v2.5h-.8a4 4 0 0 0-3 1.5v7.9h-2.5zm7.6 5.8a6 6 0 1 1 11.9 0 6 6 0 1 1-11.9 0zm9.3 0c0-2-1.2-3.8-3.4-3.8s-3.3 1.8-3.3 3.8 1.2 3.9 3.3 3.9 3.4-1.8 3.4-3.9zm12.6-2.7l-2.7 8.5h-2.7l-3.6-11.6h2.6l2.5 8.5 2.8-8.5h2.2l2.7 8.5 2.5-8.5h2.6l-3.6 11.6h-2.7zm-114.9 78.4h7.9c2.9 0 4.6 1.8 4.6 4.1a3.7 3.7 0 0 1-2.8 3.7 3.8 3.8 0 0 1 3.1 3.9c0 2.5-1.7 4.3-4.7 4.3h-8.1zm7.3 6.6c1.5 0 2.3-.8 2.3-2a2.1 2.1 0 0 0-2.3-2.1h-4.4v4.1zm.2 6.9a2.1 2.1 0 0 0 2.4-2.2 2.2 2.2 0 0 0-2.4-2.2h-4.6v4.4zm7.3-3.3a5.9 5.9 0 0 1 6-6.1 6.1 6.1 0 0 1 0 12.2 5.9 5.9 0 0 1-6-6.1zm9.3 0c0-2-1.2-3.8-3.3-3.8s-3.4 1.8-3.4 3.8 1.2 3.9 3.4 3.9 3.3-1.8 3.3-3.9zm13.3 4.2a4.5 4.5 0 0 1-3.7 1.9c-3 0-5.1-2.3-5.1-6.1s2.1-6.1 5.1-6.1a4.5 4.5 0 0 1 3.7 1.9v-6h2.6v16h-2.6zm0-6.5a3.8 3.8 0 0 0-3-1.5c-2 0-3.2 1.6-3.2 3.8s1.2 3.9 3.2 3.9a3.6 3.6 0 0 0 3-1.6zm6.7 10.6a1.5 1.5 0 0 0 1.6-1l.6-1.3-4.8-11.8h2.7l3.4 8.7 3.4-8.7h2.7l-5.6 13.7a3.8 3.8 0 0 1-4 2.6h-1.4l.4-2.3zm17.4-14.1h2.5v1.7a4.7 4.7 0 0 1 3.7-1.9v2.5h-.7a4 4 0 0 0-3 1.5v7.9h-2.5zm7.6 5.8a5.8 5.8 0 0 1 5.9-6.1 6.1 6.1 0 0 1 0 12.2 5.8 5.8 0 0 1-5.9-6.1zm9.3 0c0-2-1.2-3.8-3.4-3.8s-3.3 1.8-3.3 3.8 1.2 3.9 3.3 3.9 3.4-1.8 3.4-3.9zm12.6-2.7l-2.7 8.5H855l-3.6-11.6h2.6l2.5 8.4 2.8-8.4h2.2l2.7 8.4 2.5-8.4h2.6l-3.6 11.6H863zm-80.8 89.3H772l-1.2 3.1h-3l6.3-16h3.5l6.2 16h-3zm-6.8-2.4h6l-3-8.1zm12.7-10.5h2.5v16h-2.5zm6.3 13.3v-6.7h-1.9v-2.2h1.9v-3.1h2.5v3.1h2.4v2.2h-2.4v6.1c0 .8.4 1.4 1.1 1.4a1.9 1.9 0 0 0 1.2-.4l.6 1.9a3.6 3.6 0 0 1-2.4.7 2.7 2.7 0 0 1-3-3zm12.3-9.2c3.5 0 5.7 2.7 5.7 6.4v.6h-8.9a3.5 3.5 0 0 0 3.7 3.1 5 5 0 0 0 3.3-1.2l1.1 1.6a6.6 6.6 0 0 1-4.7 1.7 5.8 5.8 0 0 1-6.1-6.1 6 6 0 0 1 5.9-6.1zm-3.2 5.2h6.5a3.2 3.2 0 0 0-3.3-3.1 3.2 3.2 0 0 0-3.2 3.1zm11.4-4.9h2.6v1.7a4.7 4.7 0 0 1 3.7-1.9v2.5h-.8a4 4 0 0 0-2.9 1.5v7.9h-2.6zm16.2 4.4c0-1.8-.9-2.4-2.3-2.4a3.8 3.8 0 0 0-3 1.5v8.1h-2.5v-11.6h2.5v1.6a5.5 5.5 0 0 1 4.1-1.9c2.5 0 3.7 1.4 3.7 3.8v8.1h-2.5zm12.8 6a4.7 4.7 0 0 1-3.7 1.5 3.8 3.8 0 0 1-4-3.8 3.7 3.7 0 0 1 4-3.8 4.5 4.5 0 0 1 3.7 1.5v-1.7c0-1.4-1.1-2.2-2.7-2.2a4.6 4.6 0 0 0-3.4 1.5l-1-1.8a6.6 6.6 0 0 1 4.8-1.9c2.6 0 4.9 1.1 4.9 4.2v7.7h-2.6zm0-3.2a3.2 3.2 0 0 0-2.7-1.2 2.1 2.1 0 1 0 0 4.2 3.2 3.2 0 0 0 2.7-1.2zm6.3 1.7v-6.7h-1.9v-2.2h1.9v-3.1h2.6v3.1h2.3v2.2h-2.3v6.1c0 .8.3 1.4 1.1 1.4a1.8 1.8 0 0 0 1.1-.4l.6 1.9a3.6 3.6 0 0 1-2.4.7 2.7 2.7 0 0 1-3-3zm6.9-12.4a1.5 1.5 0 0 1 1.5-1.5 1.6 1.6 0 0 1 1.6 1.5 1.6 1.6 0 0 1-1.6 1.6 1.6 1.6 0 0 1-1.5-1.6zm.3 3.5h2.5v11.6h-2.5zm13.6 4.4c0-1.8-.9-2.4-2.3-2.4a3.8 3.8 0 0 0-3 1.5v8.1h-2.5v-11.6h2.5v1.6a5.5 5.5 0 0 1 4.1-1.9c2.5 0 3.7 1.4 3.7 3.8v8.1h-2.5zm6.8 8.4a4.4 4.4 0 0 0 3.7 1.5c1.6 0 3.4-.8 3.4-3.2v-1.4a4.5 4.5 0 0 1-3.7 1.9c-3 0-5.1-2.1-5.1-5.9s2.1-6 5.1-6a4.5 4.5 0 0 1 3.7 1.9v-1.6h2.5v11c0 4.2-3.1 5.3-5.9 5.3a6.7 6.7 0 0 1-4.9-1.7zm7.1-9.3a3.8 3.8 0 0 0-3-1.5c-2 0-3.2 1.5-3.2 3.7s1.2 3.7 3.2 3.7a3.8 3.8 0 0 0 3-1.5zM770 220.6h-1.9v-2.2h1.9v-.6c0-2.6 1.5-4 3.6-4a4.4 4.4 0 0 1 2.1.4l-.6 1.9a1.5 1.5 0 0 0-1-.3c-1 0-1.6.7-1.6 2v.6h2.3v2.2h-2.3v9.4H770zm6.5-5.7a1.5 1.5 0 0 1 1.5-1.5 1.6 1.6 0 0 1 1.6 1.5 1.6 1.6 0 0 1-1.6 1.6 1.6 1.6 0 0 1-1.5-1.6zm.3 3.5h2.5V230h-2.5zm5.8-4.4h2.5v16h-2.5zm5.7 0h2.6v16h-2.6zm6 12.7a6.1 6.1 0 0 0 3.9 1.6c1.5 0 2.3-.5 2.3-1.4s-1.2-1.4-2.7-1.7-4.3-.9-4.3-3.5 1.6-3.6 4.5-3.6a6.2 6.2 0 0 1 4.5 1.7l-1 1.7a5 5 0 0 0-3.4-1.3c-1.4 0-2.2.4-2.2 1.3s1.1 1.2 2.5 1.5 4.5 1 4.5 3.7-1.7 3.6-4.8 3.6a7 7 0 0 1-5-1.8zm-24.9 126.8h11v2.5h-8.1v4.1h7.9v2.5h-7.9v6.9h-2.9zm12.7 10.2a6 6 0 1 1 6 6.1 5.9 5.9 0 0 1-6-6.1zm9.4 0c0-2-1.2-3.8-3.4-3.8s-3.3 1.8-3.3 3.8 1.2 3.9 3.3 3.9 3.4-1.8 3.4-3.9zm4.4 0a6 6 0 1 1 5.9 6.1 5.8 5.8 0 0 1-5.9-6.1zm9.3 0c0-2-1.2-3.8-3.4-3.8s-3.3 1.8-3.3 3.8 1.2 3.9 3.3 3.9 3.4-1.8 3.4-3.9zm5.7 3.1v-6.7h-2v-2.2h2v-3.1h2.5v3.1h2.3v2.2h-2.3v6.1c0 .8.4 1.4 1.1 1.4a1.6 1.6 0 0 0 1.1-.4l.6 1.9a3.4 3.4 0 0 1-2.4.7c-1.9 0-2.9-1-2.9-3zm12.3-9.2c3.5 0 5.7 2.7 5.7 6.3v.6h-9a3.5 3.5 0 0 0 3.7 3.2 4.8 4.8 0 0 0 3.3-1.2l1.2 1.6a7 7 0 0 1-4.7 1.7 6.1 6.1 0 0 1-.2-12.2zm-3.3 5.2h6.5a3 3 0 0 0-3.2-3.1 3.2 3.2 0 0 0-3.3 3.1zm11.5-4.9h2.5v1.7a5 5 0 0 1 3.8-1.9v2.5h-.8a4 4 0 0 0-3 1.5v7.9h-2.5zm14.5 0h2.5v1.7a5 5 0 0 1 3.8-1.9v2.5h-.8a4 4 0 0 0-3 1.5v7.9h-2.5zm7.6 5.8a6 6 0 1 1 5.9 6.1 5.8 5.8 0 0 1-5.9-6.1zm9.3 0c0-2-1.2-3.8-3.4-3.8s-3.3 1.8-3.3 3.8 1.2 3.9 3.3 3.9 3.4-1.8 3.4-3.9zm12.6-2.7l-2.7 8.5h-2.6l-3.6-11.6h2.6l2.4 8.5 2.8-8.5h2.2l2.7 8.5 2.5-8.5h2.6l-3.6 11.6h-2.6z"/><path fill="#88c827" d="M764.8 19.1l-7.3 4.4 7.3 4.4-3-4.4 3-4.4zm0 86.6l-7.3 4.4 7.3 4.4-3-4.4 3-4.4zm0 82.9l-7.3 4.4 7.3 4.4-3-4.4 3-4.4z"/><path fill="#134923" d="M769.4 289.7h7.9c2.9 0 4.6 1.8 4.6 4.1a3.7 3.7 0 0 1-2.8 3.7 3.8 3.8 0 0 1 3.1 3.9c0 2.5-1.7 4.3-4.7 4.3h-8.1zm7.3 6.6c1.5 0 2.3-.8 2.3-2a2.1 2.1 0 0 0-2.3-2.1h-4.4v4.1zm.2 6.9a2.1 2.1 0 0 0 2.4-2.2 2.2 2.2 0 0 0-2.4-2.2h-4.6v4.4zm7.3-3.3a5.9 5.9 0 0 1 6-6.1 6.1 6.1 0 0 1 0 12.2 5.9 5.9 0 0 1-6-6.1zm9.3 0c0-2-1.2-3.8-3.3-3.8s-3.4 1.8-3.4 3.8 1.2 3.9 3.4 3.9 3.3-1.8 3.3-3.9zm5.2-5.8h2.5v1.7a5 5 0 0 1 3.8-1.9v2.4h-.8a4 4 0 0 0-3 1.5v7.9h-2.5zm16.5 10a4.7 4.7 0 0 1-3.8 1.9c-2.9 0-5.1-2.3-5.1-6.1s2.1-6.1 5.1-6.1a4.9 4.9 0 0 1 3.8 1.9v-6h2.5v16h-2.5zm0-6.5a4 4 0 0 0-3-1.5c-2 0-3.3 1.6-3.3 3.8s1.3 3.9 3.3 3.9a3.8 3.8 0 0 0 3-1.6zm10.9-3.8c3.5 0 5.7 2.7 5.7 6.3v.6h-8.9a3.5 3.5 0 0 0 3.7 3.2 5.2 5.2 0 0 0 3.3-1.2l1.1 1.6a6.6 6.6 0 0 1-4.7 1.7 5.8 5.8 0 0 1-6.1-6.1 5.9 5.9 0 0 1 5.9-6.1zm-3.3 5.2h6.6a3.2 3.2 0 0 0-3.3-3.1 3.3 3.3 0 0 0-3.3 3.1zm11.5-4.9h2.5v1.7a5 5 0 0 1 3.8-1.9v2.4h-.8a4.2 4.2 0 0 0-3 1.5v7.9h-2.5zm8.5 8.3a6.1 6.1 0 0 0 3.9 1.6c1.5 0 2.3-.5 2.3-1.4s-1.2-1.4-2.6-1.7-4.4-1-4.4-3.5 1.6-3.6 4.6-3.6a6.5 6.5 0 0 1 4.5 1.7l-1.1 1.7a4.6 4.6 0 0 0-3.4-1.4c-1.3 0-2.2.5-2.2 1.3s1.2 1.2 2.5 1.6 4.5 1 4.5 3.7-1.7 3.6-4.8 3.6a7 7 0 0 1-5-1.8z"/><path fill="#88c827" d="M764.8 293.1l-7.3 4.4 7.3 4.4-3-4.4 3-4.4zm0 64.8l-7.3 4.4 7.3 4.4-3-4.4 3-4.4z"/></svg>