<svg xmlns="http://www.w3.org/2000/svg" id="Layer_1" viewBox="0 0 556.5 113.6" width="556.5" height="113.6"><style>.st0{fill:#00aeef}.st1{fill:#00673e}.st2{fill:#94c948}.st3{fill:none;stroke:#d2232a;stroke-width:3}</style><path d="M330.5 55l2.9-3.2-2.9-3.2h-1.6l2.9 3.2L329 55h1.5zm-2.8 0l2.9-3.2-2.9-3.2h-1.6l2.9 3.2-2.9 3.3h1.6zm71.2 0l2.9-3.2-2.9-3.2h-1.6l2.9 3.2-2.9 3.2h1.6zm-2.8 0l2.9-3.2-2.9-3.2h-1.6l2.9 3.2-2.9 3.2h1.6zm64.7 0l2.9-3.2-2.9-3.2h-1.6l2.9 3.2-2.9 3.2h1.6zm-2.9 0l2.9-3.2-2.9-3.2h-1.6l2.9 3.2-2.9 3.2h1.6zM304.2 98.4l2.9-3.2-2.9-3.2h-1.6l2.9 3.2-2.9 3.2h1.6zm-2.8 0l2.9-3.2-2.9-3.2h-1.6l2.9 3.2-2.9 3.2h1.6zm97.5 0l2.9-3.2-2.9-3.2h-1.6l2.9 3.2-2.9 3.2h1.6zm-2.8 0l2.9-3.2-2.9-3.2h-1.6l2.9 3.2-2.9 3.2h1.6zm64.7 0l2.9-3.2-2.9-3.2h-1.6l2.9 3.2-2.9 3.2h1.6zm-2.9 0l2.9-3.2-2.9-3.2h-1.6l2.9 3.2-2.9 3.2h1.6zm-59-21.8l2.9-3.2-2.9-3.2h-1.6l2.9 3.2-2.9 3.2h1.6zm-2.8 0l2.9-3.2-2.9-3.2h-1.6l2.9 3.2-2.9 3.2h1.6zm64.7 0l2.9-3.2-2.9-3.2h-1.6l2.9 3.2-2.9 3.2h1.6zm-2.9 0l2.9-3.2-2.9-3.2h-1.6l2.9 3.2-2.9 3.2h1.6z" class="st0"/><path d="M20.7 46.7l-3.9 9.5H16l-3.9-9.5v9.5h-1.8v-12h2.6l3.5 8.6 3.5-8.6h2.6v12h-1.8v-9.5zm3.8 5.2c.1-2.4 2.1-4.3 4.6-4.2s4.3 2.1 4.2 4.6c-.1 2.4-2 4.2-4.4 4.2-2.4 0-4.4-1.9-4.4-4.2v-.4zm7.1 0c0-1.6-1-3.1-2.7-3.1-1.6.1-2.8 1.4-2.7 2.9v.2c0 1.7 1 3.1 2.7 3.1s2.7-1.5 2.7-3.1zm9.7 3.1c-.8.9-1.9 1.4-3.1 1.4-1.3.2-2.6-.7-2.8-2.1v-6.8H37v5.6c0 1.4.7 1.9 1.8 1.9.9 0 1.8-.5 2.4-1.2v-6.2h1.6v8.7h-1.6V55zm10-4.3c0-1.4-.7-1.9-1.8-1.9-.9 0-1.8.5-2.4 1.2v6.2h-1.6v-8.7h1.6v1.2c.8-.9 1.9-1.4 3.1-1.4 1.4-.2 2.6.8 2.8 2.2v6.7h-1.6v-5.5zm4.5 3.6V49h-1.4v-1.4h1.4v-2.4h1.6v2.4h1.8V49h-1.8v5c0 .6.3 1.1.8 1.1.3 0 .6-.1.9-.3l.4 1.2c-.5.4-1.1.6-1.7.6-1 .1-2-.6-2.1-1.7.1-.3.1-.5.1-.6zm10.6 1c-.7.8-1.8 1.2-2.8 1.2-1.6.1-2.9-1.2-3-2.8v-.1c0-1.6 1.2-2.8 2.8-2.8h.2c1.1-.1 2.1.4 2.8 1.2v-1.5c0-1.1-.9-1.7-2.1-1.7-1 0-1.9.4-2.6 1.2l-.7-1.3c.9-.9 2.2-1.5 3.6-1.4 1.9 0 3.5.8 3.5 3v5.9h-1.6v-.9zm0-2.5c-.5-.7-1.4-1-2.2-1-1-.1-1.8.5-2 1.5-.1 1 .5 1.8 1.5 2h.5c.9 0 1.7-.3 2.2-1v-1.5zm3.9-7.8c0-.5.5-1 1-1 .6 0 1 .4 1 1s-.4 1-1 1-1-.4-1-1zm.3 2.5h1.6v8.7h-1.6v-8.7zm10.1 3.2c0-1.4-.7-1.9-1.8-1.9-.9 0-1.8.5-2.4 1.2v6.2h-1.6v-8.7h1.6v1.2c.8-.9 1.9-1.4 3.1-1.4 1.4-.2 2.6.8 2.8 2.2v6.7h-1.6v-5.5zm8.8-6.5h1.6v4.6c.7-.9 1.7-1.5 2.9-1.5 2.3 0 3.9 1.8 3.9 4.6s-1.7 4.6-3.9 4.6c-1.1 0-2.2-.5-2.9-1.4v1.2h-1.6V44.2zm4 10.8c1.6 0 2.6-1.3 2.6-3.1s-1-3.1-2.6-3.1c-.9 0-1.8.5-2.4 1.2v3.7c.6.8 1.5 1.3 2.4 1.3zm6.2-10c0-.5.5-1 1-1 .6 0 1 .4 1 1s-.4 1-1 1-1-.4-1-1zm.2 2.5h1.6v8.7h-1.6v-8.7zm7.1 5l-1.3 1.3v2.4h-1.6v-12h1.6v7.7l4.2-4.4h2l-3.8 3.9 3.9 4.8h-2.1l-2.9-3.7zm9.8-5.2c2.6 0 4.2 2 4.2 4.7v.4h-6.9c.1 1.6 1.4 2.8 3 2.7 1 0 1.9-.3 2.6-1l.8 1.1c-.9.9-2.2 1.3-3.5 1.3-2.5-.1-4.5-2.2-4.4-4.7.1-2.4 1.9-4.3 4.2-4.5zm-2.6 3.9h5.3c0-1.4-1.1-2.6-2.5-2.6h-.1c-1.5 0-2.7 1.2-2.7 2.6zm18.9-1.7l-2.1 6.7h-1.7l-2.7-8.7h1.7l2 6.6 2.2-6.6h1.4l2.1 6.6 2-6.6h1.7l-2.7 8.7h-1.7l-2.2-6.7zm7.8-4.5c0-.5.5-1 1-1 .6 0 1 .4 1 1s-.4 1-1 1-1-.4-1-1zm.2 2.5h1.6v8.7h-1.6v-8.7zm4.5 6.8V49h-1.4v-1.4h1.4v-2.4h1.6v2.4h1.7V49h-1.8v5c0 .6.3 1.1.9 1.1.3 0 .6-.1.9-.3l.4 1.2c-.5.4-1.1.6-1.7.6-1 .1-2-.7-2.1-1.7.1-.3.1-.5.1-.6zm11.1-3.7c0-1.4-.7-1.9-1.9-1.9-.9 0-1.8.5-2.4 1.2v6.2h-1.6v-12h1.6v4.5c.8-.9 1.9-1.4 3.1-1.4 1.4-.2 2.6.8 2.8 2.1v6.8h-1.6v-5.5zM166 49h-1.4v-1.4h1.4V47c-.2-1.4.8-2.7 2.2-2.9h.4c.5 0 1 .1 1.4.3l-.4 1.2c-.2-.1-.5-.2-.8-.2-.8 0-1.3.5-1.3 1.6v.6h1.8V49h-1.8v7.3H166V49zm4.9-1.5h1.6v1.3c.7-.9 1.7-1.5 2.8-1.5V49c-.2 0-.4-.1-.6 0-.9.1-1.8.5-2.3 1.3v6h-1.6l.1-8.8zm5.5 4.4c.1-2.4 2.1-4.3 4.6-4.2 2.4.1 4.3 2.1 4.2 4.6-.1 2.4-2 4.2-4.4 4.2-2.4 0-4.4-1.9-4.4-4.2v-.4zm7.1 0c0-1.6-1-3.1-2.7-3.1-1.6.1-2.8 1.4-2.7 2.9v.2c0 1.7 1 3.1 2.7 3.1s2.7-1.5 2.7-3.1zm9.6-1.2c0-1.4-.7-1.9-1.9-1.9-.9 0-1.8.5-2.4 1.2v6.2h-1.6v-8.7h1.6v1.2c.8-.9 1.9-1.4 3.1-1.4 1.4-.2 2.6.8 2.8 2.2v6.7h-1.6v-5.5zm4.6 3.6V49h-1.4v-1.4h1.4v-2.4h1.6v2.4h1.7V49h-1.8v5c0 .6.3 1.1.9 1.1.3 0 .6-.1.9-.3l.4 1.2c-.5.4-1.1.6-1.7.6-1 .1-2-.7-2-1.7-.1-.3-.1-.5 0-.6zm9.8-.4c.8.8 1.8 1.2 2.9 1.2 1.2 0 1.9-.5 1.9-1.2s-1-1.2-2.1-1.4c-1.5-.3-3.2-.7-3.2-2.6 0-1.4 1.2-2.6 3.3-2.6 1.2 0 2.4.4 3.3 1.2l-.7 1.1c-.7-.7-1.6-1.1-2.6-1.1-1.1 0-1.8.4-1.8 1.1s.9 1 2 1.3c1.5.3 3.3.8 3.3 2.8 0 1.5-1.2 2.7-3.5 2.7-1.3.1-2.6-.4-3.6-1.3l.8-1.2zm14.3 1.1c-.8.9-1.9 1.4-3.1 1.4-1.3.2-2.6-.7-2.8-2.1v-6.8h1.6v5.6c0 1.4.7 1.9 1.8 1.9.9 0 1.8-.5 2.4-1.2v-6.2h1.6v8.7h-1.6l.1-1.3zm4.2-1.1c.8.8 1.8 1.2 2.9 1.2 1.2 0 1.9-.5 1.9-1.2s-1-1.2-2.1-1.4c-1.5-.3-3.2-.7-3.2-2.6 0-1.4 1.2-2.6 3.3-2.6 1.2 0 2.4.4 3.3 1.2l-.7 1.1c-.7-.7-1.6-1.1-2.6-1.1-1.1 0-1.8.4-1.8 1.1s.9 1 2 1.3c1.5.3 3.3.8 3.3 2.8 0 1.5-1.2 2.7-3.5 2.7-1.3.1-2.6-.4-3.6-1.3l.8-1.2zm8.4 5.6v-12h1.6v1.2c.7-.9 1.7-1.5 2.8-1.5 2.3 0 3.9 1.7 3.9 4.6s-1.6 4.6-3.9 4.6c-1.1 0-2.2-.5-2.8-1.4v4.6l-1.6-.1zm4-10.8c-1 0-1.8.5-2.4 1.3v3.7c.5.8 1.5 1.3 2.4 1.3 1.6 0 2.6-1.3 2.6-3.1s-1-3.1-2.6-3.2zm10.2-1.4c2.6 0 4.2 2 4.2 4.7v.4h-6.9c.1 1.6 1.4 2.8 3 2.7 1 0 1.9-.3 2.6-1l.8 1.1c-.9.9-2.2 1.3-3.5 1.3-2.5-.1-4.5-2.2-4.4-4.7 0-2.4 1.9-4.3 4.2-4.5zm-2.7 3.9h5.3c0-1.4-1.1-2.6-2.5-2.6h-.1c-1.4 0-2.6 1.2-2.7 2.6zm14.8-.5c0-1.4-.7-1.9-1.9-1.9-.9 0-1.8.5-2.4 1.2v6.2h-1.6v-8.7h1.6v1.2c.8-.9 1.9-1.4 3.1-1.4 1.4-.2 2.6.8 2.8 2.2v6.7h-1.6v-5.5zm4.2 3.2c.8.8 1.8 1.2 2.9 1.2 1.2 0 1.9-.5 1.9-1.2s-1-1.2-2.1-1.4c-1.5-.3-3.2-.7-3.2-2.6 0-1.4 1.2-2.6 3.3-2.6 1.2 0 2.4.4 3.3 1.2l-.7 1.1c-.7-.7-1.6-1.1-2.6-1.1-1.1 0-1.8.4-1.8 1.1s.9 1 2 1.3c1.5.3 3.3.8 3.3 2.8 0 1.5-1.2 2.7-3.5 2.7-1.3.1-2.6-.4-3.6-1.3l.8-1.2zm8.2-8.9c0-.5.5-1 1-1 .6 0 1 .4 1 1s-.5 1-1 1c-.6 0-1.1-.4-1-1zm.2 2.5h1.7v8.7h-1.6l-.1-8.7zm3.7 4.4c.1-2.4 2.1-4.3 4.6-4.2 2.4.1 4.3 2.1 4.2 4.6-.1 2.4-2 4.2-4.4 4.2-2.4 0-4.4-1.9-4.4-4.2v-.4zm7.1 0c0-1.6-1-3.1-2.7-3.1-1.6.1-2.8 1.4-2.7 2.9v.2c0 1.7 1 3.1 2.7 3.1s2.7-1.5 2.7-3.1zm9.6-1.2c0-1.4-.7-1.9-1.9-1.9-.9 0-1.8.5-2.4 1.2v6.2h-1.6v-8.7h1.6v1.2c.8-.9 1.9-1.4 3.1-1.4 1.4-.2 2.6.8 2.8 2.2v6.7h-1.6v-5.5zm189.4 5.7V58h-1.3v-1.6c-1.6-.1-3.1-.7-4.1-1.9l1-1.4c.8.9 1.9 1.5 3.1 1.6v-3.9c-1.8-.5-3.8-1.1-3.8-3.4 0-1.8 1.5-3.2 3.8-3.4v-1.7h1.3V44c1.4.1 2.6.7 3.6 1.6l-1 1.3c-.7-.7-1.6-1.2-2.5-1.3v3.5c1.9.5 3.9 1.2 3.9 3.6-.1 1.8-1.2 3.5-4 3.7zm-1.3-7.5v-3.2c-1.1.1-1.9.7-1.9 1.7s.9 1.2 1.9 1.5zm3.3 4.1c0-1-.9-1.4-2-1.8v3.6c1.5-.2 2-1.1 2-1.8zm6-6.4l-1.9 2-1.1-1.1 3.2-3.3h1.6v12h-1.8v-9.6zm4.6 6.7c.8 1 2.1 1.5 3.4 1.5 1.7 0 2.6-.8 2.6-2s-1.1-1.9-2.8-1.9h-1.3v-1.6h1.3c1.5 0 2.6-.5 2.6-1.8s-1.1-1.9-2.6-1.9c-1.2 0-2.3.5-3.1 1.4l-1-1.1c1.1-1.2 2.6-1.9 4.3-1.9 2.5 0 4.2 1.2 4.2 3.2-.1 1.4-1.2 2.6-2.6 2.8 1.6.1 2.8 1.4 2.8 3 0 2-1.7 3.5-4.4 3.5-1.7.1-3.3-.7-4.4-2l1-1.2zm11 .4c.6.7 1.5 1.2 2.5 1.1 2.3 0 3.3-2.2 3.3-4.3v-.4c-.8 1.1-2 1.7-3.3 1.8-2 .2-3.8-1.4-4-3.4V48c0-2.2 1.8-4 4-4h.3c3.5 0 4.8 2.9 4.8 6.2s-1.7 6.2-5.1 6.2c-1.3 0-2.5-.5-3.4-1.4l.9-1.3zm2.9-8.1c-1.3-.1-2.5.9-2.6 2.2v.1c0 1.3 1 2.4 2.3 2.4h.3c1.1 0 2.2-.6 2.8-1.6-.1-1.4-.8-3.1-2.8-3.1zm7.8 8.1c.6.7 1.5 1.2 2.5 1.1 2.3 0 3.3-2.2 3.3-4.3v-.4c-.8 1.1-2 1.7-3.3 1.8-2 .2-3.8-1.4-4-3.4V48c0-2.2 1.8-4 4-4h.3c3.5 0 4.8 2.9 4.8 6.2s-1.7 6.2-5.1 6.2c-1.3 0-2.5-.5-3.4-1.4l.9-1.3zm2.9-8.1c-1.3-.1-2.5.9-2.6 2.2v.1c0 1.3 1 2.4 2.3 2.4h.3c1.1 0 2.2-.6 2.8-1.6 0-1.4-.8-3.1-2.8-3.1zm7.2 8.6c.6 0 1.1.5 1.1 1.1 0 .6-.5 1.1-1.1 1.1-.6 0-1.1-.5-1.1-1.1 0-.6.5-1.1 1.1-1.1zm7.7-10.2c3.3 0 4.7 3.2 4.7 6.2s-1.4 6.2-4.7 6.2-4.7-3.2-4.7-6.2 1.4-6.2 4.7-6.2zm0 1.6c-2.1 0-2.9 2.2-2.9 4.6s.7 4.6 2.9 4.6 2.9-2.3 2.9-4.6-.8-4.6-2.9-4.6zm11-1.6c3.3 0 4.7 3.2 4.7 6.2s-1.4 6.2-4.7 6.2-4.7-3.2-4.7-6.2 1.4-6.2 4.7-6.2zm0 1.6c-2.1 0-2.9 2.2-2.9 4.6s.7 4.6 2.9 4.6 2.9-2.3 2.9-4.6-.7-4.6-2.9-4.6zM20.7 68.3l-3.9 9.5H16l-3.9-9.5v9.5h-1.8v-12h2.6l3.5 8.6 3.5-8.6h2.6v12h-1.8v-9.5zm3.8 5.2c.1-2.4 2.1-4.3 4.5-4.3 2.4.1 4.3 2.1 4.3 4.5-.1 2.4-2 4.3-4.4 4.3-2.4 0-4.4-1.8-4.4-4.2v-.3zm7.1 0c0-1.6-1-3.1-2.7-3.1-1.6.1-2.8 1.4-2.7 2.9v.2c0 1.7 1 3.1 2.7 3.1s2.7-1.5 2.7-3.1zm9.7 3.1c-.8.9-1.9 1.4-3.1 1.4-1.3.2-2.6-.7-2.8-2.1v-6.8H37v5.6c0 1.4.7 1.9 1.8 1.9.9 0 1.8-.5 2.4-1.2v-6.2h1.6v8.7h-1.6v-1.3zm10-4.3c0-1.4-.7-1.9-1.8-1.9-.9 0-1.8.5-2.4 1.3v6.2h-1.6v-8.7h1.6v1.2c.8-.9 1.9-1.4 3.1-1.4 1.4-.2 2.6.8 2.8 2.2v6.7h-1.6v-5.6zm4.5 3.6v-5.3h-1.4v-1.4h1.4v-2.4h1.6v2.4h1.8v1.4h-1.8v5c0 .6.3 1.1.8 1.1.3 0 .6-.1.9-.3l.4 1.2c-.5.4-1.1.6-1.7.6-1 .1-2-.6-2.1-1.7.1-.3.1-.5.1-.6zm10.6 1c-.7.8-1.8 1.2-2.8 1.1-1.6.1-2.9-1.2-3-2.8v-.1c0-1.6 1.2-2.8 2.8-2.8h.2c1.1-.1 2.1.4 2.8 1.2V72c0-1.1-.9-1.7-2.1-1.7-1 0-1.9.4-2.6 1.2l-.7-1.2c.9-.9 2.2-1.5 3.6-1.4 1.9 0 3.5.8 3.5 3v5.9h-1.6v-.9zm0-2.5c-.5-.7-1.4-1-2.2-1-1-.1-1.8.5-2 1.5-.1 1 .5 1.8 1.5 2h.5c.9 0 1.7-.3 2.2-1v-1.5zm3.9-7.8c0-.5.5-1 1-1 .6 0 1 .4 1 1s-.4 1-1 1-1-.4-1-1zm.3 2.5h1.6v8.7h-1.6v-8.7zm10.1 3.2c0-1.4-.7-1.9-1.8-1.9-.9 0-1.8.5-2.4 1.3v6.2h-1.6v-8.7h1.6v1.2c.8-.9 1.9-1.4 3.1-1.4 1.4-.2 2.6.8 2.8 2.2v6.7h-1.6v-5.6zm8.8-6.5h1.6v4.6c.7-.9 1.7-1.5 2.9-1.5 2.3 0 3.9 1.8 3.9 4.6S96.2 78 94 78c-1.1 0-2.2-.6-2.8-1.5v1.2h-1.7V65.8zm4 10.8c1.6 0 2.6-1.3 2.6-3.1s-1-3.1-2.6-3.1c-1 0-1.9.5-2.4 1.3v3.7c.6.7 1.5 1.2 2.4 1.2zm6.2-10c0-.5.5-1 1-1 .6 0 1 .4 1 1s-.4 1-1 1-1-.4-1-1zm.2 2.5h1.6v8.7h-1.6v-8.7zm7.1 5l-1.3 1.3v2.4h-1.6v-12h1.6v7.7l4.2-4.4h2l-3.8 3.9 3.9 4.7h-2.1l-2.9-3.6zm9.8-5.2c2.6 0 4.2 2 4.2 4.7v.4h-6.9c.1 1.6 1.4 2.8 3 2.7 1 0 1.9-.3 2.6-1l.8 1.1c-1 .9-2.2 1.3-3.5 1.2-2.5-.1-4.5-2.2-4.4-4.7 0-2.4 1.9-4.3 4.2-4.4zm-2.6 3.9h5.3c0-1.4-1.1-2.6-2.5-2.6h-.1c-1.5 0-2.7 1.2-2.7 2.6zm18.9-1.7l-2.1 6.7h-1.7l-2.7-8.7h1.7l2 6.6 2.2-6.6h1.4l2.1 6.6 2-6.6h1.7l-2.7 8.7h-1.7l-2.2-6.7zm7.8-4.5c0-.5.5-1 1-1 .6 0 1 .4 1 1s-.4 1-1 1-1-.4-1-1zm.2 2.5h1.6v8.7h-1.6v-8.7zm4.5 6.8v-5.3h-1.4v-1.4h1.4v-2.4h1.6v2.4h1.7v1.4h-1.8v5c0 .6.3 1.1.9 1.1.3 0 .6-.1.9-.3l.4 1.2c-.5.4-1.1.6-1.7.6-1 .1-2-.7-2.1-1.7.1-.3.1-.5.1-.6zm11.1-3.7c0-1.4-.7-1.9-1.9-1.9-.9 0-1.8.5-2.4 1.3v6.2h-1.6v-12h1.6v4.5c.8-.9 1.9-1.4 3.1-1.4 1.4-.2 2.6.8 2.8 2.1v6.8h-1.6v-5.6zm8.9-3.1h1.6v1.3c.7-.9 1.7-1.5 2.8-1.5v1.6c-.2 0-.4-.1-.6-.1-.9.1-1.8.5-2.3 1.3v6h-1.6l.1-8.6zm9.9-.2c2.6 0 4.2 2 4.2 4.7v.4h-6.9c.1 1.6 1.4 2.8 3 2.7 1 0 1.9-.3 2.6-1l.8 1.1c-.9.9-2.2 1.3-3.5 1.3-2.5-.1-4.5-2.2-4.4-4.7 0-2.4 1.8-4.3 4.2-4.5zm-2.7 3.9h5.3c0-1.4-1.1-2.6-2.5-2.6h-.1c-1.5 0-2.7 1.2-2.7 2.6zm14.3 4.1c-.7.8-1.8 1.2-2.8 1.1-1.6.1-2.9-1.2-3-2.8v-.1c0-1.6 1.2-2.8 2.8-2.8h.2c1.1-.1 2.1.4 2.9 1.2V72c0-1.1-.9-1.7-2.1-1.7-1 0-1.9.4-2.6 1.2l-.7-1.1c.9-.9 2.2-1.5 3.6-1.4 1.9 0 3.5.8 3.5 3v5.9h-1.6l-.2-1zm0-2.5c-.5-.7-1.4-1-2.2-1-1-.1-1.8.5-2 1.5s.5 1.8 1.5 2h.5c.9 0 1.7-.3 2.2-1v-1.5zm4.2-5.3h1.6v1.3c.7-.9 1.7-1.5 2.8-1.5v1.6c-.2 0-.4-.1-.6-.1-.9.1-1.8.5-2.3 1.3v6h-1.6v-8.6zm16.1 7.8c-.7.8-1.8 1.2-2.8 1.1-1.6.1-2.9-1.2-3-2.8v-.1c0-1.6 1.2-2.8 2.8-2.8h.2c1.1-.1 2.1.4 2.8 1.2V72c0-1.1-.9-1.7-2.1-1.7-1 0-1.9.4-2.6 1.2l-.7-1.1c.9-.9 2.2-1.5 3.6-1.4 1.9 0 3.5.8 3.5 3v5.9h-1.6v-1zm0-2.5c-.5-.7-1.4-1-2.2-1-1-.1-1.8.5-2 1.5s.5 1.8 1.5 2h.5c.9 0 1.7-.3 2.2-1v-1.5zm10.1-2.1c0-1.4-.7-1.9-1.9-1.9-.9 0-1.8.5-2.4 1.3v6.2h-1.6v-8.7h1.6v1.2c.8-.9 1.9-1.4 3.1-1.4 1.4-.2 2.6.8 2.8 2.2v6.7h-1.6v-5.6zm10.4 4.3c-.7.9-1.7 1.4-2.9 1.4-2.3 0-3.9-1.7-3.9-4.6s1.6-4.6 3.9-4.6c1.1 0 2.2.6 2.8 1.5v-4.6h1.6v12h-1.6l.1-1.1zm0-5c-.6-.8-1.4-1.3-2.4-1.3-1.6 0-2.6 1.3-2.6 3.1s1 3.1 2.6 3.1c1 0 1.9-.5 2.4-1.3v-3.6zm9.2-1h-1.4v-1.4h1.4v-.6c-.2-1.4.8-2.7 2.3-2.9h.4c.5 0 1 .1 1.4.3l-.4 1.2c-.2-.1-.5-.2-.8-.2-.8 0-1.3.5-1.3 1.6v.6h1.8v1.4h-1.8v7.3h-1.6v-7.3zm4.9-1.5h1.6v1.3c.7-.9 1.7-1.5 2.8-1.5v1.6c-.2 0-.4-.1-.6-.1-.9.1-1.8.5-2.3 1.3v6H242v-8.6zm5.6 4.4c.1-2.4 2.1-4.3 4.5-4.3 2.4.1 4.3 2.1 4.3 4.5-.1 2.4-2 4.3-4.4 4.3-2.4.1-4.4-1.8-4.4-4.2v-.3zm7.1 0c0-1.6-1-3.1-2.7-3.1-1.6.1-2.8 1.4-2.7 2.9v.2c0 1.7 1 3.1 2.7 3.1s2.7-1.5 2.7-3.1zm9.6-1.2c0-1.4-.7-1.9-1.9-1.9-1 0-1.9.5-2.4 1.3v6.2h-1.6v-8.7h1.6v1.2c.8-.9 1.9-1.4 3.1-1.4 1.4-.2 2.6.8 2.8 2.2v6.7h-1.6v-5.6zm4.5 3.6v-5.3h-1.4v-1.4h1.4v-2.4h1.6v2.4h1.8v1.4h-1.8v5c0 .6.3 1.1.9 1.1.3 0 .6-.1.9-.3l.4 1.2c-.5.4-1.1.6-1.7.6-1 .1-2-.6-2.1-1.7v-.6zm9.8-.4c.8.8 1.8 1.2 2.9 1.2 1.2 0 1.9-.5 1.9-1.2s-1-1.2-2.1-1.4c-1.5-.3-3.2-.7-3.2-2.6 0-1.4 1.2-2.6 3.3-2.6 1.2 0 2.4.4 3.3 1.2l-.7 1.1c-.7-.7-1.6-1.1-2.6-1.1-1.1 0-1.8.4-1.8 1.1s.9 1 2 1.3c1.5.3 3.3.8 3.3 2.8 0 1.5-1.2 2.7-3.5 2.7-1.3.1-2.6-.4-3.6-1.3l.8-1.2zm14.3 1.1c-.8.9-1.9 1.4-3.1 1.4-1.3.2-2.6-.7-2.8-2.1v-6.8h1.6v5.6c0 1.4.7 1.9 1.8 1.9.9 0 1.8-.5 2.4-1.2v-6.2h1.6v8.7h-1.6v-1.3zm4.2-1.1c.8.8 1.8 1.2 2.9 1.2 1.2 0 1.9-.5 1.9-1.2s-1-1.2-2.1-1.4c-1.5-.3-3.2-.7-3.2-2.6 0-1.4 1.2-2.6 3.3-2.6 1.2 0 2.4.4 3.3 1.2l-.7 1.1c-.7-.7-1.6-1.1-2.6-1.1-1.1 0-1.8.4-1.8 1.1s.9 1 2 1.3c1.5.3 3.3.8 3.3 2.8 0 1.5-1.2 2.7-3.5 2.7-1.3.1-2.6-.4-3.6-1.3l.8-1.2zm8.4 5.6v-12h1.6v1.2c.7-.9 1.7-1.4 2.8-1.5 2.3 0 3.9 1.7 3.9 4.6S312.3 78 310 78c-1.1 0-2.2-.6-2.8-1.5v4.6h-1.7zm4-10.8c-1 0-1.9.5-2.4 1.3v3.7c.6.8 1.4 1.3 2.4 1.3 1.6 0 2.6-1.3 2.6-3.1s-.9-3.2-2.6-3.2zm10.3-1.4c2.6 0 4.2 2 4.2 4.7v.4h-6.9c.1 1.6 1.4 2.8 3 2.7 1 0 1.9-.3 2.6-1l.8 1.1c-.9.9-2.2 1.3-3.5 1.3-2.5-.1-4.5-2.2-4.4-4.7 0-2.4 1.8-4.3 4.2-4.5zm-2.7 3.9h5.3c0-1.4-1.1-2.6-2.5-2.6h-.1c-1.5 0-2.7 1.2-2.7 2.6zm14.8-.5c0-1.4-.7-1.9-1.9-1.9-.9 0-1.8.5-2.4 1.3v6.2H326v-8.7h1.6v1.2c.8-.9 1.9-1.4 3.1-1.4 1.4-.2 2.6.8 2.8 2.2v6.7h-1.6v-5.6zm4.2 3.2c.8.8 1.8 1.2 2.9 1.2 1.2 0 1.9-.5 1.9-1.2s-1-1.2-2.1-1.4c-1.5-.3-3.2-.7-3.2-2.6 0-1.4 1.2-2.6 3.3-2.6 1.2 0 2.4.4 3.3 1.2l-.7 1.1c-.7-.7-1.6-1.1-2.6-1.1-1.1 0-1.8.4-1.8 1.1s.9 1 2 1.3c1.5.3 3.3.8 3.3 2.8 0 1.5-1.2 2.7-3.5 2.7-1.3.1-2.6-.4-3.6-1.3l.8-1.2zm8.1-8.9c0-.6.5-1 1-1 .6 0 1 .5 1 1s-.5 1-1 1c-.5.1-1-.4-1-1zm.3 2.5h1.6v8.7h-1.6v-8.7zm3.6 4.4c.1-2.4 2.1-4.3 4.5-4.3s4.3 2.1 4.3 4.5c-.1 2.4-2 4.3-4.4 4.3-2.4 0-4.4-1.9-4.4-4.2v-.3zm7.1 0c0-1.6-1-3.1-2.7-3.1-1.6.1-2.8 1.4-2.7 2.9v.2c0 1.7 1 3.1 2.7 3.1s2.7-1.5 2.7-3.1zm9.7-1.2c0-1.4-.7-1.9-1.9-1.9-.9 0-1.8.5-2.4 1.3v6.2H359v-8.7h1.6v1.2c.8-.9 1.9-1.4 3.1-1.4 1.4-.2 2.6.8 2.8 2.2v6.7h-1.6v-5.6zM483.1 78v1.6h-1.3V78c-1.6-.1-3.1-.7-4.1-1.9l1-1.4c.8.9 1.9 1.5 3.1 1.6v-3.9c-1.8-.5-3.8-1.1-3.8-3.4 0-1.8 1.5-3.2 3.8-3.4V64h1.3v1.7c1.4.1 2.6.7 3.6 1.6l-1.1 1.3c-.7-.7-1.6-1.2-2.5-1.3v3.5c1.9.5 3.9 1.2 3.9 3.6 0 1.8-1.1 3.4-3.9 3.6zm-1.3-7.5v-3.2c-1.1.1-1.9.7-1.9 1.7s.9 1.2 1.9 1.5zm3.3 4.1c0-1-.9-1.4-2-1.8v3.6c1.5-.2 2-1.1 2-1.8zm6-6.4l-1.9 2-1.1-1.1 3.2-3.3h1.6v12h-1.8v-9.6zm9.1-2.6c1.3 0 2.5.4 3.4 1.4l-.9 1.4c-.6-.8-1.5-1.2-2.5-1.2-2.2 0-3.3 2.1-3.3 4.3v.4c.8-1.1 2-1.7 3.3-1.8 2-.2 3.8 1.3 4 3.4v.5c0 2.2-1.8 4-4 4h-.3c-3.4 0-4.8-2.9-4.8-6.2s1.6-6.2 5.1-6.2zm-.4 6.2c-1.1 0-2.2.6-2.8 1.6.1 1.4.9 3.1 2.8 3.1 1.3.1 2.5-.9 2.6-2.2v-.1c0-1.3-1-2.4-2.3-2.4-.1-.1-.2-.1-.3 0zm7.5 3.5c.6.7 1.5 1.2 2.5 1.1 2.3 0 3.3-2.2 3.3-4.3v-.4c-.8 1.1-2 1.7-3.3 1.8-2 .2-3.8-1.4-4-3.4v-.5c0-2.2 1.8-4 4-4h.3c3.5 0 4.8 2.9 4.8 6.2s-1.7 6.2-5.1 6.2c-1.3 0-2.5-.5-3.4-1.4l.9-1.3zm2.9-8.1c-1.3-.1-2.5.9-2.6 2.2v.1c0 1.3 1 2.4 2.3 2.4h.3c1.1 0 2.2-.6 2.8-1.6-.1-1.4-.9-3.1-2.8-3.1zm7.8 8.1c.6.7 1.5 1.2 2.5 1.1 2.3 0 3.3-2.2 3.3-4.3v-.4c-.8 1.1-2 1.7-3.3 1.8-2 .2-3.8-1.4-4-3.4v-.5c0-2.2 1.8-4 4-4h.3c3.5 0 4.8 2.9 4.8 6.2s-1.7 6.2-5.1 6.2c-1.3 0-2.5-.5-3.4-1.4l.9-1.3zm2.9-8.1c-1.3-.1-2.5.9-2.6 2.2v.1c0 1.3 1 2.4 2.3 2.4h.3c1.1 0 2.2-.6 2.8-1.6-.1-1.4-.9-3.1-2.8-3.1zm7.2 8.6c.6 0 1.1.5 1.1 1.1 0 .6-.5 1.1-1.1 1.1-.6 0-1.1-.5-1.1-1.1 0-.6.5-1.1 1.1-1.1zm7.7-10.2c3.3 0 4.7 3.2 4.7 6.2s-1.4 6.2-4.7 6.2-4.7-3.2-4.7-6.2 1.3-6.2 4.7-6.2zm0 1.6c-2.1 0-2.9 2.2-2.9 4.6s.7 4.6 2.9 4.6 2.9-2.3 2.9-4.6-.8-4.6-2.9-4.6zm11-1.6c3.3 0 4.7 3.2 4.7 6.2s-1.4 6.2-4.7 6.2-4.7-3.2-4.7-6.2 1.4-6.2 4.7-6.2zm0 1.6c-2.1 0-2.9 2.2-2.9 4.6s.7 4.6 2.9 4.6 2.9-2.3 2.9-4.6-.8-4.6-2.9-4.6zM20.7 89.9l-3.9 9.5H16l-3.9-9.5v9.5h-1.8v-12h2.6l3.5 8.6 3.5-8.6h2.6v12h-1.8v-9.5zm3.8 5.2c.1-2.4 2.1-4.3 4.6-4.2 2.4.1 4.3 2.1 4.2 4.6-.1 2.4-2 4.2-4.4 4.2-2.4 0-4.4-1.9-4.4-4.2v-.4zm7.1 0c0-1.6-1-3.1-2.7-3.1-1.6.1-2.8 1.4-2.7 2.9v.2c0 1.7 1 3.1 2.7 3.1s2.7-1.5 2.7-3.1zm9.7 3.1c-.8.9-1.9 1.4-3.1 1.4-1.3.2-2.6-.7-2.8-2.1v-6.8H37v5.6c0 1.4.7 1.9 1.8 1.9.9 0 1.8-.4 2.4-1.2v-6.3h1.6v8.7h-1.6v-1.2zm10-4.3c0-1.4-.7-1.9-1.8-1.9-.9 0-1.8.5-2.4 1.3v6.2h-1.6v-8.7h1.6V92c.8-.9 1.9-1.4 3.1-1.4 1.4-.2 2.6.8 2.8 2.2v6.7h-1.6v-5.6zm4.5 3.6v-5.3h-1.4v-1.4h1.4v-2.4h1.6v2.4h1.8v1.4h-1.8v5c0 .6.3 1.1.8 1.1.3 0 .6-.1.9-.3l.4 1.2c-.5.4-1.1.6-1.7.6-1 .1-2-.6-2.1-1.7.1-.3.1-.5.1-.6zm10.6 1c-.7.8-1.8 1.2-2.8 1.2-1.6.1-2.9-1.2-3-2.8v-.1c0-1.6 1.2-2.8 2.8-2.8h.2c1.1-.1 2.1.4 2.8 1.2v-1.5c0-1.1-.9-1.7-2.1-1.7-1 0-1.9.4-2.6 1.1l-.7-1.2c.9-.9 2.2-1.5 3.6-1.4 1.9 0 3.5.8 3.5 3v5.9h-1.6v-.9zm0-2.5c-.5-.7-1.4-1-2.2-1-1-.1-1.8.5-2 1.5-.1 1 .5 1.8 1.5 2h.5c.9 0 1.7-.3 2.2-1V96zm3.9-7.8c0-.5.5-1 1-1 .6 0 1 .4 1 1s-.4 1-1 1-1-.4-1-1zm.3 2.5h1.6v8.7h-1.6v-8.7zm10.1 3.2c0-1.4-.7-1.9-1.8-1.9-.9 0-1.8.5-2.4 1.3v6.2h-1.6v-8.7h1.6V92c.8-.9 1.9-1.4 3.1-1.4 1.4-.2 2.6.8 2.8 2.2v6.7h-1.6v-5.6zm8.8-6.5h1.6V92c.7-.9 1.7-1.5 2.9-1.5 2.3 0 3.9 1.8 3.9 4.6s-1.7 4.6-3.9 4.6c-1.1 0-2.2-.6-2.8-1.5v1.2h-1.7v-12zm4 10.8c1.6 0 2.6-1.3 2.6-3.1s-1-3.1-2.6-3.1c-1 0-1.9.5-2.4 1.3V97c.6.7 1.5 1.2 2.4 1.2zm6.2-10c0-.5.5-1 1-1 .6 0 1 .4 1 1s-.4 1-1 1-1-.4-1-1zm.2 2.5h1.6v8.7h-1.6v-8.7zm7.1 5l-1.3 1.3v2.4h-1.6v-12h1.6v7.7l4.2-4.4h2l-3.8 3.9 3.8 4.8h-2.1l-2.8-3.7zm9.8-5.2c2.6 0 4.2 2 4.2 4.7v.4h-6.9c.1 1.6 1.4 2.8 3 2.7 1 0 1.9-.3 2.6-1l.8 1.1c-.9.9-2.2 1.3-3.5 1.3-2.5-.1-4.5-2.2-4.4-4.7.1-2.4 1.9-4.3 4.2-4.5zm-2.6 3.9h5.3c0-1.4-1.1-2.6-2.5-2.6h-.1c-1.5 0-2.7 1.2-2.7 2.6zm18.9-1.7l-2.1 6.7h-1.7l-2.7-8.7h1.7l2 6.6 2.2-6.6h1.4l2.1 6.6 2-6.6h1.7l-2.7 8.7h-1.7l-2.2-6.7zm7.8-4.5c0-.5.5-1 1-1 .6 0 1 .4 1 1s-.4 1-1 1-1-.4-1-1zm.2 2.5h1.6v8.7h-1.6v-8.7zm4.5 6.8v-5.3h-1.4v-1.4h1.4v-2.4h1.6v2.4h1.7v1.4h-1.8v5c0 .6.3 1.1.9 1.1.3 0 .6-.1.9-.3l.4 1.2c-.5.4-1.1.6-1.7.6-1 .1-2-.7-2.1-1.7.1-.3.1-.5.1-.6zm11.1-3.7c0-1.4-.7-1.9-1.9-1.9-.9 0-1.8.5-2.4 1.3v6.2h-1.6v-12h1.6V92c.8-.9 1.9-1.4 3.1-1.4 1.4-.2 2.6.8 2.8 2.1v6.8h-1.6v-5.7zm15.1 4.4c-.7.9-1.7 1.4-2.8 1.5-2.3 0-3.9-1.7-3.9-4.6s1.6-4.6 3.9-4.6c1.1 0 2.2.6 2.8 1.5v-4.6h1.6v12h-1.6v-1.2zm0-5c-.6-.8-1.4-1.3-2.4-1.3-1.6 0-2.6 1.3-2.6 3.1s1 3.1 2.6 3.1c1 0 1.9-.5 2.4-1.3v-3.6zm3.9-5c0-.5.5-1 1-1 .6 0 1 .4 1 1s-.4 1-1 1-1-.4-1-1zm.3 2.5h1.6v8.7H176v-8.7zm4.2 6.4c.8.8 1.8 1.2 2.9 1.2 1.2 0 1.9-.5 1.9-1.2s-1-1.2-2.1-1.4c-1.5-.3-3.2-.7-3.2-2.6 0-1.4 1.2-2.6 3.3-2.6 1.2 0 2.4.4 3.3 1.2l-.7 1.1c-.7-.7-1.6-1.1-2.6-1-1.1 0-1.8.4-1.8 1.1s.9 1 2 1.3c1.5.3 3.3.8 3.3 2.8 0 1.5-1.2 2.7-3.5 2.7-1.3.1-2.6-.4-3.6-1.3l.8-1.3zm11.3-1.4l-1.3 1.3v2.4h-1.6v-12h1.6v7.7l4.2-4.4h2l-3.8 3.9 3.8 4.8h-2.1l-2.8-3.7zm11.1-8.3h1.6V92c.7-.9 1.7-1.5 2.8-1.5 2.3 0 3.9 1.8 3.9 4.6s-1.6 4.6-3.9 4.6c-1.1 0-2.2-.6-2.8-1.5v1.2h-1.6v-12zm4 10.8c1.6 0 2.6-1.3 2.6-3.1s-1-3.1-2.6-3.1c-1 0-1.9.5-2.4 1.3V97c.5.7 1.5 1.2 2.4 1.2zm6.4-7.5h1.6V92c.7-.9 1.7-1.5 2.8-1.5v1.6c-.2 0-.4-.1-.6-.1-.9.1-1.8.5-2.3 1.3v6H213v-8.6zm9.9-.2c2.6 0 4.2 2 4.2 4.7v.4h-6.9c.1 1.6 1.4 2.8 3 2.7 1 0 1.9-.3 2.6-1l.8 1.1c-.9.9-2.2 1.3-3.5 1.3-2.5-.1-4.5-2.2-4.4-4.7 0-2.4 1.9-4.3 4.2-4.5zm-2.7 3.9h5.3c0-1.4-1.1-2.6-2.5-2.6h-.1c-1.4 0-2.6 1.2-2.7 2.6zm14.3 4.1c-.7.8-1.8 1.2-2.9 1.2-1.6.1-2.9-1.2-3-2.8v-.1c0-1.6 1.2-2.8 2.8-2.8h.2c1.1-.1 2.1.4 2.9 1.2v-1.5c0-1.1-.9-1.7-2.1-1.7-1 0-1.9.4-2.6 1.1l-.7-1.1c.9-.9 2.2-1.5 3.6-1.4 1.9 0 3.5.8 3.5 3v5.9h-1.6l-.1-1zm0-2.5c-.5-.7-1.4-1-2.2-1-1-.1-1.8.5-2 1.5s.5 1.8 1.5 2h.5c.9 0 1.7-.3 2.2-1V96zm7.2-.3l-1.3 1.3v2.4h-1.6v-12h1.6v7.7l4.2-4.4h2l-3.8 3.9 3.8 4.8h-2.1l-2.8-3.7zm6.3 1.4c.8.8 1.8 1.2 2.9 1.2 1.2 0 1.9-.5 1.9-1.2s-1-1.2-2.1-1.4c-1.5-.3-3.2-.7-3.2-2.6 0-1.4 1.2-2.6 3.3-2.6 1.2 0 2.4.4 3.3 1.2l-.7 1.1c-.7-.7-1.6-1.1-2.6-1.1-1.1 0-1.8.4-1.8 1.1s.9 1 2 1.3c1.5.3 3.3.8 3.3 2.8 0 1.5-1.2 2.7-3.5 2.7-1.3.1-2.6-.4-3.6-1.3l.8-1.2zm235.1 2.5v1.6h-1.3v-1.6c-1.6-.1-3.1-.7-4.1-1.9l1-1.4c.8.9 1.9 1.5 3.1 1.7v-3.9c-1.8-.5-3.8-1.1-3.8-3.4 0-1.8 1.5-3.2 3.8-3.4v-1.7h1.3v1.7c1.4.1 2.6.7 3.6 1.6l-1.1 1.3c-.7-.7-1.6-1.2-2.5-1.3v3.5c1.9.5 3.9 1.2 3.9 3.6 0 1.8-1.1 3.4-3.9 3.6zm-1.3-7.5v-3.2c-1.1.1-1.9.7-1.9 1.7s.9 1.2 1.9 1.5zm3.3 4.1c0-1-.9-1.4-2-1.8V98c1.5-.2 2-1.1 2-1.8zm6-6.4l-1.9 2-1.1-1.1 3.2-3.3h1.6v12h-1.8v-9.6zm9.1-2.6c1.3 0 2.5.5 3.4 1.4l-.9 1.4c-.6-.8-1.5-1.2-2.5-1.2-2.2 0-3.3 2.1-3.3 4.3v.4c.8-1.1 2-1.7 3.3-1.8 2-.2 3.8 1.3 4 3.4v.5c0 2.2-1.8 4-4 4h-.3c-3.4 0-4.8-2.9-4.8-6.2s1.6-6.2 5.1-6.2zm-.4 6.2c-1.1 0-2.2.6-2.8 1.6.1 1.4.9 3.1 2.8 3.1 1.3.1 2.5-.9 2.6-2.2v-.1c0-1.3-1-2.4-2.3-2.4-.1-.1-.2-.1-.3 0zm7.5 3.5c.6.7 1.6 1.2 2.5 1.1 2.3 0 3.3-2.2 3.3-4.3v-.4c-.8 1.1-2 1.7-3.3 1.8-2 .2-3.8-1.4-4-3.4v-.5c0-2.2 1.8-4 4-4h.3c3.5 0 4.8 2.9 4.8 6.2s-1.7 6.2-5.1 6.2c-1.3 0-2.5-.5-3.4-1.4l.9-1.3zm2.9-8.1c-1.3-.1-2.5.9-2.6 2.2v.1c0 1.3 1 2.4 2.3 2.4h.3c1.1 0 2.2-.6 2.8-1.6-.1-1.4-.9-3.1-2.8-3.1zm7.8 8.1c.6.7 1.5 1.2 2.5 1.1 2.3 0 3.3-2.2 3.3-4.3v-.4c-.8 1.1-2 1.7-3.3 1.8-2 .2-3.8-1.4-4-3.4v-.5c0-2.2 1.8-4 4-4h.3c3.5 0 4.8 2.9 4.8 6.2s-1.7 6.2-5.1 6.2c-1.3 0-2.5-.5-3.4-1.4l.9-1.3zm2.9-8.1c-1.3-.1-2.5.9-2.6 2.2v.1c0 1.3 1 2.4 2.3 2.4h.3c1.1 0 2.2-.6 2.8-1.6-.1-1.4-.9-3.1-2.8-3.1zm7.2 8.6c.6 0 1.1.5 1.1 1.1 0 .6-.5 1.1-1.1 1.1-.6 0-1.1-.5-1.1-1.1 0-.6.5-1.1 1.1-1.1zm7.7-10.2c3.3 0 4.7 3.2 4.7 6.2s-1.4 6.2-4.7 6.2-4.7-3.2-4.7-6.2 1.3-6.2 4.7-6.2zm0 1.6c-2.1 0-2.9 2.2-2.9 4.6s.7 4.6 2.9 4.6 2.9-2.3 2.9-4.6-.8-4.6-2.9-4.6zm11-1.6c3.3 0 4.7 3.2 4.7 6.2s-1.4 6.2-4.7 6.2-4.7-3.2-4.7-6.2 1.4-6.2 4.7-6.2zm0 1.6c-2.1 0-2.9 2.2-2.9 4.6s.7 4.6 2.9 4.6 2.9-2.3 2.9-4.6-.8-4.6-2.9-4.6z" class="st1"/><path d="M314.7 22.9L329.8 38l15.1-15.1z" class="st2"/><path d="M327.9 0h3.6v27.9h-3.6z" class="st2"/><path d="M327.9 0h14.2v3.6h-14.2zm84.3 22.9L427.3 38l15.1-15.1z" class="st2"/><path d="M425.4 0h3.6v27.9h-3.6z" class="st2"/><path d="M425.5 0h14.2v3.6h-14.2zm16.9 22.9L457.5 38l15.1-15.1z" class="st2"/><path d="M455.6 0h3.6v27.9h-3.6z" class="st2"/><path d="M455.7 0h14.2v3.6h-14.2z" class="st2"/><path d="M282 19l258 93.2m0-93.2l-258 93.2" class="st3"/></svg>