<svg xmlns="http://www.w3.org/2000/svg" id="Layer_1" viewBox="0 0 757.2 230" width="757.2" height="230"><style>.st0{fill:#2c2a28}.st1{fill:none;stroke:#f5f2ed;stroke-width:.7088;stroke-miterlimit:10;stroke-dasharray:3.375}.st2{fill:#f5f2ed}.st3{fill:#2c2a28;stroke:#f4f3ed;stroke-width:.9884;stroke-miterlimit:10}.st4{fill:#f4f3ed}.st5{fill:none;stroke:#f5f2ed;stroke-width:.5625;stroke-miterlimit:10}.st6{fill:#231f20}.st7{fill:#ed1c24}.st8{fill:#ec008c}.st9{fill:#00a651}.st10{fill:#00aeef}.st11{fill:#2e3192}.st12{fill:#ef4136}.st13{fill:#fbb040}.st14{fill:#8dc63f}.st15{fill:#232c65}.st16{fill:#d4e48f}.st17{fill:#f08222}.st18{fill:#21160d}.st19{fill:#232c65;stroke:#232c65}.st19,.st20,.st21{stroke-miterlimit:10}.st20{stroke-width:.25;fill:#fff;stroke:#231f20}.st21{fill:#d4e48f;stroke:#d4e48f}</style><path d="M137.7 110.3l4.5-4.5-4.5-4.5 3.6-5.3-5.2-3.6 2.7-5.8-5.8-2.7 1.7-6.2-6.2-1.6.6-6.4-6.4-.5-.6-6.4-6.3.6-1.7-6.2-6.1 1.6-2.7-5.7-5.8 2.7-3.7-5.3-5.2 3.7-4.5-4.5-4.5 4.5-5.3-3.7-3.6 5.2-5.8-2.6-2.7 5.7-6.2-1.6-1.6 6.2-6.4-.6-.5 6.4-6.4.5.6 6.4-6.2 1.6 1.6 6.2-5.7 2.7 2.7 5.8-5.3 3.6 3.7 5.3-4.5 4.5 4.5 4.5-3.7 5.2 5.3 3.7-2.7 5.8 5.7 2.7-1.6 6.1 6.2 1.7-.6 6.3 6.4.6.5 6.4 6.4-.6 1.6 6.2 6.2-1.7 2.7 5.8 5.8-2.7 3.6 5.2 5.3-3.6 4.5 4.5 4.5-4.5 5.2 3.6 3.7-5.2 5.8 2.7 2.7-5.8 6.1 1.7 1.7-6.2 6.3.6.6-6.4 6.4-.6-.6-6.3 6.2-1.7-1.7-6.1 5.8-2.7-2.7-5.8 5.2-3.7z" class="st0"/><circle cx="86.1" cy="105.8" r="44.8" class="st1"/><path d="M61.9 79.2c.7.5 1.2 1.3 1.5 2.1l1.2-.2.1 1-1.4.3c-.1.2-.3.5-.4.7-.9 1-2.1.8-3.9-.8-1.7-1.5-1.9-2.7-1-3.7 1.1-1.1 2.3-.9 3.9.6zm-2 2.2c1.1 1 1.9 1.4 2.4 1 .5-.5 0-1.2-1.2-2.3-1.1-1-1.8-1.4-2.3-.8s.1 1.1 1.1 2.1zm6.6-3.7c.4.5.8.9.9 1.1l-.8.7c-.1-.1-.3-.2-.4-.4.1.4-.1.9-.4 1.2-.5.4-1.2.5-1.9-.4l-2.2-2.7.9-.7 2.1 2.5c.3.4.6.5.9.2.3-.3.3-.6-.1-1.2l-1.9-2.3.9-.7 2 2.7zm3.7-2c.1.2.5.7.6.9l-.9.5c-.1-.1-.2-.2-.3-.4 0 .4-.2.8-.6 1-.6.4-1.4.2-1.8-.4l-.1-.1c-.5-.8-.3-1.7.8-2.4.1-.1.2-.2.3-.2l-.3-.4c-.2-.2-.4-.5-.8-.2s-.3.5-.1.8l-.9.6c-.5-.6-.3-1.5.3-2 .1-.1.2-.1.3-.1.9-.6 1.6-.4 2.1.3l1.4 2.1zm-1.5-.3c-.1.1-.2.1-.3.2-.5.3-.6.7-.4 1.1.1.3.5.4.7.3h.1c.5-.3.3-.7 0-1.3l-.1-.3zm2.8.9l-3-6 1-.5 3 6-1 .5zm-.3-6l-.4-1 1-.4.4 1-1 .4zm.2.6l1-.4 1.9 4.5-1 .4-1.9-4.5zm1.8-.8l.6-.2-.4-1.1 1.1-.4.4 1.1.7-.2.3.9-.7.2.8 2.6c.1.3.2.4.5.3.1 0 .2-.1.3-.1l.3.8c-.2.1-.4.3-.6.3-.7.3-1.2.1-1.4-.7l-.9-2.7-.7.1-.3-.9zm4.3-1.3c.7 1.5 1.3 2.7 1.5 3.2v-3.6l1.1-.2-.3 5.3c-.1 1.6-.6 1.8-1.2 1.9-.1 0-.3.1-.4.1l-.2-.9c.1 0 .2 0 .4-.1.4-.1.5-.3.5-.9l-2.5-4.5 1.1-.3zm8.7 1l-2 .1.1 1.9 2.3-.1-.1 1-3.3.1-.3-6.4 3.3-.1v1l-2.2.1.1 1.6 2-.1.1.9zm4.8-3.5l-.4 5.3c0 .6-.1 1.1-.1 1.4l-1.1-.1v-.5c-.2.4-.7.6-1.1.5-1-.1-1.4-1-1.2-2.7.1-1.5.7-2.4 1.8-2.3.5 0 .8.3.8.4l.2-2.1 1.1.1zm-2.3 5.6c.6 0 .7-.4.8-1.6.1-1.1 0-1.5-.5-1.6-.4 0-.8.3-.8 1.5-.1 1.2 0 1.7.5 1.7zm6.1.5c-.2.7-.3 1.1-.3 1.4l-1-.2c0-.2 0-.4.1-.5-.3.4-.8.5-1.2.4-.7-.1-1.1-.6-.9-1.7l.8-3.4 1.1.2-.7 3.2c-.1.5-.1.8.3.8.4.1.7-.1.9-.8l.6-2.9 1.1.2-.8 3.3zm4 1.1c-.2.9-1.1 1.4-2 1.1-.1 0-.1 0-.2-.1-1.3-.5-1.3-1.6-.8-3 .4-1.2 1.2-2.2 2.5-1.7.8.2 1.3 1.1 1.1 1.9 0 .1 0 .1-.1.2l-1.1-.4c.1-.2.2-.7-.2-.9s-.7.4-1.1 1.4c-.4 1-.4 1.6.1 1.7.5.2.7-.3.8-.6l1 .4zm3.3 2.3c-.1.2-.4.8-.4 1l-.9-.5c0-.1.1-.3.2-.4-.4.2-.9.2-1.2 0-.6-.3-.9-1.1-.6-1.7 0 0 0-.1.1-.1.4-.9 1.3-1.1 2.4-.6.2.1.3.1.4.2l.2-.5c.1-.3.2-.6-.2-.8-.4-.2-.6 0-.8.3l-1-.5c.3-.7 1.2-1 1.9-.7.1 0 .2.1.3.2.9.5 1.2 1.1.8 2l-1.2 2.1zm-.5-1.4c-.1-.1-.2-.1-.3-.2-.6-.3-.9-.1-1.1.2-.2.3-.1.6.2.8h.1c.5.3.8-.1 1.1-.7v-.1zm2.9-1.6l.5.3.7-1 .9.6-.7 1 .6.4-.5.8-.6-.4-1.4 2.2c-.2.2-.2.4.1.6.1.1.2.1.2.1l-.4.7c-.2-.1-.4-.1-.6-.3-.7-.4-.8-.9-.3-1.6l1.5-2.4-.5-.3.5-.7zm2.8 1.9l.9.7-2.9 3.9-.9-.7 2.9-3.9zm.5-.6l.7-.9.9.7-.7.9-.9-.7zm2.4 6.1c-1.2 1.3-2.2 1.5-3.1.7-.9-.8-.8-1.8.4-3.1 1.2-1.3 2.2-1.4 3.1-.6.8.8.7 1.8-.4 3zm-1.9-1.6c-.7.8-1 1.3-.6 1.7.4.3.9 0 1.6-.7.7-.8.9-1.3.5-1.6s-.8-.2-1.5.6zm3.2 1.7c.8-.6 1-.8 1.2-1l.7.8-.4.4c.4-.1.9.1 1.2.4.5.6.4 1.3-.3 1.9l-2.7 2.2-.7-.9L113 82c.4-.3.5-.6.2-.9-.3-.3-.6-.3-1.2.1l-2.3 1.9-.7-.9 2.5-1.9z" class="st2"/><path d="M151.6 105.6l10.9-16.4H9.7l10.9 16.4-11.1 16.7h153.1z" class="st3"/><path d="M44.9 107.9l-.6 3.1h-2.2L45 98.7h2.9l2.9 12.3h-2.3l-.6-3.1h-3zm2.5-1.9c-.5-2.4-.8-4.1-1-5.3h-.1c-.1 1.1-.5 3-1 5.3h2.1zm5.7-7.3h2.2v10.4h4.2l-.2 1.9h-6.2V98.7zM69 111h-1.7c-.1-.3-.1-.7-.1-1.1-.5.9-1.4 1.4-2.4 1.3-2.6 0-3.5-2.3-3.5-6.3 0-4.5 1.5-6.4 4.2-6.4 1.9-.1 3.4 1.3 3.6 3.2v.4h-2.2c0-.5-.1-1.7-1.5-1.7s-1.8 1.9-1.8 4.6c0 2.9.3 4.4 1.7 4.4 1.2 0 1.5-.9 1.5-2.7v-.7h-1.7v-1.9H69v6.9zm11-6.2c0 4.5-1.2 6.5-4.1 6.5-2.7 0-3.9-1.9-3.9-6.5 0-4.4 1.5-6.2 4-6.2 2.7-.1 4 1.9 4 6.2zm-5.7-.1c0 2.9.5 4.7 1.7 4.7 1.4 0 1.7-1.6 1.7-4.7 0-2.9-.4-4.4-1.7-4.4s-1.7 1.7-1.7 4.4zm8.8 6.3V98.7h2.5c2.5 6.8 3 8.1 3.2 8.7-.1-1.5-.1-3.3-.1-5.3v-3.4h2V111h-2.4c-2.6-7.3-3.1-8.6-3.3-9.1.1 1.5.1 3.3.1 5.6v3.6h-2zm18.7-6.2c.1 1.7-.2 3.4-1 4.9l1.9 1.5-1.3 1.5-2.2-1.7c-.5.2-1 .2-1.5.2-2.7 0-3.9-1.9-3.9-6.5 0-4.4 1.5-6.2 4-6.2 2.7 0 4 2 4 6.3zm-5.8-.1c0 2.9.5 4.7 1.7 4.7 1.4 0 1.7-1.6 1.7-4.7 0-2.9-.4-4.4-1.7-4.4S96 102 96 104.7zm11-6v8.5c0 1 .3 2.2 1.6 2.2s1.6-1 1.6-2.2v-8.5h2.2v8.5c0 2.2-.9 4-3.8 4s-3.8-1.7-3.8-4v-8.5h2.2zm10.9 0V111h-2.2V98.7h2.2zm3.6 12.3V98.7h2.5c2.5 6.8 3 8.1 3.2 8.7-.1-1.5-.1-3.3-.1-5.3v-3.4h2V111h-2.4c-2.6-7.3-3.1-8.6-3.3-9.1.1 1.5.1 3.3.1 5.6v3.6h-2zm24-6.8c.9 0 1.6.7 1.6 1.6 0 .9-.7 1.6-1.6 1.6-.9 0-1.6-.7-1.6-1.6 0-.9.8-1.6 1.6-1.6zm-119.5 0c.9 0 1.6.7 1.6 1.6 0 .9-.7 1.6-1.6 1.6-.9 0-1.6-.7-1.6-1.6.1-.9.8-1.6 1.6-1.6z" class="st2"/><path d="M86.1 77.3l1.1 2.3 2.5.3-1.8 1.8.4 2.4-2.2-1.1-2.2 1.1.4-2.4-1.8-1.8 2.5-.3zM79.5 82l.5 1.1 1.3.2-.9.8.2 1.3-1.1-.6-1.1.6.2-1.3-.9-.8 1.2-.2zM92 82l.6 1.1 1.2.2-.9.8.2 1.3-1.1-.6-1.1.6.2-1.3-.9-.8 1.3-.2z" class="st4"/><path d="M64.7 132.6l.7.6c.7.6.6 1.4-.2 2.3-.9 1-1.6 1.4-2.4.7l-.7-.5 2.6-3.1zm-2 3l.3.2c.5.5 1.1.2 1.8-.7.7-.8.8-1.3.3-1.7l-.3-.2-2.1 2.4zm4.7 1.7l-1.1-.8-.8 1.2 1.2.8-.3.3-1.6-1.1 2.3-3.3 1.5 1.1-.2.4-1.1-.8-.7 1 1.1.8-.3.4zm.9 1.5c-.2.4-.2.7.2.9.3.2.6.1.8-.1l.1-.1c.2-.4.2-.6-.2-1.1-.4-.6-.5-1-.2-1.5s.9-.6 1.4-.4c.5.3.6.9.4 1.4l-.4-.2c.2-.3.1-.6-.2-.8-.2-.1-.5-.1-.7.1v.1c-.2.3-.1.5.2 1 .4.6.5 1.1.2 1.6-.2.5-.8.7-1.4.5-.1 0-.1-.1-.2-.1-.5-.2-.7-.9-.5-1.4 0-.1.1-.1.1-.2l.4.3zm4.1-1.1l-1.7 3.6-.4-.2 1.7-3.6.4.2zm1.4 4.9l-.4-.1c0-.1.1-.3.1-.4-.2.2-.6.3-.9.1-.8-.3-.7-1.2-.3-2.3.5-1.3 1.2-1.8 1.9-1.5.5.2.8.8.6 1.3v.1l-.5-.2c.2-.3 0-.7-.3-.8-.5-.2-.9.3-1.3 1.2-.4.9-.5 1.6 0 1.8.5.2.7-.2 1-.9l.1-.2-.6-.2.2-.4 1.1.4-.7 2.1zm1.4.5l1.1-3.8.6.2c.3 2.8.3 3.3.3 3.4.1-.5.3-1.1.4-1.7l.4-1.4.4.1-1.1 3.8-.5-.2c-.3-3-.3-3.4-.3-3.6-.1.5-.3 1.1-.5 1.8l-.4 1.4h-.4zm5.8.3c-.1.6-.3 1-1 .9-.1 0-.2 0-.3-.1l.1-.4c.1 0 .2 0 .3.1.3.1.4-.1.5-.5l.5-3 .5.1-.6 2.9zm3.5-.7c-.1 1.4-.5 2.1-1.4 2-.8-.1-1.1-.8-1-2.2.1-1.4.6-2 1.4-1.9.8.1 1.1.8 1 2.1zm-1.9-.2c-.1 1.1.1 1.7.6 1.7s.7-.5.8-1.6-.1-1.6-.6-1.6c-.4 0-.7.5-.8 1.5zm3-1.7h1.1c.5-.1.9.3 1 .8v.2c.1.4-.1.7-.5.9.4.1.7.6.6 1 .1.6-.4 1.1-1 1.2h-1.2v-4.1zm.9 1.6c.5 0 .7-.2.6-.6 0-.3-.2-.6-.5-.6H86v1.2h.5zm-.4 2h.5c.4 0 .7-.3.7-.8 0-.4-.2-.7-.6-.8h-.6v1.6zm3.2-.9c.1.4.3.7.7.6.4 0 .6-.3.5-.7 0-.4-.2-.6-.8-.8-.7-.2-1-.5-1-1.1-.1-.6.4-1.1.9-1.1.6-.1 1.1.4 1.1.9l-.5.1c0-.2-.2-.6-.6-.6-.3 0-.5.2-.5.5v.1c0 .4.2.5.7.7.7.3 1 .6 1.1 1.2.1.6-.3 1.1-.8 1.2h-.2c-.6.1-1.1-.3-1.2-.8v-.2h.6zm3.4-3.4l1.8-.4.1.4-1.4.3.3 1.2 1.3-.3.1.4-1.3.3.4 1.8-.5.1-.8-3.8zm5.4.4c.4 1.3.3 2.1-.5 2.4-.8.3-1.3-.3-1.8-1.6-.4-1.3-.3-2.1.5-2.3.8-.3 1.4.3 1.8 1.5zm-1.8.6c.4 1 .7 1.5 1.2 1.4.5-.2.5-.7.1-1.8s-.7-1.4-1.2-1.3c-.4.2-.4.8-.1 1.7zm3.4-1l.7 1.6-.4.3-1.6-3.6 1-.4c.4-.3 1-.1 1.3.3 0 .1.1.1.1.2.2.3.2.8-.1 1.1.4 0 .6.2.9.7l.1.1c.1.3.2.5.4.7l-.4.2c-.2-.2-.3-.5-.4-.8l-.1-.1c-.2-.5-.4-.7-.9-.5l-.6.2zm-.2-.4l.4-.2c.4-.2.5-.5.3-.9-.1-.3-.4-.5-.7-.4 0 0-.1 0-.1.1l-.5.2.6 1.2zm4.6-1.2l.4 1.2-.5.3-1.3-3.9.5-.3 2.9 2.9-.4.3-.9-.9-.7.4zm.5-.8c-.7-.7-1.1-1.1-1.3-1.4.1.3.4 1 .7 1.8l.6-.4zm.1-2.9l.4-.3 2.1 2.8 1.1-.9.2.4-1.5 1.1-2.3-3.1zm2-1.6l.4-.3 2.4 2.7 1.1-.9.2.4-1.4 1.2-2.7-3.1zm-27.3-2.8h-1.3v1.5h1.5l-.1.4h-1.9v-4h1.9v.4h-1.4v1.2h1.3v.5zm1 .9c0 .4.2.7.6.7.4 0 .6-.2.6-.7 0-.4-.2-.6-.7-.9-.6-.3-.9-.6-.9-1.2s.5-1 1-1c.6 0 1 .5 1 1h-.5c0-.2-.1-.6-.6-.6-.3 0-.5.2-.5.5v.1c0 .4.2.5.7.8.7.3 1 .7 1 1.3 0 .6-.4 1.1-.9 1.1H81c-.6 0-1.1-.4-1.1-.9v-.2h.5zm2.8-2.5h-.9v-.4h2.3v.4h-.9v3.6h-.5v-3.6zm1.3 3.5v-.8h.5v.8h-.5zm2.4 0V129c-.2.1-.3.1-.5.1v-.4c.3-.1.5-.2.7-.3h.3v3.9h-.5zm1.6-.8c0 .2.2.4.4.4.5 0 .6-.9.6-1.5-.1.2-.4.4-.7.4-.6 0-.9-.4-.9-1.2 0-.8.4-1.3 1-1.3.7 0 1 .4 1 1.6 0 1.7-.3 2.3-1.1 2.3-.5 0-.9-.3-.9-.8v-.1l.6.2zm0-1.9c0 .5.1.8.5.8s.5-.3.5-.7c0-.5-.1-.9-.5-.9-.3 0-.5.3-.5.8zm3.6-.3c0-.1 0-.5-.5-.5-.6 0-.6.9-.6 1.4.1-.3.4-.4.7-.4.6 0 .9.5.9 1.2s-.3 1.4-1 1.4c-.9 0-1-.8-1-1.9 0-1.3.2-2.1 1.1-2.1.5 0 .9.3.9.8v.1h-.5zm0 1.7c0-.6-.1-.9-.5-.9s-.6.3-.6.7c0 .5.1 1.1.6 1.1.3.1.5-.2.5-.9zm2.8-2.6v.4c-.6 1.1-1 2.3-1.1 3.5h-.5c.2-1.2.6-2.4 1.1-3.4h-1.5v-.4l2-.1z" class="st2"/><path d="M73.2 134.3h26.3m-26.3-8h26.3" class="st5"/><path d="M335.6 110.3l4.5-4.5-4.5-4.5 3.7-5.3-5.3-3.6 2.7-5.8-5.7-2.7 1.6-6.2-6.2-1.6.6-6.4-6.4-.5-.5-6.4-6.4.6-1.6-6.2-6.2 1.6-2.7-5.7-5.8 2.7-3.6-5.3-5.3 3.7-4.5-4.5-4.5 4.5-5.2-3.7-3.7 5.2-5.8-2.6-2.7 5.7-6.1-1.6-1.7 6.2-6.3-.6-.6 6.4-6.4.5.6 6.4-6.2 1.6 1.7 6.2-5.8 2.7 2.7 5.8-5.2 3.6 3.6 5.3-4.5 4.5 4.5 4.5-3.6 5.2 5.2 3.7-2.7 5.8 5.8 2.7-1.7 6.1 6.2 1.7-.6 6.3 6.4.6.6 6.4 6.3-.6 1.7 6.2 6.1-1.7 2.7 5.8 5.8-2.7 3.7 5.2 5.2-3.6 4.5 4.5 4.5-4.5 5.3 3.6 3.6-5.2 5.8 2.7 2.7-5.8 6.2 1.7 1.6-6.2 6.4.6.5-6.4 6.4-.6-.6-6.3 6.2-1.7-1.6-6.1 5.7-2.7-2.7-5.8 5.3-3.7z" class="st0"/><circle cx="284" cy="105.8" r="44.8" class="st1"/><path d="M259.9 79.2c.7.5 1.2 1.3 1.5 2.1l1.2-.2.1 1-1.4.3c-.1.2-.3.5-.4.7-.9 1-2.1.8-3.9-.8-1.7-1.5-1.9-2.7-1-3.7 1-1.1 2.2-.9 3.9.6zm-2.1 2.2c1.1 1 1.9 1.4 2.4 1 .5-.5 0-1.2-1.2-2.3-1.1-1-1.8-1.4-2.3-.8s.1 1.1 1.1 2.1zm6.6-3.7c.5.5.8.9.9 1.1l-.8.7c-.1-.1-.3-.2-.4-.4.1.4-.1.9-.4 1.2-.5.4-1.2.5-1.9-.4l-2.2-2.7.9-.7 2.1 2.5c.3.4.6.5.9.2.3-.3.4-.6-.1-1.2l-1.9-2.3.9-.7 2 2.7zm3.7-2c.1.2.5.7.6.9l-.9.5c-.1-.1-.2-.2-.3-.4 0 .4-.2.8-.6 1-.6.4-1.4.2-1.8-.4l-.1-.1c-.5-.8-.3-1.7.8-2.4.1-.1.2-.2.3-.2l-.3-.4c-.1-.2-.4-.5-.8-.2s-.3.5-.1.8l-.9.6c-.5-.6-.3-1.5.4-2 .1-.1.2-.1.3-.1.9-.6 1.6-.4 2.1.3l1.3 2.1zm-1.5-.3c-.1.1-.2.1-.3.2-.5.3-.6.7-.4 1.1.1.3.5.4.7.3h.1c.5-.3.3-.7 0-1.3l-.1-.3zm2.8.9l-3-6 1-.5 3 6-1 .5zm-.3-6l-.4-1 1-.4.4 1-1 .4zm.3.6l1-.4 1.9 4.5-1 .4-1.9-4.5zm1.7-.8l.6-.2-.4-1.1 1.1-.4.4 1.1.7-.2.3.9-.7.2.9 2.5c.1.3.2.4.5.3.1 0 .2-.1.3-.1l.3.8c-.2.1-.4.3-.6.3-.7.3-1.2.1-1.4-.7l-.9-2.7-.6.2-.5-.9zm4.3-1.3c.7 1.5 1.3 2.7 1.5 3.2v-3.6l1.1-.2-.3 5.3c-.1 1.6-.6 1.8-1.2 1.9-.1 0-.3.1-.4.1l-.2-.9c.1 0 .2 0 .4-.1.4-.1.5-.3.5-.9l-2.5-4.5 1.1-.3zm8.7 1l-2 .1.1 1.9 2.3-.1-.1 1-3.3.1-.3-6.4 3.3-.1v1l-2.1.1.1 1.6 2-.1v.9zm4.8-3.5l-.4 5.3c0 .6-.1 1.1-.1 1.4l-1.1-.1v-.5c-.2.4-.7.6-1.1.5-1-.1-1.4-1-1.2-2.7.1-1.5.7-2.4 1.8-2.3.5 0 .8.3.8.4l.2-2.1 1.1.1zm-2.3 5.6c.6 0 .7-.4.8-1.6.1-1.1 0-1.5-.5-1.6-.5 0-.8.3-.8 1.5-.1 1.2.1 1.7.5 1.7zm6.1.5c-.2.7-.3 1.1-.3 1.4l-1-.2c0-.2 0-.4.1-.5-.3.4-.8.5-1.2.4-.7-.1-1.1-.6-.9-1.7l.8-3.4 1.1.2-.7 3.2c-.1.5-.1.8.3.8.4.1.7-.1.9-.8l.6-2.9 1.1.2-.8 3.3zm4.1 1.1c-.2.9-1.1 1.4-2 1.1-.1 0-.1 0-.2-.1-1.3-.5-1.3-1.6-.8-3 .4-1.2 1.2-2.2 2.5-1.7.8.2 1.3 1.1 1.1 1.9 0 .1 0 .1-.1.2l-1.1-.4c.1-.2.2-.7-.2-.9s-.8.3-1.1 1.3c-.4 1-.4 1.6.1 1.7.5.2.7-.3.8-.6l1 .5zm3.3 2.3c-.1.2-.4.8-.4 1l-.9-.5c0-.1.1-.3.2-.4-.4.2-.9.2-1.2 0-.6-.3-.9-1.1-.6-1.7 0 0 0-.1.1-.1.5-.9 1.3-1.1 2.4-.6.2.1.3.1.4.2l.2-.5c.1-.3.2-.6-.2-.8-.4-.2-.6 0-.8.3l-1-.5c.3-.7 1.2-1 1.9-.7.1 0 .2.1.3.2.9.5 1.2 1.1.8 2l-1.2 2.1zm-.5-1.4c-.1-.1-.2-.1-.3-.2-.6-.3-.9-.1-1.1.2-.2.3-.1.6.2.8h.1c.5.3.8-.1 1.1-.7v-.1zm2.9-1.6l.5.3.7-1 .9.6-.7 1 .6.4-.5.8-.6-.4-1.4 2.2c-.2.2-.2.4.1.6.1.1.2.1.2.1l-.4.7c-.2-.1-.4-.1-.6-.3-.7-.4-.8-.9-.3-1.6l1.5-2.4-.5-.3.5-.7zm2.8 1.9l.9.7-2.9 3.9-.9-.7 2.9-3.9zm.4-.6l.7-.9.9.7-.7.9-.9-.7zm2.4 6.1c-1.2 1.3-2.2 1.5-3.1.7-.9-.8-.8-1.8.4-3.1 1.2-1.3 2.2-1.4 3.1-.6.8.8.7 1.8-.4 3zm-1.8-1.6c-.7.8-1 1.3-.6 1.7.4.3.9 0 1.6-.7.7-.8.9-1.3.5-1.6s-.8-.2-1.5.6zm3.1 1.7c.8-.6 1-.8 1.2-1l.7.8-.4.4c.4-.1.9.1 1.2.4.5.6.4 1.3-.3 1.9l-2.7 2.2-.7-.9 2.5-2.1c.4-.3.5-.6.2-.9-.3-.3-.6-.3-1.2.1l-2.3 1.9-.7-.9 2.5-1.9z" class="st2"/><path d="M349.5 105.6l10.9-16.4H207.6l10.9 16.4-11 16.7h153.1z" class="st3"/><path d="M242.9 107.9l-.6 3.1H240l2.9-12.3h2.9l2.9 12.3h-2.3l-.6-3.1h-2.9zm2.4-1.9c-.5-2.4-.8-4.1-1-5.3h-.1c-.1 1.1-.5 3-1 5.3h2.1zm5.8-7.3h2.2v10.4h4.2l-.2 1.9h-6.2V98.7zM267 111h-1.7c-.1-.3-.1-.7-.1-1.1-.5.9-1.4 1.4-2.4 1.3-2.6 0-3.5-2.3-3.5-6.3 0-4.5 1.5-6.4 4.2-6.4 1.9-.1 3.4 1.3 3.6 3.2v.4h-2.2c0-.5-.1-1.7-1.5-1.7s-1.8 1.9-1.8 4.6c0 2.9.3 4.4 1.7 4.4 1.2 0 1.5-.9 1.5-2.7v-.7h-1.7v-1.9h3.8l.1 6.9zm11-6.2c0 4.5-1.2 6.5-4.1 6.5-2.7 0-4-1.9-4-6.5 0-4.4 1.5-6.2 4-6.2 2.8-.1 4.1 1.9 4.1 6.2zm-5.8-.1c0 2.9.5 4.7 1.7 4.7 1.4 0 1.7-1.6 1.7-4.7 0-2.9-.4-4.4-1.7-4.4s-1.7 1.7-1.7 4.4zm8.9 6.3V98.7h2.5c2.5 6.8 3 8.1 3.2 8.7-.1-1.5-.1-3.3-.1-5.3v-3.4h2V111h-2.4c-2.6-7.3-3.1-8.6-3.3-9.1.1 1.5.1 3.3.1 5.6v3.6h-2zm18.6-6.2c.1 1.7-.2 3.4-1 4.9l1.9 1.5-1.3 1.5-2.2-1.7c-.5.2-1 .2-1.5.2-2.7 0-4-1.9-4-6.5 0-4.4 1.5-6.2 4-6.2 2.9 0 4.1 2 4.1 6.3zm-5.7-.1c0 2.9.5 4.7 1.7 4.7 1.4 0 1.7-1.6 1.7-4.7 0-2.9-.4-4.4-1.7-4.4s-1.7 1.7-1.7 4.4zm10.9-6v8.5c0 1 .3 2.2 1.6 2.2s1.6-1 1.6-2.2v-8.5h2.2v8.5c0 2.2-.9 4-3.8 4s-3.8-1.7-3.8-4v-8.5h2.2zm11 0V111h-2.2V98.7h2.2zm3.5 12.3V98.7h2.5c2.5 6.8 3 8.1 3.2 8.7-.1-1.5-.1-3.3-.1-5.3v-3.4h2V111h-2.4c-2.6-7.3-3.1-8.6-3.3-9.1.1 1.5.1 3.3.1 5.6v3.6h-2zm24.1-6.8c.9 0 1.6.7 1.6 1.6s-.7 1.6-1.6 1.6c-.9 0-1.6-.7-1.6-1.6 0-.9.7-1.6 1.6-1.6zm-119.5 0c.9 0 1.6.7 1.6 1.6 0 .9-.7 1.6-1.6 1.6-.9 0-1.6-.7-1.6-1.6 0-.9.7-1.6 1.6-1.6z" class="st2"/><path d="M284 77.3l1.1 2.3 2.5.3-1.8 1.8.4 2.4L284 83l-2.2 1.1.4-2.4-1.8-1.8 2.5-.3zm-6.6 4.7l.6 1.1 1.2.2-.9.8.2 1.3-1.1-.6-1.1.6.2-1.3-.9-.8 1.3-.2zm12.6 0l.5 1.1 1.3.2-.9.8.2 1.3-1.1-.6-1.1.6.2-1.3-.9-.8 1.2-.2z" class="st4"/><path d="M262.6 132.6l.7.6c.7.6.6 1.4-.2 2.3-.9 1-1.6 1.4-2.4.7l-.7-.5 2.6-3.1zm-1.9 3l.3.2c.5.5 1.1.2 1.8-.7.7-.8.8-1.3.3-1.7l-.3-.2-2.1 2.4zm4.7 1.7l-1.1-.8-.8 1.2 1.2.8-.3.3-1.6-1.1 2.3-3.3 1.5 1.1-.2.4-1.1-.8-.7 1 1.1.8-.3.4zm.8 1.5c-.2.4-.2.7.2.9.3.2.6.1.8-.1l.1-.1c.2-.4.2-.6-.2-1.1-.4-.6-.5-1-.2-1.5s.9-.6 1.4-.4c.5.3.6.9.4 1.4l-.4-.2c.2-.3.1-.6-.2-.8-.2-.1-.5-.1-.7.1v.1c-.2.3-.1.5.2 1 .4.6.5 1.1.2 1.6-.2.5-.8.7-1.4.5-.1 0-.1-.1-.2-.1-.5-.2-.7-.9-.5-1.4 0-.1.1-.1.1-.2l.4.3zm4.1-1.1l-1.7 3.6-.4-.2 1.7-3.6.4.2zm1.4 4.9l-.4-.1c0-.1.1-.3.1-.4-.2.2-.6.3-.9.1-.8-.3-.7-1.2-.3-2.3.5-1.3 1.2-1.8 1.9-1.5.5.2.8.8.6 1.3v.1l-.5-.2c.2-.3 0-.7-.3-.8-.5-.2-.9.3-1.3 1.2-.4.9-.5 1.6 0 1.8.5.2.7-.2 1-.9l.1-.2-.6-.2.2-.4 1.1.4-.7 2.1zm1.4.5l1.1-3.8.6.2c.3 2.8.3 3.3.3 3.4.1-.5.3-1.1.5-1.7l.4-1.4.4.1-1.1 3.8-.5-.2c-.3-3-.3-3.4-.3-3.6-.1.5-.3 1.1-.5 1.8l-.4 1.4h-.5zm5.8.3c-.1.6-.3 1-1 .9-.1 0-.2 0-.3-.1l.1-.4c.1 0 .2 0 .3.1.3.1.4-.1.5-.5l.5-3 .5.1-.6 2.9zm3.5-.7c-.1 1.4-.5 2.1-1.4 2-.8-.1-1.1-.8-1-2.2.1-1.4.6-2 1.4-1.9.8.1 1.1.8 1 2.1zm-1.8-.2c-.1 1.1.1 1.7.6 1.7s.7-.5.8-1.6-.1-1.6-.6-1.6-.8.5-.8 1.5zm2.9-1.7h1.1c.5-.1.9.3 1 .8v.2c.1.4-.1.7-.5.9.4.1.7.6.6 1 .1.6-.4 1.1-1 1.2h-1.2v-4.1zm1 1.6c.5 0 .7-.2.6-.6 0-.3-.2-.6-.5-.6h-.6v1.2h.5zm-.4 2h.5c.4 0 .7-.3.7-.8 0-.4-.2-.7-.6-.8h-.6v1.6zm3.1-.9c.1.4.3.7.7.6.4 0 .6-.3.5-.7 0-.4-.2-.6-.8-.8-.7-.2-1-.5-1-1.1-.1-.6.4-1.1.9-1.1.6-.1 1.1.4 1.1.9l-.5.1c0-.2-.2-.6-.6-.6-.3 0-.5.2-.5.5v.1c0 .4.2.5.7.7.7.3 1 .6 1.1 1.2.1.6-.3 1.1-.8 1.2h-.2c-.6.1-1.1-.3-1.2-.8v-.2h.6zm3.5-3.4l1.8-.4.1.4-1.4.3.3 1.2 1.3-.3.1.4-1.3.3.4 1.8-.5.1-.8-3.8zm5.4.4c.4 1.3.3 2.1-.5 2.4-.8.3-1.3-.3-1.8-1.6-.4-1.3-.3-2.1.5-2.3.8-.3 1.3.3 1.8 1.5zm-1.8.6c.4 1 .7 1.5 1.2 1.4.5-.2.5-.7.1-1.8s-.7-1.4-1.2-1.3c-.4.2-.5.8-.1 1.7zm3.4-1l.7 1.6-.4.3-1.6-3.6 1-.4c.4-.3 1-.1 1.3.3 0 .1.1.1.1.2.2.3.2.8-.1 1.1.4 0 .6.2.9.7l.1.1c.1.3.2.5.4.7l-.4.2c-.2-.2-.3-.5-.4-.8l-.1-.1c-.2-.5-.4-.7-.9-.5l-.6.2zm-.2-.4l.4-.2c.4-.2.5-.5.3-.9-.1-.3-.4-.5-.7-.4 0 0-.1 0-.1.1l-.5.2.6 1.2zm4.5-1.2l.4 1.2-.4.3-1.3-3.9.5-.3 2.9 2.9-.4.3-.9-.9-.8.4zm.5-.8c-.7-.7-1.1-1.1-1.3-1.4.1.3.4 1 .7 1.8l.6-.4zm.1-2.9l.4-.3 2.1 2.8 1.1-.9.2.4-1.4 1.2-2.4-3.2zm2-1.6l.4-.3 2.4 2.7 1.1-.9.2.4-1.4 1.2-2.7-3.1zm-27.2-2.8H276v1.5h1.5l-.1.4h-1.9v-4h1.9v.4H276v1.2h1.3l.1.5zm.9.9c0 .4.2.7.6.7.4 0 .6-.2.6-.7 0-.4-.2-.6-.7-.9-.6-.3-.9-.6-.9-1.2s.5-1 1-1c.6 0 1 .5 1 1h-.5c0-.2-.1-.6-.6-.6-.3 0-.5.2-.5.5v.1c0 .4.2.5.7.8.7.3 1 .7 1 1.3 0 .6-.4 1.1-.9 1.1h-.2c-.6 0-1.1-.4-1.1-.9v-.2h.5zm2.9-2.5h-.9v-.4h2.3v.4h-.9v3.6h-.5v-3.6zm1.2 3.5v-.8h.5v.8h-.5zm2.5 0V129c-.2.1-.3.1-.5.1v-.4c.3-.1.5-.2.7-.3h.3v3.9h-.5zm1.6-.8c0 .2.2.4.4.4.5 0 .6-.9.6-1.5-.1.2-.4.4-.7.4-.6 0-.9-.4-.9-1.2 0-.8.4-1.3 1-1.3.7 0 1 .4 1 1.6 0 1.7-.3 2.3-1.1 2.3-.5 0-.9-.3-.9-.8v-.1l.6.2zm-.1-1.9c0 .5.1.8.5.8s.5-.3.5-.7c0-.5-.1-.9-.5-.9-.3 0-.5.3-.5.8zm3.6-.3c0-.1 0-.5-.5-.5-.6 0-.6.9-.6 1.4.1-.3.4-.4.7-.4.6 0 .9.5.9 1.2s-.3 1.4-1 1.4c-.9 0-1-.8-1-1.9 0-1.3.2-2.1 1.1-2.1.5 0 .9.3.9.8v.1h-.5zm.1 1.7c0-.6-.1-.9-.5-.9s-.6.3-.6.7c0 .5.1 1.1.6 1.1.3.1.5-.2.5-.9zm2.7-2.6v.4c-.6 1.1-1 2.3-1.1 3.5h-.5c.2-1.2.6-2.4 1.1-3.4h-1.5v-.4l2-.1z" class="st2"/><path d="M271.1 134.3h26.3m-26.3-8h26.3" class="st5"/><path d="M533.5 110.3l4.6-4.5-4.6-4.5 3.7-5.3-5.2-3.6 2.7-5.8-5.8-2.7 1.6-6.2-6.1-1.6.5-6.4-6.3-.5-.6-6.4-6.3.6-1.7-6.2-6.2 1.6-2.7-5.7-5.7 2.7-3.7-5.3-5.2 3.7-4.5-4.5-4.6 4.5-5.2-3.7-3.6 5.2-5.8-2.6-2.7 5.7-6.2-1.6-1.6 6.2-6.4-.6-.6 6.4-6.3.5.5 6.4-6.1 1.6 1.6 6.2-5.8 2.7 2.7 5.8-5.2 3.6 3.7 5.3-4.5 4.5 4.5 4.5-3.7 5.2 5.2 3.7-2.7 5.8 5.8 2.7-1.6 6.1 6.1 1.7-.5 6.3 6.3.6.6 6.4 6.3-.6 1.7 6.2 6.2-1.7 2.7 5.8 5.7-2.7 3.7 5.2 5.2-3.6 4.6 4.5 4.5-4.5 5.2 3.6 3.7-5.2 5.7 2.7 2.7-5.8 6.2 1.7 1.7-6.2 6.3.6.6-6.4 6.3-.6-.5-6.3 6.1-1.7-1.6-6.1 5.8-2.7-2.7-5.8 5.2-3.7z" class="st0"/><circle cx="482" cy="105.8" r="44.8" class="st1"/><path d="M457.8 79.2c.7.5 1.2 1.3 1.5 2.1l1.2-.2.1 1-1.4.3c-.1.2-.3.5-.4.7-.9 1-2.1.8-3.9-.8-1.7-1.5-1.9-2.7-1-3.7 1.1-1.1 2.3-.9 3.9.6zm-2 2.2c1.1 1 1.9 1.4 2.4 1 .5-.5 0-1.2-1.2-2.3-1.1-1-1.8-1.4-2.3-.8s0 1.1 1.1 2.1zm6.6-3.7c.5.5.8.9.9 1.1l-.8.7c-.1-.1-.3-.2-.4-.4.1.4-.1.9-.4 1.2-.5.4-1.2.5-1.9-.4l-2.2-2.7.9-.7 2.1 2.5c.3.4.6.5.9.2.3-.3.4-.6-.1-1.2l-1.9-2.3.9-.7 2 2.7zm3.6-2c.1.2.5.7.6.9l-.9.5c-.1-.1-.2-.2-.3-.4 0 .4-.2.8-.6 1-.6.4-1.4.2-1.8-.4l-.1-.1c-.5-.8-.3-1.7.8-2.4.1-.1.2-.2.3-.2l-.3-.4c-.1-.2-.4-.5-.8-.2s-.3.5-.1.8l-.9.6c-.5-.6-.3-1.5.4-2 .1-.1.2-.1.3-.1.9-.6 1.6-.4 2.1.3l1.3 2.1zm-1.4-.3c-.1.1-.2.1-.3.2-.5.3-.6.7-.4 1.1.1.3.5.4.7.3h.1c.5-.3.3-.7 0-1.3l-.1-.3zm2.8.9l-3-6 1-.5 3 6-1 .5zm-.4-6l-.4-1 1-.4.4 1-1 .4zm.3.6l1-.4 1.9 4.5-1 .4-1.9-4.5zm1.8-.8l.6-.2-.4-1.1 1.1-.4.4 1.1.7-.2.3.9-.7.2.9 2.5c.1.3.2.4.5.3.1 0 .2-.1.3-.1l.3.8c-.2.1-.4.3-.6.3-.7.3-1.2.1-1.4-.7l-.9-2.7-.6.2-.5-.9zm4.2-1.3c.7 1.5 1.3 2.7 1.5 3.2v-3.6l1.1-.2-.3 5.3c-.1 1.6-.6 1.8-1.2 1.9-.1 0-.3.1-.4.1l-.2-.9c.1 0 .2 0 .4-.1.4-.1.5-.3.5-.9l-2.5-4.5 1.1-.3zm8.8 1l-2 .1.1 1.9 2.3-.1-.1 1-3.3.1-.3-6.4 3.3-.1v1l-2.1.1.1 1.6 2-.1v.9zm4.7-3.5l-.4 5.3c0 .6-.1 1.1-.1 1.4l-1.1-.1v-.5c-.2.4-.7.6-1.1.5-1-.1-1.4-1-1.2-2.7.1-1.5.7-2.4 1.8-2.3.5 0 .8.3.8.4l.2-2.1 1.1.1zm-2.2 5.6c.6 0 .7-.4.8-1.6.1-1.1 0-1.5-.5-1.6-.5 0-.8.3-.8 1.5-.2 1.2 0 1.7.5 1.7zm6.1.5c-.2.7-.3 1.1-.3 1.4l-1-.2c0-.2 0-.4.1-.5-.3.4-.8.5-1.2.4-.7-.1-1.1-.6-.9-1.7l.8-3.4 1.1.2-.7 3.2c-.1.5-.1.8.3.8.4.1.7-.1.9-.8l.6-2.9 1.1.2-.8 3.3zm4 1.1c-.2.9-1.1 1.4-2 1.1-.1 0-.1 0-.2-.1-1.3-.5-1.3-1.6-.8-3 .4-1.2 1.2-2.2 2.5-1.7.8.2 1.3 1.1 1.1 1.9 0 .1 0 .1-.1.2l-1.1-.4c.1-.2.2-.7-.2-.9s-.8.3-1.1 1.3c-.4 1-.4 1.6.1 1.7.5.2.7-.3.8-.6l1 .5zm3.3 2.3c-.1.2-.4.8-.4 1l-.9-.5c0-.1.1-.3.2-.4-.4.2-.9.2-1.2 0-.6-.3-.9-1.1-.6-1.7 0 0 0-.1.1-.1.5-.9 1.3-1.1 2.4-.6.2.1.3.1.4.2l.2-.5c.1-.3.2-.6-.2-.8-.4-.2-.6 0-.8.3l-1-.5c.3-.7 1.2-1 1.9-.7.1 0 .2.1.3.2.9.5 1.2 1.1.8 2l-1.2 2.1zm-.5-1.4c-.1-.1-.2-.1-.3-.2-.6-.3-.9-.1-1.1.2-.2.3-.1.6.2.8h.1c.5.3.8-.1 1.1-.7v-.1zm2.9-1.6l.5.3.7-1 .9.6-.7 1 .6.4-.4.9-.6-.4-1.4 2.2c-.2.2-.2.4.1.6.1.1.2.1.2.1l-.4.7c-.2-.1-.4-.1-.6-.3-.7-.4-.8-.9-.3-1.6l1.5-2.4-.5-.3.4-.8zm2.8 1.9l.9.7-2.9 3.9-.9-.7 2.9-3.9zm.4-.6l.7-.9.9.7-.7.9-.9-.7zm2.5 6.1c-1.2 1.3-2.2 1.5-3.1.7-.9-.8-.8-1.8.4-3.1 1.2-1.3 2.2-1.4 3.1-.6.8.8.7 1.8-.4 3zm-1.9-1.6c-.7.8-1 1.3-.6 1.7.4.3.9 0 1.6-.7.7-.8.9-1.3.5-1.6s-.8-.2-1.5.6zm3.2 1.7c.8-.6 1-.8 1.2-1l.7.8-.4.4c.4-.1.9.1 1.2.4.5.6.4 1.3-.3 1.9l-2.7 2.2-.7-.9 2.5-2.1c.4-.3.5-.6.2-.9-.3-.3-.6-.3-1.2.1l-2.3 1.9-.7-.9 2.5-1.9z" class="st2"/><path d="M547.5 105.6l10.8-16.4H405.6l10.8 16.4-11 16.7h153.1z" class="st3"/><path d="M440.8 107.9l-.6 3.1H438l2.9-12.3h2.9l2.9 12.3h-2.3l-.6-3.1h-3zm2.4-1.9c-.5-2.4-.8-4.1-1-5.3h-.1c-.1 1.1-.5 3-1 5.3h2.1zm5.8-7.3h2.2v10.4h4.2l-.2 1.9H449V98.7zm15.9 12.3h-1.7c-.1-.3-.1-.7-.1-1.1-.5.9-1.4 1.4-2.4 1.3-2.6 0-3.5-2.3-3.5-6.3 0-4.5 1.5-6.4 4.2-6.4 1.9-.1 3.4 1.3 3.6 3.2v.4h-2.2c0-.5-.1-1.7-1.5-1.7s-1.8 1.9-1.8 4.6c0 2.9.3 4.4 1.7 4.4 1.2 0 1.5-.9 1.5-2.7v-.7H461v-1.9h3.8l.1 6.9zm11-6.2c0 4.5-1.2 6.5-4.1 6.5-2.7 0-4-1.9-4-6.5 0-4.4 1.5-6.2 4-6.2 2.8-.1 4.1 1.9 4.1 6.2zm-5.8-.1c0 2.9.5 4.7 1.7 4.7 1.4 0 1.7-1.6 1.7-4.7 0-2.9-.4-4.4-1.7-4.4s-1.7 1.7-1.7 4.4zm8.9 6.3V98.7h2.5c2.5 6.8 3 8.1 3.2 8.7-.1-1.5-.1-3.3-.1-5.3v-3.4h2V111h-2.4c-2.6-7.3-3.1-8.6-3.3-9.1.1 1.5.1 3.3.1 5.6v3.6h-2zm18.7-6.2c.1 1.7-.2 3.4-1 4.9l1.9 1.5-1.3 1.5-2.2-1.7c-.5.2-1 .2-1.5.2-2.7 0-4-1.9-4-6.5 0-4.4 1.5-6.2 4-6.2 2.8 0 4.1 2 4.1 6.3zm-5.8-.1c0 2.9.5 4.7 1.7 4.7 1.4 0 1.7-1.6 1.7-4.7 0-2.9-.4-4.4-1.7-4.4s-1.7 1.7-1.7 4.4zm11-6v8.5c0 1 .3 2.2 1.6 2.2s1.6-1 1.6-2.2v-8.5h2.2v8.5c0 2.2-.9 4-3.8 4s-3.8-1.7-3.8-4v-8.5h2.2zm10.9 0V111h-2.2V98.7h2.2zm3.6 12.3V98.7h2.5c2.5 6.8 3 8.1 3.2 8.7-.1-1.5-.1-3.3-.1-5.3v-3.4h2V111h-2.4c-2.6-7.3-3.1-8.6-3.3-9.1.1 1.5.1 3.3.1 5.6v3.6h-2zm24-6.8c.9 0 1.6.7 1.6 1.6 0 .9-.7 1.6-1.6 1.6-.9 0-1.6-.7-1.6-1.6 0-.9.7-1.6 1.6-1.6zm-119.5 0c.9 0 1.6.7 1.6 1.6 0 .9-.7 1.6-1.6 1.6-.9 0-1.6-.7-1.6-1.6 0-.9.8-1.6 1.6-1.6z" class="st2"/><path d="M482 77.3l1.1 2.3 2.4.3-1.7 1.8.4 2.4L482 83l-2.3 1.1.5-2.4-1.8-1.8 2.4-.3zm-6.6 4.7l.5 1.1 1.3.2-.9.8.2 1.3-1.1-.6-1.1.6.2-1.3-.9-.8 1.2-.2zm12.5 0l.6 1.1 1.2.2-.9.8.2 1.3-1.1-.6-1.1.6.2-1.3-.9-.8 1.2-.2z" class="st4"/><path d="M460.5 132.6l.7.6c.7.6.6 1.4-.2 2.3-.9 1-1.6 1.4-2.4.7l-.7-.5 2.6-3.1zm-1.9 3l.3.2c.5.5 1.1.2 1.8-.7.7-.8.8-1.3.3-1.7l-.3-.2-2.1 2.4zm4.7 1.7l-1.1-.8-.8 1.2 1.2.8-.3.3-1.6-1.1 2.3-3.3 1.5 1.1-.2.4-1.1-.8-.7 1 1.1.8-.3.4zm.8 1.5c-.2.4-.2.7.2.9.3.2.6.1.8-.1l.1-.1c.2-.4.2-.6-.2-1.1-.4-.6-.5-1-.2-1.5s.9-.6 1.4-.4c.5.3.6.9.4 1.4l-.4-.2c.2-.3.1-.6-.2-.8-.2-.1-.5-.1-.7.1v.1c-.2.3-.1.5.2 1 .4.6.5 1.1.2 1.6-.2.5-.8.7-1.4.5-.1 0-.1-.1-.2-.1-.5-.2-.7-.9-.5-1.4 0-.1.1-.1.1-.2l.4.3zm4.1-1.1l-1.7 3.6-.4-.2 1.7-3.6.4.2zm1.5 4.9l-.4-.1c0-.1.1-.3.1-.4-.2.2-.6.3-.9.1-.8-.3-.7-1.2-.3-2.3.5-1.3 1.2-1.8 1.9-1.5.5.2.8.8.6 1.3v.1l-.5-.2c.2-.3 0-.7-.3-.8-.5-.2-.9.3-1.3 1.2-.4.9-.5 1.6 0 1.8.5.2.7-.2 1-.9l.1-.2-.6-.2.2-.4 1.1.4-.7 2.1zm1.4.5l1.1-3.8.6.2c.3 2.8.3 3.3.3 3.4.1-.5.3-1.1.5-1.7l.4-1.4.4.1-1.1 3.8-.5-.2c-.3-3-.3-3.4-.3-3.6-.1.5-.3 1.1-.5 1.8l-.4 1.4h-.5zm5.8.3c-.1.6-.3 1-1 .9-.1 0-.2 0-.3-.1l.1-.4c.1 0 .2 0 .3.1.3.1.4-.1.5-.5l.5-3 .5.1-.6 2.9zm3.5-.7c-.1 1.4-.5 2.1-1.4 2-.8-.1-1.1-.8-1-2.2.1-1.4.6-2 1.4-1.9.8.1 1.1.8 1 2.1zm-1.9-.2c-.1 1.1.1 1.7.6 1.7s.7-.5.8-1.6-.1-1.6-.6-1.6-.7.5-.8 1.5zm3-1.7h1.1c.5-.1.9.3 1 .8v.2c.1.4-.1.7-.5.9.4.1.7.6.6 1 .1.6-.4 1.1-1 1.2h-1.2v-4.1zm.9 1.6c.5 0 .7-.2.6-.6 0-.3-.2-.6-.5-.6h-.6v1.2h.5zm-.4 2h.5c.4 0 .7-.3.7-.8 0-.4-.2-.7-.6-.8h-.6v1.6zm3.1-.9c.1.4.3.7.7.6.4 0 .6-.3.5-.7 0-.4-.2-.6-.8-.8-.7-.2-1-.5-1-1.1-.1-.6.4-1.1.9-1.1.6-.1 1.1.4 1.1.9l-.5.1c0-.2-.2-.6-.6-.6-.3 0-.5.2-.5.5v.1c0 .4.2.5.7.7.7.3 1 .6 1.1 1.2.1.6-.3 1.1-.8 1.2h-.2c-.6.1-1.1-.3-1.2-.8v-.2h.6zm3.5-3.4l1.8-.4.1.4-1.4.3.3 1.2 1.3-.3.1.4-1.3.3.4 1.8-.5.1-.8-3.8zm5.4.4c.4 1.3.3 2.1-.5 2.4-.8.3-1.3-.3-1.8-1.6-.4-1.3-.3-2.1.5-2.3.8-.3 1.4.3 1.8 1.5zm-1.8.6c.4 1 .7 1.5 1.2 1.4.5-.2.5-.7.1-1.8s-.7-1.4-1.2-1.3c-.4.2-.4.8-.1 1.7zm3.4-1l.7 1.6-.4.2-1.6-3.6 1-.4c.4-.3 1-.1 1.3.3 0 .1.1.1.1.2.2.3.2.8-.1 1.1.4 0 .6.2.9.7l.1.1c.1.3.2.5.4.7l-.4.2c-.2-.2-.3-.5-.4-.8l-.1-.1c-.2-.5-.4-.7-.9-.5l-.6.3zm-.2-.4l.4-.2c.4-.2.5-.5.3-.9-.1-.3-.4-.5-.7-.4 0 0-.1 0-.1.1l-.5.2.6 1.2zm4.5-1.2l.4 1.2-.4.3-1.3-3.9.5-.3 2.9 2.9-.4.3-.9-.9-.8.4zm.6-.8c-.7-.7-1.1-1.1-1.3-1.4.1.3.4 1 .7 1.8l.6-.4zm0-2.9l.4-.3 2.1 2.8 1.1-.9.2.4-1.5 1.1-2.3-3.1zm2.1-1.6l.4-.3 2.4 2.7 1.1-.9.2.4-1.4 1.2-2.7-3.1zm-27.3-2.8H474v1.5h1.5l-.1.4h-1.9v-4h1.9v.4H474v1.2h1.3v.5zm1 .9c0 .4.2.7.6.7.4 0 .6-.2.6-.7 0-.4-.2-.6-.7-.9-.6-.3-.9-.6-.9-1.2s.5-1 1-1c.6 0 1 .5 1 1h-.5c0-.2-.1-.6-.6-.6-.3 0-.5.2-.5.5v.1c0 .4.2.5.7.8.7.3 1 .7 1 1.3 0 .6-.4 1.1-.9 1.1h-.2c-.6 0-1.1-.4-1.1-.9v-.2h.5zm2.8-2.5h-.9v-.4h2.3v.4h-.9v3.6h-.5v-3.6zm1.3 3.5v-.8h.5v.8h-.5zm2.4 0V129c-.2.1-.3.1-.5.1v-.4c.3-.1.5-.2.7-.3h.3v3.9h-.5zm1.6-.8c0 .2.2.4.4.4.5 0 .6-.9.6-1.5-.1.2-.4.4-.7.4-.6 0-.9-.4-.9-1.2 0-.8.4-1.3 1-1.3.7 0 1 .4 1 1.6 0 1.7-.3 2.3-1.1 2.3-.5 0-.9-.3-.9-.8v-.1l.6.2zm0-1.9c0 .5.1.8.5.8s.5-.3.5-.7c0-.5-.1-.9-.5-.9-.3 0-.5.3-.5.8zm3.6-.3c0-.1 0-.5-.5-.5-.6 0-.6.9-.6 1.4.1-.3.4-.4.7-.4.6 0 .9.5.9 1.2s-.3 1.4-1 1.4c-.9 0-1-.8-1-1.9 0-1.3.2-2.1 1.1-2.1.5 0 .9.3.9.8v.1h-.5zm0 1.7c0-.6-.1-.9-.5-.9s-.6.3-.6.7c0 .5.1 1.1.6 1.1.3.1.5-.2.5-.9zm2.7-2.6v.4c-.6 1.1-1 2.3-1.1 3.5h-.5c.2-1.2.6-2.4 1.1-3.4h-1.5v-.4l2-.1z" class="st2"/><path d="M469 134.3h26.4m-26.4-8h26.4" class="st5"/><path d="M731.5 110.3l4.5-4.5-4.5-4.5 3.6-5.3-5.2-3.6 2.7-5.8-5.8-2.7 1.7-6.2-6.2-1.6.6-6.4-6.4-.5-.5-6.4-6.4.6-1.7-6.2-6.1 1.6-2.7-5.7-5.8 2.7-3.7-5.3-5.2 3.7-4.5-4.5-4.5 4.5-5.2-3.7-3.7 5.2-5.8-2.6-2.7 5.7-6.2-1.6-1.6 6.2-6.4-.6-.5 6.4-6.4.5.6 6.4-6.2 1.6 1.7 6.2-5.8 2.7 2.7 5.8-5.3 3.6 3.7 5.3-4.5 4.5 4.5 4.5-3.7 5.2 5.3 3.7-2.7 5.8 5.8 2.7-1.7 6.1 6.2 1.7-.6 6.3 6.4.6.5 6.4 6.4-.6 1.6 6.2 6.2-1.7 2.7 5.8 5.8-2.7 3.6 5.2 5.3-3.6 4.5 4.5 4.5-4.5 5.2 3.6 3.7-5.2 5.8 2.7 2.7-5.8 6.1 1.7 1.7-6.2 6.4.6.5-6.4 6.4-.6-.6-6.3 6.2-1.7-1.7-6.1 5.8-2.7-2.7-5.8 5.2-3.7z" class="st0"/><circle cx="679.9" cy="105.8" r="44.8" class="st1"/><path d="M655.7 79.2c.7.5 1.2 1.3 1.5 2.1l1.2-.2.1 1-1.4.3c-.1.2-.3.5-.4.7-.9 1-2.1.8-3.9-.8-1.7-1.5-1.9-2.7-1-3.7 1.1-1.1 2.3-.9 3.9.6zm-2 2.2c1.1 1 1.9 1.4 2.4 1 .5-.5 0-1.2-1.2-2.3-1.1-1-1.8-1.4-2.3-.8s.1 1.1 1.1 2.1zm6.6-3.7c.5.5.8.9.9 1.1l-.8.7c-.1-.1-.3-.2-.4-.4.1.4-.1.9-.4 1.2-.5.4-1.2.5-1.9-.4l-2.2-2.7.9-.7 2.1 2.5c.3.4.6.5.9.2.3-.3.3-.6-.1-1.2l-1.9-2.3.9-.7 2 2.7zm3.7-2c.1.2.5.7.6.9l-.9.5c-.1-.1-.2-.2-.3-.4 0 .4-.2.8-.6 1-.6.4-1.4.2-1.8-.4l-.1-.1c-.5-.8-.3-1.7.8-2.4.1-.1.2-.2.3-.2l-.3-.4c-.2-.2-.4-.5-.8-.2s-.3.5-.1.8l-.9.6c-.5-.6-.3-1.5.3-2 .1-.1.2-.1.3-.1.9-.6 1.6-.4 2.1.3l1.4 2.1zm-1.5-.3c-.1.1-.2.1-.3.2-.5.3-.6.7-.4 1.1.1.3.5.4.7.3h.1c.5-.3.3-.7 0-1.3l-.1-.3zm2.8.9l-3-6 1-.5 3 6-1 .5zm-.3-6l-.4-1 1-.4.4 1-1 .4zm.2.6l1-.4 1.9 4.5-1 .4-1.9-4.5zm1.8-.8l.6-.2-.4-1.1 1.1-.4.4 1.1.7-.2.3.9-.7.2.9 2.5c.1.3.2.4.5.3.1 0 .2-.1.3-.1l.3.8c-.2.1-.4.3-.6.3-.7.3-1.2.1-1.4-.7l-.9-2.7-.6.2-.5-.9zm4.3-1.3c.7 1.5 1.3 2.7 1.5 3.2v-3.6l1.1-.2-.3 5.3c-.1 1.6-.6 1.8-1.2 1.9-.1 0-.3.1-.4.1l-.2-.9c.1 0 .2 0 .4-.1.4-.1.5-.3.5-.9l-2.5-4.5 1.1-.3zm8.7 1l-2 .1.1 1.9 2.3-.1-.1 1-3.3.1-.3-6.4 3.3-.1v1l-2.1.1.1 1.6 2-.1v.9zm4.8-3.5l-.4 5.3c0 .6-.1 1.1-.1 1.4l-1.1-.1v-.5c-.2.4-.7.6-1.1.5-1-.1-1.4-1-1.2-2.7.1-1.5.7-2.4 1.8-2.3.5 0 .8.3.8.4l.2-2.1 1.1.1zm-2.3 5.6c.6 0 .7-.4.8-1.6.1-1.1 0-1.5-.5-1.6-.5 0-.8.3-.8 1.5-.1 1.2 0 1.7.5 1.7zm6.1.5c-.2.7-.3 1.1-.3 1.4l-1-.2c0-.2 0-.4.1-.5-.3.4-.8.5-1.2.4-.7-.1-1.1-.6-.9-1.7l.8-3.4 1.1.2-.7 3.2c-.1.5-.1.8.3.8.4.1.7-.1.9-.8l.6-2.9 1.1.2-.8 3.3zm4.1 1.1c-.2.9-1.1 1.4-2 1.1-.1 0-.1 0-.2-.1-1.3-.5-1.3-1.6-.8-3 .4-1.2 1.2-2.2 2.5-1.7.8.2 1.3 1.1 1.1 1.9 0 .1 0 .1-.1.2l-1.1-.4c.1-.2.2-.7-.2-.9s-.8.3-1.1 1.3c-.4 1-.4 1.6.1 1.7.5.2.7-.3.8-.6l1 .5zm3.2 2.3c-.1.2-.4.8-.4 1l-.9-.5c0-.1.1-.3.2-.4-.4.2-.9.2-1.2 0-.6-.3-.9-1.1-.6-1.7 0 0 0-.1.1-.1.5-.9 1.3-1.1 2.4-.6.2.1.3.1.4.2l.2-.5c.1-.3.2-.6-.2-.8-.4-.2-.6 0-.8.3l-1-.5c.3-.7 1.2-1 1.9-.7.1 0 .2.1.3.2.9.5 1.2 1.1.8 2l-1.2 2.1zm-.4-1.4c-.1-.1-.2-.1-.3-.2-.6-.3-.9-.1-1.1.2-.2.3-.1.6.2.8h.1c.5.3.8-.1 1.1-.7v-.1zm2.8-1.6l.5.3.7-1 .9.6-.7 1 .6.4-.3.9-.6-.4-1.4 2.2c-.2.2-.2.4.1.6.1.1.2.1.2.1l-.4.7c-.2-.1-.4-.1-.6-.3-.7-.4-.8-.9-.3-1.6l1.5-2.4-.5-.3.3-.8zm2.9 1.9l.9.7-2.9 3.9-.9-.7 2.9-3.9zm.4-.6l.7-.9.9.7-.7.9-.9-.7zm2.4 6.1c-1.2 1.3-2.2 1.5-3.1.7-.9-.8-.8-1.8.4-3.1 1.2-1.3 2.2-1.4 3.1-.6.8.8.7 1.8-.4 3zm-1.9-1.6c-.7.8-1 1.3-.6 1.7.4.3.9 0 1.6-.7.7-.8.9-1.3.5-1.6s-.8-.2-1.5.6zm3.2 1.7c.8-.6 1-.8 1.2-1l.7.8-.4.4c.4-.1.9.1 1.2.4.5.6.4 1.3-.3 1.9L705 85l-.7-.9 2.5-2.1c.4-.3.5-.6.2-.9-.3-.3-.6-.3-1.2.1l-2.3 1.9-.7-.9 2.5-1.9z" class="st2"/><path d="M745.4 105.6l10.9-16.4H603.5l10.9 16.4-11.1 16.7h153.1z" class="st3"/><path d="M638.7 107.9l-.6 3.1h-2.2l2.9-12.3h2.9l2.9 12.3h-2.3l-.6-3.1h-3zm2.5-1.9c-.5-2.4-.8-4.1-1-5.3h-.1c-.1 1.1-.5 3-1 5.3h2.1zm5.7-7.3h2.2v10.4h4.2l-.2 1.9h-6.2V98.7zm15.9 12.3h-1.7c-.1-.3-.1-.7-.1-1.1-.5.9-1.4 1.4-2.4 1.3-2.6 0-3.5-2.3-3.5-6.3 0-4.5 1.5-6.4 4.2-6.4 1.9-.1 3.4 1.3 3.6 3.2v.4h-2.2c0-.5-.1-1.7-1.5-1.7s-1.8 1.9-1.8 4.6c0 2.9.3 4.4 1.7 4.4 1.2 0 1.5-.9 1.5-2.7v-.7H659v-1.9h3.8v6.9zm11-6.2c0 4.5-1.2 6.5-4.1 6.5-2.7 0-4-1.9-4-6.5 0-4.4 1.5-6.2 4-6.2 2.9-.1 4.1 1.9 4.1 6.2zm-5.7-.1c0 2.9.5 4.7 1.7 4.7 1.4 0 1.7-1.6 1.7-4.7 0-2.9-.4-4.4-1.7-4.4s-1.7 1.7-1.7 4.4zm8.8 6.3V98.7h2.5c2.5 6.8 3 8.1 3.2 8.7-.1-1.5-.1-3.3-.1-5.3v-3.4h2V111h-2.4c-2.6-7.3-3.1-8.6-3.3-9.1.1 1.5.1 3.3.1 5.6v3.6h-2zm18.7-6.2c.1 1.7-.2 3.4-1 4.9l1.9 1.5-1.3 1.5-2.2-1.7c-.5.2-1 .2-1.5.2-2.7 0-4-1.9-4-6.5 0-4.4 1.5-6.2 4-6.2 2.8 0 4.1 2 4.1 6.3zm-5.7-.1c0 2.9.5 4.7 1.7 4.7 1.4 0 1.7-1.6 1.7-4.7 0-2.9-.4-4.4-1.7-4.4s-1.7 1.7-1.7 4.4zm10.9-6v8.5c0 1 .3 2.2 1.6 2.2s1.6-1 1.6-2.2v-8.5h2.2v8.5c0 2.2-.9 4-3.8 4s-3.8-1.7-3.8-4v-8.5h2.2zm10.9 0V111h-2.2V98.7h2.2zm3.6 12.3V98.7h2.5c2.5 6.8 3 8.1 3.2 8.7-.1-1.5-.1-3.3-.1-5.3v-3.4h2V111h-2.4c-2.6-7.3-3.1-8.6-3.3-9.1.1 1.5.1 3.3.1 5.6v3.6h-2zm24-6.8c.9 0 1.6.7 1.6 1.6 0 .9-.7 1.6-1.6 1.6-.9 0-1.6-.7-1.6-1.6.1-.9.8-1.6 1.6-1.6zm-119.4 0c.9 0 1.6.7 1.6 1.6s-.7 1.6-1.6 1.6c-.9 0-1.6-.7-1.6-1.6 0-.9.7-1.6 1.6-1.6z" class="st2"/><path d="M679.9 77.3l1.1 2.3 2.5.3-1.8 1.8.4 2.4-2.2-1.1-2.2 1.1.4-2.4-1.8-1.8 2.5-.3zm-6.6 4.7l.6 1.1 1.2.2-.9.8.2 1.3-1.1-.6-1.1.6.2-1.3-.9-.8 1.2-.2zm12.5 0l.6 1.1 1.2.2-.9.8.3 1.3-1.2-.6-1.1.6.2-1.3-.9-.8 1.3-.2z" class="st4"/><path d="M658.5 132.6l.7.6c.7.6.6 1.4-.2 2.3-.9 1-1.6 1.4-2.4.7l-.7-.5 2.6-3.1zm-1.9 3l.3.2c.5.5 1.1.2 1.8-.7.7-.8.8-1.3.3-1.7l-.3-.2-2.1 2.4zm4.7 1.7l-1.1-.8-.8 1.2 1.2.8-.3.3-1.6-1.1 2.3-3.3 1.5 1.1-.2.4-1.1-.8-.7 1 1.1.8-.3.4zm.8 1.5c-.2.4-.2.7.2.9.3.2.6.1.8-.1l.1-.1c.2-.4.2-.6-.2-1.1-.4-.6-.5-1-.2-1.5s.9-.6 1.4-.3c.5.3.6.9.4 1.4l-.4-.2c.2-.3.1-.6-.2-.8-.2-.1-.5-.1-.7.1v.1c-.2.3-.1.5.2 1 .4.6.5 1.1.2 1.6-.2.5-.8.7-1.4.5-.1 0-.1-.1-.2-.1-.5-.2-.7-.9-.5-1.4 0-.1.1-.1.1-.2l.4.2zm4.1-1.1l-1.7 3.6-.4-.2 1.7-3.6.4.2zm1.4 4.9l-.4-.1c0-.1.1-.3.1-.4-.2.2-.6.3-.9.1-.8-.3-.7-1.2-.3-2.3.5-1.3 1.2-1.8 1.9-1.5.5.2.8.8.6 1.3v.1l-.5-.2c.2-.3 0-.7-.3-.8-.5-.2-.9.3-1.3 1.2-.4.9-.5 1.6 0 1.8.5.2.7-.2 1-.9l.1-.2-.6-.2.2-.4 1.1.4-.7 2.1zm1.4.5l1.1-3.8.6.2c.3 2.8.3 3.3.3 3.4.1-.5.3-1.1.5-1.7l.4-1.4.4.1-1.1 3.8-.5-.2c-.3-3-.3-3.4-.3-3.6-.1.5-.3 1.1-.5 1.8l-.4 1.4h-.5zm5.8.3c-.1.6-.3 1-1 .9-.1 0-.2 0-.3-.1l.1-.4c.1 0 .2 0 .3.1.3.1.4-.1.5-.5l.5-3 .5.1-.6 2.9zm3.5-.7c-.1 1.4-.5 2.1-1.4 2-.8-.1-1.1-.8-1-2.2.1-1.4.6-2 1.4-1.9.8.1 1.1.8 1 2.1zm-1.9-.2c-.1 1.1.1 1.7.6 1.7s.7-.5.8-1.6-.1-1.6-.6-1.6c-.4 0-.7.5-.8 1.5zm3-1.7h1.1c.5-.1.9.3 1 .8v.2c.1.4-.1.7-.5.9.4.1.7.6.6 1 .1.6-.4 1.1-1 1.2h-1.2v-4.1zm1 1.6c.5 0 .7-.2.6-.6 0-.3-.2-.6-.5-.6h-.6v1.2h.5zm-.5 2h.5c.4 0 .7-.3.7-.8 0-.4-.2-.7-.6-.8h-.6v1.6zm3.2-.9c.1.4.3.7.7.6.4 0 .6-.3.5-.7 0-.4-.2-.6-.8-.8-.7-.2-1-.5-1-1.1-.1-.6.4-1.1.9-1.1.6-.1 1.1.4 1.1.9l-.5.1c0-.2-.2-.6-.6-.6-.3 0-.5.2-.5.5v.1c0 .4.2.5.7.7.7.3 1 .6 1.1 1.2.1.6-.3 1.1-.8 1.2h-.2c-.6.1-1.1-.3-1.2-.8v-.2h.6zm3.5-3.4l1.8-.4.1.4-1.4.3.3 1.2 1.3-.3.1.4-1.3.3.4 1.8-.5.1-.8-3.8zm5.3.4c.4 1.3.3 2.1-.5 2.4-.8.3-1.3-.3-1.8-1.6-.4-1.3-.3-2.1.5-2.3.9-.3 1.4.3 1.8 1.5zm-1.8.6c.4 1 .7 1.5 1.2 1.4.5-.2.5-.7.1-1.8s-.7-1.4-1.2-1.3c-.4.2-.4.8-.1 1.7zm3.4-1l.7 1.6-.4.2-1.6-3.6 1-.4c.4-.3 1-.1 1.3.3 0 .1.1.1.1.2.2.3.2.8-.1 1.1.4 0 .6.2.9.7l.1.1c.1.3.2.5.4.7l-.4.2c-.2-.2-.3-.5-.4-.8l-.1-.1c-.2-.5-.4-.7-.9-.5l-.6.3zm-.1-.4l.4-.2c.4-.2.5-.5.3-.9-.1-.3-.4-.5-.7-.4 0 0-.1 0-.1.1l-.5.2.6 1.2zm4.5-1.2l.4 1.2-.4.3-1.3-3.9.5-.3 2.9 2.9-.4.3-.9-.9-.8.4zm.5-.8c-.7-.7-1.1-1.1-1.3-1.4.1.3.4 1 .7 1.8l.6-.4zm.1-2.9l.4-.3 2.1 2.8 1.1-.9.2.4-1.5 1.1-2.3-3.1zm2-1.6l.4-.3 2.4 2.7 1.1-.9.2.4-1.4 1.2-2.7-3.1zm-27.3-2.8h-1.3v1.5h1.5l-.1.4h-1.9v-4h1.9v.4h-1.4v1.2h1.3v.5zm1 .9c0 .4.2.7.6.7.4 0 .6-.2.6-.7 0-.4-.2-.6-.7-.9-.6-.3-.9-.6-.9-1.2s.5-1 1-1 1 .5 1 1h-.5c0-.2-.1-.6-.6-.6-.3 0-.5.2-.5.5v.1c0 .4.2.5.7.8.7.3 1 .7 1 1.3 0 .6-.4 1.1-.9 1.1h-.2c-.6 0-1.1-.4-1.1-.9v-.2h.5zm2.8-2.5h-.9v-.4h2.3v.4h-.9v3.6h-.5v-3.6zm1.3 3.5v-.8h.5v.8h-.5zm2.4 0V129c-.2.1-.3.1-.5.1v-.4c.3-.1.5-.2.7-.3h.3v3.9h-.5zm1.6-.8c0 .2.2.4.4.4.5 0 .6-.9.6-1.5-.1.2-.4.4-.7.4-.6 0-.9-.4-.9-1.2 0-.8.4-1.3 1-1.3.7 0 1 .4 1 1.6 0 1.7-.3 2.3-1.1 2.3-.5 0-.9-.3-.9-.8v-.1l.6.2zm0-1.9c0 .5.1.8.5.8s.5-.3.5-.7c0-.5-.1-.9-.5-.9-.3 0-.5.3-.5.8zm3.6-.3c0-.1 0-.5-.5-.5-.6 0-.6.9-.6 1.4.1-.3.4-.4.7-.4.6 0 .9.5.9 1.2s-.3 1.4-1 1.4c-.9 0-1-.8-1-1.9 0-1.3.2-2.1 1.1-2.1.5 0 .9.3.9.8v.1h-.5zm.1 1.7c0-.6-.1-.9-.5-.9s-.6.3-.6.7c0 .5.1 1.1.6 1.1.3.1.5-.2.5-.9zm2.7-2.6v.4c-.6 1.1-1 2.3-1.1 3.5h-.5c.2-1.2.6-2.4 1.1-3.4h-1.5v-.4l2-.1z" class="st2"/><path d="M667 134.3h26.3m-26.3-8h26.3" class="st5"/><path d="M43.5 9.6H39V6h13.1v3.6h-4.5V22h-4.1V9.6zm11 13.9c.8 0 1.4-.2 1.6-.6l.3-.6-4.6-11.8h3.9l2.6 7.3 2.6-7.3h3.9l-5.2 13.2c-.9 2.4-2.7 3-4.9 3-.5 0-1.1-.1-1.6-.2l.5-3.3c.3.2.6.3.9.3zm11.4 3v-16h3.7v1.3c.8-1 2.1-1.6 3.4-1.6 2.9 0 5.1 2.2 5.1 6.1 0 3.9-2.2 6.1-5.1 6.1-1.3 0-2.6-.6-3.4-1.7v5.8h-3.7zm5.9-13.1c-.9 0-1.7.4-2.2 1.1V18c.6.6 1.4 1 2.2 1.1 1.4 0 2.6-1.2 2.6-2.6v-.3c.1-1.4-.9-2.7-2.3-2.8h-.3zm13.7-3.2c3.4 0 5.9 2.5 5.9 6.5v.8h-8.3c.3 1.3 1.6 2.2 3 2.1 1 0 2-.3 2.8-1l1.6 2.3c-1.4 1.1-3.1 1.6-4.8 1.5-3.6 0-6.3-2.3-6.3-6.1-.1-3.3 2.6-6 5.9-6.1h.2zM83.1 15h4.8c-.1-1.2-1.2-2.1-2.4-2-1.2 0-2.2.8-2.4 2zm10.7 3c1.2.9 2.6 1.5 4.1 1.5 1.1 0 1.6-.4 1.6-.9 0-.6-.8-.8-2-1-2-.3-4.8-.7-4.8-3.7 0-2 1.8-3.8 5-3.8 1.7 0 3.4.5 4.8 1.5l-1.4 2.4c-.9-.8-2.2-1.3-3.4-1.3-.9 0-1.5.3-1.5.8s.6.7 1.8.9c2 .3 4.9.8 4.9 3.9 0 2.2-1.9 3.8-5.3 3.8-2 0-3.9-.6-5.4-1.8l1.6-2.3zm16.4-1.8c-.1-3.5 2.6-6.4 6.1-6.6 3.5-.1 6.4 2.6 6.6 6.1.1 3.5-2.6 6.4-6.1 6.6h-.2c-3.3.2-6.1-2.3-6.3-5.6-.1-.2-.1-.3-.1-.5zm8.9 0c.2-1.4-.9-2.6-2.2-2.8s-2.6.9-2.8 2.2v.5c-.2 1.4.8 2.7 2.2 2.8s2.7-.8 2.8-2.2v-.5zm6.5-2.5h-1.9v-3.2h1.9v-.6c-.1-2.2 1.6-4 3.8-4.1h.4c.8 0 1.7.2 2.4.5l-.7 2.5c-.3-.2-.6-.2-1-.2-.7 0-1.2.5-1.3 1.1v.7h2.4v3.2h-2.4V22h-3.7v-8.3z" class="st6"/><path d="M140.5 16.7c1.4 1.4 3.2 2.1 5.1 2.1 1.4 0 2.3-.6 2.3-1.4 0-.9-1-1.3-2.7-1.6-2.6-.5-6.3-1.2-6.3-5 0-2.7 2.3-5 6.4-5 2.4-.1 4.7.7 6.5 2.2l-2.3 3c-1.3-1-2.9-1.6-4.5-1.7-1.4 0-1.9.6-1.9 1.2 0 .8 1 1.1 2.8 1.5 2.6.6 6.3 1.3 6.3 4.9 0 3.2-2.4 5.4-6.7 5.4-2.6.1-5.2-.8-7.1-2.5l2.1-3.1z" class="st7"/><path d="M161.9 14.9l-2.2 7.2h-4l-3.4-11.6h3.8l1.9 7.1 2.3-7.1h3.3l2.3 7.1 1.8-7.1h3.8L168.1 22h-4l-2.2-7.1z" class="st8"/><path d="M179.6 20.9c-.9 1-2.3 1.5-3.6 1.4-2.1.1-3.9-1.6-4-3.7v-.1c0-2.8 2.2-3.6 4-3.6 1.3-.1 2.7.4 3.6 1.3v-1.5c0-1-.9-1.7-2.4-1.7-1.2 0-2.4.4-3.3 1.2l-1.3-2.3c1.5-1.2 3.3-1.8 5.3-1.8 2.8 0 5.4 1 5.4 4.6V22h-3.7v-1.1zm0-2.9c-.5-.6-1.3-.9-2.1-.8-1 0-1.8.4-1.8 1.3s.9 1.3 1.8 1.3c.8 0 1.5-.3 2.1-.8v-1z" class="st9"/><path d="M186.7 18.9v-5.3h-1.9v-3.2h1.9V7.3h3.7v3.2h2.4v3.2h-2.4v4.2c-.1.6.3 1.1.9 1.2h.1c.3 0 .7-.1.9-.3l.7 2.8c-.8.6-1.8.9-2.7.8-2.3-.1-3.6-1.2-3.6-3.5z" class="st10"/><path d="M200.1 10.2c1.8-.1 3.6.7 4.8 2.1l-2.4 2.2c-.5-.7-1.3-1.1-2.2-1.1-1.4-.1-2.7 1.1-2.7 2.5v.3c-.1 1.5 1 2.7 2.4 2.8h.3c.9 0 1.7-.4 2.2-1.1l2.4 2.3c-1.1 1.4-2.9 2.2-4.8 2.1-3.3.2-6.1-2.3-6.3-5.6v-.5c0-3.6 2.7-6 6.3-6z" class="st11"/><path d="M214.4 15.3c0-1.4-.7-1.9-1.9-1.9-.9 0-1.7.4-2.2 1.1V22h-3.7V6h3.7v5.8c1-1.1 2.5-1.7 4-1.7 2.6 0 3.8 1.5 3.8 3.6V22h-3.7v-6.7z" class="st12"/><path d="M226.2 10.2c3.4 0 5.9 2.5 5.9 6.5v.8h-8.3c.3 1.3 1.6 2.2 3 2.1 1 0 2-.3 2.8-1l1.6 2.3c-1.4 1.1-3.1 1.6-4.8 1.5-3.6 0-6.3-2.3-6.3-6.1-.1-3.3 2.6-6 5.9-6.1h.2zm-2.3 4.8h4.8c-.1-1.2-1.2-2.1-2.4-2-1.3 0-2.3.8-2.4 2z" class="st13"/><path d="M234.5 18c1.2.9 2.6 1.5 4.1 1.5 1.1 0 1.6-.4 1.6-.9 0-.6-.8-.8-2-1-2-.3-4.8-.7-4.8-3.7 0-2 1.8-3.8 5-3.8 1.7 0 3.4.5 4.8 1.5l-1.4 2.4c-.9-.8-2.2-1.3-3.4-1.3-.9 0-1.5.3-1.5.8s.6.7 1.8.9c2 .3 4.9.8 4.9 3.9 0 2.2-1.9 3.8-5.3 3.8-2 0-3.9-.6-5.4-1.8l1.6-2.3z" class="st14"/><path d="M64.6 182.4c1.2 0 2.4.5 3.1 1.5l-.8.5c-.6-.7-1.4-1.1-2.3-1.1-1.8.1-3.2 1.6-3.1 3.4.1 1.7 1.4 3 3.1 3.1.8 0 1.6-.3 2.1-.9v-1.6H64v-.9h3.7v2.9c-.8.9-1.9 1.4-3.1 1.4-2.3 0-4.1-1.9-4.1-4.2 0-2.2 1.8-4 4.1-4.1zm4.7 2.4h.9v.9c.4-.6 1.2-1 1.9-1.1v.9h-.4c-.6.1-1.2.4-1.6.9v4.1h-.9l.1-5.7zm6.5-.2c1.6 0 2.8 1.3 2.8 2.8v.5h-4.7c0 1.1 1 2 2.1 2 .7 0 1.3-.3 1.8-.7l.4.6c-.6.6-1.4.9-2.3.9-1.7-.1-3-1.5-2.9-3.1 0-1.6 1.2-2.9 2.8-3zm-1.9 2.7h3.8c0-1-.8-1.9-1.8-1.9h-.1c-1.1 0-1.9.9-1.9 1.9zm6.4 4.8c.4 0 .8-.2.9-.6l.4-.9-2.4-5.9h1l1.9 4.7 1.9-4.7h1l-2.9 7c-.2.7-.9 1.2-1.7 1.2-.2 0-.4 0-.7-.1l.1-.8c.2.1.4.1.5.1zm5.6-2.9c.5.5 1.2.8 1.9.8.9 0 1.4-.4 1.4-1s-.7-.8-1.5-1c-1-.2-2.1-.5-2.1-1.7 0-.9.8-1.7 2.2-1.7.8 0 1.6.3 2.1.8l-.4.6c-.4-.5-1.1-.7-1.7-.7-.8 0-1.3.4-1.3.9 0 .6.7.7 1.4.9 1 .2 2.2.5 2.2 1.8 0 1-.8 1.8-2.3 1.8-.9 0-1.7-.3-2.3-.9l.4-.6zm8.1-4.6c.8 0 1.6.3 2.1 1l-.6.6c-.3-.5-.9-.8-1.5-.8-1.2.1-2.1 1.2-2 2.5.1 1 .9 1.9 2 2 .6 0 1.1-.3 1.5-.8l.6.6c-.5.7-1.3 1-2.1 1-1.7-.1-3-1.5-2.9-3.2.1-1.5 1.4-2.8 2.9-2.9zm7 5.3c-.5.5-1.2.8-1.9.8-1.1.1-2-.8-2-1.8v-.1c0-1 .8-1.9 1.9-1.9h.1c.7 0 1.4.3 1.9.8v-1c0-.8-.6-1.2-1.5-1.2-.7 0-1.3.3-1.8.8l-.4-.6c.6-.6 1.4-1 2.3-1 1.2 0 2.2.6 2.2 2v4h-.8v-.8zm0-1.6c-.4-.5-1-.7-1.6-.7-.7-.1-1.3.4-1.4 1.1-.1.7.4 1.3 1.1 1.4h.3c.6 0 1.2-.2 1.6-.7v-1.1zm2.7-5.7h.9v8h-.9v-8zm5.3 2c1.6 0 2.8 1.3 2.8 2.8v.5h-4.7c0 1.1 1 2 2.1 2 .7 0 1.3-.3 1.8-.7l.4.6c-.6.6-1.4.9-2.3.9-1.7-.1-3-1.5-2.9-3.1 0-1.6 1.2-2.9 2.8-3zm-1.9 2.7h3.8c0-1-.8-1.9-1.8-1.9h-.1c-1.1 0-1.9.9-1.9 1.9zm-52.4 12.8c0-1.6.5-3.1 1.4-4.4l.4.3c-1.4 2.5-1.4 5.6 0 8.1l-.4.4c-.9-1.2-1.4-2.8-1.4-4.4zm2.8-4.2h.7v2.6c.4-.5 1-.8 1.6-.9 1.2 0 2.2 1.1 2.2 2.3v.2c0 1.6-.9 2.5-2.1 2.5-.6 0-1.2-.3-1.6-.8v.7h-.7v-6.6zm2.2 6.1c1 0 1.6-.8 1.6-1.9s-.6-1.9-1.6-1.9c-.6 0-1.1.3-1.4.8v2.2c.3.5.8.8 1.4.8zm3.6-6.1h.7v6.7h-.7v-6.7zm5.2 6.1c-.4.4-1 .7-1.6.7-.9 0-1.6-.6-1.7-1.5v-.1c0-.9.7-1.6 1.6-1.6h.1c.6 0 1.2.2 1.6.7v-.9c0-.6-.5-1-1.2-1-.6 0-1.1.2-1.5.7l-.3-.5c.5-.5 1.2-.8 1.9-.8 1 0 1.9.5 1.9 1.6v3.3h-.8v-.6zm0-1.4c-.3-.4-.8-.6-1.3-.6-.6-.1-1.1.3-1.2.9-.1.6.3 1.1.9 1.2h.3c.5 0 1-.2 1.3-.6v-.9zm4.4-3c.7 0 1.4.3 1.8.8l-.5.5c-.3-.4-.7-.6-1.2-.6-1 .1-1.8 1-1.7 2.1.1.9.8 1.6 1.7 1.7.5 0 1-.2 1.2-.6l.5.5c-.4.6-1.1.9-1.8.8-1.4-.1-2.5-1.3-2.4-2.7.1-1.4 1.1-2.4 2.4-2.5zm4.4 2.8l-.8.8v1.4h-.7v-6.7h.7v4.4l2.5-2.6h1l-2.1 2.2 2.1 2.6h-1l-1.7-2.1zm11.5 2.2h-1c-.2-.2-.5-.4-.7-.7-.5.5-1.2.8-1.9.8-1 .1-1.9-.6-2.1-1.6v-.3c.1-.9.6-1.7 1.5-2-.3-.4-.5-1-.5-1.5 0-.9.7-1.6 1.6-1.6h.1c.7-.1 1.4.4 1.5 1.1v.2c0 1-.8 1.4-1.7 1.9.3.4.6.7.8.9.3.3.5.6.8.9.3-.5.5-1 .7-1.5l.7.3c-.2.6-.5 1.2-.9 1.7.2.5.7.9 1.1 1.4zm-2.2-1.2c-.4-.4-.7-.8-.9-1-.3-.3-.6-.7-.8-1.1-.6.3-1 .8-1 1.4 0 .7.5 1.3 1.2 1.3h.1c.6 0 1.1-.2 1.4-.6zm-1.4-2.9c.7-.4 1.3-.7 1.3-1.4 0-.4-.3-.7-.7-.8h-.1c-.5 0-.9.4-.9.9.1.6.2 1 .4 1.3zm10.2.2l-1.3 3.9h-.7l-1.5-4.8h.8l1.2 3.8 1.3-3.8h.6l1.3 3.8 1.2-3.8h.8l-1.5 4.8h-.7l-1.5-3.9zm7.7.7c0-.9-.4-1.1-1.1-1.1-.6 0-1.1.3-1.4.8v3.5h-.7v-6.7h.7v2.5c.4-.5 1.1-.8 1.7-.8.7-.1 1.4.4 1.5 1.1v3.8h-.8l.1-3.1zm2.1-2.9c0-.3.2-.5.5-.5s.5.2.5.5-.2.5-.5.5-.5-.3-.5-.5zm.1 1.2h.7v4.8h-.7v-4.8zm2.4 3.9v-3.2h-.8v-.7h.8v-1.3h.8v1.3h1v.7h-1v3c0 .4.2.6.5.6.2 0 .4-.1.5-.2l.2.6c-.2.2-.6.3-.9.3-.5.1-1-.3-1.1-.9v-.2zm4.9-4c1.3 0 2.3 1.1 2.3 2.4v.4H111c0 .9.8 1.7 1.7 1.7.6 0 1.1-.2 1.5-.6l.4.5c-.5.5-1.2.8-1.9.7-1.4 0-2.5-1.2-2.5-2.6.1-1.3 1.1-2.4 2.4-2.5zm-1.6 2.3h3.2c0-.9-.7-1.6-1.5-1.6h-.1c-.9 0-1.6.7-1.6 1.6zm4.6-3.8l.4-.3c1.9 2.6 1.9 6.2 0 8.8l-.4-.4c1.4-2.5 1.4-5.6 0-8.1zm135.4-7.4c.6.7 1.6 1.1 2.5 1.1 1.4 0 1.9-.8 1.9-1.4 0-1-1-1.2-2-1.5-1.3-.3-2.7-.7-2.7-2.3 0-1.3 1.2-2.2 2.7-2.2 1.1 0 2.1.4 2.8 1.1l-.6.7c-.6-.6-1.4-1-2.3-1-1 0-1.6.5-1.6 1.3s.9 1 1.9 1.3c1.3.3 2.8.8 2.8 2.4 0 1.2-.8 2.4-3 2.4-1.2 0-2.3-.4-3.1-1.3l.7-.6zm6.9 4.1v-8h.9v.9c.5-.6 1.2-1 2-1 1.5 0 2.6 1.2 2.6 3 0 1.9-1.1 3-2.6 3-.8 0-1.5-.4-2-1v3.1h-.9zm2.6-7.4c-.7 0-1.3.4-1.7.9v2.6c.4.6 1 .9 1.7.9 1.2 0 1.9-1 1.9-2.2s-.7-2.2-1.9-2.2zm4 2.3c.1-1.6 1.5-2.8 3-2.7s2.8 1.5 2.7 3c-.1 1.5-1.3 2.7-2.9 2.7-1.6 0-2.9-1.2-2.9-2.8 0-.1 0-.2.1-.2zm4.7 0c-.2-1.1-1.2-1.8-2.2-1.6-1.1.2-1.8 1.2-1.6 2.2.1 1 1 1.7 1.9 1.7 1.1 0 2-1 1.9-2.1v-.2zm2.6 1.7v-3.8h-1v-.8h1v-1.6h.9v1.6h1.2v.8h-1.2v3.6c0 .4.2.7.6.7.2 0 .4-.1.6-.2l.3.7c-.3.3-.7.4-1.1.4-.7.1-1.2-.4-1.3-1.1v-.3zm6.2-2.8c-.1-2.2 1.6-4.1 3.8-4.1h.2c1.2 0 2.4.6 3.1 1.6l-.8.5c-.5-.7-1.3-1.2-2.2-1.2-1.8.1-3.2 1.7-3 3.5.1 1.6 1.4 2.9 3 3 .9 0 1.7-.4 2.2-1.2l.9.5c-.7 1-1.9 1.6-3.1 1.6-2.2 0-4-1.7-4.1-3.9v-.3zm8.1 1.1c.1-1.6 1.5-2.8 3-2.7s2.8 1.5 2.7 3c-.1 1.5-1.3 2.7-2.9 2.7-1.6 0-2.9-1.2-2.9-2.8 0-.1 0-.2.1-.2zm4.7 0c-.2-1.1-1.2-1.8-2.2-1.6-1.1.2-1.8 1.2-1.6 2.2.1 1 1 1.7 1.9 1.7 1.1 0 2-1 1.9-2.1v-.2zm2.5-5.1h.9v8h-.9v-8zm2.3 5.1c.1-1.6 1.5-2.8 3-2.7s2.8 1.5 2.7 3c-.1 1.5-1.3 2.7-2.9 2.7-1.6 0-2.9-1.2-2.9-2.8.1-.1.1-.2.1-.2zm4.8 0c-.2-1.1-1.2-1.8-2.2-1.6-1.1.2-1.8 1.2-1.6 2.2.1 1 1 1.7 1.9 1.7 1.1 0 2-1 1.9-2.1v-.2zm6.3 2.1c-.5.6-1.3.9-2.1 1-.9.1-1.7-.5-1.8-1.4v-4.6h.9v3.8c0 1 .5 1.3 1.3 1.3.7 0 1.3-.3 1.7-.9v-4.3h.9v5.8h-.9v-.7zm2.7-5h.9v.9c.4-.6 1.2-1 1.9-1.1v.9h-.4c-.6.1-1.2.4-1.6.9v4.1h-.9v-5.7zm4 4.4c.5.5 1.2.8 1.9.8.9 0 1.4-.4 1.4-1s-.7-.8-1.5-1c-1-.2-2.1-.5-2.1-1.7 0-.9.8-1.7 2.2-1.7.8 0 1.6.3 2.1.8l-.4.6c-.4-.5-1.1-.7-1.7-.7-.8 0-1.3.4-1.3.9 0 .6.7.7 1.4.9 1 .2 2.2.5 2.2 1.8 0 1-.8 1.8-2.3 1.8-.9 0-1.7-.3-2.3-.9l.4-.6z" class="st6"/><path d="M256.2 195.4h2.4c1 0 1.8.7 1.9 1.7s-.7 1.8-1.7 1.9H257v2.4h-.7v-6zm2.3.6h-1.6v2.3h1.6c.6 0 1.2-.5 1.2-1.1s-.5-1.2-1.1-1.2h-.1zm5.5 4.9c-.4.4-.9.6-1.4.6-.8 0-1.5-.6-1.5-1.4v-.1c0-.8.6-1.4 1.4-1.4h.1c.5 0 1.1.2 1.4.6v-.8c0-.6-.5-.9-1.1-.9-.5 0-1 .2-1.3.6l-.3-.5c.4-.5 1.1-.7 1.7-.7.9 0 1.7.4 1.7 1.5v3h-.7v-.5zm0-1.3c-.3-.4-.7-.6-1.2-.5-.5-.1-1 .3-1.1.8-.1.5.3 1 .8 1.1h.2c.5 0 .9-.2 1.2-.5v-.9zm4.9-1.1c0-.8-.4-1-1-1-.5 0-1 .3-1.3.7v3.2h-.6V197h.7v.6c.4-.4 1-.7 1.5-.7.7-.1 1.3.4 1.4 1.1v3.4h-.7v-2.9zm2.2 2v-2.8h-.7v-.7h.7v-1.2h.7v1.2h.9v.6h-.9v2.7c0 .3.1.6.4.6.2 0 .3-.1.5-.2l.2.5c-.2.2-.5.3-.8.3-.5 0-.9-.3-1-.8v-.2zm2.3-1.3c.1-1.2 1.1-2.1 2.3-2s2.1 1.1 2 2.3c-.1 1.1-1 2-2.2 2-1.2 0-2.1-.9-2.2-2.1.1-.1.1-.1.1-.2zm3.6 0c-.1-.8-.9-1.3-1.7-1.2s-1.3.9-1.2 1.7c.1.7.7 1.2 1.5 1.2s1.5-.7 1.4-1.6v-.1zm4.7-.7c0-.8-.4-1-1-1-.5 0-1 .3-1.3.7v3.2h-.7V197h.7v.6c.4-.4 1-.7 1.5-.7.7-.1 1.3.4 1.4 1.1v3.4h-.7v-2.9zm3.9-1.6c1.2 0 2.1 1 2.1 2.1v.4h-3.5c0 .8.7 1.5 1.6 1.5.5 0 1-.2 1.3-.5l.3.4c-.5.4-1.1.7-1.7.7-1.3 0-2.3-1.1-2.2-2.4 0-1.2.9-2.1 2.1-2.2zm-1.4 2h2.9c0-.8-.6-1.4-1.4-1.4h-.1c-.8 0-1.4.6-1.4 1.4zm6.7 1.9c2.2-1.7 3.3-2.7 3.3-3.7 0-.6-.5-1.1-1.1-1.1h-.1c-.6 0-1.2.3-1.6.8l-.5-.5c.5-.6 1.3-1 2.1-.9 1-.1 1.9.6 2 1.6v.1c0 1.2-1.2 2.3-2.9 3.7h2.9v.7h-4.1v-.7zm6.7-2.5c-.7-.1-1.3-.7-1.3-1.4 0-1.1 1.1-1.6 2.1-1.6s2.1.5 2.1 1.6c-.1.7-.6 1.3-1.3 1.4.8.2 1.4.8 1.4 1.6 0 1-1 1.6-2.2 1.6-1.2 0-2.2-.6-2.2-1.6.1-.8.7-1.5 1.4-1.6zm.7.3c-.4 0-1.4.4-1.4 1.2 0 .6.7 1 1.4 1s1.4-.4 1.4-1c0-.8-1-1.1-1.4-1.2zm0-2.7c-.7 0-1.3.4-1.3 1 0 .7.9 1 1.3 1 .4-.1 1.3-.3 1.3-1 .1-.6-.5-1-1.3-1zm5.4-.6c1.6 0 2.3 1.6 2.3 3.1s-.7 3.1-2.3 3.1c-1.6 0-2.3-1.6-2.3-3.1s.7-3.1 2.3-3.1zm0 .6c-1.1 0-1.5 1.2-1.5 2.4s.4 2.4 1.5 2.4 1.5-1.2 1.5-2.4-.3-2.4-1.5-2.4zm3.2 2.5c-.1-1.7 1.2-3 2.9-3.1h.2c.9 0 1.8.4 2.3 1.2l-.6.4c-.4-.5-1-.9-1.7-.9-1.3.1-2.4 1.2-2.3 2.6.1 1.2 1.1 2.2 2.3 2.3.7 0 1.3-.3 1.7-.9l.6.4c-.5.8-1.4 1.2-2.3 1.2-1.7 0-3-1.3-3.1-2.9v-.3z" class="st15"/><path d="M256.7 206.2h2.4c1 0 1.8.7 1.9 1.7s-.7 1.8-1.7 1.9h-1.8v2.4h-.7v-6zm2.4.6h-1.6v2.3h1.6c.6 0 1.2-.5 1.2-1.1s-.5-1.2-1.1-1.2h-.1zm5.4 4.9c-.4.4-.9.6-1.4.6-.8 0-1.5-.6-1.5-1.4v-.1c0-.8.6-1.4 1.4-1.4h.1c.5 0 1.1.2 1.4.6v-.8c0-.6-.5-.9-1.1-.9-.5 0-1 .2-1.3.6l-.3-.5c.4-.5 1.1-.7 1.7-.7.9 0 1.7.4 1.7 1.5v3h-.7v-.5zm0-1.3c-.3-.4-.7-.6-1.2-.5-.5-.1-1 .3-1.1.8-.1.5.3 1 .8 1.1h.2c.5 0 .9-.2 1.2-.5v-.9zm5-1.1c0-.8-.4-1-1-1-.5 0-1 .3-1.3.7v3.2h-.7v-4.3h.7v.6c.4-.4 1-.7 1.5-.7.7-.1 1.3.4 1.4 1.1v3.4h-.7v-3zm2.1 2v-2.8h-.7v-.6h.7v-1.2h.7v1.2h.9v.6h-.9v2.7c0 .3.1.6.4.6.2 0 .3-.1.5-.2l.2.5c-.2.2-.5.3-.8.3-.5 0-.9-.3-1-.8v-.3zm2.3-1.3c.1-1.2 1.1-2.1 2.3-2 1.2.1 2.1 1.1 2 2.3-.1 1.1-1 2-2.2 2-1.2 0-2.1-.9-2.2-2.1.1-.1.1-.1.1-.2zm3.6 0c-.1-.8-.9-1.3-1.7-1.2s-1.3.9-1.2 1.7c.1.7.7 1.2 1.5 1.2s1.5-.7 1.4-1.6v-.1zm4.7-.7c0-.8-.4-1-1-1-.5 0-1 .3-1.3.7v3.2h-.7v-4.3h.7v.6c.4-.4 1-.7 1.5-.7.7-.1 1.3.4 1.4 1.1v3.4h-.7v-3zm4-1.6c1.2 0 2.1 1 2.1 2.1v.4h-3.5c0 .8.7 1.5 1.6 1.5.5 0 1-.2 1.3-.5l.3.4c-.5.4-1.1.7-1.7.7-1.3 0-2.3-1.1-2.2-2.4 0-1.2.9-2.1 2.1-2.2zm-1.5 2h2.9c0-.8-.6-1.4-1.4-1.4h-.1c-.7 0-1.4.6-1.4 1.4zm7 1.1c.4.5 1 .8 1.7.8.9 0 1.4-.4 1.4-1.1 0-.7-.6-1.1-1.5-1.1h-.6v-.7h.6c.8 0 1.4-.3 1.4-1s-.6-1-1.3-1c-.6 0-1.2.3-1.6.7l-.4-.5c.5-.6 1.3-.9 2.1-.9 1.2 0 2 .6 2 1.6 0 .7-.6 1.3-1.3 1.4.8.1 1.4.7 1.4 1.5 0 1-.8 1.7-2.1 1.7-.8 0-1.6-.3-2.1-1l.3-.4zm7.8-4h-3.2v-.7h4.1v.5l-2.5 5.5h-.8l2.4-5.3zm1.6 4.8c2.2-1.7 3.3-2.7 3.3-3.7 0-.6-.5-1.1-1.1-1.1h-.1c-.6 0-1.2.3-1.6.8l-.5-.5c.5-.6 1.3-1 2.1-.9 1-.1 1.9.6 2 1.6v.1c0 1.2-1.2 2.3-2.9 3.7h2.9v.7h-4.1v-.7zm5.3-2.4c-.1-1.7 1.2-3 2.9-3.1h.2c.9 0 1.8.4 2.3 1.2l-.6.4c-.4-.5-1-.9-1.7-.9-1.3.1-2.4 1.2-2.3 2.6.1 1.2 1.1 2.2 2.3 2.3.7 0 1.3-.3 1.7-.9l.6.4c-.5.8-1.4 1.2-2.3 1.2-1.7 0-3-1.3-3.1-2.9v-.3z" class="st16"/><path d="M0 0h28.8v28.8H0z" class="st17"/><path d="M1.8 1.8H27V27H1.8z" class="st18"/><path d="M10.6 15.7h3l-1.5-5.8-1.5 5.8zm4.6 6.3l-1.1-3.8h-4L8.9 22H6.2l3.9-13.3V7.3h3.7L18.2 22h-3zm4.4-11.2h3V22h-3z" class="st17"/><ellipse cx="21.1" cy="8.3" class="st17" rx="1.5" ry="1.5"/><path d="M81.1 214.5h10v10h-10z" class="st6"/><path d="M271.6 219.5h10v10h-10z" class="st19"/><path d="M277.1 229.5l4.5-4.5v4.5z" class="st20"/><circle cx="280.2" cy="228.1" r=".5" class="st6"/><path d="M286.5 219.5h10v10h-10z" class="st21"/><path d="M291.9 229.5l4.6-4.5v4.5z" class="st20"/><circle cx="295.1" cy="228.1" r=".5" class="st6"/><path d="M444.4 186.6c-.1-2.2 1.6-4.1 3.8-4.1h.2c1.2 0 2.4.6 3.1 1.6l-.8.5c-.5-.7-1.3-1.2-2.2-1.2-1.8.1-3.2 1.7-3 3.5.1 1.6 1.4 2.9 3 3 .9 0 1.7-.4 2.2-1.2l.9.5c-.7 1-1.9 1.6-3.1 1.6-2.2 0-4-1.7-4.1-3.9v-.3zm15.3-2.7l-2.7 6.7h-.4l-2.7-6.7v6.7h-1v-8h1.4l2.5 6.1 2.5-6.1h1.4v8h-1v-6.7zm5.2 3.3l-3.2-4.6h1.2l2.5 3.7 2.5-3.7h1.2l-3.1 4.6v3.4h-1l-.1-3.4zm7-.2l-.8.9v2.7h-1v-8h1v4.1l3.5-4.1h1.2l-3.3 3.8 3.6 4.2h-1.2l-3-3.6zm8.1-.4c-.1-2.2 1.6-4.1 3.8-4.1h.2c1.2 0 2.4.6 3.1 1.6l-.8.5c-.5-.7-1.3-1.2-2.2-1.2-1.8.1-3.2 1.7-3 3.5.1 1.6 1.4 2.9 3 3 .9 0 1.7-.4 2.2-1.2l.9.5c-.7 1-1.9 1.6-3.1 1.6-2.2 0-4-1.7-4.1-3.9v-.3zm8.1 1.1c.1-1.6 1.5-2.8 3-2.7s2.8 1.5 2.7 3c-.1 1.5-1.3 2.7-2.9 2.7-1.6 0-2.9-1.2-2.9-2.8.1-.1.1-.2.1-.2zm4.8 0c-.2-1.1-1.2-1.8-2.2-1.6-1.1.2-1.8 1.2-1.6 2.2.1 1 1 1.7 1.9 1.7 1.1 0 2-1 1.9-2.1v-.2zm2.4-5.1h.9v8h-.9v-8zm2.4 5.1c.1-1.6 1.5-2.8 3-2.7s2.8 1.5 2.7 3c-.1 1.5-1.3 2.7-2.9 2.7-1.6 0-2.9-1.2-2.9-2.8.1-.1.1-.2.1-.2zm4.8 0c-.2-1.1-1.2-1.8-2.2-1.6s-1.8 1.2-1.6 2.2c.1 1 1 1.7 1.9 1.7 1.1 0 2-1 1.9-2.1v-.2zm6.3 2.1c-.5.6-1.3.9-2.1 1-.9.1-1.7-.5-1.8-1.4v-4.6h.9v3.8c0 1 .5 1.3 1.3 1.3.7 0 1.3-.3 1.7-.9v-4.3h.9v5.8h-.9v-.7zm2.7-5h.9v.9c.4-.6 1.2-1 1.9-1.1v.9h-.4c-.6.1-1.2.4-1.6.9v4.1h-.9l.1-5.7zm3.9 4.4c.5.5 1.2.8 1.9.8.9 0 1.4-.4 1.4-1s-.7-.8-1.5-1c-1-.2-2.1-.5-2.1-1.7 0-.9.8-1.7 2.2-1.7.8 0 1.6.3 2.1.8l-.4.6c-.4-.5-1.1-.7-1.7-.7-.8 0-1.3.4-1.3.9 0 .6.7.7 1.4.9 1 .2 2.2.5 2.2 1.8 0 1-.8 1.8-2.3 1.8-.9 0-1.7-.3-2.3-.9l.4-.6zm-63.8 10.9c0-1.6.5-3.1 1.4-4.4l.5.3c-1.4 2.5-1.4 5.6 0 8.1l-.5.4c-.9-1.2-1.4-2.8-1.4-4.4zm2.8-2.4h.7v.8c.4-.5 1-.9 1.6-.9v.8h-.3c-.5 0-1 .3-1.3.8v3.4h-.7v-4.9zm3 2.5c.1-1.3 1.2-2.3 2.5-2.2s2.3 1.2 2.2 2.5c-.1 1.3-1.1 2.2-2.4 2.2-1.3 0-2.4-1-2.4-2.3.1-.1.1-.2.1-.2zm4 0c-.1-.9-1-1.5-1.9-1.4-.9.1-1.5 1-1.4 1.9.1.8.8 1.4 1.6 1.4.9 0 1.6-.8 1.6-1.7l.1-.2zm5.3 1.7c-.4.5-1.1.8-1.7.8-.7.1-1.4-.4-1.5-1.1v-3.8h.7v3.2c0 .9.4 1.1 1.1 1.1.6 0 1.1-.3 1.4-.7v-3.5h.8v4.8h-.8v-.8zm5.5-2.5c0-.9-.4-1.1-1.1-1.1-.6 0-1.1.3-1.4.8v3.5h-.7v-4.8h.7v.7c.4-.5 1.1-.8 1.7-.8.8-.1 1.4.4 1.5 1.2v3.8h-.8l.1-3.3zm5.8 2.5c-.4.5-1 .8-1.6.8-1.3 0-2.1-1-2.1-2.5s.9-2.5 2.1-2.5c.6 0 1.3.3 1.6.9V196h.7v6.7h-.7v-.8zm0-2.8c-.3-.5-.9-.8-1.4-.8-1 0-1.5.8-1.5 1.9s.6 1.9 1.5 1.9c.6 0 1.1-.3 1.4-.8v-2.2zm4.1-1.4h.8l1.6 4 1.6-4h.8l-2 4.8h-.8l-2-4.8zm8.6 4.3c-.4.4-1 .7-1.6.7-.9 0-1.6-.6-1.7-1.5v-.1c0-.9.7-1.6 1.6-1.6h.1c.6 0 1.2.2 1.6.7v-.9c0-.6-.5-1-1.2-1-.6 0-1.1.2-1.5.7l-.4-.5c.5-.5 1.2-.8 1.9-.8 1 0 1.9.5 1.9 1.6v3.3h-.8l.1-.6zm0-1.4c-.3-.4-.8-.6-1.3-.6-.6-.1-1.1.3-1.2.9s.3 1.1.9 1.2h.3c.5 0 1-.2 1.3-.6v-.9zm2.3-4.7h.7v6.7h-.7v-6.7zm5.5 6c-.4.5-1.1.8-1.7.8-.7.1-1.4-.4-1.5-1.1v-3.8h.7v3.2c0 .9.4 1.1 1.1 1.1.6 0 1.1-.3 1.4-.7v-3.5h.8v4.8h-.8v-.8zm4.3-4.3c1.3 0 2.3 1.1 2.3 2.4v.4h-3.9c0 .9.8 1.7 1.7 1.7.6 0 1.1-.2 1.5-.6l.4.5c-.5.5-1.2.8-1.9.7-1.4 0-2.5-1.2-2.5-2.6.1-1.3 1.1-2.4 2.4-2.5zm-1.6 2.3h3.2c0-.9-.7-1.6-1.5-1.6h-.1c-.9 0-1.6.7-1.6 1.6zm5.1 1.5c.4.4 1 .7 1.6.7.7 0 1.1-.3 1.1-.8s-.6-.7-1.2-.9c-.8-.2-1.7-.4-1.7-1.4 0-.7.6-1.4 1.8-1.4.7 0 1.3.2 1.8.7l-.3.5c-.4-.4-.9-.6-1.4-.6-.7 0-1.1.3-1.1.7 0 .5.5.6 1.2.8.8.2 1.8.4 1.8 1.5 0 .8-.6 1.5-1.9 1.5-.7 0-1.4-.2-1.9-.8l.2-.5zm4.1-5.3l.5-.3c1.9 2.6 1.9 6.2 0 8.8l-.5-.4c1.4-2.5 1.4-5.6 0-8.1z" class="st6"/><path d="M469.5 219.5h10v10h-10z" class="st19"/><path d="M484.4 219.5h10v10h-10z" class="st21"/><path d="M645.7 182.4c1.2 0 2.4.5 3.1 1.5l-.8.5c-.6-.7-1.4-1.1-2.3-1.1-1.8.1-3.2 1.6-3.1 3.4.1 1.7 1.4 3 3.1 3.1.8 0 1.6-.3 2.1-.9v-1.6h-2.7v-.9h3.7v2.9c-.8.9-1.9 1.4-3.1 1.4-2.3 0-4.1-1.9-4.1-4.2 0-2.2 1.8-4 4.1-4.1zm4.7.2h.9v8h-.9v-8zm2.4 5.1c.1-1.6 1.5-2.8 3-2.7s2.8 1.5 2.7 3c-.1 1.5-1.3 2.7-2.9 2.7-1.6 0-2.9-1.2-2.9-2.8.1-.1.1-.2.1-.2zm4.8 0c-.2-1.1-1.2-1.8-2.2-1.6s-1.8 1.2-1.6 2.2c.1 1 1 1.7 1.9 1.7 1.1 0 2-1 1.9-2.1v-.2zm2.4-5.1h.9v3.1c.4-.6 1.2-1 2-1 1.5 0 2.6 1.2 2.6 3 0 1.9-1.1 3-2.6 3-.8 0-1.5-.4-2-1v.9h-.9v-8zm2.6 7.3c1.2 0 1.9-.9 1.9-2.2s-.7-2.2-1.9-2.2c-.7 0-1.3.4-1.7.9v2.6c.4.6 1 .9 1.7.9zm7.9 0c-.5.5-1.2.8-1.9.8-1.1.1-2-.8-2-1.8v-.1c0-1 .8-1.9 1.9-1.9h.1c.7 0 1.4.3 1.9.8v-1c0-.8-.6-1.2-1.5-1.2-.7 0-1.3.3-1.8.8l-.4-.6c.6-.6 1.4-1 2.3-1 1.2 0 2.2.6 2.2 2v4h-.9l.1-.8zm0-1.6c-.4-.5-1-.7-1.6-.7-.7-.1-1.3.4-1.4 1.1s.4 1.3 1.1 1.4h.3c.6 0 1.2-.2 1.6-.7v-1.1zm2.7-5.7h.9v8h-.9v-8zm5.5 4c-.1-2.2 1.6-4.1 3.8-4.1h.2c1.2 0 2.4.6 3.1 1.6l-.8.5c-.5-.7-1.3-1.2-2.2-1.2-1.8.1-3.2 1.7-3 3.5.1 1.6 1.4 2.9 3 3 .9 0 1.7-.4 2.2-1.2l.9.5c-.7 1-1.9 1.6-3.1 1.6-2.2 0-4-1.7-4.1-3.9v-.3zm8.1 1.1c.1-1.6 1.5-2.8 3-2.7s2.8 1.5 2.7 3c-.1 1.5-1.3 2.7-2.9 2.7-1.6 0-2.9-1.2-2.9-2.8.1-.1.1-.2.1-.2zm4.8 0c-.2-1.1-1.2-1.8-2.2-1.6s-1.8 1.2-1.6 2.2c.1 1 1 1.7 1.9 1.7 1.1 0 2-1 1.9-2.1v-.2zm2.4-5.1h.9v8h-.9v-8zm2.4 5.1c.1-1.6 1.5-2.8 3-2.7s2.8 1.5 2.7 3c-.1 1.5-1.3 2.7-2.9 2.7-1.6 0-2.9-1.2-2.9-2.8.1-.1.1-.2.1-.2zm4.7 0c-.2-1.1-1.2-1.8-2.2-1.6s-1.8 1.2-1.6 2.2c.1 1 1 1.7 1.9 1.7 1.1 0 2-1 1.9-2.1.1-.1.1-.2 0-.2zm6.4 2.1c-.5.6-1.3.9-2.1 1-.9.1-1.7-.5-1.8-1.4v-4.6h.9v3.8c0 1 .5 1.3 1.3 1.3.7 0 1.3-.3 1.7-.9v-4.3h.9v5.8h-.9v-.7zm2.7-5h.9v.9c.4-.6 1.2-1 1.9-1.1v.9h-.4c-.6.1-1.2.4-1.6.9v4.1h-.9l.1-5.7zm3.9 4.4c.5.5 1.2.8 1.9.8.9 0 1.4-.4 1.4-1s-.7-.8-1.5-1c-1-.2-2.1-.5-2.1-1.7 0-.9.8-1.7 2.2-1.7.8 0 1.6.3 2.1.8l-.4.6c-.4-.5-1.1-.7-1.7-.7-.8 0-1.3.4-1.3.9 0 .6.7.7 1.4.9 1 .2 2.2.5 2.2 1.8 0 1-.8 1.8-2.3 1.8-.9 0-1.7-.3-2.3-.9l.4-.6z" class="st6"/><path d="M667.5 219.5h10v10h-10z" class="st19"/><path d="M672.9 229.5l4.6-4.5v4.5z" class="st20"/><path d="M682.3 219.5h10v10h-10z" class="st21"/><path d="M687.8 229.5l4.5-4.5v4.5z" class="st20"/></svg>