<svg xmlns="http://www.w3.org/2000/svg" id="Layer_1" viewBox="0 0 863.6 374.3" width="863.6" height="374.3"><style>.st0{fill:#00aeef}.st0,.st1,.st2,.st3,.st4,.st5,.st6,.st7,.st8,.st9{stroke:#4d4d4d;stroke-width:5;stroke-miterlimit:10}.st1{fill:#ec008c}.st2{fill:#fff200}.st3{fill:#231f20}.st4{fill:#e6e6e6}.st5{fill:#b3b3b3}.st6{fill:#666}.st7{fill:red}.st8{fill:#0f0}.st9{fill:#00f}.st10{enable-background:new}.st11{fill:gray}</style><path d="M.5 125.5h123v123H.5z" class="st0"/><path d="M123.8 125.5h123v123h-123z" class="st1"/><path d="M247 125.5h123v123H247z" class="st2"/><path d="M370.3 125.5h123v123h-123z" class="st3"/><path d="M.5 2.5h123v123H.5z" class="st4"/><path d="M123.8 2.5h123v123h-123z" class="st5"/><path d="M247 2.5h123v123H247z" class="st6"/><path d="M370.3 2.5h123v123h-123z" class="st3"/><path d="M123.5 248.3h123v123h-123z" class="st7"/><path d="M246.8 248.5h123v123h-123z" class="st8"/><path d="M370 248.8h123v123H370z" class="st9"/><g class="st10"><path d="M561.3 31.9c9.9 0 16.2 4.8 19.9 10.5l-8.5 4.6c-2.2-3.4-6.3-6-11.4-6-8.7 0-15 6.7-15 15.8s6.3 15.8 15 15.8c4.4 0 8.3-1.8 10.4-3.7V63h-12.8v-8.8h22.9v18.4c-4.9 5.5-11.7 9.1-20.4 9.1-14 0-25.6-9.8-25.6-24.9-.1-15.2 11.5-24.9 25.5-24.9zM589.7 46h9.1v4.8c2.4-3.1 6.8-5.5 11.1-5.5v8.9c-.6-.1-1.5-.2-2.5-.2-3 0-7.1 1.7-8.6 3.9v23h-9.1V46zm41.7-.9c10.4 0 17.4 7.8 17.4 19.2v2h-25.9c.6 4.4 4.1 8.1 10 8.1 3.2 0 7.1-1.3 9.3-3.5l4 5.9c-3.5 3.2-8.9 4.8-14.3 4.8-10.6 0-18.6-7.1-18.6-18.3.1-10.1 7.5-18.2 18.1-18.2zm-8.6 15h17.1c-.2-3.3-2.5-7.7-8.6-7.7-5.6 0-8.1 4.2-8.5 7.7zm35.6 26.6c2.4 0 4-.6 4.8-2.5l1.3-3L650.4 46h9.8l9.1 24.2 9.1-24.2h9.9L672 86.5c-2.6 6.6-7.2 8.3-13.2 8.4-1.1 0-3.4-.2-4.5-.5l1.4-8.2c.6.3 1.9.5 2.7.5zm34.9-16.9c2.5 2.4 7.7 4.8 12 4.8 4 0 5.8-1.4 5.8-3.5 0-2.4-3-3.3-7-4.1-6-1.2-13.7-2.6-13.7-10.9 0-5.8 5.1-10.9 14.3-10.9 5.9 0 10.6 2 14 4.8l-3.6 6.3c-2.1-2.2-6-4-10.3-4-3.3 0-5.5 1.2-5.5 3.2 0 2.2 2.7 3 6.6 3.7 6 1.2 14 2.7 14 11.4 0 6.4-5.4 11.2-15 11.2-6 0-11.9-2-15.6-5.4l4-6.6zm49.6-24.7c7.1 0 11.4 3.1 13.8 6.3l-6 5.5c-1.7-2.4-4.2-3.7-7.3-3.7-5.5 0-9.4 4-9.4 10.1 0 6 3.9 10.2 9.4 10.2 3.2 0 5.7-1.4 7.3-3.7l6 5.5c-2.3 3.2-6.6 6.3-13.8 6.3-10.7 0-18.4-7.6-18.4-18.3 0-10.6 7.7-18.2 18.4-18.2zm40.6 32c-2.4 2.8-6.5 4.5-11 4.5-5.5 0-12.1-3.7-12.1-11.5 0-8.1 6.6-11.1 12.1-11.1 4.6 0 8.7 1.4 11 4.2v-4.8c0-3.5-3-5.8-7.6-5.8-3.7 0-7.2 1.4-10.2 4.1l-3.5-6.1c4.2-3.7 9.7-5.5 15.2-5.5 7.9 0 15.2 3.2 15.2 13.2v22.5h-9.1v-3.7zm0-9c-1.5-2-4.4-3-7.3-3-3.6 0-6.6 1.9-6.6 5.3 0 3.2 3 5.1 6.6 5.1 3 0 5.8-1 7.3-3v-4.4zm18.2-35.4h9.1v48h-9.1v-48zm34 12.4c10.4 0 17.4 7.8 17.4 19.2v2h-25.8c.6 4.4 4.1 8.1 10 8.1 3.2 0 7.1-1.3 9.3-3.5l4 5.9c-3.5 3.2-8.9 4.8-14.3 4.8-10.6 0-18.6-7.1-18.6-18.3 0-10.1 7.4-18.2 18-18.2zm-8.6 15h17.2c-.2-3.3-2.5-7.7-8.6-7.7-5.7 0-8.1 4.2-8.6 7.7z" class="st11"/></g><g class="st10"><path d="M535.7 179.8c0-14.8 11.2-24.8 25.2-24.8 10.9 0 17.1 5.8 20.4 11.7l-8.8 4.3c-2-3.9-6.3-7-11.7-7-8.4 0-14.7 6.7-14.7 15.8s6.3 15.8 14.7 15.8c5.3 0 9.6-3 11.7-7l8.8 4.2c-3.5 6-9.5 11.8-20.4 11.8-14 0-25.2-10.1-25.2-24.8zm93.6-10.6l-13.5 34.6h-4.5l-13.5-34.6v34.6h-10.3v-48h14.3l11.7 30 11.7-30h14.4v48h-10.3v-34.6zm33.2 14.9L644 155.7h11.7l12 19.3 11.8-19.3h11.7l-18.4 28.4v19.7h-10.2v-19.7h-.1zm47 .4l-3.7 4.5v14.8h-10.2v-48h10.2v21.5l17-21.5h12.5l-19 22.5 20.4 25.5h-12.6l-14.6-19.3z" class="st11"/></g><g class="st10"><path d="M555.8 309.8h-7.5V327h-10.2v-48h22.5c10 0 16.1 6.6 16.1 15.5 0 8.5-5.3 13-10.5 14.3l10.7 18.2h-11.7l-9.4-17.2zm3.2-22h-10.7V301H559c4.1 0 7.2-2.6 7.2-6.6s-3.1-6.6-7.2-6.6zm48.6-9.6c9.9 0 16.2 4.8 19.9 10.5l-8.5 4.6c-2.2-3.4-6.3-6-11.4-6-8.7 0-15 6.7-15 15.8 0 9.1 6.3 15.8 15 15.8 4.4 0 8.3-1.8 10.4-3.7v-5.8h-12.8v-8.8h22.9V319c-4.9 5.5-11.7 9.1-20.4 9.1-14 0-25.6-9.8-25.6-24.9-.1-15.4 11.5-25 25.5-25zm28.6.8h25.3c9.1 0 13.8 5.8 13.8 12.2 0 6-3.7 10.1-8.3 11 5.1.8 9.2 5.8 9.2 11.8 0 7.2-4.8 13-14 13h-26.1v-48h.1zm23 19.3c3.5 0 5.6-2.2 5.6-5.3 0-3-2.2-5.3-5.6-5.3h-12.8v10.6h12.8zm.4 20c3.9 0 6.2-2.2 6.2-5.7 0-3-2.2-5.6-6.2-5.6h-13.2v11.3h13.2z" class="st11"/></g></svg>