<svg width="8in" height="8in" viewBox="0 0 576 576"><path fill="#ee4494" d="M0 0h576v576H0z"/><path fill="#180a0d" d="M36 36h504v504H36z"/><path fill="#ee4494" d="M207.9 428.1c0 2.5-1.1 3.7-3.3 3.7h-43c-2.2 0-3.3-1.2-3.3-3.7V165.9q0-3.3 3.3-3.3h43q3.3 0 3.3 3.3zm129.9 7.8a132.9 132.9 0 0 1-41.4-6.3 91 91 0 0 1-33.4-19.3 88.4 88.4 0 0 1-22.1-32.4c-5.3-13-8-28.1-8-45.3a110.7 110.7 0 0 1 8-41.8 96 96 0 0 1 23.1-34c10.1-9.6 22.3-17.1 36.7-22.7s30.5-8.4 48.5-8.4l8.4.2c2.6.1 5.7.5 9.2 1v-84c0-1.9.8-2.9 2.5-2.9H414c1.4 0 2 .8 2 2.5V390c0 4.1.1 8.5.4 13.3s.7 9.1 1.2 12.9a3.5 3.5 0 0 1-2.5 3.7 194.5 194.5 0 0 1-77.3 16zM366.9 270c-4.9-1.9-11.3-2.9-19.3-2.9a71.7 71.7 0 0 0-25.2 4.3 61.4 61.4 0 0 0-20.3 12.3 56.6 56.6 0 0 0-13.5 19.9 68.5 68.5 0 0 0-4.9 26.6c0 11.2 1.6 20.8 4.7 28.7a55.8 55.8 0 0 0 12.7 19.7 48.1 48.1 0 0 0 18.8 11.3 76 76 0 0 0 23.1 3.5 121 121 0 0 0 12.1-.6 48.4 48.4 0 0 0 11.7-2.7V270z"/></svg>