<svg width="8in" height="8in" viewBox="0 0 576 576"><path fill="#34c4ee" d="M0 0h576v576H0z"/><path fill="#161427" d="M33.4 40.5h509.2v495H33.4z"/><path fill="#34c4ee" d="M395.4 253.4c-20.9 0-28 10.6-28 19.3s4.8 16.1 32.7 30.6c41.4 20.1 54.4 39.3 54.4 67.6 0 42.2-32.2 64.9-75.8 64.9-23 0-42.8-4.8-54.1-11.4-1.8-.8-2.1-2.1-2.1-4.2v-38.8c0-2.6 1.3-3.4 3.2-2.1a98.1 98.1 0 0 0 53.1 15.6c20.9 0 29.6-8.7 29.6-20.6 0-9.5-6.1-18-32.7-31.7-37.5-18-53.1-36.2-53.1-66.5 0-34.1 26.7-62.3 72.9-62.3 22.7 0 38.5 3.4 47.3 7.4a5.8 5.8 0 0 1 2.6 5.3v36.2c0 2.1-1.3 3.4-4 2.6-11.6-7.4-28.8-11.9-46-11.9zm-227 31.4c6.1.5 10.8.5 21.4.5 30.9 0 59.9-10.8 59.9-52.8 0-33.5-20.9-50.4-56-50.4-10.6 0-20.6.5-25.3.8v101.9zm-47-140.2c0-1.8 3.7-3.2 5.8-3.2 16.9-.8 42-1.3 68.1-1.3 73.1 0 101.6 40.1 101.6 91.3 0 67.1-48.6 95.8-108.2 95.8-10 0-13.5-.5-20.6-.5v101.4c0 2.1-.8 3.2-3.2 3.2h-40.4c-2.1 0-3.2-.8-3.2-3.2V144.6z"/></svg>