<?xml version="1.0" encoding="utf-8"?>
<!-- Generator: Adobe Illustrator 24.0.2, SVG Export Plug-In . SVG Version: 6.00 Build 0)  -->
<svg version="1.1" id="Layer_1" xmlns="http://www.w3.org/2000/svg" xmlns:xlink="http://www.w3.org/1999/xlink" x="0px" y="0px"
	 viewBox="0 0 376 250.8" style="enable-background:new 0 0 376 250.8;" xml:space="preserve">
<style type="text/css">
	.st0{fill:#231F20;}
	.st1{fill:#E6E7E8;}
	.st2{fill:#FFFFFF;}
	.st3{fill:#00683F;}
</style>
<path class="st0" d="M371.4,188.1H187.9V4.5h183.5V188.1z"/>
<path class="st0" d="M376,192.1H183.6V0H376V192.1z M192.4,183.2h174.7V8.9H192.4V183.2L192.4,183.2z"/>
<path class="st1" d="M192.4,192.1H0V0h192.4V192.1z M8.9,183.2h174.7V8.9H8.9V183.2z"/>
<path class="st2" d="M4.4,4.4h183.5V188H4.4V4.4z"/>
<path class="st3" d="M77.8,206.9h13c3.7-0.4,7,2.2,7.3,5.9v0.6c0.2,2.9-1.8,5.5-4.7,6.1c3,0.7,5.1,3.4,5,6.4
	c0.1,3.8-2.9,6.9-6.6,7.1h-14V206.9z M89.6,217.7c1.9,0,3.4-1.5,3.4-3.4s-1.5-3.4-3.4-3.4h-7.3v6.8H89.6z M89.8,228.9
	c1.9,0.4,3.8-0.8,4.1-2.8c0.1-0.3,0.1-0.6,0.1-0.9c0-1.9-1.6-3.6-3.5-3.6h-8.1v7.2L89.8,228.9L89.8,228.9z M101.6,208.4
	c0-1.4,1.1-2.5,2.5-2.5c1.4,0,2.6,1.1,2.6,2.5c0,1.4-1.1,2.6-2.6,2.6C102.8,210.9,101.6,209.8,101.6,208.4z M102.1,214.1h4.1v18.8
	h-4.1V214.1z M111.6,228.5v-10.9h-3.2v-3.6h3.2v-5.2h4.1v5.1h3.8v3.6h-3.8v9.8c0,1.3,0.6,2.2,1.8,2.2c0.7,0,1.4-0.2,1.8-0.7l1,3.1
	c-1.1,0.9-2.5,1.3-3.9,1.2c-2.4,0.2-4.6-1.5-4.8-3.8L111.6,228.5L111.6,228.5z M145.5,220.6c0-2-0.9-3.2-3.1-3.2
	c-1.7,0.1-3.4,1-4.4,2.5V233H134v-12.5c0-2-0.9-3.2-3.2-3.2c-1.7,0.1-3.3,1-4.3,2.5v13h-4V214h4v2.5c1.5-1.9,3.8-3,6.2-3.1
	c2.3-0.2,4.5,1.3,5.1,3.4c1.5-2.2,3.9-3.4,6.4-3.4c2.8-0.3,5.2,1.7,5.5,4.4v15h-4.1L145.5,220.6L145.5,220.6z M165.6,230.9
	c-1.6,1.6-3.8,2.5-6.1,2.5c-3.5,0.1-6.4-2.5-6.5-6.1v-0.1c0-3.4,2.7-6.1,6.1-6.2h0.4c2.2-0.1,4.5,0.8,6.1,2.4v-2.8
	c0-2.2-1.8-3.5-4.4-3.5c-2.1,0-4,0.9-5.5,2.4l-1.7-2.8c2.1-2,5-3.2,7.9-3.1c4.2,0,7.8,1.7,7.8,6.8v12.5h-4.1L165.6,230.9
	L165.6,230.9z M165.6,225.8c-1.1-1.4-2.8-2-4.5-2c-1.9-0.2-3.6,1.1-3.8,2.9c-0.2,1.9,1,3.6,2.9,3.8h1c1.7,0.1,3.4-0.6,4.5-1.9
	L165.6,225.8L165.6,225.8z M174.3,240.1v-26h4.2v2.6c1.4-1.9,3.7-3.1,6.1-3.1c4.9,0,8.3,3.7,8.3,9.8c0,6.1-3.5,9.8-8.3,9.8
	c-2.3,0.1-4.6-1-6.1-2.8v9.8L174.3,240.1z M183.2,217.4c-1.9,0-3.7,1-4.8,2.5v7.4c1.1,1.6,2.9,2.5,4.8,2.5c3.1-0.1,5.5-2.7,5.3-5.8
	v-0.5c0.5-3-1.6-5.9-4.6-6.2C183.6,217.4,183.4,217.4,183.2,217.4L183.2,217.4L183.2,217.4z M227.8,213.2l-8,19.7h-1.9l-7.9-19.7
	V233h-4.6v-26h6.5l7,17.5l7.1-17.5h6.4v26h-4.6V213.2z M235.8,223.4c0-5.4,4.3-9.8,9.8-9.8s9.8,4.4,9.8,9.8s-4.3,9.8-9.8,9.8
	c-5.2,0.1-9.5-3.9-9.8-9.1V223.4z M251.1,222.8c-0.5-3-3.2-5.1-6.2-4.7c-3,0.5-5.1,3.2-4.7,6.2c0.4,2.7,2.7,4.6,5.4,4.7
	c3.2-0.1,5.6-2.7,5.5-5.9V222.8z M271.8,230.3c-1.4,1.9-3.7,3.1-6.1,3.1c-4.8,0-8.4-3.7-8.4-9.8c0-6.1,3.5-9.8,8.4-9.8
	c2.4,0,4.6,1.2,6.1,3.1v-9.8h4v26h-4V230.3L271.8,230.3z M271.8,219.8c-1.1-1.6-2.9-2.5-4.9-2.6c-3.1,0.1-5.5,2.7-5.3,5.8v0.5
	c-0.4,3.1,1.7,5.8,4.7,6.2h0.5c1.9,0,3.8-1,4.9-2.5L271.8,219.8L271.8,219.8z M288.9,213.6c5.2,0,9.4,4.2,9.4,9.3v1.9h-14.5
	c0.3,3.1,2.9,5.4,6,5.2c2,0,3.9-0.8,5.3-2.1l1.9,2.7c-2.1,1.9-4.8,2.8-7.7,2.8c-5.5,0.1-10-4.3-10-9.7
	C279.1,218.3,283.4,213.7,288.9,213.6z M283.6,221.9h10.6c0-2.8-2.2-5-5-5H289C286,216.9,283.7,219.1,283.6,221.9z"/>
</svg>
