<svg xmlns="http://www.w3.org/2000/svg" id="Layer_1" viewBox="0 0 826.2 71.7" width="826.2" height="71.7"><style>.st0{fill:#00683f}.st1{fill:#e6e7e8}.st2{fill:#e3e4e5}.st3{fill:#e0e0e1}.st4{fill:#dcddde}.st5{fill:#d9dadb}.st6{fill:#d6d7d8}.st7{fill:#d3d3d4}.st8{fill:#d0d0d1}.st9{fill:#cccdce}.st10{fill:#c9c9ca}.st11{fill:#c6c6c7}.st12{fill:#c3c3c4}.st13{fill:#c0c0c1}.st14{fill:#bcbcbd}.st15{fill:#b9b9ba}.st16{fill:#b6b6b7}.st17{fill:#b3b3b4}.st18{fill:#b0afb0}.st19{fill:#acacad}.st20{fill:#a9a9aa}.st21{fill:#a6a5a6}.st22{fill:#a3a2a3}.st23{fill:#a09fa0}.st24{fill:#9c9c9d}.st25{fill:#999899}.st26{fill:#969596}.st27{fill:#939293}.st28{fill:#908e8f}.st29{fill:#8c8b8c}.st30{fill:#898889}.st31{fill:#868586}.st32{fill:#838182}.st33{fill:#807e7f}.st34{fill:#7d7b7c}.st35{fill:#797879}.st36{fill:#767475}.st37{fill:#737172}.st38{fill:#706e6f}.st39{fill:#6d6a6b}.st40{fill:#696768}.st41{fill:#666465}.st42{fill:#636162}.st43{fill:#605d5e}.st44{fill:#5d5a5b}.st45{fill:#595758}.st46{fill:#565354}.st47{fill:#535051}.st48{fill:#504d4e}.st49{fill:#4d4a4b}.st50{fill:#494647}.st51{fill:#464344}.st52{fill:#434041}.st53{fill:#403d3e}.st54{fill:#3d393a}.st55{fill:#393637}.st56{fill:#363334}.st57{fill:#332f30}.st58{fill:#302c2d}.st59{fill:#2d292a}.st60{fill:#292627}.st61{fill:#262223}.st62{fill:#231f20}</style><path d="M4.3 3.9L1.6 6.6 0 4.9 4.6.2H7v16H4.2l.1-12.3zM784.8 14c6.2-4.7 8.6-6.8 8.6-9.1-.1-1.4-1.3-2.5-2.7-2.5h-.2c-1.7 0-3.3.7-4.3 2l-1.6-1.8c1.5-1.7 3.7-2.6 6-2.6 3.1 0 5.8 1.8 5.8 4.9s-2.7 5.6-7 8.8h7.1v2.5h-11.6l-.1-2.2zm15.5-1.9c1.1 1.2 2.7 1.9 4.3 1.9 1.6.2 3.1-1 3.3-2.6v-.2c0-1.6-1.3-2.9-2.8-2.9h-.4c-1.3 0-2.6.5-3.5 1.4l-2-.6v-9h10.6v2.5h-7.7v4.6c1-.9 2.3-1.4 3.6-1.4 2.7-.1 5 2.1 5.1 4.9v.3c0 3.3-2.5 5.4-6 5.4-2.3.2-4.5-.8-6-2.5l1.5-1.8zM819.4 0c1.7 0 3.4.6 4.6 1.8l-1.3 2.1c-.8-1-2-1.5-3.3-1.4-2.7 0-4.2 2.5-4.2 5.3v.5c1-1.4 2.6-2.2 4.3-2.2 2.7-.2 5.1 1.8 5.3 4.5v.5c0 3-2.5 5.4-5.5 5.4h-.5c-4.7 0-6.6-3.8-6.6-8.3s2.5-8.2 7.2-8.2zm-.7 8.4c-1.4 0-2.7.7-3.5 1.9 0 2 1.6 3.7 3.6 3.7 1.6.1 3.1-1.1 3.2-2.7v-.1c0-1.9-1.6-2.8-3.3-2.8zM388.2 3.9l-2.6 2.7-1.6-1.7 4.6-4.7h2.4v16h-2.8V3.9zm5.3 10.1c6.2-4.7 8.6-6.8 8.6-9.1-.1-1.4-1.3-2.5-2.7-2.5h-.2c-1.7 0-3.3.7-4.3 2l-1.6-1.8c1.5-1.7 3.7-2.6 6-2.6 3.1 0 5.8 1.8 5.8 4.9s-2.7 5.6-7 8.8h7.1v2.5h-11.6l-.1-2.2zm17.2-6c-1.9-.3-3.2-1.9-3.3-3.8 0-3 3-4.2 5.9-4.2s5.9 1.2 5.9 4.2c-.1 1.9-1.5 3.5-3.4 3.8 2 .5 3.4 2.1 3.6 4.1 0 2.9-2.9 4.4-6.1 4.4s-6.1-1.5-6.1-4.4c.1-2 1.5-3.6 3.5-4.1zm2.5 1.3c-1 .1-3.3.9-3.3 2.5s1.5 2.3 3.3 2.3 3.3-.9 3.3-2.3-2.3-2.4-3.3-2.5zm0-6.8c-1.8 0-3 .8-3 2.1s2 2 3 2.3c1-.2 3-.7 3-2.3s-1.3-2.1-3-2.1zm-71.8 48.2c2.6-.1 5 1.2 6.5 3.3l-2.3 1.3c-1-1.3-2.5-2.1-4.2-2.1-3.2 0-5.8 2.6-5.8 5.8s2.6 5.8 5.8 5.8c1.4 0 2.7-.5 3.8-1.4v-2.5h-4.8v-2.5h7.6v6c-1.7 1.9-4.1 2.9-6.6 2.9-4.6.2-8.5-3.3-8.7-7.9s3.3-8.5 7.9-8.7h.8zm9 4.7h2.5v1.7c.9-1.2 2.3-1.9 3.8-2v2.5h-.8c-1.2.1-2.3.6-3 1.5v8h-2.5V55.4zm13-.3c3.2 0 5.7 2.6 5.7 5.7V62h-9c.2 1.9 1.8 3.3 3.7 3.2 1.2 0 2.4-.5 3.3-1.3l1.2 1.7c-1.3 1.1-3 1.7-4.7 1.7-3.4.1-6.1-2.6-6.2-6 0-3.4 2.7-6.1 6-6.2zm-3.2 5.1h6.5c0-1.7-1.4-3.1-3.1-3.1h-.1c-1.8 0-3.3 1.4-3.3 3.1zm11.8 9.3c.7.1 1.4-.3 1.7-1l.6-1.3-4.8-11.7h2.7l3.4 8.7 3.4-8.7h2.7l-5.6 13.7c-.6 1.7-2.2 2.8-4 2.6-.5 0-1-.1-1.4-.2l.4-2.3c.2.1.6.2.9.2zm10.9-5.8c1.1 1 2.5 1.6 4 1.6s2.3-.6 2.3-1.4-1.2-1.4-2.6-1.7c-2-.4-4.4-1-4.4-3.6 0-1.9 1.6-3.5 4.6-3.5 1.7 0 3.3.5 4.5 1.6l-1.1 1.8c-.9-.9-2.1-1.4-3.4-1.4s-2.2.5-2.2 1.3 1.2 1.2 2.5 1.5c2 .4 4.5 1 4.5 3.7 0 2-1.7 3.6-4.8 3.6-1.8.1-3.6-.6-5-1.8l1.1-1.7zm16-8.6c1.7-.1 3.4.6 4.4 2l-1.7 1.5c-.6-.9-1.6-1.4-2.7-1.4-2.1.2-3.7 2-3.6 4.1.1 1.9 1.7 3.4 3.6 3.6 1.1 0 2.1-.5 2.7-1.4l1.7 1.5c-1.1 1.4-2.7 2.1-4.4 2-3.4 0-6.1-2.7-6.1-6.1s2.7-6.1 6.1-6.1v.3zm13.2 10.7c-1 1-2.3 1.6-3.7 1.5-2.1.1-3.9-1.6-4-3.7v-.1c0-2.1 1.6-3.8 3.7-3.8h.3c1.4-.1 2.8.5 3.7 1.5v-1.7c0-1.3-1.1-2.2-2.7-2.2-1.3 0-2.5.5-3.4 1.5l-1-1.8c1.3-1.3 3.1-1.9 4.9-1.9 2.6 0 4.8 1.1 4.8 4.2v7.8h-2.5l-.1-1.3zm0-3.2c-.7-.8-1.7-1.3-2.8-1.2-1.1-.2-2.2.6-2.4 1.8-.2 1.2.6 2.2 1.8 2.4h.6c1.1.1 2.1-.4 2.8-1.2v-1.8zm5.3-11.5h2.5v16h-2.5v-16zm10.5 4c3.2 0 5.7 2.6 5.7 5.7V62h-9c.2 1.9 1.8 3.3 3.7 3.2 1.2 0 2.4-.5 3.3-1.3l1.2 1.7c-1.3 1.1-3 1.7-4.7 1.7-3.4.1-6.1-2.6-6.2-6-.1-3.4 2.6-6.1 6-6.2zm-3.3 5.1h6.5c0-1.7-1.4-3.1-3.1-3.1h-.1c-1.8 0-3.2 1.4-3.3 3.1zm30.6-5.3l-4.9 12.2h-1.2l-4.9-12.2v12.2h-2.8v-16h4l4.4 10.7 4.3-10.7h4v16h-2.8l-.1-12.2zm4.9 6.3c0-3.3 2.7-6 6-6s6 2.7 6 6-2.7 6-6 6c-3.2.1-5.9-2.4-6-5.6v-.4zm9.4 0c-.3-1.8-2-3.1-3.8-2.8s-3.1 2-2.8 3.8c.2 1.6 1.7 2.9 3.3 2.9 1.9-.1 3.4-1.7 3.4-3.6-.1-.1-.1-.2-.1-.3zm12.8 4.2c-.9 1.2-2.3 1.9-3.7 1.9-3 0-5.2-2.3-5.2-6s2.2-6 5.2-6c1.5 0 2.8.7 3.7 1.9v-6.1h2.5v16h-2.5v-1.7zm0-6.5c-.7-1-1.8-1.5-3-1.6-1.9.1-3.4 1.7-3.3 3.5v.3c-.3 1.9 1 3.6 2.9 3.8h.4c1.2 0 2.3-.6 3-1.5v-4.5zm10.5-3.8c3.2 0 5.7 2.6 5.7 5.7V62h-9c.2 1.9 1.8 3.3 3.7 3.2 1.2 0 2.4-.5 3.3-1.3l1.2 1.7c-1.3 1.1-3 1.7-4.7 1.7-3.4.1-6.1-2.6-6.2-6-.1-3.4 2.6-6.1 6-6.2zm-3.3 5.1h6.5c0-1.7-1.4-3.1-3.1-3.1h-.1c-1.8 0-3.3 1.4-3.3 3.1z" class="st0"/><path d="M0 29h9.7v9.7H0z" class="st1"/><path d="M13.4 29h9.7v9.7h-9.7z" class="st2"/><path d="M26.7 29h9.7v9.7h-9.7z" class="st3"/><path d="M40.1 29h9.7v9.7h-9.7z" class="st4"/><path d="M53.4 29h9.7v9.7h-9.7z" class="st5"/><path d="M66.8 29h9.7v9.7h-9.7z" class="st6"/><path d="M80.2 29h9.7v9.7h-9.7z" class="st7"/><path d="M93.5 29h9.7v9.7h-9.7z" class="st8"/><path d="M106.9 29h9.7v9.7h-9.7z" class="st9"/><path d="M120.3 29h9.7v9.7h-9.7z" class="st10"/><path d="M133.6 29h9.7v9.7h-9.7z" class="st11"/><path d="M147 29h9.7v9.7H147z" class="st12"/><path d="M160.3 29h9.7v9.7h-9.7z" class="st13"/><path d="M173.7 29h9.7v9.7h-9.7z" class="st14"/><path d="M187.1 29h9.7v9.7h-9.7z" class="st15"/><path d="M200.4 29h9.7v9.7h-9.7z" class="st16"/><path d="M213.8 29h9.7v9.7h-9.7z" class="st17"/><path d="M227.1 29h9.7v9.7h-9.7z" class="st18"/><path d="M240.5 29h9.7v9.7h-9.7z" class="st19"/><path d="M253.9 29h9.7v9.7h-9.7z" class="st20"/><path d="M267.2 29h9.7v9.7h-9.7z" class="st21"/><path d="M280.6 29h9.7v9.7h-9.7z" class="st22"/><path d="M294 29h9.7v9.7H294z" class="st23"/><path d="M307.3 29h9.7v9.7h-9.7z" class="st24"/><path d="M320.7 29h9.7v9.7h-9.7z" class="st25"/><path d="M334 29h9.7v9.7H334z" class="st26"/><path d="M347.4 29h9.7v9.7h-9.7z" class="st27"/><path d="M360.8 29h9.7v9.7h-9.7z" class="st28"/><path d="M374.1 29h9.7v9.7h-9.7z" class="st29"/><path d="M387.5 29h9.7v9.7h-9.7z" class="st30"/><path d="M400.9 29h9.7v9.7h-9.7z" class="st31"/><path d="M414.2 29h9.7v9.7h-9.7z" class="st32"/><path d="M427.6 29h9.7v9.7h-9.7z" class="st33"/><path d="M440.9 29h9.7v9.7h-9.7z" class="st34"/><path d="M454.3 29h9.7v9.7h-9.7z" class="st35"/><path d="M467.7 29h9.7v9.7h-9.7z" class="st36"/><path d="M481 29h9.7v9.7H481z" class="st37"/><path d="M494.4 29h9.7v9.7h-9.7z" class="st38"/><path d="M507.7 29h9.7v9.7h-9.7z" class="st39"/><path d="M521.1 29h9.7v9.7h-9.7z" class="st40"/><path d="M534.5 29h9.7v9.7h-9.7z" class="st41"/><path d="M547.8 29h9.7v9.7h-9.7z" class="st42"/><path d="M561.2 29h9.7v9.7h-9.7z" class="st43"/><path d="M574.6 29h9.7v9.7h-9.7z" class="st44"/><path d="M587.9 29h9.7v9.7h-9.7z" class="st45"/><path d="M601.3 29h9.7v9.7h-9.7z" class="st46"/><path d="M614.6 29h9.7v9.7h-9.7z" class="st47"/><path d="M628 29h9.7v9.7H628z" class="st48"/><path d="M641.4 29h9.7v9.7h-9.7z" class="st49"/><path d="M654.7 29h9.7v9.7h-9.7z" class="st50"/><path d="M668.1 29h9.7v9.7h-9.7z" class="st51"/><path d="M681.4 29h9.7v9.7h-9.7z" class="st52"/><path d="M694.8 29h9.7v9.7h-9.7z" class="st53"/><path d="M708.2 29h9.7v9.7h-9.7z" class="st54"/><path d="M721.5 29h9.7v9.7h-9.7z" class="st55"/><path d="M734.9 29h9.7v9.7h-9.7z" class="st56"/><path d="M748.3 29h9.7v9.7h-9.7z" class="st57"/><path d="M761.6 29h9.7v9.7h-9.7z" class="st58"/><path d="M775 29h9.7v9.7H775z" class="st59"/><path d="M788.3 29h9.7v9.7h-9.7z" class="st60"/><path d="M801.7 29h9.7v9.7h-9.7z" class="st61"/><path d="M815.1 29h9.7v9.7h-9.7z" class="st62"/></svg>