<svg xmlns="http://www.w3.org/2000/svg" id="Layer_1" viewBox="0 0 460.8 288" width="460.8" height="288"><style>.st0{fill:none;stroke:#fff;stroke-width:6.07;stroke-miterlimit:10}.st1{fill:#464646}.st2{fill:none;stroke:#464646;stroke-width:6.07;stroke-miterlimit:10}.st3{fill:#0072bc}</style><path d="M19.9 20.9v66.8L39.6 68h25.9L19.9 20.9z" class="st0"/><path d="M19.9 20.9v66.8L39.6 68h25.9L19.9 20.9zM268.8 12c0-1.7 1.4-3 3-3 1.7 0 3 1.4 3 3 0 1.7-1.4 3-3 3-1.7 0-3-1.3-3-3zm-10.2 0c0-1.7 1.4-3 3-3 1.7 0 3 1.4 3 3 0 1.7-1.4 3-3 3s-3-1.3-3-3zm-10.1 0c0-1.7 1.4-3 3-3 1.7 0 3 1.4 3 3 0 1.7-1.4 3-3 3s-3-1.3-3-3zm-10.1 0c0-1.7 1.4-3 3-3 1.7 0 3 1.4 3 3 0 1.7-1.4 3-3 3s-3-1.3-3-3zm-10.1 0c0-1.7 1.4-3 3-3 1.7 0 3 1.4 3 3 0 1.7-1.4 3-3 3s-3-1.3-3-3zm-10.1 0c0-1.7 1.4-3 3-3 1.7 0 3 1.4 3 3 0 1.7-1.4 3-3 3s-3-1.3-3-3zm-10.1 0c0-1.7 1.4-3 3-3 1.7 0 3 1.4 3 3 0 1.7-1.4 3-3 3s-3-1.3-3-3zM198 12c0-1.7 1.4-3 3-3 1.7 0 3 1.4 3 3 0 1.7-1.4 3-3 3-1.7 0-3-1.3-3-3zm-10.1 0c0-1.7 1.4-3 3-3 1.7 0 3 1.4 3 3 0 1.7-1.4 3-3 3-1.7 0-3-1.3-3-3zm-10.1 0c0-1.7 1.4-3 3-3 1.7 0 3 1.4 3 3 0 1.7-1.4 3-3 3-1.7 0-3-1.3-3-3zm-10.1 0c0-1.7 1.4-3 3-3 1.7 0 3 1.4 3 3 0 1.7-1.4 3-3 3-1.7 0-3-1.3-3-3zm-10.2 0c0-1.7 1.4-3 3-3 1.7 0 3 1.4 3 3 0 1.7-1.4 3-3 3s-3-1.3-3-3zm-10.1 0c0-1.7 1.4-3 3-3 1.7 0 3 1.4 3 3 0 1.7-1.4 3-3 3s-3-1.3-3-3zm-10.1 0c0-1.7 1.4-3 3-3 1.7 0 3 1.4 3 3 0 1.7-1.4 3-3 3s-3-1.3-3-3zm-10.1 0c0-1.7 1.4-3 3-3 1.7 0 3 1.4 3 3 0 1.7-1.4 3-3 3s-3-1.3-3-3zm-10.1 0c0-1.7 1.4-3 3-3 1.7 0 3 1.4 3 3 0 1.7-1.4 3-3 3s-3-1.3-3-3zM107 12c0-1.7 1.4-3 3-3 1.7 0 3 1.4 3 3 0 1.7-1.4 3-3 3s-3-1.3-3-3zm-10.1 0c0-1.7 1.4-3 3-3 1.7 0 3 1.4 3 3 0 1.7-1.4 3-3 3-1.7 0-3-1.3-3-3zm-10.1 0c0-1.7 1.4-3 3-3 1.7 0 3 1.4 3 3 0 1.7-1.4 3-3 3-1.7 0-3-1.3-3-3zm-10.1 0c0-1.7 1.4-3 3-3 1.7 0 3 1.4 3 3 0 1.7-1.4 3-3 3-1.7 0-3-1.3-3-3zm-10.1 0c0-1.7 1.4-3 3-3 1.7 0 3 1.4 3 3 0 1.7-1.4 3-3 3-1.7 0-3-1.3-3-3zm-10.2 0c0-1.7 1.4-3 3-3 1.7 0 3 1.4 3 3 0 1.7-1.4 3-3 3s-3-1.3-3-3zm-10.1 0c0-1.7 1.4-3 3-3 1.7 0 3 1.4 3 3 0 1.7-1.4 3-3 3s-3-1.3-3-3zm-10.1 0c0-1.7 1.4-3 3-3 1.7 0 3 1.4 3 3 0 1.7-1.4 3-3 3s-3-1.3-3-3zm-10.1 0c0-1.7 1.4-3 3-3 1.7 0 3 1.4 3 3 0 1.7-1.4 3-3 3s-3-1.3-3-3zM16 12c0-1.7 1.4-3 3-3 1.7 0 3 1.4 3 3 0 1.7-1.4 3-3 3s-3-1.3-3-3zM5.9 12c0-1.7 1.4-3 3-3 1.7 0 3 1.4 3 3 0 1.7-1.4 3-3 3-1.7 0-3-1.3-3-3zm0 255c0-1.7 1.4-3 3-3 1.7 0 3 1.4 3 3 0 1.7-1.4 3-3 3-1.7.1-3-1.3-3-3zm0-9.8c0-1.7 1.4-3 3-3 1.7 0 3 1.4 3 3 0 1.7-1.4 3-3 3-1.7.1-3-1.3-3-3zm0-9.8c0-1.7 1.4-3 3-3 1.7 0 3 1.4 3 3 0 1.7-1.4 3-3 3-1.7.1-3-1.3-3-3zm0-9.8c0-1.7 1.4-3 3-3 1.7 0 3 1.4 3 3 0 1.7-1.4 3-3 3-1.7.1-3-1.3-3-3zm0-9.8c0-1.7 1.4-3 3-3 1.7 0 3 1.4 3 3 0 1.7-1.4 3-3 3-1.7 0-3-1.3-3-3zm0-9.8c0-1.7 1.4-3 3-3 1.7 0 3 1.4 3 3 0 1.7-1.4 3-3 3-1.7 0-3-1.3-3-3zm0-9.8c0-1.7 1.4-3 3-3 1.7 0 3 1.4 3 3 0 1.7-1.4 3-3 3-1.7 0-3-1.3-3-3zm0-9.8c0-1.7 1.4-3 3-3 1.7 0 3 1.4 3 3 0 1.7-1.4 3-3 3-1.7 0-3-1.3-3-3zm0-9.8c0-1.7 1.4-3 3-3 1.7 0 3 1.4 3 3 0 1.7-1.4 3-3 3-1.7 0-3-1.4-3-3zm0-9.8c0-1.7 1.4-3 3-3 1.7 0 3 1.4 3 3 0 1.7-1.4 3-3 3-1.7 0-3-1.4-3-3zm0-9.8c0-1.7 1.4-3 3-3 1.7 0 3 1.4 3 3 0 1.7-1.4 3-3 3-1.7 0-3-1.4-3-3zm0-9.9c0-1.7 1.4-3 3-3 1.7 0 3 1.4 3 3 0 1.7-1.4 3-3 3-1.7.1-3-1.3-3-3zm0-9.8c0-1.7 1.4-3 3-3 1.7 0 3 1.4 3 3 0 1.7-1.4 3-3 3-1.7.1-3-1.3-3-3zm0-9.8c0-1.7 1.4-3 3-3 1.7 0 3 1.4 3 3 0 1.7-1.4 3-3 3-1.7.1-3-1.3-3-3zm0-9.8c0-1.7 1.4-3 3-3 1.7 0 3 1.4 3 3 0 1.7-1.4 3-3 3-1.7.1-3-1.3-3-3zm0-9.8c0-1.7 1.4-3 3-3 1.7 0 3 1.4 3 3 0 1.7-1.4 3-3 3-1.7 0-3-1.3-3-3zm0-9.8c0-1.7 1.4-3 3-3 1.7 0 3 1.4 3 3 0 1.7-1.4 3-3 3-1.7 0-3-1.3-3-3zm0-9.8c0-1.7 1.4-3 3-3 1.7 0 3 1.4 3 3 0 1.7-1.4 3-3 3-1.7 0-3-1.3-3-3zm0-9.8c0-1.7 1.4-3 3-3 1.7 0 3 1.4 3 3 0 1.7-1.4 3-3 3-1.7 0-3-1.4-3-3zm0-9.8c0-1.7 1.4-3 3-3 1.7 0 3 1.4 3 3 0 1.7-1.4 3-3 3-1.7 0-3-1.4-3-3zm0-9.9c0-1.7 1.4-3 3-3 1.7 0 3 1.4 3 3 0 1.7-1.4 3-3 3-1.7.1-3-1.3-3-3zm0-9.8c0-1.7 1.4-3 3-3 1.7 0 3 1.4 3 3 0 1.7-1.4 3-3 3-1.7.1-3-1.3-3-3zm0-9.8c0-1.7 1.4-3 3-3 1.7 0 3 1.4 3 3 0 1.7-1.4 3-3 3-1.7.1-3-1.3-3-3zm0-9.8c0-1.7 1.4-3 3-3 1.7 0 3 1.4 3 3 0 1.7-1.4 3-3 3-1.7.1-3-1.3-3-3zm0-9.8c0-1.7 1.4-3 3-3 1.7 0 3 1.4 3 3 0 1.7-1.4 3-3 3-1.7 0-3-1.3-3-3zm0-9.8c0-1.7 1.4-3 3-3 1.7 0 3 1.4 3 3 0 1.7-1.4 3-3 3-1.7 0-3-1.3-3-3z" class="st1"/><path d="M261.4 182.5c-23-20-49-23-72 0s-46-146-113-2v79h186l-1-77z" class="st0"/><path d="M261.4 182.5c-23-20-49-23-72 0s-46-146-113-2v79h186l-1-77z" class="st1"/><circle cx="216.9" cy="114" r="22" class="st0"/><circle cx="216.9" cy="114" r="22" class="st1"/><path d="M76.4 73.5h186v186h-186v-186z" class="st2"/><path d="M300.2 124.4c6.7-8.6 15.1-15.7 24.6-21l1.5 2.6c-8.7 7-14.9 13.8-18.7 20.3-6.6 11.5-9.8 26.7-9.8 45.8 0 14.1 1.2 25.8 3.7 34.9 4.4 16.1 12.7 28.1 24.8 36.1l-2.1 2.7c-6.7-3.2-13.9-9.5-21.6-18.8-12.9-15.5-19.3-33.1-19.3-52.8s5.6-36.3 16.9-49.8z" class="st0"/><path d="M326.1 214.2c19.9-20.6 33.4-35.8 40.5-45.4 7.1-9.6 10.7-19.1 10.7-28.3s-2.2-14.1-6.6-18.3c-4.1-4.1-9.7-6.4-15.5-6.3-7.5 0-13.5 2.7-18.1 8.1-2.6 3-5 7.6-7.3 13.8l-3.5-.7c2.7-12.5 7.3-21.2 13.8-26.1 6-4.6 13.3-7.2 20.9-7.2 9.1 0 16.6 2.9 22.2 8.6 5.6 5.6 8.7 13.3 8.5 21.2 0 8.9-3 17.5-9.2 25.7s-19.4 23-40 44.1h37.4c5.2 0 8.9-.7 11-1.9 2.1-1.2 4.5-4.3 7.2-9.1l2.1 1-9 22.7h-65.1v-1.9z" class="st0"/><path d="M438.8 198c-2.1 7.2-5.2 14.1-9.3 20.4-4.2 6.9-10 13.2-17.1 19.2-3.7 3.1-7.7 5.9-11.9 8.2l-1.6-2.7c8.4-6.4 14.5-12.8 18.3-19.5 6.9-11.7 10.3-27.2 10.3-46.5 0-15.5-1.6-28.3-4.7-38.2-4-13.4-12.4-25-23.9-32.9l2.1-2.6c8.6 4.7 16.6 12 24 21.6 11.1 14.3 17.1 31.9 17 50 0 7.8-1 15.5-3.2 23z" class="st0"/><path d="M300.2 124.4c6.7-8.6 15.1-15.7 24.6-21l1.5 2.6c-8.7 7-14.9 13.8-18.7 20.3-6.6 11.5-9.8 26.7-9.8 45.8 0 14.1 1.2 25.8 3.7 34.9 4.4 16.1 12.7 28.1 24.8 36.1l-2.1 2.7c-6.7-3.2-13.9-9.5-21.6-18.8-12.9-15.5-19.3-33.1-19.3-52.8s5.6-36.3 16.9-49.8z" class="st3"/><path d="M326.1 214.2c19.9-20.6 33.4-35.8 40.5-45.4 7.1-9.6 10.7-19.1 10.7-28.3s-2.2-14.1-6.6-18.3c-4.1-4.1-9.7-6.4-15.5-6.3-7.5 0-13.5 2.7-18.1 8.1-2.6 3-5 7.6-7.3 13.8l-3.5-.7c2.7-12.5 7.3-21.2 13.8-26.1 6-4.6 13.3-7.2 20.9-7.2 9.1 0 16.6 2.9 22.2 8.6 5.6 5.6 8.7 13.3 8.5 21.2 0 8.9-3 17.5-9.2 25.7s-19.4 23-40 44.1h37.4c5.2 0 8.9-.7 11-1.9 2.1-1.2 4.5-4.3 7.2-9.1l2.1 1-9 22.7h-65.1v-1.9z" class="st3"/><path d="M438.8 198c-2.1 7.2-5.2 14.1-9.3 20.4-4.2 6.9-10 13.2-17.1 19.2-3.7 3.1-7.7 5.9-11.9 8.2l-1.6-2.7c8.4-6.4 14.5-12.8 18.3-19.5 6.9-11.7 10.3-27.2 10.3-46.5 0-15.5-1.6-28.3-4.7-38.2-4-13.4-12.4-25-23.9-32.9l2.1-2.6c8.6 4.7 16.6 12 24 21.6 11.1 14.3 17.1 31.9 17 50 0 7.8-1 15.5-3.2 23z" class="st3"/></svg>