<svg xmlns="http://www.w3.org/2000/svg" id="Layer_1" viewBox="0 0 824.8 280.4" width="824.8" height="280.4"><style>.st0{fill:#f7941d}.st1{fill:#f79621}.st2{fill:#f79724}.st3{fill:#f79928}.st4{fill:#f79a2b}.st5{fill:#f79c2f}.st6{fill:#f79e32}.st7{fill:#f79f36}.st8{fill:#f7a139}.st9{fill:#f7a23d}.st10{fill:#f7a440}.st11{fill:#f7a544}.st12{fill:#f7a747}.st13{fill:#f7a94b}.st14{fill:#f7aa4f}.st15{fill:#f7ac52}.st16{fill:#f6ad56}.st17{fill:#f6af59}.st18{fill:#f6b15d}.st19{fill:#f6b260}.st20{fill:#f6b464}.st21{fill:#f6b567}.st22{fill:#f6b76b}.st23{fill:#f6b96e}.st24{fill:#f6ba72}.st25{fill:#f6bc76}.st26{fill:#f6bd79}.st27{fill:#f6bf7d}.st28{fill:#f6c180}.st29{fill:#f6c284}.st30{fill:#f6c487}.st31{fill:#f6c58b}.st32{fill:#f6c78e}.st33{fill:#f6c892}.st34{fill:#f6ca95}.st35{fill:#f6cc99}.st36{fill:#f6cd9c}.st37{fill:#f6cfa0}.st38{fill:#f6d0a4}.st39{fill:#f6d2a7}.st40{fill:#f6d4ab}.st41{fill:#f6d5ae}.st42{fill:#f6d7b2}.st43{fill:#f6d8b5}.st44{fill:#f6dab9}.st45{fill:#f6dcbc}.st46{fill:#f5ddc0}.st47{fill:#f5dfc3}.st48{fill:#f5e0c7}.st49{fill:#f5e2cb}.st50{fill:#f5e4ce}.st51{fill:#f5e5d2}.st52{fill:#f5e7d5}.st53{fill:#f5e8d9}.st54{fill:#f5eadc}.st55{fill:#f5ebe0}.st56{fill:#f5ede3}.st57{fill:#f5efe7}.st58{fill:#f5f0ea}.st59{fill:#f5f2ee}.st60{fill:#f5f3f1}.st61{fill:#f5f5f5}.st62{fill:#00683f}.st63{fill:#e6e7e8}.st64{fill:#e3e4e5}.st65{fill:#e0e0e1}.st66{fill:#dcddde}.st67{fill:#d9dadb}.st68{fill:#d6d7d8}.st69{fill:#d3d3d4}.st70{fill:#d0d0d1}.st71{fill:#cccdce}.st72{fill:#c9c9ca}.st73{fill:#c6c6c7}.st74{fill:#c3c3c4}.st75{fill:#c0c0c1}.st76{fill:#bcbcbd}.st77{fill:#b9b9ba}.st78{fill:#b6b6b7}.st79{fill:#b3b3b4}.st80{fill:#b0afb0}.st81{fill:#acacad}.st82{fill:#a9a9aa}.st83{fill:#a6a5a6}.st84{fill:#a3a2a3}.st85{fill:#a09fa0}.st86{fill:#9c9c9d}.st87{fill:#999899}.st88{fill:#969596}.st89{fill:#939293}.st90{fill:#908e8f}.st91{fill:#8c8b8c}.st92{fill:#898889}.st93{fill:#868586}.st94{fill:#838182}.st95{fill:#807e7f}.st96{fill:#7d7b7c}.st97{fill:#797879}.st98{fill:#767475}.st99{fill:#737172}.st100{fill:#706e6f}.st101{fill:#6d6a6b}.st102{fill:#696768}.st103{fill:#666465}.st104{fill:#636162}.st105{fill:#605d5e}.st106{fill:#5d5a5b}.st107{fill:#595758}.st108{fill:#565354}.st109{fill:#535051}.st110{fill:#504d4e}.st111{fill:#4d4a4b}.st112{fill:#494647}.st113{fill:#464344}.st114{fill:#434041}.st115{fill:#403d3e}.st116{fill:#3d393a}.st117{fill:#393637}.st118{fill:#363334}.st119{fill:#332f30}.st120{fill:#302c2d}.st121{fill:#2d292a}.st122{fill:#292627}.st123{fill:#262223}.st124{fill:#231f20}.st125{enable-background:new}.st126{fill:red}.st127{fill:#0f0}.st128{fill:#00f}.st129{fill:#7a7a7a}</style><path d="M0 238.7h9.7v9.7H0v-9.7z" class="st0"/><path d="M13.4 238.7h9.7v9.7h-9.7v-9.7z" class="st1"/><path d="M26.7 238.7h9.7v9.7h-9.7v-9.7z" class="st2"/><path d="M40.1 238.7h9.7v9.7h-9.7v-9.7z" class="st3"/><path d="M53.4 238.7h9.7v9.7h-9.7v-9.7z" class="st4"/><path d="M66.8 238.7h9.7v9.7h-9.7v-9.7z" class="st5"/><path d="M80.2 238.7h9.7v9.7h-9.7v-9.7z" class="st6"/><path d="M93.5 238.7h9.7v9.7h-9.7v-9.7z" class="st7"/><path d="M106.9 238.7h9.7v9.7h-9.7v-9.7z" class="st8"/><path d="M120.3 238.7h9.7v9.7h-9.7v-9.7z" class="st9"/><path d="M133.6 238.7h9.7v9.7h-9.7v-9.7z" class="st10"/><path d="M147 238.7h9.7v9.7H147v-9.7z" class="st11"/><path d="M160.3 238.7h9.7v9.7h-9.7v-9.7z" class="st12"/><path d="M173.7 238.7h9.7v9.7h-9.7v-9.7z" class="st13"/><path d="M187.1 238.7h9.7v9.7h-9.7v-9.7z" class="st14"/><path d="M200.4 238.7h9.7v9.7h-9.7v-9.7z" class="st15"/><path d="M213.8 238.7h9.7v9.7h-9.7v-9.7z" class="st16"/><path d="M227.2 238.7h9.7v9.7h-9.7v-9.7z" class="st17"/><path d="M240.5 238.7h9.7v9.7h-9.7v-9.7z" class="st18"/><path d="M253.9 238.7h9.7v9.7h-9.7v-9.7z" class="st19"/><path d="M267.2 238.7h9.7v9.7h-9.7v-9.7z" class="st20"/><path d="M280.6 238.7h9.7v9.7h-9.7v-9.7z" class="st21"/><path d="M294 238.7h9.7v9.7H294v-9.7z" class="st22"/><path d="M307.3 238.7h9.7v9.7h-9.7v-9.7z" class="st23"/><path d="M320.7 238.7h9.7v9.7h-9.7v-9.7z" class="st24"/><path d="M334.1 238.7h9.7v9.7h-9.7v-9.7z" class="st25"/><path d="M347.4 238.7h9.7v9.7h-9.7v-9.7z" class="st26"/><path d="M360.8 238.7h9.7v9.7h-9.7v-9.7z" class="st27"/><path d="M374.1 238.7h9.7v9.7h-9.7v-9.7z" class="st28"/><path d="M387.5 238.7h9.7v9.7h-9.7v-9.7z" class="st29"/><path d="M400.9 238.7h9.7v9.7h-9.7v-9.7z" class="st30"/><path d="M414.2 238.7h9.7v9.7h-9.7v-9.7z" class="st31"/><path d="M427.6 238.7h9.7v9.7h-9.7v-9.7z" class="st32"/><path d="M441 238.7h9.7v9.7H441v-9.7z" class="st33"/><path d="M454.3 238.7h9.7v9.7h-9.7v-9.7z" class="st34"/><path d="M467.7 238.7h9.7v9.7h-9.7v-9.7z" class="st35"/><path d="M481 238.7h9.7v9.7H481v-9.7z" class="st36"/><path d="M494.4 238.7h9.7v9.7h-9.7v-9.7z" class="st37"/><path d="M507.8 238.7h9.7v9.7h-9.7v-9.7z" class="st38"/><path d="M521.1 238.7h9.7v9.7h-9.7v-9.7z" class="st39"/><path d="M534.5 238.7h9.7v9.7h-9.7v-9.7z" class="st40"/><path d="M547.9 238.7h9.7v9.7h-9.7v-9.7z" class="st41"/><path d="M561.2 238.7h9.7v9.7h-9.7v-9.7z" class="st42"/><path d="M574.6 238.7h9.7v9.7h-9.7v-9.7z" class="st43"/><path d="M587.9 238.7h9.7v9.7h-9.7v-9.7z" class="st44"/><path d="M601.3 238.7h9.7v9.7h-9.7v-9.7z" class="st45"/><path d="M614.7 238.7h9.7v9.7h-9.7v-9.7z" class="st46"/><path d="M628 238.7h9.7v9.7H628v-9.7z" class="st47"/><path d="M641.4 238.7h9.7v9.7h-9.7v-9.7z" class="st48"/><path d="M654.8 238.7h9.7v9.7h-9.7v-9.7z" class="st49"/><path d="M668.1 238.7h9.7v9.7h-9.7v-9.7z" class="st50"/><path d="M681.5 238.7h9.7v9.7h-9.7v-9.7z" class="st51"/><path d="M694.8 238.7h9.7v9.7h-9.7v-9.7z" class="st52"/><path d="M708.2 238.7h9.7v9.7h-9.7v-9.7z" class="st53"/><path d="M721.6 238.7h9.7v9.7h-9.7v-9.7z" class="st54"/><path d="M734.9 238.7h9.7v9.7h-9.7v-9.7z" class="st55"/><path d="M748.3 238.7h9.7v9.7h-9.7v-9.7z" class="st56"/><path d="M761.7 238.7h9.7v9.7h-9.7v-9.7z" class="st57"/><path d="M775 238.7h9.7v9.7H775v-9.7z" class="st58"/><path d="M788.4 238.7h9.7v9.7h-9.7v-9.7z" class="st59"/><path d="M801.7 238.7h9.7v9.7h-9.7v-9.7z" class="st60"/><path d="M815.1 238.7h9.7v9.7h-9.7v-9.7z" class="st61"/><path d="M4.3 3.9L1.6 6.6 0 4.9 4.6.2H7v16H4.2l.1-12.3zM784.8 14c6.2-4.7 8.6-6.8 8.6-9.1-.1-1.4-1.3-2.5-2.7-2.5h-.2c-1.7 0-3.3.7-4.3 2l-1.6-1.8c1.5-1.7 3.7-2.6 6-2.6 3.1 0 5.8 1.8 5.8 4.9s-2.7 5.6-7 8.8h7.1v2.5h-11.6l-.1-2.2zm15.5-1.9c1.1 1.2 2.7 1.9 4.3 1.9 1.6.2 3.1-1 3.3-2.6v-.2c0-1.6-1.3-2.9-2.8-2.9h-.4c-1.3 0-2.6.5-3.5 1.4l-2-.6v-9h10.6v2.5h-7.7v4.6c1-.9 2.3-1.4 3.6-1.4 2.7-.1 5 2.1 5.1 4.9v.3c0 3.3-2.5 5.4-6 5.4-2.3.2-4.5-.8-6-2.5l1.5-1.8zM819.4 0c1.7 0 3.4.6 4.6 1.8l-1.3 2.1c-.8-1-2-1.5-3.3-1.4-2.7 0-4.2 2.5-4.2 5.3v.5c1-1.4 2.6-2.2 4.3-2.2 2.7-.2 5.1 1.8 5.3 4.5v.5c0 3-2.5 5.4-5.5 5.4h-.5c-4.7 0-6.6-3.8-6.6-8.3s2.5-8.2 7.2-8.2zm-.7 8.4c-1.4 0-2.7.7-3.5 1.9 0 2 1.6 3.7 3.6 3.7 1.6.1 3.1-1.1 3.2-2.7v-.1c0-1.9-1.6-2.8-3.3-2.8zM388.2 3.9l-2.6 2.7-1.6-1.7 4.6-4.7h2.4v16h-2.8V3.9zm5.3 10.1c6.2-4.7 8.6-6.8 8.6-9.1-.1-1.4-1.3-2.5-2.7-2.5h-.2c-1.7 0-3.3.7-4.3 2l-1.6-1.8c1.5-1.7 3.7-2.6 6-2.6 3.1 0 5.8 1.8 5.8 4.9s-2.7 5.6-7 8.8h7.1v2.5h-11.6l-.1-2.2zm17.2-6c-1.9-.3-3.2-1.9-3.3-3.8 0-3 3-4.2 5.9-4.2s5.9 1.2 5.9 4.2c-.1 1.9-1.5 3.5-3.4 3.8 2 .5 3.4 2.1 3.6 4.1 0 2.9-2.9 4.4-6.1 4.4s-6.1-1.5-6.1-4.4c.1-2 1.5-3.6 3.5-4.1zm2.5 1.3c-1 .1-3.3.9-3.3 2.5s1.5 2.3 3.3 2.3 3.3-.9 3.3-2.3-2.3-2.4-3.3-2.5zm0-6.8c-1.8 0-3 .8-3 2.1s2 2 3 2.3c1-.2 3-.7 3-2.3s-1.3-2.1-3-2.1z" class="st62"/><path d="M0 29h9.7v9.7H0V29z" class="st63"/><path d="M13.4 29h9.7v9.7h-9.7V29z" class="st64"/><path d="M26.7 29h9.7v9.7h-9.7V29z" class="st65"/><path d="M40.1 29h9.7v9.7h-9.7V29z" class="st66"/><path d="M53.4 29h9.7v9.7h-9.7V29z" class="st67"/><path d="M66.8 29h9.7v9.7h-9.7V29z" class="st68"/><path d="M80.2 29h9.7v9.7h-9.7V29z" class="st69"/><path d="M93.5 29h9.7v9.7h-9.7V29z" class="st70"/><path d="M106.9 29h9.7v9.7h-9.7V29z" class="st71"/><path d="M120.3 29h9.7v9.7h-9.7V29z" class="st72"/><path d="M133.6 29h9.7v9.7h-9.7V29z" class="st73"/><path d="M147 29h9.7v9.7H147V29z" class="st74"/><path d="M160.3 29h9.7v9.7h-9.7V29z" class="st75"/><path d="M173.7 29h9.7v9.7h-9.7V29z" class="st76"/><path d="M187.1 29h9.7v9.7h-9.7V29z" class="st77"/><path d="M200.4 29h9.7v9.7h-9.7V29z" class="st78"/><path d="M213.8 29h9.7v9.7h-9.7V29z" class="st79"/><path d="M227.1 29h9.7v9.7h-9.7V29z" class="st80"/><path d="M240.5 29h9.7v9.7h-9.7V29z" class="st81"/><path d="M253.9 29h9.7v9.7h-9.7V29z" class="st82"/><path d="M267.2 29h9.7v9.7h-9.7V29z" class="st83"/><path d="M280.6 29h9.7v9.7h-9.7V29z" class="st84"/><path d="M294 29h9.7v9.7H294V29z" class="st85"/><path d="M307.3 29h9.7v9.7h-9.7V29z" class="st86"/><path d="M320.7 29h9.7v9.7h-9.7V29z" class="st87"/><path d="M334 29h9.7v9.7H334V29z" class="st88"/><path d="M347.4 29h9.7v9.7h-9.7V29z" class="st89"/><path d="M360.8 29h9.7v9.7h-9.7V29z" class="st90"/><path d="M374.1 29h9.7v9.7h-9.7V29z" class="st91"/><path d="M387.5 29h9.7v9.7h-9.7V29z" class="st92"/><path d="M400.9 29h9.7v9.7h-9.7V29z" class="st93"/><path d="M414.2 29h9.7v9.7h-9.7V29z" class="st94"/><path d="M427.6 29h9.7v9.7h-9.7V29z" class="st95"/><path d="M440.9 29h9.7v9.7h-9.7V29z" class="st96"/><path d="M454.3 29h9.7v9.7h-9.7V29z" class="st97"/><path d="M467.7 29h9.7v9.7h-9.7V29z" class="st98"/><path d="M481 29h9.7v9.7H481V29z" class="st99"/><path d="M494.4 29h9.7v9.7h-9.7V29z" class="st100"/><path d="M507.7 29h9.7v9.7h-9.7V29z" class="st101"/><path d="M521.1 29h9.7v9.7h-9.7V29z" class="st102"/><path d="M534.5 29h9.7v9.7h-9.7V29z" class="st103"/><path d="M547.8 29h9.7v9.7h-9.7V29z" class="st104"/><path d="M561.2 29h9.7v9.7h-9.7V29z" class="st105"/><path d="M574.6 29h9.7v9.7h-9.7V29z" class="st106"/><path d="M587.9 29h9.7v9.7h-9.7V29z" class="st107"/><path d="M601.3 29h9.7v9.7h-9.7V29z" class="st108"/><path d="M614.6 29h9.7v9.7h-9.7V29z" class="st109"/><path d="M628 29h9.7v9.7H628V29z" class="st110"/><path d="M641.4 29h9.7v9.7h-9.7V29z" class="st111"/><path d="M654.7 29h9.7v9.7h-9.7V29z" class="st112"/><path d="M668.1 29h9.7v9.7h-9.7V29z" class="st113"/><path d="M681.4 29h9.7v9.7h-9.7V29z" class="st114"/><path d="M694.8 29h9.7v9.7h-9.7V29z" class="st115"/><path d="M708.2 29h9.7v9.7h-9.7V29z" class="st116"/><path d="M721.5 29h9.7v9.7h-9.7V29z" class="st117"/><path d="M734.9 29h9.7v9.7h-9.7V29z" class="st118"/><path d="M748.3 29h9.7v9.7h-9.7V29z" class="st119"/><path d="M761.6 29h9.7v9.7h-9.7V29z" class="st120"/><path d="M775 29h9.7v9.7H775V29z" class="st121"/><path d="M788.3 29h9.7v9.7h-9.7V29z" class="st122"/><path d="M801.7 29h9.7v9.7h-9.7V29z" class="st123"/><path d="M815.1 29h9.7v9.7h-9.7V29z" class="st124"/><g class="st125"><path d="M361.1 56.1h-2.3v5h-2.3V47.7h5.9c2.6 0 4.4 1.7 4.4 4.2 0 2.4-1.6 3.7-3.2 3.9l3.3 5.2H364l-2.9-4.9zm.9-6.3h-3.2V54h3.2c1.3 0 2.3-.8 2.3-2.1s-1-2.1-2.3-2.1zm10.6 1.4c2.9 0 4.8 2.2 4.8 5.3v.5h-7.5c.2 1.5 1.3 2.7 3.1 2.7.9 0 2.1-.4 2.7-1.1l1 1.4c-1 .9-2.4 1.4-3.9 1.4-2.9 0-5.1-2-5.1-5.1 0-2.9 2.1-5.1 4.9-5.1zm-2.7 4.2h5.4c0-1.1-.8-2.6-2.7-2.6-1.8.1-2.6 1.5-2.7 2.6zm16.4 4.3c-.7 1-1.9 1.6-3.1 1.6-2.5 0-4.3-1.9-4.3-5.1 0-3.1 1.8-5.1 4.3-5.1 1.2 0 2.3.6 3.1 1.6v-5h2.1V61h-2.1v-1.3zm0-5.4c-.5-.7-1.5-1.3-2.5-1.3-1.7 0-2.7 1.3-2.7 3.2s1.1 3.2 2.7 3.2c1 0 2-.6 2.5-1.3v-3.8zm9.4.1c0-4.1 3.1-6.9 6.9-6.9 2.8 0 4.5 1.4 5.5 3l-2 1c-.6-1.1-1.9-1.9-3.5-1.9-2.5 0-4.5 2-4.5 4.8s2 4.8 4.5 4.8c1.5 0 2.8-.8 3.5-1.9l2 1c-1 1.6-2.7 3-5.5 3-3.9 0-6.9-2.8-6.9-6.9zm20.7.6c0-1.5-.8-2-2-2-1.1 0-2 .6-2.5 1.3V61h-2.1V47.7h2.1v5c.6-.8 1.9-1.6 3.4-1.6 2.1 0 3.1 1.1 3.1 3.1V61h-2.1v-6h.1zm10.7 5c-.7.8-1.8 1.3-3.1 1.3-1.6 0-3.4-1.1-3.4-3.2 0-2.2 1.8-3.1 3.4-3.1 1.3 0 2.4.4 3.1 1.2v-1.4c0-1.1-.9-1.8-2.3-1.8-1.1 0-2 .4-2.9 1.2l-.9-1.5c1.1-1.1 2.5-1.6 4.1-1.6 2.1 0 4 .9 4 3.5V61H427v-1h.1zm0-2.6c-.5-.7-1.4-1-2.3-1-1.2 0-2.1.7-2.1 1.7s.9 1.7 2.1 1.7c.9 0 1.8-.3 2.3-1v-1.4zm11.4-2.4c0-1.5-.8-2-1.9-2s-2 .6-2.5 1.3V61H432v-9.7h2.1v1.3c.6-.8 1.9-1.6 3.4-1.6 2.1 0 3.1 1.1 3.1 3.1v6.8h-2.1V55zm11.3 0c0-1.5-.8-2-1.9-2s-2 .6-2.5 1.3V61h-2.1v-9.7h2.1v1.3c.6-.8 1.9-1.6 3.4-1.6 2.1 0 3.1 1.1 3.1 3.1v6.8h-2.1V55zm9.1-3.8c2.9 0 4.8 2.2 4.8 5.3v.5h-7.5c.2 1.5 1.3 2.7 3.1 2.7.9 0 2.1-.4 2.7-1.1l1 1.4c-1 .9-2.4 1.4-3.9 1.4-2.9 0-5.1-2-5.1-5.1 0-2.9 2-5.1 4.9-5.1zm-2.7 4.2h5.4c0-1.1-.8-2.6-2.7-2.6-1.8.1-2.6 1.5-2.7 2.6zm9.5-7.7h2.1V61h-2.1V47.7z" class="st126"/></g><path d="M0 98.9h9.7v9.7H0v-9.7z" class="st63"/><path d="M13.4 98.9h9.7v9.7h-9.7v-9.7z" class="st64"/><path d="M26.7 98.9h9.7v9.7h-9.7v-9.7z" class="st65"/><path d="M40.1 98.9h9.7v9.7h-9.7v-9.7z" class="st66"/><path d="M53.4 98.9h9.7v9.7h-9.7v-9.7z" class="st67"/><path d="M66.8 98.9h9.7v9.7h-9.7v-9.7z" class="st68"/><path d="M80.2 98.9h9.7v9.7h-9.7v-9.7z" class="st69"/><path d="M93.5 98.9h9.7v9.7h-9.7v-9.7z" class="st70"/><path d="M106.9 98.9h9.7v9.7h-9.7v-9.7z" class="st71"/><path d="M120.3 98.9h9.7v9.7h-9.7v-9.7z" class="st72"/><path d="M133.6 98.9h9.7v9.7h-9.7v-9.7z" class="st73"/><path d="M147 98.9h9.7v9.7H147v-9.7z" class="st74"/><path d="M160.3 98.9h9.7v9.7h-9.7v-9.7z" class="st75"/><path d="M173.7 98.9h9.7v9.7h-9.7v-9.7z" class="st76"/><path d="M187.1 98.9h9.7v9.7h-9.7v-9.7z" class="st77"/><path d="M200.4 98.9h9.7v9.7h-9.7v-9.7z" class="st78"/><path d="M213.8 98.9h9.7v9.7h-9.7v-9.7z" class="st79"/><path d="M227.1 98.9h9.7v9.7h-9.7v-9.7z" class="st80"/><path d="M240.5 98.9h9.7v9.7h-9.7v-9.7z" class="st81"/><path d="M253.9 98.9h9.7v9.7h-9.7v-9.7z" class="st82"/><path d="M267.2 98.9h9.7v9.7h-9.7v-9.7z" class="st83"/><path d="M280.6 98.9h9.7v9.7h-9.7v-9.7z" class="st84"/><path d="M294 98.9h9.7v9.7H294v-9.7z" class="st85"/><path d="M307.3 98.9h9.7v9.7h-9.7v-9.7z" class="st86"/><path d="M320.7 98.9h9.7v9.7h-9.7v-9.7z" class="st87"/><path d="M334 98.9h9.7v9.7H334v-9.7z" class="st88"/><path d="M347.4 98.9h9.7v9.7h-9.7v-9.7z" class="st89"/><path d="M360.8 98.9h9.7v9.7h-9.7v-9.7z" class="st90"/><path d="M374.1 98.9h9.7v9.7h-9.7v-9.7z" class="st91"/><path d="M387.5 98.9h9.7v9.7h-9.7v-9.7z" class="st92"/><path d="M400.9 98.9h9.7v9.7h-9.7v-9.7z" class="st93"/><path d="M414.2 98.9h9.7v9.7h-9.7v-9.7z" class="st94"/><path d="M427.6 98.9h9.7v9.7h-9.7v-9.7z" class="st95"/><path d="M440.9 98.9h9.7v9.7h-9.7v-9.7z" class="st96"/><path d="M454.3 98.9h9.7v9.7h-9.7v-9.7z" class="st97"/><path d="M467.7 98.9h9.7v9.7h-9.7v-9.7z" class="st98"/><path d="M481 98.9h9.7v9.7H481v-9.7z" class="st99"/><path d="M494.4 98.9h9.7v9.7h-9.7v-9.7z" class="st100"/><path d="M507.7 98.9h9.7v9.7h-9.7v-9.7z" class="st101"/><path d="M521.1 98.9h9.7v9.7h-9.7v-9.7z" class="st102"/><path d="M534.5 98.9h9.7v9.7h-9.7v-9.7z" class="st103"/><path d="M547.8 98.9h9.7v9.7h-9.7v-9.7z" class="st104"/><path d="M561.2 98.9h9.7v9.7h-9.7v-9.7z" class="st105"/><path d="M574.6 98.9h9.7v9.7h-9.7v-9.7z" class="st106"/><path d="M587.9 98.9h9.7v9.7h-9.7v-9.7z" class="st107"/><path d="M601.3 98.9h9.7v9.7h-9.7v-9.7z" class="st108"/><path d="M614.6 98.9h9.7v9.7h-9.7v-9.7z" class="st109"/><path d="M628 98.9h9.7v9.7H628v-9.7z" class="st110"/><path d="M641.4 98.9h9.7v9.7h-9.7v-9.7z" class="st111"/><path d="M654.7 98.9h9.7v9.7h-9.7v-9.7z" class="st112"/><path d="M668.1 98.9h9.7v9.7h-9.7v-9.7z" class="st113"/><path d="M681.4 98.9h9.7v9.7h-9.7v-9.7z" class="st114"/><path d="M694.8 98.9h9.7v9.7h-9.7v-9.7z" class="st115"/><path d="M708.2 98.9h9.7v9.7h-9.7v-9.7z" class="st116"/><path d="M721.5 98.9h9.7v9.7h-9.7v-9.7z" class="st117"/><path d="M734.9 98.9h9.7v9.7h-9.7v-9.7z" class="st118"/><path d="M748.3 98.9h9.7v9.7h-9.7v-9.7z" class="st119"/><path d="M761.6 98.9h9.7v9.7h-9.7v-9.7z" class="st120"/><path d="M775 98.9h9.7v9.7H775v-9.7z" class="st121"/><path d="M788.3 98.9h9.7v9.7h-9.7v-9.7z" class="st122"/><path d="M801.7 98.9h9.7v9.7h-9.7v-9.7z" class="st123"/><path d="M815.1 98.9h9.7v9.7h-9.7v-9.7z" class="st124"/><g class="st125"><path d="M353 117.4c2.6 0 4.3 1.2 5.4 2.8l-1.9 1.1c-.7-1-2-1.8-3.5-1.8-2.6 0-4.6 2-4.6 4.8s2 4.8 4.6 4.8c1.4 0 2.6-.6 3.2-1.2v-2.1h-4v-2.1h6.3v5c-1.3 1.5-3.2 2.4-5.5 2.4-3.9 0-7-2.7-7-6.9 0-4 3.2-6.8 7-6.8zm7.9 3.9h2.1v1.4c.7-.9 1.9-1.6 3.1-1.6v2.1c-.2 0-.4-.1-.7-.1-.9 0-2.1.6-2.5 1.3v6.6h-2.1v-9.7h.1zm11.2-.2c2.9 0 4.8 2.2 4.8 5.3v.5h-7.5c.2 1.5 1.3 2.7 3.1 2.7.9 0 2.1-.4 2.7-1.1l1 1.4c-1 .9-2.4 1.4-3.9 1.4-2.9 0-5.1-2-5.1-5.1 0-2.8 2.1-5.1 4.9-5.1zm-2.7 4.3h5.4c0-1.1-.8-2.6-2.7-2.6-1.8 0-2.6 1.4-2.7 2.6zm13.9-4.3c2.9 0 4.8 2.2 4.8 5.3v.5h-7.5c.2 1.5 1.3 2.7 3.1 2.7.9 0 2.1-.4 2.7-1.1l1 1.4c-1 .9-2.4 1.4-3.9 1.4-2.9 0-5.1-2-5.1-5.1 0-2.8 2-5.1 4.9-5.1zm-2.7 4.3h5.4c0-1.1-.8-2.6-2.7-2.6-1.8 0-2.6 1.4-2.7 2.6zm16-.4c0-1.5-.8-2-1.9-2s-2 .6-2.5 1.3v6.7h-2.1v-9.7h2.1v1.3c.6-.8 1.9-1.6 3.4-1.6 2.1 0 3.1 1.1 3.1 3.1v6.8h-2.1V125zm9.5-.7c0-4.1 3.1-6.9 6.9-6.9 2.8 0 4.5 1.4 5.5 3l-2 1c-.6-1.1-1.9-1.9-3.5-1.9-2.5 0-4.5 2-4.5 4.8s2 4.8 4.5 4.8c1.5 0 2.8-.8 3.5-1.9l2 1c-1 1.6-2.7 3-5.5 3-3.9 0-6.9-2.8-6.9-6.9zm20.7.6c0-1.5-.8-2-2-2-1.1 0-2 .6-2.5 1.3v6.7h-2.1v-13.3h2.1v5c.6-.8 1.9-1.6 3.4-1.6 2.1 0 3.1 1.1 3.1 3.1v6.8h-2.1v-6h.1zm10.7 5.1c-.7.8-1.8 1.3-3.1 1.3-1.6 0-3.4-1.1-3.4-3.2 0-2.2 1.8-3.1 3.4-3.1 1.3 0 2.4.4 3.1 1.2v-1.4c0-1.1-.9-1.8-2.3-1.8-1.1 0-2 .4-2.9 1.2l-.9-1.5c1.1-1.1 2.5-1.6 4.1-1.6 2.1 0 4 .9 4 3.5v6.4h-2.1l.1-1zm0-2.7c-.5-.7-1.4-1-2.3-1-1.2 0-2.1.7-2.1 1.7s.9 1.7 2.1 1.7c.9 0 1.8-.3 2.3-1v-1.4zm11.3-2.3c0-1.5-.8-2-1.9-2s-2 .6-2.5 1.3v6.7h-2.1v-9.7h2.1v1.3c.6-.8 1.9-1.6 3.4-1.6 2.1 0 3.1 1.1 3.1 3.1v6.8h-2.1V125zm11.4 0c0-1.5-.8-2-1.9-2s-2 .6-2.5 1.3v6.7h-2.1v-9.7h2.1v1.3c.6-.8 1.9-1.6 3.4-1.6 2.1 0 3.1 1.1 3.1 3.1v6.8h-2.1V125zm9.1-3.9c2.9 0 4.8 2.2 4.8 5.3v.5h-7.5c.2 1.5 1.3 2.7 3.1 2.7.9 0 2.1-.4 2.7-1.1l1 1.4c-1 .9-2.4 1.4-3.9 1.4-2.9 0-5.1-2-5.1-5.1 0-2.8 2-5.1 4.9-5.1zm-2.7 4.3h5.4c0-1.1-.8-2.6-2.7-2.6-1.8 0-2.6 1.4-2.7 2.6zm9.5-7.7h2.1V131h-2.1v-13.3z" class="st127"/></g><path d="M0 168.8h9.7v9.7H0v-9.7z" class="st63"/><path d="M13.4 168.8h9.7v9.7h-9.7v-9.7z" class="st64"/><path d="M26.7 168.8h9.7v9.7h-9.7v-9.7z" class="st65"/><path d="M40.1 168.8h9.7v9.7h-9.7v-9.7z" class="st66"/><path d="M53.4 168.8h9.7v9.7h-9.7v-9.7z" class="st67"/><path d="M66.8 168.8h9.7v9.7h-9.7v-9.7z" class="st68"/><path d="M80.2 168.8h9.7v9.7h-9.7v-9.7z" class="st69"/><path d="M93.5 168.8h9.7v9.7h-9.7v-9.7z" class="st70"/><path d="M106.9 168.8h9.7v9.7h-9.7v-9.7z" class="st71"/><path d="M120.3 168.8h9.7v9.7h-9.7v-9.7z" class="st72"/><path d="M133.6 168.8h9.7v9.7h-9.7v-9.7z" class="st73"/><path d="M147 168.8h9.7v9.7H147v-9.7z" class="st74"/><path d="M160.3 168.8h9.7v9.7h-9.7v-9.7z" class="st75"/><path d="M173.7 168.8h9.7v9.7h-9.7v-9.7z" class="st76"/><path d="M187.1 168.8h9.7v9.7h-9.7v-9.7z" class="st77"/><path d="M200.4 168.8h9.7v9.7h-9.7v-9.7z" class="st78"/><path d="M213.8 168.8h9.7v9.7h-9.7v-9.7z" class="st79"/><path d="M227.1 168.8h9.7v9.7h-9.7v-9.7z" class="st80"/><path d="M240.5 168.8h9.7v9.7h-9.7v-9.7z" class="st81"/><path d="M253.9 168.8h9.7v9.7h-9.7v-9.7z" class="st82"/><path d="M267.2 168.8h9.7v9.7h-9.7v-9.7z" class="st83"/><path d="M280.6 168.8h9.7v9.7h-9.7v-9.7z" class="st84"/><path d="M294 168.8h9.7v9.7H294v-9.7z" class="st85"/><path d="M307.3 168.8h9.7v9.7h-9.7v-9.7z" class="st86"/><path d="M320.7 168.8h9.7v9.7h-9.7v-9.7z" class="st87"/><path d="M334 168.8h9.7v9.7H334v-9.7z" class="st88"/><path d="M347.4 168.8h9.7v9.7h-9.7v-9.7z" class="st89"/><path d="M360.8 168.8h9.7v9.7h-9.7v-9.7z" class="st90"/><path d="M374.1 168.8h9.7v9.7h-9.7v-9.7z" class="st91"/><path d="M387.5 168.8h9.7v9.7h-9.7v-9.7z" class="st92"/><path d="M400.9 168.8h9.7v9.7h-9.7v-9.7z" class="st93"/><path d="M414.2 168.8h9.7v9.7h-9.7v-9.7z" class="st94"/><path d="M427.6 168.8h9.7v9.7h-9.7v-9.7z" class="st95"/><path d="M440.9 168.8h9.7v9.7h-9.7v-9.7z" class="st96"/><path d="M454.3 168.8h9.7v9.7h-9.7v-9.7z" class="st97"/><path d="M467.7 168.8h9.7v9.7h-9.7v-9.7z" class="st98"/><path d="M481 168.8h9.7v9.7H481v-9.7z" class="st99"/><path d="M494.4 168.8h9.7v9.7h-9.7v-9.7z" class="st100"/><path d="M507.7 168.8h9.7v9.7h-9.7v-9.7z" class="st101"/><path d="M521.1 168.8h9.7v9.7h-9.7v-9.7z" class="st102"/><path d="M534.5 168.8h9.7v9.7h-9.7v-9.7z" class="st103"/><path d="M547.8 168.8h9.7v9.7h-9.7v-9.7z" class="st104"/><path d="M561.2 168.8h9.7v9.7h-9.7v-9.7z" class="st105"/><path d="M574.6 168.8h9.7v9.7h-9.7v-9.7z" class="st106"/><path d="M587.9 168.8h9.7v9.7h-9.7v-9.7z" class="st107"/><path d="M601.3 168.8h9.7v9.7h-9.7v-9.7z" class="st108"/><path d="M614.6 168.8h9.7v9.7h-9.7v-9.7z" class="st109"/><path d="M628 168.8h9.7v9.7H628v-9.7z" class="st110"/><path d="M641.4 168.8h9.7v9.7h-9.7v-9.7z" class="st111"/><path d="M654.7 168.8h9.7v9.7h-9.7v-9.7z" class="st112"/><path d="M668.1 168.8h9.7v9.7h-9.7v-9.7z" class="st113"/><path d="M681.4 168.8h9.7v9.7h-9.7v-9.7z" class="st114"/><path d="M694.8 168.8h9.7v9.7h-9.7v-9.7z" class="st115"/><path d="M708.2 168.8h9.7v9.7h-9.7v-9.7z" class="st116"/><path d="M721.5 168.8h9.7v9.7h-9.7v-9.7z" class="st117"/><path d="M734.9 168.8h9.7v9.7h-9.7v-9.7z" class="st118"/><path d="M748.3 168.8h9.7v9.7h-9.7v-9.7z" class="st119"/><path d="M761.6 168.8h9.7v9.7h-9.7v-9.7z" class="st120"/><path d="M775 168.8h9.7v9.7H775v-9.7z" class="st121"/><path d="M788.3 168.8h9.7v9.7h-9.7v-9.7z" class="st122"/><path d="M801.7 168.8h9.7v9.7h-9.7v-9.7z" class="st123"/><path d="M815.1 168.8h9.7v9.7h-9.7v-9.7z" class="st124"/><g class="st125"><path d="M351.4 187.5h6.6c2.4 0 3.8 1.5 3.8 3.4 0 1.7-1.1 2.8-2.3 3.1 1.4.2 2.6 1.6 2.6 3.3 0 2.1-1.4 3.6-3.9 3.6h-6.7v-13.4h-.1zm6.1 5.5c1.2 0 1.9-.7 1.9-1.7s-.7-1.7-1.9-1.7h-3.7v3.5h3.7v-.1zm.1 5.8c1.3 0 2-.7 2-1.9 0-1-.7-1.8-2-1.8h-3.8v3.7h3.8zm6.7-11.3h2.1v13.3h-2.1v-13.3zm11.3 12.1c-.7.8-1.9 1.5-3.4 1.5-2.1 0-3.1-1.1-3.1-3.1v-6.8h2.1v6.1c0 1.5.8 2 1.9 2s2-.6 2.5-1.3v-6.8h2.1v9.7h-2.1v-1.3zm9.1-8.7c2.9 0 4.8 2.2 4.8 5.3v.5H382c.2 1.5 1.3 2.7 3.1 2.7.9 0 2.1-.4 2.7-1.1l1 1.4c-1 .9-2.4 1.4-3.9 1.4-2.9 0-5.1-2-5.1-5.1 0-2.8 2.1-5.1 4.9-5.1zm-2.7 4.3h5.4c0-1.1-.8-2.6-2.7-2.6-1.8.1-2.6 1.4-2.7 2.6zm14.2-1c0-4.1 3.1-6.9 6.9-6.9 2.8 0 4.5 1.4 5.5 3l-2 1c-.6-1.1-1.9-1.9-3.5-1.9-2.5 0-4.5 2-4.5 4.8s2 4.8 4.5 4.8c1.5 0 2.8-.8 3.5-1.9l2 1c-1 1.6-2.7 3-5.5 3-3.9 0-6.9-2.8-6.9-6.9zm20.7.6c0-1.5-.8-2-2-2-1.1 0-2 .6-2.5 1.3v6.7h-2.1v-13.3h2.1v5c.6-.8 1.9-1.6 3.4-1.6 2.1 0 3.1 1.1 3.1 3.1v6.8h-2.1v-6h.1zm10.7 5c-.7.8-1.8 1.3-3.1 1.3-1.6 0-3.4-1.1-3.4-3.2 0-2.2 1.8-3.1 3.4-3.1 1.3 0 2.4.4 3.1 1.2v-1.4c0-1.1-.9-1.8-2.3-1.8-1.1 0-2 .4-2.9 1.2l-.9-1.5c1.1-1.1 2.5-1.6 4.1-1.6 2.1 0 4 .9 4 3.5v6.4h-2.1l.1-1zm0-2.6c-.5-.7-1.4-1-2.3-1-1.2 0-2.1.7-2.1 1.7s.9 1.7 2.1 1.7c.9 0 1.8-.3 2.3-1v-1.4zm11.4-2.4c0-1.5-.8-2-1.9-2s-2 .6-2.5 1.3v6.7h-2.1v-9.7h2.1v1.3c.6-.8 1.9-1.6 3.4-1.6 2.1 0 3.1 1.1 3.1 3.1v6.8H439v-5.9zm11.3 0c0-1.5-.8-2-1.9-2s-2 .6-2.5 1.3v6.7h-2.1v-9.7h2.1v1.3c.6-.8 1.9-1.6 3.4-1.6 2.1 0 3.1 1.1 3.1 3.1v6.8h-2.1v-5.9zm9.1-3.9c2.9 0 4.8 2.2 4.8 5.3v.5h-7.5c.2 1.5 1.3 2.7 3.1 2.7.9 0 2.1-.4 2.7-1.1l1 1.4c-1 .9-2.4 1.4-3.9 1.4-2.9 0-5.1-2-5.1-5.1 0-2.8 2-5.1 4.9-5.1zm-2.7 4.3h5.4c0-1.1-.8-2.6-2.7-2.6-1.8.1-2.6 1.4-2.7 2.6zm9.5-7.7h2.1v13.3h-2.1v-13.3z" class="st128"/></g><g class="st125"><path d="M317.5 271.6h-2.3v5h-2.3v-13.3h5.9c2.6 0 4.4 1.7 4.4 4.2 0 2.4-1.6 3.7-3.2 3.9l3.3 5.2h-2.7l-3.1-5zm.8-6.3h-3.2v4.2h3.2c1.3 0 2.3-.8 2.3-2.1s-.9-2.1-2.3-2.1zm13.5-2.3c2.6 0 4.3 1.2 5.4 2.8l-1.9 1.1c-.7-1-2-1.8-3.5-1.8-2.6 0-4.6 2-4.6 4.8s2 4.8 4.6 4.8c1.4 0 2.6-.6 3.2-1.2v-2h-4v-2.1h6.3v5c-1.3 1.5-3.2 2.4-5.5 2.4-3.9 0-7-2.7-7-6.9s3.1-6.9 7-6.9zm7.9.2h6.6c2.4 0 3.8 1.5 3.8 3.4 0 1.7-1.1 2.8-2.3 3.1 1.4.2 2.6 1.6 2.6 3.3 0 2.1-1.4 3.6-3.9 3.6h-6.7v-13.4h-.1zm6.1 5.6c1.2 0 1.9-.7 1.9-1.7s-.7-1.7-1.9-1.7H342v3.5l3.8-.1zm.1 5.7c1.3 0 2-.7 2-1.9 0-1-.7-1.8-2-1.8H342v3.7h3.9zm11.3-4.6c0-4.1 3.1-6.9 6.9-6.9 2.8 0 4.5 1.4 5.5 3l-2 1c-.6-1.1-1.9-1.9-3.5-1.9-2.5 0-4.5 2-4.5 4.8s2 4.8 4.5 4.8c1.5 0 2.8-.8 3.5-1.9l2 1c-1 1.6-2.7 3-5.5 3-3.8 0-6.9-2.8-6.9-6.9zm13.6 1.8c0-2.8 1.9-5.1 5-5.1s5 2.3 5 5.1-1.9 5.1-5 5.1-5-2.3-5-5.1zm7.7 0c0-1.7-1-3.2-2.8-3.2s-2.8 1.5-2.8 3.2 1 3.2 2.8 3.2c1.8.1 2.8-1.4 2.8-3.2zm16.2-1.4c0-1-.5-1.7-1.6-1.7-.9 0-1.8.7-2.2 1.3v6.8h-2.1v-6.3c0-1-.5-1.7-1.6-1.7-.9 0-1.8.7-2.2 1.3v6.7h-2.1V267h2.1v1.3c.4-.6 1.7-1.6 3.1-1.6s2.3.7 2.6 1.8c.6-.9 1.8-1.8 3.3-1.8 1.8 0 2.8 1 2.8 2.9v7h-2.1v-6.3zm4.8 10V267h2.1v1.3c.7-1 1.8-1.6 3.1-1.6 2.5 0 4.3 1.9 4.3 5.1s-1.8 5.1-4.3 5.1c-1.2 0-2.3-.5-3.1-1.6v5h-2.1zm4.6-11.8c-1 0-2 .6-2.5 1.3v3.8c.5.7 1.5 1.3 2.5 1.3 1.7 0 2.7-1.3 2.7-3.2 0-1.8-1.1-3.2-2.7-3.2zm6.4 3.2c0-2.8 1.9-5.1 5-5.1s5 2.3 5 5.1-1.9 5.1-5 5.1-5-2.3-5-5.1zm7.8 0c0-1.7-1-3.2-2.8-3.2s-2.8 1.5-2.8 3.2 1 3.2 2.8 3.2c1.8.1 2.8-1.4 2.8-3.2zm4.4 2.1c.7.7 2 1.4 3.3 1.4s1.9-.5 1.9-1.2c0-.8-1-1.1-2.2-1.4-1.7-.4-3.6-.8-3.6-3 0-1.6 1.4-2.9 3.8-2.9 1.6 0 2.9.6 3.8 1.4l-.9 1.5c-.6-.7-1.7-1.2-2.9-1.2-1.1 0-1.8.4-1.8 1.1s1 1 2.1 1.3c1.7.4 3.7.8 3.7 3.1 0 1.7-1.4 3-4 3-1.6 0-3.1-.5-4.1-1.5l.9-1.6zm9-9.8c0-.7.6-1.3 1.3-1.3.7 0 1.3.6 1.3 1.3 0 .7-.6 1.3-1.3 1.3-.7 0-1.3-.6-1.3-1.3zm.3 2.9h2.1v9.7H432v-9.7zm5.2 7.4v-5.6h-1.6v-1.8h1.6v-2.6h2.1v2.6h2v1.8h-2v5.1c0 .7.3 1.1.9 1.1.4 0 .8-.2.9-.3l.5 1.6c-.4.4-1 .6-2 .6-1.5 0-2.4-.9-2.4-2.5zm10.3-7.6c2.9 0 4.8 2.2 4.8 5.3v.5h-7.5c.2 1.5 1.3 2.7 3.1 2.7.9 0 2.1-.4 2.7-1.1l1 1.4c-1 .9-2.4 1.4-3.9 1.4-2.9 0-5.1-2-5.1-5.1 0-2.9 2-5.1 4.9-5.1zm-2.7 4.3h5.4c0-1.1-.8-2.6-2.7-2.6-1.8 0-2.6 1.4-2.7 2.6zm14.7-7.8h2.3v13.3h-2.3v-13.3zm17 7.1c0-1-.5-1.7-1.6-1.7-.9 0-1.8.7-2.2 1.3v6.8h-2.1v-6.3c0-1-.5-1.7-1.6-1.7-.9 0-1.8.7-2.2 1.3v6.7h-2.1V267h2.1v1.3c.4-.6 1.7-1.6 3.1-1.6s2.3.7 2.6 1.8c.6-.9 1.8-1.8 3.3-1.8 1.8 0 2.8 1 2.8 2.9v7h-2.1v-6.3zm10.7 5.2c-.7.8-1.8 1.3-3.1 1.3-1.6 0-3.4-1.1-3.4-3.2 0-2.2 1.8-3.1 3.4-3.1 1.3 0 2.4.4 3.1 1.2v-1.4c0-1.1-.9-1.8-2.3-1.8-1.1 0-2 .4-2.9 1.2l-.9-1.5c1.1-1.1 2.5-1.6 4.1-1.6 2.1 0 4 .9 4 3.5v6.4h-2.1l.1-1zm0-2.6c-.5-.7-1.4-1-2.3-1-1.2 0-2.1.7-2.1 1.7s.9 1.7 2.1 1.7c.9 0 1.8-.3 2.3-1v-1.4zm5.7 4.6c.8.9 1.8 1.2 3.1 1.2 1.4 0 2.9-.6 2.9-2.6v-1.2c-.7 1-1.8 1.6-3.1 1.6-2.5 0-4.3-1.8-4.3-5 0-3.1 1.8-5 4.3-5 1.2 0 2.3.6 3.1 1.6v-1.3h2.1v9.2c0 3.5-2.6 4.4-5 4.4-1.6 0-2.9-.4-4-1.4l.9-1.5zm5.9-7.7c-.5-.7-1.5-1.3-2.5-1.3-1.7 0-2.7 1.2-2.7 3.1s1.1 3.1 2.7 3.1c1 0 2-.6 2.5-1.3v-3.6zm9.1-3.1c2.9 0 4.8 2.2 4.8 5.3v.5h-7.5c.2 1.5 1.3 2.7 3.1 2.7.9 0 2.1-.4 2.7-1.1l1 1.4c-1 .9-2.4 1.4-3.9 1.4-2.9 0-5.1-2-5.1-5.1 0-2.9 2.1-5.1 4.9-5.1zm-2.7 4.3h5.4c0-1.1-.8-2.6-2.7-2.6-1.8 0-2.6 1.4-2.7 2.6z" class="st129"/></g></svg>