<svg xmlns="http://www.w3.org/2000/svg" id="Layer_1" viewBox="0 0 983.22 870.1" width="983.22" height="870.1"><defs><style>.cls-1{fill:#464646}.cls-2{fill:#fff;stroke:#464646;stroke-miterlimit:10;stroke-width:40px}</style></defs><path d="M713.6 213.06a313.63 313.63 0 0 0-396.72-38.87l-58.53-48.29-33 196.68 186.85-69.75-54.75-45.17a264 264 0 0 1 398.11 227.4h50a311.89 311.89 0 0 0-91.96-222zm66.96 334.46l-186.84 69.76 54.75 45.17a264 264 0 0 1-398.11-227.4h-50A313.84 313.84 0 0 0 689 695.92l58.53 48.29z" class="cls-1"/><circle cx="491.61" cy="435.05" r="144" class="cls-2"/><circle cx="491.61" cy="435.05" r="80.37" class="cls-2"/></svg>