<svg xmlns="http://www.w3.org/2000/svg" id="Layer_1" viewBox="0 0 983.22 870.1" width="983.22" height="870.1"><defs><style>.cls-1{fill:#464646}.cls-2{fill:#fff;stroke:#464646;stroke-miterlimit:10;stroke-width:41.13px}</style></defs><path d="M547.14 343c6.82-5.68 13.84-11.47 22.23-14.4s18.55-2.42 25.11 3.56c11.46 10.46 5.93 29.22-.42 43.37l-55.44 123.69a471.89 471.89 0 0 0 119.28 29.19c8.56.94 17.57 1.58 25.46-1.87 14.39-6.29 20-23.49 23.21-38.86 6.43-30.66 9.77-62.54 3.64-93.27s-22.7-60.34-49.2-77-63.45-18-88.25 1.1" class="cls-1"/><circle cx="567.24" cy="663.88" r="148.06" class="cls-2"/><circle cx="567.24" cy="663.88" r="82.64" class="cls-2"/><circle cx="778.03" cy="515.82" r="148.06" class="cls-2"/><circle cx="778.03" cy="515.82" r="82.64" class="cls-2"/><path d="M355.22 117.78l-53.8 53.8L414.84 285l-46.53 46.53-113.42-113.42L57.13 415.87l226.84 226.85 298.1-298.1-226.85-226.84z" class="cls-1"/><path d="M188.54 57.93h65.81v160.4h-65.81z" class="cls-1" transform="rotate(-45 221.438 138.137)"/></svg>