<svg xmlns="http://www.w3.org/2000/svg" xmlns:xlink="http://www.w3.org/1999/xlink" id="Layer_1" viewBox="0 0 311.5 165.5" width="311.5" height="165.5"><defs><style>.cls-1{fill:#00683f}.cls-2{fill:url(#linear-gradient)}.cls-3{fill:#bcbec0}.cls-4{fill:#d1d3d4}.cls-13,.cls-5{fill:none;stroke-miterlimit:10}.cls-5{stroke:#808285;stroke-width:.47px}.cls-6{fill:#e6e7e8}.cls-7{fill:#a7a9ac}.cls-8{fill:url(#linear-gradient-2)}.cls-9{fill:#94c948}.cls-10{fill:#808285}.cls-11{fill:url(#linear-gradient-3)}.cls-12{fill:#f1f2f2}.cls-13{stroke:#939598;stroke-width:.5px}</style><linearGradient id="linear-gradient" x1="33.53" x2="104.85" y1="85.43" y2="85.43" gradientUnits="userSpaceOnUse"><stop offset="0"/><stop offset="1" stop-color="#6d6e71"/></linearGradient><linearGradient id="linear-gradient-2" x1="33.53" x2="77.52" y1="77.92" y2="77.92" xlink:href="#linear-gradient"/><linearGradient id="linear-gradient-3" x1="201.05" x2="271.24" y1="75.16" y2="75.16" xlink:href="#linear-gradient"/></defs><path d="M33.11 150a2.87 2.87 0 0 0 2.11.92c1 0 1.34-.47 1.34-.91 0-.6-.71-.78-1.52-1-1.09-.27-2.37-.59-2.37-2 0-1.1 1-1.95 2.43-1.95a3.47 3.47 0 0 1 2.5.93l-.67.87a2.71 2.71 0 0 0-1.93-.76c-.69 0-1.13.33-1.13.83s.68.69 1.47.89c1.1.28 2.41.62 2.41 2.07 0 1.11-.78 2.06-2.58 2.06a3.57 3.57 0 0 1-2.71-1.06zm8.64 1.32a2 2 0 0 1-1.56.64 1.6 1.6 0 0 1-1.68-1.6 1.55 1.55 0 0 1 1.68-1.57 2 2 0 0 1 1.56.62v-.72c0-.56-.46-.9-1.13-.9a2 2 0 0 0-1.43.61l-.43-.73a2.87 2.87 0 0 1 2-.78c1.07 0 2 .45 2 1.75v3.2h-1zm0-1.31a1.41 1.41 0 0 0-1.15-.5.88.88 0 1 0 0 1.73 1.41 1.41 0 0 0 1.15-.5zm5.81 1.17A2 2 0 0 1 46 152c-1.24 0-2.15-.94-2.15-2.53s.9-2.54 2.15-2.54a1.94 1.94 0 0 1 1.55.79v-2.51h1v6.67h-1zm0-2.71a1.59 1.59 0 0 0-1.25-.65 1.63 1.63 0 0 0 0 3.21 1.58 1.58 0 0 0 1.25-.64zm5.81 2.71a2 2 0 0 1-1.55.78c-1.24 0-2.15-.94-2.15-2.53s.9-2.54 2.15-2.54a1.94 1.94 0 0 1 1.55.79v-2.51h1v6.67h-1zm0-2.71a1.59 1.59 0 0 0-1.25-.65 1.63 1.63 0 0 0 0 3.21 1.58 1.58 0 0 0 1.25-.64zm2.41-3.3h1v6.67h-1zm4.56 1.72a2.39 2.39 0 0 1 2.38 2.63v.25H59a1.46 1.46 0 0 0 1.54 1.33 2 2 0 0 0 1.37-.53l.48.69a2.81 2.81 0 0 1-2 .7 2.53 2.53 0 0 1-.08-5.07zM59 149h2.7a1.29 1.29 0 0 0-1.36-1.28A1.33 1.33 0 0 0 59 149zm7.58 1a2.87 2.87 0 0 0 2.11.92c1 0 1.34-.47 1.34-.91 0-.6-.71-.78-1.52-1-1.09-.27-2.37-.59-2.37-2 0-1.1 1-1.95 2.43-1.95a3.47 3.47 0 0 1 2.5.93l-.67.87a2.71 2.71 0 0 0-1.93-.76c-.69 0-1.13.33-1.13.83s.68.69 1.47.89c1.1.28 2.41.62 2.41 2.07 0 1.11-.78 2.06-2.58 2.06a3.56 3.56 0 0 1-2.71-1.06zm5.75.72v-2.79h-.8V147h.8v-1.32h1V147h1v.92h-1v2.53c0 .33.16.57.46.57a.68.68 0 0 0 .47-.17l.25.79a1.38 1.38 0 0 1-1 .31 1.11 1.11 0 0 1-1.18-1.23zm2.85-5.16a.65.65 0 0 1 .65-.65.65.65 0 0 1 0 1.3.65.65 0 0 1-.65-.65zm.13 1.45h1v4.83h-1zm2.62 3.71v-2.79h-.8V147h.8v-1.32h1V147h1v.92H79v2.53c0 .33.16.57.46.57a.68.68 0 0 0 .47-.17l.25.79a1.38 1.38 0 0 1-1 .31 1.11 1.11 0 0 1-1.25-1.23zm5.18-3.83a2.16 2.16 0 0 1 1.85.86l-.69.64a1.29 1.29 0 0 0-1.11-.57 1.61 1.61 0 0 0 0 3.21 1.31 1.31 0 0 0 1.11-.57l.69.64a2.16 2.16 0 0 1-1.85.86 2.53 2.53 0 0 1 0-5.07zm6.04 1.91c0-.75-.39-1-1-1a1.62 1.62 0 0 0-1.24.65v3.37h-1v-6.67h1v2.5a2.31 2.31 0 0 1 1.71-.78 1.38 1.38 0 0 1 1.56 1.53v3.42h-1zm4.56-1.91a2.39 2.39 0 0 1 2.38 2.63v.25h-3.73a1.46 1.46 0 0 0 1.54 1.33 2 2 0 0 0 1.37-.53l.48.69a2.81 2.81 0 0 1-2 .7 2.53 2.53 0 0 1-.08-5.07zM92.35 149h2.72a1.29 1.29 0 0 0-1.36-1.28 1.33 1.33 0 0 0-1.36 1.28zm8.18 2.18A2 2 0 0 1 99 152c-1.24 0-2.15-.94-2.15-2.53s.9-2.54 2.15-2.54a1.94 1.94 0 0 1 1.55.79v-2.51h1v6.67h-1zm0-2.71a1.59 1.59 0 0 0-1.25-.65 1.63 1.63 0 0 0 0 3.21 1.58 1.58 0 0 0 1.25-.64zm109.47-.25h1.17v5.64h2.94v1H210zm4.64 4.24a2.48 2.48 0 1 1 2.48 2.54 2.42 2.42 0 0 1-2.48-2.54zm3.88 0a1.41 1.41 0 1 0-1.4 1.61 1.45 1.45 0 0 0 1.4-1.61zm1.85 0a2.48 2.48 0 1 1 2.48 2.54 2.42 2.42 0 0 1-2.48-2.54zm3.88 0a1.41 1.41 0 1 0-1.4 1.61 1.45 1.45 0 0 0 1.4-1.61zm2.21 1.03a2.49 2.49 0 0 0 1.64.68c.63 0 .95-.23.95-.59s-.51-.57-1.1-.7c-.83-.18-1.82-.4-1.82-1.48 0-.79.68-1.47 1.9-1.47a2.76 2.76 0 0 1 1.88.68l-.44.74a2 2 0 0 0-1.43-.58c-.55 0-.9.2-.9.54s.48.5 1 .63c.84.18 1.87.42 1.87 1.56 0 .85-.71 1.5-2 1.5a2.94 2.94 0 0 1-2.07-.75zm6.81-3.56a2.39 2.39 0 0 1 2.38 2.63v.25h-3.73a1.46 1.46 0 0 0 1.54 1.33 2 2 0 0 0 1.37-.53l.48.69a2.81 2.81 0 0 1-2 .7 2.53 2.53 0 0 1-.08-5.07zm-1.36 2.14h2.72a1.29 1.29 0 0 0-1.36-1.28 1.33 1.33 0 0 0-1.36 1.28zm7.6.93a2.87 2.87 0 0 0 2.11.92c1 0 1.34-.47 1.34-.91 0-.6-.71-.78-1.52-1-1.09-.27-2.37-.59-2.37-2 0-1.1 1-1.95 2.43-1.95a3.47 3.47 0 0 1 2.5.93l-.67.87a2.71 2.71 0 0 0-1.93-.76c-.69 0-1.13.33-1.13.83s.68.69 1.47.89c1.1.28 2.41.62 2.41 2.07 0 1.11-.78 2.06-2.58 2.06a3.56 3.56 0 0 1-2.71-1.06zm8.96-1.16c0-.75-.39-1-1-1a1.62 1.62 0 0 0-1.24.65v3.37h-1v-6.67h1v2.5a2.31 2.31 0 0 1 1.71-.78 1.38 1.38 0 0 1 1.56 1.53v3.42h-1zm4.53-1.91a2.39 2.39 0 0 1 2.38 2.63v.25h-3.73a1.46 1.46 0 0 0 1.54 1.33 2 2 0 0 0 1.37-.53l.48.69a2.81 2.81 0 0 1-2 .7 2.53 2.53 0 0 1-.08-5.07zm-1.36 2.14h2.72a1.29 1.29 0 0 0-1.36-1.28 1.33 1.33 0 0 0-1.33 1.28zm6.96-2.14a2.39 2.39 0 0 1 2.38 2.63v.25h-3.73a1.46 1.46 0 0 0 1.54 1.33 2 2 0 0 0 1.37-.53l.48.69a2.81 2.81 0 0 1-2 .7 2.53 2.53 0 0 1-.08-5.07zm-1.36 2.14H260a1.29 1.29 0 0 0-1.36-1.28 1.33 1.33 0 0 0-1.4 1.28zm4.99 1.69V151h-.8v-.92h.8v-1.32h1v1.32h1v.92h-1v2.53c0 .33.16.57.46.57a.68.68 0 0 0 .47-.17l.25.79a1.38 1.38 0 0 1-1 .31 1.11 1.11 0 0 1-1.18-1.27zm3.04-.27a2.49 2.49 0 0 0 1.64.68c.63 0 .95-.23.95-.59s-.51-.57-1.1-.7c-.83-.18-1.82-.4-1.82-1.48 0-.79.68-1.47 1.9-1.47a2.76 2.76 0 0 1 1.88.68l-.44.74a2 2 0 0 0-1.43-.58c-.55 0-.9.2-.9.54s.48.5 1 .63c.84.18 1.87.42 1.87 1.56 0 .85-.71 1.5-2 1.5a2.94 2.94 0 0 1-2.07-.75z" class="cls-1"/><path d="M33.53 39.28h71.31v92.29H33.53z" class="cls-2"/><path d="M42.41 29.27h71.31v92.29H42.41z" class="cls-3"/><path d="M43.85 27.8h71.31v92.29H43.85z" class="cls-4"/><path d="M29.64 62.07h-2a.65.65 0 0 1-.65-.65v-5a.65.65 0 0 1 .65-.65h2m0 62.23h-2a.65.65 0 0 1-.65-.65v-5a.65.65 0 0 1 .65-.65h2" class="cls-5"/><path d="M45.23 26.38h71.31v92.29H45.23z" class="cls-6"/><path d="M45.23 118.67l43.99-15.02V11.36L45.23 26.38v92.29z" class="cls-4"/><path d="M43.85 120.09l43.99-15.02V12.78L43.85 27.8v92.29z" class="cls-3"/><path d="M42.41 121.56l43.98-15.01V14.26L42.41 29.27v92.29z" class="cls-7"/><path d="M33.53 131.57l43.99-15.01V24.27L33.53 39.28v92.29z" class="cls-8"/><path d="M9.49 46.48a2.68 2.68 0 0 1 2.76-2.76 2.43 2.43 0 0 1 2.18 1.2l-.8.41a1.6 1.6 0 0 0-1.38-.78 1.93 1.93 0 0 0 0 3.85 1.58 1.58 0 0 0 1.38-.78l.8.41a2.44 2.44 0 0 1-2.18 1.2 2.68 2.68 0 0 1-2.76-2.75zm5.43.73a2 2 0 1 1 2 2 1.93 1.93 0 0 1-2-2zm3.1 0a1.13 1.13 0 1 0-1.12 1.29 1.16 1.16 0 0 0 1.1-1.29zm1.17-1.93h.9l1.13 2.89 1.13-2.89h.9l-1.58 3.86h-.9zm6.3-.1a1.91 1.91 0 0 1 1.9 2.1v.2h-3a1.17 1.17 0 0 0 1.23 1.06 1.63 1.63 0 0 0 1.09-.42l.38.55a2.25 2.25 0 0 1-1.57.56 2 2 0 0 1-.06-4.05zM24.4 46.9h2.17a1 1 0 0 0-1.09-1 1.06 1.06 0 0 0-1.08 1zm3.83-1.62h.84v.57a1.65 1.65 0 0 1 1.26-.66V46h-.26a1.33 1.33 0 0 0-1 .51v2.63h-.84zm64.94-25.46a2.68 2.68 0 0 1 2.76-2.76 2.43 2.43 0 0 1 2.18 1.2l-.8.41a1.6 1.6 0 0 0-1.38-.78 1.82 1.82 0 0 0-1.8 1.93 1.82 1.82 0 0 0 1.8 1.93 1.58 1.58 0 0 0 1.38-.75l.8.41a2.44 2.44 0 0 1-2.18 1.2 2.68 2.68 0 0 1-2.76-2.79zm5.43.73a2 2 0 1 1 2 2 1.93 1.93 0 0 1-2-2zm3.1 0a1.13 1.13 0 1 0-2.23 0 1.13 1.13 0 1 0 2.23 0zm4.3-.48c0-.6-.3-.8-.78-.8a1.27 1.27 0 0 0-1 .52v2.69h-.84v-3.86h.84v.53a1.83 1.83 0 0 1 1.36-.62 1.11 1.11 0 0 1 1.25 1.24v2.72H106zm2.13 1.52v-2.23h-.64v-.74h.64v-1.05h.87v1.06h.78v.74H109v2c0 .26.13.46.37.46a.54.54 0 0 0 .38-.14l.2.63a1.1 1.1 0 0 1-.79.25.89.89 0 0 1-1.03-.98zm4.1-3.06a1.91 1.91 0 0 1 1.9 2.1v.2h-3a1.17 1.17 0 0 0 1.23 1.06 1.63 1.63 0 0 0 1.09-.42l.38.55a2.25 2.25 0 0 1-1.57.56 2 2 0 0 1-.06-4.05zm-1.09 1.71h2.17a1 1 0 0 0-1.09-1 1.06 1.06 0 0 0-1.08 1zm6.43-.17c0-.6-.3-.8-.78-.8a1.27 1.27 0 0 0-1 .52v2.69H115v-3.86h.84v.53a1.83 1.83 0 0 1 1.36-.62 1.11 1.11 0 0 1 1.25 1.24v2.72h-.84zm2.1 1.52v-2.23H119v-.74h.64v-1.05h.84v1.06h.78v.74h-.78v2c0 .26.13.46.37.46a.54.54 0 0 0 .38-.14l.2.63a1.1 1.1 0 0 1-.79.25.89.89 0 0 1-.97-.98zm2.43-.22a2 2 0 0 0 1.31.54c.5 0 .76-.18.76-.47s-.41-.46-.88-.56c-.66-.14-1.46-.32-1.46-1.18 0-.63.54-1.18 1.52-1.18a2.21 2.21 0 0 1 1.5.54l-.35.59a1.55 1.55 0 0 0-1.14-.46c-.44 0-.72.16-.72.43s.38.4.84.5c.67.14 1.5.34 1.5 1.25 0 .68-.57 1.2-1.61 1.2a2.35 2.35 0 0 1-1.66-.6z" class="cls-9"/><path d="M278.74 130.85l-70.2-.24v-99l70.2.24v99z" class="cls-10"/><circle cx="211.08" cy="35.94" r="1" class="cls-10"/><circle cx="211.08" cy="39.51" r="1" class="cls-10"/><circle cx="211.08" cy="43.08" r="1" class="cls-10"/><circle cx="211.08" cy="46.65" r="1" class="cls-10"/><circle cx="211.08" cy="50.22" r="1" class="cls-10"/><circle cx="211.08" cy="53.79" r="1" class="cls-10"/><circle cx="211.08" cy="57.36" r="1" class="cls-10"/><circle cx="211.08" cy="60.93" r="1" class="cls-10"/><circle cx="211.08" cy="64.5" r="1" class="cls-10"/><circle cx="211.08" cy="68.07" r="1" class="cls-10"/><circle cx="211.08" cy="71.64" r="1" class="cls-10"/><circle cx="211.08" cy="75.21" r="1" class="cls-10"/><circle cx="211.08" cy="78.78" r="1" class="cls-10"/><circle cx="211.08" cy="82.35" r="1" class="cls-10"/><circle cx="211.08" cy="85.92" r="1" class="cls-10"/><circle cx="211.08" cy="89.49" r="1" class="cls-10"/><circle cx="211.08" cy="93.06" r="1" class="cls-10"/><circle cx="211.08" cy="96.63" r="1" class="cls-10"/><circle cx="211.08" cy="100.2" r="1" class="cls-10"/><circle cx="211.08" cy="103.77" r="1" class="cls-10"/><circle cx="211.08" cy="107.34" r="1" class="cls-10"/><circle cx="211.08" cy="110.91" r="1" class="cls-10"/><circle cx="211.08" cy="114.48" r="1" class="cls-10"/><circle cx="211.08" cy="118.05" r="1" class="cls-10"/><circle cx="211.08" cy="121.62" r="1" class="cls-10"/><circle cx="211.08" cy="125.19" r="1" class="cls-10"/><path d="M277.83 129.94l-70.2-.24v-99l70.2.24v99z" class="cls-7"/><circle cx="210.17" cy="35.04" r="1" class="cls-3"/><circle cx="210.17" cy="38.61" r="1" class="cls-3"/><circle cx="210.17" cy="42.18" r="1" class="cls-3"/><circle cx="210.17" cy="45.75" r="1" class="cls-3"/><circle cx="210.17" cy="49.31" r="1" class="cls-3"/><circle cx="210.17" cy="52.88" r="1" class="cls-3"/><circle cx="210.17" cy="56.45" r="1" class="cls-3"/><circle cx="210.17" cy="60.02" r="1" class="cls-3"/><circle cx="210.17" cy="63.59" r="1" class="cls-3"/><circle cx="210.17" cy="67.16" r="1" class="cls-3"/><circle cx="210.17" cy="70.73" r="1" class="cls-3"/><circle cx="210.17" cy="74.3" r="1" class="cls-3"/><circle cx="210.17" cy="77.87" r="1" class="cls-3"/><circle cx="210.17" cy="81.44" r="1" class="cls-3"/><circle cx="210.17" cy="85.01" r="1" class="cls-3"/><circle cx="210.17" cy="88.58" r="1" class="cls-3"/><circle cx="210.17" cy="92.15" r="1" class="cls-3"/><circle cx="210.17" cy="95.72" r="1" class="cls-3"/><circle cx="210.17" cy="99.29" r="1" class="cls-3"/><circle cx="210.17" cy="102.86" r="1" class="cls-3"/><circle cx="210.17" cy="106.43" r="1" class="cls-3"/><circle cx="210.17" cy="110" r="1" class="cls-3"/><circle cx="210.17" cy="113.57" r="1" class="cls-3"/><circle cx="210.17" cy="117.14" r="1" class="cls-3"/><circle cx="210.17" cy="120.71" r="1" class="cls-3"/><circle cx="210.17" cy="124.28" r="1" class="cls-3"/><path d="M276.77 128.88l-70.2-.24v-99l70.2.24v99z" class="cls-4"/><circle cx="209.11" cy="33.98" r="1" class="cls-3"/><circle cx="209.11" cy="37.55" r="1" class="cls-3"/><circle cx="209.11" cy="41.12" r="1" class="cls-3"/><circle cx="209.11" cy="44.69" r="1" class="cls-3"/><circle cx="209.11" cy="48.26" r="1" class="cls-3"/><circle cx="209.11" cy="51.83" r="1" class="cls-3"/><circle cx="209.11" cy="55.39" r="1" class="cls-3"/><circle cx="209.11" cy="58.96" r="1" class="cls-3"/><circle cx="209.11" cy="62.53" r="1" class="cls-3"/><circle cx="209.11" cy="66.1" r="1" class="cls-3"/><circle cx="209.11" cy="69.67" r="1" class="cls-3"/><circle cx="209.11" cy="73.24" r="1" class="cls-3"/><circle cx="209.11" cy="76.81" r="1" class="cls-3"/><circle cx="209.11" cy="80.38" r="1" class="cls-3"/><circle cx="209.11" cy="83.95" r="1" class="cls-3"/><circle cx="209.11" cy="87.52" r="1" class="cls-3"/><circle cx="209.11" cy="91.09" r="1" class="cls-3"/><circle cx="209.11" cy="94.66" r="1" class="cls-3"/><circle cx="209.11" cy="98.23" r="1" class="cls-3"/><circle cx="209.11" cy="101.8" r="1" class="cls-3"/><circle cx="209.11" cy="105.37" r="1" class="cls-3"/><circle cx="209.11" cy="108.94" r="1" class="cls-3"/><circle cx="209.11" cy="112.51" r="1" class="cls-3"/><circle cx="209.11" cy="116.08" r="1" class="cls-3"/><circle cx="209.11" cy="119.65" r="1" class="cls-3"/><circle cx="209.11" cy="123.22" r="1" class="cls-3"/><path d="M271.24 124.78l-70.19-.24v-99l70.19.24v99z" class="cls-11"/><circle cx="203.58" cy="29.87" r="1" class="cls-12"/><circle cx="203.58" cy="33.44" r="1" class="cls-12"/><circle cx="203.58" cy="37.01" r="1" class="cls-12"/><circle cx="203.58" cy="40.58" r="1" class="cls-12"/><circle cx="203.58" cy="44.15" r="1" class="cls-12"/><circle cx="203.58" cy="47.72" r="1" class="cls-12"/><circle cx="203.58" cy="51.29" r="1" class="cls-12"/><circle cx="203.58" cy="54.86" r="1" class="cls-12"/><circle cx="203.58" cy="58.43" r="1" class="cls-12"/><circle cx="203.58" cy="62" r="1" class="cls-12"/><circle cx="203.58" cy="65.57" r="1" class="cls-12"/><circle cx="203.58" cy="69.14" r="1" class="cls-12"/><circle cx="203.58" cy="72.71" r="1" class="cls-12"/><circle cx="203.58" cy="76.28" r="1" class="cls-12"/><circle cx="203.58" cy="79.85" r="1" class="cls-12"/><circle cx="203.58" cy="83.42" r="1" class="cls-12"/><circle cx="203.58" cy="86.99" r="1" class="cls-12"/><circle cx="203.58" cy="90.56" r="1" class="cls-12"/><circle cx="203.58" cy="94.13" r="1" class="cls-12"/><circle cx="203.58" cy="97.7" r="1" class="cls-12"/><circle cx="203.58" cy="101.27" r="1" class="cls-12"/><circle cx="203.58" cy="104.84" r="1" class="cls-12"/><circle cx="203.58" cy="108.41" r="1" class="cls-12"/><circle cx="203.58" cy="111.97" r="1" class="cls-12"/><circle cx="203.58" cy="115.54" r="1" class="cls-12"/><circle cx="203.58" cy="119.11" r="1" class="cls-12"/><path d="M247.93 135.71a2.68 2.68 0 0 1 2.76-2.76 2.43 2.43 0 0 1 2.18 1.2l-.8.41a1.6 1.6 0 0 0-1.38-.78 1.93 1.93 0 0 0 0 3.85 1.58 1.58 0 0 0 1.38-.78l.8.41a2.44 2.44 0 0 1-2.18 1.2 2.68 2.68 0 0 1-2.76-2.75zm5.43.72a2 2 0 1 1 2 2 1.93 1.93 0 0 1-2-2zm3.1 0a1.13 1.13 0 1 0-1.12 1.29 1.16 1.16 0 0 0 1.12-1.29zm4.33-.43c0-.6-.3-.8-.78-.8a1.27 1.27 0 0 0-1 .52v2.69h-.84v-3.86h.83v.45a1.83 1.83 0 0 1 1.36-.62 1.11 1.11 0 0 1 1.25 1.24v2.72h-.84zm2.1 1.47v-2.23h-.64v-.74h.64v-1.06h.84v1.06h.78v.74h-.78v2c0 .26.13.46.37.46a.54.54 0 0 0 .38-.14l.2.63a1.1 1.1 0 0 1-.79.25.89.89 0 0 1-1-.97zm4.11-3.06a1.91 1.91 0 0 1 1.9 2.1v.2h-3a1.17 1.17 0 0 0 1.23 1.06 1.63 1.63 0 0 0 1.09-.42l.38.55a2.25 2.25 0 0 1-1.57.56 2 2 0 0 1-.06-4.05zm-1.09 1.71h2.17a1 1 0 0 0-1.09-1 1.06 1.06 0 0 0-1.08 1zm6.43-.12c0-.6-.3-.8-.78-.8a1.27 1.27 0 0 0-1 .52v2.69h-.84v-3.86h.84v.45a1.83 1.83 0 0 1 1.36-.62 1.11 1.11 0 0 1 1.25 1.24v2.72h-.84zm2.09 1.47v-2.23h-.64v-.74h.64v-1.06h.84v1.06h.78v.74h-.78v2c0 .26.13.46.37.46a.54.54 0 0 0 .38-.14l.2.63a1.1 1.1 0 0 1-.79.25.89.89 0 0 1-1-.97zm2.44-.21a2 2 0 0 0 1.31.54c.5 0 .76-.18.76-.47s-.41-.46-.88-.56c-.66-.14-1.46-.32-1.46-1.18 0-.63.54-1.18 1.52-1.18a2.21 2.21 0 0 1 1.5.54l-.35.59a1.55 1.55 0 0 0-1.14-.46c-.44 0-.72.16-.72.43s.38.4.84.5c.67.14 1.5.34 1.5 1.25 0 .68-.57 1.2-1.61 1.2a2.35 2.35 0 0 1-1.66-.6zM202.11 21.6a2.68 2.68 0 0 1 2.76-2.76 2.43 2.43 0 0 1 2.18 1.2l-.8.41a1.6 1.6 0 0 0-1.38-.78 1.93 1.93 0 0 0 0 3.85 1.58 1.58 0 0 0 1.38-.78l.8.41a2.44 2.44 0 0 1-2.18 1.2 2.68 2.68 0 0 1-2.76-2.75zm5.43.73a2 2 0 1 1 2 2 1.93 1.93 0 0 1-2-2zm3.1 0a1.13 1.13 0 1 0-2.23 0 1.13 1.13 0 1 0 2.23 0zm1.17-1.93h.9l1.13 2.89L215 20.4h.9l-1.58 3.86h-.9zm6.3-.09a1.91 1.91 0 0 1 1.9 2.1v.2h-3a1.17 1.17 0 0 0 1.23 1.06 1.63 1.63 0 0 0 1.09-.42l.38.55a2.25 2.25 0 0 1-1.57.56 2 2 0 0 1-.06-4.05zM217 22h2.17a1 1 0 0 0-1.09-1 1.06 1.06 0 0 0-1.08 1zm3.85-1.6h.84v.6a1.65 1.65 0 0 1 1.26-.66v.83h-.26a1.33 1.33 0 0 0-1 .51v2.63h-.84z" class="cls-9"/><circle cx="203.58" cy="29.87" r="1" class="cls-3"/><path d="M203.58 29.87c0-1-1.15-1.78-2.57-1.78s-2.57.8-2.57 1.78 1.15 1.78 2.57 1.78" class="cls-13"/><circle cx="203.58" cy="33.44" r="1" class="cls-3"/><path d="M203.58 33.44c0-1-1.15-1.78-2.57-1.78s-2.57.8-2.57 1.78 1.15 1.78 2.57 1.78" class="cls-13"/><circle cx="203.58" cy="37.01" r="1" class="cls-3"/><path d="M203.58 37c0-1-1.15-1.78-2.57-1.78s-2.57.8-2.57 1.78 1.15 1.78 2.57 1.78" class="cls-13"/><circle cx="203.58" cy="40.58" r="1" class="cls-3"/><path d="M203.58 40.58c0-1-1.15-1.78-2.57-1.78s-2.57.8-2.57 1.78 1.15 1.78 2.57 1.78" class="cls-13"/><circle cx="203.58" cy="44.15" r="1" class="cls-3"/><path d="M203.58 44.15c0-1-1.15-1.78-2.57-1.78s-2.57.8-2.57 1.78 1.15 1.78 2.57 1.78" class="cls-13"/><circle cx="203.58" cy="47.72" r="1" class="cls-3"/><path d="M203.58 47.72c0-1-1.15-1.78-2.57-1.78s-2.57.8-2.57 1.78 1.15 1.78 2.57 1.78" class="cls-13"/><circle cx="203.58" cy="51.29" r="1" class="cls-3"/><path d="M203.58 51.29c0-1-1.15-1.78-2.57-1.78s-2.57.8-2.57 1.78 1.15 1.78 2.57 1.78" class="cls-13"/><circle cx="203.58" cy="54.86" r="1" class="cls-3"/><path d="M203.58 54.86c0-1-1.15-1.78-2.57-1.78s-2.57.8-2.57 1.78 1.15 1.78 2.57 1.78" class="cls-13"/><circle cx="203.58" cy="58.43" r="1" class="cls-3"/><path d="M203.58 58.43c0-1-1.15-1.78-2.57-1.78s-2.57.8-2.57 1.78 1.15 1.78 2.57 1.78" class="cls-13"/><circle cx="203.58" cy="62" r="1" class="cls-3"/><path d="M203.58 62c0-1-1.15-1.78-2.57-1.78s-2.57.8-2.57 1.78 1.15 1.78 2.57 1.78" class="cls-13"/><circle cx="203.58" cy="65.57" r="1" class="cls-3"/><path d="M203.58 65.57c0-1-1.15-1.78-2.57-1.78s-2.57.8-2.57 1.78 1.15 1.78 2.57 1.78" class="cls-13"/><circle cx="203.58" cy="69.14" r="1" class="cls-3"/><path d="M203.58 69.14c0-1-1.15-1.78-2.57-1.78s-2.57.8-2.57 1.78 1.15 1.78 2.57 1.78" class="cls-13"/><circle cx="203.58" cy="72.71" r="1" class="cls-3"/><path d="M203.58 72.71c0-1-1.15-1.78-2.57-1.78s-2.57.8-2.57 1.78 1.15 1.78 2.57 1.78" class="cls-13"/><circle cx="203.58" cy="76.28" r="1" class="cls-3"/><path d="M203.58 76.28c0-1-1.15-1.78-2.57-1.78s-2.57.8-2.57 1.78 1.15 1.78 2.57 1.78" class="cls-13"/><circle cx="203.58" cy="79.85" r="1" class="cls-3"/><path d="M203.58 79.85c0-1-1.15-1.78-2.57-1.78s-2.57.8-2.57 1.78 1.15 1.78 2.57 1.78" class="cls-13"/><circle cx="203.58" cy="83.42" r="1" class="cls-3"/><path d="M203.58 83.42c0-1-1.15-1.78-2.57-1.78s-2.57.8-2.57 1.78 1.15 1.78 2.57 1.78" class="cls-13"/><circle cx="203.58" cy="86.99" r="1" class="cls-3"/><path d="M203.58 87c0-1-1.15-1.78-2.57-1.78s-2.57.8-2.57 1.78 1.15 1.78 2.57 1.78" class="cls-13"/><circle cx="203.58" cy="90.56" r="1" class="cls-3"/><path d="M203.58 90.56c0-1-1.15-1.78-2.57-1.78s-2.57.8-2.57 1.78 1.15 1.78 2.57 1.78" class="cls-13"/><circle cx="203.58" cy="94.13" r="1" class="cls-3"/><path d="M203.58 94.13c0-1-1.15-1.78-2.57-1.78s-2.57.8-2.57 1.78 1.15 1.78 2.57 1.78" class="cls-13"/><circle cx="203.58" cy="97.7" r="1" class="cls-3"/><path d="M203.58 97.7c0-1-1.15-1.78-2.57-1.78s-2.57.8-2.57 1.78 1.15 1.78 2.57 1.78" class="cls-13"/><circle cx="203.58" cy="101.27" r="1" class="cls-3"/><path d="M203.58 101.27c0-1-1.15-1.78-2.57-1.78s-2.57.8-2.57 1.78 1.15 1.78 2.57 1.78" class="cls-13"/><circle cx="203.58" cy="104.84" r="1" class="cls-3"/><path d="M203.58 104.84c0-1-1.15-1.78-2.57-1.78s-2.57.8-2.57 1.78 1.15 1.78 2.57 1.78" class="cls-13"/><circle cx="203.58" cy="108.41" r="1" class="cls-3"/><path d="M203.58 108.41c0-1-1.15-1.78-2.57-1.78s-2.57.8-2.57 1.78 1.15 1.78 2.57 1.78" class="cls-13"/><circle cx="203.58" cy="111.97" r="1" class="cls-3"/><path d="M203.58 112c0-1-1.15-1.78-2.57-1.78s-2.57.8-2.57 1.78 1.15 1.78 2.57 1.78" class="cls-13"/><circle cx="203.58" cy="115.54" r="1" class="cls-3"/><path d="M203.58 115.54c0-1-1.15-1.78-2.57-1.78s-2.57.8-2.57 1.78 1.15 1.78 2.57 1.78" class="cls-13"/><circle cx="203.58" cy="119.11" r="1" class="cls-3"/><path d="M203.58 119.11c0-1-1.15-1.78-2.57-1.78s-2.57.8-2.57 1.78 1.15 1.78 2.57 1.78" class="cls-13"/></svg>