<svg xmlns="http://www.w3.org/2000/svg" id="Layer_1" viewBox="0 0 1332.89 1294.12" width="1332.89" height="1294.12"><defs><style>.cls-1,.cls-4,.cls-5,.cls-7,.cls-9{fill:none;stroke-miterlimit:10}.cls-1{stroke:#ed1c24}.cls-2{fill:#f1f2f2}.cls-3{fill:#fff}.cls-4,.cls-7{stroke:#94c948}.cls-4,.cls-9{stroke-width:.92px}.cls-5,.cls-9{stroke:#006840}.cls-5,.cls-7{stroke-width:.92px}.cls-6{fill:#006840}.cls-8{fill:#94c948}</style></defs><path d="M-95.88 176.39h1212.33v941.35H-95.88z" class="cls-1" transform="rotate(90 510.29 647.06)"/><path d="M49.61 50.89h921.35v1192.33H49.61z" class="cls-2"/><path d="M123.14 103.31H923.9v1036.27H123.14z" class="cls-3"/><path d="M123.14 886.73H923.9m-800.76 252.85H923.9M123.14 878.44H923.9M123.14 625.59H923.9m-606.78 513.99V103.31m8.29 1036.27V103.31M123.14 1139.58V103.31m396.24 1036.27V103.31m8.29 1036.27V103.31m193.97 1036.27V103.31m8.29 1036.27V103.31M923.9 1139.58V103.31M123.14 617.3H923.9M123.14 364.45H923.9m-800.76-8.29H923.9" class="cls-4"/><path d="M624.45 229.73h404.21" class="cls-5"/><circle cx="624.79" cy="229.73" r="6.93" class="cls-6"/><path d="M723.61 495.02h305.05" class="cls-5"/><circle cx="723.95" cy="495.02" r="6.93" class="cls-6"/><path d="M723.61 1197.51h305.05" class="cls-7"/><circle cx="723.95" cy="1197.51" r="6.93" class="cls-8"/><path d="M123.14 103.31H923.9" class="cls-4"/><path d="M1055.73 209.88a14.44 14.44 0 0 1 12.17 6.12l-3.73 2.17a10.6 10.6 0 0 0-8.43-4.15c-6.4 0-11.19 4.88-11.19 11.79s4.79 11.84 11.19 11.84a11.92 11.92 0 0 0 7.79-3V229h-9.86v-4h14.46v11.29a16.35 16.35 0 0 1-12.39 5.44c-8.8 0-15.94-6.36-15.94-15.94s7.14-15.91 15.93-15.91zm18.2 8.99h4.15v3.41a9.45 9.45 0 0 1 7.28-3.92v4.19a6.48 6.48 0 0 0-1.43-.14 7.86 7.86 0 0 0-5.85 3.22v15.48h-4.15zm14.93-6.36a2.7 2.7 0 0 1 2.67-2.67 2.67 2.67 0 0 1 2.67 2.67 2.63 2.63 0 0 1-2.67 2.63 2.66 2.66 0 0 1-2.67-2.63zm.64 6.36h4.15v22.25h-4.15zm26.58 19.07a9.21 9.21 0 0 1-7.28 3.73c-5.8 0-10-4.38-10-11.65s4.15-11.7 10-11.7a9.06 9.06 0 0 1 7.28 3.78v-11.7h4.15v30.73h-4.15zm0-12.67a7.69 7.69 0 0 0-6.17-3.27c-4.15 0-6.73 3.36-6.73 8s2.58 8 6.73 8a7.65 7.65 0 0 0 6.17-3.22zm32.62-6.96a9.72 9.72 0 0 1 8.34 3.92l-2.76 2.53a6.21 6.21 0 0 0-5.39-2.76c-4.38 0-7.19 3.36-7.19 8s2.81 8 7.19 8a6.32 6.32 0 0 0 5.39-2.76l2.76 2.53a9.72 9.72 0 0 1-8.34 3.92c-6.73 0-11.33-5-11.33-11.7s4.63-11.68 11.33-11.68zm22.66 0c6.68 0 10.83 5.21 10.83 12v1h-17.6a7.3 7.3 0 0 0 7.55 6.91 9.46 9.46 0 0 0 6.59-2.62l1.94 2.72a12.52 12.52 0 0 1-8.94 3.32c-6.63 0-11.52-4.7-11.52-11.7 0-6.42 4.66-11.63 11.15-11.63zm-6.82 10h13.59a6.58 6.58 0 0 0-6.77-6.63c-4.47.04-6.59 3.64-6.82 6.68zm22.85-17.92h4.15v30.73h-4.15zm10.74 0h4.15v30.73h-4.15zm-142.4 263.88a14.44 14.44 0 0 1 12.16 6.08l-3.73 2.17a10.6 10.6 0 0 0-8.43-4.15c-6.4 0-11.19 4.88-11.19 11.79s4.79 11.84 11.19 11.84a11.92 11.92 0 0 0 7.79-3v-5.53h-9.86v-4.05h14.46v11.29a16.35 16.35 0 0 1-12.39 5.44c-8.8 0-15.94-6.36-15.94-15.94s7.15-15.94 15.94-15.94zm33.22 28.19a11 11 0 0 1-7.92 3.59c-4.75 0-7.09-2.4-7.09-7.09v-15.71h4.15v14.33c0 3.69 1.84 4.79 4.7 4.79a8 8 0 0 0 6.17-3.13v-16h4.15v22.26h-4.15zm11.56-1.89v-13.68h-3.68v-3.64h3.68v-6.08h4.15v6.08h4.51v3.64h-4.51v12.76c0 1.57.74 2.72 2.17 2.72a3.18 3.18 0 0 0 2.26-.87l1.06 3.13a5.9 5.9 0 0 1-4.33 1.43c-3.51-.01-5.31-1.99-5.31-5.49zm14.1 0v-13.68h-3.68v-3.64h3.68v-6.08h4.15v6.08h4.51v3.64h-4.51v12.76c0 1.57.74 2.72 2.17 2.72a3.18 3.18 0 0 0 2.26-.87l1.06 3.13a5.9 5.9 0 0 1-4.33 1.43c-3.51-.01-5.31-1.99-5.31-5.49zm23.03-17.87c6.68 0 10.83 5.21 10.83 12v1h-17.6a7.3 7.3 0 0 0 7.55 6.91A9.46 9.46 0 0 0 1145 500l1.94 2.72a12.52 12.52 0 0 1-8.94 3.32c-6.63 0-11.52-4.7-11.52-11.7.01-6.44 4.67-11.64 11.16-11.64zm-6.82 10h13.59a6.58 6.58 0 0 0-6.77-6.63c-4.47.04-6.59 3.63-6.82 6.67zm22.85-9.45h4.15v3.41a9.45 9.45 0 0 1 7.28-3.92v4.19a6.48 6.48 0 0 0-1.43-.14 7.86 7.86 0 0 0-5.85 3.22v15.49h-4.15z" class="cls-6"/><path d="M980.46 998.26h48.2" class="cls-5"/><circle cx="980.81" cy="998.26" r="6.93" class="cls-6"/><path d="M1041.09 978h14.42c5.48 0 8.66 3.36 8.66 7.83a7 7 0 0 1-5.34 7c3.27.51 5.94 3.82 5.94 7.55 0 4.84-3.22 8.29-8.89 8.29h-14.79zm13.54 13c3.09 0 4.79-1.93 4.79-4.47s-1.7-4.51-4.79-4.51h-8.94v9zm.23 13.64c3.22 0 5.16-1.84 5.16-4.84 0-2.53-1.75-4.75-5.16-4.75h-9.17v9.58zm15.52-26.64h4.15v30.73h-4.15zm20.5 7.94c6.68 0 10.83 5.21 10.83 12v1h-17.6a7.3 7.3 0 0 0 7.55 6.91 9.46 9.46 0 0 0 6.59-2.62l1.94 2.72a12.52 12.52 0 0 1-8.94 3.32c-6.63 0-11.52-4.7-11.52-11.7 0-6.43 4.66-11.63 11.15-11.63zm-6.82 10h13.59a6.58 6.58 0 0 0-6.77-6.63c-4.47.03-6.58 3.63-6.82 6.69zm32.62-10c6.68 0 10.83 5.21 10.83 12v1h-17.6a7.3 7.3 0 0 0 7.55 6.91 9.46 9.46 0 0 0 6.59-2.62l1.95 2.77a12.52 12.52 0 0 1-8.94 3.32c-6.63 0-11.52-4.7-11.52-11.7-.01-6.48 4.65-11.68 11.14-11.68zm-6.82 10h13.59a6.58 6.58 0 0 0-6.77-6.63c-4.47.03-6.59 3.63-6.82 6.69zm38.7 9.62a9.2 9.2 0 0 1-7.28 3.73c-5.8 0-10-4.38-10-11.65s4.15-11.7 10-11.7a9.06 9.06 0 0 1 7.28 3.78V978h4.15v30.73h-4.15zm0-12.67a7.69 7.69 0 0 0-6.17-3.27c-4.15 0-6.73 3.36-6.73 8s2.58 8 6.73 8a7.65 7.65 0 0 0 6.17-3.22zm37.44-15.38a14.44 14.44 0 0 1 12.16 6.08l-3.73 2.17a10.6 10.6 0 0 0-8.43-4.15c-6.4 0-11.19 4.88-11.19 11.79s4.79 11.84 11.19 11.84a11.92 11.92 0 0 0 7.79-3v-5.53h-9.86v-4.05h14.46v11.29a16.35 16.35 0 0 1-12.39 5.44c-8.8 0-15.94-6.36-15.94-15.94s7.11-15.94 15.94-15.94zm33.18 28.19a11 11 0 0 1-7.92 3.59c-4.75 0-7.09-2.4-7.09-7.09v-15.71h4.15v14.33c0 3.69 1.84 4.79 4.7 4.79a8 8 0 0 0 6.17-3.13v-16h4.15v22.25h-4.15zm10.09-25.57a2.7 2.7 0 0 1 2.67-2.67 2.67 2.67 0 0 1 2.67 2.67 2.63 2.63 0 0 1-2.67 2.63 2.66 2.66 0 0 1-2.67-2.63zm.64 6.36h4.15v22.25h-4.15zm26.58 19.07a9.2 9.2 0 0 1-7.28 3.73c-5.8 0-10-4.38-10-11.65s4.15-11.7 10-11.7a9.06 9.06 0 0 1 7.28 3.78V978h4.15v30.73h-4.15zm0-12.67a7.69 7.69 0 0 0-6.17-3.27c-4.15 0-6.73 3.36-6.73 8s2.58 8 6.73 8a7.65 7.65 0 0 0 6.17-3.22zm20.51-6.95c6.68 0 10.83 5.21 10.83 12v1h-17.6a7.3 7.3 0 0 0 7.55 6.91 9.46 9.46 0 0 0 6.59-2.62l1.94 2.72a12.52 12.52 0 0 1-8.94 3.32c-6.63 0-11.52-4.7-11.52-11.7.04-6.43 4.69-11.63 11.15-11.63zm-6.82 10h13.59a6.58 6.58 0 0 0-6.77-6.63c-4.43.03-6.55 3.63-6.78 6.69z" class="cls-6"/><path d="M685.51 717.54h343.15" class="cls-5"/><circle cx="685.85" cy="717.54" r="6.93" class="cls-6"/><path d="M1041.09 697.29h14.42c5.48 0 8.66 3.36 8.66 7.83a7 7 0 0 1-5.34 7c3.27.51 5.94 3.82 5.94 7.55 0 4.84-3.22 8.29-8.89 8.29h-14.79zm13.54 13c3.09 0 4.79-1.93 4.79-4.47s-1.7-4.51-4.79-4.51h-8.94v9zm.23 13.64c3.22 0 5.16-1.84 5.16-4.84 0-2.53-1.75-4.75-5.16-4.75h-9.17V724zm29.25 1.65a9.54 9.54 0 0 1-7.28 3c-3.68 0-7.74-2.49-7.74-7.37 0-5.07 4-7.28 7.74-7.28a9.28 9.28 0 0 1 7.28 2.95v-3.68c0-2.76-2.26-4.42-5.44-4.42a9.11 9.11 0 0 0-6.68 2.95l-1.8-2.86a12.51 12.51 0 0 1 9.12-3.64c4.84 0 8.94 2.12 8.94 7.79v15h-4.15zm0-6.22a7 7 0 0 0-5.71-2.53c-3 0-5.11 1.8-5.11 4.42s2.12 4.42 5.11 4.42a7 7 0 0 0 5.71-2.53zm10.83 2.72a10.78 10.78 0 0 0 7.46 3.18c3.13 0 4.79-1.29 4.79-3.18 0-2.21-2.53-2.95-5.39-3.59-3.78-.87-8.2-1.89-8.2-6.68 0-3.55 3-6.59 8.48-6.59a11.91 11.91 0 0 1 8.48 3.18l-1.84 2.9a8.67 8.67 0 0 0-6.59-2.72c-2.81 0-4.56 1.11-4.56 2.9s2.4 2.58 5.16 3.22c3.87.88 8.48 1.94 8.48 7 0 3.82-3.13 6.82-9 6.82a12.66 12.66 0 0 1-9.26-3.46zm31.28-16.86c6.68 0 10.83 5.21 10.83 12v1h-17.6a7.3 7.3 0 0 0 7.55 6.91 9.46 9.46 0 0 0 6.59-2.62l1.94 2.72a12.52 12.52 0 0 1-8.94 3.32c-6.63 0-11.52-4.7-11.52-11.7 0-6.43 4.65-11.63 11.15-11.63zm-6.82 10h13.6a6.58 6.58 0 0 0-6.77-6.63c-4.48.04-6.6 3.63-6.83 6.67zm22.85-17.93h4.15V728h-4.15zm10.09 2.12a2.7 2.7 0 0 1 2.67-2.67 2.67 2.67 0 0 1 2.67 2.67A2.63 2.63 0 0 1 1155 702a2.66 2.66 0 0 1-2.66-2.59zm.64 6.36h4.15V728H1153zm25.75 8.01c0-3.69-1.89-4.88-4.74-4.88a8 8 0 0 0-6.13 3.22V728h-4.15v-22.23h4.15v3.13a10.61 10.61 0 0 1 7.88-3.69c4.7 0 7.14 2.49 7.14 7.19V728h-4.15zm20.5-8.56c6.68 0 10.83 5.21 10.83 12v1h-17.6a7.3 7.3 0 0 0 7.55 6.91 9.46 9.46 0 0 0 6.59-2.62l1.94 2.72a12.52 12.52 0 0 1-8.94 3.32c-6.63 0-11.52-4.7-11.52-11.7 0-6.43 4.66-11.63 11.15-11.63zm-6.82 10H1206a6.58 6.58 0 0 0-6.77-6.63c-4.47.04-6.59 3.63-6.82 6.67zm49.48-18.43a14.44 14.44 0 0 1 12.16 6.08l-3.73 2.17a10.6 10.6 0 0 0-8.43-4.15c-6.4 0-11.19 4.88-11.19 11.79s4.79 11.84 11.19 11.84a11.92 11.92 0 0 0 7.79-3v-5.53h-9.86v-4.09h14.46v11.29a16.35 16.35 0 0 1-12.39 5.44c-8.8 0-15.94-6.36-15.94-15.94s7.14-15.9 15.94-15.9zm18.2 8.98h4.15v3.41a9.45 9.45 0 0 1 7.28-3.92v4.19a6.48 6.48 0 0 0-1.43-.14 7.86 7.86 0 0 0-5.85 3.22V728h-4.15zm14.91-6.36a2.7 2.7 0 0 1 2.67-2.67 2.67 2.67 0 0 1 2.67 2.67 2.63 2.63 0 0 1-2.67 2.63 2.66 2.66 0 0 1-2.67-2.63zm.64 6.36h4.15V728h-4.15zm26.6 19.07a9.2 9.2 0 0 1-7.28 3.73c-5.8 0-10-4.38-10-11.65s4.15-11.7 10-11.7a9.06 9.06 0 0 1 7.28 3.78v-11.7h4.15V728h-4.15zm0-12.67a7.69 7.69 0 0 0-6.17-3.27c-4.15 0-6.73 3.36-6.73 8s2.58 8 6.73 8a7.65 7.65 0 0 0 6.17-3.22zm-234.71 470.66l-10 24.42h-1.93l-10-24.42v24.42h-4.61v-30.73h6.59l8.94 22.07 8.94-22.07h6.59v30.73h-4.61zm25.06 21.98a9.54 9.54 0 0 1-7.28 3c-3.68 0-7.74-2.49-7.74-7.37 0-5.07 4-7.28 7.74-7.28a9.28 9.28 0 0 1 7.28 2.95v-3.68c0-2.76-2.26-4.42-5.44-4.42a9.11 9.11 0 0 0-6.68 2.95l-1.8-2.86a12.51 12.51 0 0 1 9.12-3.64c4.84 0 8.94 2.12 8.94 7.79v15h-4.15zm0-6.22a7 7 0 0 0-5.71-2.53c-3 0-5.11 1.8-5.11 4.42s2.12 4.42 5.11 4.42a7 7 0 0 0 5.71-2.53zm10.78-13.59h4.15v3.41a9.45 9.45 0 0 1 7.28-3.92v4.19a6.48 6.48 0 0 0-1.43-.14 7.86 7.86 0 0 0-5.85 3.22v15.48h-4.15zm17.37 24.92a8.68 8.68 0 0 0 7.14 2.95c3.46 0 6.91-1.66 6.91-6.36v-2.9a9.38 9.38 0 0 1-7.32 3.82c-5.76 0-9.9-4.24-9.9-11.52s4.15-11.47 9.9-11.47a9.08 9.08 0 0 1 7.32 3.78V1185h4.15v21.38c0 7.65-5.57 9.9-11.06 9.9-3.73 0-6.45-.78-9.12-3.32zm14-18.52a7.75 7.75 0 0 0-6.17-3.27c-4.15 0-6.73 3.22-6.73 7.79s2.58 7.83 6.73 7.83a7.8 7.8 0 0 0 6.17-3.32zm10.13-12.76a2.7 2.7 0 0 1 2.67-2.67 2.67 2.67 0 0 1 2.67 2.67 2.63 2.63 0 0 1-2.67 2.63 2.66 2.66 0 0 1-2.67-2.63zm.64 6.36h4.15v22.25h-4.15zm25.76 8c0-3.69-1.89-4.88-4.74-4.88a8 8 0 0 0-6.13 3.22v15.89h-4.15V1185h4.15v3.13a10.61 10.61 0 0 1 7.88-3.69c4.7 0 7.14 2.49 7.14 7.19v15.62h-4.15z" class="cls-6"/><path d="M527.67 648.58h193.97m-193.97 22.99h193.97m-193.97 22.98h193.97m-193.97 22.99h193.97m-193.97 22.98h193.97m-193.97 22.99h193.97M527.67 786.5h193.97m-193.97 22.98h193.97m-193.97 22.99h193.97m-193.97 22.99h193.97" class="cls-9"/></svg>