<svg xmlns="http://www.w3.org/2000/svg" width="613" height="793" viewBox="0 0 613 793"><path fill="#ccc" d="M296.3 484.5h11.9v2.3H299v5.2h9v2.3h-9v7.9h-2.7zm19.8 4.5c3.8 0 6.2 3 6.2 6.9v.6h-10.1a4.2 4.2 0 0 0 4.3 4 5.2 5.2 0 0 0 3.8-1.5l1.2 1.6a7.5 7.5 0 0 1-5.2 1.9 6.8 6.8 0 0 1-.2-13.5zm-3.9 5.8h7.8a3.8 3.8 0 0 0-3.9-3.8 3.9 3.9 0 0 0-3.9 3.8zm20.5 5.9a5.3 5.3 0 0 1-4.2 1.8 4.3 4.3 0 0 1-4.4-4.3 4.1 4.1 0 0 1 4.4-4.2 5.6 5.6 0 0 1 4.2 1.7v-2.1c0-1.6-1.3-2.5-3.1-2.5a5.2 5.2 0 0 0-3.9 1.7l-1-1.7a7.2 7.2 0 0 1 5.2-2.1c2.8 0 5.2 1.2 5.2 4.5v8.7h-2.4zm0-3.5a4 4 0 0 0-3.3-1.5 2.6 2.6 0 0 0-2.9 2.6c0 1.5 1.2 2.5 2.9 2.5a4 4 0 0 0 3.3-1.5zm6.2 2.1v-7.9h-2.2v-2.1h2.2v-3.5h2.3v3.5h2.6v2.1h-2.6v7.4a1.3 1.3 0 0 0 1.3 1.5 1.7 1.7 0 0 0 1.3-.5l.6 1.8a3.2 3.2 0 0 1-2.5.9c-2 0-3-1.2-3-3.2zm15.7 1.1a6.2 6.2 0 0 1-4.5 2.1c-2.8 0-4.1-1.4-4.1-4.1v-9.1h2.4v8.3c0 2.1 1 2.7 2.7 2.7a4.5 4.5 0 0 0 3.5-1.8v-9.2h2.4v12.9h-2.4zm5.7-11.1h2.4v2a5 5 0 0 1 4.1-2.2v2.4h-.8a4.4 4.4 0 0 0-3.3 1.8v9h-2.4zm14-.3c3.9 0 6.3 3 6.3 6.9v.6h-10.2a4.2 4.2 0 0 0 4.4 4 5.5 5.5 0 0 0 3.8-1.5l1.1 1.6a7.5 7.5 0 0 1-5.2 1.9 6.8 6.8 0 0 1-.2-13.5zm-3.9 5.8h7.8a3.7 3.7 0 0 0-3.9-3.8 3.9 3.9 0 0 0-3.9 3.8zm34.2-6.7l-5.7 14.1h-1.1l-5.8-14.1v14.1h-2.6v-17.7h3.8l5.1 12.7 5.2-12.7h3.8v17.7h-2.7zm5.2 7.6a6.5 6.5 0 1 1 13 0c0 3.7-2.5 6.8-6.5 6.8s-6.5-3.1-6.5-6.8zm10.5 0c0-2.4-1.4-4.6-4-4.6s-4 2.2-4 4.6 1.4 4.6 4 4.6 4-2.1 4-4.6zm14.1 4.6a5.4 5.4 0 0 1-4.2 2.2c-3.4 0-5.7-2.5-5.7-6.7s2.3-6.8 5.7-6.8a5.4 5.4 0 0 1 4.2 2.2v-6.7h2.4v17.7h-2.4zm0-7.3a4.6 4.6 0 0 0-3.6-1.9c-2.4 0-3.8 2-3.8 4.7s1.4 4.5 3.8 4.5a4.5 4.5 0 0 0 3.6-1.8zm11.3-4c3.8 0 6.2 3 6.2 6.9v.6h-10.1a4.2 4.2 0 0 0 4.3 4 5.2 5.2 0 0 0 3.8-1.5l1.1 1.6a7.1 7.1 0 0 1-5.1 1.9 6.8 6.8 0 0 1-.2-13.5zm-3.9 5.8h7.8a3.8 3.8 0 0 0-3.9-3.8 3.9 3.9 0 0 0-3.9 3.8zm12.6-10.3h2.4v17.7h-2.4z"/><path fill="none" stroke="#999" stroke-miterlimit="10" d="M.5.5h612v792H.5z"/><path fill="#ccc" d="M612.5.5v270H.5V.5z"/><path fill="none" stroke="#e5e5e5" stroke-miterlimit="10" stroke-width="8.45" d="M376 415.6c175.5 0 230.5 148.7 230.5 334.3 0 17.6-17.5 37.2-33 37.2H178.4c-15.4 0-32.7-19.6-32.7-37.2 0-185.6 54.8-334.3 230.3-334.3zm0-303.1c-74.5 0-134.9 60.2-134.9 134.4S301.5 381.4 376 381.4s135-60.2 135-134.5-60.4-134.4-135-134.4z"/><path fill="#b3b3b3" d="M585.4 238.7v23h-94.67v-23z"/><path fill="#fff" d="M506.8 244h4.4a6 6 0 0 1 6.4 6.2c0 3.5-2.6 6.1-6.4 6.1h-4.4zm4.4 10.7a4.6 4.6 0 0 0 0-9.1h-2.6v9.1zm13.8.6a3.9 3.9 0 0 1-3 1.2 2.9 2.9 0 0 1-3.1-2.9 2.8 2.8 0 0 1 3.1-2.9 3.9 3.9 0 0 1 3 1.1v-1.4c0-1.2-.9-1.8-2.2-1.8a3.7 3.7 0 0 0-2.7 1.2l-.7-1.2a4.8 4.8 0 0 1 3.6-1.4c2 0 3.6.8 3.6 3.1v6H525zm0-2.5a3.1 3.1 0 0 0-2.3-1 1.8 1.8 0 1 0 0 3.6 3.1 3.1 0 0 0 2.3-1zm4.3 1.5v-5.5h-1.5v-1.4h1.5v-2.5h1.6v2.5h1.8v1.4h-1.8v5.2c0 .6.3 1.1.9 1.1a1.3 1.3 0 0 0 .9-.4l.4 1.3a2.3 2.3 0 0 1-1.7.5 1.9 1.9 0 0 1-2.1-2.2zm8.8-7.1c2.7 0 4.4 2 4.4 4.8v.4h-7.1a3.1 3.1 0 0 0 3.1 2.8 3.8 3.8 0 0 0 2.6-1.1l.8 1.1a5 5 0 0 1-3.6 1.3 4.7 4.7 0 0 1-.2-9.3zm-2.7 4h5.5a2.8 2.8 0 0 0-2.8-2.7 2.8 2.8 0 0 0-2.7 2.7zm8.8-7.2h1.7v12.3h-1.7zm3.7.8a1.1 1.1 0 1 1 1.1 1.1 1.1 1.1 0 0 1-1.1-1.1zm.3 2.6h1.6v8.9h-1.6zm10 3.2a1.8 1.8 0 0 0-2-2 3.4 3.4 0 0 0-2.4 1.3v6.4h-1.7v-8.9h1.7v1.2a4.4 4.4 0 0 1 3.2-1.4 2.5 2.5 0 0 1 2.8 2.8v6.3h-1.6zm7.8-3.4c2.7 0 4.4 2 4.4 4.8v.4h-7.1a2.9 2.9 0 0 0 3 2.8 3.9 3.9 0 0 0 2.7-1.1l.8 1.1a5 5 0 0 1-3.6 1.3 4.7 4.7 0 0 1-.2-9.3zm-2.7 4h5.5a2.8 2.8 0 0 0-5.5 0zM52.1 44h12.5v72.3h37.8v10.9H52.1zm160.8-1.3c24.9 0 42 18.3 42 43s-17.1 43-42 43-41.9-18.3-41.9-43 17.1-43 41.9-43zm0 11.1c-17.8 0-29 13.6-29 31.9s11.2 31.9 29 31.9S242 103.9 242 85.7s-11.5-31.9-29.1-31.9zM372 42.7c15.6 0 25.9 7.1 32.9 16.4L394.8 65A28.5 28.5 0 0 0 372 53.8c-17.3 0-30.3 13.2-30.3 31.9s13 32.1 30.3 32.1a32.1 32.1 0 0 0 21.1-8.3V94.6h-26.7v-11h39.1v30.6a44.2 44.2 0 0 1-33.5 14.7c-23.8 0-43.2-17.2-43.2-43.2s19.4-43 43.2-43zm150.3 0c24.8 0 41.9 18.3 41.9 43s-17.1 43-41.9 43-41.9-18.3-41.9-43 17.1-43 41.9-43zm0 11.1c-17.8 0-29.1 13.6-29.1 31.9s11.3 31.9 29.1 31.9 29.1-13.7 29.1-31.9-11.5-31.9-29.1-31.9z"/><path fill="#ccc" d="M612.5 792.5H226.2v-210h386.3z"/><path fill="#fff" d="M262.1 599.6l-9.2 22.6h-1.8l-9.2-22.6v22.6h-4.2v-28.4h6.1l8.2 20.4 8.3-20.4h6.1v28.4h-4.3zm21.4 20.3a8.7 8.7 0 0 1-6.7 2.8c-3.4 0-7.1-2.3-7.1-6.8s3.7-6.7 7.1-6.7a8.5 8.5 0 0 1 6.7 2.7v-3.4c0-2.6-2-4.1-5-4.1a8.4 8.4 0 0 0-6.1 2.7l-1.7-2.6a11.4 11.4 0 0 1 8.4-3.4c4.5 0 8.3 2 8.3 7.2v13.9h-3.9zm0-5.7a6.5 6.5 0 0 0-5.2-2.4c-2.8 0-4.8 1.7-4.8 4.1s2 4.1 4.8 4.1a6.4 6.4 0 0 0 5.2-2.3zm7.7-18.4a2.5 2.5 0 1 1 4.9 0 2.5 2.5 0 0 1-4.9 0zm.6 5.8h3.8v20.6h-3.8zm22.1 7.4c0-3.4-1.8-4.5-4.4-4.5a7.5 7.5 0 0 0-5.7 3v14.7H300v-20.6h3.8v2.9a10.1 10.1 0 0 1 7.3-3.4c4.3 0 6.6 2.3 6.6 6.7v14.4h-3.8zm16.3-1a14.3 14.3 0 0 1 14.6-14.7 12.8 12.8 0 0 1 11.2 6l-3.6 2a9 9 0 0 0-7.6-4.2c-5.8 0-10.2 4.5-10.2 10.9s4.4 10.9 10.2 10.9a8.9 8.9 0 0 0 7.6-4.1l3.6 1.9a12.8 12.8 0 0 1-11.2 6 14.3 14.3 0 0 1-14.6-14.7zm27 3.9c0-5.9 4-10.8 10.4-10.8S378 606 378 611.9s-4 10.8-10.4 10.8-10.4-4.9-10.4-10.8zm16.8 0c0-3.9-2.3-7.4-6.4-7.4s-6.4 3.5-6.4 7.4 2.3 7.4 6.4 7.4 6.4-3.5 6.4-7.4zm4.1-10.3h4.1l6.4 16.2 6.4-16.2h4.2l-8.5 20.6h-4.1zm31.5-.5c6.1 0 10 4.8 10 11.1v1h-16.3a6.7 6.7 0 0 0 7 6.3 8.5 8.5 0 0 0 6.1-2.4l1.8 2.5a11.8 11.8 0 0 1-8.3 3.1c-6.1 0-10.6-4.3-10.6-10.8s4.3-10.8 10.3-10.8zm-6.3 9.3h12.5a6.1 6.1 0 0 0-6.2-6.1 6.3 6.3 0 0 0-6.3 6.1zm19.4-8.8h3.8v3.2a8.6 8.6 0 0 1 6.7-3.6v3.8h-1.3a7.4 7.4 0 0 0-5.4 3v14.3h-3.8zm12.7-7.8h3.8v28.4h-3.8zm7.6 2a2.5 2.5 0 1 1 2.4 2.4 2.5 2.5 0 0 1-2.4-2.4zm.6 5.8h3.8v20.6h-3.8zm22 7.4c0-3.4-1.7-4.5-4.3-4.5a7.5 7.5 0 0 0-5.7 3v14.7h-3.8v-20.6h3.8v2.9a10.1 10.1 0 0 1 7.3-3.4c4.3 0 6.6 2.3 6.6 6.7v14.4h-3.9zm17.3-7.9c6.1 0 9.9 4.8 9.9 11.1v1h-16.2a6.7 6.7 0 0 0 7 6.3 8.9 8.9 0 0 0 6.1-2.4l1.7 2.5a11.4 11.4 0 0 1-8.2 3.1c-6.1 0-10.6-4.3-10.6-10.8s4.3-10.8 10.3-10.8zm-6.3 9.3h12.5a6.1 6.1 0 0 0-6.2-6.1c-4.2 0-6.1 3.3-6.3 6.1z"/><path fill="#ccc" d="M210.5 286.5v506H.5v-506z"/><path fill="#fff" d="M17.3 300.5h4.3v24.6h12.9v3.8H17.3zm28.3 7.3c6.2 0 10 4.8 10 11.1v1H39.4a6.7 6.7 0 0 0 7 6.4 8.6 8.6 0 0 0 6-2.5l1.8 2.5a11.4 11.4 0 0 1-8.2 3.1c-6.2 0-10.7-4.3-10.7-10.8s4.3-10.8 10.3-10.8zm-6.3 9.3h12.6a6.1 6.1 0 0 0-6.3-6.1 6.3 6.3 0 0 0-6.3 6.1zm20.4-5.4h-3.4v-3.3h3.4V307c0-4.4 2.6-6.9 6.2-6.9a7.1 7.1 0 0 1 3.4.8l-.9 2.8a3.7 3.7 0 0 0-1.8-.5c-2 0-3.1 1.3-3.1 3.8v1.4h4.2v3.3h-4.2v17.2h-3.8zm12.4 12.6v-12.6h-3.4v-3.3h3.4v-5.7h3.8v5.7h4.2v3.3h-4.2v11.8c0 1.4.7 2.5 2 2.5a3.1 3.1 0 0 0 2.1-.8l1 2.9a5.7 5.7 0 0 1-4 1.3c-3.3 0-4.9-1.8-4.9-5.1zm30.2-20h-8.8v-3.8h21.8v3.8h-8.7v24.6h-4.3zm29.5 11.4c0-3.4-1.7-4.5-4.4-4.5a7.5 7.5 0 0 0-5.6 3v14.7H118v-28.4h3.8v10.7a10.1 10.1 0 0 1 7.3-3.4c4.3 0 6.6 2.3 6.6 6.6v14.5h-3.9zm8.5-13.2a2.5 2.5 0 0 1 2.5-2.5 2.5 2.5 0 1 1 0 4.9 2.5 2.5 0 0 1-2.5-2.4zm.6 5.9h3.9v20.5h-3.9zm9.1 0h3.8v3.1a8.9 8.9 0 0 1 6.7-3.6v3.9l-1.3-.2a7.4 7.4 0 0 0-5.4 3v14.3H150zm28.1 17.6a8.5 8.5 0 0 1-6.7 3.4c-5.3 0-9.2-4-9.2-10.8s3.9-10.8 9.2-10.8a8.2 8.2 0 0 1 6.7 3.5v-10.8h3.9v28.4h-3.9zm0-11.7a6.9 6.9 0 0 0-5.7-3.1c-3.8 0-6.2 3.1-6.2 7.4s2.4 7.4 6.2 7.4a6.8 6.8 0 0 0 5.7-3zm-162.6 405a2 2 0 0 1 2-2 2 2 0 0 1 2.1 2 2.1 2.1 0 1 1-4.1 0zm10.2-1.7a6.2 6.2 0 0 1 6.4-6.4 5.6 5.6 0 0 1 4.9 2.7l-1.6.8a4.1 4.1 0 0 0-3.3-1.8 4.8 4.8 0 0 0 0 9.5 4.1 4.1 0 0 0 3.3-1.8l1.6.8a5.5 5.5 0 0 1-4.9 2.6 6.2 6.2 0 0 1-6.4-6.4zm12.2 1.7a4.5 4.5 0 1 1 4.5 4.7 4.4 4.4 0 0 1-4.5-4.7zm7.3 0c0-1.7-1-3.2-2.8-3.2s-2.8 1.5-2.8 3.2 1 3.2 2.8 3.2 2.8-1.5 2.8-3.2zm2.1-4.4h1.8l2.8 7 2.8-7h1.8l-3.7 8.9H51zm14.1-.3c2.7 0 4.4 2.1 4.4 4.9v.4h-7.1a2.9 2.9 0 0 0 3 2.8 3.9 3.9 0 0 0 2.7-1.1l.7 1.1a4.6 4.6 0 0 1-3.5 1.3 4.7 4.7 0 0 1-.2-9.4zm-2.7 4.1h5.4a2.6 2.6 0 0 0-2.7-2.7 2.7 2.7 0 0 0-2.7 2.7zm8.8-3.8h1.6v1.3a3.8 3.8 0 0 1 3-1.5v1.6h-.6a3.2 3.2 0 0 0-2.4 1.3v6.2h-1.6zm5.9-3.5H75v12.4h-1.6zm3.7.9a1.1 1.1 0 0 1 1-1.1 1.1 1.1 0 0 1 0 2.2 1.1 1.1 0 0 1-1-1.1zm.2 2.6H79v8.9h-1.7zm10 3.2c0-1.5-.8-2-1.9-2a3.3 3.3 0 0 0-2.5 1.3v6.4h-1.6v-8.9h1.6v1.2a4.4 4.4 0 0 1 3.2-1.5 2.6 2.6 0 0 1 2.9 2.9v6.3h-1.7zm7.9-3.5c2.7 0 4.3 2.1 4.3 4.9v.4h-7a2.9 2.9 0 0 0 3 2.8 3.6 3.6 0 0 0 2.6-1.1l.8 1.1a4.8 4.8 0 0 1-3.6 1.3 4.7 4.7 0 0 1-.1-9.4zm-2.8 4.1h5.5a2.6 2.6 0 0 0-2.7-2.7 2.8 2.8 0 0 0-2.8 2.7zm-76.9 22.9a2 2 0 0 1 2-2.1 2.1 2.1 0 0 1 2.1 2.1 2 2 0 0 1-2.1 2 2 2 0 0 1-2-2zm10.2-1.7a6.2 6.2 0 0 1 6.4-6.4 5.5 5.5 0 0 1 4.9 2.6l-1.6.8a4.1 4.1 0 0 0-3.3-1.8 4.8 4.8 0 0 0 0 9.5 4.1 4.1 0 0 0 3.3-1.8l1.6.8a5.6 5.6 0 0 1-4.9 2.7 6.2 6.2 0 0 1-6.4-6.4zm12.2 1.7a4.5 4.5 0 1 1 9 0 4.5 4.5 0 1 1-9 0zm7.3 0c0-1.7-1-3.3-2.8-3.3s-2.8 1.6-2.8 3.3 1 3.2 2.8 3.2 2.8-1.5 2.8-3.2zm2.1-4.5h1.8l2.8 7 2.8-7h1.8l-3.7 8.9H51zm14.1-.2c2.7 0 4.4 2.1 4.4 4.8v.4h-7.1a2.9 2.9 0 0 0 3 2.8 3.9 3.9 0 0 0 2.7-1.1l.7 1.1a4.7 4.7 0 0 1-3.5 1.4 4.7 4.7 0 0 1-.2-9.4zm-2.7 4h5.4a2.6 2.6 0 0 0-2.7-2.7 2.7 2.7 0 0 0-2.7 2.7zm8.8-3.8h1.6v1.4a3.9 3.9 0 0 1 3-1.6v1.7h-.6a3.2 3.2 0 0 0-2.4 1.3v6.1h-1.6zm5.9-3.4H75V746h-1.6zm3.7.8a1 1 0 0 1 1-1 1 1 0 0 1 1.1 1 1.1 1.1 0 0 1-1.1 1.1 1.1 1.1 0 0 1-1-1.1zm.2 2.6H79v8.9h-1.7zm10 3.2c0-1.5-.8-2-1.9-2a3.6 3.6 0 0 0-2.5 1.3v6.4h-1.6v-8.9h1.6v1.2a4.4 4.4 0 0 1 3.2-1.4 2.6 2.6 0 0 1 2.9 2.9v6.2h-1.7zm7.9-3.4c2.7 0 4.3 2.1 4.3 4.8v.4h-7a2.9 2.9 0 0 0 3 2.8 3.6 3.6 0 0 0 2.6-1.1l.8 1.1a4.9 4.9 0 0 1-3.6 1.4 4.7 4.7 0 0 1-.1-9.4zm-2.8 4h5.5a2.6 2.6 0 0 0-2.7-2.7 2.8 2.8 0 0 0-2.8 2.7zm-76.9 22.9a2.1 2.1 0 1 1 4.1 0 2 2 0 0 1-2.1 2 2 2 0 0 1-2-2zm10.2-1.7a6.2 6.2 0 0 1 6.4-6.4 5.7 5.7 0 0 1 4.9 2.6l-1.6.9a3.9 3.9 0 0 0-3.3-1.8 4.7 4.7 0 0 0 0 9.4 3.9 3.9 0 0 0 3.3-1.8l1.6.9a5.7 5.7 0 0 1-4.9 2.6 6.2 6.2 0 0 1-6.4-6.4zm12.2 1.7a4.5 4.5 0 1 1 4.5 4.7 4.4 4.4 0 0 1-4.5-4.7zm7.3 0c0-1.7-1-3.2-2.8-3.2s-2.8 1.5-2.8 3.2 1 3.2 2.8 3.2 2.8-1.5 2.8-3.2zm2.1-4.5h1.8l2.8 7 2.8-7h1.8l-3.7 9H51zm14.1-.2c2.7 0 4.4 2.1 4.4 4.8v.4h-7.1a2.8 2.8 0 0 0 3 2.8 4.3 4.3 0 0 0 2.7-1l.7 1.1a5 5 0 0 1-3.5 1.3 4.7 4.7 0 0 1-.2-9.4zm-2.7 4h5.4a2.6 2.6 0 0 0-2.7-2.6 2.7 2.7 0 0 0-2.7 2.6zm8.8-3.8h1.6v1.4a3.9 3.9 0 0 1 3-1.6v1.7h-.6a3.6 3.6 0 0 0-2.4 1.3v6.3h-1.6zm5.9-3.4H75v12.4h-1.6zm3.7.9a1.1 1.1 0 0 1 1-1.1 1.1 1.1 0 0 1 1.1 1.1 1 1 0 0 1-1.1 1 1 1 0 0 1-1-1zm.2 2.5H79v9h-1.7zm10 3.2a1.7 1.7 0 0 0-1.9-1.9 3.3 3.3 0 0 0-2.5 1.3v6.4h-1.6v-9h1.6v1.3a4.4 4.4 0 0 1 3.2-1.5A2.6 2.6 0 0 1 89 762v6.3h-1.7zm7.9-3.4c2.7 0 4.3 2.1 4.3 4.8v.4h-7a2.8 2.8 0 0 0 3 2.8 4 4 0 0 0 2.6-1l.8 1.1a5.3 5.3 0 0 1-3.6 1.3 4.7 4.7 0 0 1-.1-9.4zm-2.8 4h5.5a2.6 2.6 0 0 0-2.7-2.6 2.8 2.8 0 0 0-2.8 2.6zM15.1 353.9a6.2 6.2 0 0 1 6.3-6.4 5.7 5.7 0 0 1 4.9 2.6l-1.6.8a3.8 3.8 0 0 0-3.3-1.8 4.8 4.8 0 0 0 0 9.5 3.6 3.6 0 0 0 3.3-1.8l1.6.9a5.7 5.7 0 0 1-4.9 2.6 6.2 6.2 0 0 1-6.3-6.4zm12.1 1.7a4.5 4.5 0 1 1 4.5 4.7 4.4 4.4 0 0 1-4.5-4.7zm7.3 0c0-1.7-1-3.2-2.8-3.2s-2.8 1.5-2.8 3.2 1 3.2 2.8 3.2 2.8-1.5 2.8-3.2zm2.2-4.5h1.7l2.8 7 2.8-7h1.8l-3.7 8.9h-1.8zm14-.2c2.7 0 4.4 2.1 4.4 4.8v.4H48a3 3 0 0 0 3 2.8 3.9 3.9 0 0 0 2.7-1.1l.8 1.1a5.1 5.1 0 0 1-3.6 1.4 4.7 4.7 0 0 1-.2-9.4zm-2.7 4h5.5a2.8 2.8 0 0 0-5.5 0zm8.8-3.8h1.7v1.4a3.7 3.7 0 0 1 2.9-1.6v1.7h-.6a3.4 3.4 0 0 0-2.3 1.3v6.1h-1.7zm5.9-3.4h1.7V360h-1.7zm3.7.8a1 1 0 0 1 1.1-1 .9.9 0 0 1 1 1 1 1 0 0 1-1 1.1 1.1 1.1 0 0 1-1.1-1.1zm.2 2.6h1.7v8.9h-1.7zm10 3.2c0-1.5-.7-1.9-1.9-1.9a2.9 2.9 0 0 0-2.4 1.3v6.3h-1.7v-8.9h1.7v1.3a3.9 3.9 0 0 1 3.1-1.5 2.6 2.6 0 0 1 2.9 2.9v6.2h-1.7zm7.9-3.4c2.7 0 4.4 2.1 4.4 4.8v.4h-7.1a2.9 2.9 0 0 0 3 2.8 3.9 3.9 0 0 0 2.7-1.1l.7 1.1a4.7 4.7 0 0 1-3.5 1.4 4.7 4.7 0 0 1-.2-9.4zm-2.7 4h5.4a2.6 2.6 0 0 0-2.7-2.7 2.7 2.7 0 0 0-2.7 2.7zm-63.2 16.7h-3.8v-1.7h9.5v1.7h-3.9v10.7h-1.8zm13.2 4.9c0-1.5-.7-1.9-1.9-1.9a3.3 3.3 0 0 0-2.5 1.3v6.4h-1.6v-12.4h1.6v4.7a4.4 4.4 0 0 1 3.2-1.5 2.6 2.6 0 0 1 2.9 2.9v6.3h-1.7zm3.7-5.7a1.1 1.1 0 0 1 2.2 0 1.1 1.1 0 0 1-2.2 0zm.3 2.5h1.7v9h-1.7zm3.9 6.6a4.4 4.4 0 0 0 3 1.3c1.3 0 2-.6 2-1.3s-1-1.2-2.2-1.5-3.3-.7-3.3-2.6 1.2-2.7 3.4-2.7a4.6 4.6 0 0 1 3.4 1.3l-.7 1.2a3.2 3.2 0 0 0-2.7-1.1c-1.1 0-1.8.4-1.8 1.1s1 1.1 2.1 1.3 3.4.8 3.4 2.9-1.3 2.7-3.6 2.7a5.1 5.1 0 0 1-3.7-1.4zm12.5-9.1a1.1 1.1 0 0 1 1.1-1.1 1.1 1.1 0 0 1 1 1.1 1 1 0 0 1-1 1 1 1 0 0 1-1.1-1zm.2 2.5h1.7v9h-1.7zm4 6.6a4.2 4.2 0 0 0 3 1.3c1.3 0 1.9-.6 1.9-1.3s-1-1.2-2.1-1.5-3.3-.7-3.3-2.6 1.2-2.7 3.4-2.7a5 5 0 0 1 3.4 1.3l-.8 1.2a3.2 3.2 0 0 0-2.6-1.1c-1.1 0-1.8.4-1.8 1.1s.9 1.1 2 1.3 3.4.8 3.4 2.9-1.2 2.7-3.6 2.7a5.1 5.1 0 0 1-3.7-1.4zm12.7 5.8v-12.4h1.7v1.3a3.5 3.5 0 0 1 2.9-1.5c2.3 0 4 1.8 4 4.7s-1.7 4.7-4 4.7a3.4 3.4 0 0 1-2.9-1.5v4.7zm4.1-11.1a2.9 2.9 0 0 0-2.4 1.3v3.8a2.9 2.9 0 0 0 2.4 1.3c1.7 0 2.7-1.3 2.7-3.2s-1-3.2-2.7-3.2zm6.2-1.3h1.7v1.4a3.7 3.7 0 0 1 2.9-1.6v1.7h-.6a3 3 0 0 0-2.3 1.3v6.2h-1.7zm5.3 4.5a4.5 4.5 0 0 1 4.6-4.7 4.7 4.7 0 0 1 0 9.4 4.5 4.5 0 0 1-4.6-4.7zm7.3 0c0-1.7-.9-3.2-2.7-3.2s-2.8 1.5-2.8 3.2 1 3.2 2.8 3.2 2.7-1.5 2.7-3.2zm14.4-1.5a1.5 1.5 0 0 0-1.6-1.7 2.9 2.9 0 0 0-2.2 1.3v6.4H101v-6a1.5 1.5 0 0 0-1.6-1.7 2.7 2.7 0 0 0-2.2 1.3v6.4h-1.7v-9h1.7v1.3a3.9 3.9 0 0 1 2.9-1.5 2.3 2.3 0 0 1 2.4 1.7 3.6 3.6 0 0 1 3-1.7c1.7 0 2.6.9 2.6 2.7v6.5h-1.7zm3.4 1.5a4.5 4.5 0 1 1 4.5 4.7 4.4 4.4 0 0 1-4.5-4.7zm7.3 0c0-1.7-1-3.2-2.8-3.2s-2.8 1.5-2.8 3.2 1 3.2 2.8 3.2 2.8-1.5 2.8-3.2zm3.8 2.5v-5.5h-1.5v-1.5h1.5v-2.4h1.7v2.4h1.8v1.5h-1.8v5.1c0 .7.3 1.1.8 1.1a1.5 1.5 0 0 0 1-.3l.4 1.2a2.3 2.3 0 0 1-1.8.6 1.9 1.9 0 0 1-2.1-2.2zm4.7-9.5a1.1 1.1 0 1 1 2.2 0 1.1 1.1 0 0 1-2.2 0zm.3 2.5h1.6v9h-1.6zm3.4 4.5a4.5 4.5 0 1 1 4.5 4.7 4.4 4.4 0 0 1-4.5-4.7zm7.3 0c0-1.7-1-3.2-2.8-3.2s-2.8 1.5-2.8 3.2 1 3.2 2.8 3.2 2.8-1.5 2.8-3.2zm9.5-1.2c0-1.5-.8-2-1.9-2a3.1 3.1 0 0 0-2.5 1.3v6.4H140v-9h1.7v1.3a4.4 4.4 0 0 1 3.2-1.5 2.6 2.6 0 0 1 2.9 2.9v6.3h-1.7zm9.5 4.7a4.1 4.1 0 0 1-3 1.2 3 3 0 0 1-3.1-3 2.9 2.9 0 0 1 3.1-2.9 3.9 3.9 0 0 1 3 1.2v-1.5a2 2 0 0 0-2.2-1.8 3.6 3.6 0 0 0-2.7 1.2l-.7-1.1a4.9 4.9 0 0 1 3.6-1.5c2 0 3.6.9 3.6 3.1v6.1h-1.6zm0-2.5a2.8 2.8 0 0 0-2.3-1 1.9 1.9 0 0 0-2.1 1.8c0 1 .9 1.7 2.1 1.7a2.8 2.8 0 0 0 2.3-1zm3.9-8.9h1.7v12.4h-1.7zM15.9 402.5V397h-1.5v-1.4h1.5v-2.5h1.6v2.5h1.9v1.4h-1.9v5.2c0 .6.3 1 .9 1a1.2 1.2 0 0 0 .9-.3l.4 1.3a2.3 2.3 0 0 1-1.7.5 1.9 1.9 0 0 1-2.1-2.2zm8.9-7.2c2.6 0 4.3 2.1 4.3 4.9v.4H22a3.1 3.1 0 0 0 3.1 2.8 3.6 3.6 0 0 0 2.6-1.1l.8 1.1a4.8 4.8 0 0 1-3.6 1.3 4.7 4.7 0 0 1-.1-9.4zm-2.8 4.1h5.5a2.7 2.7 0 0 0-2.7-2.7 2.8 2.8 0 0 0-2.8 2.7z"/><path fill="#fff" d="M33.4 401l-2.5 3.5H29l3.3-4.6-3.1-4.3h1.9l2.3 3.2 2.3-3.2h1.9l-3.2 4.3 3.4 4.6h-1.9zm5.8 1.5V397h-1.5v-1.4h1.5v-2.5h1.7v2.5h1.8v1.4h-1.8v5.2c0 .6.3 1 .9 1a1.2 1.2 0 0 0 .9-.3l.4 1.3a2.6 2.6 0 0 1-1.7.5 2 2 0 0 1-2.2-2.2zm9.4-.4a4.2 4.2 0 0 0 3 1.3c1.3 0 2-.5 2-1.3s-1.1-1.2-2.2-1.4-3.3-.8-3.3-2.7 1.2-2.7 3.4-2.7a5 5 0 0 1 3.4 1.3l-.7 1.2a3.9 3.9 0 0 0-2.7-1.1c-1.1 0-1.8.4-1.8 1.2s.9 1 2.1 1.3 3.4.7 3.4 2.8-1.3 2.7-3.7 2.7a4.8 4.8 0 0 1-3.7-1.4zm12.2-6.8c2.7 0 4.4 2.1 4.4 4.9v.4h-7.1a2.9 2.9 0 0 0 3 2.8 3.9 3.9 0 0 0 2.7-1.1l.8 1.1a5 5 0 0 1-3.6 1.3 4.7 4.7 0 0 1-.2-9.4zm-2.7 4.1h5.5a2.8 2.8 0 0 0-5.5 0zm9.1 3.1V397h-1.4v-1.4h1.4v-2.5h1.7v2.5h1.8v1.4h-1.8v5.2c0 .6.3 1 .9 1a1.2 1.2 0 0 0 .9-.3l.4 1.3a2.5 2.5 0 0 1-1.7.5 2 2 0 0 1-2.2-2.2zm14.9 1a3.7 3.7 0 0 1-2.9 1.2 2.9 2.9 0 0 1-3.1-2.9 2.9 2.9 0 0 1 3.1-3 3.6 3.6 0 0 1 2.9 1.2v-1.5c0-1.1-.9-1.7-2.2-1.7a3.5 3.5 0 0 0-2.6 1.2l-.8-1.2a5.1 5.1 0 0 1 3.7-1.5c2 0 3.6.9 3.6 3.2v6h-1.7zm0-2.5a2.9 2.9 0 0 0-2.3-1 1.8 1.8 0 0 0-2 1.8 1.8 1.8 0 0 0 2 1.8 2.7 2.7 0 0 0 2.3-1.1zm4 1.1a4.2 4.2 0 0 0 3 1.3c1.3 0 1.9-.5 1.9-1.3s-1-1.2-2.1-1.4-3.3-.8-3.3-2.7 1.2-2.7 3.4-2.7a5 5 0 0 1 3.4 1.3l-.7 1.2a3.9 3.9 0 0 0-2.7-1.1c-1.1 0-1.8.4-1.8 1.2s.9 1 2 1.3 3.5.7 3.5 2.8-1.3 2.7-3.7 2.7a4.8 4.8 0 0 1-3.7-1.4zm18.2 1.4a3.7 3.7 0 0 1-2.9 1.2 2.9 2.9 0 0 1-3.1-2.9 2.9 2.9 0 0 1 3.1-3 3.7 3.7 0 0 1 2.9 1.2v-1.5c0-1.1-.9-1.7-2.2-1.7a3.5 3.5 0 0 0-2.6 1.2l-.8-1.2a5.1 5.1 0 0 1 3.7-1.5c1.9 0 3.6.9 3.6 3.2v6h-1.7zm0-2.5a2.9 2.9 0 0 0-2.3-1 1.8 1.8 0 0 0-2 1.8 1.8 1.8 0 0 0 2 1.8 2.7 2.7 0 0 0 2.3-1.1zm4-5.4h1.7v1.3a3.5 3.5 0 0 1 2.9-1.5v1.6h-.6a3 3 0 0 0-2.3 1.3v6.2h-1.7zm9.8-.3c2.7 0 4.4 2.1 4.4 4.9v.4h-7.1a2.9 2.9 0 0 0 3 2.8 3.9 3.9 0 0 0 2.7-1.1l.8 1.1a5 5 0 0 1-3.6 1.3 4.7 4.7 0 0 1-.2-9.4zm-2.7 4.1h5.4a2.6 2.6 0 0 0-2.7-2.7 2.7 2.7 0 0 0-2.7 2.7zm14.3 4.1a3.7 3.7 0 0 1-2.9 1.2 2.9 2.9 0 0 1-3.1-2.9 2.9 2.9 0 0 1 3.1-3 3.7 3.7 0 0 1 2.9 1.2v-1.5c0-1.1-.9-1.7-2.2-1.7a3.7 3.7 0 0 0-2.7 1.2l-.7-1.2a5 5 0 0 1 3.7-1.5c1.9 0 3.6.9 3.6 3.2v6h-1.7zm0-2.5a3.1 3.1 0 0 0-2.3-1 1.8 1.8 0 0 0-2 1.8 1.8 1.8 0 0 0 2 1.8 2.8 2.8 0 0 0 2.3-1.1zm8.7 1.5V397h-1.5v-1.4h1.5v-2.5h1.7v2.5h1.8v1.4h-1.8v5.2c0 .6.3 1 .9 1a1.4 1.4 0 0 0 .9-.3l.4 1.3a2.8 2.8 0 0 1-1.8.5 1.9 1.9 0 0 1-2.1-2.2zm5.5 4.2a1.1 1.1 0 0 0 1.3-.9l.6-1.2-3.7-9h1.7l2.8 7 2.8-7h1.8l-4.4 10.6a2.7 2.7 0 0 1-2.8 1.9h-1.1l.3-1.5zm8.3 1.2v-12.3h1.7v1.2a3.8 3.8 0 0 1 2.9-1.5c2.3 0 4 1.8 4 4.7s-1.7 4.7-4 4.7a3.4 3.4 0 0 1-2.9-1.5v4.7zm4.2-11.1a3.1 3.1 0 0 0-2.5 1.3v3.8a3.1 3.1 0 0 0 2.5 1.3c1.6 0 2.7-1.3 2.7-3.2s-1.1-3.2-2.7-3.2zm10.1-1.5c2.7 0 4.3 2.1 4.3 4.9v.4h-7.1a3.1 3.1 0 0 0 3.1 2.8 3.6 3.6 0 0 0 2.6-1.1l.8 1.1a4.8 4.8 0 0 1-3.6 1.3 4.4 4.4 0 0 1-4.6-4.7 4.5 4.5 0 0 1 4.5-4.7zm-2.8 4.1h5.5a2.6 2.6 0 0 0-2.7-2.7 2.8 2.8 0 0 0-2.8 2.7zm9.6 3a1.2 1.2 0 0 1 1.2 1.1 1.2 1.2 0 1 1-2.4 0 1.2 1.2 0 0 1 1.2-1.1zM14.2 503.9h95.3v95.3H14.2zm.9 109.5a6.1 6.1 0 0 1 6.3-6.3 5.5 5.5 0 0 1 4.9 2.6l-1.6.8a3.8 3.8 0 0 0-3.3-1.8 4.8 4.8 0 0 0 0 9.5 3.8 3.8 0 0 0 3.3-1.8l1.6.8a5.5 5.5 0 0 1-4.9 2.6 6.2 6.2 0 0 1-6.3-6.4zm12.1 1.7a4.5 4.5 0 1 1 9 0 4.5 4.5 0 1 1-9 0zm7.3 0c0-1.7-1-3.2-2.8-3.2s-2.8 1.5-2.8 3.2 1 3.2 2.8 3.2 2.8-1.5 2.8-3.2zm2.2-4.4h1.7l2.8 7 2.8-7h1.8l-3.7 8.9h-1.8zm14-.3c2.7 0 4.4 2.1 4.4 4.9v.4H48a3 3 0 0 0 3 2.8 3.9 3.9 0 0 0 2.7-1.1l.8 1.1a5 5 0 0 1-3.6 1.3 4.7 4.7 0 0 1-.2-9.4zm-2.7 4.1h5.5a2.8 2.8 0 0 0-5.5 0zm8.8-3.8h1.7v1.3a3.6 3.6 0 0 1 2.9-1.5v1.6h-.6a3 3 0 0 0-2.3 1.3v6.2h-1.7zm5.9-3.4h1.7v12.3h-1.7zm3.7.8a1.1 1.1 0 0 1 1.1-1.1 1.1 1.1 0 0 1 0 2.2 1.1 1.1 0 0 1-1.1-1.1zm.2 2.6h1.7v8.9h-1.7zm10 3.2c0-1.5-.7-2-1.9-2a3.2 3.2 0 0 0-2.4 1.3v6.4h-1.7v-8.9h1.7v1.2a4.2 4.2 0 0 1 3.1-1.5 2.6 2.6 0 0 1 2.9 2.9v6.3h-1.7zm7.9-3.5c2.7 0 4.4 2.1 4.4 4.9v.4h-7.1a2.9 2.9 0 0 0 3 2.8 3.9 3.9 0 0 0 2.7-1.1l.7 1.1a4.6 4.6 0 0 1-3.5 1.3 4.7 4.7 0 0 1-.2-9.4zm-2.7 4.1h5.4a2.6 2.6 0 0 0-2.7-2.7 2.7 2.7 0 0 0-2.7 2.7z"/><path fill="#ccc" d="M30.9 512.6l-4 9.9h-.8l-4-9.9v9.9h-1.8v-12.4h2.6l3.6 8.9 3.6-8.9h2.7v12.4h-1.9zm3.6 5.4a4.5 4.5 0 0 1 4.6-4.7 4.7 4.7 0 0 1 0 9.4 4.5 4.5 0 0 1-4.6-4.7zm7.3 0c0-1.7-.9-3.2-2.7-3.2s-2.8 1.5-2.8 3.2 1 3.2 2.8 3.2 2.7-1.5 2.7-3.2zm9.9 3.2a3.8 3.8 0 0 1-2.9 1.5c-2.4 0-4-1.8-4-4.7s1.6-4.7 4-4.7a3.5 3.5 0 0 1 2.9 1.5v-4.7h1.7v12.4h-1.7zm0-5.1a3.3 3.3 0 0 0-2.5-1.3c-1.7 0-2.7 1.3-2.7 3.2s1 3.2 2.7 3.2a3.3 3.3 0 0 0 2.5-1.3zm7.9-2.8c2.7 0 4.3 2.1 4.3 4.8v.4h-7a2.8 2.8 0 0 0 3 2.8 4 4 0 0 0 2.6-1l.8 1.1a5.3 5.3 0 0 1-3.6 1.3 4.7 4.7 0 0 1-.1-9.4zm-2.8 4h5.5a2.5 2.5 0 0 0-2.7-2.6 2.8 2.8 0 0 0-2.8 2.6zm8.9-7.2h1.6v12.4h-1.6zm-45.4 22.2h5.2a3.7 3.7 0 0 1 3.9 3.8 3.6 3.6 0 0 1-3.9 3.8h-3.4v4.8h-1.8zm4.9 1.7h-3.1v4.3h3.1a2.1 2.1 0 0 0 2.3-2.2 2.1 2.1 0 0 0-2.3-2.1zm11.8 4.9a1.7 1.7 0 0 0-1.9-1.9 3.1 3.1 0 0 0-2.5 1.3v6.4h-1.7v-12.4h1.7v4.7a4.4 4.4 0 0 1 3.2-1.5c1.9 0 2.8 1 2.8 2.9v6.3H37zm3.4 1.3a4.5 4.5 0 1 1 4.5 4.7 4.4 4.4 0 0 1-4.5-4.7zm7.3 0c0-1.7-1-3.2-2.8-3.2s-2.8 1.5-2.8 3.2 1 3.2 2.8 3.2 2.8-1.5 2.8-3.2zm3.8 2.5v-5.5H50v-1.5h1.5v-2.4h1.7v2.4H55v1.5h-1.8v5.1c0 .7.2 1.1.8 1.1s.8-.1.9-.3l.5 1.2a2.3 2.3 0 0 1-1.8.6 1.9 1.9 0 0 1-2.1-2.2zm4.4-2.5a4.5 4.5 0 1 1 4.5 4.7 4.4 4.4 0 0 1-4.5-4.7zm7.3 0c0-1.7-1-3.2-2.8-3.2s-2.8 1.5-2.8 3.2 1 3.2 2.8 3.2 2.8-1.5 2.8-3.2z"/><path fill="#fff" d="M239 652.6h95.3v95.3H239zm.9 109.5a6.2 6.2 0 0 1 6.3-6.4 5.6 5.6 0 0 1 4.9 2.6l-1.5.9a3.9 3.9 0 0 0-3.4-1.8 4.7 4.7 0 0 0 0 9.4 3.9 3.9 0 0 0 3.4-1.8l1.5.9a5.7 5.7 0 0 1-4.9 2.6 6.2 6.2 0 0 1-6.3-6.4zm12.1 1.7a4.6 4.6 0 1 1 4.5 4.7 4.5 4.5 0 0 1-4.5-4.7zm7.3 0c0-1.7-1-3.2-2.8-3.2s-2.7 1.5-2.7 3.2 1 3.2 2.7 3.2 2.8-1.5 2.8-3.2zm2.2-4.5h1.8l2.8 7 2.8-7h1.8l-3.7 9h-1.8zm14.1-.2c2.7 0 4.3 2.1 4.3 4.8v.4h-7.1a3 3 0 0 0 3.1 2.8 4 4 0 0 0 2.6-1l.8 1.1a5.3 5.3 0 0 1-3.6 1.3 4.4 4.4 0 0 1-4.6-4.7 4.5 4.5 0 0 1 4.5-4.7zm-2.8 4h5.5a2.6 2.6 0 0 0-2.7-2.6 2.8 2.8 0 0 0-2.8 2.6zm8.8-3.8h1.7v1.4a3.9 3.9 0 0 1 2.9-1.6v1.7h-.5a3.4 3.4 0 0 0-2.4 1.3v6.3h-1.7zm5.9-3.4h1.7v12.4h-1.7zm3.7.9a1.1 1.1 0 0 1 2.2 0 1.1 1.1 0 0 1-2.2 0zm.3 2.5h1.6v9h-1.6zm10 3.2a1.7 1.7 0 0 0-1.9-1.9 3.1 3.1 0 0 0-2.5 1.3v6.4h-1.7v-9h1.7v1.3a4.4 4.4 0 0 1 3.2-1.5c1.9 0 2.8 1 2.8 2.9v6.3h-1.6zm7.8-3.4c2.7 0 4.4 2.1 4.4 4.8v.4h-7.1a2.9 2.9 0 0 0 3.1 2.8 4.2 4.2 0 0 0 2.6-1l.8 1.1a5.5 5.5 0 0 1-3.6 1.3 4.7 4.7 0 0 1-.2-9.4zm-2.7 4h5.5a2.8 2.8 0 0 0-2.8-2.6 2.7 2.7 0 0 0-2.7 2.6z"/><path fill="#ccc" d="M255.7 661.3l-4 9.8h-.7l-4-9.8v9.8h-1.9v-12.3h2.7l3.5 8.8 3.6-8.8h2.7v12.3h-1.9zm3.7 5.3a4.5 4.5 0 1 1 4.5 4.7 4.4 4.4 0 0 1-4.5-4.7zm7.3 0a2.8 2.8 0 1 0-5.6 0c0 1.7 1 3.3 2.8 3.3s2.8-1.6 2.8-3.3zm9.8 3.2a3.5 3.5 0 0 1-2.9 1.5c-2.3 0-4-1.7-4-4.6s1.7-4.7 4-4.7a3.5 3.5 0 0 1 2.9 1.5v-4.7h1.7v12.3h-1.7zm0-5.1a3 3 0 0 0-2.5-1.3c-1.6 0-2.7 1.4-2.7 3.3s1.1 3.2 2.7 3.2a3 3 0 0 0 2.5-1.3zm7.9-2.7c2.7 0 4.4 2 4.4 4.8v.4h-7.1a2.9 2.9 0 0 0 3 2.8 3.9 3.9 0 0 0 2.7-1.1l.8 1.1a5 5 0 0 1-3.6 1.3 4.7 4.7 0 0 1-.2-9.3zm-2.7 4h5.4a2.6 2.6 0 0 0-2.7-2.7 2.7 2.7 0 0 0-2.7 2.7zm8.8-7.2h1.7v12.3h-1.7zM245.1 681h5.2a3.7 3.7 0 0 1 4 3.8 3.8 3.8 0 0 1-4 3.8H247v4.8h-1.9zm5 1.6H247v4.4h3.1a2.2 2.2 0 1 0 0-4.4zm11.7 5c0-1.5-.8-1.9-1.9-1.9a3.1 3.1 0 0 0-2.5 1.3v6.4h-1.6V681h1.6v4.7a4.1 4.1 0 0 1 3.2-1.5c1.9 0 2.9.9 2.9 2.8v6.4h-1.7zm3.4 1.3a4.5 4.5 0 1 1 4.5 4.7 4.4 4.4 0 0 1-4.5-4.7zm7.3 0c0-1.7-1-3.2-2.8-3.2s-2.8 1.5-2.8 3.2 1 3.2 2.8 3.2 2.8-1.5 2.8-3.2zm3.8 2.5v-5.5h-1.5v-1.5h1.5V682h1.7v2.4h1.8v1.5H278v5.1c0 .6.3 1.1.9 1.1a1.5 1.5 0 0 0 .9-.4l.4 1.3a2.7 2.7 0 0 1-1.8.6 1.9 1.9 0 0 1-2.1-2.2zm4.4-2.5a4.6 4.6 0 1 1 4.5 4.7 4.5 4.5 0 0 1-4.5-4.7zm7.3 0c0-1.7-1-3.2-2.8-3.2s-2.7 1.5-2.7 3.2 1 3.2 2.7 3.2 2.8-1.5 2.8-3.2z"/><path fill="#fff" d="M364.9 652.6h95.3v95.3h-95.3zm.8 109.5a6.3 6.3 0 0 1 6.4-6.4 5.7 5.7 0 0 1 4.9 2.6l-1.6.9a3.7 3.7 0 0 0-3.3-1.8 4.7 4.7 0 0 0 0 9.4 3.7 3.7 0 0 0 3.3-1.8l1.6.9a5.7 5.7 0 0 1-4.9 2.6 6.3 6.3 0 0 1-6.4-6.4zm12.2 1.7a4.5 4.5 0 1 1 4.5 4.7 4.4 4.4 0 0 1-4.5-4.7zm7.3 0c0-1.7-1-3.2-2.8-3.2s-2.8 1.5-2.8 3.2 1 3.2 2.8 3.2 2.8-1.5 2.8-3.2zm2.1-4.5h1.8l2.8 7 2.8-7h1.8l-3.7 9H391zm14.1-.2c2.7 0 4.4 2.1 4.4 4.8v.4h-7.1a2.8 2.8 0 0 0 3 2.8 4.3 4.3 0 0 0 2.7-1l.8 1.1a5.5 5.5 0 0 1-3.6 1.3 4.7 4.7 0 0 1-.2-9.4zm-2.7 4h5.5a2.8 2.8 0 0 0-2.8-2.6 2.7 2.7 0 0 0-2.7 2.6zm8.8-3.8h1.7v1.4a3.7 3.7 0 0 1 2.9-1.6v1.7h-.6a3.4 3.4 0 0 0-2.3 1.3v6.3h-1.7zm5.9-3.4h1.7v12.4h-1.7zm3.7.9a1.1 1.1 0 0 1 1.1-1.1 1 1 0 0 1 1 1.1.9.9 0 0 1-1 1 1 1 0 0 1-1.1-1zm.2 2.5h1.7v9h-1.7zm10 3.2c0-1.4-.7-1.9-1.9-1.9a2.9 2.9 0 0 0-2.4 1.3v6.4h-1.7v-9h1.7v1.3a4 4 0 0 1 3.1-1.5 2.6 2.6 0 0 1 2.9 2.9v6.3h-1.7zm7.9-3.4c2.7 0 4.4 2.1 4.4 4.8v.4h-7.1a2.8 2.8 0 0 0 3 2.8 4.3 4.3 0 0 0 2.7-1l.7 1.1a5.1 5.1 0 0 1-3.6 1.3 4.7 4.7 0 0 1-.1-9.4zm-2.7 4h5.4a2.6 2.6 0 0 0-2.7-2.6 2.7 2.7 0 0 0-2.7 2.6z"/><path fill="#ccc" d="M381.6 661.3l-4 9.8h-.8l-4-9.8v9.8H371v-12.3h2.6l3.6 8.8 3.6-8.8h2.6v12.3h-1.8zm3.6 5.3a4.6 4.6 0 1 1 9.1 0 4.6 4.6 0 1 1-9.1 0zm7.3 0a2.8 2.8 0 1 0-5.5 0c0 1.7 1 3.3 2.7 3.3s2.8-1.6 2.8-3.3zm9.9 3.2a3.8 3.8 0 0 1-2.9 1.5c-2.4 0-4-1.7-4-4.6s1.6-4.7 4-4.7a3.5 3.5 0 0 1 2.9 1.5v-4.7h1.7v12.3h-1.7zm0-5.1a3.3 3.3 0 0 0-2.5-1.3c-1.7 0-2.7 1.4-2.7 3.3s1 3.2 2.7 3.2a3.3 3.3 0 0 0 2.5-1.3zm7.9-2.7c2.7 0 4.3 2 4.3 4.8v.4h-7a2.9 2.9 0 0 0 3 2.8 3.6 3.6 0 0 0 2.6-1.1l.8 1.1a4.8 4.8 0 0 1-3.6 1.3 4.7 4.7 0 0 1-.1-9.3zm-2.8 4h5.5a2.6 2.6 0 0 0-2.7-2.7 2.8 2.8 0 0 0-2.8 2.7zm8.9-7.2h1.6v12.3h-1.6zM371 681h5.2a3.6 3.6 0 0 1 3.9 3.8 3.7 3.7 0 0 1-3.9 3.8h-3.4v4.8H371zm4.9 1.6h-3.1v4.4h3.1a2.2 2.2 0 1 0 0-4.4zm11.8 5c0-1.5-.8-1.9-2-1.9a3.1 3.1 0 0 0-2.4 1.3v6.4h-1.7V681h1.7v4.7a4.1 4.1 0 0 1 3.2-1.5c1.9 0 2.8.9 2.8 2.8v6.4h-1.6zm3.4 1.3a4.5 4.5 0 1 1 4.5 4.7 4.4 4.4 0 0 1-4.5-4.7zm7.3 0c0-1.7-1-3.2-2.8-3.2s-2.8 1.5-2.8 3.2 1 3.2 2.8 3.2 2.8-1.5 2.8-3.2zm3.8 2.5v-5.5h-1.5v-1.5h1.5V682h1.6v2.4h1.9v1.5h-1.9v5.1c0 .6.3 1.1.9 1.1a1.1 1.1 0 0 0 .9-.4l.5 1.3a2.7 2.7 0 0 1-1.8.6 1.9 1.9 0 0 1-2.1-2.2zm4.4-2.5a4.5 4.5 0 1 1 4.5 4.7 4.4 4.4 0 0 1-4.5-4.7zm7.3 0c0-1.7-1-3.2-2.8-3.2s-2.8 1.5-2.8 3.2 1 3.2 2.8 3.2 2.8-1.5 2.8-3.2z"/><path fill="#fff" d="M490.8 652.6h95.3v95.3h-95.3zm.8 109.5a6.2 6.2 0 0 1 6.3-6.4 5.8 5.8 0 0 1 5 2.6l-1.6.9a3.9 3.9 0 0 0-3.4-1.8 4.7 4.7 0 0 0 0 9.4 3.9 3.9 0 0 0 3.4-1.8l1.6.9a5.8 5.8 0 0 1-5 2.6 6.2 6.2 0 0 1-6.3-6.4zm12.1 1.7a4.5 4.5 0 0 1 4.6-4.7 4.7 4.7 0 0 1 0 9.4 4.5 4.5 0 0 1-4.6-4.7zm7.3 0c0-1.7-.9-3.2-2.7-3.2s-2.8 1.5-2.8 3.2 1 3.2 2.8 3.2 2.7-1.5 2.7-3.2zm2.2-4.5h1.8l2.8 7 2.8-7h1.8l-3.7 9h-1.8zm14.1-.2c2.7 0 4.3 2.1 4.3 4.8v.4h-7a2.8 2.8 0 0 0 3 2.8 4.3 4.3 0 0 0 2.7-1l.7 1.1a5.3 5.3 0 0 1-3.6 1.3 4.7 4.7 0 0 1-.1-9.4zm-2.8 4h5.5a2.6 2.6 0 0 0-2.7-2.6 2.8 2.8 0 0 0-2.8 2.6zm8.9-3.8h1.6v1.4a3.9 3.9 0 0 1 3-1.6v1.7h-.6a3.6 3.6 0 0 0-2.4 1.2v6.3h-1.6zm5.9-3.4h1.6v12.4h-1.6zm3.6.9a1.1 1.1 0 0 1 2.2 0 1.1 1.1 0 0 1-2.2 0zm.3 2.5h1.7v9h-1.7zm10 3.2a1.7 1.7 0 0 0-1.9-1.9 3.1 3.1 0 0 0-2.5 1.3v6.4h-1.6v-9h1.6v1.3a4.4 4.4 0 0 1 3.2-1.5 2.6 2.6 0 0 1 2.9 2.9v6.3h-1.7zm7.9-3.4c2.6 0 4.3 2.1 4.3 4.8v.4h-7.1a3 3 0 0 0 3.1 2.8 4 4 0 0 0 2.6-1l.8 1.1a5.3 5.3 0 0 1-3.6 1.3 4.4 4.4 0 0 1-4.6-4.7 4.5 4.5 0 0 1 4.5-4.7zm-2.8 4h5.5a2.7 2.7 0 0 0-2.7-2.6 2.8 2.8 0 0 0-2.8 2.6z"/><path fill="#ccc" d="M507.5 661.3l-4 9.8h-.8l-4-9.8v9.8h-1.9v-12.3h2.7l3.6 8.8 3.6-8.8h2.6v12.3h-1.8zm3.6 5.3a4.5 4.5 0 1 1 4.5 4.7 4.4 4.4 0 0 1-4.5-4.7zm7.3 0a2.8 2.8 0 1 0-5.6 0c0 1.7 1 3.3 2.8 3.3s2.8-1.6 2.8-3.3zm9.8 3.2a3.5 3.5 0 0 1-2.9 1.5c-2.3 0-4-1.7-4-4.6s1.7-4.7 4-4.7a3.4 3.4 0 0 1 2.9 1.5v-4.7h1.7v12.3h-1.7zm0-5.1a2.9 2.9 0 0 0-2.4-1.3c-1.7 0-2.7 1.4-2.7 3.3s1 3.2 2.7 3.2a2.9 2.9 0 0 0 2.4-1.3zm7.9-2.7c2.7 0 4.4 2 4.4 4.8v.4h-7.1a3 3 0 0 0 3.1 2.8 3.8 3.8 0 0 0 2.6-1.1l.8 1.1a5 5 0 0 1-3.6 1.3 4.7 4.7 0 0 1-.2-9.3zm-2.7 4h5.5a2.8 2.8 0 0 0-5.5 0zm8.8-7.2h1.7v12.3h-1.7zM496.8 681h5.2a3.7 3.7 0 0 1 4 3.8 3.7 3.7 0 0 1-4 3.8h-3.3v4.8h-1.9zm5 1.6h-3.1v4.4h3.1a2.2 2.2 0 1 0 0-4.4zm11.7 5c0-1.5-.7-1.9-1.9-1.9a3.3 3.3 0 0 0-2.5 1.3v6.4h-1.6V681h1.6v4.7a4.1 4.1 0 0 1 3.2-1.5c1.9 0 2.9.9 2.9 2.8v6.4h-1.7zm3.4 1.3a4.6 4.6 0 1 1 4.5 4.7 4.5 4.5 0 0 1-4.5-4.7zm7.3 0c0-1.7-1-3.2-2.8-3.2s-2.7 1.5-2.7 3.2 1 3.2 2.7 3.2 2.8-1.5 2.8-3.2zm3.8 2.5v-5.5h-1.4v-1.5h1.4V682h1.7v2.4h1.8v1.5h-1.8v5.1c0 .6.3 1.1.9 1.1a1.3 1.3 0 0 0 .9-.4l.4 1.3a2.4 2.4 0 0 1-1.7.6 2 2 0 0 1-2.2-2.2zm4.5-2.5a4.5 4.5 0 1 1 4.5 4.7 4.4 4.4 0 0 1-4.5-4.7zm7.3 0c0-1.7-1-3.2-2.8-3.2s-2.8 1.5-2.8 3.2 1 3.2 2.8 3.2 2.8-1.5 2.8-3.2z"/><path fill="#b3b3b3" d="M.5 775.5h612v16.99H.5z"/><path fill="#fff" d="M243.1 779.8h3.9a2.1 2.1 0 0 1 2.4 2.1 1.8 1.8 0 0 1-1.5 1.9 2.2 2.2 0 0 1 1.7 2.1 2.2 2.2 0 0 1-2.5 2.2h-4zm3.7 3.5a1.2 1.2 0 1 0 0-2.4h-2.4v2.4zm.1 3.7a1.3 1.3 0 1 0 0-2.6h-2.5v2.6zm12.8-7.4a4.4 4.4 0 1 1-4.2 4.4 4.2 4.2 0 0 1 4.2-4.4zm0 1.2c-1.8 0-2.9 1.3-2.9 3.2a2.9 2.9 0 1 0 5.8 0c0-1.9-1.1-3.2-2.9-3.2zm12.2.1h-2.6v-1.1h6.5v1.1h-2.6v7.2h-1.3zm12 0h-2.6v-1.1h6.4v1.1h-2.6v7.2h-1.2zm13.4-1.3a4.4 4.4 0 1 1-4.2 4.4 4.2 4.2 0 0 1 4.2-4.4zm0 1.2c-1.8 0-2.9 1.3-2.9 3.2a2.9 2.9 0 1 0 5.8 0c0-1.9-1.1-3.2-2.9-3.2zm17.7.7l-2.7 6.6h-.6l-2.7-6.6v6.6h-1.2v-8.3h1.8l2.4 6 2.4-6h1.8v8.3H315zm16 4.5a3.8 3.8 0 0 0 2.7 1.2c1.3 0 1.8-.7 1.8-1.3s-1-1.2-2-1.4-2.9-.8-2.9-2.5 1.2-2.3 2.9-2.3a4.5 4.5 0 0 1 3.1 1.1l-.7.9a3.8 3.8 0 0 0-2.5-.9c-.9 0-1.5.4-1.5 1.1s.9 1 1.9 1.3 3 .8 3 2.6-.9 2.5-3.2 2.5a4.6 4.6 0 0 1-3.3-1.3zm13.9-5.1h-2.6v-1.1h6.5v1.1h-2.6v7.2h-1.3zm12.7 4h-1.5v3.2h-1.3v-8.3h3.5a2.5 2.5 0 0 1 2.7 2.5 2.4 2.4 0 0 1-2.1 2.5l2.2 3.3h-1.5zm.6-4h-2.1v2.9h2.1a1.4 1.4 0 0 0 1.5-1.5 1.4 1.4 0 0 0-1.5-1.4zm9.1-1.1h1.3v8.3h-1.3zm7.9 0h3.5a2.6 2.6 0 1 1 0 5.1h-2.3v3.2h-1.2zm3.4 1.1h-2.2v2.9h2.2a1.4 1.4 0 0 0 1.5-1.5 1.4 1.4 0 0 0-1.5-1.4z"/><path fill="#bfbfbf" d="M.5.5h612v22.15H.5z"/><path fill="#fff" d="M193.1 8.4h-2.6V7.3h6.4v1.1h-2.6v7.3h-1.2zm13.4-1.2a4.1 4.1 0 0 1 4.2 4.3 4.2 4.2 0 1 1-8.4 0 4.1 4.1 0 0 1 4.2-4.3zm0 1.1c-1.8 0-2.9 1.3-2.9 3.2a2.9 2.9 0 1 0 5.8 0c0-1.9-1.1-3.2-2.9-3.2zm10.5-1h3.5a2.5 2.5 0 0 1 2.7 2.6 2.5 2.5 0 0 1-2.7 2.5h-2.3v3.3H217zm3.3 1.1h-2.1v2.9h2.1a1.4 1.4 0 0 0 1.6-1.4 1.5 1.5 0 0 0-1.6-1.5zm17.1 5.1a3.8 3.8 0 0 0 2.6 1.2c1.4 0 1.9-.7 1.9-1.3s-1-1.1-2-1.4-2.9-.7-2.9-2.4 1.2-2.4 2.9-2.4a4.5 4.5 0 0 1 3.1 1.1l-.8 1a3.1 3.1 0 0 0-2.4-1c-.9 0-1.5.5-1.5 1.2s.9 1 1.9 1.2 3 .8 3 2.6-1 2.5-3.2 2.5a4.2 4.2 0 0 1-3.3-1.3zm13.9-5.1h-2.6V7.3h6.4v1.1h-2.5v7.3h-1.3zm12.7 4h-1.5v3.3h-1.3V7.3h3.5a2.5 2.5 0 0 1 2.7 2.6 2.3 2.3 0 0 1-2.1 2.4l2.2 3.4H266zm.6-4h-2.1v2.9h2.1a1.3 1.3 0 0 0 1.5-1.4 1.4 1.4 0 0 0-1.5-1.5zm9.1-1.1h1.3v8.4h-1.3zm7.9 0h3.5a2.5 2.5 0 0 1 2.7 2.6 2.5 2.5 0 0 1-2.7 2.5h-2.3v3.3h-1.2zm3.3 1.1h-2.1v2.9h2.1a1.4 1.4 0 0 0 1.6-1.4 1.5 1.5 0 0 0-1.6-1.5zm16.4 2.5h9.6v1h-9.6zm23.9 2.6a3.8 3.8 0 0 0 2.6 1.2c1.4 0 1.9-.7 1.9-1.3s-1-1.1-2.1-1.4-2.9-.7-2.9-2.4 1.3-2.4 3-2.4a4.1 4.1 0 0 1 3 1.1l-.7 1a3.1 3.1 0 0 0-2.4-1c-.9 0-1.6.5-1.6 1.2s.9 1 2 1.2 2.9.8 2.9 2.6-.9 2.5-3.1 2.5a4.2 4.2 0 0 1-3.3-1.3zm13.9-5.1h-2.6V7.3h6.4v1.1h-2.6v7.3h-1.2zm12.7 4h-1.6v3.3H349V7.3h3.5a2.5 2.5 0 0 1 2.7 2.6 2.3 2.3 0 0 1-2.1 2.4l2.1 3.4h-1.4zm.5-4h-2.1v2.9h2.1a1.4 1.4 0 0 0 1.6-1.4 1.5 1.5 0 0 0-1.6-1.5zm14.5 5.5h-4.1l-.7 1.8h-1.4l3.3-8.4h1.6l3.3 8.4h-1.4zm-3.8-1.1h3.4l-1.7-4.4zm11.6-5.5h3.5a2.5 2.5 0 0 1 2.7 2.6 2.5 2.5 0 0 1-2.7 2.5h-2.3v3.3h-1.2zm3.3 1.1h-2.1v2.9h2.1a1.4 1.4 0 0 0 1.6-1.4 1.5 1.5 0 0 0-1.6-1.5zm16.9-1.1h1.3v7.3h3.8v1.1h-5.1zm11.2 0h1.3v8.4H406zm9.1 1.9v6.5h-1.2V7.3h1.3l4.5 6.3V7.3h1.3v8.4h-1.2zm12.5-1.9h5.6v1.1h-4.4v2.5h4.3V12h-4.3v2.6h4.4v1.1h-5.6z"/><path fill="#b3b3b3" d="M612.5.5h-60.9l60.9 60.9V.5z"/><path fill="#fff" d="M582.8 5.8l3.7 3.7a3.8 3.8 0 1 1-5.4 5.4l-2.4-2.4-3.3 3.4-1.4-1.3zm2.3 4.7l-2.2-2.2-3 3.1 2.2 2.2a2.1 2.1 0 0 0 3.1 0 2 2 0 0 0-.1-3.1zm5.2 2.9l1.4 1.3-5.3 5.3a3.1 3.1 0 0 0-.1 4.8 3.1 3.1 0 0 0 4.8-.1l5.3-5.3 1.3 1.3-5.3 5.3c-2.2 2.2-4.8 2.4-7.3 0s-2.2-5.2-.1-7.3zm13.4 13a5.8 5.8 0 0 1 1.7 5.2l-1.7-.4a4.2 4.2 0 0 0-1.2-3.6 4.4 4.4 0 0 0-6.5.2 4.4 4.4 0 0 0-.2 6.5 5.3 5.3 0 0 0 3.1 1.4l1.6-1.6-2.8-2.8 1.1-1.2 4.1 4.2-3.2 3.2a6.5 6.5 0 0 1-5.1-2 6.4 6.4 0 0 1 9.1-9.1z"/></svg>