<svg xmlns="http://www.w3.org/2000/svg" width="613" height="793" viewBox="0 0 613 793"><title>magazine-cover-wireframe</title><g id="Layer_2" data-name="Layer 2"><g id="Layer_1-2" data-name="Layer 1"><path d="M296.3,484.5h11.9v2.3H299V492h9v2.3h-9v7.9h-2.7Z" fill="#ccc"/><path d="M316.1,489c3.8,0,6.2,3,6.2,6.9v.6H312.2a4.2,4.2,0,0,0,4.3,4,5.2,5.2,0,0,0,3.8-1.5l1.2,1.6a7.5,7.5,0,0,1-5.2,1.9,6.8,6.8,0,0,1-.2-13.5Zm-3.9,5.8H320a3.8,3.8,0,0,0-3.9-3.8A3.9,3.9,0,0,0,312.2,494.8Z" fill="#ccc"/><path d="M332.7,500.7a5.3,5.3,0,0,1-4.2,1.8,4.3,4.3,0,0,1-4.4-4.3,4.1,4.1,0,0,1,4.4-4.2,5.6,5.6,0,0,1,4.2,1.7v-2.1c0-1.6-1.3-2.5-3.1-2.5a5.2,5.2,0,0,0-3.9,1.7l-1-1.7a7.2,7.2,0,0,1,5.2-2.1c2.8,0,5.2,1.2,5.2,4.5v8.7h-2.4Zm0-3.5a4,4,0,0,0-3.3-1.5,2.6,2.6,0,0,0-2.9,2.6c0,1.5,1.2,2.5,2.9,2.5a4,4,0,0,0,3.3-1.5Z" fill="#ccc"/><path d="M338.9,499.3v-7.9h-2.2v-2.1h2.2v-3.5h2.3v3.5h2.6v2.1h-2.6v7.4a1.3,1.3,0,0,0,1.3,1.5,1.7,1.7,0,0,0,1.3-.5l.6,1.8a3.2,3.2,0,0,1-2.5.9C339.9,502.5,338.9,501.3,338.9,499.3Z" fill="#ccc"/><path d="M354.6,500.4a6.2,6.2,0,0,1-4.5,2.1c-2.8,0-4.1-1.4-4.1-4.1v-9.1h2.4v8.3c0,2.1,1,2.7,2.7,2.7a4.5,4.5,0,0,0,3.5-1.8v-9.2H357v12.9h-2.4Z" fill="#ccc"/><path d="M360.3,489.3h2.4v2a5,5,0,0,1,4.1-2.2v2.4H366a4.4,4.4,0,0,0-3.3,1.8v9h-2.4Z" fill="#ccc"/><path d="M374.3,489c3.9,0,6.3,3,6.3,6.9v.6H370.4a4.2,4.2,0,0,0,4.4,4,5.5,5.5,0,0,0,3.8-1.5l1.1,1.6a7.5,7.5,0,0,1-5.2,1.9,6.8,6.8,0,0,1-.2-13.5Zm-3.9,5.8h7.8a3.7,3.7,0,0,0-3.9-3.8A3.9,3.9,0,0,0,370.4,494.8Z" fill="#ccc"/><path d="M404.6,488.1l-5.7,14.1h-1.1L392,488.1v14.1h-2.6V484.5h3.8l5.1,12.7,5.2-12.7h3.8v17.7h-2.7Z" fill="#ccc"/><path d="M409.8,495.7a6.5,6.5,0,1,1,13,0c0,3.7-2.5,6.8-6.5,6.8S409.8,499.4,409.8,495.7Zm10.5,0c0-2.4-1.4-4.6-4-4.6s-4,2.2-4,4.6,1.4,4.6,4,4.6S420.3,498.2,420.3,495.7Z" fill="#ccc"/><path d="M434.4,500.3a5.4,5.4,0,0,1-4.2,2.2c-3.4,0-5.7-2.5-5.7-6.7s2.3-6.8,5.7-6.8a5.4,5.4,0,0,1,4.2,2.2v-6.7h2.4v17.7h-2.4Zm0-7.3a4.6,4.6,0,0,0-3.6-1.9c-2.4,0-3.8,2-3.8,4.7s1.4,4.5,3.8,4.5a4.5,4.5,0,0,0,3.6-1.8Z" fill="#ccc"/><path d="M445.7,489c3.8,0,6.2,3,6.2,6.9v.6H441.8a4.2,4.2,0,0,0,4.3,4,5.2,5.2,0,0,0,3.8-1.5l1.1,1.6a7.1,7.1,0,0,1-5.1,1.9,6.8,6.8,0,0,1-.2-13.5Zm-3.9,5.8h7.8a3.8,3.8,0,0,0-3.9-3.8A3.9,3.9,0,0,0,441.8,494.8Z" fill="#ccc"/><path d="M454.4,484.5h2.4v17.7h-2.4Z" fill="#ccc"/><rect x="0.5" y="0.5" width="612" height="792" fill="none" stroke="#999" stroke-miterlimit="10"/><path d="M145.7,782.4c0-203.7,54.8-366.8,230.3-366.8S606.5,578.7,606.5,782.4ZM376,112.5c-74.5,0-134.9,60.2-134.9,134.4S301.5,381.4,376,381.4s135-60.2,135-134.5S450.6,112.5,376,112.5Z" fill="none" stroke="#e5e5e5" stroke-miterlimit="10" stroke-width="8.85"/><rect x="526.6" y="122.9" width="23" height="94.67" transform="translate(708.3 -367.9) rotate(90)" fill="#b3b3b3"/><path d="M506.8,164h4.4a6,6,0,0,1,6.4,6.2c0,3.5-2.6,6.1-6.4,6.1h-4.4Zm4.4,10.7a4.6,4.6,0,0,0,0-9.1h-2.6v9.1Z" fill="#fff"/><path d="M525,175.3a3.9,3.9,0,0,1-3,1.2,2.9,2.9,0,0,1-3.1-2.9,2.8,2.8,0,0,1,3.1-2.9,3.9,3.9,0,0,1,3,1.1v-1.4c0-1.2-.9-1.8-2.2-1.8a3.7,3.7,0,0,0-2.7,1.2l-.7-1.2a4.8,4.8,0,0,1,3.6-1.4c2,0,3.6.8,3.6,3.1v6H525Zm0-2.5a3.1,3.1,0,0,0-2.3-1,1.8,1.8,0,1,0,0,3.6,3.1,3.1,0,0,0,2.3-1Z" fill="#fff"/><path d="M529.3,174.3v-5.5h-1.5v-1.4h1.5v-2.5h1.6v2.5h1.8v1.4h-1.8V174c0,.6.3,1.1.9,1.1a1.3,1.3,0,0,0,.9-.4l.4,1.3a2.3,2.3,0,0,1-1.7.5A1.9,1.9,0,0,1,529.3,174.3Z" fill="#fff"/><path d="M538.1,167.2c2.7,0,4.4,2,4.4,4.8v.4h-7.1a3.1,3.1,0,0,0,3.1,2.8,3.8,3.8,0,0,0,2.6-1.1l.8,1.1a5,5,0,0,1-3.6,1.3,4.7,4.7,0,0,1-.2-9.3Zm-2.7,4h5.5a2.8,2.8,0,0,0-2.8-2.7A2.8,2.8,0,0,0,535.4,171.2Z" fill="#fff"/><path d="M544.2,164h1.7v12.3h-1.7Z" fill="#fff"/><path d="M547.9,164.8a1.1,1.1,0,1,1,1.1,1.1A1.1,1.1,0,0,1,547.9,164.8Zm.3,2.6h1.6v8.9h-1.6Z" fill="#fff"/><path d="M558.2,170.6a1.8,1.8,0,0,0-2-2,3.4,3.4,0,0,0-2.4,1.3v6.4h-1.7v-8.9h1.7v1.2a4.4,4.4,0,0,1,3.2-1.4,2.5,2.5,0,0,1,2.8,2.8v6.3h-1.6Z" fill="#fff"/><path d="M566,167.2c2.7,0,4.4,2,4.4,4.8v.4h-7.1a2.9,2.9,0,0,0,3,2.8,3.9,3.9,0,0,0,2.7-1.1l.8,1.1a5,5,0,0,1-3.6,1.3,4.7,4.7,0,0,1-.2-9.3Zm-2.7,4h5.5a2.8,2.8,0,0,0-5.5,0Z" fill="#fff"/><path d="M52.1,44H64.6v72.3h37.8v10.9H52.1Z" fill="#bfbfbf"/><path d="M212.9,42.7c24.9,0,42,18.3,42,43s-17.1,43-42,43S171,110.4,171,85.7,188.1,42.7,212.9,42.7Zm0,11.1c-17.8,0-29,13.6-29,31.9s11.2,31.9,29,31.9S242,103.9,242,85.7,230.5,53.8,212.9,53.8Z" fill="#bfbfbf"/><path d="M372,42.7c15.6,0,25.9,7.1,32.9,16.4L394.8,65A28.5,28.5,0,0,0,372,53.8c-17.3,0-30.3,13.2-30.3,31.9s13,32.1,30.3,32.1a32.1,32.1,0,0,0,21.1-8.3V94.6H366.4v-11h39.1v30.6A44.2,44.2,0,0,1,372,128.9c-23.8,0-43.2-17.2-43.2-43.2S348.2,42.7,372,42.7Z" fill="#bfbfbf"/><path d="M522.3,42.7c24.8,0,41.9,18.3,41.9,43s-17.1,43-41.9,43-41.9-18.3-41.9-43S497.5,42.7,522.3,42.7Zm0,11.1c-17.8,0-29.1,13.6-29.1,31.9s11.3,31.9,29.1,31.9,29.1-13.7,29.1-31.9S539.9,53.8,522.3,53.8Z" fill="#bfbfbf"/><path d="M52.1,44H64.6v72.3h37.8v10.9H52.1Z" fill="#999"/><path d="M212.9,42.7c24.9,0,42,18.3,42,43s-17.1,43-42,43S171,110.4,171,85.7,188.1,42.7,212.9,42.7Zm0,11.1c-17.8,0-29,13.6-29,31.9s11.2,31.9,29,31.9S242,103.9,242,85.7,230.5,53.8,212.9,53.8Z" fill="#999"/><path d="M372,42.7c15.6,0,25.9,7.1,32.9,16.4L394.8,65A28.5,28.5,0,0,0,372,53.8c-17.3,0-30.3,13.2-30.3,31.9s13,32.1,30.3,32.1a32.1,32.1,0,0,0,21.1-8.3V94.6H366.4v-11h39.1v30.6A44.2,44.2,0,0,1,372,128.9c-23.8,0-43.2-17.2-43.2-43.2S348.2,42.7,372,42.7Z" fill="#999"/><path d="M522.3,42.7c24.8,0,41.9,18.3,41.9,43s-17.1,43-41.9,43-41.9-18.3-41.9-43S497.5,42.7,522.3,42.7Zm0,11.1c-17.8,0-29.1,13.6-29.1,31.9s11.3,31.9,29.1,31.9,29.1-13.7,29.1-31.9S539.9,53.8,522.3,53.8Z" fill="#999"/><path d="M262.1,599.6l-9.2,22.6h-1.8l-9.2-22.6v22.6h-4.2V593.8h6.1l8.2,20.4,8.3-20.4h6.1v28.4h-4.3Z" fill="#ccc"/><path d="M284.4,619.9a8.8,8.8,0,0,1-6.7,2.8c-3.4,0-7.2-2.3-7.2-6.8s3.7-6.7,7.2-6.7a8.7,8.7,0,0,1,6.7,2.7v-3.4c0-2.6-2.1-4.1-5-4.1a8.4,8.4,0,0,0-6.2,2.7l-1.7-2.6a11.5,11.5,0,0,1,8.5-3.4c4.4,0,8.2,2,8.2,7.2v13.9h-3.8Zm0-5.7a6.8,6.8,0,0,0-5.3-2.4c-2.7,0-4.7,1.7-4.7,4.1s2,4.1,4.7,4.1a6.7,6.7,0,0,0,5.3-2.3Z" fill="#ccc"/><path d="M292.9,595.8a2.5,2.5,0,1,1,4.9,0,2.5,2.5,0,0,1-4.9,0Zm.6,5.8h3.8v20.6h-3.8Z" fill="#ccc"/><path d="M316.4,609c0-3.4-1.7-4.5-4.4-4.5a7.3,7.3,0,0,0-5.6,3v14.7h-3.9V601.6h3.9v2.9a9.9,9.9,0,0,1,7.2-3.4c4.4,0,6.6,2.3,6.6,6.7v14.4h-3.8Z" fill="#ccc"/><path d="M334.5,608c0-8.7,6.4-14.7,14.5-14.7a12.9,12.9,0,0,1,11.3,6l-3.6,2a9.1,9.1,0,0,0-7.7-4.2c-5.7,0-10.1,4.5-10.1,10.9s4.4,10.9,10.1,10.9a9,9,0,0,0,7.7-4.1l3.6,1.9a13,13,0,0,1-11.3,6C340.9,622.7,334.5,616.7,334.5,608Z" fill="#ccc"/><path d="M362.3,611.9c0-5.9,4-10.8,10.4-10.8s10.4,4.9,10.4,10.8-4,10.8-10.4,10.8S362.3,617.8,362.3,611.9Zm16.8,0c0-3.9-2.3-7.4-6.4-7.4s-6.4,3.5-6.4,7.4,2.3,7.4,6.4,7.4S379.1,615.8,379.1,611.9Z" fill="#ccc"/><path d="M384.1,601.6h4.1l6.4,16.2,6.4-16.2h4.1l-8.4,20.6h-4.2Z" fill="#ccc"/><path d="M416.4,601.1c6.2,0,10,4.8,10,11.1v1H410.1a6.7,6.7,0,0,0,7,6.3,8.5,8.5,0,0,0,6.1-2.4l1.8,2.5a11.8,11.8,0,0,1-8.3,3.1c-6.1,0-10.6-4.3-10.6-10.8S410.4,601.1,416.4,601.1Zm-6.3,9.3h12.5a6,6,0,0,0-6.2-6.1A6.3,6.3,0,0,0,410.1,610.4Z" fill="#ccc"/><path d="M430.3,601.6h3.9v3.2a8.4,8.4,0,0,1,6.7-3.6V605h-1.3a7.4,7.4,0,0,0-5.4,3v14.3h-3.9Z" fill="#ccc"/><path d="M443.9,593.8h3.8v28.4h-3.8Z" fill="#ccc"/><path d="M452.3,595.8a2.5,2.5,0,1,1,2.5,2.4A2.5,2.5,0,0,1,452.3,595.8Zm.6,5.8h3.8v20.6h-3.8Z" fill="#ccc"/><path d="M475.8,609c0-3.4-1.7-4.5-4.3-4.5a7.5,7.5,0,0,0-5.7,3v14.7H462V601.6h3.8v2.9a10.1,10.1,0,0,1,7.3-3.4c4.3,0,6.6,2.3,6.6,6.7v14.4h-3.9Z" fill="#ccc"/><path d="M493.9,601.1c6.2,0,10,4.8,10,11.1v1H487.7a6.6,6.6,0,0,0,6.9,6.3,8.5,8.5,0,0,0,6.1-2.4l1.8,2.5a11.4,11.4,0,0,1-8.2,3.1c-6.2,0-10.7-4.3-10.7-10.8S487.9,601.1,493.9,601.1Zm-6.3,9.3h12.6a6.1,6.1,0,0,0-6.3-6.1A6.3,6.3,0,0,0,487.6,610.4Z" fill="#ccc"/><path d="M17.3,300.5h4.3v24.6H34.5v3.8H17.3Z" fill="#ccc"/><path d="M45.6,307.8c6.2,0,10,4.8,10,11.1v1H39.4a6.7,6.7,0,0,0,7,6.4,8.6,8.6,0,0,0,6-2.5l1.8,2.5a11.4,11.4,0,0,1-8.2,3.1c-6.2,0-10.7-4.3-10.7-10.8S39.6,307.8,45.6,307.8Zm-6.3,9.3H51.9a6.1,6.1,0,0,0-6.3-6.1A6.3,6.3,0,0,0,39.3,317.1Z" fill="#ccc"/><path d="M59.7,311.7H56.3v-3.3h3.4V307c0-4.4,2.6-6.9,6.2-6.9a7.1,7.1,0,0,1,3.4.8l-.9,2.8a3.7,3.7,0,0,0-1.8-.5c-2,0-3.1,1.3-3.1,3.8v1.4h4.2v3.3H63.5v17.2H59.7Z" fill="#ccc"/><path d="M72.1,324.3V311.7H68.7v-3.3h3.4v-5.7h3.8v5.7h4.2v3.3H75.9v11.8c0,1.4.7,2.5,2,2.5a3.1,3.1,0,0,0,2.1-.8l1,2.9a5.7,5.7,0,0,1-4,1.3C73.7,329.4,72.1,327.6,72.1,324.3Z" fill="#ccc"/><path d="M102.3,304.3H93.5v-3.8h21.8v3.8h-8.7v24.6h-4.3Z" fill="#ccc"/><path d="M131.8,315.7c0-3.4-1.7-4.5-4.4-4.5a7.5,7.5,0,0,0-5.6,3v14.7H118V300.5h3.8v10.7a10.1,10.1,0,0,1,7.3-3.4c4.3,0,6.6,2.3,6.6,6.6v14.5h-3.9Z" fill="#ccc"/><path d="M140.3,302.5a2.5,2.5,0,0,1,2.5-2.5,2.5,2.5,0,1,1,0,4.9A2.5,2.5,0,0,1,140.3,302.5Zm.6,5.9h3.9v20.5h-3.9Z" fill="#ccc"/><path d="M150,308.4h3.8v3.1a8.9,8.9,0,0,1,6.7-3.6v3.9l-1.3-.2a7.4,7.4,0,0,0-5.4,3v14.3H150Z" fill="#ccc"/><path d="M178.1,326a8.5,8.5,0,0,1-6.7,3.4c-5.3,0-9.2-4-9.2-10.8s3.9-10.8,9.2-10.8a8.2,8.2,0,0,1,6.7,3.5V300.5H182v28.4h-3.9Zm0-11.7a6.9,6.9,0,0,0-5.7-3.1c-3.8,0-6.2,3.1-6.2,7.4s2.4,7.4,6.2,7.4a6.8,6.8,0,0,0,5.7-3Z" fill="#ccc"/><path d="M15.5,719.3a2,2,0,0,1,2-2,2,2,0,0,1,2.1,2,2.1,2.1,0,1,1-4.1,0Z" fill="#ccc"/><path d="M25.7,717.6a6.2,6.2,0,0,1,6.4-6.4,5.6,5.6,0,0,1,4.9,2.7l-1.6.8a4.1,4.1,0,0,0-3.3-1.8,4.8,4.8,0,0,0,0,9.5,4.1,4.1,0,0,0,3.3-1.8l1.6.8a5.5,5.5,0,0,1-4.9,2.6A6.2,6.2,0,0,1,25.7,717.6Z" fill="#ccc"/><path d="M37.9,719.3a4.5,4.5,0,1,1,4.5,4.7A4.4,4.4,0,0,1,37.9,719.3Zm7.3,0c0-1.7-1-3.2-2.8-3.2s-2.8,1.5-2.8,3.2,1,3.2,2.8,3.2S45.2,721,45.2,719.3Z" fill="#ccc"/><path d="M47.3,714.9h1.8l2.8,7,2.8-7h1.8l-3.7,8.9H51Z" fill="#ccc"/><path d="M61.4,714.6c2.7,0,4.4,2.1,4.4,4.9v.4H58.7a2.9,2.9,0,0,0,3,2.8,3.9,3.9,0,0,0,2.7-1.1l.7,1.1a4.6,4.6,0,0,1-3.5,1.3,4.7,4.7,0,0,1-.2-9.4Zm-2.7,4.1h5.4a2.6,2.6,0,0,0-2.7-2.7A2.7,2.7,0,0,0,58.7,718.7Z" fill="#ccc"/><path d="M67.5,714.9h1.6v1.3a3.8,3.8,0,0,1,3-1.5v1.6h-.6a3.2,3.2,0,0,0-2.4,1.3v6.2H67.5Z" fill="#ccc"/><path d="M73.4,711.4H75v12.4H73.4Z" fill="#ccc"/><path d="M77.1,712.3a1.1,1.1,0,0,1,1-1.1,1.1,1.1,0,0,1,0,2.2A1.1,1.1,0,0,1,77.1,712.3Zm.2,2.6H79v8.9H77.3Z" fill="#ccc"/><path d="M87.3,718.1c0-1.5-.8-2-1.9-2a3.3,3.3,0,0,0-2.5,1.3v6.4H81.3v-8.9h1.6v1.2a4.4,4.4,0,0,1,3.2-1.5,2.6,2.6,0,0,1,2.9,2.9v6.3H87.3Z" fill="#ccc"/><path d="M95.2,714.6c2.7,0,4.3,2.1,4.3,4.9v.4h-7a2.9,2.9,0,0,0,3,2.8,3.6,3.6,0,0,0,2.6-1.1l.8,1.1a4.8,4.8,0,0,1-3.6,1.3,4.7,4.7,0,0,1-.1-9.4Zm-2.8,4.1h5.5a2.6,2.6,0,0,0-2.7-2.7A2.8,2.8,0,0,0,92.4,718.7Z" fill="#ccc"/><path d="M15.5,741.6a2,2,0,0,1,2-2.1,2.1,2.1,0,0,1,2.1,2.1,2,2,0,0,1-2.1,2A2,2,0,0,1,15.5,741.6Z" fill="#ccc"/><path d="M25.7,739.9a6.2,6.2,0,0,1,6.4-6.4,5.5,5.5,0,0,1,4.9,2.6l-1.6.8a4.1,4.1,0,0,0-3.3-1.8,4.8,4.8,0,0,0,0,9.5,4.1,4.1,0,0,0,3.3-1.8l1.6.8a5.6,5.6,0,0,1-4.9,2.7A6.2,6.2,0,0,1,25.7,739.9Z" fill="#ccc"/><path d="M37.9,741.6a4.5,4.5,0,1,1,9,0,4.5,4.5,0,1,1-9,0Zm7.3,0c0-1.7-1-3.3-2.8-3.3s-2.8,1.6-2.8,3.3,1,3.2,2.8,3.2S45.2,743.3,45.2,741.6Z" fill="#ccc"/><path d="M47.3,737.1h1.8l2.8,7,2.8-7h1.8L52.8,746H51Z" fill="#ccc"/><path d="M61.4,736.9c2.7,0,4.4,2.1,4.4,4.8v.4H58.7a2.9,2.9,0,0,0,3,2.8,3.9,3.9,0,0,0,2.7-1.1l.7,1.1a4.7,4.7,0,0,1-3.5,1.4,4.7,4.7,0,0,1-.2-9.4Zm-2.7,4h5.4a2.6,2.6,0,0,0-2.7-2.7A2.7,2.7,0,0,0,58.7,740.9Z" fill="#ccc"/><path d="M67.5,737.1h1.6v1.4a3.9,3.9,0,0,1,3-1.6v1.7h-.6a3.2,3.2,0,0,0-2.4,1.3V746H67.5Z" fill="#ccc"/><path d="M73.4,733.7H75V746H73.4Z" fill="#ccc"/><path d="M77.1,734.5a1,1,0,0,1,1-1,1,1,0,0,1,1.1,1,1.1,1.1,0,0,1-1.1,1.1A1.1,1.1,0,0,1,77.1,734.5Zm.2,2.6H79V746H77.3Z" fill="#ccc"/><path d="M87.3,740.3c0-1.5-.8-2-1.9-2a3.6,3.6,0,0,0-2.5,1.3V746H81.3v-8.9h1.6v1.2a4.4,4.4,0,0,1,3.2-1.4,2.6,2.6,0,0,1,2.9,2.9V746H87.3Z" fill="#ccc"/><path d="M95.2,736.9c2.7,0,4.3,2.1,4.3,4.8v.4h-7a2.9,2.9,0,0,0,3,2.8,3.6,3.6,0,0,0,2.6-1.1l.8,1.1a4.9,4.9,0,0,1-3.6,1.4,4.7,4.7,0,0,1-.1-9.4Zm-2.8,4h5.5a2.6,2.6,0,0,0-2.7-2.7A2.8,2.8,0,0,0,92.4,740.9Z" fill="#ccc"/><path d="M15.5,763.8a2.1,2.1,0,1,1,4.1,0,2,2,0,0,1-2.1,2A2,2,0,0,1,15.5,763.8Z" fill="#ccc"/><path d="M25.7,762.1a6.2,6.2,0,0,1,6.4-6.4,5.7,5.7,0,0,1,4.9,2.6l-1.6.9a3.9,3.9,0,0,0-3.3-1.8,4.7,4.7,0,0,0,0,9.4,3.9,3.9,0,0,0,3.3-1.8l1.6.9a5.7,5.7,0,0,1-4.9,2.6A6.2,6.2,0,0,1,25.7,762.1Z" fill="#ccc"/><path d="M37.9,763.8a4.5,4.5,0,1,1,4.5,4.7A4.4,4.4,0,0,1,37.9,763.8Zm7.3,0c0-1.7-1-3.2-2.8-3.2s-2.8,1.5-2.8,3.2,1,3.2,2.8,3.2S45.2,765.5,45.2,763.8Z" fill="#ccc"/><path d="M47.3,759.3h1.8l2.8,7,2.8-7h1.8l-3.7,9H51Z" fill="#ccc"/><path d="M61.4,759.1c2.7,0,4.4,2.1,4.4,4.8v.4H58.7a2.8,2.8,0,0,0,3,2.8,4.3,4.3,0,0,0,2.7-1l.7,1.1a5,5,0,0,1-3.5,1.3,4.7,4.7,0,0,1-.2-9.4Zm-2.7,4h5.4a2.6,2.6,0,0,0-2.7-2.6A2.7,2.7,0,0,0,58.7,763.1Z" fill="#ccc"/><path d="M67.5,759.3h1.6v1.4a3.9,3.9,0,0,1,3-1.6v1.7h-.6a3.6,3.6,0,0,0-2.4,1.3v6.3H67.5Z" fill="#ccc"/><path d="M73.4,755.9H75v12.4H73.4Z" fill="#ccc"/><path d="M77.1,756.8a1.1,1.1,0,0,1,1-1.1,1.1,1.1,0,0,1,1.1,1.1,1,1,0,0,1-1.1,1A1,1,0,0,1,77.1,756.8Zm.2,2.5H79v9H77.3Z" fill="#ccc"/><path d="M87.3,762.5a1.7,1.7,0,0,0-1.9-1.9,3.3,3.3,0,0,0-2.5,1.3v6.4H81.3v-9h1.6v1.3a4.4,4.4,0,0,1,3.2-1.5A2.6,2.6,0,0,1,89,762v6.3H87.3Z" fill="#ccc"/><path d="M95.2,759.1c2.7,0,4.3,2.1,4.3,4.8v.4h-7a2.8,2.8,0,0,0,3,2.8,4,4,0,0,0,2.6-1l.8,1.1a5.3,5.3,0,0,1-3.6,1.3,4.7,4.7,0,0,1-.1-9.4Zm-2.8,4h5.5a2.6,2.6,0,0,0-2.7-2.6A2.8,2.8,0,0,0,92.4,763.1Z" fill="#ccc"/><path d="M15.1,353.9a6.2,6.2,0,0,1,6.3-6.4,5.7,5.7,0,0,1,4.9,2.6l-1.6.8a3.8,3.8,0,0,0-3.3-1.8,4.8,4.8,0,0,0,0,9.5,3.6,3.6,0,0,0,3.3-1.8l1.6.9a5.7,5.7,0,0,1-4.9,2.6A6.2,6.2,0,0,1,15.1,353.9Z" fill="#ccc"/><path d="M27.2,355.6a4.5,4.5,0,1,1,4.5,4.7A4.4,4.4,0,0,1,27.2,355.6Zm7.3,0c0-1.7-1-3.2-2.8-3.2s-2.8,1.5-2.8,3.2,1,3.2,2.8,3.2S34.5,357.3,34.5,355.6Z" fill="#ccc"/><path d="M36.7,351.1h1.7l2.8,7,2.8-7h1.8L42.1,360H40.3Z" fill="#ccc"/><path d="M50.7,350.9c2.7,0,4.4,2.1,4.4,4.8v.4H48a3,3,0,0,0,3,2.8,3.9,3.9,0,0,0,2.7-1.1l.8,1.1a5.1,5.1,0,0,1-3.6,1.4,4.7,4.7,0,0,1-.2-9.4Zm-2.7,4h5.5a2.8,2.8,0,0,0-5.5,0Z" fill="#ccc"/><path d="M56.8,351.1h1.7v1.4a3.7,3.7,0,0,1,2.9-1.6v1.7h-.6a3.4,3.4,0,0,0-2.3,1.3V360H56.8Z" fill="#ccc"/><path d="M62.7,347.7h1.7V360H62.7Z" fill="#ccc"/><path d="M66.4,348.5a1,1,0,0,1,1.1-1,.9.9,0,0,1,1,1,1,1,0,0,1-1,1.1A1.1,1.1,0,0,1,66.4,348.5Zm.2,2.6h1.7V360H66.6Z" fill="#ccc"/><path d="M76.6,354.3c0-1.5-.7-1.9-1.9-1.9a2.9,2.9,0,0,0-2.4,1.3V360H70.6v-8.9h1.7v1.3a3.9,3.9,0,0,1,3.1-1.5,2.6,2.6,0,0,1,2.9,2.9V360H76.6Z" fill="#ccc"/><path d="M84.5,350.9c2.7,0,4.4,2.1,4.4,4.8v.4H81.8a2.9,2.9,0,0,0,3,2.8,3.9,3.9,0,0,0,2.7-1.1l.7,1.1a4.7,4.7,0,0,1-3.5,1.4,4.7,4.7,0,0,1-.2-9.4Zm-2.7,4h5.4a2.6,2.6,0,0,0-2.7-2.7A2.7,2.7,0,0,0,81.8,354.9Z" fill="#ccc"/><path d="M18.6,371.6H14.8v-1.7h9.5v1.7H20.4v10.7H18.6Z" fill="#ccc"/><path d="M31.8,376.5c0-1.5-.7-1.9-1.9-1.9a3.3,3.3,0,0,0-2.5,1.3v6.4H25.8V369.9h1.6v4.7a4.4,4.4,0,0,1,3.2-1.5,2.6,2.6,0,0,1,2.9,2.9v6.3H31.8Z" fill="#ccc"/><path d="M35.5,370.8a1.1,1.1,0,0,1,2.2,0,1.1,1.1,0,0,1-2.2,0Zm.3,2.5h1.7v9H35.8Z" fill="#ccc"/><path d="M39.7,379.9a4.4,4.4,0,0,0,3,1.3c1.3,0,2-.6,2-1.3s-1-1.2-2.2-1.5-3.3-.7-3.3-2.6,1.2-2.7,3.4-2.7a4.6,4.6,0,0,1,3.4,1.3l-.7,1.2a3.2,3.2,0,0,0-2.7-1.1c-1.1,0-1.8.4-1.8,1.1s1,1.1,2.1,1.3,3.4.8,3.4,2.9-1.3,2.7-3.6,2.7a5.1,5.1,0,0,1-3.7-1.4Z" fill="#ccc"/><path d="M52.2,370.8a1.1,1.1,0,0,1,1.1-1.1,1.1,1.1,0,0,1,1,1.1,1,1,0,0,1-1,1A1,1,0,0,1,52.2,370.8Zm.2,2.5h1.7v9H52.4Z" fill="#ccc"/><path d="M56.4,379.9a4.2,4.2,0,0,0,3,1.3c1.3,0,1.9-.6,1.9-1.3s-1-1.2-2.1-1.5-3.3-.7-3.3-2.6,1.2-2.7,3.4-2.7a5,5,0,0,1,3.4,1.3l-.8,1.2a3.2,3.2,0,0,0-2.6-1.1c-1.1,0-1.8.4-1.8,1.1s.9,1.1,2,1.3,3.4.8,3.4,2.9-1.2,2.7-3.6,2.7a5.1,5.1,0,0,1-3.7-1.4Z" fill="#ccc"/><path d="M69.1,385.7V373.3h1.7v1.3a3.5,3.5,0,0,1,2.9-1.5c2.3,0,4,1.8,4,4.7s-1.7,4.7-4,4.7a3.4,3.4,0,0,1-2.9-1.5v4.7Zm4.1-11.1a2.9,2.9,0,0,0-2.4,1.3v3.8a2.9,2.9,0,0,0,2.4,1.3c1.7,0,2.7-1.3,2.7-3.2S74.9,374.6,73.2,374.6Z" fill="#ccc"/><path d="M79.4,373.3h1.7v1.4a3.7,3.7,0,0,1,2.9-1.6v1.7h-.6a3,3,0,0,0-2.3,1.3v6.2H79.4Z" fill="#ccc"/><path d="M84.7,377.8a4.5,4.5,0,0,1,4.6-4.7,4.7,4.7,0,0,1,0,9.4A4.5,4.5,0,0,1,84.7,377.8Zm7.3,0c0-1.7-.9-3.2-2.7-3.2s-2.8,1.5-2.8,3.2,1,3.2,2.8,3.2S92,379.5,92,377.8Z" fill="#ccc"/><path d="M106.4,376.3a1.5,1.5,0,0,0-1.6-1.7,2.9,2.9,0,0,0-2.2,1.3v6.4H101v-6a1.5,1.5,0,0,0-1.6-1.7,2.7,2.7,0,0,0-2.2,1.3v6.4H95.5v-9h1.7v1.3a3.9,3.9,0,0,1,2.9-1.5,2.3,2.3,0,0,1,2.4,1.7,3.6,3.6,0,0,1,3-1.7c1.7,0,2.6.9,2.6,2.7v6.5h-1.7Z" fill="#ccc"/><path d="M109.8,377.8a4.5,4.5,0,1,1,4.5,4.7A4.4,4.4,0,0,1,109.8,377.8Zm7.3,0c0-1.7-1-3.2-2.8-3.2s-2.8,1.5-2.8,3.2,1,3.2,2.8,3.2S117.1,379.5,117.1,377.8Z" fill="#ccc"/><path d="M120.9,380.3v-5.5h-1.5v-1.5h1.5v-2.4h1.7v2.4h1.8v1.5h-1.8v5.1c0,.7.3,1.1.8,1.1a1.5,1.5,0,0,0,1-.3l.4,1.2a2.3,2.3,0,0,1-1.8.6A1.9,1.9,0,0,1,120.9,380.3Z" fill="#ccc"/><path d="M125.6,370.8a1.1,1.1,0,1,1,2.2,0,1.1,1.1,0,0,1-2.2,0Zm.3,2.5h1.6v9h-1.6Z" fill="#ccc"/><path d="M129.3,377.8a4.5,4.5,0,1,1,4.5,4.7A4.4,4.4,0,0,1,129.3,377.8Zm7.3,0c0-1.7-1-3.2-2.8-3.2s-2.8,1.5-2.8,3.2,1,3.2,2.8,3.2S136.6,379.5,136.6,377.8Z" fill="#ccc"/><path d="M146.1,376.6c0-1.5-.8-2-1.9-2a3.1,3.1,0,0,0-2.5,1.3v6.4H140v-9h1.7v1.3a4.4,4.4,0,0,1,3.2-1.5,2.6,2.6,0,0,1,2.9,2.9v6.3h-1.7Z" fill="#ccc"/><path d="M155.6,381.3a4.1,4.1,0,0,1-3,1.2,3,3,0,0,1-3.1-3,2.9,2.9,0,0,1,3.1-2.9,3.9,3.9,0,0,1,3,1.2v-1.5a2,2,0,0,0-2.2-1.8,3.6,3.6,0,0,0-2.7,1.2l-.7-1.1a4.9,4.9,0,0,1,3.6-1.5c2,0,3.6.9,3.6,3.1v6.1h-1.6Zm0-2.5a2.8,2.8,0,0,0-2.3-1,1.9,1.9,0,0,0-2.1,1.8c0,1,.9,1.7,2.1,1.7a2.8,2.8,0,0,0,2.3-1Z" fill="#ccc"/><path d="M159.5,369.9h1.7v12.4h-1.7Z" fill="#ccc"/><path d="M15.9,402.5V397H14.4v-1.4h1.5v-2.5h1.6v2.5h1.9V397H17.5v5.2c0,.6.3,1,.9,1a1.2,1.2,0,0,0,.9-.3l.4,1.3a2.3,2.3,0,0,1-1.7.5A1.9,1.9,0,0,1,15.9,402.5Z" fill="#ccc"/><path d="M24.8,395.3c2.6,0,4.3,2.1,4.3,4.9v.4H22a3.1,3.1,0,0,0,3.1,2.8,3.6,3.6,0,0,0,2.6-1.1l.8,1.1a4.8,4.8,0,0,1-3.6,1.3,4.7,4.7,0,0,1-.1-9.4ZM22,399.4h5.5a2.7,2.7,0,0,0-2.7-2.7A2.8,2.8,0,0,0,22,399.4Z" fill="#ccc"/><path d="M33.4,401l-2.5,3.5H29l3.3-4.6-3.1-4.3h1.9l2.3,3.2,2.3-3.2h1.9l-3.2,4.3,3.4,4.6H35.9Z" fill="#ccc"/><path d="M39.2,402.5V397H37.7v-1.4h1.5v-2.5h1.7v2.5h1.8V397H40.9v5.2c0,.6.3,1,.9,1a1.2,1.2,0,0,0,.9-.3l.4,1.3a2.6,2.6,0,0,1-1.7.5A2,2,0,0,1,39.2,402.5Z" fill="#ccc"/><path d="M48.6,402.1a4.2,4.2,0,0,0,3,1.3c1.3,0,2-.5,2-1.3s-1.1-1.2-2.2-1.4-3.3-.8-3.3-2.7,1.2-2.7,3.4-2.7a5,5,0,0,1,3.4,1.3l-.7,1.2a3.9,3.9,0,0,0-2.7-1.1c-1.1,0-1.8.4-1.8,1.2s.9,1,2.1,1.3,3.4.7,3.4,2.8-1.3,2.7-3.7,2.7a4.8,4.8,0,0,1-3.7-1.4Z" fill="#ccc"/><path d="M60.8,395.3c2.7,0,4.4,2.1,4.4,4.9v.4H58.1a2.9,2.9,0,0,0,3,2.8,3.9,3.9,0,0,0,2.7-1.1l.8,1.1a5,5,0,0,1-3.6,1.3,4.7,4.7,0,0,1-.2-9.4Zm-2.7,4.1h5.5a2.8,2.8,0,0,0-5.5,0Z" fill="#ccc"/><path d="M67.2,402.5V397H65.8v-1.4h1.4v-2.5h1.7v2.5h1.8V397H68.9v5.2c0,.6.3,1,.9,1a1.2,1.2,0,0,0,.9-.3l.4,1.3a2.5,2.5,0,0,1-1.7.5A2,2,0,0,1,67.2,402.5Z" fill="#ccc"/><path d="M82.1,403.5a3.7,3.7,0,0,1-2.9,1.2,2.9,2.9,0,0,1-3.1-2.9,2.9,2.9,0,0,1,3.1-3,3.6,3.6,0,0,1,2.9,1.2v-1.5c0-1.1-.9-1.7-2.2-1.7a3.5,3.5,0,0,0-2.6,1.2l-.8-1.2a5.1,5.1,0,0,1,3.7-1.5c2,0,3.6.9,3.6,3.2v6H82.1Zm0-2.5a2.9,2.9,0,0,0-2.3-1,1.8,1.8,0,0,0-2,1.8,1.8,1.8,0,0,0,2,1.8,2.7,2.7,0,0,0,2.3-1.1Z" fill="#ccc"/><path d="M86.1,402.1a4.2,4.2,0,0,0,3,1.3c1.3,0,1.9-.5,1.9-1.3s-1-1.2-2.1-1.4-3.3-.8-3.3-2.7,1.2-2.7,3.4-2.7a5,5,0,0,1,3.4,1.3l-.7,1.2a3.9,3.9,0,0,0-2.7-1.1c-1.1,0-1.8.4-1.8,1.2s.9,1,2,1.3,3.5.7,3.5,2.8-1.3,2.7-3.7,2.7a4.8,4.8,0,0,1-3.7-1.4Z" fill="#ccc"/><path d="M104.3,403.5a3.7,3.7,0,0,1-2.9,1.2,2.9,2.9,0,0,1-3.1-2.9,2.9,2.9,0,0,1,3.1-3,3.7,3.7,0,0,1,2.9,1.2v-1.5c0-1.1-.9-1.7-2.2-1.7a3.5,3.5,0,0,0-2.6,1.2l-.8-1.2a5.1,5.1,0,0,1,3.7-1.5c1.9,0,3.6.9,3.6,3.2v6h-1.7Zm0-2.5a2.9,2.9,0,0,0-2.3-1,1.8,1.8,0,0,0-2,1.8,1.8,1.8,0,0,0,2,1.8,2.7,2.7,0,0,0,2.3-1.1Z" fill="#ccc"/><path d="M108.3,395.6H110v1.3a3.5,3.5,0,0,1,2.9-1.5V397h-.6a3,3,0,0,0-2.3,1.3v6.2h-1.7Z" fill="#ccc"/><path d="M118.1,395.3c2.7,0,4.4,2.1,4.4,4.9v.4h-7.1a2.9,2.9,0,0,0,3,2.8,3.9,3.9,0,0,0,2.7-1.1l.8,1.1a5,5,0,0,1-3.6,1.3,4.7,4.7,0,0,1-.2-9.4Zm-2.7,4.1h5.4a2.6,2.6,0,0,0-2.7-2.7A2.7,2.7,0,0,0,115.4,399.4Z" fill="#ccc"/><path d="M129.7,403.5a3.7,3.7,0,0,1-2.9,1.2,2.9,2.9,0,0,1-3.1-2.9,2.9,2.9,0,0,1,3.1-3,3.7,3.7,0,0,1,2.9,1.2v-1.5c0-1.1-.9-1.7-2.2-1.7a3.7,3.7,0,0,0-2.7,1.2l-.7-1.2a5,5,0,0,1,3.7-1.5c1.9,0,3.6.9,3.6,3.2v6h-1.7Zm0-2.5a3.1,3.1,0,0,0-2.3-1,1.8,1.8,0,0,0-2,1.8,1.8,1.8,0,0,0,2,1.8,2.8,2.8,0,0,0,2.3-1.1Z" fill="#ccc"/><path d="M138.4,402.5V397h-1.5v-1.4h1.5v-2.5h1.7v2.5h1.8V397h-1.8v5.2c0,.6.3,1,.9,1a1.4,1.4,0,0,0,.9-.3l.4,1.3a2.8,2.8,0,0,1-1.8.5A1.9,1.9,0,0,1,138.4,402.5Z" fill="#ccc"/><path d="M143.9,406.7a1.1,1.1,0,0,0,1.3-.9l.6-1.2-3.7-9h1.7l2.8,7,2.8-7h1.8l-4.4,10.6a2.7,2.7,0,0,1-2.8,1.9h-1.1l.3-1.5Z" fill="#ccc"/><path d="M152.2,407.9V395.6h1.7v1.2a3.8,3.8,0,0,1,2.9-1.5c2.3,0,4,1.8,4,4.7s-1.7,4.7-4,4.7a3.4,3.4,0,0,1-2.9-1.5v4.7Zm4.2-11.1a3.1,3.1,0,0,0-2.5,1.3v3.8a3.1,3.1,0,0,0,2.5,1.3c1.6,0,2.7-1.3,2.7-3.2S158,396.8,156.4,396.8Z" fill="#ccc"/><path d="M166.5,395.3c2.7,0,4.3,2.1,4.3,4.9v.4h-7.1a3.1,3.1,0,0,0,3.1,2.8,3.6,3.6,0,0,0,2.6-1.1l.8,1.1a4.8,4.8,0,0,1-3.6,1.3A4.4,4.4,0,0,1,162,400,4.5,4.5,0,0,1,166.5,395.3Zm-2.8,4.1h5.5a2.6,2.6,0,0,0-2.7-2.7A2.8,2.8,0,0,0,163.7,399.4Z" fill="#ccc"/><path d="M173.3,402.4a1.2,1.2,0,0,1,1.2,1.1,1.2,1.2,0,1,1-2.4,0A1.2,1.2,0,0,1,173.3,402.4Z" fill="#ccc"/><rect x="14.2" y="503.9" width="95.3" height="95.3" fill="#ccc"/><path d="M15.1,613.4a6.1,6.1,0,0,1,6.3-6.3,5.5,5.5,0,0,1,4.9,2.6l-1.6.8a3.8,3.8,0,0,0-3.3-1.8,4.8,4.8,0,0,0,0,9.5,3.8,3.8,0,0,0,3.3-1.8l1.6.8a5.5,5.5,0,0,1-4.9,2.6A6.2,6.2,0,0,1,15.1,613.4Z" fill="#ccc"/><path d="M27.2,615.1a4.5,4.5,0,1,1,9,0,4.5,4.5,0,1,1-9,0Zm7.3,0c0-1.7-1-3.2-2.8-3.2s-2.8,1.5-2.8,3.2,1,3.2,2.8,3.2S34.5,616.8,34.5,615.1Z" fill="#ccc"/><path d="M36.7,610.7h1.7l2.8,7,2.8-7h1.8l-3.7,8.9H40.3Z" fill="#ccc"/><path d="M50.7,610.4c2.7,0,4.4,2.1,4.4,4.9v.4H48a3,3,0,0,0,3,2.8,3.9,3.9,0,0,0,2.7-1.1l.8,1.1a5,5,0,0,1-3.6,1.3,4.7,4.7,0,0,1-.2-9.4ZM48,614.5h5.5a2.8,2.8,0,0,0-5.5,0Z" fill="#ccc"/><path d="M56.8,610.7h1.7V612a3.6,3.6,0,0,1,2.9-1.5v1.6h-.6a3,3,0,0,0-2.3,1.3v6.2H56.8Z" fill="#ccc"/><path d="M62.7,607.3h1.7v12.3H62.7Z" fill="#ccc"/><path d="M66.4,608.1a1.1,1.1,0,0,1,1.1-1.1,1.1,1.1,0,0,1,0,2.2A1.1,1.1,0,0,1,66.4,608.1Zm.2,2.6h1.7v8.9H66.6Z" fill="#ccc"/><path d="M76.6,613.9c0-1.5-.7-2-1.9-2a3.2,3.2,0,0,0-2.4,1.3v6.4H70.6v-8.9h1.7v1.2a4.2,4.2,0,0,1,3.1-1.5,2.6,2.6,0,0,1,2.9,2.9v6.3H76.6Z" fill="#ccc"/><path d="M84.5,610.4c2.7,0,4.4,2.1,4.4,4.9v.4H81.8a2.9,2.9,0,0,0,3,2.8,3.9,3.9,0,0,0,2.7-1.1l.7,1.1a4.6,4.6,0,0,1-3.5,1.3,4.7,4.7,0,0,1-.2-9.4Zm-2.7,4.1h5.4a2.6,2.6,0,0,0-2.7-2.7A2.7,2.7,0,0,0,81.8,614.5Z" fill="#ccc"/><path d="M30.9,512.6l-4,9.9h-.8l-4-9.9v9.9H20.3V510.1h2.6l3.6,8.9,3.6-8.9h2.7v12.4H30.9Z" fill="#ccc"/><path d="M34.5,518a4.5,4.5,0,0,1,4.6-4.7,4.7,4.7,0,0,1,0,9.4A4.5,4.5,0,0,1,34.5,518Zm7.3,0c0-1.7-.9-3.2-2.7-3.2s-2.8,1.5-2.8,3.2,1,3.2,2.8,3.2S41.8,519.7,41.8,518Z" fill="#ccc"/><path d="M51.7,521.2a3.8,3.8,0,0,1-2.9,1.5c-2.4,0-4-1.8-4-4.7s1.6-4.7,4-4.7a3.5,3.5,0,0,1,2.9,1.5v-4.7h1.7v12.4H51.7Zm0-5.1a3.3,3.3,0,0,0-2.5-1.3c-1.7,0-2.7,1.3-2.7,3.2s1,3.2,2.7,3.2a3.3,3.3,0,0,0,2.5-1.3Z" fill="#ccc"/><path d="M59.6,513.3c2.7,0,4.3,2.1,4.3,4.8v.4h-7a2.8,2.8,0,0,0,3,2.8,4,4,0,0,0,2.6-1l.8,1.1a5.3,5.3,0,0,1-3.6,1.3,4.7,4.7,0,0,1-.1-9.4Zm-2.8,4h5.5a2.5,2.5,0,0,0-2.7-2.6A2.8,2.8,0,0,0,56.8,517.3Z" fill="#ccc"/><path d="M65.7,510.1h1.6v12.4H65.7Z" fill="#ccc"/><path d="M20.3,532.3h5.2a3.7,3.7,0,0,1,3.9,3.8,3.6,3.6,0,0,1-3.9,3.8H22.1v4.8H20.3Zm4.9,1.7H22.1v4.3h3.1a2.1,2.1,0,0,0,2.3-2.2A2.1,2.1,0,0,0,25.2,534Z" fill="#ccc"/><path d="M37,538.9a1.7,1.7,0,0,0-1.9-1.9,3.1,3.1,0,0,0-2.5,1.3v6.4H30.9V532.3h1.7V537a4.4,4.4,0,0,1,3.2-1.5c1.9,0,2.8,1,2.8,2.9v6.3H37Z" fill="#ccc"/><path d="M40.4,540.2a4.5,4.5,0,1,1,4.5,4.7A4.4,4.4,0,0,1,40.4,540.2Zm7.3,0c0-1.7-1-3.2-2.8-3.2s-2.8,1.5-2.8,3.2,1,3.2,2.8,3.2S47.7,541.9,47.7,540.2Z" fill="#ccc"/><path d="M51.5,542.7v-5.5H50v-1.5h1.5v-2.4h1.7v2.4H55v1.5H53.2v5.1c0,.7.2,1.1.8,1.1s.8-.1.9-.3l.5,1.2a2.3,2.3,0,0,1-1.8.6A1.9,1.9,0,0,1,51.5,542.7Z" fill="#ccc"/><path d="M55.9,540.2a4.5,4.5,0,1,1,4.5,4.7A4.4,4.4,0,0,1,55.9,540.2Zm7.3,0c0-1.7-1-3.2-2.8-3.2s-2.8,1.5-2.8,3.2,1,3.2,2.8,3.2S63.2,541.9,63.2,540.2Z" fill="#ccc"/><rect x="14.2" y="503.9" width="95.3" height="95.3" fill="#ccc"/><path d="M30.9,512.6l-4,9.9h-.8l-4-9.9v9.9H20.3V510.1h2.6l3.6,8.9,3.6-8.9h2.7v12.4H30.9Z" fill="#fff"/><path d="M34.5,518a4.5,4.5,0,0,1,4.6-4.7,4.7,4.7,0,0,1,0,9.4A4.5,4.5,0,0,1,34.5,518Zm7.3,0c0-1.7-.9-3.2-2.7-3.2s-2.8,1.5-2.8,3.2,1,3.2,2.8,3.2S41.8,519.7,41.8,518Z" fill="#fff"/><path d="M51.7,521.2a3.8,3.8,0,0,1-2.9,1.5c-2.4,0-4-1.8-4-4.7s1.6-4.7,4-4.7a3.5,3.5,0,0,1,2.9,1.5v-4.7h1.7v12.4H51.7Zm0-5.1a3.3,3.3,0,0,0-2.5-1.3c-1.7,0-2.7,1.3-2.7,3.2s1,3.2,2.7,3.2a3.3,3.3,0,0,0,2.5-1.3Z" fill="#fff"/><path d="M59.6,513.3c2.7,0,4.3,2.1,4.3,4.8v.4h-7a2.8,2.8,0,0,0,3,2.8,4,4,0,0,0,2.6-1l.8,1.1a5.3,5.3,0,0,1-3.6,1.3,4.7,4.7,0,0,1-.1-9.4Zm-2.8,4h5.5a2.5,2.5,0,0,0-2.7-2.6A2.8,2.8,0,0,0,56.8,517.3Z" fill="#fff"/><path d="M65.7,510.1h1.6v12.4H65.7Z" fill="#fff"/><path d="M20.3,532.3h5.2a3.7,3.7,0,0,1,3.9,3.8,3.6,3.6,0,0,1-3.9,3.8H22.1v4.8H20.3Zm4.9,1.7H22.1v4.3h3.1a2.1,2.1,0,0,0,2.3-2.2A2.1,2.1,0,0,0,25.2,534Z" fill="#fff"/><path d="M37,538.9a1.7,1.7,0,0,0-1.9-1.9,3.1,3.1,0,0,0-2.5,1.3v6.4H30.9V532.3h1.7V537a4.4,4.4,0,0,1,3.2-1.5c1.9,0,2.8,1,2.8,2.9v6.3H37Z" fill="#fff"/><path d="M40.4,540.2a4.5,4.5,0,1,1,4.5,4.7A4.4,4.4,0,0,1,40.4,540.2Zm7.3,0c0-1.7-1-3.2-2.8-3.2s-2.8,1.5-2.8,3.2,1,3.2,2.8,3.2S47.7,541.9,47.7,540.2Z" fill="#fff"/><path d="M51.5,542.7v-5.5H50v-1.5h1.5v-2.4h1.7v2.4H55v1.5H53.2v5.1c0,.7.2,1.1.8,1.1s.8-.1.9-.3l.5,1.2a2.3,2.3,0,0,1-1.8.6A1.9,1.9,0,0,1,51.5,542.7Z" fill="#fff"/><path d="M55.9,540.2a4.5,4.5,0,1,1,4.5,4.7A4.4,4.4,0,0,1,55.9,540.2Zm7.3,0c0-1.7-1-3.2-2.8-3.2s-2.8,1.5-2.8,3.2,1,3.2,2.8,3.2S63.2,541.9,63.2,540.2Z" fill="#fff"/><rect x="239" y="652.6" width="95.3" height="95.3" fill="#ccc"/><path d="M239.9,762.1a6.2,6.2,0,0,1,6.3-6.4,5.6,5.6,0,0,1,4.9,2.6l-1.5.9a3.9,3.9,0,0,0-3.4-1.8,4.7,4.7,0,0,0,0,9.4,3.9,3.9,0,0,0,3.4-1.8l1.5.9a5.7,5.7,0,0,1-4.9,2.6A6.2,6.2,0,0,1,239.9,762.1Z" fill="#ccc"/><path d="M252,763.8a4.6,4.6,0,1,1,4.5,4.7A4.5,4.5,0,0,1,252,763.8Zm7.3,0c0-1.7-1-3.2-2.8-3.2s-2.7,1.5-2.7,3.2,1,3.2,2.7,3.2S259.3,765.5,259.3,763.8Z" fill="#ccc"/><path d="M261.5,759.3h1.8l2.8,7,2.8-7h1.8l-3.7,9h-1.8Z" fill="#ccc"/><path d="M275.6,759.1c2.7,0,4.3,2.1,4.3,4.8v.4h-7.1a3,3,0,0,0,3.1,2.8,4,4,0,0,0,2.6-1l.8,1.1a5.3,5.3,0,0,1-3.6,1.3,4.4,4.4,0,0,1-4.6-4.7A4.5,4.5,0,0,1,275.6,759.1Zm-2.8,4h5.5a2.6,2.6,0,0,0-2.7-2.6A2.8,2.8,0,0,0,272.8,763.1Z" fill="#ccc"/><path d="M281.6,759.3h1.7v1.4a3.9,3.9,0,0,1,2.9-1.6v1.7h-.5a3.4,3.4,0,0,0-2.4,1.3v6.3h-1.7Z" fill="#ccc"/><path d="M287.5,755.9h1.7v12.4h-1.7Z" fill="#ccc"/><path d="M291.2,756.8a1.1,1.1,0,0,1,2.2,0,1.1,1.1,0,0,1-2.2,0Zm.3,2.5h1.6v9h-1.6Z" fill="#ccc"/><path d="M301.5,762.5a1.7,1.7,0,0,0-1.9-1.9,3.1,3.1,0,0,0-2.5,1.3v6.4h-1.7v-9h1.7v1.3a4.4,4.4,0,0,1,3.2-1.5c1.9,0,2.8,1,2.8,2.9v6.3h-1.6Z" fill="#ccc"/><path d="M309.3,759.1c2.7,0,4.4,2.1,4.4,4.8v.4h-7.1a2.9,2.9,0,0,0,3.1,2.8,4.2,4.2,0,0,0,2.6-1l.8,1.1a5.5,5.5,0,0,1-3.6,1.3,4.7,4.7,0,0,1-.2-9.4Zm-2.7,4h5.5a2.8,2.8,0,0,0-2.8-2.6A2.7,2.7,0,0,0,306.6,763.1Z" fill="#ccc"/><path d="M255.7,661.3l-4,9.8H251l-4-9.8v9.8h-1.9V658.8h2.7l3.5,8.8,3.6-8.8h2.7v12.3h-1.9Z" fill="#fff"/><path d="M259.4,666.6a4.5,4.5,0,1,1,4.5,4.7A4.4,4.4,0,0,1,259.4,666.6Zm7.3,0a2.8,2.8,0,1,0-5.6,0c0,1.7,1,3.3,2.8,3.3S266.7,668.3,266.7,666.6Z" fill="#fff"/><path d="M276.5,669.8a3.5,3.5,0,0,1-2.9,1.5c-2.3,0-4-1.7-4-4.6s1.7-4.7,4-4.7a3.5,3.5,0,0,1,2.9,1.5v-4.7h1.7v12.3h-1.7Zm0-5.1a3,3,0,0,0-2.5-1.3c-1.6,0-2.7,1.4-2.7,3.3s1.1,3.2,2.7,3.2a3,3,0,0,0,2.5-1.3Z" fill="#fff"/><path d="M284.4,662c2.7,0,4.4,2,4.4,4.8v.4h-7.1a2.9,2.9,0,0,0,3,2.8,3.9,3.9,0,0,0,2.7-1.1l.8,1.1a5,5,0,0,1-3.6,1.3,4.7,4.7,0,0,1-.2-9.3Zm-2.7,4h5.4a2.6,2.6,0,0,0-2.7-2.7A2.7,2.7,0,0,0,281.7,666Z" fill="#fff"/><path d="M290.5,658.8h1.7v12.3h-1.7Z" fill="#fff"/><path d="M245.1,681h5.2a3.7,3.7,0,0,1,4,3.8,3.8,3.8,0,0,1-4,3.8H247v4.8h-1.9Zm5,1.6H247V687h3.1a2.2,2.2,0,1,0,0-4.4Z" fill="#fff"/><path d="M261.8,687.6c0-1.5-.8-1.9-1.9-1.9a3.1,3.1,0,0,0-2.5,1.3v6.4h-1.6V681h1.6v4.7a4.1,4.1,0,0,1,3.2-1.5c1.9,0,2.9.9,2.9,2.8v6.4h-1.7Z" fill="#fff"/><path d="M265.2,688.9a4.5,4.5,0,1,1,4.5,4.7A4.4,4.4,0,0,1,265.2,688.9Zm7.3,0c0-1.7-1-3.2-2.8-3.2s-2.8,1.5-2.8,3.2,1,3.2,2.8,3.2S272.5,690.6,272.5,688.9Z" fill="#fff"/><path d="M276.3,691.4v-5.5h-1.5v-1.5h1.5V682H278v2.4h1.8v1.5H278V691c0,.6.3,1.1.9,1.1a1.5,1.5,0,0,0,.9-.4l.4,1.3a2.7,2.7,0,0,1-1.8.6A1.9,1.9,0,0,1,276.3,691.4Z" fill="#fff"/><path d="M280.7,688.9a4.6,4.6,0,1,1,4.5,4.7A4.5,4.5,0,0,1,280.7,688.9Zm7.3,0c0-1.7-1-3.2-2.8-3.2s-2.7,1.5-2.7,3.2,1,3.2,2.7,3.2S288,690.6,288,688.9Z" fill="#fff"/><rect x="364.9" y="652.6" width="95.3" height="95.3" fill="#ccc"/><path d="M365.7,762.1a6.3,6.3,0,0,1,6.4-6.4,5.7,5.7,0,0,1,4.9,2.6l-1.6.9a3.7,3.7,0,0,0-3.3-1.8,4.7,4.7,0,0,0,0,9.4,3.7,3.7,0,0,0,3.3-1.8l1.6.9a5.7,5.7,0,0,1-4.9,2.6A6.3,6.3,0,0,1,365.7,762.1Z" fill="#ccc"/><path d="M377.9,763.8a4.5,4.5,0,1,1,4.5,4.7A4.4,4.4,0,0,1,377.9,763.8Zm7.3,0c0-1.7-1-3.2-2.8-3.2s-2.8,1.5-2.8,3.2,1,3.2,2.8,3.2S385.2,765.5,385.2,763.8Z" fill="#ccc"/><path d="M387.3,759.3h1.8l2.8,7,2.8-7h1.8l-3.7,9H391Z" fill="#ccc"/><path d="M401.4,759.1c2.7,0,4.4,2.1,4.4,4.8v.4h-7.1a2.8,2.8,0,0,0,3,2.8,4.3,4.3,0,0,0,2.7-1l.8,1.1a5.5,5.5,0,0,1-3.6,1.3,4.7,4.7,0,0,1-.2-9.4Zm-2.7,4h5.5a2.8,2.8,0,0,0-2.8-2.6A2.7,2.7,0,0,0,398.7,763.1Z" fill="#ccc"/><path d="M407.5,759.3h1.7v1.4a3.7,3.7,0,0,1,2.9-1.6v1.7h-.6a3.4,3.4,0,0,0-2.3,1.3v6.3h-1.7Z" fill="#ccc"/><path d="M413.4,755.9h1.7v12.4h-1.7Z" fill="#ccc"/><path d="M417.1,756.8a1.1,1.1,0,0,1,1.1-1.1,1,1,0,0,1,1,1.1.9.9,0,0,1-1,1A1,1,0,0,1,417.1,756.8Zm.2,2.5H419v9h-1.7Z" fill="#ccc"/><path d="M427.3,762.5c0-1.4-.7-1.9-1.9-1.9a2.9,2.9,0,0,0-2.4,1.3v6.4h-1.7v-9H423v1.3a4,4,0,0,1,3.1-1.5A2.6,2.6,0,0,1,429,762v6.3h-1.7Z" fill="#ccc"/><path d="M435.2,759.1c2.7,0,4.4,2.1,4.4,4.8v.4h-7.1a2.8,2.8,0,0,0,3,2.8,4.3,4.3,0,0,0,2.7-1l.7,1.1a5.1,5.1,0,0,1-3.6,1.3,4.7,4.7,0,0,1-.1-9.4Zm-2.7,4h5.4a2.6,2.6,0,0,0-2.7-2.6A2.7,2.7,0,0,0,432.5,763.1Z" fill="#ccc"/><path d="M381.6,661.3l-4,9.8h-.8l-4-9.8v9.8H371V658.8h2.6l3.6,8.8,3.6-8.8h2.6v12.3h-1.8Z" fill="#fff"/><path d="M385.2,666.6a4.6,4.6,0,1,1,9.1,0,4.6,4.6,0,1,1-9.1,0Zm7.3,0a2.8,2.8,0,1,0-5.5,0c0,1.7,1,3.3,2.7,3.3S392.5,668.3,392.5,666.6Z" fill="#fff"/><path d="M402.4,669.8a3.8,3.8,0,0,1-2.9,1.5c-2.4,0-4-1.7-4-4.6s1.6-4.7,4-4.7a3.5,3.5,0,0,1,2.9,1.5v-4.7h1.7v12.3h-1.7Zm0-5.1a3.3,3.3,0,0,0-2.5-1.3c-1.7,0-2.7,1.4-2.7,3.3s1,3.2,2.7,3.2a3.3,3.3,0,0,0,2.5-1.3Z" fill="#fff"/><path d="M410.3,662c2.7,0,4.3,2,4.3,4.8v.4h-7a2.9,2.9,0,0,0,3,2.8,3.6,3.6,0,0,0,2.6-1.1l.8,1.1a4.8,4.8,0,0,1-3.6,1.3,4.7,4.7,0,0,1-.1-9.3Zm-2.8,4H413a2.6,2.6,0,0,0-2.7-2.7A2.8,2.8,0,0,0,407.5,666Z" fill="#fff"/><path d="M416.4,658.8H418v12.3h-1.6Z" fill="#fff"/><path d="M371,681h5.2a3.6,3.6,0,0,1,3.9,3.8,3.7,3.7,0,0,1-3.9,3.8h-3.4v4.8H371Zm4.9,1.6h-3.1V687h3.1a2.2,2.2,0,1,0,0-4.4Z" fill="#fff"/><path d="M387.7,687.6c0-1.5-.8-1.9-2-1.9a3.1,3.1,0,0,0-2.4,1.3v6.4h-1.7V681h1.7v4.7a4.1,4.1,0,0,1,3.2-1.5c1.9,0,2.8.9,2.8,2.8v6.4h-1.6Z" fill="#fff"/><path d="M391.1,688.9a4.5,4.5,0,1,1,4.5,4.7A4.4,4.4,0,0,1,391.1,688.9Zm7.3,0c0-1.7-1-3.2-2.8-3.2s-2.8,1.5-2.8,3.2,1,3.2,2.8,3.2S398.4,690.6,398.4,688.9Z" fill="#fff"/><path d="M402.2,691.4v-5.5h-1.5v-1.5h1.5V682h1.6v2.4h1.9v1.5h-1.9V691c0,.6.3,1.1.9,1.1a1.1,1.1,0,0,0,.9-.4l.5,1.3a2.7,2.7,0,0,1-1.8.6A1.9,1.9,0,0,1,402.2,691.4Z" fill="#fff"/><path d="M406.6,688.9a4.5,4.5,0,1,1,4.5,4.7A4.4,4.4,0,0,1,406.6,688.9Zm7.3,0c0-1.7-1-3.2-2.8-3.2s-2.8,1.5-2.8,3.2,1,3.2,2.8,3.2S413.9,690.6,413.9,688.9Z" fill="#fff"/><rect x="490.8" y="652.6" width="95.3" height="95.3" fill="#ccc"/><path d="M491.6,762.1a6.2,6.2,0,0,1,6.3-6.4,5.8,5.8,0,0,1,5,2.6l-1.6.9a3.9,3.9,0,0,0-3.4-1.8,4.7,4.7,0,0,0,0,9.4,3.9,3.9,0,0,0,3.4-1.8l1.6.9a5.8,5.8,0,0,1-5,2.6A6.2,6.2,0,0,1,491.6,762.1Z" fill="#ccc"/><path d="M503.7,763.8a4.5,4.5,0,0,1,4.6-4.7,4.7,4.7,0,0,1,0,9.4A4.5,4.5,0,0,1,503.7,763.8Zm7.3,0c0-1.7-.9-3.2-2.7-3.2s-2.8,1.5-2.8,3.2,1,3.2,2.8,3.2S511,765.5,511,763.8Z" fill="#ccc"/><path d="M513.2,759.3H515l2.8,7,2.8-7h1.8l-3.7,9h-1.8Z" fill="#ccc"/><path d="M527.3,759.1c2.7,0,4.3,2.1,4.3,4.8v.4h-7a2.8,2.8,0,0,0,3,2.8,4.3,4.3,0,0,0,2.7-1l.7,1.1a5.3,5.3,0,0,1-3.6,1.3,4.7,4.7,0,0,1-.1-9.4Zm-2.8,4H530a2.6,2.6,0,0,0-2.7-2.6A2.8,2.8,0,0,0,524.5,763.1Z" fill="#ccc"/><path d="M533.4,759.3H535v1.4a3.9,3.9,0,0,1,3-1.6v1.7h-.6A3.6,3.6,0,0,0,535,762v6.3h-1.6Z" fill="#ccc"/><path d="M539.3,755.9h1.6v12.4h-1.6Z" fill="#ccc"/><path d="M542.9,756.8a1.1,1.1,0,0,1,2.2,0,1.1,1.1,0,0,1-2.2,0Zm.3,2.5h1.7v9h-1.7Z" fill="#ccc"/><path d="M553.2,762.5a1.7,1.7,0,0,0-1.9-1.9,3.1,3.1,0,0,0-2.5,1.3v6.4h-1.6v-9h1.6v1.3a4.4,4.4,0,0,1,3.2-1.5,2.6,2.6,0,0,1,2.9,2.9v6.3h-1.7Z" fill="#ccc"/><path d="M561.1,759.1c2.6,0,4.3,2.1,4.3,4.8v.4h-7.1a3,3,0,0,0,3.1,2.8,4,4,0,0,0,2.6-1l.8,1.1a5.3,5.3,0,0,1-3.6,1.3,4.4,4.4,0,0,1-4.6-4.7A4.5,4.5,0,0,1,561.1,759.1Zm-2.8,4h5.5a2.7,2.7,0,0,0-2.7-2.6A2.8,2.8,0,0,0,558.3,763.1Z" fill="#ccc"/><path d="M507.5,661.3l-4,9.8h-.8l-4-9.8v9.8h-1.9V658.8h2.7l3.6,8.8,3.6-8.8h2.6v12.3h-1.8Z" fill="#fff"/><path d="M511.1,666.6a4.5,4.5,0,1,1,4.5,4.7A4.4,4.4,0,0,1,511.1,666.6Zm7.3,0a2.8,2.8,0,1,0-5.6,0c0,1.7,1,3.3,2.8,3.3S518.4,668.3,518.4,666.6Z" fill="#fff"/><path d="M528.2,669.8a3.5,3.5,0,0,1-2.9,1.5c-2.3,0-4-1.7-4-4.6s1.7-4.7,4-4.7a3.4,3.4,0,0,1,2.9,1.5v-4.7h1.7v12.3h-1.7Zm0-5.1a2.9,2.9,0,0,0-2.4-1.3c-1.7,0-2.7,1.4-2.7,3.3s1,3.2,2.7,3.2a2.9,2.9,0,0,0,2.4-1.3Z" fill="#fff"/><path d="M536.1,662c2.7,0,4.4,2,4.4,4.8v.4h-7.1a3,3,0,0,0,3.1,2.8,3.8,3.8,0,0,0,2.6-1.1l.8,1.1a5,5,0,0,1-3.6,1.3,4.7,4.7,0,0,1-.2-9.3Zm-2.7,4h5.5a2.8,2.8,0,0,0-5.5,0Z" fill="#fff"/><path d="M542.2,658.8h1.7v12.3h-1.7Z" fill="#fff"/><path d="M496.8,681H502a3.7,3.7,0,0,1,4,3.8,3.7,3.7,0,0,1-4,3.8h-3.3v4.8h-1.9Zm5,1.6h-3.1V687h3.1a2.2,2.2,0,1,0,0-4.4Z" fill="#fff"/><path d="M513.5,687.6c0-1.5-.7-1.9-1.9-1.9a3.3,3.3,0,0,0-2.5,1.3v6.4h-1.6V681h1.6v4.7a4.1,4.1,0,0,1,3.2-1.5c1.9,0,2.9.9,2.9,2.8v6.4h-1.7Z" fill="#fff"/><path d="M516.9,688.9a4.6,4.6,0,1,1,4.5,4.7A4.5,4.5,0,0,1,516.9,688.9Zm7.3,0c0-1.7-1-3.2-2.8-3.2s-2.7,1.5-2.7,3.2,1,3.2,2.7,3.2S524.2,690.6,524.2,688.9Z" fill="#fff"/><path d="M528,691.4v-5.5h-1.4v-1.5H528V682h1.7v2.4h1.8v1.5h-1.8V691c0,.6.3,1.1.9,1.1a1.3,1.3,0,0,0,.9-.4l.4,1.3a2.4,2.4,0,0,1-1.7.6A2,2,0,0,1,528,691.4Z" fill="#fff"/><path d="M532.5,688.9a4.5,4.5,0,1,1,4.5,4.7A4.4,4.4,0,0,1,532.5,688.9Zm7.3,0c0-1.7-1-3.2-2.8-3.2s-2.8,1.5-2.8,3.2,1,3.2,2.8,3.2S539.8,690.6,539.8,688.9Z" fill="#fff"/><rect x="0.5" y="775.5" width="612" height="16.99" fill="#b3b3b3"/><path d="M243.1,779.8H247a2.1,2.1,0,0,1,2.4,2.1,1.8,1.8,0,0,1-1.5,1.9,2.2,2.2,0,0,1,1.7,2.1,2.2,2.2,0,0,1-2.5,2.2h-4Zm3.7,3.5a1.2,1.2,0,1,0,0-2.4h-2.4v2.4Zm.1,3.7a1.3,1.3,0,1,0,0-2.6h-2.5V787Z" fill="#fff"/><path d="M259.7,779.6a4.4,4.4,0,1,1-4.2,4.4A4.2,4.2,0,0,1,259.7,779.6Zm0,1.2c-1.8,0-2.9,1.3-2.9,3.2a2.9,2.9,0,1,0,5.8,0C262.6,782.1,261.5,780.8,259.7,780.8Z" fill="#fff"/><path d="M271.9,780.9h-2.6v-1.1h6.5v1.1h-2.6v7.2h-1.3Z" fill="#fff"/><path d="M283.9,780.9h-2.6v-1.1h6.4v1.1h-2.6v7.2h-1.2Z" fill="#fff"/><path d="M297.3,779.6a4.4,4.4,0,1,1-4.2,4.4A4.2,4.2,0,0,1,297.3,779.6Zm0,1.2c-1.8,0-2.9,1.3-2.9,3.2a2.9,2.9,0,1,0,5.8,0C300.2,782.1,299.1,780.8,297.3,780.8Z" fill="#fff"/><path d="M315,781.5l-2.7,6.6h-.6l-2.7-6.6v6.6h-1.2v-8.3h1.8l2.4,6,2.4-6h1.8v8.3H315Z" fill="#fff"/><path d="M331,786a3.8,3.8,0,0,0,2.7,1.2c1.3,0,1.8-.7,1.8-1.3s-1-1.2-2-1.4-2.9-.8-2.9-2.5,1.2-2.3,2.9-2.3a4.5,4.5,0,0,1,3.1,1.1l-.7.9a3.8,3.8,0,0,0-2.5-.9c-.9,0-1.5.4-1.5,1.1s.9,1,1.9,1.3,3,.8,3,2.6-.9,2.5-3.2,2.5a4.6,4.6,0,0,1-3.3-1.3Z" fill="#fff"/><path d="M344.9,780.9h-2.6v-1.1h6.5v1.1h-2.6v7.2h-1.3Z" fill="#fff"/><path d="M357.6,784.9h-1.5v3.2h-1.3v-8.3h3.5a2.5,2.5,0,0,1,2.7,2.5,2.4,2.4,0,0,1-2.1,2.5l2.2,3.3h-1.5Zm.6-4h-2.1v2.9h2.1a1.4,1.4,0,0,0,1.5-1.5A1.4,1.4,0,0,0,358.2,780.9Z" fill="#fff"/><path d="M367.3,779.8h1.3v8.3h-1.3Z" fill="#fff"/><path d="M375.2,779.8h3.5a2.6,2.6,0,1,1,0,5.1h-2.3v3.2h-1.2Zm3.4,1.1h-2.2v2.9h2.2a1.4,1.4,0,0,0,1.5-1.5A1.4,1.4,0,0,0,378.6,780.9Z" fill="#fff"/><rect x="0.5" y="0.5" width="612" height="22.15" fill="#bfbfbf"/><path d="M193.1,8.4h-2.6V7.3h6.4V8.4h-2.6v7.3h-1.2Z" fill="#fff"/><path d="M206.5,7.2a4.1,4.1,0,0,1,4.2,4.3,4.2,4.2,0,1,1-8.4,0A4.1,4.1,0,0,1,206.5,7.2Zm0,1.1c-1.8,0-2.9,1.3-2.9,3.2a2.9,2.9,0,1,0,5.8,0C209.4,9.6,208.3,8.3,206.5,8.3Z" fill="#fff"/><path d="M217,7.3h3.5a2.5,2.5,0,0,1,2.7,2.6,2.5,2.5,0,0,1-2.7,2.5h-2.3v3.3H217Zm3.3,1.1h-2.1v2.9h2.1a1.4,1.4,0,0,0,1.6-1.4A1.5,1.5,0,0,0,220.3,8.4Z" fill="#fff"/><path d="M237.4,13.5a3.8,3.8,0,0,0,2.6,1.2c1.4,0,1.9-.7,1.9-1.3s-1-1.1-2-1.4-2.9-.7-2.9-2.4,1.2-2.4,2.9-2.4A4.5,4.5,0,0,1,243,8.3l-.8,1a3.1,3.1,0,0,0-2.4-1c-.9,0-1.5.5-1.5,1.2s.9,1,1.9,1.2,3,.8,3,2.6-1,2.5-3.2,2.5a4.2,4.2,0,0,1-3.3-1.3Z" fill="#fff"/><path d="M251.3,8.4h-2.6V7.3h6.4V8.4h-2.5v7.3h-1.3Z" fill="#fff"/><path d="M264,12.4h-1.5v3.3h-1.3V7.3h3.5a2.5,2.5,0,0,1,2.7,2.6,2.3,2.3,0,0,1-2.1,2.4l2.2,3.4H266Zm.6-4h-2.1v2.9h2.1a1.3,1.3,0,0,0,1.5-1.4A1.4,1.4,0,0,0,264.6,8.4Z" fill="#fff"/><path d="M273.7,7.3H275v8.4h-1.3Z" fill="#fff"/><path d="M281.6,7.3h3.5a2.5,2.5,0,0,1,2.7,2.6,2.5,2.5,0,0,1-2.7,2.5h-2.3v3.3h-1.2Zm3.3,1.1h-2.1v2.9h2.1a1.4,1.4,0,0,0,1.6-1.4A1.5,1.5,0,0,0,284.9,8.4Z" fill="#fff"/><path d="M301.3,10.9h9.6v1h-9.6Z" fill="#fff"/><path d="M325.2,13.5a3.8,3.8,0,0,0,2.6,1.2c1.4,0,1.9-.7,1.9-1.3s-1-1.1-2.1-1.4-2.9-.7-2.9-2.4,1.3-2.4,3-2.4a4.1,4.1,0,0,1,3,1.1l-.7,1a3.1,3.1,0,0,0-2.4-1c-.9,0-1.6.5-1.6,1.2s.9,1,2,1.2,2.9.8,2.9,2.6-.9,2.5-3.1,2.5a4.2,4.2,0,0,1-3.3-1.3Z" fill="#fff"/><path d="M339.1,8.4h-2.6V7.3h6.4V8.4h-2.6v7.3h-1.2Z" fill="#fff"/><path d="M351.8,12.4h-1.6v3.3H349V7.3h3.5a2.5,2.5,0,0,1,2.7,2.6,2.3,2.3,0,0,1-2.1,2.4l2.1,3.4h-1.4Zm.5-4h-2.1v2.9h2.1a1.4,1.4,0,0,0,1.6-1.4A1.5,1.5,0,0,0,352.3,8.4Z" fill="#fff"/><path d="M366.8,13.9h-4.1l-.7,1.8h-1.4l3.3-8.4h1.6l3.3,8.4h-1.4ZM363,12.8h3.4l-1.7-4.4Z" fill="#fff"/><path d="M374.6,7.3h3.5a2.5,2.5,0,0,1,2.7,2.6,2.5,2.5,0,0,1-2.7,2.5h-2.3v3.3h-1.2Zm3.3,1.1h-2.1v2.9h2.1a1.4,1.4,0,0,0,1.6-1.4A1.5,1.5,0,0,0,377.9,8.4Z" fill="#fff"/><path d="M394.8,7.3h1.3v7.3h3.8v1.1h-5.1Z" fill="#fff"/><path d="M406,7.3h1.3v8.4H406Z" fill="#fff"/><path d="M415.1,9.2v6.5h-1.2V7.3h1.3l4.5,6.3V7.3H421v8.4h-1.2Z" fill="#fff"/><path d="M427.6,7.3h5.6V8.4h-4.4v2.5h4.3V12h-4.3v2.6h4.4v1.1h-5.6Z" fill="#fff"/><polygon points="612.5 0.5 551.6 0.5 612.5 61.4 612.5 0.5" fill="#b3b3b3"/><path d="M582.8,5.8l3.7,3.7a3.8,3.8,0,1,1-5.4,5.4l-2.4-2.4-3.3,3.4L574,14.6Zm2.3,4.7-2.2-2.2-3,3.1,2.2,2.2a2.1,2.1,0,0,0,3.1,0A2,2,0,0,0,585.1,10.5Z" fill="#fff"/><path d="M590.3,13.4l1.4,1.3L586.4,20a3.1,3.1,0,0,0-.1,4.8,3.1,3.1,0,0,0,4.8-.1l5.3-5.3,1.3,1.3L592.4,26c-2.2,2.2-4.8,2.4-7.3,0s-2.2-5.2-.1-7.3Z" fill="#fff"/><path d="M603.7,26.4a5.8,5.8,0,0,1,1.7,5.2l-1.7-.4a4.2,4.2,0,0,0-1.2-3.6,4.4,4.4,0,0,0-6.5.2,4.4,4.4,0,0,0-.2,6.5,5.3,5.3,0,0,0,3.1,1.4l1.6-1.6-2.8-2.8,1.1-1.2,4.1,4.2-3.2,3.2a6.5,6.5,0,0,1-5.1-2,6.4,6.4,0,0,1,9.1-9.1Z" fill="#fff"/></g></g></svg>