<svg xmlns="http://www.w3.org/2000/svg" id="Layer_1" viewBox="0 0 429.59 54.32" width="429.59" height="54.32"><defs><style>.cls-1{fill:#00683f}.cls-10,.cls-100,.cls-101,.cls-102,.cls-103,.cls-104,.cls-105,.cls-106,.cls-107,.cls-108,.cls-109,.cls-11,.cls-110,.cls-111,.cls-112,.cls-113,.cls-114,.cls-115,.cls-116,.cls-117,.cls-118,.cls-119,.cls-12,.cls-120,.cls-121,.cls-122,.cls-123,.cls-124,.cls-125,.cls-126,.cls-127,.cls-128,.cls-129,.cls-13,.cls-130,.cls-131,.cls-132,.cls-133,.cls-134,.cls-135,.cls-136,.cls-137,.cls-138,.cls-139,.cls-14,.cls-140,.cls-141,.cls-142,.cls-143,.cls-144,.cls-145,.cls-146,.cls-147,.cls-148,.cls-149,.cls-15,.cls-150,.cls-151,.cls-152,.cls-153,.cls-154,.cls-155,.cls-156,.cls-157,.cls-158,.cls-159,.cls-16,.cls-160,.cls-161,.cls-162,.cls-163,.cls-164,.cls-165,.cls-166,.cls-167,.cls-168,.cls-169,.cls-17,.cls-170,.cls-171,.cls-172,.cls-173,.cls-174,.cls-175,.cls-176,.cls-177,.cls-178,.cls-179,.cls-18,.cls-180,.cls-181,.cls-182,.cls-183,.cls-184,.cls-185,.cls-186,.cls-187,.cls-188,.cls-189,.cls-19,.cls-190,.cls-191,.cls-192,.cls-193,.cls-194,.cls-195,.cls-196,.cls-197,.cls-198,.cls-199,.cls-2,.cls-20,.cls-200,.cls-201,.cls-202,.cls-203,.cls-204,.cls-205,.cls-206,.cls-207,.cls-208,.cls-209,.cls-21,.cls-210,.cls-211,.cls-212,.cls-213,.cls-214,.cls-215,.cls-216,.cls-217,.cls-218,.cls-219,.cls-22,.cls-220,.cls-221,.cls-222,.cls-223,.cls-224,.cls-225,.cls-226,.cls-227,.cls-228,.cls-229,.cls-23,.cls-230,.cls-231,.cls-232,.cls-233,.cls-234,.cls-235,.cls-236,.cls-237,.cls-238,.cls-239,.cls-24,.cls-240,.cls-241,.cls-242,.cls-243,.cls-244,.cls-245,.cls-246,.cls-247,.cls-248,.cls-249,.cls-25,.cls-250,.cls-251,.cls-252,.cls-253,.cls-254,.cls-255,.cls-256,.cls-257,.cls-258,.cls-259,.cls-26,.cls-27,.cls-28,.cls-29,.cls-3,.cls-30,.cls-31,.cls-32,.cls-33,.cls-34,.cls-35,.cls-36,.cls-37,.cls-38,.cls-39,.cls-4,.cls-40,.cls-41,.cls-42,.cls-43,.cls-44,.cls-45,.cls-46,.cls-47,.cls-48,.cls-49,.cls-5,.cls-50,.cls-51,.cls-52,.cls-53,.cls-54,.cls-55,.cls-56,.cls-57,.cls-58,.cls-59,.cls-6,.cls-60,.cls-61,.cls-62,.cls-63,.cls-64,.cls-65,.cls-66,.cls-67,.cls-68,.cls-69,.cls-7,.cls-70,.cls-71,.cls-72,.cls-73,.cls-74,.cls-75,.cls-76,.cls-77,.cls-78,.cls-79,.cls-8,.cls-80,.cls-81,.cls-82,.cls-83,.cls-84,.cls-85,.cls-86,.cls-87,.cls-88,.cls-89,.cls-9,.cls-90,.cls-91,.cls-92,.cls-93,.cls-94,.cls-95,.cls-96,.cls-97,.cls-98,.cls-99{fill:none}.cls-2{stroke:#fff}.cls-10,.cls-100,.cls-101,.cls-102,.cls-103,.cls-104,.cls-105,.cls-106,.cls-107,.cls-108,.cls-109,.cls-11,.cls-110,.cls-111,.cls-112,.cls-113,.cls-114,.cls-115,.cls-116,.cls-117,.cls-118,.cls-119,.cls-12,.cls-120,.cls-121,.cls-122,.cls-123,.cls-124,.cls-125,.cls-126,.cls-127,.cls-128,.cls-129,.cls-13,.cls-130,.cls-131,.cls-132,.cls-133,.cls-134,.cls-135,.cls-136,.cls-137,.cls-138,.cls-139,.cls-14,.cls-140,.cls-141,.cls-142,.cls-143,.cls-144,.cls-145,.cls-146,.cls-147,.cls-148,.cls-149,.cls-150,.cls-151,.cls-152,.cls-153,.cls-154,.cls-155,.cls-156,.cls-157,.cls-158,.cls-159,.cls-16,.cls-160,.cls-161,.cls-162,.cls-163,.cls-164,.cls-165,.cls-166,.cls-167,.cls-168,.cls-169,.cls-17,.cls-170,.cls-171,.cls-172,.cls-173,.cls-174,.cls-175,.cls-176,.cls-177,.cls-178,.cls-179,.cls-18,.cls-180,.cls-181,.cls-182,.cls-183,.cls-184,.cls-185,.cls-186,.cls-187,.cls-188,.cls-189,.cls-19,.cls-190,.cls-191,.cls-192,.cls-193,.cls-194,.cls-195,.cls-196,.cls-197,.cls-198,.cls-199,.cls-2,.cls-20,.cls-200,.cls-201,.cls-202,.cls-203,.cls-204,.cls-205,.cls-206,.cls-207,.cls-208,.cls-209,.cls-21,.cls-210,.cls-211,.cls-212,.cls-213,.cls-214,.cls-215,.cls-216,.cls-217,.cls-218,.cls-219,.cls-22,.cls-220,.cls-221,.cls-222,.cls-223,.cls-224,.cls-225,.cls-226,.cls-227,.cls-228,.cls-229,.cls-23,.cls-230,.cls-231,.cls-232,.cls-233,.cls-234,.cls-235,.cls-236,.cls-237,.cls-238,.cls-239,.cls-24,.cls-240,.cls-241,.cls-242,.cls-243,.cls-244,.cls-245,.cls-246,.cls-247,.cls-248,.cls-249,.cls-25,.cls-250,.cls-251,.cls-252,.cls-253,.cls-254,.cls-255,.cls-256,.cls-257,.cls-258,.cls-259,.cls-26,.cls-27,.cls-28,.cls-29,.cls-3,.cls-31,.cls-32,.cls-33,.cls-34,.cls-35,.cls-36,.cls-37,.cls-38,.cls-39,.cls-4,.cls-40,.cls-41,.cls-42,.cls-43,.cls-44,.cls-45,.cls-46,.cls-47,.cls-48,.cls-49,.cls-5,.cls-50,.cls-51,.cls-52,.cls-53,.cls-54,.cls-55,.cls-56,.cls-57,.cls-58,.cls-59,.cls-6,.cls-60,.cls-61,.cls-62,.cls-63,.cls-64,.cls-65,.cls-66,.cls-67,.cls-68,.cls-69,.cls-7,.cls-70,.cls-71,.cls-72,.cls-73,.cls-74,.cls-75,.cls-76,.cls-77,.cls-78,.cls-79,.cls-8,.cls-80,.cls-81,.cls-82,.cls-83,.cls-84,.cls-85,.cls-86,.cls-87,.cls-88,.cls-89,.cls-9,.cls-90,.cls-91,.cls-92,.cls-93,.cls-94,.cls-95,.cls-96,.cls-97,.cls-98,.cls-99{stroke-miterlimit:10}.cls-3,.cls-4{stroke:#fdfdfd;stroke-width:1px}.cls-4{stroke:#fcfcfc}.cls-5,.cls-6{stroke:#fafbfb;stroke-width:.99px}.cls-6{stroke:#f9f9fa}.cls-7{stroke:#f8f8f9}.cls-7,.cls-8,.cls-9{stroke-width:.99px}.cls-8{stroke:#f7f7f8}.cls-9{stroke:#f6f6f7}.cls-10,.cls-11{stroke:#f5f6f6;stroke-width:.98px}.cls-11{stroke:#f4f5f5}.cls-12{stroke:#f3f4f4}.cls-12,.cls-13,.cls-14{stroke-width:.98px}.cls-13{stroke:#f3f3f4}.cls-14{stroke:#f2f2f3}.cls-15,.cls-16{stroke-width:.97px}.cls-15{stroke-miterlimit:10;stroke:#f1f1f2}.cls-16{stroke:#f0f1f1}.cls-17{stroke:#eff0f0}.cls-17,.cls-18,.cls-19{stroke-width:.97px}.cls-18{stroke:#eeeff0}.cls-19{stroke:#eeeeef}.cls-20{stroke:#ededee}.cls-20,.cls-21,.cls-22{stroke-width:.96px}.cls-21{stroke:#eceded}.cls-22{stroke:#ebeced}.cls-23{stroke:#eaebec}.cls-23,.cls-24,.cls-25{stroke-width:.96px}.cls-24{stroke:#eaeaeb}.cls-25{stroke:#e9e9ea}.cls-26,.cls-27{stroke:#e8e9e9;stroke-width:.95px}.cls-27{stroke:#e7e8e9}.cls-28{stroke:#e6e7e8}.cls-28,.cls-29,.cls-30{stroke-width:.95px}.cls-29{stroke:#e5e6e7}.cls-30{stroke:#e4e5e6;stroke-miterlimit:10}.cls-31,.cls-32{stroke:#e4e4e6;stroke-width:.94px}.cls-32{stroke:#e3e4e5}.cls-33{stroke:#e2e3e4}.cls-33,.cls-34,.cls-35{stroke-width:.94px}.cls-34{stroke:#e1e2e3}.cls-35{stroke:#e0e1e2}.cls-36,.cls-37{stroke:#dfe1e2;stroke-width:.93px}.cls-37{stroke:#dfe0e1}.cls-38{stroke:#dedfe0}.cls-38,.cls-39,.cls-40{stroke-width:.93px}.cls-39{stroke:#dddedf}.cls-40{stroke:#dcdddf}.cls-41,.cls-42{stroke:#dbddde;stroke-width:.92px}.cls-42{stroke:#dbdcdd}.cls-43{stroke:#dadbdc}.cls-43,.cls-44,.cls-45{stroke-width:.92px}.cls-44{stroke:#d9dadc}.cls-45{stroke:#d8d9db}.cls-46,.cls-47{stroke:#d7d9da;stroke-width:.91px}.cls-47{stroke:#d6d8d9}.cls-48{stroke:#d6d7d8}.cls-48,.cls-49,.cls-50{stroke-width:.91px}.cls-49{stroke:#d5d6d8}.cls-50{stroke:#d4d5d7}.cls-51,.cls-52{stroke:#d3d5d6;stroke-width:.9px}.cls-52{stroke:#d2d4d5}.cls-53{stroke:#d2d3d5}.cls-53,.cls-54,.cls-55{stroke-width:.9px}.cls-54{stroke:#d1d2d4}.cls-55{stroke:#d0d1d3}.cls-56{stroke:#cfd1d2}.cls-56,.cls-57,.cls-58{stroke-width:.89px}.cls-57{stroke:#ced0d1}.cls-58{stroke:#cdcfd1}.cls-59{stroke:#cdced0}.cls-59,.cls-60,.cls-61{stroke-width:.89px}.cls-60{stroke:#cccdcf}.cls-61{stroke:#cbcdce}.cls-62,.cls-63{stroke:#caccce;stroke-width:.88px}.cls-63{stroke:#c9cbcd}.cls-64{stroke:#c8cacc}.cls-64,.cls-65,.cls-66{stroke-width:.88px}.cls-65{stroke:#c8c9cb}.cls-66{stroke:#c7c8ca}.cls-67,.cls-68{stroke:#c6c8ca;stroke-width:.87px}.cls-68{stroke:#c5c7c9}.cls-69{stroke:#c4c6c8}.cls-69,.cls-70,.cls-71{stroke-width:.87px}.cls-70{stroke:#c3c5c7}.cls-71{stroke:#c3c4c6}.cls-72,.cls-73{stroke:#c2c4c6;stroke-width:.86px}.cls-73{stroke:#c1c3c5}.cls-74{stroke:#c0c2c4}.cls-74,.cls-75,.cls-76{stroke-width:.86px}.cls-75{stroke:#bfc1c3}.cls-76{stroke:#bec0c3}.cls-77,.cls-78{stroke:#bec0c2;stroke-width:.85px}.cls-78{stroke:#bdbfc1}.cls-79{stroke:#bcbec0}.cls-79,.cls-80,.cls-81{stroke-width:.85px}.cls-80{stroke:#bbbdbf}.cls-81{stroke:#babcbf}.cls-82,.cls-83{stroke:#babbbe;stroke-width:.84px}.cls-83{stroke:#b9bbbd}.cls-84{stroke:#b8babc}.cls-84,.cls-85,.cls-86{stroke-width:.84px}.cls-85{stroke:#b7b9bb}.cls-86{stroke:#b6b8bb}.cls-87,.cls-88{stroke:#b5b7ba;stroke-width:.83px}.cls-88{stroke:#b5b7b9}.cls-89{stroke:#b4b6b8}.cls-89,.cls-90,.cls-91{stroke-width:.83px}.cls-90{stroke:#b3b5b7}.cls-91{stroke:#b2b4b7}.cls-92{stroke:#b1b3b6}.cls-92,.cls-93,.cls-94{stroke-width:.82px}.cls-93{stroke:#b1b3b5}.cls-94{stroke:#b0b2b4}.cls-95{stroke:#afb1b3}.cls-95,.cls-96,.cls-97{stroke-width:.82px}.cls-96{stroke:#aeb0b3}.cls-97{stroke:#adafb2}.cls-98,.cls-99{stroke:#acafb1;stroke-width:.81px}.cls-99{stroke:#acaeb0}.cls-100{stroke:#abadb0}.cls-100,.cls-101,.cls-102{stroke-width:.81px}.cls-101{stroke:#aaacaf}.cls-102{stroke:#a9abae}.cls-103{stroke:#a8abad;stroke-width:.8px}.cls-104,.cls-105{stroke:#a8aaac;stroke-width:.8px}.cls-105{stroke:#a7a9ac}.cls-106,.cls-107{stroke:#a6a8ab;stroke-width:.8px}.cls-107{stroke:#a5a7aa}.cls-108,.cls-109{stroke:#a5a7a9;stroke-width:.79px}.cls-109{stroke:#a4a6a8}.cls-110{stroke:#a3a5a8}.cls-110,.cls-111,.cls-112{stroke-width:.79px}.cls-111{stroke:#a2a4a7}.cls-112{stroke:#a1a4a6}.cls-113,.cls-114{stroke:#a1a3a5;stroke-width:.78px}.cls-114{stroke:#a0a2a5}.cls-115{stroke:#9fa1a4}.cls-115,.cls-116,.cls-117{stroke-width:.78px}.cls-116{stroke:#9ea0a3}.cls-117{stroke:#9ea0a2}.cls-118,.cls-119{stroke:#9d9fa1;stroke-width:.77px}.cls-119{stroke:#9c9ea1}.cls-120{stroke:#9b9da0}.cls-120,.cls-121,.cls-122{stroke-width:.77px}.cls-121{stroke:#9a9d9f}.cls-122{stroke:#9a9c9e}.cls-123,.cls-124{stroke:#999b9e;stroke-width:.76px}.cls-124{stroke:#989a9d}.cls-125{stroke:#979a9c}.cls-125,.cls-126,.cls-127{stroke-width:.76px}.cls-126{stroke:#97999b}.cls-127{stroke:#96989b}.cls-128{stroke:#95979a}.cls-128,.cls-129,.cls-130{stroke-width:.75px}.cls-129{stroke:#949699}.cls-130{stroke:#949698}.cls-131{stroke:#939598}.cls-131,.cls-132,.cls-133{stroke-width:.75px}.cls-132{stroke:#929497}.cls-133{stroke:#919396}.cls-134,.cls-135{stroke:#919395;stroke-width:.74px}.cls-135{stroke:#909295}.cls-136{stroke:#8f9194}.cls-136,.cls-137,.cls-138{stroke-width:.74px}.cls-137{stroke:#8e9093}.cls-138{stroke:#8e9092}.cls-139,.cls-140{stroke:#8d8f92;stroke-width:.73px}.cls-140{stroke:#8c8e91}.cls-141{stroke:#8b8d90}.cls-141,.cls-142,.cls-143{stroke-width:.73px}.cls-142{stroke:#8b8d8f}.cls-143{stroke:#8a8c8f}.cls-144,.cls-145{stroke:#898b8e;stroke-width:.72px}.cls-145{stroke:#888a8d}.cls-146{stroke:#888a8c}.cls-146,.cls-147,.cls-148{stroke-width:.72px}.cls-147{stroke:#87898c}.cls-148{stroke:#86888b}.cls-149,.cls-150{stroke:#86878a;stroke-width:.71px}.cls-150{stroke:#858789}.cls-151{stroke:#848689}.cls-151,.cls-152,.cls-153{stroke-width:.71px}.cls-152{stroke:#838588}.cls-153{stroke:#838487}.cls-154{stroke:#828486;stroke-width:.7px}.cls-155,.cls-156{stroke:#818386;stroke-width:.7px}.cls-156{stroke:#808285}.cls-157,.cls-158{stroke:#808184;stroke-width:.7px}.cls-158{stroke:#7f8183}.cls-159,.cls-160{stroke:#7e8083;stroke-width:.69px}.cls-160{stroke:#7d7f82}.cls-161{stroke:#7d7f81}.cls-161,.cls-162,.cls-163{stroke-width:.69px}.cls-162{stroke:#7c7e80}.cls-163{stroke:#7b7d80}.cls-164{stroke:#7b7c7f}.cls-164,.cls-165,.cls-166{stroke-width:.68px}.cls-165{stroke:#7a7c7e}.cls-166{stroke:#797b7d}.cls-167{stroke:#787a7d}.cls-167,.cls-168,.cls-169{stroke-width:.68px}.cls-168{stroke:#78797c}.cls-169{stroke:#77787b}.cls-170,.cls-171{stroke:#76787a;stroke-width:.67px}.cls-171{stroke:#757779}.cls-172{stroke:#757679}.cls-172,.cls-173,.cls-174{stroke-width:.67px}.cls-173{stroke:#747578}.cls-174{stroke:#737577}.cls-175,.cls-176{stroke:#727476;stroke-width:.66px}.cls-176{stroke:#727376}.cls-177{stroke:#717275}.cls-177,.cls-178,.cls-179{stroke-width:.66px}.cls-178{stroke:#707274}.cls-179{stroke:#6f7173}.cls-180,.cls-181{stroke:#6f7072;stroke-width:.65px}.cls-181{stroke:#6e6f72}.cls-182{stroke:#6d6e71}.cls-182,.cls-183,.cls-184{stroke-width:.65px}.cls-183{stroke:#6c6e70}.cls-184{stroke:#6b6d6f}.cls-185,.cls-186{stroke:#6b6c6e;stroke-width:.64px}.cls-186{stroke:#6a6b6e}.cls-187{stroke:#696a6d}.cls-187,.cls-188,.cls-189{stroke-width:.64px}.cls-188{stroke:#686a6c}.cls-189{stroke:#67696b}.cls-190,.cls-191{stroke:#67686a;stroke-width:.63px}.cls-191{stroke:#666769}.cls-192{stroke:#656669}.cls-192,.cls-193,.cls-194{stroke-width:.63px}.cls-193{stroke:#646568}.cls-194{stroke:#636567}.cls-195,.cls-196{stroke:#636466;stroke-width:.62px}.cls-196{stroke:#626365}.cls-197{stroke:#616264}.cls-197,.cls-198,.cls-199{stroke-width:.62px}.cls-198{stroke:#606164}.cls-199{stroke:#5f6063}.cls-200{stroke:#5f6062}.cls-200,.cls-201,.cls-202{stroke-width:.61px}.cls-201{stroke:#5e5f61}.cls-202{stroke:#5d5e60}.cls-203{stroke:#5c5d5f}.cls-203,.cls-204,.cls-205{stroke-width:.61px}.cls-204{stroke:#5b5c5e}.cls-205{stroke:#5a5b5d}.cls-206{stroke:#595a5d;stroke-width:.6px}.cls-207,.cls-208{stroke:#59595c;stroke-width:.6px}.cls-208{stroke:#58595b}.cls-209,.cls-210{stroke:#57585a;stroke-width:.6px}.cls-210{stroke:#565759}.cls-211,.cls-212{stroke:#555658;stroke-width:.59px}.cls-212{stroke:#545557}.cls-213{stroke:#535456}.cls-213,.cls-214,.cls-215{stroke-width:.59px}.cls-214{stroke:#535355}.cls-215{stroke:#525254}.cls-216,.cls-217{stroke:#515153;stroke-width:.58px}.cls-217{stroke:#505052}.cls-218{stroke:#4f4f51}.cls-218,.cls-219,.cls-220{stroke-width:.58px}.cls-219{stroke:#4e4e50}.cls-220{stroke:#4d4d4f}.cls-221,.cls-222{stroke:#4c4c4e;stroke-width:.57px}.cls-222{stroke:#4b4c4d}.cls-223{stroke:#4a4b4c}.cls-223,.cls-224,.cls-225{stroke-width:.57px}.cls-224{stroke:#4a4a4b}.cls-225{stroke:#49494a}.cls-226,.cls-227{stroke:#484849;stroke-width:.56px}.cls-227{stroke:#474748}.cls-228{stroke:#464647}.cls-228,.cls-229,.cls-230{stroke-width:.56px}.cls-229{stroke:#454546}.cls-230{stroke:#444445}.cls-231,.cls-232{stroke:#434344;stroke-width:.55px}.cls-232{stroke:#424243}.cls-233{stroke:#414142}.cls-233,.cls-234,.cls-235{stroke-width:.55px}.cls-234{stroke:#403f41}.cls-235{stroke:#3f3e40}.cls-236{stroke:#3e3d3f}.cls-236,.cls-237,.cls-238{stroke-width:.54px}.cls-237{stroke:#3d3c3e}.cls-238{stroke:#3c3b3d}.cls-239{stroke:#3b3a3b}.cls-239,.cls-240,.cls-241{stroke-width:.54px}.cls-240{stroke:#3a393a}.cls-241{stroke:#393839}.cls-242,.cls-243{stroke:#383638;stroke-width:.53px}.cls-243{stroke:#363537}.cls-244{stroke:#353435}.cls-244,.cls-245,.cls-246{stroke-width:.53px}.cls-245{stroke:#343334}.cls-246{stroke:#333133}.cls-247,.cls-248{stroke:#323031;stroke-width:.52px}.cls-248{stroke:#312f30}.cls-249{stroke:#2f2d2f}.cls-249,.cls-250,.cls-251{stroke-width:.52px}.cls-250{stroke:#2e2c2d}.cls-251{stroke:#2d2b2c}.cls-252,.cls-253{stroke:#2c292a;stroke-width:.51px}.cls-253{stroke:#2b2829}.cls-254{stroke:#292627}.cls-254,.cls-255,.cls-256{stroke-width:.51px}.cls-255{stroke:#282526}.cls-256{stroke:#272425}.cls-257{stroke:#262223;stroke-width:.5px}.cls-258,.cls-259{stroke:#242122;stroke-width:.5px}.cls-259{stroke:#231f20}</style></defs><path d="M13.24 10.41l-1.31 1.36-.82-.85 2.3-2.33h1.22v8h-1.4zm390.27 5.07c3.11-2.35 4.32-3.39 4.32-4.55a1.29 1.29 0 0 0-1.45-1.22 2.78 2.78 0 0 0-2.16 1l-.82-.92a3.83 3.83 0 0 1 3-1.28c1.55 0 2.9.88 2.9 2.47s-1.36 2.79-3.5 4.41h3.55v1.24h-5.79zm7.77-.95a2.76 2.76 0 0 0 2.16.95 1.48 1.48 0 0 0 1.64-1.4 1.43 1.43 0 0 0-1.61-1.43 2.41 2.41 0 0 0-1.75.7l-1-.29V8.58H416v1.24h-3.84v2.31a2.6 2.6 0 0 1 1.81-.7A2.48 2.48 0 0 1 416.5 14c0 1.67-1.26 2.71-3 2.71a3.65 3.65 0 0 1-3-1.24zm9.51-6.07a3.2 3.2 0 0 1 2.3.89l-.66 1.07a2.05 2.05 0 0 0-1.64-.71c-1.33 0-2.11 1.24-2.11 2.64a1.41 1.41 0 0 0 0 .23 2.73 2.73 0 0 1 2.15-1.12 2.48 2.48 0 0 1 2.68 2.54 2.73 2.73 0 0 1-3 2.69c-2.35 0-3.3-1.91-3.3-4.13s1.26-4.1 3.58-4.1zm-.33 4.2a2.19 2.19 0 0 0-1.75.95 1.83 1.83 0 0 0 1.79 1.87 1.48 1.48 0 0 0 1.61-1.39c-.02-.98-.78-1.43-1.66-1.43zm-215.23-2.25l-1.31 1.36-.82-.85 2.3-2.33h1.22v8h-1.4zm2.62 5.07c3.11-2.35 4.32-3.39 4.32-4.55a1.29 1.29 0 0 0-1.45-1.22 2.78 2.78 0 0 0-2.16 1l-.82-.92a3.83 3.83 0 0 1 3-1.28c1.55 0 2.9.88 2.9 2.47s-1.36 2.79-3.5 4.41h3.55v1.24h-5.79zm8.6-3.02a2.05 2.05 0 0 1-1.67-1.9c0-1.48 1.51-2.1 2.94-2.1s2.94.62 2.94 2.1a2.06 2.06 0 0 1-1.68 1.9 2.33 2.33 0 0 1 1.8 2.07c0 1.43-1.43 2.19-3.06 2.19s-3.07-.76-3.07-2.19a2.33 2.33 0 0 1 1.8-2.07zm1.27.64c-.5.06-1.66.43-1.66 1.26s.74 1.13 1.66 1.13 1.64-.43 1.64-1.13-1.15-1.21-1.64-1.27zm0-3.38c-.88 0-1.52.4-1.52 1.07s1 1 1.52 1.13c.49-.08 1.51-.37 1.51-1.13s-.66-1.08-1.51-1.08z" class="cls-1"/><path d="M14 20.75V31.5" class="cls-2"/><path d="M15.59 20.75V31.5" class="cls-3"/><path d="M17.19 20.75V31.5" class="cls-4"/><path d="M18.78 20.75V31.5" class="cls-5"/><path d="M20.38 20.75V31.5" class="cls-6"/><path d="M21.97 20.75V31.5" class="cls-7"/><path d="M23.57 20.75V31.5" class="cls-8"/><path d="M25.16 20.75V31.5" class="cls-9"/><path d="M26.76 20.75V31.5" class="cls-10"/><path d="M28.35 20.75V31.5" class="cls-11"/><path d="M29.95 20.75V31.5" class="cls-12"/><path d="M31.54 20.75V31.5" class="cls-13"/><path d="M33.14 20.75V31.5" class="cls-14"/><path d="M34.74 20.75V31.5" class="cls-15"/><path d="M36.33 20.75V31.5" class="cls-16"/><path d="M37.93 20.75V31.5" class="cls-17"/><path d="M39.52 20.75V31.5" class="cls-18"/><path d="M41.12 20.75V31.5" class="cls-19"/><path d="M42.71 20.75V31.5" class="cls-20"/><path d="M44.31 20.75V31.5" class="cls-21"/><path d="M45.9 20.75V31.5" class="cls-22"/><path d="M47.5 20.75V31.5" class="cls-23"/><path d="M49.09 20.75V31.5" class="cls-24"/><path d="M50.69 20.75V31.5" class="cls-25"/><path d="M52.28 20.75V31.5" class="cls-26"/><path d="M53.88 20.75V31.5" class="cls-27"/><path d="M55.47 20.75V31.5" class="cls-28"/><path d="M57.07 20.75V31.5" class="cls-29"/><path d="M58.66 20.75V31.5" class="cls-30"/><path d="M60.26 20.75V31.5" class="cls-31"/><path d="M61.85 20.75V31.5" class="cls-32"/><path d="M63.45 20.75V31.5" class="cls-33"/><path d="M65.05 20.75V31.5" class="cls-34"/><path d="M66.64 20.75V31.5" class="cls-35"/><path d="M68.24 20.75V31.5" class="cls-36"/><path d="M69.83 20.75V31.5" class="cls-37"/><path d="M71.43 20.75V31.5" class="cls-38"/><path d="M73.02 20.75V31.5" class="cls-39"/><path d="M74.62 20.75V31.5" class="cls-40"/><path d="M76.21 20.75V31.5" class="cls-41"/><path d="M77.81 20.75V31.5" class="cls-42"/><path d="M79.4 20.75V31.5" class="cls-43"/><path d="M81 20.75V31.5" class="cls-44"/><path d="M82.59 20.75V31.5" class="cls-45"/><path d="M84.19 20.75V31.5" class="cls-46"/><path d="M85.78 20.75V31.5" class="cls-47"/><path d="M87.38 20.75V31.5" class="cls-48"/><path d="M88.97 20.75V31.5" class="cls-49"/><path d="M90.57 20.75V31.5" class="cls-50"/><path d="M92.16 20.75V31.5" class="cls-51"/><path d="M93.76 20.75V31.5" class="cls-52"/><path d="M95.36 20.75V31.5" class="cls-53"/><path d="M96.95 20.75V31.5" class="cls-54"/><path d="M98.55 20.75V31.5" class="cls-55"/><path d="M100.14 20.75V31.5" class="cls-56"/><path d="M101.74 20.75V31.5" class="cls-57"/><path d="M103.33 20.75V31.5" class="cls-58"/><path d="M104.93 20.75V31.5" class="cls-59"/><path d="M106.52 20.75V31.5" class="cls-60"/><path d="M108.12 20.75V31.5" class="cls-61"/><path d="M109.71 20.75V31.5" class="cls-62"/><path d="M111.31 20.75V31.5" class="cls-63"/><path d="M112.9 20.75V31.5" class="cls-64"/><path d="M114.5 20.75V31.5" class="cls-65"/><path d="M116.09 20.75V31.5" class="cls-66"/><path d="M117.69 20.75V31.5" class="cls-67"/><path d="M119.28 20.75V31.5" class="cls-68"/><path d="M120.88 20.75V31.5" class="cls-69"/><path d="M122.48 20.75V31.5" class="cls-70"/><path d="M124.07 20.75V31.5" class="cls-71"/><path d="M125.67 20.75V31.5" class="cls-72"/><path d="M127.26 20.75V31.5" class="cls-73"/><path d="M128.86 20.75V31.5" class="cls-74"/><path d="M130.45 20.75V31.5" class="cls-75"/><path d="M132.05 20.75V31.5" class="cls-76"/><path d="M133.64 20.75V31.5" class="cls-77"/><path d="M135.24 20.75V31.5" class="cls-78"/><path d="M136.83 20.75V31.5" class="cls-79"/><path d="M138.43 20.75V31.5" class="cls-80"/><path d="M140.02 20.75V31.5" class="cls-81"/><path d="M141.62 20.75V31.5" class="cls-82"/><path d="M143.21 20.75V31.5" class="cls-83"/><path d="M144.81 20.75V31.5" class="cls-84"/><path d="M146.4 20.75V31.5" class="cls-85"/><path d="M148 20.75V31.5" class="cls-86"/><path d="M149.59 20.75V31.5" class="cls-87"/><path d="M151.19 20.75V31.5" class="cls-88"/><path d="M152.79 20.75V31.5" class="cls-89"/><path d="M154.38 20.75V31.5" class="cls-90"/><path d="M155.98 20.75V31.5" class="cls-91"/><path d="M157.57 20.75V31.5" class="cls-92"/><path d="M159.17 20.75V31.5" class="cls-93"/><path d="M160.76 20.75V31.5" class="cls-94"/><path d="M162.36 20.75V31.5" class="cls-95"/><path d="M163.95 20.75V31.5" class="cls-96"/><path d="M165.55 20.75V31.5" class="cls-97"/><path d="M167.14 20.75V31.5" class="cls-98"/><path d="M168.74 20.75V31.5" class="cls-99"/><path d="M170.33 20.75V31.5" class="cls-100"/><path d="M171.93 20.75V31.5" class="cls-101"/><path d="M173.52 20.75V31.5" class="cls-102"/><path d="M175.12 20.75V31.5" class="cls-103"/><path d="M176.71 20.75V31.5" class="cls-104"/><path d="M178.31 20.75V31.5" class="cls-105"/><path d="M179.9 20.75V31.5" class="cls-106"/><path d="M181.5 20.75V31.5" class="cls-107"/><path d="M183.1 20.75V31.5" class="cls-108"/><path d="M184.69 20.75V31.5" class="cls-109"/><path d="M186.29 20.75V31.5" class="cls-110"/><path d="M187.88 20.75V31.5" class="cls-111"/><path d="M189.48 20.75V31.5" class="cls-112"/><path d="M191.07 20.75V31.5" class="cls-113"/><path d="M192.67 20.75V31.5" class="cls-114"/><path d="M194.26 20.75V31.5" class="cls-115"/><path d="M195.86 20.75V31.5" class="cls-116"/><path d="M197.45 20.75V31.5" class="cls-117"/><path d="M199.05 20.75V31.5" class="cls-118"/><path d="M200.64 20.75V31.5" class="cls-119"/><path d="M202.24 20.75V31.5" class="cls-120"/><path d="M203.83 20.75V31.5" class="cls-121"/><path d="M205.43 20.75V31.5" class="cls-122"/><path d="M207.02 20.75V31.5" class="cls-123"/><path d="M208.62 20.75V31.5" class="cls-124"/><path d="M210.21 20.75V31.5" class="cls-125"/><path d="M211.81 20.75V31.5" class="cls-126"/><path d="M213.41 20.75V31.5" class="cls-127"/><path d="M215 20.75V31.5" class="cls-128"/><path d="M216.6 20.75V31.5" class="cls-129"/><path d="M218.19 20.75V31.5" class="cls-130"/><path d="M219.79 20.75V31.5" class="cls-131"/><path d="M221.38 20.75V31.5" class="cls-132"/><path d="M222.98 20.75V31.5" class="cls-133"/><path d="M224.57 20.75V31.5" class="cls-134"/><path d="M226.17 20.75V31.5" class="cls-135"/><path d="M227.76 20.75V31.5" class="cls-136"/><path d="M229.36 20.75V31.5" class="cls-137"/><path d="M230.95 20.75V31.5" class="cls-138"/><path d="M232.55 20.75V31.5" class="cls-139"/><path d="M234.14 20.75V31.5" class="cls-140"/><path d="M235.74 20.75V31.5" class="cls-141"/><path d="M237.33 20.75V31.5" class="cls-142"/><path d="M238.93 20.75V31.5" class="cls-143"/><path d="M240.52 20.75V31.5" class="cls-144"/><path d="M242.12 20.75V31.5" class="cls-145"/><path d="M243.72 20.75V31.5" class="cls-146"/><path d="M245.31 20.75V31.5" class="cls-147"/><path d="M246.91 20.75V31.5" class="cls-148"/><path d="M248.5 20.75V31.5" class="cls-149"/><path d="M250.1 20.75V31.5" class="cls-150"/><path d="M251.69 20.75V31.5" class="cls-151"/><path d="M253.29 20.75V31.5" class="cls-152"/><path d="M254.88 20.75V31.5" class="cls-153"/><path d="M256.48 20.75V31.5" class="cls-154"/><path d="M258.07 20.75V31.5" class="cls-155"/><path d="M259.67 20.75V31.5" class="cls-156"/><path d="M261.26 20.75V31.5" class="cls-157"/><path d="M262.86 20.75V31.5" class="cls-158"/><path d="M264.45 20.75V31.5" class="cls-159"/><path d="M266.05 20.75V31.5" class="cls-160"/><path d="M267.64 20.75V31.5" class="cls-161"/><path d="M269.24 20.75V31.5" class="cls-162"/><path d="M270.84 20.75V31.5" class="cls-163"/><path d="M272.43 20.75V31.5" class="cls-164"/><path d="M274.03 20.75V31.5" class="cls-165"/><path d="M275.62 20.75V31.5" class="cls-166"/><path d="M277.22 20.75V31.5" class="cls-167"/><path d="M278.81 20.75V31.5" class="cls-168"/><path d="M280.41 20.75V31.5" class="cls-169"/><path d="M282 20.75V31.5" class="cls-170"/><path d="M283.6 20.75V31.5" class="cls-171"/><path d="M285.19 20.75V31.5" class="cls-172"/><path d="M286.79 20.75V31.5" class="cls-173"/><path d="M288.38 20.75V31.5" class="cls-174"/><path d="M289.98 20.75V31.5" class="cls-175"/><path d="M291.57 20.75V31.5" class="cls-176"/><path d="M293.17 20.75V31.5" class="cls-177"/><path d="M294.76 20.75V31.5" class="cls-178"/><path d="M296.36 20.75V31.5" class="cls-179"/><path d="M297.95 20.75V31.5" class="cls-180"/><path d="M299.55 20.75V31.5" class="cls-181"/><path d="M301.15 20.75V31.5" class="cls-182"/><path d="M302.74 20.75V31.5" class="cls-183"/><path d="M304.34 20.75V31.5" class="cls-184"/><path d="M305.93 20.75V31.5" class="cls-185"/><path d="M307.53 20.75V31.5" class="cls-186"/><path d="M309.12 20.75V31.5" class="cls-187"/><path d="M310.72 20.75V31.5" class="cls-188"/><path d="M312.31 20.75V31.5" class="cls-189"/><path d="M313.91 20.75V31.5" class="cls-190"/><path d="M315.5 20.75V31.5" class="cls-191"/><path d="M317.1 20.75V31.5" class="cls-192"/><path d="M318.69 20.75V31.5" class="cls-193"/><path d="M320.29 20.75V31.5" class="cls-194"/><path d="M321.88 20.75V31.5" class="cls-195"/><path d="M323.48 20.75V31.5" class="cls-196"/><path d="M325.07 20.75V31.5" class="cls-197"/><path d="M326.67 20.75V31.5" class="cls-198"/><path d="M328.26 20.75V31.5" class="cls-199"/><path d="M329.86 20.75V31.5" class="cls-200"/><path d="M331.46 20.75V31.5" class="cls-201"/><path d="M333.05 20.75V31.5" class="cls-202"/><path d="M334.65 20.75V31.5" class="cls-203"/><path d="M336.24 20.75V31.5" class="cls-204"/><path d="M337.84 20.75V31.5" class="cls-205"/><path d="M339.43 20.75V31.5" class="cls-206"/><path d="M341.03 20.75V31.5" class="cls-207"/><path d="M342.62 20.75V31.5" class="cls-208"/><path d="M344.22 20.75V31.5" class="cls-209"/><path d="M345.81 20.75V31.5" class="cls-210"/><path d="M347.41 20.75V31.5" class="cls-211"/><path d="M349 20.75V31.5" class="cls-212"/><path d="M350.6 20.75V31.5" class="cls-213"/><path d="M352.19 20.75V31.5" class="cls-214"/><path d="M353.79 20.75V31.5" class="cls-215"/><path d="M355.38 20.75V31.5" class="cls-216"/><path d="M356.98 20.75V31.5" class="cls-217"/><path d="M358.57 20.75V31.5" class="cls-218"/><path d="M360.17 20.75V31.5" class="cls-219"/><path d="M361.77 20.75V31.5" class="cls-220"/><path d="M363.36 20.75V31.5" class="cls-221"/><path d="M364.96 20.75V31.5" class="cls-222"/><path d="M366.55 20.75V31.5" class="cls-223"/><path d="M368.15 20.75V31.5" class="cls-224"/><path d="M369.74 20.75V31.5" class="cls-225"/><path d="M371.34 20.75V31.5" class="cls-226"/><path d="M372.93 20.75V31.5" class="cls-227"/><path d="M374.53 20.75V31.5" class="cls-228"/><path d="M376.12 20.75V31.5" class="cls-229"/><path d="M377.72 20.75V31.5" class="cls-230"/><path d="M379.31 20.75V31.5" class="cls-231"/><path d="M380.91 20.75V31.5" class="cls-232"/><path d="M382.5 20.75V31.5" class="cls-233"/><path d="M384.1 20.75V31.5" class="cls-234"/><path d="M385.69 20.75V31.5" class="cls-235"/><path d="M387.29 20.75V31.5" class="cls-236"/><path d="M388.88 20.75V31.5" class="cls-237"/><path d="M390.48 20.75V31.5" class="cls-238"/><path d="M392.08 20.75V31.5" class="cls-239"/><path d="M393.67 20.75V31.5" class="cls-240"/><path d="M395.27 20.75V31.5" class="cls-241"/><path d="M396.86 20.75V31.5" class="cls-242"/><path d="M398.46 20.75V31.5" class="cls-243"/><path d="M400.05 20.75V31.5" class="cls-244"/><path d="M401.65 20.75V31.5" class="cls-245"/><path d="M403.24 20.75V31.5" class="cls-246"/><path d="M404.84 20.75V31.5" class="cls-247"/><path d="M406.43 20.75V31.5" class="cls-248"/><path d="M408.03 20.75V31.5" class="cls-249"/><path d="M409.62 20.75V31.5" class="cls-250"/><path d="M411.22 20.75V31.5" class="cls-251"/><path d="M412.81 20.75V31.5" class="cls-252"/><path d="M414.41 20.75V31.5" class="cls-253"/><path d="M416 20.75V31.5" class="cls-254"/><path d="M417.6 20.75V31.5" class="cls-255"/><path d="M419.2 20.75V31.5" class="cls-256"/><path d="M420.79 20.75V31.5" class="cls-257"/><path d="M422.39 20.75V31.5" class="cls-258"/><path d="M423.98 20.75V31.5" class="cls-259"/><path d="M181.83 33.82a3.76 3.76 0 0 1 3.23 1.67l-1.15.65a2.55 2.55 0 0 0-2.08-1.07 2.9 2.9 0 0 0 0 5.8 2.93 2.93 0 0 0 1.9-.72V38.9h-2.39v-1.24h3.79v3a4.34 4.34 0 0 1-3.3 1.45 4.15 4.15 0 1 1 0-8.29zm4.49 2.34h1.26V37a2.48 2.48 0 0 1 1.88-1v1.25a1.87 1.87 0 0 0-.4 0 2 2 0 0 0-1.49.77V42h-1.26zm6.5-.16a2.87 2.87 0 0 1 2.86 3.16v.3h-4.48a1.76 1.76 0 0 0 1.85 1.6 2.45 2.45 0 0 0 1.64-.64l.58.83a3.38 3.38 0 0 1-2.35.84 3 3 0 0 1-.1-6.08zm-1.63 2.57h3.26a1.55 1.55 0 0 0-1.63-1.54 1.6 1.6 0 0 0-1.63 1.56zm5.92 4.63a.78.78 0 0 0 .83-.5l.29-.66-2.38-5.87h1.34l1.69 4.34 1.69-4.34h1.36L199.14 43a1.94 1.94 0 0 1-2 1.31 3.58 3.58 0 0 1-.71-.08l.19-1.13a1.32 1.32 0 0 0 .49.1zm5.45-2.91a3 3 0 0 0 2 .82c.76 0 1.14-.28 1.14-.71s-.61-.68-1.32-.84c-1-.22-2.18-.48-2.18-1.78 0-.95.82-1.76 2.28-1.76a3.31 3.31 0 0 1 2.26.82l-.53.89a2.34 2.34 0 0 0-1.72-.7c-.66 0-1.08.24-1.08.65s.58.6 1.26.76c1 .22 2.24.5 2.24 1.87 0 1-.85 1.8-2.41 1.8a3.52 3.52 0 0 1-2.48-.9zm7.99-4.29a2.6 2.6 0 0 1 2.22 1l-.83.77a1.55 1.55 0 0 0-1.33-.68 1.93 1.93 0 0 0 0 3.85 1.58 1.58 0 0 0 1.33-.68l.83.77a2.6 2.6 0 0 1-2.22 1 3 3 0 0 1 0-6.08zm6.62 5.34a2.45 2.45 0 0 1-1.87.77 1.93 1.93 0 0 1-2-1.92 1.87 1.87 0 0 1 2-1.88 2.4 2.4 0 0 1 1.87.74v-.86c0-.67-.55-1.08-1.36-1.08a2.37 2.37 0 0 0-1.72.73l-.52-.88A3.45 3.45 0 0 1 216 36c1.28 0 2.41.54 2.41 2.1V42h-1.26zm0-1.57a1.7 1.7 0 0 0-1.38-.6 1.05 1.05 0 1 0 0 2.08 1.7 1.7 0 0 0 1.38-.6zm2.65-5.77h1.26v8h-1.26zm5.23 2a2.87 2.87 0 0 1 2.86 3.16v.3h-4.48a1.76 1.76 0 0 0 1.85 1.6 2.45 2.45 0 0 0 1.64-.64l.58.83a3.38 3.38 0 0 1-2.35.84 3 3 0 0 1-.1-6.08zm-1.63 2.57h3.26a1.55 1.55 0 0 0-1.63-1.54 1.6 1.6 0 0 0-1.63 1.56zm15.29-2.67l-2.46 6.1h-.6l-2.45-6.1V42h-1.4v-8h2l2.2 5.34 2.13-5.34h2v8h-1.4zm2.47 3.16a3 3 0 1 1 3 3 2.9 2.9 0 0 1-3-3zm4.66 0a1.69 1.69 0 1 0-1.68 1.94 1.74 1.74 0 0 0 1.68-1.94zm6.42 2.11a2.35 2.35 0 0 1-1.86.94c-1.49 0-2.58-1.13-2.58-3s1.08-3 2.58-3a2.33 2.33 0 0 1 1.86.95V34h1.26v8h-1.26zm0-3.25a1.9 1.9 0 0 0-1.5-.78 1.71 1.71 0 0 0-1.63 1.93 1.7 1.7 0 0 0 1.63 1.93 1.89 1.89 0 0 0 1.5-.77zm5.23-1.92a2.87 2.87 0 0 1 2.86 3.16v.3h-4.48a1.76 1.76 0 0 0 1.85 1.6 2.45 2.45 0 0 0 1.64-.64l.58.83a3.38 3.38 0 0 1-2.35.84 3 3 0 0 1-.1-6.08zm-1.63 2.57h3.26a1.55 1.55 0 0 0-1.63-1.54 1.6 1.6 0 0 0-1.63 1.56z" class="cls-1"/></svg>