<svg xmlns="http://www.w3.org/2000/svg" id="Layer_1" viewBox="0 0 371.82 95.83" width="371.82" height="95.83"><defs><style>.cls-1{fill:#00683f}.cls-2{fill:#231f20}.cls-3{fill:#636466}</style></defs><path d="M15.4 83.83a2.51 2.51 0 0 1 2.15 1.11l-.77.43a1.7 1.7 0 0 0-1.38-.71 1.93 1.93 0 0 0 0 3.86 2 2 0 0 0 1.26-.52v-.83h-1.59v-.82h2.53v2a2.89 2.89 0 0 1-2.2 1 2.76 2.76 0 1 1 0-5.53zm2.99 1.56h.84V86a1.65 1.65 0 0 1 1.26-.66v.83h-.26a1.33 1.33 0 0 0-1 .51v2.63h-.84zm4.34-.1a1.91 1.91 0 0 1 1.9 2.1v.2h-3a1.17 1.17 0 0 0 1.23 1.06 1.63 1.63 0 0 0 1.1-.42l.38.55a2.25 2.25 0 0 1-1.57.56 2 2 0 0 1-.06-4.05zM21.64 87h2.17a1 1 0 0 0-1.09-1 1.07 1.07 0 0 0-1.08 1zm3.95 3.07a.52.52 0 0 0 .55-.34l.19-.44-1.58-3.91h.9l1.13 2.89 1.13-2.89h.9l-1.86 4.56a1.29 1.29 0 0 1-1.33.87 2.42 2.42 0 0 1-.47-.06l.13-.75a.88.88 0 0 0 .31.07zm3.63-1.93a2 2 0 0 0 1.31.54c.5 0 .76-.18.76-.47s-.41-.46-.88-.56c-.66-.14-1.46-.32-1.46-1.18 0-.63.54-1.18 1.52-1.18a2.21 2.21 0 0 1 1.5.54l-.35.59a1.56 1.56 0 0 0-1.14-.42c-.44 0-.72.16-.72.43s.38.4.84.5c.67.14 1.5.34 1.5 1.25 0 .68-.57 1.2-1.61 1.2a2.35 2.35 0 0 1-1.65-.6zm5.32-2.85A1.73 1.73 0 0 1 36 86l-.55.51a1 1 0 0 0-.89-.46 1.29 1.29 0 0 0 0 2.57 1 1 0 0 0 .89-.46l.55.51a1.73 1.73 0 0 1-1.48.69 2 2 0 0 1 0-4.05zM39 88.83a1.63 1.63 0 0 1-1.25.51 1.28 1.28 0 0 1-1.34-1.28 1.24 1.24 0 0 1 1.34-1.26 1.6 1.6 0 0 1 1.25.5v-.58c0-.45-.37-.72-.9-.72a1.58 1.58 0 0 0-1.14.49l-.34-.58a2.3 2.3 0 0 1 1.62-.62c.86 0 1.61.36 1.61 1.4v2.56H39zm0-1a1.13 1.13 0 0 0-.92-.4.7.7 0 1 0 0 1.38 1.13 1.13 0 0 0 .92-.4zm1.73-3.91h.84v5.33h-.84zm3.49 1.37a1.91 1.91 0 0 1 1.9 2.1v.2h-3a1.17 1.17 0 0 0 1.23 1.06 1.63 1.63 0 0 0 1.1-.42l.38.55a2.25 2.25 0 0 1-1.57.56 2 2 0 0 1-.06-4.05zM43.13 87h2.17a1 1 0 0 0-1.09-1 1.07 1.07 0 0 0-1.08 1zm3.54 3a1.33 1.33 0 0 0 .58-.75h-.14a.48.48 0 0 1-.48-.5.55.55 0 0 1 .54-.55.65.65 0 0 1 .62.73 1.71 1.71 0 0 1-.79 1.38zm6.22-5.26h-2.77v-.82H54v.65l-2.1 4.68h-1zm1.51 3.77c2.07-1.57 2.88-2.26 2.88-3a.86.86 0 0 0-1-.82 1.85 1.85 0 0 0-1.44.64l-.54-.62a2.56 2.56 0 0 1 2-.86 1.73 1.73 0 0 1 1.93 1.65c0 1-.9 1.86-2.33 2.94h2.37v.82H54.4zm4.74 2.21v-5.33H60v.53a1.54 1.54 0 0 1 1.24-.62c1 0 1.71.75 1.71 2s-.71 2-1.71 2a1.52 1.52 0 0 1-1.24-.59v2zM61 86a1.25 1.25 0 0 0-1 .52v1.53a1.28 1.28 0 0 0 1 .52A1.3 1.3 0 0 0 61 86zm2.63 4.72v-5.33h.84v.53a1.54 1.54 0 0 1 1.24-.62c1 0 1.71.75 1.71 2s-.71 2-1.71 2a1.52 1.52 0 0 1-1.24-.63v2zM65.46 86a1.25 1.25 0 0 0-1 .52v1.53a1.28 1.28 0 0 0 1 .52 1.3 1.3 0 0 0 0-2.57zM68 84.23a.52.52 0 0 1 .52-.52.52.52 0 1 1-.52.52zm.1 1.16h.84v3.86h-.84zm37.34-1.47h2.62a1.37 1.37 0 0 1 1.52 1.36 1.2 1.2 0 0 1-.93 1.22 1.31 1.31 0 0 1 1 1.31 1.4 1.4 0 0 1-1.55 1.44h-2.69zm2.43 2.21a.69.69 0 1 0 0-1.38h-1.5v1.38zm0 2.3a.72.72 0 0 0 .82-.74.73.73 0 0 0-.82-.74h-1.54v1.48zm2.47-4.2a.52.52 0 0 1 .52-.52.52.52 0 1 1-.52.52zm.1 1.16h.84v3.86h-.84zm1.94 2.96v-2.23h-.64v-.74h.64v-1.05h.84v1.06h.78v.74h-.78v2c0 .26.13.46.37.46a.54.54 0 0 0 .38-.14l.2.63a1.11 1.11 0 0 1-.79.25.89.89 0 0 1-1-.98zm6.95-1.62c0-.42-.18-.7-.63-.7a1.17 1.17 0 0 0-.9.51v2.7h-.8v-2.51c0-.42-.18-.7-.64-.7a1.17 1.17 0 0 0-.89.52v2.69h-.84v-3.85h.84v.53a1.67 1.67 0 0 1 1.26-.62 1 1 0 0 1 1.06.71 1.64 1.64 0 0 1 1.31-.71 1 1 0 0 1 1.11 1.17v2.79h-.84zm4.13 2.1a1.63 1.63 0 0 1-1.25.51 1.28 1.28 0 0 1-1.34-1.28 1.24 1.24 0 0 1 1.34-1.26 1.6 1.6 0 0 1 1.25.5v-.58c0-.45-.37-.72-.9-.72a1.58 1.58 0 0 0-1.14.49l-.34-.58a2.3 2.3 0 0 1 1.62-.62c.86 0 1.61.36 1.61 1.4v2.56h-.84zm0-1a1.13 1.13 0 0 0-.92-.4.7.7 0 1 0 0 1.38 1.13 1.13 0 0 0 .92-.4zm1.77 2.89v-5.33h.84v.53a1.54 1.54 0 0 1 1.24-.62c1 0 1.71.75 1.71 2s-.71 2-1.71 2a1.52 1.52 0 0 1-1.24-.63v2zm1.83-4.72a1.25 1.25 0 0 0-1 .52v1.53a1.28 1.28 0 0 0 1 .52 1.3 1.3 0 0 0 0-2.57zm9.18-.79l-1.64 4h-.4l-1.63-4v4h-.94v-5.29H133l1.45 3.59 1.46-3.59h1.32v5.33h-.94zm1.65 2.1a2 2 0 1 1 2 2 1.93 1.93 0 0 1-2-2zm3.1 0a1.13 1.13 0 1 0-1.12 1.29 1.16 1.16 0 0 0 1.13-1.29zm4.28 1.41a1.56 1.56 0 0 1-1.24.62c-1 0-1.72-.75-1.72-2a1.79 1.79 0 0 1 1.72-2 1.55 1.55 0 0 1 1.24.63v-2h.84v5.33h-.84zm0-2.17a1.27 1.27 0 0 0-1-.52 1.3 1.3 0 0 0 0 2.57 1.26 1.26 0 0 0 1-.51zm3.49-1.26a1.91 1.91 0 0 1 1.9 2.1v.2h-3a1.17 1.17 0 0 0 1.23 1.06 1.63 1.63 0 0 0 1.1-.42l.38.55a2.25 2.25 0 0 1-1.57.56 2 2 0 0 1-.06-4.05zM147.67 87h2.17a1 1 0 0 0-1.09-1 1.07 1.07 0 0 0-1.08 1zm3.54 3a1.33 1.33 0 0 0 .58-.75h-.14a.48.48 0 0 1-.48-.5.55.55 0 0 1 .54-.55.65.65 0 0 1 .62.73 1.71 1.71 0 0 1-.75 1.37zm6.22-5.26h-2.77v-.82h3.85v.65l-2.07 4.69h-1zm1.52 3.77c2.07-1.57 2.88-2.26 2.88-3a.86.86 0 0 0-1-.82 1.85 1.85 0 0 0-1.44.64l-.54-.62a2.56 2.56 0 0 1 2-.86 1.73 1.73 0 0 1 1.93 1.65c0 1-.9 1.86-2.33 2.94h2.37v.82h-3.86zm4.74 2.21v-5.33h.84v.53a1.54 1.54 0 0 1 1.24-.62c1 0 1.71.75 1.71 2s-.71 2-1.71 2a1.52 1.52 0 0 1-1.24-.63v2zm1.83-4.72a1.25 1.25 0 0 0-1 .52v1.53a1.28 1.28 0 0 0 1 .52 1.3 1.3 0 0 0 0-2.57zm2.65 4.72v-5.33h.83v.53a1.54 1.54 0 0 1 1.24-.62c1 0 1.71.75 1.71 2s-.71 2-1.71 2a1.52 1.52 0 0 1-1.24-.63v2zM170 86a1.25 1.25 0 0 0-1 .52v1.53a1.28 1.28 0 0 0 1 .52 1.3 1.3 0 0 0 0-2.57zm2.54-1.77a.52.52 0 0 1 .52-.52.52.52 0 1 1-.52.52zm.1 1.16h.84v3.86h-.84zM198 83.92h2.62a1.37 1.37 0 0 1 1.52 1.36 1.2 1.2 0 0 1-.93 1.22 1.31 1.31 0 0 1 1 1.31 1.4 1.4 0 0 1-1.55 1.44H198zm2.43 2.21a.69.69 0 1 0 0-1.38h-1.5v1.38zm0 2.3a.72.72 0 0 0 .82-.74.73.73 0 0 0-.82-.74h-1.54v1.48zm2.46-4.2a.52.52 0 1 1 1 0 .52.52 0 1 1-1 0zm.1 1.16h.84v3.86H203zm1.94 2.96v-2.23h-.64v-.74h.64v-1.05h.84v1.06h.78v.74h-.78v2c0 .26.13.46.37.46a.54.54 0 0 0 .38-.14l.2.63a1.11 1.11 0 0 1-.79.25.89.89 0 0 1-1-.98zm6.95-1.62c0-.42-.18-.7-.63-.7a1.17 1.17 0 0 0-.9.51v2.7h-.84v-2.51c0-.42-.18-.7-.64-.7a1.17 1.17 0 0 0-.89.52v2.69h-.84v-3.85h.86v.53a1.67 1.67 0 0 1 1.26-.62 1 1 0 0 1 1.06.71 1.64 1.64 0 0 1 1.31-.71 1 1 0 0 1 1.11 1.17v2.79h-.84zm4.12 2.1a1.63 1.63 0 0 1-1.25.51 1.28 1.28 0 0 1-1.34-1.28 1.24 1.24 0 0 1 1.34-1.26 1.6 1.6 0 0 1 1.25.5v-.58c0-.45-.37-.72-.9-.72a1.58 1.58 0 0 0-1.14.49l-.34-.58a2.3 2.3 0 0 1 1.62-.62c.86 0 1.61.36 1.61 1.4v2.56H216zm0-1a1.13 1.13 0 0 0-.92-.4.7.7 0 1 0 0 1.38 1.13 1.13 0 0 0 .92-.4zm1.78 2.89v-5.33h.84v.53a1.54 1.54 0 0 1 1.24-.62c1 0 1.71.75 1.71 2s-.71 2-1.71 2a1.52 1.52 0 0 1-1.24-.63v2zm1.83-4.72a1.25 1.25 0 0 0-1 .52v1.53a1.28 1.28 0 0 0 1 .52 1.3 1.3 0 0 0 0-2.57zm9.18-.79l-1.64 4h-.4l-1.63-4v4h-.94v-5.29h1.32l1.45 3.59 1.46-3.59h1.32v5.33h-.94zm1.65 2.1a2 2 0 1 1 2 2 1.93 1.93 0 0 1-2-2zm3.1 0a1.13 1.13 0 1 0-1.12 1.29 1.16 1.16 0 0 0 1.12-1.29zm4.28 1.41a1.56 1.56 0 0 1-1.24.62c-1 0-1.72-.75-1.72-2a1.79 1.79 0 0 1 1.72-2 1.55 1.55 0 0 1 1.24.63v-2h.84v5.33h-.84zm0-2.17a1.27 1.27 0 0 0-1-.52 1.3 1.3 0 0 0 0 2.57 1.26 1.26 0 0 0 1-.51zm3.49-1.26a1.91 1.91 0 0 1 1.9 2.1v.2h-3a1.17 1.17 0 0 0 1.23 1.06 1.63 1.63 0 0 0 1.1-.42l.38.55a2.25 2.25 0 0 1-1.57.56 2 2 0 0 1-.06-4.05zM240.22 87h2.17a1 1 0 0 0-1.09-1 1.07 1.07 0 0 0-1.08 1zm3.54 3a1.33 1.33 0 0 0 .58-.75h-.14a.48.48 0 0 1-.48-.5.55.55 0 0 1 .54-.55.65.65 0 0 1 .62.73 1.71 1.71 0 0 1-.75 1.37zm4.77-4.87l-.87.9-.54-.57 1.54-1.55h.82v5.33h-.94zm4.11 2.87h-2.54v-.75l2.19-3.37h1.29v3.3h.71V88h-.71v1.21h-.94zm-1.64-.78h1.62v-2.47zm6.12.78h-2.54v-.75l2.19-3.37h1.29v3.3h.71V88h-.71v1.21h-.94zm-1.62-.82h1.62v-2.43zm3.88 3.54v-5.33h.84v.53a1.54 1.54 0 0 1 1.24-.62c1 0 1.71.75 1.71 2s-.71 2-1.71 2a1.52 1.52 0 0 1-1.24-.63v2zm1.83-4.72a1.25 1.25 0 0 0-1 .52v1.53a1.28 1.28 0 0 0 1 .52 1.3 1.3 0 0 0 0-2.57zm2.65 4.72v-5.33h.84v.53a1.54 1.54 0 0 1 1.24-.62c1 0 1.71.75 1.71 2s-.71 2-1.71 2a1.52 1.52 0 0 1-1.24-.63v2zm1.83-4.72a1.25 1.25 0 0 0-1 .52v1.53a1.28 1.28 0 0 0 1 .52 1.3 1.3 0 0 0 0-2.57zm2.55-1.77a.52.52 0 0 1 .52-.52.52.52 0 1 1-.52.52zm.1 1.16h.84v3.86h-.84zm22.79-1.47h2.62a1.37 1.37 0 0 1 1.52 1.36 1.2 1.2 0 0 1-.93 1.22 1.31 1.31 0 0 1 1 1.31 1.4 1.4 0 0 1-1.55 1.44h-2.69zm2.43 2.21a.69.69 0 1 0 0-1.38h-1.5v1.38zm0 2.3a.72.72 0 0 0 .82-.74.73.73 0 0 0-.82-.74h-1.54v1.48zm2.44-4.2a.52.52 0 0 1 .52-.52.52.52 0 0 1 0 1 .52.52 0 0 1-.52-.48zm.1 1.16h.9v3.86h-.84zm1.97 2.96v-2.23h-.64v-.74h.64v-1.05h.84v1.06h.78v.74h-.78v2c0 .26.13.46.37.46a.54.54 0 0 0 .38-.14l.2.63a1.11 1.11 0 0 1-.79.25.89.89 0 0 1-1-.98zm6.93-1.62c0-.42-.18-.7-.63-.7a1.17 1.17 0 0 0-.9.51v2.7h-.84v-2.51c0-.42-.18-.7-.64-.7a1.17 1.17 0 0 0-.89.52v2.69h-.84v-3.85h.84v.53a1.66 1.66 0 0 1 1.25-.62 1 1 0 0 1 1.06.71 1.64 1.64 0 0 1 1.31-.71 1 1 0 0 1 1.11 1.17v2.79H305zm4.15 2.1a1.63 1.63 0 0 1-1.25.51 1.28 1.28 0 0 1-1.34-1.28 1.24 1.24 0 0 1 1.34-1.26 1.6 1.6 0 0 1 1.25.5v-.58c0-.45-.37-.72-.9-.72a1.58 1.58 0 0 0-1.14.49l-.34-.58a2.29 2.29 0 0 1 1.62-.62c.86 0 1.61.36 1.61 1.4v2.56h-.84zm0-1a1.13 1.13 0 0 0-.92-.4.7.7 0 1 0 0 1.38 1.13 1.13 0 0 0 .92-.4zm1.77 2.89v-5.33h.84v.53a1.54 1.54 0 0 1 1.24-.62c1 0 1.71.75 1.71 2s-.71 2-1.71 2a1.52 1.52 0 0 1-1.24-.63v2zm1.83-4.72a1.25 1.25 0 0 0-1 .52v1.53a1.28 1.28 0 0 0 1 .52 1.3 1.3 0 0 0 0-2.57zm9.18-.79l-1.64 4h-.4l-1.63-4v4h-.93v-5.29h1.32l1.45 3.59 1.46-3.59h1.32v5.33h-.93zm1.65 2.1a2 2 0 1 1 2 2 1.93 1.93 0 0 1-2-2zm3.1 0a1.13 1.13 0 1 0-1.12 1.29 1.16 1.16 0 0 0 1.12-1.29zm4.32 1.41a1.56 1.56 0 0 1-1.24.62c-1 0-1.72-.75-1.72-2a1.79 1.79 0 0 1 1.72-2 1.55 1.55 0 0 1 1.24.63v-2h.84v5.33H331zm0-2.17a1.27 1.27 0 0 0-1-.52 1.3 1.3 0 0 0 0 2.57 1.26 1.26 0 0 0 1-.51zm3.45-1.26a1.91 1.91 0 0 1 1.9 2.1v.2h-3a1.17 1.17 0 0 0 1.23 1.06 1.63 1.63 0 0 0 1.1-.42l.38.55a2.25 2.25 0 0 1-1.57.56 2 2 0 0 1-.06-4.05zM333.36 87h2.17a1 1 0 0 0-1.09-1 1.07 1.07 0 0 0-1.08 1zm3.54 3a1.33 1.33 0 0 0 .58-.75h-.14a.48.48 0 0 1-.48-.5.55.55 0 0 1 .54-.55.65.65 0 0 1 .62.73 1.71 1.71 0 0 1-.75 1.37zm3.64-1.49c2.07-1.57 2.88-2.26 2.88-3a.86.86 0 0 0-1-.82 1.85 1.85 0 0 0-1.44.64l-.54-.62a2.56 2.56 0 0 1 2-.86 1.73 1.73 0 0 1 1.93 1.65c0 1-.9 1.86-2.33 2.94h2.37v.82h-3.86zm5.73-2.01a1.37 1.37 0 0 1-1.11-1.26c0-1 1-1.4 2-1.4s2 .42 2 1.4A1.38 1.38 0 0 1 348 86.5a1.56 1.56 0 0 1 1.2 1.38c0 1-1 1.46-2 1.46s-2-.5-2-1.46a1.56 1.56 0 0 1 1.07-1.38zm.85.42c-.34 0-1.1.29-1.1.84s.5.75 1.1.75 1.09-.29 1.09-.75-.76-.76-1.09-.84zm0-2.25c-.58 0-1 .26-1 .71s.69.7 1 .75 1-.25 1-.75-.43-.71-1-.71zm3.75 1.83a1.37 1.37 0 0 1-1.11-1.26c0-1 1-1.4 2-1.4s2 .42 2 1.4a1.38 1.38 0 0 1-1.12 1.26 1.56 1.56 0 0 1 1.2 1.38c0 1-1 1.46-2 1.46s-2-.5-2-1.46a1.56 1.56 0 0 1 1.03-1.38zm.85.42c-.34 0-1.1.29-1.1.84s.5.75 1.1.75 1.09-.29 1.09-.75-.81-.76-1.09-.84zm0-2.25c-.58 0-1 .26-1 .71s.69.7 1 .75 1-.25 1-.75-.43-.71-1-.71zm2.76 6.05v-5.33h.84v.53a1.54 1.54 0 0 1 1.24-.62c1 0 1.71.75 1.71 2s-.71 2-1.71 2a1.52 1.52 0 0 1-1.24-.63v2zm1.83-4.72a1.25 1.25 0 0 0-1 .52v1.53a1.28 1.28 0 0 0 1 .52 1.3 1.3 0 0 0 0-2.57zm2.69 4.72v-5.33h.84v.53a1.54 1.54 0 0 1 1.24-.62c1 0 1.71.75 1.71 2s-.71 2-1.71 2a1.52 1.52 0 0 1-1.24-.63v2zm1.79-4.72a1.25 1.25 0 0 0-1 .52v1.53a1.28 1.28 0 0 0 1 .52 1.3 1.3 0 0 0 0-2.57zm2.55-1.77a.52.52 0 1 1 .52.52.52.52 0 0 1-.52-.52zm.1 1.16h.84v3.86h-.84z" class="cls-1"/><path d="M103.18 6.5h35.69v35.69h-35.69zm36.7 0h35.69v35.69h-35.69zm-36.7 36.69h35.69v35.69h-35.69zm36.7 0h35.69v35.69h-35.69zM197.3 6.5h17.35v17.35H197.3zm18.35 0H233v17.35h-17.35zm18.34 0h17.35v17.35h-17.35zm18.35 0h17.35v17.35h-17.35zM197.3 24.85h17.35V42.2H197.3zm18.35 0H233V42.2h-17.35zm18.34 0h17.35V42.2h-17.35zm18.35 0h17.35V42.2h-17.35zM197.3 43.19h17.35v17.35H197.3zm18.35 0H233v17.35h-17.35zm18.34 0h17.35v17.35h-17.35zm18.35 0h17.35v17.35h-17.35zM197.3 61.54h17.35v17.35H197.3zm18.35 0H233v17.35h-17.35zm18.34 0h17.35v17.35h-17.35zm18.35 0h17.35v17.35h-17.35zM291.42 6.5h8.17v8.17h-8.17zm9.17 0h8.17v8.17h-8.17zm9.18 0h8.17v8.17h-8.17zm9.17 0h8.17v8.17h-8.17zm9.18 0h8.17v8.17h-8.17zm9.17 0h8.17v8.17h-8.17zm9.17 0h8.17v8.17h-8.17zm9.18 0h8.17v8.17h-8.17zm-64.22 9.17h8.17v8.17h-8.17zm9.17 0h8.17v8.17h-8.17zm9.18 0h8.17v8.17h-8.17zm9.17 0h8.17v8.17h-8.17zm9.18 0h8.17v8.17h-8.17zm9.17 0h8.17v8.17h-8.17zm9.17 0h8.17v8.17h-8.17zm9.18 0h8.17v8.17h-8.17zm-64.22 9.18h8.17v8.17h-8.17zm9.17 0h8.17v8.17h-8.17zm9.18 0h8.17v8.17h-8.17zm9.17 0h8.17v8.17h-8.17zm9.18 0h8.17v8.17h-8.17zm9.17 0h8.17v8.17h-8.17zm9.17 0h8.17v8.17h-8.17zm9.18 0h8.17v8.17h-8.17zm-64.22 9.17h8.17v8.17h-8.17zm9.17 0h8.17v8.17h-8.17zm9.18 0h8.17v8.17h-8.17zm9.17 0h8.17v8.17h-8.17zm9.18 0h8.17v8.17h-8.17zm9.17 0h8.17v8.17h-8.17zm9.17 0h8.17v8.17h-8.17zm9.18 0h8.17v8.17h-8.17zm-64.22 9.17h8.17v8.17h-8.17zm9.17 0h8.17v8.17h-8.17zm9.18 0h8.17v8.17h-8.17zm9.17 0h8.17v8.17h-8.17zm9.18 0h8.17v8.17h-8.17zm9.17 0h8.17v8.17h-8.17zm9.17 0h8.17v8.17h-8.17zm9.18 0h8.17v8.17h-8.17zm-64.22 9.18h8.17v8.17h-8.17zm9.17 0h8.17v8.17h-8.17zm9.18 0h8.17v8.17h-8.17zm9.17 0h8.17v8.17h-8.17zm9.18 0h8.17v8.17h-8.17zm9.17 0h8.17v8.17h-8.17zm9.17 0h8.17v8.17h-8.17zm9.18 0h8.17v8.17h-8.17zm-64.22 9.17h8.17v8.17h-8.17zm9.17 0h8.17v8.17h-8.17zm9.18 0h8.17v8.17h-8.17zm9.17 0h8.17v8.17h-8.17zm9.18 0h8.17v8.17h-8.17zm9.17 0h8.17v8.17h-8.17zm9.17 0h8.17v8.17h-8.17zm9.18 0h8.17v8.17h-8.17zm-64.22 9.17h8.17v8.17h-8.17zm9.17 0h8.17v8.17h-8.17zm9.18 0h8.17v8.17h-8.17zm9.17 0h8.17v8.17h-8.17zm9.18 0h8.17v8.17h-8.17zm9.17 0h8.17v8.17h-8.17zm9.17 0h8.17v8.17h-8.17zm9.18 0h8.17v8.17h-8.17z" class="cls-2"/><path d="M4.61 6.5H40.3v35.69H4.61zm36.69 0H77v35.69H41.3zM4.61 43.19H40.3v35.69H4.61zm36.69 0H77v35.69H41.3z" class="cls-3"/></svg>